<?xml version="1.0" encoding="UTF-8"?>
<svg version="1.1" xmlns="http://www.w3.org/2000/svg" width="1024" height="897">
<path d="M0 0 C9.39782719 6.53917253 14.85770231 15.71336616 20.3046875 25.5546875 C20.99982884 26.79348634 21.69605709 28.03167583 22.39331055 29.26928711 C23.82716512 31.81523857 25.25724019 34.36325678 26.68505859 36.91259766 C29.94408435 42.7188608 33.28196179 48.47942953 36.6171875 54.2421875 C37.85809287 56.39061348 39.09897877 58.53905069 40.33984375 60.6875 C44.72547863 68.27352815 49.11432215 75.85768913 53.50732422 83.43945312 C54.81714953 85.70120642 56.1255672 87.96376852 57.43359375 90.2265625 C61.29251431 96.90038301 65.15415455 103.57237882 69.046875 110.2265625 C75.69999899 121.60015003 82.29246976 133.00572956 88.81576538 144.45413208 C94.17934057 153.86508261 99.60814753 163.23637248 105.078125 172.5859375 C108.63000257 178.65850238 112.13975218 184.75169781 115.6171875 190.8671875 C118.64166241 196.1600186 121.72910996 201.41646066 124.8046875 206.6796875 C128.49716324 212.99861042 132.18702642 219.31759388 135.8046875 225.6796875 C139.25659092 231.74977191 142.77847719 237.77750865 146.3046875 243.8046875 C151.86914849 253.31967491 157.35822037 262.87580459 162.81494141 272.45275879 C168.17879907 281.86416216 173.60787829 291.23591229 179.078125 300.5859375 C182.64060554 306.67663003 186.16040248 312.7882541 189.6484375 318.921875 C192.49585623 323.90485777 195.40657827 328.8510911 198.3046875 333.8046875 C203.52569856 342.7323904 208.68473521 351.69381589 213.8046875 360.6796875 C219.41076717 370.5186643 225.07662295 380.32058394 230.796875 390.09375 C235.00492267 397.28970366 239.15139823 404.51881316 243.27539062 411.76318359 C246.99190909 418.2817807 250.7643331 424.76629053 254.5546875 431.2421875 C259.69332192 440.02354277 264.76766717 448.83982952 269.8046875 457.6796875 C275.3437235 467.39951636 280.93614976 477.08618663 286.5859375 486.7421875 C291.49106047 495.12872429 296.346937 503.54306463 301.19506836 511.96264648 C305.4120279 519.28068142 309.66273838 526.57821206 313.9296875 533.8671875 C319.00785786 542.54665541 323.98502232 551.27817236 328.91503906 560.04248047 C333.34301982 567.89913636 337.87121901 575.69420732 342.42700195 583.47729492 C346.80983657 590.96638094 351.15972022 598.47385618 355.4921875 605.9921875 C356.12205566 607.08515137 356.75192383 608.17811523 357.40087891 609.30419922 C358.62909806 611.43553013 359.85728901 613.56687731 361.08544922 615.69824219 C364.87892966 622.27676862 368.68711663 628.84678605 372.49414062 635.41748047 C374.30345852 638.54064358 376.11183838 641.66434938 377.92016602 644.78808594 C378.84245234 646.38122945 379.7648155 647.97432848 380.68725586 649.56738281 C382.94245891 653.46218915 385.19681812 657.35747849 387.44921875 661.25390625 C391.30306102 667.91853614 395.15945563 674.58144044 399.046875 681.2265625 C405.69999899 692.60015003 412.29246976 704.00572956 418.81576538 715.45413208 C424.17934057 724.86508261 429.60814753 734.23637248 435.078125 743.5859375 C438.63294385 749.66353101 442.14622958 755.76137098 445.625 761.8828125 C447.9977493 766.0357025 450.42133889 770.15871952 452.83886719 774.28564453 C457.80052172 782.7599399 462.74758222 791.24152504 467.5546875 799.8046875 C468.16352783 800.87734863 468.16352783 800.87734863 468.78466797 801.97167969 C474.72701739 812.64375902 475.46716552 824.08855859 473.15234375 836.05078125 C469.57706048 846.86869843 461.63776949 855.72272388 451.4915916 860.84817218 C443.36272802 864.10523218 435.57631509 864.24143011 426.96052647 864.18584538 C425.36528378 864.19032746 423.77004524 864.19655926 422.17481539 864.20437071 C417.79666486 864.22074514 413.41886321 864.21230848 409.04071308 864.19975908 C404.27552692 864.19050434 399.5103987 864.20444244 394.74522394 864.21539825 C386.39538318 864.2313814 378.0456432 864.23247779 369.69579315 864.22380066 C357.27927176 864.21093209 344.86284154 864.22088922 332.44632562 864.23530021 C310.27067321 864.26024379 288.09506348 864.26212136 265.91940114 864.25402609 C246.51260651 864.24695617 227.10582845 864.2468931 207.69903374 864.25388908 C205.09688132 864.25480041 202.49472891 864.25571117 199.8925765 864.25662137 C195.97148435 864.25800449 192.05039221 864.25939557 188.12930008 864.26080751 C173.52771818 864.26600695 158.92613606 864.26984422 144.32455349 864.27251339 C143.65964049 864.27263494 142.99472749 864.27275648 142.30966561 864.27288171 C121.12382829 864.27664511 99.93799651 864.27405556 78.75216007 864.2672739 C78.06505688 864.26705535 77.37795368 864.26683679 76.67002918 864.26661162 C69.00824018 864.26416645 61.34645123 864.26159655 53.68466229 864.25897623 C52.99292603 864.25873969 52.30118977 864.25850315 51.58849181 864.25825944 C48.79105858 864.25730206 45.99362536 864.25634451 43.19619213 864.25537929 C-1.0543691 864.24013087 -45.3048656 864.24812553 -89.55541992 864.27661133 C-100.70656035 864.28377599 -111.85770081 864.29087863 -123.00884151 864.29759312 C-123.69547115 864.29800734 -124.38210078 864.29842155 -125.08953737 864.29884832 C-146.25248722 864.31153271 -167.41543168 864.31804012 -188.57838535 864.31799984 C-189.24282292 864.31799904 -189.90726048 864.31799824 -190.59183251 864.31799741 C-205.83221394 864.31790944 -221.07259485 864.3159896 -236.31297594 864.31281132 C-241.52726495 864.31177452 -246.74155395 864.31078729 -251.95584297 864.3098278 C-253.23975234 864.30957892 -254.52366171 864.30933003 -255.84647742 864.3090736 C-275.24118528 864.30563123 -294.6358604 864.31494844 -314.03056145 864.33059883 C-336.08235103 864.3483523 -358.13406083 864.34852196 -380.18584698 864.32524718 C-392.52990378 864.31273049 -404.87377734 864.31402502 -417.21782345 864.33512804 C-425.46096072 864.34783602 -433.7039566 864.34239852 -441.94707845 864.32214323 C-446.6452427 864.31110738 -451.34304625 864.30795503 -456.04119372 864.32681853 C-460.31824867 864.34382691 -464.59463191 864.33768497 -468.87164577 864.31335269 C-470.40635588 864.30862349 -471.94112082 864.31219789 -473.47578253 864.32527171 C-486.02212602 864.42471635 -496.35980344 861.89097548 -506.16015625 853.69140625 C-515.03908103 844.91473396 -518.39201424 836.00849459 -518.6328125 823.8046875 C-518.65529053 823.07378906 -518.67776855 822.34289062 -518.70092773 821.58984375 C-518.65398833 810.67101522 -513.32477831 801.59954859 -507.8203125 792.4921875 C-506.55970312 790.36860397 -505.2992919 788.2449028 -504.0390625 786.12109375 C-503.39839844 785.04875488 -502.75773437 783.97641602 -502.09765625 782.87158203 C-499.14022727 777.90938665 -496.22911594 772.92049408 -493.3203125 767.9296875 C-492.75022461 766.95322266 -492.18013672 765.97675781 -491.59277344 764.97070312 C-483.79395972 751.59263802 -476.14542596 738.12800531 -468.48242188 724.671875 C-463.01416696 715.07102115 -457.52334269 705.48736495 -451.90380859 695.97412109 C-448.42660366 690.08568539 -444.99731834 684.17038412 -441.57739258 678.24853516 C-439.01144003 673.808372 -436.43495995 669.37469753 -433.84375 664.94921875 C-428.05688062 655.06479946 -422.31046554 645.16284754 -416.6953125 635.1796875 C-411.73470523 626.36091374 -406.67808713 617.60307422 -401.56640625 608.87109375 C-397.24682746 601.49062139 -392.9625866 594.09051467 -388.6953125 586.6796875 C-383.91071661 578.37148038 -379.09957551 570.07970065 -374.2578125 561.8046875 C-368.83836236 552.53877955 -363.49735802 543.22976636 -358.18313599 533.90332031 C-352.81992764 524.49301045 -347.39147965 515.12236527 -341.921875 505.7734375 C-338.36999743 499.70087262 -334.86024782 493.60767719 -331.3828125 487.4921875 C-327.74633745 481.12835616 -324.02603856 474.81260365 -320.328125 468.484375 C-317.25953589 463.22958077 -314.203215 457.96944707 -311.1953125 452.6796875 C-307.74340886 446.6096027 -304.22149592 440.58188244 -300.6953125 434.5546875 C-294.71625196 424.32980393 -288.82292334 414.05822496 -282.95605469 403.76879883 C-278.7118654 396.32630838 -274.44089488 388.90025137 -270.13818359 381.49145508 C-266.77486908 375.69514491 -263.45050367 369.87720922 -260.1328125 364.0546875 C-255.7741447 356.41070335 -251.35152242 348.80818724 -246.87890625 341.23046875 C-238.48357983 327.00514285 -230.18950269 312.72755281 -222.09277344 298.33007812 C-217.59667873 290.35093972 -212.99267659 282.43785411 -208.36425781 274.53491211 C-204.51665791 267.96040892 -200.71361204 261.36243647 -196.9453125 254.7421875 C-193.49018132 248.67309142 -190.00414934 242.62605552 -186.4453125 236.6171875 C-182.03232165 229.16256625 -177.73404402 221.64371403 -173.4453125 214.1171875 C-167.75897511 204.13798002 -162.01537725 194.1950236 -156.21289062 184.28271484 C-151.90887872 176.92324889 -147.67011807 169.52841808 -143.45214844 162.11938477 C-140.40847358 156.78073835 -137.32358469 151.46916353 -134.1953125 146.1796875 C-130.5793341 140.06378233 -127.02595536 133.91488689 -123.5078125 127.7421875 C-113.52677939 110.23083583 -103.43675719 92.78344303 -93.26318359 75.38330078 C-88.94606249 67.99039939 -84.69084147 60.56372487 -80.45458984 53.12426758 C-76.99450746 47.05609163 -73.48718526 41.01812645 -69.91967773 35.01245117 C-67.68882355 31.25048695 -65.50687789 27.46750709 -63.375 23.6484375 C-62.65775757 22.37540771 -62.65775757 22.37540771 -61.92602539 21.07666016 C-61.01208446 19.45142176 -60.10691349 17.8212048 -59.21264648 16.18505859 C-55.21654762 9.11427476 -50.26864251 3.4971746 -43.1953125 -0.6328125 C-42.4115625 -1.10332031 -41.6278125 -1.57382812 -40.8203125 -2.05859375 C-28.23765188 -8.10650949 -11.85604309 -7.13050279 0 0 Z M-22.1953125 148.6796875 C-27.06411582 155.08035462 -30.91003612 162.25201013 -34.85601807 169.23718262 C-36.26527773 171.73168029 -37.68208693 174.22186361 -39.09832764 176.71240234 C-39.80870821 177.96186145 -40.51871281 179.21153439 -41.22833252 180.46142578 C-44.0690964 185.46441699 -46.93416619 190.45276374 -49.8203125 195.4296875 C-50.24948975 196.17001221 -50.67866699 196.91033691 -51.12084961 197.6730957 C-55.30743646 204.88570063 -59.51717968 212.08481865 -63.72314453 219.28613281 C-68.70940095 227.83052339 -73.65388875 236.39861648 -78.59106445 244.97143555 C-82.74590838 252.18107493 -86.93061045 259.37256856 -91.1328125 266.5546875 C-96.86996784 276.36591337 -102.52272347 286.22406918 -108.15283203 296.09692383 C-114.56100032 307.33276482 -121.02063316 318.53856741 -127.49511719 329.73632812 C-129.09877703 332.51256636 -130.69852163 335.29101672 -132.296875 338.0703125 C-136.82664562 345.93704471 -141.39508228 353.75527835 -146.24609375 361.4296875 C-148.45045843 365.10510115 -150.48313725 368.8556216 -152.52416992 372.62353516 C-155.5076634 378.07968875 -158.60524248 383.47092792 -161.6953125 388.8671875 C-162.04091217 389.47162689 -162.38651184 390.07606628 -162.74258423 390.69882202 C-168.14205044 400.14136456 -173.60534079 409.5451453 -179.10424805 418.93017578 C-183.13914991 425.83050959 -187.09077191 432.7743639 -191.0078125 439.7421875 C-194.75877689 446.41364854 -198.56433201 453.03077567 -202.54345703 459.56884766 C-206.44287231 466.0158115 -210.15501487 472.57016919 -213.8828125 479.1171875 C-218.96369387 488.03928043 -224.07287788 496.94243658 -229.2578125 505.8046875 C-238.68335317 521.91823829 -248.0139921 538.08620957 -257.2578125 554.3046875 C-264.38326391 566.80174349 -271.65309973 579.21435296 -278.921875 591.62841797 C-286.08783639 603.8682236 -293.19104201 616.14126755 -300.21224976 628.46456909 C-305.45011605 637.65638587 -310.75765415 646.80543546 -316.10620117 655.93334961 C-320.14030397 662.83271014 -324.09138075 669.77544694 -328.0078125 676.7421875 C-331.75959261 683.41509939 -335.56701352 690.03295949 -339.5456543 696.57324219 C-343.41921551 702.9795496 -347.11412685 709.48825082 -350.8203125 715.9921875 C-351.16040344 716.58885223 -351.50049438 717.18551697 -351.85089111 717.80026245 C-352.54267469 719.01395545 -353.23444708 720.22765484 -353.9262085 721.44136047 C-354.27153625 722.04723495 -354.61686401 722.65310944 -354.97265625 723.27734375 C-355.49378998 724.19177498 -355.49378998 724.19177498 -356.02545166 725.12467957 C-359.79469529 731.7358867 -363.58461376 738.33508031 -367.3828125 744.9296875 C-368.29957764 746.52550659 -368.29957764 746.52550659 -369.23486328 748.15356445 C-371.78925876 752.58481107 -374.36253837 756.98142007 -377.12109375 761.2890625 C-379.36926166 764.30157368 -379.36926166 764.30157368 -379.1953125 766.6796875 C-143.5753125 766.6796875 92.0446875 766.6796875 334.8046875 766.6796875 C333.40679705 763.18496139 332.08752555 760.22975262 330.2578125 757.00390625 C329.75016357 756.10647705 329.24251465 755.20904785 328.71948242 754.28442383 C328.1701001 753.32173584 327.62071777 752.35904785 327.0546875 751.3671875 C326.47759033 750.35100342 325.90049316 749.33481934 325.3059082 748.2878418 C320.67943225 740.16264411 315.97486606 732.0840459 311.24902344 724.01635742 C306.714829 716.26722221 302.24889345 708.48059209 297.8046875 700.6796875 C292.10529069 690.67647154 286.34506835 680.71071291 280.53125 670.7734375 C276.96876946 664.68274497 273.44897252 658.5711209 269.9609375 652.4375 C267.11351877 647.45451723 264.20279673 642.5082839 261.3046875 637.5546875 C256.08367262 628.62697807 250.92508131 619.66531139 245.8046875 610.6796875 C236.95524233 595.15490263 228.04832148 579.66145265 218.8046875 564.3671875 C215.93513832 559.61884278 213.20757667 554.81712939 210.58203125 549.9296875 C204.22687241 538.30882561 197.53348343 526.86776649 190.79467773 515.46606445 C185.0499769 505.7312075 179.43159522 495.9228372 173.79101562 486.12744141 C171.79224518 482.65809084 169.79118998 479.19006998 167.7890625 475.72265625 C156.92831635 456.91158629 156.92831635 456.91158629 152.7421875 449.5546875 C148.53317204 442.16818773 144.2326985 434.83521144 139.94384766 427.49487305 C136.18264646 421.05367686 132.45455004 414.59613897 128.765625 408.11328125 C125.98392872 403.24254215 123.16919723 398.39114106 120.35595703 393.53857422 C117.02715979 387.79518717 113.70891235 382.04580351 110.39477539 376.29394531 C104.89001494 366.74096439 99.36737598 357.19906373 93.8046875 347.6796875 C83.77642567 330.5151403 73.85488136 313.28981373 64.01123047 296.01879883 C60.98280117 290.71469783 57.91308246 285.4372801 54.8046875 280.1796875 C50.67552048 273.19554352 46.63635767 266.16295132 42.61938477 259.11376953 C36.06083887 247.60904322 29.43101285 236.14546395 22.8046875 224.6796875 C22.30582031 223.81601563 21.80695313 222.95234375 21.29296875 222.0625 C16.43709825 213.65653931 11.5627809 205.26172712 6.66455078 196.88037109 C1.52530699 188.08599547 -3.58744158 179.27830707 -8.6328125 170.4296875 C-9.12491211 169.56722412 -9.61701172 168.70476074 -10.12402344 167.81616211 C-13.92686271 161.15081021 -13.92686271 161.15081021 -15.37304688 158.61279297 C-16.37244569 156.86205078 -17.37736332 155.11446199 -18.3828125 153.3671875 C-18.91261719 152.44292969 -19.44242188 151.51867187 -19.98828125 150.56640625 C-20.38660156 149.94378906 -20.78492188 149.32117188 -21.1953125 148.6796875 C-21.5253125 148.6796875 -21.8553125 148.6796875 -22.1953125 148.6796875 Z " fill="#FE0000" transform="translate(534.1953125,19.3203125)"/>
<path d="M0 0 C11.34792041 8.9615195 17.08438164 20.00840233 19.125 34.3125 C19.34776499 38.8935966 19.31018149 43.47649686 19.3125 48.0625 C19.32474609 49.22910156 19.33699219 50.39570313 19.34960938 51.59765625 C19.39511283 81.29624718 16.37062433 111.1390575 14.3125 140.75 C14.24785427 141.68136654 14.18320854 142.61273308 14.11660385 143.57232285 C13.25415539 155.99728505 12.38459294 168.42173733 11.50964355 180.8458252 C11.2588997 184.4068844 11.00894889 187.96799752 10.7598877 191.5291748 C10.09958946 200.96850786 9.43065839 210.40714027 8.74624634 219.84475708 C8.54236307 222.65967549 8.34222968 225.47481855 8.14559937 228.29025269 C4.0186611 287.22896629 4.0186611 287.22896629 -9.625 300.25 C-18.40844422 307.14663027 -28.15317854 307.09246857 -38.875 306.3125 C-45.93507721 305.19933442 -51.34531403 301.82856579 -55.875 296.3125 C-66.9800698 278.25714402 -67.76885327 255.0124365 -69.171875 234.390625 C-69.28676534 232.75517295 -69.40209947 231.11975202 -69.51783752 229.48435974 C-69.82768828 225.09091102 -70.13200708 220.6970956 -70.43527603 216.30318832 C-70.75589031 211.67170289 -71.08149333 207.04056882 -71.40698242 202.40942383 C-71.54075814 200.50563063 -71.67453193 198.60183729 -71.80830383 196.69804382 C-71.90865149 195.27019341 -71.90865149 195.27019341 -72.01102638 193.81349754 C-72.21612981 190.89183654 -72.42058454 187.97013069 -72.62492371 185.04841614 C-73.51362885 172.35589142 -74.42563436 159.66522795 -75.35691452 146.9757576 C-75.56524115 144.1369701 -75.77311683 141.29814992 -75.98086548 138.45932007 C-76.7760805 127.59386319 -76.7760805 127.59386319 -77.57775879 116.72888184 C-81.04770322 69.87294916 -81.04770322 69.87294916 -81.0625 48.0625 C-81.07474609 47.06605469 -81.08699219 46.06960938 -81.09960938 45.04296875 C-81.13060115 29.19583923 -77.22601737 14.84369224 -65.875 3.3125 C-47.56706082 -12.98952584 -19.93063671 -13.40491664 0 0 Z " fill="#010101" transform="translate(542.875,309.6875)"/>
<path d="M0 0 C1.671875 1.3203125 1.671875 1.3203125 3.984375 3.5703125 C3.984375 4.2303125 3.984375 4.8903125 3.984375 5.5703125 C4.644375 5.5703125 5.304375 5.5703125 5.984375 5.5703125 C16.29366332 17.07412793 19.84298015 31.48152283 19.16357422 46.49267578 C18.0876845 58.96654701 11.09677889 71.15751735 1.984375 79.5703125 C-10.28335474 88.9290018 -24.15959065 93.14982527 -39.52734375 91.26171875 C-53.29512574 88.81939636 -64.99184121 82.36670254 -73.515625 71.0703125 C-81.74851182 58.78930499 -85.02551985 45.52195548 -82.328125 30.82421875 C-80.40638376 22.87301437 -77.77309911 16.23077626 -73.015625 9.5703125 C-72.50128906 8.82136719 -71.98695313 8.07242188 -71.45703125 7.30078125 C-70.98136719 6.72972656 -70.50570313 6.15867187 -70.015625 5.5703125 C-69.355625 5.5703125 -68.695625 5.5703125 -68.015625 5.5703125 C-68.015625 4.9103125 -68.015625 4.2503125 -68.015625 3.5703125 C-48.33159068 -13.71870624 -21.42089048 -15.19388743 0 0 Z " fill="#020202" transform="translate(544.015625,661.4296875)"/>
<path d="M0 0 C0.66 0.33 1.32 0.66 2 1 C-1.3 4.3 -4.6 7.6 -8 11 C-8.66 10.67 -9.32 10.34 -10 10 C-8.90033225 8.70450101 -7.79508199 7.41373929 -6.6875 6.125 C-6.07261719 5.40570313 -5.45773437 4.68640625 -4.82421875 3.9453125 C-3 2 -3 2 0 0 Z " fill="#353535" transform="translate(481,310)"/>
</svg>
