<?xml version="1.0" encoding="UTF-8"?>
<svg version="1.1" xmlns="http://www.w3.org/2000/svg" width="512" height="512">
<path d="M0 0 C0.92045609 -0.0065712 1.84091217 -0.0131424 2.78926086 -0.01991272 C5.84339473 -0.03966711 8.89747941 -0.05131206 11.95166016 -0.0612793 C12.99292683 -0.06535482 14.0341935 -0.06943035 15.1070137 -0.07362938 C20.6164251 -0.09449759 26.12581152 -0.10879701 31.63525391 -0.11816406 C37.33415687 -0.12924015 43.03267062 -0.16365189 48.73143578 -0.20333576 C53.10656476 -0.22944049 57.48160006 -0.23785035 61.85680008 -0.24144554 C63.95800027 -0.2463261 66.05919588 -0.2579816 68.16032028 -0.27648354 C71.09808252 -0.30074797 74.03482517 -0.29993336 76.97265625 -0.29296875 C77.84345322 -0.30577881 78.71425018 -0.31858887 79.61143494 -0.33178711 C85.49202494 -0.28086923 85.49202494 -0.28086923 88.62466431 2.01887512 C90.76903768 5.12259653 91.24056221 7.60414709 91.22924805 11.28125 C91.22917252 12.10187424 91.22909698 12.92249847 91.22901917 13.76799011 C91.22385788 14.64933121 91.21869659 15.5306723 91.21337891 16.4387207 C91.21125648 17.7974102 91.21125648 17.7974102 91.20909119 19.18354797 C91.20349267 22.07723286 91.19094047 24.97084044 91.17822266 27.86450195 C91.17320746 29.82608938 91.16864459 31.78767801 91.16455078 33.74926758 C91.15352373 38.55854217 91.13626012 43.36775895 91.11572266 48.17700195 C92.12642822 48.41136963 93.13713379 48.6457373 94.1784668 48.88720703 C102.91417299 50.96078328 111.23414425 53.43736882 119.55322266 56.86450195 C120.62016357 57.29875488 121.68710449 57.73300781 122.78637695 58.18041992 C136.41999606 63.83090594 149.1002344 70.57784531 161.11572266 79.17700195 C162.07607422 79.8627832 163.03642578 80.54856445 164.02587891 81.25512695 C173.93892638 88.5168587 183.52479587 96.37732367 192.11572266 105.17700195 C196.08803057 103.69302505 199.70254119 101.83420771 203.40478516 99.77075195 C203.98988861 99.44538452 204.57499207 99.12001709 205.17782593 98.78479004 C206.40725625 98.10036195 207.63589253 97.41450579 208.86376953 96.72729492 C210.74020865 95.67728958 212.61914201 94.63186526 214.49853516 93.5871582 C220.90719634 90.04883105 220.90719634 90.04883105 227.11572266 86.17700195 C232.20800264 85.70549455 235.00435011 86.16422621 239.11572266 89.17700195 C240.9140625 91.67529297 240.9140625 91.67529297 242.57666016 94.6809082 C243.20531982 95.80094238 243.83397949 96.92097656 244.48168945 98.07495117 C245.15141587 99.29644141 245.82109231 100.51795905 246.49072266 101.73950195 C247.19610521 103.00347041 247.90291456 104.26664358 248.61108398 105.52905273 C250.06968859 108.13093134 251.52295918 110.7356781 252.97265625 113.3425293 C256.18938174 119.11364397 259.4968989 124.83183247 262.80322266 130.55200195 C263.41157959 131.61290039 264.01993652 132.67379883 264.64672852 133.7668457 C267.66814253 139.02133845 270.7442888 144.22800305 273.94384766 149.3762207 C274.85517456 150.85952881 274.85517456 150.85952881 275.78491211 152.37280273 C276.9253313 154.22159497 278.0816465 156.06072061 279.25708008 157.88745117 C282.12638448 162.56136953 284.15146511 166.55533539 283.73535156 172.14770508 C281.56870864 179.24350334 271.67268492 182.93764818 265.67822266 186.23950195 C263.86615211 187.24965691 262.05494103 188.26135532 260.24462891 189.2746582 C259.3798291 189.75692871 258.5150293 190.23919922 257.62402344 190.73608398 C254.57709169 192.48642379 251.62487008 194.36110703 248.68969727 196.29199219 C247.11572266 197.17700195 247.11572266 197.17700195 245.11572266 197.17700195 C245.36966797 197.96719727 245.62361328 198.75739258 245.88525391 199.5715332 C248.0352659 206.61745267 249.66510769 213.58274789 250.80322266 220.86450195 C250.92221924 221.62287354 251.04121582 222.38124512 251.16381836 223.16259766 C255.18894109 250.21827118 257.79846981 289.81150765 245.11572266 315.17700195 C246.17654053 315.57665161 246.17654053 315.57665161 247.25878906 315.984375 C252.56356973 318.19885573 257.48436114 321.17774938 262.49072266 323.98950195 C263.60189453 324.60631836 264.71306641 325.22313477 265.85791016 325.85864258 C281.27395243 334.49346149 281.27395243 334.49346149 283.11572266 338.17700195 C284.14888952 346.07982221 280.95484077 351.00648081 276.99072266 357.67700195 C276.35763184 358.77359131 275.72454102 359.87018066 275.07226562 361 C273.10314995 364.40219701 271.11108065 367.79014431 269.11572266 371.17700195 C267.95293098 373.17231928 266.79141732 375.16838208 265.63134766 377.1652832 C263.93718085 380.07956209 262.23956105 382.9914753 260.52954102 385.89648438 C257.23613592 391.4954112 254.01299727 397.12661153 250.85400391 402.80200195 C249.77293417 404.73342606 248.69106532 406.66440078 247.60906982 408.5953064 C246.9113475 409.84702404 246.21810062 411.10124803 245.52960205 412.35806274 C244.56823782 414.11250394 243.5903324 415.8578501 242.61181641 417.6027832 C242.05679443 418.60736572 241.50177246 419.61194824 240.92993164 420.64697266 C238.8484268 423.54976295 237.40254378 424.7848914 234.11572266 426.17700195 C228.71347493 426.78152455 225.60842509 425.79843618 220.99072266 423.03637695 C219.87181641 422.37766602 218.75291016 421.71895508 217.60009766 421.0402832 C216.43838996 420.33626743 215.27693326 419.63183733 214.11572266 418.92700195 C212.95510202 418.23678929 211.79364883 417.5479746 210.63134766 416.8605957 C201.79631176 411.61861012 201.79631176 411.61861012 198.88525391 409.72973633 C195.68713434 407.58940678 195.68713434 407.58940678 192.00244141 407.6262207 C189.5375165 409.65225629 187.22705411 411.77497179 184.92822266 413.98950195 C165.18041935 432.4825935 142.05077355 446.17188164 117.11572266 456.42700195 C116.35791504 456.74435303 115.60010742 457.0617041 114.81933594 457.38867188 C107.13456634 460.45436157 99.15016238 462.28053526 91.11572266 464.17700195 C91.13143311 465.39282959 91.14714355 466.60865723 91.16333008 467.86132812 C91.21771066 472.38062898 91.25210238 476.89990102 91.28051758 481.41943359 C91.29558566 483.37391019 91.3160439 485.32835307 91.34204102 487.28271484 C91.37851131 490.09521819 91.39546888 492.90727369 91.40869141 495.7199707 C91.42417526 496.59098923 91.43965912 497.46200775 91.45561218 498.35942078 C91.45693607 503.1530929 91.20330493 506.26837896 88.11572266 510.17700195 C85.46358816 512.82913645 83.49162725 512.43161546 79.88249207 512.47027588 C79.00764664 512.46936951 78.13280121 512.46846313 77.23144531 512.4675293 C75.85076118 512.47760513 75.85076118 512.47760513 74.44218445 512.48788452 C71.387997 512.50694054 68.33402842 512.51079262 65.27978516 512.51293945 C63.16230172 512.51936238 61.04481919 512.52609035 58.92733765 512.53311157 C54.4836013 512.54510358 50.0399428 512.54879045 45.59619141 512.54760742 C39.89725858 512.54740419 34.1988242 512.57470241 28.50000954 512.60915184 C24.12486471 512.63137204 19.74984072 512.63544645 15.37464523 512.63438797 C13.27345436 512.63675145 11.17226053 512.64561672 9.07112503 512.6610527 C6.13332326 512.68061276 3.19660771 512.67491373 0.25878906 512.6628418 C-0.6120079 512.67408081 -1.48280487 512.68531982 -2.37998962 512.69689941 C-8.28097052 512.63517111 -8.28097052 512.63517111 -11.39321899 510.27163696 C-13.50859961 507.29995561 -14.0085647 505.68897951 -13.99780273 502.09448242 C-13.9977272 501.2537619 -13.99765167 500.41304138 -13.99757385 499.54684448 C-13.99241257 498.63846832 -13.98725128 497.73009216 -13.98193359 496.79418945 C-13.97981117 495.40008347 -13.97981117 495.40008347 -13.97764587 493.97781372 C-13.97203787 491.00251071 -13.95948402 488.02728231 -13.94677734 485.05200195 C-13.94176337 483.03768012 -13.93720029 481.02335711 -13.93310547 479.0090332 C-13.92206584 474.06499394 -13.90479583 469.1210106 -13.88427734 464.17700195 C-14.54673965 464.05152481 -15.20920197 463.92604767 -15.89173889 463.79676819 C-20.35405029 462.93191398 -24.7155809 462.08085635 -29.00537109 460.5480957 C-29.86799561 460.24033203 -30.73062012 459.93256836 -31.61938477 459.61547852 C-32.51117432 459.28515625 -33.40296387 458.95483398 -34.32177734 458.61450195 C-35.27479736 458.26226562 -36.22781738 457.9100293 -37.2097168 457.54711914 C-64.13300443 447.39751141 -88.66763205 432.42623516 -109.06787109 411.98950195 C-109.74978516 411.32950195 -110.43169922 410.66950195 -111.13427734 409.98950195 C-112.00826172 409.10198242 -112.00826172 409.10198242 -112.89990234 408.1965332 C-114.95007122 406.86275144 -114.95007122 406.86275144 -117.65454102 407.91625977 C-120.83353583 409.15719478 -123.60915923 410.59428357 -126.54443359 412.3293457 C-127.58535156 412.94100586 -128.62626953 413.55266602 -129.69873047 414.18286133 C-131.30651367 415.13902344 -131.30651367 415.13902344 -132.94677734 416.11450195 C-134.0225 416.74807617 -135.09822266 417.38165039 -136.20654297 418.03442383 C-141.92660473 421.40565288 -141.92660473 421.40565288 -147.60083008 424.85302734 C-149.91841217 426.1967938 -151.23747707 426.63431163 -153.88427734 426.67700195 C-154.84333984 426.7234082 -154.84333984 426.7234082 -155.82177734 426.77075195 C-160.99602941 425.28119454 -163.90272871 419.8452163 -166.38037109 415.4074707 C-167.01418701 414.2836499 -167.64800293 413.1598291 -168.30102539 412.00195312 C-168.97462669 410.78947902 -169.64821024 409.57699505 -170.32177734 408.36450195 C-171.38970926 406.4641609 -172.46063797 404.56552892 -173.5316925 402.66694641 C-174.25812307 401.37880814 -174.98361323 400.0901391 -175.70817566 398.8009491 C-179.09388793 392.78154908 -182.57543176 386.82022964 -186.07177734 380.86450195 C-187.20386734 378.920829 -188.3353801 376.97681971 -189.46630859 375.0324707 C-191.83710861 370.95892407 -194.23626192 366.90339904 -196.64599609 362.8527832 C-197.85116645 360.7946245 -199.05561827 358.73604486 -200.25927734 356.67700195 C-200.82541748 355.73945068 -201.39155762 354.80189941 -201.97485352 353.8359375 C-205.14826018 348.35595504 -207.03884596 344.53392092 -205.88427734 338.17700195 C-202.51924154 334.27007326 -198.91150672 331.78721847 -194.44677734 329.2590332 C-193.84422119 328.91571457 -193.24166504 328.57239594 -192.62084961 328.21867371 C-191.35568099 327.49986793 -190.08830677 326.78493152 -188.81884766 326.07373047 C-186.88505346 324.98993692 -184.95846516 323.89415381 -183.03271484 322.79614258 C-172.83146513 317.01665104 -172.83146513 317.01665104 -167.88427734 315.17700195 C-168.12662109 314.47961914 -168.36896484 313.78223633 -168.61865234 313.0637207 C-179.9559113 277.35135498 -180.22071794 232.67707835 -167.88427734 197.17700195 C-168.58697754 196.91435547 -169.28967773 196.65170898 -170.01367188 196.38110352 C-174.89870471 194.33203208 -179.40122465 191.58921717 -183.98535156 188.94702148 C-185.74288943 187.93642511 -187.50666952 186.93740542 -189.27099609 185.9387207 C-205.03258719 176.87805748 -205.03258719 176.87805748 -206.51098633 172.18945312 C-207.11279459 165.19778876 -203.41009839 159.94080317 -199.82177734 154.23950195 C-198.52639579 152.10345639 -197.23216352 149.96671352 -195.93896484 147.8293457 C-195.26704102 146.73219238 -194.59511719 145.63503906 -193.90283203 144.50463867 C-190.65871113 139.15662611 -187.55745642 133.72832201 -184.44677734 128.30200195 C-183.20075931 126.14701025 -181.95466492 123.99206271 -180.70849609 121.8371582 C-178.38447219 117.8060069 -176.08394931 113.76317459 -173.811203 109.70300293 C-172.45995135 107.29156424 -171.09961782 104.8853086 -169.73849487 102.47943115 C-168.78148738 100.778966 -167.83771963 99.07107112 -166.89428711 97.36303711 C-166.01921509 95.8188208 -166.01921509 95.8188208 -165.12646484 94.2434082 C-164.61970215 93.33534424 -164.11293945 92.42728027 -163.59082031 91.49169922 C-161.55584561 88.73152824 -160.03417045 87.53993106 -156.88427734 86.17700195 C-151.27113187 85.51679796 -148.06181777 86.73549508 -143.25146484 89.5715332 C-142.35187546 90.09356575 -142.35187546 90.09356575 -141.43411255 90.62614441 C-139.53388028 91.73326976 -137.64676899 92.86082154 -135.75927734 93.98950195 C-134.48534745 94.73632755 -133.21061362 95.48178356 -131.93505859 96.22583008 C-123.15446101 101.36131237 -123.15446101 101.36131237 -119.11889648 103.95288086 C-118.38147217 104.35684082 -117.64404785 104.76080078 -116.88427734 105.17700195 C-113.78006426 104.26803348 -111.98199586 102.45151585 -109.82177734 100.11450195 C-105.18746255 95.36261469 -100.10697556 91.26376331 -94.88427734 87.17700195 C-94.33771484 86.74871094 -93.79115234 86.32041992 -93.22802734 85.87915039 C-83.02593848 77.95514159 -72.25668961 71.29117624 -60.88427734 65.17700195 C-60.20204102 64.80978027 -59.51980469 64.44255859 -58.81689453 64.06420898 C-46.12090965 57.37036257 -28.26315522 48.17700195 -13.88427734 48.17700195 C-13.90784302 46.30782104 -13.90784302 46.30782104 -13.93188477 44.40087891 C-13.98625808 39.76975997 -14.02065446 35.13866918 -14.04907227 30.50732422 C-14.064142 28.50434623 -14.08460144 26.50140115 -14.1105957 24.49853516 C-14.14705862 21.61653514 -14.16402195 18.73497211 -14.17724609 15.8527832 C-14.19272995 14.9598909 -14.20821381 14.0669986 -14.22416687 13.14704895 C-14.22546221 8.34227128 -14.06619487 5.05419337 -10.88427734 1.17700195 C-7.5169603 -0.50665657 -3.70456561 0.01138626 0 0 Z M2.11572266 87.17700195 C1.30103516 87.37036133 0.48634766 87.5637207 -0.35302734 87.76293945 C-28.71211805 94.68187423 -55.09269163 107.82010101 -76.42333984 127.8684082 C-78.60944715 129.91918506 -80.84529284 131.8682047 -83.13427734 133.80200195 C-96.5673881 145.58305675 -106.7857291 161.39501095 -114.88427734 177.17700195 C-115.35341553 178.07854004 -115.35341553 178.07854004 -115.83203125 178.99829102 C-124.77003746 196.37854203 -129.94954218 214.91725493 -132.88427734 234.17700195 C-133.03638672 235.16313477 -133.18849609 236.14926758 -133.34521484 237.1652832 C-133.66179363 239.84764668 -133.80212332 242.47618834 -133.88427734 245.17700195 C-133.91005859 245.90870605 -133.93583984 246.64041016 -133.96240234 247.39428711 C-135.34430711 291.98662666 -121.54679251 336.72887229 -90.94677734 369.92700195 C-88.42750424 372.58686797 -85.86731356 375.19394034 -83.27490234 377.7824707 C-81.89626156 379.16336417 -80.53163024 380.55924183 -79.20849609 381.9934082 C-58.01234623 404.60600722 -27.52119109 418.04261799 2.11572266 425.17700195 C2.8456543 425.35634277 3.57558594 425.53568359 4.32763672 425.72045898 C27.98645325 431.23792731 55.67275322 429.93484127 79.11572266 424.17700195 C79.87933105 423.99508301 80.64293945 423.81316406 81.4296875 423.62573242 C92.89042851 420.8164073 103.51734574 416.30964101 114.11572266 411.17700195 C114.76782715 410.8639209 115.41993164 410.55083984 116.09179688 410.22827148 C131.58392825 402.68778291 145.36692085 392.66833879 157.64550781 380.61206055 C159.05714568 379.23417822 160.49803659 377.8864599 161.93994141 376.5402832 C191.81869839 348.02546377 209.47702664 305.62277254 211.22583008 264.59375 C212.25136149 218.36694808 197.73776585 173.63617274 165.58837891 139.69262695 C163.90255644 137.977509 162.20815428 136.27079221 160.50634766 134.5715332 C159.12770688 133.19063974 157.76307555 131.79476208 156.43994141 130.3605957 C130.91820424 103.13334865 89.07770128 85.47930867 52.02880859 83.97387695 C47.66161977 83.85070419 43.2968059 83.84243304 38.92822266 83.86450195 C38.1581488 83.8666571 37.38807495 83.86881226 36.59466553 83.87103271 C24.87130416 83.92360929 13.55071728 84.37907774 2.11572266 87.17700195 Z " fill="#3F65EF" transform="translate(215.88427734375,-0.177001953125)"/>
<path d="M0 0 C20.77517923 17.26397274 34.76853271 39.91187419 38 67 C39.84465573 95.50056272 32.50946525 121.62540927 13.5625 143.3125 C12.06126305 144.89383737 10.54049469 146.45688096 9 148 C8.25363281 148.75796875 7.50726563 149.5159375 6.73828125 150.296875 C-3.96810017 160.56084397 -17.03222091 167.3140354 -31 172 C-32.01320313 172.3403125 -33.02640625 172.680625 -34.0703125 173.03125 C-59.09017009 179.80354228 -86.99305076 175.12617489 -109.3125 162.625 C-134.04281805 147.49547477 -149.11426638 124.77056202 -156 97 C-160.74441836 71.84117317 -155.87073631 46.09244476 -142.125 24.625 C-138.17967106 19.00080768 -133.7375057 13.96351514 -129 9 C-128.47277344 8.39800781 -127.94554687 7.79601562 -127.40234375 7.17578125 C-95.6788452 -27.63081946 -35.79352898 -27.78005234 0 0 Z M-116.6328125 23.53125 C-132.81051922 40.35210714 -138.58276779 60.35236496 -138.27734375 83.296875 C-137.86641612 95.5879045 -134.06990666 106.31696428 -128 117 C-124.01229461 117 -123.1885153 115.63575918 -120.25 113 C-111.10497682 105.3186644 -96.18653503 95.2754828 -83.8125 95.875 C-79.60539213 97.11644167 -77.15867259 98.84699584 -73.796875 101.5703125 C-68.69514495 105.6295151 -62.08386045 106.31685124 -55.734375 105.82421875 C-50.32418314 104.88783939 -46.45363392 102.6510994 -42.04296875 99.4375 C-41.36878906 98.963125 -40.69460938 98.48875 -40 98 C-39.41863281 97.5875 -38.83726562 97.175 -38.23828125 96.75 C-32.18119427 94.72040018 -25.76788963 97.55903841 -20.25 100.0625 C-19.55970703 100.37050537 -18.86941406 100.67851074 -18.15820312 100.99584961 C-11.64075255 103.99909204 -5.78720122 107.76233047 0 112 C0.83015625 112.60714844 1.6603125 113.21429688 2.515625 113.83984375 C4.35834639 115.20899863 6.18680767 116.59210948 8 118 C18.64965089 98.01366888 22.58780144 77.14453736 16 55 C8.63628779 33.50227609 -4.73921311 17.89690911 -24.75 7.25 C-56.81952512 -8.06783206 -91.53097221 -0.60227004 -116.6328125 23.53125 Z " fill="#2F3162" transform="translate(314,178)"/>
<path d="M0 0 C1.9465264 0.70784308 3.88636539 1.43425887 5.8203125 2.17578125 C7.3835022 2.77048218 7.3835022 2.77048218 8.97827148 3.37719727 C31.93941102 12.39182471 55.94761319 25.11917523 73.93359375 42.3984375 C75.9910674 43.80891381 75.9910674 43.80891381 78.68505859 42.77636719 C82.06938193 41.43926295 85.00517973 39.84590819 88.12109375 37.96875 C88.69055222 37.62830154 89.26001068 37.28785309 89.84672546 36.93708801 C91.65375829 35.85543379 93.45593742 34.76600155 95.2578125 33.67578125 C108.89903366 25.47035484 108.89903366 25.47035484 114.0625 22.50390625 C114.73007324 22.11879883 115.39764648 21.73369141 116.08544922 21.33691406 C119.77451293 19.65363952 123.2249322 19.85337156 126.96166992 21.23242188 C129.48424535 22.82948378 130.40153489 24.42645875 131.87109375 27.01953125 C132.4129834 27.9626416 132.95487305 28.90575195 133.51318359 29.87744141 C134.08891113 30.90401855 134.66463867 31.9305957 135.2578125 32.98828125 C136.16781006 34.580354 136.16781006 34.580354 137.09619141 36.20458984 C138.38834646 38.46577851 139.67631021 40.72936656 140.96044922 42.99511719 C143.57266783 47.60139211 146.22918439 52.18193536 148.88330078 56.76416016 C150.78553748 60.05315475 152.67642978 63.34848048 154.56640625 66.64453125 C156.55807058 70.10983862 158.57593287 73.55142832 160.66796875 76.95703125 C161.05162598 77.5917334 161.4352832 78.22643555 161.83056641 78.88037109 C162.7821062 80.44743129 163.75136307 82.00369979 164.72265625 83.55859375 C166.37811698 87.52535269 166.30040607 90.20085523 165.9453125 94.48828125 C163.96053244 97.46545133 162.57700131 99.11654569 159.0078125 99.9296875 C155.36578183 100.14351885 153.61343261 99.95340501 150.53710938 97.81176758 C147.73264003 95.29762527 146.23635593 93.03134778 144.4140625 89.74609375 C143.77404297 88.6070459 143.13402344 87.46799805 142.47460938 86.29443359 C141.79805553 85.06744983 141.12162577 83.84039764 140.4453125 82.61328125 C139.3891399 80.72297373 138.32928133 78.83476889 137.2689209 76.94680786 C136.55174858 75.66982119 135.83568801 74.39220951 135.12072754 73.11398315 C131.14123869 66.01412557 126.96443937 59.03294587 122.75585938 52.06689453 C121.99885742 50.80208252 121.99885742 50.80208252 121.2265625 49.51171875 C120.78376953 48.77872559 120.34097656 48.04573242 119.88476562 47.29052734 C118.9453125 45.48828125 118.9453125 45.48828125 118.9453125 43.48828125 C110.32803982 48.1506549 101.79640921 52.95253046 93.28710938 57.80859375 C77.92230592 66.53555512 77.92230592 66.53555512 73.0703125 66.30078125 C68.45505915 64.75644648 65.47380736 61.53389509 62.00390625 58.23828125 C41.87974933 39.64331559 14.79845587 25.66014679 -11.3046875 17.75390625 C-14.65250988 16.21314709 -16.07524474 14.56948932 -18.0546875 11.48828125 C-18.66693007 7.20258325 -18.55924576 5.26193725 -16.1796875 1.61328125 C-11.36107832 -3.20532793 -5.97659758 -1.97929157 0 0 Z " fill="#2F3162" transform="translate(336.0546875,24.51171875)"/>
<path d="M0 0 C2.92487211 3.35001623 5.19903035 6.85839625 7.390625 10.71875 C8.01445068 11.81058594 8.63827637 12.90242188 9.28100586 14.02734375 C9.93077393 15.17332031 10.58054199 16.31929688 11.25 17.5 C15.93927055 25.72530431 20.67291362 33.89865058 25.77734375 41.875 C27 44 27 44 27 46 C30.80535282 43.83266704 34.60983429 41.66381416 38.41357422 39.49365234 C39.70305919 38.75822539 40.99276634 38.02318784 42.28271484 37.28857422 C44.15523408 36.22209667 46.02704315 35.15438761 47.8984375 34.0859375 C48.50936752 33.73737701 49.12029755 33.38881653 49.7497406 33.0296936 C54.20694149 30.47748477 58.60446667 27.83913108 62.96655273 25.12792969 C66.07789197 23.40210579 68.4518245 22.86610658 72 23 C76.38342337 24.86701366 79.39256386 27.29214055 82.875 30.5 C103.97991757 49.6862887 130.91802256 62.92696648 157.71362305 72.05737305 C160.9860062 73.4065104 162.44999704 74.82618442 164 78 C164.61224257 82.285698 164.50455826 84.226344 162.125 87.875 C159.52194886 90.47805114 158.66379357 90.93793099 154.9921875 91.28125 C150.01055633 91.1989515 145.69779089 89.32928441 141.125 87.5 C140.20170898 87.1376123 139.27841797 86.77522461 138.32714844 86.40185547 C114.49023774 76.91389463 90.94370531 64.42177458 71.95703125 46.9140625 C69.92255328 45.70893389 69.92255328 45.70893389 67.27734375 46.72290039 C63.83737256 48.06337188 60.79966226 49.66956183 57.60546875 51.51953125 C56.71798698 52.03020393 56.71798698 52.03020393 55.81257629 52.55119324 C53.93456054 53.63321242 52.0609404 54.72258185 50.1875 55.8125 C48.94235571 56.53241743 47.6969152 57.25182278 46.45117188 57.97070312 C45.53952019 58.49691254 45.53952019 58.49691254 44.60945129 59.03375244 C43.71029243 59.55265045 43.71029243 59.55265045 42.79296875 60.08203125 C42.20154587 60.42345154 41.61012299 60.76487183 41.0007782 61.11663818 C39.33422094 62.07839815 37.66712322 63.03922141 36 64 C35.08259033 64.52948242 34.16518066 65.05896484 33.2199707 65.60449219 C32.42550537 66.05598633 31.63104004 66.50748047 30.8125 66.97265625 C29.80703125 67.54705444 29.80703125 67.54705444 28.78125 68.13305664 C25.93529705 69.5181963 24.07891804 69.68420401 21 69 C14.63847842 64.8042956 11.68818997 58.87065535 8.0625 52.3125 C7.08631477 50.57656713 6.11010195 48.84064912 5.13230896 47.10562134 C4.45690589 45.90594834 3.78306373 44.70539533 3.11073303 43.5039978 C0.69891282 39.20250365 -1.78781568 34.95090981 -4.3125 30.71484375 C-5.01081611 29.53558868 -5.7088187 28.35614789 -6.40649414 27.17651367 C-7.73782135 24.93042912 -9.07786419 22.68948273 -10.42749023 20.4543457 C-11.32769897 18.92233521 -11.32769897 18.92233521 -12.24609375 17.359375 C-12.77904053 16.46702148 -13.3119873 15.57466797 -13.86108398 14.65527344 C-15.19697921 11.54076186 -15.29624126 9.35836434 -15 6 C-13.75234694 3.25516327 -12.64684565 1.52705942 -10.3125 -0.375 C-6.81766099 -1.31955108 -3.39423378 -1.31924321 0 0 Z " fill="#2F3162" transform="translate(27,398)"/>
<path d="M0 0 C2.75329021 1.79562405 4.52627461 3.05254922 6 6 C6.22075514 7.79503473 6.3937198 9.59604818 6.54296875 11.3984375 C8.45277064 32.42152451 12.54296027 50.57669282 23 69 C23.55429688 69.98226562 24.10859375 70.96453125 24.6796875 71.9765625 C40.72004211 98.60815605 67.48745967 117.27175966 97.46899414 124.73291016 C103.17962152 126.06394447 108.77916664 127.04037725 114.6328125 127.4765625 C115.57809814 127.54713867 116.52338379 127.61771484 117.49731445 127.69042969 C119.33274285 127.81076477 121.17021878 127.90389354 123.00854492 127.96582031 C129.12632074 128.33007855 129.12632074 128.33007855 131.69482422 130.29956055 C133.90313011 132.82797307 134.95783994 134.74176961 135.5 138.0625 C134.92505825 141.44028276 134.15069033 143.33017752 132 146 C127.58851901 148.43792371 123.32126362 148.18154793 118.4375 147.875 C117.60686035 147.82496826 116.7762207 147.77493652 115.92041016 147.72338867 C78.8742061 145.04547537 44.66484808 127.75284015 20 100 C-1.29601346 74.15539819 -12.74789312 43.01842789 -13.36328125 9.55078125 C-12.91525199 6.4049414 -11.86108867 4.55845211 -10 2 C-6.2626144 -0.4915904 -4.42668417 -0.45793285 0 0 Z " fill="#3F65EF" transform="translate(129,250)"/>
<path d="M0 0 C24.57904178 4.99046168 46.24894418 16.17097755 65.3125 32.375 C65.9725 32.91125 66.6325 33.4475 67.3125 34 C71.83448437 37.71448716 75.60894969 41.85175042 79.3125 46.375 C80.08722656 47.31214844 80.86195313 48.24929687 81.66015625 49.21484375 C99.9896591 71.89487326 109.84720118 99.25758795 112.125 128.1875 C112.19041992 128.89334229 112.25583984 129.59918457 112.32324219 130.32641602 C112.66495195 135.60857547 111.79543551 138.82580552 109.3125 143.375 C105.63179796 145.82880136 102.58675218 146.19152381 98.3125 145.375 C95.46930675 143.25772843 93.70710681 141.78012019 92.734375 138.31640625 C92.25286078 134.95918212 91.9791471 131.61160226 91.71777344 128.23095703 C89.14141506 95.92249869 74.77641383 66.75865769 50.3125 45.375 C41.17480738 37.77929301 31.11177331 32.23819296 20.3125 27.375 C19.25675781 26.89160156 18.20101562 26.40820312 17.11328125 25.91015625 C4.02313015 20.39586725 -10.37530967 18.01755896 -24.5234375 17.74609375 C-28.17715024 17.31757189 -30.5599782 16.29026912 -33.6875 14.375 C-36.15501239 10.67373141 -35.99471156 8.75276468 -35.6875 4.375 C-31.73193872 -6.88313596 -9.22762724 -1.73300798 0 0 Z " fill="#3F65EF" transform="translate(280.6875,119.625)"/>
<path d="M0 0 C7.44122883 5.53609494 13.10377444 12.92821477 14.91015625 22.18359375 C16.21952612 33.46911501 14.50418998 42.95264335 7.81640625 52.26953125 C2.22237475 59.12715575 -5.0959356 63.61567416 -13.84375 65.3046875 C-25.32387736 66.18666202 -34.7158605 64.64668558 -43.84375 57.3046875 C-51.1738415 50.46135989 -55.19528524 43.67450277 -56.21875 33.62109375 C-56.56350586 22.92288862 -54.42435859 14.56222671 -47.66015625 6.1875 C-34.72020314 -7.22552667 -15.99184783 -9.53360159 0 0 Z " fill="#2F3162" transform="translate(274.84375,201.6953125)"/>
</svg>
