<?xml version="1.0" encoding="UTF-8"?>
<svg version="1.1" xmlns="http://www.w3.org/2000/svg" width="512" height="512">
<path d="M0 0 C13.08535395 9.77894751 20.91696236 24.21048928 23.30078125 40.21875 C24.78322004 55.85667138 20.96660371 71.41228277 11.23046875 83.8671875 C2.85232766 93.58816654 -5.91047101 99.24451795 -17.69921875 104.21875 C-16.49007812 104.31671875 -15.2809375 104.4146875 -14.03515625 104.515625 C8.78078327 106.52769514 27.95395137 113.3611913 43.30078125 131.21875 C55.64420807 148.07869059 58.7750457 164.39420721 58.59375 184.765625 C58.58814336 186.63177141 58.58387832 188.49792228 58.58088684 190.36407471 C58.5695221 195.23682194 58.54012857 200.1092939 58.5067749 204.98193359 C58.47044647 210.8491548 58.45687294 216.71646888 58.43941498 222.58377075 C58.41048498 231.46228765 58.35293982 240.34020252 58.30078125 249.21875 C80.08078125 249.21875 101.86078125 249.21875 124.30078125 249.21875 C124.30078125 222.81875 124.30078125 196.41875 124.30078125 169.21875 C166.13980888 169.17844697 166.13980888 169.17844697 183.61523438 169.16992188 C195.70190859 169.16397841 207.78857586 169.15697543 219.87524414 169.14331055 C228.67622589 169.1333651 237.47720203 169.12689691 246.27818924 169.12466151 C250.94124392 169.12335416 255.60428253 169.12026682 260.26733208 169.11301994 C264.65110491 169.10626191 269.03485496 169.10413259 273.41863251 169.10564232 C275.03238359 169.10536589 276.64613538 169.10335948 278.25988197 169.09954453 C280.45347015 169.09461066 282.64697095 169.09575056 284.84056091 169.09849548 C286.07115455 169.09757369 287.30174818 169.0966519 288.56963253 169.09570217 C291.30078125 169.21875 291.30078125 169.21875 292.30078125 170.21875 C292.39578673 172.68319057 292.4263611 175.11949626 292.41430664 177.58422852 C292.41445267 178.35490662 292.41459869 179.12558472 292.41474915 179.9196167 C292.41404985 182.47899139 292.4062567 185.0382942 292.3984375 187.59765625 C292.39657338 189.36742615 292.39514945 191.13719656 292.39414978 192.90696716 C292.39032413 197.57426366 292.38049345 202.24152923 292.3694458 206.90881348 C292.35923269 211.66772035 292.35465238 216.42663221 292.34960938 221.18554688 C292.33887122 230.52996371 292.32127405 239.87434945 292.30078125 249.21875 C303.52078125 249.21875 314.74078125 249.21875 326.30078125 249.21875 C326.30078125 332.37875 326.30078125 415.53875 326.30078125 501.21875 C157.34078125 501.21875 -11.61921875 501.21875 -185.69921875 501.21875 C-185.69921875 418.05875 -185.69921875 334.89875 -185.69921875 249.21875 C-167.21921875 249.21875 -148.73921875 249.21875 -129.69921875 249.21875 C-129.76882812 240.49244141 -129.76882812 240.49244141 -129.83984375 231.58984375 C-129.86031319 227.87563289 -129.8795711 224.16149284 -129.89453125 220.44726562 C-129.91832258 214.56861697 -129.94628182 208.69022056 -130.00097656 202.81176758 C-130.04485433 198.06548892 -130.06844312 193.31948125 -130.07872772 188.57301521 C-130.08604465 186.77395431 -130.10032971 184.97490604 -130.12213898 183.17596245 C-130.38542016 160.53167394 -124.58067179 141.45252419 -108.390625 124.8515625 C-92.30683582 109.56552927 -74.05443356 105.68473298 -52.69921875 104.21875 C-53.43785156 103.950625 -54.17648438 103.6825 -54.9375 103.40625 C-71.1290656 97.15182059 -82.85097744 86.72135563 -90.2578125 70.9453125 C-96.06604639 55.92890293 -96.37798323 40.12605273 -90.51171875 25.09375 C-84.07294195 10.67239611 -73.30169986 -0.7499507 -58.7265625 -7.0703125 C-38.67300761 -14.57352685 -17.79030073 -11.74005373 0 0 Z " fill="#FFAC63" transform="translate(185.69921875,10.78125)"/>
<path d="M0 0 C84.48 0 168.96 0 256 0 C256 53.13 256 106.26 256 161 C171.52 161 87.04 161 0 161 C0 107.87 0 54.74 0 0 Z " fill="#FF8852" transform="translate(256,351)"/>
<path d="M0 0 C41.83902763 -0.04030303 41.83902763 -0.04030303 59.31445312 -0.04882812 C71.40112734 -0.05477159 83.48779461 -0.06177457 95.57446289 -0.07543945 C104.37544464 -0.0853849 113.17642078 -0.09185309 121.97740799 -0.09408849 C126.64046267 -0.09539584 131.30350128 -0.09848318 135.96655083 -0.10573006 C140.35032366 -0.11248809 144.73407371 -0.11461741 149.11785126 -0.11310768 C150.73160234 -0.11338411 152.34535413 -0.11539052 153.95910072 -0.11920547 C156.1526889 -0.12413934 158.3461897 -0.12299944 160.53977966 -0.12025452 C161.7703733 -0.12117631 163.00096693 -0.1220981 164.26885128 -0.12304783 C167 0 167 0 168 1 C168.09500548 3.46444057 168.12557985 5.90074626 168.11352539 8.36547852 C168.11367142 9.13615662 168.11381744 9.90683472 168.1139679 10.7008667 C168.1132686 13.26024139 168.10547545 15.8195442 168.09765625 18.37890625 C168.09579213 20.14867615 168.0943682 21.91844656 168.09336853 23.68821716 C168.08954288 28.35551366 168.0797122 33.02277923 168.06866455 37.69006348 C168.05845144 42.44897035 168.05387113 47.20788221 168.04882812 51.96679688 C168.03808997 61.31121371 168.0204928 70.65559945 168 80 C179.22 80 190.44 80 202 80 C202 110.03 202 140.06 202 171 C117.52 171 33.04 171 -54 171 C-54 140.97 -54 110.94 -54 80 C-36.18 80 -18.36 80 0 80 C0 53.6 0 27.2 0 0 Z " fill="#FE651D" transform="translate(310,180)"/>
<path d="M0 0 C13.08535395 9.77894751 20.91696236 24.21048928 23.30078125 40.21875 C24.78322004 55.85667138 20.96660371 71.41228277 11.23046875 83.8671875 C2.85232766 93.58816654 -5.91047101 99.24451795 -17.69921875 104.21875 C-16.49007812 104.31671875 -15.2809375 104.4146875 -14.03515625 104.515625 C8.78078327 106.52769514 27.95395137 113.3611913 43.30078125 131.21875 C68.81069773 166.06285629 58.30078125 207.03244412 58.30078125 250.21875 C-3.73921875 250.21875 -65.77921875 250.21875 -129.69921875 250.21875 C-129.69921875 146.7009835 -129.69921875 146.7009835 -108.390625 124.8515625 C-92.30683582 109.56552927 -74.05443356 105.68473298 -52.69921875 104.21875 C-53.43785156 103.950625 -54.17648438 103.6825 -54.9375 103.40625 C-71.1290656 97.15182059 -82.85097744 86.72135563 -90.2578125 70.9453125 C-96.06604639 55.92890293 -96.37798323 40.12605273 -90.51171875 25.09375 C-84.07294195 10.67239611 -73.30169986 -0.7499507 -58.7265625 -7.0703125 C-38.67300761 -14.57352685 -17.79030073 -11.74005373 0 0 Z " fill="#004C75" transform="translate(185.69921875,10.78125)"/>
<path d="M0 0 C84.48 0 168.96 0 256 0 C256 30.03 256 60.06 256 91 C171.52 91 87.04 91 0 91 C0 60.97 0 30.94 0 0 Z " fill="#FF8852" transform="translate(0,260)"/>
<path d="M0 0 C41.83902763 -0.04030303 41.83902763 -0.04030303 59.31445312 -0.04882812 C71.40112734 -0.05477159 83.48779461 -0.06177457 95.57446289 -0.07543945 C104.37544464 -0.0853849 113.17642078 -0.09185309 121.97740799 -0.09408849 C126.64046267 -0.09539584 131.30350128 -0.09848318 135.96655083 -0.10573006 C140.35032366 -0.11248809 144.73407371 -0.11461741 149.11785126 -0.11310768 C150.73160234 -0.11338411 152.34535413 -0.11539052 153.95910072 -0.11920547 C156.1526889 -0.12413934 158.3461897 -0.12299944 160.53977966 -0.12025452 C161.7703733 -0.12117631 163.00096693 -0.1220981 164.26885128 -0.12304783 C167 0 167 0 168 1 C168 27.07 168 53.14 168 80 C112.56 80 57.12 80 0 80 C0 53.6 0 27.2 0 0 Z " fill="#00375A" transform="translate(310,180)"/>
<path d="M0 0 C23.39631542 0 42.04280406 4.35272929 59.3125 20.8125 C90.78547336 53.79859708 79 103.17500787 79 145 C16.96 145 -45.08 145 -109 145 C-109 144.67 -109 144.34 -109 144 C-77.98 144 -46.96 144 -15 144 C-15 127.5 -15 111 -15 94 C-10.05 94 -5.1 94 0 94 C0 62.98 0 31.96 0 0 Z " fill="#014C74" transform="translate(165,116)"/>
<path d="M0 0 C0 31.02 0 62.04 0 94 C4.95 94 9.9 94 15 94 C15 110.5 15 127 15 144 C-16.02 144 -47.04 144 -79 144 C-79.0825 130.614375 -79.165 117.22875 -79.25 103.4375 C-79.28641602 99.24087646 -79.32283203 95.04425293 -79.36035156 90.72045898 C-79.37841797 85.51965332 -79.37841797 85.51965332 -79.3817749 83.07020569 C-79.3878405 81.3916548 -79.40174548 79.7131192 -79.42230225 78.03468323 C-79.68569303 55.3575053 -73.90983587 36.26287739 -57.69140625 19.6328125 C-40.9914443 3.76116867 -22.60538532 0 0 0 Z " fill="#005E90" transform="translate(135,116)"/>
<path d="M0 0 C0 38.28 0 76.56 0 116 C-17.09693165 116 -29.67397752 111.93905287 -42.1875 100.375 C-53.42392923 88.40024278 -59.42626082 72.89938811 -59.1484375 56.5078125 C-58.15591598 39.7394226 -51.37497837 25.46927127 -39.22265625 13.87890625 C-27.37752684 3.8657125 -15.3131214 0 0 0 Z " fill="#005E90" transform="translate(150,0)"/>
<path d="M0 0 C9.9 0 19.8 0 30 0 C30 31.02 30 62.04 30 94 C20.1 94 10.2 94 0 94 C0 62.98 0 31.96 0 0 Z " fill="#00385B" transform="translate(135,116)"/>
<path d="M0 0 C4.95 0 9.9 0 15 0 C15 30.69 15 61.38 15 93 C10.05 93 5.1 93 0 93 C0 62.31 0 31.62 0 0 Z " fill="#00243E" transform="translate(150,117)"/>
</svg>
