<?xml version="1.0" encoding="UTF-8"?>
<!DOCTYPE svg PUBLIC "-//W3C//DTD SVG 1.1//EN" "http://www.w3.org/Graphics/SVG/1.1/DTD/svg11.dtd">
<svg xmlns="http://www.w3.org/2000/svg" version="1.1" width="512px" height="512px" style="shape-rendering:geometricPrecision; text-rendering:geometricPrecision; image-rendering:optimizeQuality; fill-rule:evenodd; clip-rule:evenodd" xmlns:xlink="http://www.w3.org/1999/xlink">
<g><path style="opacity:0.965" fill="#020101" d="M 233.5,97.5 C 213.826,112.771 196.493,110.438 181.5,90.5C 181.5,89.8333 181.167,89.5 180.5,89.5C 170.66,71.087 170.16,52.4204 179,33.5C 192.335,14.2813 209.502,10.1146 230.5,21C 239.423,27.9957 244.923,37.1623 247,48.5C 249.686,66.9264 245.186,83.2598 233.5,97.5 Z"/></g>
<g><path style="opacity:1" fill="#f8dbd2" d="M 205.5,31.5 C 222.368,31.7006 231.034,40.3672 231.5,57.5C 231.317,68.6881 227.65,78.5215 220.5,87C 213.091,93.0703 205.924,92.9037 199,86.5C 187.97,71.612 186.637,55.9454 195,39.5C 197.975,35.9525 201.475,33.2858 205.5,31.5 Z"/></g>
<g><path style="opacity:0.968" fill="#010101" d="M 172.5,89.5 C 171.892,92.9583 169.892,95.4583 166.5,97C 157.845,96.5568 149.178,96.2235 140.5,96C 134.719,98.0571 129.053,100.39 123.5,103C 122.522,109.41 122.189,115.91 122.5,122.5C 127.936,121.233 133.436,120.233 139,119.5C 142.892,119.612 145.892,121.278 148,124.5C 149.015,149.921 150.515,175.255 152.5,200.5C 152.665,203.85 152.498,207.183 152,210.5C 148.494,217.179 145.827,224.179 144,231.5C 141.324,242.36 144.49,250.86 153.5,257C 169.808,265.908 187.142,270.741 205.5,271.5C 213.5,260.5 221.5,249.5 229.5,238.5C 223.63,235.398 217.63,232.565 211.5,230C 207.835,226.702 206.502,222.535 207.5,217.5C 194.086,215.875 180.752,213.709 167.5,211C 163.345,209.189 161.345,206.023 161.5,201.5C 162.737,197.597 165.403,195.597 169.5,195.5C 183.506,197.834 197.506,200.168 211.5,202.5C 212.453,197.448 213.62,192.448 215,187.5C 217.239,184.038 220.406,182.705 224.5,183.5C 228.353,184.697 230.353,187.363 230.5,191.5C 228.833,199.5 227.167,207.5 225.5,215.5C 225.833,216.5 226.167,217.5 226.5,218.5C 245.286,226.726 263.952,235.226 282.5,244C 306.092,263.047 329.592,282.214 353,301.5C 362.889,293.944 373.056,286.778 383.5,280C 398.987,277.236 407.987,283.569 410.5,299C 410.184,303.099 409.017,306.933 407,310.5C 395.341,327.501 382.174,343.334 367.5,358C 357.008,365.573 347.508,364.406 339,354.5C 336.959,350.916 334.792,347.416 332.5,344C 309.159,336.664 287.826,325.664 268.5,311C 262.468,305.302 256.801,299.302 251.5,293C 239.141,292.447 226.808,291.613 214.5,290.5C 195.091,288.349 176.091,284.016 157.5,277.5C 158.833,286.833 160.167,296.167 161.5,305.5C 175.454,307.779 189.454,309.779 203.5,311.5C 202.2,303.038 205.533,298.038 213.5,296.5C 217.702,298.037 220.035,301.037 220.5,305.5C 216.869,330.955 212.702,356.288 208,381.5C 178.591,404.787 149.091,427.954 119.5,451C 122.281,458.793 124.281,466.793 125.5,475C 124.446,487.888 117.446,495.054 104.5,496.5C 97.0559,495.865 91.2225,492.531 87,486.5C 78.4956,470.653 72.1622,453.986 68,436.5C 65.1545,417.673 73.3211,408.507 92.5,409C 100.368,398.764 107.868,388.264 115,377.5C 125.137,366.353 136.97,357.52 150.5,351C 151.574,350.261 152.241,349.261 152.5,348C 147.613,320.512 142.78,293.012 138,265.5C 127.764,255.141 124.431,242.807 128,228.5C 129.536,221.227 131.869,214.227 135,207.5C 134.367,184.173 133.534,160.839 132.5,137.5C 118.512,139.831 104.512,142.165 90.5,144.5C 69.7636,140.989 49.0969,137.155 28.5,133C 14.8945,124.907 11.7278,113.74 19,99.5C 23.669,93.4155 29.8356,90.4155 37.5,90.5C 55.7965,92.578 73.9632,95.2447 92,98.5C 108.222,91.1385 124.722,84.4718 141.5,78.5C 149.825,79.3883 158.159,80.2216 166.5,81C 170.837,82.1724 172.837,85.0057 172.5,89.5 Z"/></g>
<g><path style="opacity:1" fill="#ed5249" d="M 172.5,89.5 C 175.167,89.5 177.833,89.5 180.5,89.5C 181.167,89.5 181.5,89.8333 181.5,90.5C 196.493,110.438 213.826,112.771 233.5,97.5C 235.421,98.3627 237.421,99.0293 239.5,99.5C 238.971,103.192 239.971,106.358 242.5,109C 247.822,110.998 253.155,112.998 258.5,115C 259.833,117 261.167,119 262.5,121C 255.228,123.535 247.895,125.868 240.5,128C 237.298,129.702 234.965,132.202 233.5,135.5C 224.932,132.366 216.266,129.533 207.5,127C 195.797,125.101 187.631,129.601 183,140.5C 181.081,150.077 183.914,157.91 191.5,164C 202.973,168.429 214.306,172.929 225.5,177.5C 225.167,179.5 224.833,181.5 224.5,183.5C 220.406,182.705 217.239,184.038 215,187.5C 213.62,192.448 212.453,197.448 211.5,202.5C 197.506,200.168 183.506,197.834 169.5,195.5C 165.403,195.597 162.737,197.597 161.5,201.5C 158.545,200.841 155.545,200.508 152.5,200.5C 150.515,175.255 149.015,149.921 148,124.5C 145.892,121.278 142.892,119.612 139,119.5C 133.436,120.233 127.936,121.233 122.5,122.5C 122.189,115.91 122.522,109.41 123.5,103C 129.053,100.39 134.719,98.0571 140.5,96C 149.178,96.2235 157.845,96.5568 166.5,97C 169.892,95.4583 171.892,92.9583 172.5,89.5 Z"/></g>
<g><path style="opacity:0.975" fill="#030101" d="M 225.5,177.5 C 214.306,172.929 202.973,168.429 191.5,164C 183.914,157.91 181.081,150.077 183,140.5C 187.631,129.601 195.797,125.101 207.5,127C 216.266,129.533 224.932,132.366 233.5,135.5C 234.965,132.202 237.298,129.702 240.5,128C 247.895,125.868 255.228,123.535 262.5,121C 261.167,119 259.833,117 258.5,115C 253.155,112.998 247.822,110.998 242.5,109C 239.971,106.358 238.971,103.192 239.5,99.5C 241.272,96.1917 244.105,94.5251 248,94.5C 254.556,96.0977 261.056,97.931 267.5,100C 278.949,115.063 289.782,130.563 300,146.5C 307.249,167.493 300.749,182.326 280.5,191C 274.819,192.84 269.153,192.84 263.5,191C 250.772,186.591 238.105,182.091 225.5,177.5 Z"/></g>
<g><path style="opacity:1" fill="#f4d7ce" d="M 35.5,106.5 C 54.1153,109.445 72.782,112.112 91.5,114.5C 96.7415,113.973 101.741,112.64 106.5,110.5C 106.5,115.5 106.5,120.5 106.5,125.5C 100.67,126.124 94.8369,126.791 89,127.5C 70.0756,124.792 51.4089,121.126 33,116.5C 30.4887,112.2 31.322,108.867 35.5,106.5 Z"/></g>
<g><path style="opacity:1" fill="#f6cebf" d="M 268.5,135.5 C 270.722,135.178 272.556,135.845 274,137.5C 278,143.5 282,149.5 286,155.5C 287.5,170 281,176.5 266.5,175C 243.905,166.692 221.405,158.192 199,149.5C 198.333,147.5 198.333,145.5 199,143.5C 200.062,142.903 201.228,142.57 202.5,142.5C 216.98,146.493 231.313,150.993 245.5,156C 254.911,157.288 258.411,153.455 256,144.5C 254.833,143.333 253.667,142.167 252.5,141C 258.051,139.456 263.384,137.622 268.5,135.5 Z"/></g>
<g><path style="opacity:0.957" fill="#020100" d="M 438.5,142.5 C 467.768,139.971 486.602,152.638 495,180.5C 498.385,208.584 486.885,227.418 460.5,237C 430.519,241.934 410.686,230.1 401,201.5C 397.153,171.222 409.653,151.556 438.5,142.5 Z"/></g>
<g><path style="opacity:1" fill="#f6b333" d="M 441.5,158.5 C 466.389,157.892 478.889,169.892 479,194.5C 476.561,207.608 469.061,216.441 456.5,221C 428.513,223.346 415.346,210.512 417,182.5C 421.085,170.247 429.252,162.247 441.5,158.5 Z"/></g>
<g><path style="opacity:1" fill="#3c8bca" d="M 152.5,200.5 C 155.545,200.508 158.545,200.841 161.5,201.5C 161.345,206.023 163.345,209.189 167.5,211C 180.752,213.709 194.086,215.875 207.5,217.5C 206.502,222.535 207.835,226.702 211.5,230C 217.63,232.565 223.63,235.398 229.5,238.5C 221.5,249.5 213.5,260.5 205.5,271.5C 187.142,270.741 169.808,265.908 153.5,257C 144.49,250.86 141.324,242.36 144,231.5C 145.827,224.179 148.494,217.179 152,210.5C 152.498,207.183 152.665,203.85 152.5,200.5 Z"/></g>
<g><path style="opacity:1" fill="#f6d9d0" d="M 244.5,245.5 C 257.512,249.838 269.512,256.005 280.5,264C 275,270.167 269.5,276.333 264,282.5C 262.833,280 261,278.167 258.5,277C 246.789,276.72 235.123,275.887 223.5,274.5C 230.265,264.627 237.265,254.96 244.5,245.5 Z"/></g>
<g><path style="opacity:1" fill="#eb5148" d="M 292.5,274.5 C 309.796,288.119 327.129,301.786 344.5,315.5C 346.218,320.298 345.218,324.465 341.5,328C 317.104,322.385 295.27,311.552 276,295.5C 275.333,294.5 275.333,293.5 276,292.5C 282.075,286.93 287.575,280.93 292.5,274.5 Z"/></g>
<g><path style="opacity:1" fill="#3c8ac7" d="M 214.5,290.5 C 214.675,292.621 214.341,294.621 213.5,296.5C 205.533,298.038 202.2,303.038 203.5,311.5C 189.454,309.779 175.454,307.779 161.5,305.5C 160.167,296.167 158.833,286.833 157.5,277.5C 176.091,284.016 195.091,288.349 214.5,290.5 Z"/></g>
<g><path style="opacity:1" fill="#46484e" d="M 388.5,295.5 C 392.487,295.652 393.987,297.652 393,301.5C 384.818,313.193 376.152,324.527 367,335.5C 363.278,339.725 359.112,343.392 354.5,346.5C 352.973,344.807 351.64,342.973 350.5,341C 358.36,334.456 362.194,325.956 362,315.5C 370.991,308.934 379.825,302.268 388.5,295.5 Z"/></g>
<g><path style="opacity:1" fill="#f9dbd2" d="M 165.5,322.5 C 177.098,324.395 188.764,325.728 200.5,326.5C 198.002,341.814 195.502,357.148 193,372.5C 189.974,375.026 186.807,377.36 183.5,379.5C 177.348,373.848 171.348,368.015 165.5,362C 168.907,359.755 170.24,356.588 169.5,352.5C 168.165,342.493 166.832,332.493 165.5,322.5 Z"/></g>
<g><path style="opacity:1" fill="#ec5148" d="M 148.5,370.5 C 149.552,370.351 150.552,370.517 151.5,371C 157.833,377.333 164.167,383.667 170.5,390C 150.357,405.309 130.357,420.809 110.5,436.5C 105.523,430.873 104.356,424.54 107,417.5C 114.579,407.342 121.912,397.009 129,386.5C 135.108,380.546 141.608,375.213 148.5,370.5 Z"/></g>
<g><path style="opacity:1" fill="#45474d" d="M 85.5,425.5 C 86.9778,425.238 88.3112,425.571 89.5,426.5C 90.3329,436.834 94.8329,445.167 103,451.5C 105.958,459.985 107.625,468.651 108,477.5C 105.667,480.167 103.333,480.167 101,477.5C 93.0437,462.09 87.2104,445.923 83.5,429C 83.8618,427.566 84.5285,426.399 85.5,425.5 Z"/></g>
</svg>
