<?xml version="1.0" encoding="UTF-8"?>
<svg version="1.1" xmlns="http://www.w3.org/2000/svg" width="512" height="512">
<path d="M0 0 C4.36775158 3.14884416 7.96773395 6.77820184 9.6875 11.9375 C10.79267979 20.07564206 9.67115425 25.39120001 4.9140625 32.0625 C3.81191406 33.485625 3.81191406 33.485625 2.6875 34.9375 C1.91148437 35.948125 1.13546875 36.95875 0.3359375 38 C-1.45167956 40.30147489 -3.2621383 42.58336471 -5.08203125 44.859375 C-8.94184495 49.70334973 -12.6877865 54.63312097 -16.4375 59.5625 C-17.12545654 60.46444092 -17.81341309 61.36638184 -18.5222168 62.2956543 C-21.44507926 66.13417145 -24.3578823 69.97667258 -27.1953125 73.87890625 C-27.60507324 74.4394873 -28.01483398 75.00006836 -28.43701172 75.57763672 C-29.47040271 76.99838121 -30.49352827 78.42657753 -31.515625 79.85546875 C-33.7816261 82.48107438 -35.81415946 83.74642913 -39.28515625 84.1890564 C-39.97480469 84.19031525 -40.66445312 84.1915741 -41.375 84.19287109 C-42.16261719 84.19983002 -42.95023438 84.20678894 -43.76171875 84.21395874 C-44.60347656 84.21296173 -45.44523438 84.21196472 -46.3125 84.2109375 C-48.10417298 84.23122036 -49.89583961 84.25207102 -51.6875 84.2734375 C-54.50526306 84.29606618 -57.32277513 84.31252129 -60.140625 84.31835938 C-62.86504156 84.327872 -65.58833477 84.36162531 -68.3125 84.3984375 C-69.57513672 84.39086929 -69.57513672 84.39086929 -70.86328125 84.38314819 C-72.04470703 84.40304306 -72.04470703 84.40304306 -73.25 84.42333984 C-73.93964844 84.42618988 -74.62929687 84.42903992 -75.33984375 84.43197632 C-78.52776739 85.24893107 -79.46341407 86.16678734 -81.3125 88.9375 C-81.92739857 92.66306395 -81.87595837 96.36298824 -81.85839844 100.13183594 C-81.87390495 101.84446373 -81.87390495 101.84446373 -81.88972473 103.59169006 C-81.91924107 107.36856084 -81.92065383 111.14489776 -81.921875 114.921875 C-81.93685059 117.53933744 -81.95357642 120.15679041 -81.97198486 122.77423096 C-82.01254378 128.96126487 -82.03288521 135.1481934 -82.04595876 141.33533978 C-82.06338636 149.07131682 -82.10780825 156.8071084 -82.15234375 164.54296875 C-82.23166088 178.34114085 -82.2701475 192.13905498 -82.3125 205.9375 C-112.0125 205.9375 -141.7125 205.9375 -172.3125 205.9375 C-172.34988281 197.59855469 -172.38726562 189.25960937 -172.42578125 180.66796875 C-172.45989265 174.72493765 -172.49587797 168.78194115 -172.53457737 162.83894062 C-172.58449899 155.13409994 -172.62995231 147.42931618 -172.65893555 139.72436523 C-172.68434159 132.97452791 -172.72522614 126.22494869 -172.77568626 119.47524452 C-172.79241234 116.89599746 -172.80389071 114.31671101 -172.81011391 111.73741722 C-172.81969251 108.13353831 -172.84767748 104.53024884 -172.88012695 100.92651367 C-172.87869186 99.85261383 -172.87725677 98.77871399 -172.8757782 97.67227173 C-172.88831635 96.69210587 -172.90085449 95.71194 -172.91377258 94.70207214 C-172.91838155 93.84941363 -172.92299051 92.99675512 -172.92773914 92.11825848 C-173.40107224 89.43548774 -174.1157557 88.51709718 -176.3125 86.9375 C-179.40245097 86.85526634 -179.40245097 86.85526634 -182.3125 87.9375 C-184.46162115 91.08214334 -184.56097713 93.78031717 -184.55732727 97.52345276 C-184.5632338 99.22906372 -184.5632338 99.22906372 -184.56925964 100.96913147 C-184.56071709 102.83401466 -184.56071709 102.83401466 -184.55200195 104.73657227 C-184.55509361 106.75120204 -184.5581915 108.76583181 -184.56152475 110.78046119 C-184.56334842 112.94371648 -184.56041133 115.10692227 -184.55632973 117.27017403 C-184.54872207 121.77864142 -184.55937213 126.28694999 -184.5735321 130.7953949 C-184.61128069 143.61449821 -184.62944371 156.43352915 -184.61791992 169.25268555 C-184.61171038 176.33471919 -184.62324646 183.4164964 -184.65436524 190.49846691 C-184.6730541 194.98206166 -184.66966979 199.46493198 -184.65019763 203.94851506 C-184.64171853 207.38842233 -184.66573245 210.82795999 -184.68481445 214.26782227 C-184.66716286 216.13574181 -184.66716286 216.13574181 -184.64915466 218.04139709 C-184.66155182 219.17565125 -184.67394897 220.3099054 -184.6867218 221.47853088 C-184.68697341 222.95989454 -184.68697341 222.95989454 -184.68723011 224.47118473 C-185.3125 226.9375 -185.3125 226.9375 -187.66093731 228.74938869 C-193.22368714 231.24194374 -200.07858289 231.08157445 -205.796875 229.05859375 C-210.46974037 226.39716855 -213.42421391 223.02761548 -215.3125 217.9375 C-215.90406121 213.38629639 -215.85895602 208.86648511 -215.83007812 204.28222656 C-215.83550485 202.90003728 -215.84263059 201.51785379 -215.85131836 200.13568115 C-215.86949646 196.39566166 -215.8625055 192.65608541 -215.84980202 188.91605854 C-215.83963744 184.98941716 -215.84907801 181.06281239 -215.85534668 177.13616943 C-215.8626165 170.53895296 -215.85305655 163.94191578 -215.83398438 157.34472656 C-215.8122529 149.74033821 -215.81924234 142.13637953 -215.84129 134.53200173 C-215.85950631 127.98478427 -215.86197096 121.43769538 -215.85153532 114.89046073 C-215.8453298 110.9883673 -215.84438218 107.08647499 -215.85768127 103.18439484 C-215.86932906 99.51027329 -215.86105364 95.83669891 -215.83810425 92.1626358 C-215.83038331 90.18838735 -215.84209907 88.21409205 -215.85461426 86.23986816 C-215.72934939 72.91504106 -211.65946627 64.14216442 -203 54.3125 C-192.42349392 44.96582021 -182.45578672 42.47522147 -168.5065918 42.56860352 C-166.64376305 42.5629538 -166.64376305 42.5629538 -164.74330139 42.55718994 C-162.06295729 42.55078259 -159.38322752 42.54960604 -156.70294762 42.55737495 C-152.46225171 42.56904115 -148.22182509 42.55672891 -143.9811554 42.54075623 C-133.45707773 42.50471355 -122.93300838 42.4983361 -112.40887451 42.50085449 C-104.20997381 42.50256629 -96.01129571 42.49545438 -87.81245738 42.46087593 C-83.59876342 42.44410426 -79.38561372 42.44585487 -75.17192209 42.46169865 C-71.93837264 42.46885815 -68.70494957 42.45026248 -65.47143555 42.43579102 C-63.72662399 42.45040627 -63.72662399 42.45040627 -61.94656372 42.46531677 C-55.75125466 42.45980563 -55.75125466 42.45980563 -50.17097473 40.0486908 C-48.15650385 37.76029144 -46.28411162 35.47450105 -44.5 33 C-43.73558594 31.95972656 -42.97117188 30.91945312 -42.18359375 29.84765625 C-41.52399658 28.94684326 -41.52399658 28.94684326 -40.85107422 28.02783203 C-37.62113457 23.63958333 -34.3440631 19.28720164 -31.0625 14.9375 C-30.03419067 13.55703491 -30.03419067 13.55703491 -28.98510742 12.14868164 C-21.13181401 1.75205197 -13.44448494 -4.31238196 0 0 Z " fill="#FF2727" transform="translate(222.3125,112.0625)"/>
<path d="M0 0 C2.31482601 -0.37752342 2.31482601 -0.37752342 5.26951599 -0.38095093 C6.38701233 -0.3894104 7.50450867 -0.39786987 8.65586853 -0.40658569 C10.50348534 -0.39747665 10.50348534 -0.39747665 12.38842773 -0.38818359 C13.68112579 -0.39344055 14.97382385 -0.39869751 16.30569458 -0.40411377 C19.85740253 -0.41782043 23.40884981 -0.41247475 26.96056247 -0.40297651 C30.67342772 -0.39539554 34.38627025 -0.40242131 38.09913635 -0.40713501 C44.33606992 -0.41259783 50.57289704 -0.40538795 56.80981445 -0.39111328 C64.02395621 -0.37479283 71.23784354 -0.38006863 78.4519791 -0.3965925 C84.64057229 -0.41020099 90.82908883 -0.41212995 97.01769215 -0.40427649 C100.71613139 -0.39959551 104.41445102 -0.39898653 108.11288261 -0.40888596 C112.23613453 -0.41915082 116.35894714 -0.40492865 120.48217773 -0.38818359 C121.71189804 -0.39425629 122.94161835 -0.40032898 124.20860291 -0.40658569 C125.88907715 -0.39389648 125.88907715 -0.39389648 127.60350037 -0.38095093 C129.06663744 -0.37925431 129.06663744 -0.37925431 130.55933285 -0.37752342 C133 0 133 0 134.81305122 1.26092434 C136.27878546 3.40846666 136.37922696 4.61716894 136.38768005 7.2061615 C136.39758469 8.06274857 136.40748932 8.91933563 136.41769409 9.80187988 C136.41319244 10.73858521 136.4086908 11.67529053 136.40405273 12.64038086 C136.41091599 13.62925797 136.41777924 14.61813507 136.42485046 15.63697815 C136.44318513 18.9130785 136.43927135 22.188703 136.43359375 25.46484375 C136.43815241 27.73784034 136.44345703 30.01083555 136.44947815 32.28382874 C136.45842242 37.05117385 136.45597117 41.81835156 136.44604492 46.58569336 C136.43455493 52.70050177 136.45476099 58.81473276 136.48396206 64.92946529 C136.50229259 69.62459495 136.50203783 74.31958545 136.49632454 79.0147419 C136.49617093 81.26943331 136.50224758 83.52413393 136.51461601 85.77879143 C136.52946407 88.92963946 136.51889382 92.07941069 136.50170898 95.23022461 C136.51621094 96.63224625 136.51621094 96.63224625 136.53100586 98.06259155 C136.48737635 101.87538188 136.43493795 104.28391624 134.43086243 107.58343506 C131.15190113 109.49422259 128.292208 109.52009675 124.60449219 109.43481445 C123.86573349 109.43390808 123.12697479 109.43300171 122.36582947 109.43206787 C120.76434687 109.42800839 119.16286752 109.41503189 117.56151581 109.39415932 C115.02145075 109.36296906 112.48268289 109.35916954 109.94244385 109.36308289 C102.72190907 109.36959528 95.501964 109.3293277 88.28173828 109.2644043 C83.86129178 109.22656349 79.44183872 109.22289274 75.02127838 109.23943138 C73.34201456 109.23867007 71.6627002 109.22470232 69.98366547 109.19695473 C59.45792781 108.71092264 59.45792781 108.71092264 50.30932617 113.14941406 C49.17286576 114.40350831 48.06743948 115.68665785 47 117 C45.91750652 118.07120603 44.82471143 119.13212095 43.72094727 120.18139648 C42.66693242 121.24214947 41.61546086 122.30543498 40.56640625 123.37109375 C40.00300034 123.93828629 39.43959442 124.50547882 38.8591156 125.08985901 C37.09107556 126.86994671 35.32638656 128.65329719 33.5625 130.4375 C31.21247389 132.81403372 28.85919893 135.18728084 26.50390625 137.55859375 C25.96544571 138.10535263 25.42698517 138.65211151 24.87220764 139.21543884 C23.60025004 140.49589058 22.3027327 141.75087218 21 143 C20.67 143 20.34 143 20 143 C19.98541748 142.10692139 19.97083496 141.21384277 19.95581055 140.29370117 C19.89472923 136.97782722 19.82057522 133.66278101 19.73754883 130.34741211 C19.70430999 128.91295372 19.67627465 127.47836487 19.65356445 126.04370117 C19.61999729 123.98039193 19.56768587 121.91827697 19.51171875 119.85546875 C19.48553467 118.61434326 19.45935059 117.37321777 19.43237305 116.09448242 C19.24490779 113.04339862 19.24490779 113.04339862 17.66894531 111.09692383 C14.9542199 109.31265506 12.25771301 109.58046706 9.0625 109.5 C2.81412638 109.34231234 2.81412638 109.34231234 -0.17886353 108.0838623 C-3.20856243 104.61708459 -2.5385619 100.69725904 -2.48583984 96.25195312 C-2.48963654 95.25171616 -2.49343323 94.25147919 -2.49734497 93.22093201 C-2.50476765 89.90738792 -2.48334338 86.59471645 -2.4609375 83.28125 C-2.45855401 80.98344018 -2.45764755 78.68562838 -2.4581604 76.38781738 C-2.45502944 71.56913069 -2.438441 66.75074091 -2.41162109 61.93212891 C-2.37764101 55.74785615 -2.36999235 49.56390992 -2.37151146 43.37955475 C-2.37096822 38.63385893 -2.36000846 33.88823485 -2.34550858 29.14256287 C-2.33913322 26.86193892 -2.33519996 24.58130682 -2.33372116 22.30067444 C-2.32939604 19.11632372 -2.31191177 15.93232274 -2.29052734 12.74804688 C-2.29143372 11.80041977 -2.29234009 10.85279266 -2.29327393 9.87644958 C-2.28474396 9.0100032 -2.27621399 8.14355682 -2.26742554 7.25085449 C-2.26407385 6.49795891 -2.26072216 5.74506332 -2.25726891 4.96935272 C-2 3 -2 3 0 0 Z M20.50486755 28.87411499 C18.84853485 30.92507083 18.84853485 30.92507083 18.4375 33.5 C18.81335852 36.1655134 18.81335852 36.1655134 21.01123047 38.12390137 C24.83024925 40.52116079 28.01347704 40.56303197 32.3828125 40.51757812 C33.21431824 40.5245874 34.04582397 40.53159668 34.90252686 40.53881836 C37.64369367 40.55638468 40.38382318 40.54478071 43.125 40.53125 C45.03401894 40.53394531 46.94303654 40.53782806 48.85205078 40.54284668 C52.85006805 40.54873987 56.84772749 40.54018451 60.84570312 40.52148438 C65.96721886 40.49869495 71.08789612 40.51181899 76.2093811 40.53577423 C80.15053613 40.55023702 84.09149277 40.545624 88.03265381 40.53526306 C89.9208791 40.53259711 91.80912248 40.53586092 93.69732666 40.54518127 C96.3377647 40.55535482 98.97685006 40.53983517 101.6171875 40.51757812 C102.39551941 40.52567505 103.17385132 40.53377197 103.97576904 40.54211426 C107.64222934 40.4849359 109.850866 40.08905777 113.02392578 38.19421387 C115.40431106 36.04320195 115.40431106 36.04320195 115 32.375 C114.31742476 28.74926111 114.31742476 28.74926111 111 27 C108.18259543 26.79496214 105.46322297 26.70630242 102.64477539 26.70947266 C101.36628471 26.69939682 101.36628471 26.69939682 100.06196594 26.68911743 C97.24047032 26.6700974 94.41921202 26.66621135 91.59765625 26.6640625 C89.63854371 26.6576378 87.67943215 26.65090969 85.72032166 26.64389038 C81.61210912 26.63190791 77.50398074 26.6282106 73.39575195 26.62939453 C68.12841743 26.62959788 62.86162151 26.60228399 57.59441471 26.56785011 C53.5478212 26.5456272 49.5013583 26.54155556 45.45471001 26.54261398 C43.51260965 26.54025152 41.57050605 26.53139185 39.62846565 26.51594925 C36.9134648 26.49638054 34.1996384 26.50209091 31.48461914 26.51416016 C30.68084839 26.50292114 29.87707764 26.49168213 29.0489502 26.48010254 C25.46440515 26.52065042 23.41204615 26.69050867 20.50486755 28.87411499 Z M20 71 C18.83551119 73.90351124 18.83551119 73.90351124 19 77 C20.23323183 79.40155672 21.05589186 80.65230553 23.61940002 81.59638977 C27.04201356 82.17666443 30.44141537 82.14737016 33.90209961 82.14526367 C35.09061775 82.15030159 35.09061775 82.15030159 36.30314636 82.15544128 C38.91956148 82.16493182 41.53591249 82.16689336 44.15234375 82.16796875 C45.9731092 82.17118235 47.79387438 82.1745465 49.61463928 82.17805481 C53.43019204 82.18404111 57.24572217 82.18589519 61.0612793 82.18530273 C65.94830427 82.18520107 70.83518409 82.19885977 75.72217464 82.21607494 C79.48227098 82.22719714 83.24233222 82.22922188 87.00244331 82.22869301 C88.804149 82.22987254 90.60585561 82.23429282 92.40754509 82.24202538 C94.92796867 82.25183085 97.44807712 82.24894518 99.96850586 82.24291992 C100.71100586 82.24853943 101.45350586 82.25415894 102.21850586 82.25994873 C106.23635943 82.23556155 109.45254443 81.95887062 113 80 C115.28992684 77.18467943 115.28992684 77.18467943 114.9375 74 C114.27540589 70.91094992 114.27540589 70.91094992 111.95385742 69.33676147 C108.19567099 67.63600273 104.8460587 67.57947735 100.80078125 67.61181641 C99.98878265 67.60655945 99.17678406 67.60130249 98.34017944 67.59588623 C95.66408889 67.58271472 92.98859629 67.59141409 90.3125 67.6015625 C88.44832241 67.59954094 86.58414559 67.59662882 84.7199707 67.59286499 C80.81616677 67.5884455 76.912569 67.59486063 73.00878906 67.60888672 C68.00846445 67.62597837 63.00862293 67.61613518 58.00831604 67.59816933 C54.15983449 67.58732137 50.3114672 67.59078248 46.46298218 67.5985527 C44.6194147 67.60055191 42.7758368 67.59810525 40.93228149 67.59111404 C38.35431494 67.58348292 35.77712739 67.59512677 33.19921875 67.61181641 C32.0597731 67.60270737 32.0597731 67.60270737 30.89730835 67.59341431 C26.44671029 67.64670956 23.49648412 68.16990694 20 71 Z " fill="#0099F4" transform="translate(273,194)"/>
<path d="M0 0 C1.04472649 -0.00827125 1.04472649 -0.00827125 2.11055857 -0.0167096 C4.46213347 -0.03038722 6.8126663 -0.01536438 9.16422272 -0.00063419 C10.85997151 -0.00452412 12.55571705 -0.01016208 14.25145483 -0.01740509 C18.92504687 -0.03222211 23.59830414 -0.02194165 28.27188563 -0.00766838 C33.30671937 0.00340221 38.34150463 -0.00848817 43.37633514 -0.01751041 C53.24500236 -0.03147167 63.11354195 -0.02386545 72.98220313 -0.00883483 C84.46514445 0.00799136 95.94805368 0.0048193 107.43100351 0.00107109 C127.91408323 -0.00481278 148.39710156 0.00938472 168.8801651 0.03401852 C188.7737432 0.05794082 208.66723926 0.06502344 228.56082916 0.05452633 C250.20313162 0.04312701 271.84539609 0.04117485 293.48769808 0.05562443 C295.79375743 0.05715033 298.0998168 0.05867068 300.40587616 0.06018543 C301.54061838 0.06094325 302.6753606 0.06170106 303.84448895 0.06248184 C311.85615784 0.0672323 319.86780982 0.06536784 327.87947845 0.06112003 C337.63778974 0.05620247 347.39602333 0.06213697 357.15431678 0.08201433 C362.13690227 0.09191232 367.11936924 0.09696454 372.10196114 0.08912182 C376.65783011 0.08209729 381.21345926 0.08879343 385.76929647 0.10672545 C387.42267669 0.11079102 389.07607855 0.10973506 390.72945088 0.10320658 C392.9669236 0.09512387 395.20357487 0.10528477 397.44099426 0.12025452 C398.68674933 0.12128365 399.9325044 0.12231278 401.21600962 0.12337309 C404.22049713 0.50057125 404.22049713 0.50057125 406.12062085 1.76948494 C407.45974213 3.87711701 407.59633702 5.0887963 407.59802055 7.578269 C407.6058438 8.4114402 407.61366704 9.2446114 407.62172735 10.1030302 C407.61503518 11.01829102 407.60834302 11.93355183 407.60144806 12.87654781 C407.60612803 13.84887985 407.610808 14.82121189 407.61562979 15.82300854 C407.62763901 19.09587468 407.61809933 22.36832667 407.60868073 25.64119625 C407.61274379 27.98157147 407.61808417 30.32194477 407.6246109 32.66231441 C407.63832182 39.0299513 407.63297024 45.39744284 407.62347364 51.76508236 C407.61666389 57.74440133 407.62185293 63.72370677 407.62625523 69.70302534 C407.63481459 82.26737804 407.62496645 94.83166512 407.60885413 107.39600706 C407.59545043 118.18219674 407.59777837 128.96828957 407.61161041 139.7544775 C407.6276566 152.27315905 407.63399057 164.79178305 407.62477362 177.31047344 C407.62002554 183.93981703 407.61949619 190.56910656 407.62938309 197.19844723 C407.63802682 203.42989423 407.63207829 209.6611577 407.61470032 215.8925848 C407.61072159 218.1843806 407.61189304 220.47619176 407.61848831 222.76798153 C407.62663915 225.88706361 407.61646046 229.00555091 407.60144806 232.12459469 C407.60814022 233.0398555 407.61483239 233.95511631 407.62172735 234.8981123 C407.61390411 235.73128349 407.60608086 236.56445469 407.59802055 237.4228735 C407.59728997 238.50320669 407.59728997 238.50320669 407.59654462 239.6053648 C407.10853544 242.06483645 406.13755094 242.93518084 404.22049713 244.50057125 C401.21543883 246.0031004 398.1279278 245.63049885 394.8332901 245.61409664 C394.07221954 245.61424267 393.31114899 245.61438869 392.52701569 245.61453915 C390.00554324 245.61384118 387.48414421 245.60605419 384.96268463 245.5982275 C383.21676422 245.59636291 381.4708433 245.5949392 379.72492218 245.59393978 C375.12504385 245.59011784 370.52519699 245.5802903 365.92533112 245.5692358 C361.23335954 245.55901474 356.54138288 245.55444067 351.84940338 245.54939938 C342.6397519 245.53866776 333.43013205 245.52107355 324.22049713 245.50057125 C324.22049713 240.55057125 324.22049713 235.60057125 324.22049713 230.50057125 C346.66049713 230.50057125 369.10049713 230.50057125 392.22049713 230.50057125 C392.22049713 159.22057125 392.22049713 87.94057125 392.22049713 14.50057125 C264.51049713 14.50057125 136.80049713 14.50057125 5.22049713 14.50057125 C5.22049713 25.72057125 5.22049713 36.94057125 5.22049713 48.50057125 C0.27049713 48.50057125 -4.67950287 48.50057125 -9.77950287 48.50057125 C-9.85366379 42.30756406 -9.90811043 36.11481541 -9.94429779 29.92146969 C-9.95938356 27.81465305 -9.97985479 25.70786781 -10.00582123 23.60115719 C-10.04221339 20.57275805 -10.05923137 17.54477416 -10.07247162 14.51619625 C-10.08795547 13.5743951 -10.10343933 12.63259396 -10.1193924 11.66225338 C-10.11961899 10.78164242 -10.11984558 9.90103146 -10.12007904 8.99373531 C-10.12674088 8.22096249 -10.13340271 7.44818966 -10.14026642 6.65199947 C-9.11061561 0.51163463 -5.65852676 0.00048755 0 0 Z " fill="#009BF4" transform="translate(97.77950286865234,6.499428749084473)"/>
<path d="M0 0 C29.7 0 59.4 0 90 0 C90 9.57 90 19.14 90 29 C85.71 28.01 81.42 27.02 77 26 C66.25059643 25.00774736 55.05430142 28.38359517 46.5 34.90625 C36.28962864 43.53644484 31.31361728 53.07143401 29.71875 66.33984375 C29.14813982 79.48765324 34.95748627 90.10152156 43 100 C43 100.66 43 101.32 43 102 C42.29875 102.35191406 41.5975 102.70382812 40.875 103.06640625 C28.62964423 109.43864981 20.4935631 116.79185816 15.8984375 130.21875 C15.18866492 132.79250477 14.5827967 135.39455594 14 138 C9.38 138 4.76 138 0 138 C0 92.46 0 46.92 0 0 Z " fill="#FF2727" transform="translate(50,331)"/>
<path d="M0 0 C2.75203566 0.02144317 5.50146158 0.00012225 8.25341797 -0.02539062 C21.23865289 -0.04741829 31.63342979 0.98013975 41.38232422 10.38085938 C53.65336252 24.39029477 49.25732422 45.88558842 49.25732422 62.52148438 C18.56732422 62.52148438 -12.12267578 62.52148438 -43.74267578 62.52148438 C-43.74267578 19.52148438 -43.74267578 19.52148438 -34.18017578 8.76367188 C-24.65117735 -0.35301413 -12.35752134 -0.11456429 0 0 Z " fill="#0099F4" transform="translate(333.74267578125,442.478515625)"/>
<path d="M0 0 C1.3110672 -0.0099852 1.3110672 -0.0099852 2.64862061 -0.02017212 C4.49082348 -0.0302535 6.33306254 -0.03499054 8.17529297 -0.03466797 C10.96254169 -0.03902834 13.74818832 -0.07535997 16.53515625 -0.11328125 C29.50623072 -0.19682312 40.00244035 0.66755034 49.7890625 10.05078125 C62.37079028 24.83052171 57.734375 43.5759114 57.734375 62.3359375 C27.044375 62.3359375 -3.645625 62.3359375 -35.265625 62.3359375 C-35.265625 19.58092695 -35.265625 19.58092695 -27.2890625 10.30859375 C-19.20055591 2.42308057 -11.01596752 0.02967562 0 0 Z " fill="#0099F4" transform="translate(111.265625,442.6640625)"/>
<path d="M0 0 C0.8712149 -0.00524185 1.74242981 -0.0104837 2.64004517 -0.0158844 C4.47030581 -0.02226429 6.30060767 -0.02102037 8.13085938 -0.01245117 C10.90049784 -0.0039479 13.66806478 -0.03274766 16.4375 -0.06445312 C28.53022424 -0.11303878 39.51541665 0.44463176 48.75 9.2421875 C61.45405618 24.80326941 57.5390625 42.61807079 57.5390625 62.43359375 C26.8490625 62.43359375 -3.8409375 62.43359375 -35.4609375 62.43359375 C-35.4609375 18.90191954 -35.4609375 18.90191954 -26.4609375 9.43359375 C-18.75445312 2.26363676 -10.36746378 -0.03730408 0 0 Z " fill="#0099F4" transform="translate(220.4609375,442.56640625)"/>
<path d="M0 0 C0.8712149 -0.00524185 1.74242981 -0.0104837 2.64004517 -0.0158844 C4.47030581 -0.02226429 6.30060767 -0.02102037 8.13085938 -0.01245117 C10.90049784 -0.0039479 13.66806478 -0.03274766 16.4375 -0.06445312 C27.68301054 -0.10963488 37.57384883 0.3212892 46.8515625 7.43359375 C62.37082614 24.26804923 56.5390625 37.88401111 56.5390625 62.43359375 C26.1790625 62.43359375 -4.1809375 62.43359375 -35.4609375 62.43359375 C-35.4609375 18.90191954 -35.4609375 18.90191954 -26.4609375 9.43359375 C-18.75445312 2.26363676 -10.36746378 -0.03730408 0 0 Z " fill="#0099F3" transform="translate(434.4609375,442.56640625)"/>
<path d="M0 0 C7.40593118 5.28995084 13.86460774 13.35245526 15.5390625 22.4921875 C16.39463207 34.55334182 16.16459444 44.83059774 8.26171875 54.578125 C0.81490383 62.8523638 -7.53766712 67.71233866 -18.78515625 68.6953125 C-29.90593934 68.91589002 -38.98997643 65.46578847 -47.2109375 57.9921875 C-47.9534375 57.1671875 -48.6959375 56.3421875 -49.4609375 55.4921875 C-50.1415625 54.7703125 -50.8221875 54.0484375 -51.5234375 53.3046875 C-56.94849866 45.42959872 -59.43893957 35.99277902 -58.4609375 26.4921875 C-56.11960666 15.09583016 -51.29357788 6.4075073 -41.59765625 -0.22265625 C-28.55720019 -8.06600185 -13.03714694 -7.98783924 0 0 Z " fill="#FF2727" transform="translate(116.4609375,73.5078125)"/>
<path d="M0 0 C7.28310802 5.98833326 12.64116594 12.70756072 13.8125 22.3125 C14.47119527 32.02825516 12.06664939 39.83242409 5.76953125 47.3359375 C-0.44031634 53.60775961 -7.66678672 56.30183743 -16.4375 56.6875 C-25.32117203 56.48033618 -33.0050493 53.52035354 -39.46484375 47.37890625 C-46.19244117 39.30884041 -47.93746878 30.53429671 -47.1875 20.3125 C-45.74675866 12.69366442 -42.06994521 6.24546949 -35.85546875 1.55078125 C-24.1084614 -5.90162126 -12.3763927 -6.5522079 0 0 Z " fill="#0099F4" transform="translate(248.1875,373.6875)"/>
<path d="M0 0 C7.29910776 6.00148861 12.61063513 12.69758101 13.8125 22.3125 C14.5082324 31.18308815 11.73401744 39.09033534 6.61328125 46.26953125 C1.23433212 52.37189653 -5.6221608 55.75422146 -13.6796875 56.5625 C-22.62394186 56.9679053 -30.49540326 54.79609648 -37.5625 49.1875 C-42.72371786 44.29123172 -46.75256239 36.93282084 -47.42578125 29.78125 C-47.66514408 20.20673698 -45.93663311 11.07133054 -39.16015625 3.87890625 C-27.14277545 -5.66360801 -13.48748901 -7.14043536 0 0 Z " fill="#0099F4" transform="translate(462.1875,373.6875)"/>
<path d="M0 0 C6.77033724 5.56672173 12.76515146 12.30530252 13.8125 21.3125 C14.63309677 31.35980677 12.28594465 39.57111648 5.76953125 47.3359375 C-0.44031634 53.60775961 -7.66678672 56.30183743 -16.4375 56.6875 C-24.82007572 56.50326757 -32.56666281 53.8427095 -38.69140625 48.01171875 C-44.94454264 40.90959256 -47.65724994 33.33553086 -47.44140625 23.8671875 C-46.47408092 14.13440644 -41.62860098 7.04857109 -34.2734375 0.85546875 C-23.77667797 -6.9089882 -11.10124567 -5.87713006 0 0 Z " fill="#0099F4" transform="translate(353.1875,373.6875)"/>
<path d="M0 0 C6.93391299 5.48262887 11.94856371 11.28540717 13.6875 20.125 C14.6960761 29.92041331 12.756905 38.69475682 6.5625 46.5 C0.49818889 52.87865985 -7.66467183 56.19376475 -16.375 56.4375 C-24.78792577 56.3364101 -32.64779796 53.74858395 -38.81640625 47.890625 C-44.42820876 41.26781891 -47.82112396 33.04608921 -47.56640625 24.30078125 C-46.39419924 14.25586887 -42.05701575 7.11654858 -34.3984375 0.66796875 C-23.92274513 -7.08090482 -10.97032302 -6.2096168 0 0 Z " fill="#0099F4" transform="translate(139.3125,373.875)"/>
<path d="M0 0 C1.93695488 -0.01073296 1.93695488 -0.01073296 3.91304016 -0.02168274 C5.35240149 -0.02452314 6.79176308 -0.02723485 8.23112488 -0.02983093 C9.74053098 -0.03609446 11.24993553 -0.04274116 12.75933838 -0.04974365 C16.86685731 -0.06716317 20.9743646 -0.07770791 25.08191133 -0.08594918 C27.64720694 -0.09109713 30.21249892 -0.09717295 32.77779198 -0.10346031 C40.80124833 -0.12251472 48.82469546 -0.13674554 56.8481701 -0.14507228 C66.11510083 -0.15484782 75.38179289 -0.18117443 84.6486395 -0.22157317 C91.80793647 -0.25171487 98.96716495 -0.26653928 106.12652415 -0.26985329 C110.40412678 -0.27220594 114.68147451 -0.28119399 118.95900917 -0.30631447 C122.98343966 -0.32956647 127.00744691 -0.33384021 131.03192711 -0.32355309 C132.50855796 -0.32305691 133.98520943 -0.32940136 135.46177673 -0.34310913 C137.47859094 -0.36078387 139.4955883 -0.35135101 141.51245117 -0.34057617 C142.64089353 -0.34296453 143.76933588 -0.34535288 144.93197346 -0.34781361 C148.65774 0.26391568 150.32909931 1.46176718 152.94670105 4.14717102 C153.50920105 7.64717102 153.50920105 7.64717102 152.94670105 11.14717102 C150.7944673 14.01956233 149.61624149 15.03166925 146.04499054 15.64774227 C144.91084969 15.64795156 143.77670883 15.64816084 142.60820007 15.64837646 C140.65233223 15.66312767 140.65233223 15.66312767 138.6569519 15.67817688 C137.2138188 15.66880505 135.7706883 15.65902575 134.32756042 15.64888 C132.80638123 15.65266339 131.28520547 15.65816359 129.76403809 15.66525269 C125.63382649 15.67922225 121.50403077 15.6680272 117.37384224 15.65154147 C113.05286959 15.63769789 108.73192126 15.64415026 104.41093445 15.64767456 C97.15439649 15.65037724 89.89802388 15.63689621 82.64152527 15.61372375 C74.25039249 15.58711361 65.8595362 15.58536668 57.46837568 15.59711212 C49.39843678 15.60788905 41.32859795 15.60170351 33.25866699 15.58755684 C29.82333004 15.58179629 26.3880663 15.58188025 22.95272827 15.58662224 C18.9077593 15.59139245 14.86309332 15.58128874 10.81818199 15.55966759 C9.33309132 15.55410011 7.84797153 15.55363409 6.3628788 15.55862045 C4.33697978 15.56456989 2.31105133 15.55023961 0.28520203 15.53485107 C-0.84893883 15.53242118 -1.98307968 15.52999128 -3.15158844 15.52748775 C-6.37975368 15.10438378 -7.74198213 14.39990513 -10.05329895 12.14717102 C-11.45431619 8.6913285 -11.15226823 7.39223782 -9.74079895 3.89717102 C-7.04928006 -0.48900791 -4.89698824 0.01856381 0 0 Z " fill="#0099F4" transform="translate(316.0532989501953,77.85282897949219)"/>
<path d="M0 0 C1.95380585 -0.01279495 1.95380585 -0.01279495 3.94708252 -0.02584839 C5.39384473 -0.02514934 6.84060684 -0.02422627 8.28736877 -0.02310181 C9.80839875 -0.02908499 11.32942569 -0.03589005 12.85044861 -0.04345703 C16.9847214 -0.06114454 21.11891144 -0.06581353 25.25321841 -0.0670886 C28.70263644 -0.06898637 32.15203514 -0.07634239 35.60144573 -0.08343279 C43.73813706 -0.09972441 51.87478411 -0.104601 60.01148987 -0.10317993 C68.41001059 -0.10197792 76.80827457 -0.12308971 85.20673031 -0.15466726 C92.41360003 -0.18080071 99.62038575 -0.19154848 106.82730252 -0.19026911 C111.13334712 -0.18975866 115.43916357 -0.19548762 119.74516106 -0.21662521 C123.79424425 -0.23595872 127.84288046 -0.23616596 131.89197922 -0.22159195 C133.37869861 -0.21949671 134.86544563 -0.22424721 136.35211754 -0.23631287 C138.38019676 -0.25170754 140.40842767 -0.24008449 142.43652344 -0.22705078 C143.57196311 -0.22814032 144.70740278 -0.22922985 145.87724972 -0.2303524 C149.45143362 0.38219625 150.63185714 1.39000586 152.78175354 4.26742554 C153.33515445 8.14123191 153.52880001 10.26802845 151.14665985 13.4548502 C148.07044742 15.81260398 146.29731795 15.76791979 142.44325256 15.76863098 C140.48738472 15.78338219 140.48738472 15.78338219 138.49200439 15.7984314 C137.04887129 15.78905957 135.60574079 15.77928026 134.16261292 15.76913452 C132.64143372 15.77291791 131.12025796 15.77841811 129.59909058 15.7855072 C125.46887898 15.79947676 121.33908326 15.78828172 117.20889473 15.77179599 C112.88792208 15.7579524 108.56697375 15.76440478 104.24598694 15.76792908 C96.98944898 15.77063175 89.73307637 15.75715073 82.47657776 15.73397827 C74.08544498 15.70736813 65.69458869 15.7056212 57.30342817 15.71736664 C49.23348927 15.72814357 41.16365044 15.72195802 33.09371948 15.70781136 C29.65838253 15.70205081 26.2231188 15.70213477 22.78778076 15.70687675 C18.74281179 15.71164696 14.69814581 15.70154326 10.65323448 15.6799221 C9.16814381 15.67435463 7.68302402 15.6738886 6.19793129 15.67887497 C4.17203227 15.6848244 2.14610382 15.67049413 0.12025452 15.65510559 C-1.01388634 15.6526757 -2.14802719 15.6502458 -3.31653595 15.64774227 C-6.54471104 15.224637 -7.91150294 14.52643045 -10.21824646 12.26742554 C-11.33047362 9.24852325 -11.33475436 7.68491218 -10.46824646 4.57992554 C-7.94523914 -0.08763801 -4.85337451 0.01433137 0 0 Z " fill="#0099F4" transform="translate(316.21824645996094,44.732574462890625)"/>
<path d="M0 0 C1.28563843 -0.00997513 2.57127686 -0.01995026 3.89587402 -0.03022766 C5.3185271 -0.03112342 6.74118033 -0.03178701 8.16383362 -0.03224182 C9.66368523 -0.03986417 11.16353293 -0.0482918 12.66337585 -0.0574646 C16.73566643 -0.07940636 20.80788193 -0.0882078 24.88022494 -0.09329104 C27.42443212 -0.09693434 29.96861961 -0.10317418 32.51281929 -0.11029243 C41.38852427 -0.1347837 50.2641708 -0.14783858 59.13990784 -0.15138245 C67.41408339 -0.15501973 75.68788845 -0.18492956 83.96195072 -0.22678703 C91.06609764 -0.26146658 98.1701216 -0.27693046 105.27435261 -0.27762848 C109.51732023 -0.27842196 113.75991027 -0.28719299 118.00279045 -0.31562614 C121.99286545 -0.34176786 125.98224873 -0.3440344 129.97237015 -0.3279705 C131.43610325 -0.32615299 132.89987578 -0.33287417 134.36352348 -0.34878922 C136.36268937 -0.36920097 138.36211544 -0.35572575 140.36132812 -0.34057617 C141.4797985 -0.3425875 142.59826887 -0.34459883 143.75063229 -0.3466711 C147.72374026 0.47731031 149.23339795 2.15604188 151.74415588 5.27415466 C152.30665588 8.33665466 152.30665588 8.33665466 151.74415588 11.27415466 C149.57394612 14.12885152 148.39692034 15.16225687 144.82403469 15.77472591 C143.10981367 15.77503984 143.10981367 15.77503984 141.36096191 15.77536011 C139.3903051 15.79011131 139.3903051 15.79011131 137.37983704 15.80516052 C135.92567185 15.79578873 134.47150924 15.78600943 133.01734924 15.77586365 C131.48469547 15.77964697 129.95204512 15.78514712 128.41940308 15.79223633 C124.25826896 15.80620555 120.09754763 15.7950116 115.93643641 15.77852511 C111.58429937 15.76468373 107.23218651 15.77113355 102.8800354 15.7746582 C95.5722233 15.77736076 88.2645754 15.76387984 80.95680237 15.7407074 C72.50316623 15.71408738 64.0498045 15.71235352 55.5961408 15.72409576 C47.46853362 15.73486698 39.34102587 15.7286923 31.21342659 15.71454048 C27.75214353 15.70877596 24.29093312 15.70886698 20.82964897 15.71360588 C16.75595662 15.71837091 12.68256559 15.70829396 8.60893059 15.68665123 C7.11213192 15.68107704 5.61530433 15.68062386 4.11850357 15.6856041 C2.0791177 15.69153974 0.03970252 15.67724252 -1.99963379 15.66183472 C-3.14207078 15.65940482 -4.28450777 15.65697493 -5.46156406 15.6544714 C-8.25584412 15.27415466 -8.25584412 15.27415466 -10.09607601 13.89836216 C-11.69449763 11.65983848 -12.06001224 10.01580094 -12.25584412 7.27415466 C-11.52416919 4.41397084 -11.05530912 2.80714831 -8.56480312 1.14675808 C-5.6053496 0.02831932 -3.16544503 0.0131661 0 0 Z " fill="#0099F4" transform="translate(317.25584411621094,110.72584533691406)"/>
<path d="M0 0 C1.26743546 -0.00571014 2.53487091 -0.01142029 3.8407135 -0.01730347 C5.24810781 -0.01854881 6.65550223 -0.01967391 8.06289673 -0.02069092 C9.54289372 -0.02531947 11.02288951 -0.03034418 12.50288391 -0.03573608 C16.52564051 -0.04885757 20.54838042 -0.05530442 24.57115507 -0.05974674 C27.08402576 -0.06267757 29.59689189 -0.06678237 32.10976028 -0.07125092 C39.97089949 -0.08492451 47.83202826 -0.09459213 55.69317853 -0.09845281 C64.76988535 -0.1029349 73.84644168 -0.12049033 82.92310274 -0.1494534 C89.93804845 -0.17106134 96.95295179 -0.18115659 103.96793044 -0.18249393 C108.15827889 -0.18354249 112.34848585 -0.18946134 116.53879929 -0.20731354 C120.48029548 -0.22377918 124.42154359 -0.22595716 128.3630619 -0.21717453 C129.80904746 -0.21640337 131.25504627 -0.2207573 132.70099831 -0.23063278 C134.67619474 -0.24333098 136.65149063 -0.23569151 138.62670898 -0.22705078 C140.28423974 -0.22925062 140.28423974 -0.22925062 141.97525597 -0.2314949 C145.34246763 0.1908846 147.22645665 1.13493987 149.94033813 3.14044189 C151.36075634 5.98127831 151.25486086 7.99521467 150.94033813 11.14044189 C148.78782662 14.01472308 147.59461205 15.02828535 144.02021694 15.64101315 C142.30599592 15.64132707 142.30599592 15.64132707 140.55714417 15.64164734 C138.58648735 15.65639854 138.58648735 15.65639854 136.57601929 15.67144775 C135.1218541 15.66207596 133.66769149 15.65229666 132.21353149 15.64215088 C130.68087772 15.6459342 129.14822737 15.65143435 127.61558533 15.65852356 C123.45445121 15.67249278 119.29372989 15.66129883 115.13261867 15.64481235 C110.78048162 15.63097096 106.42836876 15.63742079 102.07621765 15.64094543 C94.76840555 15.643648 87.46075765 15.63016707 80.15298462 15.60699463 C71.69934848 15.58037461 63.24598675 15.57864075 54.79232305 15.59038299 C46.66471587 15.60115421 38.53720812 15.59497953 30.40960884 15.58082771 C26.94832578 15.57506319 23.48711537 15.57515421 20.02583122 15.57989311 C15.95213887 15.58465814 11.87874784 15.57458119 7.80511284 15.55293846 C6.30831417 15.54736427 4.81148658 15.54691109 3.31468582 15.55189133 C1.27529995 15.55782697 -0.76411523 15.54352975 -2.80345154 15.52812195 C-3.94588853 15.52569205 -5.08832552 15.52326216 -6.26538181 15.52075863 C-9.05966187 15.14044189 -9.05966187 15.14044189 -10.92577267 13.73730564 C-13.00326352 10.81156137 -12.59643333 7.56862234 -12.05966187 4.14044189 C-9.11920426 -0.20023362 -4.849894 0.0130646 0 0 Z " fill="#0098F3" transform="translate(318.0596618652344,143.85955810546875)"/>
<path d="M0 0 C34.65 0 69.3 0 105 0 C105 4.95 105 9.9 105 15 C70.35 15 35.7 15 0 15 C0 10.05 0 5.1 0 0 Z " fill="#0099F3" transform="translate(153,237)"/>
<path d="M0 0 C0.91136719 -0.02900391 1.82273437 -0.05800781 2.76171875 -0.08789062 C9.45454294 -0.15158515 9.45454294 -0.15158515 12.7265625 2.11328125 C14.78593905 5.35190974 14.66108326 7.55991715 14.125 11.3125 C12.71875 13.50390625 12.71875 13.50390625 10.125 15.3125 C6.78169902 15.88269311 3.50805952 15.8249106 0.125 15.75 C-0.77734375 15.75708984 -1.6796875 15.76417969 -2.609375 15.77148438 C-10.24991029 15.69801769 -10.24991029 15.69801769 -13.875 12.3125 C-15.06808162 8.65371638 -15.20167744 7.01252308 -13.5625 3.5 C-10.09070856 -1.00047038 -5.26124388 0.05534268 0 0 Z " fill="#0099F4" transform="translate(268.875,44.6875)"/>
<path d="M0 0 C0.86367188 -0.01224609 1.72734375 -0.02449219 2.6171875 -0.03710938 C3.4525 -0.03904297 4.2878125 -0.04097656 5.1484375 -0.04296875 C6.2919165 -0.04913208 6.2919165 -0.04913208 7.45849609 -0.05541992 C9.92933641 0.22162381 11.52081051 0.87663202 13.625 2.1875 C15.17960305 5.29670609 15.35220693 8.81833028 14.625 12.1875 C11.76912586 14.81464739 9.85218863 15.56946845 6 15.5859375 C5.12859375 15.58980469 4.2571875 15.59367187 3.359375 15.59765625 C2.45703125 15.58605469 1.5546875 15.57445313 0.625 15.5625 C-0.72851562 15.57990234 -0.72851562 15.57990234 -2.109375 15.59765625 C-3.41648437 15.59185547 -3.41648437 15.59185547 -4.75 15.5859375 C-5.54148437 15.58255371 -6.33296875 15.57916992 -7.1484375 15.57568359 C-9.9276747 15.09114553 -11.30899146 14.07849071 -13.375 12.1875 C-14.77601724 8.73165748 -14.47396928 7.43256679 -13.0625 3.9375 C-9.91792615 -1.18699072 -5.48697801 0.00405842 0 0 Z " fill="#0099F4" transform="translate(268.375,77.8125)"/>
<path d="M0 0 C1.19786133 -0.03673828 1.19786133 -0.03673828 2.41992188 -0.07421875 C6.43265838 -0.09416607 8.57454789 0.08449243 12.09375 2.1796875 C14.0625 4.375 14.0625 4.375 14.625 7.875 C14.0625 11.375 14.0625 11.375 12.6875 13.56640625 C8.54103629 16.42327038 4.41079658 15.91529183 -0.5 15.8125 C-1.45841797 15.81958984 -2.41683594 15.82667969 -3.40429688 15.83398438 C-10.43740793 15.76991259 -10.43740793 15.76991259 -12.68334961 13.99633789 C-14.40169968 11.77489292 -14.73785272 10.17006186 -14.9375 7.375 C-14.18333706 4.42690849 -13.74290022 2.87151062 -11.11499023 1.25146484 C-7.47253296 -0.21466607 -3.88182122 0.00623586 0 0 Z " fill="#0099F4" transform="translate(268.9375,110.625)"/>
<path d="M0 0 C1.06154297 -0.0309375 1.06154297 -0.0309375 2.14453125 -0.0625 C6.68720455 -0.09633742 9.48639788 0.51067217 13.125 3.25 C14.99764676 5.12264676 14.36107378 7.74759947 14.453125 10.2421875 C14.02067139 12.88839175 13.22534116 13.60978807 11.125 15.25 C8.8125 15.63818359 8.8125 15.63818359 6.125 15.6484375 C5.155625 15.65230469 4.18625 15.65617188 3.1875 15.66015625 C2.176875 15.64855469 1.16625 15.63695312 0.125 15.625 C-0.885625 15.63660156 -1.89625 15.64820313 -2.9375 15.66015625 C-3.906875 15.65628906 -4.87625 15.65242187 -5.875 15.6484375 C-6.761875 15.64505371 -7.64875 15.64166992 -8.5625 15.63818359 C-11.31844765 15.17556147 -12.20425607 14.4496222 -13.875 12.25 C-14.43118667 9.545406 -14.30129934 6.97263177 -13.875 4.25 C-10.62977974 -0.54056324 -5.25156497 0.03784912 0 0 Z " fill="#0098F4" transform="translate(268.875,143.75)"/>
</svg>
