<?xml version="1.0" encoding="UTF-8"?>
<svg version="1.1" xmlns="http://www.w3.org/2000/svg" width="512" height="512">
<path d="M0 0 C1.25117867 -0.00782324 2.50235733 -0.01564648 3.7914505 -0.02370679 C5.18758776 -0.01722001 6.58372373 -0.01045002 7.9798584 -0.00342751 C9.45699154 -0.00688205 10.93412211 -0.01164523 12.41124725 -0.01760924 C16.48051048 -0.030177 20.54956367 -0.02392277 24.61882782 -0.01465058 C29.00334626 -0.00788397 33.38782769 -0.01832942 37.77233887 -0.02659035 C46.36562283 -0.03995547 54.95882835 -0.0370376 63.55211544 -0.02835242 C70.53381432 -0.02158719 77.51549117 -0.02065412 84.49719238 -0.02392387 C85.48949907 -0.02438357 86.48180575 -0.02484327 87.50418234 -0.0253169 C89.51980655 -0.02627604 91.53543076 -0.02724868 93.55105495 -0.02823468 C112.46761391 -0.03679671 131.3841293 -0.02694169 150.30068111 -0.01083358 C166.54467349 0.00257034 182.78860156 0.00024248 199.03259277 -0.01358986 C217.87979441 -0.02963132 236.72695783 -0.03597266 255.57416534 -0.02675307 C257.58252461 -0.02579738 259.59088388 -0.02485427 261.59924316 -0.02392387 C262.58748754 -0.02346105 263.57573192 -0.02299822 264.59392309 -0.02252137 C271.57015237 -0.01992717 278.54635748 -0.02431171 285.52258301 -0.03136253 C294.02009908 -0.03976183 302.51753199 -0.03753059 311.01503849 -0.0215203 C315.35359845 -0.01361635 319.69201956 -0.01058196 324.03057861 -0.02046776 C327.99802018 -0.02937145 331.96519347 -0.02455385 335.93261051 -0.0085351 C337.37199671 -0.00516884 338.81140532 -0.00692247 340.25077724 -0.01416247 C342.1993147 -0.02321582 344.14791515 -0.01218351 346.09643555 0 C347.72356602 0.00073059 347.72356602 0.00073059 349.38356781 0.00147593 C352.04821777 0.37752342 352.04821777 0.37752342 353.89891815 1.68476427 C355.84096669 4.54513277 355.41205598 7.77491526 355.34118652 11.10799217 C355.33694168 11.85841286 355.33269684 12.60883354 355.32832336 13.38199425 C355.31154228 15.77670368 355.27389267 18.17056876 355.23571777 20.56502342 C355.22067013 22.18936022 355.20698186 23.81371022 355.19470215 25.4380703 C355.16164082 29.4182129 355.10986371 33.39772505 355.04821777 37.37752342 C355.61784744 37.37086159 356.18747711 37.36419975 356.77436829 37.35733604 C362.69510258 37.29104224 368.61573171 37.24574775 374.53674316 37.2127285 C376.74739869 37.19762817 378.95802421 37.17714633 381.1685791 37.15120506 C384.3433777 37.11487688 387.51778074 37.09780959 390.69274902 37.08455467 C391.68345901 37.06907082 392.67416901 37.05358696 393.69490051 37.0376339 C394.61562851 37.0374073 395.53635651 37.03718071 396.48498535 37.03694725 C397.70077019 37.0269545 397.70077019 37.0269545 398.94111633 37.01675987 C401.63270064 37.4775946 402.45532264 38.17763394 404.04821777 40.37752342 C404.7026062 42.48595238 404.7026062 42.48595238 405.10046387 45.01473045 C405.33500275 46.4905761 405.33500275 46.4905761 405.57427979 47.9962368 C406.51643686 54.71800881 407.38739806 61.44522701 408.21228027 68.18221092 C408.41115128 69.79445091 408.61007607 71.40668426 408.80905151 73.01891136 C409.22318592 76.38213938 409.63454612 79.74569407 410.04431152 83.10945702 C410.56573253 87.38545467 411.09734199 91.66011843 411.63147926 95.93454361 C412.04520904 99.25936685 412.45177303 102.58503925 412.85645676 105.9109745 C413.04924187 107.48588642 413.24454313 109.06049275 413.44258499 110.63475227 C415.91318483 130.3272961 415.91318483 130.3272961 415.04821777 138.37752342 C414.38821777 139.03752342 413.72821777 139.69752342 413.04821777 140.37752342 C400.83821777 140.37752342 388.62821777 140.37752342 376.04821777 140.37752342 C376.04821777 192.18752342 376.04821777 243.99752342 376.04821777 297.37752342 C381.32821777 297.37752342 386.60821777 297.37752342 392.04821777 297.37752342 C398.37207517 299.51396173 402.38670999 302.76865322 406.04821777 308.37752342 C409.34992555 315.07170757 409.24432536 323.2106184 407.20837402 330.30330467 C404.50859802 336.29371675 400.75206604 340.14375171 395.04821777 343.37752342 C391.28521404 344.631858 387.77610868 344.48447764 383.86071777 344.44002342 C383.11112793 344.4355117 382.36153809 344.43099998 381.5892334 344.42635155 C379.74219394 344.41458696 377.89519564 344.39665208 376.04821777 344.37752342 C376.05098315 345.22512387 376.05374853 346.07272432 376.05659771 346.94600964 C376.12279421 367.55134208 376.17246746 388.15665624 376.20365429 408.76207256 C376.21913611 418.72662037 376.2402507 428.69109728 376.27453613 438.65559959 C376.30439829 447.33867364 376.3237832 456.02169636 376.33048326 464.70482033 C376.33440093 469.30428017 376.34363517 473.90359313 376.36540794 478.50300598 C376.38572287 482.8293796 376.39206174 487.15554542 376.38754082 491.4819622 C376.38836826 493.07230762 376.39436365 494.66265976 376.4058342 496.25296402 C376.42070066 498.41980774 376.41719344 500.58586081 376.40898132 502.75272179 C376.4117467 503.96672315 376.41451208 505.18072451 376.41736126 506.43151379 C376.04821777 509.37752342 376.04821777 509.37752342 374.93812829 511.03805381 C372.12441076 513.03226946 369.86583838 512.75367072 366.44050598 512.75504684 C365.42363766 512.76158733 365.42363766 512.76158733 364.38622653 512.76825994 C362.09798286 512.77927209 359.81033474 512.76876697 357.52209473 512.75847435 C355.87172034 512.76192857 354.22134825 512.76669154 352.57098103 512.77265608 C348.02285908 512.78522817 343.47492496 512.77896762 338.92680216 512.76969743 C334.02694302 512.76293258 329.12711704 512.77337538 324.2272644 512.78163719 C314.62331743 512.79500421 305.01944064 512.7920836 295.41549087 512.78339927 C287.61285432 512.77663478 279.81023751 512.77570064 272.00759888 512.77897072 C270.89872702 512.77943042 269.78985516 512.77989012 268.64738113 512.78036375 C266.39500292 512.78132288 264.14262471 512.78229552 261.89024651 512.78328152 C240.75041415 512.79184411 219.61062077 512.78198766 198.4707948 512.76588042 C180.31656991 512.75247646 162.16240256 512.75480431 144.00817871 512.7686367 C122.94599427 512.78467718 101.88384402 512.79102006 80.82165432 512.78179991 C78.57738178 512.78084423 76.33310923 512.77990111 74.08883667 512.77897072 C72.43233116 512.77827648 72.43233116 512.77827648 70.74236089 512.77756821 C62.9455927 512.77497372 55.14884614 512.77935919 47.3520813 512.78640938 C37.85544848 512.79480758 28.35889008 512.79257973 18.86226583 512.77656715 C14.01334361 512.76866173 9.16454565 512.7656313 4.31562424 512.7755146 C-0.11811366 512.78441524 -4.55161143 512.7796057 -8.98532736 512.76358195 C-10.59429549 512.76021439 -12.20328367 512.76197215 -13.81223905 512.76920931 C-15.98980965 512.77825724 -18.16654442 512.76905266 -20.34407043 512.75504684 C-21.55641011 512.75455979 -22.76874979 512.75407273 -24.01782703 512.75357091 C-26.95178223 512.37752342 -26.95178223 512.37752342 -28.84169275 511.03805381 C-30.62818909 508.36571836 -30.31977756 505.92747677 -30.31254578 502.75272179 C-30.31510905 502.07637237 -30.31767233 501.40002296 -30.32031327 500.70317811 C-30.3252631 498.43203213 -30.30873928 496.16154782 -30.2923584 493.89046288 C-30.29151238 492.26442544 -30.29198677 490.63838685 -30.29368591 489.01235008 C-30.29454829 484.59314723 -30.27688346 480.17418759 -30.25596404 475.75504136 C-30.2372375 471.1385885 -30.23544998 466.52213035 -30.23188782 461.90564537 C-30.22255551 453.16148905 -30.1979257 444.41744496 -30.16783935 435.67333812 C-30.13433222 425.71942296 -30.11781861 415.76550251 -30.10275304 405.81154501 C-30.07137716 385.33347512 -30.01859364 364.85550634 -29.95178223 344.37752342 C-31.03717285 344.41232811 -32.12256348 344.4471328 -33.24084473 344.48299217 C-34.68614165 344.51114731 -36.13145544 344.53844561 -37.57678223 344.56502342 C-38.64605957 344.6027285 -38.64605957 344.6027285 -39.73693848 344.6411953 C-45.72153262 344.7235521 -49.41438409 342.92471741 -54.51428223 339.81502342 C-60.15417574 334.17512991 -62.27608009 328.18125171 -62.51428223 320.25252342 C-62.23043809 313.36556842 -61.06507221 308.66787255 -56.30334473 303.63533592 C-47.99468481 296.05232316 -42.29145751 297.37752342 -29.95178223 297.37752342 C-29.95178223 245.56752342 -29.95178223 193.75752342 -29.95178223 140.37752342 C-42.16178223 140.37752342 -54.37178223 140.37752342 -66.95178223 140.37752342 C-68.95178223 138.37752342 -68.95178223 138.37752342 -69.2215271 136.00752831 C-69.18104189 126.0153421 -68.06671134 116.2509627 -66.83459473 106.34627342 C-66.61469977 104.53843018 -66.39529751 102.73052694 -66.17636108 100.92256737 C-65.71897936 97.16017407 -65.25612674 93.39850744 -64.78918457 89.63728905 C-64.19182476 84.82240529 -63.6077218 80.00602178 -63.02755928 75.18903923 C-62.57791067 71.4669409 -62.1216535 67.74567592 -61.66335678 64.02463341 C-61.44531572 62.24829565 -61.22924292 60.47171512 -61.01520157 58.69489098 C-60.71573094 56.21778187 -60.40745109 53.74192398 -60.09680176 51.2661953 C-59.96732651 50.1736544 -59.96732651 50.1736544 -59.8352356 49.05904198 C-59.34500529 45.23356374 -58.70972925 41.83098104 -56.95178223 38.37752342 C-54.57787386 37.19056924 -53.14933271 37.25676509 -50.5020752 37.26399803 C-49.1208699 37.26411133 -49.1208699 37.26411133 -47.71176147 37.26422691 C-46.21795456 37.27196884 -46.21795456 37.27196884 -44.69396973 37.27986717 C-43.16668747 37.28198959 -43.16668747 37.28198959 -41.60855103 37.28415489 C-38.34793187 37.28976442 -35.08738072 37.30231855 -31.82678223 37.31502342 C-29.61975197 37.32003719 -27.41272063 37.32460031 -25.20568848 37.3286953 C-19.78769642 37.33973694 -14.36974418 37.35648437 -8.95178223 37.37752342 C-8.96749268 36.36327293 -8.98320313 35.34902245 -8.99938965 34.30403709 C-9.05368541 30.54142255 -9.08813074 26.77884264 -9.11657715 23.01595116 C-9.13166466 21.38731119 -9.15213729 19.75871186 -9.17810059 18.13020897 C-9.21448671 15.78936807 -9.23150843 13.44906424 -9.24475098 11.10799217 C-9.26023483 10.37976753 -9.27571869 9.65154289 -9.29167175 8.90125084 C-9.29334358 3.88059599 -9.29334358 3.88059599 -7.8024826 1.68476427 C-5.16103228 -0.18102222 -3.21907854 0.00144537 0 0 Z " fill="#628BFA" transform="translate(82.9517822265625,-0.37752342224121094)"/>
<path d="M0 0 C133.98 0 267.96 0 406 0 C406 54.45 406 108.9 406 165 C402.33558424 168.66441576 401.41673984 168.37550485 396.39228821 168.37752342 C395.37541988 168.38406391 395.37541988 168.38406391 394.33800876 168.39073652 C392.04976508 168.40174867 389.76211696 168.39124355 387.47387695 168.38095093 C385.82350256 168.38440515 384.17313048 168.38916812 382.52276325 168.39513266 C377.9746413 168.40770475 373.42670718 168.4014442 368.87858438 168.39217401 C363.97872524 168.38540916 359.07889926 168.39585196 354.17904663 168.40411377 C344.57509966 168.41748079 334.97122286 168.41456017 325.36727309 168.40587585 C317.56463655 168.39911136 309.76201973 168.39817722 301.9593811 168.4014473 C300.85050925 168.401907 299.74163739 168.40236669 298.59916335 168.40284032 C296.34678514 168.40379946 294.09440694 168.4047721 291.84202874 168.4057581 C270.70219638 168.41432069 249.56240299 168.40446424 228.42257702 168.388357 C210.26835214 168.37495304 192.11418479 168.37728088 173.95996094 168.39111328 C152.89777649 168.40715376 131.83562624 168.41349663 110.77343655 168.40427649 C108.529164 168.4033208 106.28489145 168.40237769 104.0406189 168.4014473 C102.93628189 168.40098447 101.83194488 168.40052164 100.69414312 168.40004479 C92.89737493 168.3974503 85.10062836 168.40183577 77.30386353 168.40888596 C67.8072307 168.41728416 58.3106723 168.41505631 48.81404805 168.39904372 C43.96512583 168.39113831 39.11632787 168.38810788 34.26740646 168.39799118 C29.83366856 168.40689181 25.4001708 168.40208228 20.96645486 168.38605852 C19.35748673 168.38269097 17.74849856 168.38444872 16.13954318 168.39168589 C13.96197258 168.40073382 11.78523781 168.39152924 9.60771179 168.37752342 C8.39537211 168.37703637 7.18303244 168.37654931 5.93395519 168.37604749 C3 168 3 168 0 165 C0 110.55 0 56.1 0 0 Z " fill="#628BFA" transform="translate(53,344)"/>
<path d="M0 0 C1.25117867 -0.00782324 2.50235733 -0.01564648 3.7914505 -0.02370679 C5.18758776 -0.01722001 6.58372373 -0.01045002 7.9798584 -0.00342751 C9.45699154 -0.00688205 10.93412211 -0.01164523 12.41124725 -0.01760924 C16.48051048 -0.030177 20.54956367 -0.02392277 24.61882782 -0.01465058 C29.00334626 -0.00788397 33.38782769 -0.01832942 37.77233887 -0.02659035 C46.36562283 -0.03995547 54.95882835 -0.0370376 63.55211544 -0.02835242 C70.53381432 -0.02158719 77.51549117 -0.02065412 84.49719238 -0.02392387 C85.48949907 -0.02438357 86.48180575 -0.02484327 87.50418234 -0.0253169 C89.51980655 -0.02627604 91.53543076 -0.02724868 93.55105495 -0.02823468 C112.46761391 -0.03679671 131.3841293 -0.02694169 150.30068111 -0.01083358 C166.54467349 0.00257034 182.78860156 0.00024248 199.03259277 -0.01358986 C217.87979441 -0.02963132 236.72695783 -0.03597266 255.57416534 -0.02675307 C257.58252461 -0.02579738 259.59088388 -0.02485427 261.59924316 -0.02392387 C262.58748754 -0.02346105 263.57573192 -0.02299822 264.59392309 -0.02252137 C271.57015237 -0.01992717 278.54635748 -0.02431171 285.52258301 -0.03136253 C294.02009908 -0.03976183 302.51753199 -0.03753059 311.01503849 -0.0215203 C315.35359845 -0.01361635 319.69201956 -0.01058196 324.03057861 -0.02046776 C327.99802018 -0.02937145 331.96519347 -0.02455385 335.93261051 -0.0085351 C337.37199671 -0.00516884 338.81140532 -0.00692247 340.25077724 -0.01416247 C342.1993147 -0.02321582 344.14791515 -0.01218351 346.09643555 0 C347.72356602 0.00073059 347.72356602 0.00073059 349.38356781 0.00147593 C352.04821777 0.37752342 352.04821777 0.37752342 353.89891815 1.68476427 C355.84096669 4.54513277 355.41205598 7.77491526 355.34118652 11.10799217 C355.33694168 11.85841286 355.33269684 12.60883354 355.32832336 13.38199425 C355.31154228 15.77670368 355.27389267 18.17056876 355.23571777 20.56502342 C355.22067013 22.18936022 355.20698186 23.81371022 355.19470215 25.4380703 C355.16164082 29.4182129 355.10986371 33.39772505 355.04821777 37.37752342 C355.61784744 37.37086159 356.18747711 37.36419975 356.77436829 37.35733604 C362.69510258 37.29104224 368.61573171 37.24574775 374.53674316 37.2127285 C376.74739869 37.19762817 378.95802421 37.17714633 381.1685791 37.15120506 C384.3433777 37.11487688 387.51778074 37.09780959 390.69274902 37.08455467 C391.68345901 37.06907082 392.67416901 37.05358696 393.69490051 37.0376339 C394.61562851 37.0374073 395.53635651 37.03718071 396.48498535 37.03694725 C397.70077019 37.0269545 397.70077019 37.0269545 398.94111633 37.01675987 C401.63270064 37.4775946 402.45532264 38.17763394 404.04821777 40.37752342 C404.7026062 42.48595238 404.7026062 42.48595238 405.10046387 45.01473045 C405.33500275 46.4905761 405.33500275 46.4905761 405.57427979 47.9962368 C406.51643686 54.71800881 407.38739806 61.44522701 408.21228027 68.18221092 C408.41115128 69.79445091 408.61007607 71.40668426 408.80905151 73.01891136 C409.22318592 76.38213938 409.63454612 79.74569407 410.04431152 83.10945702 C410.56573253 87.38545467 411.09734199 91.66011843 411.63147926 95.93454361 C412.04520904 99.25936685 412.45177303 102.58503925 412.85645676 105.9109745 C413.04924187 107.48588642 413.24454313 109.06049275 413.44258499 110.63475227 C415.91318483 130.3272961 415.91318483 130.3272961 415.04821777 138.37752342 C412.54406711 140.88167408 411.04389074 140.61867437 407.62731051 140.64339459 C406.86305043 140.63871226 406.09879034 140.63402992 405.31137085 140.6292057 C404.49924299 140.63211259 403.68711512 140.63501947 402.85037732 140.63801444 C400.09968178 140.64537581 397.34920505 140.63834273 394.59851074 140.63149071 C392.61830467 140.63379272 390.63809945 140.63696749 388.65789604 140.6409452 C383.19349754 140.64933753 377.72916839 140.6451479 372.26476955 140.63897276 C366.38058934 140.63446732 360.49642146 140.6414225 354.61224365 140.6469326 C343.74370385 140.65533274 332.87518802 140.65457547 322.00664693 140.64910967 C311.96742125 140.64408549 301.92820373 140.6427619 291.88897705 140.64515495 C291.22395833 140.64530772 290.5589396 140.64546049 289.87376879 140.64561789 C287.17447919 140.64624053 284.47518959 140.64687733 281.7759 140.64753742 C256.43635036 140.65366025 231.0968149 140.64810085 205.75726745 140.63734363 C183.22729016 140.62785188 160.69733548 140.62870112 138.1673584 140.63826561 C112.87519293 140.64896674 87.58304 140.65322608 62.29087257 140.64704108 C59.59640122 140.64639961 56.90192986 140.64577394 54.2074585 140.64515495 C53.54397411 140.6449968 52.88048973 140.64483864 52.19689976 140.6446757 C42.16212652 140.64239738 32.12736232 140.64506756 22.09259033 140.65011406 C10.68661476 140.65571011 -0.71933326 140.65423343 -12.12530565 140.64355257 C-17.95024921 140.6382786 -23.77514676 140.6362683 -29.60009003 140.64285088 C-34.92443072 140.64877696 -40.24868244 140.64559096 -45.57301497 140.63489577 C-47.50702823 140.63264746 -49.44104889 140.6338297 -51.37505746 140.63864735 C-53.98845947 140.64466183 -56.60155003 140.6385599 -59.2149353 140.6292057 C-60.36132544 140.6362292 -60.36132544 140.6362292 -61.53087497 140.64339459 C-66.72348148 140.60582417 -66.72348148 140.60582417 -68.95178223 138.37752342 C-70.15241872 127.82865703 -68.13591898 116.80730629 -66.83459473 106.34627342 C-66.61469977 104.53843018 -66.39529751 102.73052694 -66.17636108 100.92256737 C-65.71897936 97.16017407 -65.25612674 93.39850744 -64.78918457 89.63728905 C-64.19182476 84.82240529 -63.6077218 80.00602178 -63.02755928 75.18903923 C-62.57791067 71.4669409 -62.1216535 67.74567592 -61.66335678 64.02463341 C-61.44531572 62.24829565 -61.22924292 60.47171512 -61.01520157 58.69489098 C-60.71573094 56.21778187 -60.40745109 53.74192398 -60.09680176 51.2661953 C-59.96732651 50.1736544 -59.96732651 50.1736544 -59.8352356 49.05904198 C-59.34500529 45.23356374 -58.70972925 41.83098104 -56.95178223 38.37752342 C-54.57787386 37.19056924 -53.14933271 37.25676509 -50.5020752 37.26399803 C-49.1208699 37.26411133 -49.1208699 37.26411133 -47.71176147 37.26422691 C-46.21795456 37.27196884 -46.21795456 37.27196884 -44.69396973 37.27986717 C-43.16668747 37.28198959 -43.16668747 37.28198959 -41.60855103 37.28415489 C-38.34793187 37.28976442 -35.08738072 37.30231855 -31.82678223 37.31502342 C-29.61975197 37.32003719 -27.41272063 37.32460031 -25.20568848 37.3286953 C-19.78769642 37.33973694 -14.36974418 37.35648437 -8.95178223 37.37752342 C-8.96749268 36.36327293 -8.98320313 35.34902245 -8.99938965 34.30403709 C-9.05368541 30.54142255 -9.08813074 26.77884264 -9.11657715 23.01595116 C-9.13166466 21.38731119 -9.15213729 19.75871186 -9.17810059 18.13020897 C-9.21448671 15.78936807 -9.23150843 13.44906424 -9.24475098 11.10799217 C-9.26023483 10.37976753 -9.27571869 9.65154289 -9.29167175 8.90125084 C-9.29334358 3.88059599 -9.29334358 3.88059599 -7.8024826 1.68476427 C-5.16103228 -0.18102222 -3.21907854 0.00144537 0 0 Z " fill="#A26842" transform="translate(82.9517822265625,-0.37752342224121094)"/>
<path d="M0 0 C1.38120529 0.0001133 1.38120529 0.0001133 2.79031372 0.00022888 C4.28412064 0.00797081 4.28412064 0.00797081 5.80810547 0.01586914 C7.33538773 0.01799156 7.33538773 0.01799156 8.89352417 0.02015686 C12.15414332 0.02576639 15.41469448 0.03832051 18.67529297 0.05102539 C20.88232323 0.05603916 23.08935456 0.06060228 25.29638672 0.06469727 C30.71437877 0.07573891 36.13233101 0.09248634 41.55029297 0.11352539 C41.56242325 1.44110367 41.56242325 1.44110367 41.57479858 2.79550171 C41.65264447 11.12434351 41.73990448 19.45302145 41.83782005 27.78165245 C41.88782878 32.0637931 41.93415819 36.34590853 41.97216797 40.62817383 C42.00896327 44.75852757 42.05530707 48.88867257 42.10835648 53.01884842 C42.12693116 54.5969134 42.14202769 56.17502317 42.15363693 57.75315475 C42.17044724 59.95862082 42.19946831 62.16360562 42.23144531 64.36889648 C42.24476898 65.62576263 42.25809265 66.88262878 42.27182007 68.17758179 C42.2472485 71.23526644 42.2472485 71.23526644 44.55029297 73.11352539 C47.20378861 73.41790148 47.20378861 73.41790148 50.36341 73.36520767 C51.60911422 73.37042317 52.85481844 73.37563866 54.13827127 73.3810122 C55.53341983 73.37668741 56.92856781 73.37217407 58.32371521 73.36749268 C59.79585855 73.36979504 61.26800073 73.37297004 62.7401405 73.37694716 C66.80022279 73.38533482 70.86021167 73.38115198 74.9202944 73.37497473 C79.29323388 73.37046735 83.66615679 73.37742547 88.03909302 73.38293457 C96.61177881 73.39184884 105.18442966 73.38989747 113.75711685 73.38410929 C120.72215027 73.37960048 127.68717387 73.3789765 134.65220833 73.38115692 C136.13670855 73.38161662 136.13670855 73.38161662 137.65119867 73.38208561 C139.66142742 73.38272503 141.67165616 73.38337346 143.68188489 73.38403079 C162.55217143 73.38974012 181.42243857 73.38316691 200.29272193 73.37243006 C216.49748515 73.36349538 232.70221972 73.36504473 248.90698242 73.37426758 C267.70619414 73.38496196 286.50538883 73.38918928 305.30460316 73.38304305 C307.30792272 73.38240593 309.31124228 73.38177719 311.31456184 73.38115692 C312.79322472 73.38069409 312.79322472 73.38069409 314.30175958 73.38022192 C321.26094015 73.37849238 328.22010996 73.38141568 335.17928886 73.38611603 C343.65668325 73.3917157 352.13404058 73.39022778 360.6114307 73.37955454 C364.93983154 73.37428526 369.26817053 73.37226234 373.59657097 73.37885284 C377.5547462 73.38478863 381.51280192 73.38157666 385.47096623 73.37089774 C386.9070191 73.36865358 388.34308197 73.36982259 389.77912848 73.37464932 C391.72319043 73.38068503 393.66728045 73.37333 395.6113348 73.36520767 C396.69359276 73.36488297 397.77585071 73.36455826 398.89090437 73.36422372 C401.77813985 73.30407731 401.77813985 73.30407731 404.55029297 71.11352539 C405.03008629 68.04234719 405.03008629 68.04234719 404.98266602 64.36889648 C404.99285767 63.67610092 405.00304932 62.98330536 405.0135498 62.26951599 C405.04378988 59.97525055 405.05296207 57.68140181 405.06201172 55.38696289 C405.07885033 53.79796957 405.09699946 52.20898963 405.1164093 50.62002563 C405.16400464 46.43449079 405.19375202 42.2490102 405.21984863 38.06329346 C405.24960632 33.79347005 405.29615297 29.52383381 405.34130859 25.25415039 C405.42745003 16.87403379 405.49474675 8.49390034 405.55029297 0.11352539 C412.04639202 0.03755333 418.54237682 -0.01504133 425.03881836 -0.05126953 C427.24947389 -0.06636986 429.4600994 -0.0868517 431.6706543 -0.11279297 C434.8454529 -0.14912116 438.01985594 -0.16618845 441.19482422 -0.17944336 C442.18553421 -0.19492722 443.1762442 -0.21041107 444.19697571 -0.22636414 C445.1177037 -0.22659073 446.0384317 -0.22681732 446.98706055 -0.22705078 C447.79758377 -0.23371262 448.60810699 -0.24037445 449.44319153 -0.24723816 C452.13477584 0.21359656 452.95739783 0.91363591 454.55029297 3.11352539 C455.2046814 5.22195435 455.2046814 5.22195435 455.60253906 7.75073242 C455.83707794 9.22657806 455.83707794 9.22657806 456.07635498 10.73223877 C457.01851205 17.45401078 457.88947326 24.18122898 458.71435547 30.91821289 C458.91322648 32.53045288 459.11215127 34.14268623 459.31112671 35.75491333 C459.72526112 39.11814135 460.13662132 42.48169604 460.54638672 45.84545898 C461.06780773 50.12145664 461.59941718 54.3961204 462.13355446 58.67054558 C462.54728423 61.99536882 462.95384822 65.32104122 463.35853195 68.64697647 C463.55131706 70.22188839 463.74661833 71.79649471 463.94466019 73.37075424 C466.41526002 93.06329807 466.41526002 93.06329807 465.55029297 101.11352539 C463.04614231 103.61767605 461.54596594 103.35467634 458.12938571 103.37939656 C457.36512562 103.37471423 456.60086553 103.37003189 455.81344604 103.36520767 C455.00131818 103.36811455 454.18919032 103.37102144 453.35245252 103.3740164 C450.60175698 103.38137777 447.85128025 103.3743447 445.10058594 103.36749268 C443.12037987 103.36979469 441.14017465 103.37296945 439.15997124 103.37694716 C433.69557274 103.3853395 428.23124359 103.38114987 422.76684475 103.37497473 C416.88266453 103.37046929 410.99849665 103.37742447 405.11431885 103.38293457 C394.24577904 103.39133471 383.37726322 103.39057744 372.50872213 103.38511163 C362.46949644 103.38008746 352.43027893 103.37876387 342.39105225 103.38115692 C341.39352416 103.38138608 341.39352416 103.38138608 340.37584399 103.38161986 C337.67655439 103.3822425 334.97726479 103.3828793 332.27797519 103.38353939 C306.93842555 103.38966222 281.5988901 103.38410282 256.25934264 103.37334559 C233.72936536 103.36385385 211.19941068 103.36470308 188.66943359 103.37426758 C163.37726812 103.3849687 138.08511519 103.38922805 112.79294777 103.38304305 C110.09847641 103.38240158 107.40400505 103.3817759 104.70953369 103.38115692 C104.04604931 103.38099877 103.38256492 103.38084061 102.69897495 103.38067766 C92.66420171 103.37839935 82.62943752 103.38106953 72.59466553 103.38611603 C61.18868996 103.39171208 49.78274194 103.3902354 38.37676954 103.37955454 C32.55182599 103.37428057 26.72692843 103.37227026 20.90198517 103.37885284 C15.57764447 103.38477893 10.25339276 103.38159293 4.92906022 103.37089774 C2.99504696 103.36864943 1.0610263 103.36983167 -0.87298226 103.37464932 C-3.48638428 103.38066379 -6.09947483 103.37456187 -8.71286011 103.36520767 C-9.85925024 103.37223117 -9.85925024 103.37223117 -11.02879977 103.37939656 C-16.22140628 103.34182614 -16.22140628 103.34182614 -18.44970703 101.11352539 C-19.65034352 90.564659 -17.63384379 79.54330826 -16.33251953 69.08227539 C-16.11262457 67.27443215 -15.89322231 65.46652891 -15.67428589 63.65856934 C-15.21690416 59.89617604 -14.75405154 56.13450941 -14.28710938 52.37329102 C-13.68974956 47.55840726 -13.10564661 42.74202375 -12.52548409 37.9250412 C-12.07583547 34.20294286 -11.6195783 30.48167789 -11.16128159 26.76063538 C-10.94324053 24.98429762 -10.72716772 23.20771709 -10.51312637 21.43089294 C-10.21365575 18.95378383 -9.90537589 16.47792595 -9.59472656 14.00219727 C-9.46525131 12.90965637 -9.46525131 12.90965637 -9.3331604 11.79504395 C-8.84293009 7.96956571 -8.20765405 4.56698301 -6.44970703 1.11352539 C-4.07579867 -0.07342879 -2.64725752 -0.00723294 0 0 Z " fill="#FEB024" transform="translate(32.44970703125,36.886474609375)"/>
<path d="M0 0 C1.11432019 -0.00525911 1.11432019 -0.00525911 2.25115189 -0.01062447 C4.74827965 -0.01995165 7.24517488 -0.01501178 9.74231243 -0.01015663 C11.54759066 -0.01389223 13.35286728 -0.01849338 15.15814131 -0.02388728 C20.12530748 -0.03614389 25.09240642 -0.03585368 30.05958426 -0.03349853 C35.41417491 -0.03309103 40.76874382 -0.04412305 46.12332439 -0.05361366 C56.61633069 -0.07023916 67.10931451 -0.07572391 77.60233287 -0.07683842 C86.12999052 -0.07778815 94.65764075 -0.08189467 103.18529606 -0.08823967 C127.35307122 -0.10585621 151.52082861 -0.11507788 175.68861023 -0.11357872 C176.99198549 -0.11349881 178.29536075 -0.1134189 179.63823223 -0.11333656 C181.59567715 -0.11321392 181.59567715 -0.11321392 183.59266641 -0.1130888 C204.74544917 -0.11227576 225.89816074 -0.13141704 247.05092291 -0.1596133 C268.76092315 -0.18832442 290.47088866 -0.20215457 312.18090838 -0.20042574 C324.37325971 -0.19976124 336.56553642 -0.20528017 348.75787067 -0.22678185 C359.13815444 -0.24497031 369.51832977 -0.24936017 379.89862255 -0.235763 C385.19579633 -0.22922161 390.49276191 -0.22915844 395.78991604 -0.2464695 C400.6389878 -0.26215339 405.48768547 -0.25938452 410.33674785 -0.24190123 C412.09110493 -0.23882101 413.84548961 -0.24250208 415.59981415 -0.25362138 C433.21847452 -0.3578978 433.21847452 -0.3578978 440.59013653 6.00336266 C441.03615215 6.56152672 441.48216778 7.11969078 441.94169903 7.69476891 C442.63392559 8.52814781 442.63392559 8.52814781 443.34013653 9.37836266 C447.56619934 15.85204486 447.34203602 22.77322655 446.56669903 30.25726891 C444.43202523 37.6938767 440.25108438 42.46758599 433.56669903 46.25726891 C430.09084143 47.41588811 426.98844898 47.39792443 423.37390709 47.38869667 C422.26214965 47.39177562 422.26214965 47.39177562 421.12793246 47.39491677 C418.62465067 47.40060689 416.12142355 47.39912705 413.61813641 47.3977108 C411.81316019 47.40029328 410.00818454 47.40330611 408.2032097 47.4067142 C403.22767924 47.41480115 398.2521632 47.41657471 393.27662694 47.41731167 C387.91659269 47.41915927 382.55656598 47.42670509 377.19653606 47.43344688 C365.46941314 47.44704248 353.74229363 47.45305675 342.01516414 47.45745754 C334.6967685 47.46021774 327.37837418 47.46445466 320.05997944 47.46896172 C299.80893792 47.48115568 279.55789746 47.49145494 259.30685234 47.49483681 C258.01015335 47.49505637 256.71345435 47.49527594 255.37746145 47.49550216 C254.07761129 47.49572044 252.77776113 47.49593871 251.43852156 47.49616361 C248.80440819 47.49660708 246.17029482 47.49705364 243.53618145 47.49750328 C242.22956255 47.49772471 240.92294364 47.49794614 239.57673023 47.49817428 C218.39661779 47.50212375 197.21653973 47.51958174 176.03644057 47.5428628 C154.30617679 47.56655639 132.57593027 47.57903774 110.84565336 47.58020473 C98.6388158 47.58112258 86.43202304 47.58690259 74.22519779 47.60502434 C63.83238177 47.62039841 53.43962437 47.62556172 43.04679915 47.61728624 C37.74181776 47.61337025 32.43695454 47.61435549 27.13198757 47.62834358 C22.27806465 47.64102563 17.42434938 47.63993534 12.57042698 47.62775287 C10.81200772 47.62578596 9.05357404 47.62891985 7.2951751 47.63759723 C4.90886765 47.64863009 2.52330079 47.64124426 0.13701439 47.6292057 C-0.54906929 47.6368009 -1.23515297 47.64439609 -1.94202706 47.65222144 C-8.55042723 47.58002388 -13.80539788 44.885172 -18.43330097 40.25726891 C-23.7920255 32.76388763 -24.57380338 25.27369361 -23.43330097 16.25726891 C-21.75753738 10.04708619 -17.76087412 5.7351441 -12.43330097 2.25726891 C-8.28213395 0.2122367 -4.54440563 -0.02718014 0 0 Z " fill="#FFB024" transform="translate(44.43330097198486,296.74273109436035)"/>
<path d="M0 0 C0.79395172 -0.00540298 1.58790344 -0.01080597 2.40591431 -0.01637268 C5.02750043 -0.02886893 7.64799024 -0.01236363 10.26953125 0.00561523 C12.09269264 0.00546027 13.91585437 0.00397166 15.73901367 0.00120544 C19.55890476 -0.00017895 23.37842056 0.01238613 27.19824219 0.03515625 C32.09446637 0.06354104 36.99006695 0.06080412 41.88633728 0.04806614 C45.65072963 0.04111091 49.41497786 0.04889645 53.17935181 0.06132317 C54.98466438 0.06583919 56.78999242 0.06617315 58.5953064 0.06225777 C61.11854766 0.05934706 63.6409298 0.07584524 66.1640625 0.09765625 C67.28320541 0.09090378 67.28320541 0.09090378 68.42495728 0.08401489 C72.65460646 0.14475785 75.08135786 0.46220689 78.08203125 3.50170898 C78.57422256 6.05728436 78.57422256 6.05728436 78.56304932 9.17741394 C78.56854797 10.3595195 78.57404663 11.54162506 78.57971191 12.759552 C78.56533081 14.05786957 78.55094971 15.35618713 78.53613281 16.69384766 C78.53500463 18.07358263 78.53563762 19.45332001 78.53790283 20.83305359 C78.53905208 24.58090006 78.51550938 28.32823607 78.487607 32.07596374 C78.46262804 35.99172243 78.46025413 39.9074924 78.45550537 43.82331848 C78.44306523 51.23943518 78.41022974 58.65531646 78.37010741 66.07132941 C78.31706896 76.09188278 78.29545261 86.11250038 78.27209854 96.13315868 C78.23446891 111.92285185 78.15478535 127.71204816 78.08203125 143.50170898 C48.38203125 143.50170898 18.68203125 143.50170898 -11.91796875 143.50170898 C-12.07918089 108.80527464 -12.07918089 108.80527464 -12.11328125 94.28686523 C-12.13703335 84.25471842 -12.16498433 74.2227058 -12.21972656 64.19067383 C-12.2595728 56.88499612 -12.28539641 49.57942708 -12.29432273 42.27364373 C-12.29954129 38.40457983 -12.31182108 34.53582683 -12.34088898 30.66686249 C-12.3680234 27.02577255 -12.37641793 23.3851218 -12.37039948 19.74394035 C-12.37202597 17.76940692 -12.39355915 15.7949214 -12.41564941 13.82051086 C-12.41015076 12.64544479 -12.4046521 11.47037872 -12.39898682 10.25970459 C-12.40267399 9.23835796 -12.40636116 8.21701134 -12.41016006 7.16471481 C-11.13586095 0.27010725 -6.02457445 -0.07806697 0 0 Z " fill="#6A6A6A" transform="translate(344.91796875,368.498291015625)"/>
<path d="M0 0 C0.79395172 -0.00540298 1.58790344 -0.01080597 2.40591431 -0.01637268 C5.02750043 -0.02886893 7.64799024 -0.01236363 10.26953125 0.00561523 C12.09269264 0.00546027 13.91585437 0.00397166 15.73901367 0.00120544 C19.55890476 -0.00017895 23.37842056 0.01238613 27.19824219 0.03515625 C32.09446637 0.06354104 36.99006695 0.06080412 41.88633728 0.04806614 C45.65072963 0.04111091 49.41497786 0.04889645 53.17935181 0.06132317 C54.98466438 0.06583919 56.78999242 0.06617315 58.5953064 0.06225777 C61.11854766 0.05934706 63.6409298 0.07584524 66.1640625 0.09765625 C67.28320541 0.09090378 67.28320541 0.09090378 68.42495728 0.08401489 C72.65794434 0.14480579 75.06101124 0.48522951 78.08203125 3.50170898 C78.57422256 5.88549328 78.57422256 5.88549328 78.56304932 8.7598114 C78.56854797 9.84936127 78.57404663 10.93891113 78.57971191 12.06147766 C78.56533081 13.2569371 78.55094971 14.45239655 78.53613281 15.68408203 C78.53671692 16.94273071 78.53730103 18.20137939 78.53790283 19.49816895 C78.53905174 22.95058838 78.51551481 26.4024533 78.487607 29.85474372 C78.46262224 33.46220075 78.46025368 37.06967012 78.45550537 40.67720032 C78.44306692 47.50896327 78.41023378 54.34047056 78.37010741 61.17212087 C78.31706212 70.40341058 78.29545124 79.63477009 78.27209854 88.86617374 C78.23447275 103.41154371 78.15478824 117.95637412 78.08203125 132.50170898 C48.38203125 132.50170898 18.68203125 132.50170898 -11.91796875 132.50170898 C-12.07918089 100.56379342 -12.07918089 100.56379342 -12.11328125 87.19702148 C-12.13703099 77.96157972 -12.16497533 68.72628375 -12.21972656 59.4909668 C-12.25957983 52.76540384 -12.28539806 46.03995898 -12.29432273 39.31428123 C-12.29954013 35.7526079 -12.31181228 32.19127243 -12.34088898 28.62970734 C-12.37307566 24.65501037 -12.37392912 20.68064476 -12.37207031 16.70581055 C-12.38645142 15.52329712 -12.40083252 14.34078369 -12.41564941 13.12243652 C-12.41015076 12.03992615 -12.4046521 10.95741577 -12.39898682 9.84210205 C-12.40267399 8.90187321 -12.40636116 7.96164436 -12.41016006 6.99292374 C-11.07444314 0.23222397 -5.89602608 -0.07640123 0 0 Z " fill="#6A6A6A" transform="translate(344.91796875,164.498291015625)"/>
<path d="M0 0 C29.37 0 58.74 0 89 0 C89 29.37 89 58.74 89 89 C59.63 89 30.26 89 0 89 C0 59.63 0 30.26 0 0 Z " fill="#A6A8B1" transform="translate(157,377)"/>
<path d="M0 0 C29.37 0 58.74 0 89 0 C89 29.37 89 58.74 89 89 C59.63 89 30.26 89 0 89 C0 59.63 0 30.26 0 0 Z " fill="#A6A8B1" transform="translate(157,174)"/>
<path d="M0 0 C1.06559143 -0.00554901 2.13118286 -0.01109802 3.22906494 -0.01681519 C6.74952231 -0.02862073 10.26869524 -0.00432533 13.7890625 0.02148438 C16.23616477 0.02319528 18.68326887 0.02313 21.13037109 0.0213623 C26.25831644 0.02301608 31.38582491 0.04172565 36.51367188 0.07324219 C43.08787615 0.11291937 49.66150805 0.11728766 56.23580933 0.10977936 C61.28870897 0.10671031 66.34147985 0.11882798 71.39434814 0.13591003 C73.81845288 0.14294304 76.24257222 0.1460642 78.66668701 0.1452179 C82.05410147 0.14701489 85.44082922 0.16838956 88.828125 0.1953125 C90.33224945 0.1909166 90.33224945 0.1909166 91.86676025 0.18643188 C100.46267972 0.2918809 100.46267972 0.2918809 104.4140625 3.61523438 C105.59074387 5.96859712 105.54478206 7.37413414 105.55450439 9.99812317 C105.56021454 10.91920364 105.56592468 11.84028412 105.57180786 12.78927612 C105.57348465 14.30957932 105.57348465 14.30957932 105.57519531 15.8605957 C105.58264267 17.45832573 105.58264267 17.45832573 105.59024048 19.08833313 C105.60488829 22.62465045 105.6116686 26.16092291 105.6171875 29.69726562 C105.62293695 32.14865623 105.62869471 34.60004681 105.63446045 37.05143738 C105.644978 42.19713552 105.65081568 47.342818 105.65429688 52.48852539 C105.65978206 59.08628884 105.68380766 65.68384596 105.71226883 72.28154469 C105.73088108 77.34727078 105.73610007 82.41294705 105.73763275 87.47870445 C105.74066318 89.91120214 105.74870475 92.34369887 105.76181793 94.7761631 C105.77884793 98.17816538 105.77700533 101.57966199 105.77050781 104.98168945 C105.7797226 105.98915222 105.78893738 106.99661499 105.7984314 108.03460693 C105.74580778 116.81794476 105.74580778 116.81794476 102.4140625 120.61523438 C99.59435211 121.55513784 97.83270001 121.7508288 94.91091919 121.77586365 C93.98846405 121.78590927 93.06600891 121.7959549 92.11560059 121.80630493 C91.1056604 121.81213593 90.09572021 121.81796692 89.05517578 121.82397461 C87.9898764 121.83375839 86.92457703 121.84354218 85.82699585 121.85362244 C82.29613499 121.88357672 78.76531189 121.90495899 75.234375 121.92382812 C74.02978512 121.93039995 72.82519524 121.93697178 71.58410263 121.94374275 C65.21119104 121.9763324 58.83829618 122.00078739 52.46533203 122.02026367 C47.18448693 122.03809941 41.90417351 122.07295769 36.62353516 122.12280273 C30.25283322 122.18287019 23.88262555 122.21372068 17.5116539 122.22343636 C15.08190029 122.23201287 12.65216065 122.25088446 10.22256851 122.28017998 C6.82503439 122.31894952 3.42943981 122.32014751 0.03173828 122.31225586 C-1.4770993 122.34225677 -1.4770993 122.34225677 -3.01641846 122.37286377 C-7.69873358 122.32396105 -9.90030314 122.13658849 -13.70910645 119.24038696 C-16.60068247 114.86043086 -16.28433404 109.9923067 -16.23291016 104.91577148 C-16.24605255 103.3171653 -16.24605255 103.3171653 -16.25946045 101.68626404 C-16.28142749 98.17128526 -16.26691104 94.65756919 -16.25 91.14257812 C-16.25336862 88.69690205 -16.25822163 86.2512276 -16.26449585 83.80555725 C-16.27186337 78.68360431 -16.26116382 73.56208773 -16.23779297 68.44018555 C-16.20929111 61.87366266 -16.22572023 55.30816089 -16.25565529 48.74167538 C-16.27371808 43.69304196 -16.26797496 38.6446509 -16.25501633 33.59601021 C-16.25168033 31.17468711 -16.25577614 28.75334203 -16.26741409 26.3320446 C-16.2801068 22.94920376 -16.26076581 19.56802006 -16.23291016 16.18530273 C-16.24303131 15.18412415 -16.25315247 14.18294556 -16.26358032 13.15142822 C-16.19730983 8.80945645 -15.97708094 6.26522881 -13.7071228 2.49305725 C-9.14679399 -0.25060867 -5.2323938 -0.06920822 0 0 Z M0.4140625 16.61523438 C0.4140625 45.98523438 0.4140625 75.35523438 0.4140625 105.61523438 C29.7840625 105.61523438 59.1540625 105.61523438 89.4140625 105.61523438 C89.4140625 76.24523437 89.4140625 46.87523437 89.4140625 16.61523438 C60.0440625 16.61523438 30.6740625 16.61523438 0.4140625 16.61523438 Z " fill="#474646" transform="translate(156.5859375,157.384765625)"/>
<path d="M0 0 C1.08670486 -0.00700928 2.17340973 -0.01401855 3.29304504 -0.02124023 C6.88304232 -0.03883733 10.47225064 -0.02719147 14.06225586 -0.01367188 C16.55659639 -0.01636608 19.0509359 -0.0202479 21.54527283 -0.02526855 C27.44075063 -0.03192098 33.33594216 -0.01792689 39.23137802 0.00333452 C44.60109302 0.02049527 49.97042779 0.00836168 55.34011847 -0.01121187 C61.15527457 -0.0315592 66.97022563 -0.02939573 72.78539848 -0.01768494 C75.2577872 -0.01501372 77.73018967 -0.0183012 80.20256233 -0.02760315 C83.65494633 -0.03774238 87.10628758 -0.02230344 90.55859375 0 C91.58364014 -0.00809692 92.60868652 -0.01619385 93.66479492 -0.02453613 C97.54062818 0.02193843 100.38010203 0.08495196 103.84825134 1.88293457 C106.07554101 6.17767735 105.7697678 10.42336937 105.73217773 15.18945312 C105.73918701 16.27601196 105.74619629 17.3625708 105.75341797 18.48205566 C105.77103829 22.07748897 105.75936019 25.67213666 105.74584961 29.26757812 C105.74854334 31.76334789 105.75242477 34.25911664 105.75744629 36.75488281 C105.76334682 41.98706088 105.75514107 47.21903421 105.73608398 52.45117188 C105.7143153 58.49754824 105.72136685 64.54338509 105.74338961 70.58974838 C105.76373808 76.40970779 105.76157255 82.22946233 105.74986267 88.04943848 C105.74719116 90.52461828 105.75047997 92.99981182 105.75978088 95.47497559 C105.7699207 98.93225772 105.7544798 102.38849869 105.73217773 105.84570312 C105.74027466 106.87232056 105.74837158 107.89893799 105.75671387 108.95666504 C105.71026419 112.83637465 105.6479355 115.68108197 103.84924316 119.1532135 C99.55317899 121.37795391 95.30842696 121.06416718 90.54272461 121.01928711 C88.91288635 121.02739159 88.91288635 121.02739159 87.25012207 121.03565979 C83.65467174 121.04817788 80.06001731 121.03163468 76.46459961 121.01367188 C73.96883095 121.01382679 71.47306205 121.01531452 68.97729492 121.01808167 C63.74510987 121.01946704 58.51313152 121.00731733 53.28100586 120.98413086 C47.2346986 120.95752151 41.1887751 120.95577426 35.14242935 120.96751922 C29.32248237 120.97830419 23.50267545 120.97200334 17.68273926 120.95796394 C15.20756433 120.95344245 12.73237812 120.95311871 10.25720215 120.95702934 C6.8000563 120.95993439 3.34354088 120.94346742 -0.11352539 120.92163086 C-1.65345154 120.92838333 -1.65345154 120.92838333 -3.2244873 120.93527222 C-4.16659058 120.92536758 -5.10869385 120.91546295 -6.0793457 120.90525818 C-6.89638977 120.90282828 -7.71343384 120.90039839 -8.55523682 120.89789486 C-11.3590533 120.41975131 -12.72578013 119.45478669 -14.78540039 117.51757812 C-15.72694906 114.69293212 -15.91899528 112.93459963 -15.93930054 110.00770569 C-15.947901 109.08380539 -15.95650146 108.15990509 -15.96536255 107.20800781 C-15.9696225 106.19649658 -15.97388245 105.18498535 -15.97827148 104.14282227 C-15.98644897 103.0759166 -15.99462646 102.00901093 -16.00305176 100.90977478 C-16.02789524 97.37410038 -16.04441616 93.83846601 -16.05883789 90.30273438 C-16.06416157 89.09689634 -16.06948524 87.89105831 -16.07497025 86.64867973 C-16.10169293 80.27043162 -16.12107365 73.89220306 -16.13549805 67.51391602 C-16.15217449 60.91482381 -16.19698047 54.31622823 -16.24786949 47.71732426 C-16.28145609 42.65164082 -16.29306588 37.58607675 -16.29872513 32.52029228 C-16.30545769 30.08694078 -16.32073128 27.65359767 -16.34461594 25.22035408 C-16.37609473 21.82039432 -16.37633011 18.42179461 -16.36889648 15.02172852 C-16.38530182 14.01224152 -16.40170715 13.00275452 -16.41860962 11.962677 C-16.35903574 5.32585064 -16.35903574 5.32585064 -13.92301941 1.89341736 C-9.27442814 -0.14497998 -5.02610963 -0.0397802 0 0 Z M0.21459961 15.51757812 C0.21459961 44.88757813 0.21459961 74.25757813 0.21459961 104.51757812 C29.58459961 104.51757812 58.95459961 104.51757812 89.21459961 104.51757812 C89.21459961 75.14757812 89.21459961 45.77757812 89.21459961 15.51757812 C59.84459961 15.51757812 30.47459961 15.51757812 0.21459961 15.51757812 Z " fill="#474646" transform="translate(156.785400390625,361.482421875)"/>
<path d="M0 0 C0.79395172 -0.00540298 1.58790344 -0.01080597 2.40591431 -0.01637268 C5.02750043 -0.02886893 7.64799024 -0.01236363 10.26953125 0.00561523 C12.09269264 0.00546027 13.91585437 0.00397166 15.73901367 0.00120544 C19.55890476 -0.00017895 23.37842056 0.01238613 27.19824219 0.03515625 C32.09446637 0.06354104 36.99006695 0.06080412 41.88633728 0.04806614 C45.65072963 0.04111091 49.41497786 0.04889645 53.17935181 0.06132317 C54.98466438 0.06583919 56.78999242 0.06617315 58.5953064 0.06225777 C61.11854766 0.05934706 63.6409298 0.07584524 66.1640625 0.09765625 C67.28320541 0.09090378 67.28320541 0.09090378 68.42495728 0.08401489 C72.65460646 0.14475785 75.08135786 0.46220689 78.08203125 3.50170898 C78.57422256 6.05728436 78.57422256 6.05728436 78.56304932 9.17741394 C78.56854797 10.3595195 78.57404663 11.54162506 78.57971191 12.759552 C78.56533081 14.05786957 78.55094971 15.35618713 78.53613281 16.69384766 C78.53500463 18.07358263 78.53563762 19.45332001 78.53790283 20.83305359 C78.53905208 24.58090006 78.51550938 28.32823607 78.487607 32.07596374 C78.46262804 35.99172243 78.46025413 39.9074924 78.45550537 43.82331848 C78.44306523 51.23943518 78.41022974 58.65531646 78.37010741 66.07132941 C78.32542187 74.51376858 78.30341079 82.95621889 78.28332567 91.39874685 C78.24149787 108.76654099 78.17032158 126.13409112 78.08203125 143.50170898 C74.12203125 143.50170898 70.16203125 143.50170898 66.08203125 143.50170898 C66.08203125 100.27170898 66.08203125 57.04170898 66.08203125 12.50170898 C44.30203125 12.50170898 22.52203125 12.50170898 0.08203125 12.50170898 C0.08203125 55.73170898 0.08203125 98.96170898 0.08203125 143.50170898 C-3.87796875 143.50170898 -7.83796875 143.50170898 -11.91796875 143.50170898 C-12.01053087 125.44747726 -12.08192975 107.39332686 -12.12521744 89.33890915 C-12.14585015 80.95608192 -12.17398415 72.57340475 -12.21972656 64.19067383 C-12.2595728 56.88499612 -12.28539641 49.57942708 -12.29432273 42.27364373 C-12.29954129 38.40457983 -12.31182108 34.53582683 -12.34088898 30.66686249 C-12.3680234 27.02577255 -12.37641793 23.3851218 -12.37039948 19.74394035 C-12.37202597 17.76940692 -12.39355915 15.7949214 -12.41564941 13.82051086 C-12.41015076 12.64544479 -12.4046521 11.47037872 -12.39898682 10.25970459 C-12.40267399 9.23835796 -12.40636116 8.21701134 -12.41016006 7.16471481 C-11.13586095 0.27010725 -6.02457445 -0.07806697 0 0 Z " fill="#474646" transform="translate(344.91796875,368.498291015625)"/>
<path d="M0 0 C0.79395172 -0.00540298 1.58790344 -0.01080597 2.40591431 -0.01637268 C5.02750043 -0.02886893 7.64799024 -0.01236363 10.26953125 0.00561523 C12.09269264 0.00546027 13.91585437 0.00397166 15.73901367 0.00120544 C19.55890476 -0.00017895 23.37842056 0.01238613 27.19824219 0.03515625 C32.09446637 0.06354104 36.99006695 0.06080412 41.88633728 0.04806614 C45.65072963 0.04111091 49.41497786 0.04889645 53.17935181 0.06132317 C54.98466438 0.06583919 56.78999242 0.06617315 58.5953064 0.06225777 C61.11854766 0.05934706 63.6409298 0.07584524 66.1640625 0.09765625 C67.28320541 0.09090378 67.28320541 0.09090378 68.42495728 0.08401489 C72.65794434 0.14480579 75.06101124 0.48522951 78.08203125 3.50170898 C78.57422256 5.88549328 78.57422256 5.88549328 78.56304932 8.7598114 C78.56854797 9.84936127 78.57404663 10.93891113 78.57971191 12.06147766 C78.56533081 13.2569371 78.55094971 14.45239655 78.53613281 15.68408203 C78.53671692 16.94273071 78.53730103 18.20137939 78.53790283 19.49816895 C78.53905174 22.95058838 78.51551481 26.4024533 78.487607 29.85474372 C78.46262224 33.46220075 78.46025368 37.06967012 78.45550537 40.67720032 C78.44306692 47.50896327 78.41023378 54.34047056 78.37010741 61.17212087 C78.32541656 68.9495154 78.30340947 76.72692206 78.28332567 84.50441301 C78.2415017 100.50366384 78.17032847 116.50264342 78.08203125 132.50170898 C74.12203125 132.50170898 70.16203125 132.50170898 66.08203125 132.50170898 C66.08203125 92.90170898 66.08203125 53.30170898 66.08203125 12.50170898 C44.30203125 12.50170898 22.52203125 12.50170898 0.08203125 12.50170898 C0.08203125 52.10170898 0.08203125 91.70170898 0.08203125 132.50170898 C-3.87796875 132.50170898 -7.83796875 132.50170898 -11.91796875 132.50170898 C-12.01054124 115.88169385 -12.081935 99.26178492 -12.12521744 82.64157486 C-12.14584788 74.92461626 -12.17397748 67.20782073 -12.21972656 59.4909668 C-12.25957983 52.76540384 -12.28539806 46.03995898 -12.29432273 39.31428123 C-12.29954013 35.7526079 -12.31181228 32.19127243 -12.34088898 28.62970734 C-12.37307566 24.65501037 -12.37392912 20.68064476 -12.37207031 16.70581055 C-12.38645142 15.52329712 -12.40083252 14.34078369 -12.41564941 13.12243652 C-12.41015076 12.03992615 -12.4046521 10.95741577 -12.39898682 9.84210205 C-12.40267399 8.90187321 -12.40636116 7.96164436 -12.41016006 6.99292374 C-11.07444314 0.23222397 -5.89602608 -0.07640123 0 0 Z " fill="#474646" transform="translate(344.91796875,164.498291015625)"/>
<path d="M0 0 C0.99 -0.02900391 1.98 -0.05800781 3 -0.08789062 C8.89712912 -0.13913573 12.77265544 0.06176951 17.25 4.3125 C21.1975733 9.97093017 21.84512376 14.15885915 21.78125 20.97265625 C21.7850769 21.88075546 21.78890381 22.78885468 21.79284668 23.72447205 C21.7955563 25.6347668 21.78826194 27.54509927 21.77148438 29.45532227 C21.75003571 32.37014765 21.77133072 35.28251553 21.796875 38.19726562 C21.79423204 40.05990124 21.78910772 41.92253533 21.78125 43.78515625 C21.78934692 44.65092789 21.79744385 45.51669952 21.80578613 46.40870667 C21.72169152 51.8632701 20.8630065 54.97913167 17.25 59.3125 C12.00062236 64.11376004 7.0059576 63.92002187 0.25 63.8125 C-1.20792969 63.83570312 -1.20792969 63.83570312 -2.6953125 63.859375 C-8.52102337 63.82762726 -12.27636195 63.40424212 -16.75 59.3125 C-21.07321856 54.13712999 -21.32946982 50.1988457 -21.24609375 43.75 C-21.24754898 42.84048584 -21.24900421 41.93097168 -21.25050354 40.99389648 C-21.24884908 39.07760402 -21.23733875 37.16129763 -21.21655273 35.24511719 C-21.18759102 32.32168802 -21.19595494 29.40007363 -21.20898438 26.4765625 C-21.20274637 24.60936624 -21.19435494 22.74217567 -21.18359375 20.875 C-21.18652939 20.00609131 -21.18946503 19.13718262 -21.19248962 18.24194336 C-21.11453154 13.19568141 -20.55031707 9.67980568 -17.75 5.3125 C-11.81097932 -0.04710403 -7.7265834 0.07429407 0 0 Z " fill="#FEFDFD" transform="translate(174.75,23.6875)"/>
<path d="M0 0 C0.73951904 -0.00145523 1.47903809 -0.00291046 2.2409668 -0.00440979 C3.80098418 -0.00275339 5.36101834 0.0087791 6.92089844 0.02954102 C9.30474465 0.05849954 11.68636597 0.05014581 14.0703125 0.03710938 C15.58855244 0.04334726 17.10678538 0.05173861 18.625 0.0625 C19.33551514 0.05956436 20.04603027 0.05662872 20.77807617 0.05360413 C23.86477653 0.11225982 26.03521111 0.34467216 28.765625 1.83569336 C30.3125 3.49609375 30.3125 3.49609375 30.75 6.49609375 C30.3125 9.49609375 30.3125 9.49609375 29.17260742 11.1652832 C26.47071276 13.09834893 24.40745759 12.83545935 21.11328125 12.7890625 C19.90478516 12.77939453 18.69628906 12.76972656 17.45117188 12.75976562 C16.18853516 12.73462891 14.92589844 12.70949219 13.625 12.68359375 C11.71364258 12.66329102 11.71364258 12.66329102 9.76367188 12.64257812 C6.61310175 12.60717846 3.46274834 12.55337099 0.3125 12.49609375 C0.3125 17.11609375 0.3125 21.73609375 0.3125 26.49609375 C2.22675781 26.46128906 4.14101563 26.42648438 6.11328125 26.390625 C8.61717875 26.36249132 11.12108571 26.33519072 13.625 26.30859375 C14.88763672 26.28345703 16.15027344 26.25832031 17.45117188 26.23242188 C18.65966797 26.22275391 19.86816406 26.21308594 21.11328125 26.203125 C22.22872314 26.18741455 23.34416504 26.1717041 24.4934082 26.15551758 C27.3125 26.49609375 27.3125 26.49609375 29.20776367 27.79174805 C30.3125 29.49609375 30.3125 29.49609375 30.1875 33.05859375 C29.3125 36.49609375 29.3125 36.49609375 26.3125 38.49609375 C23.58520508 38.72314453 23.58520508 38.72314453 20.33203125 38.69140625 C18.58696289 38.68173828 18.58696289 38.68173828 16.80664062 38.671875 C14.98422852 38.64673828 14.98422852 38.64673828 13.125 38.62109375 C11.89845703 38.61207031 10.67191406 38.60304687 9.40820312 38.59375 C6.37621915 38.57015479 3.34433527 38.53428342 0.3125 38.49609375 C0.3125 42.78609375 0.3125 47.07609375 0.3125 51.49609375 C2.14296875 51.46128906 3.9734375 51.42648438 5.859375 51.390625 C8.2604075 51.3624879 10.66144991 51.33518766 13.0625 51.30859375 C14.2690625 51.28345703 15.475625 51.25832031 16.71875 51.23242188 C17.87890625 51.22275391 19.0390625 51.21308594 20.234375 51.203125 C21.30268555 51.18741455 22.37099609 51.1717041 23.47167969 51.15551758 C26.64365522 51.53579481 27.98467242 52.36716283 30.3125 54.49609375 C30 57.87109375 30 57.87109375 29.3125 61.49609375 C25.67572191 63.92061247 22.93108403 63.81894367 18.72265625 63.83203125 C17.98172226 63.83868805 17.24078827 63.84534485 16.47740173 63.85220337 C14.91147339 63.86232069 13.34550201 63.86702067 11.77954102 63.86669922 C9.38680851 63.87107217 6.99592173 63.90739642 4.60351562 63.9453125 C3.08073546 63.95118102 1.55794656 63.95515018 0.03515625 63.95703125 C-1.03532204 63.9785878 -1.03532204 63.9785878 -2.12742615 64.00057983 C-5.36429261 63.97088448 -7.27917092 63.81154143 -9.87562561 61.80569458 C-12.0863336 58.98769956 -12.19326982 57.60436331 -12.20507812 54.05664062 C-12.21768677 52.96871216 -12.23029541 51.88078369 -12.24328613 50.7598877 C-12.23518921 49.59002319 -12.22709229 48.42015869 -12.21875 47.21484375 C-12.2225769 46.00920776 -12.22640381 44.80357178 -12.23034668 43.56140137 C-12.23306826 41.0127682 -12.22569005 38.46410721 -12.20898438 35.91552734 C-12.1875804 32.01076073 -12.20878003 28.10783427 -12.234375 24.203125 C-12.23173177 21.72786052 -12.2266069 19.25259718 -12.21875 16.77734375 C-12.22684692 15.60747925 -12.23494385 14.43761475 -12.24328613 13.2322998 C-12.23067749 12.14437134 -12.21806885 11.05644287 -12.20507812 9.93554688 C-12.20189575 8.97942505 -12.19871338 8.02330322 -12.19543457 7.03820801 C-10.86119582 0.36060121 -5.88575134 -0.09305981 0 0 Z " fill="#FEFEFE" transform="translate(326.6875,23.50390625)"/>
<path d="M0 0 C2.875 0.875 2.875 0.875 4.875 2.875 C5.10205078 5.21337891 5.10205078 5.21337891 5.0703125 8.1015625 C5.06064453 9.6484375 5.06064453 9.6484375 5.05078125 11.2265625 C5.03402344 12.30679688 5.01726562 13.38703125 5 14.5 C4.99097656 15.58796875 4.98195313 16.6759375 4.97265625 17.796875 C4.94903518 20.48967649 4.91316333 23.18236535 4.875 25.875 C11.145 25.875 17.415 25.875 23.875 25.875 C23.84019531 24.24949219 23.80539063 22.62398437 23.76953125 20.94921875 C23.74139606 18.82032281 23.71409562 16.69141573 23.6875 14.5625 C23.66236328 13.49064453 23.63722656 12.41878906 23.61132812 11.31445312 C23.60166016 10.28642578 23.59199219 9.25839844 23.58203125 8.19921875 C23.5663208 7.25135498 23.55061035 6.30349121 23.53442383 5.3269043 C23.875 2.875 23.875 2.875 25.1706543 1.03442383 C26.875 -0.125 26.875 -0.125 30.4375 0 C33.875 0.875 33.875 0.875 35.875 3.875 C36.14242554 6.29685974 36.14242554 6.29685974 36.16552734 9.20092773 C36.17828705 10.28893173 36.19104675 11.37693573 36.20419312 12.49790955 C36.20641876 13.67293533 36.20864441 14.84796112 36.2109375 16.05859375 C36.2175943 17.26564468 36.2242511 18.47269562 36.23110962 19.71632385 C36.24124199 22.27090936 36.24592646 24.82552137 36.24560547 27.38012695 C36.24997885 31.29357377 36.28629539 35.20589343 36.32421875 39.11914062 C36.33008662 41.59895447 36.33405621 44.07877368 36.3359375 46.55859375 C36.35030853 47.73159531 36.36467957 48.90459686 36.37948608 50.11314392 C36.37333282 51.20430008 36.36717957 52.29545624 36.36083984 53.41967773 C36.36368988 54.37881577 36.36653992 55.3379538 36.36947632 56.32615662 C35.72976143 59.62365135 34.47317871 60.81297556 31.875 62.875 C29.3125 63.375 29.3125 63.375 26.875 62.875 C24.06943672 59.92230499 23.50846406 57.91229787 23.58203125 53.890625 C23.59169922 52.95605469 23.60136719 52.02148438 23.61132812 51.05859375 C23.63646484 50.09050781 23.66160156 49.12242188 23.6875 48.125 C23.70780273 46.64966797 23.70780273 46.64966797 23.72851562 45.14453125 C23.76380803 42.72111923 23.81761341 40.29798951 23.875 37.875 C17.605 37.875 11.335 37.875 4.875 37.875 C4.92140625 39.34453125 4.9678125 40.8140625 5.015625 42.328125 C5.05314483 44.26039635 5.08954476 46.19268967 5.125 48.125 C5.17527344 49.57712891 5.17527344 49.57712891 5.2265625 51.05859375 C5.32524614 58.2131575 5.32524614 58.2131575 3.0546875 61.55078125 C0.875 62.875 0.875 62.875 -2.25 62.8125 C-5.125 61.875 -5.125 61.875 -7.125 58.875 C-7.39242554 56.45314026 -7.39242554 56.45314026 -7.41552734 53.54907227 C-7.42828705 52.46106827 -7.44104675 51.37306427 -7.45419312 50.25209045 C-7.45641876 49.07706467 -7.45864441 47.90203888 -7.4609375 46.69140625 C-7.4709227 44.88082985 -7.4709227 44.88082985 -7.48110962 43.03367615 C-7.49124199 40.47909064 -7.49592646 37.92447863 -7.49560547 35.36987305 C-7.49997885 31.45642623 -7.53629539 27.54410657 -7.57421875 23.63085938 C-7.58008662 21.15104553 -7.58405621 18.67122632 -7.5859375 16.19140625 C-7.60030853 15.01840469 -7.61467957 13.84540314 -7.62948608 12.63685608 C-7.62333282 11.54569992 -7.61717957 10.45454376 -7.61083984 9.33032227 C-7.61368988 8.37118423 -7.61653992 7.4120462 -7.61947632 6.42384338 C-6.74624709 1.92266817 -4.56928968 -0.18277159 0 0 Z " fill="#FEFDFD" transform="translate(108.125,24.125)"/>
<path d="M0 0 C4.72202382 3.28488613 9.03291886 7.47375658 10.875 13 C11.23107791 16.91685697 11.42234291 19.15793399 9.25 22.5 C6.875 24 6.875 24 3.75 23.9375 C0.875 23 0.875 23 -1.125 20 C-1.83312814 17.67891331 -2.50524152 15.34622853 -3.125 13 C-7.71579703 11.84850984 -7.71579703 11.84850984 -12.0625 13.0625 C-13.60055213 15.86718329 -13.51810741 17.85514075 -13.125 21 C-11.5011394 23.16341812 -10.49058997 23.90498436 -7.85546875 24.58984375 C-6.59669922 24.76193359 -6.59669922 24.76193359 -5.3125 24.9375 C1.05036051 26.09354297 4.96836533 28.38899794 8.75 33.6875 C11.31271181 38.13504501 11.70853814 41.97159057 10.875 47 C8.82006664 53.16480007 6.37766088 57.60428528 0.625 60.8125 C-5.09615794 62.62420001 -9.09760605 62.65288958 -14.8125 60.8125 C-20.95089115 57.45375767 -23.91492727 53.63021819 -26.125 47 C-26.64081203 43.24194094 -26.61077909 41.72866864 -24.5 38.5625 C-22.125 37 -22.125 37 -19 37.0625 C-16.125 38 -16.125 38 -14.125 41 C-13.795 42.010625 -13.465 43.02125 -13.125 44.0625 C-12.33878109 47.08055734 -12.33878109 47.08055734 -10.125 49 C-6.54156024 49.16677282 -6.54156024 49.16677282 -3.125 49 C-2.898125 47.741875 -2.67125 46.48375 -2.4375 45.1875 C-2.24607422 44.12595703 -2.24607422 44.12595703 -2.05078125 43.04296875 C-1.94364715 40.93269838 -1.94364715 40.93269838 -3.3125 39.28515625 C-5.5437015 37.70311898 -7.10522942 37.5390022 -9.8125 37.25 C-15.74569265 36.20041475 -19.26159788 33.54899386 -23.125 29 C-26.19776444 23.81471001 -27.04902246 18.91164372 -26.125 13 C-24.18549189 7.33155665 -19.97215883 3.35139984 -15.125 0 C-10.03212735 -1.69762422 -5.10928733 -1.63497195 0 0 Z " fill="#FCFBFA" transform="translate(236.125,25)"/>
<path d="M0 0 C12.21 0 24.42 0 37 0 C37 12.21 37 24.42 37 37 C24.79 37 12.58 37 0 37 C0 24.79 0 12.58 0 0 Z " fill="#E3E7F3" transform="translate(157,377)"/>
<path d="M0 0 C12.21 0 24.42 0 37 0 C37 12.21 37 24.42 37 37 C24.79 37 12.58 37 0 37 C0 24.79 0 12.58 0 0 Z " fill="#E3E7F3" transform="translate(157,226)"/>
<path d="M0 0 C12.21 0 24.42 0 37 0 C37 12.21 37 24.42 37 37 C24.79 37 12.58 37 0 37 C0 24.79 0 12.58 0 0 Z " fill="#E3E7F3" transform="translate(157,174)"/>
<path d="M0 0 C12.21 0 24.42 0 37 0 C37 11.88 37 23.76 37 36 C24.79 36 12.58 36 0 36 C0 24.12 0 12.24 0 0 Z " fill="#E3E7F3" transform="translate(157,430)"/>
<path d="M0 0 C11.88 0 23.76 0 36 0 C36 12.21 36 24.42 36 37 C24.12 37 12.24 37 0 37 C0 24.79 0 12.58 0 0 Z " fill="#E3E7F3" transform="translate(210,377)"/>
<path d="M0 0 C11.88 0 23.76 0 36 0 C36 12.21 36 24.42 36 37 C24.12 37 12.24 37 0 37 C0 24.79 0 12.58 0 0 Z " fill="#E3E7F3" transform="translate(210,226)"/>
<path d="M0 0 C11.88 0 23.76 0 36 0 C36 12.21 36 24.42 36 37 C24.12 37 12.24 37 0 37 C0 24.79 0 12.58 0 0 Z " fill="#E3E7F3" transform="translate(210,174)"/>
<path d="M0 0 C11.88 0 23.76 0 36 0 C36 11.88 36 23.76 36 36 C24.12 36 12.24 36 0 36 C0 24.12 0 12.24 0 0 Z " fill="#E3E7F3" transform="translate(210,430)"/>
<path d="M0 0 C1.4217881 -0.01902626 1.4217881 -0.01902626 2.87229919 -0.03843689 C3.89420853 -0.03550125 4.91611786 -0.03256561 5.96899414 -0.02954102 C7.02067276 -0.03478287 8.07235138 -0.04002472 9.15589905 -0.04542542 C11.38094194 -0.05185138 13.60601878 -0.05050124 15.83105469 -0.04199219 C19.23767574 -0.03348839 22.64261723 -0.06222716 26.04907227 -0.09399414 C28.20987905 -0.09560635 30.37068882 -0.09502825 32.53149414 -0.09204102 C33.55137924 -0.10327499 34.57126434 -0.11450897 35.62205505 -0.12608337 C42.64432004 -0.05681443 42.64432004 -0.05681443 45.99462891 2.23974609 C47.31665039 4.40405273 47.31665039 4.40405273 47.25415039 7.52905273 C46.31665039 10.40405273 46.31665039 10.40405273 43.31665039 12.40405273 C41.32373047 12.63110352 41.32373047 12.63110352 39.08618164 12.59936523 C37.88251953 12.58969727 37.88251953 12.58969727 36.65454102 12.57983398 C35.82116211 12.56307617 34.9877832 12.54631836 34.12915039 12.52905273 C33.28416992 12.5200293 32.43918945 12.51100586 31.56860352 12.50170898 C29.48449796 12.47815977 27.40053822 12.44228921 25.31665039 12.40405273 C25.32553284 12.98398987 25.33441528 13.563927 25.34356689 14.16143799 C25.43204068 20.19582262 25.49238461 26.23002311 25.53637695 32.26489258 C25.55649596 34.51724735 25.58379447 36.76954987 25.6184082 39.02172852 C25.66691249 42.25867604 25.68961644 45.4949332 25.70727539 48.73217773 C25.72792053 49.73960022 25.74856567 50.74702271 25.76983643 51.78497314 C25.77206992 58.7390381 25.77206992 58.7390381 23.48754883 62.07495117 C21.31665039 63.40405273 21.31665039 63.40405273 18.19165039 63.34155273 C15.31665039 62.40405273 15.31665039 62.40405273 13.31665039 59.40405273 C13.07614136 57.25898743 13.07614136 57.25898743 13.08959961 54.74902344 C13.08975067 53.80827469 13.08990173 52.86752594 13.09005737 51.89826965 C13.10037994 50.88568588 13.11070251 49.87310211 13.12133789 48.82983398 C13.12416779 47.79086472 13.12699768 46.75189545 13.12991333 45.68144226 C13.14111757 42.35969577 13.16622275 39.03821788 13.19165039 35.71655273 C13.20167987 33.46590558 13.21080577 31.21525421 13.21899414 28.96459961 C13.24105769 23.44432551 13.27453768 17.92420831 13.31665039 12.40405273 C12.05208008 12.43885742 10.78750977 12.47366211 9.48461914 12.50952148 C7.82447616 12.5376595 6.16431883 12.56495965 4.50415039 12.59155273 C3.25408203 12.62925781 3.25408203 12.62925781 1.97875977 12.66772461 C0.77509766 12.68222656 0.77509766 12.68222656 -0.45288086 12.69702148 C-1.56046753 12.72058716 -1.56046753 12.72058716 -2.69042969 12.74462891 C-5.26491842 12.30466666 -6.12611347 11.46859093 -7.68334961 9.40405273 C-8.32501825 4.27070358 -8.32501825 4.27070358 -6.45262146 1.74180603 C-4.17116182 0.01678557 -2.84420726 0.01842617 0 0 Z " fill="#FEFEFD" transform="translate(256.683349609375,23.595947265625)"/>
<path d="M0 0 C2.875 0.875 2.875 0.875 4.875 2.875 C5.11550903 4.93777466 5.11550903 4.93777466 5.10205078 7.50830078 C5.10182419 8.94956833 5.10182419 8.94956833 5.10159302 10.41995239 C5.09127045 11.45957123 5.08094788 12.49919006 5.0703125 13.5703125 C5.0674826 14.63289276 5.06465271 15.69547302 5.06173706 16.79025269 C5.05051639 20.19361499 5.02540837 23.59671686 5 27 C4.98997264 29.30338162 4.98084637 31.60676736 4.97265625 33.91015625 C4.95057093 39.56519345 4.91707489 45.22007813 4.875 50.875 C5.67196289 50.85405273 6.46892578 50.83310547 7.29003906 50.81152344 C10.90156434 50.72836678 14.51288824 50.67633966 18.125 50.625 C20.00638672 50.57472656 20.00638672 50.57472656 21.92578125 50.5234375 C23.13105469 50.51054688 24.33632813 50.49765625 25.578125 50.484375 C27.24343262 50.4529541 27.24343262 50.4529541 28.94238281 50.42089844 C32.54689717 50.97904002 33.72998069 51.9692243 35.875 54.875 C35.8125 58 35.8125 58 34.875 60.875 C31.18854171 63.33263886 28.33550134 63.19805499 24.06640625 63.2109375 C23.30327621 63.2175943 22.54014618 63.2242511 21.75389099 63.23110962 C20.14088347 63.24122807 18.52783415 63.24592689 16.91479492 63.24560547 C14.44965534 63.24997844 11.98630713 63.28630219 9.52148438 63.32421875 C7.95313111 63.33008722 6.38476936 63.33405641 4.81640625 63.3359375 C4.08088028 63.35030853 3.34535431 63.36467957 2.58753967 63.37948608 C-0.69333207 63.35025943 -2.68203257 63.21631201 -5.31886292 61.18460083 C-7.52250015 58.36669601 -7.63078305 56.97929481 -7.64257812 53.43554688 C-7.65518677 52.34761841 -7.66779541 51.25968994 -7.68078613 50.13879395 C-7.67268921 48.96892944 -7.66459229 47.79906494 -7.65625 46.59375 C-7.6600769 45.38811401 -7.66390381 44.18247803 -7.66784668 42.94030762 C-7.67056826 40.39167445 -7.66319005 37.84301346 -7.64648438 35.29443359 C-7.6250804 31.38966698 -7.64628003 27.48674052 -7.671875 23.58203125 C-7.66923177 21.10676677 -7.6641069 18.63150343 -7.65625 16.15625 C-7.66434692 14.9863855 -7.67244385 13.816521 -7.68078613 12.61120605 C-7.66817749 11.52327759 -7.65556885 10.43534912 -7.64257812 9.31445312 C-7.63939575 8.3583313 -7.63621338 7.40220947 -7.63293457 6.41711426 C-6.73544924 1.92537381 -4.56800197 -0.18272008 0 0 Z " fill="#FEFDFD" transform="translate(375.125,24.125)"/>
<path d="M0 0 C1.12535156 0.00580078 1.12535156 0.00580078 2.2734375 0.01171875 C3.02367187 0.00785156 3.77390625 0.00398438 4.546875 0 C10.14682697 0.01010822 10.14682697 0.01010822 11.2734375 1.13671875 C11.37443238 3.86396154 11.41314279 6.56534398 11.40625 9.29296875 C11.40768509 10.51916931 11.40768509 10.51916931 11.40914917 11.7701416 C11.40983095 13.50187253 11.40797679 15.23360599 11.40380859 16.96533203 C11.39846029 19.62538357 11.40375362 22.28526625 11.41015625 24.9453125 C11.40949547 26.62369829 11.4082143 28.30208398 11.40625 29.98046875 C11.40827423 30.78150024 11.41029846 31.58253174 11.41238403 32.40783691 C11.38838829 38.02176796 11.38838829 38.02176796 10.2734375 39.13671875 C7.5961237 39.23653089 4.95039575 39.2755175 2.2734375 39.26171875 C1.14808594 39.26751953 1.14808594 39.26751953 0 39.2734375 C-5.59995197 39.26332928 -5.59995197 39.26332928 -6.7265625 38.13671875 C-6.82755738 35.40947596 -6.86626779 32.70809352 -6.859375 29.98046875 C-6.86033173 29.16300171 -6.86128845 28.34553467 -6.86227417 27.5032959 C-6.86295595 25.77156497 -6.86110179 24.03983151 -6.85693359 22.30810547 C-6.85158529 19.64805393 -6.85687862 16.98817125 -6.86328125 14.328125 C-6.86262047 12.64973921 -6.8613393 10.97135352 -6.859375 9.29296875 C-6.86139923 8.49193726 -6.86342346 7.69090576 -6.86550903 6.86560059 C-6.83715298 0.23155327 -6.66237152 0.01202594 0 0 Z " fill="#A36943" transform="translate(172.7265625,35.86328125)"/>
<path d="M0 0 C1.0686731 -0.00478363 2.13734619 -0.00956726 3.23840332 -0.01449585 C5.49439977 -0.01789331 7.75044555 -0.0087018 10.00634766 0.01220703 C13.45717264 0.0389727 16.9047448 0.01245179 20.35546875 -0.01953125 C22.54948634 -0.01622713 24.7435019 -0.00982085 26.9375 0 C27.96782349 -0.01012115 28.99814697 -0.02024231 30.05969238 -0.03067017 C34.82836769 0.04725425 37.21288022 0.10740609 41.13867188 2.99853516 C43.30944847 6.16029328 43.40582995 7.90517497 42.96875 11.6640625 C39.96347353 10.16142427 39.99657386 7.74753409 38.96875 4.6640625 C36.56586573 3.46262037 35.05035248 3.53094224 32.3671875 3.51879883 C31.41279785 3.51241898 30.4584082 3.50603912 29.47509766 3.49946594 C28.44175293 3.49835312 27.4084082 3.4972403 26.34375 3.49609375 C25.28591309 3.49276535 24.22807617 3.48943695 23.13818359 3.48600769 C20.89876745 3.48093894 18.65934375 3.47859935 16.41992188 3.47875977 C12.98294734 3.47657154 9.54629276 3.45841034 6.109375 3.43945312 C3.9375011 3.43651962 1.76562567 3.43453454 -0.40625 3.43359375 C-1.43959473 3.42640823 -2.47293945 3.41922272 -3.53759766 3.41181946 C-4.4919873 3.41489609 -5.44637695 3.41797272 -6.4296875 3.42114258 C-7.27192871 3.41971756 -8.11416992 3.41829254 -8.98193359 3.41682434 C-11.25599534 3.47725977 -11.25599534 3.47725977 -13.03125 5.6640625 C-13.36458333 8.6640625 -13.36458333 8.6640625 -13.03125 11.6640625 C-10.67766749 14.01764501 -10.10156606 13.94278154 -6.8984375 14.078125 C-5.68994141 14.13613281 -5.68994141 14.13613281 -4.45703125 14.1953125 C-3.19439453 14.24171875 -3.19439453 14.24171875 -1.90625 14.2890625 C-1.05675781 14.32773437 -0.20726562 14.36640625 0.66796875 14.40625 C2.76786684 14.50062744 4.86827891 14.58343836 6.96875 14.6640625 C6.97754936 15.53729912 6.97754936 15.53729912 6.98652649 16.42817688 C7.05038534 22.47905211 7.13478504 28.52939174 7.23120117 34.57983398 C7.26448686 36.83887681 7.29250733 39.09800353 7.31518555 41.35717773 C7.34866426 44.60176398 7.40097718 47.84557883 7.45703125 51.08984375 C7.46342117 52.10242752 7.4698111 53.11501129 7.47639465 54.15827942 C7.50608589 55.56940254 7.50608589 55.56940254 7.53637695 57.0090332 C7.54748001 57.83732132 7.55858307 58.66560944 7.57002258 59.51899719 C8.06208756 62.16619794 8.84904797 63.04674528 10.96875 64.6640625 C13.57486077 65.38603412 13.57486077 65.38603412 15.96875 65.6640625 C15.96875 66.3240625 15.96875 66.9840625 15.96875 67.6640625 C12.18690155 68.10381232 10.46217791 68.00698207 7.29223633 65.80395508 C3.94820141 61.28492249 4.33624645 57.59229362 4.48046875 52.11328125 C4.48754349 51.09933792 4.49461823 50.08539459 4.50190735 49.04072571 C4.52983988 45.8102462 4.59257838 42.58151589 4.65625 39.3515625 C4.68133425 37.1582282 4.70414719 34.96486666 4.72460938 32.77148438 C4.77966245 27.40174948 4.86327727 22.03303096 4.96875 16.6640625 C3.28845703 16.69886719 3.28845703 16.69886719 1.57421875 16.734375 C0.10156916 16.75313487 -1.37108763 16.77133484 -2.84375 16.7890625 C-3.58173828 16.80582031 -4.31972656 16.82257812 -5.08007812 16.83984375 C-8.94371426 16.87480878 -10.74028668 16.85803805 -14.03125 14.6640625 C-14.03125 17.9640625 -14.03125 21.2640625 -14.03125 24.6640625 C-14.69125 24.9940625 -15.35125 25.3240625 -16.03125 25.6640625 C-16.69125 21.0440625 -17.35125 16.4240625 -18.03125 11.6640625 C-17.37125 11.6640625 -16.71125 11.6640625 -16.03125 11.6640625 C-16.134375 10.7771875 -16.2375 9.8903125 -16.34375 8.9765625 C-16.03125 5.6640625 -16.03125 5.6640625 -14.20117188 2.99853516 C-9.57755784 -0.40650161 -5.60715722 -0.05508067 0 0 Z " fill="#855737" transform="translate(263.03125,21.3359375)"/>
<path d="M0 0 C3.75570178 1.16085328 5.02300784 2.02988391 7.4375 5.0625 C7.9521637 7.67381287 7.9521637 7.67381287 7.97094727 10.66967773 C7.9867836 11.79442001 8.00261993 12.91916229 8.01893616 14.07798767 C8.01397629 15.28846268 8.00901642 16.49893768 8.00390625 17.74609375 C8.01320412 19.61757835 8.01320412 19.61757835 8.02268982 21.52687073 C8.02979555 24.16602487 8.02854523 26.80365632 8.01391602 29.44262695 C7.99673783 32.81686965 8.02021043 36.18940789 8.05540562 39.56346035 C8.08270709 42.7910248 8.07264112 46.01844642 8.06640625 49.24609375 C8.07966446 50.45454453 8.09292267 51.6629953 8.10658264 52.9080658 C8.00298969 62.23072389 8.00298969 62.23072389 5.10522461 65.34399414 C1.94746655 67.37817177 0.12583795 67.49137651 -3.5625 67.0625 C-3.5625 66.4025 -3.5625 65.7425 -3.5625 65.0625 C-2.428125 64.77375 -1.29375 64.485 -0.125 64.1875 C1.050625 63.81625 2.22625 63.445 3.4375 63.0625 C4.71313191 60.51123617 4.57839243 58.69058469 4.59863281 55.83422852 C4.60824036 54.7429213 4.6178479 53.65161407 4.62774658 52.52723694 C4.63199646 51.34391281 4.63624634 50.16058868 4.640625 48.94140625 C4.64632507 47.7305687 4.65202515 46.51973114 4.65789795 45.27220154 C4.66735703 42.7074369 4.67388552 40.14266005 4.67773438 37.57788086 C4.68745107 33.64480539 4.71847135 29.71224985 4.75 25.77929688 C4.75652865 23.29166978 4.76177966 20.80403894 4.765625 18.31640625 C4.7779718 17.13510635 4.7903186 15.95380646 4.80303955 14.73670959 C4.80003845 13.64225021 4.79703735 12.54779083 4.79394531 11.42016602 C4.79759094 10.45579117 4.80123657 9.49141632 4.80499268 8.49781799 C4.62742158 6.01680988 4.62742158 6.01680988 3.07537842 4.24717712 C0.77209622 2.58121358 -0.78925645 2.70695595 -3.5625 3.0625 C-6.12386221 5.62386221 -5.85916857 6.72811331 -5.9765625 10.2890625 C-6.01523438 11.3203125 -6.05390625 12.3515625 -6.09375 13.4140625 C-6.1246875 14.49429688 -6.155625 15.57453125 -6.1875 16.6875 C-6.22617188 17.77546875 -6.26484375 18.8634375 -6.3046875 19.984375 C-6.39915846 22.67679745 -6.48192581 25.36962584 -6.5625 28.0625 C-12.8325 28.0625 -19.1025 28.0625 -25.5625 28.0625 C-25.5625 20.1425 -25.5625 12.2225 -25.5625 4.0625 C-24.5725 4.5575 -24.5725 4.5575 -23.5625 5.0625 C-23.5625 11.9925 -23.5625 18.9225 -23.5625 26.0625 C-18.6125 26.0625 -13.6625 26.0625 -8.5625 26.0625 C-8.62050781 24.60457031 -8.67851562 23.14664063 -8.73828125 21.64453125 C-8.78518723 19.72138622 -8.83068649 17.79820651 -8.875 15.875 C-8.91689453 14.91529297 -8.95878906 13.95558594 -9.00195312 12.96679688 C-9.12526025 5.83964511 -9.12526025 5.83964511 -6.265625 1.890625 C-3.5625 0.0625 -3.5625 0.0625 0 0 Z " fill="#855737" transform="translate(138.5625,21.9375)"/>
<path d="M0 0 C3.375 0.9375 3.375 0.9375 5.375 3.9375 C6.08312814 6.25858669 6.75524152 8.59127147 7.375 10.9375 C10.015 11.5975 12.655 12.2575 15.375 12.9375 C14.385 13.9275 13.395 14.9175 12.375 15.9375 C13.00728516 16.73414063 13.00728516 16.73414063 13.65234375 17.546875 C14.47412109 18.60648438 14.47412109 18.60648438 15.3125 19.6875 C15.85777344 20.38359375 16.40304688 21.0796875 16.96484375 21.796875 C19.32446424 25.37879198 19.49954254 28.46860759 19.4375 32.6875 C19.42847656 33.48671875 19.41945312 34.2859375 19.41015625 35.109375 C19.39855469 35.71265625 19.38695312 36.3159375 19.375 36.9375 C18.385 37.4325 18.385 37.4325 17.375 37.9375 C17.36082031 37.23625 17.34664062 36.535 17.33203125 35.8125 C16.99527052 29.11369189 16.12402635 23.90932017 11.375 18.9375 C7.61177709 16.22356146 4.21597332 15.04962978 -0.375 14.4375 C-3.625 13.9375 -3.625 13.9375 -6.0625 12.25 C-8.12349691 9.19972457 -8.22726822 7.55110931 -7.625 3.9375 C-5.31085172 0.32742869 -4.32918251 -0.07464108 0 0 Z " fill="#895C3D" transform="translate(229.625,36.0625)"/>
<path d="M0 0 C0.33 0 0.66 0 1 0 C1.00586624 0.68238235 1.01173248 1.36476471 1.01777649 2.06782532 C1.0816067 9.15673985 1.16599941 16.24519602 1.26245117 23.33374023 C1.29574872 25.98081426 1.32376542 28.62796011 1.34643555 31.27514648 C1.37989211 35.0756701 1.43220486 38.87553255 1.48828125 42.67578125 C1.49786613 44.45714226 1.49786613 44.45714226 1.50764465 46.27449036 C1.52743881 47.37540512 1.54723297 48.47631989 1.56762695 49.6105957 C1.57873001 50.58100296 1.58983307 51.55141022 1.60127258 52.55122375 C1.81730347 55.03342269 1.81730347 55.03342269 3.31364441 56.81257629 C6.12775597 58.79409359 9.30744108 58.42646496 12.625 58.3984375 C13.36830566 58.40130768 14.11161133 58.40417786 14.87744141 58.40713501 C16.4475989 58.40917476 18.01778186 58.403651 19.58789062 58.39111328 C21.99146332 58.37505703 24.39335461 58.39096352 26.796875 58.41015625 C28.32292038 58.4081738 29.84896471 58.40433009 31.375 58.3984375 C32.09381348 58.40451019 32.81262695 58.41058289 33.55322266 58.4168396 C36.45596029 58.37591853 38.49902472 58.34347169 40.93359375 56.67431641 C42.48538591 54.23791746 42.68499619 51.83503432 43 49 C43.99 49.495 43.99 49.495 45 50 C45.45052814 53.87454197 45.37806436 55.49809015 42.9921875 58.66552734 C39.25245786 61.58322437 36.37018924 61.72590068 31.8125 61.6640625 C30.64231323 61.67123795 30.64231323 61.67123795 29.44848633 61.67855835 C27.80450414 61.68195008 26.16045385 61.67279831 24.51660156 61.65185547 C22.00692705 61.62507392 19.50172371 61.651622 16.9921875 61.68359375 C15.39061518 61.68028952 13.78904562 61.67388299 12.1875 61.6640625 C11.06855347 61.67924423 11.06855347 61.67924423 9.92700195 61.69473267 C6.36417375 61.61499599 4.09581003 61.05664429 1.02099609 59.23876953 C-2.13277454 54.18465969 -1.63614337 49.35299794 -1.5234375 43.515625 C-1.51873444 42.30428894 -1.51403137 41.09295288 -1.50918579 39.84490967 C-1.4878438 35.97936036 -1.43119814 32.11518311 -1.375 28.25 C-1.35849496 25.63152326 -1.34414636 23.01303198 -1.33203125 20.39453125 C-1.29804238 15.62384842 -1.26349781 10.85330016 -1.19287109 6.08300781 C-1.18001068 5.12324036 -1.16715027 4.1634729 -1.15390015 3.17462158 C-1 1 -1 1 0 0 Z " fill="#845636" transform="translate(314,28)"/>
<path d="M0 0 C2.60478883 -0.0809313 5.20706653 -0.14045434 7.8125 -0.1875 C8.55048828 -0.21263672 9.28847656 -0.23777344 10.04882812 -0.26367188 C15.47158839 -0.33728401 15.47158839 -0.33728401 18.01953125 1.2890625 C19.73344602 4.27987791 18.81468896 6.79943623 18 10 C14.31912647 12.45391569 11.55644412 12.22802759 7.3125 12.125 C6.2596582 12.11146484 6.2596582 12.11146484 5.18554688 12.09765625 C3.45688475 12.07413704 1.72839855 12.03826713 0 12 C0 8.04 0 4.08 0 0 Z " fill="#858585" transform="translate(345,231)"/>
<path d="M0 0 C2.4178712 -0.10826289 4.83087556 -0.18739789 7.25 -0.25 C8.27287109 -0.30027344 8.27287109 -0.30027344 9.31640625 -0.3515625 C12.78476566 -0.41890928 14.65490369 -0.25245664 17.48828125 1.8203125 C19 4 19 4 18.9375 7.125 C18 10 18 10 15 12 C12.39754502 12.14221065 9.90882316 12.18802932 7.3125 12.125 C6.2596582 12.11146484 6.2596582 12.11146484 5.18554688 12.09765625 C3.45688475 12.07413704 1.72839855 12.03826713 0 12 C0 8.04 0 4.08 0 0 Z " fill="#858585" transform="translate(345,434)"/>
<path d="M0 0 C1.12535156 0.00580078 1.12535156 0.00580078 2.2734375 0.01171875 C3.02367187 0.00785156 3.77390625 0.00398438 4.546875 0 C10.14682697 0.01010822 10.14682697 0.01010822 11.2734375 1.13671875 C11.37443238 3.86396154 11.41314279 6.56534398 11.40625 9.29296875 C11.40768509 10.51916931 11.40768509 10.51916931 11.40914917 11.7701416 C11.40983095 13.50187253 11.40797679 15.23360599 11.40380859 16.96533203 C11.39846029 19.62538357 11.40375362 22.28526625 11.41015625 24.9453125 C11.40949547 26.62369829 11.4082143 28.30208398 11.40625 29.98046875 C11.40827423 30.78150024 11.41029846 31.58253174 11.41238403 32.40783691 C11.38838829 38.02176796 11.38838829 38.02176796 10.2734375 39.13671875 C7.5961237 39.23653089 4.95039575 39.2755175 2.2734375 39.26171875 C1.14808594 39.26751953 1.14808594 39.26751953 0 39.2734375 C-5.59995197 39.26332928 -5.59995197 39.26332928 -6.7265625 38.13671875 C-6.82755738 35.40947596 -6.86626779 32.70809352 -6.859375 29.98046875 C-6.86033173 29.16300171 -6.86128845 28.34553467 -6.86227417 27.5032959 C-6.86295595 25.77156497 -6.86110179 24.03983151 -6.85693359 22.30810547 C-6.85158529 19.64805393 -6.85687862 16.98817125 -6.86328125 14.328125 C-6.86262047 12.64973921 -6.8613393 10.97135352 -6.859375 9.29296875 C-6.86139923 8.49193726 -6.86342346 7.69090576 -6.86550903 6.86560059 C-6.83715298 0.23155327 -6.66237152 0.01202594 0 0 Z M-4.7265625 2.13671875 C-4.7265625 13.68671875 -4.7265625 25.23671875 -4.7265625 37.13671875 C-0.1065625 37.13671875 4.5134375 37.13671875 9.2734375 37.13671875 C9.2734375 25.58671875 9.2734375 14.03671875 9.2734375 2.13671875 C4.6534375 2.13671875 0.0334375 2.13671875 -4.7265625 2.13671875 Z " fill="#845737" transform="translate(172.7265625,35.86328125)"/>
<path d="M0 0 C0.33 0 0.66 0 1 0 C1.00586624 0.68238235 1.01173248 1.36476471 1.01777649 2.06782532 C1.0816067 9.15673985 1.16599941 16.24519602 1.26245117 23.33374023 C1.29574872 25.98081426 1.32376542 28.62796011 1.34643555 31.27514648 C1.37989211 35.0756701 1.43220486 38.87553255 1.48828125 42.67578125 C1.49786613 44.45714226 1.49786613 44.45714226 1.50764465 46.27449036 C1.52743881 47.37540512 1.54723297 48.47631989 1.56762695 49.6105957 C1.57873001 50.58100296 1.58983307 51.55141022 1.60127258 52.55122375 C1.81792297 55.03162483 1.81792297 55.03162483 3.30493164 56.80981445 C6.19073521 58.83607002 9.542968 58.48270165 12.94921875 58.51171875 C13.72183548 58.52966995 14.49445221 58.54762115 15.29048157 58.56611633 C17.756099 58.62026104 20.22152243 58.65412731 22.6875 58.6875 C24.36005306 58.72066952 26.03258051 58.75515885 27.70507812 58.79101562 C31.8032455 58.87598949 35.90135494 58.9427802 40 59 C40 59.66 40 60.32 40 61 C34.96469037 61.1238722 29.93027303 61.21446514 24.89379883 61.2746582 C23.18172755 61.29975714 21.46976296 61.33384429 19.75805664 61.37719727 C17.29286355 61.43805739 14.82909015 61.46625432 12.36328125 61.48828125 C11.22080681 61.52699089 11.22080681 61.52699089 10.05525208 61.56648254 C6.42863208 61.56838381 4.14974628 61.08765666 1.01000977 59.24975586 C-2.12299779 54.18435278 -1.63615334 49.35351448 -1.5234375 43.515625 C-1.51873444 42.30428894 -1.51403137 41.09295288 -1.50918579 39.84490967 C-1.4878438 35.97936036 -1.43119814 32.11518311 -1.375 28.25 C-1.35849496 25.63152326 -1.34414636 23.01303198 -1.33203125 20.39453125 C-1.29804238 15.62384842 -1.26349781 10.85330016 -1.19287109 6.08300781 C-1.18001068 5.12324036 -1.16715027 4.1634729 -1.15390015 3.17462158 C-1 1 -1 1 0 0 Z " fill="#845636" transform="translate(367,28)"/>
<path d="M0 0 C2.75504095 0.40815421 3.93481685 0.9388908 6 2.875 C9.91310904 5.64678557 13.69607092 6.26642098 18.35546875 7.19140625 C21 8 21 8 23 11 C23.51319996 14.33579974 23.32222026 15.55843891 21.3125 18.3125 C19 20 19 20 16.5 20.5 C13.10481526 19.82096305 12.06161434 18.77251584 10 16 C8.75 12.25 8.75 12.25 8 9 C3.58937864 7.9742741 1.07369424 7.96315288 -3 10 C-2.175 9.21625 -1.35 8.4325 -0.5 7.625 C2.22988506 5.36278736 2.22988506 5.36278736 2 3 C1.34 2.01 0.68 1.02 0 0 Z " fill="#8B5E3F" transform="translate(212,55)"/>
<path d="M0 0 C0.91652344 -0.02449219 1.83304688 -0.04898437 2.77734375 -0.07421875 C8.88673136 -0.10036449 13.71496691 0.74473732 18.75 4.375 C22.15834734 8.65728256 23.86136015 12.1613839 23.91113281 17.61523438 C23.92074036 18.46621704 23.9303479 19.31719971 23.94024658 20.19396973 C23.94449646 21.10964722 23.94874634 22.02532471 23.953125 22.96875 C23.95882507 23.91182007 23.96452515 24.85489014 23.97039795 25.82653809 C23.97984217 27.82038248 23.98637964 29.81424244 23.99023438 31.80810547 C23.99996252 34.86323028 24.03100042 37.91768869 24.0625 40.97265625 C24.06902794 42.90885017 24.07427923 44.8450489 24.078125 46.78125 C24.0904718 47.69692749 24.1028186 48.61260498 24.11553955 49.55603027 C24.11253845 50.40701294 24.10953735 51.25799561 24.10644531 52.13476562 C24.11191376 53.25703552 24.11191376 53.25703552 24.11749268 54.40197754 C23.65456273 56.88739081 22.65744053 57.78088362 20.75 59.375 C20.76332367 58.53387917 20.76332367 58.53387917 20.7769165 57.67576599 C20.86567311 51.81934848 20.9258512 45.96312323 20.96972656 40.10620117 C20.98979439 37.92285394 21.01705505 35.73956014 21.05175781 33.55639648 C21.10048782 30.41116115 21.12301755 27.2666388 21.140625 24.12109375 C21.16127014 23.1510289 21.18191528 22.18096405 21.20318604 21.1815033 C21.20520984 15.01593468 20.35287536 11.42094793 16.75 6.375 C12.26090818 2.22534802 6.58758628 2.89573409 0.8125 2.9375 C-0.16396484 2.91751953 -1.14042969 2.89753906 -2.14648438 2.87695312 C-9.80039093 2.88214221 -13.0746671 4.36678988 -18.625 9.625 C-19.16125 10.2025 -19.6975 10.78 -20.25 11.375 C-19.77591957 7.10827616 -17.36692878 5.1294952 -14.25 2.375 C-9.67651661 -0.37647815 -5.19996764 0.00719221 0 0 Z " fill="#855636" transform="translate(174.25,21.625)"/>
<path d="M0 0 C0.99 0.495 0.99 0.495 2 1 C2 16.18 2 31.36 2 47 C9.95815066 46.80293701 9.95815066 46.80293701 17.91455078 46.54956055 C27.10795307 46.43477262 27.10795307 46.43477262 30.78125 49.34375 C33 52 33 52 33.375 54.8125 C33.25125 55.534375 33.1275 56.25625 33 57 C32.34 57 31.68 57 31 57 C30.71125 56.030625 30.4225 55.06125 30.125 54.0625 C29.35785318 50.89335797 29.35785318 50.89335797 27 50 C24.9692523 49.84588894 22.93393579 49.75017547 20.8984375 49.68359375 C19.80708496 49.64548584 18.71573242 49.60737793 17.59130859 49.56811523 C16.19992676 49.52501221 14.80854492 49.48190918 13.375 49.4375 C8.96125 49.293125 4.5475 49.14875 0 49 C0 32.83 0 16.66 0 0 Z " fill="#845636" transform="translate(380,26)"/>
<path d="M0 0 C0.66 0.33 1.32 0.66 2 1 C2.33799912 4.63349052 2.29240214 6.52155155 0.36425781 9.67651367 C-2 12 -2 12 -4.84082031 12.56762695 C-6.44328613 12.52835083 -6.44328613 12.52835083 -8.078125 12.48828125 C-9.81835938 12.46411133 -9.81835938 12.46411133 -11.59375 12.43945312 C-12.8003125 12.39755859 -14.006875 12.35566406 -15.25 12.3125 C-17.08304687 12.27866211 -17.08304687 12.27866211 -18.953125 12.24414062 C-21.96998502 12.18521758 -24.98437515 12.10299265 -28 12 C-28 15.3 -28 18.6 -28 22 C-19.75 22 -11.5 22 -3 22 C-2.67 22.66 -2.34 23.32 -2 24 C-11.24 24 -20.48 24 -30 24 C-30 19.38 -30 14.76 -30 10 C-28.07414062 9.95101562 -26.14828125 9.90203125 -24.1640625 9.8515625 C-21.65102655 9.7765465 -19.13800644 9.70099818 -16.625 9.625 C-15.35398437 9.5940625 -14.08296875 9.563125 -12.7734375 9.53125 C-11.56171875 9.49257813 -10.35 9.45390625 -9.1015625 9.4140625 C-7.98088379 9.3826416 -6.86020508 9.3512207 -5.70556641 9.31884766 C-2.85289588 9.26588797 -2.85289588 9.26588797 -1 7 C-0.59952556 4.67724823 -0.2602896 2.34260643 0 0 Z " fill="#845636" transform="translate(357,26)"/>
<path d="M0 0 C0.33 0 0.66 0 1 0 C1.00586624 0.68238235 1.01173248 1.36476471 1.01777649 2.06782532 C1.0816067 9.15673985 1.16599941 16.24519602 1.26245117 23.33374023 C1.29574872 25.98081426 1.32376542 28.62796011 1.34643555 31.27514648 C1.37989211 35.0756701 1.43220486 38.87553255 1.48828125 42.67578125 C1.49786613 44.45714226 1.49786613 44.45714226 1.50764465 46.27449036 C1.52743881 47.37540512 1.54723297 48.47631989 1.56762695 49.6105957 C1.57873001 50.58100296 1.58983307 51.55141022 1.60127258 52.55122375 C2.06716633 55.41250063 2.68893369 56.30131544 5 58 C7.60611077 58.72197162 7.60611077 58.72197162 10 59 C10 59.66 10 60.32 10 61 C6.29632074 61.43066038 4.4885638 61.31774042 1.32568359 59.26074219 C-2.64498359 54.99686054 -1.6286137 48.96301395 -1.5234375 43.515625 C-1.51873444 42.30428894 -1.51403137 41.09295288 -1.50918579 39.84490967 C-1.4878438 35.97936036 -1.43119814 32.11518311 -1.375 28.25 C-1.35849496 25.63152326 -1.34414636 23.01303198 -1.33203125 20.39453125 C-1.29804238 15.62384842 -1.26349781 10.85330016 -1.19287109 6.08300781 C-1.18001068 5.12324036 -1.16715027 4.1634729 -1.15390015 3.17462158 C-1 1 -1 1 0 0 Z " fill="#845636" transform="translate(100,28)"/>
<path d="M0 0 C6.27 0 12.54 0 19 0 C19 0.66 19 1.32 19 2 C13.39 2 7.78 2 2 2 C2 17.18 2 32.36 2 48 C1.34 48 0.68 48 0 48 C0 32.16 0 16.32 0 0 Z " fill="#845636" transform="translate(282,36)"/>
<path d="M0 0 C9.24 0 18.48 0 28 0 C27.67 0.66 27.34 1.32 27 2 C18.75 2 10.5 2 2 2 C2 4.97 2 7.94 2 11 C10.25 11 18.5 11 27 11 C27.33 11.66 27.66 12.32 28 13 C18.76 13 9.52 13 0 13 C0 8.71 0 4.42 0 0 Z " fill="#845636" transform="translate(327,62)"/>
<path d="M0 0 C6.27 0 12.54 0 19 0 C19 7.59 19 15.18 19 23 C18.34 22.67 17.68 22.34 17 22 C17 15.4 17 8.8 17 2 C12.05 2 7.1 2 2 2 C2 8.6 2 15.2 2 22 C1.34 22 0.68 22 0 22 C0 14.74 0 7.48 0 0 Z " fill="#845636" transform="translate(113,62)"/>
<path d="M0 0 C1.17755913 2.94389782 1.03348696 3.89953913 0 7 C0.33 7.99 0.66 8.98 1 10 C-6.33834586 10.36090226 -6.33834586 10.36090226 -9.0625 8.875 C-10.46771358 6.06457284 -9.72549141 3.96791942 -9 1 C-3.375 -1.125 -3.375 -1.125 0 0 Z " fill="#A06944" transform="translate(234,38)"/>
<path d="M0 0 C6.39075249 -0.36174071 6.39075249 -0.36174071 9 1.1875 C10 3 10 3 9.6875 5.6875 C9.460625 6.450625 9.23375 7.21375 9 8 C6.6875 8.6875 6.6875 8.6875 4 9 C2.25 7.9375 2.25 7.9375 1 6 C0.3125 2.8125 0.3125 2.8125 0 0 Z " fill="#A26842" transform="translate(223,64)"/>
<path d="M0 0 C0.33 0 0.66 0 1 0 C1.15855469 0.80824219 1.31710938 1.61648437 1.48046875 2.44921875 C3.31111471 10.83377953 4.86210204 14.24140136 12 19 C12 19.66 12 20.32 12 21 C7.72361306 20.5248459 5.76648508 18.12116265 3 15 C-0.30379364 10.75226531 -0.95633143 6.28389749 -1 1 C-0.67 0.67 -0.34 0.34 0 0 Z " fill="#8C5F40" transform="translate(209,66)"/>
<path d="M0 0 C0.804375 1.11375 0.804375 1.11375 1.625 2.25 C3.91343409 5.14729125 3.91343409 5.14729125 7.1875 7.125 C10 9 10 9 11 12 C5.77713475 10.88081459 3.36488719 8.6539919 0.00390625 4.75390625 C-0.32738281 4.17511719 -0.65867188 3.59632812 -1 3 C-0.67 2.01 -0.34 1.02 0 0 Z " fill="#906547" transform="translate(154,77)"/>
<path d="M0 0 C1.32 0.33 2.64 0.66 4 1 C4.75 4.25 4.75 4.25 5 8 C3.375 10.4375 3.375 10.4375 1 12 C-1.75 12.25 -1.75 12.25 -4 12 C-3.38125 11.731875 -2.7625 11.46375 -2.125 11.1875 C0.2995233 10.04443152 0.2995233 10.04443152 2 7 C2.16713569 4.37468476 2.16713569 4.37468476 2 2 C1.34 2 0.68 2 0 2 C0 1.34 0 0.68 0 0 Z " fill="#916749" transform="translate(230,63)"/>
<path d="M0 0 C0 0.66 0 1.32 0 2 C-1.98 2.33 -3.96 2.66 -6 3 C-6 5.31 -6 7.62 -6 10 C-6.99 10 -7.98 10 -9 10 C-9.32523926 6.42236811 -9.42956587 4.60457419 -7.3125 1.625 C-4.61209763 -0.27258004 -3.22939919 -0.35882213 0 0 Z " fill="#8E6446" transform="translate(231,36)"/>
<path d="M0 0 C4.63949148 1.85579659 7.6378363 4.34117479 11 8 C10.67 8.99 10.34 9.98 10 11 C8.88625 9.8553125 8.88625 9.8553125 7.75 8.6875 C4.67504402 5.68242938 1.56742329 3.37828219 -2 1 C-1.34 0.67 -0.68 0.34 0 0 Z " fill="#91674A" transform="translate(235,23)"/>
<path d="M0 0 C5.75762866 2.22453834 7.38478377 4.6689823 10 10 C9.34 10.66 8.68 11.32 8 12 C7.443125 10.9275 6.88625 9.855 6.3125 8.75 C4.3888343 5.35083445 2.23430162 3.24604279 -1 1 C-0.67 0.67 -0.34 0.34 0 0 Z " fill="#8C6042" transform="translate(187,23)"/>
<path d="M0 0 C0.66 0.33 1.32 0.66 2 1 C2.36923077 6.41538462 2.36923077 6.41538462 0.5 9.375 C0.005 9.91125 -0.49 10.4475 -1 11 C-1.99 10.67 -2.98 10.34 -4 10 C-3.525625 9.46375 -3.05125 8.9275 -2.5625 8.375 C-0.71813924 5.57157164 -0.37543153 3.30379742 0 0 Z " fill="#8C5F41" transform="translate(357,77)"/>
<path d="M0 0 C0 0.66 0 1.32 0 2 C-1.98600337 3.3540932 -3.98817543 4.68457624 -6 6 C-7.36886951 7.29682374 -8.7169291 8.61823134 -10 10 C-9.52723148 5.74508335 -7.07452523 3.77457155 -4 1 C-2 0 -2 0 0 0 Z " fill="#895C3D" transform="translate(164,23)"/>
<path d="M0 0 C0.556875 0.474375 1.11375 0.94875 1.6875 1.4375 C4.18346074 3.12395996 6.0446237 3.58953107 9 4 C9 4.66 9 5.32 9 6 C3.58461538 6.36923077 3.58461538 6.36923077 0.625 4.5 C0.08875 4.005 -0.4475 3.51 -1 3 C-0.67 2.01 -0.34 1.02 0 0 Z " fill="#895C3C" transform="translate(270,83)"/>
<path d="M0 0 C0.556875 0.474375 1.11375 0.94875 1.6875 1.4375 C4.18346074 3.12395996 6.0446237 3.58953107 9 4 C9 4.66 9 5.32 9 6 C3.58461538 6.36923077 3.58461538 6.36923077 0.625 4.5 C0.08875 4.005 -0.4475 3.51 -1 3 C-0.67 2.01 -0.34 1.02 0 0 Z " fill="#895C3C" transform="translate(101,83)"/>
<path d="M0 0 C0.66 0.33 1.32 0.66 2 1 C2.3125 3.6875 2.3125 3.6875 2 7 C-0.5 9.875 -0.5 9.875 -3 12 C-2.125 8.125 -2.125 8.125 -1 7 C-0.63239269 4.67182036 -0.29758419 2.3381615 0 0 Z " fill="#8B5D3E" transform="translate(357,26)"/>
<path d="M0 0 C3.875 1.75 3.875 1.75 5 4 C5.039992 5.99960012 5.04346799 8.00047242 5 10 C3 9 3 9 2 6.0625 C1.67 5.051875 1.34 4.04125 1 3 C0.34 2.34 -0.32 1.68 -1 1 C-0.67 0.67 -0.34 0.34 0 0 Z " fill="#8A5C3C" transform="translate(301,23)"/>
<path d="M0 0 C0 0.99 0 1.98 0 3 C-2.5 5.1875 -2.5 5.1875 -5 7 C-5.66 6.67 -6.32 6.34 -7 6 C-2.25 1.125 -2.25 1.125 0 0 Z " fill="#8B5C3C" transform="translate(244,80)"/>
<path d="M0 0 C0.66 0.66 1.32 1.32 2 2 C0.35 3.65 -1.3 5.3 -3 7 C-3.66 6.67 -4.32 6.34 -5 6 C-3.35 4.02 -1.7 2.04 0 0 Z " fill="#8E6346" transform="translate(216,26)"/>
</svg>
