<?xml version="1.0" encoding="UTF-8"?>
<svg version="1.1" xmlns="http://www.w3.org/2000/svg" width="512" height="512">
<path d="M0 0 C8.81064521 7.50291826 14.85781845 16.01088526 18.41796875 27.03125 C18.75634766 28.03671875 18.75634766 28.03671875 19.1015625 29.0625 C20.53790726 34.21352948 20.65112698 39.40455193 20.73046875 44.71875 C20.74819336 45.44392822 20.76591797 46.16910645 20.78417969 46.91625977 C20.77638313 52.57590851 19.52108028 56.56604615 15.76171875 60.97265625 C-2.44983432 76.98493279 -28.79499433 75.95478879 -51.58203125 75.03125 C-57.38879759 74.54752077 -62.94507536 73.48271922 -68.58203125 72.03125 C-69.67128906 71.7528125 -70.76054687 71.474375 -71.8828125 71.1875 C-82.00122763 68.20468893 -91.26997521 63.41588234 -96.58203125 54.03125 C-99.9317832 43.06842542 -96.4430246 28.74971983 -91.921875 18.49609375 C-84.3728276 4.60848759 -73.51883741 -4.0691602 -58.58203125 -8.96875 C-39.87503242 -14.47419958 -15.69920539 -11.97034722 0 0 Z " fill="#324D5B" transform="translate(266.58203125,256.96875)"/>
<path d="M0 0 C9.92639582 7.77421266 16.43496708 20.68634949 18.7265625 32.953125 C20.66238597 50.89873174 20.66238597 50.89873174 17.140625 57.2578125 C7.62312321 69.04264159 -8.34849042 72.77288679 -22.75390625 74.3515625 C-44.42310224 75.99372649 -71.57868594 76.03158998 -89.984375 62.6328125 C-95.30731087 57.61579248 -98.98000072 53.04088356 -99.234375 45.5703125 C-98.75023035 28.34045879 -92.85073365 12.80716469 -80.234375 0.8203125 C-57.94212938 -17.33567661 -22.9537023 -15.81455867 0 0 Z " fill="#334D5B" transform="translate(267.984375,77.3671875)"/>
<path d="M0 0 C10.75282497 9.06355941 16.95890538 21.08292416 19.1484375 34.9296875 C20.37899249 52.59694129 20.37899249 52.59694129 15.7421875 58.3671875 C15.21625 58.8828125 14.6903125 59.3984375 14.1484375 59.9296875 C13.32859375 60.7340625 13.32859375 60.7340625 12.4921875 61.5546875 C-1.38107392 73.3116887 -21.73021283 74.51622582 -39.1015625 74.3671875 C-40.24943741 74.36212692 -40.24943741 74.36212692 -41.42050171 74.35696411 C-59.01715091 74.24474322 -78.27515217 73.07834056 -92.1953125 60.875 C-97.07728652 55.57285609 -99.31385004 51.12674864 -99.09375 43.765625 C-97.65946327 26.97059006 -92.61418186 12.64447276 -79.8515625 0.9296875 C-57.88168962 -17.55064318 -22.72385476 -16.49814112 0 0 Z " fill="#324D5B" transform="translate(268.8515625,438.0703125)"/>
<path d="M0 0 C7.9385227 6.83149935 12.26740582 16.5032009 13.37890625 26.80859375 C13.67885592 34.09446801 13.67885592 34.09446801 11.33203125 37.06640625 C0.34129309 45.8249463 -17.2635092 46.13575445 -30.6875 46.1875 C-31.71633301 46.19297852 -32.74516602 46.19845703 -33.80517578 46.20410156 C-45.3794207 46.09677843 -56.16131333 44.11871953 -66.9375 39.875 C-67.97003906 39.49794922 -67.97003906 39.49794922 -69.0234375 39.11328125 C-70.6875 38.3125 -70.6875 38.3125 -72.9375 35.875 C-74.93278141 25.62573398 -71.02630943 15.65741481 -65.6015625 7.1328125 C-51.78143483 -11.61844054 -18.07594728 -12.5965827 0 0 Z " fill="#71D4C1" transform="translate(258.9375,271.125)"/>
<path d="M0 0 C8.40289197 6.13642386 12.67760309 13.58379486 14.703125 23.78125 C15.32890124 27.97123006 15.76194392 31.98323385 15.0625 36.1875 C10.12176104 42.66157174 -1.00060007 44.45622099 -8.67675781 45.78613281 C-14.47358267 46.49966831 -20.26584534 46.52108445 -26.09741211 46.50317383 C-28.23668755 46.50001963 -30.37456668 46.52354087 -32.51367188 46.54882812 C-46.0751326 46.61121356 -59.40318232 44.87704512 -70.9375 37.1875 C-72.7086008 28.42773117 -69.90463289 18.42059893 -65.58203125 10.796875 C-51.08186109 -9.57333724 -20.66968574 -12.78572601 0 0 Z " fill="#FD7F7F" transform="translate(256.9375,89.8125)"/>
<path d="M0 0 C0.9792041 0.00418945 1.9584082 0.00837891 2.96728516 0.01269531 C9.77516895 0.11929886 15.90514196 0.67449451 22.25 3.3125 C23.32894531 3.73015625 23.32894531 3.73015625 24.4296875 4.15625 C33.63002471 8.18356742 38.47774055 15.26497147 42.25 24.3125 C44.5940732 30.3401168 45.56635331 36.93045602 44.25 43.3125 C42.01588546 46.00884514 39.4817595 47.08497454 36.25 48.3125 C35.23873047 48.74949219 35.23873047 48.74949219 34.20703125 49.1953125 C14.91899171 56.64997694 -14.43191773 56.23421921 -33.4296875 48.3515625 C-34.19539062 48.00867188 -34.96109375 47.66578125 -35.75 47.3125 C-36.966875 46.8175 -38.18375 46.3225 -39.4375 45.8125 C-42.2022812 42.82354736 -42.20539881 41.73305825 -42.375 37.75 C-41.81312753 27.25320064 -37.66436402 16.71822871 -29.796875 9.52734375 C-20.44905323 2.26672646 -11.62349784 -0.06724501 0 0 Z " fill="#FDD375" transform="translate(227.75,442.6875)"/>
<path d="M0 0 C1.92392578 -0.04253906 1.92392578 -0.04253906 3.88671875 -0.0859375 C7.3125 0.375 7.3125 0.375 9.73828125 2.11328125 C11.49790733 4.64137926 11.85377092 5.88861108 11.8125 8.9375 C11.8228125 9.70191406 11.833125 10.46632812 11.84375 11.25390625 C11.3125 13.375 11.3125 13.375 9.76171875 15.06640625 C6.50116433 16.80848876 3.23420385 17.23511764 -0.375 17.75 C-10.00097508 19.36860354 -16.93222982 22.35809863 -23.1796875 30.16015625 C-28.78067846 38.38751861 -29.76188643 46.55850087 -28.6875 56.375 C-26.92135739 64.65598656 -21.96556538 70.85969023 -15.6875 76.375 C-8.14878969 81.25167314 -0.32839224 83.67454442 8.66796875 81.9140625 C19.03566602 79.18149113 25.51190219 74.38843505 30.94140625 65.109375 C33.4888609 60.02898112 34.24650454 55.26606694 34.6875 49.625 C34.99292745 46.40412872 35.18993401 45.53314966 37.25 42.875 C41.11279626 40.06569363 43.54281201 40.20902023 48.1796875 40.8203125 C50.3125 41.375 50.3125 41.375 52.375 43.375 C55.46209972 53.25371909 52.23709571 64.05246176 47.6875 73 C40.514507 85.26122449 30.23490154 94.57564467 16.515625 98.65625 C0.49690526 102.25069443 -12.77671319 99.5792421 -26.6875 91.375 C-36.95568732 84.63307629 -43.2302446 72.68752841 -46.30078125 61.05078125 C-48.49511252 45.86778203 -46.44451371 31.68501152 -37.65625 18.875 C-28.48118892 7.22412879 -14.87859948 0.15044084 0 0 Z " fill="#314C5A" transform="translate(82.6875,207.625)"/>
<path d="M0 0 C2.40852455 4.12889922 2.36107924 6.26413589 1.75 11 C-0.05325692 13.83178123 -1.39948794 14.03325687 -4.7265625 14.7734375 C-6.1083889 14.98064467 -7.4912799 15.18084102 -8.875 15.375 C-15.55040021 16.45334541 -20.5649333 18.25527128 -26.25 22 C-26.94609375 22.29777344 -27.6421875 22.59554688 -28.359375 22.90234375 C-30.7609007 24.29661797 -31.19432165 25.45821651 -32.25 28 C-32.66378906 28.81597656 -33.07757813 29.63195312 -33.50390625 30.47265625 C-33.93574219 31.32730469 -34.36757813 32.18195313 -34.8125 33.0625 C-35.24691406 33.91972656 -35.68132813 34.77695312 -36.12890625 35.66015625 C-39.80118801 43.32460495 -39.31337941 52.82875885 -36.75 60.8125 C-33.03819689 69.62478781 -27.15713672 75.17634494 -18.546875 79.125 C-10.9549668 82.0171555 -3.07049133 81.92928645 4.5234375 79.03125 C13.29450768 74.9688596 19.13633173 69.66166668 22.7109375 60.55078125 C24.3144294 55.49422513 25.31779974 50.36729962 26.125 45.12890625 C26.86536666 42.6070323 27.67614691 41.59224739 29.75 40 C34.3428774 38.89430729 37.61913463 38.52148078 41.75 41 C45.36599582 46.92972741 44.02994442 53.45906638 42.5625 59.9375 C38.65309496 74.21768784 30.60476992 85.49137271 17.75 93 C5.10513338 99.7907617 -8.59803906 100.9033844 -22.41015625 96.96484375 C-34.83077725 92.74490787 -45.13019203 84.77919152 -51.25 73 C-57.1828882 59.15023526 -58.61443099 44.28889878 -53.51171875 29.9296875 C-47.68625858 16.40307719 -38.80418498 6.40082252 -25.07421875 0.67578125 C-17.0316655 -2.06928184 -7.65772158 -4.71244405 0 0 Z " fill="#314C5A" transform="translate(92.25,389)"/>
<path d="M0 0 C1.55460305 3.10920609 1.72720693 6.63083028 1 10 C-2.19448632 13.43900255 -5.48156282 13.4594971 -10 13.8125 C-19.97683059 14.86980071 -28.73908306 18.60082287 -35.6015625 26.1328125 C-41.83394224 34.45425807 -42.79137361 42.79016587 -42 53 C-41.13171439 56.35406326 -39.82414972 59.06549827 -38 62 C-37.34644531 63.06347656 -37.34644531 63.06347656 -36.6796875 64.1484375 C-31.97242125 71.06786166 -26.00711792 74.75169595 -18 77 C-8.23707619 77.99480029 0.16678438 77.18249661 8.25 71.38671875 C17.81205328 63.45935472 20.60953058 54.07198219 22.27734375 42.12890625 C23.23694727 39.30196615 24.42897657 38.45798645 27 37 C30.78586722 36.24578427 34.03837365 36.48220119 37.4375 38.3125 C40.40421717 41.51655455 40.2791067 45.08202709 40.2109375 49.28125 C39.07814999 63.88162235 32.87855576 76.22096136 22 86 C9.0122609 95.30700333 -3.38165418 97.2602905 -19 96 C-22.57601236 95.39150468 -25.684754 94.45239348 -29 93 C-29.66644531 92.74476562 -30.33289063 92.48953125 -31.01953125 92.2265625 C-43.76044199 86.74822218 -51.99304843 75.24370243 -57.01953125 62.83203125 C-61.13222354 50.95274076 -59.98689927 37.39653156 -55 26 C-48.08026276 12.82851996 -38.12403153 3.6874815 -23.75 -0.875 C-15.84149756 -2.94084278 -6.97055629 -5.17812753 0 0 Z " fill="#314D5A" transform="translate(95,31)"/>
<path d="M0 0 C6.68184725 7.25457701 10.83156301 16.03809141 10.49609375 26.04296875 C9.28971958 35.15949257 6.51779032 43.50243787 -0.8125 49.375 C-8.47002692 54.14898944 -16.08986524 56.69054047 -25.16796875 54.9140625 C-34.61190734 52.42496241 -41.58315108 48.04214321 -46.66015625 39.58984375 C-50.7692729 31.69198225 -50.8685224 22.87925843 -48.875 14.3125 C-46.33393523 6.79718109 -40.51696417 0.45238591 -33.5 -3.1875 C-21.85766891 -7.72603585 -10.74958922 -6.21087377 0 0 Z " fill="#324D5B" transform="translate(249.8125,364.625)"/>
<path d="M0 0 C8.0318946 4.62660118 11.9209809 10.42034663 14.43359375 19.2578125 C16.53203711 28.9749286 14.6565695 37.66327667 9.43359375 46.0703125 C5.12248437 52.11013406 0.32051565 55.28395367 -6.81640625 57.2578125 C-16.8422904 58.21584143 -25.94251868 57.8751989 -34.0625 51.4921875 C-40.22659501 45.74657233 -44.37917434 39.06795192 -45.01953125 30.55859375 C-45.17020153 20.95336348 -43.72268657 12.38577589 -36.81640625 5.2578125 C-26.09393114 -3.34395126 -12.80288265 -6.0125196 0 0 Z " fill="#324D5B" transform="translate(244.81640625,182.7421875)"/>
<path d="M0 0 C0.59941406 0.38800781 1.19882813 0.77601562 1.81640625 1.17578125 C2.86828125 1.83578125 3.92015625 2.49578125 5.00390625 3.17578125 C11.49304488 8.97612863 14.49570086 18.4453767 15.06640625 26.86328125 C14.90617838 35.37138123 11.95520294 43.21566055 5.81640625 49.17578125 C-3.0713764 55.62047672 -10.26478283 57.05734615 -21.18359375 56.17578125 C-29.31741705 54.28736913 -36.00887681 49.77991054 -40.75390625 42.8984375 C-45.33681682 35.02892534 -46.72056092 26.47179136 -44.53515625 17.51953125 C-41.58777309 9.35754711 -36.9489671 3.30479895 -29.24609375 -0.82421875 C-20.29380319 -4.46687491 -8.60029882 -4.74893161 0 0 Z " fill="#324D5B" transform="translate(245.18359375,2.82421875)"/>
<path d="M0 0 C1.15805145 -0.00571014 2.31610291 -0.01142029 3.50924683 -0.01730347 C4.78100769 -0.01842133 6.05276855 -0.01953918 7.36306763 -0.02069092 C8.71498754 -0.02531987 10.06690615 -0.03034464 11.41882324 -0.03573608 C15.09241738 -0.04885377 18.76599325 -0.05530369 22.43960714 -0.05974674 C24.73471542 -0.0626782 27.02981871 -0.06678313 29.32492447 -0.07125092 C36.50582922 -0.08492355 43.68672256 -0.09459162 50.86763942 -0.09845281 C59.15706539 -0.10293457 67.44632655 -0.12048881 75.7357024 -0.1494534 C82.14343475 -0.17106616 88.55112071 -0.18115685 94.95888913 -0.18249393 C98.78594938 -0.18354216 102.61285467 -0.18945378 106.43987656 -0.20731354 C110.03993713 -0.22378754 113.63972612 -0.22595316 117.23981094 -0.21717453 C119.18903832 -0.2160366 121.13825665 -0.22975878 123.08743286 -0.243927 C124.83296951 -0.23557327 124.83296951 -0.23557327 126.61376953 -0.22705078 C127.62292356 -0.22851734 128.6320776 -0.2299839 129.67181206 -0.2314949 C132.9158424 0.20534421 134.80261934 1.22328156 137.43386841 3.14044189 C139.01284894 6.29840296 139.25315012 9.74714825 138.43386841 13.14044189 C136.78956861 15.65199228 135.98686154 16.69841866 133.43386841 18.14044189 C128.99692168 18.91318226 124.58798325 18.82285837 120.09402466 18.78741455 C118.72209514 18.79419346 117.35017472 18.80309813 115.97827148 18.81396484 C112.25911466 18.83673319 108.54065236 18.82793268 104.82148361 18.81206942 C100.92671609 18.79939736 97.03200744 18.81115414 93.13723755 18.81900024 C86.59700866 18.82809306 80.05706221 18.81611877 73.51687622 18.79229736 C65.95890576 18.7650865 58.40160971 18.77390095 50.84365559 18.80142939 C44.35090271 18.82413016 37.85835268 18.8273159 31.36557293 18.81423604 C27.48931005 18.80644674 23.61336402 18.80538526 19.73712158 18.82191849 C16.09247444 18.83637844 12.44869548 18.82631535 8.804142 18.7974472 C6.83111001 18.78769816 4.85800447 18.80252372 2.88500977 18.81808472 C-6.75636918 18.70265366 -6.75636918 18.70265366 -9.86276245 15.73110962 C-12.50141252 11.71796566 -12.16706435 9.87278735 -11.56613159 5.14044189 C-8.84297784 0.08315636 -5.3654374 0.01582742 0 0 Z " fill="#314D5A" transform="translate(337.5661315917969,472.85955810546875)"/>
<path d="M0 0 C1.37192952 -0.00677891 2.74384994 -0.01568358 4.11575317 -0.02655029 C7.83490999 -0.04931864 11.5533723 -0.04051813 15.27254105 -0.02465487 C19.16730857 -0.0119828 23.06201722 -0.02373959 26.95678711 -0.03158569 C33.497016 -0.04067851 40.03696245 -0.02870422 46.57714844 -0.00488281 C54.1351189 0.02232805 61.69241495 0.0135136 69.25036907 -0.01401484 C75.74312195 -0.03671561 82.23567198 -0.03990135 88.72845173 -0.02682149 C92.60471461 -0.01903219 96.48066064 -0.01797071 100.35690308 -0.03450394 C104.00155021 -0.04896389 107.64532918 -0.0389008 111.28988266 -0.01003265 C113.26291464 -0.00028361 115.23602019 -0.01510917 117.20901489 -0.03067017 C126.85034881 0.08476035 126.85034881 0.08476035 129.95458984 3.05630493 C132.61192242 7.09265656 132.3404091 8.88520269 131.66015625 13.64697266 C129.79000531 16.07816888 128.3787728 17.28766438 125.66015625 18.64697266 C123.84706443 18.74890893 122.030218 18.78645497 120.21427917 18.79414368 C118.47926399 18.80487663 118.47926399 18.80487663 116.709198 18.81582642 C115.43384186 18.81851532 114.15848572 18.82120422 112.84448242 18.82397461 C111.4927096 18.83023858 110.14093851 18.83688532 108.78916931 18.84388733 C105.11138936 18.86130297 101.43362242 18.87185059 97.75581145 18.88009286 C95.45853115 18.88524179 93.16125488 18.89131757 90.86397743 18.89760399 C83.67773304 18.91665759 76.49149894 18.9308884 69.30523413 18.93921596 C61.00725952 18.94899027 52.70955152 18.97531391 44.41167086 19.01571685 C37.99971355 19.04586676 31.5878327 19.06068374 25.17580587 19.06399697 C21.34532145 19.06634875 17.51512181 19.07532523 13.68471336 19.10045815 C10.08050562 19.12372457 6.47677044 19.12797823 2.8725071 19.11769676 C0.92086369 19.11696468 -1.03075564 19.13606604 -2.9822998 19.15576172 C-4.7300042 19.14534599 -4.7300042 19.14534599 -6.51301575 19.13471985 C-8.02869503 19.13830238 -8.02869503 19.13830238 -9.57499409 19.14195728 C-13.094794 18.51181566 -14.77740625 17.0884088 -17.33984375 14.64697266 C-18.90919969 11.50826078 -18.69185478 9.10841444 -18.33984375 5.64697266 C-14.01920456 -1.2315742 -7.44557243 -0.05872317 0 0 Z " fill="#324D5A" transform="translate(344.33984375,291.35302734375)"/>
<path d="M0 0 C1.1257695 -0.00426498 2.251539 -0.00852997 3.41142273 -0.01292419 C5.25756668 -0.01224442 5.25756668 -0.01224442 7.14100647 -0.0115509 C9.09030312 -0.01658882 9.09030312 -0.01658882 11.07897949 -0.02172852 C14.64095293 -0.03055745 18.20290234 -0.03290614 21.76488566 -0.0335443 C23.99081786 -0.03425534 26.21674396 -0.03639067 28.44267464 -0.03904152 C36.20963555 -0.04829072 43.9765793 -0.05237687 51.74354553 -0.05158997 C58.98149103 -0.05098903 66.21936204 -0.06154509 73.45728868 -0.07733363 C79.6739601 -0.09041084 85.89060717 -0.0957738 92.10729223 -0.09513456 C95.81916363 -0.09487966 99.53096878 -0.09772659 103.24282646 -0.10831261 C107.38211536 -0.11979565 111.52123731 -0.11524567 115.66053772 -0.10920715 C116.88927612 -0.11482666 118.11801453 -0.12044617 119.38398743 -0.12623596 C120.51257675 -0.12204147 121.64116608 -0.11784698 122.80395508 -0.11352539 C123.78231292 -0.11407016 124.76067076 -0.11461493 125.7686758 -0.1151762 C129.59717528 0.2381587 132.45124951 1.18943912 135.27796936 3.82121277 C136.9838085 7.14311003 136.91799502 9.44886095 136.46546936 13.13371277 C134.50687857 16.29010668 133.46598492 17.89883749 129.78519535 18.76291847 C128.24079352 18.76574616 128.24079352 18.76574616 126.66519165 18.76863098 C125.48052307 18.7827301 124.29585449 18.79682922 123.07528687 18.81135559 C121.77906906 18.80123444 120.48285126 18.79111328 119.14735413 18.78068542 C117.76572009 18.78746214 116.38409508 18.79636559 115.00248718 18.80723572 C111.25228271 18.83003219 107.50276592 18.82119135 103.75254941 18.80534029 C99.82707953 18.79268028 95.90166848 18.8044219 91.97619629 18.81227112 C85.38291353 18.82136851 78.78991078 18.80937874 72.19667053 18.78556824 C64.57680666 18.75836779 56.95761192 18.76716243 49.33776432 18.79470026 C42.79407706 18.81740144 36.25059109 18.82058624 29.70687717 18.80750692 C25.79930116 18.79971639 21.89203947 18.7986593 17.98448372 18.81518936 C14.30948377 18.82964947 10.63534484 18.81958585 6.96043777 18.79071808 C4.97069732 18.78096825 2.98088392 18.79579525 0.99118042 18.81135559 C-8.73111793 18.69592216 -8.73111793 18.69592216 -11.83569336 15.72438049 C-14.48362881 11.6863711 -14.21438015 9.89265937 -13.53453064 5.13371277 C-9.92642463 0.10813654 -5.83379275 0.00999665 0 0 Z " fill="#314C5A" transform="translate(339.53453063964844,109.86628723144531)"/>
<path d="M0 0 C1.0086763 -0.00394272 2.0173526 -0.00788544 3.05659485 -0.01194763 C6.38711376 -0.01865461 9.71625888 0.01049815 13.04663086 0.04077148 C15.36160517 0.04502187 17.67658373 0.04735019 19.99156189 0.0478363 C24.84125098 0.05400157 29.69047818 0.07670278 34.54003906 0.11230469 C40.76003599 0.1576021 46.97961476 0.17233199 53.19976139 0.1760416 C57.97895948 0.18046782 62.75806961 0.19576712 67.53722954 0.21491814 C69.83098056 0.22380416 72.12474098 0.23053231 74.41850471 0.23507881 C77.62161197 0.24411048 80.82433923 0.26649181 84.02734375 0.29296875 C85.45270447 0.29396576 85.45270447 0.29396576 86.90686035 0.29498291 C88.21687767 0.3099456 88.21687767 0.3099456 89.55335999 0.32521057 C90.31011048 0.32986108 91.06686098 0.33451159 91.84654331 0.33930302 C94.26637326 0.63862616 95.87026895 1.34038369 97.94897461 2.59936523 C100.25464774 5.82730761 100.27266893 8.71503343 99.94897461 12.59936523 C99.07693738 15.21547691 98.50744409 16.26130888 96.14320278 17.69244671 C93.77244497 18.67232848 92.14512331 18.85306567 89.59132385 18.86006165 C88.72639313 18.86714645 87.8614624 18.87423126 86.97032166 18.88153076 C86.02943192 18.87905334 85.08854218 18.87657593 84.11914062 18.87402344 C83.12197021 18.87913437 82.1247998 18.8842453 81.09741211 18.88951111 C77.79917408 18.90341803 74.50114474 18.90244952 71.20288086 18.90014648 C68.91128969 18.90403273 66.61969925 18.90836725 64.32810974 18.91313171 C59.52389186 18.92059624 54.71974746 18.92030088 49.91552734 18.91503906 C43.75722809 18.90924335 37.59922949 18.92617699 31.44097996 18.94938374 C26.70808654 18.96411094 21.97526571 18.96499416 17.24235344 18.96187401 C14.9717442 18.9623877 12.70113095 18.96763442 10.4305439 18.97768593 C7.25623117 18.99001347 4.08250635 18.9832805 0.90820312 18.97167969 C-0.03066238 18.97932343 -0.96952789 18.98696716 -1.93684387 18.99484253 C-6.77335933 18.95574739 -10.15682994 18.81446627 -14.05102539 15.59936523 C-15.63000592 12.44140417 -15.8703071 8.99265888 -15.05102539 5.59936523 C-10.73566404 -0.28738717 -6.75624982 -0.10569758 0 0 Z " fill="#324C5A" transform="translate(341.051025390625,438.400634765625)"/>
<path d="M0 0 C1.01682358 -0.0087616 2.03364716 -0.01752319 3.08128357 -0.02655029 C6.4393899 -0.04854058 9.79617737 -0.03399189 13.15429688 -0.01708984 C15.48930107 -0.02045806 17.82430356 -0.02531072 20.15930176 -0.03158569 C25.05184632 -0.03895657 29.94393431 -0.02824394 34.83642578 -0.00488281 C41.10817048 0.02360431 47.37884539 0.0072016 53.65055084 -0.02274513 C58.47186343 -0.04081183 63.29292233 -0.03506278 68.11424255 -0.02210617 C70.42671332 -0.01877046 72.73920712 -0.02286497 75.051651 -0.03450394 C78.28375259 -0.04720156 81.51412126 -0.02784872 84.74609375 0 C86.18008766 -0.01518173 86.18008766 -0.01518173 87.64305115 -0.03067017 C92.18770252 0.04188464 94.23957054 0.1722024 97.9708252 2.96865845 C100.47893352 6.50005662 100.55570855 8.39930004 99.87304688 12.64697266 C98.07742282 15.40026287 96.82049765 17.17324727 93.87304688 18.64697266 C92.5034261 18.74684235 91.12914002 18.78633172 89.75590515 18.79414368 C88.46263306 18.80487663 88.46263306 18.80487663 87.14323425 18.81582642 C86.19515396 18.81851532 85.24707367 18.82120422 84.27026367 18.82397461 C83.27338531 18.83054581 82.27650696 18.837117 81.24942017 18.84388733 C77.94036795 18.8636477 74.63136116 18.87528861 71.32226562 18.88525391 C69.6298471 18.8913672 69.6298471 18.8913672 67.9032383 18.89760399 C61.93232022 18.91847573 55.96142521 18.93277307 49.99047852 18.94213867 C43.81638218 18.95320955 37.64264561 18.98761446 31.46867657 19.02731037 C26.72721171 19.05342734 21.98583322 19.06182611 17.24430275 19.06542015 C14.96809266 19.07029829 12.69188673 19.08194695 10.41574669 19.10045815 C7.23154377 19.12474593 4.04828041 19.12390331 0.86401367 19.11694336 C-0.07799393 19.12975342 -1.02000153 19.14256348 -1.99055481 19.15576172 C-6.2362582 19.12190001 -8.51268717 19.02901585 -12.18888855 16.74259949 C-14.69766792 14.02985946 -15.08013753 13.06051044 -15.50195312 9.33447266 C-15.12695312 5.64697266 -15.12695312 5.64697266 -13.2364502 2.9569397 C-8.83647631 -0.31169006 -5.35075714 -0.05664861 0 0 Z " fill="#324D5A" transform="translate(341.126953125,259.35302734375)"/>
<path d="M0 0 C1.24691116 -0.00639748 1.24691116 -0.00639748 2.51901245 -0.01292419 C3.87424263 -0.01224442 3.87424263 -0.01224442 5.2568512 -0.0115509 C6.21500732 -0.01490952 7.17316345 -0.01826813 8.16035461 -0.02172852 C11.3286824 -0.03122994 14.49695731 -0.03318115 17.66529846 -0.03425598 C19.86720807 -0.03746883 22.06911746 -0.04083293 24.27102661 -0.04434204 C28.88691198 -0.05033108 33.50277862 -0.05218214 38.1186676 -0.05158997 C44.03476286 -0.05148829 49.95073824 -0.06514715 55.86680508 -0.08236217 C60.41439364 -0.09347693 64.96195315 -0.09550934 69.50955391 -0.09498024 C71.69084652 -0.09616089 73.87213986 -0.10058742 76.05341911 -0.10831261 C79.10308629 -0.11810292 82.15249237 -0.11523828 85.2021637 -0.10920715 C86.10362625 -0.11482666 87.00508881 -0.12044617 87.93386841 -0.12623596 C93.22832404 -0.09961122 97.54387539 0.03857857 101.60670471 3.82121277 C103.329825 7.1767628 103.3162856 9.41388642 102.79420471 13.13371277 C100.77879894 15.98137576 99.17607014 17.83320023 95.67175293 18.59527969 C92.99191914 18.78634502 90.35384377 18.80912845 87.66725159 18.78068542 C86.14201622 18.79382782 86.14201622 18.79382782 84.58596802 18.80723572 C81.22786169 18.829226 77.87107422 18.81467731 74.51295471 18.79777527 C72.17795051 18.80114348 69.84294802 18.80599614 67.50794983 18.81227112 C62.61540527 18.81964199 57.72331728 18.80892937 52.83082581 18.78556824 C46.5590811 18.75708112 40.28840619 18.77348383 34.01670074 18.80343056 C29.19538816 18.82149726 24.37432926 18.81574821 19.55300903 18.8027916 C17.24053826 18.79945589 14.92804447 18.8035504 12.61560059 18.81518936 C9.383499 18.82788698 6.15313032 18.80853415 2.92115784 18.78068542 C1.48716393 18.79586716 1.48716393 18.79586716 0.02420044 18.81135559 C-4.58024226 18.73784623 -6.56351027 18.63392742 -10.29942322 15.72438049 C-13.23241346 11.73858817 -12.89859817 9.98333297 -12.20579529 5.13371277 C-8.9435386 0.58985524 -5.33115418 0.01241068 0 0 Z " fill="#314C5A" transform="translate(338.20579528808594,77.86628723144531)"/>
<path d="M0 0 C2.69990662 1.79993774 4.5418865 3.083773 6 6 C6.5 8.625 6.5 8.625 6 12 C1.07899941 18.93513907 -5.64810459 24.81156565 -11.640625 30.80859375 C-12.65483568 31.82602494 -13.66897418 32.84352809 -14.68304443 33.86109924 C-16.7924698 35.97646675 -18.90390488 38.08980422 -21.01660156 40.2019043 C-23.72404932 42.9092496 -26.42450233 45.62346095 -29.12332535 48.33940029 C-31.20796299 50.43513498 -33.29710793 52.52633074 -35.38756561 54.61625862 C-36.38592976 55.61580226 -37.38267406 56.61696657 -38.37775421 57.61977959 C-39.76304122 59.0148385 -41.15528689 60.40297715 -42.54785156 61.79077148 C-43.33726135 62.58160629 -44.12667114 63.3724411 -44.94000244 64.1872406 C-48.35877845 67.19569967 -52.08641499 67.62327661 -56.50390625 67.56689453 C-61.69750622 66.38736214 -64.96688155 62.18997597 -68.5 58.4375 C-69.30953125 57.63763672 -70.1190625 56.83777344 -70.953125 56.01367188 C-77.37607737 49.41290287 -77.37607737 49.41290287 -78.10546875 45.0859375 C-77.98079904 41.43819403 -77.32078001 39.80094139 -75 37 C-72.3891812 34.94864237 -71.05753207 34.99748084 -67.69921875 35.14453125 C-63.22890478 36.17832086 -61.64629819 37.72523894 -58.5625 41.0625 C-57.69753906 41.98160156 -56.83257812 42.90070313 -55.94140625 43.84765625 C-55.30074219 44.55792969 -54.66007812 45.26820313 -54 46 C-48.29899015 41.26476356 -43.06713713 36.18298556 -37.85546875 30.91796875 C-37.00447098 30.06318436 -36.15347321 29.20839996 -35.27668762 28.32771301 C-32.57784863 25.61672525 -29.88228571 22.90251648 -27.1875 20.1875 C-23.62132968 16.59481774 -20.05191949 13.00540094 -16.48046875 9.41796875 C-15.65967331 8.58887497 -14.83887787 7.75978119 -13.99320984 6.90556335 C-13.23514542 6.14419571 -12.47708099 5.38282806 -11.69604492 4.59838867 C-11.02876877 3.9258757 -10.36149261 3.25336273 -9.67399597 2.56047058 C-6.56675775 -0.33604405 -4.16869958 -0.40869604 0 0 Z " fill="#324D5A" transform="translate(141,205)"/>
<path d="M0 0 C2.78227332 2.49691195 3.80269892 4.19285922 4.6875 7.8125 C2.1703127 19.48309565 -14.73156987 31.11287863 -23.16918945 39.62915039 C-25.35577606 41.83813586 -27.53214726 44.05650428 -29.70043945 46.28344727 C-32.33845127 48.99261212 -34.99332687 51.68412151 -37.66099739 54.36407661 C-38.66810047 55.38154494 -39.6692052 56.40498921 -40.663908 57.43458366 C-49.38058017 66.44143338 -49.38058017 66.44143338 -54.52075195 67.19067383 C-61.90453835 66.78601891 -66.23184224 61.19595405 -71.25 56.25 C-71.9821875 55.5590625 -72.714375 54.868125 -73.46875 54.15625 C-76.83894735 50.8359815 -78.77822853 48.7977274 -80.06640625 44.1640625 C-79.98965576 40.50712753 -79.25864587 38.84422073 -77 36 C-73.69762791 34.34881396 -70.5403396 34.22360974 -67 35 C-64.70769387 36.54337579 -62.82572054 38.23787459 -60.859375 40.17578125 C-59.01360325 41.98665396 -57.07978433 43.46981135 -55 45 C-54.44289841 44.43845718 -53.88579681 43.87691437 -53.31181335 43.2983551 C-48.06408484 38.01057397 -42.81157909 32.72760693 -37.55362225 27.4499979 C-34.85054157 24.73647427 -32.14935515 22.02111923 -29.45239258 19.30151367 C-26.85024165 16.67765275 -24.24325391 14.05868914 -21.63282204 11.44306755 C-20.63711067 10.44365712 -19.64316306 9.4424863 -18.6510067 8.43954659 C-17.26247915 7.03652924 -15.86710975 5.64029305 -14.47143555 4.24438477 C-13.67867722 3.44718521 -12.88591888 2.64998566 -12.06913757 1.82862854 C-8.13704121 -1.64641523 -4.89450249 -1.20215851 0 0 Z " fill="#314D5B" transform="translate(143,385)"/>
<path d="M0 0 C2.4375 1 2.4375 1 4 3 C5.00092527 7.13715778 5.54456364 9.60455567 4 13.5625 C0.1639047 18.23774115 -4.14752891 22.30040885 -8.73828125 26.2265625 C-13.02600545 29.96229357 -17.01953453 33.94179106 -21 38 C-24.91098558 41.98737202 -28.82016757 45.89821447 -33.0625 49.53515625 C-35.72064004 51.82014431 -38.17903682 54.17575748 -40.5625 56.74609375 C-41.13226563 57.35517578 -41.70203125 57.96425781 -42.2890625 58.59179688 C-43.44338935 59.83704673 -44.58382325 61.09530085 -45.7109375 62.36523438 C-48.70101025 65.51428158 -50.73533423 67.41637071 -55.19921875 67.5859375 C-58.90652719 67.01440999 -60.23814424 66.76185576 -62.8125 64.1875 C-63.45960937 63.55070312 -64.10671875 62.91390625 -64.7734375 62.2578125 C-65.50820312 61.51273438 -66.24296875 60.76765625 -67 60 C-67.96164063 59.13117188 -68.92328125 58.26234375 -69.9140625 57.3671875 C-78.56077955 49.45609498 -78.56077955 49.45609498 -79.4375 44.625 C-78.93564911 40.46680687 -78.02192599 38.84924451 -75 36 C-71.98221063 34.49110531 -70.37677363 34.49973724 -67 35 C-64.06708262 37.06801169 -61.53916208 39.4716659 -59 42 C-58.42636719 42.57105469 -57.85273437 43.14210937 -57.26171875 43.73046875 C-56.84535156 44.14941406 -56.42898437 44.56835938 -56 45 C-52.61195159 43.53410754 -50.41807213 41.65642269 -47.82983398 39.04101562 C-47.01896835 38.22677124 -46.20810272 37.41252686 -45.37266541 36.5736084 C-44.50589676 35.69338013 -43.63912811 34.81315186 -42.74609375 33.90625 C-41.84883072 33.0037854 -40.95156769 32.1013208 -40.02711487 31.17150879 C-37.64592839 28.77552413 -35.26888944 26.37558484 -32.89416504 23.97320557 C-29.54623728 20.58726186 -26.19311022 17.20649605 -22.83717346 13.82849121 C-21.05148228 12.03053099 -19.26847089 10.22990458 -17.48838806 8.4263916 C-16.27681786 7.20502502 -16.27681786 7.20502502 -15.04077148 5.95898438 C-14.33113754 5.24109741 -13.6215036 4.52321045 -12.8903656 3.78356934 C-8.7986372 -0.07699674 -5.45167423 -0.670468 0 0 Z " fill="#304B58" transform="translate(142,24)"/>
<path d="M0 0 C3.48774866 2.0425082 5.75664864 4.63497297 8 8 C8.60321137 12.18331003 8.45950776 15.91169214 6.8125 19.8125 C3.04385592 24.36086354 -0.34329212 26.69345678 -6.25 27.375 C-10.91333176 26.90866682 -13.70857878 25.30010571 -17 22 C-19.74791897 17.59781543 -19.89648955 13.03116116 -19 8 C-14.60089149 0.18729754 -8.54956003 -2.32631009 0 0 Z " fill="#E0E3E4" transform="translate(236,198)"/>
<path d="M0 0 C4.40830916 2.16407904 7.12843553 4.42506462 9 9 C9.7205356 15.38188672 8.84405165 18.84087804 5 24 C1.1080427 26.74206083 -2.36751918 27.54823533 -7.04296875 27.3515625 C-11.35552686 26.57685146 -14.06330068 24.06159257 -16.875 20.875 C-18.57460974 16.53155289 -18.90610381 12.58759645 -18 8 C-13.53083023 0.41471185 -8.46962759 -0.93673301 0 0 Z " fill="#E1E4E4" transform="translate(235,377)"/>
<path d="M0 0 C3.19026198 2.10267267 4.88874348 3.44792091 6.75 6.8125 C7.60260991 11.1417003 7.74403395 15.00936864 5.57421875 18.9453125 C2.8263839 22.33927905 0.14332939 24.99513639 -4.25 25.8125 C-8.83864697 25.86283251 -12.24479285 25.4327342 -16.1875 23 C-20.02146741 18.93367093 -20.70113543 15.5235229 -20.56640625 10.0625 C-19.92389175 5.49350797 -17.43330141 2.79858451 -14 -0.0625 C-9.0209333 -2.09939092 -4.91636794 -1.79636521 0 0 Z " fill="#DFE3E3" transform="translate(237.25,17.1875)"/>
</svg>
