<?xml version="1.0" encoding="UTF-8"?>
<svg version="1.1" xmlns="http://www.w3.org/2000/svg" width="512" height="512">
<path d="M0 0 C1.09922791 0.38151215 2.19845581 0.76302429 3.33099365 1.15609741 C5.6585439 1.96519586 7.98504127 2.77732864 10.31054688 3.59228516 C13.80384413 4.81647725 17.2999964 6.0321745 20.796875 7.24609375 C31.10327345 10.83109538 41.39722743 14.45324296 51.65625 18.171875 C52.8360141 18.59335312 52.8360141 18.59335312 54.03961182 19.02334595 C59.37645185 20.97801435 59.37645185 20.97801435 61.609375 23.2109375 C59.299375 23.8709375 56.989375 24.5309375 54.609375 25.2109375 C54.939375 25.8709375 55.269375 26.5309375 55.609375 27.2109375 C55.85519023 31.81036767 55.79458497 36.4181866 55.796875 41.0234375 C55.80912109 42.30798828 55.82136719 43.59253906 55.83398438 44.91601562 C55.83591797 46.15416016 55.83785156 47.39230469 55.83984375 48.66796875 C55.84395264 49.80210205 55.84806152 50.93623535 55.85229492 52.10473633 C55.51855594 56.37223487 54.64978213 59.17053037 51.609375 62.2109375 C45.96942589 62.84770595 45.96942589 62.84770595 43.609375 62.2109375 C41.03325897 59.58104034 39.72024704 57.93226146 39.15527344 54.2565918 C39.18669434 52.6619812 39.18669434 52.6619812 39.21875 51.03515625 C39.23808594 49.29975586 39.23808594 49.29975586 39.2578125 47.52929688 C39.30808594 45.73202148 39.30808594 45.73202148 39.359375 43.8984375 C39.37742187 42.68091797 39.39546875 41.46339844 39.4140625 40.20898438 C39.46112369 37.20883328 39.5268619 34.21028861 39.609375 31.2109375 C37.959375 31.8709375 36.309375 32.5309375 34.609375 33.2109375 C34.60350876 34.1614801 34.59764252 35.11202271 34.59159851 36.09136963 C34.53413173 45.09407312 34.4612473 54.0965406 34.37366009 63.09900284 C34.32912641 67.72614007 34.28983387 72.3531927 34.26293945 76.98046875 C34.23673551 81.4545618 34.19621533 85.92832623 34.14618874 90.40221405 C34.12963467 92.10039907 34.11804964 93.79864078 34.11176109 95.49689484 C34.03997281 113.11807291 31.47887702 127.72355355 18.93359375 140.953125 C13.10325371 146.6168839 7.163587 150.23821518 -0.390625 153.2109375 C1.33220703 153.35789063 1.33220703 153.35789063 3.08984375 153.5078125 C23.76874381 155.42529832 40.88403811 161.72982727 54.87890625 177.8203125 C66.34167708 192.27082429 72.88419696 209.02395986 75.609375 227.2109375 C76.16882813 226.6540625 76.72828125 226.0971875 77.3046875 225.5234375 C89.34515173 214.06370306 102.70706819 207.73404619 119.171875 205.5234375 C120.08517578 205.39388672 120.99847656 205.26433594 121.93945312 205.13085938 C124.1618254 204.81670204 126.38495677 204.51019953 128.609375 204.2109375 C127.48402344 203.71787109 127.48402344 203.71787109 126.3359375 203.21484375 C112.10305575 196.6003181 103.01957013 187.15625151 97.37109375 172.5703125 C95.71413522 167.43798968 95.46977715 162.5700368 95.49584961 157.20776367 C95.49570358 156.41699432 95.49555756 155.62622498 95.4954071 154.81149292 C95.49610138 152.20893571 95.503871 149.60645089 95.51171875 147.00390625 C95.51358465 145.19501281 95.51500774 143.38611886 95.51600647 141.57722473 C95.51981806 136.82449947 95.52963675 132.07180494 95.54071045 127.3190918 C95.55095377 122.4659873 95.55551035 117.61287782 95.56054688 112.75976562 C95.57126025 103.24347611 95.58832035 93.72720936 95.609375 84.2109375 C94.87091843 84.01300095 94.13246185 83.81506439 93.37162781 83.61112976 C92.39393936 83.34717911 91.41625092 83.08322845 90.40893555 82.8112793 C89.44360397 82.55146774 88.4782724 82.29165619 87.48368835 82.02397156 C83.39617344 80.86776887 79.4128733 79.47308262 75.421875 78.0234375 C74.66068359 77.75080078 73.89949219 77.47816406 73.11523438 77.19726562 C71.27861746 76.53885579 69.44379049 75.87545613 67.609375 75.2109375 C67.609375 74.5509375 67.609375 73.8909375 67.609375 73.2109375 C68.68027626 72.8362886 68.68027626 72.8362886 69.77281189 72.45407104 C76.58117377 70.07215637 83.38945586 67.69001383 90.19765377 65.30763054 C94.38030145 63.84401265 98.56298658 62.38050198 102.74580956 60.9173851 C104.10288565 60.442538 105.45987193 59.96743414 106.81676674 59.49206924 C110.13865395 58.32851847 113.46176749 57.16878494 116.78793335 56.01751709 C122.22715261 54.13063686 127.64865944 52.23183782 132.99267578 50.08691406 C133.76132462 49.78633087 134.52997345 49.48574768 135.32191467 49.17605591 C137.2258121 48.42285935 139.11684539 47.63734298 141.00610352 46.84814453 C146.14912146 45.93864681 149.78925982 47.44052031 154.609375 49.2109375 C156.38605304 49.80935484 158.16332903 50.40599948 159.94116211 51.00097656 C161.84045631 51.65726573 163.73894343 52.31589408 165.63671875 52.9765625 C167.17931114 53.51129181 167.17931114 53.51129181 168.75306702 54.05682373 C170.92077461 54.80883469 173.08812274 55.56188253 175.25512695 56.31591797 C178.50566836 57.44660396 181.75761798 58.57316232 185.00976562 59.69921875 C197.59541523 64.06576404 210.13023248 68.54858474 222.609375 73.2109375 C222.609375 73.8709375 222.609375 74.5309375 222.609375 75.2109375 C220.959375 75.8709375 219.309375 76.5309375 217.609375 77.2109375 C217.60526611 78.1896582 217.60115723 79.16837891 217.59692383 80.17675781 C217.57511792 83.81514838 217.52081548 87.45245967 217.45678711 91.09033203 C217.43361939 92.66346883 217.41921421 94.23676046 217.41381836 95.81005859 C217.40451874 98.07487322 217.36351522 100.33725717 217.31640625 102.6015625 C217.3203389 103.30275208 217.32427155 104.00394165 217.32832336 104.72637939 C217.21854455 108.41704122 216.84698432 109.95673332 214.29174805 112.69042969 C211.609375 114.2109375 211.609375 114.2109375 207.984375 114.1484375 C203.52413694 112.90948248 203.52413694 112.90948248 201.609375 110.2109375 C201.26879883 107.30004883 201.26879883 107.30004883 201.31640625 103.79296875 C201.32607422 102.53935547 201.33574219 101.28574219 201.34570312 99.99414062 C201.37083984 98.68380859 201.39597656 97.37347656 201.421875 96.0234375 C201.43692533 94.68816587 201.45061313 93.35287813 201.46289062 92.01757812 C201.49829806 88.74829174 201.5476861 85.47981657 201.609375 82.2109375 C201.01125 82.5409375 200.413125 82.8709375 199.796875 83.2109375 C197.609375 84.2109375 197.609375 84.2109375 194.609375 84.2109375 C194.61825745 85.22412048 194.62713989 86.23730347 194.6362915 87.28118896 C194.71770143 96.87231352 194.77749505 106.46336713 194.81662369 116.05475998 C194.83741706 120.98473362 194.86558235 125.91442629 194.91113281 130.84423828 C194.9548869 135.60995459 194.97857401 140.3754022 194.98888397 145.14130402 C194.99622265 146.95121739 195.01055208 148.76111758 195.03229523 150.57091522 C195.23375626 168.04927205 192.04652055 180.51668825 179.671875 193.5234375 C174.57611745 198.41180957 169.18273556 201.69058164 162.609375 204.2109375 C163.85332031 204.38109375 165.09726562 204.55125 166.37890625 204.7265625 C175.48812191 206.02827162 184.19016226 207.30772653 192.609375 211.2109375 C193.5065625 211.61957031 194.40375 212.02820313 195.328125 212.44921875 C212.89244177 221.20670815 225.01120158 238.04984128 231.609375 256.2109375 C237.18314078 273.0664526 245.27520649 299.80938766 237.546875 316.8984375 C231.33995915 327.07088292 221.49212369 330.80008344 210.3515625 333.5625 C198.51644061 336.3306742 186.72415032 338.28330454 174.609375 339.2109375 C173.57828613 339.29553223 173.57828613 339.29553223 172.52636719 339.38183594 C153.63161811 340.88029328 134.56169791 340.76802288 115.671875 339.3359375 C114.63740234 339.25754639 113.60292969 339.17915527 112.53710938 339.09838867 C105.48943336 338.50366973 98.56788809 337.46910459 91.609375 336.2109375 C91.65578125 337.37367188 91.7021875 338.53640625 91.75 339.734375 C92.46887699 365.88386973 84.0551683 391.44786615 66.609375 411.2109375 C65.89910156 412.05269531 65.18882812 412.89445312 64.45703125 413.76171875 C47.05642275 433.91462034 22.62809589 445.30843377 -3.390625 449.2109375 C-33.95835551 451.16677587 -62.78038241 444.73487387 -86.390625 424.2109375 C-87.20015625 423.54578125 -88.0096875 422.880625 -88.84375 422.1953125 C-108.41873026 405.57504624 -121.43936287 380.72594007 -124.390625 355.2109375 C-124.63133669 351.90054564 -124.79932869 348.58888261 -124.953125 345.2734375 C-124.99630859 344.39880859 -125.03949219 343.52417969 -125.08398438 342.62304688 C-125.18909401 340.48581755 -125.29026485 338.34839512 -125.390625 336.2109375 C-125.99310059 336.29657959 -126.59557617 336.38222168 -127.21630859 336.47045898 C-166.62837186 342.00939101 -229.01732071 349.83149871 -263.390625 325.2109375 C-268.65585554 320.39602273 -271.93867082 314.88357418 -272.82421875 307.6875 C-272.85562373 276.7221864 -265.29923891 245.89098148 -243.390625 223.2109375 C-232.12916187 212.22459155 -217.75418473 207.00638247 -202.390625 205.0859375 C-201.71128906 204.99957031 -201.03195313 204.91320312 -200.33203125 204.82421875 C-198.68543476 204.61549525 -197.03810338 204.41258199 -195.390625 204.2109375 C-196.31681641 203.79134766 -196.31681641 203.79134766 -197.26171875 203.36328125 C-210.58333502 197.05731069 -220.14091513 188.11899637 -225.49389648 174.18334961 C-228.30312786 165.529146 -227.88931518 156.87764963 -227.78125 147.8828125 C-227.77377423 146.03908914 -227.76808763 144.19535774 -227.76409912 142.35162354 C-227.7489478 137.53795795 -227.70975871 132.72478794 -227.6652832 127.91131592 C-227.62410175 122.98391419 -227.60603962 118.05643108 -227.5859375 113.12890625 C-227.54325251 103.48936758 -227.47513114 93.85019402 -227.390625 84.2109375 C-228.16037155 84.06342545 -228.9301181 83.91591339 -229.72319031 83.76393127 C-232.5611585 83.1755837 -235.17680557 82.32529853 -237.91015625 81.36328125 C-239.4425293 80.82670898 -239.4425293 80.82670898 -241.00585938 80.27929688 C-242.06095703 79.90611328 -243.11605469 79.53292969 -244.203125 79.1484375 C-245.27755859 78.77138672 -246.35199219 78.39433594 -247.45898438 78.00585938 C-250.10392618 77.07719092 -252.74774554 76.14545561 -255.390625 75.2109375 C-255.390625 74.5509375 -255.390625 73.8909375 -255.390625 73.2109375 C-254.85145447 73.02016632 -254.31228394 72.82939514 -253.7567749 72.63284302 C-252.60438324 72.22508133 -252.60438324 72.22508133 -251.42871094 71.80908203 C-250.55714859 71.50070404 -249.68558624 71.19232605 -248.78761292 70.87460327 C-246.81610565 70.176833 -244.84470362 69.47876531 -242.87339783 68.78042603 C-237.41862303 66.84830906 -231.96237837 64.92054461 -226.50317383 63.00097656 C-212.37405597 58.02572354 -212.37405597 58.02572354 -198.35546875 52.75 C-197.08321599 52.26361527 -195.81076508 51.77774842 -194.53808594 51.29248047 C-192.30859069 50.43447404 -190.08813676 49.55239732 -187.87988281 48.64111328 C-182.9790348 46.7757692 -179.51918528 45.7944663 -174.41601562 47.33105469 C-173.45596115 47.61853577 -172.49590668 47.90601685 -171.50675964 48.20220947 C-165.79870056 50.04997276 -160.13001395 51.99482755 -154.47265625 53.9921875 C-153.16243612 54.45184615 -151.85210568 54.91119048 -150.54167175 55.37023926 C-147.81546298 56.32607903 -145.09011951 57.28432942 -142.36547852 58.24462891 C-138.89372217 59.46824478 -135.42055769 60.68779908 -131.94682789 61.90579987 C-128.60082088 63.07914903 -125.25543362 64.25426001 -121.91015625 65.4296875 C-120.67352737 65.86414185 -119.4368985 66.29859619 -118.16279602 66.74621582 C-112.21493364 68.84189593 -106.28428213 70.96712468 -100.390625 73.2109375 C-100.390625 73.8709375 -100.390625 74.5309375 -100.390625 75.2109375 C-103.360625 75.7059375 -103.360625 75.7059375 -106.390625 76.2109375 C-106.36444092 77.18442139 -106.33825684 78.15790527 -106.3112793 79.16088867 C-106.22052479 82.78549052 -106.16328599 86.40999277 -106.1159668 90.03540039 C-106.09087953 91.60197864 -106.05680085 93.16844049 -106.01342773 94.73461914 C-105.95251274 96.99134059 -105.92436001 99.24651044 -105.90234375 101.50390625 C-105.87653732 102.19993454 -105.8507309 102.89596283 -105.82414246 103.61308289 C-105.82192706 107.48656521 -106.29136188 109.08589767 -108.72973633 112.1574707 C-111.390625 114.2109375 -111.390625 114.2109375 -114.453125 114.7734375 C-118.11446164 114.07233048 -119.12075585 113.13587764 -121.390625 110.2109375 C-121.84472656 107.18652344 -121.84472656 107.18652344 -121.78125 103.6953125 C-121.76835937 102.44492188 -121.75546875 101.19453125 -121.7421875 99.90625 C-121.69191406 97.95332031 -121.69191406 97.95332031 -121.640625 95.9609375 C-121.62257812 94.64351563 -121.60453125 93.32609375 -121.5859375 91.96875 C-121.53878771 88.71541442 -121.47298544 85.46354125 -121.390625 82.2109375 C-124.855625 83.2009375 -124.855625 83.2009375 -128.390625 84.2109375 C-128.38174255 85.19684372 -128.37286011 86.18274994 -128.3637085 87.1985321 C-128.28223873 96.53916872 -128.22247669 105.87973222 -128.18337631 115.22064495 C-128.16259785 120.02167889 -128.13446064 124.82242352 -128.08886719 129.62329102 C-128.04505884 134.26581942 -128.02141486 138.90807145 -128.01111603 143.55079079 C-128.0037869 145.31243038 -127.98947684 147.07405672 -127.96770477 148.83557701 C-127.77094088 165.43165893 -130.3661249 179.90305332 -142.140625 192.4609375 C-147.7371884 197.76746786 -154.20709169 201.48042928 -161.390625 204.2109375 C-160.09769531 204.36949219 -158.80476563 204.52804688 -157.47265625 204.69140625 C-138.08676824 207.22463012 -122.45437748 213.14718502 -108.390625 227.2109375 C-108.18308594 226.10878906 -107.97554687 225.00664062 -107.76171875 223.87109375 C-103.36592682 201.7495413 -94.40315122 180.22579667 -75.578125 166.4609375 C-61.84026529 157.47196757 -48.70873072 153.98544661 -32.390625 153.2109375 C-33.14085937 152.88222656 -33.89109375 152.55351562 -34.6640625 152.21484375 C-48.12758454 145.95786688 -58.42760528 136.53043234 -63.765625 122.4609375 C-65.94227146 116.1391991 -66.54182486 110.02540657 -66.59594727 103.36962891 C-66.60584686 102.60797424 -66.61574646 101.84631958 -66.62594604 101.06158447 C-66.65735361 98.5619205 -66.68223578 96.06223756 -66.70703125 93.5625 C-66.72761873 91.82229132 -66.74861566 90.08208744 -66.77000427 88.34188843 C-66.82503977 83.77500306 -66.87453028 79.20807396 -66.92285156 74.64111328 C-66.97320233 69.97554662 -67.02881735 65.31004301 -67.08398438 60.64453125 C-67.19133922 51.500052 -67.29234714 42.35551881 -67.390625 33.2109375 C-76.300625 29.9109375 -85.210625 26.6109375 -94.390625 23.2109375 C-92.11394041 20.93425291 -90.54665557 20.40503368 -87.52392578 19.35083008 C-86.50751007 18.99318069 -85.49109436 18.63553131 -84.44387817 18.26704407 C-83.33575775 17.88372421 -82.22763733 17.50040436 -81.0859375 17.10546875 C-79.36345291 16.50202888 -79.36345291 16.50202888 -77.60617065 15.88639832 C-73.91118731 14.59333375 -70.21347587 13.30827583 -66.515625 12.0234375 C-62.89396828 10.75839789 -59.2728639 9.49178658 -55.65179443 8.22506714 C-53.27996587 7.39722293 -50.90712348 6.57227754 -48.53326416 5.75027466 C-43.14190515 3.88259865 -37.76402501 1.99286891 -32.41699219 0.00146484 C-31.50666229 -0.33274979 -30.5963324 -0.66696442 -29.65841675 -1.01130676 C-27.99599084 -1.62379546 -26.33788671 -2.24821904 -24.68557739 -2.88749695 C-15.7683197 -6.14538469 -8.60232923 -3.0274231 0 0 Z " fill="#2EB751" transform="translate(272.390625,33.7890625)"/>
<path d="M0 0 C1.08667969 0.26683594 2.17335938 0.53367187 3.29296875 0.80859375 C29.17959836 7.90298067 52.64444188 26.49182189 66.125 49.56640625 C74.6225651 65.12757235 80.68155178 81.06738456 81 99 C81.02964844 99.72912598 81.05929687 100.45825195 81.08984375 101.20947266 C82.18659189 128.20592817 74.06072876 154.54031296 56 175 C55.28972656 175.84175781 54.57945312 176.68351563 53.84765625 177.55078125 C36.44704775 197.70368284 12.01872089 209.09749627 -14 213 C-44.56773051 214.95583837 -73.38975741 208.52393637 -97 188 C-97.80953125 187.33484375 -98.6190625 186.6696875 -99.453125 185.984375 C-118.88906344 169.48216312 -132.3050388 144.43530047 -135 119 C-136.44425451 87.24910032 -130.18764976 59.94212428 -110 35 C-109.46503906 34.32324219 -108.93007812 33.64648438 -108.37890625 32.94921875 C-82.85578604 1.75429404 -38.22756025 -10.00064147 0 0 Z " fill="#D4E2F1" transform="translate(283,270)"/>
<path d="M0 0 C1.77667804 0.59841734 3.55395403 1.19506198 5.33178711 1.79003906 C7.23108131 2.44632823 9.12956843 3.10495658 11.02734375 3.765625 C12.05573868 4.12211121 13.08413361 4.47859741 14.14369202 4.84588623 C16.31139961 5.59789719 18.47874774 6.35094503 20.64575195 7.10498047 C23.89629336 8.23566646 27.14824298 9.36222482 30.40039062 10.48828125 C42.98604023 14.85482654 55.52085748 19.33764724 68 24 C68 24.66 68 25.32 68 26 C65.525 26.99 65.525 26.99 63 28 C62.99589111 28.9787207 62.99178223 29.95744141 62.98754883 30.96582031 C62.96574292 34.60421088 62.91144048 38.24152217 62.84741211 41.87939453 C62.82424439 43.45253133 62.80983921 45.02582296 62.80444336 46.59912109 C62.79514374 48.86393572 62.75414022 51.12631967 62.70703125 53.390625 C62.7109639 54.09181458 62.71489655 54.79300415 62.71894836 55.51544189 C62.60916955 59.20610372 62.23760932 60.74579582 59.68237305 63.47949219 C57 65 57 65 53.375 64.9375 C48.91476194 63.69854498 48.91476194 63.69854498 47 61 C46.65942383 58.08911133 46.65942383 58.08911133 46.70703125 54.58203125 C46.71669922 53.32841797 46.72636719 52.07480469 46.73632812 50.78320312 C46.76146484 49.47287109 46.78660156 48.16253906 46.8125 46.8125 C46.82755033 45.47722837 46.84123813 44.14194063 46.85351562 42.80664062 C46.88892306 39.53735424 46.9383111 36.26887907 47 33 C46.401875 33.33 45.80375 33.66 45.1875 34 C43 35 43 35 40 35 C40.00888245 36.01318298 40.01776489 37.02636597 40.0269165 38.07025146 C40.10832643 47.66137602 40.16812005 57.25242963 40.20724869 66.84382248 C40.22804206 71.77379612 40.25620735 76.70348879 40.30175781 81.63330078 C40.3455119 86.39901709 40.36919901 91.1644647 40.37950897 95.93036652 C40.38684765 97.74027989 40.40117708 99.55018008 40.42292023 101.35997772 C40.62438126 118.83833455 37.43714555 131.30575075 25.0625 144.3125 C19.96674245 149.20087207 14.57336056 152.47964414 8 155 C9.24394531 155.17015625 10.48789062 155.3403125 11.76953125 155.515625 C20.87874691 156.81733412 29.58078726 158.09678903 38 162 C39.34578125 162.61294922 39.34578125 162.61294922 40.71875 163.23828125 C58.28306677 171.99577065 70.40182658 188.83890378 77 207 C82.57376578 223.8555151 90.66583149 250.59845016 82.9375 267.6875 C76.73058415 277.85994542 66.88274869 281.58914594 55.7421875 284.3515625 C43.90706561 287.1197367 32.11477532 289.07236704 20 290 C19.31260742 290.05639648 18.62521484 290.11279297 17.91699219 290.17089844 C-0.97775689 291.66935578 -20.04767709 291.55708538 -38.9375 290.125 C-39.97197266 290.04660889 -41.00644531 289.96821777 -42.07226562 289.88745117 C-61.77518163 288.22481837 -61.77518163 288.22481837 -64 286 C-64.17689504 284.14366768 -64.34832491 282.28665532 -64.49243164 280.42749023 C-66.55916188 255.37064936 -78.45665081 231.07940057 -97 214 C-92.80840927 195.83644017 -81.85288739 177.18035762 -66 167 C-55.37032992 160.48086995 -45.30944799 157.51520163 -33 156 C-30.66545086 155.67475322 -28.332928 155.33674253 -26 155 C-27.12535156 154.50693359 -27.12535156 154.50693359 -28.2734375 154.00390625 C-42.50631925 147.3893806 -51.58980487 137.94531401 -57.23828125 123.359375 C-58.89523978 118.22705218 -59.13959785 113.3590993 -59.11352539 107.99682617 C-59.11367142 107.20605682 -59.11381744 106.41528748 -59.1139679 105.60055542 C-59.11327362 102.99799821 -59.105504 100.39551339 -59.09765625 97.79296875 C-59.09579035 95.98407531 -59.09436726 94.17518136 -59.09336853 92.36628723 C-59.08955694 87.61356197 -59.07973825 82.86086744 -59.06866455 78.1081543 C-59.05842123 73.2550498 -59.05386465 68.40194032 -59.04882812 63.54882812 C-59.03811475 54.03253861 -59.02105465 44.51627186 -59 35 C-59.73845657 34.80206345 -60.47691315 34.60412689 -61.23774719 34.40019226 C-62.70427986 34.00426628 -62.70427986 34.00426628 -64.20043945 33.6003418 C-65.16577103 33.34053024 -66.1311026 33.08071869 -67.12568665 32.81303406 C-71.21320156 31.65683137 -75.1965017 30.26214512 -79.1875 28.8125 C-80.32928711 28.40354492 -80.32928711 28.40354492 -81.49414062 27.98632812 C-83.33075754 27.32791829 -85.16558451 26.66451863 -87 26 C-87 25.34 -87 24.68 -87 24 C-86.28606583 23.75023407 -85.57213165 23.50046814 -84.83656311 23.24313354 C-78.02820123 20.86121887 -71.21991914 18.47907633 -64.41172123 16.09669304 C-60.22907355 14.63307515 -56.04638842 13.16956448 -51.86356544 11.7064476 C-50.50648935 11.2316005 -49.14950307 10.75649664 -47.79260826 10.28113174 C-44.47072105 9.11758097 -41.14760751 7.95784744 -37.82144165 6.80657959 C-32.38222239 4.91969936 -26.96071556 3.02090032 -21.61669922 0.87597656 C-20.84805038 0.57539337 -20.07940155 0.27481018 -19.28746033 -0.03488159 C-17.3835629 -0.78807815 -15.49252961 -1.57359452 -13.60327148 -2.36279297 C-8.46025354 -3.27229069 -4.82011518 -1.77041719 0 0 Z " fill="#69A6FE" transform="translate(427,83)"/>
<path d="M0 0 C1.09922791 0.38151215 2.19845581 0.76302429 3.33099365 1.15609741 C5.6585439 1.96519586 7.98504127 2.77732864 10.31054688 3.59228516 C13.80384413 4.81647725 17.2999964 6.0321745 20.796875 7.24609375 C31.10327345 10.83109538 41.39722743 14.45324296 51.65625 18.171875 C52.8360141 18.59335312 52.8360141 18.59335312 54.03961182 19.02334595 C59.37645185 20.97801435 59.37645185 20.97801435 61.609375 23.2109375 C59.299375 23.8709375 56.989375 24.5309375 54.609375 25.2109375 C54.939375 25.8709375 55.269375 26.5309375 55.609375 27.2109375 C55.85519023 31.81036767 55.79458497 36.4181866 55.796875 41.0234375 C55.80912109 42.30798828 55.82136719 43.59253906 55.83398438 44.91601562 C55.83591797 46.15416016 55.83785156 47.39230469 55.83984375 48.66796875 C55.84395264 49.80210205 55.84806152 50.93623535 55.85229492 52.10473633 C55.51855594 56.37223487 54.64978213 59.17053037 51.609375 62.2109375 C45.96942589 62.84770595 45.96942589 62.84770595 43.609375 62.2109375 C41.03325897 59.58104034 39.72024704 57.93226146 39.15527344 54.2565918 C39.1762207 53.19351807 39.19716797 52.13044434 39.21875 51.03515625 C39.23164063 49.87822266 39.24453125 48.72128906 39.2578125 47.52929688 C39.30808594 45.73202148 39.30808594 45.73202148 39.359375 43.8984375 C39.37742187 42.68091797 39.39546875 41.46339844 39.4140625 40.20898438 C39.46112369 37.20883328 39.5268619 34.21028861 39.609375 31.2109375 C37.959375 31.8709375 36.309375 32.5309375 34.609375 33.2109375 C34.60350876 34.1614801 34.59764252 35.11202271 34.59159851 36.09136963 C34.53413173 45.09407312 34.4612473 54.0965406 34.37366009 63.09900284 C34.32912641 67.72614007 34.28983387 72.3531927 34.26293945 76.98046875 C34.23673551 81.4545618 34.19621533 85.92832623 34.14618874 90.40221405 C34.12963467 92.10039907 34.11804964 93.79864078 34.11176109 95.49689484 C34.03997281 113.11807291 31.47887702 127.72355355 18.93359375 140.953125 C13.10325371 146.6168839 7.163587 150.23821518 -0.390625 153.2109375 C1.33220703 153.35789063 1.33220703 153.35789063 3.08984375 153.5078125 C23.76874381 155.42529832 40.88403811 161.72982727 54.87890625 177.8203125 C65.09569892 190.70008521 71.2509611 205.16917207 74.609375 221.2109375 C74.75834229 221.92056641 74.90730957 222.63019531 75.06079102 223.36132812 C75.60745629 226.54004438 75.86986147 228.66700642 74.45703125 231.6171875 C73.86792969 232.308125 73.27882813 232.9990625 72.671875 233.7109375 C69.30101977 238.06805498 66.77557776 242.47421288 64.359375 247.3984375 C64.03074463 248.06359375 63.70211426 248.72875 63.36352539 249.4140625 C61.31115604 253.6266278 59.42467477 257.89119638 57.609375 262.2109375 C56.578125 261.4065625 55.546875 260.6021875 54.484375 259.7734375 C27.91704665 239.91834935 -0.62047579 230.60654983 -33.99169922 234.515625 C-53.2109442 237.6698825 -74.46751838 246.93555727 -88.109375 260.98046875 C-89.390625 262.2109375 -89.390625 262.2109375 -91.390625 262.2109375 C-91.5865625 261.59089844 -91.7825 260.97085937 -91.984375 260.33203125 C-93.98017674 254.42204938 -96.42012663 248.90354626 -99.328125 243.3984375 C-99.65167969 242.77702881 -99.97523438 242.15562012 -100.30859375 241.51538086 C-102.00542953 238.37126872 -103.72121098 235.77550589 -106.16796875 233.1640625 C-108.390625 230.2109375 -108.390625 230.2109375 -108.6171875 227.08984375 C-105.36732837 209.1734126 -99.40920367 192.14708715 -87.390625 178.2109375 C-86.84792969 177.52515625 -86.30523437 176.839375 -85.74609375 176.1328125 C-74.87792754 162.79576544 -58.51412409 155.61998688 -41.6796875 153.8125 C-38.58351384 153.56400016 -35.49308593 153.35819015 -32.390625 153.2109375 C-33.51597656 152.71787109 -33.51597656 152.71787109 -34.6640625 152.21484375 C-48.12758454 145.95786688 -58.42760528 136.53043234 -63.765625 122.4609375 C-65.94227146 116.1391991 -66.54182486 110.02540657 -66.59594727 103.36962891 C-66.60584686 102.60797424 -66.61574646 101.84631958 -66.62594604 101.06158447 C-66.65735361 98.5619205 -66.68223578 96.06223756 -66.70703125 93.5625 C-66.72761873 91.82229132 -66.74861566 90.08208744 -66.77000427 88.34188843 C-66.82503977 83.77500306 -66.87453028 79.20807396 -66.92285156 74.64111328 C-66.97320233 69.97554662 -67.02881735 65.31004301 -67.08398438 60.64453125 C-67.19133922 51.500052 -67.29234714 42.35551881 -67.390625 33.2109375 C-76.300625 29.9109375 -85.210625 26.6109375 -94.390625 23.2109375 C-92.11394041 20.93425291 -90.54665557 20.40503368 -87.52392578 19.35083008 C-86.50751007 18.99318069 -85.49109436 18.63553131 -84.44387817 18.26704407 C-83.33575775 17.88372421 -82.22763733 17.50040436 -81.0859375 17.10546875 C-79.36345291 16.50202888 -79.36345291 16.50202888 -77.60617065 15.88639832 C-73.91118731 14.59333375 -70.21347587 13.30827583 -66.515625 12.0234375 C-62.89396828 10.75839789 -59.2728639 9.49178658 -55.65179443 8.22506714 C-53.27996587 7.39722293 -50.90712348 6.57227754 -48.53326416 5.75027466 C-43.14190515 3.88259865 -37.76402501 1.99286891 -32.41699219 0.00146484 C-31.50666229 -0.33274979 -30.5963324 -0.66696442 -29.65841675 -1.01130676 C-27.99599084 -1.62379546 -26.33788671 -2.24821904 -24.68557739 -2.88749695 C-15.7683197 -6.14538469 -8.60232923 -3.0274231 0 0 Z " fill="#FA4455" transform="translate(272.390625,33.7890625)"/>
<path d="M0 0 C1.77667804 0.59841734 3.55395403 1.19506198 5.33178711 1.79003906 C7.23108131 2.44632823 9.12956843 3.10495658 11.02734375 3.765625 C12.05573868 4.12211121 13.08413361 4.47859741 14.14369202 4.84588623 C16.31139961 5.59789719 18.47874774 6.35094503 20.64575195 7.10498047 C23.89629336 8.23566646 27.14824298 9.36222482 30.40039062 10.48828125 C42.98604023 14.85482654 55.52085748 19.33764724 68 24 C68 24.66 68 25.32 68 26 C65.525 26.99 65.525 26.99 63 28 C62.99589111 28.9787207 62.99178223 29.95744141 62.98754883 30.96582031 C62.96574292 34.60421088 62.91144048 38.24152217 62.84741211 41.87939453 C62.82424439 43.45253133 62.80983921 45.02582296 62.80444336 46.59912109 C62.79514374 48.86393572 62.75414022 51.12631967 62.70703125 53.390625 C62.7109639 54.09181458 62.71489655 54.79300415 62.71894836 55.51544189 C62.60916955 59.20610372 62.23760932 60.74579582 59.68237305 63.47949219 C57 65 57 65 53.375 64.9375 C48.91476194 63.69854498 48.91476194 63.69854498 47 61 C46.65942383 58.08911133 46.65942383 58.08911133 46.70703125 54.58203125 C46.71669922 53.32841797 46.72636719 52.07480469 46.73632812 50.78320312 C46.76146484 49.47287109 46.78660156 48.16253906 46.8125 46.8125 C46.82755033 45.47722837 46.84123813 44.14194063 46.85351562 42.80664062 C46.88892306 39.53735424 46.9383111 36.26887907 47 33 C46.401875 33.33 45.80375 33.66 45.1875 34 C43 35 43 35 40 35 C40.00888245 36.01318298 40.01776489 37.02636597 40.0269165 38.07025146 C40.10832643 47.66137602 40.16812005 57.25242963 40.20724869 66.84382248 C40.22804206 71.77379612 40.25620735 76.70348879 40.30175781 81.63330078 C40.3455119 86.39901709 40.36919901 91.1644647 40.37950897 95.93036652 C40.38684765 97.74027989 40.40117708 99.55018008 40.42292023 101.35997772 C40.62438126 118.83833455 37.43714555 131.30575075 25.0625 144.3125 C13.91545052 154.96555692 1.46290775 157.53854938 -13.6015625 157.27734375 C-26.59012698 156.71201212 -38.37652311 150.58078483 -47.1875 141.18359375 C-58.19881446 127.91780758 -59.59485608 113.53551138 -59.390625 97.01171875 C-59.38314688 95.21426529 -59.37746139 93.41680358 -59.37347412 91.61933899 C-59.35834127 86.93226854 -59.31916904 82.24570909 -59.2746582 77.55883789 C-59.233436 72.75869658 -59.21540607 67.95847115 -59.1953125 63.15820312 C-59.15266029 53.77191326 -59.08456244 44.38599944 -59 35 C-59.73845657 34.80206345 -60.47691315 34.60412689 -61.23774719 34.40019226 C-62.70427986 34.00426628 -62.70427986 34.00426628 -64.20043945 33.6003418 C-65.16577103 33.34053024 -66.1311026 33.08071869 -67.12568665 32.81303406 C-71.21320156 31.65683137 -75.1965017 30.26214512 -79.1875 28.8125 C-80.32928711 28.40354492 -80.32928711 28.40354492 -81.49414062 27.98632812 C-83.33075754 27.32791829 -85.16558451 26.66451863 -87 26 C-87 25.34 -87 24.68 -87 24 C-86.28606583 23.75023407 -85.57213165 23.50046814 -84.83656311 23.24313354 C-78.02820123 20.86121887 -71.21991914 18.47907633 -64.41172123 16.09669304 C-60.22907355 14.63307515 -56.04638842 13.16956448 -51.86356544 11.7064476 C-50.50648935 11.2316005 -49.14950307 10.75649664 -47.79260826 10.28113174 C-44.47072105 9.11758097 -41.14760751 7.95784744 -37.82144165 6.80657959 C-32.38222239 4.91969936 -26.96071556 3.02090032 -21.61669922 0.87597656 C-20.84805038 0.57539337 -20.07940155 0.27481018 -19.28746033 -0.03488159 C-17.3835629 -0.78807815 -15.49252961 -1.57359452 -13.60327148 -2.36279297 C-8.46025354 -3.27229069 -4.82011518 -1.77041719 0 0 Z " fill="#3B5B82" transform="translate(427,83)"/>
<path d="M0 0 C6.43512128 2.14089275 10.23280112 2.87516233 16.640625 0.09765625 C36.85075259 -8.1048758 54.37319843 -4.26481551 74.328125 3.41015625 C74.328125 32.12015625 74.328125 60.83015625 74.328125 90.41015625 C71.358125 89.42015625 68.388125 88.43015625 65.328125 87.41015625 C48.04532824 82.36371462 30.75500257 80.44807158 14.1640625 89.05078125 C9.45459172 91.30821352 5.44595967 90.14044407 0.72265625 88.51171875 C-1.15380473 87.80771505 -3.03010189 87.10327456 -4.90625 86.3984375 C-19.18116979 81.29737153 -34.63285914 82.03542419 -48.671875 87.41015625 C-49.73019531 87.95027344 -50.78851563 88.49039063 -51.87890625 89.046875 C-54.671875 90.41015625 -54.671875 90.41015625 -57.671875 90.41015625 C-57.671875 61.70015625 -57.671875 32.99015625 -57.671875 3.41015625 C-36.23431083 -5.16486942 -21.69096604 -7.35182147 0 0 Z " fill="#FEAB03" transform="translate(247.671875,331.58984375)"/>
<path d="M0 0 C1.09922791 0.38151215 2.19845581 0.76302429 3.33099365 1.15609741 C5.6585439 1.96519586 7.98504127 2.77732864 10.31054688 3.59228516 C13.80384413 4.81647725 17.2999964 6.0321745 20.796875 7.24609375 C31.10327345 10.83109538 41.39722743 14.45324296 51.65625 18.171875 C52.8360141 18.59335312 52.8360141 18.59335312 54.03961182 19.02334595 C59.37645185 20.97801435 59.37645185 20.97801435 61.609375 23.2109375 C59.299375 23.8709375 56.989375 24.5309375 54.609375 25.2109375 C54.939375 25.8709375 55.269375 26.5309375 55.609375 27.2109375 C55.85519023 31.81036767 55.79458497 36.4181866 55.796875 41.0234375 C55.80912109 42.30798828 55.82136719 43.59253906 55.83398438 44.91601562 C55.83591797 46.15416016 55.83785156 47.39230469 55.83984375 48.66796875 C55.84395264 49.80210205 55.84806152 50.93623535 55.85229492 52.10473633 C55.51855594 56.37223487 54.64978213 59.17053037 51.609375 62.2109375 C45.96942589 62.84770595 45.96942589 62.84770595 43.609375 62.2109375 C41.03325897 59.58104034 39.72024704 57.93226146 39.15527344 54.2565918 C39.1762207 53.19351807 39.19716797 52.13044434 39.21875 51.03515625 C39.23164063 49.87822266 39.24453125 48.72128906 39.2578125 47.52929688 C39.30808594 45.73202148 39.30808594 45.73202148 39.359375 43.8984375 C39.37742187 42.68091797 39.39546875 41.46339844 39.4140625 40.20898438 C39.46112369 37.20883328 39.5268619 34.21028861 39.609375 31.2109375 C37.959375 31.8709375 36.309375 32.5309375 34.609375 33.2109375 C34.279375 47.4009375 33.949375 61.5909375 33.609375 76.2109375 C0.609375 76.2109375 -32.390625 76.2109375 -66.390625 76.2109375 C-66.720625 62.0209375 -67.050625 47.8309375 -67.390625 33.2109375 C-76.300625 29.9109375 -85.210625 26.6109375 -94.390625 23.2109375 C-92.11394041 20.93425291 -90.54665557 20.40503368 -87.52392578 19.35083008 C-85.99930222 18.814356 -85.99930222 18.814356 -84.44387817 18.26704407 C-83.33575775 17.88372421 -82.22763733 17.50040436 -81.0859375 17.10546875 C-79.36345291 16.50202888 -79.36345291 16.50202888 -77.60617065 15.88639832 C-73.91118731 14.59333375 -70.21347587 13.30827583 -66.515625 12.0234375 C-62.89396828 10.75839789 -59.2728639 9.49178658 -55.65179443 8.22506714 C-53.27996587 7.39722293 -50.90712348 6.57227754 -48.53326416 5.75027466 C-43.14190515 3.88259865 -37.76402501 1.99286891 -32.41699219 0.00146484 C-31.50666229 -0.33274979 -30.5963324 -0.66696442 -29.65841675 -1.01130676 C-27.99599084 -1.62379546 -26.33788671 -2.24821904 -24.68557739 -2.88749695 C-15.7683197 -6.14538469 -8.60232923 -3.0274231 0 0 Z " fill="#3B5C82" transform="translate(272.390625,33.7890625)"/>
<path d="M0 0 C1.44008171 0.43122162 1.44008171 0.43122162 2.90925598 0.87115479 C8.61731506 2.71891807 14.28600167 4.66377286 19.94335938 6.66113281 C21.2535795 7.12079146 22.56390994 7.58013579 23.87434387 8.03918457 C26.60055264 8.99502434 29.32589612 9.95327474 32.05053711 10.91357422 C35.52229345 12.1371901 38.99545794 13.3567444 42.46918774 14.57474518 C45.81519474 15.74809434 49.160582 16.92320533 52.50585938 18.09863281 C53.74248825 18.53308716 54.97911713 18.9675415 56.2532196 19.41516113 C62.20108198 21.51084124 68.1317335 23.63606999 74.02539062 25.87988281 C74.02539062 26.53988281 74.02539062 27.19988281 74.02539062 27.87988281 C71.05539063 28.37488281 71.05539063 28.37488281 68.02539062 28.87988281 C68.05157471 29.8533667 68.07775879 30.82685059 68.10473633 31.82983398 C68.19549083 35.45443584 68.25272963 39.07893808 68.30004883 42.7043457 C68.32513609 44.27092396 68.35921478 45.8373858 68.40258789 47.40356445 C68.46350289 49.6602859 68.49165561 51.91545575 68.51367188 54.17285156 C68.5394783 54.86887985 68.56528473 55.56490814 68.59187317 56.2820282 C68.59408856 60.15551052 68.12465374 61.75484299 65.6862793 64.82641602 C63.02539063 66.87988281 63.02539063 66.87988281 59.96289062 67.44238281 C56.30155398 66.7412758 55.29525977 65.80482295 53.02539062 62.87988281 C52.57128906 59.85546875 52.57128906 59.85546875 52.63476562 56.36425781 C52.64765625 55.11386719 52.66054687 53.86347656 52.67382812 52.57519531 C52.72410156 50.62226563 52.72410156 50.62226563 52.77539062 48.62988281 C52.7934375 47.31246094 52.81148437 45.99503906 52.83007812 44.63769531 C52.87722792 41.38435974 52.94303019 38.13248656 53.02539062 34.87988281 C50.71539062 35.53988281 48.40539062 36.19988281 46.02539062 36.87988281 C46.02539062 51.06988281 46.02539062 65.25988281 46.02539062 79.87988281 C13.35539062 79.87988281 -19.31460938 79.87988281 -52.97460938 79.87988281 C-52.97460938 65.68988281 -52.97460938 51.49988281 -52.97460938 36.87988281 C-54.62460937 36.54988281 -56.27460937 36.21988281 -57.97460938 35.87988281 C-59.82436158 35.29442857 -61.663994 34.67635638 -63.49414062 34.03222656 C-64.51572266 33.67451172 -65.53730469 33.31679687 -66.58984375 32.94824219 C-67.64494141 32.57505859 -68.70003906 32.201875 -69.78710938 31.81738281 C-71.39875977 31.25180664 -71.39875977 31.25180664 -73.04296875 30.67480469 C-75.68791055 29.74613623 -78.33172992 28.81440092 -80.97460938 27.87988281 C-80.97460938 27.21988281 -80.97460938 26.55988281 -80.97460938 25.87988281 C-80.43543884 25.68911163 -79.89626831 25.49834045 -79.34075928 25.30178833 C-78.57249817 25.0299472 -77.80423706 24.75810608 -77.01269531 24.47802734 C-76.14113297 24.16964935 -75.26957062 23.86127136 -74.37159729 23.54354858 C-72.40009002 22.84577831 -70.42868799 22.14771062 -68.4573822 21.44937134 C-63.0026074 19.51725438 -57.54636275 17.58948992 -52.0871582 15.66992188 C-37.95804034 10.69466885 -37.95804034 10.69466885 -23.93945312 5.41894531 C-22.66720036 4.93256058 -21.39474946 4.44669373 -20.12207031 3.96142578 C-17.89257506 3.10341935 -15.67212114 2.22134263 -13.46386719 1.31005859 C-8.56301918 -0.55528549 -5.10316965 -1.53658839 0 0 Z " fill="#3B5C82" transform="translate(97.974609375,81.1201171875)"/>
<path d="M0 0 C32.67 0 65.34 0 99 0 C99 50.58518145 99 50.58518145 85.25 65.25 C74.38461973 75.43757772 61.38992099 79.65721271 46.671875 79.47045898 C33.61647413 78.9500747 23.9954634 74.18203743 14.3125 65.625 C-4.22940255 44.57743494 0 31.7275178 0 0 Z " fill="#F9B97A" transform="translate(45,161)"/>
<path d="M0 0 C32.67 0 65.34 0 99 0 C99 50.61198428 99 50.61198428 84.0625 66.3125 C72.91545052 76.96555692 60.46290775 79.53854938 45.3984375 79.27734375 C32.40987302 78.71201212 20.62347689 72.58078483 11.8125 63.18359375 C-3.5979 44.6180472 0 23.84082784 0 0 Z " fill="#F9B97A" transform="translate(368,161)"/>
<path d="M0 0 C33 0 66 0 100 0 C100 49.26590909 100 49.26590909 85.32421875 64.7421875 C75.28164189 74.4978336 64.00145334 78.89497107 50 79.25 C35.90940773 78.84995164 24.48901192 74.23844964 14.25390625 64.4140625 C-3.47238514 45.42819061 0 26.33144829 0 0 Z " fill="#F9B97A" transform="translate(206,110)"/>
<path d="M0 0 C5.15625 1.711875 10.3125 3.42375 15.625 5.1875 C18.01806396 5.98063599 18.01806396 5.98063599 20.45947266 6.78979492 C21.12151703 7.01008865 21.7835614 7.23038239 22.46566772 7.45735168 C23.83774777 7.91376252 25.21055892 8.3679784 26.58389282 8.82060242 C30.05532522 9.97390613 33.49113245 11.169737 36.89355469 12.51416016 C38.09141602 12.97999512 39.28927734 13.44583008 40.5234375 13.92578125 C41.56161621 14.34899658 42.59979492 14.77221191 43.66943359 15.20825195 C51.57362604 17.08725035 58.83350278 14.30927221 66.25 11.62109375 C67.18932373 11.28956802 68.12864746 10.9580423 69.09643555 10.61647034 C72.06758874 9.56584718 75.03384541 8.50214366 78 7.4375 C80.99566888 6.37214396 83.99227238 5.30946416 86.98925781 4.24781799 C88.84766563 3.58842994 90.70511733 2.92633995 92.56152344 2.26133728 C93.39329102 1.96425369 94.22505859 1.6671701 95.08203125 1.36108398 C95.81655518 1.0976268 96.5510791 0.83416962 97.30786133 0.56272888 C99 0 99 0 100 0 C100 14.52 100 29.04 100 44 C67 44 34 44 0 44 C0 29.48 0 14.96 0 0 Z " fill="#506D8E" transform="translate(206,66)"/>
<path d="M0 0 C6.83051379 1.8628674 13.28763706 3.71358286 19.8515625 6.20703125 C21.46051897 6.79996506 23.06990725 7.39172822 24.6796875 7.98242188 C27.16333213 8.89766904 29.64352418 9.81955363 32.1171875 10.76147461 C34.54207887 11.68156598 36.97640543 12.57141057 39.4140625 13.45703125 C40.14243317 13.74230179 40.87080383 14.02757233 41.62124634 14.32148743 C47.3209735 16.34983037 51.3006888 15.82816892 57 14 C57.76227905 13.75838638 58.52455811 13.51677277 59.30993652 13.26783752 C61.74021867 12.46180614 64.14943302 11.6092192 66.55859375 10.7421875 C67.42895767 10.43427277 68.29932159 10.12635803 69.19606018 9.80911255 C71.944991 8.83601646 74.69140762 7.85607474 77.4375 6.875 C80.2088443 5.88755093 82.98070702 4.90164912 85.75392151 3.91946411 C87.47230993 3.3106309 89.18958665 2.69864902 90.90562439 2.08322144 C96.77585601 0 96.77585601 0 99 0 C99 14.19 99 28.38 99 43 C66.33 43 33.66 43 0 43 C0 28.81 0 14.62 0 0 Z " fill="#4D6C8E" transform="translate(368,118)"/>
<path d="M0 0 C6.83051379 1.8628674 13.28763706 3.71358286 19.8515625 6.20703125 C21.46051897 6.79996506 23.06990725 7.39172822 24.6796875 7.98242188 C27.16333213 8.89766904 29.64352418 9.81955363 32.1171875 10.76147461 C34.54207887 11.68156598 36.97640543 12.57141057 39.4140625 13.45703125 C40.14243317 13.74230179 40.87080383 14.02757233 41.62124634 14.32148743 C47.3209735 16.34983037 51.3006888 15.82816892 57 14 C57.76227905 13.75838638 58.52455811 13.51677277 59.30993652 13.26783752 C61.74021867 12.46180614 64.14943302 11.6092192 66.55859375 10.7421875 C67.42895767 10.43427277 68.29932159 10.12635803 69.19606018 9.80911255 C71.944991 8.83601646 74.69140762 7.85607474 77.4375 6.875 C80.2088443 5.88755093 82.98070702 4.90164912 85.75392151 3.91946411 C87.47230993 3.3106309 89.18958665 2.69864902 90.90562439 2.08322144 C96.77585601 0 96.77585601 0 99 0 C99 14.19 99 28.38 99 43 C66.33 43 33.66 43 0 43 C0 28.81 0 14.62 0 0 Z " fill="#4D6C8E" transform="translate(45,118)"/>
<path d="M0 0 C1.15371094 0.00322266 2.30742187 0.00644531 3.49609375 0.00976562 C4.68589844 0.01814453 5.87570313 0.02652344 7.1015625 0.03515625 C8.92107422 0.04192383 8.92107422 0.04192383 10.77734375 0.04882812 C13.76046757 0.06057271 16.74348929 0.07699785 19.7265625 0.09765625 C19.7265625 0.42765625 19.7265625 0.75765625 19.7265625 1.09765625 C18.41945313 1.17242187 17.11234375 1.2471875 15.765625 1.32421875 C-8.11591416 2.96672144 -27.71104175 10.96876723 -46.2734375 26.09765625 C-47.06234375 26.7215625 -47.85125 27.34546875 -48.6640625 27.98828125 C-68.01911003 44.0949292 -80.16879335 70.14416315 -83.06616211 94.80541992 C-85.86067092 125.70959334 -78.28595627 153.58608956 -58.41796875 177.6328125 C-39.22000152 199.69823567 -14.99862013 211.03226727 13.7265625 215.09765625 C13.7265625 215.42765625 13.7265625 215.75765625 13.7265625 216.09765625 C-13.90759424 217.28622213 -40.11354356 209.49155098 -61.2734375 191.09765625 C-62.08296875 190.4325 -62.8925 189.76734375 -63.7265625 189.08203125 C-83.16250094 172.57981937 -96.5784763 147.53295672 -99.2734375 122.09765625 C-100.71769201 90.34675657 -94.46108726 63.03978053 -74.2734375 38.09765625 C-73.73847656 37.42089844 -73.20351562 36.74414062 -72.65234375 36.046875 C-56.05010243 15.75524672 -26.49448996 -0.13116084 0 0 Z " fill="#B7CFE7" transform="translate(247.2734375,266.90234375)"/>
<path d="M0 0 C0.99 0.99 0.99 0.99 2 2 C1.23558594 2.12375 0.47117187 2.2475 -0.31640625 2.375 C-18.21040929 5.82029541 -32.21188887 15.61822959 -42.8125 30.3125 C-55.92971388 50.49830292 -65.48776283 79.54815737 -62 104 C-60.95849073 107.50103585 -59.62227724 110.73176264 -58 114 C-57.70867188 114.7115625 -57.41734375 115.423125 -57.1171875 116.15625 C-55.70786239 118.4821292 -54.48188002 118.95643071 -52 120 C-51.34644531 120.37898438 -50.69289062 120.75796875 -50.01953125 121.1484375 C-42.13173626 125.53209702 -33.74662975 127.2281372 -25 129 C-24.33645508 129.14179688 -23.67291016 129.28359375 -22.98925781 129.4296875 C-9.47066542 132.29993446 4.23240958 133.11560975 18 134 C18 134.33 18 134.66 18 135 C-58.12162212 136.34930609 -58.12162212 136.34930609 -77.78125 118.37109375 C-84.40560088 111.11353286 -85.62285299 103.70555176 -85.34765625 94.12890625 C-83.70632546 64.39081606 -75.2039037 36.73475296 -53.6015625 15.66015625 C-38.80990155 2.85873539 -19.17960767 -1.50278466 0 0 Z " fill="#1CA63E" transform="translate(85,239)"/>
<path d="M0 0 C-3.0906532 1.62222222 -6.11678085 2.65466951 -9.48193359 3.59667969 C-27.12734452 8.60746289 -40.91331633 19.88757748 -50.05566406 35.84228516 C-51.15314566 37.83775148 -52.21029413 39.84886284 -53.25 41.875 C-53.56727051 42.48609619 -53.88454102 43.09719238 -54.21142578 43.72680664 C-59.51363908 54.51373192 -61.83186375 66.15724813 -63.75 77.9375 C-63.97042969 79.19240234 -64.19085938 80.44730469 -64.41796875 81.74023438 C-65.83624293 90.28071147 -66.27000316 98.35406544 -66 107 C-67.485 107.495 -67.485 107.495 -69 108 C-69.1959375 107.37996094 -69.391875 106.75992188 -69.59375 106.12109375 C-71.58955174 100.21111188 -74.02950163 94.69260876 -76.9375 89.1875 C-77.26105469 88.56609131 -77.58460938 87.94468262 -77.91796875 87.30444336 C-79.61480453 84.16033122 -81.33058598 81.56456839 -83.77734375 78.953125 C-86 76 -86 76 -86.2265625 72.87890625 C-82.97670337 54.9624751 -77.01857867 37.93614965 -65 24 C-64.45730469 23.31421875 -63.91460937 22.6284375 -63.35546875 21.921875 C-54.21437864 10.70423749 -39.54645189 2.23645592 -25.171875 0.19775391 C-16.83062208 -0.56173517 -8.36269433 -0.20898698 0 0 Z " fill="#E82F41" transform="translate(250,188)"/>
<path d="M0 0 C0 0.66 0 1.32 0 2 C-1.52367187 2.41958984 -1.52367187 2.41958984 -3.078125 2.84765625 C-21.99923612 8.26522948 -37.24886986 18.25137087 -47.00390625 35.80664062 C-54.35821 49.4161732 -58.45286908 62.79440028 -61 78 C-64.2640341 74.82663352 -67.21230512 71.59702565 -70 68 C-72.82419869 64.41626302 -75.673605 61.11849531 -79 58 C-74.80840927 39.83644017 -63.85288739 21.18035762 -48 11 C-32.74066978 1.64151969 -17.68638014 -0.69509791 0 0 Z " fill="#4D8FED" transform="translate(409,239)"/>
<path d="M0 0 C2.475 0.99 2.475 0.99 5 2 C8.46496708 1.64643193 11.61592279 0.8460193 15 0 C14.67 29.04 14.34 58.08 14 88 C8.97915378 90.51042311 7.37773324 89.95411396 2 89 C1.34 88.67 0.68 88.34 0 88 C0 58.96 0 29.92 0 0 Z " fill="#EC9E00" transform="translate(249,332)"/>
<path d="M0 0 C3.96 0 7.92 0 12 0 C12.01401855 1.6245813 12.01401855 1.6245813 12.02832031 3.28198242 C12.06867734 7.36212912 12.13455387 11.44155737 12.20751953 15.52124023 C12.2354675 17.27537698 12.25680992 19.02963353 12.27099609 20.78393555 C12.41245062 37.30110926 14.40633899 51.56823106 26.1015625 64.28515625 C33.88817878 71.64529708 42.75110391 75.31784209 53 78 C53 78.33 53 78.66 53 79 C39.00296477 79.9079158 26.66011732 76.18836214 15.81640625 67.1875 C6.35589186 58.31715002 0.30441551 46.42502547 -0.31933594 33.38549805 C-0.43914461 28.31734554 -0.35102048 23.25520177 -0.25 18.1875 C-0.22988632 16.41603602 -0.21164423 14.64454976 -0.1953125 12.87304688 C-0.15174345 8.58146957 -0.08299167 4.2909885 0 0 Z " fill="#F5AD66" transform="translate(368,161)"/>
<path d="M0 0 C3.96 0 7.92 0 12 0 C12.01458252 1.02770508 12.02916504 2.05541016 12.04418945 3.11425781 C12.10284112 6.98372539 12.18005937 10.85265093 12.26245117 14.72167969 C12.29538998 16.38565167 12.32351487 18.04972706 12.34643555 19.71386719 C12.5818156 36.36074586 14.4283144 51.09177436 26.3125 63.875 C32.79230421 69.80640207 40.28383041 73.3917104 48.5546875 76.140625 C50.82062092 76.93695943 52.88077249 77.87631657 55 79 C40.30673546 79.57370664 28.06558737 76.49033237 16.6875 66.75 C6.49729798 56.9687146 0.30287362 45.388891 -0.11352539 31.10595703 C-0.11336906 29.65656588 -0.10783919 28.20716789 -0.09765625 26.7578125 C-0.0962413 25.98944061 -0.09482635 25.22106873 -0.09336853 24.42941284 C-0.08780683 21.99456761 -0.0752616 19.55981706 -0.0625 17.125 C-0.05748004 15.46614717 -0.05291801 13.80729288 -0.04882812 12.1484375 C-0.03784998 8.0989223 -0.02061206 4.04947716 0 0 Z " fill="#F5AD65" transform="translate(206,110)"/>
<path d="M0 0 C3.63 0 7.26 0 11 0 C11.01458252 0.96188232 11.02916504 1.92376465 11.04418945 2.91479492 C11.10298442 6.54762537 11.18019611 10.17988728 11.26245117 13.81225586 C11.29532463 15.37238205 11.32346804 16.93261647 11.34643555 18.49291992 C11.61240283 36.09769037 13.93892979 51.40823102 26.47265625 64.671875 C35.77762015 73.24337188 45.55292119 77.26031704 58 78 C58 78.33 58 78.66 58 79 C40.55469493 79.70486081 27.80638142 77.54982544 14.3125 65.625 C6.76249036 57.05471878 -0.15132591 47.81898711 -0.11352539 35.87402344 C-0.11344986 35.07349548 -0.11337433 34.27296753 -0.11329651 33.44818115 C-0.10813522 32.59387512 -0.10297394 31.73956909 -0.09765625 30.859375 C-0.0962413 29.97719299 -0.09482635 29.09501099 -0.09336853 28.18609619 C-0.08778001 25.37402935 -0.07522961 22.5620427 -0.0625 19.75 C-0.05748352 17.84114698 -0.05292087 15.93229272 -0.04882812 14.0234375 C-0.03781434 9.34892753 -0.02055758 4.67447735 0 0 Z " fill="#F4AD65" transform="translate(45,161)"/>
<path d="M0 0 C2.26721176 4.53442352 1.1850245 10.83426212 1.1875 15.8125 C1.19974609 17.09705078 1.21199219 18.38160156 1.22460938 19.70507812 C1.22750977 21.56229492 1.22750977 21.56229492 1.23046875 23.45703125 C1.23457764 24.59116455 1.23868652 25.72529785 1.24291992 26.89379883 C0.90918094 31.16129737 0.04040713 33.95959287 -3 37 C-8.63994911 37.63676845 -8.63994911 37.63676845 -11 37 C-13.6273467 34.33486729 -14.89677856 32.69241605 -15.45410156 28.95385742 C-15.4331543 27.84888916 -15.41220703 26.7439209 -15.390625 25.60546875 C-15.37773437 24.40341797 -15.36484375 23.20136719 -15.3515625 21.96289062 C-15.31804687 20.71701172 -15.28453125 19.47113281 -15.25 18.1875 C-15.23195313 16.92228516 -15.21390625 15.65707031 -15.1953125 14.35351562 C-15.14823916 11.23490665 -15.08249094 8.11784027 -15 5 C-13.06532058 4.16013916 -11.12714871 3.32831973 -9.1875 2.5 C-8.10855469 2.0359375 -7.02960938 1.571875 -5.91796875 1.09375 C-3 0 -3 0 0 0 Z " fill="#FDAA02" transform="translate(327,59)"/>
<path d="M0 0 C0.12397147 4.46564301 0.21450992 8.93036439 0.2746582 13.3972168 C0.29974109 14.91529801 0.3338166 16.43325918 0.37719727 17.95092773 C0.43813293 20.13815965 0.46626895 22.32379039 0.48828125 24.51171875 C0.51446533 25.82615967 0.54064941 27.14060059 0.56762695 28.49487305 C-0.14174528 32.87528474 -1.54008647 34.31213067 -5 37 C-8.0625 37.5625 -8.0625 37.5625 -11 37 C-13.98848227 34.76573442 -14.9097044 33.61964139 -15.45410156 29.88378906 C-15.4331543 28.68979492 -15.41220703 27.49580078 -15.390625 26.265625 C-15.37773437 24.97011719 -15.36484375 23.67460937 -15.3515625 22.33984375 C-15.31814366 20.97655176 -15.28428391 19.61327051 -15.25 18.25 C-15.22992707 16.87111936 -15.21167767 15.49221088 -15.1953125 14.11328125 C-15.14815448 10.74148256 -15.08234538 7.37109313 -15 4 C-13.44219668 3.32243118 -11.87849904 2.65840543 -10.3125 2 C-9.44238281 1.62875 -8.57226562 1.2575 -7.67578125 0.875 C-4.9427998 -0.01870488 -2.85299066 -0.16449676 0 0 Z " fill="#FEAA02" transform="translate(166,111)"/>
<path d="M0 0 C0.1237709 4.6263658 0.21441516 9.25176461 0.2746582 13.87939453 C0.29977448 15.45280751 0.33387472 17.02610412 0.37719727 18.59912109 C0.43798399 20.86324772 0.46623582 23.12583022 0.48828125 25.390625 C0.51408768 26.09181458 0.5398941 26.79300415 0.56648254 27.51544189 C0.56860581 31.22826471 0.25984986 32.72035232 -2.30395508 35.47949219 C-5.97571147 37.550279 -7.99975816 37.11117829 -12 36 C-13.69262695 34.85620117 -13.69262695 34.85620117 -15 33 C-15.34057617 29.99731445 -15.34057617 29.99731445 -15.29296875 26.36328125 C-15.2784668 24.41518555 -15.2784668 24.41518555 -15.26367188 22.42773438 C-15.23860585 21.05598361 -15.21321101 19.68423882 -15.1875 18.3125 C-15.1724502 16.92905076 -15.1587623 15.54558599 -15.14648438 14.16210938 C-15.11107223 10.77434793 -15.06168054 7.38736861 -15 4 C-13.44219668 3.32243118 -11.87849904 2.65840543 -10.3125 2 C-9.44238281 1.62875 -8.57226562 1.2575 -7.67578125 0.875 C-4.9427998 -0.01870488 -2.85299066 -0.16449676 0 0 Z " fill="#FEAA02" transform="translate(489,111)"/>
<path d="M0 0 C0.78834229 0.26409668 1.57668457 0.52819336 2.38891602 0.80029297 C10.20163099 3.32424983 17.81093067 5.01418692 25.9375 6.125 C27.09032471 6.28967773 28.24314941 6.45435547 29.4309082 6.62402344 C40.25498024 8.12623062 51.10642055 9.16287964 62 10 C62 10.33 62 10.66 62 11 C49.37717009 11.22374801 36.84262497 11.09253366 24.25 10.125 C22.68306396 10.00729248 22.68306396 10.00729248 21.08447266 9.88720703 C13.98205099 9.29844622 7.01115079 8.27149263 0 7 C0 4.69 0 2.38 0 0 Z " fill="#5193F0" transform="translate(364,363)"/>
<path d="M0 0 C0.66 0.33 1.32 0.66 2 1 C-1.96 4.96 -5.92 8.92 -10 13 C-10 8.97698923 -8.67577112 7.95743123 -6 5 C-4.05056443 3.25501743 -2.04941287 1.63021478 0 0 Z " fill="#4D9DF1" transform="translate(358,252)"/>
</svg>
