<?xml version="1.0" encoding="UTF-8"?>
<svg version="1.1" xmlns="http://www.w3.org/2000/svg" width="512" height="512">
<path d="M0 0 C0.80140411 -0.00067474 1.60280823 -0.00134949 2.42849731 -0.00204468 C15.42949079 0.0153062 28.03523894 0.66858383 40.8125 3.25 C41.69389648 3.42692383 42.57529297 3.60384766 43.48339844 3.78613281 C52.91112637 5.74053828 62.14661933 8.17067837 71.25 11.3125 C71.92973877 11.54557861 72.60947754 11.77865723 73.30981445 12.01879883 C78.61696318 13.94800193 83.30618626 16.19137123 86.6875 20.8125 C88.64395423 26.79055459 89.12450157 33.38852787 86.3125 39.1875 C83.29058767 42.8893426 80.45282909 45.02925983 75.8125 46.25 C69.06025807 46.81026145 63.89372579 45.22704733 57.5625 43 C47.12024491 39.49684889 36.67995436 37.01283131 25.8125 35.25 C24.62914062 35.05664062 23.44578125 34.86328125 22.2265625 34.6640625 C3.65005 32.49182754 -16.98142455 33.12786971 -35.1875 37.25 C-36.4859082 37.54003906 -36.4859082 37.54003906 -37.81054688 37.8359375 C-83.78286737 48.46765187 -123.58025558 76.49168258 -148.81640625 116.34765625 C-154.89720462 126.2276592 -159.84065699 136.50273025 -164.1875 147.25 C-164.60515625 148.25289062 -165.0228125 149.25578125 -165.453125 150.2890625 C-167.36255469 155.51572173 -167.4243024 159.15352982 -165.265625 164.33984375 C-163.01282189 168.33122317 -160.34496017 169.84288931 -156.11144352 171.33193398 C-151.63454564 172.55076544 -147.26823123 172.52627421 -142.65440369 172.5015564 C-141.71343906 172.50452654 -140.77247444 172.50749667 -139.80299574 172.51055682 C-136.66018658 172.51817573 -133.51756547 172.51171146 -130.37475586 172.50537109 C-128.11747613 172.50812191 -125.86019737 172.51180236 -123.60292053 172.51634216 C-118.74717335 172.52444661 -113.8914722 172.52662455 -109.03571892 172.52439499 C-101.35894383 172.52156109 -93.6822607 172.53591594 -86.00550842 172.55337524 C-75.24447871 172.57655714 -64.48345879 172.59568216 -53.72241211 172.60839844 C-52.69894857 172.60961399 -52.69894857 172.60961399 -51.65480901 172.6108541 C-41.96678552 172.62208151 -32.27876778 172.62735847 -22.59073866 172.63024123 C-21.90812645 172.63044522 -21.22551423 172.63064921 -20.5222168 172.63085938 C-19.49955055 172.63115928 -19.49955055 172.63115928 -18.45622437 172.63146524 C-7.08574199 172.6351986 4.28463661 172.65451557 15.65508169 172.68595374 C23.28798318 172.70619347 30.92061623 172.70852563 38.55353367 172.69767356 C43.29894685 172.69507003 48.04420303 172.70905263 52.78957558 172.72775459 C54.99142129 172.73308535 57.19329576 172.73156478 59.39513016 172.72271919 C62.39925937 172.71162289 65.4023234 172.7250011 68.40638733 172.74447632 C69.27905355 172.73535166 70.15171977 172.726227 71.05083042 172.71682584 C76.45950507 172.78513016 79.50825283 173.67849396 83.8125 177.25 C87.44083663 181.06930172 88.12250458 184.13279006 88.3125 189.25 C88.12250458 194.36720994 87.44083663 197.43069828 83.8125 201.25 C78.58022687 205.6289405 74.57478788 205.8219577 68.05366516 205.75793457 C67.07624727 205.76417453 66.09882938 205.7704145 65.09179276 205.77684355 C61.81916861 205.79278802 58.54728778 205.78016299 55.2746582 205.76757812 C52.92711452 205.77299875 50.57957424 205.78012107 48.23204041 205.78881836 C41.85574271 205.80706652 35.47970369 205.79997649 29.10340142 205.78730202 C23.10422562 205.77820276 17.10507354 205.78514831 11.1058984 205.7910108 C-1.50641893 205.80241475 -14.11861995 205.78930815 -26.73091821 205.76780933 C-37.53673498 205.74995917 -48.34237973 205.75302554 -59.14819336 205.77148438 C-71.7083708 205.79293016 -84.26844613 205.80129437 -96.82863933 205.78903532 C-103.47273969 205.78272596 -110.11674439 205.7819416 -116.76083946 205.79518127 C-123.01292214 205.80676885 -129.26468146 205.79866045 -135.51672935 205.77560425 C-137.80677759 205.7703316 -140.0968532 205.77180606 -142.38689041 205.78065491 C-164.47619838 205.85811357 -164.47619838 205.85811357 -173.1875 201.25 C-174.17105469 200.78078125 -175.15460938 200.3115625 -176.16796875 199.828125 C-187.44180986 193.04386663 -195.86989502 183.52023589 -199.65625 170.71875 C-205.32891877 144.35752454 -190.26366874 117.73984899 -176.4140625 96.1628418 C-158.0754178 68.49791581 -134.19454786 44.61931559 -105.1875 28.25 C-104.50381348 27.86102539 -103.82012695 27.47205078 -103.11572266 27.07128906 C-79.0270224 13.50451613 -53.44090827 5.4083522 -26.1875 1.25 C-25.17175903 1.09096191 -25.17175903 1.09096191 -24.13549805 0.92871094 C-16.14851608 -0.14326403 -8.04422853 0.00608466 0 0 Z " fill="#000000" transform="translate(232.1875,274.75)"/>
<path d="M0 0 C0.98870087 0.00081573 0.98870087 0.00081573 1.99737549 0.00164795 C12.96835301 0.0431506 23.0064998 0.97041968 33.4375 4.375 C34.13504395 4.59994141 34.83258789 4.82488281 35.55126953 5.05664062 C64.90564523 14.7811566 88.35861113 35.42896186 102.3125 63.015625 C115.40457107 90.18297994 116.79126392 121.70503432 107.24414062 150.18896484 C101.74496088 165.09200826 92.81489893 178.46159618 82.4375 190.375 C81.90898437 190.98859375 81.38046875 191.6021875 80.8359375 192.234375 C67.57050617 206.52022412 48.8645231 215.84060398 30.4375 221.375 C29.39722656 221.6946875 28.35695313 222.014375 27.28515625 222.34375 C8.39036251 227.10603174 -14.02842101 226.38234578 -32.5625 220.375 C-33.2440918 220.16069336 -33.92568359 219.94638672 -34.62792969 219.72558594 C-48.86482687 215.14014367 -61.23170722 208.17868094 -72.5625 198.375 C-73.34753906 197.7459375 -74.13257813 197.116875 -74.94140625 196.46875 C-90.48097688 183.49832187 -100.4505444 166.03046991 -106.9375 147.125 C-107.17654053 146.42898682 -107.41558105 145.73297363 -107.66186523 145.01586914 C-114.269545 124.48922323 -114.10893057 99.88310812 -107.5625 79.375 C-107.35882813 78.70791016 -107.15515625 78.04082031 -106.9453125 77.35351562 C-98.42717422 50.09021502 -79.25265959 27.49393592 -54.5625 13.375 C-37.31312019 4.3847163 -19.42679911 -0.02715654 0 0 Z M-54.55859375 54.40234375 C-69.56298064 68.86931735 -78.4128826 88.37359578 -79.03344727 109.22094727 C-79.22460783 129.97391628 -73.34048319 148.58450241 -59.5625 164.375 C-58.78777344 165.344375 -58.01304687 166.31375 -57.21484375 167.3125 C-46.54165336 180.09311013 -28.04559593 189.64435894 -11.5625 191.375 C13.16057364 192.97106379 35.33753248 187.93224738 54.4375 171.375 C70.59692243 155.73992461 79.28681738 136.49113234 80.4296875 114.03125 C80.47851043 91.1821191 71.80628824 71.39426586 56.171875 54.91015625 C48.65711904 47.94290394 39.87222668 42.36775267 30.4375 38.375 C29.57382812 38.00632812 28.71015625 37.63765625 27.8203125 37.2578125 C-0.41240821 26.54345589 -32.59146969 34.30164045 -54.55859375 54.40234375 Z " fill="#000000" transform="translate(232.5625,31.625)"/>
<path d="M0 0 C7.22593318 6.4568852 13.99964013 13.38266684 20.82641602 20.25512695 C22.13868187 21.57241754 23.45117996 22.88947682 24.76391602 24.20629883 C27.95410108 27.40741306 31.14112252 30.6116456 34.32641602 33.81762695 C37.29916226 32.48557714 39.32456817 31.04657943 41.57519531 28.70068359 C42.49216438 27.75443871 42.49216438 27.75443871 43.42765808 26.78907776 C44.07874039 26.10885056 44.72982269 25.42862335 45.40063477 24.7277832 C46.8043277 23.28904269 48.20864458 21.8509107 49.61352539 20.41333008 C51.81438658 18.15070065 54.01029786 15.88389899 56.1953125 13.60595703 C58.31252137 11.40357172 60.44860468 9.22096202 62.58813477 7.0402832 C63.22909592 6.36208023 63.87005707 5.68387726 64.53044128 4.98512268 C68.90748387 0.55985752 73.09703192 -2.16026786 79.32641602 -3.18237305 C85.60462903 -2.81265171 90.05561474 -0.96160305 94.32641602 3.81762695 C96.74721214 8.23858442 97.72959129 12.373866 96.95141602 17.38012695 C93.6482932 28.04411421 81.63027982 36.62772336 73.88891602 44.31762695 C72.57162543 45.62989281 71.25456615 46.9423909 69.93774414 48.25512695 C66.73662991 51.44531201 63.53239737 54.63233346 60.32641602 57.81762695 C61.65846583 60.7903732 63.09746354 62.81577911 65.44335938 65.06640625 C66.0741893 65.67771896 66.70501923 66.28903168 67.35496521 66.91886902 C68.03519241 67.56995132 68.71541962 68.22103363 69.41625977 68.8918457 C70.85500028 70.29553864 72.29313227 71.69985551 73.73071289 73.10473633 C75.99334232 75.30559751 78.26014398 77.5015088 80.53808594 79.68652344 C82.74047125 81.80373231 84.92308095 83.93981561 87.10375977 86.0793457 C87.78196274 86.72030685 88.46016571 87.36126801 89.15892029 88.02165222 C93.58418545 92.39869481 96.30431083 96.58824286 97.32641602 102.81762695 C96.95669468 109.09583997 95.10564602 113.54682568 90.32641602 117.81762695 C85.90545855 120.23842308 81.77017696 121.22080223 76.76391602 120.44262695 C66.09992875 117.13950414 57.51631961 105.12149076 49.82641602 97.38012695 C48.51415016 96.06283637 47.20165207 94.74577709 45.88891602 93.42895508 C42.69873095 90.22784085 39.51170951 87.0236083 36.32641602 83.81762695 C33.35248738 85.15241678 31.3020023 86.60599764 29.0300293 88.93457031 C28.40903351 89.56540024 27.78803772 90.19623016 27.14822388 90.84617615 C26.15748367 91.86651695 26.15748367 91.86651695 25.14672852 92.9074707 C23.72888146 94.34574172 22.31090879 95.78388892 20.89282227 97.22192383 C18.66968145 99.48852565 16.44906697 101.75753308 14.23120117 104.02929688 C12.08454956 106.22435665 9.92866859 108.41002677 7.77172852 110.5949707 C7.11528351 111.27317368 6.4588385 111.95137665 5.78250122 112.65013123 C1.12663527 117.35559128 -2.75552525 120.48816871 -9.54858398 121.25512695 C-15.03209903 120.99300864 -19.52141069 119.12613245 -23.28686523 115.0871582 C-26.25316767 110.90091167 -27.23036189 107.28211282 -27.23999023 102.1887207 C-25.49816668 94.89708693 -20.23841345 89.9752295 -15.06420898 84.9152832 C-13.97399445 83.83143593 -13.97399445 83.83143593 -12.86175537 82.72569275 C-10.55602287 80.43665116 -8.24004322 78.15830756 -5.92358398 75.88012695 C-4.35127895 74.32288107 -2.7796569 72.76494526 -1.20874023 71.20629883 C2.6284447 67.40205587 6.47408065 63.60652393 10.32641602 59.81762695 C8.9943662 56.84488071 7.55536849 54.8194748 5.20947266 52.56884766 C4.57864273 51.95753494 3.94781281 51.34622223 3.29786682 50.71638489 C2.61763962 50.06530258 1.93741241 49.41422028 1.23657227 48.7434082 C-0.20216825 47.33971527 -1.64030024 45.93539839 -3.07788086 44.53051758 C-5.34051028 42.32965639 -7.60731195 40.13374511 -9.88525391 37.94873047 C-12.08763922 35.8315216 -14.27024892 33.69543829 -16.45092773 31.5559082 C-17.12913071 30.91494705 -17.80733368 30.2739859 -18.50608826 29.61360168 C-22.93135342 25.2365591 -25.6514788 21.04701104 -26.67358398 14.81762695 C-26.30386265 8.53941394 -24.45281398 4.08842823 -19.67358398 -0.18237305 C-13.2299839 -3.71071329 -6.22713651 -4.39941971 0 0 Z " fill="#000000" transform="translate(364.673583984375,341.182373046875)"/>
</svg>
