<?xml version="1.0" encoding="UTF-8"?>
<svg version="1.1" xmlns="http://www.w3.org/2000/svg" width="512" height="512">
<path d="M0 0 C13.83547224 0.8097387 27.66235103 1.33796152 41.51689851 1.68535978 C42.50290943 1.71015868 43.48892035 1.73495759 44.50481039 1.76050798 C49.45804644 1.88380215 54.41137163 2.00303028 59.36474073 2.12084049 C89.35755904 2.84173345 119.33329392 3.85436944 149.29366148 5.43428439 C151.61038486 5.55461383 153.92732628 5.66915059 156.24442232 5.78205472 C159.83931384 5.9584504 163.43287812 6.15204649 167.02611417 6.35939118 C168.91737693 6.46551781 170.80942194 6.5574219 172.70146644 6.6485554 C184.41801051 7.37203415 196.05446895 9.8948574 206.48369539 15.45757657 C207.15231599 15.80522062 207.8209366 16.15286466 208.50981843 16.51104337 C213.86001525 19.3646117 218.62297739 22.54408257 223.10869539 26.64507657 C224.44674226 27.84583829 224.44674226 27.84583829 225.81182039 29.07085782 C239.30015461 41.80369791 248.91785067 59.49614874 250.38933969 78.21519798 C250.4963064 82.25886274 250.51417911 86.29295703 250.49637544 90.33753568 C250.50055588 91.89638038 250.50603727 93.45522203 250.51269525 95.01405811 C250.52707561 99.2678431 250.52292848 103.52143312 250.51552844 107.77522844 C250.51078058 112.37454762 250.52332092 116.97382559 250.53354585 121.57313138 C250.55070794 130.57226581 250.55157919 139.57133033 250.54633295 148.57047687 C250.54228495 155.88843318 250.54374228 163.2063689 250.54908121 170.52432424 C250.54982963 171.56745406 250.55057805 172.61058389 250.55134915 173.68532371 C250.55288069 175.80472534 250.55441904 177.92412696 250.55596412 180.04352858 C250.56967996 199.90187424 250.56425806 219.76018047 250.55277891 239.61852523 C250.54284895 257.76567438 250.55578475 275.91272154 250.5797131 294.05985496 C250.60412592 312.71569262 250.61370651 331.37148282 250.60706037 350.02733612 C250.60357282 360.49220426 250.60576948 370.956994 250.6233114 381.42185003 C250.63806074 390.33091052 250.63863322 399.23983741 250.62124049 408.14889536 C250.61275034 412.68954318 250.61053211 417.22995259 250.62589204 421.77058774 C250.63980876 425.93635124 250.63488722 430.10167366 250.61565281 434.26741209 C250.61191374 435.76529028 250.61475358 437.2632044 250.62526446 438.76105038 C250.71097302 451.9226007 248.5543796 464.2869622 242.29619539 476.02007657 C241.77472932 477.02300748 241.77472932 477.02300748 241.24272859 478.04619962 C238.38916026 483.39639644 235.20968939 488.15935858 231.10869539 492.64507657 C230.30818758 493.53710782 229.50767976 494.42913907 228.68291414 495.34820157 C215.95007405 508.83653579 198.25762322 518.45423186 179.53857398 519.92572087 C175.49490922 520.03268759 171.46081493 520.0505603 167.41623628 520.03275663 C165.85739158 520.03693707 164.29854993 520.04241846 162.73971385 520.04907644 C158.48592886 520.0634568 154.23233884 520.05930966 149.97854352 520.05190963 C145.37922434 520.04716177 140.77994637 520.05970211 136.18064058 520.06992704 C127.18150615 520.08708913 118.18244163 520.08796037 109.18329509 520.08271413 C101.86533878 520.07866614 94.54740306 520.08012347 87.22944772 520.08546239 C86.1863179 520.08621081 85.14318807 520.08695924 84.06844825 520.08773034 C81.94904662 520.08926188 79.829645 520.09080023 77.71024338 520.0923453 C57.85189772 520.10606114 37.99359149 520.10063924 18.13524673 520.08916009 C-0.01190242 520.07923014 -18.15894958 520.09216593 -36.306083 520.11609428 C-54.96192066 520.14050711 -73.61771086 520.15008769 -92.27356416 520.14344156 C-102.7384323 520.13995401 -113.20322204 520.14215066 -123.66807806 520.15969259 C-132.57713856 520.17444193 -141.48606545 520.17501441 -150.3951234 520.15762167 C-154.93577122 520.14913153 -159.47618063 520.1469133 -164.01681578 520.16227323 C-168.18257928 520.17618995 -172.34790169 520.1712684 -176.51364013 520.15203399 C-178.01151832 520.14829493 -179.50943244 520.15113477 -181.00727842 520.16164564 C-194.16882874 520.2473542 -206.53319024 518.09076079 -218.26630461 511.83257657 C-218.93492522 511.48493253 -219.60354582 511.13728849 -220.29242766 510.77910978 C-225.64262448 507.92554144 -230.40558662 504.74607058 -234.89130461 500.64507657 C-235.78333586 499.84456876 -236.67536711 499.04406095 -237.59442961 498.21929532 C-254.49005982 482.27000506 -261.79917737 461.73993858 -262.94516814 438.91147977 C-263.02042805 437.5638074 -263.09644981 436.21617739 -263.17315769 434.86858666 C-263.37812453 431.1958215 -263.56606559 427.52237115 -263.74938333 423.84846848 C-263.86789815 421.49303212 -263.99081658 419.13786097 -264.11484587 416.78270894 C-265.69664655 386.60253041 -266.66934528 356.40569577 -267.40218578 326.19386015 C-267.52292567 321.22234328 -267.6479179 316.25094172 -267.77558196 311.27959806 C-267.80090343 310.2906118 -267.8262249 309.30162554 -267.85231368 308.28267 C-268.2164851 294.43403609 -268.83112045 280.61706458 -269.65330914 266.7883471 C-278.74868335 113.63317969 -278.74868335 113.63317969 -230.53037453 58.56481892 C-169.16973017 -9.83997429 -85.01654141 -5.03513634 0 0 Z " fill="#01C16D" transform="translate(261.89130461215973,-7.64507657289505)"/>
<path d="M0 0 C1.65032575 1.41143074 3.29683797 2.82734758 4.9375 4.25 C6.01919428 5.10624137 7.10222522 5.96080142 8.1875 6.8125 C30.72062164 26.78503963 45.42345313 57.34932785 47.9375 87.25 C49.53957548 121.83895384 40.76334191 154.99539506 17.5625 181.375 C16.03112537 183.00970268 14.48905411 184.63443788 12.9375 186.25 C12.09445312 187.15621094 11.25140625 188.06242188 10.3828125 188.99609375 C3.80208961 195.8724723 -3.1030213 201.1446778 -11.0625 206.25 C-12.22265625 207.04664063 -12.22265625 207.04664063 -13.40625 207.859375 C-38.33483994 224.18584588 -72.13601476 229.37365814 -101.11962891 223.65673828 C-103.10998587 223.2198542 -105.08628013 222.7467682 -107.0625 222.25 C-107.71057617 222.08902832 -108.35865234 221.92805664 -109.02636719 221.76220703 C-131.00747259 216.078568 -149.73648494 204.88069925 -166.0625 189.25 C-167.18205078 188.22519531 -167.18205078 188.22519531 -168.32421875 187.1796875 C-189.07125623 167.5550901 -202.77161528 137.15775621 -204.18847656 108.72167969 C-204.82770515 85.45861408 -201.64664495 64.20600047 -191.0625 43.25 C-190.56105469 42.22519531 -190.05960938 41.20039063 -189.54296875 40.14453125 C-174.97545131 11.58946779 -148.66384403 -10.35673149 -118.375 -20.5625 C-78.06848082 -33.19017531 -33.21318696 -27.04759535 0 0 Z " fill="#FEFEFE" transform="translate(334.0625,198.75)"/>
<path d="M0 0 C0.81073975 0.4220874 1.62147949 0.8441748 2.45678711 1.27905273 C3.51591309 1.85635132 3.51591309 1.85635132 4.59643555 2.4453125 C6.62947833 3.24616593 6.62947833 3.24616593 8.70874023 2.26953125 C11.25113707 0.59442827 13.22793275 -1.41803652 15.34741211 -3.59985352 C16.54624023 -4.82575195 16.54624023 -4.82575195 17.76928711 -6.07641602 C18.37256836 -6.70290039 18.97584961 -7.32938477 19.59741211 -7.97485352 C24.47791136 -4.03291182 28.65547041 0.14464724 32.59741211 5.02514648 C32.04311523 5.4956543 31.48881836 5.96616211 30.91772461 6.45092773 C30.19327148 7.07354492 29.46881836 7.69616211 28.72241211 8.33764648 C28.00311523 8.9525293 27.28381836 9.56741211 26.54272461 10.20092773 C24.4056188 12.06637888 24.4056188 12.06637888 22.59741211 15.02514648 C23.15299805 15.27522461 23.70858398 15.52530273 24.28100586 15.78295898 C50.9149772 30.06559454 70.28054158 65.23614838 78.87084961 92.98999023 C83.00696228 107.80846909 85.13809236 121.95339765 84.97241211 137.27514648 C84.96593155 138.41785507 84.96593155 138.41785507 84.95932007 139.58364868 C84.69145769 179.97909091 70.61397168 216.51554142 42.59741211 246.02514648 C42.12851562 246.5265918 41.65961914 247.02803711 41.17651367 247.54467773 C30.62742563 258.76972676 18.47733256 269.0997967 4.59741211 276.02514648 C3.93741211 276.02514648 3.27741211 276.02514648 2.59741211 276.02514648 C5.96971978 285.15521386 9.76363165 293.96870877 13.90991211 302.77514648 C14.99094434 305.08168653 16.07046251 307.38893702 17.14819336 309.69702148 C17.85455933 311.19894043 17.85455933 311.19894043 18.57519531 312.73120117 C19.59741211 315.02514648 19.59741211 315.02514648 19.59741211 316.02514648 C14.85465462 317.3524976 11.31043198 317.56651147 6.59741211 316.02514648 C1.72124906 311.35699704 -1.54632741 305.17670266 -4.95727539 299.41088867 C-6.87703633 296.24198599 -9.00102765 293.30791744 -11.21508789 290.33764648 C-11.8402832 289.4881543 -12.46547852 288.63866211 -13.10961914 287.76342773 C-13.53629883 287.18979492 -13.96297852 286.61616211 -14.40258789 286.02514648 C-18.9432328 286.44753206 -22.94211805 287.47493557 -27.27758789 288.90014648 C-41.0370228 293.22201368 -54.67167003 294.57925296 -69.02758789 294.46264648 C-70.19331833 294.45908142 -70.19331833 294.45908142 -71.38259888 294.45544434 C-88.40838876 294.37441789 -104.88757968 292.51843094 -120.97680664 286.66186523 C-123.73129901 285.93886643 -124.77395259 286.00041364 -127.40258789 287.02514648 C-129.13641697 288.84543556 -129.13641697 288.84543556 -130.64477539 291.18139648 C-131.23645508 292.03991211 -131.82813477 292.89842773 -132.43774414 293.78295898 C-133.04489258 294.68788086 -133.65204102 295.59280273 -134.27758789 296.52514648 C-134.87700195 297.39913086 -135.47641602 298.27311523 -136.09399414 299.17358398 C-139.64620239 304.3397694 -139.64620239 304.3397694 -142.94311523 309.66943359 C-146.6069138 315.82124367 -146.6069138 315.82124367 -150.83227539 316.90405273 C-151.96922852 316.79963867 -153.10618164 316.69522461 -154.27758789 316.58764648 C-155.43000977 316.50643555 -156.58243164 316.42522461 -157.76977539 316.34155273 C-158.63860352 316.23713867 -159.50743164 316.13272461 -160.40258789 316.02514648 C-158.86351133 312.46152204 -157.32132631 308.8992539 -155.77758789 305.33764648 C-155.32262939 304.28794678 -154.8676709 303.23824707 -154.39892578 302.15673828 C-151.52051514 295.5368537 -148.57271067 288.96486527 -145.46118164 282.45092773 C-144.52362669 280.30250846 -143.87961821 278.31382005 -143.40258789 276.02514648 C-144.43899414 275.65196289 -144.43899414 275.65196289 -145.49633789 275.27124023 C-156.79228838 270.42794963 -166.29102594 262.08029545 -175.40258789 254.02514648 C-176.6381543 252.99067383 -176.6381543 252.99067383 -177.89868164 251.93530273 C-183.85537351 246.8870838 -188.66587172 241.21808283 -193.40258789 235.02514648 C-194.20696289 233.98616211 -195.01133789 232.94717773 -195.84008789 231.87670898 C-220.37579895 199.38048003 -230.67879115 157.70874727 -225.27758789 117.46264648 C-221.09707245 89.85414953 -210.0529114 63.71386401 -192.40258789 42.02514648 C-191.94480957 41.46053711 -191.48703125 40.89592773 -191.01538086 40.31420898 C-183.44488002 31.04028218 -175.38126119 21.79946133 -165.40258789 15.02514648 C-164.74258789 15.02514648 -164.08258789 15.02514648 -163.40258789 15.02514648 C-163.88469727 14.49405273 -164.36680664 13.96295898 -164.86352539 13.41577148 C-165.49516602 12.70936523 -166.12680664 12.00295898 -166.77758789 11.27514648 C-167.40407227 10.57905273 -168.03055664 9.88295898 -168.67602539 9.16577148 C-170.40258789 7.02514648 -170.40258789 7.02514648 -172.40258789 3.02514648 C-168.77258789 -0.60485352 -165.14258789 -4.23485352 -161.40258789 -7.97485352 C-157.22073368 -4.44897644 -153.21162914 -0.89932026 -149.40258789 3.02514648 C-145.31547627 1.78317148 -141.60366283 0.20704779 -137.796875 -1.69091797 C-94.91355977 -22.98924564 -42.33355774 -22.540233 0 0 Z M-126.40258789 26.02514648 C-127.42739258 26.5265918 -128.45219727 27.02803711 -129.50805664 27.54467773 C-158.0631201 42.11219517 -180.00931938 68.42380246 -190.21508789 98.71264648 C-197.26411081 121.21255804 -199.19228845 144.99283226 -193.40258789 168.02514648 C-193.16113037 168.99726074 -193.16113037 168.99726074 -192.91479492 169.98901367 C-187.23115589 191.97011907 -176.03328714 210.69913143 -160.40258789 227.02514648 C-159.3777832 228.14469727 -159.3777832 228.14469727 -158.33227539 229.28686523 C-137.86979573 250.91970813 -106.7907413 264.02302688 -77.25024414 265.29858398 C-56.81534441 265.80551271 -36.96936233 262.84492971 -18.40258789 254.02514648 C-17.37520508 253.56366211 -16.34782227 253.10217773 -15.28930664 252.62670898 C-3.2567174 246.97716644 7.03940563 239.20446808 16.59741211 230.02514648 C17.50362305 229.18209961 18.40983398 228.33905273 19.34350586 227.47045898 C42.0494752 205.74075185 54.82238975 174.40752628 55.80053711 143.15014648 C56.29818721 110.44787852 45.73578182 81.08470631 24.59741211 56.02514648 C24.0856543 55.39092773 23.57389648 54.75670898 23.04663086 54.10327148 C11.68290904 40.25852145 -4.18311507 30.20085475 -20.40258789 23.02514648 C-22.03647461 22.30198242 -22.03647461 22.30198242 -23.70336914 21.56420898 C-56.63598073 8.03025901 -94.73533234 10.03112016 -126.40258789 26.02514648 Z " fill="#2D3F50" transform="translate(326.402587890625,158.974853515625)"/>
<path d="M0 0 C2.69990662 1.79993774 4.5418865 3.083773 6 6 C6.09202122 8.24664431 6.11749805 10.49610433 6.11352539 12.74462891 C6.11367142 13.43742447 6.11381744 14.13022003 6.1139679 14.8440094 C6.11327018 17.13822541 6.10548442 19.43236064 6.09765625 21.7265625 C6.09579157 23.31554113 6.0943679 24.90452034 6.09336853 26.49349976 C6.08954731 30.67909325 6.07972039 34.86465213 6.06866455 39.05023193 C6.05844194 43.31994153 6.05386909 47.5896567 6.04882812 51.859375 C6.03809778 60.23959923 6.02102608 68.61979531 6 77 C6.78334717 77.29132813 7.56669434 77.58265625 8.3737793 77.8828125 C11.36791686 79.15651088 12.72809075 80.52958903 14.8125 83 C15.41707031 83.70125 16.02164063 84.4025 16.64453125 85.125 C18 87 18 87 18 89 C19.28165039 88.97381592 20.56330078 88.94763184 21.88378906 88.9206543 C26.63963356 88.8301429 31.39540198 88.77274705 36.15185547 88.7253418 C38.21025393 88.70019981 40.26856314 88.66608124 42.32666016 88.62280273 C45.28570569 88.5621373 48.24357103 88.53378739 51.203125 88.51171875 C52.12305237 88.48591232 53.04297974 88.4601059 53.99078369 88.43351746 C60.37682687 88.43071505 60.37682687 88.43071505 63.50708008 91.2902832 C64.70938321 93.47251746 65.82284913 95.51168035 66.68359375 97.84375 C66.96436768 98.57996582 67.2451416 99.31618164 67.53442383 100.07470703 C67.83243896 100.87505371 68.1304541 101.67540039 68.4375 102.5 C71.78400601 111.17348126 75.47280093 119.65961566 79.3125 128.125 C83.75269707 137.93540687 88.10485783 147.77468607 92.3125 157.6875 C92.7866333 158.79818848 93.2607666 159.90887695 93.74926758 161.05322266 C94.39351685 162.57955322 94.39351685 162.57955322 95.05078125 164.13671875 C95.42887939 165.03092529 95.80697754 165.92513184 96.1965332 166.84643555 C97 169 97 169 97 171 C97.66 171.33 98.32 171.66 99 172 C95.36119645 176.02620468 91.69194171 180.02248708 88 184 C87.175 184.89332031 86.35 185.78664063 85.5 186.70703125 C79.29331764 193.18933931 72.49522243 198.16225968 65 203 C63.83791016 203.79857422 63.83791016 203.79857422 62.65234375 204.61328125 C37.49685492 221.07304555 3.82347443 225.99215573 -25.36694336 220.28588867 C-30.97079099 219.08949894 -36.51869299 217.66925332 -42 216 C-41.67 215.34 -41.34 214.68 -41 214 C-42.10152058 211.81066991 -43.25575212 209.76970192 -44.53125 207.68359375 C-45.10552734 206.72299042 -45.10552734 206.72299042 -45.69140625 205.74298096 C-46.95326775 203.6364394 -48.22641697 201.53697208 -49.5 199.4375 C-50.36982495 197.99170381 -51.23896138 196.54549316 -52.10742188 195.09887695 C-53.87506191 192.15668017 -55.64700668 189.21713826 -57.421875 186.27929688 C-59.80036222 182.3380443 -62.15421255 178.38265153 -64.5 174.421875 C-65.18537462 173.26755721 -65.87091657 172.11333875 -66.55664062 170.95922852 C-67.82855718 168.81790267 -69.0981805 166.67521261 -70.36523438 164.53100586 C-71.22084961 163.09833374 -71.22084961 163.09833374 -72.09375 161.63671875 C-72.58552734 160.80873779 -73.07730469 159.98075684 -73.58398438 159.12768555 C-74.88667075 156.97056178 -74.88667075 156.97056178 -76.68164062 155.52270508 C-78 154 -78 154 -78.38964844 151.50146484 C-77.90982156 148.42107251 -77.23468265 147.80772736 -74.765625 145.9765625 C-74.05664062 145.43837891 -73.34765625 144.90019531 -72.6171875 144.34570312 C-71.83601562 143.77787109 -71.05484375 143.21003906 -70.25 142.625 C-69.03957031 141.71524414 -69.03957031 141.71524414 -67.8046875 140.78710938 C-65.2135031 138.84372108 -62.60708922 136.92197942 -60 135 C-58.32673317 133.74925569 -56.65483878 132.49667304 -54.984375 131.2421875 C-53.74977539 130.31696289 -53.74977539 130.31696289 -52.49023438 129.37304688 C-50.82631764 128.12152048 -49.16616356 126.86497632 -47.50976562 125.60351562 C-43.33273054 122.43394084 -39.13009137 119.39937831 -34.734375 116.5390625 C-26.50016844 111.51603789 -26.50016844 111.51603789 -21.29980469 103.83105469 C-20.8382771 100.02956772 -21.16003946 96.57595697 -21.7578125 92.8125 C-22.06047345 88.04803083 -21.03243679 86.60289519 -18 83 C-16.70770226 81.89507202 -16.70770226 81.89507202 -15.38929749 80.76782227 C-12.35704523 77.25518504 -12.38425464 75.49328796 -12.40405273 70.90234375 C-12.3999942 70.207388 -12.39593567 69.51243225 -12.39175415 68.79641724 C-12.38625246 67.29430116 -12.39220186 65.79210823 -12.40841484 64.29006958 C-12.43388595 61.9101985 -12.42902224 59.53205503 -12.41651917 57.15209961 C-12.3957959 52.10120874 -12.41544282 47.05085541 -12.4375 42 C-12.45862066 36.14540973 -12.46315175 30.29137663 -12.43699837 24.4367981 C-12.43364187 22.09605723 -12.45484209 19.75638569 -12.47740173 17.41577148 C-12.47488989 15.97639739 -12.47132928 14.53702461 -12.46655273 13.09765625 C-12.47275131 11.84476807 -12.47894989 10.59187988 -12.4853363 9.30102539 C-11.912483 5.40475124 -10.74130231 3.77145897 -8 1 C-5.14675563 -0.42662219 -3.16545451 -0.31033868 0 0 Z " fill="#DEDEDE" transform="translate(258,202)"/>
<path d="M0 0 C2.46899045 1.90254956 4.71753695 3.86970116 7 6 C5.70910151 8.83872704 4.35778433 10.88973184 2.14912415 13.08465576 C1.56750015 13.66758392 0.98587616 14.25051208 0.3866272 14.85110474 C-0.56791855 15.79250809 -0.56791855 15.79250809 -1.54174805 16.75292969 C-2.54944496 17.75865524 -2.54944496 17.75865524 -3.57749939 18.78469849 C-5.80101466 21.00172003 -8.03141876 23.21168076 -10.26171875 25.421875 C-11.81201686 26.96589974 -13.36179896 28.51044274 -14.91108704 30.05548096 C-18.99605701 34.12713906 -23.08654563 38.19320385 -27.1786499 42.25769043 C-33.71161601 48.74758553 -40.23799952 55.24408151 -46.76099586 61.74399567 C-49.03346555 64.00630403 -51.30935454 66.26512937 -53.58561707 68.52362061 C-54.99429032 69.92545805 -56.40285023 71.32740941 -57.8112793 72.72949219 C-58.43752197 73.3489975 -59.06376465 73.96850281 -59.70898438 74.60678101 C-63.46226645 78.35051388 -66.95961615 82.21725249 -70.33085346 86.31029129 C-72.09859615 88.09981075 -73.70214358 89.0128257 -76 90 C-87.47440612 78.76973018 -92.93945562 63.80873712 -93.375 47.9375 C-92.91071154 31.13025792 -86.01475107 16.66837987 -74 5 C-73.45988281 4.43925781 -72.91976562 3.87851563 -72.36328125 3.30078125 C-53.11408819 -15.17262569 -21.1902623 -14.14996239 0 0 Z " fill="#F2C40F" transform="translate(193,109)"/>
<path d="M0 0 C0.95753174 0.00572021 1.91506348 0.01144043 2.90161133 0.01733398 C19.5889274 0.43301233 33.47394952 7.63401414 44.953125 19.625 C54.34123435 31.06481537 58.88986884 43.07742831 58.75 57.8125 C58.74242676 58.92318848 58.73485352 60.03387695 58.72705078 61.17822266 C58.57126123 68.90515682 57.84878078 75.52566847 54.3125 82.5 C53.85359375 83.45777344 53.3946875 84.41554688 52.921875 85.40234375 C50.00824045 91.11460095 46.68205261 95.81833649 42.3125 100.5 C37.57908794 96.54983239 33.10811638 92.43324549 28.76977539 88.05493164 C27.85117485 87.1341407 27.85117485 87.1341407 26.91401672 86.19474792 C25.59634513 84.87329716 24.27982902 83.55069337 22.96437263 82.22703743 C20.87631861 80.12611 18.78506084 78.02841835 16.69297791 75.9315033 C11.49898347 70.72420522 6.31045467 65.51147221 1.12176514 60.29888916 C-3.27031311 55.88700259 -7.66448587 51.47722201 -12.06140327 47.070158 C-14.11063744 45.01449344 -16.15680926 42.95581473 -18.2028656 40.89698792 C-26.42926725 32.61031366 -26.42926725 32.61031366 -35.15553284 24.85813904 C-37.65026567 22.64647672 -39.63963622 20.12382547 -41.6875 17.5 C-30.17731161 6.04794387 -16.25429657 -0.11411085 0 0 Z " fill="#F2C40F" transform="translate(352.6875,98.5)"/>
<path d="M0 0 C0.11638117 9.83217645 0.20496067 19.66418625 0.25906086 29.49691391 C0.28504 34.06378439 0.32022131 38.63018005 0.37719727 43.19677734 C0.43193809 47.61238451 0.46150816 52.02753798 0.47438622 56.44345856 C0.48355128 58.11942934 0.50144664 59.79537821 0.52865028 61.47115326 C0.71897286 73.69282754 -0.31092568 85.0991781 -9.203125 94.47265625 C-17.08124458 101.16905789 -25.42767644 104.3355513 -35.77124023 104.22705078 C-36.51353378 104.22734283 -37.25582733 104.22763489 -38.02061462 104.22793579 C-40.45006404 104.22655342 -42.87919857 104.21104439 -45.30859375 104.1953125 C-47.00252617 104.19157847 -48.69646076 104.18873334 -50.39039612 104.18673706 C-54.83078054 104.17913128 -59.2710324 104.15950928 -63.71136475 104.1373291 C-68.24961555 104.1168046 -72.78788795 104.10772126 -77.32617188 104.09765625 C-86.21750589 104.0762603 -95.10874189 104.04216155 -104 104 C-99.11257147 98.11161905 -93.84569497 92.70389855 -88.43041992 87.30102539 C-87.47529816 86.34454607 -86.52038871 85.3878547 -85.56567383 84.43096924 C-82.99192197 81.85268893 -80.41505415 79.27754478 -77.83744597 76.70312047 C-75.13649118 74.00470868 -72.43798967 71.30384525 -69.73908997 68.6033783 C-65.21433019 64.07680436 -60.68747695 59.55233207 -56.15942383 55.02905273 C-50.91897707 49.79406691 -45.68216909 44.55546172 -40.44719809 39.31500059 C-35.94872325 34.81199665 -31.44831388 30.31093311 -26.94626313 25.8115043 C-24.25858471 23.12538724 -21.57159223 20.43859337 -18.886343 17.75004768 C-16.36790706 15.22873532 -13.84706098 12.70985835 -11.32428741 10.19288635 C-9.95236065 8.82292352 -8.58291019 7.45048226 -7.21351624 6.07798767 C-6.00020126 4.86890244 -6.00020126 4.86890244 -4.76237488 3.63539124 C-4.05577823 2.92917161 -3.34918158 2.22295198 -2.6211729 1.49533176 C-1 0 -1 0 0 0 Z " fill="#00FE90" transform="translate(104,0)"/>
<path d="M0 0 C0.81073975 0.4220874 1.62147949 0.8441748 2.45678711 1.27905273 C3.51591309 1.85635132 3.51591309 1.85635132 4.59643555 2.4453125 C6.62947833 3.24616593 6.62947833 3.24616593 8.70874023 2.26953125 C11.25113707 0.59442827 13.22793275 -1.41803652 15.34741211 -3.59985352 C16.54624023 -4.82575195 16.54624023 -4.82575195 17.76928711 -6.07641602 C18.37256836 -6.70290039 18.97584961 -7.32938477 19.59741211 -7.97485352 C24.47791136 -4.03291182 28.65547041 0.14464724 32.59741211 5.02514648 C32.04311523 5.4956543 31.48881836 5.96616211 30.91772461 6.45092773 C30.19327148 7.07354492 29.46881836 7.69616211 28.72241211 8.33764648 C28.00311523 8.9525293 27.28381836 9.56741211 26.54272461 10.20092773 C24.4056188 12.06637888 24.4056188 12.06637888 22.59741211 15.02514648 C23.18006836 15.29069336 23.76272461 15.55624023 24.36303711 15.82983398 C26.65915439 17.05817645 28.40097229 18.42829587 30.34741211 20.15014648 C31.26780273 20.95838867 31.26780273 20.95838867 32.20678711 21.78295898 C32.66569336 22.19288086 33.12459961 22.60280273 33.59741211 23.02514648 C29.49497985 23.02514648 27.30825368 20.88667445 24.09741211 18.58764648 C-7.89789897 -3.43249382 -50.24912585 -12.00005411 -88.4543457 -5.45556641 C-119.89558802 0.59262663 -147.22109472 15.12719236 -170.40258789 37.02514648 C-171.15024414 37.71995117 -171.89790039 38.41475586 -172.66821289 39.13061523 C-199.42716101 64.81359166 -215.48822493 103.24270823 -216.60571289 140.12670898 C-217.11846474 176.46963962 -208.060449 212.03995714 -185.40258789 241.02514648 C-185.73258789 241.68514648 -186.06258789 242.34514648 -186.40258789 243.02514648 C-213.53843081 215.05552069 -227.08677348 174.76447699 -226.75366211 136.25952148 C-225.88810883 102.02477072 -214.05408019 68.63050022 -192.40258789 42.02514648 C-191.94480957 41.46053711 -191.48703125 40.89592773 -191.01538086 40.31420898 C-183.44488002 31.04028218 -175.38126119 21.79946133 -165.40258789 15.02514648 C-164.74258789 15.02514648 -164.08258789 15.02514648 -163.40258789 15.02514648 C-163.88469727 14.49405273 -164.36680664 13.96295898 -164.86352539 13.41577148 C-165.49516602 12.70936523 -166.12680664 12.00295898 -166.77758789 11.27514648 C-167.40407227 10.57905273 -168.03055664 9.88295898 -168.67602539 9.16577148 C-170.40258789 7.02514648 -170.40258789 7.02514648 -172.40258789 3.02514648 C-168.77258789 -0.60485352 -165.14258789 -4.23485352 -161.40258789 -7.97485352 C-157.22073368 -4.44897644 -153.21162914 -0.89932026 -149.40258789 3.02514648 C-145.31547627 1.78317148 -141.60366283 0.20704779 -137.796875 -1.69091797 C-94.91355977 -22.98924564 -42.33355774 -22.540233 0 0 Z " fill="#476580" transform="translate(326.402587890625,158.974853515625)"/>
<path d="M0 0 C2.69990662 1.79993774 4.5418865 3.083773 6 6 C6.09202122 8.24664431 6.11749805 10.49610433 6.11352539 12.74462891 C6.11367142 13.43742447 6.11381744 14.13022003 6.1139679 14.8440094 C6.11327018 17.13822541 6.10548442 19.43236064 6.09765625 21.7265625 C6.09579157 23.31554113 6.0943679 24.90452034 6.09336853 26.49349976 C6.08954731 30.67909325 6.07972039 34.86465213 6.06866455 39.05023193 C6.05844194 43.31994153 6.05386909 47.5896567 6.04882812 51.859375 C6.03809778 60.23959923 6.02102608 68.61979531 6 77 C6.78334717 77.29132813 7.56669434 77.58265625 8.3737793 77.8828125 C11.36791686 79.15651088 12.72809075 80.52958903 14.8125 83 C15.41707031 83.70125 16.02164063 84.4025 16.64453125 85.125 C18 87 18 87 18 89 C19.28165039 88.97381592 20.56330078 88.94763184 21.88378906 88.9206543 C26.63963356 88.8301429 31.39540198 88.77274705 36.15185547 88.7253418 C38.21025393 88.70019981 40.26856314 88.66608124 42.32666016 88.62280273 C45.28570569 88.5621373 48.24357103 88.53378739 51.203125 88.51171875 C52.12305237 88.48591232 53.04297974 88.4601059 53.99078369 88.43351746 C60.37288088 88.43071678 60.37288088 88.43071678 63.58105469 91.34301758 C65.32516096 94.60886558 65.60884388 96.34693675 65 100 C63.20006226 102.69990662 61.916227 104.5418865 59 106 C55.93655108 106.07240334 52.89123732 106.08837977 49.828125 106.0703125 C47.94790742 106.07889901 46.06769769 106.08937577 44.1875 106.1015625 C41.22010637 106.11824428 38.25446207 106.12503824 35.28710938 106.09960938 C32.42468885 106.07860429 29.56539696 106.101917 26.703125 106.1328125 C25.38093964 106.10672409 25.38093964 106.10672409 24.03204346 106.08010864 C19.20937159 106.16010327 19.20937159 106.16010327 15.16809082 108.54899597 C13.56687154 110.39063579 13.56687154 110.39063579 12.25823975 112.31269836 C10.27749997 114.96887376 8.07309275 115.90638663 5 117 C-7.72045559 118.60451201 -7.72045559 118.60451201 -12.5625 114.875 C-13.366875 114.25625 -14.17125 113.6375 -15 113 C-19.84085635 114.17172671 -23.318063 117.45351174 -27.0625 120.5625 C-28.4142311 121.66415267 -29.76710662 122.76440254 -31.12109375 123.86328125 C-31.7847998 124.40291504 -32.44850586 124.94254883 -33.13232422 125.49853516 C-36.51099704 128.21472311 -39.99649726 130.78335824 -43.4765625 133.3671875 C-49.28899981 137.69214843 -55.03172673 142.11024436 -60.79150391 146.50488281 C-61.66468262 147.17100586 -62.53786133 147.83712891 -63.4375 148.5234375 C-64.61119141 149.4194165 -64.61119141 149.4194165 -65.80859375 150.33349609 C-66.53175781 150.88344238 -67.25492188 151.43338867 -68 152 C-69.04800781 152.84232178 -69.04800781 152.84232178 -70.1171875 153.70166016 C-72.54480884 155.37568639 -74.11205898 155.31220984 -77 155 C-78 154 -78 154 -78.26464844 151.62646484 C-78 149 -78 149 -76.66503906 147.38525391 C-75.7248291 146.68795166 -75.7248291 146.68795166 -74.765625 145.9765625 C-74.05664062 145.43837891 -73.34765625 144.90019531 -72.6171875 144.34570312 C-71.83601562 143.77787109 -71.05484375 143.21003906 -70.25 142.625 C-69.03957031 141.71524414 -69.03957031 141.71524414 -67.8046875 140.78710938 C-65.2135031 138.84372108 -62.60708922 136.92197942 -60 135 C-58.32673317 133.74925569 -56.65483878 132.49667304 -54.984375 131.2421875 C-53.74977539 130.31696289 -53.74977539 130.31696289 -52.49023438 129.37304688 C-50.82631764 128.12152048 -49.16616356 126.86497632 -47.50976562 125.60351562 C-43.33273054 122.43394084 -39.13009137 119.39937831 -34.734375 116.5390625 C-26.50016844 111.51603789 -26.50016844 111.51603789 -21.29980469 103.83105469 C-20.8382771 100.02956772 -21.16003946 96.57595697 -21.7578125 92.8125 C-22.06047345 88.04803083 -21.03243679 86.60289519 -18 83 C-16.70770226 81.89507202 -16.70770226 81.89507202 -15.38929749 80.76782227 C-12.35704523 77.25518504 -12.38425464 75.49328796 -12.40405273 70.90234375 C-12.3999942 70.207388 -12.39593567 69.51243225 -12.39175415 68.79641724 C-12.38625246 67.29430116 -12.39220186 65.79210823 -12.40841484 64.29006958 C-12.43388595 61.9101985 -12.42902224 59.53205503 -12.41651917 57.15209961 C-12.3957959 52.10120874 -12.41544282 47.05085541 -12.4375 42 C-12.45862066 36.14540973 -12.46315175 30.29137663 -12.43699837 24.4367981 C-12.43364187 22.09605723 -12.45484209 19.75638569 -12.47740173 17.41577148 C-12.47488989 15.97639739 -12.47132928 14.53702461 -12.46655273 13.09765625 C-12.47275131 11.84476807 -12.47894989 10.59187988 -12.4853363 9.30102539 C-11.912483 5.40475124 -10.74130231 3.77145897 -8 1 C-5.14675563 -0.42662219 -3.16545451 -0.31033868 0 0 Z " fill="#334354" transform="translate(258,202)"/>
<path d="M0 0 C1.65032575 1.41143074 3.29683797 2.82734758 4.9375 4.25 C6.01919428 5.10624137 7.10222522 5.96080142 8.1875 6.8125 C21.33446611 18.46549269 35.42655912 37.05869773 39.9375 54.25 C39.6075 54.91 39.2775 55.57 38.9375 56.25 C38.41542969 55.25742188 37.89335937 54.26484375 37.35546875 53.2421875 C20.50380823 21.86122133 -5.80538507 -0.36569655 -40.0625 -10.75 C-41.28839844 -11.14316406 -42.51429688 -11.53632813 -43.77734375 -11.94140625 C-63.9241571 -17.74550166 -89.15951176 -17.00698906 -109.0625 -10.75 C-110.31933594 -10.399375 -111.57617188 -10.04875 -112.87109375 -9.6875 C-131.82724033 -4.00657366 -147.76884369 6.74784909 -162.0625 20.25 C-162.81273437 20.93578125 -163.56296875 21.6215625 -164.3359375 22.328125 C-185.26121331 42.1520705 -198.52428691 72.48202325 -199.3046875 101.12890625 C-199.4915676 113.95137293 -199.29397879 126.59831224 -197.0625 139.25 C-198.85461451 136.56182823 -199.44202235 135.2834332 -200.09765625 132.265625 C-200.26716797 131.49476563 -200.43667969 130.72390625 -200.61132812 129.9296875 C-200.78083984 129.12789062 -200.95035156 128.32609375 -201.125 127.5 C-201.29837891 126.71367187 -201.47175781 125.92734375 -201.65039062 125.1171875 C-207.66958448 97.35048482 -203.85792662 68.58421144 -191.0625 43.25 C-190.56105469 42.22519531 -190.05960938 41.20039063 -189.54296875 40.14453125 C-174.97545131 11.58946779 -148.66384403 -10.35673149 -118.375 -20.5625 C-78.06848082 -33.19017531 -33.21318696 -27.04759535 0 0 Z " fill="#E6E6E6" transform="translate(334.0625,198.75)"/>
<path d="M0 0 C0.87011719 0.00902344 1.74023438 0.01804687 2.63671875 0.02734375 C4.7579342 0.05065381 6.87900562 0.08651421 9 0.125 C9 0.455 9 0.785 9 1.125 C8.05253906 1.32802734 8.05253906 1.32802734 7.0859375 1.53515625 C-10.15764359 5.68454824 -22.90579396 14.29322724 -32.37890625 29.33203125 C-37.5778005 38.28916231 -39.37297963 46.55112343 -39.3125 56.8125 C-39.30758545 57.78985107 -39.3026709 58.76720215 -39.29760742 59.77416992 C-39.13106271 70.04784374 -37.61234537 78.50626909 -31.890625 87.1875 C-31 89.125 -31 89.125 -31.13671875 91.140625 C-32.21434045 93.61769207 -33.60418413 95.02350136 -35.5625 96.875 C-36.20316406 97.48859375 -36.84382813 98.1021875 -37.50390625 98.734375 C-37.99761719 99.19328125 -38.49132812 99.6521875 -39 100.125 C-47.42687947 96.47214667 -51.67504637 86.15785258 -55 78.125 C-60.24036413 62.20763928 -58.88230195 47.05513134 -51.875 32 C-48.43615053 25.42700924 -44.30363931 20.2757416 -39 15.125 C-38.45988281 14.56425781 -37.91976562 14.00351563 -37.36328125 13.42578125 C-27.29935864 3.76745753 -13.60831471 -0.27174822 0 0 Z " fill="#FBD124" transform="translate(158,98.875)"/>
<path d="M0 0 C12.85142888 8.88540928 22.47748742 21.47778132 26.1875 36.8125 C25.74609375 39.0546875 25.74609375 39.0546875 25.1875 40.8125 C24.64222656 39.966875 24.09695313 39.12125 23.53515625 38.25 C14.34211819 24.28416914 2.28607963 13.96131822 -14.5234375 10.20703125 C-30.06832514 8.34238321 -43.50681849 9.61197571 -57.0703125 17.859375 C-58.8125 18.8125 -58.8125 18.8125 -60.8125 18.8125 C-60.8125 19.4725 -60.8125 20.1325 -60.8125 20.8125 C-64.49319887 19.27606148 -66.80025204 17.03099055 -69.5625 14.1875 C-70.36171875 13.37023437 -71.1609375 12.55296875 -71.984375 11.7109375 C-72.58765625 11.08445312 -73.1909375 10.45796875 -73.8125 9.8125 C-57.11043662 -12.816102 -22.46506114 -13.20369889 0 0 Z " fill="#FBD124" transform="translate(384.8125,107.1875)"/>
<path d="M0 0 C17.82 0 35.64 0 54 0 C47.25171393 7.87300041 47.25171393 7.87300041 43.94165039 11.15600586 C43.20390884 11.89044418 42.4661673 12.62488251 41.70606995 13.38157654 C40.92779343 14.15155472 40.14951691 14.9215329 39.34765625 15.71484375 C38.52929794 16.52941544 37.71093964 17.34398712 36.86778259 18.1832428 C33.39359333 21.6412044 29.91346892 25.09317001 26.43383789 28.5456543 C23.88218577 31.07912305 21.3336149 33.61566329 18.78515625 36.15234375 C17.62077782 37.30427467 17.62077782 37.30427467 16.43287659 38.47947693 C12.26503871 42.62873279 8.29258948 46.85614403 4.5153656 51.36573792 C3 53 3 53 0 55 C0 36.85 0 18.7 0 0 Z " fill="#13AE6A" transform="translate(0,105)"/>
<path d="M0 0 C3.77133898 1.3605119 6.21174003 3.84670945 9.01953125 6.6015625 C10.17768559 7.70516197 11.33653681 8.80803058 12.49609375 9.91015625 C13.05071289 10.44237793 13.60533203 10.97459961 14.17675781 11.52294922 C16.0376719 13.29063947 17.95179335 14.98696427 19.89453125 16.6640625 C22.86429914 19.23369324 25.79214196 21.84475805 28.70703125 24.4765625 C31.77553308 27.2438617 34.85175962 30.00056069 37.95703125 32.7265625 C38.59125 33.28730469 39.22546875 33.84804687 39.87890625 34.42578125 C41.67159728 35.98514409 41.67159728 35.98514409 43.53515625 37.30859375 C46.48828811 39.4820436 47.61887978 40.4770375 48.26953125 44.1640625 C47.99109375 45.55625 47.99109375 45.55625 47.70703125 46.9765625 C44.70703125 48.9765625 44.70703125 48.9765625 42.25 48.7890625 C39.47956045 47.90388366 38.12846505 46.95283018 36.01953125 44.9765625 C35.33503906 44.3475 34.65054688 43.7184375 33.9453125 43.0703125 C33.20667969 42.379375 32.46804687 41.6884375 31.70703125 40.9765625 C30.04286646 39.4737873 28.37611797 37.97386918 26.70703125 36.4765625 C25.86140625 35.7134375 25.01578125 34.9503125 24.14453125 34.1640625 C22.01285644 32.25102101 19.86684015 30.35768638 17.70703125 28.4765625 C13.82233644 25.09311863 9.99953996 21.64341064 6.17578125 18.19140625 C3.24286817 15.56013771 0.27813326 12.96749723 -2.69921875 10.38671875 C-3.93599865 9.29241105 -5.12525006 8.14428119 -6.29296875 6.9765625 C-6.10546875 4.4765625 -6.10546875 4.4765625 -5.29296875 1.9765625 C-2.29296875 -0.0234375 -2.29296875 -0.0234375 0 0 Z " fill="#F7FDFA" transform="translate(172.29296875,48.0234375)"/>
<path d="M0 0 C2.5625 0.3125 2.5625 0.3125 4.19839478 1.46374512 C6.12929334 4.08066797 5.94345679 5.97149606 5.95068359 9.20507812 C5.96486832 11.02211243 5.96486832 11.02211243 5.9793396 12.87585449 C5.97326691 14.18526001 5.96719421 15.49466553 5.9609375 16.84375 C5.96295851 18.19991207 5.96587018 19.55607309 5.96963501 20.91223145 C5.97405716 23.75360467 5.96763123 26.59469485 5.95361328 29.43603516 C5.93652097 33.07802103 5.9463628 36.7193437 5.96433067 40.36130524 C5.97517175 43.16144812 5.97172079 45.9614338 5.9639473 48.76158142 C5.96097298 50.7574405 5.9700834 52.75330568 5.9793396 54.74914551 C5.96988312 55.96050171 5.96042664 57.17185791 5.95068359 58.41992188 C5.94829681 59.48786987 5.94591003 60.55581787 5.94345093 61.65612793 C5.5625 64.3125 5.5625 64.3125 4.19839478 66.16125488 C1.89205952 67.784316 0.31551014 67.66545002 -2.4375 67.3125 C-5.15655256 64.59344744 -4.69082921 63.13832985 -4.69628906 59.33398438 C-4.70259338 58.07928345 -4.70889771 56.82458252 -4.71539307 55.53186035 C-4.71181339 54.15665548 -4.70771145 52.78145188 -4.703125 51.40625 C-4.70447173 50.00142347 -4.70641232 48.59659739 -4.70892334 47.19177246 C-4.71187426 44.24613004 -4.70757809 41.30060882 -4.69824219 38.35498047 C-4.68684755 34.57511497 -4.69340721 30.79553348 -4.70538712 27.01567841 C-4.71260665 24.11437837 -4.71031738 21.21314591 -4.70513153 18.31184387 C-4.70379529 16.91795315 -4.70544188 15.52405634 -4.71009064 14.13017273 C-4.71515711 12.18378819 -4.7060687 10.23738219 -4.69628906 8.29101562 C-4.69469788 7.18230103 -4.69310669 6.07358643 -4.69146729 4.93127441 C-4.35043496 1.41473199 -3.52428907 0.45183193 0 0 Z " fill="#F1FBF7" transform="translate(258.4375,18.6875)"/>
<path d="M0 0 C2.84719849 0.90968323 2.84719849 0.90968323 4.84719849 3.90968323 C4.57837689 7.6673442 2.62180036 9.52454447 0.04934692 12.12745667 C-0.75528992 12.94800537 -1.55992676 13.76855408 -2.38894653 14.6139679 C-3.70291412 15.92823761 -3.70291412 15.92823761 -5.04342651 17.26905823 C-5.94019104 18.17343628 -6.83695557 19.07781433 -7.76089478 20.00959778 C-9.66038694 21.9199001 -11.56287069 23.82659069 -13.47067261 25.72853088 C-15.91336535 28.16532267 -18.33730283 30.61987641 -20.7567482 33.07972336 C-23.07003746 35.42508692 -25.40150128 37.75223719 -27.73092651 40.08155823 C-29.03274872 41.40797333 -29.03274872 41.40797333 -30.36087036 42.76118469 C-31.17811584 43.56912476 -31.99536133 44.37706482 -32.83737183 45.20948792 C-33.55161316 45.92578369 -34.26585449 46.64207947 -35.0017395 47.38008118 C-37.62594352 49.24613052 -38.99761683 49.38693874 -42.15280151 48.90968323 C-44.15280151 46.90968323 -44.15280151 46.90968323 -44.50708008 44.06347656 C-44.0780358 40.24411763 -43.15821758 39.15218848 -40.48434448 36.44898987 C-39.6828598 35.62536453 -38.88137512 34.8017392 -38.05560303 33.95315552 C-37.1776004 33.08416122 -36.29959778 32.21516693 -35.39498901 31.31983948 C-34.49918121 30.41591965 -33.60337341 29.51199982 -32.68041992 28.58068848 C-30.78241234 26.67421584 -28.87938705 24.775118 -26.96530151 22.88502502 C-24.51495012 20.46328567 -22.09517157 18.01338894 -19.68279839 15.55388737 C-17.37432376 13.20919559 -15.03971238 10.89087341 -12.70748901 8.56983948 C-11.84163177 7.68667557 -10.97577454 6.80351166 -10.0836792 5.89358521 C-8.85308273 4.69124489 -8.85308273 4.69124489 -7.59762573 3.46461487 C-6.88258881 2.75213089 -6.16755188 2.03964691 -5.43084717 1.30557251 C-3.15280151 -0.09031677 -3.15280151 -0.09031677 0 0 Z " fill="#F8FDFB" transform="translate(341.1528015136719,48.09031677246094)"/>
<path d="M0 0 C1.38938077 1.96147874 2.7260411 3.96166576 4 6 C-6.25238255 14.10766861 -16.60221495 22.07997607 -27 30 C-28.86984716 31.42570848 -30.73963633 32.851493 -32.609375 34.27734375 C-36.27692586 37.07346531 -39.94461569 39.86940359 -43.61328125 42.6640625 C-44.73923706 43.52185303 -44.73923706 43.52185303 -45.88793945 44.39697266 C-46.93340942 45.19047119 -46.93340942 45.19047119 -48 46 C-48.69504639 46.55864746 -49.39009277 47.11729492 -50.10620117 47.69287109 C-52.54096857 49.37338478 -54.10243182 49.31325061 -57 49 C-58 48 -58 48 -58.26464844 45.62646484 C-58 43 -58 43 -56.66503906 41.38525391 C-56.03823242 40.92038574 -55.41142578 40.45551758 -54.765625 39.9765625 C-53.70214844 39.16928711 -53.70214844 39.16928711 -52.6171875 38.34570312 C-51.44542969 37.49395508 -51.44542969 37.49395508 -50.25 36.625 C-49.44304687 36.01849609 -48.63609375 35.41199219 -47.8046875 34.78710938 C-45.2135031 32.84372108 -42.60708922 30.92197942 -40 29 C-37.49400615 27.12680351 -34.99222521 25.24808477 -32.49072266 23.36889648 C-30.83096832 22.12351132 -29.16918181 20.88082986 -27.50537109 19.64086914 C-20.76631638 14.61259889 -14.13188269 9.45795617 -7.55859375 4.21484375 C-6.50478516 3.38339844 -6.50478516 3.38339844 -5.4296875 2.53515625 C-4.81335449 2.044104 -4.19702148 1.55305176 -3.56201172 1.04711914 C-2 0 -2 0 0 0 Z " fill="#E25144" transform="translate(238,308)"/>
<path d="M0 0 C4.88049925 3.9419417 9.0580583 8.11950075 13 13 C11.73113036 14.12721436 10.45982438 15.25168658 9.1875 16.375 C8.47980469 17.00148437 7.77210938 17.62796875 7.04296875 18.2734375 C5 20 5 20 2 22 C-2.62 19.03 -7.24 16.06 -12 13 C-8.17420552 8.44548277 -4.25602708 4.15469311 0 0 Z " fill="#2F414F" transform="translate(346,151)"/>
<path d="M0 0 C4.88049925 3.9419417 9.0580583 8.11950075 13 13 C11.25156882 14.12743666 9.5011906 15.2518542 7.75 16.375 C6.77546875 17.00148437 5.8009375 17.62796875 4.796875 18.2734375 C2 20 2 20 -2 22 C-4.97 19.03 -7.94 16.06 -11 13 C-9.07859132 9.15718264 -7.4073184 7.19568073 -4.375 4.25 C-3.55773437 3.45078125 -2.74046875 2.6515625 -1.8984375 1.828125 C-0.95871094 0.92320312 -0.95871094 0.92320312 0 0 Z " fill="#2F414F" transform="translate(165,151)"/>
</svg>
