<?xml version="1.0" encoding="UTF-8"?>
<svg version="1.1" xmlns="http://www.w3.org/2000/svg" width="512" height="512">
<path d="M0 0 C0.81563416 -0.00705963 1.63126831 -0.01411926 2.47161865 -0.02139282 C36.66047097 -0.25003326 36.66047097 -0.25003326 53.14453125 3.203125 C54.13904297 3.40711914 55.13355469 3.61111328 56.15820312 3.82128906 C89.89758591 10.91833621 121.02881809 24.79002004 148.14453125 46.203125 C149.09070313 46.94433594 150.036875 47.68554688 151.01171875 48.44921875 C156.49851503 52.83409611 161.41424544 57.38603418 166.07421875 62.6484375 C168.02888258 64.4851505 168.02888258 64.4851505 170.48168945 63.94848633 C173.20049634 63.1874597 175.35288124 62.19635175 177.8203125 60.83203125 C178.7179834 60.34508789 179.6156543 59.85814453 180.54052734 59.35644531 C181.50297363 58.83147461 182.46541992 58.30650391 183.45703125 57.765625 C216.1213147 40.39796372 261.25323266 21.25127177 299.14453125 25.203125 C301.14453125 27.203125 301.14453125 27.203125 301.76953125 31.015625 C301.71557617 33.19213867 301.71557617 33.19213867 301.14453125 35.203125 C299.63012695 36.55200195 299.63012695 36.55200195 297.6328125 37.69140625 C296.90352539 38.11284912 296.17423828 38.53429199 295.42285156 38.96850586 C291.87586714 40.89061262 288.30339763 42.75030357 284.70703125 44.578125 C254.61847229 60.20897277 225.01236568 79.20528155 199.14453125 101.203125 C199.81935547 102.31880859 199.81935547 102.31880859 200.5078125 103.45703125 C221.91288708 139.78989332 233.61230829 178.79470882 233.51953125 221.015625 C233.51931976 221.90920715 233.51910828 222.80278931 233.51889038 223.72344971 C233.48256774 239.17899324 232.37033755 254.04422093 229.14453125 269.203125 C228.9626123 270.06405762 228.78069336 270.92499023 228.59326172 271.81201172 C224.41283638 290.79390729 217.41042112 309.14378098 208.14453125 326.203125 C207.61690186 327.19602539 207.61690186 327.19602539 207.07861328 328.20898438 C197.20944843 346.74970756 184.56823245 362.97033807 170.14453125 378.203125 C169.26796875 379.13382812 168.39140625 380.06453125 167.48828125 381.0234375 C160.5648575 388.17085437 153.10434011 394.25878752 145.14453125 400.203125 C144.28770752 400.85112061 144.28770752 400.85112061 143.41357422 401.51220703 C135.05163852 407.81170698 126.37797095 413.22409248 117.13720703 418.14160156 C115.84760709 418.82858766 114.56181963 419.52279965 113.28076172 420.22558594 C94.58912699 430.46278903 74.02373219 437.16863337 53.14453125 441.203125 C52.35272461 441.36538574 51.56091797 441.52764648 50.74511719 441.69482422 C1.80740359 451.38437152 -51.29926871 441.75015192 -94.85546875 418.203125 C-95.45407715 417.88375977 -96.05268555 417.56439453 -96.66943359 417.23535156 C-114.51039305 407.65598658 -130.18827418 395.09127514 -144.85546875 381.203125 C-145.78617187 380.3265625 -146.716875 379.45 -147.67578125 378.546875 C-154.82286485 371.62377408 -160.88719599 364.14282879 -166.85546875 356.203125 C-167.56574219 355.27628906 -168.27601563 354.34945313 -169.0078125 353.39453125 C-194.05368628 320.0165648 -210.69464154 276.04023038 -211.09375 234.1484375 C-211.10349854 233.29757065 -211.11324707 232.4467038 -211.12329102 231.5700531 C-211.29741006 212.42054996 -211.02319989 193.98702417 -206.85546875 175.203125 C-206.6735498 174.35927246 -206.49163086 173.51541992 -206.30419922 172.64599609 C-202.08588632 153.63531518 -195.12847667 135.30256918 -185.85546875 118.203125 C-185.51435059 117.55714355 -185.17323242 116.91116211 -184.82177734 116.24560547 C-170.59706174 89.32663971 -150.22506641 64.57405247 -125.85546875 46.203125 C-125.33162598 45.80818848 -124.8077832 45.41325195 -124.26806641 45.00634766 C-88.9613603 18.59581946 -44.53328448 0.25833017 0 0 Z M-93.85546875 81.203125 C-94.80808594 81.89277344 -95.76070313 82.58242187 -96.7421875 83.29296875 C-111.41231423 94.6381663 -124.78109295 108.63363513 -134.85546875 124.203125 C-135.24347656 124.79480469 -135.63148438 125.38648438 -136.03125 125.99609375 C-161.60671254 165.42849587 -170.51530128 212.68009234 -161.16796875 258.765625 C-151.44094174 303.32542319 -123.93304671 343.93657126 -85.71484375 368.9375 C-45.09730794 394.87389072 2.72906874 404.51004045 50.08203125 394.078125 C80.60236522 386.91151647 108.19898836 372.70963364 130.61816406 350.69873047 C132.1516198 349.19617931 133.70492577 347.71660094 135.26171875 346.23828125 C166.13599169 316.58452827 185.84220911 272.00988735 187.14453125 229.203125 C187.18449219 227.93984375 187.22445313 226.6765625 187.265625 225.375 C187.95023051 192.59470339 179.32422393 161.60364938 163.14453125 133.203125 C160.21280158 132.89922598 160.21280158 132.89922598 158.57806396 134.40209961 C158.01959778 134.96421143 157.46113159 135.52632324 156.88574219 136.10546875 C156.24787781 136.74033203 155.61001343 137.37519531 154.95281982 138.02929688 C154.26842834 138.72603516 153.58403687 139.42277344 152.87890625 140.140625 C152.16728333 140.85412109 151.4556604 141.56761719 150.72247314 142.30273438 C149.21267565 143.81926669 147.70648644 145.33939839 146.20361328 146.86279297 C143.92455941 149.17269045 141.6353057 151.47204272 139.34375 153.76953125 C137.87568354 155.24678139 136.40821699 156.724628 134.94140625 158.203125 C133.92696442 159.22394165 133.92696442 159.22394165 132.89202881 160.26538086 C128.45995446 164.76291734 124.26234757 169.41762201 120.14453125 174.203125 C119.09899825 175.39440832 118.0523172 176.58468619 117.00390625 177.7734375 C109.75953367 186.03628025 102.78622498 194.44816508 96.14453125 203.203125 C95.6124707 203.9038916 95.08041016 204.6046582 94.53222656 205.32666016 C68.7223999 239.48409666 45.25953217 276.99456078 29.44921875 316.91015625 C29.00924561 318.01359375 28.56927246 319.11703125 28.1159668 320.25390625 C27.27816476 322.38226435 26.46087966 324.51884673 25.66723633 326.6640625 C22.88784882 333.76514969 22.88784882 333.76514969 19.1015625 335.99609375 C15.85281267 336.22354915 14.82299125 335.94293051 12.14453125 334.203125 C10.99121094 332.39404297 10.99121094 332.39404297 10.06640625 330.1953125 C9.53865601 328.97509399 9.53865601 328.97509399 9.00024414 327.73022461 C8.63535889 326.85503174 8.27047363 325.97983887 7.89453125 325.078125 C7.09893349 323.24236958 6.30072219 321.40774479 5.5 319.57421875 C5.10345215 318.66140137 4.7069043 317.74858398 4.29833984 316.80810547 C1.80816269 311.18597466 -0.98812166 305.71916058 -3.80322266 300.25439453 C-4.91020187 298.09642717 -5.9977442 295.9292126 -7.0859375 293.76171875 C-18.31632137 271.64331235 -31.94457621 250.52673822 -48.8828125 232.328125 C-50.75262754 230.31390841 -52.52340303 228.24275411 -54.29296875 226.140625 C-61.49240162 217.96167745 -69.82729439 211.70321031 -78.72460938 205.51806641 C-92.73558977 195.75121931 -92.73558977 195.75121931 -95.85546875 188.203125 C-97.26763755 177.58005339 -95.50459844 167.57488626 -88.98046875 158.953125 C-82.32105567 151.97796388 -71.39614181 147.16771511 -61.85546875 146.203125 C-61.09234375 146.12191406 -60.32921875 146.04070312 -59.54296875 145.95703125 C-44.32652955 145.15231572 -31.18483791 153.4816224 -20.16625977 163.15087891 C-5.03714889 176.93150948 7.10055645 193.05248179 18.14453125 210.203125 C21.4126109 209.11376512 21.75050244 208.72879697 23.5703125 206.01953125 C24.02994385 205.34825195 24.4895752 204.67697266 24.96313477 203.98535156 C25.70261353 202.88658691 25.70261353 202.88658691 26.45703125 201.765625 C38.1220665 184.84871326 51.03476723 168.89434263 64.87890625 153.71484375 C66.10219253 152.35868328 67.31966083 150.99663222 68.50097656 149.60375977 C73.89167244 143.28326042 79.73332446 137.42822551 85.60400391 131.55834961 C87.38214897 129.77802248 89.15212686 127.98984123 90.921875 126.20117188 C96.95413131 120.13978414 103.04239234 114.40434667 109.76391602 109.10400391 C112.20301565 107.15642625 114.52160969 105.1134805 116.83203125 103.015625 C120.75590476 99.48130572 124.85926004 96.28571791 129.14453125 93.203125 C125.2570004 88.07620313 120.94657579 84.52841837 115.70703125 80.828125 C114.90789307 80.25940674 114.10875488 79.69068848 113.28540039 79.10473633 C50.62650398 35.08650193 -32.08167176 35.94621008 -93.85546875 81.203125 Z " fill="#535353" transform="translate(210.85546875,33.796875)"/>
<path d="M0 0 C2 2 2 2 2.625 5.8125 C2.57104492 7.98901367 2.57104492 7.98901367 2 10 C0.4855957 11.34887695 0.4855957 11.34887695 -1.51171875 12.48828125 C-2.24100586 12.90972412 -2.97029297 13.33116699 -3.72167969 13.76538086 C-7.26866411 15.68748762 -10.84113362 17.54717857 -14.4375 19.375 C-43.36433431 34.40233793 -72.35217978 52.50502479 -97.20703125 73.703125 C-100 76 -100 76 -102.4921875 77.4921875 C-105.6497613 79.39066645 -108.35274476 81.71787106 -111.125 84.125 C-112.16829238 85.02457353 -113.21260561 85.92296414 -114.2578125 86.8203125 C-114.80295502 87.28902267 -115.34809753 87.75773285 -115.90975952 88.24064636 C-117.39652968 89.49205954 -118.90197657 90.72142768 -120.41958618 91.93525696 C-127.00691299 97.2081619 -133.07768867 102.7964236 -139.015625 108.78515625 C-139.91569275 109.68568222 -140.8157605 110.58620819 -141.74310303 111.51402283 C-143.62771534 113.40163195 -145.51035176 115.29096187 -147.38964844 117.18383789 C-149.77681516 119.58805289 -152.17057171 121.98557246 -154.56665421 124.38089848 C-156.8857775 126.70036154 -159.20063497 129.02406896 -161.515625 131.34765625 C-162.36368713 132.19683121 -163.21174927 133.04600616 -164.08551025 133.9209137 C-168.91996523 138.79369079 -173.53943916 143.78399387 -178 149 C-179.04520487 150.19157122 -180.09185379 151.38187902 -181.140625 152.5703125 C-188.38499758 160.83315525 -195.35830627 169.24504008 -202 178 C-202.53206055 178.7007666 -203.06412109 179.4015332 -203.61230469 180.12353516 C-229.47743084 214.35415653 -252.62358921 251.79914209 -268.73046875 291.671875 C-269.39719604 293.32026367 -269.39719604 293.32026367 -270.07739258 295.00195312 C-270.92320667 297.11911412 -271.75329513 299.24264642 -272.56518555 301.37304688 C-272.94328369 302.32759766 -273.32138184 303.28214844 -273.7109375 304.265625 C-274.19506104 305.53067871 -274.19506104 305.53067871 -274.68896484 306.82128906 C-276.37087661 309.61633201 -278.07001081 310.62693656 -281 312 C-284 311.8125 -284 311.8125 -287 310 C-288.19335938 308.06396484 -288.19335938 308.06396484 -289.34375 305.6484375 C-289.77558594 304.74746338 -290.20742188 303.84648926 -290.65234375 302.91821289 C-292.47493254 298.97158177 -294.26744394 295.01230428 -296.04492188 291.04516602 C-302.26788245 277.21996116 -309.21738766 264.00678625 -317 251 C-317.5053125 250.15324707 -318.010625 249.30649414 -318.53125 248.43408203 C-327.39852722 233.69858391 -337.2908903 219.71360318 -349.0390625 207.1171875 C-350.8575849 205.15376292 -352.54965109 203.12780185 -354.25 201.0625 C-361.48124123 192.82186354 -370.29786509 186.3555039 -379.375 180.3125 C-386.20288168 175.75843402 -392.89295839 170.90883318 -396 163 C-397.21957002 151.86787827 -395.6181316 142.14898506 -388.625 133.25 C-381.69353148 126.03349913 -370.95872881 121.00685677 -361 120 C-360.236875 119.91878906 -359.47375 119.83757812 -358.6875 119.75390625 C-343.35806596 118.94321503 -330.12131767 127.37363503 -319.10742188 137.20214844 C-316.6942894 139.42460989 -314.34607376 141.70676574 -312 144 C-311.05253906 144.87205078 -311.05253906 144.87205078 -310.0859375 145.76171875 C-299.48526176 155.73439237 -289.55785578 169.26064424 -282.34375 181.90234375 C-281.9003125 182.59457031 -281.456875 183.28679687 -281 184 C-280.34 184 -279.68 184 -279 184 C-277.1710182 181.57567848 -275.45039231 179.13774429 -273.75 176.625 C-262.04690719 159.69804771 -249.13028954 143.71372298 -235.265625 128.51171875 C-234.04787779 127.161699 -232.8357366 125.80593315 -231.66113281 124.41821289 C-226.13932324 117.93567727 -220.13108774 111.94499319 -214.11328125 105.92797852 C-212.26271033 104.07522532 -210.42029924 102.21461294 -208.578125 100.35351562 C-202.41838587 94.16521878 -196.21936868 88.28224075 -189.35083008 82.87719727 C-186.95503333 80.96409297 -184.69371444 78.94992545 -182.4375 76.875 C-177.89090984 72.80616012 -173.0507276 69.41145636 -168 66 C-166.54344648 64.99729017 -165.08779658 63.99326706 -163.6328125 62.98828125 C-156.18320113 57.85040955 -148.71508086 52.74131134 -141.125 47.8125 C-139.52011719 46.77029297 -139.52011719 46.77029297 -137.8828125 45.70703125 C-135.29597431 44.1752585 -132.82280604 43.0155852 -130 42 C-130 41.34 -130 40.68 -130 40 C-92.62707456 19.90183232 -43.76461999 -4.56440822 0 0 Z " fill="#00B42B" transform="translate(510,59)"/>
</svg>
