<?xml version="1.0" encoding="UTF-8"?>
<svg version="1.1" xmlns="http://www.w3.org/2000/svg" width="512" height="512">
<path d="M0 0 C1.70254142 1.46182864 3.3914451 2.9397798 5.0625 4.4375 C6.08537109 5.33662109 6.08537109 5.33662109 7.12890625 6.25390625 C27.01662607 24.85595529 37.78689532 51.56613183 39.28515625 78.4296875 C40.22163805 109.43561603 29.0712077 135.9107606 8.85546875 158.953125 C-5.33166451 174.00885826 -24.14775744 183.2813118 -43.9375 188.4375 C-45.33742187 188.80681641 -45.33742187 188.80681641 -46.765625 189.18359375 C-74.59396806 195.082877 -104.07621806 188.17999563 -127.9375 173.4375 C-131.45633331 170.95843139 -134.70330927 168.27372272 -137.9375 165.4375 C-138.67097656 164.84710938 -139.40445313 164.25671875 -140.16015625 163.6484375 C-159.16679672 147.89337397 -172.26360694 122.94185018 -174.9375 98.4375 C-175.85020419 83.79839924 -176.24547815 68.58981376 -171.9375 54.4375 C-171.58558594 53.27992187 -171.23367187 52.12234375 -170.87109375 50.9296875 C-166.35203166 37.35758683 -160.01446517 25.48704843 -150.9375 14.4375 C-150.25042969 13.58542969 -149.56335938 12.73335937 -148.85546875 11.85546875 C-111.75935585 -31.84774403 -43.73677795 -34.85743208 0 0 Z M-75.90969849 15.18182373 C-78.34860573 20.53439922 -77.57755782 26.97232428 -77.49609375 32.7578125 C-77.49183944 34.2642272 -77.4895146 35.77064847 -77.48902893 37.27706909 C-77.48287814 40.42606554 -77.46024724 43.57434656 -77.42456055 46.72314453 C-77.37921112 50.75608445 -77.36452953 54.788379 -77.36082363 58.82155037 C-77.35639255 61.92884664 -77.34108562 65.03600803 -77.3219471 68.1432457 C-77.31308017 69.63036874 -77.30634277 71.11750609 -77.30178642 72.60464859 C-77.2927285 74.68215307 -77.27032742 76.75907874 -77.24389648 78.83642578 C-77.23325668 80.0174588 -77.22261688 81.19849182 -77.21165466 82.41531372 C-76.94636424 85.33978369 -76.52785661 87.00216294 -74.9375 89.4375 C-73.15842229 90.8569164 -73.15842229 90.8569164 -70.9921875 91.99609375 C-69.76459717 92.68977051 -69.76459717 92.68977051 -68.51220703 93.39746094 C-67.62130371 93.88504883 -66.73040039 94.37263672 -65.8125 94.875 C-64.89194824 95.38708008 -63.97139648 95.89916016 -63.02294922 96.42675781 C-61.0420983 97.52557071 -59.05842238 98.61930305 -57.07226562 99.70849609 C-53.85123216 101.48508168 -50.65173334 103.2966751 -47.453125 105.11328125 C-45.32357399 106.30586201 -43.19337982 107.49729515 -41.0625 108.6875 C-39.55792236 109.54686157 -39.55792236 109.54686157 -38.02294922 110.42358398 C-32.77043482 113.31694827 -28.97744984 115.38823285 -22.9375 114.4375 C-20.22145117 112.50767583 -19.19057394 111.09549225 -18 108 C-17.9121415 104.39780136 -18.61907693 103.23324547 -20.9375 100.4375 C-27.8356522 95.14937732 -35.65517384 91.23482133 -43.3125 87.1875 C-45.63398214 85.95530428 -47.95382001 84.72008397 -50.2734375 83.484375 C-51.28970215 82.94651367 -52.3059668 82.40865234 -53.35302734 81.85449219 C-55.9375 80.4375 -55.9375 80.4375 -58.9375 78.4375 C-59.30258179 75.87687683 -59.30258179 75.87687683 -59.29052734 72.59838867 C-59.29418304 71.37339157 -59.29783875 70.14839447 -59.30160522 68.88627625 C-59.29440523 67.9014454 -59.29440523 67.9014454 -59.28705978 66.89671898 C-59.27333935 64.84076101 -59.27974752 62.78577039 -59.29190063 60.72981262 C-59.32288528 54.88450868 -59.3180218 49.03942681 -59.29785156 43.1940918 C-59.2869163 39.61888418 -59.3001641 36.04440073 -59.32774734 32.46929359 C-59.33318012 31.10858929 -59.32914357 29.74781221 -59.31534958 28.38716698 C-58.83666079 20.16237137 -58.83666079 20.16237137 -62.25634766 13.10668945 C-67.51463739 9.83306653 -72.00643833 10.15604228 -75.90969849 15.18182373 Z " fill="#FD7C00" transform="translate(174.9375,70.5625)"/>
<path d="M0 0 C1.26120296 -0.00573832 1.26120296 -0.00573832 2.54788476 -0.01159257 C5.37030942 -0.02192537 8.19253073 -0.0179297 11.01496887 -0.01396179 C13.03721302 -0.01830849 15.05945552 -0.0234915 17.08169556 -0.02944946 C22.5824432 -0.04286515 28.08312223 -0.04341455 33.58388305 -0.04088616 C38.18282954 -0.03981673 42.78176214 -0.04469988 47.38070565 -0.04949158 C58.24448102 -0.06059877 69.10822182 -0.06101943 79.97200012 -0.05497742 C91.14963131 -0.04895574 102.32713605 -0.0611998 113.50474566 -0.08254749 C123.11691021 -0.10022515 132.72903477 -0.10615458 142.34121495 -0.10290974 C148.07450849 -0.10110423 153.80771212 -0.10365823 159.54099083 -0.11762428 C164.94597146 -0.13029601 170.3507574 -0.128171 175.7557354 -0.11521339 C177.72720661 -0.11286707 179.69869191 -0.11551147 181.67014694 -0.12383652 C209.25786477 -0.23181966 232.5186603 5.3373815 252.7368927 25.26069641 C265.89287781 38.39507891 275.7586121 56.87659579 275.8846224 75.88292056 C275.88434585 76.97113291 275.88434585 76.97113291 275.88406372 78.08132935 C275.88774041 78.86243802 275.8914171 79.6435467 275.8952052 80.44832534 C275.90620743 83.06262827 275.91008008 85.6768914 275.91389465 88.29121399 C275.9201622 90.16744614 275.92680926 92.04367705 275.93380737 93.91990662 C275.95482558 100.08167155 275.96521161 106.24343665 275.97517395 112.40522766 C275.97922315 114.53121643 275.98334012 116.65720508 275.98752403 118.78319359 C276.00657531 128.77848853 276.02080325 138.77377611 276.029136 148.76908571 C276.03889119 160.27885575 276.06516605 171.78843259 276.10563689 183.29813462 C276.13589076 192.21051527 276.15061387 201.12284086 276.15391701 210.03527182 C276.15625804 215.34994472 276.16509361 220.66441124 276.19037819 225.9790287 C276.21382483 230.9884394 276.21782607 235.99751027 276.20761681 241.00696182 C276.20712525 242.83373463 276.21333179 244.66052512 276.22717285 246.48724556 C276.32918323 260.76313791 274.98734407 274.60459555 268.1118927 287.44819641 C267.60311584 288.4267157 267.60311584 288.4267157 267.08406067 289.42500305 C256.39872351 309.2592079 239.50524829 322.94555809 218.3462677 330.28804016 C209.36528334 332.70824049 200.78214589 333.553676 191.4987793 333.52139282 C190.31502836 333.52521837 189.13127742 333.52904392 187.91165525 333.53298539 C184.65703285 333.54146309 181.40255647 333.54110308 178.1479305 333.5368048 C174.62565727 333.5343237 171.10340983 333.54336882 167.58114624 333.55084229 C160.69245227 333.5635533 153.80379735 333.56538746 146.91509362 333.56304202 C141.3119248 333.56125459 135.70876777 333.5630176 130.10560036 333.56726646 C129.30627811 333.56786165 128.50695586 333.56845684 127.68341172 333.56907007 C126.05925883 333.5702819 124.43510594 333.57149603 122.81095306 333.57271244 C107.599494 333.58357423 92.38805715 333.58143201 77.17659686 333.5753276 C63.28369421 333.57016025 49.39086171 333.58141151 35.49797293 333.60042582 C21.20741364 333.61983332 6.91688749 333.62805508 -7.37368506 333.62430257 C-15.38657579 333.62239486 -23.39940683 333.6248359 -31.41228676 333.63901711 C-38.23421372 333.65096911 -45.05604426 333.65229323 -51.87797264 333.64022694 C-55.35317843 333.63436478 -58.82820819 333.63316422 -62.30340195 333.64522934 C-91.07749896 333.72523322 -114.91529173 329.3051939 -136.2631073 308.26069641 C-151.15326647 292.25011035 -158.37216268 272.2338807 -158.45597839 250.5514679 C-158.46415588 249.37844116 -158.47233337 248.20541443 -158.48075867 246.99684143 C-158.50552147 243.12516281 -158.52209986 239.25352045 -158.5365448 235.38179016 C-158.541909 234.04522763 -158.54728652 232.70866516 -158.55267715 231.37210274 C-158.57427319 225.81396004 -158.59301167 220.25582008 -158.60429955 214.69764614 C-158.62055979 206.74591087 -158.65382438 198.79466233 -158.71070039 190.8431105 C-158.74939461 185.24210843 -158.76893094 179.64123667 -158.77422011 174.04010445 C-158.77787144 170.69795594 -158.79237063 167.35674179 -158.82232285 164.01466179 C-158.85381998 160.28957031 -158.8540343 156.56571919 -158.84660339 152.8405304 C-158.86300873 151.73649368 -158.87941406 150.63245697 -158.89631653 149.4949646 C-158.83511206 142.01727532 -158.83511206 142.01727532 -155.85554504 138.07626343 C-152.60112344 135.79708796 -151.02979025 135.58464779 -147.19670105 135.83100891 C-144.12090066 136.51452011 -142.39054071 138.00432764 -140.2631073 140.26069641 C-139.29983244 143.15052098 -139.13416806 144.97887188 -139.12507629 147.98248291 C-139.11962296 148.95372101 -139.11416962 149.92495911 -139.10855103 150.92562866 C-139.1075087 151.9900267 -139.10646637 153.05442474 -139.10539246 154.15107727 C-139.09777138 155.83457275 -139.09777138 155.83457275 -139.08999634 157.55207825 C-139.07928241 159.99438632 -139.07066625 162.43670428 -139.06387711 164.87902641 C-139.05209114 168.75138343 -139.0326361 172.62362877 -139.01075745 176.49594116 C-138.94915101 187.50806403 -138.89497184 198.52017706 -138.86174011 209.53242493 C-138.84133031 216.2662923 -138.80536077 222.99993195 -138.76098251 229.73369026 C-138.74686912 232.29433886 -138.73811067 234.85502303 -138.73492813 237.41570854 C-138.72998706 241.01260565 -138.70674387 244.60897581 -138.67961121 248.20576477 C-138.68261734 249.25194473 -138.68562347 250.29812469 -138.6887207 251.37600708 C-138.49797042 268.51340041 -132.15534054 283.55331524 -120.08732605 295.63569641 C-106.55173475 308.21649496 -90.37014021 313.75633724 -72.04986572 313.64164734 C-70.29640065 313.6486673 -70.29640065 313.6486673 -68.50751203 313.65582907 C-65.29875339 313.66564748 -62.09034175 313.66221906 -58.88159239 313.65287042 C-55.40706684 313.64603508 -51.9325854 313.65658324 -48.45806885 313.66481018 C-41.66541072 313.67810266 -34.87285242 313.67528976 -28.08019049 313.66657226 C-22.55569445 313.65977782 -17.03122625 313.65888658 -11.50672722 313.66214371 C-10.71835318 313.66260341 -9.92997914 313.66306311 -9.11771498 313.66353673 C-7.51578589 313.66449598 -5.9138568 313.66546862 -4.31192773 313.66645451 C10.68587178 313.67499541 25.68361616 313.66519501 40.68140662 313.64905341 C53.52862425 313.63565402 66.37576053 313.63797771 79.22297668 313.65180969 C94.16811843 313.66789304 109.11321192 313.67416881 124.05836111 313.6649729 C125.65447302 313.66401733 127.25058493 313.66307422 128.84669685 313.66214371 C129.63186328 313.66168088 130.41702971 313.66121805 131.22598905 313.6607412 C136.73838829 313.65815937 142.25075671 313.66250489 147.76315117 313.66958237 C154.48883754 313.67802837 161.21441898 313.67565258 167.94009345 313.65974014 C171.36657189 313.65189845 174.79287588 313.6486949 178.21935272 313.65868759 C181.94529612 313.66693353 185.67075464 313.65654407 189.39666748 313.64164734 C190.46342632 313.6483395 191.53018515 313.65503167 192.62927002 313.66192663 C210.44765883 313.52455317 225.60871738 307.47461655 238.1822052 294.94819641 C252.55511497 279.82807115 256.19525616 263.15241296 256.15681458 242.91621399 C256.1641658 241.07850126 256.17275507 239.24079313 256.18247986 237.40309143 C256.20459716 232.43790953 256.20763135 227.47289408 256.20573235 222.50766969 C256.20561216 218.34817161 256.21419626 214.18870818 256.22250986 210.02921981 C256.24170991 200.20620841 256.24464064 190.38328197 256.23786926 180.56025696 C256.23123567 170.46220122 256.25407333 160.36451142 256.29118299 150.26652986 C256.32198338 141.56632106 256.33322871 132.86622932 256.32934618 124.16596717 C256.32728882 118.98326211 256.33259977 113.80084177 256.35723877 108.61818886 C256.37967402 103.73828546 256.3774901 98.85897222 256.35731125 93.97906494 C256.35393032 92.20067056 256.35886241 90.42223513 256.37329483 88.6438961 C256.49496779 72.52340003 253.80816941 58.41668465 243.7368927 45.26069641 C243.09107239 44.40991516 242.44525208 43.55913391 241.77986145 42.68257141 C230.89728561 29.51849081 215.54236834 22.25223149 198.7368927 20.26069641 C195.83447266 20.12733376 192.93739407 20.12292103 190.03227234 20.12939453 C188.75452429 20.12622096 188.75452429 20.12622096 187.45096314 20.12298328 C184.60989921 20.11701396 181.76888009 20.11798121 178.92781067 20.11885071 C176.88565496 20.11581731 174.84349992 20.11229535 172.80134583 20.10832214 C168.41051534 20.10044888 164.01969293 20.09529427 159.62885666 20.09203148 C152.68747734 20.0861126 145.74614904 20.06956566 138.80479431 20.0506897 C136.42720607 20.04435295 134.0496178 20.03802731 131.6720295 20.03171253 C130.48164015 20.02854672 129.29125081 20.02538091 128.06478906 20.02211916 C111.90878689 19.98004801 95.75280933 19.94704373 79.59675598 19.93476868 C68.69160622 19.92639815 57.78658364 19.90394951 46.8814975 19.86541301 C41.11172633 19.84562747 35.34214538 19.83325632 29.5723381 19.8382473 C24.15003988 19.84288111 18.72810303 19.82915776 13.30587769 19.8012352 C11.31486319 19.79430354 9.32381148 19.79421797 7.332798 19.80143547 C4.61728083 19.81028639 1.90296516 19.79469174 -0.81245422 19.77294922 C-1.99742152 19.78561302 -1.99742152 19.78561302 -3.20632756 19.79853266 C-6.94063044 19.74314143 -9.06542038 19.38746084 -12.24049187 17.35148335 C-14.91408272 14.5877801 -15.15805854 12.93494448 -15.39982605 9.22554016 C-15.19055944 6.21808003 -14.19952446 4.5309786 -12.2631073 2.26069641 C-8.50391482 -0.36775572 -4.40441322 -0.02117586 0 0 Z " fill="#3E3E3E" transform="translate(236.2631072998047,131.7393035888672)"/>
<path d="M0 0 C0.63679687 0.44085938 1.27359375 0.88171875 1.9296875 1.3359375 C9.58172984 7.21950784 15.11144245 16.56588984 17 26 C17.39117148 31.14553222 17.47414079 36.2543342 17.44604492 41.4128418 C17.43745583 43.82490285 17.46649567 46.23465162 17.49804688 48.64648438 C17.49965732 50.1874993 17.49908436 51.72851839 17.49609375 53.26953125 C17.50732773 53.98623489 17.51856171 54.70293854 17.53013611 55.44136047 C17.48200655 58.88589231 17.25361245 60.67790861 15.09399414 63.4206543 C11.31024514 66.27445776 8.74697177 66.48274289 4 66 C0.84045695 63.45862841 -0.71540886 61.85377341 -2 58 C-2.10440767 55.88327366 -2.15511412 53.76373021 -2.17578125 51.64453125 C-2.19962891 50.38189453 -2.22347656 49.11925781 -2.24804688 47.81835938 C-2.29443744 45.16696034 -2.32211401 42.51717252 -2.34179688 39.86523438 C-2.52973196 31.25955554 -3.18478823 25.52856018 -8.859375 18.79296875 C-17.49640978 11.45862723 -23.26278371 10.7691684 -34.50850105 11.6001873 C-41.92451117 12.22276837 -49.28044645 13.2704133 -56.64624023 14.31665039 C-58.34818727 14.55378156 -60.05021102 14.79036273 -61.75230408 15.02644348 C-65.38225146 15.53102147 -69.01166039 16.03925399 -72.64068413 16.55043221 C-78.38575946 17.359497 -84.13211319 18.15921501 -89.87867737 18.95762634 C-103.1022854 20.796288 -116.32422828 22.64680826 -129.54613495 24.49765778 C-141.6941273 26.19807559 -153.84246154 27.89593869 -165.99219471 29.58387941 C-171.69898887 30.37706902 -177.40491601 31.17615499 -183.11023986 31.97984898 C-186.65991923 32.47863589 -190.21029418 32.97232521 -193.76087379 33.46465874 C-195.40060612 33.69308906 -197.040048 33.92361613 -198.67916107 34.15644836 C-220.08840276 37.19474827 -220.08840276 37.19474827 -225 34.125 C-227.58105526 31.38262878 -227.95402095 30.48737793 -228.3125 26.6875 C-227.93748366 22.26230719 -227.36939978 20.87631689 -224 18 C-215.52441241 15.67917553 -206.73402792 14.76332976 -198.04077148 13.58569336 C-196.32826399 13.35089222 -194.61580177 13.11576062 -192.90338135 12.88032532 C-188.27381769 12.24478143 -183.64363278 11.61387513 -179.01331592 10.98384547 C-174.1573641 10.32232873 -169.30199005 9.65659776 -164.44654846 8.99134827 C-156.29551088 7.87515492 -148.14410658 6.76167517 -139.99243164 5.65014648 C-128.50990725 4.08443392 -117.02804328 2.51392109 -105.54631317 0.94239604 C-90.15141467 -1.16446807 -74.75632854 -3.2699797 -59.36047363 -5.36984444 C-57.69803372 -5.59664342 -56.03561407 -5.82359104 -54.37321663 -6.05070114 C-52.09725377 -6.36159284 -49.82121316 -6.67190896 -47.54515076 -6.98207092 C-46.27370429 -7.15553575 -45.00225782 -7.32900057 -43.69228268 -7.5077219 C-27.38361988 -9.68209429 -14.00851504 -9.90846186 0 0 Z " fill="#3D3D3D" transform="translate(432,63)"/>
</svg>
