<?xml version="1.0" encoding="UTF-8"?>
<svg version="1.1" xmlns="http://www.w3.org/2000/svg" width="512" height="512">
<path d="M0 0 C8.22731226 5.28088538 12.85257175 13.93182713 17.5 22.25 C18.48417874 23.98368293 19.46836658 25.71736074 20.45301819 27.45077515 C21.47702037 29.25677368 22.49679385 31.06510341 23.515625 32.87402344 C26.48559698 38.14279327 29.49779984 43.38731631 32.50418091 48.63537598 C34.18133115 51.5652363 35.85430594 54.49747752 37.52734375 57.4296875 C41.20354021 63.87190692 44.88301442 70.31224842 48.56350708 76.75201416 C50.22998282 79.66792672 51.89622982 82.58396998 53.5625 85.5 C54.22916557 86.66666729 54.89583224 87.83333396 55.5625 89 C56.89583333 91.33333333 58.22916667 93.66666667 59.5625 96 C59.89249496 96.57748993 60.22248993 97.15497986 60.56248474 97.74996948 C61.22920665 98.91673537 61.89592418 100.08350376 62.56263733 101.25027466 C64.22842284 104.16544378 65.89428427 107.08056947 67.56030273 109.99560547 C70.57090313 115.26343195 73.58094147 120.53157559 76.58816528 125.80133057 C83.38727958 137.71576145 90.20003173 149.62188804 97.0625 161.5 C104.26462794 173.96602223 111.41079676 186.46361244 118.54638672 198.96777344 C120.55185814 202.48180679 122.558882 205.99495158 124.56640625 209.5078125 C124.89620483 210.08490967 125.22600342 210.66200684 125.5657959 211.2565918 C126.56467095 213.00440957 127.56357889 214.75220855 128.5625 216.5 C132.23915182 222.93296104 135.91576407 229.36594172 139.58816528 235.80133057 C146.38727958 247.71576145 153.20003173 259.62188804 160.0625 271.5 C167.26462794 283.96602223 174.41079676 296.46361244 181.54638672 308.96777344 C184.55046218 314.23158385 187.55808134 319.49336912 190.56542969 324.75531006 C191.55936726 326.49451827 192.55314779 328.23381612 193.546875 329.97314453 C196.96572093 335.95704393 200.38602538 341.94010383 203.80859375 347.921875 C207.15265265 353.76648024 210.49182494 359.61385197 213.828125 365.46289062 C215.39200304 368.20143832 216.96101201 370.93697153 218.53125 373.671875 C219.35446724 375.11441185 220.17741274 376.55710383 221 378 C221.35956787 378.62229492 221.71913574 379.24458984 222.08959961 379.88574219 C225.96599684 386.71851493 226.74440395 393.43362193 224.94921875 401.12890625 C222.37268646 408.56339369 217.8775239 413.23974939 210.9375 416.875 C205.65471474 418.26520665 200.61844898 418.6256635 195.16511822 418.62863445 C194.43826758 418.63038749 193.71141695 418.63214053 192.96254054 418.63394669 C190.52600786 418.63860006 188.08953503 418.63614289 185.65299988 418.63371277 C183.88882073 418.63558107 182.12464199 418.63788185 180.36046392 418.64057809 C175.51151723 418.64670007 170.66258777 418.64656203 165.81363809 418.64538372 C160.58448099 418.64517981 155.35532944 418.65069749 150.12617493 418.65544128 C139.88096012 418.66375053 129.63575107 418.66649625 119.39053317 418.66705366 C111.06361605 418.66752868 102.73670083 418.66958273 94.40978432 418.67275429 C70.80636106 418.68156153 47.20294234 418.68617354 23.59951743 418.68542381 C21.69050166 418.68536388 21.69050166 418.68536388 19.74291992 418.68530273 C18.4686906 418.68526185 17.19446128 418.68522097 15.88161895 418.68517885 C-4.77247937 418.68477234 -25.42655946 418.69434305 -46.08065251 418.7084411 C-67.28330989 418.72279951 -88.48595838 418.72971158 -109.68862075 418.72884732 C-121.59424369 418.72851517 -133.49984752 418.73127015 -145.40546608 418.74202538 C-155.54156502 418.75112332 -165.67763618 418.75331143 -175.81373743 418.74651595 C-180.98541904 418.74324722 -186.15704734 418.74320685 -191.32872391 418.7518692 C-196.06422037 418.75971941 -200.79962112 418.75831788 -205.5351152 418.74958507 C-207.24706355 418.74804683 -208.95901899 418.74987844 -210.67095897 418.75544515 C-233.69588376 418.8253488 -233.69588376 418.8253488 -242.4375 410.5 C-247.61883999 403.95514948 -249.20964555 397.68019606 -248.4375 389.5 C-246.75431021 382.11394397 -243.00841801 375.91848607 -239.125 369.5 C-237.85609763 367.36575649 -236.58923143 365.23030131 -235.32421875 363.09375 C-234.67759277 362.00320313 -234.0309668 360.91265625 -233.36474609 359.7890625 C-230.30738947 354.57133911 -227.37231532 349.28731613 -224.4375 344 C-219.34033169 334.8421468 -214.12440407 325.76304208 -208.82373047 316.72167969 C-204.35471265 309.0920119 -199.94388369 301.43022514 -195.5625 293.75 C-195.06245453 292.8735231 -195.06245453 292.8735231 -194.55230713 291.9793396 C-192.8574651 289.0080802 -191.16342016 286.03636728 -189.46972656 283.06445312 C-186.46279256 277.78906705 -183.44890383 272.51765562 -180.43548584 267.24597168 C-178.7692007 264.33081342 -177.10337373 261.41539337 -175.4375 258.5 C-174.77083552 257.33333208 -174.10416886 256.16666541 -173.4375 255 C-173.1075 254.4225 -172.7775 253.845 -172.4375 253.25 C-169.4375 248 -169.4375 248 -168.43753052 246.25006104 C-167.77075336 245.08319593 -167.10398497 243.91632581 -166.43722534 242.74945068 C-164.77232094 239.83577909 -163.10726514 236.92219422 -161.44189453 234.00878906 C-158.42069858 228.72315109 -155.40067201 223.43686097 -152.38619995 218.14738464 C-150.69570925 215.18116606 -149.00434065 212.2154488 -147.3125 209.25 C-146.97994202 208.6670517 -146.64738403 208.08410339 -146.30474854 207.48348999 C-141.68961953 199.39754031 -137.02128188 191.34427229 -132.3125 183.3125 C-126.98521058 174.224328 -121.80986462 165.05943841 -116.68701172 155.85473633 C-112.126189 147.67949662 -107.42728374 139.59197544 -102.6875 131.51953125 C-98.51505844 124.39471475 -94.45268978 117.21446163 -90.4375 110 C-85.33919076 100.84276685 -80.12441945 91.7630683 -74.82373047 82.72167969 C-70.35470786 75.09200371 -65.94451642 67.42986922 -61.5625 59.75 C-61.23212738 59.17133179 -60.90175476 58.59266357 -60.56137085 57.99645996 C-57.10027296 51.93376753 -53.64523766 45.86766203 -50.19830322 39.79690552 C-48.76900833 37.28062451 -47.33760414 34.76554669 -45.90594482 32.25061035 C-44.91126424 30.50127749 -43.9196842 28.75018275 -42.92822266 26.99902344 C-22.00652621 -9.75191161 -22.00652621 -9.75191161 0 0 Z " fill="#FEB200" transform="translate(267.4375,41.5)"/>
<path d="M0 0 C7.76548792 5.42944142 13.01549838 11.59297761 15 21 C15.95203401 39.20705241 13.9746718 57.44437056 12.45764542 75.5715065 C12.10673099 79.78120964 11.76381452 83.99156309 11.4206543 88.2019043 C11.28208946 89.90174868 11.1435244 91.60159304 11.00495911 93.30143738 C10.93648081 94.14180227 10.86800251 94.98216717 10.79744911 95.84799767 C10.59030553 98.38496933 10.38193447 100.92183796 10.17338562 103.45869446 C9.33098019 113.73449867 8.54555965 124.01239583 7.81640625 134.296875 C7.64230119 136.71606795 7.46814931 139.13525753 7.29394531 141.55444336 C7.05365616 144.89870537 6.81714464 148.24298264 6.59362793 151.58840942 C6.39218692 154.59757232 6.17612532 157.60536043 5.95703125 160.61328125 C5.90406387 161.47326721 5.8510965 162.33325317 5.79652405 163.21929932 C5.2326945 170.63171483 3.2262712 176.46630108 -2 182 C-7.99601162 186.19720814 -13.83626628 186.6190881 -21 186 C-26.54456177 184.54988384 -31.23838531 181.46341837 -34.57373047 176.79931641 C-36.26895398 173.47212833 -36.66463148 170.79760149 -37.0703125 167.0859375 C-37.14742462 166.39535248 -37.22453674 165.70476746 -37.3039856 164.99325562 C-38.35782498 155.22295959 -39.10246488 145.42056302 -39.875 135.625 C-40.04639146 133.48573274 -40.2181105 131.3464917 -40.39013672 129.20727539 C-40.83961309 123.60764623 -41.2849294 118.00769428 -41.72924805 112.40765381 C-42.26493234 105.66559115 -42.80551367 98.92391977 -43.34536743 92.18218994 C-43.76645165 86.92249969 -44.18687946 81.66276034 -44.60498047 76.40283203 C-45.49067825 65.2734905 -46.39625861 54.14615239 -47.34036255 43.02159119 C-48.54963478 28.67206977 -48.90818283 18.60891274 -40.1015625 6.359375 C-29.53911313 -5.49883953 -13.68417891 -6.71605096 0 0 Z " fill="#212120" transform="translate(272,145)"/>
<path d="M0 0 C5.38556667 4.42065264 8.60193468 10.44588451 9.5625 17.3125 C10.46962331 29.46509529 10.75040204 40.99858693 3.1640625 51.19140625 C-3.00452984 57.43828021 -13.42295381 60.51082088 -22 60.875 C-30.77205739 60.3962889 -39.93796832 57.82030526 -46.78515625 52.16015625 C-53.16535931 45.02579207 -54.63421232 36.86630301 -54.6875 27.6875 C-54.708125 26.82253906 -54.72875 25.95757812 -54.75 25.06640625 C-54.8005455 16.637944 -52.9770872 8.87253748 -47.4375 2.3125 C-33.68112253 -9.18873362 -14.94023288 -10.06293359 0 0 Z " fill="#232220" transform="translate(278.4375,351.6875)"/>
</svg>
