<?xml version="1.0" encoding="UTF-8"?>
<svg version="1.1" xmlns="http://www.w3.org/2000/svg" width="512" height="512">
<path d="M0 0 C6.04966578 4.35093717 8.18693868 8.62238818 11.15625 15.55078125 C11.15625 21.49078125 11.15625 27.43078125 11.15625 33.55078125 C27.98625 33.55078125 44.81625 33.55078125 62.15625 33.55078125 C62.15625 28.93078125 62.15625 24.31078125 62.15625 19.55078125 C63.8184412 11.14204928 66.94779657 5.23298706 74.0625 0.203125 C80.96302243 -3.87578551 87.29842739 -4.2197692 95.15625 -3.44921875 C102.63321277 -1.2422256 107.73957027 3.2357041 112.15625 9.55078125 C116.10815503 16.91569517 115.15625 25.44456102 115.15625 33.55078125 C131.65625 33.55078125 148.15625 33.55078125 165.15625 33.55078125 C165.15625 29.59078125 165.15625 25.63078125 165.15625 21.55078125 C166.23019624 12.5296328 169.04206586 7.45398159 175.59375 1.23828125 C183.03191539 -3.66002279 189.29279984 -4.3754116 198.15625 -3.44921875 C205.80044891 -1.69863885 210.73166965 3.25875212 215.15625 9.55078125 C218.89593919 17.31976519 218.15625 24.93128414 218.15625 33.55078125 C234.98625 33.55078125 251.81625 33.55078125 269.15625 33.55078125 C269.15625 27.61078125 269.15625 21.67078125 269.15625 15.55078125 C272.28276824 6.83442737 276.46902155 2.36311832 284.28125 -2.32421875 C291.02933703 -4.86235058 299.38719259 -4.52613882 306.03125 -1.88671875 C313.50575339 2.06311057 317.87965034 7.32095377 320.51171875 15.3515625 C321.72859994 21.39171823 321.45430828 27.41574827 321.15625 33.55078125 C322.89648438 33.49857422 322.89648438 33.49857422 324.671875 33.4453125 C339.771642 33.12455787 351.17577737 34.61454962 362.84375 44.92578125 C370.72949943 53.87717249 375.27090963 61.70690739 375.29047108 73.91372108 C375.29492892 75.205749 375.29938676 76.49777692 375.30397969 77.8289572 C375.3038904 79.26085958 375.30370057 80.69276195 375.30342102 82.12466431 C375.3067214 83.64731705 375.31044733 85.16996892 375.3145625 86.69261968 C375.32457074 90.87866982 375.32829739 95.06470563 375.33095181 99.25076604 C375.33485831 103.764911 375.34443635 108.27904465 375.35316467 112.79318237 C375.37291846 123.69521063 375.38299354 134.59723979 375.39189246 145.49928147 C375.39627681 150.63425034 375.40164321 155.76921819 375.40688133 160.90418625 C375.4238919 177.97529956 375.43838618 195.04641224 375.44563007 212.11753273 C375.44753994 216.54661688 375.44946028 220.97570103 375.45141602 225.40478516 C375.45189976 226.5055997 375.4523835 227.60641424 375.4528819 228.7405868 C375.46118265 246.57401632 375.48652111 264.40737877 375.51899669 282.240779 C375.55207193 300.55284271 375.57007922 318.86487233 375.57327431 337.17696607 C375.57543889 347.45738152 375.58417998 357.73769915 375.60973549 368.01808548 C375.63144873 376.77297451 375.63948978 385.52774194 375.62976871 394.28265484 C375.62522595 398.74783495 375.62710889 403.2127642 375.64653015 407.67790985 C375.66417619 411.7703308 375.66315259 415.86231814 375.64763286 419.95474379 C375.64525898 421.43055946 375.64956895 422.90640526 375.66146151 424.38217492 C375.76519177 438.11113737 372.79979491 449.21847735 363.37890625 459.48828125 C355.55127781 466.91572418 346.0702491 470.66933495 335.38536739 470.68500233 C334.36023322 470.68853067 334.36023322 470.68853067 333.31438926 470.6921303 C331.01352693 470.69881222 328.71272119 470.69836232 326.41184998 470.69795227 C324.74981715 470.7012514 323.08778513 470.70497707 321.42575413 470.70909375 C316.84979125 470.71911634 312.27384148 470.72283096 307.69786918 470.72548306 C302.76584368 470.72938536 297.83382857 470.73896377 292.90180969 470.74769592 C280.98637712 470.76746274 269.0709437 470.77752696 257.15549883 470.78642371 C251.54484333 470.79080638 245.93418877 470.79617326 240.32353401 470.80141258 C221.67318512 470.81842531 203.02283681 470.8329195 184.37248135 470.84016132 C179.53209368 470.84207123 174.69170601 470.84399156 169.85131836 470.84594727 C168.04672694 470.84667288 168.04672694 470.84667288 166.20567913 470.84741315 C146.71675799 470.85571349 127.22789823 470.88105031 107.73900389 470.91352794 C87.73195335 470.94659734 67.724934 470.96460999 47.71785599 470.96780556 C36.48392275 470.9699708 25.25007902 470.97872148 14.01617241 471.00426674 C4.44879071 471.02597209 -5.11847976 471.03402495 -14.68588329 471.02429996 C-19.56622797 471.01975477 -24.44634313 471.02165432 -29.32665634 471.0410614 C-33.79844185 471.05869012 -38.26983035 471.05769768 -42.74162006 471.04216411 C-44.35541849 471.0397876 -45.96924439 471.04411385 -47.58300085 471.05599276 C-61.70848845 471.15349215 -73.149965 468.52592676 -83.78125 458.7734375 C-91.00513764 451.16033177 -94.96353018 441.74593053 -94.97517776 431.30809593 C-94.97901891 430.01744236 -94.98286005 428.72678879 -94.9868176 427.39702451 C-94.98603735 425.96149081 -94.98515856 424.52595717 -94.98419189 423.09042358 C-94.98677546 421.56792139 -94.9897886 420.04541987 -94.9931953 418.5229193 C-95.00126969 414.33267712 -95.00305511 410.14245207 -95.00379276 405.95220304 C-95.00564258 401.43533445 -95.01318961 396.91847477 -95.01992798 392.40161133 C-95.03351546 382.52132779 -95.03953681 372.6410483 -95.04393864 362.76075697 C-95.04670064 356.59160876 -95.05093795 350.42246212 -95.05544281 344.25331497 C-95.06763656 327.17366064 -95.07793531 310.09400757 -95.0813179 293.01434898 C-95.08153747 291.92098893 -95.08175703 290.82762887 -95.08198325 289.70113669 C-95.08220153 288.60515292 -95.08241981 287.50916916 -95.0826447 286.37997377 C-95.08308817 284.15907756 -95.08353473 281.93818136 -95.08398438 279.71728516 C-95.0842058 278.6156428 -95.08442723 277.51400045 -95.08465537 276.37897499 C-95.08860264 258.53188652 -95.10605403 240.6848389 -95.1293439 222.83776622 C-95.1530608 204.5155686 -95.16551993 186.19339148 -95.16668582 167.87117827 C-95.16760245 157.58353363 -95.17335158 147.2959422 -95.19150543 137.00831223 C-95.20691104 128.24716175 -95.21202419 119.48608093 -95.20376733 110.72491948 C-95.19986233 106.25586229 -95.2007831 101.78694534 -95.21482468 97.31790543 C-95.2275726 93.22309072 -95.22635828 89.1285215 -95.21423396 85.0337071 C-95.2122785 83.55586344 -95.21534845 82.07800234 -95.22407833 80.60018317 C-95.30229959 66.4582022 -92.91436207 56.55173701 -83.46875 45.86328125 C-72.764908 36.43370616 -63.71972174 33.3405439 -49.46875 33.48828125 C-48.22158203 33.49504883 -48.22158203 33.49504883 -46.94921875 33.50195312 C-44.91403103 33.51364961 -42.87888077 33.5315819 -40.84375 33.55078125 C-40.89015625 32.59558594 -40.9365625 31.64039063 -40.984375 30.65625 C-41.26627128 20.55832251 -40.81863717 11.49190714 -33.65625 3.61328125 C-24.01614018 -4.865124 -11.27640592 -6.49857809 0 0 Z M-23.84375 17.55078125 C-25.34531874 20.55391873 -24.93656204 23.34145647 -24.90625 26.67578125 C-24.885625 28.94453125 -24.865 31.21328125 -24.84375 33.55078125 C-17.91375 33.55078125 -10.98375 33.55078125 -3.84375 33.55078125 C-3.28508271 22.73407103 -3.28508271 22.73407103 -8.53125 13.67578125 C-15.11386291 10.47342902 -19.52367792 12.0525077 -23.84375 17.55078125 Z M79.15625 17.55078125 C78.01547343 20.97311097 78.05809883 23.63751342 78.09375 27.23828125 C78.114375 29.32140625 78.135 31.40453125 78.15625 33.55078125 C85.08625 33.55078125 92.01625 33.55078125 99.15625 33.55078125 C99.218125 31.50890625 99.28 29.46703125 99.34375 27.36328125 C99.37855469 26.21472656 99.41335937 25.06617188 99.44921875 23.8828125 C99.05921014 19.44711454 97.45539207 16.94615607 94.46875 13.73828125 C87.99169644 10.41222672 83.38079664 12.04606897 79.15625 17.55078125 Z M182.15625 17.55078125 C181.01547343 20.97311097 181.05809883 23.63751342 181.09375 27.23828125 C181.114375 29.32140625 181.135 31.40453125 181.15625 33.55078125 C188.08625 33.55078125 195.01625 33.55078125 202.15625 33.55078125 C202.87447558 23.52097181 202.87447558 23.52097181 199.15625 14.55078125 C192.39841877 10.04556043 187.25107219 12.20743115 182.15625 17.55078125 Z M285.15625 17.55078125 C283.91367831 20.92347584 284.05502514 24.23809417 284.09375 27.80078125 C284.114375 29.69828125 284.135 31.59578125 284.15625 33.55078125 C291.08625 33.55078125 298.01625 33.55078125 305.15625 33.55078125 C305.218125 31.34390625 305.28 29.13703125 305.34375 26.86328125 C305.37855469 25.62191406 305.41335938 24.38054688 305.44921875 23.1015625 C305.13597188 19.30501045 304.46382653 17.53610754 302.15625 14.55078125 C295.44002434 10.07329748 290.18573167 12.15328872 285.15625 17.55078125 Z " fill="#F0EEE1" transform="translate(115.84375,22.44921875)"/>
<path d="M0 0 C6.04966578 4.35093717 8.18693868 8.62238818 11.15625 15.55078125 C11.15625 21.49078125 11.15625 27.43078125 11.15625 33.55078125 C27.98625 33.55078125 44.81625 33.55078125 62.15625 33.55078125 C62.15625 28.93078125 62.15625 24.31078125 62.15625 19.55078125 C63.8184412 11.14204928 66.94779657 5.23298706 74.0625 0.203125 C80.96302243 -3.87578551 87.29842739 -4.2197692 95.15625 -3.44921875 C102.63321277 -1.2422256 107.73957027 3.2357041 112.15625 9.55078125 C116.10815503 16.91569517 115.15625 25.44456102 115.15625 33.55078125 C131.65625 33.55078125 148.15625 33.55078125 165.15625 33.55078125 C165.15625 29.59078125 165.15625 25.63078125 165.15625 21.55078125 C166.23019624 12.5296328 169.04206586 7.45398159 175.59375 1.23828125 C183.03191539 -3.66002279 189.29279984 -4.3754116 198.15625 -3.44921875 C205.80044891 -1.69863885 210.73166965 3.25875212 215.15625 9.55078125 C218.89593919 17.31976519 218.15625 24.93128414 218.15625 33.55078125 C234.98625 33.55078125 251.81625 33.55078125 269.15625 33.55078125 C269.15625 27.61078125 269.15625 21.67078125 269.15625 15.55078125 C272.28276824 6.83442737 276.46902155 2.36311832 284.28125 -2.32421875 C291.02933703 -4.86235058 299.38719259 -4.52613882 306.03125 -1.88671875 C313.50575339 2.06311057 317.87965034 7.32095377 320.51171875 15.3515625 C321.72859994 21.39171823 321.45430828 27.41574827 321.15625 33.55078125 C322.89648438 33.49857422 322.89648438 33.49857422 324.671875 33.4453125 C339.771642 33.12455787 351.17577737 34.61454962 362.84375 44.92578125 C370.72949943 53.87717249 375.27090963 61.70690739 375.29047108 73.91372108 C375.29492892 75.205749 375.29938676 76.49777692 375.30397969 77.8289572 C375.3038904 79.26085958 375.30370057 80.69276195 375.30342102 82.12466431 C375.3067214 83.64731705 375.31044733 85.16996892 375.3145625 86.69261968 C375.32457074 90.87866982 375.32829739 95.06470563 375.33095181 99.25076604 C375.33485831 103.764911 375.34443635 108.27904465 375.35316467 112.79318237 C375.37291846 123.69521063 375.38299354 134.59723979 375.39189246 145.49928147 C375.39627681 150.63425034 375.40164321 155.76921819 375.40688133 160.90418625 C375.4238919 177.97529956 375.43838618 195.04641224 375.44563007 212.11753273 C375.44753994 216.54661688 375.44946028 220.97570103 375.45141602 225.40478516 C375.45189976 226.5055997 375.4523835 227.60641424 375.4528819 228.7405868 C375.46118265 246.57401632 375.48652111 264.40737877 375.51899669 282.240779 C375.55207193 300.55284271 375.57007922 318.86487233 375.57327431 337.17696607 C375.57543889 347.45738152 375.58417998 357.73769915 375.60973549 368.01808548 C375.63144873 376.77297451 375.63948978 385.52774194 375.62976871 394.28265484 C375.62522595 398.74783495 375.62710889 403.2127642 375.64653015 407.67790985 C375.66417619 411.7703308 375.66315259 415.86231814 375.64763286 419.95474379 C375.64525898 421.43055946 375.64956895 422.90640526 375.66146151 424.38217492 C375.76519177 438.11113737 372.79979491 449.21847735 363.37890625 459.48828125 C355.55127781 466.91572418 346.0702491 470.66933495 335.38536739 470.68500233 C334.36023322 470.68853067 334.36023322 470.68853067 333.31438926 470.6921303 C331.01352693 470.69881222 328.71272119 470.69836232 326.41184998 470.69795227 C324.74981715 470.7012514 323.08778513 470.70497707 321.42575413 470.70909375 C316.84979125 470.71911634 312.27384148 470.72283096 307.69786918 470.72548306 C302.76584368 470.72938536 297.83382857 470.73896377 292.90180969 470.74769592 C280.98637712 470.76746274 269.0709437 470.77752696 257.15549883 470.78642371 C251.54484333 470.79080638 245.93418877 470.79617326 240.32353401 470.80141258 C221.67318512 470.81842531 203.02283681 470.8329195 184.37248135 470.84016132 C179.53209368 470.84207123 174.69170601 470.84399156 169.85131836 470.84594727 C168.04672694 470.84667288 168.04672694 470.84667288 166.20567913 470.84741315 C146.71675799 470.85571349 127.22789823 470.88105031 107.73900389 470.91352794 C87.73195335 470.94659734 67.724934 470.96460999 47.71785599 470.96780556 C36.48392275 470.9699708 25.25007902 470.97872148 14.01617241 471.00426674 C4.44879071 471.02597209 -5.11847976 471.03402495 -14.68588329 471.02429996 C-19.56622797 471.01975477 -24.44634313 471.02165432 -29.32665634 471.0410614 C-33.79844185 471.05869012 -38.26983035 471.05769768 -42.74162006 471.04216411 C-44.35541849 471.0397876 -45.96924439 471.04411385 -47.58300085 471.05599276 C-61.70848845 471.15349215 -73.149965 468.52592676 -83.78125 458.7734375 C-91.00513764 451.16033177 -94.96353018 441.74593053 -94.97517776 431.30809593 C-94.97901891 430.01744236 -94.98286005 428.72678879 -94.9868176 427.39702451 C-94.98603735 425.96149081 -94.98515856 424.52595717 -94.98419189 423.09042358 C-94.98677546 421.56792139 -94.9897886 420.04541987 -94.9931953 418.5229193 C-95.00126969 414.33267712 -95.00305511 410.14245207 -95.00379276 405.95220304 C-95.00564258 401.43533445 -95.01318961 396.91847477 -95.01992798 392.40161133 C-95.03351546 382.52132779 -95.03953681 372.6410483 -95.04393864 362.76075697 C-95.04670064 356.59160876 -95.05093795 350.42246212 -95.05544281 344.25331497 C-95.06763656 327.17366064 -95.07793531 310.09400757 -95.0813179 293.01434898 C-95.08153747 291.92098893 -95.08175703 290.82762887 -95.08198325 289.70113669 C-95.08220153 288.60515292 -95.08241981 287.50916916 -95.0826447 286.37997377 C-95.08308817 284.15907756 -95.08353473 281.93818136 -95.08398438 279.71728516 C-95.0842058 278.6156428 -95.08442723 277.51400045 -95.08465537 276.37897499 C-95.08860264 258.53188652 -95.10605403 240.6848389 -95.1293439 222.83776622 C-95.1530608 204.5155686 -95.16551993 186.19339148 -95.16668582 167.87117827 C-95.16760245 157.58353363 -95.17335158 147.2959422 -95.19150543 137.00831223 C-95.20691104 128.24716175 -95.21202419 119.48608093 -95.20376733 110.72491948 C-95.19986233 106.25586229 -95.2007831 101.78694534 -95.21482468 97.31790543 C-95.2275726 93.22309072 -95.22635828 89.1285215 -95.21423396 85.0337071 C-95.2122785 83.55586344 -95.21534845 82.07800234 -95.22407833 80.60018317 C-95.30229959 66.4582022 -92.91436207 56.55173701 -83.46875 45.86328125 C-72.764908 36.43370616 -63.71972174 33.3405439 -49.46875 33.48828125 C-48.22158203 33.49504883 -48.22158203 33.49504883 -46.94921875 33.50195312 C-44.91403103 33.51364961 -42.87888077 33.5315819 -40.84375 33.55078125 C-40.89015625 32.59558594 -40.9365625 31.64039063 -40.984375 30.65625 C-41.26627128 20.55832251 -40.81863717 11.49190714 -33.65625 3.61328125 C-24.01614018 -4.865124 -11.27640592 -6.49857809 0 0 Z M-23.84375 17.55078125 C-25.34531874 20.55391873 -24.93656204 23.34145647 -24.90625 26.67578125 C-24.885625 28.94453125 -24.865 31.21328125 -24.84375 33.55078125 C-17.91375 33.55078125 -10.98375 33.55078125 -3.84375 33.55078125 C-3.28508271 22.73407103 -3.28508271 22.73407103 -8.53125 13.67578125 C-15.11386291 10.47342902 -19.52367792 12.0525077 -23.84375 17.55078125 Z M79.15625 17.55078125 C78.01547343 20.97311097 78.05809883 23.63751342 78.09375 27.23828125 C78.114375 29.32140625 78.135 31.40453125 78.15625 33.55078125 C85.08625 33.55078125 92.01625 33.55078125 99.15625 33.55078125 C99.218125 31.50890625 99.28 29.46703125 99.34375 27.36328125 C99.37855469 26.21472656 99.41335937 25.06617188 99.44921875 23.8828125 C99.05921014 19.44711454 97.45539207 16.94615607 94.46875 13.73828125 C87.99169644 10.41222672 83.38079664 12.04606897 79.15625 17.55078125 Z M182.15625 17.55078125 C181.01547343 20.97311097 181.05809883 23.63751342 181.09375 27.23828125 C181.114375 29.32140625 181.135 31.40453125 181.15625 33.55078125 C188.08625 33.55078125 195.01625 33.55078125 202.15625 33.55078125 C202.87447558 23.52097181 202.87447558 23.52097181 199.15625 14.55078125 C192.39841877 10.04556043 187.25107219 12.20743115 182.15625 17.55078125 Z M285.15625 17.55078125 C283.91367831 20.92347584 284.05502514 24.23809417 284.09375 27.80078125 C284.114375 29.69828125 284.135 31.59578125 284.15625 33.55078125 C291.08625 33.55078125 298.01625 33.55078125 305.15625 33.55078125 C305.218125 31.34390625 305.28 29.13703125 305.34375 26.86328125 C305.37855469 25.62191406 305.41335938 24.38054688 305.44921875 23.1015625 C305.13597188 19.30501045 304.46382653 17.53610754 302.15625 14.55078125 C295.44002434 10.07329748 290.18573167 12.15328872 285.15625 17.55078125 Z M-79.84375 153.55078125 C-79.946875 199.87453125 -80.05 246.19828125 -80.15625 293.92578125 C-80.20177002 308.55712402 -80.24729004 323.1884668 -80.29418945 338.26318359 C-80.31091076 351.36909191 -80.31091076 351.36909191 -80.32096863 364.4750061 C-80.32563027 370.31633568 -80.34396638 376.157426 -80.37162781 381.99868774 C-80.40349585 388.73824378 -80.41792017 395.47757043 -80.41097475 402.21720234 C-80.40796759 405.66357274 -80.41267437 409.10943075 -80.43982565 412.55570674 C-80.46472316 416.25169586 -80.45869141 419.94640659 -80.44502258 423.64242554 C-80.45958591 424.71023569 -80.47414923 425.77804585 -80.48915386 426.87821388 C-80.40871071 434.97991504 -78.44955923 441.65338551 -72.85391122 447.70152986 C-66.88373003 453.36005361 -60.99532513 455.92407573 -52.77622414 455.93109798 C-51.75766167 455.93808786 -51.75766167 455.93808786 -50.71852219 455.94521895 C-48.45046473 455.95713923 -46.18300963 455.94778541 -43.91494751 455.9384613 C-42.26952131 455.94263553 -40.624098 455.94811354 -38.97868001 455.95478112 C-34.46258561 455.96924282 -29.94667359 455.96498872 -25.43056917 455.9576143 C-20.55792811 455.95288672 -15.68532673 455.96538888 -10.81269836 455.97563171 C-1.26878613 455.99283326 8.2750603 455.99365688 17.81898402 455.98841881 C25.57618438 455.98437829 33.33336529 455.98581927 41.09056473 455.99116707 C42.19438693 455.99191549 43.29820913 455.99266391 44.43548048 455.99343501 C46.67786117 455.99496648 48.92024185 455.99650483 51.16262253 455.99804998 C72.19439721 456.01178001 93.2261347 456.00633387 114.25790854 455.99486477 C133.49903642 455.98493255 152.74006814 455.99787199 171.98118119 456.02179896 C191.73746307 456.04618147 211.49370015 456.05579987 231.24999678 456.04914623 C242.34184733 456.04565204 253.43362392 456.04789926 264.5254631 456.06539726 C273.96804381 456.08010864 283.41049848 456.0807686 292.85307668 456.06332635 C297.67040313 456.05480512 302.48750432 456.05269424 307.30481911 456.06797791 C311.71656667 456.08180151 316.12789549 456.07709183 320.53961869 456.05773867 C322.13377045 456.05397119 323.72795557 456.05692218 325.32207768 456.06735032 C336.50929711 456.13531658 345.14773489 455.02040756 353.65234375 447.265625 C357.94096331 442.37548477 360.28217387 436.24987821 360.27929783 429.79315662 C360.2812887 428.80804033 360.28327957 427.82292404 360.28533077 426.80795574 C360.28241811 425.72364678 360.27950544 424.63933783 360.27650452 423.52217102 C360.27736053 422.37491043 360.27821655 421.22764984 360.27909851 420.04562378 C360.28046867 416.84987108 360.2773211 413.65415858 360.27232273 410.45841064 C360.26796539 406.96354426 360.26941673 403.4686795 360.27014065 399.97381115 C360.27067298 393.18536525 360.26604913 386.39693254 360.25963932 379.60849003 C360.2524487 371.75864536 360.25164508 363.90880865 360.25085449 356.05895996 C360.24560084 335.32706496 360.23163978 314.59517291 360.21875 293.86328125 C360.198125 247.56015625 360.1775 201.25703125 360.15625 153.55078125 C214.95625 153.55078125 69.75625 153.55078125 -79.84375 153.55078125 Z " fill="#07038F" transform="translate(115.84375,22.44921875)"/>
<path d="M0 0 C1.08081848 0.00007553 2.16163696 0.00015106 3.27520752 0.00022888 C4.43574646 0.00539017 5.5962854 0.01055145 6.79199219 0.01586914 C7.98491882 0.01728409 9.17784546 0.01869904 10.40692139 0.02015686 C14.21759548 0.02575501 18.02821085 0.03830721 21.83886719 0.05102539 C24.42219967 0.05604063 27.00553308 0.06060349 29.58886719 0.06469727 C35.92222056 0.07572384 42.25553968 0.09246016 48.58886719 0.11352539 C48.67025861 2.51005067 48.72953727 4.90377975 48.77636719 7.30102539 C48.80150391 7.97456055 48.82664062 8.6480957 48.85253906 9.34204102 C48.91813409 13.82436768 48.32976027 16.55102167 45.58886719 20.11352539 C41.86676275 22.90510372 38.02263505 23.85868543 33.58886719 25.11352539 C31.30814619 26.98777255 31.30814619 26.98777255 31.21386719 29.98852539 C31.35700772 33.14573087 31.35700772 33.14573087 33.15136719 35.48852539 C36.61701599 37.79895793 38.45576432 37.64682899 42.58886719 37.11352539 C50.17979078 35.16087623 55.33071709 31.74358933 59.58886719 25.11352539 C63.70203953 16.61917953 63.70203953 16.61917953 63.58886719 0.11352539 C92.62886719 0.11352539 121.66886719 0.11352539 151.58886719 0.11352539 C151.58886719 15.11352539 151.58886719 15.11352539 148.58886719 20.11352539 C144.86676275 22.90510372 141.02263505 23.85868543 136.58886719 25.11352539 C134.30814619 26.98777255 134.30814619 26.98777255 134.21386719 29.98852539 C134.36453085 33.13484342 134.36453085 33.13484342 136.08886719 35.48852539 C139.63597618 37.79414624 142.5549992 37.90095852 146.58886719 37.11352539 C153.35443394 34.75392958 158.79574561 31.28177917 162.58886719 25.11352539 C166.63236558 16.7718846 166.63236558 16.7718846 166.58886719 1.11352539 C195.62886719 1.11352539 224.66886719 1.11352539 254.58886719 1.11352539 C254.58886719 17.11352539 254.58886719 17.11352539 251.52636719 21.05102539 C248.0384459 23.29376585 244.68074868 23.64138522 240.58886719 24.11352539 C238.42220052 25.61352539 238.42220052 25.61352539 237.58886719 28.11352539 C237.58218002 31.73409807 237.58218002 31.73409807 238.58886719 35.11352539 C242.36474652 37.63077828 245.22523491 37.81994815 249.58886719 37.11352539 C256.3542674 34.778472 261.80283138 31.27025651 265.58886719 25.11352539 C269.63236558 16.7718846 269.63236558 16.7718846 269.58886719 1.11352539 C298.62886719 1.11352539 327.66886719 1.11352539 357.58886719 1.11352539 C357.58886719 16.11352539 357.58886719 16.11352539 354.58886719 21.11352539 C351.5457649 23.25496774 347.99238003 23.75397478 344.39355469 24.45336914 C342.20217073 25.05348229 342.20217073 25.05348229 340.58886719 28.11352539 C340.67054208 31.68528654 340.67054208 31.68528654 341.58886719 35.11352539 C345.35897382 37.62692982 348.23027367 37.83261994 352.58886719 37.11352539 C360.0776961 34.35927524 365.93647143 30.52506449 369.83886719 23.42602539 C372.89506652 16.20452214 372.42232158 7.83291422 372.58886719 0.11352539 C383.90597012 -0.36410146 394.34713682 -0.67534324 403.96386719 6.30102539 C424.11141182 27.88768035 412.58886719 66.08790304 412.58886719 90.11352539 C267.38886719 90.11352539 122.18886719 90.11352539 -27.41113281 90.11352539 C-27.41113281 18.05638253 -27.41113281 18.05638253 -21.22363281 8.86352539 C-15.12293872 2.89840227 -8.48375992 -0.01982187 0 0 Z " fill="#03DF77" transform="translate(63.4111328125,70.886474609375)"/>
<path d="M0 0 C1.59062256 0.00749268 1.59062256 0.00749268 3.21337891 0.01513672 C11.55608202 0.20058696 17.86636438 1.43630565 25.25 5.5 C26.55904297 6.15162109 26.55904297 6.15162109 27.89453125 6.81640625 C38.25402598 12.40194027 46.05063117 21.02412038 51.25 31.5 C51.73597656 32.40621094 52.22195313 33.31242187 52.72265625 34.24609375 C58.49215742 46.60471881 58.17721631 61.74126493 54.1875 74.625 C51.5866608 81.34383461 48.1568339 87.45397752 44.25 93.5 C44.81460938 93.75136719 45.37921875 94.00273437 45.9609375 94.26171875 C63.43045485 103.71195254 75.82120039 127.00568618 81.63867188 145.265625 C82.4344148 148.01131942 83.14411969 150.76817121 83.79443359 153.55175781 C84.23252885 155.42528415 84.71884083 157.28733607 85.20703125 159.1484375 C86.99392784 166.67135375 87.59889111 173.97236827 87.75 181.6875 C87.7960437 183.05213379 87.7960437 183.05213379 87.84301758 184.44433594 C87.84338013 185.73065918 87.84338013 185.73065918 87.84375 187.04296875 C87.85083984 187.80633545 87.85792969 188.56970215 87.86523438 189.35620117 C86.92124797 192.64554426 85.06703729 193.64768856 82.25 195.5 C79.08747864 196.00336456 79.08747864 196.00336456 75.45629883 196.00793457 C74.78585195 196.01417453 74.11540506 196.0204145 73.42464161 196.02684355 C71.18507709 196.04275889 68.94660323 196.03017624 66.70703125 196.01757812 C65.09865689 196.02299994 63.49028749 196.03012293 61.88192749 196.03881836 C57.5182667 196.05704775 53.15498436 196.04998587 48.79131699 196.03730202 C44.22390475 196.02717233 39.65652484 196.03656761 35.08911133 196.04284668 C27.41904891 196.05012318 19.74914058 196.04053533 12.07910156 196.02148438 C3.21247796 195.9997156 -5.65377773 196.00676697 -14.52039242 196.02879 C-22.13412849 196.04694394 -29.74775383 196.04950236 -37.36150455 196.03903532 C-41.90841261 196.03280035 -46.45514775 196.03196483 -51.00204468 196.04518127 C-55.27690217 196.0567391 -59.55128548 196.04871553 -63.82609177 196.02560425 C-65.39461861 196.02031676 -66.96318538 196.02183167 -68.53169632 196.03065491 C-70.67376851 196.0415933 -72.81432324 196.0278703 -74.95629883 196.00793457 C-76.15458817 196.00642647 -77.3528775 196.00491837 -78.58747864 196.00336456 C-82.41801261 195.39367538 -84.08832461 194.29091887 -86.75 191.5 C-87.21791683 188.3877374 -87.3678214 185.90925457 -87.25 182.8125 C-87.22232544 181.54817139 -87.22232544 181.54817139 -87.1940918 180.25830078 C-86.90701971 171.8169579 -85.66149031 163.71418992 -83.75 155.5 C-83.59966309 154.82291992 -83.44932617 154.14583984 -83.29443359 153.44824219 C-78.06837276 130.66630721 -65.17122596 109.02789445 -46.75 94.5 C-46.09 94.17 -45.43 93.84 -44.75 93.5 C-46.54965923 88.77266547 -48.85196016 84.39169166 -51.21484375 79.92578125 C-54.81686393 71.88768532 -56.31046131 64.4838448 -56.25 55.6875 C-56.24500488 54.72553711 -56.24000977 53.76357422 -56.23486328 52.77246094 C-56.03892754 44.74314919 -54.57823843 38.63859845 -50.75 31.5 C-50.31558594 30.62472656 -49.88117188 29.74945313 -49.43359375 28.84765625 C-42.00225816 15.10709557 -28.99234135 5.74699559 -14.24243164 1.07788086 C-9.52499907 -0.01587591 -4.82348173 -0.02977929 0 0 Z " fill="#0B0690" transform="translate(255.75,229.5)"/>
<path d="M0 0 C2.756991 0.9175875 5.30505485 2.02173449 7.921875 3.28515625 C20.80372048 9.50333815 36.47400712 10.25006924 50.046875 5.53515625 C53.36337211 4.29146983 56.19490089 3.08248235 59.140625 1.1171875 C61.546875 -0.15234375 61.546875 -0.15234375 64.0625 -0.05078125 C79.05411766 5.3707157 88.50412887 23.31958255 95.015625 36.9140625 C100.85997183 50.29547857 102.66929317 61.92876521 103.546875 76.84765625 C56.026875 76.84765625 8.506875 76.84765625 -40.453125 76.84765625 C-39.2828356 56.95273653 -39.2828356 56.95273653 -37.015625 49.97265625 C-36.75612061 49.14950928 -36.49661621 48.3263623 -36.22924805 47.47827148 C-32.09802109 35.07750648 -16.58138447 -1.02973566 0 0 Z " fill="#F8544A" transform="translate(224.453125,333.15234375)"/>
<path d="M0 0 C8.28068745 5.93755959 14.4432899 15.81619288 16.64453125 25.75 C18.38199115 36.74754835 16.1724996 47.4402017 10.1875 56.875 C3.28924618 66.26763488 -4.65884953 71.90325472 -16 75 C-28.32660155 76.41596239 -39.52204001 75.51512884 -49.73828125 67.98046875 C-59.85685301 59.42090657 -65.76680765 49.37821426 -67.34765625 36.07421875 C-67.76360608 23.28828272 -62.43964807 12.5633622 -53.9375 3.25 C-38.00099075 -12.03603948 -17.78378127 -10.25326975 0 0 Z " fill="#EEECE0" transform="translate(281,252)"/>
</svg>
