<?xml version="1.0" encoding="UTF-8"?>
<svg version="1.1" xmlns="http://www.w3.org/2000/svg" width="512" height="512">
<path d="M0 0 C0.79861658 -0.00495952 1.59723315 -0.00991903 2.42005023 -0.01502883 C5.09484338 -0.02797734 7.76913672 -0.01960266 10.44394207 -0.01129913 C12.3815163 -0.01618839 14.31908761 -0.02237835 16.25665396 -0.02975702 C21.58031585 -0.04617529 26.90382982 -0.04383474 32.22750819 -0.03838205 C37.96929823 -0.03571419 43.71104863 -0.05023911 49.45282269 -0.06247711 C60.70155941 -0.08354372 71.95024461 -0.08807125 83.19899873 -0.08628923 C92.34158313 -0.08498219 101.48415145 -0.08878274 110.62673283 -0.09621429 C113.25910161 -0.09831347 115.89147039 -0.10041107 118.52383918 -0.10250711 C119.83399974 -0.10355064 121.14416029 -0.10459417 122.49402269 -0.10566932 C140.23748355 -0.11920481 157.9809375 -0.12679485 175.72440338 -0.12234497 C176.76514842 -0.12208704 176.76514842 -0.12208704 177.82691861 -0.1218239 C181.34348137 -0.12093501 184.86004412 -0.1199902 188.37660686 -0.11902589 C189.07500015 -0.11883485 189.77339344 -0.11864382 190.49295016 -0.118447 C191.90527122 -0.11805991 193.31759228 -0.11766958 194.72991333 -0.11727602 C216.70361759 -0.11130655 238.67721652 -0.12674209 260.65089703 -0.15888214 C285.34219591 -0.19496657 310.03342546 -0.21424698 334.7247526 -0.20934343 C347.79687905 -0.20709783 360.86890108 -0.21235528 373.94100666 -0.23723602 C385.06999433 -0.2582378 396.19882034 -0.2618522 407.32781462 -0.24293643 C413.00603255 -0.23377172 418.68394898 -0.23265846 424.36214352 -0.25329208 C429.56164906 -0.27197727 434.76060563 -0.26752573 439.96009012 -0.24474627 C441.83958956 -0.24055435 443.71913088 -0.24478035 445.59858606 -0.25834221 C457.53609893 -0.33860509 466.43393964 0.28542393 475.70143414 8.63311005 C483.13633888 16.82704753 483.40618722 25.48953264 483.33436871 36.14775848 C483.33898269 37.64229565 483.34533895 39.13682827 483.35327768 40.63135147 C483.36992596 44.72113609 483.3617453 48.8105458 483.34933281 52.9003315 C483.34026612 57.31759006 483.35426006 61.73478509 483.36525249 66.15203094 C483.38302504 74.79866285 483.37920337 83.44515574 483.36760193 92.09179306 C483.35856291 99.12002197 483.35734564 106.14821196 483.3616972 113.17644501 C483.36231013 114.17730786 483.36292306 115.17817071 483.36355457 116.20936275 C483.36483349 118.24269137 483.36613034 120.27601998 483.36744493 122.30934858 C483.37884703 141.36919673 483.36574283 160.42896787 483.34424347 179.48880339 C483.32637283 195.83772541 483.32947704 212.18653382 483.34791851 228.5354538 C483.36933175 247.52779383 483.37774842 266.52006642 483.36546946 285.51241684 C483.36419528 287.53820291 483.3629378 289.56398899 483.3616972 291.58977509 C483.36077154 293.08480501 483.36077154 293.08480501 483.35982719 294.61003757 C483.35637566 301.62860914 483.3621984 308.64713788 483.37161541 315.66570282 C483.3828418 324.22075002 483.37978185 332.77565043 483.35849243 341.33068085 C483.34799066 345.69436469 483.34384528 350.05780395 483.35708904 354.4214859 C483.36903692 358.41868225 483.36241126 362.41540803 483.34117883 366.41256189 C483.33672288 367.85591115 483.33895641 369.29930043 483.34868199 370.74262381 C483.41563721 381.50766595 482.01661368 389.70206118 474.60377789 397.81279755 C468.29744668 403.38454511 461.85014066 405.53554164 453.57643414 405.44561005 C452.49877789 405.43658661 451.42112164 405.42756317 450.31080914 405.4182663 C449.08104351 405.40086395 449.08104351 405.40086395 447.82643414 405.38311005 C448.25955914 406.23969208 448.25955914 406.23969208 448.70143414 407.1135788 C452.55564228 415.53127644 453.21296233 424.06102131 450.88893414 433.07061005 C446.00714948 445.24193739 432.99013839 452.97549346 422.82643414 460.38311005 C421.81194195 461.13463348 420.79744976 461.88615692 419.75221539 462.6604538 C412.82461277 467.67845692 406.72480199 470.95478848 397.95143414 470.82061005 C397.24889507 470.81231171 396.54635601 470.80401337 395.82252789 470.79546356 C386.00769028 470.47684418 379.44002968 466.42177601 372.82643414 459.38311005 C369.8826826 455.83250919 367.12064601 452.16111494 364.37526226 448.4573288 C362.6427514 446.13711879 360.88528218 443.83727403 359.12330914 441.53936005 C358.45621929 440.66875946 357.78912945 439.79815887 357.10182476 438.90117645 C355.81429166 437.22098921 354.5265545 435.54095831 353.23854351 433.86113739 C352.29978374 432.63064667 352.29978374 432.63064667 351.34205914 431.37529755 C350.66390148 430.53648544 349.98574383 429.69767334 349.28703594 428.83344269 C347.32039949 426.25677396 345.93134072 423.62753918 344.52733135 420.70966339 C340.94242407 413.92342284 337.10881586 407.76049931 329.49559307 405.31177521 C320.07578691 403.76170535 310.5586523 404.09557699 301.04735231 404.3864224 C296.86557177 404.49286593 292.68393957 404.48689762 288.5010252 404.49246979 C280.59583918 404.51904175 272.69512889 404.63862038 264.79156315 404.79553312 C253.17570502 405.02232496 241.55858027 405.11711335 229.94092274 405.20071316 C229.08819464 405.20690703 228.23546654 405.21310091 227.35689819 405.21948248 C225.65706042 405.2318176 223.95722089 405.24391269 222.25737965 405.25576061 C217.28512449 405.29370499 212.31445153 405.36207375 207.34296966 405.45726407 C204.25856053 405.51399834 201.17405626 405.55554128 198.0893755 405.59436798 C196.65896408 405.61620761 195.22864069 405.64512192 193.79852772 405.68160057 C191.84798949 405.73075468 189.89683237 405.75319443 187.94578838 405.77423859 C186.30830544 405.80572416 186.30830544 405.80572416 184.63774204 405.8378458 C181.09316769 405.26450245 179.96806571 404.22013577 177.82643414 401.38311005 C177.49643414 400.06311005 177.16643414 398.74311005 176.82643414 397.38311005 C170.22643414 397.38311005 163.62643414 397.38311005 156.82643414 397.38311005 C156.49643414 399.03311005 156.16643414 400.68311005 155.82643414 402.38311005 C154.65954208 404.17138004 154.65954208 404.17138004 152.82643414 405.38311005 C150.00206184 405.76342678 150.00206184 405.76342678 146.49670696 405.7707901 C145.85191452 405.77617564 145.20712208 405.78156118 144.54279047 405.78710991 C142.37794933 405.80143932 140.21371541 405.79427373 138.04884624 405.78716278 C136.49814136 405.79286413 134.94744067 405.79982747 133.39674664 405.80796051 C129.17938497 405.8259425 124.96223082 405.824713 120.74484229 405.81901813 C117.22142363 405.8159306 113.69804509 405.82201453 110.17463213 405.82805687 C101.85548872 405.84211977 93.53644792 405.84052886 85.21730328 405.82915497 C76.64847959 405.81769816 68.07996977 405.83170418 59.51118749 405.85855144 C52.14795195 405.88075389 44.78481457 405.88733483 37.42154795 405.88147503 C33.02701919 405.87811192 28.63269114 405.88047619 24.23819065 405.89772606 C20.09878751 405.91326343 15.95984568 405.90916497 11.82046032 405.89042091 C10.30724262 405.88675235 8.79399026 405.8897926 7.28080463 405.9003067 C-2.92942442 405.96578999 -12.59659954 405.28640726 -20.54856586 398.13311005 C-21.15442524 397.6123288 -21.76028461 397.09154755 -22.38450336 396.55498505 C-28.85263452 388.7028433 -28.74820092 381.29779003 -28.68822956 371.5042038 C-28.69355873 369.98506751 -28.70062655 368.4659365 -28.70927662 366.94681549 C-28.72788167 362.78444219 -28.72160644 358.6224252 -28.71112359 354.46003723 C-28.70412556 349.96642723 -28.72013402 345.47288998 -28.73312092 340.97930145 C-28.75475551 332.18114188 -28.7546355 323.38311167 -28.74649537 314.58493423 C-28.7401942 307.43415071 -28.74133348 300.28340489 -28.74776745 293.13262177 C-28.7486691 292.11468253 -28.74957076 291.0967433 -28.75049974 290.04795742 C-28.75235094 287.97999953 -28.7542135 285.91204165 -28.7560873 283.84408379 C-28.77266367 264.45521835 -28.7639477 245.06642569 -28.74710172 225.67756462 C-28.73240264 207.93926543 -28.7470364 190.20113559 -28.77587188 172.4628582 C-28.80526354 154.24674791 -28.81623897 136.03071579 -28.80668968 117.81458282 C-28.80566713 115.75425467 -28.80467252 113.69392651 -28.80370617 111.63359833 C-28.80322978 110.61989135 -28.80275339 109.60618437 -28.80226256 108.561759 C-28.80009826 101.41998519 -28.80990333 94.2782854 -28.8244772 87.13652802 C-28.84199155 78.43245462 -28.84189593 69.72859719 -28.81912554 61.02453232 C-28.8079756 56.58396903 -28.80483783 52.14378638 -28.82342625 47.70323944 C-28.84022922 43.63689113 -28.83388298 39.57125551 -28.80920946 35.50495338 C-28.80432515 34.03534566 -28.80784479 32.56568047 -28.8206969 31.09612083 C-28.90099843 21.19857487 -27.79225979 15.49989842 -21.18137836 8.1760788 C-20.56005024 7.64627411 -19.93872211 7.11646942 -19.29856586 6.57061005 C-18.68239399 6.02791473 -18.06622211 5.48521942 -17.43137836 4.9260788 C-11.75668208 1.04804241 -6.80112245 -0.05987966 0 0 Z " fill="#010101" transform="translate(28.17356586456299,20.61688995361328)"/>
<path d="M0 0 C1.53512777 1.29575191 3.05616733 2.60838294 4.5625 3.9375 C5.39007813 4.65679687 6.21765625 5.37609375 7.0703125 6.1171875 C9.60271706 8.35530652 12.08878201 10.63479466 14.5625 12.9375 C15.67238281 13.94876953 15.67238281 13.94876953 16.8046875 14.98046875 C21.5595619 19.48998487 25.55862322 24.36378826 29.4375 29.625 C29.90212646 30.25486816 30.36675293 30.88473633 30.84545898 31.53369141 C33.48585164 35.20076922 35.55404029 38.87654239 37.5625 42.9375 C37.00866229 42.93988835 36.45482458 42.94227671 35.88420391 42.94473743 C22.41387137 43.00384958 8.94372051 43.07956474 -4.52641773 43.17321491 C-11.04046716 43.21799952 -17.55445286 43.25723779 -24.06860352 43.28393555 C-30.35160445 43.30988777 -36.63436123 43.35023272 -42.91721153 43.40068626 C-45.31782692 43.41740977 -47.71848459 43.42888975 -50.11915016 43.43511391 C-53.47398281 43.44469535 -56.828183 43.47268347 -60.18286133 43.50512695 C-61.18195526 43.50369186 -62.18104919 43.50225677 -63.2104187 43.5007782 C-64.12327133 43.51331635 -65.03612396 43.52585449 -65.97663879 43.53877258 C-66.77030255 43.54338155 -67.56396631 43.54799051 -68.38168049 43.55273914 C-70.97639472 44.03835788 -71.86394021 44.84704094 -73.4375 46.9375 C-73.94168887 50.32276812 -73.91735298 52.16449952 -72.09832764 55.0947876 C-67.83612982 58.04650257 -63.49174617 57.50741338 -58.42675781 57.48339844 C-57.30451309 57.49373611 -56.18226837 57.50407379 -55.02601624 57.51472473 C-51.31407418 57.54423853 -47.60267536 57.54565378 -43.890625 57.546875 C-41.31800287 57.56185077 -38.74539038 57.57857663 -36.17279053 57.59698486 C-30.09197998 57.6362652 -24.01134123 57.65788474 -17.93042541 57.67095876 C-11.0065472 57.68682989 -4.08285144 57.72524587 2.84092093 57.76555204 C17.08138112 57.84794681 31.32184948 57.9020415 45.5625 57.9375 C46.37128025 59.69780993 47.17801709 61.45905881 47.98388672 63.22070312 C48.43335663 64.20139771 48.88282654 65.18209229 49.34591675 66.19250488 C60.29219549 90.89075849 60.86040776 123.03944964 54.5625 148.9375 C54.28116211 150.09910645 54.28116211 150.09910645 53.99414062 151.28417969 C51.84012258 159.94556291 49.22268118 167.70209234 45.5625 175.9375 C-42.5475 175.9375 -130.6575 175.9375 -221.4375 175.9375 C-230.25969756 156.0875555 -233.6931916 138.33338422 -233.75 116.6875 C-233.75367584 116.01848663 -233.75735168 115.34947327 -233.76113892 114.66018677 C-233.79952235 101.27545291 -232.6226187 88.29457917 -228.5625 75.5 C-228.31886719 74.68080078 -228.07523437 73.86160156 -227.82421875 73.01757812 C-226.61376515 69.08203599 -225.23265804 65.45934041 -223.37667847 61.78086853 C-223.01420958 61.0609822 -222.65174068 60.34109587 -222.27828789 59.5993948 C-222.00082788 59.05096951 -221.72336788 58.50254423 -221.4375 57.9375 C-220.8227393 57.93326806 -220.20797859 57.92903612 -219.57458878 57.92467594 C-204.61854147 57.82138714 -189.66254186 57.71275201 -174.7065773 57.59816074 C-167.47399756 57.5428744 -160.24141288 57.48939996 -153.00878906 57.44018555 C-146.70509865 57.39728747 -140.40144387 57.35099534 -134.0978086 57.30062145 C-130.75985637 57.27406575 -127.42192346 57.24972013 -124.08393097 57.22842598 C-120.35831267 57.20437111 -116.63278834 57.17431771 -112.90722656 57.14282227 C-111.79951904 57.1370668 -110.69181152 57.13131134 -109.55053711 57.12538147 C-108.53533997 57.11559265 -107.52014282 57.10580383 -106.47418213 57.09571838 C-105.59294804 57.08926583 -104.71171394 57.08281328 -103.80377579 57.0761652 C-101.5525153 56.94423997 -99.59765872 56.56574216 -97.4375 55.9375 C-97.0971875 54.08125 -97.0971875 54.08125 -96.75 52.1875 C-96.62238281 51.49140625 -96.49476563 50.7953125 -96.36328125 50.078125 C-96.46514869 47.14005356 -97.44129226 46.05676362 -99.4375 43.9375 C-101.63076593 43.33401378 -101.63076593 43.33401378 -104.12614441 43.41851807 C-105.08948196 43.40460526 -106.05281952 43.39069244 -107.04534912 43.37635803 C-108.62814667 43.38390358 -108.62814667 43.38390358 -110.24291992 43.39160156 C-111.91143761 43.37609505 -111.91143761 43.37609505 -113.61366272 43.36027527 C-117.29857703 43.33072477 -120.98294499 43.32934546 -124.66796875 43.328125 C-127.21959997 43.3131517 -129.77122147 43.29642636 -132.3228302 43.27801514 C-138.35764225 43.23871156 -144.3922678 43.21710915 -150.42717296 43.20404124 C-157.29782553 43.18817891 -164.1682939 43.14976666 -171.0388397 43.10944796 C-185.17166446 43.02701756 -199.3044849 42.97294517 -213.4375 42.9375 C-212.18213893 39.70276153 -210.95642681 37.00387721 -208.86328125 34.23046875 C-208.3640918 33.56523193 -207.86490234 32.89999512 -207.35058594 32.21459961 C-206.82239258 31.52503174 -206.29419922 30.83546387 -205.75 30.125 C-204.93644043 29.05487671 -204.93644043 29.05487671 -204.10644531 27.96313477 C-198.12844608 20.1511797 -192.05918544 13.18579732 -184.4375 6.9375 C-183.94894531 6.53128418 -183.46039063 6.12506836 -182.95703125 5.70654297 C-131.37769595 -36.9900315 -53.98379344 -42.34353798 0 0 Z " fill="#FDD25D" transform="translate(335.4375,91.0625)"/>
<path d="M0 0 C36.3 0 72.6 0 110 0 C107.29887869 4.05168196 104.56444642 8.03142807 101.75 12 C92.74126713 24.98530932 86.61224553 38.29580459 81 53 C79.76958984 53.0093457 78.53917969 53.01869141 77.27148438 53.02832031 C72.67900222 53.06838225 68.08717858 53.13418566 63.49511719 53.20751953 C61.51278178 53.23563547 59.53033621 53.25689638 57.54785156 53.27099609 C54.68758125 53.29255592 51.8286223 53.33927215 48.96875 53.390625 C47.65263733 53.39246796 47.65263733 53.39246796 46.30993652 53.39434814 C39.66360149 53.55031828 34.00128455 55.03694838 29.16015625 59.81640625 C28.79792969 60.39261719 28.43570313 60.96882813 28.0625 61.5625 C27.68222656 62.14128906 27.30195312 62.72007812 26.91015625 63.31640625 C24.88262937 67.06689589 24.85799931 70.27017835 24.82299805 74.45581055 C24.81642685 75.10664108 24.80985565 75.75747162 24.80308533 76.42802429 C24.78338452 78.58092371 24.77169491 80.73375335 24.76171875 82.88671875 C24.75764322 83.62419657 24.7535677 84.36167439 24.74936867 85.12150002 C24.72851825 89.02753035 24.71421402 92.93352569 24.70483398 96.83959961 C24.69379195 100.86001357 24.65941534 104.87987064 24.61966228 108.90008831 C24.59342179 112.00320919 24.58513545 115.1061991 24.58155251 118.20942116 C24.57670303 119.69049641 24.56513603 121.17156646 24.54651451 122.65253258 C24.45219813 130.65294755 24.44810044 137.14446012 29 144 C30.69309814 145.85512814 30.69309814 145.85512814 32.5625 146.9375 C33.14128906 147.31777344 33.72007813 147.69804687 34.31640625 148.08984375 C37.2732873 149.68834325 39.80779772 150.1343218 43.10424805 150.20532227 C43.92487228 150.22526749 44.74549652 150.24521271 45.59098816 150.26576233 C46.47232925 150.28247482 47.35367035 150.29918732 48.26171875 150.31640625 C49.62040825 150.3475779 49.62040825 150.3475779 51.00654602 150.37937927 C53.90012016 150.44476558 56.79378507 150.50370904 59.6875 150.5625 C61.64909793 150.6056956 63.61068668 150.64931023 65.57226562 150.69335938 C70.38141739 150.80043582 75.19066046 150.90173414 80 151 C80.1868486 151.52418015 80.3736972 152.04836029 80.56620789 152.58842468 C85.47426302 166.5078915 85.47426302 166.5078915 91.8125 179.8125 C92.44514771 180.98474121 92.44514771 180.98474121 93.09057617 182.18066406 C113.26541293 218.76416839 147.43225158 245.63752141 187.33984375 257.671875 C188.89191985 258.119152 190.44519702 258.5622962 192 259 C193.76537109 259.50273438 193.76537109 259.50273438 195.56640625 260.015625 C232.65505849 269.48506812 274.59997772 263.79028969 308.25 245.796875 C310 245 310 245 313 245 C314.43530273 246.49023438 314.43530273 246.49023438 315.93359375 248.59375 C316.49506104 249.36920166 317.05652832 250.14465332 317.63500977 250.94360352 C318.22983154 251.78721436 318.82465332 252.6308252 319.4375 253.5 C324.86566851 261.13959765 324.86566851 261.13959765 330.6953125 268.47265625 C338.95511864 278.39608177 338.95511864 278.39608177 339.07421875 282.65234375 C338.25 285 338.25 285 337.08227539 287.12719727 C335.66910636 290.87832742 335.75628502 294.36864742 335.859375 298.3125 C335.86952637 299.05306641 335.87967773 299.79363281 335.89013672 300.55664062 C335.91647814 302.3712721 335.95682755 304.18569093 336 306 C335.28731838 306.00146656 334.57463676 306.00293312 333.84035873 306.00444412 C316.50584746 306.04148244 299.17155026 306.10045742 281.83720016 306.18390274 C273.45445175 306.2237262 265.07179767 306.25610183 256.68896484 306.27099609 C249.38318015 306.28399554 242.07760272 306.31091626 234.77193475 306.35461307 C230.9029464 306.3772666 227.03421406 306.39290837 223.1651535 306.39188385 C219.52394169 306.39113951 215.88329659 306.40899815 212.24223137 306.44116783 C210.26779486 306.4537577 208.29326341 306.44658518 206.31880188 306.43885803 C204.55620277 306.45972725 204.55620277 306.45972725 202.75799561 306.48101807 C201.73664898 306.48470524 200.71530235 306.48839241 199.66300583 306.49219131 C196.27763937 307.13774698 195.11179758 308.32703477 193 311 C192.67 311.99 192.34 312.98 192 314 C188.56294295 314.14505175 185.12666967 314.23398014 181.6875 314.3125 C180.71103516 314.35439453 179.73457031 314.39628906 178.72851562 314.43945312 C176.06356957 314.48524258 173.62199834 314.48435502 171 314 C168.89453125 311.54296875 168.89453125 311.54296875 168 309 C166.1947104 307.1947104 163.43638712 307.8713793 161.00448608 307.86869812 C159.70061951 307.86468994 158.39675293 307.86068176 157.05337524 307.85655212 C155.59466551 307.85702729 154.13595579 307.85756341 152.67724609 307.8581543 C151.15152892 307.85512442 149.62581265 307.85160345 148.10009766 307.84762573 C144.80595167 307.83972131 141.5118166 307.83458595 138.21766281 307.83133507 C133.00686056 307.82543534 127.796127 307.80890352 122.58535767 307.78999329 C120.80259518 307.78365532 119.01983265 307.7773297 117.23707008 307.77101612 C116.34403341 307.76785031 115.45099673 307.7646845 114.53089833 307.76142275 C102.39512297 307.71932885 90.25937862 307.6863851 78.12353516 307.67407227 C69.94463564 307.66568867 61.76590512 307.64318353 53.58709013 307.6047166 C49.25802824 307.58495936 44.92921896 307.57255006 40.6001091 307.57755089 C36.52390978 307.58220177 32.44818854 307.56836822 28.37208557 307.54053879 C26.87858779 307.53363331 25.38504051 307.53349356 23.89154434 307.54073906 C9.37368052 307.60403754 9.37368052 307.60403754 4 303 C-0.5938981 296.80009122 -0.55882002 291.47537153 -0.48101807 283.9209137 C-0.48443577 282.70620122 -0.48785347 281.49148875 -0.49137473 280.23996681 C-0.49681291 276.88056596 -0.48435688 273.52210287 -0.46426249 270.16281569 C-0.44695497 266.53577523 -0.45283651 262.90876265 -0.45587158 259.2816925 C-0.45796687 253.00169102 -0.44543915 246.72185604 -0.42292023 240.44189644 C-0.39038316 231.36220837 -0.37999147 222.28260064 -0.37496826 213.20286059 C-0.36621828 198.47088814 -0.33961077 183.73900438 -0.30175781 169.00708008 C-0.26503003 154.69816532 -0.23672202 140.38927466 -0.21972656 126.08032227 C-0.21815022 124.75685483 -0.21815022 124.75685483 -0.21654204 123.40665067 C-0.21132181 118.98026017 -0.20626699 114.5538695 -0.20129442 110.12747872 C-0.15984162 73.41824036 -0.08610878 36.7091661 0 0 Z " fill="#1583B9" transform="translate(14,104)"/>
<path d="M0 0 C41.25 0 82.5 0 125 0 C125.08817379 37.58950613 125.16203349 75.17891476 125.20426132 112.7684947 C125.20926418 117.20577074 125.21444146 121.64304656 125.21972656 126.08032227 C125.2207758 126.96370807 125.22182505 127.84709386 125.22290608 128.75724893 C125.24031373 143.06297715 125.27185341 157.36864111 125.30861118 171.6743312 C125.34601058 186.35209206 125.36823373 201.02981925 125.37635398 215.70762581 C125.38184383 224.76544146 125.3991862 233.82307548 125.43166587 242.88083523 C125.45280139 249.09115988 125.45920223 255.30139055 125.45400551 261.51174856 C125.45144221 265.09543692 125.45538553 268.67880775 125.4768219 272.26243973 C125.49989872 276.14871525 125.49195261 280.03457711 125.48101807 283.9209137 C125.49266943 285.0522445 125.5043208 286.18357531 125.51632524 287.34918886 C125.46727141 293.7857915 124.87688024 297.78338994 121 303 C113.73811669 308.41258383 102.26569193 307.45374027 93.66210938 306.57177734 C89.63645162 305.70713222 87.94514455 304.07128748 85.5 300.8125 C84.3829181 298.97136407 83.33490682 297.10667086 82.30859375 295.21337891 C79.63093896 290.68434564 76.23278468 286.64052516 73 282.5 C71.61203597 280.68684299 70.22656804 278.87177218 68.84375 277.0546875 C68.18503906 276.19069336 67.52632813 275.32669922 66.84765625 274.43652344 C65.22950191 272.30264655 63.6261182 270.15910756 62.03125 268.0078125 C55.77011799 259.60264969 50.11917455 252.58321757 40 249 C36.61388646 248.80180486 33.34312524 248.74688756 29.9609375 248.91210938 C26.70733112 248.88384445 24.7387496 248.61247357 22.1875 246.49731445 C20.32311959 244.41107069 18.65284877 242.25737161 17 240 C16.42378906 239.24323975 15.84757812 238.48647949 15.25390625 237.70678711 C13.47433655 235.34484431 11.73293618 232.95882581 10 230.5625 C5.43981544 224.28715674 0.79850255 218.09566614 -4 212 C-3.21625 210.96875 -2.4325 209.9375 -1.625 208.875 C-0.4145515 207.25157495 0.79344967 205.6263243 2 204 C2.76183594 202.98164063 3.52367187 201.96328125 4.30859375 200.9140625 C13.37158836 188.64645329 20.32100499 176.23272392 25.77734375 161.96484375 C26.18658081 160.90648315 26.59581787 159.84812256 27.01745605 158.75769043 C28.01600005 156.17343816 29.01006986 153.58756134 30 151 C30.68380737 150.99635437 31.36761475 150.99270874 32.07214355 150.98895264 C39.21054671 150.94703522 46.34831246 150.87762404 53.48632812 150.79248047 C56.14791611 150.76212477 58.8089002 150.74307886 61.47070312 150.72900391 C65.30381643 150.70751785 69.13593602 150.66083437 72.96875 150.609375 C74.74421204 150.60753204 74.74421204 150.60753204 76.55554199 150.60565186 C84.61105196 150.46389782 90.52296875 149.56853207 96.375 143.5625 C99.41917607 138.76206851 100.25359265 134.99900693 100.29052734 129.31713867 C100.29724457 128.66601608 100.30396179 128.01489349 100.31088257 127.34403992 C100.32980351 125.20193749 100.33378389 123.06014944 100.3359375 120.91796875 C100.34237025 119.41970189 100.34909896 117.92143627 100.35610962 116.423172 C100.36806811 113.2852589 100.37179199 110.14745576 100.37060547 107.00952148 C100.37040252 103.0048168 100.3976854 99.00082366 100.43214989 94.99628735 C100.45448015 91.90172643 100.45844113 88.807335 100.45738602 85.7127018 C100.45973351 84.23722193 100.46850871 82.76173678 100.48405075 81.2863369 C100.56014312 73.31589195 100.55145557 66.81977745 96 60 C94.04663332 58.11976279 94.04663332 58.11976279 91.875 57.0625 C91.19179688 56.68222656 90.50859375 56.30195313 89.8046875 55.91015625 C86.42569308 54.20603136 84.37254532 53.85376171 80.54052734 53.79467773 C79.39949554 53.77473251 78.25846375 53.75478729 77.08285522 53.73423767 C75.84637238 53.71752518 74.60988953 53.70081268 73.3359375 53.68359375 C72.07359283 53.66281265 70.81124817 53.64203156 69.51065063 53.62062073 C66.15367955 53.56622074 62.79669811 53.51599764 59.43963623 53.46777344 C56.01438935 53.41754958 52.58923171 53.36186814 49.1640625 53.30664062 C42.44277939 53.19938141 35.72142956 53.0976256 29 53 C28.75092896 52.4086879 28.50185791 51.81737579 28.24523926 51.20814514 C27.09442246 48.48217363 25.93787401 45.75866856 24.78125 43.03515625 C24.1939209 41.64037048 24.1939209 41.64037048 23.59472656 40.21740723 C18.38499769 27.97829623 12.10599164 16.88164024 3.84765625 6.453125 C2 4 2 4 0 0 Z " fill="#1583B8" transform="translate(371,104)"/>
<path d="M0 0 C0.78346576 -0.00551417 1.56693151 -0.01102833 2.37413865 -0.0167096 C5.00353248 -0.03032189 7.63198378 -0.01539858 10.26136017 -0.00063419 C12.16379954 -0.00452644 14.06623601 -0.01016627 15.9686656 -0.01740509 C21.19975455 -0.03218863 26.43054338 -0.02196122 31.66162276 -0.00766838 C37.30178177 0.00342102 42.94189797 -0.00849445 48.58205414 -0.01751041 C59.63242736 -0.03145873 70.68268647 -0.02387492 81.73305428 -0.00883483 C94.59578495 0.00800701 107.45848706 0.00481731 120.32122535 0.00107109 C143.96187641 -0.00498818 167.60245644 0.01080616 191.24309026 0.03625872 C212.8272023 0.05937402 234.41124734 0.06476208 255.99536896 0.05452633 C261.52229306 0.05192435 267.04921717 0.04933934 272.57614136 0.04692841 C273.59676482 0.04648223 273.59676482 0.04648223 274.63800694 0.04602705 C292.67006247 0.0384133 310.70211005 0.0448824 328.73416376 0.05562443 C331.3185517 0.0571503 333.90293963 0.05867066 336.48732758 0.06018543 C337.75896821 0.06094325 339.03060884 0.06170106 340.34078404 0.06248184 C349.31137976 0.06722878 358.28196036 0.06537032 367.25255585 0.06112003 C378.18146889 0.05619834 389.11031258 0.06215557 400.03920972 0.08201433 C405.61761208 0.0919003 411.19590875 0.09697734 416.77431679 0.08912182 C421.8779383 0.08208182 426.98134625 0.08883027 432.08493954 0.10672545 C433.9341104 0.11078087 435.78330062 0.10975184 437.63246435 0.10320658 C440.14114334 0.09508491 442.64909773 0.10533361 445.1577301 0.12025452 C446.24091922 0.11014804 446.24091922 0.11014804 447.34599096 0.09983739 C451.98365931 0.15337832 455.13712797 1.06603576 459.07886505 3.50057125 C462.46966168 7.25794049 464.20711429 9.63933032 464.19239044 14.67488766 C464.19231491 15.53562893 464.19223938 16.3963702 464.19216156 17.28319454 C464.18700027 18.21344448 464.18183899 19.14369442 464.1765213 20.10213375 C464.17439888 21.52953381 464.17439888 21.52953381 464.17223358 22.98577023 C464.16662517 26.03240222 464.15407125 29.07896138 464.14136505 32.12557125 C464.13635113 34.18807019 464.13178804 36.25057028 464.12769318 38.31307125 C464.11665301 43.37559942 464.09938272 48.43807298 464.07886505 53.50057125 C445.85035229 53.6876913 427.62208975 53.82864232 409.39282322 53.91506863 C400.92806144 53.95626985 392.46389739 54.01241195 383.99951935 54.10408688 C376.61944478 54.18397977 369.2398032 54.23547333 361.85930818 54.25327921 C357.95334687 54.2636835 354.0486239 54.28802406 350.14306068 54.34641171 C346.46139525 54.4010025 342.78146946 54.41740789 339.09943771 54.4054327 C337.11496192 54.40865893 335.1306727 54.45156289 333.14669037 54.49593258 C326.70121124 54.43680272 322.84151634 53.97030247 317.92430878 49.60738277 C316.63260328 48.24777455 315.34975885 46.87965303 314.07886505 45.50057125 C292.80344678 28.61051566 264.97791806 16.79747695 238.07886505 13.50057125 C237.10820099 13.37295406 236.13753693 13.24533688 235.1374588 13.1138525 C217.27135282 11.28204137 198.59468074 11.31225405 181.07886505 15.50057125 C180.26143829 15.69393063 179.44401154 15.88729 178.60181427 16.08650875 C153.74436378 22.16142028 130.54011341 33.2649862 111.48511505 50.48104 C109.07886505 52.50057125 109.07886505 52.50057125 107.07886505 52.50057125 C107.07886505 53.16057125 107.07886505 53.82057125 107.07886505 54.50057125 C65.82886505 54.50057125 24.57886505 54.50057125 -17.92113495 54.50057125 C-17.92113495 10.50057125 -17.92113495 10.50057125 -13.92113495 4.50057125 C-9.4158186 0.66774141 -5.75095785 -0.07685595 0 0 Z " fill="#E5E5E5" transform="translate(31.92113494873047,35.49942874908447)"/>
<path d="M0 0 C1.53512777 1.29575191 3.05616733 2.60838294 4.5625 3.9375 C5.39007813 4.65679687 6.21765625 5.37609375 7.0703125 6.1171875 C9.60271706 8.35530652 12.08878201 10.63479466 14.5625 12.9375 C15.67238281 13.94876953 15.67238281 13.94876953 16.8046875 14.98046875 C21.5595619 19.48998487 25.55862322 24.36378826 29.4375 29.625 C30.1344397 30.56980225 30.1344397 30.56980225 30.84545898 31.53369141 C33.48585164 35.20076922 35.55404029 38.87654239 37.5625 42.9375 C37.00866229 42.93988835 36.45482458 42.94227671 35.88420391 42.94473743 C22.41387137 43.00384958 8.94372051 43.07956474 -4.52641773 43.17321491 C-11.04046716 43.21799952 -17.55445286 43.25723779 -24.06860352 43.28393555 C-30.35160445 43.30988777 -36.63436123 43.35023272 -42.91721153 43.40068626 C-45.31782692 43.41740977 -47.71848459 43.42888975 -50.11915016 43.43511391 C-53.47398281 43.44469535 -56.828183 43.47268347 -60.18286133 43.50512695 C-61.18195526 43.50369186 -62.18104919 43.50225677 -63.2104187 43.5007782 C-64.12327133 43.51331635 -65.03612396 43.52585449 -65.97663879 43.53877258 C-66.77030255 43.54338155 -67.56396631 43.54799051 -68.38168049 43.55273914 C-70.97981153 44.03899736 -71.83778153 44.86562407 -73.4375 46.9375 C-73.7675 47.9275 -74.0975 48.9175 -74.4375 49.9375 C-77.85352015 50.11196934 -81.26839637 50.21839623 -84.6875 50.3125 C-85.65558594 50.36277344 -86.62367188 50.41304688 -87.62109375 50.46484375 C-88.55566406 50.48417969 -89.49023438 50.50351563 -90.453125 50.5234375 C-91.31196289 50.5548584 -92.17080078 50.5862793 -93.05566406 50.61865234 C-93.84166992 50.39387207 -94.62767578 50.1690918 -95.4375 49.9375 C-95.92142212 48.94939331 -96.40534424 47.96128662 -96.90393066 46.9432373 C-99.04542864 43.81513447 -99.04542864 43.81513447 -101.61841965 43.37073708 C-104.54471306 43.15613158 -107.42228282 43.13045222 -110.35644531 43.16455078 C-111.46893646 43.15392105 -112.58142761 43.14329132 -113.72763062 43.13233948 C-117.40741817 43.10421866 -121.08577851 43.1183674 -124.765625 43.1328125 C-127.31582903 43.12156652 -129.8660227 43.10768771 -132.41619873 43.09127808 C-138.44403093 43.05885542 -144.47132357 43.05300064 -150.499192 43.06000316 C-157.36263093 43.06649489 -164.22580338 43.03906922 -171.0891633 43.00880075 C-185.20530219 42.94730593 -199.32124276 42.92838414 -213.4375 42.9375 C-212.18213893 39.70276153 -210.95642681 37.00387721 -208.86328125 34.23046875 C-208.3640918 33.56523193 -207.86490234 32.89999512 -207.35058594 32.21459961 C-206.82239258 31.52503174 -206.29419922 30.83546387 -205.75 30.125 C-204.93644043 29.05487671 -204.93644043 29.05487671 -204.10644531 27.96313477 C-198.12844608 20.1511797 -192.05918544 13.18579732 -184.4375 6.9375 C-183.94894531 6.53128418 -183.46039063 6.12506836 -182.95703125 5.70654297 C-131.37769595 -36.9900315 -53.98379344 -42.34353798 0 0 Z " fill="#86B5E0" transform="translate(335.4375,91.0625)"/>
<path d="M0 0 C82.83 0 165.66 0 251 0 C244.8781177 11.01938815 237.54141244 19.80506312 229 29 C228.09894531 29.99966797 228.09894531 29.99966797 227.1796875 31.01953125 C213.28968682 45.78141509 194.60590008 55.56511222 176 63 C174.8553125 63.4640625 173.710625 63.928125 172.53125 64.40625 C137.45878962 77.36094257 97.7335647 74.04880542 63.94311523 58.94921875 C50.32061345 52.52813771 37.97759029 44.28627261 27 34 C26.42266113 33.46503906 25.84532227 32.93007813 25.25048828 32.37890625 C16.61481592 24.30496049 9.57983631 15.79865604 3 6 C2.41605469 5.24976563 1.83210938 4.49953125 1.23046875 3.7265625 C0 2 0 2 0 0 Z " fill="#86B5E1" transform="translate(122,282)"/>
<path d="M0 0 C36.3 0 72.6 0 110 0 C110 0.33 110 0.66 110 1 C80.3 1 50.6 1 20 1 C20.03934441 38.5725517 20.09292212 76.14495902 20.17792095 113.71742937 C20.18793838 118.15341612 20.19778252 122.58940325 20.20751953 127.02539062 C20.2094609 127.90851411 20.21140228 128.7916376 20.21340248 129.70152241 C20.24442177 144.00007065 20.26140293 158.29860285 20.27319422 172.5971784 C20.28560615 187.26934383 20.31310848 201.94142505 20.35461307 216.61353731 C20.37974729 225.66669922 20.39311734 234.71972146 20.39142957 243.77291876 C20.39139981 249.98142747 20.40603083 256.18979392 20.43216428 262.39824718 C20.44680894 265.97999851 20.45501447 269.5614581 20.44580269 273.14323425 C20.43597772 277.02923103 20.45703795 280.91471625 20.48101807 284.80065918 C20.47325765 285.92907714 20.46549723 287.05749511 20.45750165 288.22010756 C20.46894924 289.26712103 20.48039683 290.31413451 20.49219131 291.39287567 C20.4937102 292.28901565 20.49522908 293.18515563 20.49679399 294.10845137 C21.03681949 298.03111374 21.03681949 298.03111374 25 305 C94.3 305.495 94.3 305.495 165 306 C165 306.33 165 306.66 165 307 C145.04183146 307.09347958 125.0837074 307.16399697 105.12536526 307.20724869 C95.85816055 307.22786583 86.59109195 307.25597021 77.32397461 307.30175781 C69.24588032 307.34165155 61.16788462 307.36743898 53.08969456 307.37635398 C48.81309973 307.38156444 44.53678689 307.39379315 40.26028252 307.42292023 C36.23260897 307.45012952 32.2053328 307.45843394 28.17757607 307.45243073 C26.70177931 307.45352851 25.22596887 307.46144979 23.75025177 307.4768219 C9.40054109 307.61892964 9.40054109 307.61892964 4 303 C-0.59442712 296.80063533 -0.55881725 291.47510247 -0.48101807 283.9209137 C-0.48443577 282.70620122 -0.48785347 281.49148875 -0.49137473 280.23996681 C-0.49681291 276.88056596 -0.48435688 273.52210287 -0.46426249 270.16281569 C-0.44695497 266.53577523 -0.45283651 262.90876265 -0.45587158 259.2816925 C-0.45796687 253.00169102 -0.44543915 246.72185604 -0.42292023 240.44189644 C-0.39038316 231.36220837 -0.37999147 222.28260064 -0.37496826 213.20286059 C-0.36621828 198.47088814 -0.33961077 183.73900438 -0.30175781 169.00708008 C-0.26503003 154.69816532 -0.23672202 140.38927466 -0.21972656 126.08032227 C-0.21815022 124.75685483 -0.21815022 124.75685483 -0.21654204 123.40665067 C-0.21132181 118.98026017 -0.20626699 114.5538695 -0.20129442 110.12747872 C-0.15984162 73.41824036 -0.08610878 36.7091661 0 0 Z " fill="#036584" transform="translate(14,104)"/>
<path d="M0 0 C11.55 0 23.1 0 35 0 C34.33625148 3.31874258 33.65726011 6.31596129 32.66015625 9.51171875 C32.40169922 10.35283203 32.14324219 11.19394531 31.87695312 12.06054688 C31.33985098 13.79292671 30.80083106 15.52471328 30.25976562 17.25585938 C25.31162419 33.40177994 24.69572098 46.93140014 30 63 C30.25692627 62.23333008 30.51385254 61.46666016 30.77856445 60.67675781 C31.94893971 57.19855954 33.13058113 53.72429174 34.3125 50.25 C34.71662109 49.0434375 35.12074219 47.836875 35.53710938 46.59375 C36.13168945 44.85351562 36.13168945 44.85351562 36.73828125 43.078125 C37.09962158 42.00981445 37.46096191 40.94150391 37.83325195 39.84082031 C38.96118098 37.09451728 39.93572803 35.12928099 42 33 C47.47087379 32.2184466 47.47087379 32.2184466 50 33 C54.54474319 37.21070017 55.92904172 42.88859066 57.75 48.625 C58.06582031 49.57890625 58.38164062 50.5328125 58.70703125 51.515625 C61 58.56327787 61 58.56327787 61 62 C61.66 62 62.32 62 63 62 C63.26941406 60.70964844 63.53882813 59.41929687 63.81640625 58.08984375 C64.91716 53.14758529 66.34918092 48.36746529 67.9375 43.5625 C68.31551758 42.36077148 68.31551758 42.36077148 68.70117188 41.13476562 C68.95318359 40.36970703 69.20519531 39.60464844 69.46484375 38.81640625 C69.79923462 37.78688843 69.79923462 37.78688843 70.14038086 36.73657227 C71 35 71 35 74 33 C77.82618618 32.58259787 80.13158117 32.50065918 83.5 34.4375 C85.77509126 38.32411424 84.80830338 41.68521458 84 46 C83.16363478 49.01478155 82.10288116 51.91310081 80.98046875 54.83203125 C80.68062576 55.63106369 80.38078278 56.43009613 80.07185364 57.25334167 C79.44069337 58.92663435 78.80428759 60.59795716 78.1628418 62.26733398 C77.18553768 64.81762069 76.23151471 67.37580307 75.27929688 69.93554688 C74.66022764 71.56822978 74.03983083 73.20041005 73.41796875 74.83203125 C73.13551804 75.59248245 72.85306732 76.35293365 72.5620575 77.13642883 C70.97106019 81.22610501 69.52472186 84.18796618 66 87 C64 87.56640625 64 87.56640625 62 87.5625 C61.01 87.59537109 61.01 87.59537109 60 87.62890625 C56.74639106 86.60579875 55.82559638 84.86262154 54 82 C52.58713454 78.64128275 51.44141471 75.21298893 50.3125 71.75 C49.70676084 69.93151263 49.09880823 68.11376054 48.48828125 66.296875 C48.09443237 65.09562988 48.09443237 65.09562988 47.69262695 63.87011719 C47.15316388 62.01399587 47.15316388 62.01399587 46 61 C45.66790527 61.96824707 45.66790527 61.96824707 45.32910156 62.95605469 C44.31467789 65.89165535 43.28256621 68.82073415 42.25 71.75 C41.90195313 72.76578125 41.55390625 73.7815625 41.1953125 74.828125 C40.67324219 76.29765625 40.67324219 76.29765625 40.140625 77.796875 C39.82641602 78.69760742 39.51220703 79.59833984 39.18847656 80.52636719 C37.82701145 83.36004931 36.44650762 85.03119262 34 87 C30.25 87.25 30.25 87.25 27 87 C29.07338662 95.69057796 31.24522966 104.222275 34.265625 112.64453125 C35 115 35 115 35 118 C23.45 118 11.9 118 0 118 C-8.82219756 98.1500555 -12.2556916 80.39588422 -12.3125 58.75 C-12.31617584 58.08098663 -12.31985168 57.41197327 -12.32363892 56.72268677 C-12.36202235 43.33795291 -11.1851187 30.35707917 -7.125 17.5625 C-6.88136719 16.74330078 -6.63773437 15.92410156 -6.38671875 15.08007812 C-4.69976098 9.5952802 -2.65335254 5.30670508 0 0 Z " fill="#FDAA37" transform="translate(114,149)"/>
<path d="M0 0 C6.84242375 4.75994696 11.61137472 12.18259547 16.4375 18.875 C21.12830072 25.31203416 25.89735831 31.67006635 30.8125 37.9375 C36.00997698 44.57147304 41.12716235 51.2607455 46.1875 58 C46.84032959 58.8674585 47.49315918 59.73491699 48.16577148 60.62866211 C48.76719971 61.43182861 49.36862793 62.23499512 49.98828125 63.0625 C50.52235596 63.77535156 51.05643066 64.48820312 51.60668945 65.22265625 C53.83137703 68.34021651 54.08873912 70.44510703 54.1875 74.25 C54.24357422 75.64992188 54.24357422 75.64992188 54.30078125 77.078125 C53.33839991 83.68235658 48.57432193 87.43931695 43.5 91.25 C42.89510742 91.7145459 42.29021484 92.1790918 41.66699219 92.65771484 C21.54460437 108.00116528 21.54460437 108.00116528 14.23828125 108.42578125 C7.3716318 107.18864937 3.30978287 102.73008186 -0.6875 97.4375 C-1.44667725 96.4616394 -1.44667725 96.4616394 -2.22119141 95.46606445 C-6.84151249 89.48413489 -11.30281527 83.38023462 -15.76074219 77.27685547 C-19.89244396 71.62959001 -24.12608836 66.07360371 -28.4375 60.5625 C-36.49231782 50.26130531 -36.49231782 50.26130531 -40.375 45.125 C-41.06078125 44.22007812 -41.7465625 43.31515625 -42.453125 42.3828125 C-45.71860676 37.72873803 -46.62359011 34.78364524 -46.125 29 C-40.13323788 14.95162235 -15.81455642 -5.06065805 0 0 Z " fill="#A29A9A" transform="translate(410.125,368)"/>
<path d="M0 0 C7.08411622 -0.05058526 14.16818612 -0.08568494 21.25244141 -0.10986328 C23.66391744 -0.11993954 26.07538122 -0.13360081 28.48681641 -0.15087891 C31.94697085 -0.1750559 35.4069642 -0.18646669 38.8671875 -0.1953125 C39.95055389 -0.20563507 41.03392029 -0.21595764 42.15011597 -0.22659302 C43.1510025 -0.22674408 44.15188904 -0.22689514 45.18310547 -0.22705078 C46.06690887 -0.231492 46.95071228 -0.23593323 47.86129761 -0.24050903 C50 0 50 0 52 2 C52.26069641 4.57408142 52.26069641 4.57408142 52.2746582 7.87084961 C52.28895622 9.71802834 52.28895622 9.71802834 52.30354309 11.6025238 C52.30328167 12.95246407 52.30234464 14.30240436 52.30078125 15.65234375 C52.30466699 17.03235504 52.30900141 18.41236513 52.31376648 19.79237366 C52.32123415 22.68673578 52.32093364 25.58097594 52.31567383 28.4753418 C52.30988004 32.18570238 52.32680469 35.89556363 52.3500185 39.60584164 C52.36474649 42.45657778 52.36562883 45.30719344 52.36250877 48.15796089 C52.36302252 49.52591503 52.36827027 50.89387582 52.37832069 52.26179314 C52.39064742 54.1744087 52.381964 56.08712491 52.37231445 57.99975586 C52.37294388 59.08848495 52.3735733 60.17721405 52.3742218 61.29893494 C52 64 52 64 50.77914429 65.85372925 C48.44119863 67.3600257 46.93576245 67.36197246 44.16137695 67.34057617 C43.1805867 67.34034958 42.19979645 67.34012299 41.18928528 67.33988953 C40.13295395 67.32440567 39.07662262 67.30892181 37.98828125 67.29296875 C36.90491989 67.28872391 35.82155853 67.28447906 34.70536804 67.28010559 C31.24082723 67.26329569 27.77686538 67.22563848 24.3125 67.1875 C21.96550318 67.17245619 19.61849726 67.15876726 17.27148438 67.14648438 C11.51412495 67.11338461 5.75710383 67.06316205 0 67 C0.14147461 65.97076416 0.28294922 64.94152832 0.42871094 63.88110352 C1.69356721 54.24468521 2.31862778 44.78705507 2.26074219 35.07006836 C2.24998134 32.93379491 2.26074933 30.7983585 2.2734375 28.66210938 C2.2817396 18.97480041 1.41396741 9.5797097 0 0 Z " fill="#FAA937" transform="translate(405,173)"/>
<path d="M0 0 C3.29013983 1.19524611 4.5386532 3.7221203 6 6.7265625 C7.42167872 10.46883853 8.59773728 14.26892898 9.75 18.1015625 C10.06582031 19.12378906 10.38164062 20.14601562 10.70703125 21.19921875 C11.48008878 23.70579923 12.24410243 26.2147646 13 28.7265625 C14.93669042 23.9460146 16.86188753 19.16516919 18.6328125 14.3203125 C18.88160156 13.6396875 19.13039062 12.9590625 19.38671875 12.2578125 C19.88985197 10.87353063 20.38972093 9.48805899 20.88671875 8.1015625 C22.78030015 2.94626235 22.78030015 2.94626235 25 0.7265625 C30.63994911 0.08979405 30.63994911 0.08979405 33 0.7265625 C37.55191186 4.9181879 38.93189276 10.62413456 40.75 16.3515625 C41.06582031 17.30546875 41.38164062 18.259375 41.70703125 19.2421875 C44 26.28984037 44 26.28984037 44 29.7265625 C44.66 29.7265625 45.32 29.7265625 46 29.7265625 C46.26941406 28.43621094 46.53882813 27.14585937 46.81640625 25.81640625 C47.91716 20.87414779 49.34918092 16.09402779 50.9375 11.2890625 C51.18951172 10.48791016 51.44152344 9.68675781 51.70117188 8.86132812 C51.95318359 8.09626953 52.20519531 7.33121094 52.46484375 6.54296875 C52.687771 5.85662354 52.91069824 5.17027832 53.14038086 4.46313477 C54 2.7265625 54 2.7265625 57 0.7265625 C60.82618618 0.30916037 63.13158117 0.22722168 66.5 2.1640625 C68.77205122 6.04548333 67.79015194 9.41596858 67 13.7265625 C66.23915331 16.56774929 65.26977507 19.29911237 64.234375 22.05078125 C63.95909973 22.80067825 63.68382446 23.55057526 63.40020752 24.32319641 C62.82025764 25.89387523 62.23513186 27.46265198 61.64501953 29.02954102 C60.75042694 31.41292503 59.88024632 33.80427845 59.01171875 36.19726562 C58.44155193 37.73230936 57.8699844 39.2668337 57.296875 40.80078125 C57.04145935 41.50716232 56.7860437 42.2135434 56.52288818 42.94132996 C54.70868318 47.6858042 52.50899567 51.03351501 49 54.7265625 C45.89679935 55.85342307 44.39713904 55.31971376 41 54.7265625 C36.32362628 50.3914626 34.77722352 44.28174836 32.75 38.4140625 C32.38648438 37.38732422 32.02296875 36.36058594 31.6484375 35.30273438 C30.75678699 32.78030201 29.87432492 30.25504143 29 27.7265625 C28.66790527 28.74024902 28.66790527 28.74024902 28.32910156 29.77441406 C27.31507728 32.84603185 26.28277419 35.9112008 25.25 38.9765625 C24.72792969 40.57177734 24.72792969 40.57177734 24.1953125 42.19921875 C23.67324219 43.73642578 23.67324219 43.73642578 23.140625 45.3046875 C22.82641602 46.24731445 22.51220703 47.18994141 22.18847656 48.16113281 C20.84615012 51.0586608 19.46959411 52.71357096 17 54.7265625 C13.5625 55.2890625 13.5625 55.2890625 10 54.7265625 C5.14687114 50.85387334 3.33869463 46.55604637 1.23046875 40.91796875 C0.90460281 40.07362778 0.57873688 39.2292868 0.24299622 38.35935974 C-0.43978039 36.58083374 -1.11596256 34.79976361 -1.78588867 33.01635742 C-2.81033276 30.29481999 -3.85949833 27.58379668 -4.91210938 24.87304688 C-5.57441026 23.13859043 -6.23526695 21.40358167 -6.89453125 19.66796875 C-7.20695267 18.86154434 -7.51937408 18.05511993 -7.84126282 17.22425842 C-9.43764777 12.93114692 -10.51739174 9.38133282 -10 4.7265625 C-7.37218165 0.56585012 -4.58625657 0.23289584 0 0 Z " fill="#040301" transform="translate(216,181.2734375)"/>
<path d="M0 0 C3.25880395 1.18386237 4.52611418 3.76213679 6 6.7265625 C7.23257772 9.86708383 8.22507899 13.05682778 9.1875 16.2890625 C9.57711914 17.54493164 9.57711914 17.54493164 9.97460938 18.82617188 C11.18491861 22.77609581 12.23119205 26.66388324 13 30.7265625 C13.25692627 29.95989258 13.51385254 29.19322266 13.77856445 28.40332031 C14.94893971 24.92512204 16.13058113 21.45085424 17.3125 17.9765625 C17.71662109 16.77 18.12074219 15.5634375 18.53710938 14.3203125 C18.93349609 13.16015625 19.32988281 12 19.73828125 10.8046875 C20.09962158 9.73637695 20.46096191 8.66806641 20.83325195 7.56738281 C21.96118098 4.82107978 22.93572803 2.85584349 25 0.7265625 C30.47087379 -0.0549909 30.47087379 -0.0549909 33 0.7265625 C37.54474319 4.93726267 38.92904172 10.61515316 40.75 16.3515625 C41.06582031 17.30546875 41.38164062 18.259375 41.70703125 19.2421875 C44 26.28984037 44 26.28984037 44 29.7265625 C44.66 29.7265625 45.32 29.7265625 46 29.7265625 C46.26941406 28.43621094 46.53882813 27.14585937 46.81640625 25.81640625 C47.91716 20.87414779 49.34918092 16.09402779 50.9375 11.2890625 C51.18951172 10.48791016 51.44152344 9.68675781 51.70117188 8.86132812 C51.95318359 8.09626953 52.20519531 7.33121094 52.46484375 6.54296875 C52.687771 5.85662354 52.91069824 5.17027832 53.14038086 4.46313477 C54 2.7265625 54 2.7265625 57 0.7265625 C60.82618618 0.30916037 63.13158117 0.22722168 66.5 2.1640625 C68.77509126 6.05067674 67.80830338 9.41177708 67 13.7265625 C66.16363478 16.74134405 65.10288116 19.63966331 63.98046875 22.55859375 C63.53070427 23.75714241 63.53070427 23.75714241 63.07185364 24.97990417 C62.44069337 26.65319685 61.80428759 28.32451966 61.1628418 29.99389648 C60.18553768 32.54418319 59.23151471 35.10236557 58.27929688 37.66210938 C57.66022764 39.29479228 57.03983083 40.92697255 56.41796875 42.55859375 C56.13551804 43.31904495 55.85306732 44.07949615 55.5620575 44.86299133 C53.97106019 48.95266751 52.52472186 51.91452868 49 54.7265625 C47 55.29296875 47 55.29296875 45 55.2890625 C44.01 55.32193359 44.01 55.32193359 43 55.35546875 C39.74639106 54.33236125 38.82559638 52.58918404 37 49.7265625 C35.58713454 46.36784525 34.44141471 42.93955143 33.3125 39.4765625 C32.70676084 37.65807513 32.09880823 35.84032304 31.48828125 34.0234375 C31.22571533 33.22260742 30.96314941 32.42177734 30.69262695 31.59667969 C30.15316388 29.74055837 30.15316388 29.74055837 29 28.7265625 C28.77860352 29.37206055 28.55720703 30.01755859 28.32910156 30.68261719 C27.31467789 33.61821785 26.28256621 36.54729665 25.25 39.4765625 C24.90195313 40.49234375 24.55390625 41.508125 24.1953125 42.5546875 C23.84726563 43.534375 23.49921875 44.5140625 23.140625 45.5234375 C22.66931152 46.87453613 22.66931152 46.87453613 22.18847656 48.25292969 C20.83152358 51.07722049 19.41631607 52.741124 17 54.7265625 C13.5625 55.2890625 13.5625 55.2890625 10 54.7265625 C5.46214083 51.03188216 3.65524387 47.31242286 1.73828125 41.9765625 C1.46155075 41.24083008 1.18482025 40.50509766 0.89970398 39.74707031 C0.02442439 37.41146372 -0.8318454 35.06942054 -1.6875 32.7265625 C-2.27282246 31.15317425 -2.85939952 29.58025213 -3.44726562 28.0078125 C-4.52569022 25.12001684 -5.59603527 22.22947966 -6.65893555 19.3359375 C-7.45673225 17.18872714 -8.27981587 15.0502275 -9.15551758 12.93359375 C-10.28224749 9.98891656 -10.39898868 7.85197379 -10 4.7265625 C-7.37218165 0.56585012 -4.58625657 0.23289584 0 0 Z " fill="#040301" transform="translate(131,181.2734375)"/>
<path d="M0 0 C3.16250719 2.28087899 3.91720946 5.1260699 5.04296875 8.76171875 C5.39423828 9.87998047 5.74550781 10.99824219 6.10742188 12.15039062 C6.64206055 13.90125977 6.64206055 13.90125977 7.1875 15.6875 C7.55552734 16.86634766 7.92355469 18.04519531 8.30273438 19.25976562 C9.21018953 22.1706932 10.10889587 25.08403358 11 28 C13.8600694 25.1399306 14.34689102 21.67852055 15.375 17.875 C19.38067851 3.61932149 19.38067851 3.61932149 23 0 C28.73211781 -0.56381487 28.73211781 -0.56381487 31 0 C35.54614693 4.17021555 36.89297778 9.85052406 38.6875 15.5625 C38.99494141 16.50802734 39.30238281 17.45355469 39.61914062 18.42773438 C40.85812721 22.26398388 42.06079368 26.07809528 43 30 C43.22139648 29.23333008 43.44279297 28.46666016 43.67089844 27.67675781 C44.68390427 24.19711967 45.71669557 20.72366172 46.75 17.25 C47.27207031 15.44015625 47.27207031 15.44015625 47.8046875 13.59375 C48.32675781 11.85351562 48.32675781 11.85351562 48.859375 10.078125 C49.17358398 9.00981445 49.48779297 7.94150391 49.81152344 6.84082031 C51.11502888 3.72504602 52.36164902 2.08967283 55 0 C58.94016013 -0.56288002 61.05782196 -0.60396028 64.4375 1.5625 C66.60859122 4.94940231 66.30093864 6.99206722 66 11 C65.16963331 14.11270046 64.0350701 17.07721683 62.859375 20.07421875 C62.37419403 21.34360039 62.37419403 21.34360039 61.87921143 22.6386261 C61.19554759 24.41827762 60.50604261 26.19569505 59.81103516 27.97094727 C58.75159742 30.68341014 57.71647457 33.40428321 56.68359375 36.12695312 C56.01445613 37.85992988 55.34392997 39.59237127 54.671875 41.32421875 C54.36441345 42.13469162 54.0569519 42.94516449 53.74017334 43.78019714 C52.08149065 47.97052851 50.63951254 51.13301665 47 54 C45 54.56640625 45 54.56640625 43 54.5625 C42.01 54.59537109 42.01 54.59537109 41 54.62890625 C37.7488242 53.60656386 36.82544325 51.85878095 35 49 C33.58604532 45.66256068 32.4405305 42.2555735 31.3125 38.8125 C30.70531246 37.00621255 30.0972809 35.20020854 29.48828125 33.39453125 C29.22571533 32.59893799 28.96314941 31.80334473 28.69262695 30.98364258 C28.03375194 28.96136539 28.03375194 28.96136539 27 27 C26.66790527 28.01368652 26.66790527 28.01368652 26.32910156 29.04785156 C25.31507728 32.11946935 24.28277419 35.1846383 23.25 38.25 C22.72792969 39.84521484 22.72792969 39.84521484 22.1953125 41.47265625 C21.67324219 43.00986328 21.67324219 43.00986328 21.140625 44.578125 C20.82641602 45.52075195 20.51220703 46.46337891 20.18847656 47.43457031 C18.84615012 50.3320983 17.46959411 51.98700846 15 54 C11.5625 54.5625 11.5625 54.5625 8 54 C3.14687114 50.12731084 1.33869463 45.82948387 -0.76953125 40.19140625 C-1.09539719 39.34706528 -1.42126312 38.5027243 -1.75700378 37.63279724 C-2.43978039 35.85427124 -3.11596256 34.07320111 -3.78588867 32.28979492 C-4.81033276 29.56825749 -5.85949833 26.85723418 -6.91210938 24.14648438 C-7.57441026 22.41202793 -8.23526695 20.67701917 -8.89453125 18.94140625 C-9.20695267 18.13498184 -9.51937408 17.32855743 -9.84126282 16.49769592 C-11.43764777 12.20458442 -12.51739174 8.65477032 -12 4 C-8.87063045 -0.95483512 -5.3663324 -0.59625916 0 0 Z " fill="#040301" transform="translate(304,181)"/>
<path d="M0 0 C82.83 0 165.66 0 251 0 C251 0.33 251 0.66 251 1 C180.38 1.33 109.76 1.66 37 2 C53.55422644 28.90061796 72.89797087 48.50368268 101 63 C101.64549805 63.34611328 102.29099609 63.69222656 102.95605469 64.04882812 C113.90874235 69.85281646 123.67155501 71.09380339 136 71 C136 71.33 136 71.66 136 72 C95.57082873 73.13076426 56.99813795 62.10899449 27 34 C26.42266113 33.46503906 25.84532227 32.93007813 25.25048828 32.37890625 C16.61481592 24.30496049 9.57983631 15.79865604 3 6 C2.41605469 5.24976563 1.83210938 4.49953125 1.23046875 3.7265625 C0 2 0 2 0 0 Z " fill="#6B8EC7" transform="translate(122,282)"/>
<path d="M0 0 C0 0.33 0 0.66 0 1 C-1.70929688 0.95166016 -1.70929688 0.95166016 -3.453125 0.90234375 C-27.33762925 0.83857011 -48.50820991 14.63338067 -66 30 C-67.24136719 31.05960938 -67.24136719 31.05960938 -68.5078125 32.140625 C-81.06722383 43.08581731 -92.49164576 55.98329153 -100 71 C-74.92 71 -49.84 71 -24 71 C-24 71.33 -24 71.66 -24 72 C-60.96 72 -97.92 72 -136 72 C-134.53939183 68.34847958 -133.65931388 66.25238943 -131.42578125 63.29296875 C-130.9265918 62.62773193 -130.42740234 61.96249512 -129.91308594 61.27709961 C-129.38489258 60.58753174 -128.85669922 59.89796387 -128.3125 59.1875 C-127.49894043 58.11737671 -127.49894043 58.11737671 -126.66894531 57.02563477 C-120.69094608 49.2136797 -114.62168544 42.24829732 -107 36 C-106.51144531 35.59378418 -106.02289063 35.18756836 -105.51953125 34.76904297 C-74.80769 9.34625671 -39.6956361 -1.29496429 0 0 Z " fill="#6A8DC8" transform="translate(258,62)"/>
<path d="M0 0 C1.47057839 0.00031709 2.94118001 0.01164091 4.41162109 0.03173828 C5.18565277 0.03456818 5.95968445 0.03739807 6.75717163 0.04031372 C9.23329016 0.05152325 11.70904909 0.07662875 14.18505859 0.10205078 C15.86213671 0.1120796 17.53922049 0.12120562 19.21630859 0.12939453 C23.33103082 0.15146504 27.44548371 0.18599977 31.56005859 0.22705078 C31.46917969 0.79810547 31.37830078 1.36916016 31.28466797 1.95751953 C28.38435768 20.66823922 26.68522479 39.66024958 30.12255859 58.42236328 C30.58709771 61.4003908 30.58919005 64.21766697 30.56005859 67.22705078 C25.91531878 67.30121145 21.2709236 67.35565693 16.62573242 67.3918457 C15.04559323 67.40693173 13.4654959 67.42740328 11.88549805 67.45336914 C9.61415274 67.48976204 7.34336101 67.5067784 5.07177734 67.52001953 C4.01225105 67.54324532 4.01225105 67.54324532 2.93132019 67.56694031 C-1.93715436 67.56861061 -1.93715436 67.56861061 -4.12728882 66.08078003 C-6.00509827 63.42893572 -5.81412412 61.45838092 -5.81225586 58.22680664 C-5.81848465 56.992202 -5.82471344 55.75759735 -5.83113098 54.48558044 C-5.82244383 53.13768103 -5.81312595 51.78978556 -5.80322266 50.44189453 C-5.80270402 49.06091818 -5.80322185 47.67994108 -5.80473328 46.29896545 C-5.80464359 43.40631067 -5.79422093 40.51393481 -5.77612305 37.62133789 C-5.75341448 33.90986165 -5.75289589 30.19879221 -5.75964069 26.48726559 C-5.76297844 23.63656485 -5.75635467 20.78595722 -5.74651146 17.93527412 C-5.74265738 16.56650848 -5.7415121 15.19773248 -5.74309731 13.82896233 C-5.74346726 11.91858477 -5.72938637 10.00822076 -5.71459961 8.09790039 C-5.70768852 6.46600014 -5.70768852 6.46600014 -5.70063782 4.8011322 C-5.2792048 0.6399591 -4.06895291 0.26856822 0 0 Z " fill="#FAA836" transform="translate(58.43994140625,172.77294921875)"/>
<path d="M0 0 C0.78526333 -0.00461538 1.57052667 -0.00923075 2.37958586 -0.01398599 C5.01505706 -0.02458708 7.64955382 -0.0066192 10.28497505 0.01117325 C12.19168868 0.00942912 14.09840138 0.00592711 16.00510895 0.00081658 C21.24780092 -0.00813823 26.49016676 0.00788733 31.73281717 0.02792883 C37.38511622 0.04518207 43.03739647 0.03935863 48.68971443 0.03631973 C58.48378936 0.03422103 68.27775781 0.04678468 78.07180595 0.06927109 C92.2323865 0.10176159 106.39291549 0.11219509 120.55352928 0.11722305 C143.52744979 0.12598033 166.50130313 0.15257333 189.47519112 0.1904335 C211.79387301 0.22717146 234.11253973 0.2555058 256.4312458 0.27246475 C257.11921642 0.27299086 257.80718704 0.27351696 258.51600525 0.27405901 C265.42489479 0.27933309 272.33378444 0.28443635 279.24267419 0.28941445 C337.18252303 0.33117814 395.12231267 0.40176268 453.06210518 0.49219131 C453.06210518 0.82219131 453.06210518 1.15219131 453.06210518 1.49219131 C305.55210518 1.49219131 158.04210518 1.49219131 6.06210518 1.49219131 C1.06669444 18.14356044 2.47590552 36.11257706 2.06210518 53.49219131 C36.71210518 53.49219131 71.36210518 53.49219131 107.06210518 53.49219131 C107.06210518 53.82219131 107.06210518 54.15219131 107.06210518 54.49219131 C65.81210518 54.49219131 24.56210518 54.49219131 -17.93789482 54.49219131 C-17.93789482 10.49219131 -17.93789482 10.49219131 -13.93789482 4.49219131 C-9.42711052 0.65239216 -5.75820585 -0.08359229 0 0 Z " fill="#BDBBC5" transform="translate(31.937894821166992,35.507808685302734)"/>
<path d="M0 0 C0.05414063 0.64582031 0.10828125 1.29164063 0.1640625 1.95703125 C2.05618055 13.67854223 9.84813884 21.93297361 17 31 C18.24124404 32.59897263 19.48085942 34.19921103 20.71875 35.80078125 C23.07972497 38.85074555 25.44988355 41.89317082 27.828125 44.9296875 C30.44632173 48.27893916 33.01924026 51.65601706 35.5625 55.0625 C36.2534375 55.98289062 36.944375 56.90328125 37.65625 57.8515625 C38.94882731 59.58792469 40.23794582 61.32694494 41.51171875 63.07714844 C43.1832582 65.37303368 44.87220702 67.65539832 46.5625 69.9375 C47.33992554 71.02140015 47.33992554 71.02140015 48.13305664 72.12719727 C52.78964507 78.3654062 58.10769039 81.60214013 65 85 C59.86850848 88.42099435 56.17675029 90.056787 50 89 C44.40381255 86.33361907 41.14051692 83.34046053 37.4375 78.4375 C36.67832275 77.4616394 36.67832275 77.4616394 35.90380859 76.46606445 C31.28348751 70.48413489 26.82218473 64.38023462 22.36425781 58.27685547 C18.23255604 52.62959001 13.99891164 47.07360371 9.6875 41.5625 C1.63268218 31.26130531 1.63268218 31.26130531 -2.25 26.125 C-2.93578125 25.22007812 -3.6215625 24.31515625 -4.328125 23.3828125 C-7.59360676 18.72873803 -8.49859011 15.78364524 -8 10 C-6.80453767 6.95157106 -4.03072513 0 0 0 Z " fill="#7F7474" transform="translate(372,387)"/>
<path d="M0 0 C3.1424763 1.35370156 4.84816723 2.71934656 6.8828125 5.45703125 C7.40593018 6.15175537 7.92904785 6.84647949 8.46801758 7.56225586 C9.01482178 8.30483643 9.56162598 9.04741699 10.125 9.8125 C11.27694292 11.35186253 12.42929154 12.89092155 13.58203125 14.4296875 C14.43982178 15.58162598 14.43982178 15.58162598 15.31494141 16.75683594 C16.87874333 18.83858211 18.46722873 20.89680709 20.07421875 22.9453125 C20.53876465 23.53852295 21.00331055 24.1317334 21.48193359 24.74291992 C22.74315071 26.34917827 24.00628555 27.9539303 25.26953125 29.55859375 C27 32 27 32 27 34 C25.32210126 35.35759933 23.58056912 36.63711805 21.8125 37.875 C18.88066309 39.93945276 16.06978785 41.9380359 13.38671875 44.3203125 C11 46 11 46 9.07861328 45.87841797 C6.25627375 44.68570272 5.17304086 43.08103456 3.35546875 40.625 C2.67806641 39.72136719 2.00066406 38.81773437 1.30273438 37.88671875 C0.60470703 36.93410156 -0.09332031 35.98148437 -0.8125 35 C-2.19361804 33.14554104 -3.57512532 31.29137191 -4.95703125 29.4375 C-5.62686035 28.53257812 -6.29668945 27.62765625 -6.98681641 26.6953125 C-9.93282073 22.75111074 -12.95801283 18.87042546 -16 15 C-14.2160506 11.04145912 -12.15524177 9.41377222 -8.5625 6.9375 C-4.01115999 3.78533403 -4.01115999 3.78533403 0 0 Z " fill="#E2E2E2" transform="translate(355,327)"/>
<path d="M0 0 C1.91015625 2.16796875 1.91015625 2.16796875 4.0625 5.1875 C4.85965104 6.28980523 5.65786729 7.39134075 6.45703125 8.4921875 C6.87162598 9.06807617 7.2862207 9.64396484 7.71337891 10.23730469 C9.83310509 13.14136978 12.04428253 15.97355625 14.25 18.8125 C17.59796526 23.14290202 20.86780901 27.51052625 24 32 C21.75 34.5625 21.75 34.5625 19 37 C16.13761304 36.89072389 15.16849692 36.17655735 13.18823242 34.1015625 C12.58342041 33.28429687 11.9786084 32.46703125 11.35546875 31.625 C10.67806641 30.72136719 10.00066406 29.81773437 9.30273438 28.88671875 C8.60470703 27.93410156 7.90667969 26.98148437 7.1875 26 C5.80638196 24.14554104 4.42487468 22.29137191 3.04296875 20.4375 C2.37313965 19.53257812 1.70331055 18.62765625 1.01318359 17.6953125 C-1.93282073 13.75111074 -4.95801283 9.87042546 -8 6 C-6.24081631 1.94034532 -4.71412298 0 0 0 Z " fill="#C1BFCD" transform="translate(347,336)"/>
<path d="M0 0 C2.4375 1.625 2.4375 1.625 4 4 C4.5625 6.9375 4.5625 6.9375 4 10 C1.9375 12.9375 1.9375 12.9375 -1 15 C-4.85210127 15.06641554 -6.99848005 14.87229157 -9.9375 12.3125 C-11.33817538 9.26397123 -11.4842732 7.32073048 -11 4 C-8.05899778 -0.47032338 -5.13105401 -0.73300772 0 0 Z " fill="#070707" transform="translate(113,58)"/>
<path d="M0 0 C2 1.0625 2 1.0625 3 3 C3.3898913 6.57400356 3.37020241 9.09763163 2 12.4375 C-0.59930436 14.46820653 -2.81330726 14.5621101 -6.05859375 14.3828125 C-8 14 -8 14 -10.5 12.375 C-12.45562482 9.27859404 -12.60024477 7.60146865 -12 4 C-8.87063045 -0.95483512 -5.3663324 -0.59625916 0 0 Z " fill="#060606" transform="translate(82,58)"/>
<path d="M0 0 C1.91015625 0.44921875 1.91015625 0.44921875 4.47265625 2.57421875 C6.25212063 6.13314751 6.13291975 7.69941069 4.91015625 11.44921875 C3.84765625 13.32421875 3.84765625 13.32421875 1.91015625 14.44921875 C-1.18272933 14.84196613 -3.13673547 15.0849986 -6.08984375 14.44921875 C-8.85370557 12.03083965 -9.88819952 10.48264541 -10.58984375 6.88671875 C-9.38319042 1.00428374 -5.473377 -0.29668773 0 0 Z " fill="#070707" transform="translate(48.08984375,57.55078125)"/>
</svg>
