<?xml version="1.0" encoding="UTF-8"?>
<svg version="1.1" xmlns="http://www.w3.org/2000/svg" width="512" height="512">
<path d="M0 0 C1.59799438 0.00845947 1.59799438 0.00845947 3.22827148 0.01708984 C4.31615967 0.02272949 5.40404785 0.02836914 6.52490234 0.03417969 C25.2797341 0.31437169 42.24618831 4.29482808 56.51733398 16.76708984 C58.98867765 18.66195431 58.98867765 18.66195431 61.69702148 17.78271484 C64.03253417 16.37230783 65.94462492 14.89272052 67.97827148 13.07958984 C81.77504185 2.13339187 99.95604375 0.10533364 116.97827148 0.01708984 C118.04360107 0.0114502 119.10893066 0.00581055 120.20654297 0 C127.84671038 0.07302874 127.84671038 0.07302874 130.10327148 2.32958984 C130.29858398 5.58740234 130.29858398 5.58740234 130.22827148 9.45458984 C130.21022461 10.73591797 130.19217773 12.01724609 130.17358398 13.33740234 C130.1387793 14.81853516 130.1387793 14.81853516 130.10327148 16.32958984 C130.75924316 16.31911621 131.41521484 16.30864258 132.09106445 16.29785156 C135.05342806 16.25636482 138.01573064 16.23028722 140.97827148 16.20458984 C142.01081055 16.18783203 143.04334961 16.17107422 144.10717773 16.15380859 C145.09331055 16.14736328 146.07944336 16.14091797 147.09545898 16.13427734 C148.46226807 16.11856689 148.46226807 16.11856689 149.85668945 16.10253906 C152.10327148 16.32958984 152.10327148 16.32958984 154.10327148 18.32958984 C154.29858398 21.58740234 154.29858398 21.58740234 154.22827148 25.45458984 C154.21022461 26.73591797 154.19217773 28.01724609 154.17358398 29.33740234 C154.15038086 30.32482422 154.12717773 31.31224609 154.10327148 32.32958984 C155.087229 32.31387939 155.087229 32.31387939 156.09106445 32.29785156 C159.05342806 32.25636482 162.01573064 32.23028722 164.97827148 32.20458984 C166.01081055 32.18783203 167.04334961 32.17107422 168.10717773 32.15380859 C169.09331055 32.14736328 170.07944336 32.14091797 171.09545898 32.13427734 C172.46226807 32.11856689 172.46226807 32.11856689 173.85668945 32.10253906 C176.10327148 32.32958984 176.10327148 32.32958984 178.10327148 34.32958984 C178.34378052 36.31643677 178.34378052 36.31643677 178.33032227 38.77929688 C178.3301712 39.7001004 178.33002014 40.62090393 178.3298645 41.5696106 C178.31954193 42.56548187 178.30921936 43.56135315 178.29858398 44.58740234 C178.29433914 46.1146846 178.29433914 46.1146846 178.29000854 47.67282104 C178.27878919 50.93352885 178.25368144 54.19396468 178.22827148 57.45458984 C178.21824395 59.66161713 178.20911771 61.86864872 178.20092773 64.07568359 C178.17884416 69.49374556 178.14534943 74.91164828 178.10327148 80.32958984 C179.98647095 80.29816895 179.98647095 80.29816895 181.90771484 80.26611328 C186.59851522 80.19330889 191.28926638 80.14764376 195.98046875 80.10986328 C198.00464294 80.08983954 200.02875996 80.06261217 202.05273438 80.02783203 C204.97467213 79.97890522 207.89584029 79.95652834 210.81811523 79.93896484 C211.71223618 79.9183197 212.60635712 79.89767456 213.52757263 79.87640381 C222.57897255 79.87322477 229.64998797 83.06980346 236.25463867 89.21484375 C239.73302542 93.19394914 241.93158459 97.79026823 244.22827148 102.51708984 C244.74035156 103.53633545 245.25243164 104.55558105 245.7800293 105.60571289 C246.78425507 107.6085712 247.78129617 109.61505199 248.77026367 111.62548828 C249.8943345 113.90574625 251.03874332 116.172215 252.20483398 118.43115234 C256.10327148 126.02479127 256.10327148 126.02479127 256.10327148 128.32958984 C257.13097656 128.29816895 258.15868164 128.26674805 259.2175293 128.234375 C263.08634196 128.12451813 266.9550217 128.05644588 270.82495117 128 C272.48925065 127.97010818 274.15339652 127.92937782 275.81713867 127.87695312 C287.35232118 127.52298543 296.765913 128.08532888 306.01245117 135.9543457 C313.94774166 144.37310923 314.6964621 153.62214301 314.47827148 164.76708984 C314.47633789 166.68424805 314.47633789 166.68424805 314.47436523 168.64013672 C314.38462181 178.04823952 314.38462181 178.04823952 312.10327148 180.32958984 C307.48327148 180.32958984 302.86327148 180.32958984 298.10327148 180.32958984 C298.10327148 276.68958984 298.10327148 373.04958984 298.10327148 472.32958984 C302.72327148 472.32958984 307.34327148 472.32958984 312.10327148 472.32958984 C315.00768807 475.23400643 314.36194884 477.39716829 314.36889648 481.45458984 C314.37080994 482.15729004 314.37272339 482.85999023 314.37469482 483.58398438 C314.37605624 485.07015338 314.37236281 486.55633429 314.36401367 488.04248047 C314.35331302 490.3207463 314.36390988 492.59822361 314.37670898 494.87646484 C314.37538738 496.31917492 314.37282497 497.76188451 314.36889648 499.20458984 C314.36664063 500.52201172 314.36438477 501.83943359 314.36206055 503.19677734 C314.10327148 506.32958984 314.10327148 506.32958984 312.10327148 508.32958984 C309.3660745 508.52690393 306.73004019 508.59724475 303.99160767 508.58127213 C303.13895883 508.58417901 302.28631 508.58708589 301.40782332 508.59008086 C298.51928961 508.59744342 295.63096419 508.59040858 292.74243164 508.58355713 C290.66323042 508.58585909 288.58403001 508.58903383 286.50483131 508.59301162 C280.76679614 508.60140461 275.02882701 508.59721403 269.29079151 508.59103918 C263.11213025 508.58653401 256.93348074 508.59348879 250.75482178 508.59899902 C239.34219466 508.60739942 227.92959465 508.60664176 216.51696819 508.60117609 C205.97519739 508.59615204 195.43343435 508.59482827 184.8916626 508.59722137 C184.19337155 508.59737414 183.4950805 508.59752691 182.77562912 508.59768431 C179.94129278 508.59830696 177.10695645 508.59894375 174.27262012 508.59960384 C147.66497457 508.60572676 121.05734254 508.60016713 94.44969907 508.58941005 C70.79189826 508.57991829 47.13411898 508.58076753 23.47631836 508.59033203 C-3.08155205 508.60103301 -29.63941052 508.60529259 -56.19728279 508.5991075 C-59.02656173 508.59846603 -61.85584068 508.59784036 -64.68511963 508.59722137 C-65.73013962 508.59698414 -65.73013962 508.59698414 -66.79627113 508.59674212 C-77.33340196 508.59446374 -87.87052417 508.59713409 -98.40765381 508.60218048 C-110.38455366 508.60788767 -122.36142807 508.6063002 -134.33832693 508.59561899 C-140.45490813 508.5903448 -146.57144551 508.58833509 -152.68802643 508.5949173 C-158.27882648 508.60084293 -163.86954179 508.59765814 -169.46033406 508.58696219 C-171.49125117 508.58471369 -173.52217532 508.58589655 -175.55308795 508.59071377 C-178.29718443 508.59672722 -181.04098417 508.59062734 -183.7850647 508.58127213 C-184.98921127 508.58829562 -184.98921127 508.58829562 -186.21768403 508.59546101 C-191.66842778 508.55789058 -191.66842778 508.55789058 -193.89672852 506.32958984 C-194.15551758 503.19677734 -194.15551758 503.19677734 -194.16235352 499.20458984 C-194.16426697 498.50188965 -194.16618042 497.79918945 -194.16815186 497.07519531 C-194.16951327 495.58902631 -194.16581984 494.1028454 -194.1574707 492.61669922 C-194.14677005 490.33843339 -194.15736691 488.06095607 -194.17016602 485.78271484 C-194.16884441 484.34000477 -194.166282 482.89729518 -194.16235352 481.45458984 C-194.16009766 480.13716797 -194.1578418 478.81974609 -194.15551758 477.46240234 C-193.89672852 474.32958984 -193.89672852 474.32958984 -191.89672852 472.32958984 C-187.27672852 472.32958984 -182.65672852 472.32958984 -177.89672852 472.32958984 C-177.89672852 375.96958984 -177.89672852 279.60958984 -177.89672852 180.32958984 C-182.51672852 180.32958984 -187.13672852 180.32958984 -191.89672852 180.32958984 C-195.6846782 176.54164016 -194.35505665 170.06460235 -194.39672852 164.95458984 C-194.43797852 163.72869141 -194.47922852 162.50279297 -194.52172852 161.23974609 C-194.60290906 151.67058996 -192.54784329 143.84269538 -186.27246094 136.40429688 C-184.56686256 134.81339166 -182.87160626 133.56667525 -180.89672852 132.32958984 C-180.34355957 131.96317383 -179.79039062 131.59675781 -179.22045898 131.21923828 C-171.19302881 126.85268049 -162.18589293 127.89652938 -153.33422852 128.07958984 C-151.64089026 128.09968497 -149.94752898 128.11793041 -148.25415039 128.13427734 C-144.1344348 128.17803647 -140.015839 128.24689594 -135.89672852 128.32958984 C-135.62812012 127.47147705 -135.35951172 126.61336426 -135.08276367 125.72924805 C-133.22943199 120.41684714 -130.69693373 115.44231738 -128.20385742 110.40844727 C-127.28234952 108.53864064 -126.38059432 106.66011787 -125.47875977 104.78076172 C-120.34672348 94.28647736 -114.97699369 85.83681636 -103.89672852 81.32958984 C-101.11610877 80.4027166 -99.47620993 80.20765588 -96.60888672 80.21606445 C-95.74822098 80.21613998 -94.88755524 80.21621552 -94.00080872 80.21629333 C-93.07572006 80.22145462 -92.15063141 80.22661591 -91.19750977 80.23193359 C-90.24732468 80.23334854 -89.29713959 80.23476349 -88.31816101 80.23622131 C-85.28181822 80.24182109 -82.24554904 80.25437353 -79.20922852 80.26708984 C-77.15128687 80.27210487 -75.09334407 80.27666777 -73.03540039 80.28076172 C-67.98914805 80.29179045 -62.94295076 80.30905491 -57.89672852 80.32958984 C-57.90116974 79.75773956 -57.90561096 79.18588928 -57.91018677 78.59671021 C-57.95433803 72.65987642 -57.98456064 66.72308906 -58.0065918 60.78613281 C-58.01666676 58.56866564 -58.03032711 56.35121179 -58.04760742 54.13378906 C-58.07179015 50.95162673 -58.08319648 47.7696396 -58.09204102 44.58740234 C-58.10236359 43.59153107 -58.11268616 42.59565979 -58.12332153 41.5696106 C-58.1234726 40.64880707 -58.12362366 39.72800354 -58.1237793 38.77929688 C-58.12822052 37.96655304 -58.13266174 37.1538092 -58.13723755 36.31643677 C-57.89672852 34.32958984 -57.89672852 34.32958984 -55.89672852 32.32958984 C-53.65014648 32.10253906 -53.65014648 32.10253906 -50.88891602 32.13427734 C-49.9027832 32.14072266 -48.91665039 32.14716797 -47.90063477 32.15380859 C-46.35182617 32.17894531 -46.35182617 32.17894531 -44.77172852 32.20458984 C-43.73145508 32.21361328 -42.69118164 32.22263672 -41.61938477 32.23193359 C-39.04493759 32.25555238 -36.47094639 32.28848835 -33.89672852 32.32958984 C-33.91993164 31.34216797 -33.94313477 30.35474609 -33.96704102 29.33740234 C-33.98508789 28.05607422 -34.00313477 26.77474609 -34.02172852 25.45458984 C-34.04493164 24.17841797 -34.06813477 22.90224609 -34.09204102 21.58740234 C-33.89672852 18.32958984 -33.89672852 18.32958984 -31.89672852 16.32958984 C-29.65014648 16.10253906 -29.65014648 16.10253906 -26.88891602 16.13427734 C-25.9027832 16.14072266 -24.91665039 16.14716797 -23.90063477 16.15380859 C-22.35182617 16.17894531 -22.35182617 16.17894531 -20.77172852 16.20458984 C-19.73145508 16.21361328 -18.69118164 16.22263672 -17.61938477 16.23193359 C-15.04493759 16.25555238 -12.47094639 16.28848835 -9.89672852 16.32958984 C-9.91993164 15.34216797 -9.94313477 14.35474609 -9.96704102 13.33740234 C-9.98508789 12.05607422 -10.00313477 10.77474609 -10.02172852 9.45458984 C-10.04493164 8.17841797 -10.06813477 6.90224609 -10.09204102 5.58740234 C-9.69479214 -1.03870889 -5.40320046 0.05164663 0 0 Z " fill="#FEDE56" transform="translate(195.896728515625,1.67041015625)"/>
<path d="M0 0 C1.59799438 0.00845947 1.59799438 0.00845947 3.22827148 0.01708984 C4.31615967 0.02272949 5.40404785 0.02836914 6.52490234 0.03417969 C25.2797341 0.31437169 42.24618831 4.29482808 56.51733398 16.76708984 C58.98867765 18.66195431 58.98867765 18.66195431 61.69702148 17.78271484 C64.03253417 16.37230783 65.94462492 14.89272052 67.97827148 13.07958984 C81.77504185 2.13339187 99.95604375 0.10533364 116.97827148 0.01708984 C118.04360107 0.0114502 119.10893066 0.00581055 120.20654297 0 C127.84671038 0.07302874 127.84671038 0.07302874 130.10327148 2.32958984 C130.29858398 5.58740234 130.29858398 5.58740234 130.22827148 9.45458984 C130.21022461 10.73591797 130.19217773 12.01724609 130.17358398 13.33740234 C130.1387793 14.81853516 130.1387793 14.81853516 130.10327148 16.32958984 C130.75924316 16.31911621 131.41521484 16.30864258 132.09106445 16.29785156 C135.05342806 16.25636482 138.01573064 16.23028722 140.97827148 16.20458984 C142.01081055 16.18783203 143.04334961 16.17107422 144.10717773 16.15380859 C145.09331055 16.14736328 146.07944336 16.14091797 147.09545898 16.13427734 C148.46226807 16.11856689 148.46226807 16.11856689 149.85668945 16.10253906 C152.10327148 16.32958984 152.10327148 16.32958984 154.10327148 18.32958984 C154.29858398 21.58740234 154.29858398 21.58740234 154.22827148 25.45458984 C154.21022461 26.73591797 154.19217773 28.01724609 154.17358398 29.33740234 C154.15038086 30.32482422 154.12717773 31.31224609 154.10327148 32.32958984 C155.087229 32.31387939 155.087229 32.31387939 156.09106445 32.29785156 C159.05342806 32.25636482 162.01573064 32.23028722 164.97827148 32.20458984 C166.01081055 32.18783203 167.04334961 32.17107422 168.10717773 32.15380859 C169.09331055 32.14736328 170.07944336 32.14091797 171.09545898 32.13427734 C172.46226807 32.11856689 172.46226807 32.11856689 173.85668945 32.10253906 C176.10327148 32.32958984 176.10327148 32.32958984 178.10327148 34.32958984 C178.34378052 36.31643677 178.34378052 36.31643677 178.33032227 38.77929688 C178.3301712 39.7001004 178.33002014 40.62090393 178.3298645 41.5696106 C178.31954193 42.56548187 178.30921936 43.56135315 178.29858398 44.58740234 C178.29433914 46.1146846 178.29433914 46.1146846 178.29000854 47.67282104 C178.27878919 50.93352885 178.25368144 54.19396468 178.22827148 57.45458984 C178.21824395 59.66161713 178.20911771 61.86864872 178.20092773 64.07568359 C178.17884416 69.49374556 178.14534943 74.91164828 178.10327148 80.32958984 C179.98647095 80.29816895 179.98647095 80.29816895 181.90771484 80.26611328 C186.59851522 80.19330889 191.28926638 80.14764376 195.98046875 80.10986328 C198.00464294 80.08983954 200.02875996 80.06261217 202.05273438 80.02783203 C204.97467213 79.97890522 207.89584029 79.95652834 210.81811523 79.93896484 C211.71223618 79.9183197 212.60635712 79.89767456 213.52757263 79.87640381 C222.57897255 79.87322477 229.64998797 83.06980346 236.25463867 89.21484375 C239.73302542 93.19394914 241.93158459 97.79026823 244.22827148 102.51708984 C244.74035156 103.53633545 245.25243164 104.55558105 245.7800293 105.60571289 C246.78425507 107.6085712 247.78129617 109.61505199 248.77026367 111.62548828 C249.8943345 113.90574625 251.03874332 116.172215 252.20483398 118.43115234 C256.10327148 126.02479127 256.10327148 126.02479127 256.10327148 128.32958984 C257.13097656 128.29816895 258.15868164 128.26674805 259.2175293 128.234375 C263.08634196 128.12451813 266.9550217 128.05644588 270.82495117 128 C272.48925065 127.97010818 274.15339652 127.92937782 275.81713867 127.87695312 C287.35232118 127.52298543 296.765913 128.08532888 306.01245117 135.9543457 C313.94774166 144.37310923 314.6964621 153.62214301 314.47827148 164.76708984 C314.47633789 166.68424805 314.47633789 166.68424805 314.47436523 168.64013672 C314.38462181 178.04823952 314.38462181 178.04823952 312.10327148 180.32958984 C307.48327148 180.32958984 302.86327148 180.32958984 298.10327148 180.32958984 C298.10327148 276.68958984 298.10327148 373.04958984 298.10327148 472.32958984 C302.72327148 472.32958984 307.34327148 472.32958984 312.10327148 472.32958984 C315.00768807 475.23400643 314.36194884 477.39716829 314.36889648 481.45458984 C314.37080994 482.15729004 314.37272339 482.85999023 314.37469482 483.58398438 C314.37605624 485.07015338 314.37236281 486.55633429 314.36401367 488.04248047 C314.35331302 490.3207463 314.36390988 492.59822361 314.37670898 494.87646484 C314.37538738 496.31917492 314.37282497 497.76188451 314.36889648 499.20458984 C314.36664063 500.52201172 314.36438477 501.83943359 314.36206055 503.19677734 C314.10327148 506.32958984 314.10327148 506.32958984 312.10327148 508.32958984 C309.3660745 508.52690393 306.73004019 508.59724475 303.99160767 508.58127213 C303.13895883 508.58417901 302.28631 508.58708589 301.40782332 508.59008086 C298.51928961 508.59744342 295.63096419 508.59040858 292.74243164 508.58355713 C290.66323042 508.58585909 288.58403001 508.58903383 286.50483131 508.59301162 C280.76679614 508.60140461 275.02882701 508.59721403 269.29079151 508.59103918 C263.11213025 508.58653401 256.93348074 508.59348879 250.75482178 508.59899902 C239.34219466 508.60739942 227.92959465 508.60664176 216.51696819 508.60117609 C205.97519739 508.59615204 195.43343435 508.59482827 184.8916626 508.59722137 C184.19337155 508.59737414 183.4950805 508.59752691 182.77562912 508.59768431 C179.94129278 508.59830696 177.10695645 508.59894375 174.27262012 508.59960384 C147.66497457 508.60572676 121.05734254 508.60016713 94.44969907 508.58941005 C70.79189826 508.57991829 47.13411898 508.58076753 23.47631836 508.59033203 C-3.08155205 508.60103301 -29.63941052 508.60529259 -56.19728279 508.5991075 C-59.02656173 508.59846603 -61.85584068 508.59784036 -64.68511963 508.59722137 C-65.73013962 508.59698414 -65.73013962 508.59698414 -66.79627113 508.59674212 C-77.33340196 508.59446374 -87.87052417 508.59713409 -98.40765381 508.60218048 C-110.38455366 508.60788767 -122.36142807 508.6063002 -134.33832693 508.59561899 C-140.45490813 508.5903448 -146.57144551 508.58833509 -152.68802643 508.5949173 C-158.27882648 508.60084293 -163.86954179 508.59765814 -169.46033406 508.58696219 C-171.49125117 508.58471369 -173.52217532 508.58589655 -175.55308795 508.59071377 C-178.29718443 508.59672722 -181.04098417 508.59062734 -183.7850647 508.58127213 C-184.98921127 508.58829562 -184.98921127 508.58829562 -186.21768403 508.59546101 C-191.66842778 508.55789058 -191.66842778 508.55789058 -193.89672852 506.32958984 C-194.15551758 503.19677734 -194.15551758 503.19677734 -194.16235352 499.20458984 C-194.16426697 498.50188965 -194.16618042 497.79918945 -194.16815186 497.07519531 C-194.16951327 495.58902631 -194.16581984 494.1028454 -194.1574707 492.61669922 C-194.14677005 490.33843339 -194.15736691 488.06095607 -194.17016602 485.78271484 C-194.16884441 484.34000477 -194.166282 482.89729518 -194.16235352 481.45458984 C-194.16009766 480.13716797 -194.1578418 478.81974609 -194.15551758 477.46240234 C-193.89672852 474.32958984 -193.89672852 474.32958984 -191.89672852 472.32958984 C-187.27672852 472.32958984 -182.65672852 472.32958984 -177.89672852 472.32958984 C-177.89672852 375.96958984 -177.89672852 279.60958984 -177.89672852 180.32958984 C-182.51672852 180.32958984 -187.13672852 180.32958984 -191.89672852 180.32958984 C-195.6846782 176.54164016 -194.35505665 170.06460235 -194.39672852 164.95458984 C-194.43797852 163.72869141 -194.47922852 162.50279297 -194.52172852 161.23974609 C-194.60290906 151.67058996 -192.54784329 143.84269538 -186.27246094 136.40429688 C-184.56686256 134.81339166 -182.87160626 133.56667525 -180.89672852 132.32958984 C-180.34355957 131.96317383 -179.79039062 131.59675781 -179.22045898 131.21923828 C-171.19302881 126.85268049 -162.18589293 127.89652938 -153.33422852 128.07958984 C-151.64089026 128.09968497 -149.94752898 128.11793041 -148.25415039 128.13427734 C-144.1344348 128.17803647 -140.015839 128.24689594 -135.89672852 128.32958984 C-135.62812012 127.47147705 -135.35951172 126.61336426 -135.08276367 125.72924805 C-133.22943199 120.41684714 -130.69693373 115.44231738 -128.20385742 110.40844727 C-127.28234952 108.53864064 -126.38059432 106.66011787 -125.47875977 104.78076172 C-120.34672348 94.28647736 -114.97699369 85.83681636 -103.89672852 81.32958984 C-101.11610877 80.4027166 -99.47620993 80.20765588 -96.60888672 80.21606445 C-95.74822098 80.21613998 -94.88755524 80.21621552 -94.00080872 80.21629333 C-93.07572006 80.22145462 -92.15063141 80.22661591 -91.19750977 80.23193359 C-90.24732468 80.23334854 -89.29713959 80.23476349 -88.31816101 80.23622131 C-85.28181822 80.24182109 -82.24554904 80.25437353 -79.20922852 80.26708984 C-77.15128687 80.27210487 -75.09334407 80.27666777 -73.03540039 80.28076172 C-67.98914805 80.29179045 -62.94295076 80.30905491 -57.89672852 80.32958984 C-57.90116974 79.75773956 -57.90561096 79.18588928 -57.91018677 78.59671021 C-57.95433803 72.65987642 -57.98456064 66.72308906 -58.0065918 60.78613281 C-58.01666676 58.56866564 -58.03032711 56.35121179 -58.04760742 54.13378906 C-58.07179015 50.95162673 -58.08319648 47.7696396 -58.09204102 44.58740234 C-58.10236359 43.59153107 -58.11268616 42.59565979 -58.12332153 41.5696106 C-58.1234726 40.64880707 -58.12362366 39.72800354 -58.1237793 38.77929688 C-58.12822052 37.96655304 -58.13266174 37.1538092 -58.13723755 36.31643677 C-57.89672852 34.32958984 -57.89672852 34.32958984 -55.89672852 32.32958984 C-53.65014648 32.10253906 -53.65014648 32.10253906 -50.88891602 32.13427734 C-49.9027832 32.14072266 -48.91665039 32.14716797 -47.90063477 32.15380859 C-46.35182617 32.17894531 -46.35182617 32.17894531 -44.77172852 32.20458984 C-43.73145508 32.21361328 -42.69118164 32.22263672 -41.61938477 32.23193359 C-39.04493759 32.25555238 -36.47094639 32.28848835 -33.89672852 32.32958984 C-33.91993164 31.34216797 -33.94313477 30.35474609 -33.96704102 29.33740234 C-33.98508789 28.05607422 -34.00313477 26.77474609 -34.02172852 25.45458984 C-34.04493164 24.17841797 -34.06813477 22.90224609 -34.09204102 21.58740234 C-33.89672852 18.32958984 -33.89672852 18.32958984 -31.89672852 16.32958984 C-29.65014648 16.10253906 -29.65014648 16.10253906 -26.88891602 16.13427734 C-25.9027832 16.14072266 -24.91665039 16.14716797 -23.90063477 16.15380859 C-22.35182617 16.17894531 -22.35182617 16.17894531 -20.77172852 16.20458984 C-19.73145508 16.21361328 -18.69118164 16.22263672 -17.61938477 16.23193359 C-15.04493759 16.25555238 -12.47094639 16.28848835 -9.89672852 16.32958984 C-9.91993164 15.34216797 -9.94313477 14.35474609 -9.96704102 13.33740234 C-9.98508789 12.05607422 -10.00313477 10.77474609 -10.02172852 9.45458984 C-10.04493164 8.17841797 -10.06813477 6.90224609 -10.09204102 5.58740234 C-9.69479214 -1.03870889 -5.40320046 0.05164663 0 0 Z M-165.89672852 180.32958984 C-165.89672852 276.68958984 -165.89672852 373.04958984 -165.89672852 472.32958984 C-111.77672852 472.32958984 -57.65672852 472.32958984 -1.89672852 472.32958984 C-1.84774414 459.86435547 -1.79875977 447.39912109 -1.74829102 434.55615234 C-1.71292513 426.68114522 -1.67705884 418.8061457 -1.63891602 410.93115234 C-1.57840581 398.4187998 -1.5199977 385.90646165 -1.47485352 373.39404297 C-1.44197124 364.28280824 -1.40216109 355.17163502 -1.35393846 346.06046808 C-1.32863589 341.23362949 -1.30686583 336.4068319 -1.29338455 331.57994461 C-1.28059814 327.04097559 -1.25858115 322.50214691 -1.22934532 317.96325493 C-1.22024266 316.29350103 -1.21457309 314.62372451 -1.21251488 312.95394707 C-1.20921119 310.68175272 -1.1937861 308.40996092 -1.17520142 306.1378479 C-1.16967066 304.86393 -1.1641399 303.59001209 -1.15844154 302.27749062 C-0.89672852 299.32958984 -0.89672852 299.32958984 1.10327148 297.32958984 C3.16821957 297.07790756 3.16821957 297.07790756 5.7653656 297.07562256 C6.74823547 297.06998291 7.73110535 297.06434326 8.74375916 297.05853271 C9.82589188 297.06258118 10.9080246 297.06662964 12.02294922 297.07080078 C13.15959015 297.06729614 14.29623108 297.0637915 15.46731567 297.06018066 C19.24056022 297.05134763 23.01361864 297.05721851 26.78686523 297.06396484 C29.39998918 297.06261855 32.01311288 297.06067833 34.62623596 297.0581665 C40.10989412 297.05452506 45.59349845 297.05933006 51.07714844 297.06884766 C57.41874206 297.07972716 63.76020703 297.07621107 70.10179752 297.06519485 C76.19828972 297.0550278 82.29472485 297.05610097 88.391222 297.06195831 C90.98724447 297.06329545 93.58327021 297.06164488 96.17928886 297.05699921 C99.80434822 297.05193675 103.42915848 297.05964079 107.05419922 297.07080078 C108.13430771 297.06675232 109.2144162 297.06270386 110.32725525 297.05853271 C111.31294495 297.06417236 112.29863464 297.06981201 113.31419373 297.07562256 C114.17162894 297.07637661 115.02906416 297.07713066 115.91248226 297.07790756 C118.10327148 297.32958984 118.10327148 297.32958984 121.10327148 299.32958984 C121.48803234 302.27749062 121.48803234 302.27749062 121.5019989 306.1378479 C121.50864573 306.84601131 121.51529256 307.55417472 121.5221408 308.28379762 C121.54086708 310.66850912 121.53815917 313.05272313 121.53564453 315.4375 C121.54465585 317.14221409 121.55498151 318.84692168 121.56652832 320.55162048 C121.5941986 325.1898008 121.60339638 329.82785852 121.60938239 334.46611071 C121.61874008 339.30951871 121.64494123 344.15283419 121.66938782 348.9961853 C121.71312847 358.17237756 121.74162889 367.34855194 121.7647112 376.52481687 C121.79676974 388.92143287 121.85225422 401.31794228 121.90645695 413.71447754 C121.99126641 433.25281673 122.04467626 452.79111375 122.10327148 472.32958984 C176.22327148 472.32958984 230.34327148 472.32958984 286.10327148 472.32958984 C286.10327148 375.96958984 286.10327148 279.60958984 286.10327148 180.32958984 C136.94327148 180.32958984 -12.21672852 180.32958984 -165.89672852 180.32958984 Z " fill="#000000" transform="translate(195.896728515625,1.67041015625)"/>
<path d="M0 0 C0.98279938 -0.00845947 1.96559875 -0.01691895 2.97817993 -0.02563477 C4.59362953 -0.01652573 4.59362953 -0.01652573 6.24171448 -0.00723267 C7.37689514 -0.01248962 8.51207581 -0.01774658 9.68165588 -0.02316284 C13.44473415 -0.03639708 17.20739146 -0.02761172 20.97047424 -0.01748657 C23.57977378 -0.01950645 26.18907276 -0.02241717 28.79837036 -0.02618408 C34.27188193 -0.03164345 39.74527211 -0.02444619 45.21876526 -0.01016235 C51.54507799 0.00615649 57.87110056 0.00088217 64.19740623 -0.01564157 C70.28377404 -0.03090193 76.37001331 -0.02927874 82.45639229 -0.02049637 C85.0460063 -0.01849224 87.63562769 -0.02096104 90.22523308 -0.02793503 C93.84290662 -0.03553824 97.46002022 -0.02395989 101.07765198 -0.00723267 C102.15259415 -0.01330536 103.22753632 -0.01937805 104.33505249 -0.02563477 C105.32067169 -0.01717529 106.30629089 -0.00871582 107.32177734 0 C108.17699195 0.00113108 109.03220655 0.00226215 109.91333675 0.00342751 C112.83527297 0.48074403 114.17253379 1.24786024 116.22438049 3.38095093 C116.72774506 5.69109249 116.72774506 5.69109249 116.73231506 8.46028137 C116.74359436 9.51039398 116.75487366 10.56050659 116.76649475 11.6424408 C116.75839783 12.7942131 116.7503009 13.94598541 116.74195862 15.13265991 C116.7489679 16.34586914 116.75597717 17.55907837 116.76319885 18.80905151 C116.77780372 22.13789792 116.7743583 25.4657519 116.76168251 28.79454303 C116.75156093 32.27738459 116.76094604 35.76018352 116.76722717 39.24302673 C116.77450705 45.09319682 116.76490815 50.94316501 116.74586487 56.79330444 C116.72410539 63.55593546 116.73113899 70.31808393 116.75317049 77.0807032 C116.77132712 82.88634032 116.7738813 88.69183222 116.76341581 94.49748856 C116.75718092 97.96515152 116.75634464 101.43258775 116.76956177 104.90023613 C116.78327002 108.7669637 116.76426611 112.63315175 116.74195862 116.49984741 C116.75005554 117.64959549 116.75815247 118.79934357 116.76649475 119.9839325 C116.74957581 121.56333115 116.74957581 121.56333115 116.73231506 123.17463684 C116.73080696 124.0888462 116.72929886 125.00305555 116.72774506 125.94496822 C116.05192073 129.21555278 114.8746679 130.39282619 112.22438049 132.38095093 C109.91333675 132.88431549 109.91333675 132.88431549 107.32177734 132.8888855 C106.33615814 132.90016479 105.35053894 132.91144409 104.33505249 132.92306519 C103.26011032 132.91496826 102.18516815 132.90687134 101.07765198 132.89852905 C99.94071899 132.90553833 98.80378601 132.91254761 97.63240051 132.91976929 C93.86984421 132.93739183 90.10803835 132.92571138 86.34547424 132.91220093 C83.73520767 132.91489441 81.12494208 132.91877562 78.51467896 132.92379761 C73.04291122 132.93107202 67.57135955 132.92149087 62.09962463 132.9024353 C55.77262624 132.88065576 49.44614321 132.88772607 43.11915725 132.90974092 C37.03221954 132.93007299 30.94551046 132.92793056 24.85855293 132.91621399 C22.26811209 132.91354028 19.67765814 132.91683895 17.08723259 132.9261322 C13.47170195 132.93625672 9.85717043 132.92085302 6.24171448 132.89852905 C5.16474808 132.90662598 4.08778168 132.9147229 2.97817993 132.92306519 C1.99538055 132.91178589 1.01258118 132.90050659 0 132.8888855 C-0.85483758 132.8873774 -1.70967516 132.88586929 -2.59041691 132.88431549 C-4.77561951 132.38095093 -4.77561951 132.38095093 -6.55028629 130.67459965 C-8.00188582 127.95741272 -8.15276951 126.246791 -8.15657043 123.17463684 C-8.16502991 122.12170441 -8.17348938 121.06877197 -8.1822052 119.9839325 C-8.17613251 118.83418442 -8.17005981 117.68443634 -8.1638031 116.49984741 C-8.16906006 115.28488586 -8.17431702 114.06992432 -8.17973328 112.81814575 C-8.19067401 109.489578 -8.18811119 106.16156972 -8.17859602 102.83303332 C-8.17099832 99.34973574 -8.17804518 95.86646198 -8.18275452 92.38316345 C-8.18821104 86.53480742 -8.18102248 80.68656509 -8.16673279 74.83822632 C-8.15039875 68.07505868 -8.1557005 61.31216225 -8.172212 54.54900116 C-8.18582079 48.74252863 -8.18774977 42.93613779 -8.179896 37.12965447 C-8.17521708 33.66151454 -8.17460067 30.19350216 -8.18450546 26.72537041 C-8.19477122 22.86102607 -8.18054762 18.99698627 -8.1638031 15.13265991 C-8.16987579 13.9808876 -8.17594849 12.8291153 -8.1822052 11.6424408 C-8.17374573 10.59232819 -8.16528625 9.54221558 -8.15657043 8.46028137 C-8.15543936 7.54644904 -8.15430828 6.63261671 -8.15314293 5.69109249 C-7.77561951 3.38095093 -7.77561951 3.38095093 -6.55028629 1.58730221 C-4.23539899 0.01372947 -2.79118736 0.00369315 0 0 Z " fill="#000000" transform="translate(345.77561950683594,297.6190490722656)"/>
<path d="M0 0 C0.98279938 -0.00845947 1.96559875 -0.01691895 2.97817993 -0.02563477 C4.59362953 -0.01652573 4.59362953 -0.01652573 6.24171448 -0.00723267 C7.37689514 -0.01248962 8.51207581 -0.01774658 9.68165588 -0.02316284 C13.44473415 -0.03639708 17.20739146 -0.02761172 20.97047424 -0.01748657 C23.57977378 -0.01950645 26.18907276 -0.02241717 28.79837036 -0.02618408 C34.27188193 -0.03164345 39.74527211 -0.02444619 45.21876526 -0.01016235 C51.54507799 0.00615649 57.87110056 0.00088217 64.19740623 -0.01564157 C70.28377404 -0.03090193 76.37001331 -0.02927874 82.45639229 -0.02049637 C85.0460063 -0.01849224 87.63562769 -0.02096104 90.22523308 -0.02793503 C93.84290662 -0.03553824 97.46002022 -0.02395989 101.07765198 -0.00723267 C102.15259415 -0.01330536 103.22753632 -0.01937805 104.33505249 -0.02563477 C105.32067169 -0.01717529 106.30629089 -0.00871582 107.32177734 0 C108.17699195 0.00113108 109.03220655 0.00226215 109.91333675 0.00342751 C112.83527297 0.48074403 114.17253379 1.24786024 116.22438049 3.38095093 C116.72774506 5.69109249 116.72774506 5.69109249 116.73231506 8.46028137 C116.74359436 9.51039398 116.75487366 10.56050659 116.76649475 11.6424408 C116.75839783 12.7942131 116.7503009 13.94598541 116.74195862 15.13265991 C116.7489679 16.34586914 116.75597717 17.55907837 116.76319885 18.80905151 C116.77780372 22.13789792 116.7743583 25.4657519 116.76168251 28.79454303 C116.75156093 32.27738459 116.76094604 35.76018352 116.76722717 39.24302673 C116.77450705 45.09319682 116.76490815 50.94316501 116.74586487 56.79330444 C116.72410539 63.55593546 116.73113899 70.31808393 116.75317049 77.0807032 C116.77132712 82.88634032 116.7738813 88.69183222 116.76341581 94.49748856 C116.75718092 97.96515152 116.75634464 101.43258775 116.76956177 104.90023613 C116.78327002 108.7669637 116.76426611 112.63315175 116.74195862 116.49984741 C116.75005554 117.64959549 116.75815247 118.79934357 116.76649475 119.9839325 C116.74957581 121.56333115 116.74957581 121.56333115 116.73231506 123.17463684 C116.73080696 124.0888462 116.72929886 125.00305555 116.72774506 125.94496822 C116.05192073 129.21555278 114.8746679 130.39282619 112.22438049 132.38095093 C109.91333675 132.88431549 109.91333675 132.88431549 107.32177734 132.8888855 C106.33615814 132.90016479 105.35053894 132.91144409 104.33505249 132.92306519 C103.26011032 132.91496826 102.18516815 132.90687134 101.07765198 132.89852905 C99.94071899 132.90553833 98.80378601 132.91254761 97.63240051 132.91976929 C93.86984421 132.93739183 90.10803835 132.92571138 86.34547424 132.91220093 C83.73520767 132.91489441 81.12494208 132.91877562 78.51467896 132.92379761 C73.04291122 132.93107202 67.57135955 132.92149087 62.09962463 132.9024353 C55.77262624 132.88065576 49.44614321 132.88772607 43.11915725 132.90974092 C37.03221954 132.93007299 30.94551046 132.92793056 24.85855293 132.91621399 C22.26811209 132.91354028 19.67765814 132.91683895 17.08723259 132.9261322 C13.47170195 132.93625672 9.85717043 132.92085302 6.24171448 132.89852905 C5.16474808 132.90662598 4.08778168 132.9147229 2.97817993 132.92306519 C1.99538055 132.91178589 1.01258118 132.90050659 0 132.8888855 C-0.85483758 132.8873774 -1.70967516 132.88586929 -2.59041691 132.88431549 C-4.77561951 132.38095093 -4.77561951 132.38095093 -6.55028629 130.67459965 C-8.00188582 127.95741272 -8.15276951 126.246791 -8.15657043 123.17463684 C-8.16502991 122.12170441 -8.17348938 121.06877197 -8.1822052 119.9839325 C-8.17613251 118.83418442 -8.17005981 117.68443634 -8.1638031 116.49984741 C-8.16906006 115.28488586 -8.17431702 114.06992432 -8.17973328 112.81814575 C-8.19067401 109.489578 -8.18811119 106.16156972 -8.17859602 102.83303332 C-8.17099832 99.34973574 -8.17804518 95.86646198 -8.18275452 92.38316345 C-8.18821104 86.53480742 -8.18102248 80.68656509 -8.16673279 74.83822632 C-8.15039875 68.07505868 -8.1557005 61.31216225 -8.172212 54.54900116 C-8.18582079 48.74252863 -8.18774977 42.93613779 -8.179896 37.12965447 C-8.17521708 33.66151454 -8.17460067 30.19350216 -8.18450546 26.72537041 C-8.19477122 22.86102607 -8.18054762 18.99698627 -8.1638031 15.13265991 C-8.16987579 13.9808876 -8.17594849 12.8291153 -8.1822052 11.6424408 C-8.17374573 10.59232819 -8.16528625 9.54221558 -8.15657043 8.46028137 C-8.15543936 7.54644904 -8.15430828 6.63261671 -8.15314293 5.69109249 C-7.77561951 3.38095093 -7.77561951 3.38095093 -6.55028629 1.58730221 C-4.23539899 0.01372947 -2.79118736 0.00369315 0 0 Z " fill="#000000" transform="translate(57.77561950683594,297.6190490722656)"/>
<path d="M0 0 C149.16 0 298.32 0 452 0 C452 3.3 452 6.6 452 10 C306.14 10 160.28 10 10 10 C10 103.06 10 196.12 10 292 C6.7 292 3.4 292 0 292 C0 195.64 0 99.28 0 0 Z " fill="#FAD22A" transform="translate(30,182)"/>
<path d="M0 0 C1.17042847 0.00453186 1.17042847 0.00453186 2.36450195 0.00915527 C5.25615829 0.02475319 8.14762484 0.06663675 11.0390625 0.10546875 C20.7534375 0.19828125 20.7534375 0.19828125 30.6640625 0.29296875 C30.6640625 25.37296875 30.6640625 50.45296875 30.6640625 76.29296875 C-10.2559375 76.29296875 -51.1759375 76.29296875 -93.3359375 76.29296875 C-93.3359375 59.25433095 -93.3359375 59.25433095 -89.93669128 54.85848999 C-85.09277059 50.12118385 -80.3488946 47.73872145 -73.56034851 47.65097046 C-72.75797256 47.66431427 -71.95559662 47.67765808 -71.12890625 47.69140625 C-70.2816951 47.68339996 -69.43448395 47.67539368 -68.56159973 47.66714478 C-65.88171288 47.64423804 -63.20336272 47.65348919 -60.5234375 47.66796875 C-57.82595108 47.67181715 -55.12912818 47.66841234 -52.43171692 47.64736938 C-50.76011648 47.63527958 -49.0883286 47.63795083 -47.41679382 47.65707397 C-43.2748379 47.77465129 -43.2748379 47.77465129 -39.71170044 45.98031616 C-37.4597098 43.21829193 -36.06292975 40.00521508 -34.53515625 36.80859375 C-33.79774229 35.30067548 -33.06010489 33.79286646 -32.32226562 32.28515625 C-31.17341378 29.91942682 -30.02787548 27.55218602 -28.88696289 25.18261719 C-27.77865868 22.88679273 -26.65760754 20.59752751 -25.53515625 18.30859375 C-25.20368088 17.61042542 -24.87220551 16.91225708 -24.53068542 16.19293213 C-21.57416507 10.18981491 -18.11082063 5.20073124 -12.54443359 1.3737793 C-8.27179615 -0.06549676 -4.47705923 -0.08249152 0 0 Z " fill="#697E91" transform="translate(107.3359375,93.70703125)"/>
<path d="M0 0 C6.27 -0.0825 12.54 -0.165 19 -0.25 C20.96324219 -0.28641602 22.92648437 -0.32283203 24.94921875 -0.36035156 C26.52863476 -0.3720486 28.10806295 -0.38223801 29.6875 -0.390625 C30.88922852 -0.4213208 30.88922852 -0.4213208 32.11523438 -0.45263672 C38.48801334 -0.45653206 43.96044042 1.0118135 48.61151123 5.58427429 C54.41205746 12.39769284 57.87947153 21.44452007 61.75 29.4375 C62.89759884 31.80072669 64.04762945 34.16262202 65.20513916 36.52101135 C65.92120785 37.98044116 66.63150307 39.44272096 67.33538818 40.9080658 C68.94912885 44.60310613 68.94912885 44.60310613 72 47 C74.7488828 47.1086611 77.47692337 47.16139261 80.2265625 47.17578125 C81.91537682 47.1989958 83.60417892 47.22311378 85.29296875 47.24804688 C87.95239238 47.28303285 90.6113713 47.31243084 93.27099609 47.32592773 C95.84006803 47.34151385 98.40783921 47.38180558 100.9765625 47.42578125 C101.76020172 47.42387283 102.54384094 47.42196442 103.35122681 47.41999817 C108.97657441 47.5430759 113.28230847 48.88561787 118 52 C125.39279822 59.78189287 124 64.04030852 124 76 C83.08 76 42.16 76 0 76 C0 50.92 0 25.84 0 0 Z " fill="#687D90" transform="translate(374,94)"/>
<path d="M0 0 C159.72 0 319.44 0 484 0 C484 3.96 484 7.92 484 12 C324.28 12 164.56 12 0 12 C0 8.04 0 4.08 0 0 Z " fill="#7D90A8" transform="translate(14,486)"/>
<path d="M0 0 C14.52 0 29.04 0 44 0 C44 43.56 44 87.12 44 132 C29.48 132 14.96 132 0 132 C0 88.44 0 44.88 0 0 Z " fill="#95E8FC" transform="translate(262,342)"/>
<path d="M0 0 C14.52 0 29.04 0 44 0 C44 43.56 44 87.12 44 132 C29.48 132 14.96 132 0 132 C0 88.44 0 44.88 0 0 Z " fill="#95E8FC" transform="translate(206,342)"/>
<path d="M0 0 C0 35.64 0 71.28 0 108 C-3.78309177 108.94577294 -6.93356579 109.16791779 -10.8125 109.3125 C-25.42061074 110.15311334 -37.31143028 115.1628792 -50 122 C-50.99 122.495 -50.99 122.495 -52 123 C-52.09264486 109.65688112 -52.16373726 96.31383865 -52.20724869 82.97046375 C-52.22813109 76.77470865 -52.25646127 70.57917346 -52.30175781 64.38354492 C-52.34519134 58.40538557 -52.36913219 52.42743787 -52.37950897 46.44913292 C-52.38690475 44.16733149 -52.4013468 41.88554176 -52.42292023 39.60383034 C-52.45192029 36.40986647 -52.45595732 33.21677924 -52.45410156 30.02270508 C-52.46848267 29.07755539 -52.48286377 28.1324057 -52.49768066 27.15861511 C-52.47108818 22.93406325 -52.40048966 20.63935235 -50.11517334 16.99101257 C-35.96047076 3.66719165 -19.02055706 0 0 0 Z " fill="#DFF2FD" transform="translate(314,14)"/>
<path d="M0 0 C6.88239249 0 12.6630064 0.15574391 19.25 1.5625 C20.06629883 1.73668457 20.88259766 1.91086914 21.72363281 2.09033203 C33.20989874 4.74948127 45.25534329 9.88301493 52 20 C52.24609566 21.97773266 52.24609566 21.97773266 52.24050903 24.27104187 C52.24325836 25.14182373 52.24600769 26.01260559 52.24884033 26.90977478 C52.24164978 27.86211502 52.23445923 28.81445526 52.22705078 29.7956543 C52.22734283 30.80071014 52.22763489 31.80576599 52.22793579 32.84127808 C52.22654055 36.16901227 52.21097005 39.49652359 52.1953125 42.82421875 C52.19158307 45.12921527 52.18873577 47.43421337 52.18673706 49.73921204 C52.17909514 55.81047938 52.1594418 61.88165127 52.1373291 67.95288086 C52.11688273 74.14630848 52.10773793 80.3397515 52.09765625 86.53320312 C52.07619649 98.68884406 52.04205376 110.8444141 52 123 C50.99259766 122.44932861 49.98519531 121.89865723 48.94726562 121.33129883 C47.60039193 120.60213332 46.25337929 119.87322443 44.90625 119.14453125 C43.9147998 118.60125183 43.9147998 118.60125183 42.90332031 118.04699707 C29.30127708 110.71542893 15.56246997 110.02988739 0 108 C0 72.36 0 36.72 0 0 Z " fill="#F1F9FD" transform="translate(198,14)"/>
<path d="M0 0 C3.96 0 7.92 0 12 0 C12.00808685 1.34637039 12.01617371 2.69274078 12.02450562 4.07991028 C12.10188967 16.74966275 12.18960926 29.41930682 12.28752708 42.08891773 C12.33753689 48.60295787 12.38386653 55.11698142 12.421875 61.63110352 C12.45866857 67.9140576 12.50501236 74.19687442 12.55806351 80.47971153 C12.57663901 82.88033332 12.59173521 85.28098457 12.60334396 87.68165016 C12.62015234 91.03636446 12.64917447 94.39076223 12.68115234 97.74536133 C12.68331253 98.74445526 12.68547272 99.74354919 12.68769836 100.7729187 C12.69886185 101.68577133 12.71002533 102.59862396 12.7215271 103.53913879 C12.72705786 104.33280255 12.73258862 105.12646631 12.73828697 105.94418049 C12.88429296 108.30872255 12.88429296 108.30872255 15 111 C17.44655361 111.30140101 19.64215035 111.4044914 22.09178162 111.38095093 C23.19985431 111.38797089 23.19985431 111.38797089 24.33031231 111.39513266 C26.81861394 111.40714877 29.30637151 111.39759994 31.79467773 111.38818359 C33.57333703 111.39224641 35.3519938 111.39758664 37.13064575 111.40411377 C41.97154601 111.41782877 46.81225516 111.41247126 51.6531589 111.40297651 C56.71132864 111.39540034 61.76948162 111.40241993 66.82765198 111.40713501 C75.32434029 111.41259904 83.82095049 111.40538453 92.31762695 111.39111328 C102.14926113 111.37479078 111.98070865 111.38006978 121.81233829 111.3965925 C130.24294525 111.41019522 138.67349592 111.41213282 147.1041103 111.40427649 C152.14393077 111.39959261 157.18366344 111.3989946 162.22347832 111.40888596 C166.96194213 111.41753552 171.70016476 111.41157061 176.43860245 111.39420319 C178.18051439 111.39022734 179.92244654 111.39139107 181.66435051 111.39799118 C184.03692174 111.40615379 186.40871357 111.39594985 188.78123474 111.38095093 C189.82247306 111.39098918 189.82247306 111.39098918 190.88474649 111.40123022 C193.64657127 111.3672169 195.57543985 111.27440837 197.92625237 109.75499439 C199.28271733 107.53791067 199.38365177 106.13516529 199.39872742 103.53913879 C199.41126556 102.62628616 199.42380371 101.71343353 199.4367218 100.7729187 C199.43528671 99.77382477 199.43385162 98.77473083 199.43237305 97.74536133 C199.4425647 96.69153763 199.45275635 95.63771393 199.46325684 94.55195618 C199.49349804 91.0619279 199.50266993 87.57217358 199.51171875 84.08203125 C199.52855715 81.66492289 199.54670624 79.24782333 199.56611633 76.83073425 C199.61371334 70.4636205 199.64346004 64.09654243 199.66955566 57.72930908 C199.69931222 51.23418123 199.74585935 44.73917644 199.79101562 38.24414062 C199.87715916 25.49615799 199.94445531 12.7481501 200 0 C203.96 0 207.92 0 212 0 C212 40.92 212 81.84 212 124 C142.04 124 72.08 124 0 124 C0 83.08 0 42.16 0 0 Z " fill="#FE5172" transform="translate(150,46)"/>
<path d="M0 0 C14.52 0 29.04 0 44 0 C44 25.08 44 50.16 44 76 C29.48 76 14.96 76 0 76 C0 50.92 0 25.84 0 0 Z " fill="#95E8FC" transform="translate(406,342)"/>
<path d="M0 0 C14.52 0 29.04 0 44 0 C44 25.08 44 50.16 44 76 C29.48 76 14.96 76 0 76 C0 50.92 0 25.84 0 0 Z " fill="#95E8FC" transform="translate(350,342)"/>
<path d="M0 0 C14.52 0 29.04 0 44 0 C44 25.08 44 50.16 44 76 C29.48 76 14.96 76 0 76 C0 50.92 0 25.84 0 0 Z " fill="#95E8FC" transform="translate(118,342)"/>
<path d="M0 0 C14.52 0 29.04 0 44 0 C44 25.08 44 50.16 44 76 C29.48 76 14.96 76 0 76 C0 50.92 0 25.84 0 0 Z " fill="#95E8FC" transform="translate(62,342)"/>
<path d="M0 0 C3.3 0 6.6 0 10 0 C10 96.36 10 192.72 10 292 C6.7 292 3.4 292 0 292 C0 195.64 0 99.28 0 0 Z " fill="#FFF081" transform="translate(30,182)"/>
<path d="M0 0 C6.36248803 1.54400354 9.86856497 4.34894587 13.5625 9.6875 C16.93967138 15.37989935 17.57160334 19.36358834 17 26 C16.22602409 28.83474614 15.18726881 31.29302712 14 34 C13.67 34.99 13.34 35.98 13 37 C13.763125 37.680625 14.52625 38.36125 15.3125 39.0625 C19.92886141 44.10829037 21.54106439 49.0066001 21.2890625 55.73046875 C20.53295413 61.66694121 18.24992616 66.75007384 14 71 C6.59015751 76.12456396 0.17346471 76.23205834 -8.5625 76.3125 C-10.14321289 76.35600586 -10.14321289 76.35600586 -11.75585938 76.40039062 C-13.27083008 76.41295898 -13.27083008 76.41295898 -14.81640625 76.42578125 C-15.73881104 76.44036377 -16.66121582 76.45494629 -17.61157227 76.4699707 C-20 76 -20 76 -21.62501526 74.39190674 C-23.45436282 71.20959597 -23.38094372 68.92330799 -23.38818359 65.25952148 C-23.39344055 64.59075989 -23.39869751 63.92199829 -23.40411377 63.23297119 C-23.41728693 61.02877247 -23.40858686 58.82529944 -23.3984375 56.62109375 C-23.40045878 55.08699912 -23.40337068 53.55290543 -23.40713501 52.01881409 C-23.4115545 48.8068017 -23.40513871 45.59503987 -23.39111328 42.38305664 C-23.37400692 38.2647 -23.38387371 34.14692925 -23.40183067 30.02859402 C-23.41266649 26.86216306 -23.40922341 23.69587124 -23.4014473 20.52943611 C-23.39944546 19.01077264 -23.40190399 17.49209654 -23.40888596 15.9734478 C-23.41649903 13.85231882 -23.40490047 11.73214197 -23.38818359 9.61108398 C-23.38579681 8.40403305 -23.38341003 7.19698212 -23.38095093 5.95335388 C-23 3 -23 3 -21.60185242 1.11305237 C-16.41820363 -2.48882287 -6.01209381 -0.6251981 0 0 Z " fill="#030201" transform="translate(185,202)"/>
<path d="M0 0 C153.78 0 307.56 0 466 0 C466 1.98 466 3.96 466 6 C312.22 6 158.44 6 0 6 C0 4.02 0 2.04 0 0 Z " fill="#697E91" transform="translate(32,492)"/>
<path d="M0 0 C0.99193359 -0.00386719 1.98386719 -0.00773438 3.00585938 -0.01171875 C4.55950195 0.00568359 4.55950195 0.00568359 6.14453125 0.0234375 C7.16095703 0.01183594 8.17738281 0.00023437 9.22460938 -0.01171875 C16.66476835 0.01710046 22.69226214 0.74106729 28.64453125 5.5859375 C29.40765625 6.5140625 30.17078125 7.4421875 30.95703125 8.3984375 C31.42367187 8.96433594 31.8903125 9.53023437 32.37109375 10.11328125 C35.85227063 14.8682966 36.65879081 18.8558271 36.390625 24.71484375 C35.73063628 28.79963881 34.0886647 31.90535933 31.95703125 35.3984375 C31.28011389 36.72659604 30.61071064 38.05868921 29.95703125 39.3984375 C30.88515625 40.5121875 30.88515625 40.5121875 31.83203125 41.6484375 C36.58002425 47.79289903 36.3230866 52.81337418 36.33203125 60.3984375 C36.35652344 61.4915625 36.38101563 62.5846875 36.40625 63.7109375 C36.41205078 65.28875 36.41205078 65.28875 36.41796875 66.8984375 C36.42618652 67.8575 36.4344043 68.8165625 36.44287109 69.8046875 C35.81804832 73.14042475 34.58438246 74.31822541 31.95703125 76.3984375 C29.39453125 76.8984375 29.39453125 76.8984375 26.95703125 76.3984375 C24.14079016 73.43406204 23.5892798 71.3704622 23.5859375 67.3359375 C23.56853516 66.37429688 23.55113281 65.41265625 23.53320312 64.421875 C23.5240886 62.40626388 23.51888021 60.39063131 23.51757812 58.375 C23.52159013 52.71690094 23.52159013 52.71690094 21.109375 47.7734375 C17.41517918 45.41344307 14.05889249 45.15879265 9.76953125 44.8359375 C8.68285156 44.75214844 7.59617187 44.66835937 6.4765625 44.58203125 C5.22939453 44.49115234 5.22939453 44.49115234 3.95703125 44.3984375 C3.97797852 45.22569336 3.99892578 46.05294922 4.02050781 46.90527344 C4.10364744 50.6528712 4.15568656 54.40027499 4.20703125 58.1484375 C4.24054688 59.45039063 4.2740625 60.75234375 4.30859375 62.09375 C4.32148438 63.34414063 4.334375 64.59453125 4.34765625 65.8828125 C4.36860352 67.03491211 4.38955078 68.18701172 4.41113281 69.37402344 C3.86093561 73.03845514 2.87043674 74.18307704 -0.04296875 76.3984375 C-2.60546875 76.8984375 -2.60546875 76.8984375 -5.04296875 76.3984375 C-7.41273453 74.05503503 -8.01158186 72.6522293 -8.42391968 69.31809998 C-8.42630646 68.11025345 -8.42869324 66.90240692 -8.43115234 65.65795898 C-8.4364093 64.98919739 -8.44166626 64.32043579 -8.44708252 63.63140869 C-8.46025568 61.42720997 -8.45155561 59.22373694 -8.44140625 57.01953125 C-8.44342753 55.48543662 -8.44633943 53.95134293 -8.45010376 52.41725159 C-8.45452325 49.2052392 -8.44810746 45.99347737 -8.43408203 42.78149414 C-8.41697567 38.6631375 -8.42684246 34.54536675 -8.44479942 30.42703152 C-8.45563524 27.26060056 -8.45219216 24.09430874 -8.44441605 20.92787361 C-8.44241421 19.40921014 -8.44487274 17.89053404 -8.45185471 16.3718853 C-8.45946778 14.25075632 -8.44786922 12.13057947 -8.43115234 10.00952148 C-8.42876556 8.80247055 -8.42637878 7.59541962 -8.42391968 6.35179138 C-8.04296875 3.3984375 -8.04296875 3.3984375 -6.66401672 1.50950623 C-4.3941998 -0.04622972 -2.73687795 0.01032506 0 0 Z " fill="#020200" transform="translate(338.04296875,201.6015625)"/>
<path d="M0 0 C0.99193359 -0.00386719 1.98386719 -0.00773438 3.00585938 -0.01171875 C4.55950195 0.00568359 4.55950195 0.00568359 6.14453125 0.0234375 C7.16095703 0.01183594 8.17738281 0.00023437 9.22460938 -0.01171875 C16.66476835 0.01710046 22.69226214 0.74106729 28.64453125 5.5859375 C29.40765625 6.5140625 30.17078125 7.4421875 30.95703125 8.3984375 C31.42367187 8.96433594 31.8903125 9.53023437 32.37109375 10.11328125 C35.85227063 14.8682966 36.65879081 18.8558271 36.390625 24.71484375 C35.73063628 28.79963881 34.0886647 31.90535933 31.95703125 35.3984375 C31.28011389 36.72659604 30.61071064 38.05868921 29.95703125 39.3984375 C30.88515625 40.5121875 30.88515625 40.5121875 31.83203125 41.6484375 C36.58002425 47.79289903 36.3230866 52.81337418 36.33203125 60.3984375 C36.35652344 61.4915625 36.38101563 62.5846875 36.40625 63.7109375 C36.41205078 65.28875 36.41205078 65.28875 36.41796875 66.8984375 C36.42618652 67.8575 36.4344043 68.8165625 36.44287109 69.8046875 C35.81804832 73.14042475 34.58438246 74.31822541 31.95703125 76.3984375 C29.39453125 76.8984375 29.39453125 76.8984375 26.95703125 76.3984375 C24.14079016 73.43406204 23.5892798 71.3704622 23.5859375 67.3359375 C23.56853516 66.37429688 23.55113281 65.41265625 23.53320312 64.421875 C23.5240886 62.40626388 23.51888021 60.39063131 23.51757812 58.375 C23.52159013 52.71690094 23.52159013 52.71690094 21.109375 47.7734375 C17.41517918 45.41344307 14.05889249 45.15879265 9.76953125 44.8359375 C8.68285156 44.75214844 7.59617188 44.66835937 6.4765625 44.58203125 C5.22939453 44.49115234 5.22939453 44.49115234 3.95703125 44.3984375 C3.97797852 45.22569336 3.99892578 46.05294922 4.02050781 46.90527344 C4.10364744 50.6528712 4.15568656 54.40027499 4.20703125 58.1484375 C4.24054688 59.45039063 4.2740625 60.75234375 4.30859375 62.09375 C4.32148438 63.34414063 4.334375 64.59453125 4.34765625 65.8828125 C4.36860352 67.03491211 4.38955078 68.18701172 4.41113281 69.37402344 C3.86093561 73.03845514 2.87043674 74.18307704 -0.04296875 76.3984375 C-2.60546875 76.8984375 -2.60546875 76.8984375 -5.04296875 76.3984375 C-7.41273453 74.05503503 -8.01158186 72.6522293 -8.42391968 69.31809998 C-8.42630646 68.11025345 -8.42869324 66.90240692 -8.43115234 65.65795898 C-8.4364093 64.98919739 -8.44166626 64.32043579 -8.44708252 63.63140869 C-8.46025568 61.42720997 -8.45155561 59.22373694 -8.44140625 57.01953125 C-8.44342753 55.48543662 -8.44633943 53.95134293 -8.45010376 52.41725159 C-8.45452325 49.2052392 -8.44810746 45.99347737 -8.43408203 42.78149414 C-8.41697567 38.6631375 -8.42684246 34.54536675 -8.44479942 30.42703152 C-8.45563524 27.26060056 -8.45219216 24.09430874 -8.44441605 20.92787361 C-8.44241421 19.40921014 -8.44487274 17.89053404 -8.45185471 16.3718853 C-8.45946778 14.25075632 -8.44786922 12.13057947 -8.43115234 10.00952148 C-8.42876556 8.80247055 -8.42637878 7.59541962 -8.42391968 6.35179138 C-8.04296875 3.3984375 -8.04296875 3.3984375 -6.66401672 1.50950623 C-4.3941998 -0.04622972 -2.73687795 0.01032506 0 0 Z " fill="#020200" transform="translate(226.04296875,201.6015625)"/>
<path d="M0 0 C5.87529418 3.25573627 8.7563121 8.2001242 11.6875 14.0625 C11.79856292 15.82806079 11.84670218 17.59773821 11.86450195 19.36669922 C11.88375481 21.02884964 11.88375481 21.02884964 11.90339661 22.72457886 C11.91078354 23.92663971 11.91817047 25.12870056 11.92578125 26.3671875 C11.933853 27.59784943 11.94192474 28.82851135 11.95024109 30.09646606 C11.96409032 32.70410753 11.9748087 35.31176719 11.98266602 37.91943359 C11.99153561 40.59479481 12.01242948 43.26963822 12.04418945 45.94482422 C12.0866954 49.79410586 12.10301205 53.64270082 12.11328125 57.4921875 C12.13078934 58.69019989 12.14829742 59.88821228 12.16633606 61.12252808 C12.16341049 62.23693268 12.16048492 63.35133728 12.1574707 64.49951172 C12.16333694 65.47943085 12.16920319 66.45934998 12.17524719 67.46896362 C11.54817995 70.80331743 10.3164894 71.98529658 7.6875 74.0625 C5.125 74.5625 5.125 74.5625 2.6875 74.0625 C0.3357308 71.72513727 -0.27895138 70.3604214 -0.65307617 67.03808594 C-0.63736572 65.88598633 -0.62165527 64.73388672 -0.60546875 63.546875 C-0.59580078 62.29648437 -0.58613281 61.04609375 -0.57617188 59.7578125 C-0.55103516 58.45585937 -0.52589844 57.15390625 -0.5 55.8125 C-0.47969727 53.83636719 -0.47969727 53.83636719 -0.45898438 51.8203125 C-0.42362809 48.567534 -0.36982152 45.31496557 -0.3125 42.0625 C-6.9125 42.0625 -13.5125 42.0625 -20.3125 42.0625 C-20.26609375 44.03734375 -20.2196875 46.0121875 -20.171875 48.046875 C-20.13436012 50.63540157 -20.09795966 53.22394446 -20.0625 55.8125 C-20.02898437 57.11445313 -19.99546875 58.41640625 -19.9609375 59.7578125 C-19.94804687 61.00820313 -19.93515625 62.25859375 -19.921875 63.546875 C-19.90092773 64.69897461 -19.87998047 65.85107422 -19.85839844 67.03808594 C-20.40859564 70.70251764 -21.39909451 71.84713954 -24.3125 74.0625 C-26.875 74.5625 -26.875 74.5625 -29.3125 74.0625 C-32.24400194 71.01123651 -32.69846318 68.79115896 -32.74829102 64.62646484 C-32.76743057 63.53788177 -32.78657013 62.44929871 -32.80628967 61.32772827 C-32.80962814 60.15481232 -32.81296661 58.98189636 -32.81640625 57.7734375 C-32.82639145 56.55983551 -32.83637665 55.34623352 -32.84666443 54.09585571 C-32.8618568 51.52536427 -32.86888988 48.95481364 -32.8684082 46.38427734 C-32.87494134 42.47262338 -32.92934014 38.56354541 -32.98632812 34.65234375 C-32.99513599 32.15105031 -33.00108632 29.64974486 -33.00390625 27.1484375 C-33.0254628 25.98766693 -33.04701935 24.82689636 -33.06922913 23.63095093 C-33.00275922 15.65521479 -31.23678643 10.37776473 -26.3125 4.0625 C-18.75842314 -3.18249025 -9.403884 -4.03225011 0 0 Z " fill="#020200" transform="translate(306.3125,203.9375)"/>
<path d="M0 0 C0.87935211 0.00424484 1.75870422 0.00848969 2.66470337 0.01286316 C5.45647592 0.02957414 8.24751038 0.06721183 11.0390625 0.10546875 C12.93879161 0.12052541 14.83853211 0.13421209 16.73828125 0.14648438 C21.38049008 0.17945277 26.02215141 0.23118222 30.6640625 0.29296875 C30.6640625 3.59296875 30.6640625 6.89296875 30.6640625 10.29296875 C29.10816406 10.33035156 27.55226563 10.36773437 25.94921875 10.40625 C23.87497751 10.47194995 21.8007598 10.53839587 19.7265625 10.60546875 C18.70498047 10.62802734 17.68339844 10.65058594 16.63085938 10.67382812 C8.72108461 10.95180743 1.41325448 11.46846429 -4.3359375 17.29296875 C-4.9959375 17.29296875 -5.6559375 17.29296875 -6.3359375 17.29296875 C-7.62647992 19.87260487 -8.9144665 22.45348577 -10.19946289 25.03588867 C-12.17182144 28.99843843 -14.1466457 32.95975402 -16.12231445 36.9206543 C-16.97556422 38.63221424 -17.82809928 40.34413067 -18.67993164 42.05639648 C-19.90845417 44.5255114 -21.13951335 46.99334672 -22.37109375 49.4609375 C-22.75338638 50.23068405 -23.13567902 51.0004306 -23.52955627 51.79350281 C-26.22206625 57.1790975 -26.22206625 57.1790975 -27.3359375 58.29296875 C-29.31389479 58.41497395 -31.29587222 58.47274699 -33.27734375 58.50390625 C-34.50130859 58.53226563 -35.72527344 58.560625 -36.98632812 58.58984375 C-39.56692246 58.64137833 -42.14766984 58.68580583 -44.72851562 58.72265625 C-53.02897891 58.93092715 -60.5118163 59.3013393 -67.0859375 64.98046875 C-67.61703125 65.41746094 -68.148125 65.85445313 -68.6953125 66.3046875 C-71.09256616 69.05850929 -71.09256616 69.05850929 -74.3359375 76.29296875 C-80.6059375 76.29296875 -86.8759375 76.29296875 -93.3359375 76.29296875 C-94.06322094 60.0018197 -94.06322094 60.0018197 -89.98869324 55.02108765 C-86.06982765 50.92352772 -81.62391442 48.08923428 -75.89526367 47.68115234 C-74.30660691 47.66061684 -72.71747607 47.66498774 -71.12890625 47.69140625 C-70.2816951 47.68339996 -69.43448395 47.67539368 -68.56159973 47.66714478 C-65.88171288 47.64423804 -63.20336272 47.65348919 -60.5234375 47.66796875 C-57.82595108 47.67181715 -55.12912818 47.66841234 -52.43171692 47.64736938 C-50.76011648 47.63527958 -49.0883286 47.63795083 -47.41679382 47.65707397 C-43.2748379 47.77465129 -43.2748379 47.77465129 -39.71170044 45.98031616 C-37.4597098 43.21829193 -36.06292975 40.00521508 -34.53515625 36.80859375 C-33.79774229 35.30067548 -33.06010489 33.79286646 -32.32226562 32.28515625 C-31.17341378 29.91942682 -30.02787548 27.55218602 -28.88696289 25.18261719 C-27.77865868 22.88679273 -26.65760754 20.59752751 -25.53515625 18.30859375 C-25.20368088 17.61042542 -24.87220551 16.91225708 -24.53068542 16.19293213 C-21.57416507 10.18981491 -18.11082063 5.20073124 -12.54443359 1.3737793 C-8.27143961 -0.06561686 -4.47693065 -0.08213449 0 0 Z " fill="#7B8EA6" transform="translate(107.3359375,93.70703125)"/>
<path d="M0 0 C33 0 66 0 100 0 C100 6.6 100 13.2 100 20 C67 20 34 20 0 20 C0 13.4 0 6.8 0 0 Z " fill="#697E91" transform="translate(350,310)"/>
<path d="M0 0 C33 0 66 0 100 0 C100 6.6 100 13.2 100 20 C67 20 34 20 0 20 C0 13.4 0 6.8 0 0 Z " fill="#697E91" transform="translate(206,310)"/>
<path d="M0 0 C33 0 66 0 100 0 C100 6.6 100 13.2 100 20 C67 20 34 20 0 20 C0 13.4 0 6.8 0 0 Z " fill="#697E91" transform="translate(62,310)"/>
<path d="M0 0 C3.96 0 7.92 0 12 0 C12.01213028 1.86921867 12.01213028 1.86921867 12.02450562 3.77619934 C12.10189741 15.50412493 12.18961897 27.23193351 12.28752708 38.95970631 C12.33753198 44.98947143 12.38386166 51.01921867 12.421875 57.04907227 C12.45867479 62.86519549 12.50502027 68.68117061 12.55806351 74.49716759 C12.5766357 76.71915789 12.59173314 78.94117996 12.60334396 81.16321754 C12.62015803 84.26887901 12.64918143 87.37419918 12.68115234 90.47973633 C12.68331253 91.40402435 12.68547272 92.32831238 12.68769836 93.28060913 C12.69886185 94.12614853 12.71002533 94.97168793 12.7215271 95.84284973 C12.72705786 96.57751874 12.73258862 97.31218775 12.73828697 98.06911945 C12.90056961 100.32526688 12.90056961 100.32526688 15 103 C16.89241415 103.45805043 16.89241415 103.45805043 19.078125 103.40625 C19.90256104 103.42598877 20.72699707 103.44572754 21.57641602 103.46606445 C22.45869873 103.47726318 23.34098145 103.48846191 24.25 103.5 C39.43220166 103.98126454 53.93910673 106.87322197 67 115 C67 115.33 67 115.66 67 116 C44.89 116 22.78 116 0 116 C0 77.72 0 39.44 0 0 Z " fill="#DFF2FD" transform="translate(174,30)"/>
<path d="M0 0 C3.96 0 7.92 0 12 0 C12 38.28 12 76.56 12 116 C-10.11 116 -32.22 116 -55 116 C-42.3755665 105.9004532 -28.69158519 104.59875597 -12.91992188 103.828125 C-11.81068359 103.76109375 -10.70144531 103.6940625 -9.55859375 103.625 C-8.56142334 103.57601562 -7.56425293 103.52703125 -6.53686523 103.4765625 C-3.57805875 102.92073628 -2.83734274 102.32636757 -1 100 C-0.54478485 98.03335553 -0.54478485 98.03335553 -0.60127258 95.84284973 C-0.58873444 94.99731033 -0.57619629 94.15177094 -0.5632782 93.28060913 C-0.56471329 92.35632111 -0.56614838 91.43203308 -0.56762695 90.47973633 C-0.5574353 89.50394119 -0.54724365 88.52814606 -0.53674316 87.52278137 C-0.50651174 84.2924737 -0.49733163 81.06246205 -0.48828125 77.83203125 C-0.47144211 75.59428412 -0.45329292 73.3565465 -0.43388367 71.11882019 C-0.38629461 65.22517872 -0.3565428 59.33157577 -0.33044434 53.43780518 C-0.30068375 47.42525625 -0.254138 41.41284017 -0.20898438 35.40039062 C-0.12284991 23.60032978 -0.05554973 11.80024167 0 0 Z " fill="#F2F9FD" transform="translate(326,30)"/>
<path d="M0 0 C4.14222111 1.28491612 4.480984 1.71009895 6.55078125 5.265625 C7.42338299 6.98563178 8.26898141 8.71955233 9.08984375 10.46484375 C9.74533203 11.76711914 9.74533203 11.76711914 10.4140625 13.09570312 C12.22522762 16.74887364 13.84740962 20.15225597 14.71484375 24.15234375 C15.37484375 24.15234375 16.03484375 24.15234375 16.71484375 24.15234375 C16.95074219 23.34410156 17.18664062 22.53585938 17.4296875 21.703125 C19.0057774 17.34851795 21.08169466 13.40855841 23.27734375 9.33984375 C23.68919922 8.56447266 24.10105469 7.78910156 24.52539062 6.99023438 C27.56711114 1.30007636 27.56711114 1.30007636 28.71484375 0.15234375 C35.31484375 0.75234375 35.31484375 0.75234375 37.71484375 3.15234375 C37.41419945 8.30545177 36.00234676 12.20448702 33.71142578 16.7902832 C33.40398437 17.41232132 33.09654297 18.03435944 32.77978516 18.67524719 C31.77057608 20.71044413 30.74714388 22.73808171 29.72265625 24.765625 C29.01318152 26.18540379 28.3043598 27.60550907 27.59616089 29.02592468 C26.11457055 31.99195554 24.62605093 34.95437003 23.13232422 37.91430664 C21.21784552 41.70908421 19.31960911 45.51171355 17.42627144 49.31707478 C15.9669678 52.24624279 14.49989748 55.17146465 13.03036118 58.09551048 C12.32720871 59.49663316 11.62631962 60.89889408 10.92773819 62.30230141 C9.95193574 64.25935073 8.96597358 66.21093203 7.97705078 68.16137695 C7.41825226 69.27277542 6.85945374 70.38417389 6.28372192 71.5292511 C4.71484375 74.15234375 4.71484375 74.15234375 1.71484375 76.15234375 C-0.78515625 76.52734375 -0.78515625 76.52734375 -3.28515625 76.15234375 C-5.16015625 74.58984375 -5.16015625 74.58984375 -6.28515625 72.15234375 C-5.90799825 67.09812421 -4.68669927 63.40500836 -2.30859375 58.95703125 C-1.426875 57.26513672 -1.426875 57.26513672 -0.52734375 55.5390625 C0.41003831 53.77607824 1.34747403 52.01311336 2.29101562 50.25341797 C3.20715821 48.5358887 4.10577799 46.80904881 5.00390625 45.08203125 C5.54740723 44.06351074 6.0909082 43.04499023 6.65087891 41.99560547 C8.2719322 37.66362138 7.27324955 35.38077392 5.40795898 31.27734375 C4.86856689 30.24609375 4.3291748 29.21484375 3.7734375 28.15234375 C2.89848633 26.45078125 2.89848633 26.45078125 2.00585938 24.71484375 C1.07881898 22.92910485 0.14857085 21.14514943 -0.78588867 19.36328125 C-1.69147267 17.6308182 -2.58418243 15.89164488 -3.4765625 14.15234375 C-4.01482666 13.12109375 -4.55309082 12.08984375 -5.10766602 11.02734375 C-6.30558124 8.10247339 -6.62168597 6.27110149 -6.28515625 3.15234375 C-4.56829337 0.12258572 -3.49430498 0.16204268 0 0 Z " fill="#040301" transform="translate(392.28515625,201.84765625)"/>
<path d="M0 0 C3.4375 0.8125 3.4375 0.8125 5.4375 2.8125 C5.67800903 5.36880493 5.67800903 5.36880493 5.66455078 8.63916016 C5.66439972 9.86027496 5.66424866 11.08138977 5.66409302 12.33950806 C5.65387903 13.67686118 5.64344702 15.01421265 5.6328125 16.3515625 C5.6290828 17.71633701 5.62623563 19.08111419 5.62423706 20.44589233 C5.61659714 24.03970723 5.59694572 27.63336073 5.5748291 31.22711182 C5.55437832 34.89357317 5.545237 38.56006057 5.53515625 42.2265625 C5.51370003 49.42194862 5.47955992 56.6172017 5.4375 63.8125 C6.26475586 63.79678955 7.09201172 63.7810791 7.94433594 63.76489258 C11.69198777 63.70253696 15.43953045 63.66350654 19.1875 63.625 C20.48945312 63.59986328 21.79140625 63.57472656 23.1328125 63.54882812 C25.00839844 63.53432617 25.00839844 63.53432617 26.921875 63.51953125 C28.07397461 63.5038208 29.22607422 63.48811035 30.41308594 63.47192383 C33.70508786 63.8426328 35.04445077 64.58634798 37.4375 66.8125 C37.125 70.1875 37.125 70.1875 36.4375 73.8125 C32.64423681 76.34134213 29.55498684 76.13595713 25.15625 76.1484375 C24.3463562 76.1550943 23.5364624 76.1617511 22.70202637 76.16860962 C20.99066437 76.17872907 19.27926298 76.18342686 17.56787109 76.18310547 C14.94693311 76.18748424 12.32767187 76.22382404 9.70703125 76.26171875 C8.0442766 76.26758593 6.38151394 76.27155598 4.71875 76.2734375 C3.93431519 76.28780853 3.14988037 76.30217957 2.3416748 76.31698608 C-3.0758938 76.27137435 -3.0758938 76.27137435 -5.26882935 74.20341492 C-6.989209 71.02387199 -6.94354821 68.68293244 -6.95068359 65.07202148 C-6.95594055 64.40325989 -6.96119751 63.73449829 -6.96661377 63.04547119 C-6.97978693 60.84127247 -6.97108686 58.63779944 -6.9609375 56.43359375 C-6.96295878 54.89949912 -6.96587068 53.36540543 -6.96963501 51.83131409 C-6.9740545 48.6193017 -6.96763871 45.40753987 -6.95361328 42.19555664 C-6.93650692 38.0772 -6.94637371 33.95942925 -6.96433067 29.84109402 C-6.97516649 26.67466306 -6.97172341 23.50837124 -6.9639473 20.34193611 C-6.96194546 18.82327264 -6.96440399 17.30459654 -6.97138596 15.7859478 C-6.97899903 13.66481882 -6.96740047 11.54464197 -6.95068359 9.42358398 C-6.94829681 8.21653305 -6.94591003 7.00948212 -6.94345093 5.76585388 C-6.5625 2.8125 -6.5625 2.8125 -5.26089478 0.8875885 C-3.5625 -0.1875 -3.5625 -0.1875 0 0 Z " fill="#010100" transform="translate(88.5625,202.1875)"/>
<path d="M0 0 C3.4375 0.8125 3.4375 0.8125 5.4375 2.8125 C5.70492554 5.64559937 5.70492554 5.64559937 5.72802734 9.31005859 C5.73810318 10.31035347 5.73810318 10.31035347 5.74838257 11.33085632 C5.76741945 13.54095867 5.77128971 15.75075821 5.7734375 17.9609375 C5.77986208 19.49549485 5.78659018 21.03005096 5.79360962 22.56460571 C5.80559701 25.7843103 5.80928901 29.00390748 5.80810547 32.22363281 C5.80790233 36.34875618 5.83519227 40.47319023 5.86964989 44.59815025 C5.89189358 47.76890217 5.89594378 50.93948764 5.89488602 54.1103096 C5.89724627 55.63096108 5.90609375 57.15161686 5.92155075 58.67219162 C5.94115879 60.8006682 5.93539481 62.92765147 5.92333984 65.05615234 C5.92618988 66.26701508 5.92903992 67.47787781 5.93197632 68.72543335 C5.3414009 72.41245659 4.38238449 73.58774904 1.4375 75.8125 C-1.125 76.3125 -1.125 76.3125 -3.5625 75.8125 C-5.93226578 73.46909753 -6.53111311 72.0662918 -6.94345093 68.73216248 C-6.94583771 67.52431595 -6.94822449 66.31646942 -6.95068359 65.07202148 C-6.95594055 64.40325989 -6.96119751 63.73449829 -6.96661377 63.04547119 C-6.97978693 60.84127247 -6.97108686 58.63779944 -6.9609375 56.43359375 C-6.96295878 54.89949912 -6.96587068 53.36540543 -6.96963501 51.83131409 C-6.9740545 48.6193017 -6.96763871 45.40753987 -6.95361328 42.19555664 C-6.93650692 38.0772 -6.94637371 33.95942925 -6.96433067 29.84109402 C-6.97516649 26.67466306 -6.97172341 23.50837124 -6.9639473 20.34193611 C-6.96194546 18.82327264 -6.96440399 17.30459654 -6.97138596 15.7859478 C-6.97899903 13.66481882 -6.96740047 11.54464197 -6.95068359 9.42358398 C-6.94829681 8.21653305 -6.94591003 7.00948212 -6.94345093 5.76585388 C-6.5625 2.8125 -6.5625 2.8125 -5.26089478 0.8875885 C-3.5625 -0.1875 -3.5625 -0.1875 0 0 Z " fill="#010100" transform="translate(144.5625,202.1875)"/>
<path d="M0 0 C5.40766124 -0.09940554 10.81478228 -0.17172051 16.22314453 -0.21972656 C18.06015293 -0.23975373 19.89709829 -0.26698382 21.73388672 -0.30175781 C24.38525002 -0.35067065 27.03576541 -0.37305763 29.6875 -0.390625 C30.49928711 -0.41127014 31.31107422 -0.43191528 32.14746094 -0.45318604 C37.88793133 -0.45540896 42.20399807 0.78410754 47 4 C51 8.2 51 8.2 51 11 C34.17 10.67 17.34 10.34 0 10 C0 6.7 0 3.4 0 0 Z " fill="#7C8FA7" transform="translate(374,94)"/>
<path d="M0 0 C3.93539483 0.2997155 6.68003836 0.81811425 10.171875 2.7421875 C13.40412633 8.26829461 12.40392881 13.7512359 12.109375 20.0546875 C5.509375 20.0546875 -1.090625 20.0546875 -7.890625 20.0546875 C-8.49245666 7.17548994 -8.49245666 7.17548994 -6.8125 4.046875 C-5.453125 2.7421875 -5.453125 2.7421875 -2.890625 1.0546875 C-1.890625 0.0546875 -1.890625 0.0546875 0 0 Z " fill="#FADB55" transform="translate(293.890625,213.9453125)"/>
<path d="M0 0 C13.16037736 -0.43867925 13.16037736 -0.43867925 18 3 C20.48386059 6.72579089 20.3804212 8.58711402 20 13 C18.67529088 16.13746898 17.82941566 17.57799098 14.78125 19.12890625 C11.60310288 20.12430907 9.01040163 20.19803081 5.6875 20.125 C3.810625 20.08375 1.93375 20.0425 0 20 C0 13.4 0 6.8 0 0 Z " fill="#FBDC55" transform="translate(342,214)"/>
<path d="M0 0 C13.16037736 -0.43867925 13.16037736 -0.43867925 18 3 C20.48386059 6.72579089 20.3804212 8.58711402 20 13 C18.67529088 16.13746898 17.82941566 17.57799098 14.78125 19.12890625 C11.60310288 20.12430907 9.01040163 20.19803081 5.6875 20.125 C3.810625 20.08375 1.93375 20.0425 0 20 C0 13.4 0 6.8 0 0 Z " fill="#FBDC55" transform="translate(230,214)"/>
<path d="M0 0 C13.16037736 -0.43867925 13.16037736 -0.43867925 18 3 C20.51366887 6.77050331 20.13806124 8.5115159 19.546875 12.83984375 C18.78581987 15.84601151 17.50881929 17.22906874 15 19 C10.09931037 20.63356321 5.14261524 20.05529694 0 20 C0 13.4 0 6.8 0 0 Z " fill="#FBDC55" transform="translate(174,246)"/>
<path d="M0 0 C1.75 1.3046875 1.75 1.3046875 3 3 C2.875 6.5625 2.875 6.5625 2 10 C-1.48187753 12.32125169 -4.87171039 13.15122685 -8.875 14.125 C-9.58269531 14.30675781 -10.29039062 14.48851563 -11.01953125 14.67578125 C-14.72273962 15.59296321 -18.18118553 16.40384494 -22 16 C-24.2855347 13.87208838 -24.92303658 12.52591672 -25.375 9.4375 C-24.91359543 6.43837031 -24.34790002 5.87437397 -22 4 C-14.83352013 1.03216415 -7.74673878 -0.8746318 0 0 Z " fill="#080809" transform="translate(299,94)"/>
<path d="M0 0 C1.75 1.3046875 1.75 1.3046875 3 3 C2.875 6.5625 2.875 6.5625 2 10 C-1.48187753 12.32125169 -4.87171039 13.15122685 -8.875 14.125 C-9.58269531 14.30675781 -10.29039062 14.48851563 -11.01953125 14.67578125 C-14.72273962 15.59296321 -18.18118553 16.40384494 -22 16 C-24.2855347 13.87208838 -24.92303658 12.52591672 -25.375 9.4375 C-24.91359543 6.43837031 -24.34790002 5.87437397 -22 4 C-14.83352013 1.03216415 -7.74673878 -0.8746318 0 0 Z " fill="#080809" transform="translate(299,64)"/>
<path d="M0 0 C1.75 1.3046875 1.75 1.3046875 3 3 C2.875 6.5625 2.875 6.5625 2 10 C-1.48187753 12.32125169 -4.87171039 13.15122685 -8.875 14.125 C-9.58269531 14.30675781 -10.29039062 14.48851562 -11.01953125 14.67578125 C-14.72273962 15.59296321 -18.18118553 16.40384494 -22 16 C-24.2855347 13.87208838 -24.92303658 12.52591672 -25.375 9.4375 C-24.91359543 6.43837031 -24.34790002 5.87437397 -22 4 C-14.83352013 1.03216415 -7.74673878 -0.8746318 0 0 Z " fill="#080809" transform="translate(299,34)"/>
<path d="M0 0 C9.77466069 2.85551885 9.77466069 2.85551885 13.7265625 6.203125 C13.4140625 9.578125 13.4140625 9.578125 12.7265625 13.203125 C9.38858156 15.42844562 8.16341085 15.35278904 4.32421875 14.75 C-11.45711097 11.4276148 -11.45711097 11.4276148 -14.2734375 7.203125 C-14.61851224 4.44252707 -14.62542162 2.84109622 -13.2734375 0.390625 C-8.99081339 -2.15218306 -4.59318006 -1.11814885 0 0 Z " fill="#070808" transform="translate(224.2734375,94.796875)"/>
<path d="M0 0 C9.77466069 2.85551885 9.77466069 2.85551885 13.7265625 6.203125 C13.4140625 9.578125 13.4140625 9.578125 12.7265625 13.203125 C9.38858156 15.42844562 8.16341085 15.35278904 4.32421875 14.75 C-11.45711097 11.4276148 -11.45711097 11.4276148 -14.2734375 7.203125 C-14.61851224 4.44252707 -14.62542162 2.84109622 -13.2734375 0.390625 C-8.99081339 -2.15218306 -4.59318006 -1.11814885 0 0 Z " fill="#070808" transform="translate(224.2734375,64.796875)"/>
<path d="M0 0 C9.77466069 2.85551885 9.77466069 2.85551885 13.7265625 6.203125 C13.4140625 9.578125 13.4140625 9.578125 12.7265625 13.203125 C9.38858156 15.42844562 8.16341085 15.35278904 4.32421875 14.75 C-11.45711097 11.4276148 -11.45711097 11.4276148 -14.2734375 7.203125 C-14.61851224 4.44252707 -14.62542162 2.84109622 -13.2734375 0.390625 C-8.99081339 -2.15218306 -4.59318006 -1.11814885 0 0 Z " fill="#070808" transform="translate(224.2734375,34.796875)"/>
<path d="M0 0 C9.33333333 0 9.33333333 0 14 3 C16.51366887 6.77050331 16.13806124 8.5115159 15.546875 12.83984375 C14.78581987 15.84601151 13.50881929 17.22906874 11 19 C8 20 8 20 0 20 C0 13.4 0 6.8 0 0 Z " fill="#FBDB55" transform="translate(174,214)"/>
<path d="M0 0 C3.3 0 6.6 0 10 0 C10 3.3 10 6.6 10 10 C6.7 10 3.4 10 0 10 C0 6.7 0 3.4 0 0 Z " fill="#FFDF57" transform="translate(30,182)"/>
</svg>
