<?xml version="1.0" encoding="UTF-8"?>
<svg version="1.1" xmlns="http://www.w3.org/2000/svg" width="512" height="512">
<path d="M0 0 C3.4471633 2.85622102 5.76541895 5.54625684 7.1875 9.8125 C7.1875 17.4025 7.1875 24.9925 7.1875 32.8125 C27.6475 32.8125 48.1075 32.8125 69.1875 32.8125 C69.1875 24.8925 69.1875 16.9725 69.1875 8.8125 C73.91722973 0.53547297 73.91722973 0.53547297 79.1875 -1.1875 C85.58252944 -1.89805883 89.01527443 -1.04131513 94.1875 2.8125 C97.1875 8.8125 97.1875 8.8125 97.1875 32.8125 C117.6475 32.8125 138.1075 32.8125 159.1875 32.8125 C159.1875 24.8925 159.1875 16.9725 159.1875 8.8125 C163.91722973 0.53547297 163.91722973 0.53547297 169.1875 -1.1875 C175.58252944 -1.89805883 179.01527443 -1.04131513 184.1875 2.8125 C187.1875 8.8125 187.1875 8.8125 187.1875 32.8125 C207.6475 32.8125 228.1075 32.8125 249.1875 32.8125 C249.1875 25.2225 249.1875 17.6325 249.1875 9.8125 C253.7875 0.6125 253.7875 0.6125 259.1875 -1.1875 C263.87881123 -1.73258569 267.29080648 -1.63584676 271.5625 0.5 C275.00404532 3.53183755 276.97712777 6.04431768 277.52807617 10.67504883 C277.51236572 11.69622803 277.49665527 12.71740723 277.48046875 13.76953125 C277.47080078 14.88134766 277.46113281 15.99316406 277.45117188 17.13867188 C277.42603516 18.28916016 277.40089844 19.43964844 277.375 20.625 C277.36146484 21.79482422 277.34792969 22.96464844 277.33398438 24.16992188 C277.29870278 27.051252 277.2494028 29.93163904 277.1875 32.8125 C278.16847656 32.77769531 279.14945312 32.74289063 280.16015625 32.70703125 C300.17113721 32.21188326 317.467544 37.07132547 333.1875 49.8125 C334.24710937 50.62654297 334.24710937 50.62654297 335.328125 51.45703125 C348.9155858 62.45003595 357.68268323 79.62236064 360.1875 96.8125 C360.88439004 105.69010533 360.74374856 114.61386227 360.71039867 123.51275051 C360.70126151 127.12635347 360.71536042 130.73988218 360.72631836 134.35346985 C360.74401726 141.41344976 360.74030222 148.47325867 360.7286678 155.53324502 C360.71959881 161.27647095 360.71842438 167.01964928 360.72276306 172.76288033 C360.72337599 173.58328606 360.72398893 174.40369179 360.72462043 175.24895831 C360.72589946 176.91610961 360.72719632 178.5832609 360.7285108 180.25041217 C360.7398915 195.84921624 360.72684279 211.44792597 360.70530933 227.04671455 C360.68744398 240.40122606 360.69054268 253.75559843 360.70898438 267.11010742 C360.73044137 282.65520103 360.73878959 298.20021212 360.72653532 313.74531847 C360.72526126 315.40631361 360.72400377 317.06730875 360.72276306 318.72830391 C360.72183741 319.95384688 360.72183741 319.95384688 360.72089306 321.2041483 C360.71745436 326.93309019 360.72323645 332.6619793 360.73268127 338.39091301 C360.74395665 345.38326645 360.74074597 352.37544053 360.7195583 359.3677737 C360.70912119 362.92835387 360.70479861 366.48863615 360.71815491 370.04921341 C360.810778 396.96744155 357.17536587 418.11185654 337.953125 438.140625 C325.12607729 450.46465123 307.23688283 458.914717 289.27770424 458.94672108 C288.11217101 458.95117892 286.94663778 458.95563676 285.74578536 458.96022969 C284.47459959 458.96004533 283.20341382 458.95986097 281.89370728 458.95967102 C280.52224765 458.96297297 279.150789 458.96669924 277.77933156 458.9708125 C274.01565034 458.98080318 270.25198506 458.98454457 266.48829246 458.98720181 C262.4266974 458.99111366 258.36511487 459.00069145 254.30352783 459.00941467 C244.49645018 459.02915552 234.68937153 459.03924283 224.88227898 459.04814246 C220.25900618 459.05252976 215.63573452 459.05789547 211.01246262 459.06313133 C195.6346873 459.08014217 180.25691269 459.09463464 164.87912941 459.10188007 C160.890611 459.10378984 156.9020926 459.10571019 152.91357422 459.10766602 C151.92229886 459.10814976 150.9310235 459.1086335 149.9097095 459.1091319 C133.86447904 459.11742589 117.81932328 459.1427528 101.77412541 459.17524669 C85.28471576 459.2083667 68.79534401 459.22633334 52.30590093 459.22952431 C43.05429601 459.23168497 33.80279998 459.24036822 24.55122757 459.26598549 C16.66935968 459.28776019 8.78762715 459.29570981 0.90573259 459.28601871 C-3.1104756 459.28149336 -7.12640491 459.28325626 -11.14257431 459.30278015 C-47.55728525 459.47006532 -47.55728525 459.47006532 -63.1875 451.0625 C-63.84758057 450.71815918 -64.50766113 450.37381836 -65.18774414 450.01904297 C-82.66635308 440.61587207 -94.54310014 425.16830426 -101.0234375 406.60546875 C-103.32911357 398.4442886 -104.10335296 391.01276537 -104.07992554 382.51791382 C-104.08672221 380.69690641 -104.08672221 380.69690641 -104.09365618 378.83911097 C-104.10408362 375.4906637 -104.10563339 372.14243219 -104.10326743 368.79398417 C-104.10285762 365.17417428 -104.11391415 361.55439587 -104.12338257 357.93460083 C-104.13995886 350.85012028 -104.14549061 343.76567301 -104.14660732 336.68117468 C-104.14755953 330.91825986 -104.15167845 325.15535597 -104.15800858 319.39244461 C-104.17561288 303.03101388 -104.18484888 286.66960932 -104.18334763 270.30816905 C-104.18326772 269.42707385 -104.1831878 268.54597865 -104.18310547 267.63818359 C-104.18302371 266.75600456 -104.18294195 265.87382553 -104.18285771 264.9649138 C-104.18204535 250.6780841 -104.20117244 236.39135996 -104.2293822 222.10456078 C-104.25816094 207.4129047 -104.27191971 192.72130001 -104.27019465 178.02961504 C-104.2695324 169.79028082 -104.27495179 161.55105723 -104.29655075 153.3117485 C-104.3148285 146.29471798 -104.3190562 139.27784822 -104.3055319 132.2608041 C-104.29903489 128.68620036 -104.2987652 125.11190443 -104.3162384 121.53733063 C-104.44259781 93.98115286 -104.44259781 93.98115286 -99.8125 81.8125 C-99.49840872 80.98342825 -99.18431744 80.1543565 -98.86070824 79.30016136 C-98.08266469 77.36457039 -97.21408324 75.53668074 -96.25 73.6875 C-95.74291504 72.70221313 -95.74291504 72.70221313 -95.22558594 71.69702148 C-84.90661928 52.54215041 -67.50609444 40.75848464 -46.91796875 34.57421875 C-40.69572392 33.04800775 -34.73928136 32.67430406 -28.375 32.75 C-27.64345703 32.75451172 -26.91191406 32.75902344 -26.15820312 32.76367188 C-24.37626581 32.77531852 -22.59437137 32.79324809 -20.8125 32.8125 C-20.8439209 31.72364502 -20.8439209 31.72364502 -20.87597656 30.61279297 C-20.9594365 27.30450445 -21.01125539 23.99643789 -21.0625 20.6875 C-21.09601563 19.54539062 -21.12953125 18.40328125 -21.1640625 17.2265625 C-21.23904044 10.77846 -21.26067766 6.66207859 -16.8125 1.8125 C-11.96435166 -2.34305572 -5.72654063 -2.41787271 0 0 Z " fill="#7979F6" transform="translate(127.8125,27.1875)"/>
<path d="M0 0 C1.14100851 -0.00507454 2.28201702 -0.01014909 3.45760155 -0.0153774 C4.70650988 -0.01587516 5.95541821 -0.01637292 7.24217224 -0.01688576 C8.58603352 -0.02090299 9.92989359 -0.02534164 11.27375221 -0.03016531 C14.96567128 -0.04210771 18.65757728 -0.04777384 22.34951186 -0.05234647 C26.33199526 -0.05831145 30.31446313 -0.06991906 34.29693604 -0.08063698 C43.91456953 -0.10514073 53.53220815 -0.11978529 63.14986324 -0.13269705 C65.8674644 -0.1364105 68.58506506 -0.14038361 71.30266571 -0.14444971 C88.18770844 -0.16968809 105.07275202 -0.19173571 121.95780945 -0.20417786 C125.8674571 -0.20710743 129.77710473 -0.21006911 133.68675232 -0.21308327 C135.14429255 -0.21420234 135.14429255 -0.21420234 136.63127804 -0.21534403 C152.36499181 -0.22799219 168.09859243 -0.26120925 183.83225334 -0.3028851 C199.99504252 -0.34534577 216.15777383 -0.36887767 232.32061863 -0.37409842 C241.39164387 -0.37750787 250.46249229 -0.38920804 259.53346252 -0.42220116 C267.2602849 -0.45025968 274.98689418 -0.46117561 282.71376354 -0.4500057 C286.65269744 -0.44483381 290.59118553 -0.44760917 294.53005409 -0.47247124 C298.14404343 -0.49509117 301.75727002 -0.49412682 305.37127388 -0.47526737 C307.28116596 -0.47117826 309.19106362 -0.49151866 311.10083866 -0.51305425 C322.03191429 -0.41359163 332.55456561 2.33701429 340.59934998 10.10967064 C346.88118836 17.53626317 350.62347091 25.17129442 350.58161926 34.91536522 C350.58615038 35.69183462 350.59068149 36.46830402 350.59534991 37.2683028 C350.6079965 39.86669057 350.60637335 42.4648688 350.60472107 45.06328392 C350.61070633 46.92792594 350.61751187 48.79256548 350.62507629 50.65720177 C350.64274793 55.72154559 350.64743228 60.78582183 350.64870787 65.8501935 C350.65012984 69.01674953 350.65440042 72.1832884 350.6597023 75.34984016 C350.67820937 86.40456037 350.68637243 97.45923233 350.68479919 108.51396751 C350.68359896 118.80507126 350.70467634 129.09596487 350.73628652 139.38701546 C350.76248108 148.23138637 350.77316509 157.07568881 350.77188838 165.92009819 C350.7713795 171.19827017 350.77702115 176.47625559 350.79824448 181.75438881 C350.81767931 186.72358299 350.81771548 191.69241372 350.80321121 196.66162109 C350.80112822 198.47920007 350.80579341 200.2968021 350.81793213 202.11434174 C350.90438536 215.963094 349.81226198 226.54834992 339.75169373 236.97295189 C333.17108304 242.81535304 325.31308084 246.38173095 316.45010757 246.39428329 C315.29480773 246.40073219 314.13950789 246.40718108 312.94919896 246.41382539 C311.68948427 246.41072819 310.42976958 246.40763098 309.13188171 246.40443993 C307.77264362 246.40817818 306.41340768 246.41278041 305.05417514 246.41817057 C301.32449328 246.43039446 297.59490117 246.43014083 293.86520386 246.42778182 C289.84052653 246.4273735 285.81587792 246.43841433 281.79121399 246.44789696 C273.90789031 246.46450485 266.02459655 246.47000642 258.14125684 246.47112171 C251.73225131 246.47207234 245.32325564 246.47618336 238.91425323 246.48252296 C220.73896938 246.50013522 202.56370913 246.50936192 184.38841668 246.50786202 C182.91888335 246.50774215 182.91888335 246.50774215 181.41966248 246.50761986 C179.94833233 246.50749722 179.94833233 246.50749722 178.44727835 246.5073721 C162.55318616 246.50655932 146.65918877 246.52569491 130.76512399 246.55389659 C114.44071986 246.582633 98.11636194 246.59643645 81.79193187 246.59470904 C72.62883295 246.59404537 63.46583339 246.59952734 54.30275726 246.62106514 C46.50049314 246.63928694 38.69837342 246.64361612 30.89609721 246.63004629 C26.91709199 246.62352151 22.93836371 246.62338149 18.95938492 246.64075279 C15.31236502 246.65651071 11.66584102 246.65359266 8.01883301 246.63618453 C6.08392783 246.63167592 4.14900711 246.6467507 2.21416211 246.66266382 C-8.59983965 246.57734157 -17.70523884 243.82556193 -25.68580627 236.23467064 C-35.89648423 225.55475196 -36.28175253 214.69660973 -36.25099182 200.59892845 C-36.26133706 198.72855757 -36.2733293 196.8581952 -36.28683472 194.98784447 C-36.31777154 189.9297393 -36.32316153 184.87191962 -36.32190299 179.81373119 C-36.32273619 175.57952306 -36.33499872 171.34537599 -36.3468526 167.11118674 C-36.37418854 157.1142228 -36.37956629 147.11740625 -36.37208557 137.12041283 C-36.3648491 126.83532229 -36.398245 116.55091794 -36.45114297 106.26597619 C-36.49502777 97.41123863 -36.51163037 88.55672192 -36.50710708 79.70187736 C-36.50479321 74.42409814 -36.51293989 69.1468735 -36.54817772 63.86919975 C-36.58031135 58.90131711 -36.57818545 53.93456462 -36.55073357 48.96666527 C-36.54630667 47.15356142 -36.55359129 45.34038113 -36.57407761 43.52738762 C-36.70656904 30.93982517 -35.26562543 20.70720079 -26.67475414 10.82326698 C-19.33592756 3.69911299 -10.12522079 0.02397217 0 0 Z " fill="#FEFEFE" transform="translate(98.68580627441406,200.8629856109619)"/>
<path d="M0 0 C3.4471633 2.85622102 5.76541895 5.54625684 7.1875 9.8125 C7.1875 17.4025 7.1875 24.9925 7.1875 32.8125 C27.6475 32.8125 48.1075 32.8125 69.1875 32.8125 C69.1875 24.8925 69.1875 16.9725 69.1875 8.8125 C73.91722973 0.53547297 73.91722973 0.53547297 79.1875 -1.1875 C85.58252944 -1.89805883 89.01527443 -1.04131513 94.1875 2.8125 C97.1875 8.8125 97.1875 8.8125 97.1875 32.8125 C117.6475 32.8125 138.1075 32.8125 159.1875 32.8125 C159.1875 24.8925 159.1875 16.9725 159.1875 8.8125 C163.91722973 0.53547297 163.91722973 0.53547297 169.1875 -1.1875 C175.58252944 -1.89805883 179.01527443 -1.04131513 184.1875 2.8125 C187.1875 8.8125 187.1875 8.8125 187.1875 32.8125 C207.6475 32.8125 228.1075 32.8125 249.1875 32.8125 C249.1875 25.2225 249.1875 17.6325 249.1875 9.8125 C253.7875 0.6125 253.7875 0.6125 259.1875 -1.1875 C263.87881123 -1.73258569 267.29080648 -1.63584676 271.5625 0.5 C275.00404532 3.53183755 276.97712777 6.04431768 277.52807617 10.67504883 C277.51236572 11.69622803 277.49665527 12.71740723 277.48046875 13.76953125 C277.47080078 14.88134766 277.46113281 15.99316406 277.45117188 17.13867188 C277.42603516 18.28916016 277.40089844 19.43964844 277.375 20.625 C277.36146484 21.79482422 277.34792969 22.96464844 277.33398438 24.16992188 C277.29870278 27.051252 277.2494028 29.93163904 277.1875 32.8125 C278.16847656 32.77769531 279.14945312 32.74289063 280.16015625 32.70703125 C300.17113721 32.21188326 317.467544 37.07132547 333.1875 49.8125 C334.24710937 50.62654297 334.24710937 50.62654297 335.328125 51.45703125 C345.17381315 59.42273564 351.69791056 70.10408741 356.1875 81.8125 C356.60128906 82.83601563 357.01507813 83.85953125 357.44140625 84.9140625 C362.16010372 98.95506473 360.1875 111.24356583 360.1875 126.8125 C207.0675 126.8125 53.9475 126.8125 -103.8125 126.8125 C-103.8125 91.37623938 -103.8125 91.37623938 -99.8125 81.8125 C-99.54937012 81.17248047 -99.28624023 80.53246094 -99.01513672 79.87304688 C-90.7575607 60.30161033 -76.59486712 46.0259385 -56.8125 37.8125 C-47.30747037 34.40379972 -38.45422007 32.63011907 -28.375 32.75 C-27.64345703 32.75451172 -26.91191406 32.75902344 -26.15820312 32.76367188 C-24.37626581 32.77531852 -22.59437137 32.79324809 -20.8125 32.8125 C-20.8439209 31.72364502 -20.8439209 31.72364502 -20.87597656 30.61279297 C-20.9594365 27.30450445 -21.01125539 23.99643789 -21.0625 20.6875 C-21.09601563 19.54539062 -21.12953125 18.40328125 -21.1640625 17.2265625 C-21.23904044 10.77846 -21.26067766 6.66207859 -16.8125 1.8125 C-11.96435166 -2.34305572 -5.72654063 -2.41787271 0 0 Z " fill="#F8B838" transform="translate(127.8125,27.1875)"/>
<path d="M0 0 C2.27529238 0.64846816 4.55134719 1.29426662 6.828125 1.9375 C7.94896484 2.2571875 9.06980469 2.576875 10.22460938 2.90625 C15.03643432 4.23760765 19.88534229 5.38017874 24.75 6.5 C31.50457237 8.06838551 38.1561462 9.82553017 44.80859375 11.7890625 C49.36551046 13.05246163 53.95660862 14.11936365 58.5625 15.1875 C66.15291754 16.95977941 73.68438544 18.88734055 81.1875 21 C82.54210327 21.37487549 82.54210327 21.37487549 83.92407227 21.75732422 C84.75737061 21.99596191 85.59066895 22.23459961 86.44921875 22.48046875 C87.18487061 22.68953857 87.92052246 22.8986084 88.6784668 23.11401367 C90.5 23.8125 90.5 23.8125 92.5 25.8125 C93.13839286 31.55803571 93.13839286 31.55803571 92.5 33.8125 C88.06772838 37.57378807 81.87824665 38.55459475 76.375 40 C75.37339844 40.27263672 74.37179687 40.54527344 73.33984375 40.82617188 C65.92222744 42.8125 65.92222744 42.8125 62.5 42.8125 C62.52094727 44.10349609 62.54189453 45.39449219 62.56347656 46.72460938 C62.63618646 51.54025059 62.68191225 56.35584381 62.71972656 61.171875 C62.73977159 63.25138525 62.76701513 65.33083963 62.80175781 67.41015625 C62.85058948 70.40899487 62.87304028 73.40708463 62.890625 76.40625 C62.91127014 77.32740601 62.93191528 78.24856201 62.95318604 79.19763184 C62.95525742 85.23310545 61.94836455 89.78164051 58.5 94.8125 C53.17698297 99.69623893 45.87375555 101.19228924 39.125 103.375 C29.29135423 106.63664323 19.73197349 110.21730093 10.3125 114.5625 C9.3652002 114.99763916 8.41790039 115.43277832 7.44189453 115.88110352 C1.96951746 118.46389744 -3.19302049 121.34294967 -8.30200195 124.58691406 C-13.32257782 127.38634657 -18.88562196 127.51429725 -24.5 126.8125 C-28.0489535 125.52960127 -31.21647191 123.6589284 -34.5 121.8125 C-46.49144789 115.5593922 -58.58256879 109.81680691 -71.390625 105.4296875 C-72.63811523 104.99897949 -73.88560547 104.56827148 -75.17089844 104.12451172 C-77.68384651 103.25815164 -80.20129606 102.4186247 -82.72753906 101.59033203 C-90.19980136 99.03489635 -95.69556427 96.97440303 -99.61669922 89.75708008 C-100.91722213 85.42164425 -100.85850959 81.20377521 -100.9140625 76.69921875 C-100.93342865 75.72966751 -100.9527948 74.76011627 -100.9727478 73.76118469 C-101.03237436 70.67421172 -101.0788614 67.58720112 -101.125 64.5 C-101.16319534 62.40297882 -101.20224798 60.30597306 -101.2421875 58.20898438 C-101.33806209 53.07694869 -101.42215577 47.94483957 -101.5 42.8125 C-102.10062256 42.66627197 -102.70124512 42.52004395 -103.32006836 42.36938477 C-106.02678678 41.70824368 -108.73214485 41.04169648 -111.4375 40.375 C-112.38302734 40.14490234 -113.32855469 39.91480469 -114.30273438 39.67773438 C-115.20185547 39.45537109 -116.10097656 39.23300781 -117.02734375 39.00390625 C-117.85999756 38.79967041 -118.69265137 38.59543457 -119.55053711 38.38500977 C-121.5 37.8125 -121.5 37.8125 -122.5 36.8125 C-122.57205511 35.12641034 -122.58386068 33.43749341 -122.5625 31.75 C-122.55347656 30.83089844 -122.54445312 29.91179687 -122.53515625 28.96484375 C-122.52355469 28.25457031 -122.51195312 27.54429687 -122.5 26.8125 C-110.86912019 26.74295882 -99.23828994 26.6896677 -87.60724449 26.65706348 C-82.20634996 26.64141431 -76.80559777 26.62018948 -71.40478516 26.58618164 C-66.19172391 26.55356183 -60.97879951 26.53564136 -55.76564407 26.52786827 C-53.77774527 26.5223295 -51.78985387 26.51151362 -49.8020134 26.49530983 C-47.01546858 26.47350086 -44.22948767 26.47053454 -41.44287109 26.47192383 C-40.62287628 26.461138 -39.80288147 26.45035217 -38.95803833 26.4392395 C-33.99713085 26.46596473 -30.90298805 27.31773336 -26.5 29.8125 C-19.04444956 30.68559546 -12.09191087 30.57930621 -5.5 26.8125 C-5.83 25.1625 -6.16 23.5125 -6.5 21.8125 C-11.17660515 19.98818963 -15.11667019 19.54242653 -20.125 19.5625 C-21.41664063 19.55734375 -22.70828125 19.5521875 -24.0390625 19.546875 C-27.32963832 19.54386043 -27.32963832 19.54386043 -29.20025635 20.81491089 C-32.64185315 22.30781619 -36.07052156 22.07351485 -39.75683594 22.03955078 C-40.58647354 22.03984283 -41.41611115 22.04013489 -42.27088928 22.04043579 C-45.00882482 22.0390442 -47.74648709 22.02349104 -50.484375 22.0078125 C-52.38437756 22.00408176 -54.28438204 22.00123508 -56.18438721 21.99923706 C-61.18212202 21.99160539 -66.17974036 21.97196085 -71.1774292 21.9498291 C-76.27842636 21.92936067 -81.37944235 21.92023321 -86.48046875 21.91015625 C-96.48703031 21.88871457 -106.49350546 21.85458419 -116.5 21.8125 C-114.26781228 19.58031228 -113.34831318 19.36472565 -110.34375 18.69921875 C-109.49522461 18.50577881 -108.64669922 18.31233887 -107.77246094 18.11303711 C-106.85754883 17.91073486 -105.94263672 17.70843262 -105 17.5 C-98.03253355 15.90571894 -91.12222002 14.2155585 -84.25 12.25 C-78.52859471 10.62007941 -72.79980899 9.13685001 -67 7.8125 C-61.07988415 6.45864308 -55.22202886 4.95380404 -49.375 3.3125 C-48.62452393 3.10343018 -47.87404785 2.89436035 -47.10083008 2.67895508 C-43.55298531 1.68639179 -40.01508731 0.67041217 -36.48828125 -0.39453125 C-35.23402344 -0.75933594 -33.97976562 -1.12414062 -32.6875 -1.5 C-31.60855469 -1.82613281 -30.52960938 -2.15226563 -29.41796875 -2.48828125 C-19.06730184 -4.33550894 -9.96724007 -2.98634436 0 0 Z " fill="#474646" transform="translate(266.5,251.1875)"/>
<path d="M0 0 C0.09320028 7.89375766 0.16401571 15.78728058 0.20724869 23.68145466 C0.22801169 27.34813866 0.25611844 31.01444276 0.30175781 34.6809082 C0.3456244 38.22766472 0.36922168 41.77405877 0.37950897 45.3210659 C0.39035921 47.31445154 0.42151824 49.30769393 0.45318604 51.30085754 C0.45612413 63.36403296 -2.11772099 72.08559083 -10.5625 80.8359375 C-17.14311068 86.67833865 -25.00111288 90.24471656 -33.86408615 90.25726891 C-35.01938599 90.2637178 -36.17468584 90.27016669 -37.36499476 90.276811 C-38.62470946 90.2737138 -39.88442415 90.2706166 -41.18231201 90.26742554 C-42.5415501 90.27116379 -43.90078604 90.27576602 -45.26001859 90.28115618 C-48.98970044 90.29338007 -52.71929256 90.29312644 -56.44898987 90.29076743 C-60.47366719 90.29035911 -64.49831581 90.30139994 -68.52297974 90.31088257 C-76.40630341 90.32749046 -84.28959718 90.33299203 -92.17293689 90.33410732 C-98.58194241 90.33505795 -104.99093808 90.33916897 -111.39994049 90.34550858 C-129.57522435 90.36312083 -147.75048459 90.37234753 -165.92577705 90.37084763 C-167.39531038 90.37072776 -167.39531038 90.37072776 -168.89453125 90.37060547 C-170.36586139 90.37048283 -170.36586139 90.37048283 -171.86691537 90.37035771 C-187.76100756 90.36954493 -203.65500496 90.38868052 -219.54906973 90.4168822 C-235.87347387 90.44561861 -252.19783179 90.45942206 -268.52226186 90.45769465 C-277.68536078 90.45703098 -286.84836034 90.46251295 -296.01143646 90.48405075 C-303.81370059 90.50227255 -311.61582031 90.50660173 -319.41809651 90.4930319 C-323.39710174 90.48650712 -327.37583002 90.4863671 -331.35480881 90.5037384 C-335.00182871 90.51949633 -338.64835271 90.51657827 -342.29536071 90.49917014 C-344.23026589 90.49466154 -346.16518662 90.50973631 -348.10003161 90.52564943 C-358.91403338 90.44032718 -368.01943257 87.68854754 -376 80.09765625 C-380.79480068 75.08250627 -384.49111853 69.87907379 -386 63 C-385.58984375 60.70703125 -385.58984375 60.70703125 -385 59 C-384.08863281 59.37511719 -383.17726563 59.75023437 -382.23828125 60.13671875 C-367.14982538 66.1705143 -351.62585496 69.53636689 -335.625 72.1875 C-334.2484021 72.41977295 -334.2484021 72.41977295 -332.84399414 72.65673828 C-313.94507671 75.61427002 -294.91302073 76.40811655 -275.8125 76.375 C-274.72636414 76.37512085 -273.64022827 76.3752417 -272.5211792 76.37536621 C-256.65618339 76.35054965 -240.9236284 75.70159193 -225.125 74.25 C-223.81337387 74.13238312 -223.81337387 74.13238312 -222.47525024 74.01239014 C-210.25351243 72.88460429 -198.31157977 70.88825089 -186.28564453 68.45727539 C-183.23167774 67.84628631 -180.1696391 67.28385496 -177.10546875 66.7265625 C-154.8300755 62.60785417 -133.29233688 57.07104907 -111.79638672 49.92431641 C-109.3395858 49.11224654 -106.87770809 48.32158918 -104.41015625 47.54296875 C-69.00976574 36.27071777 -34.61831502 20.51156276 -2.94238281 1.11914062 C-1 0 -1 0 0 0 Z " fill="#E4E3FE" transform="translate(449,357)"/>
<path d="M0 0 C153.12 0 306.24 0 464 0 C464 6.93 464 13.86 464 21 C310.88 21 157.76 21 0 21 C0 14.07 0 7.14 0 0 Z " fill="#5E5EEE" transform="translate(24,154)"/>
<path d="M0 0 C3.1875 2.375 3.1875 2.375 6.1875 8.375 C6.1875 16.295 6.1875 24.215 6.1875 32.375 C26.6475 32.375 47.1075 32.375 68.1875 32.375 C68.1875 24.455 68.1875 16.535 68.1875 8.375 C72.91722973 0.09797297 72.91722973 0.09797297 78.1875 -1.625 C84.58252944 -2.33555883 88.01527443 -1.47881513 93.1875 2.375 C96.84045222 7.76205908 96.53795508 12.74139839 96.41796875 18.99609375 C96.41586991 21.08658759 96.41526478 23.17708337 96.41601562 25.26757812 C96.40152007 28.54431158 96.37488432 31.8196039 96.3215332 35.09594727 C96.27643785 38.27194829 96.28124521 41.44486201 96.29296875 44.62109375 C96.26414108 45.59421005 96.23531342 46.56732635 96.20561218 47.56993103 C96.24812657 51.59309435 96.27962736 54.29065813 98.92520142 57.45046997 C101.0095212 59.29542631 101.0095212 59.29542631 103.18208313 60.81288147 C107.41486665 64.11000621 110.23362543 69.11452343 111.1875 74.375 C112.00548406 83.65327631 111.3505743 90.53311323 106.1875 98.375 C105.589375 99.303125 104.99125 100.23125 104.375 101.1875 C98.47392839 107.08857161 91.30615452 110.64892929 82.9375 110.75 C73.63199034 110.57165314 67.65361604 107.44610796 60.91015625 101.171875 C55.51941303 95.54887753 52.90306228 89.87019033 52.875 82.125 C53.13604643 70.5214863 56.78210037 64.41356056 65.1875 56.375 C65.8475 56.045 66.5075 55.715 67.1875 55.375 C67.5175 48.115 67.8475 40.855 68.1875 33.375 C47.7275 33.375 27.2675 33.375 6.1875 33.375 C6.5175 40.635 6.8475 47.895 7.1875 55.375 C9.8275 57.685 12.4675 59.995 15.1875 62.375 C20.92026996 69.61639364 22.13298066 77.36869065 21.1875 86.375 C19.42343308 94.58126067 15.84783739 100.26833987 9.1875 105.375 C1.69923771 109.96673303 -5.05723021 111.16003042 -13.8125 110.375 C-17.09348471 109.44765563 -19.87951261 108.09862457 -22.8125 106.375 C-23.45058594 106.01277344 -24.08867187 105.65054688 -24.74609375 105.27734375 C-30.94913561 101.34208063 -34.53760326 95.26953355 -36.8125 88.375 C-37.81579711 79.13410552 -37.42467528 71.09523117 -31.8125 63.375 C-29.14723828 60.25790207 -26.51456558 57.22603279 -22.8125 55.375 C-22.80885437 54.8017247 -22.80520874 54.2284494 -22.80145264 53.63780212 C-22.75952214 47.65111285 -22.69010311 41.6651827 -22.60498047 35.67895508 C-22.57681928 33.44726162 -22.5555807 31.21546932 -22.54150391 28.98364258 C-22.52000772 25.76853001 -22.47332137 22.5545998 -22.421875 19.33984375 C-22.42064636 18.34790512 -22.41941772 17.35596649 -22.41815186 16.33396912 C-22.28887969 10.16855195 -21.46474726 6.39997406 -17.8125 1.375 C-12.22352188 -2.56268913 -6.05490568 -3.05300097 0 0 Z " fill="#E2A122" transform="translate(218.8125,27.625)"/>
<path d="M0 0 C7.92 0 15.84 0 24 0 C24.0905821 31.06658023 24.16212276 62.13311261 24.20426132 93.19979322 C24.20926365 96.87440664 24.21444099 100.54901979 24.21972656 104.22363281 C24.2207758 104.95512708 24.22182505 105.68662135 24.22290608 106.44028211 C24.240272 118.25679159 24.27178845 130.07322258 24.30861118 141.88968563 C24.34612714 154.03061122 24.36825827 166.17149594 24.37635398 178.31247711 C24.38133152 185.12509944 24.39321944 191.93755866 24.42292023 198.75012207 C24.45021804 205.1719877 24.45841599 211.59360386 24.45243073 218.015522 C24.45352455 220.36314884 24.46139209 222.71078466 24.4768219 225.05836105 C24.63512404 250.40213352 19.74789452 270.59135467 1.765625 289.328125 C-11.44441417 302.02012342 -29.50059092 310.17920093 -47.9296875 310.09765625 C-49.21875 310.09443359 -50.5078125 310.09121094 -51.8359375 310.08789062 C-53.18229236 310.07953733 -54.52864652 310.07107241 -55.875 310.0625 C-57.24479004 310.0574783 -58.61458185 310.05291657 -59.984375 310.04882812 C-63.3229619 310.03707254 -66.66145815 310.02063964 -70 310 C-70 309.67 -70 309.34 -70 309 C-68.49373047 308.76216797 -68.49373047 308.76216797 -66.95703125 308.51953125 C-44.34612042 304.74965604 -26.52723731 294.89681774 -12.96875 276.0390625 C-4.20829874 262.51598495 -0.85870501 247.73942883 -0.84178162 231.85070801 C-0.83684364 230.85565294 -0.83190566 229.86059787 -0.82681805 228.83538961 C-0.81151416 225.51591239 -0.80310176 222.1964544 -0.79467773 218.87695312 C-0.78509362 216.49156527 -0.77508323 214.1061791 -0.76467896 211.72079468 C-0.74048204 205.92527776 -0.72071866 200.12975804 -0.70292621 194.3342182 C-0.68197338 187.58756049 -0.65552938 180.84092763 -0.62875474 174.09429091 C-0.58115578 162.06384954 -0.53787088 150.03339671 -0.49731445 138.00292969 C-0.45792027 126.31997791 -0.41648472 114.6370363 -0.37231445 102.95410156 C-0.36959018 102.23335042 -0.36686591 101.51259928 -0.36405908 100.77000719 C-0.35037896 97.1540269 -0.33665881 93.53804676 -0.32291877 89.92206669 C-0.20907497 59.94806551 -0.10250609 29.97404223 0 0 Z " fill="#5E5EEF" transform="translate(464,176)"/>
<path d="M0 0 C11.05963617 2.39289279 22.05392348 4.95327406 33.00387573 7.80667114 C35.25813006 8.39338279 37.5137919 8.97441856 39.76977539 9.55444336 C46.51225059 11.29157006 53.24466391 13.05285826 59.953125 14.91796875 C72.23205214 18.31664372 82.07993818 20.73980534 94.65625 17.2734375 C95.99272197 16.90891477 97.32931648 16.54484114 98.66601562 16.18115234 C99.37024658 15.98849792 100.07447754 15.79584351 100.80004883 15.59735107 C104.61061523 14.56267087 108.43061935 13.56405461 112.25 12.5625 C113.86459787 12.13807611 115.47918106 11.71359639 117.09375 11.2890625 C119.54816075 10.64414357 122.00259602 9.99931798 124.45703125 9.35449219 C126.08499626 8.92672945 127.71292617 8.49883312 129.34082031 8.07080078 C130.93380046 7.65205428 132.52689757 7.23375245 134.12011719 6.81591797 C137.89178707 5.82524285 141.65997389 4.82407271 145.421875 3.796875 C146.1118457 3.60939697 146.80181641 3.42191895 147.51269531 3.22875977 C149.37385145 2.72185766 151.23384506 2.21069261 153.09375 1.69921875 C156 1 156 1 159 1 C159.12447553 5.55312342 159.21474409 10.10523654 159.2746582 14.65966797 C159.29965732 16.20574212 159.33366902 17.75169982 159.37719727 19.29736328 C159.80826751 35.00860574 159.80826751 35.00860574 155.34448242 40.65576172 C149.22505939 46.77407354 139.40873584 48.54278831 131.37158203 51.13964844 C118.83409616 55.26402327 106.98132021 60.6986706 95.50463867 67.19921875 C82.05526495 74.70709667 82.05526495 74.70709667 74.44921875 74.0390625 C68.97568061 72.39018238 64.25394013 69.58891618 59.34570312 66.69750977 C52.31011287 62.57757539 45.12121907 59.29778465 37.5625 56.25 C35.85586182 55.56067383 35.85586182 55.56067383 34.11474609 54.85742188 C25.99353286 51.64646722 17.777164 48.78672234 9.35766602 46.45605469 C8.55901123 46.21661133 7.76035645 45.97716797 6.9375 45.73046875 C6.24527344 45.53864014 5.55304688 45.34681152 4.83984375 45.14916992 C1.88302813 43.30233724 1.19475458 41.23805776 0 38 C-0.37531952 35.02352094 -0.35094058 32.09765979 -0.29296875 29.1015625 C-0.28872391 28.26660248 -0.28447906 27.43164246 -0.28010559 26.57138062 C-0.26340333 23.92224965 -0.22576775 21.2738984 -0.1875 18.625 C-0.1724422 16.82162562 -0.15875571 15.01823924 -0.14648438 13.21484375 C-0.11352762 8.8095985 -0.06180469 4.40493114 0 0 Z " fill="#474646" transform="translate(166,300)"/>
<path d="M0 0 C0 1.65 0 3.3 0 5 C-5.70423618 7.22302233 -11.4102206 9.06889645 -17.3125 10.6875 C-18.10978516 10.91244141 -18.90707031 11.13738281 -19.72851562 11.36914062 C-20.49486328 11.58119141 -21.26121094 11.79324219 -22.05078125 12.01171875 C-23.08199097 12.29728638 -23.08199097 12.29728638 -24.1340332 12.58862305 C-26 13 -26 13 -29 13 C-28.97905273 14.29099609 -28.95810547 15.58199219 -28.93652344 16.91210938 C-28.86381354 21.72775059 -28.81808775 26.54334381 -28.78027344 31.359375 C-28.76022841 33.43888525 -28.73298487 35.51833963 -28.69824219 37.59765625 C-28.64941052 40.59649487 -28.62695972 43.59458463 -28.609375 46.59375 C-28.58872986 47.51490601 -28.56808472 48.43606201 -28.54681396 49.38513184 C-28.54474258 55.42060545 -29.55163545 59.96914051 -33 65 C-38.32301703 69.88373893 -45.62624445 71.37978924 -52.375 73.5625 C-62.20864577 76.82414323 -71.76802651 80.40480093 -81.1875 84.75 C-82.1347998 85.18513916 -83.08209961 85.62027832 -84.05810547 86.06860352 C-89.53048254 88.65139744 -94.69302049 91.53044967 -99.80200195 94.77441406 C-104.82257782 97.57384657 -110.38562196 97.70179725 -116 97 C-119.5489535 95.71710127 -122.71647191 93.8464284 -126 92 C-138.01602706 85.73407505 -150.13368348 79.99660568 -162.9609375 75.58203125 C-163.58564941 75.36560974 -164.21036133 75.14918823 -164.85400391 74.9262085 C-168.03084414 73.82604223 -171.21069464 72.74411026 -174.40332031 71.68994141 C-175.58249023 71.28565918 -176.76166016 70.88137695 -177.9765625 70.46484375 C-179.03955566 70.110271 -180.10254883 69.75569824 -181.19775391 69.39038086 C-184.45197598 67.77574462 -185.95139426 65.96015828 -188 63 C-179.07851426 64.97407704 -170.72798569 67.79992007 -162.25 71.1875 C-161.63915558 71.4295517 -161.02831116 71.67160339 -160.3989563 71.92098999 C-149.61934427 76.19873113 -138.93707019 80.70343265 -129.0546875 86.82421875 C-121.96840258 91.1547262 -116.26704413 92.13900727 -108 91 C-103.48393248 89.3428426 -99.46050753 87.04449007 -95.3125 84.625 C-92.95837025 83.32709013 -90.60211241 82.03804612 -88.234375 80.765625 C-87.63847061 80.4440744 -87.04256622 80.1225238 -86.42860413 79.79122925 C-80.17701935 76.47051141 -73.6865163 73.86183864 -67.0625 71.375 C-66.02843018 70.98650879 -64.99436035 70.59801758 -63.92895508 70.19775391 C-57.84721354 67.95786301 -51.71825615 65.88924328 -45.54882812 63.90429688 C-40.99326423 62.28803168 -37.97607116 60.59330344 -35.37963867 56.35498047 C-33.81575581 52.5519583 -33.52570514 49.24151655 -33.48828125 45.1953125 C-33.47033005 44.4713327 -33.45237885 43.74735291 -33.43388367 43.00143433 C-33.38008862 40.70934723 -33.34598598 38.41746459 -33.3125 36.125 C-33.27929951 34.56247173 -33.24480734 32.99997034 -33.20898438 31.4375 C-33.12438077 27.62514831 -33.05742441 23.812854 -33 20 C-33.79704346 20.25467041 -34.59408691 20.50934082 -35.4152832 20.77172852 C-42.95080699 23.14073199 -50.49188012 25.16629562 -58.1875 26.9375 C-65.70606796 28.70413353 -73.19113954 30.5286268 -80.625 32.625 C-81.34341064 32.82625488 -82.06182129 33.02750977 -82.80200195 33.23486328 C-86.21494755 34.19628962 -89.61844345 35.18355796 -93.015625 36.19921875 C-94.30201977 36.5705328 -95.58847514 36.94163697 -96.875 37.3125 C-98.51082031 37.80169922 -98.51082031 37.80169922 -100.1796875 38.30078125 C-111.29809402 40.33574523 -121.10839591 38.07561649 -131.8125 35.125 C-133.31785706 34.72173268 -134.82364628 34.32007558 -136.32983398 33.91992188 C-138.70758849 33.28761817 -141.08487585 32.65383401 -143.46070862 32.01434326 C-149.59187065 30.36437299 -155.73693422 28.7746495 -161.890625 27.2109375 C-162.78524948 26.98342804 -163.67987396 26.75591858 -164.60160828 26.52151489 C-168.12704677 25.62559094 -171.65275521 24.73073399 -175.17861938 23.83648682 C-177.62095109 23.21611664 -180.06250742 22.59277966 -182.50390625 21.96875 C-183.23559021 21.78371918 -183.96727417 21.59868835 -184.72113037 21.40805054 C-189.77213272 20.11393364 -189.77213272 20.11393364 -192 19 C-192.625 15.9375 -192.625 15.9375 -193 13 C-193.60062256 12.85377197 -194.20124512 12.70754395 -194.82006836 12.55688477 C-197.52678678 11.89574368 -200.23214485 11.22919648 -202.9375 10.5625 C-203.88302734 10.33240234 -204.82855469 10.10230469 -205.80273438 9.86523438 C-206.70185547 9.64287109 -207.60097656 9.42050781 -208.52734375 9.19140625 C-209.35999756 8.98717041 -210.19265137 8.78293457 -211.05053711 8.57250977 C-213 8 -213 8 -214 7 C-214.04063832 5.33382885 -214.042721 3.66611905 -214 2 C-205.29026655 3.59377568 -196.73496065 5.76965915 -188.16015625 7.95703125 C-186.62817793 8.34595559 -185.09614868 8.73467936 -183.56407166 9.12321472 C-180.36060011 9.93615871 -177.1575505 10.75073701 -173.95483398 11.56665039 C-169.90788312 12.59761844 -165.860214 13.6257292 -161.81225014 14.65271187 C-158.6586252 15.4529448 -155.5052664 16.25422271 -152.35197067 17.0557518 C-150.81081701 17.4474101 -149.26960072 17.83882203 -147.72832108 18.22998428 C-140.72652571 20.00761799 -133.72635796 21.78586974 -126.75732422 23.68896484 C-125.87620468 23.92854416 -124.99508514 24.16812347 -124.08726501 24.41496277 C-122.56723227 24.83186282 -121.04915007 25.25600112 -119.53395081 25.69013977 C-110.16112731 28.26564882 -102.64534992 26.10293436 -93.50390625 23.6328125 C-92.16440058 23.27769274 -90.82467351 22.92340716 -89.48474121 22.56990051 C-86.64480914 21.81912922 -83.80627942 21.06335138 -80.96878052 20.30343628 C-76.55307967 19.1211374 -72.13429828 17.95070184 -67.71459961 16.78344727 C-66.98365617 16.5904004 -66.25271273 16.39735353 -65.49961948 16.19845676 C-64.02627087 15.80940196 -62.55290671 15.42040601 -61.0795269 15.03146935 C-58.87639793 14.44958797 -56.67353791 13.86669726 -54.47071838 13.28364563 C-42.35671245 10.07969203 -30.22080824 6.96923887 -18.0625 3.9375 C-17.22888947 3.72845032 -16.39527893 3.51940063 -15.53640747 3.30401611 C-13.24502948 2.72974268 -10.95282889 2.15892367 -8.66015625 1.58984375 C-7.40855713 1.27909912 -6.15695801 0.96835449 -4.86743164 0.64819336 C-2 0 -2 0 0 0 Z " fill="#2E2D2D" transform="translate(358,281)"/>
<path d="M0 0 C3.57758024 2.66564802 4.54328212 4.27999604 6.1875 8.375 C6.58190918 11.8140564 6.58190918 11.8140564 6.60742188 15.63037109 C6.61589142 16.33040756 6.62436096 17.03044403 6.63308716 17.75169373 C6.65636052 20.0507965 6.65748163 22.34922616 6.65625 24.6484375 C6.66335789 26.25737776 6.67105781 27.8663155 6.67932129 29.47525024 C6.69274421 32.84262136 6.69434499 36.20975811 6.68847656 39.57714844 C6.68258509 43.8768047 6.71315815 48.17532998 6.75359344 52.47476768 C6.77953754 55.79668152 6.78234179 59.11832552 6.77870178 62.44032669 C6.78038705 64.02466293 6.78997212 65.60901244 6.80784607 67.19324875 C6.95709392 82.05739219 6.95709392 82.05739219 2.65100098 88.01113892 C-1.30261865 91.6955833 -5.23708738 91.74662736 -10.40625 91.625 C-14.61154441 91.1880863 -16.77461909 89.63470594 -19.40942383 86.43676758 C-21.50101238 81.87254067 -21.2929338 77.54103108 -21.32421875 72.57421875 C-21.34216995 71.50621536 -21.36012115 70.43821198 -21.37861633 69.33784485 C-21.43267834 65.91277161 -21.46644438 62.48782904 -21.5 59.0625 C-21.53321353 56.83136061 -21.56770685 54.60023988 -21.60351562 52.36914062 C-21.67156364 47.92234704 -21.71951163 43.47600366 -21.75146484 39.02880859 C-21.78364976 34.55082526 -21.86181711 30.07683383 -21.97119141 25.60009766 C-22.00852332 23.44824884 -22.04548516 21.29639356 -22.08203125 19.14453125 C-22.13057503 17.6702491 -22.13057503 17.6702491 -22.18009949 16.16618347 C-22.25519094 9.99355787 -21.4837331 6.39710714 -17.8125 1.375 C-12.22352188 -2.56268913 -6.05490568 -3.05300097 0 0 Z " fill="#484745" transform="translate(308.8125,27.625)"/>
<path d="M0 0 C3.4471633 2.85622102 5.76541895 5.54625684 7.1875 9.8125 C7.27279041 11.27905566 7.30224702 12.74924072 7.29614258 14.21826172 C7.29458664 15.11151154 7.2930307 16.00476135 7.29142761 16.92507935 C7.28058891 18.38142288 7.28058891 18.38142288 7.26953125 19.8671875 C7.26322441 21.39229446 7.26322441 21.39229446 7.25679016 22.94821167 C7.24031627 26.23638735 7.21494789 29.52439868 7.1875 32.8125 C7.17958435 33.88681274 7.1716687 34.96112549 7.16351318 36.06799316 C7.11248124 42.59098212 7.03162895 49.11293954 6.92504883 55.63525391 C6.89119575 57.86889676 6.86336703 60.10263774 6.84106445 62.33642578 C6.80765285 65.62308512 6.75550084 68.90897514 6.69921875 72.1953125 C6.68963387 73.68890793 6.68963387 73.68890793 6.67985535 75.212677 C6.54085088 81.7184822 5.49672199 85.14246208 1.1875 90.125 C-3.37839164 92.69331405 -7.69403894 92.56793552 -12.8125 91.8125 C-17.26928833 89.39840632 -18.87114052 86.40540278 -20.8125 81.8125 C-21.20018005 78.32202148 -21.20018005 78.32202148 -21.21655273 74.43359375 C-21.22341599 73.72059113 -21.23027924 73.0075885 -21.23735046 72.27297974 C-21.25555227 69.93178011 -21.2517912 67.59125474 -21.24609375 65.25 C-21.2506583 63.61384871 -21.25596469 61.97769934 -21.26197815 60.34155273 C-21.27089587 56.91870312 -21.26850095 53.49608701 -21.25854492 50.07324219 C-21.24704857 45.69506459 -21.26728316 41.31769275 -21.29646206 36.93962097 C-21.31483898 33.56289586 -21.31452881 30.18636341 -21.30882454 26.80960083 C-21.30867155 25.19571806 -21.31469735 23.58182205 -21.32711601 21.96798706 C-21.34205576 19.70861732 -21.33132967 17.45073074 -21.31420898 15.19140625 C-21.31404282 13.9082251 -21.31387665 12.62504395 -21.31370544 11.30297852 C-20.59721041 6.31318732 -18.41630561 3.18719053 -14.625 -0.0625 C-9.69294548 -2.03532181 -4.90076934 -2.06921372 0 0 Z " fill="#484645" transform="translate(127.8125,27.1875)"/>
<path d="M0 0 C4.50788091 2.25394046 6.81828511 4.49843839 9 9 C9.38768005 12.36349487 9.38768005 12.36349487 9.40405273 16.24951172 C9.41091599 16.96076202 9.41777924 17.67201233 9.42485046 18.40481567 C9.44309127 20.74664505 9.43928449 23.08780259 9.43359375 25.4296875 C9.43815748 27.0648724 9.44346363 28.70005539 9.44947815 30.3352356 C9.45840435 33.7598653 9.45599252 37.18426175 9.44604492 40.60888672 C9.43456663 44.9858744 9.45475114 49.36205394 9.48396206 53.73893547 C9.50235894 57.11570303 9.50202452 60.49227828 9.49632454 63.8690834 C9.49617169 65.48213966 9.50218573 67.09520925 9.51461601 68.70821762 C9.52958786 70.96988475 9.51880507 73.23007648 9.50170898 75.49169922 C9.50154282 76.77567596 9.50137665 78.05965271 9.50120544 79.38253784 C8.78248841 84.56989503 6.80681047 88.35261398 2.875 91.9375 C-1.48264552 93.54793421 -5.42617428 93.89627067 -10 93 C-13.97654007 90.72155001 -16.54330193 88.37009421 -18 84 C-18.11422141 82.4809401 -18.17617338 80.95763953 -18.20532227 79.43457031 C-18.22526749 78.50799622 -18.24521271 77.58142212 -18.26576233 76.62677002 C-18.28247482 75.62071716 -18.29918732 74.61466431 -18.31640625 73.578125 C-18.33718735 72.52711609 -18.35796844 71.47610718 -18.37937927 70.39324951 C-18.42270134 68.15380975 -18.46373598 65.91432477 -18.50268555 63.67480469 C-18.56105806 60.33256119 -18.62652764 56.9905213 -18.69335938 53.6484375 C-18.79941475 48.18468353 -18.88198075 42.72090711 -18.95294189 37.2565918 C-18.98452238 35.07110753 -19.02248786 32.88570691 -19.06658936 30.70043945 C-19.13019403 27.54512772 -19.17451588 24.39005876 -19.21484375 21.234375 C-19.23833389 20.2891095 -19.26182404 19.34384399 -19.286026 18.36993408 C-19.3398435 11.91963234 -18.33531407 7.7002069 -14 2.6875 C-9.94415571 -0.73461862 -5.05727327 -0.62243363 0 0 Z " fill="#484645" transform="translate(396,26)"/>
<path d="M0 0 C3.66316787 2.7294192 4.60000835 4.12054599 6.1875 8.375 C6.56005411 11.95221069 6.4814432 15.48999318 6.39453125 19.08203125 C6.38130325 20.13107132 6.36807526 21.18011139 6.35444641 22.26094055 C6.32510975 24.49373339 6.28933351 26.72644951 6.24761963 28.95904541 C6.18851983 32.31705377 6.15500682 35.67429089 6.13037109 39.03271484 C6.08757792 44.58916125 6.01421986 50.1445548 5.92504883 55.70043945 C5.89117774 57.97575019 5.86335553 60.25115768 5.84106445 62.52661133 C5.80766125 65.87617122 5.75551347 69.22497512 5.69921875 72.57421875 C5.69282883 73.58868576 5.6864389 74.60315277 5.67985535 75.64836121 C5.49707493 84.35807363 5.49707493 84.35807363 2.1875 88.375 C-1.65427484 91.75110516 -5.45537246 91.89103636 -10.375 91.72265625 C-14.06116644 91.19690495 -16.10233949 89.88685609 -18.8125 87.375 C-21.57776389 82.81841186 -22.19388473 79.40010767 -22.21655273 74.10375977 C-22.22341599 73.402117 -22.23027924 72.70047424 -22.23735046 71.97756958 C-22.25555153 69.67363869 -22.25179079 67.37039314 -22.24609375 65.06640625 C-22.25065885 63.45507081 -22.2559654 61.84373731 -22.26197815 60.23240662 C-22.27089613 56.86083042 -22.26850128 53.48949126 -22.25854492 50.11791992 C-22.24705781 45.80933773 -22.26726883 41.50157545 -22.29646206 37.19310093 C-22.31485834 33.86694694 -22.31452481 30.54098819 -22.30882454 27.21479607 C-22.30867174 25.62685941 -22.31468198 24.03890918 -22.32711601 22.45102119 C-22.34208982 20.22537776 -22.33130446 18.00123313 -22.31420898 15.77563477 C-22.31404282 14.51243912 -22.31387665 13.24924347 -22.31370544 11.94776917 C-21.68309071 7.45252496 -20.35227514 5.12269865 -17.8125 1.375 C-12.22352188 -2.56268913 -6.05490568 -3.05300097 0 0 Z " fill="#484745" transform="translate(218.8125,27.625)"/>
<path d="M0 0 C21.08848619 -0.74821173 39.28827964 3.45499098 56 17 C56.70640625 17.54269531 57.4128125 18.08539063 58.140625 18.64453125 C67.98631315 26.61023564 74.51041056 37.29158741 79 49 C79.41378906 50.02351563 79.82757813 51.04703125 80.25390625 52.1015625 C84.73186138 65.42620947 83.32314569 80.13166407 83 94 C75.08 94 67.16 94 59 94 C58.8453125 88.5859375 58.8453125 88.5859375 58.6875 83.0625 C57.90959827 62.91211572 54.98379858 45.22974823 42 29 C41.35546875 28.16855469 40.7109375 27.33710937 40.046875 26.48046875 C30.12545578 14.51964669 15.15938959 6.14628841 0 3 C0 2.01 0 1.02 0 0 Z " fill="#E3A223" transform="translate(405,60)"/>
<path d="M0 0 C20.79 0 41.58 0 63 0 C63 0.33 63 0.66 63 1 C42.54 1 22.08 1 1 1 C-0.38268849 21.3345094 -0.38268849 21.3345094 6.3125 27.875 C7.52873047 28.66777344 7.52873047 28.66777344 8.76953125 29.4765625 C13.22858177 32.52214867 14.96755019 37.85669498 16 43 C16.90578189 53.26057844 15.21086207 60.3346045 8.6875 68.3125 C3.73529987 73.64645432 -2.62890227 77.38980649 -9.91015625 78.40625 C-19.29317838 78.68529899 -26.73496201 76.54467062 -33.94140625 70.32421875 C-35.49478214 68.63068864 -36.75130111 66.92680027 -38 65 C-38.40992187 64.44054687 -38.81984375 63.88109375 -39.2421875 63.3046875 C-43.29149126 56.85372772 -42.77353986 49.33315787 -42 42 C-40.44215244 35.8639882 -37.83925194 29.38187255 -32.25512695 25.91748047 C-30.50341797 24.94498698 -28.75170898 23.97249349 -27 23 C-26.98598145 24.12643921 -26.98598145 24.12643921 -26.97167969 25.27563477 C-26.91772436 28.70523644 -26.83412453 32.13351108 -26.75 35.5625 C-26.73582031 36.74392578 -26.72164062 37.92535156 -26.70703125 39.14257812 C-26.51755977 45.90670983 -26.17872968 50.56307617 -22 56 C-17.53880557 58.97412962 -13.22952455 58.74600921 -8 58 C-4.32731044 56.15299945 -2.31768522 53.95305566 -1 50 C-0.88507216 48.35912211 -0.82367646 46.7142222 -0.79467773 45.06958008 C-0.77449585 44.05480591 -0.75431396 43.04003174 -0.73352051 41.99450684 C-0.71704468 40.93026489 -0.70056885 39.86602295 -0.68359375 38.76953125 C-0.66494263 37.78964233 -0.6462915 36.80975342 -0.6270752 35.8001709 C-0.55874616 32.13770617 -0.49861746 28.47509217 -0.4375 24.8125 C-0.293125 16.624375 -0.14875 8.43625 0 0 Z " fill="#E2A224" transform="translate(134,60)"/>
<path d="M0 0 C20.79 0 41.58 0 63 0 C63.3125 24.6875 63.3125 24.6875 63.38793945 32.4597168 C63.42023146 34.49790275 63.45360547 36.53607196 63.48828125 38.57421875 C63.49452515 39.62822876 63.50076904 40.68223877 63.50720215 41.76818848 C63.57470917 48.89492061 63.57470917 48.89492061 67 55 C69.9262867 57.78636031 71.92497395 58.41209577 75.9375 58.375 C80.08428772 58.22864279 82.83108163 57.88083488 86 55 C90.08833531 49.11924181 89.55690066 42.5131825 89.6875 35.625 C89.72166016 34.41199219 89.75582031 33.19898438 89.79101562 31.94921875 C89.87322375 28.96623819 89.94246526 25.98354158 90 23 C94.45694029 25.33685363 97.59830121 27.01699067 100.3125 31.375 C101.01826172 32.46941406 101.01826172 32.46941406 101.73828125 33.5859375 C105.67810637 41.12405492 105.94472091 48.6507098 105 57 C102.36868388 65.13406846 97.31890212 70.72556631 90 75 C83.01430141 78.47417096 75.15005983 79.39775453 67.58203125 77.34375 C59.64392797 74.17397382 53.13716358 68.47871878 49 61 C46.189752 53.64617585 45.60350943 46.29215485 48.0625 38.734375 C51.4891093 31.3224701 54.33169835 28.83476395 61 23 C61.33 15.74 61.66 8.48 62 1 C41.54 1 21.08 1 0 1 C0 0.67 0 0.34 0 0 Z " fill="#E2A224" transform="translate(315,60)"/>
<path d="M0 0 C1.87109375 0.6875 1.87109375 0.6875 4.49609375 2.5 C5.43359375 5.1875 5.43359375 5.1875 5.49609375 7.5 C-1.54419611 12.00578551 -8.24240165 12.56383644 -16.50390625 11.5 C-17.37890778 11.00497482 -18.2539093 10.50994965 -19.15542603 9.99992371 C-23.41027769 8.0939985 -26.84261367 8.05956912 -31.44677734 8.06762695 C-32.32547485 8.0574353 -33.20417236 8.04724365 -34.10949707 8.03674316 C-36.99884468 8.00667437 -39.8878604 7.99735655 -42.77734375 7.98828125 C-44.78660173 7.97143004 -46.7958492 7.9532792 -48.80508423 7.93388367 C-54.08218094 7.88642567 -59.35923501 7.85658904 -64.63647461 7.83044434 C-70.02596455 7.8006177 -75.41530765 7.75409456 -80.8046875 7.70898438 C-91.37101688 7.62299898 -101.93737651 7.55563242 -112.50390625 7.5 C-112.43081238 8.20791183 -112.35771851 8.91582367 -112.28240967 9.64518738 C-111.74675755 15.10914474 -111.40659197 20.42957382 -111.58203125 25.92578125 C-111.6078125 27.21677734 -111.63359375 28.50777344 -111.66015625 29.83789062 C-111.70730686 31.83687983 -111.7547448 33.83595946 -111.82617188 35.83422852 C-112.53749093 44.60783547 -112.53749093 44.60783547 -108.9609375 52.171875 C-108.15011719 52.94015625 -107.33929688 53.7084375 -106.50390625 54.5 C-106.73589108 56.58786351 -106.98607015 58.67706091 -107.37109375 60.7421875 C-107.54747592 64.40471147 -106.59571145 67.58880903 -105.56640625 71.0625 C-104.00209917 76.37600004 -102.94845934 80.94553092 -103.50390625 86.5 C-105.15784742 88.15394117 -107.10706038 87.62999683 -109.37890625 87.6328125 C-110.36375 87.63410156 -111.34859375 87.63539063 -112.36328125 87.63671875 C-113.3996875 87.63285156 -114.43609375 87.62898438 -115.50390625 87.625 C-117.05851563 87.63080078 -117.05851563 87.63080078 -118.64453125 87.63671875 C-119.629375 87.63542969 -120.61421875 87.63414062 -121.62890625 87.6328125 C-122.53898438 87.63168457 -123.4490625 87.63055664 -124.38671875 87.62939453 C-126.50390625 87.5 -126.50390625 87.5 -127.50390625 86.5 C-127.82575597 81.27815246 -126.98938347 77.15676923 -125.44140625 72.1875 C-123.78207245 66.61712539 -123.49131087 62.31477583 -124.46484375 56.59765625 C-124.5142644 53.94376724 -123.83620865 52.92387235 -122.19140625 50.875 C-119.50390625 48.5 -119.50390625 48.5 -117.50390625 48.5 C-117.59735073 43.97895877 -117.70342255 39.45845887 -117.82128906 34.93798828 C-117.85960926 33.39965979 -117.89445681 31.86124075 -117.92578125 30.32275391 C-117.97136684 28.11327724 -118.02936965 25.90442552 -118.08984375 23.6953125 C-118.10139496 23.00567413 -118.11294617 22.31603577 -118.12484741 21.60549927 C-118.15341647 17.6079846 -118.15341647 17.6079846 -120.50390625 14.5 C-121.16473228 7.67146433 -121.16473228 7.67146433 -119.12890625 4.0625 C-111.38941865 -0.54433786 -98.65846245 1.39821705 -89.82721329 1.45540047 C-87.02769699 1.47294785 -84.2282389 1.48313765 -81.42868042 1.49131775 C-73.47648638 1.5156467 -65.52437204 1.5515203 -57.57226562 1.59594727 C-52.69134913 1.62270778 -47.81047667 1.63976064 -42.92950058 1.65081596 C-41.07392611 1.65702182 -39.21836029 1.66702223 -37.3628273 1.68089485 C-34.77584426 1.70008505 -32.18909534 1.70700256 -29.60205078 1.71118164 C-28.45496895 1.72432404 -28.45496895 1.72432404 -27.28471375 1.73773193 C-17.82038507 1.72025501 -9.97779327 -1.99244546 0 0 Z " fill="#F3B536" transform="translate(256.50390625,270.5)"/>
<path d="M0 0 C3.3962259 0.78374444 4.36871863 1.72952817 6.4375 4.5625 C7.04400818 7.80857272 6.98366314 11.02219713 6.95507812 14.31640625 C6.9620874 15.30542938 6.96909668 16.29445251 6.97631836 17.31344604 C6.9939304 20.58424923 6.9822638 23.85418794 6.96875 27.125 C6.97144398 29.39656745 6.97532561 31.66813377 6.98034668 33.93969727 C6.9862461 38.70112077 6.97766419 43.46224418 6.95898438 48.22363281 C6.93619494 54.33059068 6.9493156 60.43684541 6.97327423 66.54377747 C6.98772 71.23463246 6.98313175 75.92532043 6.97276306 80.61618042 C6.97009242 82.86807335 6.97337735 85.11998139 6.98268127 87.37185669 C6.99282642 90.51784505 6.97737336 93.66269063 6.95507812 96.80859375 C6.96317505 97.7417038 6.97127197 98.67481384 6.97961426 99.63619995 C6.89727308 105.89949636 6.89727308 105.89949636 4.62780762 109.17211914 C2.4375 110.5625 2.4375 110.5625 -1.125 110.5625 C-4.5625 109.5625 -4.5625 109.5625 -6.25109863 108.09715271 C-8.28453297 104.16696782 -7.99643067 100.37157817 -7.98242188 96.00805664 C-7.99089142 95.04014694 -7.99936096 94.07223724 -8.00808716 93.07499695 C-8.0314945 89.87408322 -8.03247842 86.67364911 -8.03125 83.47265625 C-8.03834919 81.24832465 -8.04604783 79.0239949 -8.05432129 76.79966736 C-8.06777462 72.1366568 -8.06933094 67.47381557 -8.06347656 62.81079102 C-8.05757907 56.83388804 -8.08817085 50.85779696 -8.12859344 44.88105106 C-8.15443659 40.28710041 -8.15735092 35.69334614 -8.15370178 31.09933281 C-8.15539612 28.89569495 -8.1650687 26.69204832 -8.18284607 24.48848152 C-8.20496875 21.40721337 -8.19536728 18.32760013 -8.17773438 15.24633789 C-8.19099762 14.3355246 -8.20426086 13.4247113 -8.21792603 12.48629761 C-8.1582526 8.000952 -8.01388331 6.1451796 -5.1842041 2.49241638 C-2.5625 0.5625 -2.5625 0.5625 0 0 Z " fill="#A0A0F8" transform="translate(44.5625,281.4375)"/>
<path d="M0 0 C0 1.65 0 3.3 0 5 C-5.98306393 7.34875216 -11.98171219 9.21058697 -18.1875 10.875 C-19.15308838 11.13619629 -20.11867676 11.39739258 -21.11352539 11.66650391 C-28.20459187 13.56539107 -35.3254082 15.29933358 -42.47387695 16.96655273 C-50.4701797 18.84375374 -58.42354919 20.88031356 -66.375 22.9375 C-67.7104462 23.28174998 -69.04589541 23.6259883 -70.38134766 23.97021484 C-76.51451843 25.55477722 -82.63881727 27.1653088 -88.74609375 28.84765625 C-89.77750488 29.12810791 -90.80891602 29.40855957 -91.87158203 29.69750977 C-93.75703353 30.21199416 -95.6398356 30.73634962 -97.51904297 31.27319336 C-107.96863425 34.10905596 -116.6125088 32.9777973 -127 30.3125 C-127.99644531 30.06822266 -128.99289063 29.82394531 -130.01953125 29.57226562 C-135.32948368 28.2531265 -140.60719377 26.83799368 -145.8731842 25.35325623 C-160.64075887 21.19092888 -175.53537325 17.52023452 -190.41479492 13.78222656 C-194.11192109 12.85257712 -197.80796728 11.9187312 -201.50390625 10.984375 C-202.64533585 10.69898865 -203.78676544 10.41360229 -204.96278381 10.11956787 C-206.00575119 9.85549133 -207.04871857 9.59141479 -208.12329102 9.31933594 C-209.04384781 9.08792908 -209.9644046 8.85652222 -210.91285706 8.61810303 C-213 8 -213 8 -214 7 C-214.04063832 5.33382885 -214.042721 3.66611905 -214 2 C-205.29026655 3.59377568 -196.73496065 5.76965915 -188.16015625 7.95703125 C-186.62817793 8.34595559 -185.09614868 8.73467936 -183.56407166 9.12321472 C-180.36060011 9.93615871 -177.1575505 10.75073701 -173.95483398 11.56665039 C-169.90788312 12.59761844 -165.860214 13.6257292 -161.81225014 14.65271187 C-158.6586252 15.4529448 -155.5052664 16.25422271 -152.35197067 17.0557518 C-150.81081701 17.4474101 -149.26960072 17.83882203 -147.72832108 18.22998428 C-140.72652571 20.00761799 -133.72635796 21.78586974 -126.75732422 23.68896484 C-125.87620468 23.92854416 -124.99508514 24.16812347 -124.08726501 24.41496277 C-122.56723227 24.83186282 -121.04915007 25.25600112 -119.53395081 25.69013977 C-110.16112731 28.26564882 -102.64534992 26.10293436 -93.50390625 23.6328125 C-92.16440058 23.27769274 -90.82467351 22.92340716 -89.48474121 22.56990051 C-86.64480914 21.81912922 -83.80627942 21.06335138 -80.96878052 20.30343628 C-76.55307967 19.1211374 -72.13429828 17.95070184 -67.71459961 16.78344727 C-66.98365617 16.5904004 -66.25271273 16.39735353 -65.49961948 16.19845676 C-64.02627087 15.80940196 -62.55290671 15.42040601 -61.0795269 15.03146935 C-58.87639793 14.44958797 -56.67353791 13.86669726 -54.47071838 13.28364563 C-42.35671245 10.07969203 -30.22080824 6.96923887 -18.0625 3.9375 C-17.22888947 3.72845032 -16.39527893 3.51940063 -15.53640747 3.30401611 C-13.24502948 2.72974268 -10.95282889 2.15892367 -8.66015625 1.58984375 C-7.40855713 1.27909912 -6.15695801 0.96835449 -4.86743164 0.64819336 C-2 0 -2 0 0 0 Z " fill="#1D1D1D" transform="translate(358,281)"/>
<path d="M0 0 C0.66 0.33 1.32 0.66 2 1 C1.97381592 1.87736816 1.94763184 2.75473633 1.9206543 3.65869141 C1.83509091 6.93522757 1.77259133 10.21056558 1.7253418 13.48779297 C1.70030075 14.90204682 1.66625658 16.31617257 1.62280273 17.72998047 C0.90746885 26.83202841 0.90746885 26.83202841 4.546875 34.71484375 C5.35640625 35.46894531 6.1659375 36.22304688 7 37 C6.76801517 39.08786351 6.5178361 41.17706091 6.1328125 43.2421875 C5.95643033 46.90471147 6.9081948 50.08880903 7.9375 53.5625 C9.50180708 58.87600004 10.55544691 63.44553092 10 69 C8.4779041 70.5220959 7.11789918 70.12959521 5 70.1328125 C4.195625 70.13410156 3.39125 70.13539063 2.5625 70.13671875 C1.716875 70.13285156 0.87125 70.12898438 0 70.125 C-0.845625 70.12886719 -1.69125 70.13273437 -2.5625 70.13671875 C-3.366875 70.13542969 -4.17125 70.13414062 -5 70.1328125 C-5.7425 70.13168457 -6.485 70.13055664 -7.25 70.12939453 C-9 70 -9 70 -10 69 C-9.9542341 63.54241686 -8.89337859 58.36202299 -7.4375 53.125 C-5.98981871 47.77065722 -5.83576214 43.01398138 -6.1875 37.49609375 C-6 35 -6 35 -4.625 33.16015625 C-3 32 -3 32 -1 32 C-0.67 21.44 -0.34 10.88 0 0 Z " fill="#F8BB3E" transform="translate(143,288)"/>
<path d="M0 0 C3.43174448 0.50046274 4.62238691 0.93395401 7 3.4375 C7.40894836 6.10769224 7.56077709 8.2785023 7.5 10.9375 C7.51546875 11.61425781 7.5309375 12.29101562 7.546875 12.98828125 C7.5213203 16.22733971 7.42845018 17.98635648 5.15625 20.37890625 C2.19137482 21.83448809 0.26180402 21.91317975 -3 21.4375 C-5.95621331 19.21498456 -6.89857446 18.0281546 -7.53125 14.34375 C-7.5209375 13.2196875 -7.510625 12.095625 -7.5 10.9375 C-7.51546875 9.25140625 -7.51546875 9.25140625 -7.53125 7.53125 C-6.72037571 2.8090997 -4.74599606 0.69212442 0 0 Z " fill="#A0A0F8" transform="translate(44,243.5625)"/>
<path d="M0 0 C8.92150625 1.97408158 17.27196104 4.8000159 25.75 8.1875 C26.97630127 8.6736377 28.20260254 9.15977539 29.46606445 9.66064453 C38.57541666 13.31979744 47.37825392 17.31265465 56 22 C56.97582031 22.52851563 57.95164063 23.05703125 58.95703125 23.6015625 C60.98306101 24.71572326 62.99805529 25.84332083 65 27 C64.505 28.485 64.505 28.485 64 30 C63.20722656 29.53851563 62.41445312 29.07703125 61.59765625 28.6015625 C47.84133124 20.8255442 33.05203879 14.99829636 18.0859375 9.984375 C17.17223389 9.67765869 16.25853027 9.37094238 15.31713867 9.05493164 C13.6143568 8.49323969 11.90633672 7.94708915 10.19262695 7.41967773 C5.39224705 5.85478946 2.81207507 4.44051533 0 0 Z " fill="#373636" transform="translate(170,344)"/>
<path d="M0 0 C1.32 0 2.64 0 4 0 C4 7.92 4 15.84 4 24 C2.35 23.67 0.7 23.34 -1 23 C-1.02887512 19.35418313 -1.04675585 15.70839537 -1.0625 12.0625 C-1.07087891 11.02158203 -1.07925781 9.98066406 -1.08789062 8.90820312 C-1.09272461 7.42416992 -1.09272461 7.42416992 -1.09765625 5.91015625 C-1.10289307 4.99371338 -1.10812988 4.07727051 -1.11352539 3.13305664 C-1 1 -1 1 0 0 Z " fill="#797878" transform="translate(383,57)"/>
<path d="M0 0 C2.475 0.495 2.475 0.495 5 1 C5 8.26 5 15.52 5 23 C3.35 23.33 1.7 23.66 0 24 C0 16.08 0 8.16 0 0 Z " fill="#7A7979" transform="translate(293,57)"/>
<path d="M0 0 C1.98 0.495 1.98 0.495 4 1 C4 8.59 4 16.18 4 24 C2.35 23.67 0.7 23.34 -1 23 C-1.02887512 19.35418313 -1.04675585 15.70839537 -1.0625 12.0625 C-1.07087891 11.02158203 -1.07925781 9.98066406 -1.08789062 8.90820312 C-1.09272461 7.42416992 -1.09272461 7.42416992 -1.09765625 5.91015625 C-1.10289307 4.99371338 -1.10812988 4.07727051 -1.11352539 3.13305664 C-1 1 -1 1 0 0 Z " fill="#7B7A7A" transform="translate(204,57)"/>
<path d="M0 0 C1.98 0.495 1.98 0.495 4 1 C4 8.26 4 15.52 4 23 C2.68 23.33 1.36 23.66 0 24 C-1.65394117 22.34605883 -1.12999683 20.39684587 -1.1328125 18.125 C-1.13410156 17.14015625 -1.13539062 16.1553125 -1.13671875 15.140625 C-1.13285156 14.10421875 -1.12898438 13.0678125 -1.125 12 C-1.13080078 10.44539063 -1.13080078 10.44539063 -1.13671875 8.859375 C-1.13542969 7.87453125 -1.13414063 6.8896875 -1.1328125 5.875 C-1.13168457 4.96492188 -1.13055664 4.05484375 -1.12939453 3.1171875 C-1 1 -1 1 0 0 Z " fill="#7B7B7B" transform="translate(114,57)"/>
<path d="M0 0 C2.5 0.125 2.5 0.125 3.5 1.125 C3.62487758 2.93427281 3.67570846 4.74896107 3.6875 6.5625 C3.70167969 7.55121094 3.71585938 8.53992188 3.73046875 9.55859375 C3.5 12.125 3.5 12.125 1.5 14.125 C-2.03571429 13.58928571 -2.03571429 13.58928571 -3.5 12.125 C-3.59851171 10.29384117 -3.62972629 8.45880067 -3.625 6.625 C-3.62757813 5.6246875 -3.63015625 4.624375 -3.6328125 3.59375 C-3.45286995 0.24893545 -3.34848919 0.16742446 0 0 Z " fill="#6B6A6A" transform="translate(181.5,327.875)"/>
<path d="M0 0 C3.53571429 0.53571429 3.53571429 0.53571429 5 2 C5.1875 4.9375 5.1875 4.9375 5 8 C4.34 8.66 3.68 9.32 3 10 C-0.53571429 9.46428571 -0.53571429 9.46428571 -2 8 C-2.1875 5.0625 -2.1875 5.0625 -2 2 C-1.34 1.34 -0.68 0.68 0 0 Z " fill="#696868" transform="translate(180,313)"/>
<path d="M0 0 C0.66 0.33 1.32 0.66 2 1 C-3.28 6.28 -8.56 11.56 -14 17 C-14 12.95607032 -12.51908749 11.99868382 -9.8125 9.0625 C-9.03519531 8.20785156 -8.25789063 7.35320312 -7.45703125 6.47265625 C-5.09786332 4.09848566 -2.65532732 2.0327639 0 0 Z " fill="#D6A668" transform="translate(53,75)"/>
<path d="M0 0 C2.0625 0.4375 2.0625 0.4375 4 1 C4 2.65 4 4.3 4 6 C2.0625 6.5625 2.0625 6.5625 0 7 C-1 6 -1 6 -1.125 3.5 C-1 1 -1 1 0 0 Z " fill="#777676" transform="translate(383,44)"/>
<path d="M0 0 C2.0625 0.4375 2.0625 0.4375 4 1 C4 2.65 4 4.3 4 6 C2.0625 6.5625 2.0625 6.5625 0 7 C-1 6 -1 6 -1.125 3.5 C-1 1 -1 1 0 0 Z " fill="#787777" transform="translate(294,44)"/>
<path d="M0 0 C2.0625 0.4375 2.0625 0.4375 4 1 C4 2.65 4 4.3 4 6 C2.0625 6.5625 2.0625 6.5625 0 7 C-1 6 -1 6 -1.125 3.5 C-1 1 -1 1 0 0 Z " fill="#797878" transform="translate(204,44)"/>
<path d="M0 0 C2.0625 0.4375 2.0625 0.4375 4 1 C4 2.65 4 4.3 4 6 C2.0625 6.5625 2.0625 6.5625 0 7 C-1 6 -1 6 -1.125 3.5 C-1 1 -1 1 0 0 Z " fill="#797878" transform="translate(114,44)"/>
<path d="M0 0 C0.33 0 0.66 0 1 0 C1 3.96 1 7.92 1 12 C0.01 11.34 -0.98 10.68 -2 10 C-2.36328125 8.125 -2.36328125 8.125 -2.3125 6 C-2.30669922 4.948125 -2.30669922 4.948125 -2.30078125 3.875 C-2 2 -2 2 0 0 Z " fill="#5F584B" transform="translate(138,275)"/>
</svg>
