<?xml version="1.0" encoding="UTF-8"?>
<!DOCTYPE svg PUBLIC "-//W3C//DTD SVG 1.1//EN" "http://www.w3.org/Graphics/SVG/1.1/DTD/svg11.dtd">
<svg xmlns="http://www.w3.org/2000/svg" version="1.1" width="512px" height="512px" style="shape-rendering:geometricPrecision; text-rendering:geometricPrecision; image-rendering:optimizeQuality; fill-rule:evenodd; clip-rule:evenodd" xmlns:xlink="http://www.w3.org/1999/xlink">
<g><path style="opacity:0.973" fill="#0c5078" d="M 343.5,125.5 C 314.799,99.8025 285.466,74.8025 255.5,50.5C 225.534,74.8025 196.201,99.8025 167.5,125.5C 163.375,128.453 159.375,131.619 155.5,135C 144.503,136.536 141.003,132.036 145,121.5C 179.833,92 214.667,62.5 249.5,33C 253.5,31 257.5,31 261.5,33C 296.333,62.5 331.167,92 366,121.5C 369.997,132.036 366.497,136.536 355.5,135C 351.625,131.619 347.625,128.453 343.5,125.5 Z"/></g>
<g><path style="opacity:1" fill="#cfd0d1" d="M 343.5,125.5 C 343.5,127.5 343.5,129.5 343.5,131.5C 314.205,107.213 284.872,82.8796 255.5,58.5C 226.128,82.8796 196.795,107.213 167.5,131.5C 167.5,129.5 167.5,127.5 167.5,125.5C 196.201,99.8025 225.534,74.8025 255.5,50.5C 285.466,74.8025 314.799,99.8025 343.5,125.5 Z"/></g>
<g><path style="opacity:1" fill="#efefef" d="M 343.5,131.5 C 343.5,146.167 343.5,160.833 343.5,175.5C 343.5,180.833 343.5,186.167 343.5,191.5C 343.5,194.167 343.5,196.833 343.5,199.5C 343.5,239.5 343.5,279.5 343.5,319.5C 343.5,324.833 343.5,330.167 343.5,335.5C 343.5,338.167 343.5,340.833 343.5,343.5C 343.5,383.5 343.5,423.5 343.5,463.5C 332.833,463.5 322.167,463.5 311.5,463.5C 311.667,441.831 311.5,420.164 311,398.5C 307.645,382.166 299.145,369.332 285.5,360C 256.393,344.955 231.226,349.789 210,374.5C 205.014,381.806 201.681,389.806 200,398.5C 199.5,420.164 199.333,441.831 199.5,463.5C 188.833,463.5 178.167,463.5 167.5,463.5C 167.5,418.167 167.5,372.833 167.5,327.5C 167.5,324.5 167.5,321.5 167.5,318.5C 167.5,313.5 167.5,308.5 167.5,303.5C 167.5,287.5 167.5,271.5 167.5,255.5C 167.5,250.167 167.5,244.833 167.5,239.5C 167.5,203.5 167.5,167.5 167.5,131.5C 196.795,107.213 226.128,82.8796 255.5,58.5C 284.872,82.8796 314.205,107.213 343.5,131.5 Z"/></g>
<g><path style="opacity:0.947" fill="#00a0c8" d="M 103.5,79.5 C 106.518,79.3354 109.518,79.502 112.5,80C 117.333,84.8333 122.167,89.6667 127,94.5C 128.863,104.972 124.696,108.806 114.5,106C 110,101.5 105.5,97 101,92.5C 98.8167,87.5697 99.65,83.2364 103.5,79.5 Z"/></g>
<g><path style="opacity:0.947" fill="#fab400" d="M 398.5,79.5 C 408.966,78.1271 412.799,82.4605 410,92.5C 405.5,97 401,101.5 396.5,106C 386.304,108.806 382.137,104.972 384,94.5C 389.037,89.6313 393.87,84.6313 398.5,79.5 Z"/></g>
<g><path style="opacity:0.972" fill="#c8094f" d="M 87.5,119.5 C 95.84,119.334 104.173,119.5 112.5,120C 117.833,125 117.833,130 112.5,135C 104.167,135.667 95.8333,135.667 87.5,135C 82.2475,129.839 82.2475,124.673 87.5,119.5 Z"/></g>
<g><path style="opacity:0.976" fill="#c8094f" d="M 398.5,119.5 C 406.84,119.334 415.173,119.5 423.5,120C 428.833,125 428.833,130 423.5,135C 415.167,135.667 406.833,135.667 398.5,135C 393.208,129.835 393.208,124.668 398.5,119.5 Z"/></g>
<g><path style="opacity:1" fill="#0d5179" d="M 295.5,164.5 C 287.963,192.444 269.963,203.277 241.5,197C 226.734,190.932 218.067,180.098 215.5,164.5C 215.25,138.253 228.083,123.253 254,119.5C 281.552,121.884 295.385,136.884 295.5,164.5 Z"/></g>
<g><path style="opacity:1" fill="#0082aa" d="M 278.5,164.5 C 277.123,154.275 271.456,147.442 261.5,144C 249.419,141.791 240.252,145.958 234,156.5C 232.921,159.063 232.421,161.729 232.5,164.5C 230.316,147.257 237.983,137.59 255.5,135.5C 273.017,137.59 280.684,147.257 278.5,164.5 Z"/></g>
<g><path style="opacity:1" fill="#009fc7" d="M 278.5,164.5 C 274.416,179.218 264.75,185.384 249.5,183C 240.479,179.816 234.812,173.649 232.5,164.5C 232.421,161.729 232.921,159.063 234,156.5C 240.252,145.958 249.419,141.791 261.5,144C 271.456,147.442 277.123,154.275 278.5,164.5 Z"/></g>
<g><path style="opacity:0.947" fill="#fab400" d="M 117.5,147.5 C 126.213,147.719 129.38,152.052 127,160.5C 122.167,165.333 117.333,170.167 112.5,175C 102.028,176.863 98.1943,172.696 101,162.5C 106.121,156.87 111.621,151.87 117.5,147.5 Z"/></g>
<g><path style="opacity:0.954" fill="#00a0c8" d="M 389.5,147.5 C 391.927,147.523 394.26,148.023 396.5,149C 401,153.5 405.5,158 410,162.5C 412.806,172.696 408.972,176.863 398.5,175C 393.667,170.167 388.833,165.333 384,160.5C 381.955,154.236 383.789,149.903 389.5,147.5 Z"/></g>
<g><path style="opacity:1" fill="#cecfd0" d="M 215.5,164.5 C 218.067,180.098 226.734,190.932 241.5,197C 269.963,203.277 287.963,192.444 295.5,164.5C 294.473,190.861 280.806,205.194 254.5,207.5C 229.289,204.288 216.289,189.954 215.5,164.5 Z"/></g>
<g><path style="opacity:0.975" fill="#0e5077" d="M 343.5,175.5 C 386.566,182.88 429.566,190.713 472.5,199C 475.494,199.406 477.661,200.906 479,203.5C 481.259,211.355 478.425,215.355 470.5,215.5C 468.117,215.363 465.783,215.029 463.5,214.5C 423.63,206.657 383.63,198.99 343.5,191.5C 343.5,186.167 343.5,180.833 343.5,175.5 Z"/></g>
<g><path style="opacity:1" fill="#d99503" d="M 343.5,191.5 C 383.63,198.99 423.63,206.657 463.5,214.5C 463.5,216.833 463.5,219.167 463.5,221.5C 423.364,214.625 383.364,207.292 343.5,199.5C 343.5,196.833 343.5,194.167 343.5,191.5 Z"/></g>
<g><path style="opacity:1" fill="#f9b300" d="M 343.5,199.5 C 383.364,207.292 423.364,214.625 463.5,221.5C 463.5,254.167 463.5,286.833 463.5,319.5C 423.5,319.5 383.5,319.5 343.5,319.5C 343.5,279.5 343.5,239.5 343.5,199.5 Z"/></g>
<g><path style="opacity:1" fill="#0d5179" d="M 295.5,276.5 C 287.963,304.444 269.963,315.277 241.5,309C 226.734,302.932 218.067,292.098 215.5,276.5C 215.25,250.253 228.083,235.253 254,231.5C 281.552,233.884 295.385,248.884 295.5,276.5 Z"/></g>
<g><path style="opacity:1" fill="#f0efee" d="M 439.5,277.5 C 438.679,280.484 436.679,282.317 433.5,283C 413.167,283.667 392.833,283.667 372.5,283C 369.887,281.893 368.22,280.06 367.5,277.5C 367.038,264.401 367.538,251.401 369,238.5C 369.903,237.299 371.069,236.465 372.5,236C 392.833,235.333 413.167,235.333 433.5,236C 435.081,236.707 436.581,237.54 438,238.5C 439.462,251.401 439.962,264.401 439.5,277.5 Z"/></g>
<g><path style="opacity:0.995" fill="#095078" d="M 167.5,239.5 C 167.5,244.833 167.5,250.167 167.5,255.5C 160.833,255.5 154.167,255.5 147.5,255.5C 142.167,255.5 136.833,255.5 131.5,255.5C 123.5,255.5 115.5,255.5 107.5,255.5C 102.167,255.5 96.8333,255.5 91.5,255.5C 83.5,255.5 75.5,255.5 67.5,255.5C 62.1667,255.5 56.8333,255.5 51.5,255.5C 45.3792,255.91 39.3792,255.41 33.5,254C 31.5715,250.744 31.0715,247.244 32,243.5C 32.5,241.667 33.6667,240.5 35.5,240C 79.4987,239.5 123.499,239.333 167.5,239.5 Z"/></g>
<g><path style="opacity:1" fill="#00a0c8" d="M 375.5,243.5 C 394.167,243.5 412.833,243.5 431.5,243.5C 431.5,254.167 431.5,264.833 431.5,275.5C 412.833,275.5 394.167,275.5 375.5,275.5C 375.5,264.833 375.5,254.167 375.5,243.5 Z"/></g>
<g><path style="opacity:1" fill="#0082aa" d="M 278.5,276.5 C 277.123,266.275 271.456,259.442 261.5,256C 249.419,253.791 240.252,257.958 234,268.5C 232.921,271.063 232.421,273.729 232.5,276.5C 230.316,259.257 237.983,249.59 255.5,247.5C 273.017,249.59 280.684,259.257 278.5,276.5 Z"/></g>
<g><path style="opacity:1" fill="#00315a" d="M 51.5,255.5 C 56.8333,255.5 62.1667,255.5 67.5,255.5C 67.5,258.167 67.5,260.833 67.5,263.5C 62.1667,263.5 56.8333,263.5 51.5,263.5C 51.5,260.833 51.5,258.167 51.5,255.5 Z"/></g>
<g><path style="opacity:1" fill="#00315a" d="M 91.5,255.5 C 96.8333,255.5 102.167,255.5 107.5,255.5C 107.5,258.167 107.5,260.833 107.5,263.5C 102.167,263.5 96.8333,263.5 91.5,263.5C 91.5,260.833 91.5,258.167 91.5,255.5 Z"/></g>
<g><path style="opacity:1" fill="#00315a" d="M 131.5,255.5 C 136.833,255.5 142.167,255.5 147.5,255.5C 147.5,258.167 147.5,260.833 147.5,263.5C 142.167,263.5 136.833,263.5 131.5,263.5C 131.5,260.833 131.5,258.167 131.5,255.5 Z"/></g>
<g><path style="opacity:1" fill="#009fc7" d="M 278.5,276.5 C 274.416,291.218 264.75,297.384 249.5,295C 240.479,291.816 234.812,285.649 232.5,276.5C 232.421,273.729 232.921,271.063 234,268.5C 240.252,257.958 249.419,253.791 261.5,256C 271.456,259.442 277.123,266.275 278.5,276.5 Z"/></g>
<g><path style="opacity:0.998" fill="#0a5078" d="M 51.5,263.5 C 56.8333,263.5 62.1667,263.5 67.5,263.5C 67.5,276.833 67.5,290.167 67.5,303.5C 75.5,303.5 83.5,303.5 91.5,303.5C 91.5,290.167 91.5,276.833 91.5,263.5C 96.8333,263.5 102.167,263.5 107.5,263.5C 107.5,276.833 107.5,290.167 107.5,303.5C 115.5,303.5 123.5,303.5 131.5,303.5C 131.5,290.167 131.5,276.833 131.5,263.5C 136.833,263.5 142.167,263.5 147.5,263.5C 147.5,276.833 147.5,290.167 147.5,303.5C 154.167,303.5 160.833,303.5 167.5,303.5C 167.5,308.5 167.5,313.5 167.5,318.5C 127.543,319.488 87.5428,319.822 47.5,319.5C 42.7027,319.879 38.036,319.379 33.5,318C 31.5715,314.744 31.0715,311.244 32,307.5C 32.5,305.667 33.6667,304.5 35.5,304C 40.8229,303.501 46.1563,303.334 51.5,303.5C 51.5,290.167 51.5,276.833 51.5,263.5 Z"/></g>
<g><path style="opacity:1" fill="#dc9601" d="M 367.5,277.5 C 368.22,280.06 369.887,281.893 372.5,283C 392.833,283.667 413.167,283.667 433.5,283C 436.679,282.317 438.679,280.484 439.5,277.5C 440.076,282.118 439.076,286.285 436.5,290C 425.402,291.134 414.235,291.634 403,291.5C 392.833,291.333 382.667,291.167 372.5,291C 371.069,290.535 369.903,289.701 369,288.5C 367.763,284.94 367.263,281.273 367.5,277.5 Z"/></g>
<g><path style="opacity:1" fill="#cecfd0" d="M 215.5,276.5 C 218.067,292.098 226.734,302.932 241.5,309C 269.963,315.277 287.963,304.444 295.5,276.5C 294.473,302.861 280.806,317.194 254.5,319.5C 229.289,316.288 216.289,301.954 215.5,276.5 Z"/></g>
<g><path style="opacity:1" fill="#db9500" d="M 167.5,318.5 C 167.5,321.5 167.5,324.5 167.5,327.5C 127.5,327.5 87.5,327.5 47.5,327.5C 47.5,324.833 47.5,322.167 47.5,319.5C 87.5428,319.822 127.543,319.488 167.5,318.5 Z"/></g>
<g><path style="opacity:0.996" fill="#095078" d="M 343.5,319.5 C 383.5,319.5 423.5,319.5 463.5,319.5C 467.514,319.334 471.514,319.501 475.5,320C 478.516,321.529 479.849,324.029 479.5,327.5C 479.596,329.926 478.93,332.093 477.5,334C 472.964,335.379 468.297,335.879 463.5,335.5C 423.5,335.5 383.5,335.5 343.5,335.5C 343.5,330.167 343.5,324.833 343.5,319.5 Z"/></g>
<g><path style="opacity:1" fill="#f9b400" d="M 47.5,327.5 C 87.5,327.5 127.5,327.5 167.5,327.5C 167.5,372.833 167.5,418.167 167.5,463.5C 163.5,463.5 159.5,463.5 155.5,463.5C 155.98,429.105 155.48,394.771 154,360.5C 151.708,356.212 148.208,353.378 143.5,352C 120.833,351.333 98.1667,351.333 75.5,352C 70.8151,353.35 67.3151,356.183 65,360.5C 63.5204,394.771 63.0204,429.105 63.5,463.5C 58.1667,463.5 52.8333,463.5 47.5,463.5C 47.5,418.167 47.5,372.833 47.5,327.5 Z"/></g>
<g><path style="opacity:1" fill="#db9600" d="M 343.5,335.5 C 383.5,335.5 423.5,335.5 463.5,335.5C 463.5,338.167 463.5,340.833 463.5,343.5C 423.5,343.5 383.5,343.5 343.5,343.5C 343.5,340.833 343.5,338.167 343.5,335.5 Z"/></g>
<g><path style="opacity:1" fill="#f9b300" d="M 343.5,343.5 C 383.5,343.5 423.5,343.5 463.5,343.5C 463.5,383.5 463.5,423.5 463.5,463.5C 456.833,463.5 450.167,463.5 443.5,463.5C 443.948,453.727 443.448,444.061 442,434.5C 436.559,430.074 431.892,430.741 428,436.5C 427.82,433.044 427.153,429.711 426,426.5C 421.667,422.5 417.333,422.5 413,426.5C 411.847,429.711 411.18,433.044 411,436.5C 407.987,431.465 403.82,430.298 398.5,433C 397.299,433.903 396.465,435.069 396,436.5C 395.82,433.044 395.153,429.711 394,426.5C 389.667,422.5 385.333,422.5 381,426.5C 379.847,429.711 379.18,433.044 379,436.5C 375.987,431.465 371.82,430.298 366.5,433C 365.299,433.903 364.465,435.069 364,436.5C 363.5,445.494 363.334,454.494 363.5,463.5C 356.833,463.5 350.167,463.5 343.5,463.5C 343.5,423.5 343.5,383.5 343.5,343.5 Z"/></g>
<g><path style="opacity:1" fill="#f0efef" d="M 155.5,463.5 C 152.833,463.5 150.167,463.5 147.5,463.5C 147.5,455.5 147.5,447.5 147.5,439.5C 147.5,434.167 147.5,428.833 147.5,423.5C 147.5,415.5 147.5,407.5 147.5,399.5C 147.5,394.167 147.5,388.833 147.5,383.5C 147.666,377.158 147.5,370.825 147,364.5C 146.535,363.069 145.701,361.903 144.5,361C 132.926,359.853 121.259,359.353 109.5,359.5C 97.7408,359.353 86.0741,359.853 74.5,361C 73.2986,361.903 72.4652,363.069 72,364.5C 71.5005,370.825 71.3338,377.158 71.5,383.5C 71.5,388.833 71.5,394.167 71.5,399.5C 71.5,407.5 71.5,415.5 71.5,423.5C 71.5,428.833 71.5,434.167 71.5,439.5C 71.5,447.5 71.5,455.5 71.5,463.5C 68.8333,463.5 66.1667,463.5 63.5,463.5C 63.0204,429.105 63.5204,394.771 65,360.5C 67.3151,356.183 70.8151,353.35 75.5,352C 98.1667,351.333 120.833,351.333 143.5,352C 148.208,353.378 151.708,356.212 154,360.5C 155.48,394.771 155.98,429.105 155.5,463.5 Z"/></g>
<g><path style="opacity:1" fill="#f9b405" d="M 311.5,463.5 C 307.5,463.5 303.5,463.5 299.5,463.5C 299.667,442.497 299.5,421.497 299,400.5C 296.995,390.147 292.161,381.48 284.5,374.5C 279.877,369.686 274.21,366.686 267.5,365.5C 259.566,362.997 251.566,362.997 243.5,365.5C 236.872,366.473 231.539,369.473 227.5,374.5C 223.901,376.263 221.068,378.93 219,382.5C 215.832,387.834 213.499,393.501 212,399.5C 211.5,420.831 211.333,442.164 211.5,463.5C 207.5,463.5 203.5,463.5 199.5,463.5C 199.333,441.831 199.5,420.164 200,398.5C 201.681,389.806 205.014,381.806 210,374.5C 231.226,349.789 256.393,344.955 285.5,360C 299.145,369.332 307.645,382.166 311,398.5C 311.5,420.164 311.667,441.831 311.5,463.5 Z"/></g>
<g><path style="opacity:1" fill="#c80b50" d="M 147.5,383.5 C 122.167,383.5 96.8333,383.5 71.5,383.5C 71.3338,377.158 71.5005,370.825 72,364.5C 72.4652,363.069 73.2986,361.903 74.5,361C 86.0741,359.853 97.7408,359.353 109.5,359.5C 121.259,359.353 132.926,359.853 144.5,361C 145.701,361.903 146.535,363.069 147,364.5C 147.5,370.825 147.666,377.158 147.5,383.5 Z"/></g>
<g><path style="opacity:1" fill="#f0efee" d="M 439.5,401.5 C 438.679,404.484 436.679,406.317 433.5,407C 413.167,407.667 392.833,407.667 372.5,407C 369.887,405.893 368.22,404.06 367.5,401.5C 367.038,388.401 367.538,375.401 369,362.5C 369.903,361.299 371.069,360.465 372.5,360C 392.833,359.333 413.167,359.333 433.5,360C 435.081,360.707 436.581,361.54 438,362.5C 439.462,375.401 439.962,388.401 439.5,401.5 Z"/></g>
<g><path style="opacity:1" fill="#c80a4f" d="M 267.5,365.5 C 267.5,398.167 267.5,430.833 267.5,463.5C 259.5,463.5 251.5,463.5 243.5,463.5C 243.5,430.833 243.5,398.167 243.5,365.5C 251.566,362.997 259.566,362.997 267.5,365.5 Z"/></g>
<g><path style="opacity:1" fill="#a00028" d="M 243.5,365.5 C 243.5,398.167 243.5,430.833 243.5,463.5C 238.167,463.5 232.833,463.5 227.5,463.5C 227.5,452.833 227.5,442.167 227.5,431.5C 229.527,431.662 231.527,431.495 233.5,431C 236.167,428.667 236.167,426.333 233.5,424C 231.527,423.505 229.527,423.338 227.5,423.5C 227.5,407.167 227.5,390.833 227.5,374.5C 231.539,369.473 236.872,366.473 243.5,365.5 Z"/></g>
<g><path style="opacity:1" fill="#a00028" d="M 267.5,365.5 C 274.21,366.686 279.877,369.686 284.5,374.5C 283.502,403.995 283.169,433.662 283.5,463.5C 278.167,463.5 272.833,463.5 267.5,463.5C 267.5,430.833 267.5,398.167 267.5,365.5 Z"/></g>
<g><path style="opacity:1" fill="#00a0c8" d="M 375.5,367.5 C 394.167,367.5 412.833,367.5 431.5,367.5C 431.5,378.167 431.5,388.833 431.5,399.5C 412.833,399.5 394.167,399.5 375.5,399.5C 375.5,388.833 375.5,378.167 375.5,367.5 Z"/></g>
<g><path style="opacity:1" fill="#c80c4f" d="M 227.5,374.5 C 227.5,390.833 227.5,407.167 227.5,423.5C 225.473,423.338 223.473,423.505 221.5,424C 218.833,426.333 218.833,428.667 221.5,431C 223.473,431.495 225.473,431.662 227.5,431.5C 227.5,442.167 227.5,452.833 227.5,463.5C 222.167,463.5 216.833,463.5 211.5,463.5C 211.333,442.164 211.5,420.831 212,399.5C 213.499,393.501 215.832,387.834 219,382.5C 221.068,378.93 223.901,376.263 227.5,374.5 Z"/></g>
<g><path style="opacity:1" fill="#c80b4f" d="M 284.5,374.5 C 292.161,381.48 296.995,390.147 299,400.5C 299.5,421.497 299.667,442.497 299.5,463.5C 294.167,463.5 288.833,463.5 283.5,463.5C 283.169,433.662 283.502,403.995 284.5,374.5 Z"/></g>
<g><path style="opacity:1" fill="#9f0027" d="M 71.5,383.5 C 96.8333,383.5 122.167,383.5 147.5,383.5C 147.5,388.833 147.5,394.167 147.5,399.5C 122.167,399.5 96.8333,399.5 71.5,399.5C 71.5,394.167 71.5,388.833 71.5,383.5 Z"/></g>
<g><path style="opacity:1" fill="#c70a4f" d="M 71.5,399.5 C 96.8333,399.5 122.167,399.5 147.5,399.5C 147.5,407.5 147.5,415.5 147.5,423.5C 122.167,423.5 96.8333,423.5 71.5,423.5C 71.5,415.5 71.5,407.5 71.5,399.5 Z"/></g>
<g><path style="opacity:1" fill="#dc9601" d="M 367.5,401.5 C 368.22,404.06 369.887,405.893 372.5,407C 392.833,407.667 413.167,407.667 433.5,407C 436.679,406.317 438.679,404.484 439.5,401.5C 440.076,406.118 439.076,410.285 436.5,414C 425.402,415.134 414.235,415.634 403,415.5C 392.833,415.333 382.667,415.167 372.5,415C 371.069,414.535 369.903,413.701 369,412.5C 367.763,408.94 367.263,405.273 367.5,401.5 Z"/></g>
<g><path style="opacity:1" fill="#9f0027" d="M 71.5,423.5 C 96.8333,423.5 122.167,423.5 147.5,423.5C 147.5,428.833 147.5,434.167 147.5,439.5C 122.167,439.5 96.8333,439.5 71.5,439.5C 71.5,434.167 71.5,428.833 71.5,423.5 Z"/></g>
<g><path style="opacity:1" fill="#eeeaeb" d="M 227.5,423.5 C 229.527,423.338 231.527,423.505 233.5,424C 236.167,426.333 236.167,428.667 233.5,431C 231.527,431.495 229.527,431.662 227.5,431.5C 225.473,431.662 223.473,431.495 221.5,431C 218.833,428.667 218.833,426.333 221.5,424C 223.473,423.505 225.473,423.338 227.5,423.5 Z"/></g>
<g><path style="opacity:1" fill="#0a9fc6" d="M 443.5,463.5 C 416.833,463.5 390.167,463.5 363.5,463.5C 363.334,454.494 363.5,445.494 364,436.5C 364.465,435.069 365.299,433.903 366.5,433C 371.82,430.298 375.987,431.465 379,436.5C 379.18,433.044 379.847,429.711 381,426.5C 385.333,422.5 389.667,422.5 394,426.5C 395.153,429.711 395.82,433.044 396,436.5C 396.465,435.069 397.299,433.903 398.5,433C 403.82,430.298 407.987,431.465 411,436.5C 411.18,433.044 411.847,429.711 413,426.5C 417.333,422.5 421.667,422.5 426,426.5C 427.153,429.711 427.82,433.044 428,436.5C 431.892,430.741 436.559,430.074 442,434.5C 443.448,444.061 443.948,453.727 443.5,463.5 Z"/></g>
<g><path style="opacity:1" fill="#c70a50" d="M 71.5,439.5 C 96.8333,439.5 122.167,439.5 147.5,439.5C 147.5,447.5 147.5,455.5 147.5,463.5C 122.167,463.5 96.8333,463.5 71.5,463.5C 71.5,455.5 71.5,447.5 71.5,439.5 Z"/></g>
<g><path style="opacity:1" fill="#be1856" d="M 417.5,439.5 C 423.488,439.664 424.821,442.164 421.5,447C 415.403,447.147 414.07,444.647 417.5,439.5 Z"/></g>
<g><path style="opacity:1" fill="#114e77" d="M 99.5,447.5 C 106.175,447.334 112.842,447.5 119.5,448C 122.167,450.333 122.167,452.667 119.5,455C 112.833,455.667 106.167,455.667 99.5,455C 96.9142,452.506 96.9142,450.006 99.5,447.5 Z"/></g>
<g><path style="opacity:1" fill="#be1856" d="M 373.5,447.5 C 379.488,447.664 380.821,450.164 377.5,455C 371.403,455.147 370.07,452.647 373.5,447.5 Z"/></g>
<g><path style="opacity:1" fill="#be1856" d="M 405.5,447.5 C 411.488,447.664 412.821,450.164 409.5,455C 403.403,455.147 402.07,452.647 405.5,447.5 Z"/></g>
<g><path style="opacity:0.998" fill="#095078" d="M 47.5,463.5 C 52.8333,463.5 58.1667,463.5 63.5,463.5C 66.1667,463.5 68.8333,463.5 71.5,463.5C 96.8333,463.5 122.167,463.5 147.5,463.5C 150.167,463.5 152.833,463.5 155.5,463.5C 159.5,463.5 163.5,463.5 167.5,463.5C 178.167,463.5 188.833,463.5 199.5,463.5C 203.5,463.5 207.5,463.5 211.5,463.5C 216.833,463.5 222.167,463.5 227.5,463.5C 232.833,463.5 238.167,463.5 243.5,463.5C 251.5,463.5 259.5,463.5 267.5,463.5C 272.833,463.5 278.167,463.5 283.5,463.5C 288.833,463.5 294.167,463.5 299.5,463.5C 303.5,463.5 307.5,463.5 311.5,463.5C 322.167,463.5 332.833,463.5 343.5,463.5C 350.167,463.5 356.833,463.5 363.5,463.5C 390.167,463.5 416.833,463.5 443.5,463.5C 450.167,463.5 456.833,463.5 463.5,463.5C 467.514,463.334 471.514,463.501 475.5,464C 476.416,464.374 477.25,464.874 478,465.5C 479.483,468.702 479.817,472.036 479,475.5C 478.5,477.333 477.333,478.5 475.5,479C 328.833,479.667 182.167,479.667 35.5,479C 33.6667,478.5 32.5,477.333 32,475.5C 31.1834,472.036 31.5167,468.702 33,465.5C 33.7504,464.874 34.5838,464.374 35.5,464C 39.4862,463.501 43.4862,463.334 47.5,463.5 Z"/></g>
</svg>
