<?xml version="1.0" encoding="UTF-8"?>
<!DOCTYPE svg PUBLIC "-//W3C//DTD SVG 1.1//EN" "http://www.w3.org/Graphics/SVG/1.1/DTD/svg11.dtd">
<svg xmlns="http://www.w3.org/2000/svg" version="1.1" width="512px" height="512px" style="shape-rendering:geometricPrecision; text-rendering:geometricPrecision; image-rendering:optimizeQuality; fill-rule:evenodd; clip-rule:evenodd" xmlns:xlink="http://www.w3.org/1999/xlink">
<g><path style="opacity:0.971" fill="#00485f" d="M 228.5,10.5 C 234.509,10.3338 240.509,10.5005 246.5,11C 212.612,14.2223 191.779,32.3889 184,65.5C 181.004,103.471 197.504,128.305 233.5,140C 267.197,145.567 292.03,133.4 308,103.5C 319.69,72.0905 312.857,45.5905 287.5,24C 276.752,16.3052 264.752,11.9718 251.5,11C 291.864,9.834 328.198,21.1673 360.5,45C 369.832,52.9901 377.666,62.1568 384,72.5C 385.59,74.6498 386.257,76.9832 386,79.5C 371.252,103.24 350.752,120.073 324.5,130C 280.126,145.659 235.126,147.659 189.5,136C 155.689,127.536 129.523,108.702 111,79.5C 110.743,76.9832 111.41,74.6498 113,72.5C 131.334,45.8635 156.167,28.0302 187.5,19C 201.08,15.0754 214.747,12.242 228.5,10.5 Z"/></g>
<g><path style="opacity:0.016" fill="#003f80" d="M 249.5,10.5 C 250.833,11.1667 250.833,11.1667 249.5,10.5 Z"/></g>
<g><path style="opacity:0.98" fill="#ef4238" d="M 243.5,36.5 C 253.651,34.9879 260.485,38.9879 264,48.5C 265.178,55.6364 262.845,61.303 257,65.5C 256.5,76.8284 256.333,88.1618 256.5,99.5C 260.605,99.2338 264.605,99.7338 268.5,101C 272.5,105.667 272.5,110.333 268.5,115C 264.637,116.354 260.637,116.854 256.5,116.5C 254.984,123.925 250.651,126.092 243.5,123C 241.232,121.442 240.066,119.276 240,116.5C 239.833,99.1571 239.333,81.8237 238.5,64.5C 229.395,53.2305 231.062,43.8972 243.5,36.5 Z"/></g>
<g><path style="opacity:0.979" fill="#01475f" d="M 239.5,158.5 C 245.167,158.5 250.833,158.5 256.5,158.5C 256.5,164.5 256.5,170.5 256.5,176.5C 250.833,176.5 245.167,176.5 239.5,176.5C 239.5,170.5 239.5,164.5 239.5,158.5 Z"/></g>
<g><path style="opacity:0.901" fill="#00485f" d="M 181.5,191.5 C 226.167,191.5 270.833,191.5 315.5,191.5C 315.5,194.5 315.5,197.5 315.5,200.5C 270.833,200.5 226.167,200.5 181.5,200.5C 181.5,197.5 181.5,194.5 181.5,191.5 Z"/></g>
<g><path style="opacity:0.985" fill="#00495f" d="M 12.5,215.5 C 174.5,215.333 336.5,215.5 498.5,216C 499.667,217.167 500.833,218.333 502,219.5C 502.667,290.5 502.667,361.5 502,432.5C 501.5,434.333 500.333,435.5 498.5,436C 480.5,436.667 462.5,436.667 444.5,436C 437.707,424.916 431.041,413.749 424.5,402.5C 421.833,403.833 419.167,405.167 416.5,406.5C 415.026,405.564 414.026,404.23 413.5,402.5C 415.65,399.849 417.983,397.349 420.5,395C 428.159,394.5 435.826,394.334 443.5,394.5C 443.401,367.794 443.901,341.127 445,314.5C 444.087,305.516 441.921,296.849 438.5,288.5C 440.045,287.548 441.712,287.215 443.5,287.5C 443.5,278.5 443.5,269.5 443.5,260.5C 436.492,260.666 429.492,260.5 422.5,260C 395.286,228.59 360.953,215.923 319.5,222C 292.435,227.76 270.602,241.593 254,263.5C 253.517,262.552 253.351,261.552 253.5,260.5C 244.167,260.5 234.833,260.5 225.5,260.5C 225.5,269.5 225.5,278.5 225.5,287.5C 230.544,287.173 235.544,287.506 240.5,288.5C 237.239,296.544 235.072,304.877 234,313.5C 231.281,314.444 228.448,314.777 225.5,314.5C 225.5,323.833 225.5,333.167 225.5,342.5C 228.5,342.5 231.5,342.5 234.5,342.5C 236.023,351.4 238.357,360.067 241.5,368.5C 236.167,368.5 230.833,368.5 225.5,368.5C 225.5,377.833 225.5,387.167 225.5,396.5C 234.833,396.5 244.167,396.5 253.5,396.5C 253.337,394.143 253.503,391.81 254,389.5C 283.713,425.932 321.547,438.932 367.5,428.5C 371.813,432.079 371.147,434.579 365.5,436C 247.086,436.996 128.753,436.663 10.5,435C 9.87424,434.25 9.37424,433.416 9,432.5C 8.33333,361.5 8.33333,290.5 9,219.5C 10.3756,218.295 11.5423,216.962 12.5,215.5 Z M 53.5,260.5 C 62.5,260.5 71.5,260.5 80.5,260.5C 80.5,269.5 80.5,278.5 80.5,287.5C 71.5,287.5 62.5,287.5 53.5,287.5C 53.5,278.5 53.5,269.5 53.5,260.5 Z M 110.5,260.5 C 119.833,260.5 129.167,260.5 138.5,260.5C 138.5,269.5 138.5,278.5 138.5,287.5C 129.167,287.5 119.833,287.5 110.5,287.5C 110.5,278.5 110.5,269.5 110.5,260.5 Z M 168.5,260.5 C 177.5,260.5 186.5,260.5 195.5,260.5C 195.5,269.5 195.5,278.5 195.5,287.5C 186.5,287.5 177.5,287.5 168.5,287.5C 168.5,278.5 168.5,269.5 168.5,260.5 Z M 330.5,263.5 C 358.82,261.409 380.32,272.409 395,296.5C 409.419,330.33 401.919,358.164 372.5,380C 341.338,395.945 313.838,391.112 290,365.5C 272.002,339.479 272.002,313.479 290,287.5C 300.575,274.466 314.075,266.466 330.5,263.5 Z M 53.5,314.5 C 62.5,314.5 71.5,314.5 80.5,314.5C 80.5,323.833 80.5,333.167 80.5,342.5C 71.5,342.5 62.5,342.5 53.5,342.5C 53.5,333.167 53.5,323.833 53.5,314.5 Z M 110.5,314.5 C 119.833,314.5 129.167,314.5 138.5,314.5C 138.5,323.833 138.5,333.167 138.5,342.5C 129.167,342.5 119.833,342.5 110.5,342.5C 110.5,333.167 110.5,323.833 110.5,314.5 Z M 168.5,314.5 C 177.5,314.5 186.5,314.5 195.5,314.5C 195.5,323.833 195.5,333.167 195.5,342.5C 186.5,342.5 177.5,342.5 168.5,342.5C 168.5,333.167 168.5,323.833 168.5,314.5 Z M 168.5,368.5 C 177.5,368.5 186.5,368.5 195.5,368.5C 195.5,377.833 195.5,387.167 195.5,396.5C 186.5,396.5 177.5,396.5 168.5,396.5C 168.5,387.167 168.5,377.833 168.5,368.5 Z M 55.5,369.5 C 81.8333,369.5 108.167,369.5 134.5,369.5C 134.5,378.5 134.5,387.5 134.5,396.5C 108.167,396.5 81.8333,396.5 55.5,396.5C 55.5,387.5 55.5,378.5 55.5,369.5 Z"/></g>
<g><path style="opacity:0.983" fill="#ef4338" d="M 326.5,235.5 C 366.035,231.929 396.535,246.596 418,279.5C 438.679,320.407 433.845,357.907 403.5,392C 373.534,418.162 339.867,424.162 302.5,410C 263.535,390.255 245.701,358.422 249,314.5C 257.227,270.774 283.06,244.441 326.5,235.5 Z M 330.5,263.5 C 314.075,266.466 300.575,274.466 290,287.5C 272.002,313.479 272.002,339.479 290,365.5C 313.838,391.112 341.338,395.945 372.5,380C 401.919,358.164 409.419,330.33 395,296.5C 380.32,272.409 358.82,261.409 330.5,263.5 Z"/></g>
<g><path style="opacity:0.983" fill="#ef4338" d="M 400.5,412.5 C 401.496,412.414 402.329,412.748 403,413.5C 405.298,418.116 407.965,422.449 411,426.5C 413.722,425.556 416.222,424.223 418.5,422.5C 428.896,438.754 438.729,455.42 448,472.5C 451.297,484.068 447.797,492.901 437.5,499C 425.355,503.396 415.855,500.23 409,489.5C 400.545,474.087 391.712,458.921 382.5,444C 385.198,441.991 387.864,439.991 390.5,438C 388.093,433.187 385.427,428.52 382.5,424C 388.942,420.698 394.942,416.865 400.5,412.5 Z"/></g>
</svg>
