<?xml version="1.0" encoding="UTF-8"?>
<svg version="1.1" xmlns="http://www.w3.org/2000/svg" width="512" height="512">
<path d="M0 0 C30.60535746 24.41658268 50.30134779 58.35166227 54.80761719 97.38916016 C58.36319399 133.8540245 49.0268107 171.50653929 25.90136719 200.36181641 C24.37251259 202.1437228 22.8304626 203.91438054 21.27636719 205.67431641 C20.45652344 206.63853516 19.63667969 207.60275391 18.79199219 208.59619141 C-1.90766514 232.50103216 -32.50747945 248.86882596 -63.72363281 253.67431641 C-65.72354448 253.69311286 -67.72374742 253.69572696 -69.72363281 253.67431641 C-69.71994564 254.78530197 -69.71625847 255.89628754 -69.71245956 257.04093933 C-69.62366083 284.0738205 -69.55792952 311.10668275 -69.51638412 338.13967896 C-69.49575906 351.21263818 -69.46763934 364.28550105 -69.421875 377.35839844 C-69.38200576 388.752752 -69.3561996 400.14703579 -69.34727883 411.54145718 C-69.34206429 417.57471288 -69.32980898 423.60776896 -69.30071259 429.64096069 C-69.27354236 435.32082866 -69.2651912 441.00041494 -69.27120209 446.68034172 C-69.27010258 448.76364612 -69.26215846 450.84696005 -69.24681091 452.93020821 C-69.22685811 455.77852346 -69.23171313 458.62578046 -69.24261475 461.47412109 C-69.23096338 462.29515414 -69.21931201 463.11618719 -69.20730758 463.96210003 C-69.26572008 469.62296711 -70.55572007 473.9425234 -73.72363281 478.67431641 C-77.80482257 482.46399261 -80.25284504 483.79795405 -85.74750137 483.80853748 C-86.81718572 483.81299533 -87.88687006 483.81745317 -88.98896909 483.8220461 C-90.17357181 483.82186174 -91.35817454 483.82167738 -92.57867432 483.82148743 C-93.82980035 483.82516411 -95.08092638 483.8288408 -96.36996531 483.83262891 C-99.85414769 483.84266487 -103.33831284 483.84636826 -106.82250762 483.84901822 C-110.57586766 483.85291655 -114.329214 483.86249522 -118.08256531 483.87123108 C-127.15265495 483.89100897 -136.22274574 483.90106344 -145.29285157 483.90995887 C-149.56177921 483.91433966 -153.83070561 483.91970701 -158.09963226 483.92494774 C-172.28658923 483.94196145 -186.47354541 483.95645623 -200.66051102 483.96369648 C-204.34349824 483.96560645 -208.02648546 483.96752677 -211.70947266 483.96948242 C-213.08259346 483.97020803 -213.08259346 483.97020803 -214.48345408 483.9709483 C-229.31675708 483.97925084 -244.1499795 484.00459087 -258.98324731 484.0370631 C-274.20460827 484.07011385 -289.42592824 484.08814345 -304.64732528 484.09134072 C-313.19667922 484.09350768 -321.74591566 484.10228336 -330.29523468 484.1278019 C-337.57545454 484.14948184 -344.85552837 484.15757271 -352.13577685 484.14783511 C-355.8509871 484.14328248 -359.56589586 484.14523208 -363.28106499 484.16459656 C-367.30780897 484.18540396 -371.33388089 484.17526856 -375.36065674 484.1620636 C-377.1241765 484.17851747 -377.1241765 484.17851747 -378.92332292 484.19530374 C-385.17073089 484.14567169 -389.0002795 483.91539982 -393.72363281 479.67431641 C-397.93217819 475.01079315 -398.84802623 471.85093981 -398.85506058 465.65282726 C-398.85890172 464.38608172 -398.86274287 463.11933617 -398.86670041 461.81420439 C-398.86592012 460.40048415 -398.86504133 458.98676395 -398.86407471 457.57304382 C-398.86665757 456.0774275 -398.86967051 454.58181187 -398.87307811 453.0861972 C-398.88116056 448.96578418 -398.88293837 444.84538856 -398.88367558 440.72496855 C-398.88552396 436.28518748 -398.89307018 431.84541549 -398.89981079 427.40563965 C-398.91340325 417.69291552 -398.91942019 407.98019551 -398.92382145 398.26746345 C-398.9265822 392.20539051 -398.93081924 386.14331918 -398.93532562 380.08124733 C-398.94751924 363.30444152 -398.95781853 346.52763699 -398.96120071 329.75082684 C-398.96142028 328.67669869 -398.96163985 327.60257054 -398.96186607 326.49589305 C-398.96208434 325.41916399 -398.96230262 324.34243492 -398.96252751 323.2330777 C-398.96297098 321.05113709 -398.96341755 318.86919647 -398.96386719 316.68725586 C-398.96408862 315.60493306 -398.96431005 314.52261027 -398.96453819 313.40748981 C-398.96848731 295.86479521 -398.98594441 278.32214212 -399.00922671 260.77946355 C-399.0329252 242.7782404 -399.04540187 224.7770381 -399.04656863 206.7757991 C-399.04748621 196.66488339 -399.05325946 186.55402178 -399.07138824 176.44312096 C-399.08676893 167.83444437 -399.09192171 159.22583858 -399.08365014 150.61715087 C-399.07973648 146.22353022 -399.08070805 141.83005225 -399.09470749 137.43644905 C-399.10740351 133.41520213 -399.10628694 129.39420571 -399.09411678 125.37295935 C-399.0921523 123.91736406 -399.09527273 122.46175129 -399.10396114 121.00618061 C-399.11501918 119.02859233 -399.10579427 117.05092173 -399.09556961 115.07332897 C-399.0961667 113.97452567 -399.09676379 112.87572237 -399.09737897 111.743622 C-398.58385121 107.52639167 -397.09928893 104.14798364 -394.18847656 101.02978516 C-389.43165818 97.39221816 -387.37794167 96.54939128 -381.40890503 96.55406189 C-380.7538278 96.55320746 -380.09875057 96.55235304 -379.42382252 96.55147272 C-377.2188816 96.54981969 -375.014016 96.5553364 -372.80908203 96.56079102 C-371.23245241 96.56107295 -369.65582266 96.56091503 -368.07919312 96.56034851 C-363.79018071 96.56006079 -359.50119608 96.5659535 -355.21219015 96.57292247 C-350.73318719 96.57916015 -346.25418364 96.57976013 -341.775177 96.58094788 C-333.28957168 96.58405997 -324.80397919 96.59227172 -316.31837952 96.60229737 C-306.6595102 96.61346229 -297.00064028 96.61896991 -287.34176612 96.6239928 C-267.46904784 96.63445442 -247.59634114 96.65205151 -227.72363281 96.67431641 C-227.63241402 95.67164986 -227.63241402 95.67164986 -227.53935242 94.64872742 C-227.45538712 93.76215958 -227.37142181 92.87559174 -227.28491211 91.9621582 C-227.16275581 90.65011665 -227.16275581 90.65011665 -227.03813171 89.31156921 C-226.5563299 85.27138597 -225.59920193 81.40830514 -224.53613281 77.48681641 C-224.31546143 76.66729492 -224.09479004 75.84777344 -223.86743164 75.00341797 C-213.84517728 38.94992553 -190.14480787 8.2379635 -157.69726562 -10.49560547 C-107.98155698 -37.77239036 -45.36462571 -34.89092317 0 0 Z " fill="#262F61" transform="translate(427.7236328125,28.32568359375)"/>
<path d="M0 0 C45.87 0 91.74 0 139 0 C139.99 5.61 140.98 11.22 142 17 C142.97913869 20.61165839 143.96223785 24.04946588 145.1875 27.5625 C145.48720703 28.43890137 145.78691406 29.31530273 146.09570312 30.21826172 C151.93911709 46.77560531 160.66505271 61.5983424 172 75 C172.99773437 76.20076172 172.99773437 76.20076172 174.015625 77.42578125 C197.40588845 104.58447603 228.6275637 117.12551274 263 124 C263 189.01 263 254.02 263 321 C176.21 321 89.42 321 0 321 C0 215.07 0 109.14 0 0 Z " fill="#FEDC3D" transform="translate(62,158)"/>
<path d="M0 0 C2.2232619 1.6849985 4.35483718 3.43915018 6.4765625 5.25 C7.26289063 5.89195313 8.04921875 6.53390625 8.859375 7.1953125 C30.45442185 25.54094791 42.78704707 52.30892308 45.4765625 80.25 C47.33288035 109.4069925 37.67170482 136.71128047 19.4765625 159.25 C18.97640625 159.90355469 18.47625 160.55710938 17.9609375 161.23046875 C13.56790281 166.74700944 8.03339809 170.96198794 2.4765625 175.25 C1.69410156 175.85972656 0.91164063 176.46945313 0.10546875 177.09765625 C-22.7246875 193.99890177 -51.25148576 200.04637465 -79.23730469 196.94970703 C-84.45347323 196.1284691 -89.48921048 194.83026142 -94.5234375 193.25 C-95.21083008 193.03569336 -95.89822266 192.82138672 -96.60644531 192.60058594 C-110.85733394 188.00632949 -123.15184908 181.02277106 -134.5234375 171.25 C-135.51537109 170.47462891 -135.51537109 170.47462891 -136.52734375 169.68359375 C-156.89410744 153.26674786 -168.69702087 126.07886847 -172.2734375 100.75 C-172.38888035 99.25212905 -172.46651866 97.75123439 -172.5234375 96.25 C-172.60078125 94.39181641 -172.60078125 94.39181641 -172.6796875 92.49609375 C-172.96047894 82.38409202 -171.83846787 73.08136275 -169.5234375 63.25 C-169.25660156 62.07824219 -168.98976562 60.90648438 -168.71484375 59.69921875 C-161.63882372 31.92977126 -142.40259317 8.72104658 -118.06640625 -5.80078125 C-80.60010899 -26.87228925 -35.19371473 -24.40678669 0 0 Z " fill="#FDFDFE" transform="translate(404.5234375,52.75)"/>
<path d="M0 0 C1.65011833 -0.01051392 1.65011833 -0.01051392 3.33357239 -0.02124023 C6.95839928 -0.03879892 10.58244099 -0.0272034 14.20727539 -0.01367188 C16.73401539 -0.01636757 19.26075439 -0.02025064 21.78749084 -0.02526855 C27.07914072 -0.03116094 32.3705112 -0.02299327 37.66210938 -0.00390625 C43.76356684 0.01784904 49.86448929 0.01081616 55.96593374 -0.01121187 C61.85474557 -0.03161441 67.74339249 -0.02937395 73.63223457 -0.01768494 C76.12922809 -0.01502169 78.62623531 -0.01827321 81.12321281 -0.02760315 C84.61766257 -0.03779434 88.11109452 -0.02222939 91.60546875 0 C92.63169342 -0.00809692 93.65791809 -0.01619385 94.71524048 -0.02453613 C100.9175291 0.04832902 105.7122196 0.91321859 110.86743164 4.51757812 C115.31401818 9.30620979 115.99441024 11.97937726 116.02856445 18.44238281 C116.03352936 19.15480133 116.03849426 19.86721985 116.04360962 20.60122681 C116.0582433 22.96397867 116.06503626 25.32666334 116.07055664 27.68945312 C116.07630841 29.33131919 116.08206614 30.97318524 116.08782959 32.61505127 C116.0983439 36.06173007 116.10418332 39.50838553 116.10766602 42.95507812 C116.11314266 47.36459061 116.13715093 51.77379305 116.16563797 56.18320847 C116.18429591 59.57705576 116.18947169 62.97082896 116.19100189 66.36472321 C116.19402333 67.989776 116.20203468 69.61482764 116.21518707 71.23983002 C116.23230916 73.51852194 116.23035234 75.79646454 116.22387695 78.07519531 C116.2293454 80.01806427 116.2293454 80.01806427 116.23492432 82.00018311 C115.76797594 86.46950183 114.41610237 89.85856954 111.33227539 93.16210938 C107.33088924 96.22199291 105.29663744 97.64029726 100.30145264 97.65802002 C99.33974655 97.66373016 98.37804047 97.66944031 97.38719177 97.67532349 C96.32847366 97.67644135 95.26975555 97.6775592 94.17895508 97.67871094 C92.51048271 97.68615829 92.51048271 97.68615829 90.80830383 97.6937561 C87.11446522 97.70840656 83.42066958 97.71518497 79.72680664 97.72070312 C77.16571043 97.72645274 74.60461424 97.73221049 72.04351807 97.73797607 C67.35451522 97.74714895 62.66552962 97.75344555 57.97651935 97.75647283 C51.07997123 97.76094985 44.18362168 97.77847955 37.28713393 97.80747342 C31.31132567 97.83172251 25.33561109 97.83941857 19.35974884 97.84114838 C16.81922577 97.8441772 14.27870358 97.8522134 11.73821259 97.86533356 C8.18315084 97.88238079 4.62857232 97.88051657 1.07348633 97.87402344 C0.02286514 97.88323822 -1.02775604 97.892453 -2.11021423 97.90194702 C-9.12326431 97.86180588 -13.44615213 96.83766487 -18.88256836 92.14257812 C-22.88516311 87.47288425 -23.38710493 83.5301811 -23.43896484 77.4675293 C-23.44728836 76.77739243 -23.45561188 76.08725555 -23.46418762 75.37620544 C-23.48819881 73.10426112 -23.49704903 70.83260446 -23.50366211 68.56054688 C-23.51263581 66.97259947 -23.52175778 65.3846529 -23.53102112 63.79670715 C-23.54748996 60.470489 -23.55520727 57.14437123 -23.55810547 53.81811523 C-23.56348457 49.57115986 -23.60115304 45.32515774 -23.64684963 41.07847118 C-23.67670136 37.7986157 -23.68383078 34.51898743 -23.68483162 31.23900795 C-23.68901852 29.67419383 -23.70139107 28.10937808 -23.72234917 26.54469872 C-23.90277789 11.90861242 -23.90277789 11.90861242 -19.89027405 6.08320618 C-13.52060257 0.4095963 -8.26302022 -0.06506697 0 0 Z " fill="#262F61" transform="translate(177.132568359375,357.482421875)"/>
<path d="M0 0 C4.86505233 2.47842289 7.43302532 5.20700862 10 10 C10.52579314 13.26896121 10.46745821 16.46964687 10.390625 19.7734375 C10.38496521 20.6971817 10.37930542 21.6209259 10.37347412 22.57266235 C10.35118052 25.50731418 10.30099748 28.44072061 10.25 31.375 C10.22992592 33.37107605 10.21167674 35.36717134 10.1953125 37.36328125 C10.15133872 42.24266338 10.08235999 47.12112093 10 52 C11.66385742 51.9685791 11.66385742 51.9685791 13.36132812 51.93652344 C17.50605179 51.86371533 21.65071976 51.81805305 25.79589844 51.78027344 C27.58440684 51.76025041 29.37285054 51.73302346 31.16113281 51.69824219 C33.74300162 51.64931045 36.3239995 51.62693835 38.90625 51.609375 C40.09112 51.57840729 40.09112 51.57840729 41.29992676 51.54681396 C47.74563254 51.54425221 53.2172979 53.24048708 57.875 57.859375 C60.70963157 62.62313082 62.14883644 66.4598168 61 72 C59.09350273 77.83665085 56.52204536 81.06274183 51 84 C47.11538953 85.29487016 43.44116044 85.1232604 39.39453125 85.09765625 C38.55532639 85.0962413 37.71612152 85.09482635 36.85148621 85.09336853 C34.17178784 85.08777215 31.4921731 85.07522035 28.8125 85.0625 C26.99544392 85.05748453 25.17838652 85.05292171 23.36132812 85.04882812 C18.90751987 85.03780391 14.45377411 85.02054178 10 85 C10.0314209 86.62627319 10.0314209 86.62627319 10.06347656 88.28540039 C10.13621102 92.33132574 10.18192043 96.37719399 10.21972656 100.42358398 C10.23976622 102.17042784 10.26700587 103.91720525 10.30175781 105.66381836 C10.35061582 108.18359832 10.37304486 110.70248685 10.390625 113.22265625 C10.41127014 113.99585709 10.43191528 114.76905792 10.45318604 115.56568909 C10.45547513 121.17424427 9.22596443 124.38779962 6 129 C1.22985957 132.72070953 -2.53648215 133.66317485 -8.5703125 133.37890625 C-12.63570943 132.74491348 -14.7204526 131.55804697 -18 129 C-21.79036246 123.58087292 -22.56485408 119.74787542 -22.390625 113.22265625 C-22.38496521 112.41130722 -22.37930542 111.59995819 -22.37347412 110.76402283 C-22.3512492 108.1962245 -22.30108235 105.62986985 -22.25 103.0625 C-22.2299169 101.31186924 -22.21166931 99.56121641 -22.1953125 97.81054688 C-22.15143044 93.53981622 -22.08250275 89.27015207 -22 85 C-23.70144165 85.04713135 -23.70144165 85.04713135 -25.43725586 85.09521484 C-29.68061465 85.20452834 -33.92385134 85.27295305 -38.16821289 85.32958984 C-39.99850452 85.35960256 -41.82865427 85.40042728 -43.65844727 85.45263672 C-61.99849733 85.96249911 -61.99849733 85.96249911 -68.53515625 80.62890625 C-72.32334975 76.41643508 -73.66173573 71.68397405 -73.41015625 66.05078125 C-72.3210721 60.60536051 -69.46088344 57.00682508 -64.96484375 53.90820312 C-60.59276754 51.47552796 -56.69546083 51.48528646 -51.78515625 51.609375 C-50.92941513 51.61503479 -50.07367401 51.62069458 -49.19200134 51.62652588 C-46.48157789 51.64876493 -43.77251809 51.69893575 -41.0625 51.75 C-39.215514 51.77008122 -37.3685071 51.78832914 -35.52148438 51.8046875 C-31.0138043 51.84858853 -26.50713267 51.91752731 -22 52 C-22.02094727 50.75911621 -22.04189453 49.51823242 -22.06347656 48.23974609 C-22.1360537 43.62170011 -22.18186421 39.00370423 -22.21972656 34.38525391 C-22.23980169 32.38907382 -22.26706789 30.39295225 -22.30175781 28.39697266 C-22.35045657 25.5223138 -22.37300986 22.6484346 -22.390625 19.7734375 C-22.41127014 18.88570648 -22.43191528 17.99797546 -22.45318604 17.08334351 C-22.45517593 11.54806146 -21.73417811 8.36607711 -18 4 C-11.77501115 -0.70050178 -7.48699243 -1.64098464 0 0 Z " fill="#262F61" transform="translate(347,75)"/>
<path d="M0 0 C24.42 0 48.84 0 74 0 C74 10.23 74 20.46 74 31 C49.58 31 25.16 31 0 31 C0 20.77 0 10.54 0 0 Z " fill="#FDFDFE" transform="translate(187,391)"/>
</svg>
