<?xml version="1.0" encoding="UTF-8"?>
<svg version="1.1" xmlns="http://www.w3.org/2000/svg" width="512" height="512">
<path d="M0 0 C1.13109348 0.00616596 1.13109348 0.00616596 2.28503734 0.01245648 C3.08643577 0.0089504 3.8878342 0.00544433 4.71351743 0.00183201 C7.4277279 -0.00755121 10.14172704 -0.002541 12.85594684 0.00229985 C14.80997935 -0.00143294 16.76401036 -0.00603296 18.71803898 -0.0114308 C24.11016077 -0.02372224 29.50222082 -0.02339314 34.89435345 -0.02104205 C40.70086651 -0.02063543 46.50735936 -0.03165818 52.3138631 -0.04115719 C63.69829164 -0.05780174 75.08269948 -0.06326829 86.46713917 -0.06438194 C95.71668009 -0.06533077 104.96621415 -0.06943278 114.2157529 -0.07578319 C116.87536782 -0.07757215 119.53498274 -0.07935538 122.19459766 -0.08113295 C122.85573087 -0.08157504 123.51686408 -0.08201714 124.19803162 -0.08247263 C142.80211122 -0.09478621 161.40618848 -0.10267324 180.01027232 -0.10178608 C180.71211518 -0.10175492 181.41395804 -0.10172376 182.13706886 -0.10169166 C185.69453972 -0.10152544 189.25201057 -0.10132735 192.80948143 -0.10112225 C193.51604536 -0.10108235 194.22260929 -0.10104246 194.95058425 -0.10100137 C196.37942961 -0.10092049 197.80827496 -0.1008369 199.23712031 -0.10075058 C221.47175245 -0.09952484 243.70632361 -0.1145403 265.94093829 -0.14189571 C290.90424793 -0.17259538 315.86751749 -0.18982948 340.8308472 -0.18796927 C354.05486767 -0.18730405 367.27881937 -0.19285377 380.50282413 -0.21432537 C391.7609077 -0.23248711 403.01889135 -0.23692585 414.27698319 -0.22330652 C420.02526897 -0.21675152 425.77336277 -0.21675052 431.52163059 -0.23401302 C436.77831302 -0.24963743 442.03464957 -0.24698983 447.29132302 -0.22944476 C449.19845653 -0.22635126 451.10561519 -0.23009461 453.01271908 -0.24116491 C455.594986 -0.25516791 458.17601965 -0.24479394 460.75824291 -0.22805256 C461.50762289 -0.23798892 462.25700288 -0.24792528 463.02909136 -0.25816274 C466.31927929 -0.21271808 468.34290114 0.06754289 471.10909837 1.90376467 C473.114923 4.98862884 473.14875088 6.95011908 473.15084583 10.6228748 C473.16127681 11.93812893 473.1717078 13.25338307 473.18245488 14.60849339 C473.17380628 16.07174479 473.16477964 17.534994 473.15541583 18.99824101 C473.16002298 20.54977336 473.16637464 22.10130135 473.17432481 23.65282017 C473.19106707 27.9231703 473.1827497 32.19316418 473.17037994 36.46351582 C473.16135171 41.06618025 473.17528807 45.66878223 473.18629962 50.27143437 C473.2041133 59.29072397 473.2002322 68.30988065 473.18864906 77.32917553 C473.1796262 84.65743309 473.17838576 91.98565332 473.18274432 99.31391484 C473.18335726 100.35575381 473.18397019 101.39759279 473.18460169 102.47100264 C473.18588056 104.58728559 473.18717741 106.70356853 473.18849206 108.81985146 C473.1999062 128.67784365 473.18677107 148.53576205 473.16529059 168.39374214 C473.14741886 185.44358602 473.15052274 202.49332097 473.16896564 219.54316288 C473.19035762 239.32868071 473.19880749 259.11413382 473.18651658 278.8996616 C473.18524235 281.00828637 473.18398487 283.11691114 473.18274432 285.22553593 C473.18181867 286.78187992 473.18181867 286.78187992 473.18087432 288.36966521 C473.1774164 295.6915923 473.18325927 303.01347845 473.19266254 310.33539921 C473.20386534 319.25485655 473.20087875 328.17417302 473.17953956 337.09361416 C473.16900594 341.64701553 473.16494652 346.2001818 473.17813617 350.75358158 C473.19001827 354.91848155 473.1835672 359.08292757 473.16222596 363.2477861 C473.15774205 364.75781735 473.16006608 366.26788662 473.16972911 367.7778936 C473.18182327 369.824095 473.16707357 371.87040318 473.15084583 373.91657597 C473.15019642 375.05508755 473.14954701 376.19359913 473.14887792 377.36661106 C472.64748126 380.26972538 472.64748126 380.26972538 471.10909837 382.6356861 C467.71641396 384.88777461 464.69539248 384.81970772 460.75824291 384.76750332 C459.95393759 384.77271789 459.14963228 384.77793246 458.32095408 384.78330505 C455.60867118 384.79596162 452.89730455 384.77994572 450.1850484 384.7642017 C448.22786269 384.76737639 446.27067916 384.7723021 444.31350178 384.77883452 C438.92194825 384.79169834 433.53069369 384.77949716 428.13915974 384.76330596 C422.32999325 384.75017976 416.52086095 384.76004278 410.71169025 384.76707035 C399.32682987 384.77716735 387.94208543 384.76585514 376.55723946 384.74736975 C363.98046032 384.72768061 351.40370887 384.72663216 338.82691691 384.72756936 C313.81725809 384.72938229 288.80765981 384.70947957 263.79802201 384.67871003 C241.56309987 384.65145512 219.32822074 384.63898769 197.09328204 384.64033085 C195.6653485 384.64041167 194.23741497 384.64049239 192.80948143 384.64057301 C191.75058169 384.64063406 191.75058169 384.64063406 190.67029004 384.64069635 C187.1169508 384.64089793 183.56361157 384.6410791 180.01027232 384.64123684 C178.95881425 384.64128698 178.95881425 384.64128698 177.8861146 384.64133814 C159.32227231 384.64206792 140.75843543 384.63299725 122.19459766 384.62058371 C120.87567425 384.61970221 119.55675083 384.6188207 118.19786004 384.61791248 C115.54854463 384.61613045 112.89922922 384.61433008 110.24991383 384.61251115 C101.00645782 384.60646768 91.76300553 384.60435076 82.51954776 384.60344654 C71.26366565 384.60208506 60.00781776 384.59319469 48.75195019 384.57478093 C43.00395631 384.56552002 37.25600634 384.55946308 31.50800449 384.56196934 C26.25405282 384.56414918 21.0001985 384.55718584 15.74626715 384.54267229 C13.83788809 384.53902672 11.92949904 384.53880325 10.02111952 384.54220687 C7.44230771 384.54629951 4.86382071 384.53827632 2.28503734 384.52699429 C1.53097502 384.53110493 0.7769127 384.53521556 0 384.53945076 C-5.12420881 384.49803531 -5.12420881 384.49803531 -7.35251874 382.26972538 C-7.60321707 379.5870586 -7.60321707 379.5870586 -7.60420102 376.09461552 C-7.6071079 375.45132502 -7.61001478 374.80803453 -7.61300975 374.14525038 C-7.62036453 371.9688757 -7.61334121 369.79277814 -7.60648602 367.61640507 C-7.6087883 366.04867873 -7.61196325 364.48095346 -7.61594051 362.91323048 C-7.62432924 358.58898327 -7.62014485 354.26482376 -7.61396807 349.94057614 C-7.60946117 345.28339995 -7.61641855 340.62623934 -7.62192792 335.9690662 C-7.63084248 326.83924633 -7.62889075 317.70945925 -7.62310264 308.57963806 C-7.61859424 301.16265107 -7.61796967 293.74567331 -7.62015027 286.32868534 C-7.62045673 285.2748965 -7.6207632 284.22110765 -7.62107895 283.13538581 C-7.62171837 280.99494034 -7.6223668 278.85449487 -7.62302414 276.7140494 C-7.62873347 256.62151685 -7.62216009 236.52900252 -7.6114234 216.43647295 C-7.60248735 199.17905838 -7.60403922 181.92167072 -7.61326092 164.66425663 C-7.62395291 144.64586147 -7.62818409 124.62748229 -7.6220364 104.60908467 C-7.62139927 102.47631159 -7.62077053 100.34353851 -7.62015027 98.21076542 C-7.61984172 97.16127492 -7.61953317 96.11178442 -7.61921526 95.03049117 C-7.6174851 87.61849211 -7.62041032 80.20650315 -7.62510937 72.79450566 C-7.63070633 63.76738453 -7.62922684 54.7402982 -7.61854789 45.71318108 C-7.61327513 41.10339335 -7.61126155 36.49366374 -7.61784619 31.88387638 C-7.62377479 27.66978091 -7.62058209 23.45579781 -7.60989109 19.24171263 C-7.60764385 17.71146544 -7.60882268 16.1812089 -7.61364266 14.65096766 C-7.61966284 12.58211896 -7.61354957 10.5136629 -7.60420102 8.44483525 C-7.60387631 7.29232903 -7.60355161 6.13982281 -7.60321707 4.95239216 C-7.12843116 -0.12818574 -4.48548229 0.03625307 0 0 Z " fill="#D6E5E5" transform="translate(23.35251873731613,63.73027461767197)"/>
<path d="M0 0 C0.82175217 -0.00554901 1.64350433 -0.01109802 2.49015808 -0.01681519 C5.19911515 -0.02859978 7.90639499 -0.00434938 10.61523438 0.02148438 C12.50183028 0.02319588 14.38842856 0.02312939 16.27502441 0.0213623 C20.22606199 0.02301487 24.17653173 0.04170121 28.12744141 0.07324219 C33.1883391 0.11291954 38.24849319 0.11728702 43.30951691 0.10977936 C47.20435379 0.10670774 51.09902394 0.11883701 54.99382019 0.13591003 C56.85970514 0.14293428 58.72560898 0.14606527 60.59150696 0.1452179 C63.20067401 0.14701848 65.80895517 0.16842221 68.41796875 0.1953125 C69.18694992 0.1923819 69.95593109 0.18945129 70.74821472 0.18643188 C75.22812538 0.25756011 78.15074365 0.83251037 81.70898438 3.61523438 C83.13564454 6.4685547 82.8520613 8.90711711 82.87011719 12.09692383 C82.87508209 12.76218079 82.880047 13.42743774 82.88516235 14.112854 C82.89979059 16.31808501 82.90658764 18.52324403 82.91210938 20.72851562 C82.91786104 22.26067609 82.92361878 23.79283653 82.92938232 25.32499695 C82.93989471 28.5404799 82.94573556 31.75593783 82.94921875 34.97143555 C82.95469879 39.08735328 82.97871504 43.20293941 83.0071907 47.31875324 C83.02583689 50.48523414 83.03102377 53.65163557 83.03255463 56.81816673 C83.0355781 58.33519488 83.04359636 59.85222172 83.05673981 61.36919594 C83.07383957 63.49483887 83.07191082 65.61967708 83.06542969 67.74536133 C83.06907532 68.95400345 83.07272095 70.16264557 83.07647705 71.40791321 C82.67150309 74.94235521 81.88839972 76.82342512 79.70898438 79.61523438 C68.00428446 83.51680101 55.04682139 80.61523438 42.70898438 80.61523438 C42.70898438 128.13523438 42.70898438 175.65523438 42.70898438 224.61523438 C71.74898438 224.61523438 100.78898437 224.61523438 130.70898438 224.61523438 C130.51142485 199.3954812 130.51142485 199.3954812 130.25854492 174.17626953 C130.23596191 169.27026367 130.23596191 169.27026367 130.23176575 166.9649353 C130.2241471 165.37363673 130.20668571 163.78236488 130.18110657 162.19125366 C129.90528138 144.11155079 129.90528138 144.11155079 135.70898438 136.61523438 C142.95643323 129.81755644 149.2329708 128.31560685 158.95605469 128.32470703 C159.98596024 128.31798981 161.01586578 128.31127258 162.07698059 128.30435181 C165.48040601 128.2853608 168.88363427 128.28144681 172.28710938 128.27929688 C174.6573698 128.27286897 177.02762943 128.26614061 179.39788818 128.25912476 C184.36765379 128.24714868 189.33734988 128.2434442 194.30712891 128.24462891 C200.66349056 128.24483194 207.01940433 128.21754718 213.37565994 128.18308449 C218.27256298 128.16080295 223.16935853 128.15679179 228.06630707 128.15784836 C230.4089792 128.15549363 232.75165435 128.14667741 235.09427643 128.13118362 C238.37794464 128.11150217 241.66065094 128.11737123 244.94433594 128.12939453 C246.38481041 128.11253601 246.38481041 128.11253601 247.85438538 128.09533691 C255.35729239 128.16485039 261.48878844 129.86700609 267.26757812 134.79882812 C267.88761719 135.54261719 268.50765625 136.28640625 269.14648438 137.05273438 C269.78457031 137.79394531 270.42265625 138.53515625 271.08007812 139.29882812 C274.39186367 144.00839366 274.96101697 147.93102419 274.97640991 153.64344788 C274.98094103 154.33910164 274.98547214 155.0347554 274.99014056 155.75148958 C275.00277288 158.07601228 275.001165 160.40030035 274.99951172 162.72485352 C275.00549752 164.39395956 275.01230318 166.06306284 275.01986694 167.73216248 C275.03752427 172.26093098 275.04222208 176.78962391 275.04349852 181.31842351 C275.04539839 185.09848975 275.05275655 188.87853842 275.05984271 192.65859789 C275.07612158 201.57392134 275.08101194 210.48920441 275.07958984 219.40454102 C275.07838703 228.60629863 275.0995179 237.80782223 275.13107717 247.00952059 C275.15720487 254.9085682 275.16795869 262.80753918 275.16667902 270.70662969 C275.16616856 275.42511472 275.17189886 280.14339154 275.19303513 284.86183357 C275.21235975 289.29669544 275.21258187 293.73114913 275.19800186 298.16602516 C275.19590578 299.79465072 275.20066204 301.42330145 275.21272278 303.0518837 C275.22810879 305.2730743 275.21891336 307.49284555 275.20346069 309.71400452 C275.20455023 310.95746171 275.20563976 312.2009189 275.20676231 313.48205662 C274.59048945 317.36108033 273.83677702 318.28360261 270.70898438 320.61523438 C267.94547107 321.00553906 265.58159015 321.14963282 262.81974602 321.11301231 C262.01544071 321.11822688 261.2111354 321.12344145 260.3824572 321.12881404 C257.67017429 321.14147061 254.95880767 321.12545471 252.24655151 321.10971069 C250.2893658 321.11288538 248.33218227 321.11781109 246.37500489 321.12434351 C240.98345136 321.13720733 235.59219681 321.12500615 230.20066285 321.10881495 C224.39149636 321.09568875 218.58236407 321.10555178 212.77319336 321.11257935 C201.38833298 321.12267634 190.00358855 321.11136413 178.61874257 321.09287874 C166.04196344 321.0731896 153.46521198 321.07214116 140.88842002 321.07307835 C115.8787612 321.07489128 90.86916293 321.05498856 65.85952512 321.02421902 C43.62460298 320.99696411 21.38972386 320.98449668 -0.84521484 320.98583984 C-2.27314838 320.98592067 -3.70108192 320.98600139 -5.12901546 320.986082 C-6.1879152 320.98614305 -6.1879152 320.98614305 -7.26820684 320.98620534 C-10.82154608 320.98640692 -14.37488532 320.98658809 -17.92822456 320.98674583 C-18.97968264 320.98679597 -18.97968264 320.98679597 -20.05238229 320.98684713 C-38.61622457 320.98757692 -57.18006145 320.97850625 -75.74389923 320.96609271 C-77.06282264 320.9652112 -78.38174606 320.96432969 -79.74063685 320.96342147 C-82.38995226 320.96163944 -85.03926766 320.95983907 -87.68858305 320.95802014 C-96.93203907 320.95197667 -106.17549136 320.94985975 -115.41894913 320.94895554 C-126.67483124 320.94759406 -137.93067912 320.93870368 -149.1865467 320.92028992 C-154.93454058 320.91102902 -160.68249055 320.90497207 -166.4304924 320.90747833 C-171.68444406 320.90965818 -176.93829839 320.90269483 -182.19222973 320.88818128 C-184.1006088 320.88453571 -186.00899785 320.88431224 -187.91737737 320.88771586 C-190.49618918 320.89180851 -193.07467618 320.88378532 -195.65345955 320.87250328 C-196.40752187 320.87661392 -197.16158419 320.88072456 -197.93849689 320.88495976 C-203.0627057 320.8435443 -203.0627057 320.8435443 -205.29101562 318.61523438 C-205.55107784 316.49340343 -205.55107784 316.49340343 -205.56517029 313.81474304 C-205.57514542 312.80110687 -205.58512054 311.7874707 -205.59539795 310.74311829 C-205.59606262 309.6267247 -205.59672729 308.51033112 -205.59741211 307.36010742 C-205.60573563 306.18766479 -205.61405914 305.01522217 -205.62263489 303.80725098 C-205.64264419 300.58603003 -205.65338356 297.36495899 -205.65846133 294.14368415 C-205.66210176 292.13116116 -205.66834025 290.11866316 -205.67546272 288.10614967 C-205.69997164 281.08483409 -205.71301164 274.0635925 -205.71655273 267.04223633 C-205.72018636 260.49830085 -205.75006495 253.95483488 -205.79195732 247.41104287 C-205.82666089 241.79312014 -205.8421012 236.17535294 -205.84279877 230.55732375 C-205.84359177 227.20183994 -205.85233884 223.84683385 -205.88079643 220.4914608 C-205.9075962 216.74673799 -205.90291765 213.00331407 -205.89038086 209.25854492 C-205.90521515 208.14822403 -205.92004944 207.03790314 -205.93533325 205.89393616 C-205.88997044 201.14518196 -205.84158799 198.44521494 -203.1734314 194.42300415 C-199.67775347 192.23061367 -197.68453455 192.00889239 -193.57299805 192.04760742 C-192.91877869 192.04687729 -192.26455933 192.04614716 -191.59051514 192.0453949 C-189.44164263 192.048861 -187.29497506 192.08766773 -185.14648438 192.12695312 C-183.65148604 192.13628493 -182.15647237 192.14339931 -180.66145325 192.14839172 C-176.73688133 192.1674332 -172.81324264 192.21650756 -168.88903809 192.27191162 C-164.88058088 192.32316677 -160.87197208 192.34591902 -156.86328125 192.37109375 C-149.00543231 192.42463069 -141.14834023 192.50990703 -133.29101562 192.61523438 C-133.16114258 191.82737549 -133.03126953 191.0395166 -132.89746094 190.2277832 C-132.29101562 187.61523438 -132.29101562 187.61523438 -130.58789062 185.81445312 C-127.71847202 184.31630429 -125.75997356 184.31277159 -122.54101562 184.42773438 C-121.06375 184.46833984 -121.06375 184.46833984 -119.55664062 184.50976562 C-118.80898437 184.54457031 -118.06132813 184.579375 -117.29101562 184.61523438 C-117.29101562 181.97523438 -117.29101562 179.33523438 -117.29101562 176.61523438 C-118.3864267 176.62522713 -118.3864267 176.62522713 -119.50396729 176.63542175 C-126.38982664 176.69556041 -133.27564668 176.7412228 -140.1617012 176.77067089 C-143.70182763 176.78631957 -147.24173686 176.80754274 -150.78173828 176.84155273 C-154.85256015 176.88041726 -158.92315424 176.89495011 -162.99414062 176.90820312 C-164.26404846 176.92368698 -165.5339563 176.93917084 -166.84234619 176.9551239 C-168.61372955 176.95546379 -168.61372955 176.95546379 -170.42089844 176.95581055 C-171.46014465 176.96247238 -172.49939087 176.96913422 -173.57012939 176.97599792 C-176.70667034 176.56012253 -178.04909386 175.81827901 -180.29101562 173.61523438 C-181.53079621 169.89589263 -181.46261695 166.42666602 -181.48388672 162.55126953 C-181.49206421 161.72980942 -181.5002417 160.9083493 -181.50866699 160.06199646 C-181.53348621 157.34277066 -181.55002624 154.62359686 -181.56445312 151.90429688 C-181.5697768 150.97552105 -181.57510048 150.04674522 -181.58058548 149.08982468 C-181.60729929 144.17577693 -181.62668166 139.26175446 -181.64111328 134.34765625 C-181.65446599 130.27939436 -181.68234544 126.21163245 -181.72314453 122.14355469 C-181.77240559 117.23172237 -181.79722594 112.32034442 -181.80434036 107.4082756 C-181.81106021 105.53674739 -181.82630134 103.6652296 -181.85023117 101.79384232 C-181.88181771 99.17468489 -181.88192997 96.55728581 -181.87451172 93.93798828 C-181.89091705 93.16586502 -181.90732239 92.39374176 -181.92422485 91.59822083 C-181.88305942 88.0463562 -181.3571984 85.73183854 -179.59976196 82.63549805 C-174.25993718 79.37509277 -168.90336496 79.92056393 -162.76757812 79.96826172 C-161.37594459 79.96148297 -159.98432002 79.95257838 -158.5927124 79.94171143 C-154.81984155 79.91894128 -151.04765527 79.92774438 -147.27477264 79.94360685 C-143.32395095 79.95627796 -139.37318732 79.94452239 -135.42236328 79.93667603 C-128.78797904 79.92758294 -122.15387321 79.93955823 -115.51953125 79.96337891 C-107.85250092 79.9905898 -100.1861354 79.98177537 -92.51912117 79.95424688 C-85.93295163 79.9315469 -79.34698208 79.92835999 -72.76078606 79.94144022 C-68.82863342 79.94922996 -64.89679314 79.95028979 -60.96466064 79.93375778 C-57.26748838 79.91929902 -53.57117203 79.92935886 -49.8740921 79.95822906 C-47.87243319 79.96797929 -45.87070177 79.95315157 -43.86907959 79.93759155 C-35.2345448 80.03951177 -35.2345448 80.03951177 -30.98623657 82.63174438 C-28.80858647 86.46428155 -28.58817286 89.70155217 -28.64404297 93.99804688 C-28.63528137 94.82955261 -28.62651978 95.66105835 -28.61749268 96.51776123 C-28.59553324 99.25912057 -28.61003851 101.9988594 -28.62695312 104.74023438 C-28.62358398 106.64925444 -28.61873054 108.55827242 -28.61245728 110.46728516 C-28.60509065 114.46537732 -28.61578468 118.4629104 -28.63916016 122.4609375 C-28.66764784 127.58261618 -28.65124274 132.70298485 -28.62129784 137.82461548 C-28.60321918 141.76580657 -28.60898549 145.7066877 -28.6219368 149.64788818 C-28.62526924 151.53611405 -28.62118941 153.42436817 -28.60953903 155.31256104 C-28.59682079 157.95327143 -28.61621939 160.59186868 -28.64404297 163.23242188 C-28.63392181 164.01075378 -28.62380066 164.78908569 -28.6133728 165.59100342 C-28.68880549 169.46059262 -29.16588193 171.44262283 -31.45747375 174.60368347 C-34.74178689 176.93524 -36.28806683 177.22554432 -40.2746582 177.18286133 C-41.45550491 177.18248367 -42.63635162 177.18210602 -43.85298157 177.18171692 C-45.75010139 177.14300728 -45.75010139 177.14300728 -47.68554688 177.10351562 C-49.63928474 177.09290352 -49.63928474 177.09290352 -51.63249207 177.08207703 C-55.08365447 177.06304951 -58.53375301 177.01398876 -61.98449707 176.95855713 C-65.51035167 176.90727086 -69.03637936 176.8845432 -72.5625 176.859375 C-79.47244031 176.80586335 -86.3816768 176.7206041 -93.29101562 176.61523438 C-93.29101562 179.25523437 -93.29101562 181.89523437 -93.29101562 184.61523438 C-92.62714844 184.58042969 -91.96328125 184.545625 -91.27929688 184.50976562 C-81.91745353 184.22276021 -81.91745353 184.22276021 -78.29101562 187.61523438 C-77.66992188 190.22851562 -77.66992188 190.22851562 -77.29101562 192.61523438 C-75.91705376 192.60524162 -75.91705376 192.60524162 -74.51533508 192.595047 C-65.87854395 192.53490869 -57.24182326 192.48924609 -48.6048708 192.45979786 C-44.16463086 192.4441492 -39.7245641 192.4229256 -35.28442383 192.38891602 C-30.99855538 192.35629393 -26.71285338 192.33837534 -22.42687035 192.33060265 C-20.79260831 192.32506424 -19.15835528 192.31424903 -17.5241642 192.2980442 C-15.23311376 192.27623166 -12.94274908 192.27326899 -10.65161133 192.2746582 C-9.34811234 192.26799637 -8.04461334 192.26133453 -6.70161438 192.25447083 C-3.06015402 192.63965427 -1.18100554 193.41081139 1.70898438 195.61523438 C3.29129245 198.77985053 2.95056251 202.20602804 3.02539062 205.68554688 C3.04617172 206.4817746 3.06695282 207.27800232 3.08836365 208.09835815 C3.15382586 210.64556123 3.21272853 213.19286863 3.27148438 215.74023438 C3.31467277 217.46550564 3.35828716 219.19076631 3.40234375 220.91601562 C3.50950382 225.14898122 3.6107806 229.38205191 3.70898438 233.61523438 C4.48113281 232.66390625 5.25328125 231.71257812 6.04882812 230.73242188 C8.64684214 227.53152982 10.69212646 225.92984242 14.70898438 224.61523438 C18.66898438 224.61523438 22.62898437 224.61523438 26.70898438 224.61523438 C26.70898438 177.09523438 26.70898438 129.57523437 26.70898438 80.61523438 C15.15898437 80.61523438 3.60898438 80.61523438 -8.29101562 80.61523438 C-12.29101562 77.61523438 -12.29101562 77.61523438 -13.29101562 74.61523438 C-13.40572951 72.41888324 -13.46039664 70.21923889 -13.48388672 68.02001953 C-13.49615295 67.02191505 -13.49615295 67.02191505 -13.50866699 66.00364685 C-13.53345916 63.80387258 -13.55001939 61.60416249 -13.56445312 59.40429688 C-13.5697768 58.65204205 -13.57510048 57.89978722 -13.58058548 57.12473679 C-13.60728792 53.14436615 -13.6266736 49.16402659 -13.64111328 45.18359375 C-13.65446243 41.89131955 -13.68233572 38.59966371 -13.72314453 35.30761719 C-13.77245527 31.32944295 -13.79723171 27.3518303 -13.80434036 23.37336349 C-13.81105223 21.85908246 -13.82627291 20.34481392 -13.85023117 18.83070755 C-13.88188503 16.70955411 -13.8819213 14.59056628 -13.87451172 12.46923828 C-13.88259857 11.26361237 -13.89068542 10.05798645 -13.89901733 8.81582642 C-12.41450363 1.00117282 -7.07552626 -0.12203736 0 0 Z " fill="#EF5555" transform="translate(221.291015625,127.384765625)"/>
<path d="M0 0 C0.92022001 0.00582568 1.84044002 0.01165137 2.78854549 0.01765358 C4.24893696 0.01509031 4.24893696 0.01509031 5.73883128 0.01247525 C9.02174195 0.00916448 12.30445106 0.02021012 15.5873431 0.03111184 C17.93243582 0.03167561 20.2775289 0.03136006 22.62262142 0.03022683 C29.00662757 0.02965098 35.39055917 0.0414427 41.77454793 0.05537474 C47.76498913 0.06658143 53.75543032 0.0686189 59.74587999 0.07067849 C71.61329588 0.07505871 83.48068431 0.08837667 95.34808528 0.10728371 C106.8780318 0.12563406 118.40797087 0.13979469 129.93792903 0.14829934 C131.00349829 0.14908751 131.00349829 0.14908751 132.09059419 0.1498916 C135.65426183 0.15250162 139.21792953 0.15502905 142.78159726 0.15751541 C172.35863093 0.17825809 201.93562487 0.21513333 231.51263607 0.25816262 C231.51263607 21.37816262 231.51263607 42.49816262 231.51263607 64.25816262 C210.26263607 64.50816262 210.26263607 64.50816262 203.57025325 64.55601418 C201.81664578 64.58538308 200.06306184 64.61620872 198.30951107 64.64878762 C196.94753597 64.65047951 196.94753597 64.65047951 195.55804622 64.65220559 C194.24924495 64.68193459 194.24924495 64.68193459 192.91400325 64.71226418 C192.15899532 64.72114663 191.40398738 64.73002907 190.62610042 64.73918068 C187.53921271 65.49719629 186.38643525 66.71087472 184.51263607 69.25816262 C183.92028053 72.41369449 183.92028053 72.41369449 184.02679622 75.98277199 C184.02110118 76.98350495 184.02110118 76.98350495 184.01529109 78.00445473 C184.0078972 80.20408963 184.0292493 82.40239565 184.05169857 84.60191262 C184.05408385 86.13360863 184.05498813 87.66530761 184.05447567 89.19700539 C184.05760166 92.40491509 184.07415063 95.61237722 184.10101497 98.82017434 C184.13499472 102.92938448 184.14264341 107.03810303 184.14112461 111.14743721 C184.14166882 114.30962218 184.15264416 117.47169998 184.16712749 120.63384926 C184.1734858 122.14888618 184.17743212 123.66393523 184.1789149 125.17898476 C184.18325832 127.29738402 184.20078083 129.41526555 184.22210872 131.53355324 C184.22973232 132.73838356 184.23735591 133.94321389 184.24521053 135.18455422 C184.501951 138.13535569 184.87085306 139.82226345 186.51263607 142.25816262 C197.5600088 147.78184899 211.16633613 143.90541119 223.51263607 144.25816262 C223.51263607 191.77816262 223.51263607 239.29816262 223.51263607 288.25816262 C219.55263607 288.58816262 215.59263607 288.91816262 211.51263607 289.25816262 C205.97094455 292.02900838 203.31771732 294.42621991 199.51263607 299.25816262 C199.49281673 298.12274025 199.47299739 296.98731789 199.45257747 295.81748879 C199.37653922 291.60730117 199.28781921 287.39745998 199.19525325 283.18760598 C199.15695612 281.36508437 199.12210452 279.54248699 199.09076107 277.71983254 C199.04512627 275.1008232 198.98712985 272.48233587 198.92669857 269.86363137 C198.91514736 269.04791161 198.90359615 268.23219185 198.8916949 267.39175332 C198.79066333 263.52451758 198.70490417 261.54656477 196.51263607 258.25816262 C192.97509734 257.07898304 190.11375438 257.09722514 186.37909114 257.05284035 C185.65688884 257.04294075 184.93468654 257.03304116 184.19059932 257.02284157 C181.80448862 256.99126503 179.41835801 256.96648439 177.03216732 256.94175637 C175.37735148 256.92118352 173.72254086 256.90018695 172.06773555 256.87878335 C167.71288453 256.82359686 163.35798636 256.77417249 159.00305355 256.72593606 C154.55893942 256.67569604 150.11489374 256.62002302 145.67083919 256.56480324 C136.95149603 256.45726354 128.2320956 256.35580927 119.51263607 256.25816262 C119.08233089 255.28927102 118.65202571 254.32037941 118.20868099 253.32212746 C116.80120382 249.95809206 116.80120382 249.95809206 113.37591732 249.23472512 C112.2041595 249.11870949 111.03240169 249.00269387 109.82513607 248.88316262 C108.64564388 248.75167824 107.46615169 248.62019387 106.25091732 248.48472512 C105.3472845 248.40995949 104.44365169 248.33519387 103.51263607 248.25816262 C103.51263607 245.61816262 103.51263607 242.97816262 103.51263607 240.25816262 C104.60804714 240.25269417 104.60804714 240.25269417 105.72558773 240.24711525 C112.61174424 240.20922995 119.49751163 240.15237126 126.38332164 240.07425988 C129.92335271 240.03477007 133.4631345 240.00258944 137.00335872 239.98716652 C141.0745655 239.9691089 145.14484061 239.91916537 149.21576107 239.86753762 C150.4856689 239.86630898 151.75557674 239.86508034 153.06396663 239.86381447 C154.24488887 239.84409585 155.42581111 239.82437722 156.64251888 239.80406106 C158.2013882 239.79073739 158.2013882 239.79073739 159.79174984 239.77714455 C162.58121614 239.42269801 162.58121614 239.42269801 164.84716976 237.74186623 C167.19016348 234.24776854 167.07223308 231.0389611 167.03021419 226.97300637 C167.03722347 226.14004036 167.04423275 225.30707436 167.05145442 224.44886696 C167.06904926 221.69745901 167.05740666 218.9470809 167.04388607 216.19566262 C167.04658056 214.28281881 167.05046262 212.36997634 167.05548275 210.45713723 C167.0613798 206.44894788 167.05280814 202.44111519 167.03412044 198.43296731 C167.01133078 193.29451019 167.02445275 188.15688875 167.0484103 183.0184623 C167.06286265 179.06876748 167.05826487 175.11927087 167.04789913 171.16957009 C167.04523029 169.27493611 167.04850713 167.38028415 167.05781734 165.48567116 C167.06797372 162.83773534 167.0524953 160.19115378 167.03021419 157.54331887 C167.03831111 156.75982064 167.04640804 155.97632241 167.05475032 155.16908181 C167.00301769 151.85149578 166.87987528 149.74313802 164.84620082 147.05747139 C161.90925296 144.79292054 160.35051414 144.75557742 156.66766536 144.75022805 C155.47313747 144.73894875 154.27860958 144.72766945 153.04788387 144.71604836 C151.74074428 144.72414528 150.43360469 144.73224221 149.08685482 144.74058449 C147.69375045 144.73516324 146.30065182 144.72804056 144.90756404 144.71934426 C141.12651821 144.70110791 137.34590892 144.70817942 133.56485546 144.7208606 C129.60822803 144.73098678 125.65163801 144.72159599 121.69500911 144.71531594 C115.05049097 144.7080384 108.40615065 144.71762994 101.7616595 144.73667824 C94.07937514 144.75844732 86.39751539 144.75139602 78.71524131 144.72937262 C72.11978668 144.71122157 65.52445988 144.70865881 58.92898834 144.7191273 C54.98962685 144.7253639 51.05046496 144.72619342 47.11111629 144.71298134 C43.40750805 144.7014276 39.70444732 144.70943909 36.00089824 144.73255837 C33.99306924 144.74037182 31.98519394 144.72848548 29.97738826 144.71604836 C28.78286037 144.72732766 27.58833248 144.73860695 26.35760677 144.75022805 C25.31933239 144.75173615 24.281058 144.75324425 23.21132076 144.75479805 C19.78303969 145.39424853 18.59883416 146.50471397 16.51263607 149.25816262 C16.12825236 152.11963037 15.98529581 154.59295791 16.02679622 157.45152199 C16.02299953 158.27473443 16.01920284 159.09794686 16.01529109 159.94610512 C16.0078865 162.6650962 16.02926632 165.38301663 16.05169857 168.10191262 C16.05408317 169.99233289 16.05498828 171.88275556 16.05447567 173.77317727 C16.05760352 177.73430647 16.0741676 181.69507369 16.10101497 185.65611184 C16.13499471 190.73384514 16.14264351 195.81118068 16.14112461 200.88901436 C16.14166845 204.7923606 16.15263789 208.69561985 16.16712749 212.59893715 C16.17349228 214.47123474 16.17743364 216.34354218 16.1789149 218.21585 C16.18325129 220.83233849 16.20075952 223.44840536 16.22210872 226.06480324 C16.22120235 226.83895073 16.22029598 227.61309823 16.21936214 228.41070473 C16.28123752 233.64819816 16.28123752 233.64819816 18.51263607 238.25816262 C21.15683724 239.5802632 23.19463222 239.41938384 26.15570247 239.46348488 C27.33677577 239.4834301 28.51784908 239.50337533 29.73471248 239.52392495 C31.01494289 239.54063744 32.2951733 239.55734993 33.61419857 239.57456887 C34.92093532 239.59534997 36.22767208 239.61613106 37.57400692 239.63754189 C41.04932506 239.69275556 44.52470259 239.74216787 48.00012386 239.79038918 C51.54601507 239.84060939 55.09181997 239.89629273 58.63763607 239.95152199 C65.59589457 240.05909489 72.55423102 240.16054179 79.51263607 240.25816262 C79.51263607 242.89816262 79.51263607 245.53816262 79.51263607 248.25816262 C78.39115169 248.29683449 78.39115169 248.29683449 77.24701107 248.33628762 C71.19130051 248.55731385 71.19130051 248.55731385 65.88763607 251.13316262 C64.35971592 253.30045968 64.35971592 253.30045968 63.51263607 256.25816262 C62.68435802 256.26180825 61.85607997 256.26545388 61.00270259 256.26920998 C53.18974848 256.30710623 45.37721111 256.36397724 37.56455123 256.44206536 C33.54812495 256.48154316 29.53191799 256.51372991 25.51532161 256.52915871 C21.6376628 256.54432368 17.76060695 256.57876531 13.88321674 256.62647164 C12.40533559 256.64128729 10.92736835 256.64920375 9.44941318 256.65004647 C7.37584259 256.65241755 5.3039365 256.67950311 3.23065364 256.71226418 C2.0515089 256.72114663 0.87236415 256.73002907 -0.34251225 256.73918068 C-4.09803448 257.35893906 -5.63749397 258.82385393 -8.48736393 261.25816262 C-8.53310303 228.29714226 -8.56836362 195.33613011 -8.58949459 162.37508527 C-8.59199612 158.48715267 -8.59458476 154.59922013 -8.59722722 150.71128762 C-8.59775184 149.93724301 -8.59827646 149.16319841 -8.59881698 148.36569791 C-8.60752878 135.81874475 -8.623303 123.27180985 -8.64166953 110.72486754 C-8.66034704 97.85853783 -8.6714761 84.99221771 -8.67554092 72.125875 C-8.67829046 64.18131963 -8.68698661 56.23681586 -8.70319687 48.29227637 C-8.71498006 42.20895753 -8.71628073 36.12568343 -8.7135793 30.04235184 C-8.71413198 27.54049974 -8.71814254 25.03864579 -8.72577488 22.53680527 C-8.73564868 19.1349011 -8.73336063 15.73322207 -8.72787297 12.33131325 C-8.73369865 11.32938333 -8.73952433 10.3274534 -8.74552655 9.29516196 C-8.74154446 8.38898041 -8.73756236 7.48279886 -8.73345959 6.54915726 C-8.73459875 5.37012564 -8.73459875 5.37012564 -8.73576093 4.16727519 C-8.08798222 -0.81137794 -4.05848081 0.01940057 0 0 Z " fill="#A9C2D6" transform="translate(24.487363934516907,63.74183738231659)"/>
<path d="M0 0 C1.39163354 -0.00677875 2.7832581 -0.01568334 4.17486572 -0.02655029 C7.94773657 -0.04932044 11.71992286 -0.04051734 15.49280548 -0.02465487 C19.44362718 -0.01198376 23.39439081 -0.02373932 27.34521484 -0.03158569 C33.97959909 -0.04067878 40.61370491 -0.02870348 47.24804688 -0.00488281 C54.91507721 0.02232808 62.58144273 0.01351365 70.24845695 -0.01401484 C76.83462649 -0.03671481 83.42059605 -0.03990173 90.00679207 -0.02682149 C93.93894471 -0.01903176 97.87078499 -0.01797193 101.80291748 -0.03450394 C105.50008975 -0.0489627 109.1964061 -0.03890286 112.89348602 -0.01003265 C114.89514493 -0.00028243 116.89687636 -0.01511015 118.89849854 -0.03067017 C127.53303333 0.07125005 127.53303333 0.07125005 131.78134155 2.66348267 C133.95899165 6.49601983 134.17940526 9.73329045 134.12353516 14.02978516 C134.13229675 14.86129089 134.14105835 15.69279663 134.15008545 16.54949951 C134.17204489 19.29085886 134.15753961 22.03059768 134.140625 24.77197266 C134.14399414 26.68099273 134.14884758 28.5900107 134.15512085 30.49902344 C134.16248748 34.4971156 134.15179344 38.49464868 134.12841797 42.49267578 C134.09993028 47.61435446 134.11633538 52.73472313 134.14628029 57.85635376 C134.16435894 61.79754485 134.15859264 65.73842598 134.14564133 69.67962646 C134.14230888 71.56785233 134.14638872 73.45610645 134.15803909 75.34429932 C134.17075734 77.98500971 134.15135873 80.62360696 134.12353516 83.26416016 C134.13365631 84.04249207 134.14377747 84.82082397 134.15420532 85.6227417 C134.07877263 89.4923309 133.6016962 91.47436111 131.31010437 94.63542175 C128.02579123 96.96697828 126.47951129 97.2572826 122.49291992 97.21459961 C121.31207321 97.21422195 120.1312265 97.2138443 118.91459656 97.2134552 C117.01747673 97.17474556 117.01747673 97.17474556 115.08203125 97.13525391 C113.12829338 97.1246418 113.12829338 97.1246418 111.13508606 97.11381531 C107.68392366 97.09478779 104.23382511 97.04572704 100.78308105 96.99029541 C97.25722646 96.93900914 93.73119877 96.91628148 90.20507812 96.89111328 C83.29513781 96.83760163 76.38590133 96.75234238 69.4765625 96.64697266 C69.4765625 99.28697266 69.4765625 101.92697266 69.4765625 104.64697266 C70.14042969 104.61216797 70.80429688 104.57736328 71.48828125 104.54150391 C80.8501246 104.25449849 80.8501246 104.25449849 84.4765625 107.64697266 C85.09765625 110.26025391 85.09765625 110.26025391 85.4765625 112.64697266 C86.85052437 112.6369799 86.85052437 112.6369799 88.25224304 112.62678528 C96.88903417 112.56664697 105.52575487 112.52098437 114.16270733 112.49153614 C118.60294726 112.47588748 123.04301402 112.45466388 127.4831543 112.4206543 C131.76902275 112.38803221 136.05472474 112.37011362 140.34070778 112.36234093 C141.97496981 112.35680252 143.60922285 112.34598731 145.24341393 112.32978249 C147.53446436 112.30796994 149.82482904 112.30500727 152.1159668 112.30639648 C153.41946579 112.29973465 154.72296478 112.29307281 156.06596375 112.28620911 C159.70742411 112.67139255 161.58657259 113.44254967 164.4765625 115.64697266 C165.61209161 117.91803087 165.60681845 119.16633656 165.61700439 121.68818665 C165.62271454 122.53353973 165.62842468 123.37889282 165.63430786 124.24986267 C165.63598465 125.64393089 165.63598465 125.64393089 165.63769531 127.06616211 C165.64266022 128.04353333 165.64762512 129.02090454 165.65274048 130.02789307 C165.66738536 133.27202042 165.67416818 136.51609888 165.6796875 139.76025391 C165.68543728 142.00986228 165.69119504 144.25947064 165.69696045 146.50907898 C165.70747723 151.23107126 165.71331538 155.95304648 165.71679688 160.67504883 C165.72228129 166.72801301 165.7463055 172.78075221 165.77476883 178.83364582 C165.79338615 183.48246419 165.79860034 188.13122829 165.80013275 192.7800808 C165.80316213 195.01162127 165.81120023 197.24316072 165.82431793 199.47466469 C165.84135829 202.59648401 165.83950286 205.71775274 165.83300781 208.83959961 C165.8422226 209.76290573 165.85143738 210.68621185 165.8609314 211.63749695 C165.80624863 220.02096819 165.80624863 220.02096819 162.4765625 223.64697266 C160.8265625 223.97697266 159.1765625 224.30697266 157.4765625 224.64697266 C157.4765625 229.92697266 157.4765625 235.20697266 157.4765625 240.64697266 C131.6951174 240.69321486 105.91368224 240.72893328 80.13220406 240.750597 C68.16217769 240.76092193 56.19217752 240.77500545 44.22216797 240.79785156 C33.79253335 240.81774826 23.36291769 240.83068023 12.93326461 240.83514965 C7.40775765 240.83776335 1.88230496 240.84393181 -3.64318466 240.85843277 C-8.8387222 240.87195797 -14.03418286 240.87620561 -19.22973633 240.87318802 C-21.14139345 240.87374046 -23.05305302 240.87774792 -24.96469498 240.88538361 C-27.56525357 240.89526577 -30.16551803 240.89296637 -32.76608276 240.88748169 C-33.53066484 240.89330737 -34.29524692 240.89913306 -35.08299816 240.90513527 C-40.29519508 240.87521508 -40.29519508 240.87521508 -42.5234375 238.64697266 C-42.78349972 236.52514172 -42.78349972 236.52514172 -42.79759216 233.84648132 C-42.80756729 232.83284515 -42.81754242 231.81920898 -42.82781982 230.77485657 C-42.8284845 229.65846298 -42.82914917 228.5420694 -42.82983398 227.3918457 C-42.8381575 226.21940308 -42.84648102 225.04696045 -42.85505676 223.83898926 C-42.87506606 220.61776831 -42.88580543 217.39669727 -42.89088321 214.17542243 C-42.89452364 212.16289944 -42.90076212 210.15040144 -42.9078846 208.13788795 C-42.93239351 201.11657237 -42.94543351 194.09533078 -42.94897461 187.07397461 C-42.95260824 180.53003913 -42.98248683 173.98657316 -43.02437919 167.44278115 C-43.05908276 161.82485842 -43.07452307 156.20709123 -43.07522064 150.58906204 C-43.07601364 147.23357822 -43.08476072 143.87857213 -43.11321831 140.52319908 C-43.14001808 136.77847627 -43.13533952 133.03505235 -43.12280273 129.2902832 C-43.13763702 128.17996231 -43.15247131 127.06964142 -43.16775513 125.92567444 C-43.12239231 121.17692025 -43.07400987 118.47695322 -40.40585327 114.45474243 C-36.91017535 112.26235195 -34.91695643 112.04063067 -30.80541992 112.0793457 C-30.15120056 112.07861557 -29.4969812 112.07788544 -28.82293701 112.07713318 C-26.6740645 112.08059928 -24.52739694 112.11940601 -22.37890625 112.15869141 C-20.88390792 112.16802321 -19.38889424 112.17513759 -17.89387512 112.18013 C-13.96930321 112.19917148 -10.04566452 112.24824584 -6.12145996 112.3036499 C-2.11300276 112.35490505 1.89560605 112.3776573 5.90429688 112.40283203 C13.76214582 112.45636897 21.61923789 112.54164531 29.4765625 112.64697266 C29.60643555 111.85911377 29.73630859 111.07125488 29.87011719 110.25952148 C30.4765625 107.64697266 30.4765625 107.64697266 32.1796875 105.84619141 C35.04910611 104.34804257 37.00760457 104.34450987 40.2265625 104.45947266 C41.70382813 104.50007813 41.70382813 104.50007813 43.2109375 104.54150391 C43.95859375 104.57630859 44.70625 104.61111328 45.4765625 104.64697266 C45.4765625 102.00697266 45.4765625 99.36697266 45.4765625 96.64697266 C44.38115143 96.65696541 44.38115143 96.65696541 43.26361084 96.66716003 C36.37775149 96.72729869 29.49193144 96.77296108 22.60587692 96.80240917 C19.06575049 96.81805785 15.52584127 96.83928102 11.98583984 96.87329102 C7.91501798 96.91215554 3.84442389 96.92668839 -0.2265625 96.93994141 C-1.49647034 96.95542526 -2.76637817 96.97090912 -4.07476807 96.98686218 C-5.84615143 96.98720207 -5.84615143 96.98720207 -7.65332031 96.98754883 C-8.69256653 96.99421066 -9.73181274 97.0008725 -10.80255127 97.00773621 C-13.93909222 96.59186081 -15.28151573 95.85001729 -17.5234375 93.64697266 C-18.76321808 89.92763091 -18.69503883 86.4584043 -18.71630859 82.58300781 C-18.72448608 81.7615477 -18.73266357 80.94008759 -18.74108887 80.09373474 C-18.76590808 77.37450894 -18.78244811 74.65533514 -18.796875 71.93603516 C-18.80219868 71.00725933 -18.80752235 70.07848351 -18.81300735 69.12156296 C-18.83972117 64.20751521 -18.85910354 59.29349274 -18.87353516 54.37939453 C-18.88688787 50.31113264 -18.91476731 46.24337073 -18.95556641 42.17529297 C-19.00482746 37.26346065 -19.02964781 32.3520827 -19.03676224 27.44001389 C-19.04348209 25.56848567 -19.05872321 23.69696788 -19.08265305 21.8255806 C-19.11423959 19.20642317 -19.11435184 16.58902409 -19.10693359 13.96972656 C-19.12333893 13.1976033 -19.13974426 12.42548004 -19.15664673 11.62995911 C-19.11548129 8.07809448 -18.58962028 5.76357682 -16.83218384 2.66723633 C-11.49235906 -0.59316895 -6.13578683 -0.04769779 0 0 Z " fill="#784119" transform="translate(58.5234375,207.35302734375)"/>
<path d="M0 0 C12.23095979 -0.092841 24.46183521 -0.16383671 36.69307613 -0.20724869 C42.3730664 -0.22808842 48.05281488 -0.25634028 53.73266602 -0.30175781 C59.21807278 -0.34534407 64.70324754 -0.36916428 70.18881416 -0.37950897 C72.27751884 -0.38687739 74.36621139 -0.40126611 76.45481682 -0.42292023 C79.38934252 -0.45212383 82.32291981 -0.4559489 85.25756836 -0.45410156 C86.54151237 -0.47567322 86.54151237 -0.47567322 87.85139465 -0.49768066 C95.03667795 -0.44900677 101.04597961 1.47893527 106.55859375 6.18359375 C107.17863281 6.92738281 107.79867187 7.67117188 108.4375 8.4375 C109.07558594 9.17871094 109.71367187 9.91992188 110.37109375 10.68359375 C113.6828793 15.39315929 114.2520326 19.31578982 114.26742554 25.0282135 C114.27195665 25.72386726 114.27648776 26.41952103 114.28115618 27.1362552 C114.2937885 29.46077791 114.29218062 31.78506597 114.29052734 34.10961914 C114.29651314 35.77872519 114.30331881 37.44782846 114.31088257 39.1169281 C114.32853989 43.64569661 114.3332377 48.17438953 114.33451414 52.70318913 C114.33641402 56.48325538 114.34377218 60.26330404 114.35085833 64.04336351 C114.3671372 72.95868697 114.37202756 81.87397003 114.37060547 90.78930664 C114.36940265 99.99106426 114.39053353 109.19258785 114.4220928 118.39428622 C114.4482205 126.29333383 114.45897431 134.19230481 114.45769465 142.09139532 C114.45718418 146.80988034 114.46291449 151.52815716 114.48405075 156.2465992 C114.50337538 160.68146106 114.50359749 165.11591476 114.48901749 169.55079079 C114.48692141 171.17941634 114.49167767 172.80806708 114.5037384 174.43664932 C114.51912442 176.65783993 114.50992899 178.87761117 114.49447632 181.09877014 C114.49556585 182.34222733 114.49665539 183.58568453 114.49777794 184.86682224 C114 188 114 188 112.23168755 190.40126324 C109.79169777 192.14922359 108.75316426 192.49617007 105.79852295 192.48101807 C104.55339432 192.48926605 104.55339432 192.48926605 103.28311157 192.49768066 C101.93012466 192.47610901 101.93012466 192.47610901 100.54980469 192.45410156 C99.59337067 192.45468567 98.63693665 192.45526978 97.65151978 192.45587158 C94.49126856 192.45308563 91.33196138 192.42196885 88.171875 192.390625 C85.98041296 192.38316445 83.78894424 192.37747064 81.59747314 192.37347412 C75.8302162 192.35820329 70.06336235 192.31890856 64.29626465 192.2746582 C58.4111069 192.233737 52.52588401 192.21546981 46.640625 192.1953125 C35.09357292 192.15241607 23.54681998 192.08414687 12 192 C12.639375 191.566875 13.27875 191.13375 13.9375 190.6875 C16.26746003 189.08760823 16.26746003 189.08760823 17 186 C17.09634512 183.7964343 17.13066368 181.59000719 17.13371277 179.38433838 C17.13597833 178.70884437 17.13824388 178.03335037 17.14057809 177.33738685 C17.14691913 175.06898281 17.14608865 172.8006385 17.14526367 170.53222656 C17.14825516 168.90769371 17.15165767 167.28316157 17.15544128 165.65863037 C17.16428808 161.24111973 17.16661973 156.82362845 17.16725707 152.40610981 C17.16820608 148.71838989 17.17188442 145.03067449 17.17542917 141.3429563 C17.18357687 132.64041907 17.18601317 123.93789218 17.18530273 115.23535156 C17.18470235 106.26098289 17.19524568 97.2866744 17.2110464 88.31232095 C17.2241291 80.60690409 17.2294863 72.90150689 17.22884732 65.19607902 C17.22859248 60.59434378 17.23143579 55.99266198 17.24202538 51.39093781 C17.25171822 47.0604294 17.25177738 42.73002537 17.24450874 38.39951324 C17.24346427 36.81246793 17.24581765 35.22541608 17.2518692 33.63838196 C17.25961191 31.46666476 17.25492944 29.29530594 17.24723816 27.12359619 C17.24778293 25.90980412 17.24832769 24.69601204 17.24888897 23.44543839 C16.66557979 15.3705291 13.9379685 10.29478429 8 5 C5.37604144 3.36517765 2.86351724 2.20569147 0 1 C0 0.67 0 0.34 0 0 Z " fill="#E13741" transform="translate(382,256)"/>
<path d="M0 0 C1.39163354 -0.00677875 2.7832581 -0.01568334 4.17486572 -0.02655029 C7.94773657 -0.04932044 11.71992286 -0.04051734 15.49280548 -0.02465487 C19.44362718 -0.01198376 23.39439081 -0.02373932 27.34521484 -0.03158569 C33.97959909 -0.04067878 40.61370491 -0.02870348 47.24804688 -0.00488281 C54.91507721 0.02232808 62.58144273 0.01351365 70.24845695 -0.01401484 C76.83462649 -0.03671481 83.42059605 -0.03990173 90.00679207 -0.02682149 C93.93894471 -0.01903176 97.87078499 -0.01797193 101.80291748 -0.03450394 C105.50008975 -0.0489627 109.1964061 -0.03890286 112.89348602 -0.01003265 C114.89514493 -0.00028243 116.89687636 -0.01511015 118.89849854 -0.03067017 C127.53303333 0.07125005 127.53303333 0.07125005 131.78134155 2.66348267 C133.95899165 6.49601983 134.17940526 9.73329045 134.12353516 14.02978516 C134.13229675 14.86129089 134.14105835 15.69279663 134.15008545 16.54949951 C134.17204489 19.29085886 134.15753961 22.03059768 134.140625 24.77197266 C134.14399414 26.68099273 134.14884758 28.5900107 134.15512085 30.49902344 C134.16248748 34.4971156 134.15179344 38.49464868 134.12841797 42.49267578 C134.09993028 47.61435446 134.11633538 52.73472313 134.14628029 57.85635376 C134.16435894 61.79754485 134.15859264 65.73842598 134.14564133 69.67962646 C134.14230888 71.56785233 134.14638872 73.45610645 134.15803909 75.34429932 C134.17075734 77.98500971 134.15135873 80.62360696 134.12353516 83.26416016 C134.13365631 84.04249207 134.14377747 84.82082397 134.15420532 85.6227417 C134.07877263 89.4923309 133.6016962 91.47436111 131.31010437 94.63542175 C128.02579123 96.96697828 126.47951129 97.2572826 122.49291992 97.21459961 C121.31207321 97.21422195 120.1312265 97.2138443 118.91459656 97.2134552 C117.01747673 97.17474556 117.01747673 97.17474556 115.08203125 97.13525391 C113.12829338 97.1246418 113.12829338 97.1246418 111.13508606 97.11381531 C107.68392366 97.09478779 104.23382511 97.04572704 100.78308105 96.99029541 C97.25722646 96.93900914 93.73119877 96.91628148 90.20507812 96.89111328 C83.29513781 96.83760163 76.38590133 96.75234238 69.4765625 96.64697266 C69.4765625 99.28697266 69.4765625 101.92697266 69.4765625 104.64697266 C70.14042969 104.61216797 70.80429688 104.57736328 71.48828125 104.54150391 C80.8501246 104.25449849 80.8501246 104.25449849 84.4765625 107.64697266 C84.8065625 109.29697266 85.1365625 110.94697266 85.4765625 112.64697266 C66.9965625 112.64697266 48.5165625 112.64697266 29.4765625 112.64697266 C30.4765625 107.64697266 30.4765625 107.64697266 32.1796875 105.84619141 C35.04910611 104.34804257 37.00760457 104.34450987 40.2265625 104.45947266 C41.21140625 104.48654297 42.19625 104.51361328 43.2109375 104.54150391 C43.95859375 104.57630859 44.70625 104.61111328 45.4765625 104.64697266 C45.4765625 102.00697266 45.4765625 99.36697266 45.4765625 96.64697266 C44.74628845 96.65363449 44.0160144 96.66029633 43.26361084 96.66716003 C36.37775149 96.72729869 29.49193144 96.77296108 22.60587692 96.80240917 C19.06575049 96.81805785 15.52584127 96.83928102 11.98583984 96.87329102 C7.91501798 96.91215554 3.84442389 96.92668839 -0.2265625 96.93994141 C-1.49647034 96.95542526 -2.76637817 96.97090912 -4.07476807 96.98686218 C-5.84615143 96.98720207 -5.84615143 96.98720207 -7.65332031 96.98754883 C-8.69256653 96.99421066 -9.73181274 97.0008725 -10.80255127 97.00773621 C-13.93909222 96.59186081 -15.28151573 95.85001729 -17.5234375 93.64697266 C-18.76321808 89.92763091 -18.69503883 86.4584043 -18.71630859 82.58300781 C-18.72448608 81.7615477 -18.73266357 80.94008759 -18.74108887 80.09373474 C-18.76590808 77.37450894 -18.78244811 74.65533514 -18.796875 71.93603516 C-18.80219868 71.00725933 -18.80752235 70.07848351 -18.81300735 69.12156296 C-18.83972117 64.20751521 -18.85910354 59.29349274 -18.87353516 54.37939453 C-18.88688787 50.31113264 -18.91476731 46.24337073 -18.95556641 42.17529297 C-19.00482746 37.26346065 -19.02964781 32.3520827 -19.03676224 27.44001389 C-19.04348209 25.56848567 -19.05872321 23.69696788 -19.08265305 21.8255806 C-19.11423959 19.20642317 -19.11435184 16.58902409 -19.10693359 13.96972656 C-19.12333893 13.1976033 -19.13974426 12.42548004 -19.15664673 11.62995911 C-19.11548129 8.07809448 -18.58962028 5.76357682 -16.83218384 2.66723633 C-11.49235906 -0.59316895 -6.13578683 -0.04769779 0 0 Z " fill="#3C3C3C" transform="translate(58.5234375,207.35302734375)"/>
<path d="M0 0 C0.82175217 -0.00554901 1.64350433 -0.01109802 2.49015808 -0.01681519 C5.19911515 -0.02859978 7.90639499 -0.00434938 10.61523438 0.02148438 C12.50183028 0.02319588 14.38842856 0.02312939 16.27502441 0.0213623 C20.22606199 0.02301487 24.17653173 0.04170121 28.12744141 0.07324219 C33.1883391 0.11291954 38.24849319 0.11728702 43.30951691 0.10977936 C47.20435379 0.10670774 51.09902394 0.11883701 54.99382019 0.13591003 C56.85970514 0.14293428 58.72560898 0.14606527 60.59150696 0.1452179 C63.20067401 0.14701848 65.80895517 0.16842221 68.41796875 0.1953125 C69.18694992 0.1923819 69.95593109 0.18945129 70.74821472 0.18643188 C75.22812538 0.25756011 78.15074365 0.83251037 81.70898438 3.61523438 C82.84451348 5.88629259 82.83924032 7.13459827 82.84942627 9.65644836 C82.85513641 10.50180145 82.86084656 11.34715454 82.86672974 12.21812439 C82.86840652 13.61219261 82.86840652 13.61219261 82.87011719 15.03442383 C82.87756454 16.50048065 82.87756454 16.50048065 82.88516235 17.99615479 C82.89980724 21.24028214 82.90659005 24.4843606 82.91210938 27.72851562 C82.91785916 29.978124 82.92361691 32.22773236 82.92938232 34.4773407 C82.93989911 39.19933298 82.94573726 43.9213082 82.94921875 48.64331055 C82.95470316 54.69627473 82.97872737 60.74901392 83.0071907 66.80190754 C83.02580802 71.45072591 83.03102222 76.09949001 83.03255463 80.74834251 C83.03558401 82.97988298 83.04362211 85.21142244 83.05673981 87.44292641 C83.07378016 90.56474573 83.07192474 93.68601446 83.06542969 96.80786133 C83.07464447 97.73116745 83.08385925 98.65447357 83.09335327 99.60575867 C83.06221589 104.37946247 82.95382795 107.81637208 79.70898438 111.61523438 C75.98138797 112.85776651 72.51219557 112.77078604 68.62915039 112.77636719 C67.39455078 112.78381454 67.39455078 112.78381454 66.13500977 112.79141235 C63.41096157 112.80602344 60.68697157 112.81283351 57.96289062 112.81835938 C56.07103982 112.82411081 54.17918903 112.82986855 52.28733826 112.83563232 C48.32038094 112.8461387 44.35344388 112.85198404 40.38647461 112.85546875 C35.30084772 112.86095881 30.21548785 112.88499928 25.1299448 112.9134407 C21.22233799 112.93205228 17.31479576 112.93727185 13.40714836 112.93880463 C11.53203811 112.94183403 9.65692907 112.9498722 7.78186226 112.96298981 C5.16043802 112.98002266 2.53966984 112.97817716 -0.08178711 112.97167969 C-0.85750565 112.98089447 -1.63322418 112.99010925 -2.43244934 112.99960327 C-5.62252211 112.9748031 -7.91360191 112.82080372 -10.74159241 111.28045654 C-13.25619999 108.57791521 -13.41820741 105.97929652 -13.44491577 102.45376587 C-13.45351624 101.60703812 -13.4621167 100.76031036 -13.47097778 99.88792419 C-13.47523773 98.96214066 -13.47949768 98.03635712 -13.48388672 97.08251953 C-13.49206421 96.10500229 -13.5002417 95.12748505 -13.50866699 94.12034607 C-13.53350461 90.88166925 -13.55003086 87.64303614 -13.56445312 84.40429688 C-13.5697768 83.29900005 -13.57510048 82.19370323 -13.58058548 81.05491257 C-13.60730704 75.20718835 -13.62668714 69.35948543 -13.64111328 63.51171875 C-13.65777943 57.46647921 -13.70257699 51.42178287 -13.75348473 45.37674904 C-13.78710178 40.73222206 -13.79868452 36.08782508 -13.80434036 31.44318771 C-13.81106566 29.21440849 -13.82632069 26.98563819 -13.85023117 24.75697708 C-13.88177247 21.6397765 -13.881936 18.52405587 -13.87451172 15.40673828 C-13.89091705 14.4850032 -13.90732239 13.56326813 -13.92422485 12.61360168 C-13.88258956 8.34737006 -13.66101939 6.17869077 -11.2727356 2.54171753 C-7.47473959 0.0878401 -4.38126731 -0.07556729 0 0 Z " fill="#A55528" transform="translate(365.291015625,111.384765625)"/>
<path d="M0 0 C0.82175217 -0.00554901 1.64350433 -0.01109802 2.49015808 -0.01681519 C5.19911515 -0.02859978 7.90639499 -0.00434938 10.61523438 0.02148438 C12.50183028 0.02319588 14.38842856 0.02312939 16.27502441 0.0213623 C20.22606199 0.02301487 24.17653173 0.04170121 28.12744141 0.07324219 C33.1883391 0.11291954 38.24849319 0.11728702 43.30951691 0.10977936 C47.20435379 0.10670774 51.09902394 0.11883701 54.99382019 0.13591003 C56.85970514 0.14293428 58.72560898 0.14606527 60.59150696 0.1452179 C63.20067401 0.14701848 65.80895517 0.16842221 68.41796875 0.1953125 C69.18694992 0.1923819 69.95593109 0.18945129 70.74821472 0.18643188 C75.22812538 0.25756011 78.15074365 0.83251037 81.70898438 3.61523438 C83.13564454 6.4685547 82.8520613 8.90711711 82.87011719 12.09692383 C82.87756454 13.09480927 82.87756454 13.09480927 82.88516235 14.112854 C82.89979059 16.31808501 82.90658764 18.52324403 82.91210938 20.72851562 C82.91786104 22.26067609 82.92361878 23.79283653 82.92938232 25.32499695 C82.93989471 28.5404799 82.94573556 31.75593783 82.94921875 34.97143555 C82.95469879 39.08735328 82.97871504 43.20293941 83.0071907 47.31875324 C83.02583689 50.48523414 83.03102377 53.65163557 83.03255463 56.81816673 C83.0355781 58.33519488 83.04359636 59.85222172 83.05673981 61.36919594 C83.07383957 63.49483887 83.07191082 65.61967708 83.06542969 67.74536133 C83.07089813 69.55832451 83.07089813 69.55832451 83.07647705 71.40791321 C82.67150309 74.94235521 81.88839972 76.82342512 79.70898438 79.61523438 C68.00428446 83.51680101 55.04682139 80.61523438 42.70898438 80.61523438 C42.70898438 128.13523438 42.70898438 175.65523438 42.70898438 224.61523438 C37.42898438 224.61523438 32.14898437 224.61523438 26.70898438 224.61523438 C26.70898438 177.09523438 26.70898438 129.57523437 26.70898438 80.61523438 C15.15898437 80.61523438 3.60898438 80.61523438 -8.29101562 80.61523438 C-12.29101562 77.61523438 -12.29101562 77.61523438 -13.29101562 74.61523438 C-13.40572951 72.41888324 -13.46039664 70.21923889 -13.48388672 68.02001953 C-13.49206421 67.35461655 -13.5002417 66.68921356 -13.50866699 66.00364685 C-13.53345916 63.80387258 -13.55001939 61.60416249 -13.56445312 59.40429688 C-13.5697768 58.65204205 -13.57510048 57.89978722 -13.58058548 57.12473679 C-13.60728792 53.14436615 -13.6266736 49.16402659 -13.64111328 45.18359375 C-13.65446243 41.89131955 -13.68233572 38.59966371 -13.72314453 35.30761719 C-13.77245527 31.32944295 -13.79723171 27.3518303 -13.80434036 23.37336349 C-13.81105223 21.85908246 -13.82627291 20.34481392 -13.85023117 18.83070755 C-13.88188503 16.70955411 -13.8819213 14.59056628 -13.87451172 12.46923828 C-13.88259857 11.26361237 -13.89068542 10.05798645 -13.89901733 8.81582642 C-12.41450363 1.00117282 -7.07552626 -0.12203736 0 0 Z " fill="#EF6423" transform="translate(221.291015625,127.384765625)"/>
<path d="M0 0 C1.56687561 -0.01395813 1.56687561 -0.01395813 3.16540527 -0.02819824 C4.28322388 -0.01180298 5.40104248 0.00459229 6.55273438 0.02148438 C8.28892029 0.02142395 8.28892029 0.02142395 10.06018066 0.0213623 C12.50453122 0.02671784 14.94888131 0.0443017 17.39306641 0.07324219 C21.13302271 0.11508377 24.8711773 0.11431072 28.61132812 0.10742188 C30.98764271 0.11791492 33.36394803 0.13085363 35.74023438 0.14648438 C36.85805298 0.14668579 37.97587158 0.14688721 39.12756348 0.14709473 C40.69443909 0.17096252 40.69443909 0.17096252 42.29296875 0.1953125 C43.66600159 0.20794128 43.66600159 0.20794128 45.06677246 0.2208252 C48.18706664 0.69788337 50.09531072 1.78450064 52.64648438 3.61523438 C53.78201348 5.88629259 53.77674032 7.13459827 53.78692627 9.65644836 C53.79263641 10.50180145 53.79834656 11.34715454 53.80422974 12.21812439 C53.80590652 13.61219261 53.80590652 13.61219261 53.80761719 15.03442383 C53.81506454 16.50048065 53.81506454 16.50048065 53.82266235 17.99615479 C53.83730724 21.24028214 53.84409005 24.4843606 53.84960938 27.72851562 C53.85535916 29.978124 53.86111691 32.22773236 53.86688232 34.4773407 C53.87739911 39.19933298 53.88323726 43.9213082 53.88671875 48.64331055 C53.89220316 54.69627473 53.91622737 60.74901392 53.9446907 66.80190754 C53.96330802 71.45072591 53.96852222 76.09949001 53.97005463 80.74834251 C53.97308401 82.97988298 53.98112211 85.21142244 53.99423981 87.44292641 C54.01128016 90.56474573 54.00942474 93.68601446 54.00292969 96.80786133 C54.01214447 97.73116745 54.02135925 98.65447357 54.03085327 99.60575867 C54.02528412 100.45957123 54.01971497 101.31338379 54.01397705 102.19306946 C54.01617689 103.29947265 54.01617689 103.29947265 54.01842117 104.42822742 C53.64648438 106.61523438 53.64648438 106.61523438 50.64648438 111.61523438 C80.67648438 111.94523437 110.70648438 112.27523437 141.64648438 112.61523438 C141.64648438 117.89523437 141.64648438 123.17523438 141.64648438 128.61523438 C122.12346375 128.66148329 102.60045854 128.69719844 83.07739449 128.71885872 C74.01300317 128.72918216 64.94864645 128.74326283 55.88427734 128.76611328 C47.98605288 128.78601454 40.08785348 128.79894304 32.18960464 128.80341136 C28.00548252 128.8060243 23.82143211 128.81218785 19.63733292 128.82669449 C15.70250054 128.84022691 11.76776969 128.84446587 7.83291626 128.84144974 C6.38567428 128.84200185 4.93842904 128.8460051 3.49120712 128.85364532 C1.52135396 128.86353817 -0.44855316 128.86002513 -2.41842651 128.85574341 C-3.52273451 128.85758699 -4.6270425 128.85943058 -5.76481438 128.86133003 C-8.35351563 128.61523438 -8.35351563 128.61523438 -10.35351562 126.61523438 C-10.61357784 124.49340343 -10.61357784 124.49340343 -10.62767029 121.81474304 C-10.63764542 120.80110687 -10.64762054 119.7874707 -10.65789795 118.74311829 C-10.65856262 117.6267247 -10.65922729 116.51033112 -10.65991211 115.36010742 C-10.67239738 113.60144348 -10.67239738 113.60144348 -10.68513489 111.80725098 C-10.70514419 108.58603003 -10.71588356 105.36495899 -10.72096133 102.14368415 C-10.72460176 100.13116116 -10.73084025 98.11866316 -10.73796272 96.10614967 C-10.76247164 89.08483409 -10.77551164 82.0635925 -10.77905273 75.04223633 C-10.78268636 68.49830085 -10.81256495 61.95483488 -10.85445732 55.41104287 C-10.88916089 49.79312014 -10.9046012 44.17535294 -10.90529877 38.55732375 C-10.90609177 35.20183994 -10.91483884 31.84683385 -10.94329643 28.4914608 C-10.9700962 24.74673799 -10.96541765 21.00331407 -10.95288086 17.25854492 C-10.96771515 16.14822403 -10.98254944 15.03790314 -10.99783325 13.89393616 C-10.92667718 6.4450436 -10.92667718 6.4450436 -8.15065002 2.42597961 C-5.09390201 0.44717162 -3.60277854 -0.00808616 0 0 Z " fill="#A45528" transform="translate(26.353515625,319.384765625)"/>
<path d="M0 0 C1.1325824 -0.00073013 2.26516479 -0.00146027 3.43206787 -0.00221252 C7.15507822 0.00125555 10.87681905 0.04008293 14.59960938 0.0793457 C17.1889172 0.08867652 19.77823388 0.09579136 22.36755371 0.1007843 C28.47323832 0.11788838 34.57840333 0.15724621 40.68389273 0.20753175 C47.63914187 0.26356339 54.59441342 0.29094624 61.54983234 0.31600893 C75.84791645 0.36816705 90.14562184 0.45602257 104.44335938 0.56762695 C104.51777944 5.58468416 104.57208846 10.60141668 104.6081543 15.61889648 C104.62319675 17.32403158 104.64363591 19.02912828 104.66967773 20.73413086 C104.70626221 23.19174707 104.7231311 25.64884964 104.73632812 28.10668945 C104.75181198 28.8631778 104.76729584 29.61966614 104.7832489 30.39907837 C104.78496648 35.85892135 103.73023216 40.00023111 99.97851562 44.2121582 C95.63271825 47.65882508 92.65334446 48.69479698 87.20391846 48.68788147 C85.94616859 48.68994347 85.94616859 48.68994347 84.66300964 48.69204712 C83.75166763 48.68845184 82.84032562 48.68485657 81.90136719 48.68115234 C80.4520858 48.68137138 80.4520858 48.68137138 78.973526 48.68159485 C75.78115593 48.68089839 72.58884425 48.67311845 69.39648438 48.6652832 C67.18259717 48.66341808 64.96870955 48.66199462 62.75482178 48.66099548 C56.92855693 48.65717777 51.10231701 48.64735382 45.27606201 48.6362915 C39.33052915 48.62606137 33.38499225 48.62149442 27.43945312 48.61645508 C15.77407759 48.60573092 4.10872055 48.58866341 -7.55664062 48.56762695 C-7.55664062 43.28762695 -7.55664062 38.00762695 -7.55664062 32.56762695 C-9.86664063 32.23762695 -12.17664063 31.90762695 -14.55664062 31.56762695 C-18.1255594 29.51338591 -20.82628018 26.74255462 -22.99414062 23.25512695 C-24.12228579 17.86510004 -24.39693863 13.38827263 -22.05664062 8.31762695 C-15.50409683 1.10982878 -9.5219485 -0.1621047 0 0 Z " fill="#EF5555" transform="translate(247.556640625,351.432373046875)"/>
<path d="M0 0 C1.19463867 -0.00630432 2.38927734 -0.01260864 3.62011719 -0.019104 C4.91594727 -0.01505554 6.21177734 -0.01100708 7.546875 -0.00683594 C8.88444082 -0.00818272 10.22200617 -0.01012336 11.55957031 -0.01263428 C14.36397966 -0.01558494 17.16826169 -0.01128987 19.97265625 -0.00195312 C23.57092422 0.00944153 27.16889386 0.00288172 30.76715088 -0.00909805 C33.52948258 -0.0163183 36.29174333 -0.014028 39.05407715 -0.00884247 C41.02726433 -0.00685568 43.00045426 -0.01293935 44.97363281 -0.019104 C46.16827148 -0.01279968 47.36291016 -0.00649536 48.59375 0 C50.17687988 0.00238678 50.17687988 0.00238678 51.79199219 0.00482178 C54.296875 0.25878906 54.296875 0.25878906 56.296875 2.25878906 C56.49502684 4.68708967 56.56970767 7.00132925 56.55566406 9.43066406 C56.5591687 10.16901489 56.56267334 10.90736572 56.56628418 11.66809082 C56.57510549 14.11508514 56.56925104 16.56179167 56.5625 19.00878906 C56.56384654 20.70507869 56.56578697 22.40136795 56.56829834 24.09765625 C56.57125014 27.65531076 56.56695019 31.21286495 56.55761719 34.77050781 C56.54622259 39.33730047 56.55278177 43.90385806 56.56476212 48.47064209 C56.57197922 51.9741392 56.56969348 55.47758033 56.56450653 58.9810791 C56.56316962 60.66524279 56.5648192 62.34941152 56.56946564 64.03356934 C56.57452847 66.3848218 56.56682433 68.73569029 56.55566406 71.08691406 C56.55971252 71.78723755 56.56376099 72.48756104 56.56793213 73.20910645 C56.52540415 78.03025991 56.52540415 78.03025991 54.296875 80.25878906 C51.79199219 80.51275635 51.79199219 80.51275635 48.59375 80.51757812 C47.39911133 80.52388245 46.20447266 80.53018677 44.97363281 80.53668213 C43.67780273 80.53263367 42.38197266 80.52858521 41.046875 80.52441406 C39.70930918 80.52576085 38.37174383 80.52770149 37.03417969 80.5302124 C34.22977034 80.53316306 31.42548831 80.528868 28.62109375 80.51953125 C25.02282578 80.5081366 21.42485614 80.5146964 17.82659912 80.52667618 C15.06426742 80.53389642 12.30200667 80.53160613 9.53967285 80.52642059 C7.56648567 80.52443381 5.59329574 80.53051748 3.62011719 80.53668213 C2.42547852 80.53037781 1.23083984 80.52407349 0 80.51757812 C-1.05541992 80.51598694 -2.11083984 80.51439575 -3.19824219 80.51275635 C-5.703125 80.25878906 -5.703125 80.25878906 -7.703125 78.25878906 C-7.90127684 75.83048845 -7.97595767 73.51624887 -7.96191406 71.08691406 C-7.9654187 70.34856323 -7.96892334 69.6102124 -7.97253418 68.8494873 C-7.98135549 66.40249298 -7.97550104 63.95578646 -7.96875 61.50878906 C-7.97009654 59.81249943 -7.97203697 58.11621018 -7.97454834 56.41992188 C-7.97750014 52.86226736 -7.97320019 49.30471318 -7.96386719 45.74707031 C-7.95247259 41.18027766 -7.95903177 36.61372006 -7.97101212 32.04693604 C-7.97822922 28.54343892 -7.97594348 25.0399978 -7.97075653 21.53649902 C-7.96941962 19.85233533 -7.9710692 18.1681666 -7.97571564 16.48400879 C-7.98077847 14.13275632 -7.97307433 11.78188783 -7.96191406 9.43066406 C-7.96596252 8.73034058 -7.97001099 8.03001709 -7.97418213 7.30847168 C-7.91710543 0.83801272 -6.19639666 0.0093419 0 0 Z " fill="#738CA0" transform="translate(375.703125,127.7412109375)"/>
<path d="M0 0 C0.87430664 -0.00630432 1.74861328 -0.01260864 2.64941406 -0.019104 C4.06818848 -0.01303131 4.06818848 -0.01303131 5.515625 -0.00683594 C6.48467773 -0.00874939 7.45373047 -0.01066284 8.45214844 -0.01263428 C10.50325785 -0.01399673 12.55437586 -0.01029612 14.60546875 -0.00195312 C17.75280039 0.00874547 20.8995612 -0.00184647 24.046875 -0.01464844 C26.0364596 -0.01332685 28.02604384 -0.01076448 30.015625 -0.00683594 C30.96147461 -0.0108844 31.90732422 -0.01493286 32.88183594 -0.019104 C33.75614258 -0.01279968 34.63044922 -0.00649536 35.53125 0 C36.68802246 0.00238678 36.68802246 0.00238678 37.86816406 0.00482178 C39.765625 0.25878906 39.765625 0.25878906 41.765625 2.25878906 C41.96377684 4.68708967 42.03845767 7.00132925 42.02441406 9.43066406 C42.0279187 10.16901489 42.03142334 10.90736572 42.03503418 11.66809082 C42.04385549 14.11508514 42.03800104 16.56179167 42.03125 19.00878906 C42.03259654 20.70507869 42.03453697 22.40136795 42.03704834 24.09765625 C42.04000014 27.65531076 42.03570019 31.21286495 42.02636719 34.77050781 C42.01497259 39.33730047 42.02153177 43.90385806 42.03351212 48.47064209 C42.04072922 51.9741392 42.03844348 55.47758033 42.03325653 58.9810791 C42.03191962 60.66524279 42.0335692 62.34941152 42.03821564 64.03356934 C42.04327847 66.3848218 42.03557433 68.73569029 42.02441406 71.08691406 C42.02846252 71.78723755 42.03251099 72.48756104 42.03668213 73.20910645 C41.99415415 78.03025991 41.99415415 78.03025991 39.765625 80.25878906 C37.86816406 80.51275635 37.86816406 80.51275635 35.53125 80.51757812 C34.65694336 80.52388245 33.78263672 80.53018677 32.88183594 80.53668213 C31.46306152 80.53060944 31.46306152 80.53060944 30.015625 80.52441406 C29.04657227 80.52632751 28.07751953 80.52824097 27.07910156 80.5302124 C25.02799215 80.53157485 22.97687414 80.52787424 20.92578125 80.51953125 C17.77844961 80.50883266 14.6316888 80.5194246 11.484375 80.53222656 C9.4947904 80.53090498 7.50520616 80.52834261 5.515625 80.52441406 C4.56977539 80.52846252 3.62392578 80.53251099 2.64941406 80.53668213 C1.3379541 80.52722565 1.3379541 80.52722565 0 80.51757812 C-0.77118164 80.51598694 -1.54236328 80.51439575 -2.33691406 80.51275635 C-4.234375 80.25878906 -4.234375 80.25878906 -6.234375 78.25878906 C-6.43252684 75.83048845 -6.50720767 73.51624887 -6.49316406 71.08691406 C-6.4966687 70.34856323 -6.50017334 69.6102124 -6.50378418 68.8494873 C-6.51260549 66.40249298 -6.50675104 63.95578646 -6.5 61.50878906 C-6.50134654 59.81249943 -6.50328697 58.11621018 -6.50579834 56.41992188 C-6.50875014 52.86226736 -6.50445019 49.30471318 -6.49511719 45.74707031 C-6.48372259 41.18027766 -6.49028177 36.61372006 -6.50226212 32.04693604 C-6.50947922 28.54343892 -6.50719348 25.0399978 -6.50200653 21.53649902 C-6.50066962 19.85233533 -6.5023192 18.1681666 -6.50696564 16.48400879 C-6.51202847 14.13275632 -6.50432433 11.78188783 -6.49316406 9.43066406 C-6.49721252 8.73034058 -6.50126099 8.03001709 -6.50543213 7.30847168 C-6.45747204 1.87151064 -5.5385024 0.01142765 0 0 Z " fill="#A55527" transform="translate(166.234375,335.7412109375)"/>
<path d="M0 0 C0.87430664 -0.00630432 1.74861328 -0.01260864 2.64941406 -0.019104 C4.06818848 -0.01303131 4.06818848 -0.01303131 5.515625 -0.00683594 C6.48467773 -0.00874939 7.45373047 -0.01066284 8.45214844 -0.01263428 C10.50325785 -0.01399673 12.55437586 -0.01029612 14.60546875 -0.00195312 C17.75280039 0.00874547 20.8995612 -0.00184647 24.046875 -0.01464844 C26.0364596 -0.01332685 28.02604384 -0.01076448 30.015625 -0.00683594 C30.96147461 -0.0108844 31.90732422 -0.01493286 32.88183594 -0.019104 C33.75614258 -0.01279968 34.63044922 -0.00649536 35.53125 0 C36.68802246 0.00238678 36.68802246 0.00238678 37.86816406 0.00482178 C39.765625 0.25878906 39.765625 0.25878906 41.765625 2.25878906 C41.96377684 4.68708967 42.03845767 7.00132925 42.02441406 9.43066406 C42.0279187 10.16901489 42.03142334 10.90736572 42.03503418 11.66809082 C42.04385549 14.11508514 42.03800104 16.56179167 42.03125 19.00878906 C42.03259654 20.70507869 42.03453697 22.40136795 42.03704834 24.09765625 C42.04000014 27.65531076 42.03570019 31.21286495 42.02636719 34.77050781 C42.01497259 39.33730047 42.02153177 43.90385806 42.03351212 48.47064209 C42.04072922 51.9741392 42.03844348 55.47758033 42.03325653 58.9810791 C42.03191962 60.66524279 42.0335692 62.34941152 42.03821564 64.03356934 C42.04327847 66.3848218 42.03557433 68.73569029 42.02441406 71.08691406 C42.02846252 71.78723755 42.03251099 72.48756104 42.03668213 73.20910645 C41.99415415 78.03025991 41.99415415 78.03025991 39.765625 80.25878906 C37.86816406 80.51275635 37.86816406 80.51275635 35.53125 80.51757812 C34.65694336 80.52388245 33.78263672 80.53018677 32.88183594 80.53668213 C31.46306152 80.53060944 31.46306152 80.53060944 30.015625 80.52441406 C29.04657227 80.52632751 28.07751953 80.52824097 27.07910156 80.5302124 C25.02799215 80.53157485 22.97687414 80.52787424 20.92578125 80.51953125 C17.77844961 80.50883266 14.6316888 80.5194246 11.484375 80.53222656 C9.4947904 80.53090498 7.50520616 80.52834261 5.515625 80.52441406 C4.56977539 80.52846252 3.62392578 80.53251099 2.64941406 80.53668213 C1.3379541 80.52722565 1.3379541 80.52722565 0 80.51757812 C-0.77118164 80.51598694 -1.54236328 80.51439575 -2.33691406 80.51275635 C-4.234375 80.25878906 -4.234375 80.25878906 -6.234375 78.25878906 C-6.43252684 75.83048845 -6.50720767 73.51624887 -6.49316406 71.08691406 C-6.4966687 70.34856323 -6.50017334 69.6102124 -6.50378418 68.8494873 C-6.51260549 66.40249298 -6.50675104 63.95578646 -6.5 61.50878906 C-6.50134654 59.81249943 -6.50328697 58.11621018 -6.50579834 56.41992188 C-6.50875014 52.86226736 -6.50445019 49.30471318 -6.49511719 45.74707031 C-6.48372259 41.18027766 -6.49028177 36.61372006 -6.50226212 32.04693604 C-6.50947922 28.54343892 -6.50719348 25.0399978 -6.50200653 21.53649902 C-6.50066962 19.85233533 -6.5023192 18.1681666 -6.50696564 16.48400879 C-6.51202847 14.13275632 -6.50432433 11.78188783 -6.49316406 9.43066406 C-6.49721252 8.73034058 -6.50126099 8.03001709 -6.50543213 7.30847168 C-6.45747204 1.87151064 -5.5385024 0.01142765 0 0 Z " fill="#A55527" transform="translate(102.234375,335.7412109375)"/>
<path d="M0 0 C0.87241333 0.00060425 1.74482666 0.0012085 2.64367676 0.00183105 C3.99797791 0.04020081 3.99797791 0.04020081 5.37963867 0.0793457 C6.21990601 0.0843811 7.06017334 0.0894165 7.92590332 0.09460449 C11.05015418 0.12066927 14.17391679 0.19047678 17.29760742 0.25512695 C24.28948242 0.35825195 31.28135742 0.46137695 38.48510742 0.56762695 C38.48510742 26.96762695 38.48510742 53.36762695 38.48510742 80.56762695 C31.47260742 80.62950195 24.46010742 80.69137695 17.23510742 80.75512695 C15.02662109 80.78243896 12.81813477 80.80975098 10.54272461 80.83789062 C8.78914944 80.84665376 7.03556818 80.85429811 5.28198242 80.8605957 C3.92000732 80.88361755 3.92000732 80.88361755 2.53051758 80.90710449 C-3.85937376 80.90975957 -3.85937376 80.90975957 -7.06469727 79.23681641 C-10.00682684 75.85039555 -9.662044 72.25284055 -9.70776367 67.97241211 C-9.71594116 67.30700912 -9.72411865 66.64160614 -9.73254395 65.95603943 C-9.75733611 63.75626516 -9.77389635 61.55655507 -9.78833008 59.35668945 C-9.79365376 58.60443462 -9.79897743 57.85217979 -9.80446243 57.07712936 C-9.83116487 53.09675873 -9.85055055 49.11641917 -9.86499023 45.13598633 C-9.87833938 41.84371212 -9.90621268 38.55205629 -9.94702148 35.26000977 C-9.99633222 31.28183553 -10.02110866 27.30422288 -10.02821732 23.32575607 C-10.03492918 21.81147504 -10.05014986 20.2972065 -10.07410812 18.78310013 C-10.10576198 16.66194669 -10.10579825 14.54295886 -10.09838867 12.42163086 C-10.10647552 11.21600494 -10.11456238 10.01037903 -10.12289429 8.76821899 C-9.07987256 3.27763076 -5.67579086 -0.08371373 0 0 Z " fill="#F9A51F" transform="translate(217.514892578125,127.432373046875)"/>
<path d="M0 0 C1.29774353 -0.00285004 2.59548706 -0.00570007 3.93255615 -0.00863647 C5.33948849 0.01357863 6.74640994 0.03649342 8.15332031 0.06005859 C9.60108642 0.06685125 11.04886361 0.0715715 12.49664307 0.0743103 C15.5229933 0.08496707 18.54860077 0.11161412 21.57470703 0.15136719 C25.46102664 0.20241565 29.34692111 0.22740975 33.23353195 0.24230385 C36.93602071 0.25705939 40.63840888 0.28229579 44.34082031 0.31005859 C45.40506351 0.31742476 45.40506351 0.31742476 46.49080658 0.32493973 C48.4874149 0.34114817 50.48395059 0.36567048 52.48046875 0.390625 C53.61788513 0.40348541 54.75530151 0.41634583 55.92718506 0.42959595 C58.48144531 0.58349609 58.48144531 0.58349609 59.48144531 1.58349609 C59.90518188 4.23623657 59.90518188 4.23623657 59.48144531 7.58349609 C57.62516642 10.0317035 55.87541843 12.01071222 53.70166016 14.13964844 C53.0870694 14.76475311 52.47247864 15.38985779 51.83926392 16.03390503 C49.80513419 18.09442572 47.74985652 20.13224128 45.69238281 22.16943359 C44.27098096 23.59487722 42.85047079 25.02121052 41.43081665 26.44839478 C38.45263578 29.43542105 35.46387345 32.41132666 32.46728516 35.37988281 C28.62661544 39.18636803 24.8135112 43.01915531 21.00792503 46.86067772 C18.07965463 49.81062715 15.13724583 52.74613856 12.19035721 55.67747879 C10.7785445 57.08528837 9.37117709 58.49757044 7.96836472 59.9143486 C6.00559424 61.89235449 4.02461988 63.85010933 2.03759766 65.80371094 C1.46072205 66.39273193 0.88384644 66.98175293 0.28948975 67.58862305 C-2.44263041 70.23619951 -4.03727775 71.52257024 -7.86581421 72.00723267 C-10.51855469 71.58349609 -10.51855469 71.58349609 -11.51855469 70.58349609 C-11.63892291 68.58576064 -11.68879849 66.58375001 -11.71142578 64.58251953 C-11.72748871 63.29738464 -11.74355164 62.01224976 -11.76010132 60.68817139 C-11.77158903 59.27307799 -11.78219753 57.85797722 -11.79199219 56.44287109 C-11.79731586 55.73291237 -11.80263954 55.02295364 -11.80812454 54.29148102 C-11.83487851 50.53157123 -11.85424353 46.77169486 -11.86865234 43.01171875 C-11.88527937 39.12981562 -11.9300326 35.248765 -11.98102379 31.36718369 C-12.01471056 28.38170415 -12.02623139 25.39642621 -12.03187943 22.41077423 C-12.03859132 20.98022215 -12.05381217 19.5496833 -12.07777023 18.1193161 C-12.1094369 16.11379465 -12.10645574 14.10781738 -12.10205078 12.10205078 C-12.11013763 10.96145203 -12.11822449 9.82085327 -12.1265564 8.64569092 C-10.77681737 1.84774315 -6.46335776 -0.04582525 0 0 Z " fill="#545454" transform="translate(67.5185546875,215.41650390625)"/>
<path d="M0 0 C1.23744713 -0.00350464 1.23744713 -0.00350464 2.49989319 -0.00708008 C5.21851529 -0.00869108 7.93542807 0.02529808 10.65380859 0.06005859 C12.54519031 0.06684973 14.43658049 0.07157089 16.32797241 0.0743103 C21.30179508 0.08771372 26.27490262 0.1320044 31.24847412 0.18188477 C35.31297824 0.21730386 39.37741039 0.23036693 43.4420414 0.24230385 C48.2835089 0.25708398 53.12490006 0.28230798 57.96630859 0.31005859 C58.89193226 0.31496937 59.81755592 0.31988014 60.77122879 0.32493973 C63.38533097 0.34119885 65.99926016 0.36460288 68.61328125 0.390625 C69.77753883 0.39701492 69.77753883 0.39701492 70.96531677 0.40353394 C74.12866681 0.44173956 76.65425685 0.57583301 79.67724609 1.58349609 C78.61138845 7.76790558 75.15082789 12.79943063 70.12658691 16.43463135 C60.90653813 20.75930063 47.80166827 18.73322628 37.77581787 18.34918213 C34.05894263 18.21848802 30.34099236 18.15150104 26.62255859 18.08154297 C22.45203377 18.0019888 18.28277314 17.9166979 14.11373901 17.77799988 C12.88801178 17.73919205 11.66228455 17.70038422 10.39941406 17.66040039 C9.31562469 17.62198532 8.23183533 17.58357025 7.11520386 17.54399109 C4.72892857 17.29996115 4.72892857 17.29996115 3.67724609 18.58349609 C3.61108629 20.84654983 3.6155611 23.11167886 3.64648438 25.37548828 C3.66259964 26.84974749 3.67829598 28.32401131 3.69363403 29.79827881 C3.70317234 30.58476555 3.71271065 31.37125229 3.72253799 32.18157196 C3.77412375 37.23033804 3.76833127 42.27943894 3.77389717 47.32842636 C3.78207601 51.75779758 3.80946034 56.18540026 3.87939453 60.61425781 C3.94597525 64.90209339 3.95772552 69.1871288 3.93413925 73.47537994 C3.93474468 75.10033824 3.95451622 76.72542007 3.99490738 78.3498764 C4.2382224 88.67449313 2.92654164 94.90504221 -4.12219048 102.68429184 C-6.62156489 105.239615 -8.98631435 107.25575143 -12.32275391 108.58349609 C-13.45635491 106.31629409 -13.45760411 105.06004565 -13.47665405 102.5422821 C-13.48525452 101.69692902 -13.49385498 100.85157593 -13.50271606 99.98060608 C-13.50697601 99.05122726 -13.51123596 98.12184845 -13.515625 97.16430664 C-13.52380249 96.18693542 -13.53197998 95.20956421 -13.54040527 94.20257568 C-13.56527923 90.9584617 -13.58177975 87.71439149 -13.59619141 84.47021484 C-13.60151508 83.36400095 -13.60683876 82.25778706 -13.61232376 81.11805153 C-13.63906304 75.26384803 -13.65843616 69.40966593 -13.67285156 63.55541992 C-13.68950835 57.50230453 -13.73429304 51.44973264 -13.78522301 45.39682293 C-13.81884299 40.74800475 -13.83042324 36.09931644 -13.83607864 31.45038795 C-13.84280478 29.2188177 -13.85806194 26.98725639 -13.88196945 24.75580406 C-13.91351265 21.63370551 -13.91367379 18.51308455 -13.90625 15.39086914 C-13.92265533 14.46756302 -13.93906067 13.5442569 -13.95596313 12.5929718 C-13.91436987 8.32382085 -13.692865 6.14821661 -11.30645752 2.50700378 C-7.4948067 0.0497424 -4.39246085 -0.0933268 0 0 Z " fill="#784119" transform="translate(365.32275390625,111.41650390625)"/>
<path d="M0 0 C5.28 0 10.56 0 16 0 C16 47.52 16 95.04 16 144 C10.72 144 5.44 144 0 144 C0 96.48 0 48.96 0 0 Z " fill="#784119" transform="translate(248,208)"/>
<path d="M0 0 C0.07442006 5.01705721 0.12872908 10.03378972 0.16479492 15.05126953 C0.17983738 16.75640463 0.20027653 18.46150132 0.22631836 20.16650391 C0.26290284 22.62412012 0.27977173 25.08122269 0.29296875 27.5390625 C0.30845261 28.29555084 0.32393646 29.05203918 0.33988953 29.83145142 C0.34160711 35.2912944 -0.71312722 39.43260416 -4.46484375 43.64453125 C-8.81064112 47.09119813 -11.79001492 48.12717003 -17.23944092 48.12025452 C-18.49719078 48.12231651 -18.49719078 48.12231651 -19.78034973 48.12442017 C-20.69169174 48.12082489 -21.60303375 48.11722961 -22.54199219 48.11352539 C-23.99127357 48.11374443 -23.99127357 48.11374443 -25.46983337 48.1139679 C-28.66220345 48.11327144 -31.85451512 48.1054915 -35.046875 48.09765625 C-37.26076221 48.09579112 -39.47464983 48.09436767 -41.6885376 48.09336853 C-47.51480245 48.08955082 -53.34104236 48.07972687 -59.16729736 48.06866455 C-65.11283023 48.05843441 -71.05836712 48.05386747 -77.00390625 48.04882812 C-88.66928179 48.03810396 -100.33463882 48.02103646 -112 48 C-112 42.72 -112 37.44 -112 32 C-77.35 31.67 -42.7 31.34 -7 31 C-9.31 29.02 -11.62 27.04 -14 25 C-16.32625903 21.05547382 -16.3899796 17.52376337 -16 13 C-14.18126531 7.13963267 -11.9082092 4.40569618 -7 1 C-4.40353907 0.03560023 -2.80855798 0 0 0 Z " fill="#E13741" transform="translate(352,352)"/>
<path d="M0 0 C1.19463867 -0.00630432 2.38927734 -0.01260864 3.62011719 -0.019104 C4.91594727 -0.01505554 6.21177734 -0.01100708 7.546875 -0.00683594 C8.88444082 -0.00818272 10.22200617 -0.01012336 11.55957031 -0.01263428 C14.36397966 -0.01558494 17.16826169 -0.01128987 19.97265625 -0.00195312 C23.57092422 0.00944153 27.16889386 0.00288172 30.76715088 -0.00909805 C33.52948258 -0.0163183 36.29174333 -0.014028 39.05407715 -0.00884247 C41.02726433 -0.00685568 43.00045426 -0.01293935 44.97363281 -0.019104 C46.16827148 -0.01279968 47.36291016 -0.00649536 48.59375 0 C50.17687988 0.00238678 50.17687988 0.00238678 51.79199219 0.00482178 C54.296875 0.25878906 54.296875 0.25878906 56.296875 2.25878906 C56.53738403 4.32156372 56.53738403 4.32156372 56.52392578 6.89208984 C56.52377472 7.85293488 56.52362366 8.81377991 56.52346802 9.80374146 C56.51314545 10.84336029 56.50282288 11.88297913 56.4921875 12.95410156 C56.4893576 14.01668182 56.48652771 15.07926208 56.48361206 16.17404175 C56.47239139 19.57740405 56.44728337 22.98050592 56.421875 26.38378906 C56.41184764 28.68717069 56.40272137 30.99055642 56.39453125 33.29394531 C56.37244593 38.94898252 56.33894989 44.60386719 56.296875 50.25878906 C55.636875 49.26878906 54.976875 48.27878906 54.296875 47.25878906 C49.84130246 40.89555204 45.89042595 35.86229225 38.296875 33.25878906 C38.461875 32.57816406 38.626875 31.89753906 38.796875 31.19628906 C39.89694386 24.73338452 39.47699817 20.07073831 36.296875 14.25878906 C33.34346474 10.8578924 30.75961149 9.94660768 26.421875 9.32128906 C21.46151595 9.01864811 18.55890193 9.7015729 14.296875 12.25878906 C10.29120393 16.36987253 9.37561815 19.09335234 9.171875 24.69628906 C9.27743512 27.70475252 9.59036818 30.34444843 10.296875 33.25878906 C9.12125 33.75378906 7.945625 34.24878906 6.734375 34.75878906 C0.82712743 37.70716662 -3.30102481 42.33266693 -6.140625 48.25878906 C-6.32625 48.91878906 -6.511875 49.57878906 -6.703125 50.25878906 C-7.033125 50.25878906 -7.363125 50.25878906 -7.703125 50.25878906 C-7.7537144 43.45950487 -7.78881167 36.66026896 -7.81298828 29.86083984 C-7.82306392 27.54636827 -7.83672475 25.23190947 -7.85400391 22.91748047 C-7.87818365 19.59632213 -7.8895923 16.27533166 -7.8984375 12.95410156 C-7.90876007 11.91448273 -7.91908264 10.87486389 -7.92971802 9.80374146 C-7.92986908 8.84289642 -7.93002014 7.88205139 -7.93017578 6.89208984 C-7.934617 6.04381622 -7.93905823 5.1955426 -7.94363403 4.32156372 C-7.38282713 -0.48831079 -3.99032579 0.00601595 0 0 Z " fill="#A9C2D6" transform="translate(375.703125,127.7412109375)"/>
<path d="M0 0 C31.68 0 63.36 0 96 0 C96 5.28 96 10.56 96 16 C64.32 16 32.64 16 0 16 C0 10.72 0 5.44 0 0 Z " fill="#AAC3D7" transform="translate(72,432)"/>
<path d="M0 0 C6.27 0 12.54 0 19 0 C19 26.4 19 52.8 19 80 C12.73 80 6.46 80 0 80 C0 53.6 0 27.2 0 0 Z " fill="#FAA51E" transform="translate(237,128)"/>
<path d="M0 0 C0.66 0.99 1.32 1.98 2 3 C4.91091794 7.23406246 6.72390322 9.17939501 11.68359375 10.6875 C12.89680298 11.06455078 12.89680298 11.06455078 14.13452148 11.44921875 C14.75012939 11.63097656 15.3657373 11.81273437 16 12 C16.01213028 13.07661896 16.01213028 13.07661896 16.02450562 14.17498779 C16.10248791 20.94331511 16.18978964 27.71146517 16.28752708 34.47953415 C16.33744564 37.95897189 16.38377582 41.43837993 16.421875 44.91796875 C16.46584663 48.91946447 16.52547971 52.92059416 16.5859375 56.921875 C16.59748871 58.16990906 16.60903992 59.41794312 16.62094116 60.70379639 C16.64081085 61.86469788 16.66068054 63.02559937 16.68115234 64.22167969 C16.69447601 65.24316101 16.70779968 66.26464233 16.7215271 67.31707764 C17.12509359 71.2052031 18.25769023 73.25769023 21 76 C11.43 76 1.86 76 -8 76 C-8 70.72 -8 65.44 -8 60 C-6.02 59.01 -4.04 58.02 -2 57 C-0.99314613 53.97943839 -0.84627314 51.86445386 -0.79467773 48.70239258 C-0.77473251 47.62149857 -0.75478729 46.54060455 -0.73423767 45.42695618 C-0.70916893 43.67840584 -0.70916893 43.67840584 -0.68359375 41.89453125 C-0.66281265 40.70018967 -0.64203156 39.50584808 -0.62062073 38.27531433 C-0.55515724 34.45443557 -0.4962549 30.63348724 -0.4375 26.8125 C-0.39431176 24.22460214 -0.35069737 21.63671135 -0.30664062 19.04882812 C-0.19947908 12.69929261 -0.0977066 6.34968766 0 0 Z " fill="#AAC2D6" transform="translate(224,372)"/>
<path d="M0 0 C2.64 0 5.28 0 8 0 C8 47.52 8 95.04 8 144 C5.36 144 2.72 144 0 144 C0 96.48 0 48.96 0 0 Z " fill="#A55528" transform="translate(248,208)"/>
<path d="M0 0 C3.3 0 6.6 0 10 0 C10 26.4 10 52.8 10 80 C6.7 80 3.4 80 0 80 C0 53.6 0 27.2 0 0 Z " fill="#FFC33C" transform="translate(227,128)"/>
<path d="M0 0 C-0.97398743 0.97815674 -0.97398743 0.97815674 -1.96765137 1.97607422 C-4.5444083 5.81002357 -4.56398405 8.92195628 -4.51757812 13.3828125 C-4.5245874 14.21431824 -4.53159668 15.04582397 -4.53881836 15.90252686 C-4.55638468 18.64369367 -4.54478071 21.38382318 -4.53125 24.125 C-4.53394531 26.03401894 -4.53782806 27.94303654 -4.54284668 29.85205078 C-4.54873987 33.85006805 -4.54018451 37.84772749 -4.52148438 41.84570312 C-4.49869495 46.96721886 -4.51181899 52.08789612 -4.53577423 57.2093811 C-4.55023702 61.15053613 -4.545624 65.09149277 -4.53526306 69.03265381 C-4.53259711 70.9208791 -4.53586092 72.80912248 -4.54518127 74.69732666 C-4.55535482 77.3377647 -4.53983517 79.97685006 -4.51757812 82.6171875 C-4.52972351 83.78468536 -4.52972351 83.78468536 -4.54211426 84.97576904 C-4.46476308 89.9357755 -3.50362777 92.48137438 0 96 C-7.32026144 96.36601307 -7.32026144 96.36601307 -10.4375 94.6875 C-13.78771209 91.06927094 -13.16745876 86.56621562 -13.19287109 81.93603516 C-13.20104858 81.11457504 -13.20922607 80.29311493 -13.21765137 79.44676208 C-13.24247058 76.72753628 -13.25901061 74.00836248 -13.2734375 71.2890625 C-13.27876118 70.36028667 -13.28408485 69.43151085 -13.28956985 68.4745903 C-13.31628367 63.56054256 -13.33566604 58.64652009 -13.35009766 53.73242188 C-13.36345037 49.66415998 -13.39132981 45.59639807 -13.43212891 41.52832031 C-13.48138996 36.61648799 -13.50621031 31.70511005 -13.51332474 26.79304123 C-13.52004459 24.92151302 -13.53528571 23.04999523 -13.55921555 21.17860794 C-13.59080209 18.55945052 -13.59091434 15.94205144 -13.58349609 13.32275391 C-13.59990143 12.55063065 -13.61630676 11.77850739 -13.63320923 10.98298645 C-13.58651685 6.95424266 -13.15660981 5.19536591 -10.60342407 2.01034546 C-6.74387105 -0.96997379 -4.72557592 -0.40047254 0 0 Z " fill="#555555" transform="translate(53,208)"/>
<path d="M0 0 C10.56 0 21.12 0 32 0 C32 5.28 32 10.56 32 16 C21.44 16 10.88 16 0 16 C0 10.72 0 5.44 0 0 Z " fill="#AAC3D7" transform="translate(176,432)"/>
<path d="M0 0 C10.56 0 21.12 0 32 0 C32 5.28 32 10.56 32 16 C21.44 16 10.88 16 0 16 C0 10.72 0 5.44 0 0 Z " fill="#AAC3D7" transform="translate(32,432)"/>
<path d="M0 0 C0.88449326 -0.00945648 1.76898651 -0.01891296 2.68028259 -0.02865601 C3.62827225 -0.02258331 4.5762619 -0.01651062 5.55297852 -0.01025391 C7.02493431 -0.01455917 7.02493431 -0.01455917 8.52662659 -0.01895142 C10.60027646 -0.02099128 12.67394561 -0.01546684 14.74755859 -0.00292969 C17.91686205 0.01310758 21.08488689 -0.00277246 24.25415039 -0.02197266 C26.27042924 -0.01998987 28.2867073 -0.01614548 30.30297852 -0.01025391 C31.24894394 -0.0163266 32.19490936 -0.02239929 33.16954041 -0.02865601 C41.91423562 0.06450513 41.91423562 0.06450513 45.49438477 3.38818359 C45.98938477 5.86318359 45.98938477 5.86318359 46.49438477 8.38818359 C28.01438477 8.38818359 9.53438477 8.38818359 -9.50561523 8.38818359 C-8.50561523 3.38818359 -8.50561523 3.38818359 -6.72471619 1.59994507 C-4.24704943 0.24699125 -2.80446323 0.00863186 0 0 Z " fill="#555656" transform="translate(97.505615234375,311.61181640625)"/>
<path d="M0 0 C4.52451299 1.44399351 4.52451299 1.44399351 5.9375 3.9375 C5.86982476 7.72731363 5.72250575 10.04035057 3.1875 12.9375 C0.27055134 14.23392163 -1.08042673 14.00798784 -4.0625 12.9375 C-5.875 11.75 -5.875 11.75 -7.0625 9.9375 C-7.60650387 6.28490261 -7.50024093 4.5941114 -5.4375 1.5 C-3.0625 -0.0625 -3.0625 -0.0625 0 0 Z " fill="#F5A11E" transform="translate(130.0625,369.0625)"/>
<path d="M0 0 C0.763125 0.639375 1.52625 1.27875 2.3125 1.9375 C4.88246713 4.14232781 4.88246713 4.14232781 8 5 C8 10.28 8 15.56 8 21 C6.02 21 4.04 21 2 21 C0 19 0 19 -0.22705078 17.02880859 C-0.21657715 16.24328613 -0.20610352 15.45776367 -0.1953125 14.6484375 C-0.18886719 13.79765625 -0.18242187 12.946875 -0.17578125 12.0703125 C-0.15902344 11.18085938 -0.14226563 10.29140625 -0.125 9.375 C-0.11597656 8.4778125 -0.10695313 7.580625 -0.09765625 6.65625 C-0.0740497 4.43723414 -0.0411231 2.21874923 0 0 Z " fill="#A9C2D6" transform="translate(16,427)"/>
<path d="M0 0 C1.9375 1.125 1.9375 1.125 3 3 C3.38976435 6.11811483 3.50422245 8.11019567 1.9375 10.875 C-1.14071911 12.66235303 -3.52906068 12.43386742 -7 12 C-9.42061048 9.89172636 -9.9127007 8.59654522 -10.375 5.4375 C-10 3 -10 3 -8.9375 1.1875 C-5.90624457 -0.67036623 -3.46577141 -0.37133265 0 0 Z " fill="#F8A31E" transform="translate(178,370)"/>
<path d="M0 0 C2.64 0 5.28 0 8 0 C8 5.28 8 10.56 8 16 C5.36 16 2.72 16 0 16 C0 10.72 0 5.44 0 0 Z " fill="#3C3C3C" transform="translate(208,432)"/>
<path d="M0 0 C2.64 0 5.28 0 8 0 C8 5.28 8 10.56 8 16 C5.36 16 2.72 16 0 16 C0 10.72 0 5.44 0 0 Z " fill="#3C3C3C" transform="translate(168,432)"/>
<path d="M0 0 C2.64 0 5.28 0 8 0 C8 5.28 8 10.56 8 16 C5.36 16 2.72 16 0 16 C0 10.72 0 5.44 0 0 Z " fill="#555555" transform="translate(64,432)"/>
<path d="M0 0 C2.64 0 5.28 0 8 0 C8 5.28 8 10.56 8 16 C5.36 16 2.72 16 0 16 C0 10.72 0 5.44 0 0 Z " fill="#555555" transform="translate(24,432)"/>
<path d="M0 0 C0.66 0.66 1.32 1.32 2 2 C-0.31 4.31 -2.62 6.62 -5 9 C-5 4.61031544 -2.87194899 3.23094261 0 0 Z " fill="#A0613A" transform="translate(367,205)"/>
</svg>
