<?xml version="1.0" encoding="UTF-8"?>
<svg version="1.1" xmlns="http://www.w3.org/2000/svg" width="512" height="512">
<path d="M0 0 C1.25454483 -0.0071553 2.50908966 -0.01431061 3.801651 -0.02168274 C5.18440222 -0.02452264 6.5671537 -0.02723442 7.9499054 -0.02983093 C9.41223307 -0.03610038 10.87455917 -0.04274761 12.33688354 -0.04974365 C17.13146365 -0.07072978 21.92604386 -0.08114116 26.72065735 -0.09111023 C28.3750186 -0.09515987 30.02937969 -0.09927685 31.68374062 -0.10346031 C39.45784881 -0.12250028 47.23194759 -0.13673362 55.00607461 -0.14507228 C63.96276631 -0.15483956 72.91921055 -0.18115069 81.87581509 -0.22157317 C88.81019948 -0.251789 95.74451314 -0.26654634 102.67896205 -0.26985329 C106.81527857 -0.27219758 110.95133036 -0.28107664 115.08757591 -0.30631447 C118.982383 -0.32969623 122.87675292 -0.33378827 126.77161217 -0.32355309 C128.19454406 -0.32306005 129.61749823 -0.32931134 131.04036331 -0.34310913 C141.08898046 -0.43503633 148.6379357 0.75712194 157.0839386 6.33467102 C163.21388641 12.74973268 165.90503723 19.41550699 165.86909485 28.22138977 C165.86697243 29.2471386 165.86697243 29.2471386 165.86480713 30.29360962 C165.85921736 32.47400824 165.84666682 34.65430353 165.8339386 36.83467102 C165.82892227 38.31448724 165.8243596 39.79430508 165.82026672 41.27412415 C165.80925131 44.89850659 165.79199372 48.52282872 165.7714386 52.14717102 C166.61851379 52.12622375 167.46558899 52.10527649 168.33833313 52.08369446 C171.50284253 52.01523047 174.6669725 51.96523115 177.83198547 51.92744446 C179.19767228 51.90741783 180.56327429 51.8801877 181.92866516 51.84541321 C183.89930961 51.7965067 185.87059842 51.77625755 187.8417511 51.75654602 C189.02527161 51.73559875 190.20879211 51.71465149 191.42817688 51.69306946 C196.59945545 52.39546307 199.65115982 54.90578102 203.0839386 58.70967102 C206.07921103 63.03617564 205.91983186 66.9819233 205.91860962 72.046875 C205.92228631 72.86050422 205.925963 73.67413344 205.9297511 74.51241809 C205.94079498 77.24834142 205.94463298 79.98422678 205.94844055 82.72016907 C205.95470469 84.67805095 205.96135145 86.63593165 205.96835327 88.59381104 C205.98576798 93.92044281 205.99631644 99.2470656 206.0045588 104.57371879 C206.00970823 107.90137942 206.015784 111.22903727 206.02206993 114.55669594 C206.04112379 124.9673835 206.05535422 135.37806396 206.0636819 145.78876561 C206.07345441 157.80745641 206.09977359 169.82596304 206.14018279 181.84458894 C206.17034108 191.1330219 206.18515053 200.42140206 206.18846291 209.70988303 C206.1908138 215.25795235 206.19977945 220.80582497 206.22492409 226.35384178 C206.24820452 231.57495745 206.25243804 236.7957469 206.2421627 242.01690102 C206.24166722 243.93088491 206.24799128 245.84488485 206.26171875 247.75881958 C206.27944402 250.37711881 206.27232867 252.9942481 206.25918579 255.61254883 C206.27015504 256.3653894 206.28112428 257.11822996 206.29242593 257.89388388 C206.22633661 263.36807859 204.78311081 267.55941471 201.7714386 272.14717102 C197.09386337 276.59657184 193.63049488 277.27128313 187.30763245 277.30107117 C186.64847265 277.30545342 185.98931285 277.30983567 185.31017852 277.31435072 C183.09706699 277.32772631 180.88399528 277.33391477 178.67085266 277.34004211 C177.08572714 277.34794405 175.50060341 277.35621305 173.91548157 277.36482239 C168.70602636 277.39103143 163.49656316 277.40634866 158.2870636 277.42060852 C156.49333949 277.42596861 154.69961543 277.43134612 152.90589142 277.43674088 C145.44433412 277.45836774 137.98277898 277.47710435 130.52119827 277.48836327 C119.82967298 277.50460236 109.1385111 277.53778129 98.44712281 277.59476411 C90.92854375 277.63346973 83.41006187 277.65299667 75.89138579 277.65828383 C71.40128956 277.66193638 66.91158104 277.67394717 62.42159271 277.70638657 C58.19599791 277.73647839 53.97102519 277.74277528 49.74534607 277.73100281 C48.19698008 277.73078217 46.64858514 277.73907966 45.10031891 277.75665665 C31.95549809 277.89772782 31.95549809 277.89772782 27.41525269 274.79237366 C23.72051514 271.09569561 21.99357504 268.20802397 21.43086243 262.98750305 C21.4544281 261.33790588 21.4544281 261.33790588 21.47846985 259.65498352 C21.4929718 257.85674133 21.4929718 257.85674133 21.50776672 256.02217102 C21.53290344 254.78467102 21.55804016 253.54717102 21.5839386 252.27217102 C21.59747375 251.0114679 21.61100891 249.75076477 21.62495422 248.45185852 C21.66020425 245.34985648 21.70948356 242.24873568 21.7714386 239.14717102 C20.62312561 239.17073669 20.62312561 239.17073669 19.45161438 239.19477844 C15.93329968 239.25770981 12.41510398 239.29634531 8.8964386 239.33467102 C7.69245422 239.35980774 6.48846985 239.38494446 5.2480011 239.4108429 C-4.43875152 239.48981099 -13.16831986 238.89001668 -20.6035614 232.08467102 C-21.79078796 231.04633118 -21.79078796 231.04633118 -23.0019989 229.98701477 C-30.4998775 220.42393101 -29.80142614 209.81762807 -29.74613953 198.2702179 C-29.75156647 196.3638048 -29.75869233 194.4573959 -29.76737976 192.55099487 C-29.78554794 187.39601586 -29.77857248 182.24135861 -29.76586342 177.08637428 C-29.75570199 171.67918181 -29.76513781 166.272016 -29.77140808 160.86482239 C-29.77867534 151.78619974 -29.76912096 142.70770745 -29.75004578 133.62910461 C-29.72827887 123.14870172 -29.73533089 112.66861014 -29.7573514 102.18821478 C-29.77553165 93.17304247 -29.77805088 84.15796361 -29.76759672 75.14277887 C-29.76137624 69.76580869 -29.76048636 64.3889846 -29.77374268 59.01202393 C-29.78533876 53.95573364 -29.77720687 48.89984285 -29.75416565 43.8435955 C-29.74889861 41.99335326 -29.7503578 40.14307712 -29.75921631 38.29284859 C-29.84556272 18.41844205 -29.84556272 18.41844205 -23.2988739 9.52607727 C-16.0063161 2.71676125 -10.0096416 0.03929617 0 0 Z M-13.2285614 18.14717102 C-16.13031817 22.77409828 -16.66073074 26.73777744 -16.61624146 32.079422 C-16.62162699 32.86027365 -16.62701253 33.64112531 -16.63256127 34.44563913 C-16.64682756 37.05269197 -16.63974055 39.65923611 -16.63261414 42.26631165 C-16.63831835 44.13921516 -16.64528281 46.0121152 -16.65341187 47.88500977 C-16.67135132 52.96552397 -16.67017356 58.04586554 -16.66446948 63.1264019 C-16.66137921 67.36860539 -16.66746819 71.61077565 -16.67350823 75.85297441 C-16.68755402 85.860085 -16.68599129 95.86711022 -16.67460632 105.8742218 C-16.66312083 116.19783422 -16.67720796 126.52118698 -16.7040028 136.84476519 C-16.72615172 145.71031795 -16.73279912 154.57578916 -16.72692639 163.44136763 C-16.72355419 168.73556201 -16.72598957 174.02958987 -16.74317741 179.32376099 C-16.75863187 184.30117731 -16.7547076 189.27820848 -16.73587227 194.25560951 C-16.73218245 196.08173358 -16.73530629 197.9078861 -16.74575806 199.73398399 C-16.75894285 202.2280743 -16.74744367 204.72088477 -16.72976685 207.21492004 C-16.73937185 207.9365214 -16.74897686 208.65812276 -16.75887293 209.40159082 C-16.68551765 214.43611201 -15.35801236 217.25339913 -12.2285614 221.14717102 C-7.5753073 225.34644912 -4.43641938 226.27501423 1.75190735 226.24482727 C3.49697571 226.23999329 3.49697571 226.23999329 5.27729797 226.23506165 C6.49223938 226.22668274 7.70718079 226.21830383 8.9589386 226.20967102 C10.79875305 226.20290344 10.79875305 226.20290344 12.67573547 226.19599915 C15.70768528 226.18420168 18.73953766 226.16774023 21.7714386 226.14717102 C21.77382695 225.31172162 21.77621531 224.47627222 21.77867603 223.61550617 C21.83779575 203.29310435 21.9133264 182.97082143 22.00715351 162.64854908 C22.05213119 152.82087081 22.09154131 142.99322894 22.11787415 133.16548157 C22.14083825 124.60024738 22.17421849 116.0351282 22.22014016 107.46998519 C22.24409381 102.93422496 22.26280854 98.39857878 22.26905251 93.86275673 C22.27509368 89.59375277 22.29505839 85.32504069 22.32571411 81.05614471 C22.33450988 79.48924726 22.33821373 77.92231169 22.33644676 76.35539055 C22.33479549 74.21544049 22.35147928 72.07638176 22.37271118 69.93655396 C22.37962463 68.14044033 22.37962463 68.14044033 22.38667774 66.30804157 C22.80784773 62.84806428 23.85313102 61.00908422 25.7714386 58.14717102 C25.7714386 57.48717102 25.7714386 56.82717102 25.7714386 56.14717102 C26.5551886 55.83779602 27.3389386 55.52842102 28.1464386 55.20967102 C30.69473988 54.21842064 30.69473988 54.21842064 32.7714386 53.14717102 C34.36762243 53.04277652 35.96806037 53.00064038 37.56761169 52.98895264 C38.58005951 52.97916382 39.59250732 52.969375 40.63563538 52.95928955 C42.30798248 52.95065636 42.30798248 52.95065636 44.01411438 52.94184875 C45.77019516 52.92699936 45.77019516 52.92699936 47.56175232 52.91184998 C50.77639452 52.88562994 53.99103133 52.8637812 57.20571756 52.84384799 C60.56366066 52.82200216 63.92155829 52.79460662 67.27946472 52.76779175 C73.64008098 52.71784586 80.00072246 52.67291408 86.36138809 52.62976938 C93.60195544 52.58041319 100.84247718 52.52548908 108.08300042 52.47008979 C122.97910398 52.35624065 137.87525048 52.24940801 152.7714386 52.14717102 C152.87084956 48.12714472 152.94315922 44.10760139 152.99116516 40.08662415 C153.01119179 38.72093734 153.03842192 37.35533533 153.07319641 35.98994446 C153.12210292 34.0193 153.14235207 32.04801119 153.1620636 30.07685852 C153.18301086 28.89333801 153.20395813 27.7098175 153.22554016 26.49043274 C152.50379671 21.17669361 149.98387885 18.13817898 145.90655518 14.80551147 C140.26963146 11.92889686 133.77732941 12.58180353 127.60957336 12.61372375 C126.17325456 12.60665872 124.7369432 12.59791124 123.30064392 12.58761597 C119.41415884 12.56517704 115.52808205 12.5680487 111.64155698 12.57693744 C108.39112255 12.5820597 105.14076401 12.57474472 101.89033741 12.56746536 C94.21937027 12.55048372 86.54860215 12.5540145 78.87763977 12.570755 C70.97661874 12.58767514 63.07615025 12.57183968 55.17518955 12.53953212 C48.37918446 12.51280058 41.58335099 12.50556979 34.78729862 12.51404721 C30.73378193 12.51896603 26.68059758 12.51681782 22.62712288 12.49625969 C18.8142234 12.47784614 15.002116 12.48392926 11.18925858 12.50845909 C9.79452976 12.51344916 8.39973999 12.51002416 7.0050602 12.49731064 C-4.14749746 12.34929688 -4.14749746 12.34929688 -13.2285614 18.14717102 Z " fill="#5EC3EF" transform="translate(165.2285614013672,6.8528289794921875)"/>
<path d="M0 0 C1.25454483 -0.0071553 2.50908966 -0.01431061 3.801651 -0.02168274 C5.18440222 -0.02452264 6.5671537 -0.02723442 7.9499054 -0.02983093 C9.41223307 -0.03610038 10.87455917 -0.04274761 12.33688354 -0.04974365 C17.13146365 -0.07072978 21.92604386 -0.08114116 26.72065735 -0.09111023 C28.3750186 -0.09515987 30.02937969 -0.09927685 31.68374062 -0.10346031 C39.45784881 -0.12250028 47.23194759 -0.13673362 55.00607461 -0.14507228 C63.96276631 -0.15483956 72.91921055 -0.18115069 81.87581509 -0.22157317 C88.81019948 -0.251789 95.74451314 -0.26654634 102.67896205 -0.26985329 C106.81527857 -0.27219758 110.95133036 -0.28107664 115.08757591 -0.30631447 C118.982383 -0.32969623 122.87675292 -0.33378827 126.77161217 -0.32355309 C128.19454406 -0.32306005 129.61749823 -0.32931134 131.04036331 -0.34310913 C141.08898046 -0.43503633 148.6379357 0.75712194 157.0839386 6.33467102 C163.21388641 12.74973268 165.90503723 19.41550699 165.86909485 28.22138977 C165.86697243 29.2471386 165.86697243 29.2471386 165.86480713 30.29360962 C165.85921736 32.47400824 165.84666682 34.65430353 165.8339386 36.83467102 C165.82892227 38.31448724 165.8243596 39.79430508 165.82026672 41.27412415 C165.80925131 44.89850659 165.79199372 48.52282872 165.7714386 52.14717102 C161.4814386 52.14717102 157.1914386 52.14717102 152.7714386 52.14717102 C152.73276672 49.11142883 152.73276672 49.11142883 152.6933136 46.01435852 C152.65156836 44.03841729 152.6096826 42.0624764 152.56391907 40.08662415 C152.53582237 38.72118938 152.51455182 37.35559538 152.5004425 35.98994446 C152.47885878 34.01863064 152.430084 32.04767471 152.3808136 30.07685852 C152.35986633 28.89333801 152.33891907 27.7098175 152.31733704 26.49043274 C151.64940227 22.39978036 150.44731417 20.30108119 147.7714386 17.14717102 C143.54455185 14.61893692 140.41731857 13.77062696 135.5163269 13.75949097 C133.66380814 13.74463402 133.66380814 13.74463402 131.77386475 13.72947693 C130.4183187 13.7337144 129.06277362 13.7382722 127.70722961 13.74311829 C126.2694394 13.73741156 124.83165371 13.73044613 123.39387512 13.72232056 C119.49919095 13.7044072 115.60473231 13.70555405 111.71001935 13.71126294 C108.45458166 13.71435746 105.19918711 13.70825941 101.94375557 13.7022242 C94.26184959 13.68818656 86.58005484 13.68973388 78.89814758 13.7011261 C70.98186699 13.71260671 63.06592521 13.69853104 55.14968926 13.67172962 C48.34439544 13.64955492 41.53920783 13.64293922 34.73388046 13.64880604 C30.67315712 13.65217259 26.61265094 13.64978076 22.55195808 13.63255501 C18.7326133 13.61705956 14.91376946 13.62106972 11.09444427 13.63986015 C9.69606813 13.6435389 8.29765466 13.64045834 6.89931297 13.62997437 C-3.43789443 13.42761659 -3.43789443 13.42761659 -12.2285614 18.14717102 C-15.11539439 22.78261211 -15.66073404 26.73738078 -15.61624146 32.079422 C-15.62162699 32.86027365 -15.62701253 33.64112531 -15.63256127 34.44563913 C-15.64682756 37.05269197 -15.63974055 39.65923611 -15.63261414 42.26631165 C-15.63831835 44.13921516 -15.64528281 46.0121152 -15.65341187 47.88500977 C-15.67135132 52.96552397 -15.67017356 58.04586554 -15.66446948 63.1264019 C-15.66137921 67.36860539 -15.66746819 71.61077565 -15.67350823 75.85297441 C-15.68755402 85.860085 -15.68599129 95.86711022 -15.67460632 105.8742218 C-15.66312083 116.19783422 -15.67720796 126.52118698 -15.7040028 136.84476519 C-15.72615172 145.71031795 -15.73279912 154.57578916 -15.72692639 163.44136763 C-15.72355419 168.73556201 -15.72598957 174.02958987 -15.74317741 179.32376099 C-15.75863187 184.30117731 -15.7547076 189.27820848 -15.73587227 194.25560951 C-15.73218245 196.08173358 -15.73530629 197.9078861 -15.74575806 199.73398399 C-15.75894285 202.2280743 -15.74744367 204.72088477 -15.72976685 207.21492004 C-15.73937185 207.9365214 -15.74897686 208.65812276 -15.75887293 209.40159082 C-15.68559953 214.43049294 -14.34898415 217.25327827 -11.2285614 221.14717102 C-7.12373597 224.75444186 -3.60698964 225.28059054 1.75190735 225.46357727 C2.91528625 225.5054718 4.07866516 225.54736633 5.27729797 225.5905304 C6.49223938 225.6298468 7.70718079 225.66916321 8.9589386 225.70967102 C10.18548157 225.75285461 11.41202454 225.79603821 12.67573547 225.8405304 C15.70750052 225.94670116 18.7394546 226.04744866 21.7714386 226.14717102 C21.7714386 230.43717102 21.7714386 234.72717102 21.7714386 239.14717102 C17.47938274 239.22866575 13.18889957 239.28791704 8.8964386 239.33467102 C7.69245422 239.35980774 6.48846985 239.38494446 5.2480011 239.4108429 C-4.43875152 239.48981099 -13.16831986 238.89001668 -20.6035614 232.08467102 C-21.79078796 231.04633118 -21.79078796 231.04633118 -23.0019989 229.98701477 C-30.4998775 220.42393101 -29.80142614 209.81762807 -29.74613953 198.2702179 C-29.75156647 196.3638048 -29.75869233 194.4573959 -29.76737976 192.55099487 C-29.78554794 187.39601586 -29.77857248 182.24135861 -29.76586342 177.08637428 C-29.75570199 171.67918181 -29.76513781 166.272016 -29.77140808 160.86482239 C-29.77867534 151.78619974 -29.76912096 142.70770745 -29.75004578 133.62910461 C-29.72827887 123.14870172 -29.73533089 112.66861014 -29.7573514 102.18821478 C-29.77553165 93.17304247 -29.77805088 84.15796361 -29.76759672 75.14277887 C-29.76137624 69.76580869 -29.76048636 64.3889846 -29.77374268 59.01202393 C-29.78533876 53.95573364 -29.77720687 48.89984285 -29.75416565 43.8435955 C-29.74889861 41.99335326 -29.7503578 40.14307712 -29.75921631 38.29284859 C-29.84556272 18.41844205 -29.84556272 18.41844205 -23.2988739 9.52607727 C-16.0063161 2.71676125 -10.0096416 0.03929617 0 0 Z " fill="#27216B" transform="translate(165.2285614013672,6.8528289794921875)"/>
<path d="M0 0 C8.16229247 8.76830954 10.78544605 20.27308145 10.50390625 32.00390625 C9.66127652 41.32468739 8.64876293 51.86459736 1.42578125 58.484375 C-5.51305996 64.03544797 -11.70424879 65.11129886 -20.39208984 65.0871582 C-21.34571915 65.09226913 -22.29934845 65.09738007 -23.28187561 65.10264587 C-26.42496062 65.11651189 -29.56782559 65.11558725 -32.7109375 65.11328125 C-34.90280234 65.11716998 -37.09466643 65.12150501 -39.28652954 65.12626648 C-43.87789351 65.13372238 -48.46918058 65.13344206 -53.06054688 65.12817383 C-58.93376403 65.1223818 -64.80666556 65.13930702 -70.67983055 65.1625185 C-75.20610382 65.17727672 -79.73230145 65.17812465 -84.25859451 65.17500877 C-86.42345428 65.17552099 -88.5883184 65.18073996 -90.75315475 65.19082069 C-93.7853499 65.20320729 -96.81693513 65.19637971 -99.84912109 65.18481445 C-100.73665573 65.19245819 -101.62419037 65.20010193 -102.53862 65.20797729 C-111.12540019 65.13587341 -117.63480373 62.7439594 -123.98828125 56.83984375 C-132.61782694 46.90916922 -131.47800372 32.1285486 -130.75 19.8125 C-129.22901993 9.84828411 -124.01669985 2.07807346 -116.3984375 -4.36328125 C-90.60900894 -22.1267962 -23.76265833 -21.72294517 0 0 Z M-112.16015625 10.01171875 C-118.69495758 17.41354532 -118.23550225 26.61512963 -117.88623047 35.89794922 C-117.49129729 41.44824674 -116.16997418 45.42715934 -112.1875 49.3125 C-107.69481812 52.07722731 -104.07500782 51.97353101 -98.89746094 51.98950195 C-97.98021744 51.99607315 -97.06297394 52.00264435 -96.11793518 52.00941467 C-93.07341434 52.02917305 -90.02894291 52.04081636 -86.984375 52.05078125 C-85.94560463 52.05485678 -84.90683426 52.0589323 -83.836586 52.06313133 C-78.33783669 52.08400361 -72.83911241 52.09829992 -67.34033203 52.10766602 C-61.65956109 52.11872856 -55.97918207 52.1531236 -50.29854965 52.19283772 C-45.93191804 52.21898135 -41.56538006 52.2273559 -37.19867706 52.23094749 C-35.10471197 52.23581983 -33.01075123 52.24745215 -30.91686249 52.26598549 C-27.98429829 52.29032701 -25.05275144 52.28942079 -22.12011719 52.2824707 C-20.82470757 52.30168579 -20.82470757 52.30168579 -19.50312805 52.32128906 C-14.12294134 52.27486316 -10.97851911 51.45551732 -6.75 47.8125 C-1.88655398 38.92413314 -1.65794386 28.59383608 -4.06640625 18.91015625 C-6.05400503 12.81106741 -10.45298588 8.23429379 -15.75 4.8125 C-38.81721127 -6.42725581 -92.76127466 -8.51441153 -112.16015625 10.01171875 Z " fill="#27216B" transform="translate(315.75,440.1875)"/>
<path d="M0 0 C9.40735279 9.59722597 11.24532971 20.33078362 11.25097656 33.38208008 C11.09918333 44.07545334 9.08610136 53.02949185 1.25 60.6875 C-5.54961651 65.52568867 -11.63503011 66.44592791 -19.74560547 66.40405273 C-21.15703827 66.41434761 -21.15703827 66.41434761 -22.59698486 66.42485046 C-25.68720879 66.44305326 -28.7769218 66.43928987 -31.8671875 66.43359375 C-34.02898319 66.43815898 -36.19077743 66.44346557 -38.35256958 66.44947815 C-42.87654528 66.45839672 -47.40034433 66.4560007 -51.92431641 66.44604492 C-57.70322281 66.43456271 -63.48151747 66.45476214 -69.26034355 66.48396206 C-73.72323438 66.50236643 -78.1859798 66.50202303 -82.64889908 66.49632454 C-84.77861514 66.49617181 -86.90834136 66.5021756 -89.03802109 66.51461601 C-92.02426534 66.52960254 -95.00939454 66.51879224 -97.99560547 66.50170898 C-98.86345673 66.51137695 -99.73130798 66.52104492 -100.62545776 66.53100586 C-108.14642552 66.44154687 -114.38549522 64.16870287 -120.8125 60.3125 C-129.4801952 51.14950793 -130.47117279 39.60282952 -130.24609375 27.48828125 C-129.47408261 16.5453297 -125.94391922 6.35092387 -117.8125 -1.3125 C-92.45061224 -20.87264873 -25.10431801 -20.66935746 0 0 Z M-110.6015625 10.29296875 C-117.10251602 18.22849022 -117.48966584 27.11879454 -117 37 C-116.33116434 42.64700492 -115.27108095 46.97298082 -111 51 C-106.40465545 53.47055592 -101.98015782 53.28944147 -96.89868164 53.2746582 C-95.53678963 53.2823246 -95.53678963 53.2823246 -94.14738464 53.29014587 C-91.15157445 53.30402517 -88.15599474 53.30308639 -85.16015625 53.30078125 C-83.07417211 53.30466897 -80.98818875 53.3090038 -78.90220642 53.31376648 C-74.53186475 53.32122503 -70.16160388 53.32093995 -65.79125977 53.31567383 C-60.19469856 53.3098785 -54.59846821 53.32681364 -49.00196171 53.3500185 C-44.69451468 53.36475983 -40.38714727 53.36562701 -36.07967949 53.36250877 C-34.01643658 53.36302174 -31.95318919 53.36825491 -29.88997078 53.37832069 C-27.00333354 53.39067588 -24.11734005 53.38389886 -21.23071289 53.37231445 C-20.38117035 53.37995819 -19.53162781 53.38760193 -18.65634155 53.39547729 C-13.7108262 53.35167494 -10.26621535 52.77956032 -6 50 C-0.78357066 41.90554068 -0.79693409 30.54581531 -2.49609375 21.30078125 C-4.49257073 14.65713751 -8.02448866 10.00950338 -13.9375 6.3125 C-35.31946605 -4.7153465 -91.87066223 -7.75265468 -110.6015625 10.29296875 Z " fill="#27216B" transform="translate(493,439)"/>
<path d="M0 0 C9.40735279 9.59722597 11.24532971 20.33078362 11.25097656 33.38208008 C11.09918333 44.07545334 9.08610136 53.02949185 1.25 60.6875 C-5.54961651 65.52568867 -11.63503011 66.44592791 -19.74560547 66.40405273 C-21.15703827 66.41434761 -21.15703827 66.41434761 -22.59698486 66.42485046 C-25.68720879 66.44305326 -28.7769218 66.43928987 -31.8671875 66.43359375 C-34.02898319 66.43815898 -36.19077743 66.44346557 -38.35256958 66.44947815 C-42.87654528 66.45839672 -47.40034433 66.4560007 -51.92431641 66.44604492 C-57.70322281 66.43456271 -63.48151747 66.45476214 -69.26034355 66.48396206 C-73.72323438 66.50236643 -78.1859798 66.50202303 -82.64889908 66.49632454 C-84.77861514 66.49617181 -86.90834136 66.5021756 -89.03802109 66.51461601 C-92.02426534 66.52960254 -95.00939454 66.51879224 -97.99560547 66.50170898 C-98.86345673 66.51137695 -99.73130798 66.52104492 -100.62545776 66.53100586 C-108.14642552 66.44154687 -114.38549522 64.16870287 -120.8125 60.3125 C-129.4801952 51.14950793 -130.47117279 39.60282952 -130.24609375 27.48828125 C-129.47408261 16.5453297 -125.94391922 6.35092387 -117.8125 -1.3125 C-92.45061224 -20.87264873 -25.10431801 -20.66935746 0 0 Z M-110.6015625 10.29296875 C-117.10251602 18.22849022 -117.48966584 27.11879454 -117 37 C-116.33116434 42.64700492 -115.27108095 46.97298082 -111 51 C-106.40465545 53.47055592 -101.98015782 53.28944147 -96.89868164 53.2746582 C-95.53678963 53.2823246 -95.53678963 53.2823246 -94.14738464 53.29014587 C-91.15157445 53.30402517 -88.15599474 53.30308639 -85.16015625 53.30078125 C-83.07417211 53.30466897 -80.98818875 53.3090038 -78.90220642 53.31376648 C-74.53186475 53.32122503 -70.16160388 53.32093995 -65.79125977 53.31567383 C-60.19469856 53.3098785 -54.59846821 53.32681364 -49.00196171 53.3500185 C-44.69451468 53.36475983 -40.38714727 53.36562701 -36.07967949 53.36250877 C-34.01643658 53.36302174 -31.95318919 53.36825491 -29.88997078 53.37832069 C-27.00333354 53.39067588 -24.11734005 53.38389886 -21.23071289 53.37231445 C-20.38117035 53.37995819 -19.53162781 53.38760193 -18.65634155 53.39547729 C-13.7108262 53.35167494 -10.26621535 52.77956032 -6 50 C-0.78357066 41.90554068 -0.79693409 30.54581531 -2.49609375 21.30078125 C-4.49257073 14.65713751 -8.02448866 10.00950338 -13.9375 6.3125 C-35.31946605 -4.7153465 -91.87066223 -7.75265468 -110.6015625 10.29296875 Z " fill="#27216B" transform="translate(137,439)"/>
<path d="M0 0 C6.66400019 5.42293133 11.14897478 12.8679317 12.0859375 21.453125 C12.20469295 31.09606717 10.53868758 39.58634958 3.6796875 46.76953125 C-4.0759647 53.22210828 -12.38343135 55.60652601 -22.33984375 54.94921875 C-30.59968518 53.73623504 -36.95888359 50.43549306 -42.3125 44 C-47.95469454 35.71560704 -49.31423421 28.42475712 -48.25 18.375 C-46.32334793 10.22113319 -41.89732613 3.29410173 -34.75 -1.1953125 C-23.28335351 -7.16752421 -10.928713 -7.50827611 0 0 Z " fill="#F96263" transform="translate(274.25,353.625)"/>
<path d="M0 0 C7.29910776 6.00148861 12.61063513 12.69758101 13.8125 22.3125 C14.46816674 30.67225095 12.15630598 38.81327652 6.8125 45.3125 C-0.43972872 52.80700808 -6.20664396 55.41727805 -16.625 55.75 C-26.25944596 55.52060843 -32.42299139 52.75519321 -39.4609375 46.25 C-46.32489936 38.54745456 -46.95448562 29.13379582 -46.40966797 19.27734375 C-45.61531108 12.25208633 -41.20725002 6.46451749 -36.1484375 1.78125 C-25.07837453 -6.51027126 -11.93484574 -6.31844774 0 0 Z " fill="#F96364" transform="translate(94.1875,352.6875)"/>
<path d="M0 0 C6.00210523 4.9350643 11.41317663 10.44130607 12.8125 18.3125 C13.8252796 29.73158994 12.72896842 37.67101429 5.5625 46.625 C0.79704307 51.78073142 -5.42098303 55.08016443 -12.48046875 55.515625 C-24.5745366 55.66119051 -30.98395634 54.27425239 -39.98046875 45.7890625 C-45.0457163 40.1052272 -46.85276413 33.58038229 -47.4375 26.125 C-46.80980872 16.55270791 -43.42167086 9.15473361 -36.375 2.625 C-25.48841794 -6.54158303 -12.30001182 -6.51177096 0 0 Z " fill="#F96364" transform="translate(451.1875,352.6875)"/>
<path d="M0 0 C1.1149585 -0.00786278 1.1149585 -0.00786278 2.25244141 -0.0158844 C3.82257845 -0.02230233 5.39276358 -0.02097049 6.96289062 -0.01245117 C9.36675436 -0.00393546 11.7682458 -0.03270986 14.171875 -0.06445312 C15.69791595 -0.06606511 17.22396112 -0.06548765 18.75 -0.0625 C19.46881348 -0.07373398 20.18762695 -0.08496796 20.92822266 -0.09654236 C22.9609375 -0.06811523 22.9609375 -0.06811523 26.375 0.43359375 C29.07809428 3.22346757 29.75163485 5.21740423 29.77372742 9.05267334 C29.78626556 9.97531479 29.79880371 10.89795624 29.8117218 11.84855652 C29.81028671 12.85340591 29.80885162 13.85825531 29.80737305 14.89355469 C29.82266052 16.48913963 29.82266052 16.48913963 29.83825684 18.11695862 C29.86845846 21.63401508 29.87766395 25.15079949 29.88671875 28.66796875 C29.90356007 31.10606802 29.92170957 33.54415857 29.94111633 35.98223877 C29.98868154 42.4003019 30.01844889 48.81832972 30.04455566 55.23651123 C30.07432817 61.78534929 30.12086988 68.33406557 30.16601562 74.8828125 C30.25212302 87.73300678 30.3200047 100.58323059 30.375 113.43359375 C30.91769531 112.87929688 31.46039063 112.325 32.01953125 111.75390625 C33.09267578 110.66722656 33.09267578 110.66722656 34.1875 109.55859375 C35.24904297 108.47964844 35.24904297 108.47964844 36.33203125 107.37890625 C39.00175409 104.83679923 40.65765975 103.50831669 44.375 103.12109375 C47.375 103.43359375 47.375 103.43359375 49.25 104.49609375 C51.04236699 107.582948 50.73361994 109.92304972 50.375 113.43359375 C48.7567118 115.75252955 47.36150423 117.43284605 45.37109375 119.3671875 C44.59693871 120.15138817 44.59693871 120.15138817 43.80714417 120.95143127 C42.71522348 122.04809886 41.6144782 123.13604224 40.50561523 124.21557617 C38.8169519 125.86674071 37.16891762 127.55194953 35.52148438 129.24414062 C34.45275792 130.30824113 33.38186187 131.37016796 32.30859375 132.4296875 C31.57533119 133.18420448 31.57533119 133.18420448 30.82725525 133.95396423 C28.11118009 136.54517613 26.50000691 137.41642769 22.74633789 137.93188477 C19.18827659 137.40599563 18.00645667 136.94066595 15.5 134.46484375 C14.83226562 133.82417969 14.16453125 133.18351563 13.4765625 132.5234375 C12.78304688 131.83378906 12.08953125 131.14414062 11.375 130.43359375 C9.87571034 129.04740839 8.37569596 127.66200652 6.875 126.27734375 C5.3723455 124.83218212 3.87235903 123.3842414 2.375 121.93359375 C1.60027344 121.21300781 0.82554687 120.49242187 0.02734375 119.75 C-5.48834871 114.37049748 -5.48834871 114.37049748 -6.1953125 109.5234375 C-5.625 106.43359375 -5.625 106.43359375 -4.5 104.49609375 C-1.50860708 102.80097109 -0.03858101 102.78952186 3.375 103.43359375 C7.83632719 106.579732 11.52666363 110.58525738 15.375 114.43359375 C15.705 81.10359375 16.035 47.77359375 16.375 13.43359375 C8.785 13.43359375 1.195 13.43359375 -6.625 13.43359375 C-7.945 12.44359375 -9.265 11.45359375 -10.625 10.43359375 C-11.35341566 4.60626849 -11.35341566 4.60626849 -9.57421875 1.74194336 C-6.57831048 -0.2689625 -3.48877005 -0.01424816 0 0 Z " fill="#27216B" transform="translate(411.625,152.56640625)"/>
<path d="M0 0 C0.72110962 -0.00287018 1.44221924 -0.00574036 2.18518066 -0.00869751 C3.70825995 -0.01073702 5.2313655 -0.00521497 6.75439453 0.00732422 C9.08555678 0.02338107 11.41498542 0.0074734 13.74609375 -0.01171875 C15.22656633 -0.0097363 16.70703782 -0.00589257 18.1875 0 C18.8844397 -0.00607269 19.58137939 -0.01214539 20.29943848 -0.0184021 C23.14814749 0.02299279 25.13165739 0.08660659 27.52929688 1.70458984 C29.36043473 4.61845095 29.00894359 7.0768888 28.59375 10.3984375 C24.59375 13.3984375 24.59375 13.3984375 2.59375 13.3984375 C2.92375 46.3984375 3.25375 79.3984375 3.59375 113.3984375 C6.23375 110.7584375 8.87375 108.1184375 11.59375 105.3984375 C15.06298881 103.08561163 16.51580575 102.97365164 20.59375 103.3984375 C22.46875 104.4609375 22.46875 104.4609375 23.59375 106.3984375 C24.10695714 110.75301152 24.04428141 112.75284582 21.50170898 116.39624023 C20.55028432 117.3935114 19.57828381 118.37143513 18.58984375 119.33203125 C17.81568871 120.11623192 17.81568871 120.11623192 17.02589417 120.91627502 C15.93397348 122.01294261 14.8332282 123.10088599 13.72436523 124.18041992 C12.0357019 125.83158446 10.38766762 127.51679328 8.74023438 129.20898438 C7.67150792 130.27308488 6.60061187 131.33501171 5.52734375 132.39453125 C4.79408119 133.14904823 4.79408119 133.14904823 4.04600525 133.91880798 C1.32993009 136.51001988 -0.28124309 137.38127144 -4.03491211 137.89672852 C-7.59297341 137.37083938 -8.77479333 136.9055097 -11.28125 134.4296875 C-11.94898437 133.78902344 -12.61671875 133.14835938 -13.3046875 132.48828125 C-13.99820313 131.79863281 -14.69171875 131.10898437 -15.40625 130.3984375 C-16.90553966 129.01225214 -18.40555404 127.62685027 -19.90625 126.2421875 C-21.4089045 124.79702587 -22.90889097 123.34908515 -24.40625 121.8984375 C-25.18097656 121.17785156 -25.95570312 120.45726562 -26.75390625 119.71484375 C-32.26959871 114.33534123 -32.26959871 114.33534123 -32.9765625 109.48828125 C-32.40625 106.3984375 -32.40625 106.3984375 -31.28125 104.4609375 C-28.28985708 102.76581484 -26.81983101 102.75436561 -23.40625 103.3984375 C-18.94750067 106.54275784 -15.25102137 110.55266723 -11.40625 114.3984375 C-11.40386165 113.82913859 -11.40147329 113.25983969 -11.39901257 112.6732893 C-11.33990249 98.82742608 -11.2641886 84.98173965 -11.17053509 71.13606548 C-11.12574898 64.44041117 -11.08614182 57.74482577 -11.05981445 51.04907227 C-11.03386372 44.59101078 -10.99351981 38.1331869 -10.94306374 31.67527199 C-10.92633922 29.20766969 -10.91485987 26.74002624 -10.90863609 24.27237511 C-10.89905576 20.82415041 -10.87106887 17.37654132 -10.83862305 13.9284668 C-10.84005814 12.90132065 -10.84149323 11.8741745 -10.8429718 10.81590271 C-10.83043365 9.87780762 -10.81789551 8.93971252 -10.80497742 7.97319031 C-10.80036845 7.15740352 -10.79575949 6.34161673 -10.79101086 5.50110912 C-9.71666348 -0.37006956 -4.99246787 -0.04350122 0 0 Z " fill="#27216B" transform="translate(86.40625,152.6015625)"/>
<path d="M0 0 C1.01652649 -0.00708481 2.03305298 -0.01416962 3.0803833 -0.02146912 C4.19991898 -0.0189917 5.31945465 -0.01651428 6.47291565 -0.01396179 C8.23639847 -0.02162819 8.23639847 -0.02162819 10.0355072 -0.02944946 C13.26487386 -0.04099113 16.49408185 -0.04341529 19.72346377 -0.04088616 C22.4173868 -0.03981812 25.11128603 -0.04469556 27.80520397 -0.04949158 C34.15979126 -0.06059579 40.51431944 -0.06101916 46.86891174 -0.05497742 C53.42867141 -0.04893658 59.98821664 -0.06124916 66.54793972 -0.08254749 C72.17601976 -0.1001503 77.80403146 -0.10616692 83.43213803 -0.10290974 C86.79524598 -0.10109451 90.15820101 -0.10375662 93.5212841 -0.11762428 C97.27095611 -0.12990951 101.02012714 -0.12324423 104.76979065 -0.11161804 C105.88730209 -0.11926178 107.00481354 -0.12690552 108.15618896 -0.13478088 C109.17553528 -0.12776657 110.19488159 -0.12075226 111.24511719 -0.11352539 C112.13204978 -0.11369313 113.01898237 -0.11386087 113.93279171 -0.1140337 C116.18605042 0.26069641 116.18605042 0.26069641 118.00267124 1.56142902 C119.18605042 3.26069641 119.18605042 3.26069641 119.06105042 6.82319641 C118.18605042 10.26069641 118.18605042 10.26069641 115.18605042 12.26069641 C112.98523045 12.515172 112.98523045 12.515172 110.37246704 12.52139282 C109.38125351 12.52847763 108.39003998 12.53556244 107.36878967 12.54286194 C106.28247253 12.54038452 105.1961554 12.5379071 104.07691956 12.53535461 C102.93198532 12.54046555 101.78705109 12.54557648 100.60742188 12.55084229 C96.81196405 12.56477482 93.01668706 12.56377876 89.22120667 12.56147766 C86.58948702 12.56536252 83.957768 12.56969675 81.3260498 12.57446289 C75.80549 12.58267879 70.28498137 12.58176587 64.76441956 12.57637024 C58.3835883 12.57032969 52.0029775 12.58264277 45.62218386 12.60394031 C39.48350469 12.62367626 33.34492866 12.62673056 27.20622063 12.62320518 C24.59427307 12.62371957 21.98232207 12.62897908 19.37039375 12.63901711 C15.72161374 12.65131839 12.07334726 12.64462733 8.42457581 12.63301086 C7.3402829 12.6406546 6.25598999 12.64829834 5.13883972 12.65617371 C4.14480637 12.64915939 3.15077301 12.64214508 2.12661743 12.63491821 C1.26402848 12.63508595 0.40143953 12.6352537 -0.48728848 12.63542652 C-3.37297093 12.1706609 -4.74578241 11.31030701 -6.81394958 9.26069641 C-7.18894958 5.69819641 -7.18894958 5.69819641 -6.81394958 2.26069641 C-4.29741787 -0.25583531 -3.48066225 0.00805967 0 0 Z " fill="#292770" transform="translate(222.81394958496094,239.7393035888672)"/>
<path d="M0 0 C1.009487 -0.00845947 2.018974 -0.01691895 3.05905151 -0.02563477 C4.718936 -0.01652573 4.718936 -0.01652573 6.41235352 -0.00723267 C7.57840118 -0.01248962 8.74444885 -0.01774658 9.9458313 -0.02316284 C13.81110925 -0.03639716 17.67597742 -0.02761225 21.54125977 -0.01748657 C24.22022009 -0.01950631 26.89916783 -0.02241203 29.578125 -0.02618408 C35.19706689 -0.03164328 40.81589052 -0.02444581 46.43481445 -0.01016235 C52.93269166 0.00616459 59.43028649 0.00087619 65.92815685 -0.01564157 C71.50531273 -0.02925185 77.08238355 -0.03117838 82.65955067 -0.02332556 C85.9913405 -0.01864647 89.32296834 -0.01920692 92.65475464 -0.02793503 C96.36842115 -0.03552781 100.08154041 -0.02397501 103.79516602 -0.00723267 C104.90175568 -0.01330536 106.00834534 -0.01937805 107.14846802 -0.02563477 C108.15795502 -0.01717529 109.16744202 -0.00871582 110.20751953 0 C111.08577896 0.00113108 111.96403839 0.00226215 112.86891174 0.00342751 C115.10375977 0.38095093 115.10375977 0.38095093 116.91758728 1.68210411 C118.10375977 3.38095093 118.10375977 3.38095093 117.97875977 6.94345093 C117.10375977 10.38095093 117.10375977 10.38095093 114.10375977 12.38095093 C111.88452911 12.63542652 111.88452911 12.63542652 109.2454834 12.64164734 C108.24441055 12.64873215 107.24333771 12.65581696 106.21192932 12.66311646 C105.1146904 12.66063904 104.01745148 12.65816162 102.88696289 12.65560913 C101.15252174 12.66327553 101.15252174 12.66327553 99.38304138 12.6710968 C95.55031194 12.68502863 91.71776156 12.68403346 87.88500977 12.68173218 C85.89953403 12.68463552 83.91405822 12.68754312 81.92858362 12.69113892 C75.68568778 12.70223586 69.44285211 12.70267023 63.19995117 12.69662476 C56.75661682 12.69058124 50.31350062 12.70290496 43.8702035 12.72419482 C38.33976679 12.74179742 32.80939961 12.7478144 27.27893591 12.74455708 C23.97507724 12.7427422 20.67140931 12.74670812 17.36756897 12.75927162 C13.68505861 12.77155693 10.00305834 12.76489182 6.32055664 12.75326538 C5.22331772 12.76090912 4.1260788 12.76855286 2.99559021 12.77642822 C1.49398094 12.76590675 1.49398094 12.76590675 -0.03796387 12.75517273 C-1.3442915 12.75542434 -1.3442915 12.75542434 -2.67700958 12.75568104 C-5.39374713 12.29694397 -6.28102775 11.58451184 -7.89624023 9.38095093 C-8.53681638 4.25634177 -8.53681638 4.25634177 -6.67881775 1.71726036 C-4.33228295 -0.04181971 -2.91858757 0.00375874 0 0 Z " fill="#29256E" transform="translate(223.896240234375,202.61904907226563)"/>
<path d="M0 0 C1.01652649 -0.00708481 2.03305298 -0.01416962 3.0803833 -0.02146912 C4.19991898 -0.0189917 5.31945465 -0.01651428 6.47291565 -0.01396179 C8.23639847 -0.02162819 8.23639847 -0.02162819 10.0355072 -0.02944946 C13.26487386 -0.04099113 16.49408185 -0.04341529 19.72346377 -0.04088616 C22.4173868 -0.03981812 25.11128603 -0.04469556 27.80520397 -0.04949158 C34.15979126 -0.06059579 40.51431944 -0.06101916 46.86891174 -0.05497742 C53.42867141 -0.04893658 59.98821664 -0.06124916 66.54793972 -0.08254749 C72.17601976 -0.1001503 77.80403146 -0.10616692 83.43213803 -0.10290974 C86.79524598 -0.10109451 90.15820101 -0.10375662 93.5212841 -0.11762428 C97.27095611 -0.12990951 101.02012714 -0.12324423 104.76979065 -0.11161804 C105.88730209 -0.11926178 107.00481354 -0.12690552 108.15618896 -0.13478088 C109.17553528 -0.12776657 110.19488159 -0.12075226 111.24511719 -0.11352539 C112.13204978 -0.11369313 113.01898237 -0.11386087 113.93279171 -0.1140337 C116.18605042 0.26069641 116.18605042 0.26069641 118.00267124 1.56142902 C119.18605042 3.26069641 119.18605042 3.26069641 119.06105042 6.82319641 C118.18605042 10.26069641 118.18605042 10.26069641 115.18605042 12.26069641 C112.98523045 12.515172 112.98523045 12.515172 110.37246704 12.52139282 C109.38125351 12.52847763 108.39003998 12.53556244 107.36878967 12.54286194 C106.28247253 12.54038452 105.1961554 12.5379071 104.07691956 12.53535461 C102.93198532 12.54046555 101.78705109 12.54557648 100.60742188 12.55084229 C96.81196405 12.56477482 93.01668706 12.56377876 89.22120667 12.56147766 C86.58948702 12.56536252 83.957768 12.56969675 81.3260498 12.57446289 C75.80549 12.58267879 70.28498137 12.58176587 64.76441956 12.57637024 C58.3835883 12.57032969 52.0029775 12.58264277 45.62218386 12.60394031 C39.48350469 12.62367626 33.34492866 12.62673056 27.20622063 12.62320518 C24.59427307 12.62371957 21.98232207 12.62897908 19.37039375 12.63901711 C15.72161374 12.65131839 12.07334726 12.64462733 8.42457581 12.63301086 C7.3402829 12.6406546 6.25598999 12.64829834 5.13883972 12.65617371 C4.14480637 12.64915939 3.15077301 12.64214508 2.12661743 12.63491821 C1.26402848 12.63508595 0.40143953 12.6352537 -0.48728848 12.63542652 C-3.37297093 12.1706609 -4.74578241 11.31030701 -6.81394958 9.26069641 C-7.18894958 5.69819641 -7.18894958 5.69819641 -6.81394958 2.26069641 C-4.29741787 -0.25583531 -3.48066225 0.00805967 0 0 Z " fill="#292770" transform="translate(222.81394958496094,91.73930358886719)"/>
<path d="M0 0 C1.49944153 -0.01485695 1.49944153 -0.01485695 3.0291748 -0.03001404 C4.67267662 -0.02326157 4.67267662 -0.02326157 6.34938049 -0.01637268 C8.0814122 -0.02666756 8.0814122 -0.02666756 9.84843445 -0.03717041 C13.6764292 -0.05551526 17.50401711 -0.05158979 21.33204651 -0.0459137 C23.31568455 -0.04932032 25.29932278 -0.05273395 27.28295857 -0.05726677 C33.52112738 -0.07131951 39.75915928 -0.06974478 45.99732971 -0.05836487 C52.43276375 -0.04688451 58.86778102 -0.06095576 65.30316013 -0.08776134 C70.82853266 -0.10991465 76.35377433 -0.11655656 81.87918812 -0.11068493 C85.17921407 -0.10731296 88.47891339 -0.11144938 91.7789135 -0.12693596 C95.45897013 -0.14177148 99.13810326 -0.13122232 102.81813049 -0.11402893 C103.91177414 -0.1236969 105.00541779 -0.13336487 106.13220215 -0.14332581 C107.13464966 -0.13349167 108.13709717 -0.12365753 109.16992188 -0.11352539 C110.03988517 -0.11331611 110.90984846 -0.11310682 111.80617428 -0.1128912 C114.9623185 0.56161231 116.19219415 1.86939054 118.14845276 4.38768005 C118.00051274 8.08618046 117.79039702 9.74573579 115.14845276 12.38768005 C113.03665257 12.64215565 113.03665257 12.64215565 110.37246704 12.64837646 C109.36435471 12.65546127 108.35624237 12.66254608 107.31758118 12.66984558 C106.20739624 12.66736816 105.0972113 12.66489075 103.9533844 12.66233826 C102.78748276 12.66744919 101.62158112 12.67256012 100.42034912 12.67782593 C96.54971749 12.69177524 92.67926285 12.69076114 88.80860901 12.6884613 C86.80518304 12.69136434 84.801757 12.6942715 82.79833215 12.69786805 C76.49648243 12.70897216 70.19469231 12.70939568 63.89283752 12.70335388 C57.38760873 12.69731307 50.88259617 12.70962558 44.37740427 12.73092395 C38.79603286 12.74852702 33.21473035 12.75454335 27.63333219 12.75128621 C24.29816013 12.74947101 20.96317706 12.75343932 17.62802315 12.76600075 C13.90948275 12.77828636 10.19144748 12.77162048 6.47291565 12.75999451 C5.36475494 12.76763824 4.25659424 12.77528198 3.11485291 12.78315735 C2.10392075 12.77614304 1.09298859 12.76912872 0.05142212 12.76190186 C-0.82813613 12.7620696 -1.70769438 12.76223734 -2.61390591 12.76241016 C-5.34344159 12.3053042 -6.23149775 11.60291273 -7.85154724 9.38768005 C-8.49236099 4.26117004 -8.49236099 4.26117004 -6.63133144 1.72441006 C-4.29824984 -0.02788113 -2.90365634 0.00811372 0 0 Z " fill="#29246E" transform="translate(223.85154724121094,164.61231994628906)"/>
<path d="M0 0 C0.9925882 -0.00990463 1.98517639 -0.01980927 3.00784302 -0.03001404 C4.09056488 -0.02551239 5.17328674 -0.02101074 6.28881836 -0.01637268 C8.00643875 -0.02666756 8.00643875 -0.02666756 9.75875854 -0.03717041 C13.54885205 -0.05549183 17.33853377 -0.05159344 21.12866211 -0.0459137 C23.7589532 -0.0504726 26.3892431 -0.05577729 29.01953125 -0.0617981 C34.53413849 -0.07182798 40.04862846 -0.06852711 45.56323242 -0.05836487 C51.9367727 -0.04687931 58.3098924 -0.06096659 64.68337727 -0.08776134 C70.8172785 -0.11258274 76.95098556 -0.11509788 83.08493042 -0.10864449 C85.69408874 -0.10849082 88.303255 -0.11457208 90.91238403 -0.12693596 C94.55641208 -0.1417713 98.19950751 -0.13122289 101.84350586 -0.11402893 C103.46758865 -0.12853088 103.46758865 -0.12853088 105.1244812 -0.14332581 C112.41047822 -0.07113928 112.41047822 -0.07113928 115.74023438 2.25888062 C117.39490408 4.91548086 117.61808743 6.31266755 117.06616211 9.38768005 C115.42577981 11.57999946 114.54089597 12.30814052 111.8129034 12.76520348 C110.92597081 12.76633455 110.03903822 12.76746563 109.12522888 12.76863098 C107.59620941 12.78132019 107.59620941 12.78132019 106.03630066 12.79426575 C104.91878922 12.78819305 103.80127777 12.78212036 102.64990234 12.77586365 C101.47249481 12.78112061 100.29508728 12.78637756 99.08200073 12.79179382 C95.85268371 12.80274453 92.62373482 12.80016513 89.39442325 12.79065657 C86.01742189 12.78306707 82.64044531 12.79010343 79.26344299 12.79481506 C73.59322689 12.80027396 67.923128 12.79307679 62.25292969 12.77879333 C55.69254945 12.76245858 49.13244879 12.76776058 42.57207531 12.78427255 C36.94313104 12.79787431 31.31427106 12.79981378 25.68531567 12.79195654 C22.32170817 12.78727377 18.95823221 12.78667175 15.5946331 12.79656601 C11.8472363 12.8041492 8.10038343 12.79262 4.35302734 12.77586365 C2.67372383 12.78497269 2.67372383 12.78497269 0.960495 12.79426575 C-0.05603149 12.78580627 -1.07255798 12.7773468 -2.11988831 12.76863098 C-3.00644387 12.7674999 -3.89299944 12.76636883 -4.80642033 12.76520348 C-5.50846812 12.64062075 -6.21051592 12.51603802 -6.93383789 12.38768005 C-9.24745591 8.91725302 -9.44404517 7.46933832 -8.93383789 3.38768005 C-6.04212192 0.58330645 -3.96878942 0.01119686 0 0 Z " fill="#292770" transform="translate(224.933837890625,127.61231994628906)"/>
</svg>
