<?xml version="1.0" encoding="UTF-8"?>
<svg version="1.1" xmlns="http://www.w3.org/2000/svg" width="512" height="512">
<path d="M0 0 C34.92551307 -1.98567182 69.79385679 -3.6181266 104.75931498 -4.54481432 C108.9407971 -4.65604725 113.12216101 -4.77124949 117.3034668 -4.88891602 C118.13543699 -4.91226164 118.96740719 -4.93560727 119.8245886 -4.95966034 C131.44936641 -5.29405807 143.04664563 -5.84034289 154.6535433 -6.56241911 C278.05507248 -14.23427937 278.05507248 -14.23427937 321.46064663 23.6112051 C327.21490764 28.72747166 332.65280041 34.14155317 338.0138146 39.66500774 C339.42251599 41.10963386 340.84429922 42.54003616 342.27061343 43.96725726 C370.08370496 71.98920376 380.66741827 98.50396583 380.84979099 137.99283546 C380.61399557 157.80569352 378.3375647 177.48814217 375 197 C376.03173843 197.06416611 377.06347687 197.12833221 378.1264801 197.19444275 C379.49261138 197.28178455 380.85873548 197.36923858 382.22485352 197.45678711 C382.90339638 197.49868919 383.58193924 197.54059128 384.28104401 197.58376312 C407.15761975 199.06459252 427.91849662 210.91891331 443.3515625 227.53125 C461.80347356 249.09018388 466.60943927 273.22242638 465 301 C463.28197026 317.57991063 455.40986936 333.20133956 445 346 C444.52175781 346.6290625 444.04351562 347.258125 443.55078125 347.90625 C430.71428265 364.08980124 408.2590005 375.51063231 388 378 C383.71 378 379.42 378 375 378 C375 402.42 375 426.84 375 452 C359.49 452 343.98 452 328 452 C328 469.16 328 486.32 328 504 C204.25 504 80.5 504 -47 504 C-47 354.84 -47 205.68 -47 52 C-31.49 52 -15.98 52 0 52 C0 34.84 0 17.68 0 0 Z " fill="#E9F5FE" transform="translate(47,4)"/>
<path d="M0 0 C15.51 0 31.02 0 47 0 C47 132 47 264 47 400 C155.24 400 263.48 400 375 400 C375 417.16 375 434.32 375 452 C251.25 452 127.5 452 0 452 C0 302.84 0 153.68 0 0 Z " fill="#006594" transform="translate(0,56)"/>
<path d="M0 0 C16.51464698 16.4625503 26.54121489 37.64047464 26.85742188 61.08447266 C26.81682415 84.96608311 21.81313095 104.61284268 6.4765625 123.46875 C5.99832031 124.0978125 5.52007812 124.726875 5.02734375 125.375 C-7.15552552 140.73449134 -28.93409472 152.56915473 -48.23339844 155.23730469 C-67.6274079 157.19738155 -86.11197292 155.62985906 -103.5234375 146.46875 C-104.87308594 145.80746094 -104.87308594 145.80746094 -106.25 145.1328125 C-113.45961044 141.45692661 -119.47739621 136.82300287 -125.5234375 131.46875 C-126.16023438 130.91574219 -126.79703125 130.36273438 -127.453125 129.79296875 C-142.13921378 116.15588631 -152.45508562 94.54911778 -153.70043945 74.63891602 C-154.23923206 48.99796889 -154.23923206 48.99796889 -149.5234375 36.46875 C-148.96269531 34.91220703 -148.96269531 34.91220703 -148.390625 33.32421875 C-143.36252262 20.3543785 -136.25329243 10.21211862 -126.5234375 0.46875 C-125.7190625 -0.34722656 -124.9146875 -1.16320312 -124.0859375 -2.00390625 C-89.46413762 -35.20211239 -34.07884821 -31.652181 0 0 Z " fill="#E5404D" transform="translate(485.5234375,226.53125)"/>
<path d="M0 0 C6.93 0 13.86 0 21 0 C21 148.83 21 297.66 21 451 C121.98 451 222.96 451 327 451 C327 451.33 327 451.66 327 452 C219.09 452 111.18 452 0 452 C0 302.84 0 153.68 0 0 Z " fill="#CDDAE4" transform="translate(47,4)"/>
<path d="M0 0 C0.84120392 -0.00845947 1.68240784 -0.01691895 2.54910278 -0.02563477 C3.46867767 -0.01956207 4.38825256 -0.01348938 5.33569336 -0.00723267 C6.79215775 -0.0151181 6.79215775 -0.0151181 8.27804565 -0.02316284 C11.49403881 -0.03638825 14.70953874 -0.02761561 17.92553711 -0.01748657 C20.15608821 -0.01950657 22.38663867 -0.02241739 24.6171875 -0.02618408 C29.29457886 -0.03061089 33.9717985 -0.0241648 38.64916992 -0.01016235 C44.65189788 0.00692958 50.65422346 -0.00290968 56.65693665 -0.02087975 C61.26366216 -0.03170788 65.8702919 -0.02827568 70.47702026 -0.02049637 C72.69066414 -0.01849168 74.90431664 -0.02096301 77.11795044 -0.02793503 C80.2089957 -0.03553341 83.29938462 -0.02396761 86.39038086 -0.00723267 C87.30995575 -0.01330536 88.22953064 -0.01937805 89.17697144 -0.02563477 C90.01817535 -0.01717529 90.85937927 -0.00871582 91.72607422 0 C92.82223305 0.00169662 92.82223305 0.00169662 93.9405365 0.00342751 C96.42700141 0.49169718 97.32125482 1.4058366 98.86303711 3.38095093 C99.24398804 5.69564819 99.24398804 5.69564819 99.2512207 8.44735718 C99.26067719 9.47852661 99.27013367 10.50969604 99.27987671 11.57211304 C99.27380402 12.68465454 99.26773132 13.79719604 99.26147461 14.94345093 C99.26434479 16.0862854 99.26721497 17.22911987 99.27017212 18.40658569 C99.27221468 20.82415258 99.26667149 23.24173592 99.25415039 25.65927124 C99.23810032 29.36635177 99.25399352 33.07234193 99.27319336 36.77938843 C99.27121096 39.12574501 99.26736736 41.47210091 99.26147461 43.81845093 C99.2675473 44.93099243 99.27362 46.04353394 99.27987671 47.18978882 C99.26569199 48.73654297 99.26569199 48.73654297 99.2512207 50.31454468 C99.24883392 51.22260864 99.24644714 52.13067261 99.24398804 53.06625366 C98.77742604 55.90113267 98.08751788 56.61585223 95.86303711 58.38095093 C93.92212582 58.75568104 93.92212582 58.75568104 91.68138123 58.75517273 C90.83031799 58.76218704 89.97925476 58.76920135 89.10240173 58.77642822 C88.17190506 58.76878448 87.24140839 58.76114075 86.28271484 58.75326538 C85.30037872 58.75691605 84.3180426 58.76056671 83.30593872 58.764328 C80.0526613 58.77244681 76.79987984 58.75881308 73.54663086 58.74423218 C71.29126486 58.74371377 69.03589839 58.74423071 66.78053284 58.7457428 C62.05186221 58.74565302 57.32336187 58.73521077 52.59472656 58.71713257 C46.52246428 58.69443233 40.45045066 58.69390305 34.37815762 58.70065022 C29.72086869 58.70398557 25.06363684 58.6973685 20.40635872 58.68752098 C18.16677206 58.68366218 15.92717907 58.68252357 13.68758965 58.68410683 C10.56292409 58.68447615 7.43858198 58.67189505 4.31396484 58.65560913 C2.91518349 58.65932526 2.91518349 58.65932526 1.48814392 58.66311646 C0.63990051 58.65603165 -0.2083429 58.64894684 -1.08229065 58.64164734 C-2.19089368 58.63856803 -2.19089368 58.63856803 -3.32189274 58.63542652 C-5.13696289 58.38095093 -5.13696289 58.38095093 -7.13696289 56.38095093 C-7.3976593 54.14854431 -7.3976593 54.14854431 -7.41162109 51.33627319 C-7.42115311 50.28500748 -7.43068512 49.23374176 -7.44050598 48.15061951 C-7.43959457 47.01104294 -7.43868317 45.87146637 -7.43774414 44.69735718 C-7.44202927 43.53091171 -7.44631439 42.36446625 -7.45072937 41.16267395 C-7.45648091 38.6920639 -7.45696691 36.22143692 -7.45263672 33.75082397 C-7.44947879 29.9625265 -7.47291975 26.175011 -7.49829102 22.3868103 C-7.50056404 19.99032692 -7.50126749 17.59384142 -7.50024414 15.19735718 C-7.50945389 14.05980484 -7.51866364 12.9222525 -7.52815247 11.75022888 C-7.52192368 10.695811 -7.51569489 9.64139313 -7.50927734 8.55502319 C-7.50990677 7.62617813 -7.51053619 6.69733307 -7.51118469 5.74034119 C-6.80415862 1.28268955 -4.27985388 0.00662428 0 0 Z " fill="#61B7FE" transform="translate(102.136962890625,248.61904907226563)"/>
<path d="M0 0 C0.84824341 -0.00708481 1.69648682 -0.01416962 2.57043457 -0.02146912 C3.50295547 -0.0189917 4.43547638 -0.01651428 5.39625549 -0.01396179 C6.37683929 -0.01907272 7.3574231 -0.02418365 8.36772156 -0.02944946 C11.6215163 -0.04339305 14.87510037 -0.0423851 18.12892151 -0.04008484 C20.38332194 -0.04396917 22.63772163 -0.04830328 24.89212036 -0.05307007 C29.62252675 -0.06054256 34.35285852 -0.06023356 39.08326721 -0.05497742 C45.15438451 -0.04918165 51.22519684 -0.06611159 57.29626369 -0.08932209 C61.95359085 -0.10403222 66.61084411 -0.10493484 71.26819038 -0.10181236 C73.5069597 -0.10232695 75.74573301 -0.10759033 77.9844799 -0.11762428 C81.11152509 -0.1299185 84.23797038 -0.12323907 87.36500549 -0.11161804 C88.29550217 -0.11926178 89.22599884 -0.12690552 90.18469238 -0.13478088 C91.03575562 -0.12776657 91.88681885 -0.12075226 92.76367188 -0.11352539 C93.50311759 -0.11369313 94.2425633 -0.11386087 95.00441647 -0.1140337 C97.50599133 0.36894325 98.39746832 1.27289389 99.94532776 3.26069641 C100.32627869 5.57539368 100.32627869 5.57539368 100.33351135 8.32710266 C100.34296783 9.35827209 100.35242432 10.38944153 100.36216736 11.45185852 C100.35609467 12.56440002 100.35002197 13.67694153 100.34376526 14.82319641 C100.34663544 15.96603088 100.34950562 17.10886536 100.35246277 18.28633118 C100.35450533 20.70389806 100.34896214 23.1214814 100.33644104 25.53901672 C100.32039097 29.24609726 100.33628417 32.95208741 100.35548401 36.65913391 C100.35350161 39.00549049 100.34965801 41.35184639 100.34376526 43.69819641 C100.34983795 44.81073792 100.35591064 45.92327942 100.36216736 47.0695343 C100.34798264 48.61628845 100.34798264 48.61628845 100.33351135 50.19429016 C100.33112457 51.10235413 100.32873779 52.01041809 100.32627869 52.94599915 C99.85987071 55.77994229 99.16708594 56.49438072 96.94532776 58.26069641 C95.02282715 58.63821983 95.02282715 58.63821983 92.80836487 58.64164734 C91.96716095 58.65010681 91.12595703 58.65856628 90.25926208 58.6672821 C89.33968719 58.66120941 88.4201123 58.65513672 87.47267151 58.64888 C86.50169525 58.65413696 85.53071899 58.65939392 84.53031921 58.66481018 C81.31432606 58.67803558 78.09882613 58.66926295 74.88282776 58.65913391 C72.65227666 58.66115391 70.4217262 58.66406473 68.19117737 58.66783142 C63.513786 58.67225823 58.83656637 58.66581214 54.15919495 58.65180969 C48.15646699 58.63471776 42.15414141 58.64455701 36.15142822 58.66252708 C31.54470271 58.67335521 26.93807297 58.66992302 22.3313446 58.66214371 C20.11770073 58.66013902 17.90404823 58.66261035 15.69041443 58.66958237 C12.59936917 58.67718075 9.50898024 58.66561495 6.41798401 58.64888 C5.03862167 58.65798904 5.03862167 58.65798904 3.63139343 58.6672821 C2.36958755 58.6545929 2.36958755 58.6545929 1.08229065 58.64164734 C0.3515181 58.64051626 -0.37925446 58.63938519 -1.13217163 58.63821983 C-3.61969462 58.14974239 -4.51399738 57.23845084 -6.05467224 55.26069641 C-6.42889404 52.90130615 -6.42889404 52.90130615 -6.42698669 50.08662415 C-6.43321548 49.03220627 -6.43944427 47.97778839 -6.44586182 46.89141846 C-6.43665207 45.75386612 -6.42744232 44.61631378 -6.41795349 43.44429016 C-6.418452 42.27688797 -6.4189505 41.10948578 -6.41946411 39.90670776 C-6.41712244 37.43785399 -6.40738853 34.96899788 -6.39085388 32.50019836 C-6.3672449 28.70986215 -6.37029453 24.92022815 -6.37693787 21.12983704 C-6.37136191 18.73465053 -6.36425256 16.339467 -6.35545349 13.94429016 C-6.3563649 12.80471359 -6.35727631 11.66513702 -6.35821533 10.49102783 C-6.34868332 9.43976212 -6.33915131 8.3884964 -6.32933044 7.30537415 C-6.32472305 6.37732468 -6.32011566 5.44927521 -6.31536865 4.49310303 C-5.8302233 0.33868567 -3.68324331 0.01023074 0 0 Z " fill="#61B7FE" transform="translate(101.05467224121094,56.73930358886719)"/>
<path d="M0 0 C0.84120392 -0.00845947 1.68240784 -0.01691895 2.54910278 -0.02563477 C3.46867767 -0.01956207 4.38825256 -0.01348938 5.33569336 -0.00723267 C6.79215775 -0.0151181 6.79215775 -0.0151181 8.27804565 -0.02316284 C11.49403881 -0.03638825 14.70953874 -0.02761561 17.92553711 -0.01748657 C20.15608821 -0.01950657 22.38663867 -0.02241739 24.6171875 -0.02618408 C29.29457886 -0.03061089 33.9717985 -0.0241648 38.64916992 -0.01016235 C44.65189788 0.00692958 50.65422346 -0.00290968 56.65693665 -0.02087975 C61.26366216 -0.03170788 65.8702919 -0.02827568 70.47702026 -0.02049637 C72.69066414 -0.01849168 74.90431664 -0.02096301 77.11795044 -0.02793503 C80.2089957 -0.03553341 83.29938462 -0.02396761 86.39038086 -0.00723267 C87.30995575 -0.01330536 88.22953064 -0.01937805 89.17697144 -0.02563477 C90.01817535 -0.01717529 90.85937927 -0.00871582 91.72607422 0 C92.82223305 0.00169662 92.82223305 0.00169662 93.9405365 0.00342751 C96.42700141 0.49169718 97.32125482 1.4058366 98.86303711 3.38095093 C99.24398804 5.69564819 99.24398804 5.69564819 99.2512207 8.44735718 C99.26067719 9.47852661 99.27013367 10.50969604 99.27987671 11.57211304 C99.27380402 12.68465454 99.26773132 13.79719604 99.26147461 14.94345093 C99.26434479 16.0862854 99.26721497 17.22911987 99.27017212 18.40658569 C99.27221468 20.82415258 99.26667149 23.24173592 99.25415039 25.65927124 C99.23810032 29.36635177 99.25399352 33.07234193 99.27319336 36.77938843 C99.27121096 39.12574501 99.26736736 41.47210091 99.26147461 43.81845093 C99.2675473 44.93099243 99.27362 46.04353394 99.27987671 47.18978882 C99.26569199 48.73654297 99.26569199 48.73654297 99.2512207 50.31454468 C99.24883392 51.22260864 99.24644714 52.13067261 99.24398804 53.06625366 C98.77741558 55.90119623 98.0872832 56.61550007 95.86303711 58.38095093 C93.92212582 58.75847435 93.92212582 58.75847435 91.68138123 58.76190186 C90.40478638 58.77459106 90.40478638 58.77459106 89.10240173 58.78753662 C88.17190506 58.78146393 87.24140839 58.77539124 86.28271484 58.76913452 C85.30037872 58.77439148 84.3180426 58.77964844 83.30593872 58.7850647 C80.05267529 58.79828941 76.79989943 58.78951838 73.54663086 58.77938843 C71.29126389 58.78140828 69.03589756 58.78431898 66.78053284 58.78808594 C62.05186754 58.79251251 57.32337213 58.78606678 52.59472656 58.77206421 C46.52239957 58.7549625 40.45047005 58.76481787 34.37815762 58.7827816 C29.72086063 58.793602 25.0636585 58.79018127 20.40635872 58.78239822 C18.16676855 58.7803919 15.92716987 58.78287056 13.68758965 58.78983688 C10.5628146 58.7974237 7.43869114 58.78588633 4.31396484 58.76913452 C2.91518349 58.77824356 2.91518349 58.77824356 1.48814392 58.78753662 C0.63990051 58.77907715 -0.2083429 58.77061768 -1.08229065 58.76190186 C-1.82135934 58.76077078 -2.56042803 58.7596397 -3.32189274 58.75847435 C-5.13696289 58.38095093 -5.13696289 58.38095093 -7.13696289 55.38095093 C-7.3976593 53.06625366 -7.3976593 53.06625366 -7.41162109 50.31454468 C-7.42115311 49.28337524 -7.43068512 48.25220581 -7.44050598 47.18978882 C-7.43959457 46.07724731 -7.43868317 44.96470581 -7.43774414 43.81845093 C-7.44202927 42.67561646 -7.44631439 41.53278198 -7.45072937 40.35531616 C-7.45647533 37.93776106 -7.45697099 35.52018866 -7.45263672 33.10263062 C-7.44947541 29.39562644 -7.47293834 25.68941896 -7.49829102 21.98251343 C-7.50056376 19.63616027 -7.50126762 17.28980496 -7.50024414 14.94345093 C-7.51405876 13.27463867 -7.51405876 13.27463867 -7.52815247 11.57211304 C-7.52192368 10.5409436 -7.51569489 9.50977417 -7.50927734 8.44735718 C-7.50990677 7.53929321 -7.51053619 6.63122925 -7.51118469 5.69564819 C-6.79487232 1.26499696 -4.2467083 0.00657298 0 0 Z " fill="#3DB54C" transform="translate(102.136962890625,152.61904907226563)"/>
<path d="M0 0 C1.28715408 -0.00845947 1.28715408 -0.00845947 2.60031128 -0.01708984 C3.54375397 -0.01304138 4.48719666 -0.00899292 5.45922852 -0.00482178 C6.45117218 -0.00832642 7.44311584 -0.01183105 8.46511841 -0.01544189 C11.75619427 -0.0242712 15.04705657 -0.01840579 18.33813477 -0.01165771 C20.61735068 -0.01300402 22.89656632 -0.01494426 25.17578125 -0.01745605 C29.95746591 -0.02040895 34.73907595 -0.01610435 39.52075195 -0.0067749 C45.66141193 0.00461968 51.8018971 -0.00193891 57.94255066 -0.01391983 C62.6504448 -0.02113396 67.35829725 -0.01885256 72.06619263 -0.01366425 C74.33090231 -0.01232651 76.59561573 -0.01397977 78.86032104 -0.01862335 C82.02099694 -0.02368121 85.18138654 -0.01598869 88.34204102 -0.00482178 C89.75720505 -0.01089447 89.75720505 -0.01089447 91.20095825 -0.01708984 C92.48811234 -0.00863037 92.48811234 -0.00863037 93.80126953 0 C94.54901138 0.00075405 95.29675323 0.0015081 96.06715393 0.002285 C97.90063477 0.25396729 97.90063477 0.25396729 99.90063477 2.25396729 C100.15460205 4.49310303 100.15460205 4.49310303 100.15942383 7.31451416 C100.16572815 8.36900757 100.17203247 9.42350098 100.17852783 10.50994873 C100.17447937 11.65266235 100.17043091 12.79537598 100.16625977 13.97271729 C100.16817322 15.14153442 100.17008667 16.31035156 100.17205811 17.5145874 C100.17342103 19.98940241 100.16971718 22.46422455 100.16137695 24.93902588 C100.15067922 28.73817933 100.16126895 32.53685988 100.17407227 36.33599854 C100.17275069 38.73573917 100.17018834 41.1354795 100.16625977 43.53521729 C100.17030823 44.67793091 100.17435669 45.82064453 100.17852783 46.99798584 C100.16907135 48.57972595 100.16907135 48.57972595 100.15942383 50.19342041 C100.15783264 51.12448608 100.15624146 52.05555176 100.15460205 53.01483154 C99.90063477 55.25396729 99.90063477 55.25396729 97.90063477 57.25396729 C96.06715393 57.50564957 96.06715393 57.50564957 93.80126953 57.50793457 C92.51411545 57.51639404 92.51411545 57.51639404 91.20095825 57.52502441 C90.25751556 57.52097595 89.31407288 57.51692749 88.34204102 57.51275635 C86.85412552 57.51801331 86.85412552 57.51801331 85.33615112 57.52337646 C82.04507526 57.53220577 78.75421296 57.52634036 75.46313477 57.51959229 C73.18391885 57.52093859 70.90470321 57.52287883 68.62548828 57.52539062 C63.84380363 57.52834352 59.06219358 57.52403892 54.28051758 57.51470947 C48.1398576 57.5033149 41.99937243 57.50987348 35.85871887 57.5218544 C31.15082473 57.52906853 26.44297228 57.52678713 21.7350769 57.52159882 C19.47036722 57.52026108 17.2056538 57.52191434 14.94094849 57.52655792 C11.78027259 57.53161578 8.61988299 57.52392326 5.45922852 57.51275635 C4.04406448 57.51882904 4.04406448 57.51882904 2.60031128 57.52502441 C1.74220856 57.51938477 0.88410583 57.51374512 0 57.50793457 C-0.74774185 57.50718052 -1.4954837 57.50642647 -2.2658844 57.50564957 C-4.09936523 57.25396729 -4.09936523 57.25396729 -6.09936523 55.25396729 C-6.35333252 53.01483154 -6.35333252 53.01483154 -6.3581543 50.19342041 C-6.36761078 48.6116803 -6.36761078 48.6116803 -6.3772583 46.99798584 C-6.37320984 45.85527222 -6.36916138 44.71255859 -6.36499023 43.53521729 C-6.36690369 42.36640015 -6.36881714 41.19758301 -6.37078857 39.99334717 C-6.37215149 37.51853216 -6.36844765 35.04371002 -6.36010742 32.56890869 C-6.34940969 28.76975524 -6.35999942 24.97107469 -6.37280273 21.17193604 C-6.37148116 18.7721954 -6.36891881 16.37245507 -6.36499023 13.97271729 C-6.3690387 12.83000366 -6.37308716 11.68729004 -6.3772583 10.50994873 C-6.37095398 9.45545532 -6.36464966 8.40096191 -6.3581543 7.31451416 C-6.35656311 6.38344849 -6.35497192 5.45238281 -6.35333252 4.49310303 C-5.87844964 0.30623609 -3.70129569 0.00373253 0 0 Z " fill="#3BB54A" transform="translate(101.099365234375,345.74603271484375)"/>
<path d="M0 0 C7.87560928 6.75052224 7.87560928 6.75052224 10.99278259 9.85906982 C11.70078003 10.56280228 12.40877747 11.26653473 13.13822937 11.99159241 C13.88917374 12.74298996 14.6401181 13.49438751 15.41381836 14.26855469 C16.2243869 15.07576462 17.03495544 15.88297455 17.87008667 16.71464539 C20.52931092 19.36442464 23.18479889 22.01790849 25.83984375 24.671875 C27.69064588 26.51946269 29.54152283 28.36697543 31.39247131 30.2144165 C35.26012707 34.07570062 39.12534915 37.93940987 42.98950195 41.80419922 C47.45949748 46.27479815 51.93507092 50.73975934 56.41322798 55.20218158 C60.72701063 59.50134585 65.03528319 63.80599128 69.34146309 68.11277008 C71.1735782 69.94370145 73.00732346 71.77300307 74.84269524 73.60066986 C77.39718703 76.14543046 79.94534394 78.69636826 82.49194336 81.24902344 C83.25705734 82.00851791 84.02217133 82.76801239 84.81047058 83.55052185 C85.49872925 84.24297501 86.18698792 84.93542816 86.89610291 85.64886475 C87.49908172 86.25129879 88.10206053 86.85373283 88.72331142 87.47442245 C90 89 90 89 90 91 C60.3 91 30.6 91 0 91 C0 60.97 0 30.94 0 0 Z " fill="#D3DDE6" transform="translate(332,4)"/>
<path d="M0 0 C4.21966322 0.51820425 4.91924869 1.23489739 7.5625 4.4375 C8.84939575 7.1285553 8.84939575 7.1285553 9.96923828 10.24633789 C10.39713654 11.42019547 10.82503479 12.59405304 11.26589966 13.80348206 C11.72172299 15.08897428 12.17735506 16.37453434 12.6328125 17.66015625 C13.11779266 19.002599 13.60380595 20.34466892 14.09078979 21.68638611 C15.37581615 25.23501487 16.64749438 28.78828193 17.91619873 32.34277344 C19.41927748 36.54668379 20.93757917 40.74511064 22.45383835 44.94428062 C23.69873573 48.39312394 24.94056263 51.8429995 26.17510986 55.29556274 C28.5644396 61.96851518 30.99480691 68.6203387 33.53417969 75.23779297 C34.00129364 76.46404892 34.46840759 77.69030487 34.94967651 78.95372009 C35.82555645 81.24351261 36.71199712 83.5293057 37.6111145 85.81007385 C39.82601557 91.61818859 41.22616927 96.20925338 40.5625 102.4375 C39 105 39 105 36.5625 106.4375 C33 106.5 33 106.5 29.5625 105.4375 C27.20114824 102.11438744 25.73129762 98.60600168 24.30078125 94.8046875 C23.90439453 93.75152344 23.50800781 92.69835937 23.09960938 91.61328125 C22.69548828 90.52402344 22.29136719 89.43476563 21.875 88.3125 C21.45927734 87.21550781 21.04355469 86.11851562 20.61523438 84.98828125 C20.22271484 83.93769531 19.83019531 82.88710938 19.42578125 81.8046875 C18.88884644 80.36778564 18.88884644 80.36778564 18.34106445 78.90185547 C17.5625 76.4375 17.5625 76.4375 17.5625 73.4375 C6.3425 73.7675 -4.8775 74.0975 -16.4375 74.4375 C-19.52108591 83.46616175 -19.52108591 83.46616175 -22.5690918 92.50683594 C-22.96265869 93.63379883 -23.35622559 94.76076172 -23.76171875 95.921875 C-24.15447998 97.07397461 -24.54724121 98.22607422 -24.9519043 99.41308594 C-26.63502965 102.83963596 -28.26058574 104.3678855 -31.4375 106.4375 C-34 106.9375 -34 106.9375 -36.4375 106.4375 C-38.75 104.875 -38.75 104.875 -40.4375 102.4375 C-41.09269301 96.15452255 -39.25911614 91.30662692 -37.0625 85.546875 C-36.70603897 84.58466034 -36.34957794 83.62244568 -35.98231506 82.631073 C-34.8116363 79.47901905 -33.62492963 76.33327776 -32.4375 73.1875 C-31.62201237 71.00475039 -30.80748839 68.82164052 -29.99389648 66.63818359 C-28.3173544 62.14257253 -26.63474411 57.64929319 -24.94873047 53.15722656 C-22.52849029 46.69726504 -20.15234907 40.22173783 -17.78515625 33.7421875 C-16.70337586 30.79205644 -15.62062881 27.84228264 -14.53735352 24.8927002 C-13.84777696 23.01133605 -13.16058743 21.12909521 -12.47583008 19.24597168 C-11.52423077 16.63239312 -10.56227393 14.02285902 -9.59765625 11.4140625 C-9.32027115 10.64448212 -9.04288605 9.87490173 -8.75709534 9.08200073 C-5.63777829 0.71753542 -5.63777829 0.71753542 0 0 Z " fill="#E9F2FB" transform="translate(406.4375,242.5625)"/>
<path d="M0 0 C-3.53023945 2.35349297 -5.94026768 2.56769372 -10.125 3.1875 C-31.58163314 6.83984986 -50.99018633 18.939383 -64.25 36.1875 C-79.43107943 58.32657418 -85.00280992 83.38095621 -80.4453125 109.84716797 C-76.78168108 127.55873696 -67.73647607 142.40683168 -55 155 C-54.19691406 155.81339844 -53.39382813 156.62679687 -52.56640625 157.46484375 C-40.93551732 168.63737252 -26.98024139 173.88946989 -12 179 C-12 179.33 -12 179.66 -12 180 C-33.20192098 181.63370966 -52.21462478 171.40267708 -68 158 C-83.96854554 144.22644353 -93.93494668 123.64248859 -97 103 C-97.87666279 88.98427803 -97.99306179 75.26587985 -93 62 C-92.43925781 60.44345703 -92.43925781 60.44345703 -91.8671875 58.85546875 C-86.83908512 45.8856285 -79.72985493 35.74336862 -70 26 C-69.195625 25.18402344 -68.39125 24.36804688 -67.5625 23.52734375 C-49.09693511 5.82105373 -24.90615646 -0.19207833 0 0 Z " fill="#D03C47" transform="translate(429,201)"/>
<path d="M0 0 C4.43283582 1.2005597 4.43283582 1.2005597 6 3.8125 C6.625 7 6.625 7 6 10.8125 C4.68182373 12.65603638 4.68182373 12.65603638 2.94824219 14.55517578 C2.31172729 15.25427063 1.6752124 15.95336548 1.01940918 16.67364502 C-2.20039544 20.08389749 -5.47557112 23.43082468 -8.796875 26.7421875 C-9.51232483 27.45859406 -10.22777466 28.17500061 -10.96490479 28.91311646 C-12.46284318 30.41173002 -13.96202371 31.90910298 -15.46240234 33.40527344 C-17.76126017 35.69873373 -20.05467855 37.99753743 -22.34765625 40.296875 C-23.80957496 41.75813359 -25.27180348 43.21908231 -26.734375 44.6796875 C-27.41876648 45.36610321 -28.10315796 46.05251892 -28.80828857 46.75973511 C-29.76508514 47.71180344 -29.76508514 47.71180344 -30.74121094 48.68310547 C-31.29967712 49.24077606 -31.85814331 49.79844666 -32.43353271 50.37301636 C-34.87938614 52.62059984 -36.56910286 53.75776442 -39.890625 54.1796875 C-43.75647142 53.72316795 -44.97881769 52.62498888 -47.75 49.9375 C-49.02423828 48.71740234 -49.02423828 48.71740234 -50.32421875 47.47265625 C-51.20722656 46.59480469 -52.09023437 45.71695313 -53 44.8125 C-53.93457031 43.90371094 -54.86914062 42.99492187 -55.83203125 42.05859375 C-63.87589621 34.15282089 -63.87589621 34.15282089 -64.3125 29.4375 C-64 25.8125 -64 25.8125 -62.3125 23.375 C-59.48214968 21.46260114 -58.36227583 21.35534846 -55 21.8125 C-52.46484375 23.640625 -52.46484375 23.640625 -49.9375 26.0625 C-49.10089844 26.85140625 -48.26429688 27.6403125 -47.40234375 28.453125 C-45.25598528 30.56109331 -43.11988699 32.67792557 -41 34.8125 C-38.06407383 33.48903811 -36.00502534 32.06030174 -33.74780273 29.77148438 C-33.13714462 29.15744751 -32.52648651 28.54341064 -31.89732361 27.9107666 C-30.92527733 26.91853088 -30.92527733 26.91853088 -29.93359375 25.90625 C-29.25829117 25.22574585 -28.58298859 24.5452417 -27.88722229 23.84411621 C-25.73250857 21.67160755 -23.58460142 19.49253021 -21.4375 17.3125 C-19.28597548 15.13334563 -17.13300808 12.95566802 -14.97706604 10.78088379 C-13.63650737 9.4280828 -12.29863101 8.07261736 -10.96372986 6.7142334 C-10.35622391 6.10019653 -9.74871796 5.48615967 -9.12280273 4.85351562 C-8.32482521 4.04315857 -8.32482521 4.04315857 -7.51072693 3.21643066 C-4.90133509 0.79150188 -3.62242284 -0.22640143 0 0 Z " fill="#64B9FF" transform="translate(294,251.1875)"/>
<path d="M0 0 C1.9375 1.0625 1.9375 1.0625 3 3 C3.625 6.1875 3.625 6.1875 3 10 C1.69075012 11.83460999 1.69075012 11.83460999 -0.03588867 13.72680664 C-0.67247406 14.42597198 -1.30905945 15.12513733 -1.9649353 15.8454895 C-5.27269129 19.34739046 -8.63971917 22.78237728 -12.05078125 26.18359375 C-13.16080757 27.29505516 -13.16080757 27.29505516 -14.29325867 28.42897034 C-15.8424716 29.97885859 -17.39292727 31.52750558 -18.94458008 33.07495117 C-21.32685505 35.45182249 -23.70368497 37.83404646 -26.08007812 40.21679688 C-27.5908249 41.72688365 -29.10188141 43.23666062 -30.61328125 44.74609375 C-31.32470779 45.45954453 -32.03613434 46.1729953 -32.76911926 46.9080658 C-33.75606026 47.89027855 -33.75606026 47.89027855 -34.76293945 48.89233398 C-35.34139114 49.46999008 -35.91984283 50.04764618 -36.51582336 50.64280701 C-38.53961567 52.49344707 -39.914662 52.98374514 -42.625 53.5 C-47.83455179 52.72821455 -50.34705039 49.62879787 -54 46 C-55.0480008 44.97768384 -56.09619042 43.95556122 -57.14453125 42.93359375 C-66.90251557 33.34041095 -66.90251557 33.34041095 -67.25 28.5625 C-67 25 -67 25 -65.9375 23.0625 C-62.65815876 21.26415158 -60.69194477 21.39476315 -57 22 C-54.013134 24.02336084 -51.52966496 26.43858192 -49 29 C-48.46632812 29.52078125 -47.93265625 30.0415625 -47.3828125 30.578125 C-46.23902756 31.70252375 -45.11655294 32.84855478 -44 34 C-41.05594663 32.67376757 -38.99518106 31.23786345 -36.73193359 28.94311523 C-36.11804779 28.32585068 -35.50416199 27.70858612 -34.87167358 27.07261658 C-34.22050568 26.40798904 -33.56933777 25.74336151 -32.8984375 25.05859375 C-31.88192612 24.03428001 -31.88192612 24.03428001 -30.84487915 22.98927307 C-28.68344708 20.81004522 -26.52882592 18.62424361 -24.375 16.4375 C-22.21317054 14.2480717 -20.04990831 12.06010899 -17.88369751 9.87501526 C-16.5365137 8.51555439 -15.19201179 7.1534297 -13.85043335 5.78843689 C-12.93906113 4.8672683 -12.93906113 4.8672683 -12.00927734 3.92749023 C-11.47507172 3.38503159 -10.94086609 2.84257294 -10.39047241 2.28367615 C-7.2151704 -0.64774444 -4.16199374 -0.29206974 0 0 Z " fill="#40B64F" transform="translate(297,348)"/>
<path d="M0 0 C3.19789603 0.61009796 4.5965095 0.95798615 6.66943359 3.50927734 C7.28717505 6.77620551 7.4894366 8.37128553 6.66943359 11.50927734 C4.10932738 15.24915172 0.93549318 18.29251432 -2.30712891 21.44287109 C-3.22513275 22.36141373 -4.1431366 23.27995636 -5.08895874 24.22633362 C-7.028833 26.16446924 -8.98159142 28.0882337 -10.9453125 30.00219727 C-13.45600281 32.45047667 -15.93690307 34.92652132 -18.40941811 37.41328335 C-20.77885307 39.79068671 -23.16836926 42.1473808 -25.55712891 44.50537109 C-26.44485992 45.3938121 -27.33259094 46.28225311 -28.2472229 47.19761658 C-29.0876413 48.01259109 -29.92805969 48.82756561 -30.79394531 49.66723633 C-31.52674713 50.38701157 -32.25954895 51.1067868 -33.01455688 51.84837341 C-35.81850195 53.85919562 -37.91398577 54.26671923 -41.33056641 54.50927734 C-43.17431641 53.56787109 -43.17431641 53.56787109 -44.83056641 51.94677734 C-45.49056641 51.30482422 -46.15056641 50.66287109 -46.83056641 50.00146484 C-47.65556641 49.17904297 -48.48056641 48.35662109 -49.33056641 47.50927734 C-50.53644361 46.40502667 -51.74499585 45.30369326 -52.95556641 44.20458984 C-54.24874079 42.99526259 -55.54039686 41.7843098 -56.83056641 40.57177734 C-57.46671875 39.99935303 -58.10287109 39.42692871 -58.75830078 38.8371582 C-61.93849754 35.76490432 -63.73651837 33.73806115 -63.83447266 29.19677734 C-63.33056641 25.50927734 -63.33056641 25.50927734 -61.76806641 23.44677734 C-58.19663627 22.07315037 -56.03357127 22.58352613 -52.33056641 23.50927734 C-49.88082781 25.26171472 -47.91630987 27.3505251 -45.89306641 29.57177734 C-45.35230469 30.13960937 -44.81154297 30.70744141 -44.25439453 31.29248047 C-42.93229904 32.68477572 -41.62940964 34.09526574 -40.33056641 35.50927734 C-37.28717158 34.15375468 -35.2460199 32.64940419 -32.94238281 30.25292969 C-32.30136627 29.59239594 -31.66034973 28.93186218 -30.99990845 28.25131226 C-30.3175412 27.53980011 -29.63517395 26.82828796 -28.93212891 26.09521484 C-27.46917927 24.59724059 -26.00561875 23.09986275 -24.54150391 21.60302734 C-22.2417323 19.24125932 -19.9469068 16.87526737 -17.66259766 14.49853516 C-15.45338857 12.20472211 -13.22576713 9.93017568 -10.99462891 7.65771484 C-10.31631012 6.94215424 -9.63799133 6.22659363 -8.93911743 5.48934937 C-4.1330457 0.63198456 -4.1330457 0.63198456 0 0 Z " fill="#61B7FF" transform="translate(293.33056640625,58.49072265625)"/>
<path d="M0 0 C3.0649884 2.07093811 3.86713324 3.40973013 4.68017578 7.02172852 C4.49626612 13.11158765 -1.14858478 17.11909691 -5.1953125 21.08984375 C-6.14610696 22.04281587 -7.09578778 22.99690028 -8.04440308 23.95204163 C-10.0325856 25.94602002 -12.03256827 27.92709369 -14.04199219 29.8996582 C-16.61330028 32.42545552 -19.15446891 34.97925498 -21.68770027 37.54317379 C-23.64300886 39.51630037 -25.61261355 41.47463242 -27.58691025 43.42874336 C-28.98707718 44.81925147 -30.37573706 46.22131564 -31.76419067 47.6235199 C-32.62462982 48.46181839 -33.48506897 49.30011688 -34.37158203 50.16381836 C-35.12214874 50.90659531 -35.87271545 51.64937225 -36.64602661 52.41465759 C-39.65200603 54.43910981 -41.44288879 54.43731073 -45 54 C-48.52837246 51.54308259 -51.42155887 48.48264521 -54.42480469 45.41235352 C-55.86963868 43.94295249 -57.34576646 42.51149905 -58.828125 41.08007812 C-59.74851563 40.15517578 -60.66890625 39.23027344 -61.6171875 38.27734375 C-62.45878418 37.43421631 -63.30038086 36.59108887 -64.16748047 35.72241211 C-66.50850584 32.24455787 -66.45955119 30.11391912 -66 26 C-64.4375 23.5 -64.4375 23.5 -62 22 C-57.5680739 22.03728784 -54.89170167 22.73274748 -51.69140625 25.72265625 C-50.63261762 26.82090285 -49.58975881 27.93470645 -48.5625 29.0625 C-48.02173828 29.63033203 -47.48097656 30.19816406 -46.92382812 30.78320312 C-45.60173263 32.17549838 -44.29884324 33.5859884 -43 35 C-40.00906654 33.65791709 -37.93810219 32.18024138 -35.64013672 29.85131836 C-35.00623016 29.21403305 -34.37232361 28.57674774 -33.71920776 27.92015076 C-33.04616608 27.23364944 -32.37312439 26.54714813 -31.6796875 25.83984375 C-30.9798172 25.13477188 -30.2799469 24.42970001 -29.55886841 23.70326233 C-27.32611018 21.4527047 -25.10015735 19.19557104 -22.875 16.9375 C-20.64183957 14.67674302 -18.40724714 12.41744978 -16.16970825 10.161026 C-14.77801112 8.75704949 -13.38899556 7.35040892 -12.00289917 5.94090271 C-11.06149582 4.98970299 -11.06149582 4.98970299 -10.10107422 4.01928711 C-9.5491037 3.45906357 -8.99713318 2.89884003 -8.42843628 2.32164001 C-5.73147784 -0.17368179 -3.5907984 -0.427476 0 0 Z " fill="#3DB54C" transform="translate(296,155)"/>
<path d="M0 0 C3.0625 0.5625 3.0625 0.5625 5.9375 2.3125 C9.13305903 7.19982558 8.47019141 11.88199975 8.0625 17.5625 C8.87074219 17.50449219 9.67898438 17.44648438 10.51171875 17.38671875 C19.25303024 17.01766459 19.25303024 17.01766459 23.3125 19.75 C25.22153797 22.81809673 25.87342266 24.04850182 25.0625 27.5625 C23.19222515 29.80682982 21.67363596 31.25693202 19.0625 32.5625 C17.18870395 32.63283769 15.31248898 32.6468022 13.4375 32.625 C12.43460937 32.61597656 11.43171875 32.60695313 10.3984375 32.59765625 C9.62757813 32.58605469 8.85671875 32.57445312 8.0625 32.5625 C8.08570313 33.31015625 8.10890625 34.0578125 8.1328125 34.828125 C8.15085937 35.81296875 8.16890625 36.7978125 8.1875 37.8125 C8.21070313 38.78703125 8.23390625 39.7615625 8.2578125 40.765625 C8.05679463 43.64420091 7.65411629 45.18034582 6.0625 47.5625 C3.0625 49.5625 3.0625 49.5625 -0.4375 49.4375 C-3.9375 48.5625 -3.9375 48.5625 -5.64453125 46.8984375 C-7.31987711 43.87167973 -7.23708437 41.74975396 -7.125 38.3125 C-7.09792969 37.23484375 -7.07085937 36.1571875 -7.04296875 35.046875 C-7.00816406 34.22703125 -6.97335937 33.4071875 -6.9375 32.5625 C-7.74574219 32.62050781 -8.55398438 32.67851562 -9.38671875 32.73828125 C-18.10566637 33.10639122 -18.10566637 33.10639122 -22.1875 30.4375 C-24.24978623 27.04945834 -24.68273902 25.45430376 -23.9375 21.5625 C-22.32421875 19.39453125 -22.32421875 19.39453125 -19.9375 17.5625 C-16.703125 17.171875 -16.703125 17.171875 -13.1875 17.3125 C-12.01703125 17.34859375 -10.8465625 17.3846875 -9.640625 17.421875 C-8.74859375 17.46828125 -7.8565625 17.5146875 -6.9375 17.5625 C-6.98390625 16.67046875 -7.0303125 15.7784375 -7.078125 14.859375 C-7.13226563 13.10367188 -7.13226563 13.10367188 -7.1875 11.3125 C-7.23390625 10.15234375 -7.2803125 8.9921875 -7.328125 7.796875 C-6.9375 4.5625 -6.9375 4.5625 -5.10546875 2.17578125 C-2.9375 0.5625 -2.9375 0.5625 0 0 Z " fill="#E9EFF8" transform="translate(452.9375,234.4375)"/>
<path d="M0 0 C1.38294718 0.01329757 2.76582404 0.03715018 4.1484375 0.0703125 C4.85484375 0.07933594 5.56125 0.08835937 6.2890625 0.09765625 C8.03399848 0.12123647 9.77876045 0.15710789 11.5234375 0.1953125 C11.52010658 1.22221695 11.52010658 1.22221695 11.51670837 2.26986694 C11.49463997 9.37456746 11.47952436 16.4792583 11.46850586 23.58398438 C11.46346708 26.23795975 11.45663599 28.89193234 11.44799805 31.54589844 C11.43591261 35.35352261 11.43020475 39.16111019 11.42578125 42.96875 C11.42061996 44.16148529 11.41545868 45.35422058 11.41014099 46.58309937 C11.41006546 47.68408966 11.40998993 48.78507996 11.40991211 49.91943359 C11.40658119 51.3783754 11.40658119 51.3783754 11.40318298 52.86679077 C11.36886946 55.21991638 11.36886946 55.21991638 12.5234375 57.1953125 C9.89816561 57.24913356 7.27399037 57.28889563 4.6484375 57.3203125 C3.90207031 57.33707031 3.15570313 57.35382813 2.38671875 57.37109375 C0.43149289 57.3887084 -1.52398271 57.29851439 -3.4765625 57.1953125 C-6.03577858 54.63609642 -5.7292812 53.68677532 -5.73535156 50.13476562 C-5.74480804 48.55302551 -5.74480804 48.55302551 -5.75445557 46.93933105 C-5.7504071 45.79661743 -5.74635864 44.65390381 -5.7421875 43.4765625 C-5.74410095 42.30774536 -5.7460144 41.13892822 -5.74798584 39.93469238 C-5.74934876 37.45987737 -5.74564491 34.98505524 -5.73730469 32.51025391 C-5.72660696 28.71110045 -5.73719668 24.91241991 -5.75 21.11328125 C-5.74867842 18.71354062 -5.74611607 16.31380028 -5.7421875 13.9140625 C-5.74623596 12.77134888 -5.75028442 11.62863525 -5.75445557 10.45129395 C-5.74815125 9.39680054 -5.74184692 8.34230713 -5.73535156 7.25585938 C-5.73376038 6.3247937 -5.73216919 5.39372803 -5.73052979 4.43444824 C-5.27867315 0.45059521 -3.82516557 0.21489694 0 0 Z " fill="#36A445" transform="translate(100.4765625,345.8046875)"/>
<path d="M0 0 C1.38294718 0.01329757 2.76582404 0.03715018 4.1484375 0.0703125 C4.85484375 0.07933594 5.56125 0.08835938 6.2890625 0.09765625 C8.03399848 0.12123647 9.77876045 0.15710789 11.5234375 0.1953125 C11.52010658 1.22221695 11.52010658 1.22221695 11.51670837 2.26986694 C11.49463997 9.37456746 11.47952436 16.4792583 11.46850586 23.58398438 C11.46346708 26.23795975 11.45663599 28.89193234 11.44799805 31.54589844 C11.43591261 35.35352261 11.43020475 39.16111019 11.42578125 42.96875 C11.42061996 44.16148529 11.41545868 45.35422058 11.41014099 46.58309937 C11.41006546 47.68408966 11.40998993 48.78507996 11.40991211 49.91943359 C11.40658119 51.3783754 11.40658119 51.3783754 11.40318298 52.86679077 C11.36886946 55.21991638 11.36886946 55.21991638 12.5234375 57.1953125 C9.89816561 57.24913356 7.27399037 57.28889563 4.6484375 57.3203125 C3.90207031 57.33707031 3.15570313 57.35382813 2.38671875 57.37109375 C0.43149289 57.3887084 -1.52398271 57.29851439 -3.4765625 57.1953125 C-6.03577858 54.63609642 -5.7292812 53.68677532 -5.73535156 50.13476562 C-5.74480804 48.55302551 -5.74480804 48.55302551 -5.75445557 46.93933105 C-5.7504071 45.79661743 -5.74635864 44.65390381 -5.7421875 43.4765625 C-5.74410095 42.30774536 -5.7460144 41.13892822 -5.74798584 39.93469238 C-5.74934876 37.45987737 -5.74564491 34.98505524 -5.73730469 32.51025391 C-5.72660696 28.71110045 -5.73719668 24.91241991 -5.75 21.11328125 C-5.74867842 18.71354062 -5.74611607 16.31380028 -5.7421875 13.9140625 C-5.74623596 12.77134888 -5.75028442 11.62863525 -5.75445557 10.45129395 C-5.74815125 9.39680054 -5.74184692 8.34230713 -5.73535156 7.25585938 C-5.73376038 6.3247937 -5.73216919 5.39372803 -5.73052979 4.43444824 C-5.27867315 0.45059521 -3.82516557 0.21489694 0 0 Z " fill="#57A6E6" transform="translate(100.4765625,249.8046875)"/>
<path d="M0 0 C1.47668858 0.0133035 2.95331108 0.03716415 4.4296875 0.0703125 C5.18378906 0.07933594 5.93789062 0.08835938 6.71484375 0.09765625 C8.57826004 0.1212438 10.44151343 0.15711531 12.3046875 0.1953125 C11.9746875 0.8553125 11.6446875 1.5153125 11.3046875 2.1953125 C11.21396463 3.9520048 11.18714606 5.7121626 11.19116211 7.47119141 C11.19127541 9.12267685 11.19127541 9.12267685 11.19139099 10.80752563 C11.19655228 12.00026093 11.20171356 13.19299622 11.20703125 14.421875 C11.20915367 16.24880386 11.20915367 16.24880386 11.21131897 18.11264038 C11.21693111 22.0152224 11.22948571 25.91774773 11.2421875 29.8203125 C11.24720093 32.46093667 11.25176411 35.10156174 11.25585938 37.7421875 C11.26690449 44.22658195 11.28365448 50.71094318 11.3046875 57.1953125 C8.84606349 57.24915098 6.388612 57.28890288 3.9296875 57.3203125 C3.23101562 57.33707031 2.53234375 57.35382813 1.8125 57.37109375 C-0.02428736 57.38875517 -1.86133213 57.29834511 -3.6953125 57.1953125 C-6.25452858 54.63609642 -5.9480312 53.68677532 -5.95410156 50.13476562 C-5.96355804 48.55302551 -5.96355804 48.55302551 -5.97320557 46.93933105 C-5.9691571 45.79661743 -5.96510864 44.65390381 -5.9609375 43.4765625 C-5.96285095 42.30774536 -5.9647644 41.13892822 -5.96673584 39.93469238 C-5.96809876 37.45987737 -5.96439491 34.98505524 -5.95605469 32.51025391 C-5.94535696 28.71110045 -5.95594668 24.91241991 -5.96875 21.11328125 C-5.96742842 18.71354062 -5.96486607 16.31380028 -5.9609375 13.9140625 C-5.96498596 12.77134888 -5.96903442 11.62863525 -5.97320557 10.45129395 C-5.96690125 9.39680054 -5.96059692 8.34230713 -5.95410156 7.25585938 C-5.95251038 6.3247937 -5.95091919 5.39372803 -5.94927979 4.43444824 C-5.4830937 0.32425769 -3.93441485 0.20795004 0 0 Z " fill="#57A6E6" transform="translate(100.6953125,56.8046875)"/>
<path d="M0 0 C5.28 0 10.56 0 16 0 C16 18.48 16 36.96 16 56 C10.72 56 5.44 56 0 56 C-1.24737486 53.50525029 -1.12696326 51.82222396 -1.12939453 49.03125 C-1.13254669 47.99677734 -1.13569885 46.96230469 -1.13894653 45.89648438 C-1.1369223 44.77564453 -1.13489807 43.65480469 -1.1328125 42.5 C-1.13376923 41.35337891 -1.13472595 40.20675781 -1.13571167 39.02539062 C-1.13639311 36.59765569 -1.13454135 34.16991895 -1.13037109 31.7421875 C-1.12502237 28.01558357 -1.13031735 24.28910016 -1.13671875 20.5625 C-1.13605796 18.20833307 -1.13477679 15.85416621 -1.1328125 13.5 C-1.13483673 12.37916016 -1.13686096 11.25832031 -1.13894653 10.10351562 C-1.13579437 9.06904297 -1.13264221 8.03457031 -1.12939453 6.96875 C-1.12859894 6.05544922 -1.12780334 5.14214844 -1.12698364 4.20117188 C-1 2 -1 2 0 0 Z " fill="#36A445" transform="translate(96,154)"/>
<path d="M0 0 C3.08715014 1.54357507 3.25148064 3.95315147 4.3828125 7.15234375 C4.60194305 7.76767471 4.82107361 8.38300568 5.04684448 9.01698303 C5.50911069 10.31959725 5.96785003 11.62346761 6.42333984 12.9284668 C7.12187277 14.92854592 7.83143782 16.92443462 8.54296875 18.91992188 C12 28.69534136 12 28.69534136 12 31 C4.41 31 -3.18 31 -11 31 C-3.30068337 8.93849658 -3.30068337 8.93849658 0 0 Z " fill="#E64653" transform="translate(406,271)"/>
</svg>
