<?xml version="1.0" encoding="UTF-8"?>
<!DOCTYPE svg PUBLIC "-//W3C//DTD SVG 1.1//EN" "http://www.w3.org/Graphics/SVG/1.1/DTD/svg11.dtd">
<svg xmlns="http://www.w3.org/2000/svg" version="1.1" width="512px" height="512px" style="shape-rendering:geometricPrecision; text-rendering:geometricPrecision; image-rendering:optimizeQuality; fill-rule:evenodd; clip-rule:evenodd" xmlns:xlink="http://www.w3.org/1999/xlink">
<g><path style="opacity:0.998" fill="#0099fe" d="M 126.5,15.5 C 126.168,53.0037 126.502,90.3371 127.5,127.5C 149.833,150.167 172.167,172.833 194.5,195.5C 146.142,207.102 106.309,193.435 75,154.5C 54.8066,124.809 49.14,92.4757 58,57.5C 60.8195,49.2103 64.3195,41.2103 68.5,33.5C 68.3764,32.8933 68.0431,32.56 67.5,32.5C 85.3,20.7957 104.967,15.129 126.5,15.5 Z"/></g>
<g><path style="opacity:1" fill="#fad042" d="M 126.5,15.5 C 175.554,17.1017 210.387,40.1017 231,84.5C 236.415,98.3255 239.249,112.659 239.5,127.5C 231.5,127.5 223.5,127.5 215.5,127.5C 212.345,80.1756 187.678,51.009 141.5,40C 136.882,39.006 132.215,38.506 127.5,38.5C 127.5,68.1667 127.5,97.8333 127.5,127.5C 126.502,90.3371 126.168,53.0037 126.5,15.5 Z"/></g>
<g><path style="opacity:0.999" fill="#008be6" d="M 67.5,32.5 C 68.0431,32.56 68.3764,32.8933 68.5,33.5C 64.3195,41.2103 60.8195,49.2103 58,57.5C 49.14,92.4757 54.8066,124.809 75,154.5C 106.309,193.435 146.142,207.102 194.5,195.5C 198.5,199.167 202.5,202.833 206.5,206.5C 180.583,232.308 149.25,243.141 112.5,239C 65.3985,231.231 34.2318,204.731 19,159.5C 7.43615,112.868 19.2695,73.3678 54.5,41C 58.7336,37.9178 63.0669,35.0845 67.5,32.5 Z"/></g>
<g><path style="opacity:1" fill="#fec200" d="M 215.5,127.5 C 186.167,127.5 156.833,127.5 127.5,127.5C 127.5,97.8333 127.5,68.1667 127.5,38.5C 132.215,38.506 136.882,39.006 141.5,40C 187.678,51.009 212.345,80.1756 215.5,127.5 Z"/></g>
<g><path style="opacity:0.993" fill="#5c5a67" d="M 127.5,127.5 C 156.833,127.5 186.167,127.5 215.5,127.5C 223.5,127.5 231.5,127.5 239.5,127.5C 239.161,158.486 228.161,184.82 206.5,206.5C 202.5,202.833 198.5,199.167 194.5,195.5C 172.167,172.833 149.833,150.167 127.5,127.5 Z"/></g>
<g><path style="opacity:0.981" fill="#fdc100" d="M 472.5,180.5 C 449.133,183.795 438.466,173.795 440.5,150.5C 455.937,145.3 466.771,150.3 473,165.5C 473.726,170.552 473.559,175.552 472.5,180.5 Z"/></g>
<g><path style="opacity:0.98" fill="#fdc100" d="M 334.5,181.5 C 312.87,185.364 302.037,176.364 302,154.5C 302.513,153.473 303.013,152.473 303.5,151.5C 319.009,147.509 329.509,153.175 335,168.5C 335.629,172.871 335.463,177.204 334.5,181.5 Z"/></g>
<g><path style="opacity:0.992" fill="#e5af00" d="M 440.5,150.5 C 438.466,173.795 449.133,183.795 472.5,180.5C 466.344,193.243 456.344,197.91 442.5,194.5C 437.643,191.992 433.309,188.659 429.5,184.5C 425.147,175.22 425.647,166.22 431,157.5C 433.501,154.152 436.668,151.818 440.5,150.5 Z"/></g>
<g><path style="opacity:1" fill="#e4ae01" d="M 303.5,151.5 C 303.013,152.473 302.513,153.473 302,154.5C 302.037,176.364 312.87,185.364 334.5,181.5C 334.167,182.167 333.833,182.833 333.5,183.5C 330.542,188.126 326.876,192.126 322.5,195.5C 315.485,198.103 308.485,198.103 301.5,195.5C 299.747,193.777 297.747,192.277 295.5,191C 293.636,188.312 291.636,185.812 289.5,183.5C 285.137,168.891 289.637,157.891 303,150.5C 303.399,150.728 303.565,151.062 303.5,151.5 Z"/></g>
<g><path style="opacity:0.963" fill="#5c5a67" d="M 333.5,183.5 C 334.794,184.29 335.961,185.29 337,186.5C 347.362,202.581 358.196,218.248 369.5,233.5C 365.167,237.167 361.167,241.167 357.5,245.5C 345.846,228.871 334.179,212.204 322.5,195.5C 326.876,192.126 330.542,188.126 333.5,183.5 Z"/></g>
<g><path style="opacity:0.964" fill="#5d5a67" d="M 429.5,184.5 C 433.309,188.659 437.643,191.992 442.5,194.5C 429.32,211.504 415.653,228.17 401.5,244.5C 398.126,240.124 394.126,236.458 389.5,233.5C 402.833,217.167 416.167,200.833 429.5,184.5 Z"/></g>
<g><path style="opacity:0.956" fill="#5d5a67" d="M 289.5,183.5 C 291.636,185.812 293.636,188.312 295.5,191C 297.747,192.277 299.747,193.777 301.5,195.5C 288.167,211.833 274.833,228.167 261.5,244.5C 257.479,240.481 253.146,236.814 248.5,233.5C 262.167,216.833 275.833,200.167 289.5,183.5 Z"/></g>
<g><path style="opacity:0.999" fill="#e5411f" d="M 468.5,227.5 C 468.333,309.501 468.5,391.501 469,473.5C 469.5,474 470,474.5 470.5,475C 479.16,475.5 487.827,475.666 496.5,475.5C 496.666,481.509 496.499,487.509 496,493.5C 495.5,494 495,494.5 494.5,495C 479.833,495.667 465.167,495.667 450.5,495C 449.874,494.25 449.374,493.416 449,492.5C 448.333,405.167 448.333,317.833 449,230.5C 449.5,229.333 450.333,228.5 451.5,228C 457.157,227.501 462.824,227.334 468.5,227.5 Z"/></g>
<g><path style="opacity:0.979" fill="#fe4722" d="M 468.5,227.5 C 477.173,227.334 485.84,227.5 494.5,228C 495,228.5 495.5,229 496,229.5C 496.5,311.499 496.667,393.499 496.5,475.5C 487.827,475.666 479.16,475.5 470.5,475C 470,474.5 469.5,474 469,473.5C 468.5,391.501 468.333,309.501 468.5,227.5 Z"/></g>
<g><path style="opacity:0.985" fill="#fdc100" d="M 389.5,233.5 C 394.126,236.458 398.126,240.124 401.5,244.5C 404.41,252.103 404.077,259.437 400.5,266.5C 400.53,265.503 400.03,264.836 399,264.5C 384.372,266.679 374.705,260.679 370,246.5C 369.15,241.979 369.65,237.645 371.5,233.5C 377.397,230.876 383.397,230.876 389.5,233.5 Z"/></g>
<g><path style="opacity:0.988" fill="#fdc100" d="M 248.5,233.5 C 253.146,236.814 257.479,240.481 261.5,244.5C 264.084,251.633 264.084,258.633 261.5,265.5C 253.996,267.47 246.663,266.303 239.5,262C 236.238,259.408 233.738,256.241 232,252.5C 231.317,246.479 230.151,240.812 228.5,235.5C 234.797,232.381 241.463,231.714 248.5,233.5 Z"/></g>
<g><path style="opacity:0.986" fill="#e5af00" d="M 369.5,233.5 C 370.167,233.5 370.833,233.5 371.5,233.5C 369.65,237.645 369.15,241.979 370,246.5C 374.705,260.679 384.372,266.679 399,264.5C 400.03,264.836 400.53,265.503 400.5,266.5C 394.128,277.025 384.794,280.858 372.5,278C 358.494,271.482 353.494,260.648 357.5,245.5C 361.167,241.167 365.167,237.167 369.5,233.5 Z"/></g>
<g><path style="opacity:0.982" fill="#e5af00" d="M 228.5,235.5 C 230.151,240.812 231.317,246.479 232,252.5C 233.738,256.241 236.238,259.408 239.5,262C 246.663,266.303 253.996,267.47 261.5,265.5C 255.806,277.179 246.473,281.679 233.5,279C 216.77,271.487 212.27,259.32 220,242.5C 222.416,239.577 225.25,237.243 228.5,235.5 Z"/></g>
<g><path style="opacity:0.997" fill="#e6411f" d="M 313.5,305.5 C 313.333,361.501 313.5,417.501 314,473.5C 314.5,474 315,474.5 315.5,475C 324.16,475.5 332.827,475.666 341.5,475.5C 341.666,481.509 341.499,487.509 341,493.5C 340.5,494 340,494.5 339.5,495C 324.833,495.667 310.167,495.667 295.5,495C 295,494.5 294.5,494 294,493.5C 293.333,431.5 293.333,369.5 294,307.5C 294.5,307 295,306.5 295.5,306C 301.491,305.501 307.491,305.334 313.5,305.5 Z"/></g>
<g><path style="opacity:0.975" fill="#fe4722" d="M 313.5,305.5 C 322.173,305.334 330.84,305.5 339.5,306C 340,306.5 340.5,307 341,307.5C 341.5,363.499 341.667,419.499 341.5,475.5C 332.827,475.666 324.16,475.5 315.5,475C 315,474.5 314.5,474 314,473.5C 313.5,417.501 313.333,361.501 313.5,305.5 Z"/></g>
<g><path style="opacity:0.979" fill="#e5af00" d="M 29.5,356.5 C 29.9925,373.164 37.6592,385.331 52.5,393C 57.9753,395.128 63.642,396.295 69.5,396.5C 69.6655,400.514 69.4988,404.514 69,408.5C 68.5,409 68,409.5 67.5,410C 50.1571,410.833 32.8237,410.666 15.5,409.5C 14.3479,392.544 14.1812,375.544 15,358.5C 15.5,358 16,357.5 16.5,357C 20.8206,356.501 25.1539,356.334 29.5,356.5 Z"/></g>
<g><path style="opacity:0.991" fill="#fdc100" d="M 29.5,356.5 C 42.1711,356.333 54.8377,356.5 67.5,357C 68,357.5 68.5,358 69,358.5C 69.4999,371.162 69.6666,383.829 69.5,396.5C 63.642,396.295 57.9753,395.128 52.5,393C 37.6592,385.331 29.9925,373.164 29.5,356.5 Z"/></g>
<g><path style="opacity:0.962" fill="#848691" d="M 91.5,361.5 C 117.835,361.333 144.169,361.5 170.5,362C 173.516,363.529 174.849,366.029 174.5,369.5C 174.664,373.177 172.997,375.677 169.5,377C 143.833,377.667 118.167,377.667 92.5,377C 87.9315,374.459 86.4315,370.625 88,365.5C 89.3756,364.295 90.5423,362.962 91.5,361.5 Z"/></g>
<g><path style="opacity:0.985" fill="#848792" d="M 93.5,389.5 C 110.837,389.333 128.17,389.5 145.5,390C 150.924,392.017 152.758,395.85 151,401.5C 149.891,403.815 148.057,405.315 145.5,406C 128.167,406.667 110.833,406.667 93.5,406C 89.3339,405.015 87.3339,402.348 87.5,398C 87.435,393.608 89.435,390.774 93.5,389.5 Z"/></g>
<g><path style="opacity:0.995" fill="#008be6" d="M 236.5,398.5 C 236.333,423.836 236.5,449.169 237,474.5C 245.749,475.484 254.582,475.817 263.5,475.5C 263.666,481.509 263.499,487.509 263,493.5C 262.5,494 262,494.5 261.5,495C 246.592,495.823 231.759,495.657 217,494.5C 216.333,462.833 216.333,431.167 217,399.5C 223.41,398.522 229.91,398.189 236.5,398.5 Z"/></g>
<g><path style="opacity:0.985" fill="#0099fe" d="M 236.5,398.5 C 244.84,398.334 253.173,398.5 261.5,399C 262,399.5 262.5,400 263,400.5C 263.5,425.498 263.667,450.498 263.5,475.5C 254.582,475.817 245.749,475.484 237,474.5C 236.5,449.169 236.333,423.836 236.5,398.5 Z"/></g>
<g><path style="opacity:0.989" fill="#009afe" d="M 391.5,429.5 C 400.418,429.183 409.251,429.516 418,430.5C 418.5,445.496 418.667,460.496 418.5,475.5C 410.16,475.666 401.827,475.5 393.5,475C 393,474.5 392.5,474 392,473.5C 391.5,458.837 391.333,444.17 391.5,429.5 Z"/></g>
<g><path style="opacity:0.988" fill="#0289e3" d="M 391.5,429.5 C 391.333,444.17 391.5,458.837 392,473.5C 392.5,474 393,474.5 393.5,475C 401.827,475.5 410.16,475.666 418.5,475.5C 418.811,482.09 418.478,488.59 417.5,495C 402.489,495.833 387.489,495.666 372.5,494.5C 371.345,473.21 371.178,451.877 372,430.5C 372.75,429.874 373.584,429.374 374.5,429C 380.349,428.182 386.015,428.348 391.5,429.5 Z"/></g>
<g><path style="opacity:0.989" fill="#e64120" d="M 29.5,441.5 C 31.75,465.75 45.0833,479.083 69.5,481.5C 69.6655,485.514 69.4988,489.514 69,493.5C 68.5,494 68,494.5 67.5,495C 50.5,495.667 33.5,495.667 16.5,495C 16,494.5 15.5,494 15,493.5C 14.3333,476.833 14.3333,460.167 15,443.5C 19.5184,441.593 24.3517,440.926 29.5,441.5 Z"/></g>
<g><path style="opacity:0.978" fill="#fe4723" d="M 29.5,441.5 C 42.1711,441.333 54.8377,441.5 67.5,442C 68,442.5 68.5,443 69,443.5C 69.4999,456.162 69.6666,468.829 69.5,481.5C 45.0833,479.083 31.75,465.75 29.5,441.5 Z"/></g>
<g><path style="opacity:0.953" fill="#848791" d="M 93.5,445.5 C 118.502,445.333 143.502,445.5 168.5,446C 172.666,446.985 174.666,449.652 174.5,454C 174.6,457.804 172.934,460.471 169.5,462C 144.167,462.667 118.833,462.667 93.5,462C 89.3339,461.015 87.3339,458.348 87.5,454C 87.435,449.608 89.435,446.774 93.5,445.5 Z"/></g>
<g><path style="opacity:0.96" fill="#848792" d="M 92.5,474.5 C 110.503,474.333 128.503,474.5 146.5,475C 151.069,477.541 152.569,481.375 151,486.5C 149.363,488.81 147.196,490.31 144.5,491C 127.833,491.667 111.167,491.667 94.5,491C 87.5372,488.72 85.7038,484.22 89,477.5C 90.1451,476.364 91.3117,475.364 92.5,474.5 Z"/></g>
</svg>
