<?xml version="1.0" encoding="UTF-8"?>
<svg version="1.1" xmlns="http://www.w3.org/2000/svg" width="512" height="512">
<path d="M0 0 C1.23430254 -0.00445784 2.46860508 -0.00891569 3.74031073 -0.01350862 C5.11227136 -0.01341932 6.48423198 -0.01322948 7.85619259 -0.01294994 C9.31198552 -0.01624956 10.76777753 -0.01997534 12.22356838 -0.02409142 C16.22945275 -0.03410849 20.23532214 -0.03782775 24.24121726 -0.04048073 C28.5597409 -0.04438468 32.87825269 -0.053963 37.19676876 -0.0626936 C47.62905834 -0.08245598 58.06134888 -0.09252417 68.49365249 -0.10142139 C73.4069695 -0.10580487 78.32028542 -0.11117154 83.23360157 -0.11641026 C99.56779316 -0.1334227 115.90198408 -0.14791657 132.23618317 -0.155159 C136.47499308 -0.15706888 140.71380299 -0.15898921 144.95261288 -0.16094494 C146.53290819 -0.16167055 146.53290819 -0.16167055 148.14512866 -0.16241082 C165.20910657 -0.17070994 182.27301435 -0.19604481 199.33696163 -0.22852562 C216.85798507 -0.2616044 234.37897287 -0.27960852 251.90002769 -0.28280324 C261.73668258 -0.28496763 271.57323521 -0.29370589 281.40985966 -0.31926441 C289.78781703 -0.34098262 298.16564732 -0.34901632 306.54362965 -0.33929763 C310.81640679 -0.33475611 315.08892177 -0.33663041 319.36166286 -0.35605907 C323.27833989 -0.37371443 327.19456398 -0.37267407 331.11124598 -0.35716178 C332.52316219 -0.35478928 333.93510996 -0.35909067 335.34697802 -0.37099043 C347.36965228 -0.46599145 357.18742901 1.33772834 366.06467342 9.84906483 C372.88746991 17.86379563 374.16454187 26.13947087 374.13024044 36.27736378 C374.13152208 37.66197089 374.13152208 37.66197089 374.13282961 39.07454985 C374.13447708 42.1684346 374.12897498 45.26226515 374.12351131 48.35614491 C374.12322926 50.57360298 374.12338754 52.79106115 374.12395382 55.00851917 C374.12424108 61.03076646 374.11835587 67.05299389 374.11137986 73.07523656 C374.10513445 79.36798359 374.10454158 85.66073107 374.10335445 91.95348072 C374.10059812 102.51625373 374.09434917 113.07902022 374.08542538 123.64178944 C374.07624406 134.52069532 374.06916675 145.39959921 374.06491756 156.27850819 C374.06452348 157.28464877 374.06452348 157.28464877 374.06412143 158.31111542 C374.06281638 161.67617827 374.06155268 165.04124113 374.06030953 168.406304 C374.04985308 196.31561594 374.03151194 224.22491533 374.00998592 252.13422108 C399.08998592 252.13422108 424.16998592 252.13422108 450.00998592 252.13422108 C450.00998592 328.03422108 450.00998592 403.93422108 450.00998592 482.13422108 C352.98998592 482.13422108 255.96998592 482.13422108 156.00998592 482.13422108 C156.00998592 457.05422108 156.00998592 431.97422108 156.00998592 406.13422108 C144.50381405 406.16902576 132.99764217 406.20383045 121.14279842 406.23968983 C113.85112973 406.25501935 106.55947274 406.26958556 99.26779842 406.28070545 C87.69549215 406.29849525 76.12325149 406.3193908 64.55100155 406.36053944 C56.12239273 406.39049555 47.69383723 406.40980882 39.26517665 406.41648656 C34.80466064 406.42038831 30.34429709 406.42952126 25.88383007 406.45141125 C21.67972868 406.47187465 17.47584161 406.47803509 13.27169514 406.47354412 C11.73427889 406.47436493 10.19685497 406.48027168 8.659482 406.4918375 C-3.47132473 406.5785711 -13.84484504 405.82704842 -22.99001408 397.13422108 C-31.6811677 387.79270902 -32.43539426 378.04339744 -32.37769413 365.68674183 C-32.3818718 364.22663046 -32.38735169 362.76652235 -32.39401394 361.30642021 C-32.40843055 357.31176874 -32.40423573 353.31732426 -32.39684713 349.32266164 C-32.39210835 345.00762114 -32.4046316 340.69262496 -32.41486454 336.37759876 C-32.4320441 327.93084865 -32.43289428 319.48417296 -32.42765164 311.03740992 C-32.42360705 304.17033868 -32.42505693 297.30328941 -32.43039989 290.43621922 C-32.43114832 289.4581367 -32.43189674 288.48005418 -32.43266784 287.4723328 C-32.43419935 285.48523164 -32.4357377 283.49813049 -32.43728281 281.51102935 C-32.45100486 262.884155 -32.44557228 244.25732267 -32.4340976 225.63044928 C-32.42416606 208.59911366 -32.43710505 191.56788669 -32.46103179 174.53656782 C-32.48542928 157.03797645 -32.49502902 139.53943567 -32.48837906 122.04082763 C-32.48488822 112.22102662 -32.48710997 102.40130916 -32.50463009 92.58152103 C-32.5193602 84.22196943 -32.51997693 75.8625602 -32.50255918 67.50301136 C-32.49405339 63.240336 -32.49188925 58.9779149 -32.50721073 54.71525288 C-32.52108051 50.80801057 -32.51626563 46.90123981 -32.4969715 42.99402462 C-32.49321815 41.58562946 -32.49611421 40.17719633 -32.50658315 38.76883508 C-32.59447317 26.03283979 -30.40292148 16.55853075 -21.43532658 7.23578358 C-15.20747936 1.88341648 -8.06406258 0.01350625 0 0 Z " fill="#E1D8DF" transform="translate(46.99001407623291,14.865778923034668)"/>
<path d="M0 0 C0 75.9 0 151.8 0 230 C-97.02 230 -194.04 230 -294 230 C-294 142.31724527 -294 142.31724527 -293.79807091 115.39890957 C-293.76806013 111.31406933 -293.74126218 107.22920741 -293.71398926 103.14434814 C-293.6629125 95.55722213 -293.60933196 87.97011644 -293.5546174 80.38301587 C-293.49201328 71.6825218 -293.43255747 62.98200686 -293.37324238 54.28148985 C-293.25209726 36.52096965 -293.12740046 18.76047642 -293 1 C-266.01929908 0.86735588 -239.03858821 0.73691168 -212.05786514 0.60884857 C-199.5205054 0.5492931 -186.98314937 0.48910792 -174.44580078 0.42724609 C-163.47416591 0.37311163 -152.50252527 0.32035579 -141.53087687 0.26903296 C-135.76157948 0.24200322 -129.99228623 0.21443624 -124.22299957 0.18519592 C-82.81448346 -0.02243786 -41.41008513 0 0 0 Z " fill="#0E4B5C" transform="translate(497,267)"/>
<path d="M0 0 C112.86 0 225.72 0 342 0 C342 39.93 342 79.86 342 121 C229.14 121 116.28 121 0 121 C0 81.07 0 41.14 0 0 Z " fill="#FEBF40" transform="translate(47,118)"/>
<path d="M0 0 C1.23430254 -0.00445784 2.46860508 -0.00891569 3.74031073 -0.01350862 C5.11227136 -0.01341932 6.48423198 -0.01322948 7.85619259 -0.01294994 C9.31198552 -0.01624956 10.76777753 -0.01997534 12.22356838 -0.02409142 C16.22945275 -0.03410849 20.23532214 -0.03782775 24.24121726 -0.04048073 C28.5597409 -0.04438468 32.87825269 -0.053963 37.19676876 -0.0626936 C47.62905834 -0.08245598 58.06134888 -0.09252417 68.49365249 -0.10142139 C73.4069695 -0.10580487 78.32028542 -0.11117154 83.23360157 -0.11641026 C99.56779316 -0.1334227 115.90198408 -0.14791657 132.23618317 -0.155159 C136.47499308 -0.15706888 140.71380299 -0.15898921 144.95261288 -0.16094494 C146.53290819 -0.16167055 146.53290819 -0.16167055 148.14512866 -0.16241082 C165.20910657 -0.17070994 182.27301435 -0.19604481 199.33696163 -0.22852562 C216.85798507 -0.2616044 234.37897287 -0.27960852 251.90002769 -0.28280324 C261.73668258 -0.28496763 271.57323521 -0.29370589 281.40985966 -0.31926441 C289.78781703 -0.34098262 298.16564732 -0.34901632 306.54362965 -0.33929763 C310.81640679 -0.33475611 315.08892177 -0.33663041 319.36166286 -0.35605907 C323.27833989 -0.37371443 327.19456398 -0.37267407 331.11124598 -0.35716178 C332.52316219 -0.35478928 333.93510996 -0.35909067 335.34697802 -0.37099043 C347.36965228 -0.46599145 357.18742901 1.33772834 366.06467342 9.84906483 C380.46651575 26.76689165 374.00998592 52.28061515 374.00998592 72.13422108 C240.02998592 72.13422108 106.04998592 72.13422108 -31.99001408 72.13422108 C-31.99001408 18.2084785 -31.99001408 18.2084785 -21.43532658 7.23578358 C-15.20747936 1.88341648 -8.06406258 0.01350625 0 0 Z " fill="#1D8FC7" transform="translate(46.99001407623291,14.865778923034668)"/>
<path d="M0 0 C75.9 0 151.8 0 230 0 C230 54.45 230 108.9 230 165 C226.93407956 161.16759945 224.13078552 157.33349056 221.4375 153.25 C221.00622803 152.59950684 220.57495605 151.94901367 220.13061523 151.27880859 C215.49459121 144.26847977 210.93525613 137.2084977 206.38232422 130.14404297 C204.13357578 126.65613961 201.87943112 123.17173207 199.625 119.6875 C198.95223022 118.64746826 198.95223022 118.64746826 198.26586914 117.58642578 C194.1388559 111.20904292 189.99817305 104.84057467 185.85620117 98.47290039 C181.76005202 92.17409923 177.67539941 85.86794353 173.6015625 79.5546875 C173.18519531 78.91015625 172.76882813 78.265625 172.33984375 77.6015625 C171.75178955 76.68938965 171.75178955 76.68938965 171.15185547 75.75878906 C170.02395225 74.03657313 168.85952544 72.3435162 167.69140625 70.6484375 C166 68 166 68 166 66 C162.54811741 69.14935805 160.19749353 72.65255886 157.8125 76.625 C153.02195762 84.45112425 148.03116632 92.14004748 143 99.8125 C142.61929352 100.39356506 142.23858704 100.97463013 141.84634399 101.57330322 C135.83751932 110.74372102 135.83751932 110.74372102 133 115 C128.90289782 113.63429927 127.84684173 110.91960999 125.75 107.375 C124.85778198 105.90744531 123.96309942 104.4413871 123.06640625 102.9765625 C122.5780127 102.17766602 122.08961914 101.37876953 121.58642578 100.55566406 C118.69837423 95.90313657 115.68867941 91.33004073 112.6875 86.75 C112.0495752 85.77474365 111.41165039 84.7994873 110.75439453 83.79467773 C109.46570355 81.82462671 108.17664292 79.85481745 106.88720703 77.88525391 C103.9585658 73.40780473 101.04107593 68.92313889 98.125 64.4375 C97.32908447 63.2153479 97.32908447 63.2153479 96.51708984 61.96850586 C94.07766537 58.21851108 91.65169724 54.46142053 89.26171875 50.6796875 C88.8445459 50.02170166 88.42737305 49.36371582 87.99755859 48.68579102 C86.89661196 46.94546067 85.80157444 45.20139601 84.70703125 43.45703125 C83.23335569 40.91693456 83.23335569 40.91693456 81 40 C80.77183594 40.66515625 80.54367187 41.3303125 80.30859375 42.015625 C78.61409365 45.88009688 76.38673054 49.23790094 74.0625 52.75 C73.06368607 54.27596573 72.06499145 55.80200957 71.06640625 57.328125 C70.55609863 58.10478516 70.04579102 58.88144531 69.52001953 59.68164062 C67.16292121 63.27672666 64.83209905 66.88866924 62.5 70.5 C61.58086423 71.92066031 60.66159309 73.34123305 59.7421875 74.76171875 C57.93432906 77.55562347 56.12707712 80.34991907 54.3203125 83.14453125 C48.83912124 91.62125727 43.34418153 100.0889204 37.84082031 108.55126953 C34.34610803 113.92607481 30.85711001 119.30452196 27.375 124.6875 C26.70706421 125.71979736 26.70706421 125.71979736 26.02563477 126.77294922 C23.75512877 130.28300196 21.48727918 133.79474236 19.22265625 137.30859375 C14.63995664 144.41498284 10.03721214 151.50795912 5.375 158.5625 C4.94888428 159.21234863 4.52276855 159.86219727 4.08374023 160.53173828 C3.08252354 162.03923447 2.04513728 163.52261458 1 165 C0.67 165 0.34 165 0 165 C0 110.55 0 56.1 0 0 Z " fill="#1C8FC6" transform="translate(235,299)"/>
<path d="M0 0 C3.72741435 1.24247145 4.14856798 2.36855915 6.1953125 5.65234375 C6.82010498 6.64339111 7.44489746 7.63443848 8.08862305 8.65551758 C8.76062744 9.73857178 9.43263184 10.82162598 10.125 11.9375 C11.19861237 13.64588518 12.27550035 15.35217509 13.35264587 17.05833435 C14.10050683 18.24311872 14.84745036 19.42848265 15.59352112 20.61439514 C19.54981699 26.89648027 23.61313274 33.10634737 27.6875 39.3125 C29.09776938 41.46476963 30.50792714 43.6171124 31.91796875 45.76953125 C32.59778809 46.80674316 33.27760742 47.84395508 33.97802734 48.91259766 C37.15937569 53.77028072 40.33185532 58.63369774 43.5 63.5 C44.04615967 64.33700439 44.59231934 65.17400879 45.1550293 66.03637695 C45.65043213 66.79781006 46.14583496 67.55924316 46.65625 68.34375 C47.08744141 69.00568359 47.51863281 69.66761719 47.96289062 70.34960938 C49 72 49 72 50 74 C50.66 74 51.32 74 52 74 C53.4875297 71.84229903 54.84656818 69.68520067 56.1875 67.4375 C60.58539672 60.22983593 65.12778229 53.12838678 69.75 46.0625 C70.37543701 45.104646 71.00087402 44.14679199 71.64526367 43.15991211 C72.84961593 41.31829075 74.05694432 39.47861142 75.26757812 37.64111328 C76.42874639 35.87088804 77.57841068 34.09306654 78.71679688 32.30810547 C79.24853516 31.4832666 79.78027344 30.65842773 80.328125 29.80859375 C80.79637695 29.07310303 81.26462891 28.3376123 81.74707031 27.57983398 C82.16053711 27.05848877 82.57400391 26.53714355 83 26 C83.66 26 84.32 26 85 26 C86.77670487 28.59167845 88.4315419 31.19259844 90.0625 33.875 C91.14376349 35.62107513 92.22722171 37.36579245 93.3125 39.109375 C93.90160156 40.05619141 94.49070312 41.00300781 95.09765625 41.97851562 C98.51521314 47.40660649 102.0419142 52.76341503 105.5625 58.125 C107.0276642 60.35916503 108.49231197 62.59366821 109.95703125 64.828125 C110.65135254 65.88708984 111.34567383 66.94605469 112.06103516 68.03710938 C114.63761877 71.97433158 117.19754565 75.92210507 119.75 79.875 C123.10216843 85.06606863 126.46111799 90.25258341 129.83032227 95.43261719 C130.93300991 97.12816672 132.03507301 98.8241226 133.13647461 100.52050781 C135.8370499 104.679483 138.54520762 108.83309827 141.26953125 112.9765625 C141.78257812 113.7603125 142.295625 114.5440625 142.82421875 115.3515625 C143.79581745 116.8357369 144.77092568 118.31762142 145.75 119.796875 C149 124.77435248 149 124.77435248 149 127 C73.1 127 -2.8 127 -81 127 C-79.3044859 122.76121475 -77.4272625 119.44668237 -74.875 115.75 C-70.27567588 108.97073872 -65.83791337 102.09730205 -61.4375 95.1875 C-54.3428612 84.06137436 -47.14270532 73.00947421 -39.91015625 61.97265625 C-35.3343363 54.98932226 -30.79666451 47.98175105 -26.26953125 40.96679688 C-24.05690599 37.53892974 -21.84100918 34.11318014 -19.625 30.6875 C-19.18317383 30.00413574 -18.74134766 29.32077148 -18.28613281 28.61669922 C-15.68215082 24.59143143 -13.07066194 20.57115565 -10.453125 16.5546875 C-9.56052979 15.18437378 -9.56052979 15.18437378 -8.64990234 13.78637695 C-7.48448381 11.99785225 -6.31817104 10.20990987 -5.15087891 8.42260742 C-4.62413574 7.61412354 -4.09739258 6.80563965 -3.5546875 5.97265625 C-3.08530762 5.25343994 -2.61592773 4.53422363 -2.13232422 3.79321289 C-0.95909633 2.00103596 -0.95909633 2.00103596 0 0 Z " fill="#FEBF40" transform="translate(316,339)"/>
<path d="M0 0 C39.93 0 79.86 0 121 0 C121 39.93 121 79.86 121 121 C81.07 121 41.14 121 0 121 C0 81.07 0 41.14 0 0 Z " fill="#FF7146" transform="translate(47,268)"/>
<path d="M0 0 C76.89 0 153.78 0 233 0 C233 5.28 233 10.56 233 16 C161.39 16 89.78 16 16 16 C16 66.49 16 116.98 16 169 C10.72 169 5.44 169 0 169 C0 113.23 0 57.46 0 0 Z " fill="#CCC6CD" transform="translate(188,252)"/>
<path d="M0 0 C0.66 0 1.32 0 2 0 C3.77670487 2.59167845 5.4315419 5.19259844 7.0625 7.875 C8.14376349 9.62107513 9.22722171 11.36579245 10.3125 13.109375 C10.90160156 14.05619141 11.49070312 15.00300781 12.09765625 15.97851562 C15.51521314 21.40660649 19.0419142 26.76341503 22.5625 32.125 C24.0276642 34.35916503 25.49231197 36.59366821 26.95703125 38.828125 C27.65135254 39.88708984 28.34567383 40.94605469 29.06103516 42.03710938 C31.63761877 45.97433158 34.19754565 49.92210507 36.75 53.875 C40.10216843 59.06606863 43.46111799 64.25258341 46.83032227 69.43261719 C47.93300991 71.12816672 49.03507301 72.8241226 50.13647461 74.52050781 C52.8370499 78.679483 55.54520762 82.83309827 58.26953125 86.9765625 C58.78257812 87.7603125 59.295625 88.5440625 59.82421875 89.3515625 C60.79581745 90.8357369 61.77092568 92.31762142 62.75 93.796875 C66 98.77435248 66 98.77435248 66 101 C-9.9 101 -85.8 101 -164 101 C-163.505 100.01 -163.505 100.01 -163 99 C-109.54 99 -56.08 99 -1 99 C-9.42606362 86.08003578 -17.85235151 73.16042839 -26.29296875 60.25 C-28.66855852 56.57102595 -30.86865289 52.82523396 -33 49 C-32.56171875 48.5889502 -32.1234375 48.17790039 -31.671875 47.75439453 C-29.92106395 45.91716786 -28.62148765 44.06348729 -27.25 41.9296875 C-26.72929932 41.12378174 -26.20859863 40.31787598 -25.67211914 39.48754883 C-25.12031982 38.62540771 -24.56852051 37.7632666 -24 36.875 C-23.42693115 35.98643311 -22.8538623 35.09786621 -22.26342773 34.18237305 C-21.08148314 32.34928948 -19.90107198 30.5152163 -18.72216797 28.68017578 C-14.87974978 22.70029672 -11.01399903 16.73549436 -7.14550781 10.77246094 C-6.10843607 9.16778471 -5.08099078 7.55689717 -4.0546875 5.9453125 C-3.52101563 5.11773437 -2.98734375 4.29015625 -2.4375 3.4375 C-2.00308594 2.75558594 -1.56867188 2.07367188 -1.12109375 1.37109375 C-0.75113281 0.91863281 -0.38117188 0.46617187 0 0 Z " fill="#DFAA3B" transform="translate(399,365)"/>
<path d="M0 0 C9.59013204 5.57224798 14.62758828 12.98240942 17.82421875 23.51171875 C20.1647768 33.03666354 17.97764358 42.66968251 13.01171875 51.10546875 C6.72047596 59.64255565 -1.09304665 65.02086789 -11.4453125 67.484375 C-21.82089583 68.81527443 -30.78639701 66.38836105 -39.2578125 60.296875 C-45.71771889 54.90013746 -51.40296126 46.89544469 -52.77929688 38.43017578 C-53.71322453 26.64068093 -52.06816581 17.65711736 -44.6171875 8.15234375 C-33.09888495 -4.46628445 -15.19573597 -7.33019242 0 0 Z " fill="#134D5B" transform="translate(251.4453125,146.515625)"/>
<path d="M0 0 C1.76537109 -0.00580078 1.76537109 -0.00580078 3.56640625 -0.01171875 C4.79746094 -0.00011719 6.02851562 0.01148438 7.296875 0.0234375 C8.51246094 0.01183594 9.72804688 0.00023437 10.98046875 -0.01171875 C18.96361135 0.0143984 24.46247829 0.39754723 30.734375 5.6484375 C35.34717171 11.13392548 37.64054941 14.94099486 37.3203125 22.109375 C36.89594856 25.66190742 36.04600753 28.96391942 35.046875 32.3984375 C35.76875 32.8728125 36.490625 33.3471875 37.234375 33.8359375 C42.22235437 38.38054092 45.29923482 43.56315192 45.671875 50.3984375 C45.3094225 57.04685184 42.31193518 62.13337732 37.671875 66.7734375 C31.86069296 70.37083591 27.11421281 71.86181275 20.28515625 71.83203125 C19.57207809 71.8372731 18.85899994 71.84251495 18.12431335 71.84791565 C16.62935684 71.85429468 15.13434986 71.85305269 13.6394043 71.84448242 C11.35440489 71.83591887 9.07186589 71.86487078 6.78710938 71.89648438 C5.32812574 71.89809541 3.86913771 71.89752073 2.41015625 71.89453125 C1.09313721 71.89638428 -0.22388184 71.8982373 -1.58081055 71.90014648 C-5.59714429 71.30262489 -6.50945998 70.56778382 -8.953125 67.3984375 C-9.45433044 64.50791931 -9.45433044 64.50791931 -9.45483398 61.11694336 C-9.46421494 59.84560043 -9.47359589 58.57425751 -9.48326111 57.26438904 C-9.47278389 55.88067958 -9.46141503 54.49697662 -9.44921875 53.11328125 C-9.44937376 51.69128851 -9.45086303 50.26929535 -9.45362854 48.8473053 C-9.45501175 45.87058787 -9.44246693 42.89435274 -9.41967773 39.91772461 C-9.39126673 36.10199447 -9.39403809 32.28706394 -9.40676785 28.47127438 C-9.41372136 25.53643459 -9.40594008 22.60177975 -9.39351082 19.66696358 C-9.38899489 18.25995149 -9.38866077 16.85291957 -9.39257622 15.44590569 C-9.39548551 13.48074956 -9.37683185 11.51559711 -9.35717773 9.55053711 C-9.35177475 8.43231064 -9.34637177 7.31408417 -9.34080505 6.16197205 C-8.953125 3.3984375 -8.953125 3.3984375 -7.59712219 1.53819275 C-5.10207418 -0.19158154 -3.00561554 0.00949713 0 0 Z " fill="#134D5B" transform="translate(98.953125,142.6015625)"/>
<path d="M0 0 C2.5441518 1.35871518 4.6501203 2.66238938 6.94921875 4.34765625 C8.26946331 5.27179123 9.59028301 6.195105 10.91162109 7.11767578 C11.58561951 7.59569641 12.25961792 8.07371704 12.95404053 8.56622314 C16.23896029 10.86824427 19.59968849 13.05174632 22.95703125 15.24609375 C24.26679203 16.11054684 25.57603815 16.97578022 26.88476562 17.84179688 C28.8730796 19.15699019 30.86250497 20.47030885 32.85571289 21.77807617 C34.83059312 23.07454255 36.80048175 24.37829437 38.76953125 25.68359375 C39.66778374 26.26952553 39.66778374 26.26952553 40.58418274 26.86729431 C43.41614937 28.75462629 45.0819603 30.12294045 47 33 C47.30780931 36.139655 47.36264717 37.26188644 46 40 C44.0456543 41.73999023 44.0456543 41.73999023 41.44921875 43.55859375 C40.45559326 44.2554126 39.46196777 44.95223145 38.43823242 45.67016602 C31.84999613 50.15952934 25.17966258 54.52341846 18.5 58.875 C17.03368311 59.83307159 15.56753621 60.79140338 14.1015625 61.75 C11.4366002 63.49234348 8.77057574 65.23303769 6.10351562 66.97216797 C4.06291361 68.30549399 2.02819233 69.64787178 0 71 C-6.1723476 71.55110246 -6.1723476 71.55110246 -8.69448853 69.8717041 C-10.59381618 67.14864925 -10.38126755 65.04067642 -10.38818359 61.74023438 C-10.39764008 60.44879517 -10.40709656 59.15735596 -10.4168396 57.82678223 C-10.41146992 56.41576837 -10.40531697 55.0047573 -10.3984375 53.59375 C-10.40045835 52.14790703 -10.40336988 50.70206506 -10.40713501 49.25622559 C-10.41155789 46.22654513 -10.40512877 43.19713007 -10.39111328 40.16748047 C-10.37402105 36.28337224 -10.38386248 32.39988588 -10.40183067 28.51580048 C-10.4126697 25.53036816 -10.40922171 22.54508336 -10.4014473 19.55964661 C-10.3994456 18.12750678 -10.40190353 16.69535357 -10.40888596 15.26322937 C-10.41650144 13.26207738 -10.40283662 11.26087846 -10.38818359 9.25976562 C-10.38579681 8.12075806 -10.38341003 6.98175049 -10.38095093 5.80822754 C-10 3 -10 3 -8.67906189 1.13746643 C-5.75671849 -0.84225066 -3.42245564 -0.41947215 0 0 Z " fill="#FFFDFD" transform="translate(89,293)"/>
<path d="M0 0 C1.30582031 -0.00515625 2.61164063 -0.0103125 3.95703125 -0.015625 C7.1875 0.25 7.1875 0.25 9.1875 2.25 C9.74154065 7.45798215 9.74154065 7.45798215 8.0234375 9.9140625 C5.48953644 11.75787987 3.60981459 11.61980877 0.5 11.6875 C-7.09130983 12.17283103 -12.04066369 14.00865898 -17.1875 19.6875 C-22.07805067 25.57528586 -22.23012481 31.36576647 -22.14453125 38.7890625 C-21.69192882 43.50677722 -20.30009352 46.25477404 -17.8125 50.25 C-17.4825 51.24 -17.1525 52.23 -16.8125 53.25 C-15.06382517 54.33431094 -15.06382517 54.33431094 -12.8125 55.25 C-11.9875 55.78625 -11.1625 56.3225 -10.3125 56.875 C-4.24351607 59.25924369 1.84419144 59.47079317 8.01171875 57.21875 C14.28351746 53.84379105 17.44110424 49.75462154 20.1875 43.25 C19.06730469 43.29640625 17.94710937 43.3428125 16.79296875 43.390625 C15.32033915 43.42814423 13.84768073 43.46454423 12.375 43.5 C11.63701172 43.53351563 10.89902344 43.56703125 10.13867188 43.6015625 C4.68700978 43.70023512 4.68700978 43.70023512 2.16796875 41.4296875 C0.77710648 38.33765106 1.21423436 36.4478728 2.1875 33.25 C6.84811389 30.14292407 11.64308512 30.88141535 17.125 30.875 C18.22263672 30.85050781 19.32027344 30.82601562 20.45117188 30.80078125 C22.03575195 30.79498047 22.03575195 30.79498047 23.65234375 30.7890625 C24.617771 30.78084473 25.58319824 30.77262695 26.57788086 30.76416016 C29.91795985 31.38599168 31.10375753 32.62244786 33.1875 35.25 C34.2879606 43.09078179 30.74546622 51.7554556 26.203125 57.9609375 C21.77788361 63.164411 17.65081711 66.94836327 11.1875 69.25 C10.094375 69.6625 9.00125 70.075 7.875 70.5 C-2.08630021 72.52602716 -9.90531927 71.22682639 -18.8125 66.25 C-26.24809931 61.31194095 -31.45058366 54.91627951 -33.8125 46.25 C-35.07480348 36.42450267 -35.85013383 24.77216146 -30.29296875 16.1484375 C-29.80441406 15.52195313 -29.31585938 14.89546875 -28.8125 14.25 C-28.35488281 13.60289062 -27.89726562 12.95578125 -27.42578125 12.2890625 C-20.49979879 3.29477295 -11.1833061 -0.04459943 0 0 Z " fill="#134D5B" transform="translate(312.8125,142.75)"/>
<path d="M0 0 C6.56592497 3.63969384 11.47784572 8.79966438 13.8125 16 C14.77622328 23.39601589 13.76787734 29.65091534 9.8125 36 C7.3125 38.875 7.3125 38.875 4.8125 41 C4.173125 41.556875 3.53375 42.11375 2.875 42.6875 C-3.04260702 46.45324992 -9.3631292 46.75826342 -16.1875 46 C-24.18587448 43.79835685 -29.13470979 37.57582811 -33.125 30.625 C-35.11801972 23.82528567 -35.09017568 18.2577288 -32.125 11.75 C-25.51322154 -0.11395177 -12.76247287 -5.7411732 0 0 Z " fill="#FBBE40" transform="translate(244.1875,156)"/>
<path d="M0 0 C1.66621399 1.18086243 1.66621399 1.18086243 3 3 C3.36076355 5.48674011 3.36076355 5.48674011 3.34057617 8.48120117 C3.34034958 9.60213669 3.34012299 10.7230722 3.33988953 11.87797546 C3.32440567 13.08742325 3.30892181 14.29687103 3.29296875 15.54296875 C3.28872391 16.78170242 3.28447906 18.0204361 3.28010559 19.29670715 C3.26614733 22.58649001 3.23920213 25.87583203 3.20599365 29.16546631 C3.17527933 32.52366746 3.16159739 35.88193318 3.14648438 39.24023438 C3.11337359 45.82699574 3.06314257 52.4134618 3 59 C3.85754883 58.98428955 4.71509766 58.9685791 5.59863281 58.95239258 C8.78920247 58.90117577 11.97956215 58.86360688 15.17041016 58.83520508 C16.54971218 58.82014578 17.92896653 58.79969387 19.30810547 58.77368164 C21.29373403 58.73717585 23.27971618 58.72185147 25.265625 58.70703125 C26.45961914 58.6913208 27.65361328 58.67561035 28.88378906 58.65942383 C32.23493371 59.02567632 33.57585392 59.7253954 36 62 C35.6875 65.375 35.6875 65.375 35 69 C31.21456909 71.52362061 28.14317968 71.32343398 23.75390625 71.3359375 C22.94638412 71.3425943 22.138862 71.3492511 21.30686951 71.35610962 C19.59970374 71.36623016 17.89249847 71.37092682 16.18530273 71.37060547 C13.57534547 71.37497848 10.96707989 71.41130127 8.35742188 71.44921875 C6.69792245 71.45508713 5.03841499 71.45905638 3.37890625 71.4609375 C2.59963272 71.47530853 1.82035919 71.48967957 1.01747131 71.50448608 C-2.31646276 71.47641404 -4.48731567 71.38056868 -7.20632935 69.36222839 C-9.52867278 66.30374852 -9.50114206 64.53634262 -9.50170898 60.71850586 C-9.51108994 59.44716293 -9.52047089 58.17582001 -9.53013611 56.86595154 C-9.51965889 55.48224208 -9.50829003 54.09853912 -9.49609375 52.71484375 C-9.49624876 51.29285101 -9.49773803 49.87085785 -9.50050354 48.4488678 C-9.50188675 45.47215037 -9.48934193 42.49591524 -9.46655273 39.51928711 C-9.43814173 35.70355697 -9.44091309 31.88862644 -9.45364285 28.07283688 C-9.46059636 25.13799709 -9.45281508 22.20334225 -9.44038582 19.26852608 C-9.43586989 17.86151399 -9.43553577 16.45448207 -9.43945122 15.04746819 C-9.44236051 13.08231206 -9.42370685 11.11715961 -9.40405273 9.15209961 C-9.39864975 8.03387314 -9.39324677 6.91564667 -9.38768005 5.76353455 C-9 3 -9 3 -7.6622467 1.13893127 C-5.06406065 -0.64128302 -3.05665305 -0.38208163 0 0 Z " fill="#154E5B" transform="translate(166,143)"/>
<path d="M0 0 C3.72960366 -0.08101311 7.45744359 -0.14051069 11.1875 -0.1875 C12.24259766 -0.21263672 13.29769531 -0.23777344 14.38476562 -0.26367188 C15.91713867 -0.27817383 15.91713867 -0.27817383 17.48046875 -0.29296875 C18.41785889 -0.3086792 19.35524902 -0.32438965 20.32104492 -0.34057617 C24.46988671 0.18686703 27.0876714 2.0876714 30 5 C30.68767908 12.10601719 30.68767908 12.10601719 28.125 15.4375 C24.69623834 17.95864828 22.77836816 18.11988615 18.5546875 18.09765625 C16.94013672 18.09282227 16.94013672 18.09282227 15.29296875 18.08789062 C14.16503906 18.07951172 13.03710938 18.07113281 11.875 18.0625 C10.73933594 18.05798828 9.60367188 18.05347656 8.43359375 18.04882812 C5.62237353 18.03701628 2.81118028 18.01908041 0 18 C0 12.06 0 6.12 0 0 Z " fill="#FDBF40" transform="translate(102,184)"/>
<path d="M0 0 C4.32036821 2.28725376 7.05893629 4.47085134 9 9 C9.59866575 13.01961286 9.18471519 14.66878655 7.1875 18.25 C4.91719941 21.10409217 3.36829679 22.77968103 -0.3046875 23.37109375 C-7.28881062 23.55153462 -7.28881062 23.55153462 -11.0625 20.625 C-14.38925255 16.11778686 -14.69641694 12.51409576 -14 7 C-10.56417713 1.2327259 -6.66321886 -0.79958626 0 0 Z " fill="#F8FCFD" transform="translate(61,39)"/>
<path d="M0 0 C3.77062132 2.07014504 7.005306 4.12142833 9 8 C9.54500097 12.99584223 9.09938694 16.01507393 6 20 C2.20606899 23.39067153 -0.63879727 23.56441792 -5.5859375 23.42578125 C-9.28723924 22.77296266 -10.85425264 20.97635924 -13 18 C-14.23875709 14.28372873 -14.6851752 10.85505169 -14 7 C-10.0043476 2.03243215 -6.49007097 -0.76353776 0 0 Z " fill="#F9FCFD" transform="translate(104,39)"/>
<path d="M0 0 C2.64233769 2.19257809 4.46669809 3.93339618 6 7 C6.37766377 12.00404498 6.11200434 14.99885156 3 19 C0.47450701 21.81689603 -1.71884281 22.2730238 -5.375 22.5 C-8.81427659 22.3921679 -10.80530532 21.84195396 -13.5 19.6875 C-16.38770227 16.58322006 -16.87859 14.90190284 -17.4375 10.75 C-16.86182742 5.8156636 -14.71753928 3.20196814 -11 0 C-7.15130459 -1.28289847 -3.85190651 -1.11877986 0 0 Z " fill="#FAFCFD" transform="translate(150,40)"/>
<path d="M0 0 C3.5578125 -0.0928125 3.5578125 -0.0928125 7.1875 -0.1875 C8.29387817 -0.22846802 8.29387817 -0.22846802 9.42260742 -0.27026367 C13.83935173 -0.32573392 16.52119467 0.27164994 20 3 C22.50031654 6.75047482 22.53603554 8.55856266 22 13 C19.99514367 15.7457815 18.44507282 17.71278056 14.99536133 18.3984375 C12.70084498 18.49203932 10.48141672 18.43651329 8.1875 18.3125 C4.1346875 18.1578125 4.1346875 18.1578125 0 18 C0 12.06 0 6.12 0 0 Z " fill="#FABD40" transform="translate(102,154)"/>
</svg>
