<?xml version="1.0" encoding="UTF-8"?>
<!DOCTYPE svg PUBLIC "-//W3C//DTD SVG 1.1//EN" "http://www.w3.org/Graphics/SVG/1.1/DTD/svg11.dtd">
<svg xmlns="http://www.w3.org/2000/svg" version="1.1" width="512px" height="512px" style="shape-rendering:geometricPrecision; text-rendering:geometricPrecision; image-rendering:optimizeQuality; fill-rule:evenodd; clip-rule:evenodd" xmlns:xlink="http://www.w3.org/1999/xlink">
<g><path style="opacity:0.998" fill="#1fbefc" d="M 313.5,47.5 C 360.168,47.3333 406.835,47.5 453.5,48C 458,49.8333 461.167,53 463,57.5C 463.667,104.167 463.667,150.833 463,197.5C 461.167,202 458,205.167 453.5,207C 406.833,207.667 360.167,207.667 313.5,207C 309,205.167 305.833,202 304,197.5C 303.333,150.833 303.333,104.167 304,57.5C 306.022,52.98 309.189,49.6467 313.5,47.5 Z M 335.5,79.5 C 367.5,79.5 399.5,79.5 431.5,79.5C 431.5,111.5 431.5,143.5 431.5,175.5C 399.5,175.5 367.5,175.5 335.5,175.5C 335.5,143.5 335.5,111.5 335.5,79.5 Z"/></g>
<g><path style="opacity:0.994" fill="#0c4ada" d="M 114.5,111.5 C 163.501,111.333 212.501,111.5 261.5,112C 270.482,116.473 273.649,123.64 271,133.5C 269.167,138 266,141.167 261.5,143C 216.5,143.333 171.5,143.667 126.5,144C 102.47,146.364 87.303,159.197 81,182.5C 77.9179,206.505 87.0846,224.005 108.5,235C 114.29,237.281 120.29,238.614 126.5,239C 216.5,239.333 306.5,239.667 396.5,240C 428.991,246.824 450.491,265.991 461,297.5C 469.744,341.508 454.244,373.674 414.5,394C 408.668,396.277 402.668,397.944 396.5,399C 362.833,399.333 329.167,399.667 295.5,400C 299.752,403.581 303.252,407.748 306,412.5C 309.131,425.383 304.131,433.049 291,435.5C 287.263,435.025 283.763,433.858 280.5,432C 267.667,419.167 254.833,406.333 242,393.5C 238.667,386.833 238.667,380.167 242,373.5C 254.833,360.667 267.667,347.833 280.5,335C 295.112,328.306 304.112,332.806 307.5,348.5C 307.031,352.074 305.864,355.408 304,358.5C 301.167,361.333 298.333,364.167 295.5,367C 325.167,367.667 354.833,367.667 384.5,367C 408.53,364.636 423.697,351.803 430,328.5C 432.704,301.73 421.537,283.564 396.5,274C 392.558,273.007 388.558,272.34 384.5,272C 294.5,271.667 204.5,271.333 114.5,271C 85.7945,265.231 65.2945,249.065 53,222.5C 39.4182,180.578 50.5849,147.078 86.5,122C 95.4668,117.182 104.8,113.682 114.5,111.5 Z"/></g>
<g><path style="opacity:0.998" fill="#1fbefc" d="M 57.5,303.5 C 104.168,303.333 150.835,303.5 197.5,304C 202,305.833 205.167,309 207,313.5C 207.667,360.167 207.667,406.833 207,453.5C 205.167,458 202,461.167 197.5,463C 150.833,463.667 104.167,463.667 57.5,463C 53,461.167 49.8333,458 48,453.5C 47.3333,406.833 47.3333,360.167 48,313.5C 50.0223,308.98 53.189,305.647 57.5,303.5 Z M 79.5,335.5 C 111.5,335.5 143.5,335.5 175.5,335.5C 175.5,367.5 175.5,399.5 175.5,431.5C 143.5,431.5 111.5,431.5 79.5,431.5C 79.5,399.5 79.5,367.5 79.5,335.5 Z"/></g>
<g><path style="opacity:0.976" fill="#b514d7" d="M 120.5,359.5 C 135.367,357.012 145.534,362.678 151,376.5C 153.982,391.376 148.482,401.543 134.5,407C 119.624,409.982 109.457,404.482 104,390.5C 101.146,375.533 106.646,365.199 120.5,359.5 Z"/></g>
</svg>
