<?xml version="1.0" encoding="UTF-8"?>
<!DOCTYPE svg PUBLIC "-//W3C//DTD SVG 1.1//EN" "http://www.w3.org/Graphics/SVG/1.1/DTD/svg11.dtd">
<svg xmlns="http://www.w3.org/2000/svg" version="1.1" width="512px" height="512px" style="shape-rendering:geometricPrecision; text-rendering:geometricPrecision; image-rendering:optimizeQuality; fill-rule:evenodd; clip-rule:evenodd" xmlns:xlink="http://www.w3.org/1999/xlink">
<g><path style="opacity:0.983" fill="#fed92d" d="M 220.5,-0.5 C 224.167,-0.5 227.833,-0.5 231.5,-0.5C 249.464,10.4857 267.464,21.4857 285.5,32.5C 297.938,40.2257 310.605,47.7257 323.5,55C 332.833,63.6667 332.833,72.3333 323.5,81C 314.605,85.941 305.938,91.1077 297.5,96.5C 275.727,109.559 253.727,122.392 231.5,135C 223.42,137.196 216.92,135.029 212,128.5C 210.74,118.239 210.073,107.906 210,97.5C 143.34,120 104.173,166 92.5,235.5C 87.9425,230.073 84.1092,224.073 81,217.5C 72.3004,208.243 63.6337,208.243 55,217.5C 47.3107,231.561 39.144,245.228 30.5,258.5C 31.6464,174.013 67.3131,108.846 137.5,63C 159.896,49.4785 183.896,39.9785 209.5,34.5C 210.332,26.1866 210.832,17.8532 211,9.5C 212.686,4.64985 215.853,1.31652 220.5,-0.5 Z"/></g>
<g><path style="opacity:0.983" fill="#02c7c7" d="M 285.5,32.5 C 357.881,43.5852 413.047,80.2519 451,142.5C 462.754,163.595 471.254,185.929 476.5,209.5C 484.813,210.332 493.147,210.832 501.5,211C 506.35,212.686 509.683,215.853 511.5,220.5C 511.5,224.167 511.5,227.833 511.5,231.5C 500.514,249.464 489.514,267.464 478.5,285.5C 470.359,299.103 462.193,312.77 454,326.5C 446.96,331.615 439.793,331.781 432.5,327C 426.349,317.186 420.349,307.353 414.5,297.5C 401.441,275.727 388.608,253.727 376,231.5C 373.804,223.42 375.971,216.92 382.5,212C 392.778,210.905 403.111,210.072 413.5,209.5C 394.45,151.651 355.783,113.984 297.5,96.5C 305.938,91.1077 314.605,85.941 323.5,81C 332.833,72.3333 332.833,63.6667 323.5,55C 310.605,47.7257 297.938,40.2257 285.5,32.5 Z"/></g>
<g><path style="opacity:0.988" fill="#565f63" d="M 255.5,180.5 C 255.5,190.5 255.5,200.5 255.5,210.5C 233.497,210.667 211.497,210.5 189.5,210C 180.525,204.848 178.025,197.348 182,187.5C 183.765,184.527 186.265,182.36 189.5,181C 211.497,180.5 233.497,180.333 255.5,180.5 Z"/></g>
<g><path style="opacity:1" fill="#32393f" d="M 255.5,180.5 C 277.503,180.333 299.503,180.5 321.5,181C 330.475,186.152 332.975,193.652 329,203.5C 327.235,206.473 324.735,208.64 321.5,210C 299.503,210.5 277.503,210.667 255.5,210.5C 255.5,200.5 255.5,190.5 255.5,180.5 Z"/></g>
<g><path style="opacity:0.983" fill="#575f63" d="M 92.5,235.5 C 106.39,260.275 120.557,284.942 135,309.5C 137.56,319.207 134.393,326.04 125.5,330C 120.167,330.333 114.833,330.667 109.5,331C 132.678,372.998 167.344,400.831 213.5,414.5C 205.062,419.892 196.395,425.059 187.5,430C 178.174,438.624 178.174,447.291 187.5,456C 200.395,463.274 213.062,470.774 225.5,478.5C 150.606,466.733 94.4391,428.066 57,362.5C 51.654,352.147 47.154,341.48 43.5,330.5C 32.1618,330.667 20.8284,330.5 9.5,330C 4.64985,328.314 1.31652,325.147 -0.5,320.5C -0.5,316.833 -0.5,313.167 -0.5,309.5C 10.0701,292.702 20.4034,275.702 30.5,258.5C 39.144,245.228 47.3107,231.561 55,217.5C 63.6337,208.243 72.3004,208.243 81,217.5C 84.1092,224.073 87.9425,230.073 92.5,235.5 Z"/></g>
<g><path style="opacity:0.988" fill="#565f63" d="M 255.5,240.5 C 255.5,250.5 255.5,260.5 255.5,270.5C 233.497,270.667 211.497,270.5 189.5,270C 180.525,264.848 178.025,257.348 182,247.5C 183.765,244.527 186.265,242.36 189.5,241C 211.497,240.5 233.497,240.333 255.5,240.5 Z"/></g>
<g><path style="opacity:1" fill="#32393f" d="M 255.5,240.5 C 277.503,240.333 299.503,240.5 321.5,241C 330.475,246.152 332.975,253.652 329,263.5C 327.235,266.473 324.735,268.64 321.5,270C 299.503,270.5 277.503,270.667 255.5,270.5C 255.5,260.5 255.5,250.5 255.5,240.5 Z"/></g>
<g><path style="opacity:0.983" fill="#fe641a" d="M 478.5,285.5 C 464.024,372.628 416.024,433.128 334.5,467C 323.637,470.677 312.637,473.844 301.5,476.5C 300.668,484.813 300.168,493.147 300,501.5C 298.314,506.35 295.147,509.683 290.5,511.5C 286.833,511.5 283.167,511.5 279.5,511.5C 261.536,500.514 243.536,489.514 225.5,478.5C 213.062,470.774 200.395,463.274 187.5,456C 178.174,447.291 178.174,438.624 187.5,430C 196.395,425.059 205.062,419.892 213.5,414.5C 235.273,401.441 257.273,388.608 279.5,376C 287.58,373.804 294.08,375.971 299,382.5C 300.095,392.778 300.928,403.111 301.5,413.5C 359.349,394.45 397.016,355.783 414.5,297.5C 420.349,307.353 426.349,317.186 432.5,327C 439.793,331.781 446.96,331.615 454,326.5C 462.193,312.77 470.359,299.103 478.5,285.5 Z"/></g>
<g><path style="opacity:0.988" fill="#565f63" d="M 255.5,300.5 C 255.5,310.5 255.5,320.5 255.5,330.5C 233.497,330.667 211.497,330.5 189.5,330C 180.525,324.848 178.025,317.348 182,307.5C 183.765,304.527 186.265,302.36 189.5,301C 211.497,300.5 233.497,300.333 255.5,300.5 Z"/></g>
<g><path style="opacity:1" fill="#32393f" d="M 255.5,300.5 C 277.503,300.333 299.503,300.5 321.5,301C 330.475,306.152 332.975,313.652 329,323.5C 327.235,326.473 324.735,328.64 321.5,330C 299.503,330.5 277.503,330.667 255.5,330.5C 255.5,320.5 255.5,310.5 255.5,300.5 Z"/></g>
</svg>
