<?xml version="1.0" encoding="UTF-8"?>
<!DOCTYPE svg PUBLIC "-//W3C//DTD SVG 1.1//EN" "http://www.w3.org/Graphics/SVG/1.1/DTD/svg11.dtd">
<svg xmlns="http://www.w3.org/2000/svg" version="1.1" width="1280px" height="948px" style="shape-rendering:geometricPrecision; text-rendering:geometricPrecision; image-rendering:optimizeQuality; fill-rule:evenodd; clip-rule:evenodd" xmlns:xlink="http://www.w3.org/1999/xlink">
<g><path style="opacity:0.998" fill="#020203" d="M 730.5,-0.5 C 733.5,-0.5 736.5,-0.5 739.5,-0.5C 746,0.819323 752.667,1.98599 759.5,3C 892.948,36.0288 1026.28,69.3621 1159.5,103C 1161.21,104.133 1161.71,105.633 1161,107.5C 1154.68,112.777 1147.51,116.443 1139.5,118.5C 941.004,192.662 742.67,266.995 544.5,341.5C 541.126,341.326 537.793,340.826 534.5,340C 401.5,293 268.5,246 135.5,199C 133.231,198.242 131.064,198.409 129,199.5C 127.046,203.981 125.713,208.648 125,213.5C 123.197,242.451 125.197,271.118 131,299.5C 132.497,306.345 135.331,312.512 139.5,318C 278.078,370.791 416.744,423.291 555.5,475.5C 557.65,476.67 559.984,477.67 562.5,478.5C 746.676,399.716 931.01,321.216 1115.5,243C 1123.85,239.621 1131.85,235.787 1139.5,231.5C 1147.31,229.539 1154.97,230.372 1162.5,234C 1166.04,237.744 1165.37,241.078 1160.5,244C 1134.02,255.427 1107.69,266.927 1081.5,278.5C 1079.07,278.523 1076.74,279.023 1074.5,280C 982.141,319.515 889.807,359.015 797.5,398.5C 789.653,401.594 781.986,404.928 774.5,408.5C 711.829,435.169 649.162,461.836 586.5,488.5C 577.953,492.023 569.453,495.69 561,499.5C 555.944,497.204 550.778,495.204 545.5,493.5C 508.402,478.129 471.069,463.129 433.5,448.5C 428.987,446.323 424.32,444.323 419.5,442.5C 353.951,415.893 288.284,389.559 222.5,363.5C 216.716,360.608 210.716,358.275 204.5,356.5C 196.797,352.655 188.797,349.321 180.5,346.5C 163.992,340.496 147.658,333.996 131.5,327C 125.138,321.773 120.638,315.273 118,307.5C 114.722,297.721 112.389,287.721 111,277.5C 106.974,252.818 106.308,228.485 109,204.5C 109.703,199.262 111.87,194.762 115.5,191C 320.561,127.033 525.561,63.1998 730.5,-0.5 Z"/></g>
<g><path style="opacity:1" fill="#333333" d="M 791.5,16.5 C 910.883,46.0123 1030.22,75.8457 1149.5,106C 950.578,181.53 751.578,256.863 552.5,332C 546.948,333.846 541.281,334.512 535.5,334C 421.665,294.445 307.998,254.612 194.5,214.5C 393.625,148.458 592.625,82.4582 791.5,16.5 Z"/></g>
<g><path style="opacity:1" fill="#e6e6e6" d="M 1139.5,118.5 C 1139.5,156.167 1139.5,193.833 1139.5,231.5C 1131.85,235.787 1123.85,239.621 1115.5,243C 931.01,321.216 746.676,399.716 562.5,478.5C 559.984,477.67 557.65,476.67 555.5,475.5C 556.239,475.631 556.906,475.464 557.5,475C 552.572,469.313 549.072,462.813 547,455.5C 543.461,441.945 541.294,428.445 540.5,415C 540.5,403 540.5,391 540.5,379C 541.167,373.333 541.833,367.667 542.5,362C 542.335,360.883 542.002,359.716 541.5,358.5C 542.274,354.221 542.774,349.887 543,345.5C 543.318,343.939 544.151,342.772 545.5,342C 545.272,341.601 544.938,341.435 544.5,341.5C 742.67,266.995 941.004,192.662 1139.5,118.5 Z"/></g>
<g><path style="opacity:1" fill="#fefefe" d="M 544.5,341.5 C 544.938,341.435 545.272,341.601 545.5,342C 544.151,342.772 543.318,343.939 543,345.5C 542.774,349.887 542.274,354.221 541.5,358.5C 542.002,359.716 542.335,360.883 542.5,362C 541.833,367.667 541.167,373.333 540.5,379C 540.5,391 540.5,403 540.5,415C 541.294,428.445 543.461,441.945 547,455.5C 549.072,462.813 552.572,469.313 557.5,475C 556.906,475.464 556.239,475.631 555.5,475.5C 416.744,423.291 278.078,370.791 139.5,318C 135.331,312.512 132.497,306.345 131,299.5C 125.197,271.118 123.197,242.451 125,213.5C 125.713,208.648 127.046,203.981 129,199.5C 131.064,198.409 133.231,198.242 135.5,199C 268.5,246 401.5,293 534.5,340C 537.793,340.826 541.126,341.326 544.5,341.5 Z"/></g>
<g><path style="opacity:1" fill="#fe6500" d="M 1081.5,278.5 C 1087.13,282.794 1092.46,287.461 1097.5,292.5C 1098.59,295.063 1100.26,297.23 1102.5,299C 1122.78,316.646 1142.45,334.98 1161.5,354C 1160.83,354.667 1160.17,355.333 1159.5,356C 1142,358.708 1124.5,361.208 1107,363.5C 1106.67,363.167 1106.33,362.833 1106,362.5C 1002.62,375.198 899.791,387.198 797.5,398.5C 889.807,359.015 982.141,319.515 1074.5,280C 1076.74,279.023 1079.07,278.523 1081.5,278.5 Z"/></g>
<g><path style="opacity:1" fill="#cf590e" d="M 1097.5,292.5 C 1123.4,312.887 1148.9,333.887 1174,355.5C 1175.04,358.804 1173.88,360.971 1170.5,362C 1165.25,363.323 1159.91,364.157 1154.5,364.5C 1027.79,378.672 901.122,393.339 774.5,408.5C 781.986,404.928 789.653,401.594 797.5,398.5C 899.791,387.198 1002.62,375.198 1106,362.5C 1106.33,362.833 1106.67,363.167 1107,363.5C 1124.5,361.208 1142,358.708 1159.5,356C 1160.17,355.333 1160.83,354.667 1161.5,354C 1142.45,334.98 1122.78,316.646 1102.5,299C 1100.26,297.23 1098.59,295.063 1097.5,292.5 Z"/></g>
<g><path style="opacity:1" fill="#cf590d" d="M 180.5,346.5 C 188.797,349.321 196.797,352.655 204.5,356.5C 230.912,412.322 257.578,467.989 284.5,523.5C 371.542,513.829 458.542,503.829 545.5,493.5C 550.778,495.204 555.944,497.204 561,499.5C 569.453,495.69 577.953,492.023 586.5,488.5C 774.948,467.251 963.615,445.585 1152.5,423.5C 1152.5,418.5 1152.5,413.5 1152.5,408.5C 1158.78,413.601 1164.94,418.935 1171,424.5C 1173.22,428.388 1172.72,431.888 1169.5,435C 1165.48,437.34 1161.15,438.674 1156.5,439C 1143.2,440.83 1129.86,442.33 1116.5,443.5C 1071.64,448.691 1026.97,454.358 982.5,460.5C 754.48,488.669 526.48,517.169 298.5,546C 290.8,547.334 283.467,546.334 276.5,543C 274.641,541.442 273.141,539.609 272,537.5C 247.216,486.266 222.716,434.933 198.5,383.5C 192.816,372.132 187.15,360.799 181.5,349.5C 180.596,348.791 180.263,347.791 180.5,346.5 Z"/></g>
<g><path style="opacity:1" fill="#c20407" d="M 181.5,349.5 C 187.15,360.799 192.816,372.132 198.5,383.5C 166.997,390.929 135.663,398.596 104.5,406.5C 98.2026,401.538 92.2026,396.205 86.5,390.5C 86.5,389.833 86.1667,389.5 85.5,389.5C 80.8019,383.801 75.4685,378.801 69.5,374.5C 70.7671,370.743 73.4338,368.576 77.5,368C 111.48,362.204 145.48,356.537 179.5,351C 180.416,350.722 181.082,350.222 181.5,349.5 Z"/></g>
<g><path style="opacity:1" fill="#c7cee0" d="M 204.5,356.5 C 210.716,358.275 216.716,360.608 222.5,363.5C 238.734,395.732 255.401,427.732 272.5,459.5C 273.001,462.155 274.334,464.322 276.5,466C 281.174,466.333 285.84,466.167 290.5,465.5C 288.371,483.967 286.371,503.3 284.5,523.5C 257.578,467.989 230.912,412.322 204.5,356.5 Z"/></g>
<g><path style="opacity:1" fill="#fd6500" d="M 222.5,363.5 C 288.284,389.559 353.951,415.893 419.5,442.5C 376.153,448.095 332.653,453.095 289,457.5C 283.633,458.93 278.133,459.597 272.5,459.5C 255.401,427.732 238.734,395.732 222.5,363.5 Z"/></g>
<g><path style="opacity:1" fill="#e6e5e5" d="M 1154.5,364.5 C 1154.38,379.25 1153.71,393.917 1152.5,408.5C 1152.5,413.5 1152.5,418.5 1152.5,423.5C 963.615,445.585 774.948,467.251 586.5,488.5C 649.162,461.836 711.829,435.169 774.5,408.5C 901.122,393.339 1027.79,378.672 1154.5,364.5 Z"/></g>
<g><path style="opacity:0.988" fill="#8a2613" d="M 69.5,374.5 C 75.4685,378.801 80.8019,383.801 85.5,389.5C 84.1667,398.167 84.1667,406.833 85.5,415.5C 85.5,429.833 85.5,444.167 85.5,458.5C 82.0601,459.091 78.7268,460.091 75.5,461.5C 74.8243,460.398 74.1577,459.398 73.5,458.5C 72.607,453.867 71.2736,449.367 69.5,445C 70.0219,444.439 70.3552,443.772 70.5,443C 69.9585,438.853 68.9585,434.853 67.5,431C 68.0814,430.107 68.4148,429.107 68.5,428C 67.2658,415.394 66.5991,403.727 66.5,393C 67.4695,386.732 68.4695,380.565 69.5,374.5 Z"/></g>
<g><path style="opacity:1" fill="#84b3d7" d="M 198.5,383.5 C 222.716,434.933 247.216,486.266 272,537.5C 273.141,539.609 274.641,541.442 276.5,543C 283.467,546.334 290.8,547.334 298.5,546C 526.48,517.169 754.48,488.669 982.5,460.5C 760.933,509.601 537.933,558.268 313.5,606.5C 251.031,546.867 188.365,487.367 125.5,428C 118.249,420.917 111.249,413.751 104.5,406.5C 135.663,398.596 166.997,390.929 198.5,383.5 Z"/></g>
<g><path style="opacity:0.929" fill="#b29394" d="M 85.5,389.5 C 86.1667,389.5 86.5,389.833 86.5,390.5C 85.5073,398.65 85.1739,406.983 85.5,415.5C 84.1667,406.833 84.1667,398.167 85.5,389.5 Z"/></g>
<g><path style="opacity:1" fill="#c7cee0" d="M 86.5,390.5 C 92.2026,396.205 98.2026,401.538 104.5,406.5C 111.249,413.751 118.249,420.917 125.5,428C 188.365,487.367 251.031,546.867 313.5,606.5C 312.573,613.619 311.239,620.952 309.5,628.5C 309.595,636.304 309.595,643.804 309.5,651C 311.608,661.129 315.275,670.962 320.5,680.5C 254.5,618.167 188.5,555.833 122.5,493.5C 110.469,481.468 98.1356,469.801 85.5,458.5C 85.5,444.167 85.5,429.833 85.5,415.5C 85.1739,406.983 85.5073,398.65 86.5,390.5 Z"/></g>
<g><path style="opacity:1" fill="#d0590d" d="M 419.5,442.5 C 424.32,444.323 428.987,446.323 433.5,448.5C 385.819,454.085 338.153,459.752 290.5,465.5C 285.84,466.167 281.174,466.333 276.5,466C 274.334,464.322 273.001,462.155 272.5,459.5C 278.133,459.597 283.633,458.93 289,457.5C 332.653,453.095 376.153,448.095 419.5,442.5 Z"/></g>
<g><path style="opacity:1" fill="#e5e5e6" d="M 1116.5,443.5 C 1116.08,444.222 1115.42,444.722 1114.5,445C 1115.86,450.712 1116.52,456.546 1116.5,462.5C 1118.27,473.78 1119.6,485.113 1120.5,496.5C 1120.5,497.833 1120.5,499.167 1120.5,500.5C 856.206,562.99 591.873,625.323 327.5,687.5C 324.833,685.5 322.5,683.167 320.5,680.5C 315.275,670.962 311.608,661.129 309.5,651C 309.595,643.804 309.595,636.304 309.5,628.5C 311.239,620.952 312.573,613.619 313.5,606.5C 537.933,558.268 760.933,509.601 982.5,460.5C 1026.97,454.358 1071.64,448.691 1116.5,443.5 Z"/></g>
<g><path style="opacity:1" fill="#e6e5e5" d="M 433.5,448.5 C 471.069,463.129 508.402,478.129 545.5,493.5C 458.542,503.829 371.542,513.829 284.5,523.5C 286.371,503.3 288.371,483.967 290.5,465.5C 338.153,459.752 385.819,454.085 433.5,448.5 Z"/></g>
<g><path style="opacity:0.969" fill="#b94937" d="M 73.5,458.5 C 74.1577,459.398 74.8243,460.398 75.5,461.5C 78.7268,460.091 82.0601,459.091 85.5,458.5C 98.1356,469.801 110.469,481.468 122.5,493.5C 118.266,494.749 113.933,495.582 109.5,496C 108.944,496.383 108.611,496.883 108.5,497.5C 107.236,495.73 105.736,494.063 104,492.5C 102.989,493.337 101.822,493.67 100.5,493.5C 100.918,492.778 101.584,492.278 102.5,492C 96.6304,486.298 90.9638,480.465 85.5,474.5C 81.8704,470.369 78.037,466.369 74,462.5C 73.51,461.207 73.3433,459.873 73.5,458.5 Z"/></g>
<g><path style="opacity:1" fill="#bf0207" d="M 1116.5,462.5 C 1129.39,467.126 1142.06,472.126 1154.5,477.5C 1180.3,488.557 1206.3,499.39 1232.5,510C 1236.07,512.626 1236.41,515.626 1233.5,519C 1226.59,522.134 1219.59,524.968 1212.5,527.5C 964.085,619.638 715.751,711.971 467.5,804.5C 324.67,711.917 181.67,619.584 38.5,527.5C 34.4632,524.82 30.4632,522.154 26.5,519.5C 50.6935,509.878 75.3602,501.211 100.5,493.5C 101.822,493.67 102.989,493.337 104,492.5C 105.736,494.063 107.236,495.73 108.5,497.5C 181.167,566.5 253.833,635.5 326.5,704.5C 588.528,642.527 850.528,580.36 1112.5,518C 1117.53,516.771 1122.2,514.771 1126.5,512C 1132.02,507.321 1131.68,502.988 1125.5,499C 1123.92,497.906 1122.26,497.072 1120.5,496.5C 1119.6,485.113 1118.27,473.78 1116.5,462.5 Z"/></g>
<g><path style="opacity:0.094" fill="#4a2c35" d="M 85.5,474.5 C 84.8333,475.167 84.8333,475.167 85.5,474.5 Z"/></g>
<g><path style="opacity:1" fill="#112f51" d="M 1154.5,477.5 C 1196.43,488.701 1238.1,500.701 1279.5,513.5C 1279.5,515.5 1279.5,517.5 1279.5,519.5C 1272.03,524.407 1264.36,529.073 1256.5,533.5C 1255.7,533.957 1255.37,534.624 1255.5,535.5C 1253.81,534.314 1252.14,534.481 1250.5,536C 1237.33,543.833 1224.17,551.667 1211,559.5C 1210.72,548.804 1211.22,538.137 1212.5,527.5C 1219.59,524.968 1226.59,522.134 1233.5,519C 1236.41,515.626 1236.07,512.626 1232.5,510C 1206.3,499.39 1180.3,488.557 1154.5,477.5 Z"/></g>
<g><path style="opacity:0.996" fill="#8fb8d2" d="M 122.5,493.5 C 188.5,555.833 254.5,618.167 320.5,680.5C 322.5,683.167 324.833,685.5 327.5,687.5C 327.093,693.161 326.76,698.828 326.5,704.5C 253.833,635.5 181.167,566.5 108.5,497.5C 108.611,496.883 108.944,496.383 109.5,496C 113.933,495.582 118.266,494.749 122.5,493.5 Z"/></g>
<g><path style="opacity:0.998" fill="#82808d" d="M 1120.5,496.5 C 1122.26,497.072 1123.92,497.906 1125.5,499C 1131.68,502.988 1132.02,507.321 1126.5,512C 1122.2,514.771 1117.53,516.771 1112.5,518C 850.528,580.36 588.528,642.527 326.5,704.5C 326.76,698.828 327.093,693.161 327.5,687.5C 591.873,625.323 856.206,562.99 1120.5,500.5C 1120.5,499.167 1120.5,497.833 1120.5,496.5 Z"/></g>
<g><path style="opacity:0.988" fill="#812213" d="M 26.5,519.5 C 30.4632,522.154 34.4632,524.82 38.5,527.5C 38.5,530.5 38.5,533.5 38.5,536.5C 37.8087,540.899 37.142,545.399 36.5,550C 37.4839,558.749 37.8172,567.582 37.5,576.5C 31.1173,577.192 28.7839,580.526 30.5,586.5C 28.39,585.547 27.2233,583.881 27,581.5C 26.818,572.922 26.318,564.422 25.5,556C 25.625,545.248 25.9583,533.081 26.5,519.5 Z"/></g>
<g><path style="opacity:1" fill="#c7cee1" d="M 38.5,527.5 C 181.67,619.584 324.67,711.917 467.5,804.5C 465.932,818.572 463.932,832.572 461.5,846.5C 461.709,847.086 462.043,847.586 462.5,848C 461.038,851.333 460.038,854.5 459.5,857.5C 318.958,764.068 178.624,670.402 38.5,576.5C 38.5,563.167 38.5,549.833 38.5,536.5C 38.5,533.5 38.5,530.5 38.5,527.5 Z"/></g>
<g><path style="opacity:1" fill="#e6e6e5" d="M 1212.5,527.5 C 1211.22,538.137 1210.72,548.804 1211,559.5C 1224.17,551.667 1237.33,543.833 1250.5,536C 1252.14,534.481 1253.81,534.314 1255.5,535.5C 1255.67,537.861 1256.01,540.194 1256.5,542.5C 1258.17,546.594 1257.84,550.427 1255.5,554C 1242.44,561.859 1229.44,569.692 1216.5,577.5C 1213.93,575.962 1211.43,574.295 1209,572.5C 959.394,667.536 709.894,762.869 460.5,858.5C 459.893,858.376 459.56,858.043 459.5,857.5C 460.038,854.5 461.038,851.333 462.5,848C 462.043,847.586 461.709,847.086 461.5,846.5C 463.932,832.572 465.932,818.572 467.5,804.5C 715.751,711.971 964.085,619.638 1212.5,527.5 Z"/></g>
<g><path style="opacity:1" fill="#102f51" d="M 1256.5,542.5 C 1265.07,545.94 1272.74,550.607 1279.5,556.5C 1279.5,556.833 1279.5,557.167 1279.5,557.5C 1278.8,559.667 1277.47,561.5 1275.5,563C 1057.31,691.062 839.31,819.229 621.5,947.5C 618.5,947.5 615.5,947.5 612.5,947.5C 559.898,923.535 507.231,899.535 454.5,875.5C 464.589,872.808 474.589,869.474 484.5,865.5C 528.45,885.815 572.783,904.981 617.5,923C 796.563,819.473 975.563,715.973 1154.5,612.5C 1175.47,604.349 1196.47,596.183 1217.5,588C 1222.55,584.195 1222.22,580.695 1216.5,577.5C 1229.44,569.692 1242.44,561.859 1255.5,554C 1257.84,550.427 1258.17,546.594 1256.5,542.5 Z"/></g>
<g><path style="opacity:0.941" fill="#987f83" d="M 38.5,536.5 C 38.5,549.833 38.5,563.167 38.5,576.5C 38.1667,576.5 37.8333,576.5 37.5,576.5C 37.8172,567.582 37.4839,558.749 36.5,550C 37.142,545.399 37.8087,540.899 38.5,536.5 Z"/></g>
<g><path style="opacity:1" fill="#ce171c" d="M 1216.5,577.5 C 1222.22,580.695 1222.55,584.195 1217.5,588C 1196.47,596.183 1175.47,604.349 1154.5,612.5C 1118.27,625.795 1082.27,639.462 1046.5,653.5C 867.191,720.599 688.191,788.266 509.5,856.5C 500.988,859.043 492.655,862.043 484.5,865.5C 474.589,869.474 464.589,872.808 454.5,875.5C 449.404,874.454 445.071,872.121 441.5,868.5C 411.348,847.589 381.015,826.922 350.5,806.5C 315.523,781.676 280.19,757.342 244.5,733.5C 181.363,689.095 117.696,645.428 53.5,602.5C 45.8565,597.199 38.1899,591.866 30.5,586.5C 28.7839,580.526 31.1173,577.192 37.5,576.5C 37.8333,576.5 38.1667,576.5 38.5,576.5C 178.624,670.402 318.958,764.068 459.5,857.5C 459.56,858.043 459.893,858.376 460.5,858.5C 709.894,762.869 959.394,667.536 1209,572.5C 1211.43,574.295 1213.93,575.962 1216.5,577.5 Z"/></g>
<g><path style="opacity:1" fill="#112f52" d="M 53.5,602.5 C 117.696,645.428 181.363,689.095 244.5,733.5C 169.402,699.452 94.4023,665.119 19.5,630.5C 18.8182,631.243 18.1515,631.909 17.5,632.5C 17.719,631.325 17.3857,630.325 16.5,629.5C 12.0439,626.937 7.37726,624.937 2.5,623.5C 19.1006,615.705 36.1006,608.705 53.5,602.5 Z"/></g>
<g><path style="opacity:1" fill="#e5e5e6" d="M 1154.5,612.5 C 975.563,715.973 796.563,819.473 617.5,923C 572.783,904.981 528.45,885.815 484.5,865.5C 492.655,862.043 500.988,859.043 509.5,856.5C 544.294,872.385 579.128,888.385 614,904.5C 758.344,820.919 902.51,737.252 1046.5,653.5C 1082.27,639.462 1118.27,625.795 1154.5,612.5 Z"/></g>
<g><path style="opacity:0.98" fill="#10141e" d="M 2.5,623.5 C 7.37726,624.937 12.0439,626.937 16.5,629.5C 17.3857,630.325 17.719,631.325 17.5,632.5C 14.9624,643.611 16.6291,653.945 22.5,663.5C 18.1667,667.5 13.8333,671.5 9.5,675.5C 5.09139,669.349 1.75805,662.683 -0.5,655.5C -0.5,647.833 -0.5,640.167 -0.5,632.5C 0.37448,629.465 1.37448,626.465 2.5,623.5 Z"/></g>
<g><path style="opacity:1" fill="#e5e5e6" d="M 244.5,733.5 C 280.19,757.342 315.523,781.676 350.5,806.5C 240.996,759.221 131.663,711.554 22.5,663.5C 16.6291,653.945 14.9624,643.611 17.5,632.5C 18.1515,631.909 18.8182,631.243 19.5,630.5C 94.4023,665.119 169.402,699.452 244.5,733.5 Z"/></g>
<g><path style="opacity:1" fill="#0f2f52" d="M 1046.5,653.5 C 902.51,737.252 758.344,820.919 614,904.5C 579.128,888.385 544.294,872.385 509.5,856.5C 688.191,788.266 867.191,720.599 1046.5,653.5 Z"/></g>
<g><path style="opacity:1" fill="#102f51" d="M 22.5,663.5 C 131.663,711.554 240.996,759.221 350.5,806.5C 381.015,826.922 411.348,847.589 441.5,868.5C 297.27,804.719 153.27,740.386 9.5,675.5C 13.8333,671.5 18.1667,667.5 22.5,663.5 Z"/></g>
</svg>
