<?xml version="1.0" encoding="UTF-8"?>
<!DOCTYPE svg PUBLIC "-//W3C//DTD SVG 1.1//EN" "http://www.w3.org/Graphics/SVG/1.1/DTD/svg11.dtd">
<svg xmlns="http://www.w3.org/2000/svg" version="1.1" width="422px" height="360px" style="shape-rendering:geometricPrecision; text-rendering:geometricPrecision; image-rendering:optimizeQuality; fill-rule:evenodd; clip-rule:evenodd" xmlns:xlink="http://www.w3.org/1999/xlink">
<g><path style="opacity:0.784" fill="#616063" d="M 196.5,38.5 C 193.746,39.9459 190.746,40.9459 187.5,41.5C 186.833,41.5 186.167,41.5 185.5,41.5C 188.854,39.7424 192.521,38.7424 196.5,38.5 Z"/></g>
<g><path style="opacity:1" fill="#f6d243" d="M 309.5,43.5 C 310.609,44.29 311.942,44.79 313.5,45C 321.483,45.832 329.483,46.332 337.5,46.5C 348.319,45.4061 355.986,49.7394 360.5,59.5C 360.5,59.8333 360.5,60.1667 360.5,60.5C 359.761,60.631 359.094,60.4643 358.5,60C 354.248,53.0248 347.914,50.1914 339.5,51.5C 322.309,49.048 304.976,48.048 287.5,48.5C 267.507,47.8335 247.507,47.5002 227.5,47.5C 226.391,47.5569 225.391,47.8902 224.5,48.5C 216.35,47.5073 208.017,47.1739 199.5,47.5C 197.524,45.9891 195.191,45.1558 192.5,45C 199.5,44.6667 206.5,44.3333 213.5,44C 212.944,43.6174 212.611,43.1174 212.5,42.5C 244.83,41.1144 277.164,41.4478 309.5,43.5 Z"/></g>
<g><path style="opacity:1" fill="#b8a246" d="M 309.5,43.5 C 319.022,44.0679 328.355,45.0679 337.5,46.5C 329.483,46.332 321.483,45.832 313.5,45C 311.942,44.79 310.609,44.29 309.5,43.5 Z"/></g>
<g><path style="opacity:1" fill="#f4c942" d="M 196.5,42.5 C 201.833,42.5 207.167,42.5 212.5,42.5C 212.611,43.1174 212.944,43.6174 213.5,44C 206.5,44.3333 199.5,44.6667 192.5,45C 195.191,45.1558 197.524,45.9891 199.5,47.5C 188.175,50.6024 177.508,55.4357 167.5,62C 161.535,64.329 155.535,66.6623 149.5,69C 148.619,69.7083 147.953,70.5416 147.5,71.5C 129.391,79.9785 111.391,88.6452 93.5,97.5C 93.0742,96.4721 93.0742,95.1388 93.5,93.5C 123.282,77.7744 153.282,62.2744 183.5,47C 187.846,45.164 192.179,43.664 196.5,42.5 Z"/></g>
<g><path style="opacity:0.478" fill="#45413e" d="M 227.5,47.5 C 232.167,48.1667 236.833,48.8333 241.5,49.5C 236.489,49.3341 231.489,49.5007 226.5,50C 226.833,50.3333 227.167,50.6667 227.5,51C 243.672,51.1686 259.672,51.6686 275.5,52.5C 259.167,52.5 242.833,52.5 226.5,52.5C 225.833,52.1667 225.167,51.8333 224.5,51.5C 224.5,50.5 224.5,49.5 224.5,48.5C 225.391,47.8902 226.391,47.5569 227.5,47.5 Z"/></g>
<g><path style="opacity:1" fill="#dab93f" d="M 287.5,48.5 C 304.976,48.048 322.309,49.048 339.5,51.5C 339.5,52.1667 339.5,52.8333 339.5,53.5C 337.18,51.7739 334.513,51.1072 331.5,51.5C 316.649,50.9893 301.982,49.9893 287.5,48.5 Z"/></g>
<g><path style="opacity:0.831" fill="#33281c" d="M 227.5,47.5 C 247.507,47.5002 267.507,47.8335 287.5,48.5C 301.982,49.9893 316.649,50.9893 331.5,51.5C 330.791,52.404 329.791,52.7373 328.5,52.5C 299.51,51.2711 270.51,50.2711 241.5,49.5C 236.833,48.8333 232.167,48.1667 227.5,47.5 Z"/></g>
<g><path style="opacity:0.992" fill="#271c17" d="M 226.5,52.5 C 242.833,52.5 259.167,52.5 275.5,52.5C 283.534,52.3018 291.534,52.6351 299.5,53.5C 296.375,54.4794 293.042,54.8128 289.5,54.5C 268.332,54.0978 247.332,53.4311 226.5,52.5 Z"/></g>
<g><path style="opacity:1" fill="#d19620" d="M 224.5,51.5 C 225.167,51.8333 225.833,52.1667 226.5,52.5C 247.332,53.4311 268.332,54.0978 289.5,54.5C 303.504,55.4396 317.504,56.4396 331.5,57.5C 328.482,57.3354 325.482,57.502 322.5,58C 327.019,58.1753 331.353,58.6753 335.5,59.5C 330.167,59.5 324.833,59.5 319.5,59.5C 309.03,58.0992 298.364,57.4326 287.5,57.5C 282.167,57.5 276.833,57.5 271.5,57.5C 246.346,55.259 221.013,54.9256 195.5,56.5C 196.609,55.71 197.942,55.21 199.5,55C 208.167,54.6667 216.833,54.3333 225.5,54C 224.748,53.3292 224.414,52.4959 224.5,51.5 Z"/></g>
<g><path style="opacity:1" fill="#f8b311" d="M 339.5,51.5 C 347.914,50.1914 354.248,53.0248 358.5,60C 359.094,60.4643 359.761,60.631 360.5,60.5C 359.207,61.1582 357.707,61.4915 356,61.5C 349.189,60.5442 342.355,59.8776 335.5,59.5C 331.353,58.6753 327.019,58.1753 322.5,58C 325.482,57.502 328.482,57.3354 331.5,57.5C 333.857,57.6633 336.19,57.4966 338.5,57C 339.337,55.9887 339.67,54.8221 339.5,53.5C 339.5,52.8333 339.5,52.1667 339.5,51.5 Z"/></g>
<g><path style="opacity:0.937" fill="#413224" d="M 331.5,51.5 C 334.513,51.1072 337.18,51.7739 339.5,53.5C 339.67,54.8221 339.337,55.9887 338.5,57C 336.19,57.4966 333.857,57.6633 331.5,57.5C 317.504,56.4396 303.504,55.4396 289.5,54.5C 293.042,54.8128 296.375,54.4794 299.5,53.5C 310.181,53.8819 320.847,54.5486 331.5,55.5C 333.5,55.1667 335.5,54.8333 337.5,54.5C 334.358,53.8326 331.358,53.166 328.5,52.5C 329.791,52.7373 330.791,52.404 331.5,51.5 Z"/></g>
<g><path style="opacity:1" fill="#faac09" d="M 199.5,47.5 C 208.017,47.1739 216.35,47.5073 224.5,48.5C 224.5,49.5 224.5,50.5 224.5,51.5C 224.414,52.4959 224.748,53.3292 225.5,54C 216.833,54.3333 208.167,54.6667 199.5,55C 197.942,55.21 196.609,55.71 195.5,56.5C 181.061,61.7167 167.061,68.0501 153.5,75.5C 152.244,75.5386 151.244,75.0386 150.5,74C 151.833,73.3333 151.833,72.6667 150.5,72C 149.552,71.5172 148.552,71.3505 147.5,71.5C 147.953,70.5416 148.619,69.7083 149.5,69C 155.535,66.6623 161.535,64.329 167.5,62C 177.508,55.4357 188.175,50.6024 199.5,47.5 Z"/></g>
<g><path style="opacity:1" fill="#323230" d="M 203.5,61.5 C 242.88,60.1806 282.213,61.1806 321.5,64.5C 319.688,64.7713 318.022,65.438 316.5,66.5C 318.657,67.7904 320.99,68.6237 323.5,69C 321.187,69.662 318.854,70.162 316.5,70.5C 316.028,76.4943 314.528,76.8276 312,71.5C 313.068,79.2496 309.901,82.9163 302.5,82.5C 298.444,86.3627 293.777,89.3627 288.5,91.5C 287.571,92.6888 287.238,94.0222 287.5,95.5C 284.833,95.5 282.167,95.5 279.5,95.5C 277.37,100.29 273.704,103.29 268.5,104.5C 266.826,108.174 264.159,110.841 260.5,112.5C 256.526,118.307 252.36,123.974 248,129.5C 247.505,131.473 247.338,133.473 247.5,135.5C 243.225,136.442 240.558,139.108 239.5,143.5C 236.833,143.5 234.167,143.5 231.5,143.5C 228.216,117.287 226.216,90.9532 225.5,64.5C 227.942,64.6463 228.609,63.813 227.5,62C 219.507,61.5003 211.507,61.3336 203.5,61.5 Z"/></g>
<g><path style="opacity:1" fill="#353534" d="M 197.5,62.5 C 199.265,61.5386 201.265,61.2053 203.5,61.5C 211.507,61.3336 219.507,61.5003 227.5,62C 228.609,63.813 227.942,64.6463 225.5,64.5C 226.216,90.9532 228.216,117.287 231.5,143.5C 234.167,143.5 236.833,143.5 239.5,143.5C 240.558,139.108 243.225,136.442 247.5,135.5C 247.338,133.473 247.505,131.473 248,129.5C 252.36,123.974 256.526,118.307 260.5,112.5C 264.159,110.841 266.826,108.174 268.5,104.5C 273.704,103.29 277.37,100.29 279.5,95.5C 282.167,95.5 284.833,95.5 287.5,95.5C 287.238,94.0222 287.571,92.6888 288.5,91.5C 293.777,89.3627 298.444,86.3627 302.5,82.5C 309.901,82.9163 313.068,79.2496 312,71.5C 314.528,76.8276 316.028,76.4943 316.5,70.5C 318.854,70.162 321.187,69.662 323.5,69C 320.99,68.6237 318.657,67.7904 316.5,66.5C 318.022,65.438 319.688,64.7713 321.5,64.5C 330.017,64.1739 338.35,64.5073 346.5,65.5C 342.818,65.3347 339.152,65.5014 335.5,66C 340.897,66.2272 346.231,66.8938 351.5,68C 351.833,68.3333 352.167,68.6667 352.5,69C 348.148,69.4189 347.815,70.0855 351.5,71C 345.326,69.2101 339.993,70.5434 335.5,75C 330.24,77.786 324.907,80.286 319.5,82.5C 319.719,83.675 319.386,84.675 318.5,85.5C 309.17,90.164 300.504,95.8307 292.5,102.5C 290.955,103.452 289.288,103.785 287.5,103.5C 286.633,106.227 284.799,108.227 282,109.5C 281.138,111.087 280.471,112.754 280,114.5C 279.396,112.314 278.23,112.148 276.5,114C 272.348,117.651 268.348,121.484 264.5,125.5C 263.269,126.651 263.269,127.817 264.5,129C 263.258,129.311 262.258,128.811 261.5,127.5C 260.41,128.391 260.41,129.391 261.5,130.5C 259.639,131.528 258.305,133.028 257.5,135C 258.308,135.308 258.975,135.808 259.5,136.5C 254.688,140.144 250.021,143.978 245.5,148C 238.996,154.171 232.829,160.671 227,167.5C 224.103,162.625 222.77,157.292 223,151.5C 222.624,144.491 222.124,137.491 221.5,130.5C 222.046,127.434 222.712,124.434 223.5,121.5C 222.167,121.5 220.833,121.5 219.5,121.5C 218.756,118.05 220.09,116.384 223.5,116.5C 223.646,114.058 222.813,113.391 221,114.5C 220.308,113.975 219.808,113.308 219.5,112.5C 220.585,111.216 221.252,109.716 221.5,108C 220.595,105.245 219.928,102.412 219.5,99.5C 219.833,98.1667 220.167,96.8333 220.5,95.5C 221.318,98.1071 221.818,100.774 222,103.5C 222.333,103.167 222.667,102.833 223,102.5C 223.256,99.443 223.756,96.443 224.5,93.5C 223.009,92.7564 221.509,92.0897 220,91.5C 218.89,93.0368 217.39,93.7035 215.5,93.5C 215.046,86.391 213.879,79.391 212,72.5C 210.147,67.4734 206.647,64.4734 201.5,63.5C 200.432,62.5655 199.099,62.2322 197.5,62.5 Z"/></g>
<g><path style="opacity:1" fill="#b56b12" d="M 271.5,57.5 C 246.812,56.106 222.145,56.2726 197.5,58C 170.115,69.5272 143.448,82.3605 117.5,96.5C 95.9877,107.284 74.3211,117.784 52.5,128C 50.9069,128.949 49.5736,130.115 48.5,131.5C 48.1667,131.5 47.8333,131.5 47.5,131.5C 38.6808,134.885 30.3475,139.219 22.5,144.5C 21.8728,145.417 21.5394,146.417 21.5,147.5C 20.1667,147.5 19.5,146.833 19.5,145.5C 19.5751,142.794 19.9084,140.127 20.5,137.5C 20.5,136.833 20.8333,136.5 21.5,136.5C 21.8333,136.5 22.1667,136.5 22.5,136.5C 22.2148,138.288 22.5481,139.955 23.5,141.5C 46.0048,130.135 68.3381,118.802 90.5,107.5C 111.763,97.0362 132.763,86.3695 153.5,75.5C 167.061,68.0501 181.061,61.7167 195.5,56.5C 221.013,54.9256 246.346,55.259 271.5,57.5 Z"/></g>
<g><path style="opacity:1" fill="#3c3c3a" d="M 346.5,65.5 C 351.844,65.334 357.177,65.5006 362.5,66C 363.823,66.8159 364.489,67.9826 364.5,69.5C 364.992,71.8185 365.992,73.8185 367.5,75.5C 367.5,76.1667 367.5,76.8333 367.5,77.5C 366.778,77.9175 366.278,78.5842 366,79.5C 364.883,78.0506 364.216,76.3839 364,74.5C 362.121,76.5268 360.954,78.8602 360.5,81.5C 353.201,82.5151 345.701,83.8484 338,85.5C 333.889,87.8052 329.722,89.9719 325.5,92C 323.564,92.813 321.564,93.313 319.5,93.5C 319.5,94.8333 319.5,96.1667 319.5,97.5C 320.552,97.3505 321.552,97.5172 322.5,98C 317.978,99.5107 313.812,101.677 310,104.5C 309.127,104.265 308.293,103.931 307.5,103.5C 302.311,105.842 297.477,108.842 293,112.5C 292.667,112.167 292.333,111.833 292,111.5C 291.167,113 290,114.167 288.5,115C 289.416,115.278 290.082,115.778 290.5,116.5C 287.851,118.14 285.184,119.807 282.5,121.5C 281.227,122.257 281.227,122.923 282.5,123.5C 261.028,137.303 242.028,153.97 225.5,173.5C 218.354,182.245 212.354,190.745 207.5,199C 209.382,199.198 211.048,199.698 212.5,200.5C 208.802,200.552 205.135,200.886 201.5,201.5C 201.055,175.49 200.555,149.49 200,123.5C 205.715,126.226 211.049,125.56 216,121.5C 216.61,112.151 216.444,102.817 215.5,93.5C 217.39,93.7035 218.89,93.0368 220,91.5C 221.509,92.0897 223.009,92.7564 224.5,93.5C 223.756,96.443 223.256,99.443 223,102.5C 222.667,102.833 222.333,103.167 222,103.5C 221.818,100.774 221.318,98.1071 220.5,95.5C 220.167,96.8333 219.833,98.1667 219.5,99.5C 219.928,102.412 220.595,105.245 221.5,108C 221.252,109.716 220.585,111.216 219.5,112.5C 219.808,113.308 220.308,113.975 221,114.5C 222.813,113.391 223.646,114.058 223.5,116.5C 220.09,116.384 218.756,118.05 219.5,121.5C 220.833,121.5 222.167,121.5 223.5,121.5C 222.712,124.434 222.046,127.434 221.5,130.5C 222.124,137.491 222.624,144.491 223,151.5C 222.77,157.292 224.103,162.625 227,167.5C 232.829,160.671 238.996,154.171 245.5,148C 250.021,143.978 254.688,140.144 259.5,136.5C 258.975,135.808 258.308,135.308 257.5,135C 258.305,133.028 259.639,131.528 261.5,130.5C 260.41,129.391 260.41,128.391 261.5,127.5C 262.258,128.811 263.258,129.311 264.5,129C 263.269,127.817 263.269,126.651 264.5,125.5C 268.348,121.484 272.348,117.651 276.5,114C 278.23,112.148 279.396,112.314 280,114.5C 280.471,112.754 281.138,111.087 282,109.5C 284.799,108.227 286.633,106.227 287.5,103.5C 289.288,103.785 290.955,103.452 292.5,102.5C 300.504,95.8307 309.17,90.164 318.5,85.5C 319.386,84.675 319.719,83.675 319.5,82.5C 324.907,80.286 330.24,77.786 335.5,75C 339.993,70.5434 345.326,69.2101 351.5,71C 347.815,70.0855 348.148,69.4189 352.5,69C 352.167,68.6667 351.833,68.3333 351.5,68C 346.231,66.8938 340.897,66.2272 335.5,66C 339.152,65.5014 342.818,65.3347 346.5,65.5 Z"/></g>
<g><path style="opacity:1" fill="#434341" d="M 367.5,77.5 C 369.347,81.2251 370.681,85.2251 371.5,89.5C 371.423,90.7498 370.756,91.5831 369.5,92C 362.862,93.6066 356.195,95.1066 349.5,96.5C 349.083,95.8761 348.416,95.5427 347.5,95.5C 327.573,100.36 308.573,107.36 290.5,116.5C 290.082,115.778 289.416,115.278 288.5,115C 290,114.167 291.167,113 292,111.5C 292.333,111.833 292.667,112.167 293,112.5C 297.477,108.842 302.311,105.842 307.5,103.5C 308.293,103.931 309.127,104.265 310,104.5C 313.812,101.677 317.978,99.5107 322.5,98C 321.552,97.5172 320.552,97.3505 319.5,97.5C 319.5,96.1667 319.5,94.8333 319.5,93.5C 321.564,93.313 323.564,92.813 325.5,92C 329.722,89.9719 333.889,87.8052 338,85.5C 345.701,83.8484 353.201,82.5151 360.5,81.5C 360.954,78.8602 362.121,76.5268 364,74.5C 364.216,76.3839 364.883,78.0506 366,79.5C 366.278,78.5842 366.778,77.9175 367.5,77.5 Z"/></g>
<g><path style="opacity:1" fill="#f4c440" d="M 405.5,93.5 C 405.5,92.8333 405.167,92.5 404.5,92.5C 399.659,75.2488 389.325,70.9155 373.5,79.5C 372.27,77.7028 371.604,75.7028 371.5,73.5C 379.809,71.2389 388.143,71.0722 396.5,73C 402.34,77.5234 406.007,83.3567 407.5,90.5C 407.36,92.0296 406.693,93.0296 405.5,93.5 Z"/></g>
<g><path style="opacity:1" fill="#130f0c" d="M 365.5,59.5 C 365.301,62.0113 364.968,64.178 364.5,66C 365.449,66.6172 366.282,66.4506 367,65.5C 367.774,67.403 367.44,69.0696 366,70.5C 365.617,69.944 365.117,69.6107 364.5,69.5C 364.489,67.9826 363.823,66.8159 362.5,66C 357.177,65.5006 351.844,65.334 346.5,65.5C 338.35,64.5073 330.017,64.1739 321.5,64.5C 282.213,61.1806 242.88,60.1806 203.5,61.5C 201.265,61.2053 199.265,61.5386 197.5,62.5C 191.56,63.6325 185.893,65.6325 180.5,68.5C 174.099,113.91 171.432,159.577 172.5,205.5C 181.105,203.979 189.772,202.979 198.5,202.5C 197.858,165.503 197.025,128.503 196,91.5C 195.689,89.444 195.189,87.444 194.5,85.5C 191.546,84.8526 188.546,84.686 185.5,85C 179.066,74.0623 182.066,67.0623 194.5,64C 196.81,63.5034 199.143,63.3367 201.5,63.5C 206.647,64.4734 210.147,67.4734 212,72.5C 213.879,79.391 215.046,86.391 215.5,93.5C 216.444,102.817 216.61,112.151 216,121.5C 211.049,125.56 205.715,126.226 200,123.5C 200.555,149.49 201.055,175.49 201.5,201.5C 205.135,200.886 208.802,200.552 212.5,200.5C 254.5,200.5 296.5,200.5 338.5,200.5C 355.51,201.046 372.51,201.712 389.5,202.5C 361.005,203.498 332.338,203.831 303.5,203.5C 271.998,202.854 240.665,202.854 209.5,203.5C 207.167,203.5 204.833,203.5 202.5,203.5C 201.676,207.312 201.176,211.312 201,215.5C 200.617,214.944 200.117,214.611 199.5,214.5C 199.5,211.167 199.5,207.833 199.5,204.5C 195.466,204.505 191.466,204.838 187.5,205.5C 182.833,206.167 178.167,206.833 173.5,207.5C 171.5,207.5 169.5,207.5 167.5,207.5C 167.443,206.391 167.11,205.391 166.5,204.5C 166.833,204.5 167.167,204.5 167.5,204.5C 169.386,181.186 170.553,157.519 171,133.5C 172.369,113.576 174.535,93.7425 177.5,74C 177.167,72.8333 176.833,71.6667 176.5,70.5C 158.623,79.6053 140.623,88.4386 122.5,97C 120.68,97.9794 119.513,99.4794 119,101.5C 118.502,104.482 118.335,107.482 118.5,110.5C 116.791,127.491 115.457,144.658 114.5,162C 114.684,163.376 115.351,164.209 116.5,164.5C 116.5,165.167 116.5,165.833 116.5,166.5C 115.833,166.5 115.5,166.833 115.5,167.5C 114.596,168.209 114.263,169.209 114.5,170.5C 113.167,170.5 112.5,169.833 112.5,168.5C 112.672,167.508 112.338,166.842 111.5,166.5C 112.228,146.094 113.895,125.761 116.5,105.5C 116.493,103.631 116.16,101.964 115.5,100.5C 116.6,99.3951 117.267,98.0618 117.5,96.5C 143.448,82.3605 170.115,69.5272 197.5,58C 222.145,56.2726 246.812,56.106 271.5,57.5C 276.833,57.5 282.167,57.5 287.5,57.5C 297.954,59.143 308.621,59.8096 319.5,59.5C 333.672,61.4158 348.005,63.0825 362.5,64.5C 362.598,62.4471 361.931,60.7804 360.5,59.5C 355.986,49.7394 348.319,45.4061 337.5,46.5C 328.355,45.0679 319.022,44.0679 309.5,43.5C 277.164,41.4478 244.83,41.1144 212.5,42.5C 207.167,42.5 201.833,42.5 196.5,42.5C 193.287,42.81 190.287,42.4767 187.5,41.5C 190.746,40.9459 193.746,39.9459 196.5,38.5C 246.582,35.1571 296.582,36.3237 346.5,42C 356.206,44.2073 362.539,50.0407 365.5,59.5 Z"/></g>
<g><path style="opacity:1" fill="#f99a0a" d="M 185.5,70.5 C 185.369,71.3764 185.702,72.0431 186.5,72.5C 192.741,70.0535 199.074,69.8868 205.5,72C 206.914,75.0554 208.081,78.2221 209,81.5C 209.495,83.4727 209.662,85.4727 209.5,87.5C 207.167,87.5 204.833,87.5 202.5,87.5C 200.651,85.019 198.651,82.519 196.5,80C 192.514,79.5012 188.514,79.3345 184.5,79.5C 184.19,76.2869 184.523,73.2869 185.5,70.5 Z"/></g>
<g><path style="opacity:1" fill="#edbf44" d="M 209.5,87.5 C 209.662,85.4727 209.495,83.4727 209,81.5C 208.081,78.2221 206.914,75.0554 205.5,72C 199.074,69.8868 192.741,70.0535 186.5,72.5C 185.702,72.0431 185.369,71.3764 185.5,70.5C 191.043,65.5957 197.376,64.0957 204.5,66C 210.957,72.0584 213.623,79.5584 212.5,88.5C 211.209,88.7373 210.209,88.404 209.5,87.5 Z"/></g>
<g><path style="opacity:1" fill="#a86b15" d="M 319.5,59.5 C 324.833,59.5 330.167,59.5 335.5,59.5C 342.355,59.8776 349.189,60.5442 356,61.5C 357.707,61.4915 359.207,61.1582 360.5,60.5C 360.5,60.1667 360.5,59.8333 360.5,59.5C 361.931,60.7804 362.598,62.4471 362.5,64.5C 348.005,63.0825 333.672,61.4158 319.5,59.5 Z"/></g>
<g><path style="opacity:1" fill="#965f11" d="M 287.5,57.5 C 298.364,57.4326 309.03,58.0992 319.5,59.5C 308.621,59.8096 297.954,59.143 287.5,57.5 Z"/></g>
<g><path style="opacity:1" fill="#b66110" d="M 184.5,79.5 C 188.514,79.3345 192.514,79.5012 196.5,80C 198.651,82.519 200.651,85.019 202.5,87.5C 201.081,88.4511 199.415,88.7845 197.5,88.5C 197.528,86.4176 196.861,84.5843 195.5,83C 192.144,82.7852 188.811,82.7852 185.5,83C 184.663,81.9887 184.33,80.8221 184.5,79.5 Z"/></g>
<g><path style="opacity:1" fill="#f99a09" d="M 404.5,92.5 C 402.167,92.5 399.833,92.5 397.5,92.5C 396.498,87.3286 393.498,83.8286 388.5,82C 383.719,81.5625 379.052,82.0625 374.5,83.5C 374.167,82.1667 373.833,80.8333 373.5,79.5C 389.325,70.9155 399.659,75.2488 404.5,92.5 Z"/></g>
<g><path style="opacity:1" fill="#2e2e2e" d="M 167.5,204.5 C 164.403,189.849 161.236,175.183 158,160.5C 155.987,156.016 152.487,154.349 147.5,155.5C 146.737,154.732 145.737,154.232 144.5,154C 145.624,153.751 146.624,153.251 147.5,152.5C 146.167,151.833 144.833,151.167 143.5,150.5C 147.35,148.534 151.35,146.867 155.5,145.5C 155.192,144.692 154.692,144.025 154,143.5C 151.493,143.836 148.827,144.502 146,145.5C 144.833,145.167 143.667,144.833 142.5,144.5C 143.077,142.894 143.41,141.228 143.5,139.5C 141.846,132.934 141.179,126.267 141.5,119.5C 140.5,119.5 139.5,119.5 138.5,119.5C 138.193,113.907 138.527,108.407 139.5,103C 138.167,102.333 136.833,102.333 135.5,103C 130.245,106.546 124.745,109.712 119,112.5C 118.536,111.906 118.369,111.239 118.5,110.5C 118.335,107.482 118.502,104.482 119,101.5C 119.513,99.4794 120.68,97.9794 122.5,97C 140.623,88.4386 158.623,79.6053 176.5,70.5C 176.833,71.6667 177.167,72.8333 177.5,74C 174.535,93.7425 172.369,113.576 171,133.5C 170.553,157.519 169.386,181.186 167.5,204.5 Z"/></g>
<g><path style="opacity:1" fill="#231d1a" d="M 365.5,59.5 C 367.295,63.5188 369.295,67.5188 371.5,71.5C 391.993,62.6634 405.16,68.9967 411,90.5C 412.409,97.4356 413.242,104.436 413.5,111.5C 413.5,116.5 413.5,121.5 413.5,126.5C 411.613,129.949 408.613,131.283 404.5,130.5C 400.82,130.941 397.653,129.941 395,127.5C 392.624,116.631 390.957,105.631 390,94.5C 389.236,90.9005 387.07,88.9005 383.5,88.5C 384.635,86.7868 386.302,86.1201 388.5,86.5C 390.867,87.8708 392.533,89.8708 393.5,92.5C 397.445,93.4909 401.445,93.8242 405.5,93.5C 406.693,93.0296 407.36,92.0296 407.5,90.5C 406.007,83.3567 402.34,77.5234 396.5,73C 388.143,71.0722 379.809,71.2389 371.5,73.5C 370.167,74.1667 368.833,74.8333 367.5,75.5C 365.992,73.8185 364.992,71.8185 364.5,69.5C 365.117,69.6107 365.617,69.944 366,70.5C 367.44,69.0696 367.774,67.403 367,65.5C 366.282,66.4506 365.449,66.6172 364.5,66C 364.968,64.178 365.301,62.0113 365.5,59.5 Z"/></g>
<g><path style="opacity:1" fill="#bd650a" d="M 404.5,92.5 C 405.167,92.5 405.5,92.8333 405.5,93.5C 401.445,93.8242 397.445,93.4909 393.5,92.5C 392.533,89.8708 390.867,87.8708 388.5,86.5C 387.551,85.8476 386.385,85.5143 385,85.5C 381.8,86.0683 378.633,86.7349 375.5,87.5C 375.567,86.0413 375.234,84.7079 374.5,83.5C 379.052,82.0625 383.719,81.5625 388.5,82C 393.498,83.8286 396.498,87.3286 397.5,92.5C 399.833,92.5 402.167,92.5 404.5,92.5 Z"/></g>
<g><path style="opacity:1" fill="#343432" d="M 197.5,62.5 C 199.099,62.2322 200.432,62.5655 201.5,63.5C 199.143,63.3367 196.81,63.5034 194.5,64C 182.066,67.0623 179.066,74.0623 185.5,85C 188.546,84.686 191.546,84.8526 194.5,85.5C 195.189,87.444 195.689,89.444 196,91.5C 197.025,128.503 197.858,165.503 198.5,202.5C 189.772,202.979 181.105,203.979 172.5,205.5C 171.432,159.577 174.099,113.91 180.5,68.5C 185.893,65.6325 191.56,63.6325 197.5,62.5 Z"/></g>
<g><path style="opacity:1" fill="#fc9905" d="M 212.5,116.5 C 209.41,119.363 206.577,119.029 204,115.5C 201.842,107.656 201.009,99.6561 201.5,91.5C 204.054,90.612 206.721,90.2786 209.5,90.5C 209.344,94.1351 208.178,94.4685 206,91.5C 205.5,92 205,92.5 204.5,93C 206.138,95.1335 206.971,97.6335 207,100.5C 208.612,100.048 209.612,98.7147 210,96.5C 210.285,103.262 211.118,109.929 212.5,116.5 Z"/></g>
<g><path style="opacity:0.987" fill="#1d1a15" d="M 371.5,73.5 C 371.604,75.7028 372.27,77.7028 373.5,79.5C 373.833,80.8333 374.167,82.1667 374.5,83.5C 375.234,84.7079 375.567,86.0413 375.5,87.5C 378.633,86.7349 381.8,86.0683 385,85.5C 386.385,85.5143 387.551,85.8476 388.5,86.5C 386.302,86.1201 384.635,86.7868 383.5,88.5C 381.5,88.8333 379.5,89.1667 377.5,89.5C 388.052,127.478 394.719,166.145 397.5,205.5C 396.73,203.701 395.397,202.368 393.5,201.5C 392.614,202.325 392.281,203.325 392.5,204.5C 384.167,204.5 375.833,204.5 367.5,204.5C 346.167,204.5 324.833,204.5 303.5,204.5C 303.5,204.167 303.5,203.833 303.5,203.5C 332.338,203.831 361.005,203.498 389.5,202.5C 390.812,200.257 391.478,197.59 391.5,194.5C 388.937,163.31 383.603,132.644 375.5,102.5C 374.302,98.0204 372.969,93.6871 371.5,89.5C 370.681,85.2251 369.347,81.2251 367.5,77.5C 367.5,76.8333 367.5,76.1667 367.5,75.5C 368.833,74.8333 370.167,74.1667 371.5,73.5 Z"/></g>
<g><path style="opacity:1" fill="#2d2e2e" d="M 371.5,89.5 C 372.969,93.6871 374.302,98.0204 375.5,102.5C 374.883,102.611 374.383,102.944 374,103.5C 373.17,108.808 372.67,114.141 372.5,119.5C 370.833,119.5 369.167,119.5 367.5,119.5C 367.502,121.831 366.669,123.831 365,125.5C 364.502,128.817 364.335,132.15 364.5,135.5C 362.533,135.739 360.699,135.406 359,134.5C 358.151,137.521 357.317,140.521 356.5,143.5C 357.5,143.5 358.5,143.5 359.5,143.5C 359.5,144.833 359.5,146.167 359.5,147.5C 355.695,148.574 352.029,149.908 348.5,151.5C 348.5,154.167 348.5,156.833 348.5,159.5C 349.5,159.5 350.5,159.5 351.5,159.5C 351.5,160.833 351.5,162.167 351.5,163.5C 344.052,164.094 341.385,168.094 343.5,175.5C 346.797,175.329 347.131,175.995 344.5,177.5C 343.534,179.396 343.201,181.396 343.5,183.5C 340.833,183.5 338.167,183.5 335.5,183.5C 334.994,187.007 335.66,190.174 337.5,193C 333.642,193.079 329.976,193.746 326.5,195C 332.948,196.459 338.948,197.292 344.5,197.5C 345.167,197.833 345.833,198.167 346.5,198.5C 343.694,199.168 341.028,199.834 338.5,200.5C 296.5,200.5 254.5,200.5 212.5,200.5C 211.048,199.698 209.382,199.198 207.5,199C 212.354,190.745 218.354,182.245 225.5,173.5C 225.369,174.239 225.536,174.906 226,175.5C 227.353,174.315 228.52,172.981 229.5,171.5C 229.833,171.833 230.167,172.167 230.5,172.5C 229.833,173.5 229.167,174.5 228.5,175.5C 230.655,178.454 231.822,181.788 232,185.5C 234.807,187.911 235.974,190.744 235.5,194C 236.613,195.394 237.947,196.561 239.5,197.5C 239.06,196.047 239.726,194.881 241.5,194C 245.089,193.793 248.589,193.293 252,192.5C 254.54,193.543 256.874,194.209 259,194.5C 263.121,193.861 267.287,193.195 271.5,192.5C 268.914,191.52 266.247,191.187 263.5,191.5C 263.5,189.833 263.5,188.167 263.5,186.5C 266.167,186.5 268.833,186.5 271.5,186.5C 271.5,185.5 271.5,184.5 271.5,183.5C 274.167,183.5 276.833,183.5 279.5,183.5C 279.5,181.833 279.5,180.167 279.5,178.5C 282.167,178.5 284.833,178.5 287.5,178.5C 287.5,175.833 287.5,173.167 287.5,170.5C 290.167,170.5 292.833,170.5 295.5,170.5C 295.5,169.5 295.5,168.5 295.5,167.5C 298.167,167.5 300.833,167.5 303.5,167.5C 303.5,165.833 303.5,164.167 303.5,162.5C 306.167,162.5 308.833,162.5 311.5,162.5C 311.5,161.5 311.5,160.5 311.5,159.5C 312.833,159.5 314.167,159.5 315.5,159.5C 315.335,156.15 315.502,152.817 316,149.5C 318.46,148.245 319.627,146.245 319.5,143.5C 320.833,143.5 322.167,143.5 323.5,143.5C 323.5,140.833 323.5,138.167 323.5,135.5C 324.5,135.5 325.5,135.5 326.5,135.5C 326.336,132.813 326.503,130.146 327,127.5C 327.423,128.956 328.256,129.456 329.5,129C 332.234,126.14 334.234,122.973 335.5,119.5C 336.5,119.5 337.5,119.5 338.5,119.5C 338.67,114.141 339.17,108.808 340,103.5C 340.497,106.146 340.664,108.813 340.5,111.5C 341.5,111.5 342.5,111.5 343.5,111.5C 343.269,107.915 344.269,104.748 346.5,102C 344.833,101.667 343.167,101.333 341.5,101C 344.177,100.751 346.51,99.7506 348.5,98C 347.906,97.5357 347.239,97.369 346.5,97.5C 347.209,96.596 348.209,96.2627 349.5,96.5C 356.195,95.1066 362.862,93.6066 369.5,92C 370.756,91.5831 371.423,90.7498 371.5,89.5 Z"/></g>
<g><path style="opacity:1" fill="#eb9f1e" d="M 201.5,89.5 C 205.5,89.5 209.5,89.5 213.5,89.5C 213.5,94.1667 213.5,98.8333 213.5,103.5C 213.5,107.833 213.5,112.167 213.5,116.5C 213.167,116.5 212.833,116.5 212.5,116.5C 211.118,109.929 210.285,103.262 210,96.5C 209.612,98.7147 208.612,100.048 207,100.5C 206.971,97.6335 206.138,95.1335 204.5,93C 205,92.5 205.5,92 206,91.5C 208.178,94.4685 209.344,94.1351 209.5,90.5C 206.721,90.2786 204.054,90.612 201.5,91.5C 201.167,91.5 200.833,91.5 200.5,91.5C 200.833,90.8333 201.167,90.1667 201.5,89.5 Z"/></g>
<g><path style="opacity:1" fill="#835122" d="M 201.5,89.5 C 201.167,90.1667 200.833,90.8333 200.5,91.5C 199.517,95.2984 199.183,99.2984 199.5,103.5C 198.353,99.3537 198.186,95.0204 199,90.5C 199.671,89.7476 200.504,89.4142 201.5,89.5 Z"/></g>
<g><path style="opacity:1" fill="#f79a10" d="M 398.5,96.5 C 398.5,96.1667 398.5,95.8333 398.5,95.5C 402.167,95.5 405.833,95.5 409.5,95.5C 409.966,101.491 410.299,107.491 410.5,113.5C 410.662,115.527 410.495,117.527 410,119.5C 409.617,120.056 409.117,120.389 408.5,120.5C 405.305,121.039 402.805,120.039 401,117.5C 399.991,110.382 399.158,103.382 398.5,96.5 Z"/></g>
<g><path style="opacity:1" fill="#a9601b" d="M 398.5,95.5 C 398.5,95.8333 398.5,96.1667 398.5,96.5C 397.307,96.9704 396.64,97.9704 396.5,99.5C 397.589,107.138 398.423,114.804 399,122.5C 400.353,123.704 402.019,124.371 404,124.5C 405.5,124.167 407,123.833 408.5,123.5C 407.209,122.473 407.209,121.473 408.5,120.5C 409.117,120.389 409.617,120.056 410,119.5C 410.495,117.527 410.662,115.527 410.5,113.5C 414.36,124.807 410.527,128.807 399,125.5C 396.955,115.638 395.788,105.638 395.5,95.5C 396.5,95.5 397.5,95.5 398.5,95.5 Z"/></g>
<g><path style="opacity:1" fill="#292929" d="M 346.5,97.5 C 347.239,97.369 347.906,97.5357 348.5,98C 346.51,99.7506 344.177,100.751 341.5,101C 343.167,101.333 344.833,101.667 346.5,102C 344.269,104.748 343.269,107.915 343.5,111.5C 342.5,111.5 341.5,111.5 340.5,111.5C 340.664,108.813 340.497,106.146 340,103.5C 339.17,108.808 338.67,114.141 338.5,119.5C 337.5,119.5 336.5,119.5 335.5,119.5C 334.234,122.973 332.234,126.14 329.5,129C 328.256,129.456 327.423,128.956 327,127.5C 326.503,130.146 326.336,132.813 326.5,135.5C 325.5,135.5 324.5,135.5 323.5,135.5C 323.5,138.167 323.5,140.833 323.5,143.5C 322.167,143.5 320.833,143.5 319.5,143.5C 319.627,146.245 318.46,148.245 316,149.5C 315.502,152.817 315.335,156.15 315.5,159.5C 314.167,159.5 312.833,159.5 311.5,159.5C 311.5,160.5 311.5,161.5 311.5,162.5C 308.833,162.5 306.167,162.5 303.5,162.5C 303.5,164.167 303.5,165.833 303.5,167.5C 300.833,167.5 298.167,167.5 295.5,167.5C 295.5,168.5 295.5,169.5 295.5,170.5C 292.833,170.5 290.167,170.5 287.5,170.5C 287.5,173.167 287.5,175.833 287.5,178.5C 284.833,178.5 282.167,178.5 279.5,178.5C 279.5,180.167 279.5,181.833 279.5,183.5C 276.833,183.5 274.167,183.5 271.5,183.5C 271.5,184.5 271.5,185.5 271.5,186.5C 268.833,186.5 266.167,186.5 263.5,186.5C 263.5,188.167 263.5,189.833 263.5,191.5C 266.247,191.187 268.914,191.52 271.5,192.5C 267.287,193.195 263.121,193.861 259,194.5C 256.874,194.209 254.54,193.543 252,192.5C 248.589,193.293 245.089,193.793 241.5,194C 239.726,194.881 239.06,196.047 239.5,197.5C 237.947,196.561 236.613,195.394 235.5,194C 235.974,190.744 234.807,187.911 232,185.5C 231.822,181.788 230.655,178.454 228.5,175.5C 229.167,174.5 229.833,173.5 230.5,172.5C 230.167,172.167 229.833,171.833 229.5,171.5C 228.52,172.981 227.353,174.315 226,175.5C 225.536,174.906 225.369,174.239 225.5,173.5C 242.028,153.97 261.028,137.303 282.5,123.5C 302.597,111.909 323.93,103.243 346.5,97.5 Z"/></g>
<g><path style="opacity:1" fill="#f89d09" d="M 147.5,71.5 C 148.552,71.3505 149.552,71.5172 150.5,72C 151.833,72.6667 151.833,73.3333 150.5,74C 151.244,75.0386 152.244,75.5386 153.5,75.5C 132.763,86.3695 111.763,97.0362 90.5,107.5C 90.5774,106.25 91.244,105.417 92.5,105C 90.8421,103.337 88.8421,102.504 86.5,102.5C 88.6572,100.588 90.9906,98.9213 93.5,97.5C 111.391,88.6452 129.391,79.9785 147.5,71.5 Z"/></g>
<g><path style="opacity:1" fill="#29292a" d="M 147.5,155.5 C 137.155,158.371 126.822,161.371 116.5,164.5C 115.351,164.209 114.684,163.376 114.5,162C 115.457,144.658 116.791,127.491 118.5,110.5C 118.369,111.239 118.536,111.906 119,112.5C 124.745,109.712 130.245,106.546 135.5,103C 136.833,102.333 138.167,102.333 139.5,103C 138.527,108.407 138.193,113.907 138.5,119.5C 139.5,119.5 140.5,119.5 141.5,119.5C 141.179,126.267 141.846,132.934 143.5,139.5C 143.41,141.228 143.077,142.894 142.5,144.5C 143.667,144.833 144.833,145.167 146,145.5C 148.827,144.502 151.493,143.836 154,143.5C 154.692,144.025 155.192,144.692 155.5,145.5C 151.35,146.867 147.35,148.534 143.5,150.5C 144.833,151.167 146.167,151.833 147.5,152.5C 146.624,153.251 145.624,153.751 144.5,154C 145.737,154.232 146.737,154.732 147.5,155.5 Z"/></g>
<g><path style="opacity:1" fill="#343434" d="M 375.5,102.5 C 383.603,132.644 388.937,163.31 391.5,194.5C 391.478,197.59 390.812,200.257 389.5,202.5C 372.51,201.712 355.51,201.046 338.5,200.5C 341.028,199.834 343.694,199.168 346.5,198.5C 345.833,198.167 345.167,197.833 344.5,197.5C 338.948,197.292 332.948,196.459 326.5,195C 329.976,193.746 333.642,193.079 337.5,193C 335.66,190.174 334.994,187.007 335.5,183.5C 338.167,183.5 340.833,183.5 343.5,183.5C 343.201,181.396 343.534,179.396 344.5,177.5C 347.131,175.995 346.797,175.329 343.5,175.5C 341.385,168.094 344.052,164.094 351.5,163.5C 351.5,162.167 351.5,160.833 351.5,159.5C 350.5,159.5 349.5,159.5 348.5,159.5C 348.5,156.833 348.5,154.167 348.5,151.5C 352.029,149.908 355.695,148.574 359.5,147.5C 359.5,146.167 359.5,144.833 359.5,143.5C 358.5,143.5 357.5,143.5 356.5,143.5C 357.317,140.521 358.151,137.521 359,134.5C 360.699,135.406 362.533,135.739 364.5,135.5C 364.335,132.15 364.502,128.817 365,125.5C 366.669,123.831 367.502,121.831 367.5,119.5C 369.167,119.5 370.833,119.5 372.5,119.5C 372.67,114.141 373.17,108.808 374,103.5C 374.383,102.944 374.883,102.611 375.5,102.5 Z"/></g>
<g><path style="opacity:1" fill="#ca6a04" d="M 200.5,91.5 C 200.833,91.5 201.167,91.5 201.5,91.5C 201.009,99.6561 201.842,107.656 204,115.5C 206.577,119.029 209.41,119.363 212.5,116.5C 212.833,116.5 213.167,116.5 213.5,116.5C 213.489,118.017 212.823,119.184 211.5,120C 208.5,120.667 205.5,120.667 202.5,120C 201.091,114.474 200.091,108.974 199.5,103.5C 199.183,99.2984 199.517,95.2984 200.5,91.5 Z"/></g>
<g><path style="opacity:1" fill="#f89208" d="M 86.5,102.5 C 88.8421,102.504 90.8421,103.337 92.5,105C 91.244,105.417 90.5774,106.25 90.5,107.5C 68.3381,118.802 46.0048,130.135 23.5,141.5C 22.5481,139.955 22.2148,138.288 22.5,136.5C 24.337,133.895 26.6703,131.728 29.5,130C 46.3122,122.428 62.6455,114.095 78.5,105C 81.154,104.059 83.8206,103.226 86.5,102.5 Z"/></g>
<g><path style="opacity:1" fill="#747473" d="M 349.5,96.5 C 348.209,96.2627 347.209,96.596 346.5,97.5C 323.93,103.243 302.597,111.909 282.5,123.5C 281.227,122.923 281.227,122.257 282.5,121.5C 285.184,119.807 287.851,118.14 290.5,116.5C 308.573,107.36 327.573,100.36 347.5,95.5C 348.416,95.5427 349.083,95.8761 349.5,96.5 Z"/></g>
<g><path style="opacity:0.733" fill="#65615f" d="M 413.5,111.5 C 414.198,114.897 414.865,118.397 415.5,122C 414.901,123.622 414.234,125.122 413.5,126.5C 413.5,121.5 413.5,116.5 413.5,111.5 Z"/></g>
<g><path style="opacity:1" fill="#efbc44" d="M 93.5,93.5 C 93.0742,95.1388 93.0742,96.4721 93.5,97.5C 90.9906,98.9213 88.6572,100.588 86.5,102.5C 83.8206,103.226 81.154,104.059 78.5,105C 62.6455,114.095 46.3122,122.428 29.5,130C 26.6703,131.728 24.337,133.895 22.5,136.5C 22.1667,136.5 21.8333,136.5 21.5,136.5C 22.4541,131.711 25.1207,128.211 29.5,126C 50.6683,114.916 72.0017,104.082 93.5,93.5 Z"/></g>
<g><path style="opacity:1" fill="#9b5d1d" d="M 199.5,103.5 C 200.091,108.974 201.091,114.474 202.5,120C 205.5,120.667 208.5,120.667 211.5,120C 212.823,119.184 213.489,118.017 213.5,116.5C 213.5,112.167 213.5,107.833 213.5,103.5C 214.652,108.985 214.818,114.651 214,120.5C 209.601,123.106 205.267,123.106 201,120.5C 199.649,114.928 199.149,109.262 199.5,103.5 Z"/></g>
<g><path style="opacity:1" fill="#c76502" d="M 398.5,96.5 C 399.158,103.382 399.991,110.382 401,117.5C 402.805,120.039 405.305,121.039 408.5,120.5C 407.209,121.473 407.209,122.473 408.5,123.5C 407,123.833 405.5,124.167 404,124.5C 402.019,124.371 400.353,123.704 399,122.5C 398.423,114.804 397.589,107.138 396.5,99.5C 396.64,97.9704 397.307,96.9704 398.5,96.5 Z"/></g>
<g><path style="opacity:1" fill="#171412" d="M 185.5,41.5 C 186.167,41.5 186.833,41.5 187.5,41.5C 190.287,42.4767 193.287,42.81 196.5,42.5C 192.179,43.664 187.846,45.164 183.5,47C 153.282,62.2744 123.282,77.7744 93.5,93.5C 72.0017,104.082 50.6683,114.916 29.5,126C 25.1207,128.211 22.4541,131.711 21.5,136.5C 20.8333,136.5 20.5,136.833 20.5,137.5C 18.9069,138.348 17.7403,139.681 17,141.5C 16.6667,147.167 16.3333,152.833 16,158.5C 15.9977,161.051 15.1644,163.051 13.5,164.5C 13.2355,152.026 15.4022,140.026 20,128.5C 21.1667,127.333 22.3333,126.167 23.5,125C 68.3106,101.093 113.311,77.4267 158.5,54C 167.282,49.2745 176.282,45.1078 185.5,41.5 Z"/></g>
<g><path style="opacity:1" fill="#242524" d="M 115.5,100.5 C 116.16,101.964 116.493,103.631 116.5,105.5C 113.895,125.761 112.228,146.094 111.5,166.5C 95.4521,170.852 79.4521,175.186 63.5,179.5C 64.0057,160.739 65.5057,142.072 68,123.5C 83.7556,115.744 99.5889,108.077 115.5,100.5 Z"/></g>
<g><path style="opacity:1" fill="#b17734" d="M 19.5,145.5 C 19.5,146.833 20.1667,147.5 21.5,147.5C 20.4485,151.426 19.7818,155.426 19.5,159.5C 18.8333,159.167 18.1667,158.833 17.5,158.5C 17.2796,153.9 17.9462,149.567 19.5,145.5 Z"/></g>
<g><path style="opacity:1" fill="#d7b44e" d="M 158.5,171.5 C 156.571,167.714 155.238,163.714 154.5,159.5C 150.833,159.5 147.167,159.5 143.5,159.5C 146.856,157.621 150.523,157.121 154.5,158C 157.023,162.088 158.356,166.588 158.5,171.5 Z"/></g>
<g><path style="opacity:1" fill="#e0c575" d="M 143.5,159.5 C 137.91,161.75 132.244,163.75 126.5,165.5C 122.691,166.436 119.025,167.77 115.5,169.5C 115.5,168.833 115.5,168.167 115.5,167.5C 115.5,166.833 115.833,166.5 116.5,166.5C 125.466,163.954 134.466,161.621 143.5,159.5 Z"/></g>
<g><path style="opacity:1" fill="#f8a40a" d="M 143.5,159.5 C 147.167,159.5 150.833,159.5 154.5,159.5C 155.238,163.714 156.571,167.714 158.5,171.5C 160.451,177.921 161.784,184.588 162.5,191.5C 162.5,194.5 162.5,197.5 162.5,200.5C 155.113,200.786 147.78,201.62 140.5,203C 139.263,203.232 138.263,203.732 137.5,204.5C 131.047,206.042 124.38,207.042 117.5,207.5C 116.5,207.5 115.5,207.5 114.5,207.5C 114.5,199.5 114.5,191.5 114.5,183.5C 114.5,179.167 114.5,174.833 114.5,170.5C 114.263,169.209 114.596,168.209 115.5,167.5C 115.5,168.167 115.5,168.833 115.5,169.5C 115.5,181.833 115.5,194.167 115.5,206.5C 121.142,205.302 126.809,204.135 132.5,203C 132.36,201.931 132.36,200.764 132.5,199.5C 134.86,200.172 136.86,199.339 138.5,197C 140.134,196.506 141.801,196.34 143.5,196.5C 143.5,195.5 143.5,194.5 143.5,193.5C 141.076,193.808 138.743,193.474 136.5,192.5C 137.584,185.5 137.584,178.667 136.5,172C 134.052,169.7 134.719,168.367 138.5,168C 139.925,166.638 140.758,165.138 141,163.5C 136.348,165.183 131.515,165.85 126.5,165.5C 132.244,163.75 137.91,161.75 143.5,159.5 Z"/></g>
<g><path style="opacity:1" fill="#fb9f02" d="M 115.5,169.5 C 119.025,167.77 122.691,166.436 126.5,165.5C 131.515,165.85 136.348,165.183 141,163.5C 140.758,165.138 139.925,166.638 138.5,168C 134.719,168.367 134.052,169.7 136.5,172C 137.584,178.667 137.584,185.5 136.5,192.5C 138.743,193.474 141.076,193.808 143.5,193.5C 143.5,194.5 143.5,195.5 143.5,196.5C 141.801,196.34 140.134,196.506 138.5,197C 136.86,199.339 134.86,200.172 132.5,199.5C 132.36,200.764 132.36,201.931 132.5,203C 126.809,204.135 121.142,205.302 115.5,206.5C 115.5,194.167 115.5,181.833 115.5,169.5 Z"/></g>
<g><path style="opacity:1" fill="#c97b1f" d="M 17.5,158.5 C 18.1667,158.833 18.8333,159.167 19.5,159.5C 19.5191,168.735 20.8524,177.735 23.5,186.5C 21.3983,183.069 19.565,179.402 18,175.5C 17.8019,177.382 17.3019,179.048 16.5,180.5C 16.5,177.833 16.5,175.167 16.5,172.5C 16.3531,167.786 16.6864,163.119 17.5,158.5 Z"/></g>
<g><path style="opacity:1" fill="#e1c375" d="M 111.5,168.5 C 111.5,169.167 111.5,169.833 111.5,170.5C 101.781,173.619 91.7807,175.953 81.5,177.5C 91.2859,174.13 101.286,171.13 111.5,168.5 Z"/></g>
<g><path style="opacity:1" fill="#fa9704" d="M 106.5,209.5 C 106.5,209.833 106.5,210.167 106.5,210.5C 97.4671,211.219 88.4671,212.219 79.5,213.5C 76.7814,213.603 74.1147,213.269 71.5,212.5C 69.3543,213.894 67.021,214.56 64.5,214.5C 64.5,204.167 64.5,193.833 64.5,183.5C 69.4573,182.011 74.4573,180.677 79.5,179.5C 83.819,178.965 88.1523,178.465 92.5,178C 98.3351,176.752 104.002,174.919 109.5,172.5C 109.568,184.37 109.568,196.37 109.5,208.5C 108.209,208.263 107.209,208.596 106.5,209.5 Z"/></g>
<g><path style="opacity:1" fill="#e99f23" d="M 111.5,170.5 C 110.834,183.489 110.5,196.489 110.5,209.5C 109.167,209.5 107.833,209.5 106.5,209.5C 107.209,208.596 108.209,208.263 109.5,208.5C 109.568,196.37 109.568,184.37 109.5,172.5C 104.002,174.919 98.3351,176.752 92.5,178C 88.1523,178.465 83.819,178.965 79.5,179.5C 80.1667,178.833 80.8333,178.167 81.5,177.5C 91.7807,175.953 101.781,173.619 111.5,170.5 Z"/></g>
<g><path style="opacity:1" fill="#d9b35a" d="M 81.5,177.5 C 80.8333,178.167 80.1667,178.833 79.5,179.5C 74.4573,180.677 69.4573,182.011 64.5,183.5C 64.1667,183.5 63.8333,183.5 63.5,183.5C 63.6107,182.883 63.944,182.383 64.5,182C 70.1063,180.185 75.773,178.685 81.5,177.5 Z"/></g>
<g><path style="opacity:1" fill="#140905" d="M 117.5,96.5 C 117.267,98.0618 116.6,99.3951 115.5,100.5C 99.5889,108.077 83.7556,115.744 68,123.5C 65.5057,142.072 64.0057,160.739 63.5,179.5C 79.4521,175.186 95.4521,170.852 111.5,166.5C 112.338,166.842 112.672,167.508 112.5,168.5C 112.167,168.5 111.833,168.5 111.5,168.5C 101.286,171.13 91.2859,174.13 81.5,177.5C 75.773,178.685 70.1063,180.185 64.5,182C 63.944,182.383 63.6107,182.883 63.5,183.5C 62.5111,188.975 62.1778,194.642 62.5,200.5C 61.8333,194.833 61.1667,189.167 60.5,183.5C 53.4902,185.224 46.4902,187.058 39.5,189C 37.6803,189.2 36.347,190.034 35.5,191.5C 30.1675,192.695 26.1675,191.028 23.5,186.5C 20.8524,177.735 19.5191,168.735 19.5,159.5C 19.7818,155.426 20.4485,151.426 21.5,147.5C 21.5394,146.417 21.8728,145.417 22.5,144.5C 30.3475,139.219 38.6808,134.885 47.5,131.5C 46.9688,133.624 45.6355,135.124 43.5,136C 37.9799,138.847 32.3132,141.514 26.5,144C 24.6277,146.293 23.1277,148.793 22,151.5C 21.3,161.732 21.8,171.899 23.5,182C 24.0223,182.95 24.689,183.784 25.5,184.5C 29.1097,185.703 32.7763,186.703 36.5,187.5C 44.4283,185.788 52.095,183.455 59.5,180.5C 61.6684,162.121 63.5017,143.788 65,125.5C 59.7884,128.403 54.2884,130.403 48.5,131.5C 49.5736,130.115 50.9069,128.949 52.5,128C 74.3211,117.784 95.9877,107.284 117.5,96.5 Z"/></g>
<g><path style="opacity:1" fill="#202020" d="M 47.5,131.5 C 47.8333,131.5 48.1667,131.5 48.5,131.5C 54.2884,130.403 59.7884,128.403 65,125.5C 63.5017,143.788 61.6684,162.121 59.5,180.5C 52.095,183.455 44.4283,185.788 36.5,187.5C 32.7763,186.703 29.1097,185.703 25.5,184.5C 24.689,183.784 24.0223,182.95 23.5,182C 21.8,171.899 21.3,161.732 22,151.5C 23.1277,148.793 24.6277,146.293 26.5,144C 32.3132,141.514 37.9799,138.847 43.5,136C 45.6355,135.124 46.9688,133.624 47.5,131.5 Z"/></g>
<g><path style="opacity:1" fill="#ce8e2e" d="M 60.5,183.5 C 60.8195,188.363 60.4861,193.03 59.5,197.5C 59.5,193.5 59.5,189.5 59.5,185.5C 51.7001,188.129 43.7001,190.129 35.5,191.5C 36.347,190.034 37.6803,189.2 39.5,189C 46.4902,187.058 53.4902,185.224 60.5,183.5 Z"/></g>
<g><path style="opacity:1" fill="#f88b03" d="M 23.5,186.5 C 26.1675,191.028 30.1675,192.695 35.5,191.5C 43.7001,190.129 51.7001,188.129 59.5,185.5C 59.5,189.5 59.5,193.5 59.5,197.5C 59.5,204.167 59.5,210.833 59.5,217.5C 56.5,217.5 53.5,217.5 50.5,217.5C 39.834,218.666 29.1674,219.833 18.5,221C 17.944,221.383 17.6107,221.883 17.5,222.5C 16.5042,208.677 16.1709,194.677 16.5,180.5C 17.3019,179.048 17.8019,177.382 18,175.5C 19.565,179.402 21.3983,183.069 23.5,186.5 Z"/></g>
<g><path style="opacity:1" fill="#e69623" d="M 63.5,183.5 C 63.8333,183.5 64.1667,183.5 64.5,183.5C 64.5,193.833 64.5,204.167 64.5,214.5C 67.021,214.56 69.3543,213.894 71.5,212.5C 74.1147,213.269 76.7814,213.603 79.5,213.5C 75.3609,214.563 71.0275,215.23 66.5,215.5C 65.5,215.5 64.5,215.5 63.5,215.5C 63.5,204.833 63.5,194.167 63.5,183.5 Z"/></g>
<g><path style="opacity:1" fill="#a0510c" d="M 16.5,172.5 C 16.5,175.167 16.5,177.833 16.5,180.5C 16.1709,194.677 16.5042,208.677 17.5,222.5C 18.5,222.5 19.5,222.5 20.5,222.5C 19.0813,223.451 17.4147,223.784 15.5,223.5C 15.1701,206.325 15.5034,189.325 16.5,172.5 Z"/></g>
<g><path style="opacity:1" fill="#e3c757" d="M 209.5,203.5 C 240.665,202.854 271.998,202.854 303.5,203.5C 303.5,203.833 303.5,204.167 303.5,204.5C 298.125,204.172 292.792,204.505 287.5,205.5C 289.423,206.308 291.423,206.808 293.5,207C 292.833,207.333 292.167,207.667 291.5,208C 306.163,208.5 320.83,208.667 335.5,208.5C 319.672,209.661 303.672,209.828 287.5,209C 261.479,207.387 235.479,205.554 209.5,203.5 Z"/></g>
<g><path style="opacity:1" fill="#fcb306" d="M 202.5,203.5 C 204.833,203.5 207.167,203.5 209.5,203.5C 235.479,205.554 261.479,207.387 287.5,209C 303.672,209.828 319.672,209.661 335.5,208.5C 354.191,207.832 372.858,206.832 391.5,205.5C 391.5,208.167 391.5,210.833 391.5,213.5C 387.981,213.259 385.315,214.593 383.5,217.5C 381.801,217.34 380.134,217.506 378.5,218C 374.14,220.18 369.807,222.347 365.5,224.5C 362.746,224.784 360.08,225.451 357.5,226.5C 356.289,227.72 356.289,228.887 357.5,230C 356.5,230.333 355.5,230.667 354.5,231C 355.183,233.988 354.516,233.822 352.5,230.5C 352.5,229.5 352.5,228.5 352.5,227.5C 347.684,226.674 342.684,226.174 337.5,226C 314.5,225.333 291.5,225.333 268.5,226C 267.209,227.292 267.209,228.458 268.5,229.5C 269.167,230.5 269.833,231.5 270.5,232.5C 270.414,233.496 270.748,234.329 271.5,235C 295.337,235.168 319.004,235.668 342.5,236.5C 319.475,235.844 296.809,236.51 274.5,238.5C 273.211,237.499 271.878,237.666 270.5,239C 272.406,240.856 273.24,243.023 273,245.5C 272.667,245.167 272.333,244.833 272,244.5C 271.292,245.381 270.458,246.047 269.5,246.5C 268.902,238.887 265.569,232.72 259.5,228C 244.403,220.632 228.737,214.632 212.5,210C 209.183,209.502 205.85,209.335 202.5,209.5C 202.5,207.5 202.5,205.5 202.5,203.5 Z"/></g>
<g><path style="opacity:1" fill="#fbe384" d="M 303.5,204.5 C 324.833,204.5 346.167,204.5 367.5,204.5C 367.389,205.117 367.056,205.617 366.5,206C 355.785,205.853 345.451,206.686 335.5,208.5C 320.83,208.667 306.163,208.5 291.5,208C 292.167,207.667 292.833,207.333 293.5,207C 291.423,206.808 289.423,206.308 287.5,205.5C 292.792,204.505 298.125,204.172 303.5,204.5 Z"/></g>
<g><path style="opacity:1" fill="#f9d458" d="M 367.5,204.5 C 375.833,204.5 384.167,204.5 392.5,204.5C 392.5,207.5 392.5,210.5 392.5,213.5C 392.167,213.5 391.833,213.5 391.5,213.5C 391.5,210.833 391.5,208.167 391.5,205.5C 372.858,206.832 354.191,207.832 335.5,208.5C 345.451,206.686 355.785,205.853 366.5,206C 367.056,205.617 367.389,205.117 367.5,204.5 Z"/></g>
<g><path style="opacity:1" fill="#fbac03" d="M 199.5,214.5 C 199.5,221.833 199.5,229.167 199.5,236.5C 199.333,249.504 199.5,262.504 200,275.5C 200.191,277.708 200.691,279.708 201.5,281.5C 201.5,281.833 201.5,282.167 201.5,282.5C 201.5,284.5 201.5,286.5 201.5,288.5C 193.112,288.773 184.779,288.44 176.5,287.5C 174.84,261.203 174.173,234.869 174.5,208.5C 179.273,208.876 183.607,207.876 187.5,205.5C 191.466,204.838 195.466,204.505 199.5,204.5C 199.5,207.833 199.5,211.167 199.5,214.5 Z"/></g>
<g><path style="opacity:1" fill="#e4e3e1" d="M 166.5,204.5 C 167.11,205.391 167.443,206.391 167.5,207.5C 149.499,209.833 131.499,212.167 113.5,214.5C 113.5,212.833 113.5,211.167 113.5,209.5C 129.882,207.577 146.216,205.244 162.5,202.5C 164.114,202.803 165.448,203.47 166.5,204.5 Z"/></g>
<g><path style="opacity:1" fill="#8f6220" d="M 63.5,183.5 C 63.5,194.167 63.5,204.833 63.5,215.5C 64.5,215.5 65.5,215.5 66.5,215.5C 65.4324,216.434 64.099,216.768 62.5,216.5C 62.5,211.167 62.5,205.833 62.5,200.5C 62.1778,194.642 62.5111,188.975 63.5,183.5 Z"/></g>
<g><path style="opacity:1" fill="#5d3b03" d="M 392.5,204.5 C 393.482,207.962 393.815,211.629 393.5,215.5C 392.167,215.5 390.833,215.5 389.5,215.5C 390.5,214.833 391.5,214.167 392.5,213.5C 392.5,210.5 392.5,207.5 392.5,204.5 Z"/></g>
<g><path style="opacity:1" fill="#c6c4c2" d="M 106.5,210.5 C 107.833,210.5 109.167,210.5 110.5,210.5C 110.5,212.167 110.5,213.833 110.5,215.5C 99.9335,216.531 89.6001,218.198 79.5,220.5C 73.8387,220.907 68.172,221.24 62.5,221.5C 62.5,220.167 62.5,218.833 62.5,217.5C 77.3962,215.794 92.0629,213.461 106.5,210.5 Z"/></g>
<g><path style="opacity:1" fill="#241206" d="M 147.5,155.5 C 152.487,154.349 155.987,156.016 158,160.5C 161.236,175.183 164.403,189.849 167.5,204.5C 167.167,204.5 166.833,204.5 166.5,204.5C 165.448,203.47 164.114,202.803 162.5,202.5C 146.216,205.244 129.882,207.577 113.5,209.5C 113.5,211.167 113.5,212.833 113.5,214.5C 131.499,212.167 149.499,209.833 167.5,207.5C 169.5,207.5 171.5,207.5 173.5,207.5C 173.333,229.836 173.5,252.169 174,274.5C 174.175,279.019 174.675,283.353 175.5,287.5C 175.5,289.167 175.5,290.833 175.5,292.5C 178.167,292.5 180.833,292.5 183.5,292.5C 183.5,292.833 183.5,293.167 183.5,293.5C 179.76,293.241 176.094,293.574 172.5,294.5C 168.554,293.627 166.054,291.293 165,287.5C 164.5,278.506 164.334,269.506 164.5,260.5C 165.167,268.5 165.833,276.5 166.5,284.5C 166.018,289.813 168.351,292.146 173.5,291.5C 173.345,282.978 172.678,274.644 171.5,266.5C 171.5,262.833 171.5,259.167 171.5,255.5C 171.039,239.837 170.705,224.17 170.5,208.5C 161.26,209.11 152.26,210.444 143.5,212.5C 133.562,213.325 123.729,214.658 114,216.5C 113.5,238.831 113.333,261.164 113.5,283.5C 113.33,284.822 113.663,285.989 114.5,287C 117.365,287.183 120.031,287.683 122.5,288.5C 113.273,288.877 104.273,288.211 95.5,286.5C 101.093,286.193 106.593,286.527 112,287.5C 112.789,285.288 112.622,283.288 111.5,281.5C 111.5,280.833 111.5,280.167 111.5,279.5C 111.499,271.483 111.166,263.483 110.5,255.5C 110.5,242.833 110.5,230.167 110.5,217.5C 107.287,217.19 104.287,217.523 101.5,218.5C 96.5859,218.362 91.9192,219.028 87.5,220.5C 84.8333,220.5 82.1667,220.5 79.5,220.5C 89.6001,218.198 99.9335,216.531 110.5,215.5C 110.5,213.833 110.5,212.167 110.5,210.5C 109.167,210.5 107.833,210.5 106.5,210.5C 106.5,210.167 106.5,209.833 106.5,209.5C 107.833,209.5 109.167,209.5 110.5,209.5C 110.5,196.489 110.834,183.489 111.5,170.5C 111.5,169.833 111.5,169.167 111.5,168.5C 111.833,168.5 112.167,168.5 112.5,168.5C 112.5,169.833 113.167,170.5 114.5,170.5C 114.5,174.833 114.5,179.167 114.5,183.5C 113.507,191.65 113.174,199.983 113.5,208.5C 115.099,208.768 116.432,208.434 117.5,207.5C 124.38,207.042 131.047,206.042 137.5,204.5C 146.751,204.055 155.751,202.555 164.5,200C 163.872,197.061 163.205,194.228 162.5,191.5C 161.784,184.588 160.451,177.921 158.5,171.5C 158.356,166.588 157.023,162.088 154.5,158C 150.523,157.121 146.856,157.621 143.5,159.5C 134.466,161.621 125.466,163.954 116.5,166.5C 116.5,165.833 116.5,165.167 116.5,164.5C 126.822,161.371 137.155,158.371 147.5,155.5 Z"/></g>
<g><path style="opacity:1" fill="#946410" d="M 114.5,183.5 C 114.5,191.5 114.5,199.5 114.5,207.5C 115.5,207.5 116.5,207.5 117.5,207.5C 116.432,208.434 115.099,208.768 113.5,208.5C 113.174,199.983 113.507,191.65 114.5,183.5 Z"/></g>
<g><path style="opacity:1" fill="#d89c2a" d="M 162.5,191.5 C 163.205,194.228 163.872,197.061 164.5,200C 155.751,202.555 146.751,204.055 137.5,204.5C 138.263,203.732 139.263,203.232 140.5,203C 147.78,201.62 155.113,200.786 162.5,200.5C 162.5,197.5 162.5,194.5 162.5,191.5 Z"/></g>
<g><path style="opacity:1" fill="#faa606" d="M 171.5,255.5 C 171.5,259.167 171.5,262.833 171.5,266.5C 171.666,273.175 171.5,279.842 171,286.5C 169.53,285.733 168.03,285.067 166.5,284.5C 166.666,274.494 166.5,264.494 166,254.5C 165.698,250.755 164.531,247.422 162.5,244.5C 161.743,239.723 159.743,235.557 156.5,232C 153.502,231.109 150.836,231.609 148.5,233.5C 146.856,233.714 145.356,233.38 144,232.5C 143.647,233.672 143.813,234.838 144.5,236C 142.755,238.367 141.255,240.867 140,243.5C 139.878,241.563 139.045,240.23 137.5,239.5C 137.805,234.238 137.471,229.072 136.5,224C 140.255,221.915 144.255,220.248 148.5,219C 145.989,216.895 143.656,217.062 141.5,219.5C 136.076,216.953 130.41,216.12 124.5,217C 122.772,223.048 121.772,222.882 121.5,216.5C 129.192,215.717 136.526,214.384 143.5,212.5C 151.817,211.645 160.15,210.979 168.5,210.5C 167.872,225.763 168.872,240.763 171.5,255.5 Z"/></g>
<g><path style="opacity:1" fill="#b97b13" d="M 391.5,213.5 C 391.833,213.5 392.167,213.5 392.5,213.5C 391.5,214.167 390.5,214.833 389.5,215.5C 387.5,216.167 385.5,216.833 383.5,217.5C 385.315,214.593 387.981,213.259 391.5,213.5 Z"/></g>
<g><path style="opacity:1" fill="#dba024" d="M 187.5,205.5 C 183.607,207.876 179.273,208.876 174.5,208.5C 174.173,234.869 174.84,261.203 176.5,287.5C 176.167,287.5 175.833,287.5 175.5,287.5C 174.675,283.353 174.175,279.019 174,274.5C 173.5,252.169 173.333,229.836 173.5,207.5C 178.167,206.833 182.833,206.167 187.5,205.5 Z"/></g>
<g><path style="opacity:1" fill="#fc9f02" d="M 121.5,216.5 C 121.772,222.882 122.772,223.048 124.5,217C 130.41,216.12 136.076,216.953 141.5,219.5C 143.656,217.062 145.989,216.895 148.5,219C 144.255,220.248 140.255,221.915 136.5,224C 137.471,229.072 137.805,234.238 137.5,239.5C 139.18,244.728 140.013,250.061 140,255.5C 138.573,257.787 136.739,258.12 134.5,256.5C 133.833,258.167 133.167,259.833 132.5,261.5C 124.223,258.785 121.223,261.452 123.5,269.5C 124.605,270.6 125.938,271.267 127.5,271.5C 128.097,272.139 128.93,272.472 130,272.5C 132.184,272.115 134.018,271.115 135.5,269.5C 136.167,269.833 136.833,270.167 137.5,270.5C 138.439,274.765 138.772,279.098 138.5,283.5C 130.5,283.5 122.5,283.5 114.5,283.5C 114.167,261.823 114.5,240.156 115.5,218.5C 117.323,217.253 119.323,216.586 121.5,216.5 Z"/></g>
<g><path style="opacity:1" fill="#d99c22" d="M 171.5,255.5 C 168.872,240.763 167.872,225.763 168.5,210.5C 160.15,210.979 151.817,211.645 143.5,212.5C 152.26,210.444 161.26,209.11 170.5,208.5C 170.705,224.17 171.039,239.837 171.5,255.5 Z"/></g>
<g><path style="opacity:1" fill="#d28122" d="M 50.5,217.5 C 49.5,218.167 48.5,218.833 47.5,219.5C 38.4901,220.39 29.4901,221.39 20.5,222.5C 19.5,222.5 18.5,222.5 17.5,222.5C 17.6107,221.883 17.944,221.383 18.5,221C 29.1674,219.833 39.834,218.666 50.5,217.5 Z"/></g>
<g><path style="opacity:1" fill="#a96f11" d="M 383.5,217.5 C 377.364,220.109 371.364,223.109 365.5,226.5C 365.5,225.833 365.5,225.167 365.5,224.5C 369.807,222.347 374.14,220.18 378.5,218C 380.134,217.506 381.801,217.34 383.5,217.5 Z"/></g>
<g><path style="opacity:1" fill="#2d1609" d="M 60.5,183.5 C 61.1667,189.167 61.8333,194.833 62.5,200.5C 62.5,205.833 62.5,211.167 62.5,216.5C 64.099,216.768 65.4324,216.434 66.5,215.5C 71.0275,215.23 75.3609,214.563 79.5,213.5C 88.4671,212.219 97.4671,211.219 106.5,210.5C 92.0629,213.461 77.3962,215.794 62.5,217.5C 62.5,218.833 62.5,220.167 62.5,221.5C 68.172,221.24 73.8387,220.907 79.5,220.5C 75.1844,221.592 70.8511,222.592 66.5,223.5C 65.8333,223.5 65.1667,223.5 64.5,223.5C 62.5129,241.803 61.8462,260.47 62.5,279.5C 62.5,280.833 62.5,282.167 62.5,283.5C 62.1667,283.5 61.8333,283.5 61.5,283.5C 60.9119,274.023 60.2452,264.69 59.5,255.5C 59.5,245.167 59.5,234.833 59.5,224.5C 49.9413,225.192 40.608,226.526 31.5,228.5C 26.6784,228.352 22.0117,229.019 17.5,230.5C 15.5181,243.792 14.8514,257.459 15.5,271.5C 14.1667,256.167 14.1667,240.833 15.5,225.5C 15.5,226.5 15.5,227.5 15.5,228.5C 29.8367,226.75 44.17,224.916 58.5,223C 59.3802,221.644 59.7135,220.144 59.5,218.5C 55.5341,219.162 51.5341,219.495 47.5,219.5C 48.5,218.833 49.5,218.167 50.5,217.5C 53.5,217.5 56.5,217.5 59.5,217.5C 59.5,210.833 59.5,204.167 59.5,197.5C 60.4861,193.03 60.8195,188.363 60.5,183.5 Z"/></g>
<g><path style="opacity:1" fill="#fa9803" d="M 111.5,279.5 C 111.5,280.167 111.5,280.833 111.5,281.5C 111.672,282.492 111.338,283.158 110.5,283.5C 105.305,283.821 100.305,283.487 95.5,282.5C 96.895,281.352 96.7284,280.352 95,279.5C 89.8447,280.295 84.8447,280.295 80,279.5C 78.8906,277.185 77.0573,275.685 74.5,275C 78.0527,273.942 80.3861,271.775 81.5,268.5C 80.5041,268.414 79.6708,268.748 79,269.5C 78.3333,265.167 78.3333,260.833 79,256.5C 81.6905,257.459 82.0238,256.792 80,254.5C 79.6667,254.833 79.3333,255.167 79,255.5C 78.6921,244.778 78.5254,234.111 78.5,223.5C 73.8999,224.443 69.2332,224.777 64.5,224.5C 64.5,224.167 64.5,223.833 64.5,223.5C 65.1667,223.5 65.8333,223.5 66.5,223.5C 71.3375,223.291 76.1709,222.958 81,222.5C 83.6103,222.467 85.777,221.8 87.5,220.5C 94.2053,219.584 100.872,219.584 107.5,220.5C 108.167,239.167 108.833,257.833 109.5,276.5C 110.176,277.602 110.842,278.602 111.5,279.5 Z"/></g>
<g><path style="opacity:1" fill="#d48b23" d="M 79.5,220.5 C 82.1667,220.5 84.8333,220.5 87.5,220.5C 85.777,221.8 83.6103,222.467 81,222.5C 76.1709,222.958 71.3375,223.291 66.5,223.5C 70.8511,222.592 75.1844,221.592 79.5,220.5 Z"/></g>
<g><path style="opacity:1" fill="#c78d32" d="M 101.5,218.5 C 104.287,217.523 107.287,217.19 110.5,217.5C 110.5,230.167 110.5,242.833 110.5,255.5C 109.505,243.345 109.171,231.011 109.5,218.5C 106.833,218.5 104.167,218.5 101.5,218.5 Z"/></g>
<g><path style="opacity:1" fill="#b27214" d="M 202.5,209.5 C 205.85,209.335 209.183,209.502 212.5,210C 228.737,214.632 244.403,220.632 259.5,228C 265.569,232.72 268.902,238.887 269.5,246.5C 266.833,247.833 264.167,247.833 261.5,246.5C 263.833,246.5 266.167,246.5 268.5,246.5C 267.123,238.925 263.123,233.092 256.5,229C 239.92,220.917 222.586,215.084 204.5,211.5C 203.833,211.5 203.167,211.5 202.5,211.5C 202.5,210.833 202.5,210.167 202.5,209.5 Z"/></g>
<g><path style="opacity:1" fill="#a7a5a2" d="M 15.5,225.5 C 26.1841,223.593 36.8507,221.593 47.5,219.5C 51.5341,219.495 55.5341,219.162 59.5,218.5C 59.7135,220.144 59.3802,221.644 58.5,223C 44.17,224.916 29.8367,226.75 15.5,228.5C 15.5,227.5 15.5,226.5 15.5,225.5 Z"/></g>
<g><path style="opacity:1" fill="#fa9302" d="M 81.5,268.5 C 80.3861,271.775 78.0527,273.942 74.5,275C 77.0573,275.685 78.8906,277.185 80,279.5C 84.8447,280.295 89.8447,280.295 95,279.5C 96.7284,280.352 96.895,281.352 95.5,282.5C 84.562,282.809 73.8954,281.809 63.5,279.5C 63.1698,260.992 63.5032,242.659 64.5,224.5C 69.2332,224.777 73.8999,224.443 78.5,223.5C 78.5254,234.111 78.6921,244.778 79,255.5C 79.3333,255.167 79.6667,254.833 80,254.5C 82.0238,256.792 81.6905,257.459 79,256.5C 78.3333,260.833 78.3333,265.167 79,269.5C 79.6708,268.748 80.5041,268.414 81.5,268.5 Z"/></g>
<g><path style="opacity:1" fill="#21160e" d="M 204.5,211.5 C 222.586,215.084 239.92,220.917 256.5,229C 263.123,233.092 267.123,238.925 268.5,246.5C 266.167,246.5 263.833,246.5 261.5,246.5C 248.971,245.479 236.304,244.312 223.5,243C 220.148,242.162 216.815,241.329 213.5,240.5C 211.668,239.752 210.001,238.752 208.5,237.5C 206.953,231.551 205.619,225.551 204.5,219.5C 204.5,216.833 204.5,214.167 204.5,211.5 Z"/></g>
<g><path style="opacity:1" fill="#c2bfa7" d="M 206.5,218.5 C 212.259,219.419 217.926,220.753 223.5,222.5C 223.5,223.167 223.167,223.5 222.5,223.5C 215.479,223.856 212.479,227.522 213.5,234.5C 213.565,234.938 213.399,235.272 213,235.5C 212.241,233.937 211.074,232.937 209.5,232.5C 208.497,227.809 207.497,223.142 206.5,218.5 Z"/></g>
<g><path style="opacity:1" fill="#e9e9e8" d="M 263.5,243.5 C 260.032,236.913 254.699,232.413 247.5,230C 234.392,224.797 221.059,220.297 207.5,216.5C 205.952,216.179 205.285,215.179 205.5,213.5C 223.194,217.232 240.194,223.065 256.5,231C 261.151,234.49 264.484,238.99 266.5,244.5C 265.14,245.665 264.14,245.332 263.5,243.5 Z"/></g>
<g><path style="opacity:1" fill="#282822" d="M 207.5,216.5 C 221.059,220.297 234.392,224.797 247.5,230C 254.699,232.413 260.032,236.913 263.5,243.5C 260.728,244.767 258.061,244.767 255.5,243.5C 257.604,243.799 259.604,243.466 261.5,242.5C 259.308,238.808 256.308,235.974 252.5,234C 242.844,230.061 233.178,226.228 223.5,222.5C 217.926,220.753 212.259,219.419 206.5,218.5C 206.833,217.833 207.167,217.167 207.5,216.5 Z"/></g>
<g><path style="opacity:1" fill="#c87f0f" d="M 352.5,227.5 C 324.328,227.169 296.328,227.502 268.5,228.5C 268.5,228.833 268.5,229.167 268.5,229.5C 267.209,228.458 267.209,227.292 268.5,226C 291.5,225.333 314.5,225.333 337.5,226C 342.684,226.174 347.684,226.674 352.5,227.5 Z"/></g>
<g><path style="opacity:1" fill="#9e792b" d="M 202.5,211.5 C 203.167,211.5 203.833,211.5 204.5,211.5C 204.5,214.167 204.5,216.833 204.5,219.5C 203.506,229.653 203.172,239.986 203.5,250.5C 202.505,237.677 202.171,224.677 202.5,211.5 Z"/></g>
<g><path style="opacity:1" fill="#1d170b" d="M 222.5,223.5 C 227.982,225.188 229.815,228.855 228,234.5C 223.098,238.473 218.264,238.473 213.5,234.5C 212.479,227.522 215.479,223.856 222.5,223.5 Z"/></g>
<g><path style="opacity:1" fill="#a5a18c" d="M 223.5,222.5 C 233.178,226.228 242.844,230.061 252.5,234C 256.308,235.974 259.308,238.808 261.5,242.5C 259.604,243.466 257.604,243.799 255.5,243.5C 240.897,242.718 226.564,240.551 212.5,237C 210.859,235.871 209.859,234.371 209.5,232.5C 211.074,232.937 212.241,233.937 213,235.5C 213.399,235.272 213.565,234.938 213.5,234.5C 218.264,238.473 223.098,238.473 228,234.5C 229.815,228.855 227.982,225.188 222.5,223.5C 223.167,223.5 223.5,223.167 223.5,222.5 Z"/></g>
<g><path style="opacity:1" fill="#674008" d="M 268.5,228.5 C 296.328,227.502 324.328,227.169 352.5,227.5C 352.5,228.5 352.5,229.5 352.5,230.5C 352.167,230.5 351.833,230.5 351.5,230.5C 324.187,228.508 296.52,227.842 268.5,228.5 Z"/></g>
<g><path style="opacity:1" fill="#87590d" d="M 365.5,226.5 C 364.101,227.89 362.434,228.89 360.5,229.5C 361.401,227.273 363.067,226.273 365.5,226.5 Z"/></g>
<g><path style="opacity:1" fill="#eee7b4" d="M 226.5,229.5 C 222.465,232.463 218.798,232.13 215.5,228.5C 218.32,225.239 221.654,224.739 225.5,227C 226.252,227.671 226.586,228.504 226.5,229.5 Z"/></g>
<g><path style="opacity:1" fill="#210f02" d="M 162.5,244.5 C 162.5,245.5 162.5,246.5 162.5,247.5C 162.167,247.5 161.833,247.5 161.5,247.5C 160.737,243.048 159.237,238.715 157,234.5C 155.062,232.022 152.895,231.855 150.5,234C 147.737,237.361 145.903,241.195 145,245.5C 143.706,252.107 142.873,258.774 142.5,265.5C 141.833,266.167 141.167,266.833 140.5,267.5C 140.91,260.126 141.744,252.793 143,245.5C 144.043,241.085 145.876,237.085 148.5,233.5C 150.836,231.609 153.502,231.109 156.5,232C 159.743,235.557 161.743,239.723 162.5,244.5 Z"/></g>
<g><path style="opacity:1" fill="#efd03e" d="M 215.5,228.5 C 218.798,232.13 222.465,232.463 226.5,229.5C 226.88,231.698 226.213,233.365 224.5,234.5C 221.43,234.632 218.43,234.299 215.5,233.5C 214.28,231.716 214.28,230.05 215.5,228.5 Z"/></g>
<g><path style="opacity:1" fill="#140501" d="M 268.5,228.5 C 296.52,227.842 324.187,228.508 351.5,230.5C 350.373,231.122 349.373,231.955 348.5,233C 322.428,233.823 296.428,233.657 270.5,232.5C 269.833,231.5 269.167,230.5 268.5,229.5C 268.5,229.167 268.5,228.833 268.5,228.5 Z"/></g>
<g><path style="opacity:1" fill="#3b3b36" d="M 279.5,229.5 C 302.526,229.127 325.526,229.627 348.5,231C 335.985,232.159 323.318,232.659 310.5,232.5C 298.167,232.167 285.833,231.833 273.5,231.5C 275.631,230.831 277.631,230.165 279.5,229.5 Z"/></g>
<g><path style="opacity:1" fill="#ac892c" d="M 215.5,233.5 C 218.43,234.299 221.43,234.632 224.5,234.5C 223.866,235.947 222.699,236.613 221,236.5C 218.601,236.387 216.768,235.387 215.5,233.5 Z"/></g>
<g><path style="opacity:1" fill="#1f0b00" d="M 202.5,203.5 C 202.5,205.5 202.5,207.5 202.5,209.5C 202.5,210.167 202.5,210.833 202.5,211.5C 202.171,224.677 202.505,237.677 203.5,250.5C 203.5,254.833 203.5,259.167 203.5,263.5C 203.5,265.833 203.5,268.167 203.5,270.5C 203.833,271.167 204.167,271.833 204.5,272.5C 203.167,277.833 203.167,283.167 204.5,288.5C 204.5,289.833 204.5,291.167 204.5,292.5C 213.518,292.552 222.518,292.218 231.5,291.5C 222.398,293.27 213.065,293.937 203.5,293.5C 203.737,292.209 203.404,291.209 202.5,290.5C 202.806,287.615 202.473,284.948 201.5,282.5C 201.5,282.167 201.5,281.833 201.5,281.5C 201.022,266.336 200.355,251.336 199.5,236.5C 199.5,229.167 199.5,221.833 199.5,214.5C 200.117,214.611 200.617,214.944 201,215.5C 201.176,211.312 201.676,207.312 202.5,203.5 Z"/></g>
<g><path style="opacity:1" fill="#624c0f" d="M 393.5,231.5 C 393.817,235.702 393.483,239.702 392.5,243.5C 392.806,240.615 392.473,237.948 391.5,235.5C 391.66,233.847 392.326,232.514 393.5,231.5 Z"/></g>
<g><path style="opacity:1" fill="#f68b06" d="M 58.5,279.5 C 57.1667,278.833 55.8333,278.167 54.5,277.5C 54.5,276.833 54.1667,276.5 53.5,276.5C 53.5399,267.472 53.0399,258.472 52,249.5C 49.9965,244.164 46.6631,243.164 42,246.5C 40.1046,251.33 38.9379,256.33 38.5,261.5C 37.5111,266.975 37.1778,272.642 37.5,278.5C 31.6464,278.152 27.1464,275.485 24,270.5C 22.7138,267.595 21.7138,264.595 21,261.5C 20.1616,251.077 18.995,240.743 17.5,230.5C 22.0117,229.019 26.6784,228.352 31.5,228.5C 40.4803,227.586 49.4803,226.919 58.5,226.5C 58.5,244.167 58.5,261.833 58.5,279.5 Z"/></g>
<g><path style="opacity:1" fill="#e5af29" d="M 204.5,219.5 C 205.619,225.551 206.953,231.551 208.5,237.5C 206.306,235.779 205.139,233.445 205,230.5C 204.5,241.495 204.333,252.495 204.5,263.5C 204.167,263.5 203.833,263.5 203.5,263.5C 203.5,259.167 203.5,254.833 203.5,250.5C 203.172,239.986 203.506,229.653 204.5,219.5 Z"/></g>
<g><path style="opacity:1" fill="#fcb303" d="M 208.5,237.5 C 210.001,238.752 211.668,239.752 213.5,240.5C 214.903,241.931 216.569,243.098 218.5,244C 223.5,244.333 228.5,244.667 233.5,245C 232.833,245.333 232.167,245.667 231.5,246C 241.494,246.5 251.494,246.666 261.5,246.5C 264.167,247.833 266.833,247.833 269.5,246.5C 270.458,246.047 271.292,245.381 272,244.5C 272.333,244.833 272.667,245.167 273,245.5C 273.24,243.023 272.406,240.856 270.5,239C 271.878,237.666 273.211,237.499 274.5,238.5C 274.5,239.167 274.833,239.5 275.5,239.5C 275.286,241.144 275.62,242.644 276.5,244C 297.876,244.178 319.21,244.678 340.5,245.5C 342.071,244.691 343.738,244.357 345.5,244.5C 345.351,245.552 345.517,246.552 346,247.5C 348.127,247.038 350.46,247.038 353,247.5C 361.823,246.842 370.657,246.342 379.5,246C 379.167,245.667 378.833,245.333 378.5,245C 380.852,244.76 382.852,243.927 384.5,242.5C 387.801,241.199 390.135,238.865 391.5,235.5C 392.473,237.948 392.806,240.615 392.5,243.5C 392.546,250.191 392.212,256.857 391.5,263.5C 390.596,264.209 390.263,265.209 390.5,266.5C 374.865,266.892 359.198,266.392 343.5,265C 315.167,264.333 286.833,264.333 258.5,265C 254.644,265.177 250.977,265.677 247.5,266.5C 233.141,267.474 218.808,267.474 204.5,266.5C 204.5,265.5 204.5,264.5 204.5,263.5C 204.333,252.495 204.5,241.495 205,230.5C 205.139,233.445 206.306,235.779 208.5,237.5 Z"/></g>
<g><path style="opacity:1" fill="#c4820d" d="M 342.5,236.5 C 346.013,236.869 346.347,238.202 343.5,240.5C 343.5,239.833 343.5,239.167 343.5,238.5C 332.338,237.833 321.005,237.5 309.5,237.5C 297.813,237.501 286.48,238.168 275.5,239.5C 274.833,239.5 274.5,239.167 274.5,238.5C 296.809,236.51 319.475,235.844 342.5,236.5 Z"/></g>
<g><path style="opacity:1" fill="#613d06" d="M 343.5,238.5 C 322.167,238.5 300.833,238.5 279.5,238.5C 278.209,238.263 277.209,238.596 276.5,239.5C 276.167,239.5 275.833,239.5 275.5,239.5C 286.48,238.168 297.813,237.501 309.5,237.5C 321.005,237.5 332.338,237.833 343.5,238.5 Z"/></g>
<g><path style="opacity:1" fill="#282015" d="M 234.5,230.5 C 240.337,229.518 243.17,231.851 243,237.5C 237.97,241.95 234.136,241.117 231.5,235C 232.315,233.357 233.315,231.857 234.5,230.5 Z"/></g>
<g><path style="opacity:1" fill="#d1b64a" d="M 234.5,233.5 C 236.551,236.147 238.551,236.147 240.5,233.5C 241.842,236.22 240.842,237.886 237.5,238.5C 234.158,237.886 233.158,236.22 234.5,233.5 Z"/></g>
<g><path style="opacity:1" fill="#dbd190" d="M 240.5,233.5 C 238.551,236.147 236.551,236.147 234.5,233.5C 236.5,230.833 238.5,230.833 240.5,233.5 Z"/></g>
<g><path style="opacity:1" fill="#110000" d="M 279.5,239.5 C 279.5,239.167 279.5,238.833 279.5,238.5C 300.833,238.5 322.167,238.5 343.5,238.5C 343.5,239.167 343.5,239.833 343.5,240.5C 342.833,240.833 342.167,241.167 341.5,241.5C 321.194,239.512 300.527,238.845 279.5,239.5 Z"/></g>
<g><path style="opacity:1" fill="#231c16" d="M 389.5,215.5 C 390.833,215.5 392.167,215.5 393.5,215.5C 393.5,220.833 393.5,226.167 393.5,231.5C 392.326,232.514 391.66,233.847 391.5,235.5C 390.135,238.865 387.801,241.199 384.5,242.5C 382.139,242.674 379.806,243.007 377.5,243.5C 373.316,243.851 369.316,244.518 365.5,245.5C 360.463,245.413 355.463,245.746 350.5,246.5C 352.039,239.752 355.372,234.086 360.5,229.5C 362.434,228.89 364.101,227.89 365.5,226.5C 371.364,223.109 377.364,220.109 383.5,217.5C 385.5,216.833 387.5,216.167 389.5,215.5 Z"/></g>
<g><path style="opacity:1" fill="#ddc356" d="M 385.5,228.5 C 386.993,229.312 387.66,230.645 387.5,232.5C 386.036,236.825 383.536,237.492 380,234.5C 379.123,232.326 379.623,230.659 381.5,229.5C 381.5,230.5 381.5,231.5 381.5,232.5C 382.833,232.5 384.167,232.5 385.5,232.5C 385.5,231.167 385.5,229.833 385.5,228.5 Z"/></g>
<g><path style="opacity:1" fill="#272012" d="M 371.5,232.5 C 375.093,233.43 376.759,235.763 376.5,239.5C 370.971,243.104 368.137,241.771 368,235.5C 368.72,233.944 369.887,232.944 371.5,232.5 Z"/></g>
<g><path style="opacity:1" fill="#f2eec7" d="M 374.5,237.5 C 372.833,237.5 371.167,237.5 369.5,237.5C 369.418,235.748 370.251,234.748 372,234.5C 373.749,234.748 374.582,235.748 374.5,237.5 Z"/></g>
<g><path style="opacity:1" fill="#fcf7da" d="M 385.5,228.5 C 385.5,229.833 385.5,231.167 385.5,232.5C 384.167,232.5 382.833,232.5 381.5,232.5C 381.5,231.5 381.5,230.5 381.5,229.5C 382.568,228.566 383.901,228.232 385.5,228.5 Z"/></g>
<g><path style="opacity:1" fill="#aeab97" d="M 381.5,240.5 C 379.708,240.634 378.042,240.301 376.5,239.5C 376.759,235.763 375.093,233.43 371.5,232.5C 371.833,231.833 372.167,231.167 372.5,230.5C 378.069,227.132 383.902,224.132 390,221.5C 390.667,224.833 390.667,228.167 390,231.5C 387.512,226.202 383.845,225.202 379,228.5C 377.423,235.916 380.256,239.083 387.5,238C 385.842,239.663 383.842,240.496 381.5,240.5 Z"/></g>
<g><path style="opacity:1" fill="#e5e6e3" d="M 389.5,216.5 C 390.434,217.568 390.768,218.901 390.5,220.5C 380.528,223.653 371.194,228.153 362.5,234C 359.112,236.786 356.446,240.119 354.5,244C 353.668,244.688 353.002,244.521 352.5,243.5C 354.919,238.915 357.919,234.748 361.5,231C 370.61,225.689 379.943,220.856 389.5,216.5 Z"/></g>
<g><path style="opacity:1" fill="#989582" d="M 372.5,230.5 C 372.167,231.167 371.833,231.833 371.5,232.5C 369.887,232.944 368.72,233.944 368,235.5C 368.137,241.771 370.971,243.104 376.5,239.5C 378.042,240.301 379.708,240.634 381.5,240.5C 373.369,242.712 365.036,243.878 356.5,244C 360.504,237.822 365.837,233.322 372.5,230.5 Z"/></g>
<g><path style="opacity:1" fill="#b29645" d="M 369.5,237.5 C 371.167,237.5 372.833,237.5 374.5,237.5C 374.209,238.649 373.376,239.316 372,239.5C 370.624,239.316 369.791,238.649 369.5,237.5 Z"/></g>
<g><path style="opacity:1" fill="#e3a919" d="M 365.5,224.5 C 365.5,225.167 365.5,225.833 365.5,226.5C 363.067,226.273 361.401,227.273 360.5,229.5C 355.372,234.086 352.039,239.752 350.5,246.5C 355.463,245.746 360.463,245.413 365.5,245.5C 369.817,245.917 373.817,245.25 377.5,243.5C 379.806,243.007 382.139,242.674 384.5,242.5C 382.852,243.927 380.852,244.76 378.5,245C 378.833,245.333 379.167,245.667 379.5,246C 370.657,246.342 361.823,246.842 353,247.5C 350.46,247.038 348.127,247.038 346,247.5C 345.517,246.552 345.351,245.552 345.5,244.5C 343.738,244.357 342.071,244.691 340.5,245.5C 319.21,244.678 297.876,244.178 276.5,244C 275.62,242.644 275.286,241.144 275.5,239.5C 275.833,239.5 276.167,239.5 276.5,239.5C 277.234,240.708 277.567,242.041 277.5,243.5C 299.193,244.156 320.526,243.489 341.5,241.5C 342.167,241.167 342.833,240.833 343.5,240.5C 346.347,238.202 346.013,236.869 342.5,236.5C 319.004,235.668 295.337,235.168 271.5,235C 270.748,234.329 270.414,233.496 270.5,232.5C 296.428,233.657 322.428,233.823 348.5,233C 349.373,231.955 350.373,231.122 351.5,230.5C 351.833,230.5 352.167,230.5 352.5,230.5C 354.516,233.822 355.183,233.988 354.5,231C 355.5,230.667 356.5,230.333 357.5,230C 356.289,228.887 356.289,227.72 357.5,226.5C 360.08,225.451 362.746,224.784 365.5,224.5 Z"/></g>
<g><path style="opacity:1" fill="#e39d28" d="M 143.5,212.5 C 136.526,214.384 129.192,215.717 121.5,216.5C 119.323,216.586 117.323,217.253 115.5,218.5C 114.5,240.156 114.167,261.823 114.5,283.5C 114.167,283.5 113.833,283.5 113.5,283.5C 113.333,261.164 113.5,238.831 114,216.5C 123.729,214.658 133.562,213.325 143.5,212.5 Z"/></g>
<g><path style="opacity:1" fill="#46443c" d="M 279.5,239.5 C 300.527,238.845 321.194,239.512 341.5,241.5C 320.473,242.155 299.806,241.488 279.5,239.5 Z"/></g>
<g><path style="opacity:1" fill="#1f0f01" d="M 279.5,238.5 C 279.5,238.833 279.5,239.167 279.5,239.5C 299.806,241.488 320.473,242.155 341.5,241.5C 320.526,243.489 299.193,244.156 277.5,243.5C 277.567,242.041 277.234,240.708 276.5,239.5C 277.209,238.596 278.209,238.263 279.5,238.5 Z"/></g>
<g><path style="opacity:1" fill="#8f701d" d="M 377.5,243.5 C 373.817,245.25 369.817,245.917 365.5,245.5C 369.316,244.518 373.316,243.851 377.5,243.5 Z"/></g>
<g><path style="opacity:1" fill="#d9a320" d="M 213.5,240.5 C 216.815,241.329 220.148,242.162 223.5,243C 236.304,244.312 248.971,245.479 261.5,246.5C 251.494,246.666 241.494,246.5 231.5,246C 232.167,245.667 232.833,245.333 233.5,245C 228.5,244.667 223.5,244.333 218.5,244C 216.569,243.098 214.903,241.931 213.5,240.5 Z"/></g>
<g><path style="opacity:1" fill="#eea015" d="M 148.5,233.5 C 145.876,237.085 144.043,241.085 143,245.5C 141.744,252.793 140.91,260.126 140.5,267.5C 139.512,272.64 139.179,277.974 139.5,283.5C 139.167,283.5 138.833,283.5 138.5,283.5C 138.772,279.098 138.439,274.765 137.5,270.5C 136.833,270.167 136.167,269.833 135.5,269.5C 134.018,271.115 132.184,272.115 130,272.5C 128.93,272.472 128.097,272.139 127.5,271.5C 129.099,271.768 130.432,271.434 131.5,270.5C 134.003,262.509 131.503,260.509 124,264.5C 123.506,266.134 123.34,267.801 123.5,269.5C 121.223,261.452 124.223,258.785 132.5,261.5C 133.167,259.833 133.833,258.167 134.5,256.5C 136.739,258.12 138.573,257.787 140,255.5C 140.013,250.061 139.18,244.728 137.5,239.5C 139.045,240.23 139.878,241.563 140,243.5C 141.255,240.867 142.755,238.367 144.5,236C 143.813,234.838 143.647,233.672 144,232.5C 145.356,233.38 146.856,233.714 148.5,233.5 Z"/></g>
<g><path style="opacity:1" fill="#333232" d="M 161.5,247.5 C 162.259,260.808 162.759,274.142 163,287.5C 164.122,289.407 164.955,291.407 165.5,293.5C 164.772,295.512 163.938,297.512 163,299.5C 160.861,302.939 158.361,306.106 155.5,309C 153.098,309.814 150.765,309.647 148.5,308.5C 145.91,303.828 144.077,298.828 143,293.5C 142.5,284.173 142.334,274.839 142.5,265.5C 142.873,258.774 143.706,252.107 145,245.5C 145.903,241.195 147.737,237.361 150.5,234C 152.895,231.855 155.062,232.022 157,234.5C 159.237,238.715 160.737,243.048 161.5,247.5 Z"/></g>
<g><path style="opacity:1" fill="#d1981e" d="M 162.5,244.5 C 164.531,247.422 165.698,250.755 166,254.5C 166.5,264.494 166.666,274.494 166.5,284.5C 165.833,276.5 165.167,268.5 164.5,260.5C 164.23,255.972 163.563,251.639 162.5,247.5C 162.5,246.5 162.5,245.5 162.5,244.5 Z"/></g>
<g><path style="opacity:1" fill="#e09025" d="M 59.5,255.5 C 59.5,263.5 59.5,271.5 59.5,279.5C 59.1667,279.5 58.8333,279.5 58.5,279.5C 58.5,261.833 58.5,244.167 58.5,226.5C 49.4803,226.919 40.4803,227.586 31.5,228.5C 40.608,226.526 49.9413,225.192 59.5,224.5C 59.5,234.833 59.5,245.167 59.5,255.5 Z"/></g>
<g><path style="opacity:1" fill="#301910" d="M 81.5,268.5 C 81.3184,266.409 81.6518,264.409 82.5,262.5C 87.453,261.29 89.2863,263.29 88,268.5C 85.8368,269.768 83.6702,269.768 81.5,268.5 Z"/></g>
<g><path style="opacity:1" fill="#343233" d="M 53.5,285.5 C 52.3702,288.884 51.0369,292.218 49.5,295.5C 47.4902,297.171 45.1569,297.838 42.5,297.5C 41.8333,294.167 41.1667,290.833 40.5,287.5C 40.3335,276.828 40.5002,266.161 41,255.5C 41.2503,252.246 42.2503,249.246 44,246.5C 46.5848,245.115 48.5848,245.782 50,248.5C 51.4561,254.097 51.7894,259.763 51,265.5C 50.6543,262.424 49.9876,259.424 49,256.5C 47.2252,253.956 45.3918,253.956 43.5,256.5C 41.0039,266.784 40.8372,277.117 43,287.5C 43.7319,289.923 45.2319,291.09 47.5,291C 49.4124,287.478 50.5791,283.645 51,279.5C 51.6552,281.628 52.4886,283.628 53.5,285.5 Z"/></g>
<g><path style="opacity:1" fill="#9b9b95" d="M 83.5,263.5 C 84.675,263.281 85.675,263.614 86.5,264.5C 85.277,265.614 83.9437,265.781 82.5,265C 83.056,264.617 83.3893,264.117 83.5,263.5 Z"/></g>
<g><path style="opacity:1" fill="#e5971a" d="M 101.5,218.5 C 104.167,218.5 106.833,218.5 109.5,218.5C 109.171,231.011 109.505,243.345 110.5,255.5C 111.166,263.483 111.499,271.483 111.5,279.5C 110.842,278.602 110.176,277.602 109.5,276.5C 108.833,257.833 108.167,239.167 107.5,220.5C 100.872,219.584 94.2053,219.584 87.5,220.5C 91.9192,219.028 96.5859,218.362 101.5,218.5 Z"/></g>
<g><path style="opacity:1" fill="#ea9d2b" d="M 64.5,223.5 C 64.5,223.833 64.5,224.167 64.5,224.5C 63.5032,242.659 63.1698,260.992 63.5,279.5C 63.1667,279.5 62.8333,279.5 62.5,279.5C 61.8462,260.47 62.5129,241.803 64.5,223.5 Z"/></g>
<g><path style="opacity:1" fill="#1d1818" d="M 20.5,137.5 C 19.9084,140.127 19.5751,142.794 19.5,145.5C 17.9462,149.567 17.2796,153.9 17.5,158.5C 16.6864,163.119 16.3531,167.786 16.5,172.5C 15.5034,189.325 15.1701,206.325 15.5,223.5C 17.4147,223.784 19.0813,223.451 20.5,222.5C 29.4901,221.39 38.4901,220.39 47.5,219.5C 36.8507,221.593 26.1841,223.593 15.5,225.5C 14.1667,240.833 14.1667,256.167 15.5,271.5C 15.2322,273.099 15.5655,274.432 16.5,275.5C 16.561,278.73 18.2277,280.563 21.5,281C 27.1231,282.029 32.7898,282.529 38.5,282.5C 38.5,281.5 38.5,280.5 38.5,279.5C 38.5,273.5 38.5,267.5 38.5,261.5C 38.9379,256.33 40.1046,251.33 42,246.5C 46.6631,243.164 49.9965,244.164 52,249.5C 53.0399,258.472 53.5399,267.472 53.5,276.5C 52.4062,282.905 55.0729,285.238 61.5,283.5C 61.8333,283.5 62.1667,283.5 62.5,283.5C 62.8333,283.5 63.1667,283.5 63.5,283.5C 69.9592,284.813 76.6259,285.479 83.5,285.5C 85.8333,285.5 88.1667,285.5 90.5,285.5C 90.5,285.833 90.5,286.167 90.5,286.5C 82.4712,286.344 74.4712,286.677 66.5,287.5C 66.5919,291.059 65.7585,294.392 64,297.5C 63.3623,296.391 62.8623,295.225 62.5,294C 63.3223,291.566 63.6556,289.066 63.5,286.5C 60.0977,286.658 56.7644,286.324 53.5,285.5C 52.4886,283.628 51.6552,281.628 51,279.5C 50.5791,283.645 49.4124,287.478 47.5,291C 45.2319,291.09 43.7319,289.923 43,287.5C 40.8372,277.117 41.0039,266.784 43.5,256.5C 45.3918,253.956 47.2252,253.956 49,256.5C 49.9876,259.424 50.6543,262.424 51,265.5C 51.7894,259.763 51.4561,254.097 50,248.5C 48.5848,245.782 46.5848,245.115 44,246.5C 42.2503,249.246 41.2503,252.246 41,255.5C 40.5002,266.161 40.3335,276.828 40.5,287.5C 39.5,287.5 38.5,287.5 37.5,287.5C 37.5,286.5 37.5,285.5 37.5,284.5C 34.1667,284.5 30.8333,284.5 27.5,284.5C 16.1425,285.977 10.6425,280.977 11,269.5C 10.4958,234.643 11.3291,199.643 13.5,164.5C 15.1644,163.051 15.9977,161.051 16,158.5C 16.3333,152.833 16.6667,147.167 17,141.5C 17.7403,139.681 18.9069,138.348 20.5,137.5 Z"/></g>
<g><path style="opacity:1" fill="#281102" d="M 131.5,270.5 C 130.432,271.434 129.099,271.768 127.5,271.5C 125.938,271.267 124.605,270.6 123.5,269.5C 123.34,267.801 123.506,266.134 124,264.5C 131.503,260.509 134.003,262.509 131.5,270.5 Z"/></g>
<g><path style="opacity:1" fill="#999995" d="M 131.5,266.5 C 129.5,265.167 127.5,265.167 125.5,266.5C 126.072,263.756 127.738,262.923 130.5,264C 131.252,264.671 131.586,265.504 131.5,266.5 Z"/></g>
<g><path style="opacity:1" fill="#2e312b" d="M 131.5,266.5 C 131.5,267.833 131.5,269.167 131.5,270.5C 127.759,271.401 125.759,270.068 125.5,266.5C 127.5,265.167 129.5,265.167 131.5,266.5 Z"/></g>
<g><path style="opacity:1" fill="#c15a0a" d="M 17.5,230.5 C 18.995,240.743 20.1616,251.077 21,261.5C 21.7138,264.595 22.7138,267.595 24,270.5C 27.1464,275.485 31.6464,278.152 37.5,278.5C 37.1778,272.642 37.5111,266.975 38.5,261.5C 38.5,267.5 38.5,273.5 38.5,279.5C 37.1213,280.609 35.4547,281.276 33.5,281.5C 28.4809,281.19 23.6475,280.19 19,278.5C 18.7837,276.616 18.117,274.949 17,273.5C 16.5357,274.094 16.369,274.761 16.5,275.5C 15.5655,274.432 15.2322,273.099 15.5,271.5C 14.8514,257.459 15.5181,243.792 17.5,230.5 Z"/></g>
<g><path style="opacity:1" fill="#2c1916" d="M 28.5,261.5 C 29.4959,261.414 30.3292,261.748 31,262.5C 31.4935,264.134 31.6602,265.801 31.5,267.5C 30.1667,267.5 28.8333,267.5 27.5,267.5C 27.3253,265.379 27.6586,263.379 28.5,261.5 Z"/></g>
<g><path style="opacity:1" fill="#0f0f10" d="M 150.5,250.5 C 154.683,249.846 157.516,251.512 159,255.5C 162.545,269.979 162.045,284.312 157.5,298.5C 152.56,303.055 149.06,302.055 147,295.5C 141.438,279.844 142.605,264.844 150.5,250.5 Z"/></g>
<g><path style="opacity:1" fill="#818181" d="M 155.5,264.5 C 156.5,264.5 157.5,264.5 158.5,264.5C 159.715,271.449 159.715,278.449 158.5,285.5C 157.5,285.5 156.5,285.5 155.5,285.5C 156.733,278.487 156.733,271.487 155.5,264.5 Z"/></g>
<g><path style="opacity:1" fill="#bfbfbf" d="M 152.5,264.5 C 152.631,265.239 152.464,265.906 152,266.5C 150.51,265.272 149.01,265.272 147.5,266.5C 147.151,263.537 148.151,261.204 150.5,259.5C 152.217,260.668 152.884,262.335 152.5,264.5 Z"/></g>
<g><path style="opacity:1" fill="#dfdfdf" d="M 158.5,264.5 C 157.5,264.5 156.5,264.5 155.5,264.5C 154.639,262.614 153.639,260.78 152.5,259C 154.134,258.506 155.801,258.34 157.5,258.5C 157.833,260.5 158.167,262.5 158.5,264.5 Z"/></g>
<g><path style="opacity:1" fill="#4b4f46" d="M 151.5,252.5 C 154.114,252.277 155.781,253.444 156.5,256C 154.421,256.808 152.421,256.641 150.5,255.5C 151.127,254.583 151.461,253.583 151.5,252.5 Z"/></g>
<g><path style="opacity:1" fill="#b88922" d="M 199.5,236.5 C 200.355,251.336 201.022,266.336 201.5,281.5C 200.691,279.708 200.191,277.708 200,275.5C 199.5,262.504 199.333,249.504 199.5,236.5 Z"/></g>
<g><path style="opacity:1" fill="#8c4918" d="M 38.5,279.5 C 38.5,280.5 38.5,281.5 38.5,282.5C 32.7898,282.529 27.1231,282.029 21.5,281C 18.2277,280.563 16.561,278.73 16.5,275.5C 16.369,274.761 16.5357,274.094 17,273.5C 18.117,274.949 18.7837,276.616 19,278.5C 23.6475,280.19 28.4809,281.19 33.5,281.5C 35.4547,281.276 37.1213,280.609 38.5,279.5 Z"/></g>
<g><path style="opacity:1" fill="#353535" d="M 146.5,268.5 C 146.338,270.527 146.505,272.527 147,274.5C 149.668,270.405 151.168,270.905 151.5,276C 151.637,278.556 150.804,280.723 149,282.5C 147.956,281.377 147.29,280.044 147,278.5C 146.517,279.448 146.351,280.448 146.5,281.5C 145.167,277.167 145.167,272.833 146.5,268.5 Z"/></g>
<g><path style="opacity:1" fill="#797a7a" d="M 47.5,283.5 C 46.5,283.5 45.5,283.5 44.5,283.5C 42.9737,274.675 43.6404,266.008 46.5,257.5C 46.4381,266.196 46.7714,274.863 47.5,283.5 Z"/></g>
<g><path style="opacity:1" fill="#925519" d="M 59.5,255.5 C 60.2452,264.69 60.9119,274.023 61.5,283.5C 55.0729,285.238 52.4062,282.905 53.5,276.5C 54.1667,276.5 54.5,276.833 54.5,277.5C 55.0695,280.335 56.7361,282.001 59.5,282.5C 59.5,281.5 59.5,280.5 59.5,279.5C 59.5,271.5 59.5,263.5 59.5,255.5 Z"/></g>
<g><path style="opacity:1" fill="#c35a07" d="M 54.5,277.5 C 55.8333,278.167 57.1667,278.833 58.5,279.5C 58.8333,279.5 59.1667,279.5 59.5,279.5C 59.5,280.5 59.5,281.5 59.5,282.5C 56.7361,282.001 55.0695,280.335 54.5,277.5 Z"/></g>
<g><path style="opacity:1" fill="#bd630d" d="M 62.5,279.5 C 62.8333,279.5 63.1667,279.5 63.5,279.5C 73.8954,281.809 84.562,282.809 95.5,282.5C 100.305,283.487 105.305,283.821 110.5,283.5C 104.25,285.459 97.5837,286.126 90.5,285.5C 88.1667,285.5 85.8333,285.5 83.5,285.5C 82.3915,284.71 81.0581,284.21 79.5,284C 74.1771,283.501 68.8437,283.334 63.5,283.5C 63.1667,283.5 62.8333,283.5 62.5,283.5C 62.5,282.167 62.5,280.833 62.5,279.5 Z"/></g>
<g><path style="opacity:1" fill="#96551b" d="M 63.5,283.5 C 68.8437,283.334 74.1771,283.501 79.5,284C 81.0581,284.21 82.3915,284.71 83.5,285.5C 76.6259,285.479 69.9592,284.813 63.5,283.5 Z"/></g>
<g><path style="opacity:0.212" fill="#8d8e8d" d="M 27.5,284.5 C 30.8333,284.5 34.1667,284.5 37.5,284.5C 37.5,285.5 37.5,286.5 37.5,287.5C 37.5,288.5 37.5,289.5 37.5,290.5C 36.5489,289.081 36.2155,287.415 36.5,285.5C 33.2869,285.81 30.2869,285.477 27.5,284.5 Z"/></g>
<g><path style="opacity:1" fill="#d9dbdc" d="M 44.5,283.5 C 45.5,283.5 46.5,283.5 47.5,283.5C 49.0723,285.867 48.739,287.867 46.5,289.5C 44.9137,287.827 44.2471,285.827 44.5,283.5 Z"/></g>
<g><path style="opacity:1" fill="#8f571d" d="M 111.5,281.5 C 112.622,283.288 112.789,285.288 112,287.5C 106.593,286.527 101.093,286.193 95.5,286.5C 93.8333,286.5 92.1667,286.5 90.5,286.5C 90.5,286.167 90.5,285.833 90.5,285.5C 97.5837,286.126 104.25,285.459 110.5,283.5C 111.338,283.158 111.672,282.492 111.5,281.5 Z"/></g>
<g><path style="opacity:1" fill="#ab651d" d="M 113.5,283.5 C 113.833,283.5 114.167,283.5 114.5,283.5C 114.804,284.15 115.137,284.817 115.5,285.5C 123.138,286.497 130.804,286.831 138.5,286.5C 138.5,285.5 138.5,284.5 138.5,283.5C 138.833,283.5 139.167,283.5 139.5,283.5C 139.714,285.144 139.38,286.644 138.5,288C 133.177,288.499 127.844,288.666 122.5,288.5C 120.031,287.683 117.365,287.183 114.5,287C 113.663,285.989 113.33,284.822 113.5,283.5 Z"/></g>
<g><path style="opacity:1" fill="#c46802" d="M 114.5,283.5 C 122.5,283.5 130.5,283.5 138.5,283.5C 138.5,284.5 138.5,285.5 138.5,286.5C 130.804,286.831 123.138,286.497 115.5,285.5C 115.137,284.817 114.804,284.15 114.5,283.5 Z"/></g>
<g><path style="opacity:1" fill="#828282" d="M 152.5,264.5 C 153.913,272.402 153.746,280.402 152,288.5C 151.492,290.904 150.325,291.571 148.5,290.5C 147.358,287.601 146.692,284.601 146.5,281.5C 146.351,280.448 146.517,279.448 147,278.5C 147.29,280.044 147.956,281.377 149,282.5C 150.804,280.723 151.637,278.556 151.5,276C 151.168,270.905 149.668,270.405 147,274.5C 146.505,272.527 146.338,270.527 146.5,268.5C 146.328,267.508 146.662,266.842 147.5,266.5C 149.01,265.272 150.51,265.272 152,266.5C 152.464,265.906 152.631,265.239 152.5,264.5 Z"/></g>
<g><path style="opacity:0.972" fill="#141212" d="M 397.5,205.5 C 398.419,230.207 397.585,254.874 395,279.5C 395.395,285.534 393.228,290.201 388.5,293.5C 380.525,294.276 372.525,294.61 364.5,294.5C 356.813,294.54 349.146,294.207 341.5,293.5C 340.551,292.848 339.385,292.514 338,292.5C 336.342,292.675 335.009,293.342 334,294.5C 327.789,292.566 321.289,291.899 314.5,292.5C 313.448,292.351 312.448,292.517 311.5,293C 309.579,298.959 305.579,301.292 299.5,300C 298.614,298.385 297.614,296.885 296.5,295.5C 296.409,293.302 297.075,292.969 298.5,294.5C 302.12,299.878 305.453,299.544 308.5,293.5C 305.232,292.513 301.898,292.18 298.5,292.5C 294.725,292.928 291.225,292.261 288,290.5C 286.189,291.078 284.355,291.578 282.5,292C 283.056,292.383 283.389,292.883 283.5,293.5C 252.236,296.117 220.903,297.451 189.5,297.5C 186.713,296.523 183.713,296.19 180.5,296.5C 180.762,297.978 180.429,299.311 179.5,300.5C 178.355,299.224 178.355,297.891 179.5,296.5C 174.656,295.892 169.989,294.892 165.5,293.5C 164.955,291.407 164.122,289.407 163,287.5C 162.759,274.142 162.259,260.808 161.5,247.5C 161.833,247.5 162.167,247.5 162.5,247.5C 163.563,251.639 164.23,255.972 164.5,260.5C 164.334,269.506 164.5,278.506 165,287.5C 166.054,291.293 168.554,293.627 172.5,294.5C 176.094,293.574 179.76,293.241 183.5,293.5C 190.167,293.5 196.833,293.5 203.5,293.5C 213.065,293.937 222.398,293.27 231.5,291.5C 279.811,287.99 328.144,287.657 376.5,290.5C 384.903,292.081 389.237,288.747 389.5,280.5C 390.159,277.545 390.492,274.545 390.5,271.5C 389.167,271.5 387.833,271.5 386.5,271.5C 387.919,270.549 389.585,270.216 391.5,270.5C 391.5,268.167 391.5,265.833 391.5,263.5C 392.212,256.857 392.546,250.191 392.5,243.5C 393.483,239.702 393.817,235.702 393.5,231.5C 393.5,226.167 393.5,220.833 393.5,215.5C 393.815,211.629 393.482,207.962 392.5,204.5C 392.281,203.325 392.614,202.325 393.5,201.5C 395.397,202.368 396.73,203.701 397.5,205.5 Z"/></g>
<g><path style="opacity:1" fill="#b07219" d="M 171.5,266.5 C 172.678,274.644 173.345,282.978 173.5,291.5C 168.351,292.146 166.018,289.813 166.5,284.5C 168.03,285.067 169.53,285.733 171,286.5C 171.5,279.842 171.666,273.175 171.5,266.5 Z"/></g>
<g><path style="opacity:1" fill="#c67504" d="M 388.5,281.5 C 388.671,284.488 387.338,286.488 384.5,287.5C 380.333,287.833 376.167,288.167 372,288.5C 337.26,286.442 302.426,285.942 267.5,287C 247.245,290.032 226.912,291.199 206.5,290.5C 206.137,289.817 205.804,289.15 205.5,288.5C 213.573,289.132 221.24,288.465 228.5,286.5C 230.5,287.833 232.5,287.833 234.5,286.5C 234.56,287.043 234.893,287.376 235.5,287.5C 281.097,282.528 326.764,282.195 372.5,286.5C 374.369,286.493 376.036,286.16 377.5,285.5C 377.833,285.5 378.167,285.5 378.5,285.5C 382.081,287.239 384.748,286.239 386.5,282.5C 387.167,282.167 387.833,281.833 388.5,281.5 Z"/></g>
<g><path style="opacity:1" fill="#be7212" d="M 201.5,282.5 C 202.473,284.948 202.806,287.615 202.5,290.5C 196.588,292.456 190.255,293.123 183.5,292.5C 180.833,292.5 178.167,292.5 175.5,292.5C 175.5,290.833 175.5,289.167 175.5,287.5C 175.833,287.5 176.167,287.5 176.5,287.5C 184.779,288.44 193.112,288.773 201.5,288.5C 201.5,286.5 201.5,284.5 201.5,282.5 Z"/></g>
<g><path style="opacity:1" fill="#a46819" d="M 389.5,280.5 C 389.237,288.747 384.903,292.081 376.5,290.5C 328.144,287.657 279.811,287.99 231.5,291.5C 222.518,292.218 213.518,292.552 204.5,292.5C 204.5,291.167 204.5,289.833 204.5,288.5C 204.833,288.5 205.167,288.5 205.5,288.5C 205.804,289.15 206.137,289.817 206.5,290.5C 226.912,291.199 247.245,290.032 267.5,287C 302.426,285.942 337.26,286.442 372,288.5C 376.167,288.167 380.333,287.833 384.5,287.5C 387.338,286.488 388.671,284.488 388.5,281.5C 388.5,280.833 388.833,280.5 389.5,280.5 Z"/></g>
<g><path style="opacity:1" fill="#4d1805" d="M 386.5,282.5 C 384.748,286.239 382.081,287.239 378.5,285.5C 378.167,285.5 377.833,285.5 377.5,285.5C 376.272,284.694 375.272,283.694 374.5,282.5C 374.392,274.48 377.892,272.146 385,275.5C 386.202,277.677 386.702,280.011 386.5,282.5 Z"/></g>
<g><path style="opacity:1" fill="#ce4b1a" d="M 381.5,275.5 C 382.496,275.414 383.329,275.748 384,276.5C 384.66,279.534 384.16,282.367 382.5,285C 381.207,285.49 379.873,285.657 378.5,285.5C 376.408,282.966 376.074,280.299 377.5,277.5C 378.183,279.176 379.517,279.843 381.5,279.5C 381.5,278.167 381.5,276.833 381.5,275.5 Z"/></g>
<g><path style="opacity:1" fill="#461603" d="M 235.5,274.5 C 239.721,278.928 239.388,282.928 234.5,286.5C 232.5,287.833 230.5,287.833 228.5,286.5C 227.094,286.027 226.427,285.027 226.5,283.5C 225.539,281.735 225.205,279.735 225.5,277.5C 227.962,273.717 231.295,272.717 235.5,274.5 Z"/></g>
<g><path style="opacity:1" fill="#dc4916" d="M 231.5,276.5 C 232.5,276.5 233.5,276.5 234.5,276.5C 235.117,276.611 235.617,276.944 236,277.5C 237.651,282.141 236.151,284.807 231.5,285.5C 229.645,285.66 228.312,284.993 227.5,283.5C 227.232,281.901 227.566,280.568 228.5,279.5C 231.833,280.833 232.833,279.833 231.5,276.5 Z"/></g>
<g><path style="opacity:1" fill="#9d7211" d="M 204.5,272.5 C 205.5,272.5 206.5,272.5 207.5,272.5C 206.791,273.404 205.791,273.737 204.5,273.5C 204.5,278.5 204.5,283.5 204.5,288.5C 203.167,283.167 203.167,277.833 204.5,272.5 Z"/></g>
<g><path style="opacity:1" fill="#ffd4af" d="M 231.5,276.5 C 232.833,279.833 231.833,280.833 228.5,279.5C 228.5,277.5 229.5,276.5 231.5,276.5 Z"/></g>
<g><path style="opacity:1" fill="#b45f32" d="M 234.5,276.5 C 233.5,276.5 232.5,276.5 231.5,276.5C 229.5,276.5 228.5,277.5 228.5,279.5C 227.566,280.568 227.232,281.901 227.5,283.5C 227.167,283.5 226.833,283.5 226.5,283.5C 225.704,276.608 228.371,274.275 234.5,276.5 Z"/></g>
<g><path style="opacity:1" fill="#fbb208" d="M 207.5,272.5 C 209.5,272.5 211.5,272.5 213.5,272.5C 217.884,272.174 222.217,272.508 226.5,273.5C 226.154,274.696 225.654,274.696 225,273.5C 224.235,275.066 224.402,276.399 225.5,277.5C 225.205,279.735 225.539,281.735 226.5,283.5C 226.427,285.027 227.094,286.027 228.5,286.5C 221.24,288.465 213.573,289.132 205.5,288.5C 205.167,288.5 204.833,288.5 204.5,288.5C 204.5,283.5 204.5,278.5 204.5,273.5C 205.791,273.737 206.791,273.404 207.5,272.5 Z"/></g>
<g><path style="opacity:1" fill="#fdb304" d="M 374.5,282.5 C 375.272,283.694 376.272,284.694 377.5,285.5C 376.036,286.16 374.369,286.493 372.5,286.5C 326.764,282.195 281.097,282.528 235.5,287.5C 234.893,287.376 234.56,287.043 234.5,286.5C 239.388,282.928 239.721,278.928 235.5,274.5C 241.758,272.7 248.425,271.867 255.5,272C 294.167,271.333 332.833,271.333 371.5,272C 372.728,272.779 373.728,273.779 374.5,275C 373.284,277.653 373.284,280.153 374.5,282.5 Z"/></g>
<g><path style="opacity:1" fill="#d19d1c" d="M 375.5,270.5 C 378.962,271.482 382.629,271.815 386.5,271.5C 387.833,271.5 389.167,271.5 390.5,271.5C 390.492,274.545 390.159,277.545 389.5,280.5C 388.833,280.5 388.5,280.833 388.5,281.5C 387.833,281.833 387.167,282.167 386.5,282.5C 386.702,280.011 386.202,277.677 385,275.5C 377.892,272.146 374.392,274.48 374.5,282.5C 373.284,280.153 373.284,277.653 374.5,275C 373.728,273.779 372.728,272.779 371.5,272C 332.833,271.333 294.167,271.333 255.5,272C 248.425,271.867 241.758,272.7 235.5,274.5C 231.295,272.717 227.962,273.717 225.5,277.5C 224.402,276.399 224.235,275.066 225,273.5C 225.654,274.696 226.154,274.696 226.5,273.5C 222.217,272.508 217.884,272.174 213.5,272.5C 213.5,272.167 213.5,271.833 213.5,271.5C 267.488,269.333 321.488,269 375.5,270.5 Z"/></g>
<g><path style="opacity:1" fill="#fad6a8" d="M 381.5,275.5 C 381.5,276.833 381.5,278.167 381.5,279.5C 379.517,279.843 378.183,279.176 377.5,277.5C 378.287,275.896 379.62,275.229 381.5,275.5 Z"/></g>
<g><path style="opacity:1" fill="#532303" d="M 203.5,270.5 C 205.5,270.5 207.5,270.5 209.5,270.5C 210.568,271.434 211.901,271.768 213.5,271.5C 213.5,271.833 213.5,272.167 213.5,272.5C 211.5,272.5 209.5,272.5 207.5,272.5C 206.5,272.5 205.5,272.5 204.5,272.5C 204.167,271.833 203.833,271.167 203.5,270.5 Z"/></g>
<g><path style="opacity:1" fill="#3e210a" d="M 391.5,263.5 C 391.5,265.833 391.5,268.167 391.5,270.5C 389.585,270.216 387.919,270.549 386.5,271.5C 382.629,271.815 378.962,271.482 375.5,270.5C 375.5,270.167 375.5,269.833 375.5,269.5C 376.833,269.5 378.167,269.5 379.5,269.5C 383.167,269.5 386.833,269.5 390.5,269.5C 390.5,268.5 390.5,267.5 390.5,266.5C 390.263,265.209 390.596,264.209 391.5,263.5 Z"/></g>
<g><path style="opacity:1" fill="#8a5815" d="M 351.5,267.5 C 361.065,267.063 370.398,267.73 379.5,269.5C 378.167,269.5 376.833,269.5 375.5,269.5C 367.34,269.005 359.34,268.338 351.5,267.5 Z"/></g>
<g><path style="opacity:1" fill="#1a0400" d="M 335.5,267.5 C 340.833,267.5 346.167,267.5 351.5,267.5C 359.34,268.338 367.34,269.005 375.5,269.5C 375.5,269.833 375.5,270.167 375.5,270.5C 321.488,269 267.488,269.333 213.5,271.5C 211.901,271.768 210.568,271.434 209.5,270.5C 251.461,268.146 293.461,267.146 335.5,267.5 Z"/></g>
<g><path style="opacity:1" fill="#a76711" d="M 203.5,263.5 C 203.833,263.5 204.167,263.5 204.5,263.5C 204.5,264.5 204.5,265.5 204.5,266.5C 218.808,267.474 233.141,267.474 247.5,266.5C 277.005,266.169 306.338,266.502 335.5,267.5C 293.461,267.146 251.461,268.146 209.5,270.5C 207.5,270.5 205.5,270.5 203.5,270.5C 203.5,268.167 203.5,265.833 203.5,263.5 Z"/></g>
<g><path style="opacity:1" fill="#c67708" d="M 390.5,266.5 C 390.5,267.5 390.5,268.5 390.5,269.5C 386.833,269.5 383.167,269.5 379.5,269.5C 370.398,267.73 361.065,267.063 351.5,267.5C 346.167,267.5 340.833,267.5 335.5,267.5C 306.338,266.502 277.005,266.169 247.5,266.5C 250.977,265.677 254.644,265.177 258.5,265C 286.833,264.333 315.167,264.333 343.5,265C 359.198,266.392 374.865,266.892 390.5,266.5 Z"/></g>
<g><path style="opacity:1" fill="#4e4e4e" d="M 155.5,285.5 C 156.5,285.5 157.5,285.5 158.5,285.5C 158.598,289.11 157.764,292.443 156,295.5C 154.491,294.91 152.991,294.244 151.5,293.5C 153.024,290.926 154.358,288.259 155.5,285.5 Z"/></g>
<g><path style="opacity:1" fill="#592901" d="M 202.5,290.5 C 203.404,291.209 203.737,292.209 203.5,293.5C 196.833,293.5 190.167,293.5 183.5,293.5C 183.5,293.167 183.5,292.833 183.5,292.5C 190.255,293.123 196.588,292.456 202.5,290.5 Z"/></g>
<g><path style="opacity:0.608" fill="#353633" d="M 388.5,293.5 C 387.737,294.268 386.737,294.768 385.5,295C 378.321,295.821 371.321,295.655 364.5,294.5C 372.525,294.61 380.525,294.276 388.5,293.5 Z"/></g>
<g><path style="opacity:0.997" fill="#1a1818" d="M 142.5,265.5 C 142.334,274.839 142.5,284.173 143,293.5C 144.077,298.828 145.91,303.828 148.5,308.5C 150.765,309.647 153.098,309.814 155.5,309C 158.361,306.106 160.861,302.939 163,299.5C 163.938,297.512 164.772,295.512 165.5,293.5C 169.989,294.892 174.656,295.892 179.5,296.5C 178.355,297.891 178.355,299.224 179.5,300.5C 180.429,299.311 180.762,297.978 180.5,296.5C 183.713,296.19 186.713,296.523 189.5,297.5C 187.076,297.192 184.743,297.526 182.5,298.5C 181.436,302.192 180.269,305.859 179,309.5C 177.5,312.333 175.333,314.5 172.5,316C 164.5,316.667 156.5,316.667 148.5,316C 143.499,312.53 140.832,307.697 140.5,301.5C 140.665,298.482 140.498,295.482 140,292.5C 139.617,291.944 139.117,291.611 138.5,291.5C 121.541,291.819 104.541,291.152 87.5,289.5C 86.0813,288.549 84.4147,288.216 82.5,288.5C 82.5,289.833 82.5,291.167 82.5,292.5C 82.5237,296.622 80.857,299.788 77.5,302C 65.8333,302.667 54.1667,302.667 42.5,302C 38.8123,299.121 37.1456,295.287 37.5,290.5C 37.5,289.5 37.5,288.5 37.5,287.5C 38.5,287.5 39.5,287.5 40.5,287.5C 41.1667,290.833 41.8333,294.167 42.5,297.5C 45.1569,297.838 47.4902,297.171 49.5,295.5C 51.0369,292.218 52.3702,288.884 53.5,285.5C 56.7644,286.324 60.0977,286.658 63.5,286.5C 63.6556,289.066 63.3223,291.566 62.5,294C 62.8623,295.225 63.3623,296.391 64,297.5C 65.7585,294.392 66.5919,291.059 66.5,287.5C 74.4712,286.677 82.4712,286.344 90.5,286.5C 92.1667,286.5 93.8333,286.5 95.5,286.5C 104.273,288.211 113.273,288.877 122.5,288.5C 127.844,288.666 133.177,288.499 138.5,288C 139.38,286.644 139.714,285.144 139.5,283.5C 139.179,277.974 139.512,272.64 140.5,267.5C 141.167,266.833 141.833,266.167 142.5,265.5 Z"/></g>
<g><path style="opacity:0.951" fill="#4c4c4c" d="M 138.5,291.5 C 139.117,291.611 139.617,291.944 140,292.5C 140.498,295.482 140.665,298.482 140.5,301.5C 139.215,298.411 138.549,295.078 138.5,291.5 Z"/></g>
<g><path style="opacity:0.282" fill="#7c7c7c" d="M 87.5,289.5 C 86.1667,289.5 84.8333,289.5 83.5,289.5C 83.7373,290.791 83.404,291.791 82.5,292.5C 82.5,291.167 82.5,289.833 82.5,288.5C 84.4147,288.216 86.0813,288.549 87.5,289.5 Z"/></g>
<g><path style="opacity:1" fill="#505050" d="M 149.5,295.5 C 151.589,295.857 153.589,296.523 155.5,297.5C 152.56,300.299 150.56,299.633 149.5,295.5 Z"/></g>
<g><path style="opacity:1" fill="#1c1c1c" d="M 298.5,292.5 C 298.5,293.167 298.5,293.833 298.5,294.5C 297.075,292.969 296.409,293.302 296.5,295.5C 294.806,293.562 292.806,293.229 290.5,294.5C 291.83,299.332 293.83,303.832 296.5,308C 302.271,309.446 306.604,307.612 309.5,302.5C 311.667,299.357 313.334,296.024 314.5,292.5C 321.289,291.899 327.789,292.566 334,294.5C 335.009,293.342 336.342,292.675 338,292.5C 339.385,292.514 340.551,292.848 341.5,293.5C 339.396,293.201 337.396,293.534 335.5,294.5C 334.306,301.601 331.306,307.768 326.5,313C 325.167,313.667 323.833,314.333 322.5,315C 314.5,315.667 306.5,315.667 298.5,315C 290.249,310.342 286.249,303.175 286.5,293.5C 285.5,293.5 284.5,293.5 283.5,293.5C 283.389,292.883 283.056,292.383 282.5,292C 284.355,291.578 286.189,291.078 288,290.5C 291.225,292.261 294.725,292.928 298.5,292.5 Z"/></g>
<g><path style="opacity:1" fill="#7e7e7e" d="M 298.5,292.5 C 301.898,292.18 305.232,292.513 308.5,293.5C 305.453,299.544 302.12,299.878 298.5,294.5C 298.5,293.833 298.5,293.167 298.5,292.5 Z"/></g>
<g><path style="opacity:1" fill="#2e2e2f" d="M 314.5,292.5 C 313.334,296.024 311.667,299.357 309.5,302.5C 306.604,307.612 302.271,309.446 296.5,308C 293.83,303.832 291.83,299.332 290.5,294.5C 292.806,293.229 294.806,293.562 296.5,295.5C 297.614,296.885 298.614,298.385 299.5,300C 305.579,301.292 309.579,298.959 311.5,293C 312.448,292.517 313.448,292.351 314.5,292.5 Z"/></g>
</svg>
