<?xml version="1.0" encoding="UTF-8"?>
<svg version="1.1" xmlns="http://www.w3.org/2000/svg" width="512" height="512">
<path d="M0 0 C1.11643353 -0.00262956 1.11643353 -0.00262956 2.25542128 -0.00531223 C4.74527243 -0.00995797 7.23506482 -0.00751041 9.72491837 -0.00507832 C11.52978318 -0.00694701 13.33464758 -0.00924794 15.13951135 -0.01194364 C20.0963531 -0.01806087 25.05317798 -0.01792813 30.01002264 -0.01674926 C35.3571292 -0.01654524 40.70423034 -0.0220642 46.05133438 -0.02680683 C56.52635462 -0.03511356 67.00136922 -0.03786168 77.47639248 -0.03841921 C85.99110222 -0.03889436 94.5058101 -0.04094909 103.02051926 -0.04411983 C127.16127831 -0.05292652 151.30203291 -0.0575392 175.44279358 -0.05678936 C176.74424986 -0.0567494 178.04570614 -0.05670945 179.38660049 -0.05666828 C180.68964584 -0.0566274 181.99269118 -0.05658652 183.33522275 -0.0565444 C204.4534961 -0.05613794 225.57175162 -0.06570746 246.69001982 -0.07980665 C268.37410377 -0.09416936 290.05817902 -0.10107689 311.74226785 -0.10021287 C323.91621799 -0.09988086 336.09014945 -0.10262966 348.26409531 -0.11339092 C358.62921487 -0.12249453 368.99430726 -0.12467231 379.35942909 -0.1178815 C384.64680522 -0.11461559 389.93412922 -0.11456222 395.2215004 -0.12323475 C400.06500219 -0.13109745 404.9084105 -0.12967061 409.75191 -0.12095062 C411.5008759 -0.11941513 413.24984877 -0.12123362 414.99880645 -0.12681069 C430.79724375 -0.17383824 444.40618865 0.58834656 456.64148331 11.75363445 C462.67570512 18.17275518 467.44537423 27.19673965 467.46320438 36.08979321 C467.46766223 37.12006775 467.47212007 38.1503423 467.476713 39.21183729 C467.47643646 40.91505557 467.47643646 40.91505557 467.47615433 42.6526823 C467.47983102 43.85621585 467.4835077 45.0597494 467.48729581 46.29975367 C467.49642512 49.64661845 467.5010329 52.99343418 467.50368512 56.34030676 C467.50758778 59.94786784 467.51716631 63.55541471 467.52589798 67.16296673 C467.54566601 75.87967726 467.55573015 84.59638896 467.56462577 93.31311631 C467.56900911 97.41901713 467.57437589 101.52491666 467.57961464 105.63081646 C467.59662913 119.28251407 467.61112208 132.93421088 467.61836338 146.58591747 C467.62027325 150.12912783 467.62219359 153.67233818 467.62414932 157.21554852 C467.62463306 158.09618857 467.6251168 158.97682862 467.6256152 159.88415474 C467.63391089 174.14173039 467.65923902 188.39922201 467.69173 202.65676099 C467.72482401 217.29848144 467.74281436 231.94015924 467.74600762 246.58191729 C467.74817082 254.80109998 467.75689125 263.02016024 467.7824688 271.23930645 C467.80420802 278.24121742 467.81221051 285.24297621 467.80250201 292.24491709 C467.79796626 295.81493943 467.79980065 299.38464801 467.81926346 302.95462704 C467.84022285 306.83278616 467.82988072 310.71051643 467.8167305 314.58871746 C467.82769975 315.70635054 467.83866899 316.82398362 467.84997064 317.97548437 C467.75585332 329.50460552 464.31746409 338.74389967 456.32898331 347.12863445 C446.98158596 356.20639534 436.06454092 358.75138139 423.33197403 358.60965252 C422.18649338 358.61307022 421.04101272 358.61648792 419.86082053 358.62000918 C416.05600108 358.6265519 412.25190087 358.60467084 408.44714737 358.58273602 C405.70649144 358.57937318 402.96584912 358.58206716 400.22519302 358.58450603 C394.34197287 358.58659502 388.45893131 358.57413366 382.57575607 358.55155468 C374.06989111 358.5189315 365.56411177 358.50861716 357.05819103 358.50360271 C343.25517711 358.49486617 329.4522582 358.46829532 315.64929581 358.43039227 C302.2476079 358.39362957 288.84594588 358.3653387 275.44421768 358.34836102 C274.61698559 358.34731012 273.7897535 358.34625923 272.93745378 358.34517649 C268.78712974 358.33995602 264.63680553 358.33490127 260.48648119 358.32992887 C226.10058022 358.28851797 191.71479204 358.21811448 157.32898331 358.12863445 C157.41422256 359.0206657 157.49946182 359.91269695 157.58728409 360.83175945 C157.74172989 362.58746258 157.74172989 362.58746258 157.89929581 364.37863445 C158.05809219 366.11886883 158.05809219 366.11886883 158.22009659 367.89425945 C158.41104981 373.5663409 156.67342997 376.48542187 153.07898331 380.87863445 C147.89333959 385.12143386 142.84972413 386.28825258 136.32898331 387.12863445 C136.33897606 389.00998341 136.33897606 389.00998341 136.34917068 390.92933941 C136.4099653 402.74481916 136.4549481 414.56026721 136.48441982 426.37586784 C136.50008084 432.45050541 136.52132736 438.52501678 136.55530167 444.59958172 C136.58787913 450.46102229 136.60583304 456.32234143 136.61361504 462.18386555 C136.61916141 464.42099513 136.62999199 466.65811802 136.64617348 468.89519596 C136.66792594 472.02678488 136.6709511 475.15787091 136.66955948 478.28952312 C136.68034531 479.21597134 136.69113113 480.14241955 136.7022438 481.09694195 C136.67901968 485.92143484 136.52417637 489.24351869 133.32898331 493.12863445 C129.41449625 495.85967193 126.17912153 496.72169254 121.40710831 495.90207195 C117.28228979 494.36689514 114.41627083 491.16457416 111.32898331 488.12863445 C105.59935386 482.84832858 105.59935386 482.84832858 98.22742081 481.09738445 C90.6384733 481.60500636 86.53496963 484.83753037 81.32898331 490.19113445 C76.02314186 495.59746532 70.90151361 498.05453924 63.32898331 498.12863445 C56.83644457 497.40724126 53.3063534 493.76196882 48.75867081 489.41769695 C42.35064557 483.30050664 42.35064557 483.30050664 34.07117081 480.98800945 C26.74972148 481.21190699 23.29270702 484.01922493 18.32898331 489.12863445 C14.32460403 493.11533435 11.16178259 496.03738702 5.32117081 496.3669157 C1.572367 495.91852936 -0.64054913 494.37118045 -3.67101669 492.12863445 C-5.44970804 489.29757504 -5.92473401 487.13051454 -5.94948959 483.8132658 C-5.96065308 482.95793758 -5.97181656 482.10260937 -5.98331833 481.22136211 C-5.98547852 480.29131863 -5.9876387 479.36127514 -5.98986435 478.40304852 C-5.99990997 477.41735378 -6.0099556 476.43165905 -6.02030563 475.41609478 C-6.05119038 472.15882226 -6.06818763 468.90163213 -6.08507919 465.64425945 C-6.10378656 463.38552419 -6.12335965 461.12679594 -6.1437645 458.86807537 C-6.19513711 452.92349666 -6.23473548 446.97889528 -6.27190781 441.03421307 C-6.31191523 434.96797332 -6.36302246 428.9018283 -6.41320419 422.8356657 C-6.51002426 410.93338845 -6.59440967 399.03105777 -6.67101669 387.12863445 C-7.50246201 386.93164959 -8.33390732 386.73466473 -9.19054794 386.53171062 C-10.27722763 386.26850018 -11.36390732 386.00528973 -12.48351669 385.7341032 C-14.10193466 385.34581341 -14.10193466 385.34581341 -15.75304794 384.94967937 C-20.94540713 383.4886767 -23.36287056 380.97998549 -25.98351669 376.44113445 C-29.585145 368.53796628 -27.38253342 360.3041831 -25.67101669 352.12863445 C-26.78476669 351.75738445 -26.78476669 351.75738445 -27.92101669 351.37863445 C-35.82611441 347.78540822 -40.55305272 338.87670803 -43.67101669 331.12863445 C-44.5993528 328.04090013 -44.79961143 325.26659149 -44.80803108 322.04722118 C-44.81310562 321.01557229 -44.81818017 319.98392339 -44.82340848 318.9210124 C-44.82390624 317.78912851 -44.824404 316.65724462 -44.82491684 315.49106121 C-44.82929909 314.2873788 -44.83368135 313.08369639 -44.8381964 311.84353876 C-44.84925474 308.50086596 -44.85580689 305.15823991 -44.86037755 301.81555557 C-44.8663394 298.21071777 -44.87794789 294.60589717 -44.88866806 291.00107098 C-44.9131803 282.2936755 -44.9278183 273.58627434 -44.94072813 264.87885499 C-44.94444118 262.41850672 -44.94841433 259.95815902 -44.95248079 257.49781132 C-44.97772049 242.212224 -44.99976887 226.92663577 -45.01220894 211.64103222 C-45.01513854 208.1010923 -45.01810021 204.56115242 -45.02111435 201.02121258 C-45.0218604 200.14140034 -45.02260645 199.2615881 -45.02337511 198.35511488 C-45.0360215 184.1111905 -45.06923546 169.86739116 -45.11091618 155.6235252 C-45.15337958 140.99193923 -45.17690913 126.36041719 -45.1821295 111.72876978 C-45.18553883 103.51680358 -45.19723721 95.30503269 -45.23023224 87.09312725 C-45.25829467 80.09747034 -45.26920509 73.10204881 -45.25803678 66.10633999 C-45.25286567 62.54016815 -45.25563461 58.97448873 -45.28050232 55.40838909 C-45.30730153 51.53275451 -45.29488147 47.65778327 -45.2790184 43.78207684 C-45.29290049 42.66803872 -45.30678258 41.5540006 -45.32108533 40.40620375 C-45.2037925 28.72887943 -41.07509422 19.59700263 -32.99914169 11.25363445 C-23.46223404 2.54880599 -12.72113789 -0.03838395 0 0 Z " fill="#EBF5FD" transform="translate(44.671016693115234,6.871365547180176)"/>
<path d="M0 0 C6.84701906 3.73714718 12.46174604 6.34177891 20.27734375 4.46484375 C24.60227746 2.72224741 28.69193712 0.55682132 32.7734375 -1.6875 C37.76513591 -4.3196888 41.60490428 -5.00785954 47.27734375 -4.53515625 C56.85804664 -1.24011077 60.39176991 6.16536818 64.83398438 14.66992188 C67.90685813 20.3416906 70.59428714 23.59142319 76.94921875 25.66015625 C78.305553 25.98310086 79.66514765 26.29259367 81.02734375 26.58984375 C81.73745605 26.75814697 82.44756836 26.9264502 83.17919922 27.09985352 C86.90502515 27.97449051 90.63751301 28.71490879 94.40234375 29.40234375 C99.89162087 30.60705152 102.89078932 33.52366754 106.15234375 38.08984375 C108.49788507 45.12646772 107.30703523 52.25700338 106.27734375 59.46484375 C106.15767303 61.31702014 106.07728632 63.17197742 106.02734375 65.02734375 C106.0015625 65.91550781 105.97578125 66.80367188 105.94921875 67.71875 C106.79942685 74.83418205 111.56100831 79.20891722 116.33984375 84.08984375 C117.60582947 85.39039126 118.86771178 86.69494865 120.125 88.00390625 C120.68195557 88.57318848 121.23891113 89.1424707 121.81274414 89.72900391 C125.31727859 93.88256949 125.79155738 97.58740201 125.63671875 102.890625 C124.49399899 111.07597632 117.53223655 116.39931377 111.80078125 121.75390625 C107.07497935 126.83085132 105.84672173 131.02428984 106.0390625 137.74609375 C106.37078581 141.53100236 107.09196131 145.20409258 107.8203125 148.9296875 C108.97202424 155.31824235 108.35703529 159.73024571 105.27734375 165.46484375 C100.07584113 171.82223584 94.17993565 173.44637129 86.27734375 174.46484375 C86.2873365 176.3461927 86.2873365 176.3461927 86.29753113 178.26554871 C86.35832575 190.08102846 86.40330854 201.89647651 86.43278027 213.71207714 C86.44844128 219.7867147 86.4696878 225.86122608 86.50366211 231.93579102 C86.53623957 237.79723159 86.55419348 243.65855073 86.56197548 249.52007484 C86.56752185 251.75720443 86.57835243 253.99432732 86.59453392 256.23140526 C86.61628638 259.36299418 86.61931154 262.4940802 86.61791992 265.62573242 C86.62870575 266.55218063 86.63949158 267.47862885 86.65060425 268.43315125 C86.62738012 273.25764414 86.47253681 276.57972798 83.27734375 280.46484375 C79.36285669 283.19588123 76.12748197 284.05790184 71.35546875 283.23828125 C67.23065023 281.70310443 64.36463128 278.50078346 61.27734375 275.46484375 C55.5477143 270.18453788 55.5477143 270.18453788 48.17578125 268.43359375 C40.58683374 268.94121566 36.48333008 272.17373966 31.27734375 277.52734375 C25.97150231 282.93367462 20.84987406 285.39074854 13.27734375 285.46484375 C6.78480501 284.74345056 3.25471384 281.09817812 -1.29296875 276.75390625 C-7.70099399 270.63671594 -7.70099399 270.63671594 -15.98046875 268.32421875 C-23.30191807 268.54811628 -26.75893254 271.35543423 -31.72265625 276.46484375 C-35.72703553 280.45154365 -38.88985697 283.37359632 -44.73046875 283.703125 C-48.47927256 283.25473866 -50.69218869 281.70738975 -53.72265625 279.46484375 C-55.50134759 276.63378434 -55.97637356 274.46672383 -56.00112915 271.1494751 C-56.01229263 270.29414688 -56.02345612 269.43881866 -56.03495789 268.55757141 C-56.03711807 267.62752792 -56.03927826 266.69748444 -56.04150391 265.73925781 C-56.05154953 264.75356308 -56.06159515 263.76786835 -56.07194519 262.75230408 C-56.10282994 259.49503155 -56.11982719 256.23784142 -56.13671875 252.98046875 C-56.15542612 250.72173348 -56.17499921 248.46300524 -56.19540405 246.20428467 C-56.24677666 240.25970596 -56.28637504 234.31510457 -56.32354736 228.37042236 C-56.36355479 222.30418262 -56.41466202 216.2380376 -56.46484375 210.171875 C-56.56166382 198.26959774 -56.64604922 186.36726706 -56.72265625 174.46484375 C-57.55410156 174.26785889 -58.38554688 174.07087402 -59.2421875 173.86791992 C-60.32886719 173.60470947 -61.41554687 173.34149902 -62.53515625 173.0703125 C-63.61410156 172.81145264 -64.69304687 172.55259277 -65.8046875 172.28588867 C-70.99704669 170.824886 -73.41451012 168.31619478 -76.03515625 163.77734375 C-79.63678455 155.87417557 -77.43417298 147.6403924 -75.72265625 139.46484375 C-76.83640625 139.09359375 -76.83640625 139.09359375 -77.97265625 138.71484375 C-85.87775397 135.12161752 -90.60469227 126.21291732 -93.72265625 118.46484375 C-94.89297846 114.37895437 -94.94345069 110.37619822 -94.97265625 106.15234375 C-95.00359375 105.05116211 -95.00359375 105.05116211 -95.03515625 103.92773438 C-95.09334235 95.73076772 -92.22378959 90.58481738 -86.58007812 84.81054688 C-85.94650391 84.18083984 -85.31292969 83.55113281 -84.66015625 82.90234375 C-79.64744458 77.92004287 -76.16194464 74.28212489 -75.4921875 66.9375 C-75.55779899 63.25729163 -75.68230128 59.73723978 -76.22265625 56.08984375 C-77.13817385 49.45234114 -78.01052865 42.99617916 -74.91015625 36.90234375 C-68.99189652 30.30771148 -62.96662344 28.74910568 -54.36938477 27.49536133 C-45.48535758 26.41437573 -45.48535758 26.41437573 -38.18359375 21.73046875 C-35.66012537 17.81706858 -33.7486634 13.58962819 -31.7800293 9.37597656 C-29.1377731 3.86716399 -26.14557512 -0.42495278 -20.72265625 -3.53515625 C-12.88355523 -6.02735599 -6.83652537 -3.85474099 0 0 Z " fill="#FCC039" transform="translate(94.72265625,219.53515625)"/>
<path d="M0 0 C1.11643353 -0.00262956 1.11643353 -0.00262956 2.25542128 -0.00531223 C4.74527243 -0.00995797 7.23506482 -0.00751041 9.72491837 -0.00507832 C11.52978318 -0.00694701 13.33464758 -0.00924794 15.13951135 -0.01194364 C20.0963531 -0.01806087 25.05317798 -0.01792813 30.01002264 -0.01674926 C35.3571292 -0.01654524 40.70423034 -0.0220642 46.05133438 -0.02680683 C56.52635462 -0.03511356 67.00136922 -0.03786168 77.47639248 -0.03841921 C85.99110222 -0.03889436 94.5058101 -0.04094909 103.02051926 -0.04411983 C127.16127831 -0.05292652 151.30203291 -0.0575392 175.44279358 -0.05678936 C176.74424986 -0.0567494 178.04570614 -0.05670945 179.38660049 -0.05666828 C180.68964584 -0.0566274 181.99269118 -0.05658652 183.33522275 -0.0565444 C204.4534961 -0.05613794 225.57175162 -0.06570746 246.69001982 -0.07980665 C268.37410377 -0.09416936 290.05817902 -0.10107689 311.74226785 -0.10021287 C323.91621799 -0.09988086 336.09014945 -0.10262966 348.26409531 -0.11339092 C358.62921487 -0.12249453 368.99430726 -0.12467231 379.35942909 -0.1178815 C384.64680522 -0.11461559 389.93412922 -0.11456222 395.2215004 -0.12323475 C400.06500219 -0.13109745 404.9084105 -0.12967061 409.75191 -0.12095062 C411.5008759 -0.11941513 413.24984877 -0.12123362 414.99880645 -0.12681069 C430.79724375 -0.17383824 444.40618865 0.58834656 456.64148331 11.75363445 C462.67570512 18.17275518 467.44537423 27.19673965 467.46320438 36.08979321 C467.46766223 37.12006775 467.47212007 38.1503423 467.476713 39.21183729 C467.47643646 40.91505557 467.47643646 40.91505557 467.47615433 42.6526823 C467.47983102 43.85621585 467.4835077 45.0597494 467.48729581 46.29975367 C467.49642512 49.64661845 467.5010329 52.99343418 467.50368512 56.34030676 C467.50758778 59.94786784 467.51716631 63.55541471 467.52589798 67.16296673 C467.54566601 75.87967726 467.55573015 84.59638896 467.56462577 93.31311631 C467.56900911 97.41901713 467.57437589 101.52491666 467.57961464 105.63081646 C467.59662913 119.28251407 467.61112208 132.93421088 467.61836338 146.58591747 C467.62027325 150.12912783 467.62219359 153.67233818 467.62414932 157.21554852 C467.62463306 158.09618857 467.6251168 158.97682862 467.6256152 159.88415474 C467.63391089 174.14173039 467.65923902 188.39922201 467.69173 202.65676099 C467.72482401 217.29848144 467.74281436 231.94015924 467.74600762 246.58191729 C467.74817082 254.80109998 467.75689125 263.02016024 467.7824688 271.23930645 C467.80420802 278.24121742 467.81221051 285.24297621 467.80250201 292.24491709 C467.79796626 295.81493943 467.79980065 299.38464801 467.81926346 302.95462704 C467.84022285 306.83278616 467.82988072 310.71051643 467.8167305 314.58871746 C467.82769975 315.70635054 467.83866899 316.82398362 467.84997064 317.97548437 C467.75585332 329.50460552 464.31746409 338.74389967 456.32898331 347.12863445 C446.96859159 356.21901487 436.04211166 358.75102878 423.29401016 358.60965252 C422.14444596 358.61307022 420.99488175 358.61648792 419.81048226 358.62000918 C415.99184426 358.62655225 412.17392279 358.60467025 408.35535049 358.58273602 C405.60484249 358.57937323 402.85434805 358.58206714 400.10383987 358.58450603 C394.19933907 358.58659507 388.2950162 358.57413318 382.39056015 358.55155468 C373.85392613 358.51893218 365.31737743 358.50861723 356.78068784 358.50360271 C342.9277598 358.49486606 329.07492641 358.46829492 315.22204971 358.43039227 C301.77185919 358.39362985 288.32169445 358.36533884 274.87146378 358.34836102 C274.04124469 358.34731012 273.21102561 358.34625923 272.35564837 358.34517649 C268.19034026 358.33995603 264.02503198 358.33490127 259.85972357 358.32992887 C225.34940872 358.28851764 190.83920625 358.21811385 156.32898331 358.12863445 C154.91548516 351.24908609 153.80236488 344.93978968 157.64148331 338.69113445 C162.03373898 332.37314505 162.03373898 332.37314505 165.31231552 331.75422961 C166.45530661 331.75463414 166.45530661 331.75463414 167.62138844 331.75504684 C168.50249367 331.7480571 169.38359891 331.74106735 170.29140431 331.7338658 C171.7446796 331.74522988 171.7446796 331.74522988 173.227314 331.75682354 C174.25596036 331.75299898 175.28460672 331.74917441 176.34442419 331.74523395 C179.80824461 331.73591194 183.27166917 331.74796399 186.73547745 331.75973797 C189.21227561 331.75727128 191.68907273 331.75343422 194.16586685 331.74832439 C199.5089805 331.73996997 204.85198333 331.74050403 210.19508934 331.74850941 C217.93124087 331.75973506 225.66726997 331.75070447 233.40341084 331.7359476 C245.96868745 331.71215982 258.53394896 331.69880823 271.09924698 331.69479656 C271.85155291 331.69455169 272.60385884 331.69430683 273.37896191 331.69405454 C281.76464642 331.69151082 290.15032977 331.69094059 298.53601456 331.69198895 C301.57271703 331.69232194 304.6094195 331.69260735 307.64612198 331.69284344 C308.39538966 331.69290622 309.14465734 331.69296901 309.9166301 331.6930337 C322.42604348 331.69363927 334.93538732 331.6787247 347.44477171 331.65201038 C355.15693056 331.63622723 362.8688645 331.6339242 370.58102565 331.6491444 C376.49847689 331.65975595 382.41578231 331.64988602 388.33322144 331.63258648 C390.75592169 331.62886314 393.17864371 331.63195988 395.60132408 331.64245701 C398.91513053 331.65585578 402.22799794 331.64459306 405.54176712 331.62742901 C406.97161984 331.64213917 406.97161984 331.64213917 408.43035847 331.65714651 C418.90567165 331.54535946 426.59541379 327.80374775 434.12585831 320.6403532 C440.39800425 313.489662 442.36247224 305.85705346 442.83952713 296.59698772 C442.88130437 295.83411658 442.92308161 295.07124543 442.96612483 294.28525698 C443.10371708 291.72467258 443.23395518 289.16378838 443.36291885 286.60275555 C443.40918097 285.70508339 443.45544308 284.80741123 443.50310707 283.88253689 C444.41740024 265.9762172 444.9788674 248.06331302 445.41622066 230.13953495 C445.70134068 218.7544613 446.0931363 207.39428846 446.75940323 196.02463055 C451.52207028 137.73708555 451.52207028 137.73708555 427.51056778 86.99416852 C416.40030322 74.88327511 403.65049507 64.41064094 390.38936234 54.7523222 C385.94156337 51.48419128 382.20328977 48.21076126 378.75367641 43.90235233 C376.0984183 40.59660265 373.02115362 37.67644061 370.01648331 34.69113445 C369.39708878 34.06787273 368.77769424 33.44461102 368.13953018 32.80246258 C367.24911026 31.91397625 367.24911026 31.91397625 366.34070206 31.0075407 C365.80920547 30.47717205 365.27770889 29.9468034 364.73010635 29.40036297 C362.02031406 26.94082158 359.96420921 27.00036942 356.41329384 26.98996925 C355.36777646 26.98449481 354.32225909 26.97902037 353.24505937 26.97338003 C352.08749151 26.97240192 350.92992366 26.97142382 349.73727798 26.97041607 C348.51458698 26.96547809 347.29189597 26.96054011 346.03215373 26.9554525 C342.62759292 26.94270838 339.22307333 26.93444316 335.81849813 26.92802584 C332.15113871 26.92003693 328.48380023 26.90633398 324.81645584 26.89331341 C318.45895797 26.8715292 312.101458 26.85339184 305.74394226 26.83770847 C296.55196212 26.81502752 287.36000515 26.78688226 278.16804464 26.7573892 C263.25588077 26.70969149 248.34370744 26.66643322 233.43152237 26.62594891 C218.9429081 26.58660505 204.45430226 26.5451815 189.96570206 26.50094891 C189.07311583 26.49822463 188.1805296 26.49550036 187.2608953 26.49269354 C182.78319916 26.47901424 178.30550314 26.46529393 173.82780719 26.45155323 C136.66155003 26.33755423 99.49527492 26.23075246 62.32898331 26.12863445 C63.28372043 25.00777611 64.23945409 23.88776655 65.19560623 22.76811504 C65.72772311 22.14431863 66.25983999 21.52052221 66.80808163 20.87782288 C68.58468575 18.83455117 70.44775018 16.91193132 72.37976456 15.0153532 C73.0777919 14.32506023 73.77581924 13.63476727 74.49499893 12.92355633 C75.5575087 11.8803825 75.5575087 11.8803825 76.64148331 10.81613445 C78.07735981 9.4056942 79.5110689 7.99304295 80.94226456 6.5778532 C81.56915176 5.96256756 82.19603897 5.34728191 82.84192276 4.71335125 C84.42202115 3.18082818 84.42202115 3.18082818 85.32898331 1.12863445 C75.30074937 -0.59201577 65.29515174 -1.64669138 55.14148331 -2.18386555 C54.00810846 -2.24437532 54.00810846 -2.24437532 52.85183716 -2.30610752 C32.4618746 -3.22996731 17.01120142 0.04661154 1.45039177 13.78057957 C-13.74093618 27.66823608 -27.49576029 43.27748149 -40.43128872 59.26855278 C-41.49110464 60.57184689 -42.57803882 61.85302296 -43.67101669 63.12863445 C-44.00101669 63.12863445 -44.33101669 63.12863445 -44.67101669 63.12863445 C-44.7962992 58.79116131 -44.88612894 54.45469587 -44.9456749 50.11593914 C-44.97054254 48.64570005 -45.00445031 47.17558088 -45.04821396 45.70578289 C-45.37484167 34.4390481 -44.01186436 25.48014406 -37.49523544 15.9450407 C-26.61031658 4.46314275 -15.89126983 -0.04794931 0 0 Z " fill="#234FB0" transform="translate(44.671016693115234,6.871365547180176)"/>
<path d="M0 0 C1.41998564 -0.006169 2.83996955 -0.01274572 4.25995159 -0.01969379 C8.15275569 -0.03742361 12.04555659 -0.04891359 15.93838644 -0.05925047 C19.27935503 -0.06891245 22.62030526 -0.0822167 25.96126103 -0.09551943 C37.91856359 -0.14299734 49.87589224 -0.17573398 61.83325195 -0.20481873 C62.77689464 -0.20712631 63.72053733 -0.20943389 64.69277525 -0.21181139 C83.43319341 -0.25724295 102.17362341 -0.29574263 120.91407776 -0.32254124 C125.03003962 -0.32853013 129.14600132 -0.33461584 133.26196289 -0.34080505 C134.28493969 -0.34233804 135.30791649 -0.34387102 136.36189258 -0.34545045 C152.9499533 -0.37118885 169.5377609 -0.42810048 186.12569129 -0.49727035 C203.15861954 -0.56770953 220.19141667 -0.60796957 237.22448826 -0.61929077 C246.78725453 -0.62645378 256.34957981 -0.64724177 265.91220093 -0.70231819 C274.05167403 -0.74916612 282.19063969 -0.76905548 290.33024287 -0.75343669 C294.48337443 -0.74631956 298.63541884 -0.75222604 302.78837967 -0.79301453 C306.59106863 -0.8300672 310.39190702 -0.83014107 314.19464743 -0.80089092 C316.22028462 -0.79488876 318.2459203 -0.82834055 320.27126598 -0.86322504 C328.93240336 -0.74459084 328.93240336 -0.74459084 332.46964931 1.93361008 C334.23253589 3.93181776 335.6933342 5.94508122 337.14575195 8.17408752 C338.5933374 9.68169518 340.05745002 11.17388523 341.5480957 12.63893127 C342.66474609 13.7439801 342.66474609 13.7439801 343.80395508 14.87135315 C344.55612305 15.61063049 345.30829102 16.34990784 346.08325195 17.11158752 C347.61543924 18.61842845 349.14551714 20.12741839 350.6730957 21.63893127 C351.67457642 22.62300964 351.67457642 22.62300964 352.69628906 23.62696838 C354.14575195 25.17408752 354.14575195 25.17408752 354.14575195 26.17408752 C255.80575195 26.17408752 157.46575195 26.17408752 56.14575195 26.17408752 C62.88516676 18.31143692 62.88516676 18.31143692 66.1965332 15.06080627 C66.89456055 14.37051331 67.59258789 13.68022034 68.31176758 12.9690094 C69.37427734 11.92583557 69.37427734 11.92583557 70.45825195 10.86158752 C71.89412846 9.45114727 73.32783754 8.03849602 74.7590332 6.62330627 C75.38592041 6.00802063 76.01280762 5.39273499 76.65869141 4.75880432 C78.23878979 3.22628125 78.23878979 3.22628125 79.14575195 1.17408752 C69.11751802 -0.54656269 59.11192039 -1.60123831 48.95825195 -2.13841248 C47.82487711 -2.19892225 47.82487711 -2.19892225 46.6686058 -2.26065445 C26.27864325 -3.18451424 10.82797007 0.09206462 -4.73283958 13.82603264 C-19.92416753 27.71368915 -33.67899165 43.32293456 -46.61452007 59.31400585 C-47.67433599 60.61729996 -48.76127018 61.89847603 -49.85424805 63.17408752 C-50.18424805 63.17408752 -50.51424805 63.17408752 -50.85424805 63.17408752 C-50.97953055 58.83661438 -51.06936029 54.50014894 -51.12890625 50.16139221 C-51.15377389 48.69115312 -51.18768166 47.22103395 -51.23144531 45.75123596 C-51.55807303 34.48450117 -50.19509572 25.52559713 -43.6784668 15.99049377 C-30.67191585 2.27060366 -18.35970713 0.03556573 0 0 Z " fill="#2598F3" transform="translate(50.854248046875,6.8259124755859375)"/>
<path d="M0 0 C12.06608347 -0.0464686 24.13214542 -0.0819428 36.19830036 -0.10362434 C41.80191028 -0.11403366 47.40545868 -0.12814054 53.0090332 -0.15087891 C58.4231088 -0.17270927 63.83712545 -0.18459005 69.25124168 -0.18975449 C71.31035476 -0.193432 73.36946484 -0.200613 75.42855263 -0.21146011 C107.16589066 -0.37190586 107.16589066 -0.37190586 120.3125 11.625 C126.01214563 17.68820327 131.13089101 26.67986188 131.12025452 35.15715027 C131.12231651 36.42545937 131.12231651 36.42545937 131.12442017 37.71939087 C131.12082489 38.64367889 131.11722961 39.56796692 131.11352539 40.52026367 C131.11367142 41.49605881 131.11381744 42.47185394 131.1139679 43.47721863 C131.11327038 46.70749116 131.10548545 49.93770627 131.09765625 53.16796875 C131.0957915 55.40570545 131.09436787 57.64344256 131.09336853 59.88117981 C131.08954784 65.77486292 131.07972135 71.66852144 131.06866455 77.56219482 C131.05844081 83.57466296 131.05386884 89.58713506 131.04882812 95.59960938 C131.03809871 107.39975039 131.02102763 119.19987315 131 131 C129.87346026 130.03930457 128.74761065 129.07779982 127.62205505 128.11595154 C126.99502402 127.58060004 126.36799299 127.04524855 125.72196102 126.49367428 C123.9169488 124.92795921 122.20515008 123.30648088 120.53515625 121.59765625 C119.96216797 121.01693359 119.38917969 120.43621094 118.79882812 119.83789062 C117.64513836 118.65824609 116.49149223 117.47855887 115.33789062 116.29882812 C112.49869998 113.42139922 109.63401831 110.65352213 106.546875 108.04248047 C100.6456728 102.90354208 95.17678291 97.32081317 89.65234375 91.78515625 C88.46999923 90.603487 87.28750643 89.42196609 86.10487366 88.24058533 C83.63819466 85.77537277 81.17331297 83.30838114 78.7097168 80.84008789 C75.57078068 77.69545516 72.42737529 74.55533444 69.28259945 71.41654301 C66.84337994 68.98095768 64.40657259 66.54297011 61.97046089 64.10427666 C60.81310723 62.94626161 59.65502613 61.78897307 58.49616814 60.63246346 C52.97639554 55.12142692 47.48630766 49.6237287 42.44018555 43.66723633 C39.79980551 40.61059024 36.92683818 37.78250631 34.0625 34.9375 C33.49337891 34.36451172 32.92425781 33.79152344 32.33789062 33.20117188 C29.3754518 30.24538274 26.35587851 27.40954088 23.18359375 24.6796875 C18.23858161 20.40109651 13.62386471 15.80781336 9 11.1875 C8.12988281 10.32962891 7.25976562 9.47175781 6.36328125 8.58789062 C5.54214844 7.76869141 4.72101563 6.94949219 3.875 6.10546875 C3.12992187 5.36449951 2.38484375 4.62353027 1.6171875 3.86010742 C0 2 0 2 0 0 Z " fill="#CF3A42" transform="translate(381,7)"/>
<path d="M0 0 C0.06948682 13.08237678 0.12280469 26.16470971 0.15543652 39.24723339 C0.17109753 45.32187095 0.19234405 51.39638233 0.22631836 57.47094727 C0.25889582 63.33238784 0.27684973 69.19370698 0.28463173 75.05523109 C0.2901781 77.29236068 0.30100868 79.52948357 0.31719017 81.76656151 C0.33894263 84.89815043 0.34196779 88.02923645 0.34057617 91.16088867 C0.351362 92.08733688 0.36214783 93.0137851 0.3732605 93.9683075 C0.35003637 98.79280039 0.19519306 102.11488423 -3 106 C-6.91448706 108.73103748 -10.14986178 109.59305809 -14.921875 108.7734375 C-19.04669352 107.23826068 -21.91271247 104.03593971 -25 101 C-30.72962945 95.71969413 -30.72962945 95.71969413 -38.1015625 93.96875 C-45.69051001 94.47637191 -49.79401367 97.70889591 -55 103.0625 C-60.30584144 108.46883087 -65.42746969 110.92590479 -73 111 C-79.49253874 110.27860681 -83.02262991 106.63333437 -87.5703125 102.2890625 C-91.64955054 98.44592184 -94.72316026 96.1107359 -100 94 C-100 73.54 -100 53.08 -100 32 C-96.7 31.01 -93.4 30.02 -90 29 C-86.48132598 27.25930004 -83.09778153 25.36819396 -79.6875 23.42578125 C-74.19413441 21.30175748 -69.19189166 20.876595 -63.56591797 22.85668945 C-61.13697473 23.99051159 -58.78705959 25.20996975 -56.4375 26.5 C-50.16952877 29.92450274 -45.24098613 32.04262909 -38 31 C-30.27452042 28.44124243 -27.06241376 22.02876989 -23.57421875 15.21484375 C-20.07082576 8.48869132 -17.3548937 4.40665178 -10.625 0.6875 C-7.0212799 -0.25633146 -3.72541731 -0.04173074 0 0 Z " fill="#CEE6F5" transform="translate(181,394)"/>
<path d="M0 0 C-1.59512835 3.89098177 -4.10163453 6.3505965 -7.05519104 9.3024292 C-7.57480547 9.82445805 -8.09441991 10.3464869 -8.62978023 10.8843348 C-10.37159068 12.63177967 -12.12045601 14.37198636 -13.86938477 16.11230469 C-15.11969542 17.36368826 -16.36957301 18.61550466 -17.61904907 19.86772156 C-21.01307878 23.26660001 -24.41332784 26.65919347 -27.81485105 30.05057049 C-31.36910109 33.59604471 -34.91808585 37.14678212 -38.46775818 40.69683838 C-44.42716812 46.65531174 -50.39043947 52.60989825 -56.35620117 58.56201172 C-63.26350902 65.45357612 -70.16555823 72.35037129 -77.064632 79.2501781 C-83.69261504 85.87877036 -90.32344545 92.50450614 -96.95588493 99.12863922 C-99.78321731 101.95243188 -102.60969047 104.77708054 -105.43551826 107.60237885 C-108.75815534 110.92401518 -112.08331746 114.24310287 -115.41049576 117.5601902 C-116.63487885 118.78164011 -117.85840449 120.0039502 -119.08103371 121.22715569 C-120.74232112 122.88892998 -122.40662535 124.54762023 -124.0717926 126.20550537 C-125.47132596 127.60252497 -125.47132596 127.60252497 -126.89913273 129.02776718 C-129 131 -129 131 -130 131 C-135.0057712 104.57607503 -138.92690946 73.97926993 -123.5166626 50.3566761 C-91.7286353 4.46400725 -53.75867356 -10.36272509 0 0 Z " fill="#D73C45" transform="translate(130,8)"/>
<path d="M0 0 C0.0934402 17.77618535 0.1639776 35.55230696 0.20724869 53.32868481 C0.22787422 61.58256934 0.25599453 69.83630129 0.30175781 78.09008789 C0.341626 85.28407385 0.36743288 92.4779493 0.37635398 99.67204267 C0.38156881 103.48133703 0.39382497 107.29031525 0.42292023 111.09950829 C0.45008932 114.68561112 0.45844216 118.27126786 0.45243073 121.85746384 C0.45405425 123.79960064 0.47556933 125.74168895 0.49768066 127.68370056 C0.49218201 128.84331299 0.48668335 130.00292542 0.48101807 131.19767761 C0.48470524 132.20335376 0.48839241 133.2090299 0.49219131 134.24518108 C-0.13188624 137.73817374 -1.65719894 139.39217059 -4 142 C-6.92268547 147.84537094 -4.92179908 156.77785623 -4 163 C-3.88072128 164.66448034 -3.80008999 166.33200323 -3.75 168 C-3.72421875 168.78375 -3.6984375 169.5675 -3.671875 170.375 C-4.62754557 178.02036459 -8.81165573 182.34370565 -14.0625 187.5625 C-19.97836112 193.36748132 -19.97836112 193.36748132 -23 201 C-23.33 201 -23.66 201 -24 201 C-24.53962812 178.19025641 -24.94398868 155.38157877 -25.19167995 132.56672573 C-25.30979959 121.97060501 -25.47050794 111.37847118 -25.73510742 100.78491211 C-25.96589555 91.54054616 -26.11308672 82.29906832 -26.16403538 73.0519014 C-26.19378298 68.16317972 -26.26252167 63.28271149 -26.43179131 58.39666557 C-27.53942896 25.18310456 -27.53942896 25.18310456 -17.23437577 13.62307531 C-4.15492822 0 -4.15492822 0 0 0 Z " fill="#269BF4" transform="translate(24,116)"/>
<path d="M0 0 C1.67601423 -0.00485974 3.35202265 -0.01230218 5.02801514 -0.02212524 C9.56742615 -0.04089684 14.10597122 -0.02213393 18.64531446 0.00453901 C23.40042028 0.02721342 28.1554849 0.0189496 32.91062927 0.01504517 C40.8941763 0.0132808 48.87738317 0.0354091 56.86083984 0.07226562 C66.08649933 0.11461345 75.31166091 0.12161681 84.53739792 0.10914171 C93.41948355 0.09774696 102.30139413 0.10905346 111.18345451 0.1314888 C114.96045105 0.14076952 118.73734034 0.14253342 122.51434517 0.13831711 C126.96244789 0.13454583 131.41004483 0.1508001 135.85803223 0.1824379 C137.48901718 0.1909121 139.12005351 0.19263234 140.75105095 0.1870575 C142.98026185 0.18059462 145.20797053 0.198819 147.43702698 0.22323608 C149.30661245 0.22939469 149.30661245 0.22939469 151.21396732 0.23567772 C155.83487846 0.92957183 159.12647095 2.88257606 162.04077148 6.55712891 C162.90532117 9.91926658 162.42654222 12.39274093 161.60327148 15.74462891 C159.77988096 18.45030517 158.52869712 20.28191609 155.60327148 21.74462891 C153.34694377 21.84999915 151.08742399 21.88859827 148.82865906 21.89852905 C148.12402348 21.90291131 147.4193879 21.90729356 146.69339973 21.91180861 C144.32049951 21.92521638 141.94763645 21.93137987 139.57470703 21.9375 C137.87811108 21.94539936 136.1815168 21.95366821 134.48492432 21.96228027 C128.90329599 21.9885178 123.32166009 22.0038088 117.73999023 22.01806641 C115.82023425 22.02342522 113.90047831 22.02880272 111.98072243 22.03419876 C103.99677907 22.05582928 96.01283775 22.07456711 88.02887249 22.08582115 C76.57754526 22.10206765 65.12655696 22.1352604 53.67535752 22.192222 C45.62859642 22.23088777 37.58192611 22.2504498 29.53507453 22.25574172 C24.72645775 22.25939956 19.91820232 22.27146673 15.1096859 22.30384445 C10.58618062 22.33386632 6.06325644 22.3402581 1.53967285 22.32846069 C-0.12079723 22.32823947 -1.78129381 22.33658494 -3.44167137 22.35411453 C-5.70887183 22.3767483 -7.97395472 22.36854098 -10.24116516 22.35263062 C-11.50972005 22.35594076 -12.77827494 22.35925091 -14.08527088 22.36266136 C-18.26100728 21.58332461 -19.71248615 19.94816615 -22.39672852 16.74462891 C-22.72672852 16.41462891 -23.05672852 16.08462891 -23.39672852 15.74462891 C-23.74047852 13.88916016 -23.74047852 13.88916016 -23.89672852 11.55712891 C-24.00500977 10.42210937 -24.00500977 10.42210937 -24.11547852 9.26416016 C-23.13776879 5.83686248 -21.67280733 4.2866116 -18.93498421 2.04150772 C-13.21721415 -0.87989018 -6.28695824 -0.06369984 0 0 Z " fill="#26A6FD" transform="translate(185.396728515625,217.25537109375)"/>
<path d="M0 0 C1.44956357 -0.02102961 2.89921473 -0.03608434 4.34887695 -0.04858398 C5.55976738 -0.06211159 5.55976738 -0.06211159 6.79512024 -0.07591248 C11.12357718 0.07311328 13.87480054 2.16675123 17 5 C20.74997185 9.5090023 23.3493415 14.64162032 26.0625 19.8125 C30.22553756 27.52541456 33.49633495 28.8111256 42 32 C42 52.13 42 72.26 42 93 C38.04 93.99 34.08 94.98 30 96 C26.81874492 98.21922401 26.81874492 98.21922401 24.625 101 C20.99174934 105.19509355 17.59673355 108.58374151 11.83984375 109.25 C6.74997905 108.58110608 4.32706037 107.13362046 1 103 C-0.14242277 100.71515447 -0.12340344 99.46317112 -0.12025452 96.92514038 C-0.12162918 96.07256149 -0.12300385 95.2199826 -0.12442017 94.34156799 C-0.12082489 93.40433395 -0.11722961 92.46709991 -0.11352539 91.50146484 C-0.11367142 90.51606216 -0.11381744 89.53065948 -0.1139679 88.51539612 C-0.11326933 85.24722111 -0.10547955 81.97910259 -0.09765625 78.7109375 C-0.09579187 76.44935131 -0.09436806 74.18776472 -0.09336853 71.92617798 C-0.08954493 65.96507661 -0.07971596 60.00399949 -0.06866455 54.04290771 C-0.05844707 47.96350431 -0.05387019 41.88409701 -0.04882812 35.8046875 C-0.03809357 23.86978099 -0.02101902 11.93489251 0 0 Z " fill="#D73D45" transform="translate(39,394)"/>
<path d="M0 0 C0.06948682 13.08237678 0.12280469 26.16470971 0.15543652 39.24723339 C0.17109753 45.32187095 0.19234405 51.39638233 0.22631836 57.47094727 C0.25889582 63.33238784 0.27684973 69.19370698 0.28463173 75.05523109 C0.2901781 77.29236068 0.30100868 79.52948357 0.31719017 81.76656151 C0.33894263 84.89815043 0.34196779 88.02923645 0.34057617 91.16088867 C0.351362 92.08733688 0.36214783 93.0137851 0.3732605 93.9683075 C0.35003637 98.79280039 0.19519306 102.11488423 -3 106 C-6.91448706 108.73103748 -10.14986178 109.59305809 -14.921875 108.7734375 C-19.04669352 107.23826068 -21.91271247 104.03593971 -25 101 C-30.55548205 95.96738685 -34.52011453 94.24664758 -42 93 C-42 72.87 -42 52.74 -42 32 C-38.7 30.68 -35.4 29.36 -32 28 C-27.38524462 23.54804467 -24.85384738 18.18848419 -22.12695312 12.47851562 C-19.36335573 6.99040201 -16.07629705 3.7000589 -10.625 0.6875 C-7.0212799 -0.25633146 -3.72541731 -0.04173074 0 0 Z " fill="#275ABC" transform="translate(181,394)"/>
<path d="M0 0 C1.16402344 -0.02449219 2.32804687 -0.04898438 3.52734375 -0.07421875 C10.24175834 -0.09703103 15.93193392 0.10793217 21.375 4.375 C25.38318986 9.08958372 24.86074416 14.05603921 24.73046875 19.98046875 C24.2483448 24.58448754 23.25316564 26.77729295 20.375 30.375 C19.06264329 31.40237414 17.73257007 32.40815913 16.375 33.375 C17.03628906 34.47199219 17.69757813 35.56898438 18.37890625 36.69921875 C19.23253311 38.15319857 20.08535588 39.60765068 20.9375 41.0625 C21.59395508 42.1443457 21.59395508 42.1443457 22.26367188 43.24804688 C25.40282181 48.66122668 25.40282181 48.66122668 25.26171875 52.28125 C24.09972817 55.02498105 23.00499016 55.98694964 20.375 57.375 C17.9375 58.0625 17.9375 58.0625 15.375 57.375 C13.39481218 54.7173795 11.92106624 52.28194905 10.375 49.375 C9.75753906 48.26769531 9.14007813 47.16039062 8.50390625 46.01953125 C3.375 36.74864075 3.375 36.74864075 3.375 34.375 C1.725 34.375 0.075 34.375 -1.625 34.375 C-1.60405273 34.96514893 -1.58310547 35.55529785 -1.56152344 36.16333008 C-1.47836317 38.83787999 -1.42634309 41.51215815 -1.375 44.1875 C-1.34148437 45.11626953 -1.30796875 46.04503906 -1.2734375 47.00195312 C-1.26054687 47.89462891 -1.24765625 48.78730469 -1.234375 49.70703125 C-1.21342773 50.52921143 -1.19248047 51.3513916 -1.17089844 52.19848633 C-1.625 54.375 -1.625 54.375 -3.45800781 56.14331055 C-6.37821282 57.80311612 -8.31855631 57.79709919 -11.625 57.375 C-13.88904058 55.7307611 -14.550026 54.8400895 -14.9992218 52.05357361 C-14.99859238 51.14249344 -14.99796295 50.23141327 -14.99731445 49.29272461 C-15.00354324 48.25832748 -15.00977203 47.22393036 -15.01618958 46.15818787 C-15.00697983 45.04250931 -14.99777008 43.92683075 -14.98828125 42.77734375 C-14.98902901 41.05953453 -14.98902901 41.05953453 -14.98979187 39.30702209 C-14.98745032 36.88524643 -14.97771709 34.46346839 -14.96118164 32.04174805 C-14.93757199 28.32383602 -14.94062244 24.60663987 -14.94726562 20.88867188 C-14.94168968 18.5390582 -14.93458033 16.18944756 -14.92578125 13.83984375 C-14.92669266 12.72214096 -14.92760406 11.60443817 -14.92854309 10.4528656 C-14.91901108 9.42162064 -14.90947906 8.39037567 -14.8996582 7.32788086 C-14.89505081 6.41759628 -14.89044342 5.50731171 -14.88569641 4.56944275 C-14.08957925 -2.13196726 -5.01354612 0.00544359 0 0 Z " fill="#5B5B5B" transform="translate(146.625,126.625)"/>
<path d="M0 0 C4.10410468 -0.05888242 8.20809827 -0.09388921 12.3125 -0.125 C14.03436523 -0.15013672 14.03436523 -0.15013672 15.79101562 -0.17578125 C29.9388653 -0.25593904 41.56025131 1.81306203 52.3125 11.625 C59.24699115 19.00181466 63.17322633 28.27104929 63.09765625 38.29296875 C63.0962413 38.99899734 63.09482635 39.70502594 63.09336853 40.43244934 C63.08777764 42.68417626 63.07522688 44.93580321 63.0625 47.1875 C63.05748382 48.71549335 63.05292112 50.24348827 63.04882812 51.77148438 C63.0378112 55.51436135 63.02055287 59.25716373 63 63 C55.90484554 57.20095811 49.53181379 50.67698168 43.06640625 44.19921875 C41.82102303 42.95450991 40.57549146 41.70994949 39.32981873 40.4655304 C36.73363301 37.87081205 34.1392477 35.2743106 31.54614258 32.67651367 C28.21481477 29.33945331 24.87896943 26.00695043 21.54179478 22.67573833 C18.97591397 20.11345874 16.41240433 17.54881757 13.84962273 14.98343849 C12.61950099 13.75264811 11.38863168 12.52260445 10.15701485 11.29331017 C8.4454333 9.58425174 6.7370619 7.87204964 5.02954102 6.15893555 C4.51689697 5.64831573 4.00425293 5.13769592 3.47607422 4.61160278 C0 1.1142698 0 1.1142698 0 0 Z " fill="#2680E1" transform="translate(449,7)"/>
<path d="M0 0 C1.81274414 0.00676758 1.81274414 0.00676758 3.66210938 0.01367188 C6.62895789 0.02539855 9.5957027 0.04181104 12.5625 0.0625 C6.76345811 7.15765446 0.23948168 13.53068621 -6.23828125 19.99609375 C-7.48299009 21.24147697 -8.72755051 22.48700854 -9.9719696 23.73268127 C-12.56668795 26.32886699 -15.1631894 28.9232523 -17.76098633 31.51635742 C-21.09804669 34.84768523 -24.43054957 38.18353057 -27.76176167 41.52070522 C-30.32404126 44.08658603 -32.88868243 46.65009567 -35.45406151 49.21287727 C-36.68485189 50.44299901 -37.91489555 51.67386832 -39.14418983 52.90548515 C-40.85324826 54.6170667 -42.56545036 56.3254381 -44.27856445 58.03295898 C-44.78918427 58.54560303 -45.29980408 59.05824707 -45.82589722 59.58642578 C-49.3232302 63.0625 -49.3232302 63.0625 -50.4375 63.0625 C-50.56278251 58.72502686 -50.65261224 54.38856142 -50.7121582 50.04980469 C-50.73702584 48.5795656 -50.77093362 47.10944642 -50.81469727 45.63964844 C-51.14132498 34.37291365 -49.77834767 25.41400961 -43.26171875 15.87890625 C-30.38521732 2.29619816 -18.20979105 -0.12914745 0 0 Z " fill="#26A5FD" transform="translate(50.4375,6.9375)"/>
<path d="M0 0 C1.22803402 0.00250415 1.22803402 0.00250415 2.4808768 0.00505888 C23.64637907 0.07241964 44.75701346 0.95566425 65.88800502 2.10161614 C78.155067 2.75945491 90.4169222 3.20176038 102.69775391 3.50341797 C104.00958693 3.53573296 104.00958693 3.53573296 105.34792162 3.56870078 C109.73888539 3.67577675 114.12992284 3.77938559 118.52100968 3.88127685 C154.49787527 4.72051112 190.42878329 6.15407374 226.3671875 8.0078125 C226.3671875 8.3378125 226.3671875 8.6678125 226.3671875 9.0078125 C225.79809361 8.97385504 225.22899972 8.93989758 224.64266056 8.9049111 C190.41035972 6.87522638 156.19588227 5.38707697 121.9142645 4.53878847 C117.7405146 4.43507199 113.56688416 4.32712578 109.39331055 4.21655273 C108.14771605 4.18365942 108.14771605 4.18365942 106.87695802 4.15010159 C95.28683774 3.83530452 83.72725185 3.29517194 72.15604527 2.5667433 C52.17571166 1.30919814 32.22967488 0.50944022 12.20703125 0.51171875 C11.03627419 0.51033467 11.03627419 0.51033467 9.84186548 0.50892264 C-37.64427134 0.52632739 -69.72672929 10.4730845 -103.73326111 44.45066833 C-121.80077844 62.82888163 -138.23819144 82.75147142 -153.44214338 103.54214424 C-153.83506419 104.02581477 -154.227985 104.50948529 -154.6328125 105.0078125 C-154.9628125 105.0078125 -155.2928125 105.0078125 -155.6328125 105.0078125 C-157.47095473 94.09559693 -155.07418571 87.38960179 -148.89049053 78.42940331 C-147.02150954 75.84402746 -145.10070051 73.30906774 -143.14892578 70.78564453 C-142.12297373 69.45743156 -142.12297373 69.45743156 -141.07629538 68.102386 C-100.6756352 16.63747297 -64.46145542 -0.17066477 0 0 Z " fill="#C8E1E9" transform="translate(179.6328125,24.9921875)"/>
<path d="M0 0 C3.09295138 1.61847176 3.91635432 2.79935299 5.2734375 6.0546875 C5.63695312 7.31539062 6.00046875 8.57609375 6.375 9.875 C6.57851074 10.56464844 6.78202148 11.25429687 6.99169922 11.96484375 C7.67748725 14.30550176 8.34020026 16.65188917 9 19 C9.7795873 21.74659227 10.5604049 24.49282912 11.34228516 27.23876953 C11.85224713 29.03779323 12.35737584 30.83819623 12.85693359 32.64013672 C13.97339207 36.62683343 15.15439937 40.52385556 16.6484375 44.38671875 C18.10651319 48.28475346 18.64581766 50.88291243 18 55 C14.69474941 57.92750767 12.27095551 58.1220273 8 58 C7.3291288 56.3767313 6.66342971 54.75132422 6 53.125 C5.62875 52.22007812 5.2575 51.31515625 4.875 50.3828125 C4 48 4 48 4 46 C-1.61 46 -7.22 46 -13 46 C-13.28875 47.60875 -13.5775 49.2175 -13.875 50.875 C-14.75 55.75 -14.75 55.75 -17 58 C-20.36698577 57.81634623 -23.03575743 57.54238644 -26 55.875 C-28.28932012 51.58252477 -25.64454956 45.59476232 -24.328125 41.2265625 C-23.64097985 39.02429814 -22.94801289 36.82384397 -22.25 34.625 C-19.25466682 25.18139896 -19.25466682 25.18139896 -16.53515625 15.65625 C-16.32407227 14.87942871 -16.11298828 14.10260742 -15.89550781 13.30224609 C-15.51938063 11.89759692 -15.15698899 10.48916308 -14.81152344 9.07666016 C-12.57539865 0.83976836 -7.76935183 -0.86326131 0 0 Z " fill="#535353" transform="translate(369,126)"/>
<path d="M0 0 C1.08154861 -0.0127597 2.16309723 -0.02551941 3.27742004 -0.03866577 C4.44617172 -0.04089142 5.6149234 -0.04311707 6.8190918 -0.04541016 C8.62255318 -0.05539536 8.62255318 -0.05539536 10.46244812 -0.06558228 C13.00864124 -0.07571615 15.55486095 -0.08039907 18.10107422 -0.08007812 C21.99255345 -0.08444376 25.88289201 -0.12073734 29.77416992 -0.15869141 C32.24747333 -0.16456088 34.72078214 -0.1685294 37.1940918 -0.17041016 C38.93811028 -0.19196671 38.93811028 -0.19196671 40.71736145 -0.21395874 C47.00737659 -0.17848311 50.95404782 -0.00129008 55.70581055 4.29052734 C57.8290728 6.9676841 57.70714639 8.25379161 57.58081055 11.72802734 C56.63226588 15.5899592 55.45167781 17.46145198 52.70581055 20.29052734 C50.12321588 21.58182468 48.21775312 21.44594593 45.32568359 21.48339844 C43.63834358 21.50749283 43.63834358 21.50749283 41.91691589 21.53207397 C36.77014964 21.5764421 31.62347254 21.61802836 26.4765625 21.640625 C23.75942276 21.65395946 21.04303495 21.68180117 18.32617188 21.72265625 C14.41497825 21.78146902 10.50415003 21.79928697 6.5925293 21.81396484 C5.37780441 21.83663422 4.16307953 21.85930359 2.9115448 21.88265991 C-6.46825107 21.85909332 -6.46825107 21.85909332 -9.53710938 18.8828125 C-12.34457413 14.74085602 -12.72298565 12.35032245 -12.29418945 7.29052734 C-8.98627727 2.15756017 -6.08969036 0.04875024 0 0 Z " fill="#FDC538" transform="translate(232.294189453125,82.70947265625)"/>
<path d="M0 0 C1.59251839 -0.01925285 1.59251839 -0.01925285 3.21720886 -0.03889465 C4.37440933 -0.04628159 5.5316098 -0.05366852 6.72387695 -0.0612793 C7.90681839 -0.06935104 9.08975983 -0.07742279 10.30854797 -0.08573914 C12.81961593 -0.09960227 15.33070292 -0.11031439 17.84179688 -0.11816406 C21.67850703 -0.13534734 25.5143493 -0.17921176 29.35083008 -0.22338867 C31.78767268 -0.2335176 34.22452264 -0.24203307 36.66137695 -0.2487793 C37.80845627 -0.26628738 38.95553558 -0.28379547 40.13737488 -0.30183411 C46.39339263 -0.28484717 50.32922591 -0.13636299 55.0246582 4.17700195 C57.48607067 7.86912065 57.71116027 10.89055 57.0246582 15.17700195 C54.85346736 18.74395834 52.86438969 20.63144495 49.0246582 22.17700195 C46.51377869 22.43096924 46.51377869 22.43096924 43.66113281 22.43579102 C42.58999741 22.44209534 41.518862 22.44839966 40.41526794 22.45489502 C38.68857628 22.44882233 38.68857628 22.44882233 36.92700195 22.44262695 C35.74119034 22.44454041 34.55537872 22.44645386 33.33363342 22.44842529 C30.82788887 22.4497859 28.32213724 22.44609818 25.81640625 22.43774414 C21.97355387 22.42703371 18.13116799 22.43764885 14.28833008 22.45043945 C11.85538633 22.44911802 9.42244288 22.44655597 6.98950195 22.44262695 C5.25977394 22.44869965 5.25977394 22.44869965 3.49510193 22.45489502 C2.42711868 22.4485907 1.35913544 22.44228638 0.25878906 22.43579102 C-0.68178848 22.43419983 -1.62236603 22.43260864 -2.59144592 22.43096924 C-4.9753418 22.17700195 -4.9753418 22.17700195 -7.9753418 20.17700195 C-9.19939804 14.06988265 -7.58282592 7.09066616 -5.9753418 1.17700195 C-4.30807598 -0.49026386 -2.29160045 0.02402483 0 0 Z " fill="#2CA8FD" transform="translate(207.975341796875,267.822998046875)"/>
<path d="M0 0 C1.0186338 -0.00287018 1.0186338 -0.00287018 2.05784607 -0.00579834 C3.4909604 -0.00715747 4.92408716 -0.00347996 6.35717773 0.00488281 C8.5541536 0.01560333 10.75031489 0.00497047 12.94726562 -0.0078125 C14.33984556 -0.00649118 15.73242498 -0.00392936 17.125 0 C18.3941626 0.00225586 19.6633252 0.00451172 20.97094727 0.00683594 C23.99609375 0.265625 23.99609375 0.265625 25.99609375 2.265625 C26.32361609 4.98017456 26.12693625 7.51793259 25.99609375 10.265625 C24.99609375 11.265625 24.99609375 11.265625 22.77124023 11.37915039 C21.81290283 11.37391357 20.85456543 11.36867676 19.8671875 11.36328125 C18.31547852 11.35844727 18.31547852 11.35844727 16.73242188 11.35351562 C15.64380859 11.34513672 14.55519531 11.33675781 13.43359375 11.328125 C11.79487305 11.32135742 11.79487305 11.32135742 10.12304688 11.31445312 C7.41403943 11.3026234 4.70505995 11.28468731 1.99609375 11.265625 C1.99609375 15.555625 1.99609375 19.845625 1.99609375 24.265625 C5.15171875 24.20375 5.15171875 24.20375 8.37109375 24.140625 C11.95703125 24.0703125 11.95703125 24.0703125 14.99609375 24.265625 C16.99609375 26.265625 16.99609375 26.265625 17.24609375 29.265625 C16.99609375 32.265625 16.99609375 32.265625 14.99609375 34.265625 C10.65214304 34.54479921 6.35258408 34.35104638 1.99609375 34.265625 C1.99609375 38.555625 1.99609375 42.845625 1.99609375 47.265625 C3.63320313 47.23082031 5.2703125 47.19601563 6.95703125 47.16015625 C9.09504186 47.13202453 11.23306352 47.10472372 13.37109375 47.078125 C14.99144531 47.04041992 14.99144531 47.04041992 16.64453125 47.00195312 C17.67578125 46.99228516 18.70703125 46.98261719 19.76953125 46.97265625 C20.72263184 46.9569458 21.67573242 46.94123535 22.65771484 46.92504883 C23.42937988 47.03743896 24.20104492 47.1498291 24.99609375 47.265625 C26.99609375 50.265625 26.99609375 50.265625 26.74609375 53.890625 C26.49859375 55.004375 26.25109375 56.118125 25.99609375 57.265625 C21.49178522 59.51777926 15.29753164 58.45146947 10.28320312 58.45092773 C8.00501898 58.45311643 5.72731732 58.47128304 3.44921875 58.49023438 C2.00651208 58.49316793 0.5638031 58.49515298 -0.87890625 58.49609375 C-2.19632812 58.50020264 -3.51375 58.50431152 -4.87109375 58.50854492 C-8.00390625 58.265625 -8.00390625 58.265625 -10.00390625 56.265625 C-10.26460266 53.98852539 -10.26460266 53.98852539 -10.27856445 51.11328125 C-10.28809647 50.03876709 -10.29762848 48.96425293 -10.30744934 47.85717773 C-10.30653793 46.69259033 -10.30562653 45.52800293 -10.3046875 44.328125 C-10.30897263 43.13711182 -10.31325775 41.94609863 -10.31767273 40.71899414 C-10.323424 38.19710934 -10.32391046 35.67520795 -10.31958008 33.15332031 C-10.3164193 29.2816152 -10.33987341 25.41067308 -10.36523438 21.5390625 C-10.36750708 19.09375097 -10.368211 16.64843737 -10.3671875 14.203125 C-10.37639725 13.0385376 -10.38560699 11.8739502 -10.39509583 10.67407227 C-10.38886703 9.59955811 -10.38263824 8.52504395 -10.3762207 7.41796875 C-10.37685013 6.46913818 -10.37747955 5.52030762 -10.37812805 4.54272461 C-10.25463486 3.79128174 -10.13114166 3.03983887 -10.00390625 2.265625 C-6.30691481 -0.19903596 -4.40969694 0.00783101 0 0 Z " fill="#505051" transform="translate(440.00390625,125.734375)"/>
<path d="M0 0 C1.4282618 0.00031703 2.85654759 0.01163717 4.28466797 0.03173828 C5.41242142 0.03598312 5.41242142 0.03598312 6.56295776 0.04031372 C8.96775125 0.05152204 11.37217428 0.07662726 13.77685547 0.10205078 C15.40575635 0.11207976 17.03466305 0.12120576 18.66357422 0.12939453 C22.65981103 0.15146343 26.65577041 0.18599728 30.65185547 0.22705078 C31.90185547 6.85205078 31.90185547 6.85205078 29.65185547 10.22705078 C27.31347656 10.56762695 27.31347656 10.56762695 24.42529297 10.52001953 C23.39404297 10.51035156 22.36279297 10.50068359 21.30029297 10.49072266 C20.22005859 10.46558594 19.13982422 10.44044922 18.02685547 10.41455078 C16.93888672 10.40101563 15.85091797 10.38748047 14.72998047 10.37353516 C12.03706256 10.33810203 9.34439806 10.28429381 6.65185547 10.22705078 C6.65185547 14.51705078 6.65185547 18.80705078 6.65185547 23.22705078 C8.73498047 23.16517578 10.81810547 23.10330078 12.96435547 23.03955078 C19.10838945 22.85705472 19.10838945 22.85705472 21.58544922 24.54345703 C22.65185547 26.22705078 22.65185547 26.22705078 22.40185547 29.35205078 C21.65185547 32.22705078 21.65185547 32.22705078 20.65185547 33.22705078 C18.29871992 33.2997682 15.94351878 33.31075946 13.58935547 33.28955078 C12.29900391 33.28052734 11.00865234 33.27150391 9.67919922 33.26220703 C8.68017578 33.25060547 7.68115234 33.23900391 6.65185547 33.22705078 C6.65185547 37.51705078 6.65185547 41.80705078 6.65185547 46.22705078 C8.28896484 46.19224609 9.92607422 46.15744141 11.61279297 46.12158203 C13.75080358 46.09345031 15.88882524 46.0661495 18.02685547 46.03955078 C19.64720703 46.0018457 19.64720703 46.0018457 21.30029297 45.96337891 C22.33154297 45.95371094 23.36279297 45.94404297 24.42529297 45.93408203 C25.37839355 45.91837158 26.33149414 45.90266113 27.31347656 45.88647461 C28.0851416 45.99886475 28.85680664 46.11125488 29.65185547 46.22705078 C31.65185547 49.22705078 31.65185547 49.22705078 31.33935547 52.85205078 C30.65185547 56.22705078 30.65185547 56.22705078 29.65185547 57.22705078 C25.12771221 57.44586603 20.59823781 57.41284144 16.06933594 57.41235352 C13.7932655 57.41453505 11.51768348 57.43267307 9.24169922 57.45166016 C7.79769046 57.45459501 6.3536794 57.45657919 4.90966797 57.45751953 C3.59111816 57.46162842 2.27256836 57.4657373 0.9140625 57.4699707 C-2.34814453 57.22705078 -2.34814453 57.22705078 -5.34814453 55.22705078 C-5.72236633 52.98791504 -5.72236633 52.98791504 -5.72045898 50.16650391 C-5.72668777 49.1120105 -5.73291656 48.05751709 -5.73933411 46.97106934 C-5.73012436 45.82835571 -5.72091461 44.68564209 -5.71142578 43.50830078 C-5.71192429 42.33948364 -5.71242279 41.1706665 -5.7129364 39.96643066 C-5.71059258 37.49160057 -5.70084606 35.01676825 -5.68432617 32.54199219 C-5.66074221 28.74278564 -5.66376206 24.9442806 -5.67041016 21.14501953 C-5.6648335 18.74527574 -5.6577237 16.34553492 -5.64892578 13.94580078 C-5.64983719 12.80308716 -5.6507486 11.66037354 -5.65168762 10.48303223 C-5.64215561 9.42853882 -5.6326236 8.37404541 -5.62280273 7.28759766 C-5.61819534 6.35653198 -5.61358795 5.42546631 -5.60884094 4.46618652 C-5.15475076 0.5659811 -3.75517239 0.25465293 0 0 Z " fill="#5B5B5B" transform="translate(95.34814453125,126.77294921875)"/>
<path d="M0 0 C4.98372412 1.88693341 8.28883304 5.85891608 10.62890625 10.5390625 C11.07838689 16.71942133 11.07838689 16.71942133 9.56640625 19.4765625 C6.55005914 21.13068834 3.99224017 20.84482013 0.62890625 20.5390625 C-1.37109375 18.5390625 -1.37109375 18.5390625 -2.30859375 15.5390625 C-3.1303645 12.26684498 -3.1303645 12.26684498 -6.37109375 10.5390625 C-9.41304802 10.20565779 -9.41304802 10.20565779 -12.37109375 10.5390625 C-14.68114216 12.41799478 -14.68114216 12.41799478 -14.61401367 15.48828125 C-14.60990479 16.72191406 -14.6057959 17.95554688 -14.6015625 19.2265625 C-14.60110428 19.88487061 -14.60064606 20.54317871 -14.60017395 21.22143555 C-14.59715256 22.61346234 -14.58926956 24.00548578 -14.5769043 25.39746094 C-14.55866507 27.53072053 -14.55639451 29.66354563 -14.55664062 31.796875 C-14.91578441 38.36648556 -14.91578441 38.36648556 -13.37109375 44.5390625 C-10.40109375 44.5390625 -7.43109375 44.5390625 -4.37109375 44.5390625 C-3.91734375 43.2603125 -3.46359375 41.9815625 -2.99609375 40.6640625 C-2.02203335 37.9189832 -1.46892162 36.63689037 0.62890625 34.5390625 C6.63349341 33.99319094 6.63349341 33.99319094 9.56640625 35.6015625 C11.31560305 38.79127432 11.0997584 40.94881488 10.62890625 44.5390625 C8.46580167 49.90676645 5.3628425 53.63433114 0.00390625 55.91796875 C-5.92012415 57.46718065 -12.53649805 57.54445475 -18.30859375 55.3515625 C-23.98743828 51.99061369 -26.65097484 48.88289144 -28.37109375 42.5390625 C-28.74657286 38.26364907 -28.74273144 33.99942955 -28.74169922 29.70849609 C-28.7460683 27.67590218 -28.78243301 25.64549148 -28.8203125 23.61328125 C-28.84258758 16.12142958 -28.57451515 10.83652413 -24.37109375 4.5390625 C-17.55667294 -1.78861397 -8.88083802 -1.72642321 0 0 Z " fill="#5E5E5E" transform="translate(73.37109375,127.4609375)"/>
<path d="M0 0 C0.70382812 -0.020625 1.40765625 -0.04125 2.1328125 -0.0625 C7.6058051 -0.10319139 11.75246675 0.91857347 15.89453125 4.78515625 C19.63363444 9.67475273 20.68857373 12.0003244 20.25 18.25 C19.1875 20.1875 19.1875 20.1875 17.25 21.25 C11.28045685 21.88959391 11.28045685 21.88959391 8.4375 20.125 C6.86897864 17.64838733 6.15574619 15.02762165 5.25 12.25 C2.42116253 10.83558126 0.37623255 10.93099668 -2.75 11.25 C-5.00715958 13.47975003 -5.69865767 14.86700306 -6.12231445 18.02734375 C-6.1193335 19.07019531 -6.11635254 20.11304688 -6.11328125 21.1875 C-6.11263672 22.32960937 -6.11199219 23.47171875 -6.11132812 24.6484375 C-6.09521484 25.83695313 -6.07910156 27.02546875 -6.0625 28.25 C-6.06572266 29.43851563 -6.06894531 30.62703125 -6.07226562 31.8515625 C-6.09571083 38.78948275 -6.09571083 38.78948275 -3.75 45.25 C-0.78 45.25 2.19 45.25 5.25 45.25 C5.70375 43.97125 6.1575 42.6925 6.625 41.375 C7.5990604 38.6299207 8.15217213 37.34782787 10.25 35.25 C16.46908127 34.68462898 16.46908127 34.68462898 18.9765625 36.5 C21.04383173 39.34090986 20.33161198 41.63778144 19.8125 44.96875 C18.60037531 49.88458903 16.12628687 53.01232477 11.875 55.625 C5.40111315 58.49824192 -2.60317619 58.63440118 -9.2890625 56.40234375 C-14.33102625 53.61698924 -17.06382536 49.77469563 -18.75 44.25 C-19.24862219 39.77069999 -19.32649401 35.3404624 -19.27148438 30.84130859 C-19.25003802 28.75370138 -19.27135181 26.66953378 -19.296875 24.58203125 C-19.3124841 17.16355539 -18.94690446 11.51461014 -14.75 5.25 C-9.83986149 0.69058567 -6.53048435 0.04681351 0 0 Z " fill="#555555" transform="translate(319.75,126.75)"/>
<path d="M0 0 C1.43352212 0.00015908 2.86704998 0.00585132 4.30053711 0.01586914 C5.43041298 0.01799156 5.43041298 0.01799156 6.58311462 0.02015686 C8.99807646 0.02577163 11.41294687 0.03832656 13.82788086 0.05102539 C15.46134307 0.05603849 17.09480672 0.06060173 18.72827148 0.06469727 C22.74067671 0.07574585 26.75301326 0.09302033 30.76538086 0.11352539 C32.01538086 6.73852539 32.01538086 6.73852539 29.76538086 10.11352539 C27.51879883 10.45410156 27.51879883 10.45410156 24.75756836 10.40649414 C23.77143555 10.39682617 22.78530273 10.3871582 21.76928711 10.37719727 C20.73674805 10.35206055 19.70420898 10.32692383 18.64038086 10.30102539 C17.0799707 10.28072266 17.0799707 10.28072266 15.48803711 10.26000977 C12.91359907 10.22458172 10.33942612 10.17077351 7.76538086 10.11352539 C7.76538086 14.40352539 7.76538086 18.69352539 7.76538086 23.11352539 C10.92100586 23.05165039 10.92100586 23.05165039 14.14038086 22.98852539 C17.72631836 22.91821289 17.72631836 22.91821289 20.76538086 23.11352539 C22.76538086 25.11352539 22.76538086 25.11352539 23.01538086 28.11352539 C22.76538086 31.11352539 22.76538086 31.11352539 20.76538086 33.11352539 C17.72631836 33.30883789 17.72631836 33.30883789 14.14038086 33.23852539 C12.35760742 33.21145508 12.35760742 33.21145508 10.53881836 33.18383789 C9.1659668 33.1490332 9.1659668 33.1490332 7.76538086 33.11352539 C7.78894653 34.09748291 7.78894653 34.09748291 7.81298828 35.10131836 C7.87521738 38.06363355 7.91433254 41.02581149 7.95288086 43.98852539 C7.99058594 45.53733398 7.99058594 45.53733398 8.02905273 47.11743164 C8.04355469 48.59663086 8.04355469 48.59663086 8.05834961 50.10571289 C8.08191528 51.47252197 8.08191528 51.47252197 8.10595703 52.86694336 C7.99356689 53.60831543 7.88117676 54.3496875 7.76538086 55.11352539 C4.29539357 57.42685025 2.84028838 57.45310102 -1.23461914 57.11352539 C-2.22461914 56.45352539 -3.21461914 55.79352539 -4.23461914 55.11352539 C-4.60211182 52.82969666 -4.60211182 52.82969666 -4.59106445 49.9453125 C-4.59406555 48.86757065 -4.59706665 47.7898288 -4.60015869 46.6794281 C-4.58781189 45.51170364 -4.57546509 44.34397919 -4.56274414 43.14086914 C-4.56087097 41.94748428 -4.5589978 40.75409943 -4.55706787 39.52455139 C-4.55033611 36.99843559 -4.53639954 34.47233041 -4.51586914 31.94628906 C-4.48472151 28.0637858 -4.47490113 24.18168804 -4.46899414 20.29907227 C-4.45982447 17.85049957 -4.44944881 15.40193103 -4.43774414 12.95336914 C-4.43136932 11.19874611 -4.43136932 11.19874611 -4.42486572 9.40867615 C-4.41525818 8.33408646 -4.40565063 7.25949677 -4.39575195 6.15234375 C-4.38892395 5.20129257 -4.38209595 4.25024139 -4.37506104 3.27037048 C-4.14660325 -0.23818405 -3.6204479 0.12706682 0 0 Z " fill="#575757" transform="translate(245.234619140625,126.886474609375)"/>
<path d="M0 0 C12.87 0 25.74 0 39 0 C40.39935013 2.79870027 40.25265405 4.90498792 40 8 C38.83984375 9.6796875 38.83984375 9.6796875 37 11 C34.30078125 11.29296875 34.30078125 11.29296875 31.3125 11.1875 C30.31863281 11.16042969 29.32476562 11.13335937 28.30078125 11.10546875 C27.54152344 11.07066406 26.78226563 11.03585938 26 11 C26.02094727 12.28688721 26.04189453 13.57377441 26.06347656 14.8996582 C26.13580959 19.66858823 26.18177544 24.43746967 26.21972656 29.20678711 C26.23985731 31.27197418 26.26716445 33.33710416 26.30175781 35.40209961 C26.35021162 38.36847001 26.37295385 41.33408772 26.390625 44.30078125 C26.41127014 45.2258699 26.43191528 46.15095856 26.45318604 47.1040802 C26.45542509 53.48252112 26.45542509 53.48252112 24.16699219 56.08276367 C21.23995903 57.32170729 19.14517051 57.40151113 16 57 C13.94177633 55.44553962 13.10301335 54.56914626 12.63923645 52.00679016 C12.64589828 51.24956161 12.65256012 50.49233307 12.65942383 49.7121582 C12.65965042 48.85149246 12.65987701 47.99082672 12.66011047 47.1040802 C12.68333626 45.71644722 12.68333626 45.71644722 12.70703125 44.30078125 C12.71127609 43.35059616 12.71552094 42.40041107 12.71989441 41.4214325 C12.73669516 38.38483412 12.77435008 35.34889798 12.8125 32.3125 C12.82754503 30.25456687 12.84123375 28.19662335 12.85351562 26.13867188 C12.88660329 21.09219252 12.93839538 16.04620856 13 11 C11.86111328 11.05220703 11.86111328 11.05220703 10.69921875 11.10546875 C9.70535156 11.13253906 8.71148437 11.15960938 7.6875 11.1875 C6.70136719 11.22230469 5.71523437 11.25710937 4.69921875 11.29296875 C2 11 2 11 0.16015625 9.6796875 C-1.59743187 7.1350313 -1.25593529 5.00723966 -1 2 C-0.67 1.34 -0.34 0.68 0 0 Z " fill="#5F5F5F" transform="translate(175,127)"/>
<path d="M0 0 C0.76772232 0.00091141 1.53544464 0.00182281 2.32643127 0.00276184 C3.11554398 -0.00152328 3.90465668 -0.00580841 4.71768188 -0.01022339 C6.38795512 -0.01597053 8.05825338 -0.01646412 9.72853088 -0.01213074 C12.28568724 -0.00897345 14.84168392 -0.03241442 17.3986969 -0.05778503 C19.02044023 -0.06005825 20.64218667 -0.06076142 22.26393127 -0.05973816 C23.02962936 -0.06894791 23.79532745 -0.07815765 24.58422852 -0.08764648 C29.82268374 -0.04195144 29.82268374 -0.04195144 32.38331604 1.59968567 C34.05779251 4.51612473 33.06068594 7.15760024 32.36158752 10.30354309 C31.36158752 11.30354309 31.36158752 11.30354309 28.42018127 11.40119934 C26.62773987 11.383797 26.62773987 11.383797 24.79908752 11.36604309 C23.00277893 11.35250793 23.00277893 11.35250793 21.17018127 11.33869934 C20.24334534 11.32709778 19.3165094 11.31549622 18.36158752 11.30354309 C18.36824936 11.8628653 18.37491119 12.4221875 18.3817749 12.99845886 C18.44800439 18.80549893 18.49333623 24.61243223 18.52638245 30.41975403 C18.54149453 32.58874365 18.56198488 34.75770259 18.58790588 36.92658997 C18.62418286 40.03929705 18.64128942 43.15160114 18.65455627 46.26448059 C18.67004013 47.23847809 18.68552399 48.21247559 18.70147705 49.21598816 C18.70170364 50.11677094 18.70193024 51.01755371 18.7021637 51.94563293 C18.70882553 52.74061188 18.71548737 53.53559082 18.72235107 54.35466003 C18.54377312 55.31935715 18.54377312 55.31935715 18.36158752 56.30354309 C14.89160023 58.61686795 13.43649504 58.64311872 9.36158752 58.30354309 C8.37158752 57.64354309 7.38158752 56.98354309 6.36158752 56.30354309 C6.00082397 54.35466003 6.00082397 54.35466003 6.02101135 51.94563293 C6.02123795 51.04485016 6.02146454 50.14406738 6.021698 49.21598816 C6.03718185 48.24199066 6.05266571 47.26799316 6.06861877 46.26448059 C6.07286362 45.26848846 6.07710846 44.27249634 6.08148193 43.24632263 C6.09831072 40.05679084 6.13597077 36.86788476 6.17408752 33.67854309 C6.18912892 31.51969803 6.20281827 29.3608431 6.21510315 27.20198059 C6.24822786 21.90228697 6.29846856 16.60295972 6.36158752 11.30354309 C4.97133362 11.32094543 4.97133362 11.32094543 3.55299377 11.33869934 C2.35545471 11.34772278 1.15791565 11.35674622 -0.07591248 11.36604309 C-1.27087341 11.37764465 -2.46583435 11.38924622 -3.69700623 11.40119934 C-6.63841248 11.30354309 -6.63841248 11.30354309 -7.63841248 10.30354309 C-7.91156062 4.56743198 -7.91156062 4.56743198 -7.63841248 2.30354309 C-5.10146844 -0.23340094 -3.46209806 0.04642026 0 0 Z " fill="#535454" transform="translate(391.63841247558594,125.69645690917969)"/>
<path d="M0 0 C0.80308594 0.01417969 1.60617188 0.02835937 2.43359375 0.04296875 C3.64208984 0.05263672 3.64208984 0.05263672 4.875 0.0625 C6.87109375 0.23046875 6.87109375 0.23046875 7.87109375 1.23046875 C7.98028514 2.90738223 8.0201621 4.58886572 8.03222656 6.26928711 C8.04183411 7.3438768 8.05144165 8.41846649 8.06134033 9.52561951 C8.06559021 10.69536819 8.06984009 11.86511688 8.07421875 13.0703125 C8.07991882 14.26274063 8.0856189 15.45516876 8.0914917 16.68373108 C8.10095829 19.21158964 8.10748223 21.73946063 8.11132812 24.26733398 C8.12104336 28.14784085 8.15205594 32.02782051 8.18359375 35.90820312 C8.19012232 38.35806975 8.19537336 40.80794019 8.19921875 43.2578125 C8.21156555 44.42553696 8.22391235 45.59326141 8.2366333 46.79637146 C8.2336322 47.87411331 8.2306311 48.95185516 8.22753906 50.06225586 C8.23118469 51.01410263 8.23483032 51.9659494 8.23858643 52.94664001 C8.05667755 54.07713524 8.05667755 54.07713524 7.87109375 55.23046875 C4.40110646 57.54379361 2.94600127 57.57004438 -1.12890625 57.23046875 C-2.11890625 56.57046875 -3.10890625 55.91046875 -4.12890625 55.23046875 C-4.50312805 52.99133301 -4.50312805 52.99133301 -4.5012207 50.16992188 C-4.50744949 49.11542847 -4.51367828 48.06093506 -4.52009583 46.9744873 C-4.51088608 45.83177368 -4.50167633 44.68906006 -4.4921875 43.51171875 C-4.492686 42.34290161 -4.49318451 41.17408447 -4.49369812 39.96984863 C-4.4913543 37.49501854 -4.48160778 35.02018622 -4.46508789 32.54541016 C-4.44150393 28.74620361 -4.44452378 24.94769857 -4.45117188 21.1484375 C-4.44559522 18.74869371 -4.43848542 16.34895289 -4.4296875 13.94921875 C-4.43059891 12.80650513 -4.43151031 11.6637915 -4.43244934 10.4864502 C-4.42291733 9.43195679 -4.41338531 8.37746338 -4.40356445 7.29101562 C-4.39895706 6.35994995 -4.39434967 5.42888428 -4.38960266 4.46960449 C-4.03053363 1.38554093 -3.11569021 0.3372949 0 0 Z " fill="#565656" transform="translate(224.12890625,126.76953125)"/>
<path d="M0 0 C0.80308594 0.01417969 1.60617187 0.02835937 2.43359375 0.04296875 C3.64208984 0.05263672 3.64208984 0.05263672 4.875 0.0625 C6.87109375 0.23046875 6.87109375 0.23046875 7.87109375 1.23046875 C7.98028514 2.90738223 8.0201621 4.58886572 8.03222656 6.26928711 C8.04183411 7.3438768 8.05144165 8.41846649 8.06134033 9.52561951 C8.06559021 10.69536819 8.06984009 11.86511688 8.07421875 13.0703125 C8.07991882 14.26274063 8.0856189 15.45516876 8.0914917 16.68373108 C8.10095829 19.21158964 8.10748223 21.73946063 8.11132812 24.26733398 C8.12104336 28.14784085 8.15205594 32.02782051 8.18359375 35.90820312 C8.19012232 38.35806975 8.19537336 40.80794019 8.19921875 43.2578125 C8.21156555 44.42553696 8.22391235 45.59326141 8.2366333 46.79637146 C8.2336322 47.87411331 8.2306311 48.95185516 8.22753906 50.06225586 C8.23118469 51.01410263 8.23483032 51.9659494 8.23858643 52.94664001 C8.05667755 54.07713524 8.05667755 54.07713524 7.87109375 55.23046875 C4.40185494 57.54329462 2.949038 57.65525461 -1.12890625 57.23046875 C-2.7931366 56.02857971 -2.7931366 56.02857971 -4.12890625 54.23046875 C-4.50312805 51.90904236 -4.50312805 51.90904236 -4.5012207 49.14819336 C-4.50744949 48.11379623 -4.51367828 47.07939911 -4.52009583 46.01365662 C-4.51088608 44.89797806 -4.50167633 43.7822995 -4.4921875 42.6328125 C-4.49293526 40.91500328 -4.49293526 40.91500328 -4.49369812 39.16249084 C-4.49135657 36.74071518 -4.48162334 34.31893714 -4.46508789 31.8972168 C-4.44147824 28.17930477 -4.44452869 24.46210862 -4.45117188 20.74414062 C-4.44559593 18.39452695 -4.43848658 16.04491631 -4.4296875 13.6953125 C-4.43059891 12.57760971 -4.43151031 11.45990692 -4.43244934 10.30833435 C-4.42291733 9.27708939 -4.41338531 8.24584442 -4.40356445 7.18334961 C-4.39895706 6.27306503 -4.39434967 5.36278046 -4.38960266 4.4249115 C-4.02596794 1.36397342 -3.08416315 0.33388188 0 0 Z " fill="#555555" transform="translate(285.12890625,126.76953125)"/>
<path d="M0 0 C1.22797241 0.0031818 1.22797241 0.0031818 2.48075235 0.00642788 C23.64653478 0.08108146 44.75655156 0.95566053 65.88800406 2.10162663 C78.15506718 2.75944359 90.41692204 3.20176038 102.69775391 3.50341797 C104.00958693 3.53573296 104.00958693 3.53573296 105.34792162 3.56870078 C109.73888539 3.67577675 114.12992284 3.77938559 118.52100968 3.88127685 C154.49787527 4.72051112 190.42878329 6.15407374 226.3671875 8.0078125 C226.3671875 8.3378125 226.3671875 8.6678125 226.3671875 9.0078125 C225.77064102 8.97803196 225.17409454 8.94825142 224.55947089 8.91756845 C188.76456301 7.14193449 152.98016958 5.83798014 117.1485409 5.1005071 C112.79540679 5.01052653 108.44236037 4.9168198 104.08935547 4.82080078 C103.22317696 4.80175732 102.35699845 4.78271386 101.4645721 4.76309332 C89.34569046 4.48895007 77.24935021 4.01531365 65.14435488 3.37782091 C44.27774054 2.27913013 23.43669877 1.57574279 2.5390625 1.5859375 C1.32253168 1.58518986 1.32253168 1.58518986 0.08142447 1.58442712 C-45.06196978 1.61615719 -78.42232877 7.78562852 -111.17254639 40.4664917 C-127.30823211 56.91128632 -141.63827784 75.00621076 -154.6328125 94.0078125 C-155.42775428 91.73535765 -155.84327669 90.51881576 -154.90854847 88.24931252 C-154.50440972 87.65495994 -154.10027096 87.06060736 -153.68388557 86.44824409 C-153.21989038 85.76017673 -152.75589519 85.07210937 -152.27783954 84.36319149 C-151.7507817 83.61887815 -151.22372387 82.87456482 -150.68069458 82.10769653 C-150.12653087 81.31568254 -149.57236716 80.52366854 -149.0014106 79.70765412 C-107.9014073 22.04751917 -70.04722854 -0.24777438 0 0 Z " fill="#B4D7ED" transform="translate(179.6328125,24.9921875)"/>
<path d="M0 0 C3.61495571 1.75226937 6.10450152 3.40852919 8 7 C8.56920689 11.3910246 8.29015343 13.47772383 6.125 17.375 C4 20 4 20 2 21 C-1.4308452 21.29259649 -4.87062655 21.27791989 -8.3125 21.3125 C-9.26318359 21.34150391 -10.21386719 21.37050781 -11.19335938 21.40039062 C-15.63741318 21.44076288 -18.24401499 21.4611984 -22.10546875 19.10546875 C-25.22232614 15.64157982 -25.56238797 12.89545294 -25.4296875 8.33203125 C-24.78136478 4.81340702 -23.59182643 3.1566271 -20.734375 1.03125 C-14.46545069 -1.33303003 -6.56441556 -1.11848382 0 0 Z " fill="#29A7FD" transform="translate(306,268)"/>
<path d="M0 0 C29.04 0 58.08 0 88 0 C86.68 0.66 85.36 1.32 84 2 C82.23823074 3.78145583 80.57638928 5.57032595 78.921875 7.4453125 C77.9163506 8.53466856 76.90845581 9.6218405 75.8984375 10.70703125 C74.32278665 12.40527614 72.76344661 14.10957339 71.24121094 15.85595703 C62.30712542 26.05012692 62.30712542 26.05012692 55.63476562 26.74121094 C51.70167108 26.85961407 47.8947665 26.53280406 44 26 C48.50169258 20.59087962 53.29287906 15.61577206 58.3125 10.6875 C59.7483765 9.27705975 61.18208559 7.8644085 62.61328125 6.44921875 C63.24016846 5.83393311 63.86705566 5.21864746 64.51293945 4.5847168 C66.09303784 3.05219373 66.09303784 3.05219373 67 1 C44.89 1 22.78 1 0 1 C0 0.67 0 0.34 0 0 Z " fill="#204DA9" transform="translate(63,7)"/>
<path d="M0 0 C0 11.22 0 22.44 0 34 C-0.33 34 -0.66 34 -1 34 C-1.33 28.72 -1.66 23.44 -2 18 C-3.50433594 19.5159375 -5.00867188 21.031875 -6.55859375 22.59375 C-8.01087505 24.05382114 -9.46401212 25.51303538 -10.91723633 26.97216797 C-11.9298551 27.98982788 -12.94157623 29.00838179 -13.95239258 30.02783203 C-15.4021294 31.48964407 -16.85502208 32.94825242 -18.30859375 34.40625 C-19.62041626 35.72592773 -19.62041626 35.72592773 -20.95874023 37.07226562 C-23 39 -23 39 -24 39 C-25.83776212 25.01203039 -25.83776212 25.01203039 -21.85986328 19.5234375 C-19.02673176 16.2277061 -15.81914329 13.36668615 -12.5625 10.5 C-11.45930578 9.46866507 -10.35965869 8.43352218 -9.26367188 7.39453125 C-1.38262253 0 -1.38262253 0 0 0 Z " fill="#204EA9" transform="translate(24,116)"/>
<path d="M0 0 C0.66 0 1.32 0 2 0 C3.51740976 1.69903023 4.965128 3.46072723 6.375 5.25 C7.90098672 7.17917385 9.44210676 9.09649905 11 11 C11.5633971 11.70698154 12.1267942 12.41396309 12.70726395 13.14236832 C15.86486361 15.70073397 17.93628535 15.50714453 21.97283936 15.51898193 C22.67454451 15.52648319 23.37624966 15.53398444 24.09921861 15.541713 C26.45023516 15.56201114 28.80028923 15.55388391 31.15136719 15.54589844 C32.83667455 15.55463235 34.52197362 15.56511749 36.20726013 15.57722473 C40.78338936 15.60512782 45.3592486 15.60848847 49.93545055 15.60750484 C54.71746584 15.61063025 59.49935885 15.63624068 64.28131104 15.65948486 C73.33703902 15.70007697 82.39269495 15.72039311 91.44849992 15.73345876 C101.75801386 15.74931793 112.06740497 15.78772898 122.37684774 15.82805204 C143.58452467 15.91049493 164.79219588 15.96455961 186 16 C186 16.33 186 16.66 186 17 C130.89 17 75.78 17 19 17 C21.475 20.465 21.475 20.465 24 24 C17.12181163 22.94181717 12.31974811 21.67085875 8 16 C4.9894336 10.84136855 2.48162956 5.42735607 0 0 Z " fill="#B5DFFE" transform="translate(153,223)"/>
<path d="M0 0 C1.23110723 1.84666084 2.42730755 3.71787668 3.5625 5.625 C5.51745236 8.59417577 7.88141656 10.91232824 10.4375 13.375 C19.57107497 22.38799972 19.57107497 22.38799972 20.296875 28.5 C20.31058701 30.69392118 20.2271852 32.81902212 20 35 C13.9204487 33.90568077 9.75324127 29.40301709 6.21875 24.55859375 C1.13314102 16.39419697 -0.34498468 9.52541028 0 0 Z " fill="#2968BE" transform="translate(0,324)"/>
<path d="M0 0 C5.77418839 -0.51555253 9.32905733 -0.01201472 14.125 3.33203125 C19.15598708 7.80751351 21.97826168 13.93439695 25.0625 19.8125 C29.01985077 27.14433593 33.32506754 29.39832798 41 32 C41 34.97 41 37.94 41 41 C32.85911017 34.08792373 32.85911017 34.08792373 31 32 C31 31.34 31 30.68 31 30 C30.01 29.67 29.02 29.34 28 29 C26.52075195 27.49951172 26.52075195 27.49951172 24.92578125 25.5546875 C20.61189867 20.47059028 15.92334363 15.81352159 11.1875 11.125 C10.32962891 10.27164062 9.47175781 9.41828125 8.58789062 8.5390625 C7.01311592 6.97296083 5.43731089 5.40789395 3.86010742 3.84423828 C2.57055809 2.56569049 1.28406034 1.28406034 0 0 Z " fill="#BC3A36" transform="translate(40,394)"/>
<path d="M0 0 C10.30373832 -0.36799065 10.30373832 -0.36799065 13.328125 1.23046875 C15.41177106 3.43582311 15.53998742 4.50094371 15.5 7.5 C15.5103125 8.2734375 15.520625 9.046875 15.53125 9.84375 C15 12 15 12 13.328125 13.76953125 C9.08284973 16.01325895 4.70980649 15.16820737 0 15 C0 10.05 0 5.1 0 0 Z " fill="#EFF1F3" transform="translate(144,137)"/>
<path d="M0 0 C6.6 0 13.2 0 20 0 C18.02 0.99 18.02 0.99 16 2 C14.12418751 3.77928697 12.34137343 5.56793427 10.5703125 7.4453125 C9.51752113 8.53312731 8.46411675 9.62034914 7.41015625 10.70703125 C5.76214525 12.41700864 4.11924046 14.13108572 2.48681641 15.85595703 C0.90316569 17.52438664 -0.69888693 19.1732288 -2.3046875 20.8203125 C-2.78614227 21.33900909 -3.26759705 21.85770569 -3.76364136 22.39212036 C-6.34195576 25.00856613 -7.64195959 25.96546184 -11.35595703 26.32373047 C-12.6647583 26.16348389 -12.6647583 26.16348389 -14 26 C-9.32533663 20.37696243 -4.32234333 15.20258446 0.875 10.0625 C1.65875 9.28326172 2.4425 8.50402344 3.25 7.70117188 C5.16438581 5.79845915 7.08108034 3.89813829 9 2 C6.03 1.67 3.06 1.34 0 1 C0 0.67 0 0.34 0 0 Z " fill="#2262C1" transform="translate(131,7)"/>
<path d="M0 0 C0.33 0 0.66 0 1 0 C1 8.91 1 17.82 1 27 C0.67 27 0.34 27 0 27 C-0.33 21.72 -0.66 16.44 -1 11 C-2.50433594 12.5159375 -4.00867188 14.031875 -5.55859375 15.59375 C-7.01087505 17.05382114 -8.46401212 18.51303538 -9.91723633 19.97216797 C-10.9298551 20.98982788 -11.94157623 22.00838179 -12.95239258 23.02783203 C-14.4021294 24.48964407 -15.85502208 25.94825242 -17.30859375 27.40625 C-18.18314209 28.28603516 -19.05769043 29.16582031 -19.95874023 30.07226562 C-22 32 -22 32 -23 32 C-23.43127854 28.14141469 -23.38633739 26.50849476 -20.99633789 23.36279297 C-20.08102295 22.49799316 -19.16570801 21.63319336 -18.22265625 20.7421875 C-17.73671494 20.27185089 -17.25077362 19.80151428 -16.75010681 19.31692505 C-15.201178 17.82125867 -13.63369622 16.34722892 -12.0625 14.875 C-10.4976443 13.39316371 -8.93746039 11.90710007 -7.38560486 10.41165161 C-5.97770509 9.05717327 -4.5557056 7.71739641 -3.13305664 6.37841797 C-1.09617102 4.10723339 -0.34054415 2.97664001 0 0 Z " fill="#2464C2" transform="translate(23,123)"/>
<path d="M0 0 C8.81426911 -0.04631323 17.62849642 -0.08186401 26.4428606 -0.10362434 C30.53559983 -0.1140675 34.6282559 -0.12823636 38.72094727 -0.15087891 C42.66963711 -0.17258839 46.61824689 -0.18456462 50.56699181 -0.18975449 C52.07450305 -0.19345366 53.58200986 -0.20067711 55.08948708 -0.21146011 C57.19883363 -0.22595004 59.30784812 -0.22797902 61.41723633 -0.22705078 C62.61858719 -0.231492 63.81993805 -0.23593323 65.05769348 -0.24050903 C68 0 68 0 71 2 C59.12 13.88 59.12 13.88 47 26 C46.01 25.67 45.02 25.34 44 25 C44.6612085 24.34402832 45.32241699 23.68805664 46.00366211 23.01220703 C48.45260853 20.58028964 50.89929753 18.14614635 53.34448242 15.71044922 C54.40380474 14.6561597 55.46402229 13.60276891 56.52514648 12.55029297 C58.04906961 11.03848143 59.56975784 9.52348098 61.08984375 8.0078125 C62.00628662 7.09660645 62.92272949 6.18540039 63.86694336 5.24658203 C66.02570136 3.19154633 66.02570136 3.19154633 67 1 C44.89 1 22.78 1 0 1 C0 0.67 0 0.34 0 0 Z " fill="#4C549A" transform="translate(63,7)"/>
<path d="M0 0 C0.66 0.33 1.32 0.66 2 1 C2.80697995 3.44155613 3.49677391 5.82519005 4.125 8.3125 C4.30675781 8.98990234 4.48851562 9.66730469 4.67578125 10.36523438 C5.54861064 13.72201807 6 16.50580142 6 20 C2.37 20 -1.26 20 -5 20 C-4.35587386 17.22875964 -3.70977252 14.45800555 -3.0625 11.6875 C-2.88009766 10.90181641 -2.69769531 10.11613281 -2.50976562 9.30664062 C-2.33251953 8.54931641 -2.15527344 7.79199219 -1.97265625 7.01171875 C-1.81031494 6.31522217 -1.64797363 5.61872559 -1.48071289 4.90112305 C-1.06234435 3.2465594 -0.53968631 1.61905892 0 0 Z " fill="#E0EAF2" transform="translate(364,142)"/>
<path d="M0 0 C0.66 0 1.32 0 2 0 C3.51740976 1.69903023 4.965128 3.46072723 6.375 5.25 C10.90741554 10.97994339 15.74107395 15.69649697 21.29296875 20.4140625 C23 22 23 22 24 24 C18.5008173 23.27675148 13.90194952 22.16589674 9.7734375 18.328125 C5.57773278 12.82010734 2.86654908 6.26918008 0 0 Z " fill="#99C3D1" transform="translate(153,223)"/>
<path d="M0 0 C0.99 0.33 1.98 0.66 3 1 C-4.92 8.92 -12.84 16.84 -21 25 C-21.99 24.67 -22.98 24.34 -24 24 C-16.08 16.08 -8.16 8.16 0 0 Z " fill="#2156B3" transform="translate(138,8)"/>
<path d="M0 0 C0.33 0.99 0.66 1.98 1 3 C-6.26 10.26 -13.52 17.52 -21 25 C-21.33 24.01 -21.66 23.02 -22 22 C-14.74 14.74 -7.48 7.48 0 0 Z " fill="#2156B3" transform="translate(22,124)"/>
<path d="M0 0 C0.33 0.99 0.66 1.98 1 3 C-6.26 10.26 -13.52 17.52 -21 25 C-21.33 24.01 -21.66 23.02 -22 22 C-14.74 14.74 -7.48 7.48 0 0 Z " fill="#1E449E" transform="translate(22,117)"/>
<path d="M0 0 C6.75 5.625 6.75 5.625 9 9 C6.36 9.33 3.72 9.66 1 10 C0.67 6.7 0.34 3.4 0 0 Z " fill="#B5D5DF" transform="translate(201,259)"/>
</svg>
