<?xml version="1.0" encoding="UTF-8"?>
<!DOCTYPE svg PUBLIC "-//W3C//DTD SVG 1.1//EN" "http://www.w3.org/Graphics/SVG/1.1/DTD/svg11.dtd">
<svg xmlns="http://www.w3.org/2000/svg" version="1.1" width="512px" height="512px" style="shape-rendering:geometricPrecision; text-rendering:geometricPrecision; image-rendering:optimizeQuality; fill-rule:evenodd; clip-rule:evenodd" xmlns:xlink="http://www.w3.org/1999/xlink">
<g><path style="opacity:0.994" fill="#bdc2c6" d="M 46.5,-0.5 C 53.5,-0.5 60.5,-0.5 67.5,-0.5C 73.1648,2.13007 76.9982,6.4634 79,12.5C 79.4998,22.828 79.6665,33.1613 79.5,43.5C 78.9358,55.0629 78.1025,66.7296 77,78.5C 71.9395,85.7506 64.9395,88.7506 56,87.5C 46.5689,88.7857 39.9022,85.119 36,76.5C 34.5939,65.5637 34.0939,54.5637 34.5,43.5C 34.3335,32.8281 34.5002,22.1615 35,11.5C 37.0451,5.62437 40.8785,1.62437 46.5,-0.5 Z"/></g>
<g><path style="opacity:0.989" fill="#bdc2c6" d="M 178.5,-0.5 C 185.5,-0.5 192.5,-0.5 199.5,-0.5C 205.148,1.64984 208.981,5.64984 211,11.5C 211.5,22.1615 211.667,32.8281 211.5,43.5C 211.666,53.8387 211.5,64.172 211,74.5C 207.207,84.7328 199.873,89.0662 189,87.5C 178.377,88.8562 171.377,84.5229 168,74.5C 167.83,63.9919 167.33,53.6585 166.5,43.5C 166.334,33.4944 166.5,23.4944 167,13.5C 168.873,7.13581 172.706,2.46914 178.5,-0.5 Z"/></g>
<g><path style="opacity:0.99" fill="#bdc2c6" d="M 311.5,-0.5 C 318.5,-0.5 325.5,-0.5 332.5,-0.5C 338.294,2.46914 342.127,7.13581 344,13.5C 344.5,23.4944 344.666,33.4944 344.5,43.5C 343.67,53.6585 343.17,63.9919 343,74.5C 341.5,81.3333 337.333,85.5 330.5,87C 324.167,87.6667 317.833,87.6667 311.5,87C 305.939,84.4383 302.106,80.2716 300,74.5C 299.5,64.172 299.334,53.8387 299.5,43.5C 299.333,32.8281 299.5,22.1615 300,11.5C 302.019,5.64984 305.852,1.64984 311.5,-0.5 Z"/></g>
<g><path style="opacity:0.994" fill="#bdc2c6" d="M 443.5,-0.5 C 450.5,-0.5 457.5,-0.5 464.5,-0.5C 470.122,1.62437 473.955,5.62437 476,11.5C 476.5,22.1615 476.667,32.8281 476.5,43.5C 476.666,53.1724 476.5,62.8391 476,72.5C 473.175,84.3389 465.675,89.3389 453.5,87.5C 444.885,88.9411 438.385,85.9411 434,78.5C 432.897,66.7296 432.064,55.0629 431.5,43.5C 431.334,33.1613 431.5,22.828 432,12.5C 432.806,9.55438 434.139,6.88772 436,4.5C 438.479,2.68589 440.979,1.01922 443.5,-0.5 Z"/></g>
<g><path style="opacity:0.998" fill="#e54c3c" d="M 34.5,43.5 C 34.0939,54.5637 34.5939,65.5637 36,76.5C 39.9022,85.119 46.5689,88.7857 56,87.5C 64.9395,88.7506 71.9395,85.7506 77,78.5C 78.1025,66.7296 78.9358,55.0629 79.5,43.5C 108.5,43.5 137.5,43.5 166.5,43.5C 167.33,53.6585 167.83,63.9919 168,74.5C 171.377,84.5229 178.377,88.8562 189,87.5C 199.873,89.0662 207.207,84.7328 211,74.5C 211.5,64.172 211.666,53.8387 211.5,43.5C 240.833,43.5 270.167,43.5 299.5,43.5C 299.334,53.8387 299.5,64.172 300,74.5C 302.106,80.2716 305.939,84.4383 311.5,87C 317.833,87.6667 324.167,87.6667 330.5,87C 337.333,85.5 341.5,81.3333 343,74.5C 343.17,63.9919 343.67,53.6585 344.5,43.5C 373.5,43.5 402.5,43.5 431.5,43.5C 432.064,55.0629 432.897,66.7296 434,78.5C 438.385,85.9411 444.885,88.9411 453.5,87.5C 465.675,89.3389 473.175,84.3389 476,72.5C 476.5,62.8391 476.666,53.1724 476.5,43.5C 494.336,44.6855 506.002,53.6855 511.5,70.5C 511.5,92.5 511.5,114.5 511.5,136.5C 509.348,138.985 506.681,140.651 503.5,141.5C 338.167,140.167 172.833,140.167 7.5,141.5C 4.31894,140.651 1.65227,138.985 -0.5,136.5C -0.5,114.5 -0.5,92.5 -0.5,70.5C 4.99751,53.6855 16.6642,44.6855 34.5,43.5 Z"/></g>
<g><path style="opacity:1" fill="#ebeff0" d="M 503.5,141.5 C 503.667,257.167 503.5,372.834 503,488.5C 500.945,500.047 494.445,507.713 483.5,511.5C 331.5,511.5 179.5,511.5 27.5,511.5C 16.5265,507.688 10.0265,500.022 8,488.5C 7.5,372.834 7.33333,257.167 7.5,141.5C 172.833,140.167 338.167,140.167 503.5,141.5 Z"/></g>
<g><path style="opacity:1" fill="#3d97d3" d="M 135.5,167.5 C 190.566,164.475 228.732,188.142 250,238.5C 261.582,277.364 254.582,312.364 229,343.5C 196.574,376.86 158.074,386.693 113.5,373C 64.5347,351.653 41.368,314.153 44,260.5C 53.6028,208.732 84.1028,177.732 135.5,167.5 Z"/></g>
<g><path style="opacity:1" fill="#bdc3c7" d="M 277.5,176.5 C 336.168,176.333 394.834,176.5 453.5,177C 458.827,180.436 459.827,184.936 456.5,190.5C 455.335,191.584 454.002,192.417 452.5,193C 394.5,193.667 336.5,193.667 278.5,193C 273.931,190.459 272.431,186.625 274,181.5C 274.997,179.677 276.164,178.01 277.5,176.5 Z"/></g>
<g><path style="opacity:1" fill="#9dc8d2" d="M 140.5,185.5 C 139.378,195.543 143.712,200.043 153.5,199C 157.917,195.57 159.584,191.07 158.5,185.5C 168.304,185.95 177.304,188.617 185.5,193.5C 179.443,200.541 180.443,206.208 188.5,210.5C 177.893,211.172 167.226,212.505 156.5,214.5C 147.215,209.142 141.882,211.809 140.5,222.5C 106.219,241.71 88.2189,271.043 86.5,310.5C 81.2081,304.222 75.5415,303.888 69.5,309.5C 65.1605,301.113 62.8272,292.113 62.5,282.5C 65.0593,282.802 67.3926,282.468 69.5,281.5C 74.7502,279.667 76.9169,276.001 76,270.5C 72.731,265.053 67.8977,263.053 61.5,264.5C 62.1786,254.808 64.8453,245.808 69.5,237.5C 73.4086,240.201 77.7419,241.034 82.5,240C 86.3603,237.452 87.8603,233.952 87,229.5C 84.9262,225.923 82.0928,223.256 78.5,221.5C 83.5,213.167 90.1667,206.5 98.5,201.5C 100.783,209.643 105.783,212.143 113.5,209C 115.871,207.257 117.205,204.923 117.5,202C 116.572,198.647 115.239,195.48 113.5,192.5C 122.037,188.449 131.037,186.116 140.5,185.5 Z"/></g>
<g><path style="opacity:1" fill="#2b5983" d="M 158.5,185.5 C 159.584,191.07 157.917,195.57 153.5,199C 143.712,200.043 139.378,195.543 140.5,185.5C 146.448,184.313 152.448,184.313 158.5,185.5 Z"/></g>
<g><path style="opacity:1" fill="#2a5881" d="M 113.5,192.5 C 115.239,195.48 116.572,198.647 117.5,202C 117.205,204.923 115.871,207.257 113.5,209C 105.783,212.143 100.783,209.643 98.5,201.5C 103.216,198.137 108.216,195.137 113.5,192.5 Z"/></g>
<g><path style="opacity:1" fill="#2b5882" d="M 185.5,193.5 C 191.691,194.752 196.691,197.752 200.5,202.5C 199.167,206.5 196.5,209.167 192.5,210.5C 191.167,210.5 189.833,210.5 188.5,210.5C 180.443,206.208 179.443,200.541 185.5,193.5 Z"/></g>
<g><path style="opacity:1" fill="#9ac5d1" d="M 200.5,202.5 C 207.338,205.331 212.671,209.998 216.5,216.5C 208.345,214.587 200.345,212.587 192.5,210.5C 196.5,209.167 199.167,206.5 200.5,202.5 Z"/></g>
<g><path style="opacity:1" fill="#295781" d="M 156.5,214.5 C 156.987,215.473 157.487,216.473 158,217.5C 158.333,235.5 158.667,253.5 159,271.5C 164.333,279.5 169.667,287.5 175,295.5C 176.721,305.876 172.554,309.709 162.5,307C 154.552,297.048 147.385,286.548 141,275.5C 140.5,257.836 140.333,240.17 140.5,222.5C 141.882,211.809 147.215,209.142 156.5,214.5 Z"/></g>
<g><path style="opacity:1" fill="#83b4ca" d="M 188.5,210.5 C 189.833,210.5 191.167,210.5 192.5,210.5C 200.345,212.587 208.345,214.587 216.5,216.5C 218.543,217.579 219.876,219.246 220.5,221.5C 217.978,223.361 215.478,225.361 213,227.5C 212.136,240.767 217.636,244.1 229.5,237.5C 231.481,240.128 232.981,243.128 234,246.5C 235.491,252.453 236.657,258.453 237.5,264.5C 226.79,262.712 222.29,267.045 224,277.5C 227.651,281.205 232.151,282.539 237.5,281.5C 236.377,291.334 233.71,300.668 229.5,309.5C 223.967,304.324 218.467,304.324 213,309.5C 211.627,311.695 211.294,314.029 212,316.5C 214.047,320.048 216.88,322.715 220.5,324.5C 215.5,332.833 208.833,339.5 200.5,344.5C 198.118,336.642 193.118,334.142 185.5,337C 183.129,338.743 181.795,341.077 181.5,344C 182.428,347.353 183.761,350.52 185.5,353.5C 177.063,357.639 168.063,359.973 158.5,360.5C 160.016,352.508 156.85,347.841 149,346.5C 141.872,348.405 139.039,353.072 140.5,360.5C 130.988,360.065 121.988,357.732 113.5,353.5C 115.239,350.52 116.572,347.353 117.5,344C 115.842,336.838 111.508,334.338 104.5,336.5C 101.529,338.443 99.5293,341.109 98.5,344.5C 95.883,343.214 93.5496,341.547 91.5,339.5C 92.0967,339.265 92.4301,338.765 92.5,338C 90.6607,330.859 88.6607,324.025 86.5,317.5C 87.8333,315.167 87.8333,312.833 86.5,310.5C 88.2189,271.043 106.219,241.71 140.5,222.5C 140.333,240.17 140.5,257.836 141,275.5C 147.385,286.548 154.552,297.048 162.5,307C 172.554,309.709 176.721,305.876 175,295.5C 169.667,287.5 164.333,279.5 159,271.5C 158.667,253.5 158.333,235.5 158,217.5C 157.487,216.473 156.987,215.473 156.5,214.5C 167.226,212.505 177.893,211.172 188.5,210.5 Z"/></g>
<g><path style="opacity:1" fill="#bdc3c7" d="M 278.5,220.5 C 336.834,220.333 395.168,220.5 453.5,221C 460.064,226.301 460.064,231.634 453.5,237C 395.167,237.667 336.833,237.667 278.5,237C 273.391,233.634 272.224,229.134 275,223.5C 276.145,222.364 277.312,221.364 278.5,220.5 Z"/></g>
<g><path style="opacity:1" fill="#2b5982" d="M 78.5,221.5 C 82.0928,223.256 84.9262,225.923 87,229.5C 87.8603,233.952 86.3603,237.452 82.5,240C 77.7419,241.034 73.4086,240.201 69.5,237.5C 69.7553,234.984 70.5886,232.65 72,230.5C 73.6985,227.079 75.8652,224.079 78.5,221.5 Z"/></g>
<g><path style="opacity:1" fill="#295881" d="M 220.5,221.5 C 223.135,224.079 225.301,227.079 227,230.5C 228.411,232.65 229.245,234.984 229.5,237.5C 217.636,244.1 212.136,240.767 213,227.5C 215.478,225.361 217.978,223.361 220.5,221.5 Z"/></g>
<g><path style="opacity:1" fill="#2a5781" d="M 61.5,264.5 C 67.8977,263.053 72.731,265.053 76,270.5C 76.9169,276.001 74.7502,279.667 69.5,281.5C 66.8333,281.5 64.1667,281.5 61.5,281.5C 61.5,275.833 61.5,270.167 61.5,264.5 Z"/></g>
<g><path style="opacity:1" fill="#285680" d="M 237.5,264.5 C 237.5,270.167 237.5,275.833 237.5,281.5C 232.151,282.539 227.651,281.205 224,277.5C 222.29,267.045 226.79,262.712 237.5,264.5 Z"/></g>
<g><path style="opacity:1" fill="#bdc3c7" d="M 278.5,264.5 C 336.501,264.333 394.501,264.5 452.5,265C 458.574,267.899 460.074,272.399 457,278.5C 456.097,279.701 454.931,280.535 453.5,281C 394.833,281.667 336.167,281.667 277.5,281C 271.953,275.032 272.287,269.532 278.5,264.5 Z"/></g>
<g><path style="opacity:1" fill="#2b5982" d="M 86.5,310.5 C 87.8333,312.833 87.8333,315.167 86.5,317.5C 84.7056,320.745 82.0389,323.079 78.5,324.5C 74.3151,320.292 71.3151,315.292 69.5,309.5C 75.5415,303.888 81.2081,304.222 86.5,310.5 Z"/></g>
<g><path style="opacity:1" fill="#2a5882" d="M 229.5,309.5 C 227.685,315.292 224.685,320.292 220.5,324.5C 216.88,322.715 214.047,320.048 212,316.5C 211.294,314.029 211.627,311.695 213,309.5C 218.467,304.324 223.967,304.324 229.5,309.5 Z"/></g>
<g><path style="opacity:1" fill="#bdc3c7" d="M 278.5,308.5 C 336.501,308.333 394.501,308.5 452.5,309C 458.372,312.016 459.872,316.516 457,322.5C 455.421,324.041 453.587,325.208 451.5,326C 394.167,326.667 336.833,326.667 279.5,326C 273.388,322.707 271.888,317.873 275,311.5C 276.518,310.837 277.685,309.837 278.5,308.5 Z"/></g>
<g><path style="opacity:1" fill="#9bc6d2" d="M 86.5,317.5 C 88.6607,324.025 90.6607,330.859 92.5,338C 92.4301,338.765 92.0967,339.265 91.5,339.5C 86.0524,335.391 81.7191,330.391 78.5,324.5C 82.0389,323.079 84.7056,320.745 86.5,317.5 Z"/></g>
<g><path style="opacity:1" fill="#295882" d="M 113.5,353.5 C 107.995,351.251 102.995,348.251 98.5,344.5C 99.5293,341.109 101.529,338.443 104.5,336.5C 111.508,334.338 115.842,336.838 117.5,344C 116.572,347.353 115.239,350.52 113.5,353.5 Z"/></g>
<g><path style="opacity:1" fill="#2a5882" d="M 200.5,344.5 C 196.005,348.251 191.005,351.251 185.5,353.5C 183.761,350.52 182.428,347.353 181.5,344C 181.795,341.077 183.129,338.743 185.5,337C 193.118,334.142 198.118,336.642 200.5,344.5 Z"/></g>
<g><path style="opacity:1" fill="#2a5983" d="M 158.5,360.5 C 152.5,361.833 146.5,361.833 140.5,360.5C 139.039,353.072 141.872,348.405 149,346.5C 156.85,347.841 160.016,352.508 158.5,360.5 Z"/></g>
<g><path style="opacity:1" fill="#bec3c7" d="M 278.5,352.5 C 309.835,352.333 341.168,352.5 372.5,353C 376.833,354.161 378.833,356.995 378.5,361.5C 378.833,366.005 376.833,368.839 372.5,370C 341.5,370.667 310.5,370.667 279.5,370C 273.911,367.549 272.078,363.383 274,357.5C 275.366,355.638 276.866,353.972 278.5,352.5 Z"/></g>
<g><path style="opacity:1" fill="#fe5465" d="M 105.5,405.5 C 105.5,429.167 105.5,452.833 105.5,476.5C 92.4957,476.667 79.4957,476.5 66.5,476C 48.5614,470.828 40.8947,458.828 43.5,440C 41.6589,422.986 48.6589,411.653 64.5,406C 78.1626,405.5 91.8293,405.333 105.5,405.5 Z"/></g>
<g><path style="opacity:1" fill="#bdc3c7" d="M 105.5,405.5 C 120.167,405.5 134.833,405.5 149.5,405.5C 149.5,414.167 149.5,422.833 149.5,431.5C 149.5,437.5 149.5,443.5 149.5,449.5C 149.5,458.5 149.5,467.5 149.5,476.5C 134.833,476.5 120.167,476.5 105.5,476.5C 105.5,452.833 105.5,429.167 105.5,405.5 Z"/></g>
<g><path style="opacity:1" fill="#f2d55b" d="M 149.5,405.5 C 228.833,405.5 308.167,405.5 387.5,405.5C 387.5,414.167 387.5,422.833 387.5,431.5C 331.166,431.333 274.832,431.5 218.5,432C 211.608,434.851 209.775,439.684 213,446.5C 213.903,447.701 215.069,448.535 216.5,449C 273.499,449.5 330.499,449.667 387.5,449.5C 387.5,458.5 387.5,467.5 387.5,476.5C 308.167,476.5 228.833,476.5 149.5,476.5C 149.5,467.5 149.5,458.5 149.5,449.5C 162.504,449.667 175.504,449.5 188.5,449C 193.609,445.634 194.776,441.134 192,435.5C 190.421,433.959 188.587,432.792 186.5,432C 174.171,431.5 161.838,431.333 149.5,431.5C 149.5,422.833 149.5,414.167 149.5,405.5 Z"/></g>
<g><path style="opacity:1" fill="#fcd7ad" d="M 387.5,405.5 C 399.5,410.833 411.5,416.167 423.5,421.5C 423.5,434.5 423.5,447.5 423.5,460.5C 411.5,465.833 399.5,471.167 387.5,476.5C 387.5,467.5 387.5,458.5 387.5,449.5C 388.806,443.599 388.806,437.599 387.5,431.5C 387.5,422.833 387.5,414.167 387.5,405.5 Z"/></g>
<g><path style="opacity:1" fill="#47505e" d="M 423.5,421.5 C 437.88,427.904 452.214,434.404 466.5,441C 452.141,447.514 437.807,454.014 423.5,460.5C 423.5,447.5 423.5,434.5 423.5,421.5 Z"/></g>
<g><path style="opacity:1" fill="#f0c41b" d="M 149.5,431.5 C 161.838,431.333 174.171,431.5 186.5,432C 188.587,432.792 190.421,433.959 192,435.5C 194.776,441.134 193.609,445.634 188.5,449C 175.504,449.5 162.504,449.667 149.5,449.5C 149.5,443.5 149.5,437.5 149.5,431.5 Z"/></g>
<g><path style="opacity:1" fill="#f0c41c" d="M 387.5,431.5 C 388.806,437.599 388.806,443.599 387.5,449.5C 330.499,449.667 273.499,449.5 216.5,449C 215.069,448.535 213.903,447.701 213,446.5C 209.775,439.684 211.608,434.851 218.5,432C 274.832,431.5 331.166,431.333 387.5,431.5 Z"/></g>
</svg>
