<?xml version="1.0" encoding="UTF-8"?>
<svg version="1.1" xmlns="http://www.w3.org/2000/svg" width="512" height="512">
<path d="M0 0 C25.06262405 19.54818634 40.59679159 44.38411827 46.52734375 75.8828125 C49.78150692 106.56492234 44.15220706 136.85344517 25.57421875 161.94140625 C23.42007706 164.6024048 21.20506207 167.18554651 18.9375 169.75 C17.89576089 171.02077395 16.85408539 172.29160005 15.8125 173.5625 C13.78269304 175.91491014 11.63216774 177.94638027 9.2578125 179.94921875 C8.63406738 180.47733154 8.01032227 181.00544434 7.36767578 181.54956055 C6.89571777 181.94570557 6.42375977 182.34185059 5.9375 182.75 C6.59234375 182.95568604 7.2471875 183.16137207 7.921875 183.37329102 C10.9340883 184.33242355 13.93541566 185.32214047 16.9375 186.3125 C18.48244141 186.79686523 18.48244141 186.79686523 20.05859375 187.29101562 C26.73464458 189.523453 32.45556053 192.13248868 36.9375 197.75 C38.79751436 202.50085275 39.08962875 206.4460393 38.5 211.5 C36.48026761 215.70104337 33.79749643 218.18813154 29.9375 220.75 C21.50172296 223.56192568 14.3427055 220.86239429 6.375 217.9375 C-3.06563654 214.63045933 -12.13216217 212.0420117 -22.0625 210.75 C-22.71595901 210.66493698 -23.36941803 210.57987396 -24.04267883 210.49223328 C-32.0317348 209.57134324 -40.02048684 209.56731767 -48.05078125 209.546875 C-48.80974386 209.54404762 -49.56870647 209.54122025 -50.35066795 209.53830719 C-54.37546498 209.52339227 -58.40022695 209.51411696 -62.42504883 209.50976562 C-65.70543659 209.50539986 -68.98555854 209.49157155 -72.26586914 209.46875 C-98.80414698 209.23301006 -98.80414698 209.23301006 -125.0625 212.75 C-126.66436157 213.07871094 -126.66436157 213.07871094 -128.29858398 213.4140625 C-130.77556342 213.98630935 -133.19252962 214.63834042 -135.625 215.375 C-136.47594238 215.62660889 -137.32688477 215.87821777 -138.20361328 216.13745117 C-178.49184365 228.5888956 -212.36986171 256.80418068 -232.13330078 293.97460938 C-243.98103913 316.61169642 -250.22018467 340.48255693 -250.35766602 366.06811523 C-250.36923657 367.5662578 -250.3897679 369.06435754 -250.41918945 370.56225586 C-250.4620391 372.75141777 -250.47804885 374.93937627 -250.48828125 377.12890625 C-250.50286377 378.4238501 -250.51744629 379.71879395 -250.5324707 381.05297852 C-249.82516427 386.61699997 -247.65854695 390.27073697 -243.5 394.125 C-238.82931363 397.23879091 -234.35979654 396.89453769 -228.94795227 396.88803101 C-227.53149793 396.89226293 -227.53149793 396.89226293 -226.08642834 396.89658034 C-222.908278 396.90494254 -219.73016241 396.90626598 -216.55200195 396.90771484 C-214.27885337 396.91238191 -212.00570572 396.91752529 -209.7325592 396.92311096 C-204.82983297 396.93440215 -199.92711285 396.94283144 -195.02437782 396.94923019 C-187.27177787 396.95989842 -179.51922175 396.98014042 -171.76664734 397.00234985 C-169.11382396 397.00980522 -166.46100052 397.01723412 -163.80817699 397.02463722 C-163.14517551 397.02648779 -162.48217403 397.02833835 -161.7990816 397.030245 C-154.25090557 397.05117466 -146.70272481 397.07000084 -139.15454102 397.08789062 C-138.46451338 397.08952881 -137.77448574 397.09116699 -137.06354817 397.09285481 C-125.8885262 397.11912381 -114.71350093 397.13777595 -103.53846119 397.15448253 C-92.06187962 397.17191678 -80.58537533 397.20096624 -69.10884255 397.2393719 C-62.66657598 397.2604492 -56.22440164 397.2759002 -49.78209877 397.27817917 C-43.7205211 397.28032591 -37.6591354 397.29619827 -31.5976162 397.32256889 C-29.37404311 397.32976249 -27.15044676 397.33186257 -24.92686462 397.32846642 C-21.88833817 397.32456725 -18.85042348 397.33904129 -15.81196594 397.35800171 C-14.93461503 397.35247201 -14.05726411 397.34694232 -13.15332681 397.34124506 C-7.21680608 397.40506924 -1.10922159 397.98938366 3.50073451 402.16643751 C7.18432672 406.41103107 8.31410027 409.95685507 8.2109375 415.55859375 C7.73022754 419.41114068 6.43456563 422.77104451 3.9375 425.75 C-1.76288886 429.728118 -5.96389417 430.32491153 -12.82096863 430.25120544 C-13.78628472 430.25673984 -14.75160082 430.26227424 -15.74616891 430.26797634 C-18.97191249 430.28155934 -22.19687919 430.26662571 -25.42260742 430.25170898 C-27.73911874 430.25549312 -30.05562779 430.26099394 -32.37213135 430.26808167 C-38.65960832 430.28204488 -44.94681188 430.27085839 -51.23427367 430.25437045 C-57.82035391 430.24051299 -64.40641838 430.24698115 -70.99250793 430.25050354 C-82.05795524 430.25393628 -93.12330007 430.2398177 -104.1887207 430.21655273 C-115.55399608 430.19266024 -126.91912786 430.18553818 -138.28442383 430.19604492 C-150.67541162 430.20747945 -163.06633301 430.20935086 -175.45732003 430.19494683 C-182.01031895 430.18742225 -188.56326059 430.1834935 -195.11626244 430.18945122 C-201.28295979 430.19424095 -207.44945957 430.18403662 -213.61611938 430.16249657 C-215.87349596 430.15695448 -218.13089161 430.15643956 -220.38826942 430.16144943 C-239.65488951 430.19882991 -254.2263472 428.75387911 -268.7734375 415.0625 C-282.74470815 400.9481788 -283.39104068 384.93532053 -283.37939453 366.16381836 C-283.09395629 313.52294688 -260.97470668 266.20647579 -224.03027344 229.34716797 C-200.78466356 206.79484821 -171.84340212 192.0573316 -141.0625 182.75 C-141.60084473 182.28021729 -142.13918945 181.81043457 -142.69384766 181.32641602 C-143.40589355 180.70436279 -144.11793945 180.08230957 -144.8515625 179.44140625 C-145.55490723 178.82724854 -146.25825195 178.21309082 -146.98291016 177.58032227 C-168.06390974 159.02617178 -180.63047724 131.56590093 -183.0625 103.75 C-184.86039801 73.23913681 -176.81030729 42.72509392 -156.47998047 19.33886719 C-116.72556359 -25.22223254 -49.57381404 -36.07121877 0 0 Z M-125.0625 32.75 C-125.71992188 33.33652344 -126.37734375 33.92304687 -127.0546875 34.52734375 C-141.39661403 48.07249658 -150.61172744 68.66089547 -151.265625 88.31640625 C-151.65736539 113.18200324 -144.58021494 133.92849578 -127.55200195 152.37597656 C-112.91883264 167.46479842 -92.61232023 176.61452832 -71.57666016 177.04296875 C-46.58794074 177.21563221 -26.3196801 169.37943899 -7.9375 152.125 C7.70088045 135.93964917 15.89272308 114.14742564 15.98095703 91.78271484 C15.45703872 67.27628865 3.9081194 47.04969842 -13.203125 30.29296875 C-17.49238718 26.47833804 -22.05715764 23.53399334 -27.0625 20.75 C-28.27873047 20.05970703 -28.27873047 20.05970703 -29.51953125 19.35546875 C-61.13906098 2.44744881 -98.90236722 9.23952697 -125.0625 32.75 Z " fill="#2F3034" transform="translate(323.0625,50.25)"/>
<path d="M0 0 C3.41968524 2.77581145 5.92256727 5.35739727 6.8671875 9.765625 C7.44271901 17.01732208 5.9385181 21.44709009 1.1875 27.10546875 C0.12864618 28.31020984 -0.93681506 29.50916647 -2.0078125 30.703125 C-3.18114518 32.03371697 -4.35431778 33.36445013 -5.52734375 34.6953125 C-6.12627441 35.37045898 -6.72520508 36.04560547 -7.34228516 36.74121094 C-10.15047604 39.91622032 -12.92249337 43.12223629 -15.6953125 46.328125 C-16.50234619 47.25902954 -16.50234619 47.25902954 -17.32568359 48.20874023 C-20.94256439 52.38202239 -24.54222602 56.5697108 -28.1328125 60.765625 C-33.89026024 67.49370601 -39.68703062 74.18716112 -45.49169922 80.87451172 C-48.20702464 84.00347791 -50.91982745 87.13462961 -53.6328125 90.265625 C-56.89326698 94.02844262 -60.15426307 97.79078294 -63.41796875 101.55078125 C-64.51045895 102.80985914 -65.60290699 104.06897362 -66.6953125 105.328125 C-67.23269043 105.94727783 -67.77006836 106.56643066 -68.32373047 107.2043457 C-71.48466078 110.85043541 -74.62590785 114.51233856 -77.75268555 118.18774414 C-79.71889566 120.49393479 -81.69618393 122.790347 -83.67871094 125.08251953 C-84.65373744 126.21110125 -85.6257148 127.34232398 -86.59472656 128.47607422 C-98.85726998 142.76313305 -98.85726998 142.76313305 -109.1328125 143.765625 C-110.08220703 143.86037109 -110.08220703 143.86037109 -111.05078125 143.95703125 C-120.09163556 144.45307812 -127.51855105 141.55464833 -134.2578125 135.578125 C-135.89951669 133.99105756 -137.52472447 132.38674454 -139.1328125 130.765625 C-139.91785156 130.00507813 -140.70289063 129.24453125 -141.51171875 128.4609375 C-144.85474553 125.191446 -148.04702946 121.87164324 -151.07421875 118.30859375 C-154.35393076 114.53391381 -157.83774046 111.01362416 -161.3984375 107.5078125 C-161.96230667 106.95180862 -162.52617584 106.39580475 -163.10713196 105.82295227 C-165.46067559 103.50592847 -167.81697325 101.19188076 -170.18261719 98.88720703 C-171.92806805 97.1842234 -173.6638084 95.47180845 -175.3984375 93.7578125 C-175.92971252 93.24515839 -176.46098755 92.73250427 -177.00836182 92.20431519 C-180.8525574 88.3867992 -183.64971769 84.62067181 -184.56640625 79.203125 C-184.57545798 73.55484275 -184.0784261 70.12656634 -180.1328125 65.765625 C-175.91207528 62.29524106 -172.60000662 60.95745637 -167.1328125 60.765625 C-160.16352317 62.08738677 -156.47189248 65.14706214 -151.98413086 70.40039062 C-148.17104972 74.78256153 -144.13282977 78.89332454 -140.01171875 82.984375 C-138.89457741 84.09939392 -138.89457741 84.09939392 -137.75486755 85.23693848 C-135.40404505 87.58221801 -133.04974819 89.92397336 -130.6953125 92.265625 C-129.08896051 93.86695461 -127.48283853 95.46851498 -125.87695312 97.0703125 C-121.96489265 100.97141973 -118.04998298 104.8696492 -114.1328125 108.765625 C-113.18825195 107.99234863 -112.24369141 107.21907227 -111.27050781 106.42236328 C-110.7391925 105.98739532 -110.2078772 105.55242737 -109.66046143 105.10427856 C-107.445255 103.1631297 -105.69451023 100.95710873 -103.8828125 98.640625 C-100.75154508 94.72128691 -97.53466819 90.95272946 -94.1328125 87.265625 C-90.83949551 83.68770037 -87.68629929 80.05022834 -84.6328125 76.265625 C-80.79562219 71.50967081 -76.73896149 67.01057699 -72.6015625 62.515625 C-70.18903146 59.82824866 -67.9002504 57.07597056 -65.6328125 54.265625 C-61.79445836 49.50822832 -57.73658891 45.00778582 -53.59765625 40.51171875 C-51.20573953 37.84687334 -48.94026366 35.11730675 -46.6953125 32.328125 C-43.0418173 27.79830643 -39.19840093 23.51635437 -35.23217773 19.26391602 C-31.33607754 15.05952584 -27.7368226 10.65515882 -24.203125 6.140625 C-17.81380019 -1.18901554 -9.17405703 -5.30952751 0 0 Z " fill="#FF613D" transform="translate(473.1328125,302.234375)"/>
</svg>
