<?xml version="1.0" encoding="UTF-8"?>
<svg version="1.1" xmlns="http://www.w3.org/2000/svg" width="1080" height="1080">
<path d="M0 0 C356.4 0 712.8 0 1080 0 C1080 356.4 1080 712.8 1080 1080 C723.6 1080 367.2 1080 0 1080 C0 723.6 0 367.2 0 0 Z " fill="#FEFEFE" transform="translate(0,0)"/>
<path d="M0 0 C4.04218332 1.25141566 7.69458068 3.12607226 11.4765625 5.0078125 C25.8166387 11.94449795 40.07049515 17.40596336 55.8515625 19.8828125 C55.87920745 21.9869007 55.89824137 24.09110218 55.9140625 26.1953125 C55.92566406 27.36707031 55.93726563 28.53882813 55.94921875 29.74609375 C55.41516736 74.43395609 34.12950758 116.2550018 2.79296875 147.01171875 C2.01481812 147.77077515 2.01481812 147.77077515 1.22094727 148.54516602 C0.09006781 149.64983503 -1.03058644 150.76496144 -2.1484375 151.8828125 C13.21163349 142.98024074 27.39845938 130.57805186 37.62890625 115.99609375 C38.36238281 114.96871094 39.09585938 113.94132813 39.8515625 112.8828125 C40.1815625 112.8828125 40.5115625 112.8828125 40.8515625 112.8828125 C40.38626437 128.12416356 39.75086379 143.34532217 38.9140625 158.5703125 C38.09419236 173.50335854 37.43919975 188.43890289 36.8515625 203.3828125 C36.29816397 217.43067305 35.69726758 231.47085937 34.9140625 245.5078125 C33.87626837 264.12482672 33.12232323 282.75329287 32.3515625 301.3828125 C31.55150173 320.720523 30.75075835 340.05515941 29.67044067 359.37969971 C28.78609941 375.24361939 28.15958378 391.11710857 27.54858398 406.99365234 C27.21954595 415.45459972 26.88445966 423.90727712 26.30859375 432.35546875 C25.88168185 438.75873643 25.74244522 445.13621159 25.66357422 451.55200195 C25.37714138 469.53524765 23.90459508 484.16199253 10.9765625 497.87109375 C0.20775428 508.01027407 -12.23767128 510.49680715 -26.53515625 510.1953125 C-32.03896855 509.92958831 -36.39889844 508.69767693 -41.1484375 505.8828125 C-41.92316406 505.43550781 -42.69789063 504.98820312 -43.49609375 504.52734375 C-55.63536852 496.96816263 -62.36814281 486.5955892 -66.1484375 472.8828125 C-66.66682981 468.69697092 -66.6734568 464.57443333 -66.62945557 460.360672 C-66.63287327 459.14662538 -66.63629097 457.93257876 -66.63981223 456.68174285 C-66.64522681 453.34277424 -66.63286157 450.00476095 -66.61269999 446.66590869 C-66.59532225 443.05393597 -66.60127893 439.44198938 -66.60430908 435.82998657 C-66.60639996 429.58224921 -66.59391855 423.33467977 -66.57135773 417.08698463 C-66.53876057 408.05404969 -66.52842285 399.02119541 -66.52340576 389.98820802 C-66.51466517 375.33055302 -66.48808325 360.67298738 -66.45019531 346.01538086 C-66.41344316 331.78231247 -66.3851471 317.54926841 -66.36816406 303.31616211 C-66.36658772 301.9987515 -66.36658772 301.9987515 -66.36497954 300.65472654 C-66.35975914 296.24840265 -66.35470437 291.84207859 -66.34973192 287.43575442 C-66.3083084 250.91804342 -66.23759506 214.40043638 -66.1484375 177.8828125 C-71.7584375 177.8828125 -77.3684375 177.8828125 -83.1484375 177.8828125 C-83.14382854 179.37902917 -83.13921957 180.87524584 -83.13447094 182.41680241 C-83.02605681 217.97657823 -82.94367255 253.53633098 -82.89311085 289.09623775 C-82.88685772 293.47813991 -82.88038607 297.86004172 -82.8737793 302.24194336 C-82.87246774 303.11425883 -82.87115619 303.9865743 -82.8698049 304.88532358 C-82.84807999 318.98843846 -82.80867463 333.09145089 -82.76267352 347.1945051 C-82.71582757 361.67794008 -82.68812494 376.16132159 -82.67799503 390.64482921 C-82.67115269 399.573689 -82.64958405 408.50225911 -82.60885517 417.43102967 C-82.58231617 423.56339847 -82.57446159 429.69561868 -82.58093061 435.82804067 C-82.5841163 439.36013705 -82.5794193 442.89172918 -82.55241013 446.42373466 C-82.41816484 467.01153015 -83.10407112 482.97870379 -97.8671875 498.71484375 C-108.24423819 508.38214333 -120.91239409 510.4825791 -134.53515625 510.1953125 C-140.03648097 509.92970841 -144.40332724 508.70211933 -149.1484375 505.8828125 C-149.94636719 505.41230469 -150.74429688 504.94179688 -151.56640625 504.45703125 C-155.9337048 501.69986234 -159.71980185 498.77477729 -163.1484375 494.8828125 C-163.86966797 494.09197266 -163.86966797 494.09197266 -164.60546875 493.28515625 C-176.34547152 479.28631751 -175.26251797 461.11857123 -175.8984375 443.8828125 C-176.00975685 441.3098102 -176.12302635 438.73689151 -176.23828125 436.1640625 C-176.79790218 423.36110543 -177.22830999 410.55461495 -177.63671875 397.74609375 C-178.0635458 384.41595242 -178.69206381 371.10168981 -179.39135742 357.78335571 C-180.4320317 337.9248553 -181.38165454 318.06624494 -182.1484375 298.1953125 C-182.87326044 279.43919039 -183.8241714 260.70090775 -184.84518433 241.95874023 C-185.84884487 223.45843729 -186.65899741 204.95816032 -187.32855225 186.44290161 C-187.90131342 170.60988849 -188.60830262 154.79203991 -189.53930664 138.97583008 C-190.04192806 130.26189565 -190.25678622 121.61090384 -190.1484375 112.8828125 C-187.40230013 115.589274 -184.98172072 118.312703 -182.6484375 121.3828125 C-171.9357211 134.81809771 -159.18022385 145.56817524 -144.1484375 153.8828125 C-145.03982422 153.20798828 -145.03982422 153.20798828 -145.94921875 152.51953125 C-161.59679742 140.37623147 -174.33576578 125.66405785 -183.1484375 107.8828125 C-176.51439907 103.29499774 -169.65273997 99.17663941 -162.67483521 95.13571167 C-150.64383474 88.16533052 -138.71768956 81.03580969 -126.86401367 73.76831055 C-123.63358309 71.7927939 -120.39133893 69.83777351 -117.1484375 67.8828125 C-116.53377625 67.50215637 -115.91911499 67.12150024 -115.28582764 66.72930908 C-113.39328196 65.55841395 -111.48914058 64.40870009 -109.58203125 63.26171875 C-108.99825211 62.89400864 -108.41447296 62.52629852 -107.81300354 62.14744568 C-106.14233398 61.15844727 -106.14233398 61.15844727 -103.1484375 59.8828125 C-99.95034849 60.72920027 -98.32122667 62.54414468 -96.30078125 65.0859375 C-95.78281982 65.73046875 -95.2648584 66.375 -94.73120117 67.0390625 C-94.18826416 67.73 -93.64532715 68.4209375 -93.0859375 69.1328125 C-92.23962769 70.19242188 -92.23962769 70.19242188 -91.3762207 71.2734375 C-89.62542741 73.47020376 -87.88577517 75.67539473 -86.1484375 77.8828125 C-85.04949096 79.27344682 -83.95053306 80.66407216 -82.8515625 82.0546875 C-80.2738723 85.32299797 -77.7078628 88.60018285 -75.1484375 91.8828125 C-71.47201632 88.34425711 -68.25466256 84.62138147 -65.1484375 80.5703125 C-60.4114508 74.45958321 -55.56814252 68.44510424 -50.65234375 62.47729492 C-49.62729686 61.22569083 -48.61127348 59.96663228 -47.60522461 58.69970703 C-46.64300377 57.49963203 -45.65154719 56.32236181 -44.63110352 55.17138672 C-41.93412964 51.91856227 -40.81172538 49.78981292 -41.09765625 45.5078125 C-41.31457534 43.96177099 -41.56131732 42.41965407 -41.8359375 40.8828125 C-42.18730478 38.59412509 -42.52857626 36.30547859 -42.84521484 34.01171875 C-43.12220719 32.0669738 -43.45474743 30.13034842 -43.79296875 28.1953125 C-43.04884846 24.37098519 -42.64964071 24.1034273 -39.578125 21.9921875 C-37.78172884 20.93250375 -35.96971309 19.89914121 -34.1484375 18.8828125 C-32.40161115 17.84421303 -30.65486135 16.80548145 -28.909729 15.76403809 C-25.7108508 13.86427216 -22.49100176 12.00068987 -19.2734375 10.1328125 C-17.29571452 8.98195323 -15.31846376 7.83029323 -13.34176636 6.67767334 C-12.12152006 5.96642135 -10.90062441 5.25628187 -9.6789856 4.54742432 C-1.70486236 -0.09299249 -1.70486236 -0.09299249 0 0 Z " fill="#9C5439" transform="translate(641.1484375,442.1171875)"/>
<path d="M0 0 C0.7321875 0.37898438 1.464375 0.75796875 2.21875 1.1484375 C2.9715625 1.55320312 3.724375 1.95796875 4.5 2.375 C10.43684166 5.38335474 16.6118832 7.20064115 23 9 C24.12664062 9.35191406 25.25328125 9.70382812 26.4140625 10.06640625 C45.09315169 14.92948067 67.56856077 11.91437763 85 4 C86.87341066 2.8217233 88.73044526 1.61660336 90.5625 0.375 C95.8665533 -2.64447612 100.0603032 -1.9545612 105.69433594 -0.41894531 C108.15064173 0.33398197 110.57416525 1.15392494 113 2 C113.98548828 2.34192383 114.97097656 2.68384766 115.98632812 3.03613281 C147.18987083 14.0845975 175.35407137 29.45902976 199.76171875 51.94921875 C201.86296619 53.87444546 204.01319306 55.72078303 206.1875 57.5625 C214.61000818 64.94477809 221.15780749 74.19052249 228 83 C224.55646367 85.86541865 221.06376852 88.27048196 217.203125 90.5390625 C216.08679688 91.19777344 214.97046875 91.85648437 213.8203125 92.53515625 C212.63033748 93.23199143 211.44023092 93.92860202 210.25 94.625 C209.03369418 95.33957151 207.81754919 96.05441682 206.6015625 96.76953125 C204.7813126 97.83976233 202.96081492 98.90955356 201.13928223 99.9776001 C197.59605397 102.05597776 194.06562883 104.1539152 190.546875 106.2734375 C189.37463379 106.97605713 189.37463379 106.97605713 188.17871094 107.69287109 C186.76242002 108.54258216 185.34884019 109.39683425 183.93847656 110.25634766 C179.33737997 113 179.33737997 113 176 113 C174.16015625 110.98046875 174.16015625 110.98046875 172.0625 108.1875 C164.39686686 98.51834911 155.36708791 90.72025831 145 84 C144.0877598 96.00762685 149.30006829 103.55513832 155.89257812 113.09985352 C157.0387085 115.06641717 157.56278531 116.77656569 158 119 C157.48953125 118.7834375 156.9790625 118.566875 156.453125 118.34375 C146.69791888 114.60771361 136.59596524 114.80865886 127 119 C120.85917578 122.28439545 116.00828296 126.30014808 112 132 C111.60941406 132.54785156 111.21882813 133.09570312 110.81640625 133.66015625 C107.72384328 138.81442786 107.33979076 144.27927653 107.29785156 150.18920898 C107.11055892 153.26717631 106.58600273 155.44903696 104.3137207 157.58544922 C101.93805032 159.19440543 99.50612267 160.60300981 97 162 C95.12459599 163.14042826 93.25094815 164.28374861 91.37890625 165.4296875 C89.44167684 166.58077587 87.50285689 167.72919139 85.5625 168.875 C84.57056641 169.46796875 83.57863281 170.0609375 82.55664062 170.671875 C81.61111328 171.23132813 80.66558594 171.79078125 79.69140625 172.3671875 C78.83748291 172.87362793 77.98355957 173.38006836 77.10375977 173.90185547 C75 175 75 175 73 175 C71.87698669 166.67896651 70.75527253 158.35775923 69.63507366 150.03634644 C69.11449346 146.16949482 68.59351857 142.30269736 68.0715332 138.43603516 C65.62375155 120.30153053 63.21591269 102.16466379 61 84 C59.89966431 84.48678223 59.89966431 84.48678223 58.77709961 84.98339844 C56.13525662 85.95048716 54.34650582 86.25705295 51.56640625 86.265625 C50.3453418 86.26949219 50.3453418 86.26949219 49.09960938 86.2734375 C48.26236328 86.26570313 47.42511719 86.25796875 46.5625 86.25 C45.31243164 86.26160156 45.31243164 86.26160156 44.03710938 86.2734375 C39.29473344 86.25844184 35.4552797 85.82557802 31 84 C31.02505615 85.28914307 31.0501123 86.57828613 31.07592773 87.90649414 C31.07200877 92.85674485 30.51201392 97.60643883 29.78515625 102.49609375 C29.65425598 103.41478745 29.52335571 104.33348114 29.38848877 105.28001404 C28.95241171 108.33339217 28.5077257 111.38544343 28.0625 114.4375 C27.41847604 118.89665066 26.77871615 123.356403 26.140625 127.81640625 C25.97045364 129.00286743 25.80028229 130.18932861 25.62495422 131.41174316 C24.33811226 140.45098712 23.13801357 149.49938989 21.96795845 158.55436134 C21.38036077 163.09005612 20.78390656 167.6245981 20.18818569 172.15923214 C19.69971069 175.88533919 19.21781714 179.61208644 18.74954224 183.34078979 C18.3052925 186.87750868 17.84524143 190.4118248 17.37361908 193.94499397 C17.1195013 195.88226878 16.88280137 197.82180315 16.64654541 199.76133728 C16.48901794 200.92274734 16.33149048 202.08415741 16.16918945 203.28076172 C16.0393013 204.29355194 15.90941315 205.30634216 15.77558899 206.349823 C14.19016053 211.76721044 9.62619207 214.00278717 4.96875 216.6875 C4.38554489 217.02627167 3.80233978 217.36504333 3.20146179 217.71408081 C1.95305004 218.43838695 0.70301433 219.15990007 -0.54849243 219.87884521 C-3.19988936 221.40209135 -5.84329274 222.9389709 -8.48725891 224.47506714 C-9.81488672 225.24621271 -11.14291981 226.01666094 -12.47135925 226.78640747 C-17.61447116 229.76775162 -22.72377952 232.80166903 -27.8125 235.875 C-36.1259374 240.88424089 -44.45987982 245.85852185 -52.80282593 250.81842041 C-54.25823785 251.683901 -55.71334058 252.54990178 -57.16812134 253.41644287 C-59.21542957 254.63578105 -61.26381932 255.85328201 -63.3125 257.0703125 C-63.92828415 257.43747375 -64.5440683 257.80463501 -65.17851257 258.18292236 C-68.07145464 259.89874429 -70.96302472 261.55181271 -74 263 C-77.11559166 255.1727144 -79.5264029 247.43486325 -81.25 239.1875 C-81.41274414 238.41237061 -81.57548828 237.63724121 -81.74316406 236.83862305 C-83.37074397 228.71540975 -84.15536826 220.68813553 -84.16796875 212.40625 C-84.17296135 211.22065491 -84.17296135 211.22065491 -84.17805481 210.0111084 C-84.18308159 208.34725519 -84.18546446 206.68339205 -84.18530273 205.01953125 C-84.18747063 202.53367493 -84.2056208 200.04827707 -84.22460938 197.5625 C-84.28061384 182.43537407 -83.0017838 168.05895169 -78.875 153.4375 C-78.45927734 151.90706055 -78.45927734 151.90706055 -78.03515625 150.34570312 C-77.36754002 147.89394006 -76.68933014 145.44572779 -76 143 C-81.07054925 155.85639263 -85.03021243 168.74445863 -88.3046875 182.16845703 C-88.96465579 184.85606665 -89.65062869 187.53562408 -90.34375 190.21484375 C-98.46759446 222.15048382 -100.66791121 255.23352452 -103 288 C-90.16913683 280.64299256 -77.35201097 273.27154173 -64.68798828 265.62963867 C-57.68755452 261.40572168 -50.6603363 257.22798487 -43.625 253.0625 C-42.76261719 252.55174423 -42.76261719 252.55174423 -41.8828125 252.03067017 C-35.95451239 248.51979679 -30.02381794 245.01299473 -24.08984375 241.51171875 C-14.54689711 235.8807306 -5.02123272 230.22368865 4.47363281 224.51196289 C11.44456074 220.32269014 18.44643674 216.18713259 25.45288086 212.05761719 C32.34441999 207.99071534 39.20699064 203.87728539 46.0625 199.75 C55.9292475 193.81122109 65.84923581 187.96879601 75.79608154 182.16567993 C84.23582071 177.2407473 92.62763261 172.24873735 100.90014648 167.04589844 C105.79053235 164 105.79053235 164 108 164 C108.79275148 165.4160599 109.58415312 166.83287553 110.375 168.25 C110.81585937 169.03890625 111.25671875 169.8278125 111.7109375 170.640625 C112.85763423 172.7394275 113.93696321 174.85811919 115 177 C114.49476807 177.28496338 113.98953613 177.56992676 113.46899414 177.86352539 C101.90245063 184.40001253 90.44027099 191.08931292 79.06103516 197.9465332 C70.53952055 203.081193 61.9943928 208.17456848 53.4375 213.25 C52.76608978 213.64833038 52.09467957 214.04666077 51.40292358 214.45706177 C47.97307898 216.49189234 44.54301017 218.52634447 41.11279297 220.56054688 C35.07143465 224.14349762 29.03225939 227.73012473 22.99295044 231.31652832 C19.66205939 233.29450788 16.33102219 235.27224129 13 237.25 C11.66666597 238.04166549 10.33333264 238.83333216 9 239.625 C6.33333333 241.20833333 3.66666667 242.79166667 1 244.375 C0.34002014 244.76686493 -0.31995972 245.15872986 -0.99993896 245.56246948 C-2.33346905 246.35424916 -3.66700584 247.14601754 -5.00054932 247.93777466 C-8.33092733 249.91511992 -11.66118924 251.89266019 -14.99121094 253.87060547 C-21.02626865 257.45501087 -27.06218777 261.03792551 -33.10238647 264.61366272 C-36.4854929 266.61648259 -39.86793551 268.62042123 -43.25 270.625 C-44.24069489 271.21216293 -44.24069489 271.21216293 -45.25140381 271.81118774 C-56.02942355 278.20267343 -66.75659471 284.67470424 -77.44238281 291.21923828 C-83.15140068 294.70633506 -88.88896894 298.13883012 -94.6796875 301.48828125 C-95.28096466 301.83972702 -95.88224182 302.19117279 -96.5017395 302.55326843 C-100.7662726 305 -100.7662726 305 -103 305 C-102.9685791 306.37551025 -102.9685791 306.37551025 -102.93652344 307.77880859 C-102.86778054 311.22683035 -102.81792848 314.67410935 -102.78027344 318.12255859 C-102.76033019 319.60640048 -102.7331651 321.09016555 -102.69824219 322.57373047 C-102.46362009 332.80739441 -102.90360778 341.78719753 -109.25 350.3125 C-115.71220806 356.62783969 -122.9895724 360.2252503 -132.125 360.5 C-140.20198036 360.36153748 -146.9083221 357.61458502 -152.9765625 352.25390625 C-156.08208707 348.81947144 -157.93408676 345.13182648 -160 341 C-160.804375 340.21625 -161.60875 339.4325 -162.4375 338.625 C-165.57012817 335.41596627 -167.19618752 332.06109737 -169 328 C-163.25 324 -163.25 324 -161 324 C-161.00666183 323.4373645 -161.01332367 322.874729 -161.02018738 322.29504395 C-161.36088044 292.05621256 -161.15879437 262.09520216 -158 232 C-157.86609863 230.70771484 -157.73219727 229.41542969 -157.59423828 228.08398438 C-149.6293606 155.05812403 -124.07330303 76.46581916 -64.99365234 28.7644043 C-52.37878082 19.02122693 -15.97855889 -8.46232889 0 0 Z " fill="#9C5439" transform="translate(520,260)"/>
<path d="M0 0 C1.12688736 -0.00571014 2.25377472 -0.01142029 3.41481018 -0.01730347 C4.64190201 -0.01842133 5.86899384 -0.01953918 7.13327026 -0.02069092 C8.4330632 -0.02565582 9.73285614 -0.03062073 11.07203674 -0.03573608 C14.63228257 -0.04882452 18.19250956 -0.05529849 21.75277567 -0.05974674 C23.9812727 -0.06268421 26.20976466 -0.06679035 28.43825912 -0.07125092 C35.42268096 -0.08491866 42.40709111 -0.09458793 49.39152539 -0.09845281 C57.43127142 -0.10292702 65.47084688 -0.12044821 73.51054108 -0.1494534 C79.73921587 -0.171138 85.96784292 -0.18116075 92.19655502 -0.18249393 C95.90976079 -0.18353744 99.62280609 -0.18934736 103.33597183 -0.20731354 C107.4859561 -0.22700295 111.63558801 -0.22247839 115.78561401 -0.21600342 C117.00056046 -0.2252182 118.2155069 -0.23443298 119.4672699 -0.243927 C136.1497639 -0.16270052 152.14016274 6.14765407 164.25045776 17.72930908 C185.12422028 38.91225926 190.79490974 67.58142358 190.78366089 96.32037354 C190.45920432 118.37094101 185.90208004 140.14273601 179.34762573 161.14044189 C179.09287476 161.97591553 178.83812378 162.81138916 178.57565308 163.67218018 C171.97766293 185.145639 163.2634309 205.99629902 153.34762573 226.14044189 C153.01762573 226.14044189 152.68762573 226.14044189 152.34762573 226.14044189 C152.01762573 180.27044189 151.68762573 134.40044189 151.34762573 87.14044189 C149.36762573 86.15044189 147.38762573 85.16044189 145.34762573 84.14044189 C145.34762573 124.73044189 145.34762573 165.32044189 145.34762573 207.14044189 C89.90762573 207.14044189 34.46762573 207.14044189 -22.65237427 207.14044189 C-22.98237427 166.88044189 -23.31237427 126.62044189 -23.65237427 85.14044189 C-28.75246424 87.41151613 -28.75246424 87.41151613 -29.28323078 90.50860882 C-29.28737885 91.92033477 -29.28737885 91.92033477 -29.29161072 93.36058044 C-29.30689819 94.44171616 -29.32218567 95.52285187 -29.3379364 96.63674927 C-29.32931076 97.82285797 -29.32068512 99.00896667 -29.3117981 100.23101807 C-29.32752365 102.10436073 -29.32752365 102.10436073 -29.34356689 104.01554871 C-29.36745514 107.4413249 -29.36923453 110.86578598 -29.36127305 114.29154754 C-29.35815197 117.87110021 -29.3831705 121.45045236 -29.40522766 125.02992249 C-29.44271032 131.80847446 -29.45481812 138.58682581 -29.45785207 145.36547118 C-29.46253835 153.08254033 -29.49544774 160.79940792 -29.53074992 168.5163883 C-29.6027369 184.39105826 -29.63920951 200.26560762 -29.65237427 216.14044189 C-32.52365538 213.3447716 -34.60296314 210.82871229 -36.53518677 207.30841064 C-37.05782104 206.35651855 -37.58045532 205.40462646 -38.118927 204.42388916 C-38.6662146 203.40222656 -39.2135022 202.38056396 -39.77737427 201.32794189 C-40.34850952 200.26567383 -40.91964478 199.20340576 -41.50808716 198.10894775 C-51.63633744 178.98157681 -59.99806486 158.99040508 -65.40237427 138.01544189 C-65.60129272 137.25271973 -65.80021118 136.48999756 -66.00515747 135.7041626 C-69.12390005 122.98167304 -70.03431804 110.26266247 -69.96487427 97.20294189 C-69.96338379 96.50388733 -69.96189331 95.80483276 -69.96035767 95.08459473 C-69.92097403 84.79400366 -69.37591362 75.11496264 -66.65237427 65.14044189 C-66.38553833 63.98802002 -66.11870239 62.83559814 -65.84378052 61.64825439 C-60.81051938 41.55994995 -48.4907562 20.7282811 -30.51809692 9.80377197 C-20.98732736 4.31577266 -11.12488294 0.0338843 0 0 Z " fill="#9C5439" transform="translate(827.6523742675781,545.8595581054688)"/>
<path d="M0 0 C1.6861013 -0.00856522 1.6861013 -0.00856522 3.40626526 -0.01730347 C5.24993935 -0.01898026 5.24993935 -0.01898026 7.13085938 -0.02069092 C8.42889999 -0.02565582 9.72694061 -0.03062073 11.0643158 -0.03573608 C14.62468797 -0.04884175 18.18504129 -0.05530229 21.74543381 -0.05974674 C23.97410076 -0.06268244 26.20276262 -0.06678833 28.431427 -0.07125092 C35.41638826 -0.08492545 42.40133782 -0.09459044 49.38631153 -0.09845281 C57.42605768 -0.10292362 65.46563298 -0.12042609 73.50532722 -0.1494534 C79.73314823 -0.1711509 85.96092147 -0.18116149 92.18877983 -0.18249393 C95.90147351 -0.18353686 99.61400658 -0.18933373 103.32666016 -0.20731354 C107.47894442 -0.22703028 111.630877 -0.22247333 115.78320312 -0.21600342 C116.99612534 -0.2252182 118.20904755 -0.23443298 119.45872498 -0.243927 C138.30435561 -0.15239394 153.51939837 7.31156775 166.84570312 20.48419189 C188.72320983 43.80052282 194.1441446 73.26419191 193.57226562 104.17901611 C193.35032311 110.90942288 192.53277906 117.49566208 191.47460938 124.14044189 C191.36745605 124.81510498 191.26030273 125.48976807 191.14990234 126.18487549 C189.01551758 139.29875915 185.68357386 151.90428948 180.47460938 164.14044189 C179.91335168 165.51879439 179.35359646 166.89775914 178.79492188 168.27716064 C172.06639704 184.75301957 164.71132922 201.49364691 154.47460938 216.14044189 C154.14460937 216.14044189 153.81460938 216.14044189 153.47460938 216.14044189 C153.47517491 215.15645605 153.47517491 215.15645605 153.47575188 214.15259171 C153.48286725 198.19496944 153.45698865 182.23779404 153.39433098 166.28030777 C153.3648268 158.56336645 153.34651375 150.8467008 153.35449219 143.12969971 C153.36141745 136.40396069 153.34740013 129.67864821 153.3081733 122.95301414 C153.28813271 119.39127858 153.27862158 115.83021298 153.29418564 112.26844025 C153.31116331 108.29340993 153.28138657 104.31948247 153.24755859 100.34454346 C153.26588997 98.57077332 153.26588997 98.57077332 153.28459167 96.76116943 C153.26792953 95.67865906 153.2512674 94.59614868 153.23410034 93.48083496 C153.23225676 92.54060612 153.23041317 91.60037727 153.22851372 90.63165665 C152.48743292 87.23074059 152.48743292 87.23074059 146.47460938 84.14044189 C146.14460937 124.73044189 145.81460938 165.32044189 145.47460938 207.14044189 C90.36460937 207.14044189 35.25460938 207.14044189 -21.52539062 207.14044189 C-21.52539062 166.55044189 -21.52539062 125.96044189 -21.52539062 84.14044189 C-23.50539062 85.13044189 -25.48539063 86.12044189 -27.52539062 87.14044189 C-27.85539062 133.34044189 -28.18539062 179.54044189 -28.52539062 227.14044189 C-38.47492838 212.21613526 -44.21291789 194.13024563 -50.33886719 177.37774658 C-51.08465498 175.34294286 -51.84037685 173.31172476 -52.61035156 171.28594971 C-67.24602734 132.41213269 -75.01046587 82.16134972 -57.70117188 42.86700439 C-53.94418854 34.79502348 -49.56380254 27.73862769 -43.52539062 21.14044189 C-42.92339844 20.44692627 -42.32140625 19.75341064 -41.70117188 19.03887939 C-32.92047467 9.50344721 -21.95421654 4.2345378 -9.52539062 1.14044189 C-8.92206909 0.96407825 -8.31874756 0.78771461 -7.69714355 0.60600662 C-5.08488162 0.04600875 -2.67266872 0.00814359 0 0 Z " fill="#9C5439" transform="translate(137.525390625,545.8595581054688)"/>
<path d="M0 0 C55.11 0 110.22 0 167 0 C167.12099405 63.33814308 167.12099405 63.33814308 167.14648438 89.80078125 C167.15235774 95.85758488 167.15841912 101.91438828 167.16479492 107.97119141 C167.16558617 108.7302834 167.16637741 109.4893754 167.16719264 110.27147019 C167.18023051 122.51668451 167.20387642 134.76185645 167.23145839 147.00704567 C167.25954098 159.57960928 167.27618229 172.15215075 167.28226548 184.72474444 C167.28637601 192.47890761 167.29934555 200.23295102 167.3237494 207.98707731 C167.34152408 213.93904831 167.34335842 219.89095827 167.33932304 225.84295654 C167.34014729 228.28017539 167.34610021 230.71739883 167.35761642 233.15459061 C167.37259321 236.48810314 167.36893434 239.82110771 167.36076355 243.15463257 C167.36950207 244.11380502 167.3782406 245.07297747 167.38724393 246.06121576 C167.3116932 257.5041333 163.6943467 267.66184802 155.99609375 276.23046875 C146.90764877 284.89619536 138.19874555 287.7128586 125.85473633 287.52392578 C119.8592026 287.26405745 115.03428344 286.44507108 110 283 C109.3090625 282.55269531 108.618125 282.10539062 107.90625 281.64453125 C99.1726125 275.56683202 93.9345872 268.291747 91 258 C90.12953642 251.77964874 90.36578765 245.46065615 90.43237305 239.19628906 C90.43378584 237.32262205 90.43298702 235.44895228 90.43016052 233.57528687 C90.428734 228.52219295 90.4579994 223.46970019 90.49303031 218.41674519 C90.52442188 213.1237072 90.52723461 207.83065334 90.53315735 202.53753662 C90.54865829 192.52925191 90.58963585 182.52124235 90.6399048 172.51307845 C90.69591522 161.11281419 90.72331414 149.71253634 90.74838197 138.3121686 C90.80055515 114.8746217 90.88943895 91.43733794 91 68 C86.05 68 81.1 68 76 68 C76.00999275 71.46202408 76.00999275 71.46202408 76.02018738 74.99398804 C76.08152017 96.74132143 76.12615076 118.48864341 76.15543652 140.23604393 C76.17089348 151.41667474 76.19196067 162.59724201 76.22631836 173.77783203 C76.2562565 183.52488359 76.27558351 193.27188913 76.28226548 203.01898539 C76.28617025 208.17813416 76.29532269 213.33715128 76.31719017 218.49625778 C76.33762503 223.35697223 76.34381967 228.21750137 76.33932304 233.0782547 C76.34014512 234.85755293 76.34606891 236.63685767 76.35761642 238.41611862 C76.44663692 252.84618637 75.03050627 265.06156125 64.99609375 276.23046875 C55.90764877 284.89619536 47.19874555 287.7128586 34.85473633 287.52392578 C28.8592026 287.26405745 24.03428344 286.44507108 19 283 C18.3090625 282.55269531 17.618125 282.10539062 16.90625 281.64453125 C8.47860418 275.77977026 2.23827894 268.22181765 0 258 C-0.93976711 249.70323683 -0.63243303 241.28880779 -0.56762695 232.95410156 C-0.56621518 230.41049223 -0.56701098 227.86688086 -0.56983948 225.32327271 C-0.57097433 219.86559105 -0.55688721 214.4082938 -0.52865028 208.95069122 C-0.4878527 201.06020129 -0.47497655 193.16985553 -0.46871033 185.27927157 C-0.4577925 172.47451019 -0.42458686 159.66990892 -0.37719727 146.86523438 C-0.33123639 134.43360171 -0.29593393 122.00201291 -0.2746582 109.5703125 C-0.27331822 108.79501269 -0.27197823 108.01971288 -0.27059764 107.22091913 C-0.26019929 101.15672187 -0.2504151 95.09252367 -0.24082482 89.02832508 C-0.19373607 59.35206973 -0.0931262 29.6762156 0 0 Z " fill="#9C543A" transform="translate(806,772)"/>
<path d="M0 0 C55.11 0 110.22 0 167 0 C167.1613254 63.75938161 167.1613254 63.75938161 167.1953125 90.4140625 C167.20314347 96.51464887 167.21122525 102.61523483 167.21972656 108.71582031 C167.22078156 109.48038268 167.22183655 110.24494505 167.22292352 111.03267598 C167.2402998 123.3606074 167.27182346 135.68846386 167.30861118 148.0163509 C167.34607576 160.6770631 167.36824749 173.33773618 167.37635398 185.99850154 C167.38183035 193.80490514 167.39909909 201.6110969 167.43166587 209.41743526 C167.45539746 215.41297901 167.45780597 221.40834222 167.45243073 227.40393829 C167.45352821 229.85644837 167.46144528 232.30896671 167.4768219 234.76142883 C167.65697111 264.98472035 167.65697111 264.98472035 156 277 C147.47596451 285.07255056 137.69032964 287.64065434 126.20507812 287.46606445 C114.84619632 286.97159209 107.69716615 282.2555098 100 274 C90.83619145 262.79121523 90.57087604 251.54344844 90.65942383 237.72045898 C90.66027094 235.86693841 90.65979331 234.01341684 90.65809631 232.15989685 C90.65723823 227.1481039 90.67483379 222.13652788 90.69581819 217.12478518 C90.71461609 211.87975598 90.71633788 206.63472139 90.71989441 201.3896637 C90.72920573 191.46636161 90.75380717 181.54315908 90.78394288 171.61990076 C90.81751531 160.31883284 90.83398005 149.01776007 90.84902918 137.71665466 C90.88035752 114.47771277 90.93370703 91.23886618 91 68 C86.05 68 81.1 68 76 68 C76.00888245 70.32863098 76.01776489 72.65726196 76.0269165 75.05645752 C76.1087317 97.00917975 76.16821867 118.96188184 76.20724869 140.91472244 C76.22784862 152.20069662 76.25592008 163.48655871 76.30175781 174.77246094 C76.34170424 184.61255558 76.36745148 194.45256902 76.37635398 204.29274249 C76.3815555 209.5000659 76.39372735 214.70715706 76.42292023 219.91440582 C76.45021271 224.8227686 76.45841717 229.730805 76.45243073 234.63923645 C76.4535248 236.433828 76.46139584 238.22843127 76.4768219 240.02295685 C76.59260909 254.19621511 75.36559484 266.31579056 65 277 C56.47596451 285.07255056 46.69032964 287.64065434 35.20507812 287.46606445 C23.86276812 286.97231349 16.67173346 282.26695416 9 274 C1.42406928 264.3422536 -0.1563801 255.67598267 -0.12025452 243.63565063 C-0.12110894 242.59330179 -0.12196337 241.55095294 -0.12284368 240.47701776 C-0.12449036 236.98547481 -0.11899036 233.49397993 -0.11352539 230.00244141 C-0.11324332 227.49912517 -0.11340165 224.99580886 -0.1139679 222.49249268 C-0.11419559 217.10360725 -0.11135974 211.71473678 -0.10573006 206.32585526 C-0.09759583 198.53448173 -0.09499786 190.74311405 -0.09374207 182.95173673 C-0.09155457 170.31010632 -0.08490268 157.66848237 -0.07543945 145.02685547 C-0.06625752 132.74820996 -0.05919197 120.46956621 -0.05493164 108.19091797 C-0.05466364 107.42608019 -0.05439565 106.6612424 -0.05411953 105.87322772 C-0.05204005 99.89150845 -0.05008314 93.90978915 -0.04816496 87.92806983 C-0.03873484 58.61870729 -0.01861568 29.30936093 0 0 Z " fill="#9C5439" transform="translate(116,772)"/>
<path d="M0 0 C0.77214844 0.33 1.54429687 0.66 2.33984375 1 C22.77756704 10.36206548 37.78735195 29.76365405 45.89453125 50.26171875 C49.22518566 59.66302406 50.36723844 68.8699365 50.3125 78.8125 C50.30512817 80.39961792 50.30512817 80.39961792 50.29760742 82.01879883 C50.10743397 94.70775669 46.96029433 105.31679104 42 117 C41.53980469 118.09248047 41.53980469 118.09248047 41.0703125 119.20703125 C31.72708022 139.50582351 12.92938759 154.66551985 -7.47265625 162.78125 C-30.49105573 170.73445115 -55.9743842 168.87908064 -77.81567383 158.41821289 C-85.31586435 154.57063876 -91.67632322 149.52692705 -98 144 C-98.68320312 143.42894531 -99.36640625 142.85789063 -100.0703125 142.26953125 C-113.39759096 130.21299329 -123.16997499 109.63795536 -125 92 C-126.42110285 63.15210728 -120.70012166 41.12026429 -101.8125 18.9375 C-75.68723718 -9.1669494 -34.33433781 -15.27738786 0 0 Z " fill="#9C5439" transform="translate(604,98)"/>
<path d="M0 0 C1.0828125 0.45761719 2.165625 0.91523438 3.28125 1.38671875 C10.34686703 4.64296902 16.21159087 8.83143699 22 14 C23.15822266 15.01707031 23.15822266 15.01707031 24.33984375 16.0546875 C37.90389349 28.71446726 46.49913648 47.17150953 47.25 65.6953125 C47.63825825 83.58190698 44.40722788 99.19147751 34 114 C30.33882938 113.54235367 27.0171892 113.00494976 23.46081543 111.98086548 C18.20415955 110.65064802 13.02345241 110.69239145 7.62695312 110.68115234 C5.95734024 110.66608391 5.95734024 110.66608391 4.2539978 110.65071106 C0.59642017 110.61996518 -3.06108454 110.60286763 -6.71875 110.5859375 C-9.26323063 110.56721897 -11.80770509 110.54764504 -14.35217285 110.5272522 C-20.35134696 110.48122859 -26.35051446 110.44379455 -32.34976816 110.41057932 C-39.18422226 110.37225634 -46.01858275 110.32287312 -52.85295773 110.27259517 C-66.90190224 110.16948833 -80.95090714 110.08015938 -95 110 C-96.13011652 107.7941576 -97.25415788 105.58554973 -98.375 103.375 C-98.69210938 102.75753906 -99.00921875 102.14007812 -99.3359375 101.50390625 C-107.44750886 85.44975461 -108.53155872 66.13308959 -103.390625 48.953125 C-96.12093891 27.18746784 -81.37930958 11.23704854 -61 1 C-42.24784564 -7.79989367 -18.99577516 -8.25619127 0 0 Z " fill="#9C5439" transform="translate(250,429)"/>
<path d="M0 0 C13.55544283 11.64173326 24.00587543 28.96048907 26.25 46.8125 C27.60578958 65.22118076 25.15680565 80.21767735 17.25 96.8125 C15.65653444 98.40596556 14.00241873 97.9438206 11.79322815 97.95053101 C10.34878075 97.95871101 10.34878075 97.95871101 8.87515259 97.96705627 C7.80977264 97.9680986 6.7443927 97.96914093 5.64672852 97.97021484 C4.53123123 97.97529556 3.41573395 97.98037628 2.26643372 97.98561096 C-0.16663759 97.99634418 -2.59971895 98.00495268 -5.03280449 98.01173019 C-8.88765033 98.023488 -12.74238254 98.04293571 -16.59718323 98.06484985 C-27.56141329 98.12655029 -38.5256341 98.18065079 -49.48999023 98.21386719 C-56.18912457 98.23425148 -62.88802891 98.27020412 -69.5870533 98.31462479 C-72.13819037 98.32876 -74.68936339 98.3375016 -77.24053764 98.34067917 C-80.8212987 98.34560836 -84.40152583 98.36882201 -87.98217773 98.39599609 C-89.0293396 98.39298996 -90.07650146 98.38998383 -91.15539551 98.3868866 C-97.05111371 98.45305907 -102.0163558 99.19837442 -107.5855875 101.17089272 C-109.75 101.8125 -109.75 101.8125 -113.75 101.8125 C-124.32924255 81.33249363 -129.83912055 60.96824089 -124.25 37.75 C-117.55819903 16.88184018 -104.0151598 0.58900183 -84.54956055 -9.55541992 C-56.19200752 -23.91612271 -24.70537999 -18.85774803 0 0 Z " fill="#9C5439" transform="translate(917.75,441.1875)"/>
<path d="M0 0 C2.3208741 2.9914456 3.78722078 5.60948987 5.0625 9.1875 C5.54396484 10.50814453 5.54396484 10.50814453 6.03515625 11.85546875 C8.38677768 19.51966006 9.31968163 26.54330601 9.25 34.5625 C9.25773438 35.45646484 9.26546875 36.35042969 9.2734375 37.27148438 C9.23088486 51.81384782 3.97308579 63.78979642 -6.1015625 74.1640625 C-11.2255203 78.99832657 -16.53817752 82.23981755 -23 85 C-23.77859375 85.35320312 -24.5571875 85.70640625 -25.359375 86.0703125 C-51.29126463 95.20017897 -82.69327311 83.34450688 -106.1875 72.75 C-107.10144531 72.33814453 -108.01539063 71.92628906 -108.95703125 71.50195312 C-115.8728472 68.27909932 -120.6214624 65.14806551 -124.75 58.5625 C-125.63945313 57.17224609 -125.63945313 57.17224609 -126.546875 55.75390625 C-130.10279276 49.01486856 -129.99774497 40.5923329 -127.875 33.375 C-124.65897175 24.86905612 -118.85443606 18.80254946 -110.70703125 14.90234375 C-98.96997864 10.98999288 -88.74559032 15.15134763 -78.16259766 20.03320312 C-74.5829116 21.63351435 -70.92330887 23.00670414 -67.25 24.375 C-66.59459229 24.62523926 -65.93918457 24.87547852 -65.26391602 25.13330078 C-58.8649874 27.53342023 -51.54771877 29.90404372 -44.91943359 27.12890625 C-42.61232402 25.83628918 -40.40228994 24.44514358 -38.1875 23 C-36.44764308 21.9098152 -34.70669254 20.82137444 -32.96484375 19.734375 C-32.02366699 19.14076172 -31.08249023 18.54714844 -30.11279297 17.93554688 C-24.82689212 14.648753 -19.45984451 11.4994545 -14.0975647 8.33935547 C-11.13027512 6.58979123 -8.16699363 4.83347775 -5.203125 3.078125 C-3.46879689 2.05200407 -1.73444101 1.02593008 0 0 Z " fill="#9C553A" transform="translate(762,369)"/>
<path d="M0 0 C7.50405175 5.37327162 11.91460761 11.82921521 16 20 C17.14420572 37.44444785 17.14420572 37.44444785 12 45 C13.63195312 45.02126953 13.63195312 45.02126953 15.296875 45.04296875 C26.90085004 45.35419155 37.73480538 46.89951538 46.53515625 55.26953125 C51.01407181 60.5606235 53.645783 66.03373242 54 73 C54.07347656 73.88429688 54.14695312 74.76859375 54.22265625 75.6796875 C54.66928708 84.4977833 52.70442553 92.00981512 47.390625 99.16796875 C42.03231523 104.93183866 35.44063439 107.76780968 28 110 C28.40992188 110.49628906 28.81984375 110.99257812 29.2421875 111.50390625 C34.43690361 118.05322536 36.58813404 123.97321567 36.37109375 132.38671875 C35.16231016 140.8991 29.67947071 147.88637243 23 153 C12.40741126 159.31428342 2.54128202 161.93217162 -9.6953125 159.1640625 C-20.22822255 155.94146784 -29.30743768 151.08890042 -37 143 C-40.49846075 144.2442979 -42.8775877 145.58982893 -45.625 148.0625 C-58.56689463 158.34304316 -80.11269014 167.5737989 -97 167 C-99.94769179 164.42076968 -101.58621138 161.91341871 -102 158 C-100.8034668 156.28344727 -100.8034668 156.28344727 -98.94921875 154.56640625 C-98.27487793 153.92396973 -97.60053711 153.2815332 -96.90576172 152.61962891 C-96.17373535 151.94077637 -95.44170898 151.26192383 -94.6875 150.5625 C-81.36508101 137.73685908 -68.43597678 123.00061889 -66 104 C-61.125 107.75 -61.125 107.75 -60 110 C-59.53010494 126.84909414 -71.28845109 141.16091962 -82 153 C-63.62570714 148.75977857 -47.51178248 137.85049172 -35 124 C-34.67 123.34 -34.34 122.68 -34 122 C-30.67485388 123.37592253 -28.66818707 124.75630292 -27 128 C-27.92323365 132.50076406 -30.70162977 134.96202742 -34 138 C-32.7315625 138.556875 -32.7315625 138.556875 -31.4375 139.125 C-28.66339576 140.63814777 -26.90439432 141.86770516 -24.625 143.9375 C-16.68471086 150.99943857 -8.62542963 152.32047558 1.7734375 152.21484375 C8.86714749 151.74250229 13.94545654 149.05454346 19 144 C24.65151135 136.1948046 25.95008449 129.6496533 25 120 C22.85171166 112.98072633 17.37585683 109.96068128 11.23046875 106.54296875 C10.49441406 106.03378906 9.75835938 105.52460938 9 105 C9 104.01 9 103.02 9 102 C12.50016085 101.12495979 14.56109741 101.11571076 18 102 C24.55500458 102.55550886 29.36310684 101.48129348 35 98 C40.02100687 93.67670128 42.71341762 88.25840243 43.28515625 81.7578125 C43.50355465 72.92692057 43.00653996 64.11755391 36.70703125 57.28515625 C31.60636616 53.44506743 24.53035516 51.33219819 18.16796875 51.66015625 C14.34790498 52.25897706 10.64356802 53.27982667 6.9296875 54.34375 C3.8128991 55.0419106 1.18329904 55.24690408 -2 55 C-3.485 54.01 -3.485 54.01 -5 53 C-4.41496937 49.75766155 -3.45378947 48.11382598 -1.1875 45.75 C4.41163887 39.49134717 7.37930527 32.5977135 7.20703125 24.140625 C6.4772781 16.59525281 2.53707744 10.9908667 -3 6 C-14.26712466 -1.80809716 -26.52163216 -3.98351913 -40 -3 C-47.58211458 -1.2471994 -53.97972504 2.63829501 -58.43359375 9.0703125 C-63.54978336 17.78453457 -65.442941 26.02160613 -65.6875 36.0625 C-65.72166016 37.02349609 -65.75582031 37.98449219 -65.79101562 38.97460938 C-65.87256667 41.31628927 -65.94200966 43.65763863 -66 46 C-69.83805991 46.12955476 -71.95321804 46.01969767 -75.5625 44.5 C-81.89329618 41.9773839 -89.15290832 41.71191127 -95.625 43.87890625 C-103.41364844 47.86532598 -108.1327169 53.85087962 -111 62 C-113.70401639 72.56851477 -113.47329687 85.46891407 -108 95 C-107.38125 96.093125 -106.7625 97.18625 -106.125 98.3125 C-101.35065965 104.35063633 -96.5378435 107.54006053 -89 109 C-85.50551456 109.33826193 -82.00566888 109.52385774 -78.49658203 109.62207031 C-74.81174569 109.74855007 -73.14779284 109.90147144 -70 112 C-70.495 113.485 -70.495 113.485 -71 115 C-80.32698468 118.68340503 -92.21633143 115.78356245 -101 112 C-113.18201904 105.2700734 -119.49808087 96.1749139 -123.61328125 83.04296875 C-125.63928611 72.33993298 -123.95925737 61.13369154 -118.6796875 51.62109375 C-113.88482006 44.71700867 -107.01081819 39.53675909 -99 37 C-91.86606749 35.89094327 -82.68705972 34.65647014 -76 38 C-76.04640625 36.91203125 -76.0928125 35.8240625 -76.140625 34.703125 C-76.52525594 21.8414775 -75.14546842 10.80851488 -66 1 C-48.04145329 -16.17774033 -19.62283499 -12.17969068 0 0 Z " fill="#9F593F" transform="translate(811,24)"/>
<path d="M0 0 C50.82 0 101.64 0 154 0 C154 6.27 154 12.54 154 19 C103.18 19 52.36 19 0 19 C0 12.73 0 6.46 0 0 Z " fill="#9C5439" transform="translate(296,840)"/>
<path d="M0 0 C36.3 0 72.6 0 110 0 C110 6.27 110 12.54 110 19 C73.7 19 37.4 19 0 19 C0 12.73 0 6.46 0 0 Z " fill="#9C5439" transform="translate(681,840)"/>
<path d="M0 0 C2.36373592 3.47512551 4.10515615 7.25337693 6 11 C-1.48140399 15.49961274 -8.96763141 19.99052031 -16.48046875 24.4375 C-17.10221985 24.80558273 -17.72397095 25.17366547 -18.36456299 25.55290222 C-19.64596412 26.31144136 -20.92737701 27.06996063 -22.20880127 27.82846069 C-34.67068446 35.20683809 -47.08816038 42.65259388 -59.43823242 50.21679688 C-61.54271201 51.50216186 -63.65208064 52.77956139 -65.76660156 54.04833984 C-68.07445698 55.44134771 -70.35577367 56.85667486 -72.63183594 58.29931641 C-73.85562507 59.05061115 -75.0798979 59.80111863 -76.3046875 60.55078125 C-77.39507324 61.23438721 -78.48545898 61.91799316 -79.60888672 62.62231445 C-85.65911508 65.0803014 -91.04388524 63.24549447 -97 60.9375 C-97.94875 60.57527344 -98.8975 60.21304688 -99.875 59.83984375 C-100.57625 59.56269531 -101.2775 59.28554688 -102 59 C-102 58.34 -102 57.68 -102 57 C-101.16984375 56.54753906 -100.3396875 56.09507812 -99.484375 55.62890625 C-90.173202 50.49529078 -81.07092197 45.04320767 -72 39.5 C-63.96197624 34.58869616 -55.91445273 29.73057501 -47.66748047 25.17529297 C-42.42048924 22.26713654 -37.26722408 19.21424489 -32.125 16.125 C-31.29033203 15.62484375 -30.45566406 15.1246875 -29.59570312 14.609375 C-25.32186507 12.03780036 -21.07791502 9.42767797 -16.8671875 6.75390625 C-16.04847168 6.23876465 -15.22975586 5.72362305 -14.38623047 5.19287109 C-12.8289471 4.21044739 -11.27811216 3.21770492 -9.73486328 2.21337891 C-9.0386084 1.77558105 -8.34235352 1.3377832 -7.625 0.88671875 C-7.01914062 0.49701904 -6.41328125 0.10731934 -5.7890625 -0.29418945 C-3.44641173 -1.21839843 -2.30569755 -0.94982761 0 0 Z " fill="#9D573C" transform="translate(795,327)"/>
<path d="M0 0 C26.73 0 53.46 0 81 0 C81 6.27 81 12.54 81 19 C54.27 19 27.54 19 0 19 C0 12.73 0 6.46 0 0 Z " fill="#9C553A" transform="translate(985,840)"/>
<path d="M0 0 C26.4 0 52.8 0 80 0 C80 6.27 80 12.54 80 19 C53.6 19 27.2 19 0 19 C0 12.73 0 6.46 0 0 Z " fill="#9C5439" transform="translate(22,840)"/>
<path d="M0 0 C9.24 0 18.48 0 28 0 C29.66764459 5.00293378 31.19397458 9.99151166 32.625 15.0625 C32.96917969 16.24682617 32.96917969 16.24682617 33.3203125 17.45507812 C35.61595354 25.60597028 35.61595354 25.60597028 35 29 C33.390625 30.51171875 33.390625 30.51171875 31.25 31.6875 C30.55390625 32.08324219 29.8578125 32.47898437 29.140625 32.88671875 C28.43421875 33.25410156 27.7278125 33.62148438 27 34 C26.41992188 34.36867188 25.83984375 34.73734375 25.2421875 35.1171875 C18.78376227 37.66005179 9.27077027 37.05117946 2.73046875 34.94921875 C-0.63793926 33.2773442 -3.33789087 31.66210913 -6 29 C-5.84198348 19.04495911 -2.61769718 9.53110254 0 0 Z " fill="#FDFBFB" transform="translate(552,299)"/>
<path d="M0 0 C17.49 0 34.98 0 53 0 C53 5.94 53 11.88 53 18 C35.51 18 18.02 18 0 18 C0 12.06 0 6.12 0 0 Z " fill="#FFFFFF" transform="translate(603,355)"/>
<path d="M0 0 C9.73896022 6.0088136 16.23100864 13.9087164 20.4375 24.50390625 C20.4375 25.82390625 20.4375 27.14390625 20.4375 28.50390625 C17.4375 27.50390625 17.4375 27.50390625 16.078125 25.2109375 C15.38976562 23.77814453 15.38976562 23.77814453 14.6875 22.31640625 C11.13400279 15.58484274 7.39505126 11.44049682 0.25 8.62890625 C-8.56786621 6.1009173 -16.24712335 7.08866227 -24.5625 10.50390625 C-26.69921875 10.20703125 -26.69921875 10.20703125 -28.5625 9.50390625 C-30.12936372 7.34014206 -30.64905661 6.17406427 -30.3046875 3.5078125 C-29.5625 1.50390625 -29.5625 1.50390625 -26.375 -0.74609375 C-18.28331319 -4.40696462 -7.95359862 -3.75441251 0 0 Z " fill="#9F593F" transform="translate(779.5625,105.49609375)"/>
<path d="M0 0 C1.10313617 3.3094085 0.89941114 4.19482294 0.00390625 7.44921875 C-0.33930664 8.72055664 -0.33930664 8.72055664 -0.68945312 10.01757812 C-0.93630859 10.89865234 -1.18316406 11.77972656 -1.4375 12.6875 C-1.68048828 13.58017578 -1.92347656 14.47285156 -2.17382812 15.39257812 C-2.77509306 17.59721622 -3.38406657 19.79942345 -4 22 C-4.99 21.34 -5.98 20.68 -7 20 C-5.07443364 13.14381674 -2.7527517 6.56747868 0 0 Z " fill="#E4D0C9" transform="translate(444,401)"/>
</svg>
