<?xml version="1.0" encoding="UTF-8"?>
<!DOCTYPE svg PUBLIC "-//W3C//DTD SVG 1.1//EN" "http://www.w3.org/Graphics/SVG/1.1/DTD/svg11.dtd">
<svg xmlns="http://www.w3.org/2000/svg" version="1.1" width="512px" height="512px" style="shape-rendering:geometricPrecision; text-rendering:geometricPrecision; image-rendering:optimizeQuality; fill-rule:evenodd; clip-rule:evenodd" xmlns:xlink="http://www.w3.org/1999/xlink">
<g><path style="opacity:0.968" fill="#020100" d="M 117.5,-0.5 C 130.167,-0.5 142.833,-0.5 155.5,-0.5C 157.604,1.37183 158.937,3.70516 159.5,6.5C 158.947,9.58675 157.28,12.0867 154.5,14C 143.505,14.4998 132.505,14.6665 121.5,14.5C 121.5,17.8333 121.5,21.1667 121.5,24.5C 121.5,27.5 121.5,30.5 121.5,33.5C 210.833,33.5 300.167,33.5 389.5,33.5C 389.5,30.5 389.5,27.5 389.5,24.5C 389.5,21.1667 389.5,17.8333 389.5,14.5C 320.833,14.6667 252.166,14.5 183.5,14C 180.72,12.0867 179.053,9.58675 178.5,6.5C 179.063,3.70516 180.396,1.37183 182.5,-0.5C 252.833,-0.5 323.167,-0.5 393.5,-0.5C 399.55,1.72451 403.383,6.05784 405,12.5C 405.881,21.5623 405.548,30.5623 404,39.5C 399.215,47.3222 392.215,50.9888 383,50.5C 382.677,55.8657 382.177,61.1991 381.5,66.5C 409.835,66.3334 438.169,66.5 466.5,67C 478.12,69.6195 484.953,76.7862 487,88.5C 490.155,156.697 463.321,209.197 406.5,246C 382.989,258.256 359.322,270.256 335.5,282C 332.887,284.795 332.887,287.629 335.5,290.5C 339.779,291.274 344.113,291.774 348.5,292C 352.616,293.116 354.949,295.782 355.5,300C 354.692,302.088 353.692,304.088 352.5,306C 344.063,308.216 335.73,307.883 327.5,305C 324.763,303.386 322.597,301.219 321,298.5C 315.833,303 310.667,307.5 305.5,312C 308.853,319.596 309.353,327.429 307,335.5C 303.71,342.121 298.543,346.621 291.5,349C 297.012,358.5 305.012,365.167 315.5,369C 325.732,376.963 331.065,387.463 331.5,400.5C 343.689,399.321 355.356,401.154 366.5,406C 374.108,411.278 378.942,418.445 381,427.5C 381.5,439.495 381.667,451.495 381.5,463.5C 387.245,463.211 392.912,463.711 398.5,465C 401,466.167 402.833,468 404,470.5C 404.667,482.167 404.667,493.833 404,505.5C 402.64,508.023 400.807,510.023 398.5,511.5C 303.167,511.5 207.833,511.5 112.5,511.5C 110.193,510.023 108.36,508.023 107,505.5C 106.333,493.833 106.333,482.167 107,470.5C 108.167,468 110,466.167 112.5,465C 118.088,463.711 123.755,463.211 129.5,463.5C 129.333,451.495 129.5,439.495 130,427.5C 133.056,414.11 141.223,405.61 154.5,402C 162.787,400.762 171.12,400.262 179.5,400.5C 179.94,387.452 185.274,376.952 195.5,369C 205.988,365.167 213.988,358.5 219.5,349C 207.944,345.119 202.278,337.119 202.5,325C 202.248,320.344 203.248,316.01 205.5,312C 200.333,307.5 195.167,303 190,298.5C 187.038,302.456 183.204,305.289 178.5,307C 171.724,307.92 165.057,307.586 158.5,306C 155.804,302.656 155.304,299.156 157,295.5C 158.319,293.513 160.152,292.346 162.5,292C 166.887,291.774 171.221,291.274 175.5,290.5C 178.113,287.629 178.113,284.795 175.5,282C 151.678,270.256 128.011,258.256 104.5,246C 47.6788,209.197 20.8455,156.697 24,88.5C 26.0468,76.7862 32.8801,69.6195 44.5,67C 72.8314,66.5 101.165,66.3334 129.5,66.5C 128.823,61.1991 128.323,55.8657 128,50.5C 118.785,50.9888 111.785,47.3222 107,39.5C 105.452,30.5623 105.119,21.5623 106,12.5C 107.617,6.05784 111.45,1.72451 117.5,-0.5 Z M 47.5,82.5 C 75.1667,82.5 102.833,82.5 130.5,82.5C 133.053,119.85 135.886,157.184 139,194.5C 140.489,203.943 142.489,213.276 145,222.5C 148.643,233.445 152.643,244.111 157,254.5C 142.911,247.206 128.744,240.039 114.5,233C 61.4758,199.12 36.9758,150.62 41,87.5C 42.8049,85.1743 44.9716,83.5077 47.5,82.5 Z M 362.5,204.5 C 363.778,198.221 364.778,191.888 365.5,185.5C 368.792,184.943 371.292,183.276 373,180.5C 375.832,147.856 378.332,115.19 380.5,82.5C 409.23,82.0246 437.897,82.5246 466.5,84C 468.81,85.6374 470.31,87.804 471,90.5C 473.126,152.425 448.293,199.925 396.5,233C 382.256,240.039 368.089,247.206 354,254.5C 356.655,246.832 359.655,239.165 363,231.5C 365.067,225.064 366.901,218.564 368.5,212C 368.121,208.128 366.121,205.628 362.5,204.5 Z"/></g>
<g><path style="opacity:0.996" fill="#f6a637" d="M 159.5,6.5 C 165.833,6.5 172.167,6.5 178.5,6.5C 179.053,9.58675 180.72,12.0867 183.5,14C 252.166,14.5 320.833,14.6667 389.5,14.5C 389.5,17.8333 389.5,21.1667 389.5,24.5C 300.167,24.5 210.833,24.5 121.5,24.5C 121.5,21.1667 121.5,17.8333 121.5,14.5C 132.505,14.6665 143.505,14.4998 154.5,14C 157.28,12.0867 158.947,9.58675 159.5,6.5 Z"/></g>
<g><path style="opacity:1" fill="#e99531" d="M 121.5,24.5 C 210.833,24.5 300.167,24.5 389.5,24.5C 389.5,27.5 389.5,30.5 389.5,33.5C 300.167,33.5 210.833,33.5 121.5,33.5C 121.5,30.5 121.5,27.5 121.5,24.5 Z"/></g>
<g><path style="opacity:1" fill="#fdc83d" d="M 143.5,49.5 C 204.5,49.5 265.5,49.5 326.5,49.5C 325.054,73.1838 323.387,96.8505 321.5,120.5C 307.793,120.643 294.126,119.976 280.5,118.5C 275.098,103.795 269.598,89.1279 264,74.5C 258.261,69.2271 252.595,69.2271 247,74.5C 241.402,89.1279 235.902,103.795 230.5,118.5C 227.893,119.318 225.226,119.818 222.5,120C 209.5,120.333 196.5,120.667 183.5,121C 175.591,123.705 173.424,128.872 177,136.5C 189.044,146.879 201.377,156.879 214,166.5C 210.494,182.181 206.661,197.847 202.5,213.5C 204.561,223.524 210.227,226.024 219.5,221C 231.327,212.586 243.327,204.419 255.5,196.5C 267.673,204.419 279.673,212.586 291.5,221C 303.905,225.928 309.405,221.761 308,208.5C 304.103,195.183 300.27,181.85 296.5,168.5C 296.876,166.617 297.876,165.117 299.5,164C 305.377,159.283 311.377,154.783 317.5,150.5C 318.633,203.354 305.8,253.021 279,299.5C 259.736,300.161 240.569,300.828 221.5,301.5C 219.801,301.66 218.134,301.494 216.5,301C 177.238,268.979 156.071,227.479 153,176.5C 149.928,134.152 146.761,91.8184 143.5,49.5 Z"/></g>
<g><path style="opacity:1" fill="#ebb334" d="M 143.5,49.5 C 217.998,48.5008 292.665,48.1674 367.5,48.5C 363.67,92.4506 360.836,136.451 359,180.5C 360.563,183.023 362.73,184.69 365.5,185.5C 364.778,191.888 363.778,198.221 362.5,204.5C 358.975,204.346 356.141,205.679 354,208.5C 344.173,245.95 324.34,276.784 294.5,301C 270.169,301.5 245.836,301.667 221.5,301.5C 240.569,300.828 259.736,300.161 279,299.5C 305.8,253.021 318.633,203.354 317.5,150.5C 320.736,147.203 324.403,144.37 328.5,142C 334.406,138.359 336.573,133.193 335,126.5C 331.523,122.178 327.023,120.178 321.5,120.5C 323.387,96.8505 325.054,73.1838 326.5,49.5C 265.5,49.5 204.5,49.5 143.5,49.5 Z"/></g>
<g><path style="opacity:1" fill="#050302" d="M 321.5,120.5 C 327.023,120.178 331.523,122.178 335,126.5C 336.573,133.193 334.406,138.359 328.5,142C 324.403,144.37 320.736,147.203 317.5,150.5C 311.377,154.783 305.377,159.283 299.5,164C 297.876,165.117 296.876,166.617 296.5,168.5C 300.27,181.85 304.103,195.183 308,208.5C 309.405,221.761 303.905,225.928 291.5,221C 279.673,212.586 267.673,204.419 255.5,196.5C 243.327,204.419 231.327,212.586 219.5,221C 210.227,226.024 204.561,223.524 202.5,213.5C 206.661,197.847 210.494,182.181 214,166.5C 201.377,156.879 189.044,146.879 177,136.5C 173.424,128.872 175.591,123.705 183.5,121C 196.5,120.667 209.5,120.333 222.5,120C 225.226,119.818 227.893,119.318 230.5,118.5C 235.902,103.795 241.402,89.1279 247,74.5C 252.595,69.2271 258.261,69.2271 264,74.5C 269.598,89.1279 275.098,103.795 280.5,118.5C 294.126,119.976 307.793,120.643 321.5,120.5 Z"/></g>
<g><path style="opacity:1" fill="#ede6d6" d="M 254.5,95.5 C 255.497,95.4701 256.164,95.9701 256.5,97C 260.779,109.174 265.446,121.174 270.5,133C 284.061,134.695 297.727,135.695 311.5,136C 301.242,144.047 291.075,152.213 281,160.5C 280.333,163.167 280.333,165.833 281,168.5C 284.067,179.202 287.234,189.869 290.5,200.5C 290.167,200.833 289.833,201.167 289.5,201.5C 279.637,194.471 269.637,187.638 259.5,181C 256.833,180.333 254.167,180.333 251.5,181C 241.659,187.42 231.993,194.087 222.5,201C 221.668,201.688 221.002,201.521 220.5,200.5C 223.766,189.869 226.933,179.202 230,168.5C 230.667,165.833 230.667,163.167 230,160.5C 219.925,152.213 209.758,144.047 199.5,136C 212.459,134.789 225.459,134.122 238.5,134C 240.726,132.773 242.226,130.939 243,128.5C 247.338,117.653 251.171,106.653 254.5,95.5 Z"/></g>
<g><path style="opacity:1" fill="#ee784a" d="M 292.5,328.5 C 292.785,326.712 292.452,325.045 291.5,323.5C 267.304,324.829 243.137,324.829 219,323.5C 218.506,325.134 218.34,326.801 218.5,328.5C 216.505,323.457 217.838,319.29 222.5,316C 244.5,315.333 266.5,315.333 288.5,316C 293.162,319.29 294.495,323.457 292.5,328.5 Z"/></g>
<g><path style="opacity:1" fill="#fc6e2e" d="M 292.5,328.5 C 292.141,330.371 291.141,331.871 289.5,333C 266.833,333.667 244.167,333.667 221.5,333C 219.859,331.871 218.859,330.371 218.5,328.5C 218.34,326.801 218.506,325.134 219,323.5C 243.137,324.829 267.304,324.829 291.5,323.5C 292.452,325.045 292.785,326.712 292.5,328.5 Z"/></g>
<g><path style="opacity:1" fill="#fcc83d" d="M 235.5,349.5 C 242.167,349.5 248.833,349.5 255.5,349.5C 255.5,366.5 255.5,383.5 255.5,400.5C 235.5,400.5 215.5,400.5 195.5,400.5C 195.401,392.863 198.401,386.697 204.5,382C 220.176,376.16 230.509,365.327 235.5,349.5 Z"/></g>
<g><path style="opacity:1" fill="#ecb434" d="M 235.5,349.5 C 248.673,348.175 262.006,348.175 275.5,349.5C 280.514,365.348 290.847,376.182 306.5,382C 312.899,386.962 315.899,393.462 315.5,401.5C 275.33,401.832 235.33,401.499 195.5,400.5C 215.5,400.5 235.5,400.5 255.5,400.5C 255.5,383.5 255.5,366.5 255.5,349.5C 248.833,349.5 242.167,349.5 235.5,349.5 Z"/></g>
<g><path style="opacity:1" fill="#f6a637" d="M 321.5,416.5 C 321.923,426.58 321.423,436.58 320,446.5C 317.152,452.84 312.318,456.674 305.5,458C 252.168,458.5 198.834,458.667 145.5,458.5C 145.5,449.167 145.5,439.833 145.5,430.5C 146.805,423.691 150.805,419.191 157.5,417C 212.166,416.5 266.832,416.333 321.5,416.5 Z"/></g>
<g><path style="opacity:1" fill="#e99531" d="M 321.5,416.5 C 332.172,416.333 342.839,416.5 353.5,417C 360.195,419.191 364.195,423.691 365.5,430.5C 365.5,441.5 365.5,452.5 365.5,463.5C 292.167,463.5 218.833,463.5 145.5,463.5C 145.5,461.833 145.5,460.167 145.5,458.5C 198.834,458.667 252.168,458.5 305.5,458C 312.318,456.674 317.152,452.84 320,446.5C 321.423,436.58 321.923,426.58 321.5,416.5 Z"/></g>
<g><path style="opacity:1" fill="#cc832b" d="M 145.5,430.5 C 145.5,439.833 145.5,449.167 145.5,458.5C 145.5,460.167 145.5,461.833 145.5,463.5C 218.833,463.5 292.167,463.5 365.5,463.5C 365.5,452.5 365.5,441.5 365.5,430.5C 366.495,441.654 366.828,452.988 366.5,464.5C 292.5,464.5 218.5,464.5 144.5,464.5C 144.172,452.988 144.505,441.654 145.5,430.5 Z"/></g>
<g><path style="opacity:1" fill="#eeb535" d="M 122.5,479.5 C 122.5,484.167 122.5,488.833 122.5,493.5C 193.167,493.667 263.834,493.5 334.5,493C 341.813,491.567 345.147,487.067 344.5,479.5C 359.5,479.5 374.5,479.5 389.5,479.5C 389.5,485.167 389.5,490.833 389.5,496.5C 300.167,496.5 210.833,496.5 121.5,496.5C 121.178,490.642 121.511,484.975 122.5,479.5 Z"/></g>
<g><path style="opacity:1" fill="#fdc83d" d="M 122.5,479.5 C 196.5,479.5 270.5,479.5 344.5,479.5C 345.147,487.067 341.813,491.567 334.5,493C 263.834,493.5 193.167,493.667 122.5,493.5C 122.5,488.833 122.5,484.167 122.5,479.5 Z"/></g>
</svg>
