<?xml version="1.0" encoding="UTF-8"?>
<svg version="1.1" xmlns="http://www.w3.org/2000/svg" width="512" height="512">
<path d="M0 0 C27.39 0 54.78 0 83 0 C83 27.39 83 54.78 83 83 C79.0561167 81.02805835 77.20699723 79.36810329 74.2265625 76.2109375 C73.3190625 75.26992187 72.4115625 74.32890625 71.4765625 73.359375 C70.0457864 71.86664777 68.62020143 70.3698879 67.20507812 68.86230469 C65.83036338 67.40274277 64.43492038 65.96279236 63.0390625 64.5234375 C62.21615723 63.65638184 61.39325195 62.78932617 60.54541016 61.89599609 C58.1241125 59.84183625 58.1241125 59.84183625 55.18505859 59.27978516 C46.27297316 61.2950122 40.26084961 71.2844034 34.66633606 77.98176575 C-13.97253036 136.01697772 -13.97253036 136.01697772 -42.86328125 138.57421875 C-58.65287861 139.71762056 -74.7809716 138.01162919 -90.31236267 135.17237854 C-93.27638387 134.98227341 -94.57570032 135.3283147 -97 137 C-98.46650956 139.93301912 -98.16538474 142.56154861 -98.20532227 145.83642578 C-98.21522186 146.53897491 -98.22512146 147.24152405 -98.23532104 147.96536255 C-98.2669568 150.29197803 -98.29170159 152.61861394 -98.31640625 154.9453125 C-98.33697399 156.55671729 -98.35797042 158.16811666 -98.37937927 159.7795105 C-98.43461854 164.02422706 -98.48401961 168.26899247 -98.53222656 172.51379395 C-98.58242806 176.84387568 -98.63812117 181.17388635 -98.69335938 185.50390625 C-98.80096363 194.00254411 -98.90240354 202.50124135 -99 211 C-99.98968434 210.9968576 -100.97936869 210.99371519 -101.99904346 210.99047756 C-126.10393439 210.91600428 -150.2084515 210.89338984 -174.31344318 210.92484188 C-185.97060771 210.9388572 -197.62731657 210.93615332 -209.28442383 210.89379883 C-219.44733764 210.85691602 -229.60969574 210.8516998 -239.77263325 210.88417059 C-245.15178444 210.90026018 -250.52989357 210.90072245 -255.90896034 210.86323357 C-260.97790194 210.82840715 -266.04504543 210.83610096 -271.11393547 210.87562943 C-272.96859999 210.8827402 -274.82339861 210.87465729 -276.67790985 210.84977531 C-287.33658983 210.71656836 -294.03832387 211.07351892 -301.97267437 218.79497623 C-302.64169183 219.52263408 -303.31070929 220.25029192 -304 221 C-304.99089649 221.94283696 -305.98382753 222.88355017 -306.98046875 223.8203125 C-307.70878906 224.58085937 -308.43710937 225.34140625 -309.1875 226.125 C-312.70391738 229.72487665 -316.31516861 233.08532464 -320.13671875 236.35546875 C-322.61493052 238.54273742 -324.90364167 240.89279879 -327.21875 243.25 C-329.71896185 245.70634849 -332.37680516 247.96309368 -335.03125 250.25 C-336.93023071 251.93798286 -338.72005988 253.68769734 -340.5 255.5 C-343.53832417 258.59356643 -346.7476532 261.42105507 -350.03125 264.25 C-351.93023071 265.93798286 -353.72005988 267.68769734 -355.5 269.5 C-357.89053167 271.93389732 -360.35046262 274.21355559 -362.9375 276.4375 C-365.74576347 278.85617779 -368.39970593 281.35899683 -371 284 C-374.2215855 287.27202128 -377.58592145 290.29316055 -381.06640625 293.28515625 C-383.56431556 295.5004738 -385.88024989 297.8689817 -388.21875 300.25 C-390.71896185 302.70634849 -393.37680516 304.96309368 -396.03125 307.25 C-397.93023071 308.93798286 -399.72005988 310.68769734 -401.5 312.5 C-404.53832417 315.59356643 -407.7476532 318.42105507 -411.03125 321.25 C-412.93023071 322.93798286 -414.72005988 324.68769734 -416.5 326.5 C-420.14445418 330.2032357 -423.94561151 333.74660046 -428 337 C-428.33 337 -428.66 337 -429 337 C-431.94565769 298.6771267 -431.94565769 298.6771267 -425.671875 290.13671875 C-422.25173746 286.6499422 -418.37816902 283.95424435 -414.21826172 281.41650391 C-410.88460677 279.28774912 -408.19080876 276.63107813 -405.375 273.875 C-404.33136641 272.90794843 -403.28447246 271.94440372 -402.234375 270.984375 C-398.68365864 267.71317383 -395.15322083 264.420431 -391.625 261.125 C-390.99980469 260.54105469 -390.37460937 259.95710938 -389.73046875 259.35546875 C-387.82005627 257.57058645 -385.90996569 255.78536039 -384 254 C-376.3482067 246.84740626 -368.68907908 239.70395559 -360.98388672 232.60888672 C-355.94101282 227.95876479 -350.94153315 223.26289895 -345.94165039 218.56665039 C-341.30116228 214.21114847 -336.63649623 209.8833616 -331.95117188 205.57617188 C-328.88803553 202.75596085 -325.84338998 199.91736733 -322.8125 197.0625 C-322.09642578 196.38832031 -321.38035156 195.71414063 -320.64257812 195.01953125 C-319.24909551 193.70607544 -317.8570864 192.39105398 -316.46679688 191.07421875 C-315.82806641 190.47222656 -315.18933594 189.87023437 -314.53125 189.25 C-313.68916992 188.45335937 -313.68916992 188.45335937 -312.83007812 187.640625 C-311.92418945 186.82851563 -311.92418945 186.82851563 -311 186 C-310.28377755 185.31672732 -309.5675551 184.63345465 -308.82962894 183.92947674 C-305.26816967 181.50097711 -303.18368698 181.495884 -298.89585876 181.48774719 C-297.84012746 181.47755366 -297.84012746 181.47755366 -296.76306826 181.4671542 C-294.41065449 181.44923252 -292.05923371 181.45965558 -289.70678711 181.4699707 C-288.01797183 181.46287184 -286.32916318 181.45400796 -284.6403656 181.44351196 C-280.05781512 181.41990145 -275.4755493 181.42063382 -270.89295268 181.42542672 C-266.09814052 181.42601993 -261.30344251 181.40333174 -256.50868225 181.38285828 C-247.42587054 181.34743709 -238.34313884 181.3314287 -229.26026589 181.3230831 C-215.92512468 181.31012766 -202.59005056 181.27185486 -189.25497532 181.22898388 C-188.27750416 181.22584519 -187.30003301 181.22270651 -186.29294151 181.21947271 C-184.34418433 181.21319255 -182.39542735 181.20684898 -180.44667059 181.20044011 C-174.73508577 181.18236488 -169.02354036 181.17126563 -163.31192958 181.16614306 C-159.76194962 181.16231303 -156.21198396 181.15469993 -152.6620121 181.1463356 C-151.01404413 181.14337378 -149.36607202 181.14213998 -147.7181015 181.14274788 C-145.47108608 181.14341419 -143.22416107 181.13807147 -140.97715759 181.13130188 C-139.08984877 181.12941597 -139.08984877 181.12941597 -137.1644125 181.12749195 C-134.56826336 181.02289493 -132.46170975 180.77411073 -130 180 C-128.85856193 176.33489946 -128.84212997 172.85161481 -128.79467773 169.02832031 C-128.78477814 168.3352327 -128.77487854 167.64214508 -128.76467896 166.92805481 C-128.73317581 164.64477922 -128.70835098 162.36148286 -128.68359375 160.078125 C-128.66301455 158.491999 -128.64201782 156.90587836 -128.62062073 155.31976318 C-128.56549979 151.15069939 -128.51604663 146.98158692 -128.46777344 142.81243896 C-128.41748544 138.55590497 -128.36183751 134.29944142 -128.30664062 130.04296875 C-128.19918113 121.69537211 -128.0977092 113.34771643 -128 105 C-126.87770996 105.0030162 -125.75541992 105.00603241 -124.59912109 105.00914001 C-114.00576281 105.03304784 -103.41299827 105.02015571 -92.81971741 104.97153378 C-87.37392237 104.9477128 -81.92873861 104.93671174 -76.48291016 104.95532227 C-71.22405703 104.97281695 -65.96630039 104.95622642 -60.70758057 104.91632271 C-58.70462941 104.90705171 -56.70158294 104.90991835 -54.69866943 104.92530632 C-42.54260879 105.54395293 -42.54260879 105.54395293 -31.94555664 100.67382812 C-30.92603338 99.48039853 -29.94218639 98.25538308 -29 97 C-27.74325271 95.75638985 -26.47242711 94.52673205 -25.18359375 93.31640625 C-23.93229167 92.06770833 -22.68358834 90.81640081 -21.4375 89.5625 C-20.81681641 88.94568359 -20.19613281 88.32886719 -19.55664062 87.69335938 C-16.54471757 84.67515493 -13.64166069 81.61932444 -10.87890625 78.37109375 C-4.88897929 71.43711594 1.80951557 65.13765516 8.32080078 58.69970703 C17.30756854 49.84306954 17.30756854 49.84306954 25.74804688 40.47070312 C27 39 27 39 29 37 C29.69870038 34.20852884 29.69870038 34.20852884 29 31 C27.19737725 28.39118596 24.95889934 26.30808673 22.65625 24.140625 C22.0125647 23.51017273 21.36887939 22.87972046 20.70568848 22.23016357 C18.65083834 20.22207402 16.57673941 18.23542247 14.5 16.25 C12.42688743 14.24693474 10.35808664 12.23967389 8.29431152 10.22698975 C7.00958773 8.97631567 5.71877331 7.73186302 4.42150879 6.49420166 C2.91032516 5.0338172 1.44967139 3.52146363 0 2 C0 1.34 0 0.68 0 0 Z " fill="#1F3A71" transform="translate(429,169)"/>
<path d="M0 0 C0.86883706 1.57533086 1.71959068 3.16064509 2.5625 4.75 C3.03816406 5.63171875 3.51382813 6.5134375 4.00390625 7.421875 C5.14892806 10.38546087 5.25318992 11.13134899 4 14 C1.60522461 15.94433594 1.60522461 15.94433594 -1.59765625 17.984375 C-2.17412399 18.35750824 -2.75059174 18.73064148 -3.3445282 19.11508179 C-5.24250932 20.33979071 -7.15096611 21.54656671 -9.0625 22.75 C-11.74896146 24.44604003 -14.43279581 26.1460921 -17.11328125 27.8515625 C-17.78873993 28.28012543 -18.46419861 28.70868835 -19.16012573 29.15023804 C-23.33246211 31.82977279 -27.23788049 34.67028957 -31.10546875 37.7734375 C-46.7140479 50.00440051 -59.64453612 51.02455188 -78.78393555 49.8215332 C-82.50589457 50.02807325 -84.14766817 50.61549938 -87 53 C-88.50817326 55.63259562 -88.50817326 55.63259562 -89.4921875 58.734375 C-89.88664062 59.86617187 -90.28109375 60.99796875 -90.6875 62.1640625 C-91.079375 63.34742188 -91.47125 64.53078125 -91.875 65.75 C-92.49761719 67.50183594 -92.49761719 67.50183594 -93.1328125 69.2890625 C-96.07932569 77.56405316 -96.07932569 77.56405316 -95 86 C-91.4882966 88.3411356 -88.29474906 88.84667955 -84.2265625 89.55078125 C-82.66392525 89.83975361 -81.10142937 90.12949125 -79.5390625 90.41992188 C-77.08275431 90.86913285 -74.62583572 91.31235405 -72.16601562 91.74194336 C-69.78678943 92.16069673 -67.41314712 92.60391815 -65.0390625 93.05078125 C-63.94351547 93.23233513 -63.94351547 93.23233513 -62.82583618 93.41755676 C-59.48797944 94.06182965 -56.93064082 95.04228899 -54.02807617 96.81201172 C-50.77444016 101.92649096 -51.38639518 107.02750257 -51.51171875 112.95703125 C-51.51879349 114.21513107 -51.52586823 115.4732309 -51.53315735 116.76945496 C-51.5563763 120.10249327 -51.60123452 123.43379975 -51.65667725 126.76635742 C-51.70797262 130.17155782 -51.73096771 133.57694297 -51.75585938 136.98242188 C-51.80670894 143.65591917 -51.90457191 150.32639567 -52 157 C-60.91 157 -69.82 157 -79 157 C-79.05607422 153.26236328 -79.05607422 153.26236328 -79.11328125 149.44921875 C-79.15949038 147.0364503 -79.2107261 144.62383739 -79.26245117 142.21118164 C-79.29570863 140.53419441 -79.32373808 138.85709503 -79.34643555 137.17993164 C-79.37996737 134.76920775 -79.43227978 132.35951238 -79.48828125 129.94921875 C-79.49467117 129.19912033 -79.5010611 128.44902191 -79.50764465 127.67619324 C-79.60691859 123.63161006 -79.60691859 123.63161006 -81.33227539 120.06518555 C-84.03548606 118.33862894 -87.03260393 117.79911197 -90.125 117.125 C-91.58266412 116.78131906 -93.03967906 116.43487519 -94.49609375 116.0859375 C-95.24487793 115.90772461 -95.99366211 115.72951172 -96.76513672 115.54589844 C-107.06361321 113.03034311 -117.14666106 109.75324648 -127.125 106.1875 C-128.0018042 105.89262695 -128.8786084 105.59775391 -129.78198242 105.29394531 C-136.15771069 102.93669808 -140.17864601 99.65196451 -144 94 C-147.64665863 83.0600241 -143.35930964 72.55016439 -139.66552734 62.24389648 C-138.7478631 59.6815332 -137.85818836 57.11073295 -136.97265625 54.53710938 C-136.39482815 52.88225332 -135.81545414 51.22793606 -135.234375 49.57421875 C-134.97066101 48.81678879 -134.70694702 48.05935883 -134.4352417 47.27897644 C-131.76429785 39.86590186 -129.19621405 33.98088437 -122 30 C-118.77629929 28.9254331 -116.6724528 28.94761971 -113.29223633 29.06445312 C-111.52391197 29.11573868 -111.52391197 29.11573868 -109.71986389 29.1680603 C-108.43687912 29.2054129 -107.15389435 29.2427655 -105.83203125 29.28125 C-63.60479801 30.56941354 -63.60479801 30.56941354 -26.04345703 13.17333984 C-21.33308482 9.80965194 -16.28886403 7.15262294 -11.1875 4.4375 C-10.37893555 3.97939941 -9.57037109 3.52129883 -8.73730469 3.04931641 C-3.34429881 0 -3.34429881 0 0 0 Z " fill="#0FA4DE" transform="translate(398,103)"/>
<path d="M0 0 C1.421875 2.1796875 1.421875 2.1796875 2.75 4.875 C3.19859375 5.75929687 3.6471875 6.64359375 4.109375 7.5546875 C5 10 5 10 4 13 C1.92822266 14.61547852 1.92822266 14.61547852 -0.8359375 16.37890625 C-1.86605957 17.04470703 -2.89618164 17.71050781 -3.95751953 18.39648438 C-5.68078258 19.4916796 -7.40673234 20.58253499 -9.13323975 21.67260742 C-10.950502 22.82113553 -12.76520512 23.9735361 -14.578125 25.12890625 C-15.19620026 25.52244293 -15.81427551 25.91597961 -16.45108032 26.32144165 C-20.67520133 29.04794288 -24.65746327 31.9856065 -28.609375 35.08984375 C-44.86188139 47.61275924 -57.53302674 50.45056525 -77.92333984 48.96679688 C-81.16484399 49.00177899 -83.14946554 49.48659166 -86 51 C-87.51740068 53.31322588 -87.51740068 53.31322588 -88.5 56.1875 C-88.90605469 57.25613281 -89.31210938 58.32476562 -89.73046875 59.42578125 C-90.14941406 60.60527344 -90.56835938 61.78476563 -91 63 C-91.23283691 63.63856934 -91.46567383 64.27713867 -91.70556641 64.93505859 C-95.43894786 74.219769 -95.43894786 74.219769 -96 84 C-92.66803102 87.41532129 -88.64802397 87.87702313 -84.12890625 88.61328125 C-82.56952259 88.8944131 -81.01028188 89.17633882 -79.45117188 89.45898438 C-77.00599434 89.88979319 -74.56008643 90.31290262 -72.11108398 90.72143555 C-69.73762406 91.12206889 -67.37123837 91.5530895 -65.00390625 91.98828125 C-63.9130648 92.15738762 -63.9130648 92.15738762 -62.80018616 92.32991028 C-58.55581684 93.13261002 -55.44767503 94.39533697 -52.86500549 97.98338318 C-50.93840442 102.47493399 -51.40199193 107.38206683 -51.51171875 112.1796875 C-51.51879349 113.3475882 -51.52586823 114.51548889 -51.53315735 115.71878052 C-51.56107983 119.43817993 -51.62381948 123.15605783 -51.6875 126.875 C-51.71258541 129.40101988 -51.73539815 131.92706343 -51.75585938 134.453125 C-51.80664243 140.63647019 -51.90451071 146.81653812 -52 153 C-60.91 153 -69.82 153 -79 153 C-79.06058594 150.72480469 -79.12117188 148.44960938 -79.18359375 146.10546875 C-79.24540725 143.9012528 -79.30878494 141.697087 -79.37231445 139.49291992 C-79.41561833 137.96138982 -79.45729667 136.42981285 -79.49731445 134.89819336 C-79.55512732 132.69630818 -79.61878969 130.49465789 -79.68359375 128.29296875 C-79.70030624 127.60849167 -79.71701874 126.92401459 -79.73423767 126.21879578 C-79.8273555 123.22879896 -80.04687437 120.85937689 -81 118 C-83.73398088 117.19929068 -86.33664383 116.59210339 -89.125 116.0625 C-90.78820474 115.71697565 -92.45096163 115.36928912 -94.11328125 115.01953125 C-94.94424316 114.84760254 -95.77520508 114.67567383 -96.63134766 114.49853516 C-106.33222166 112.45677215 -115.63458544 109.57568357 -124.9375 106.1875 C-125.8138208 105.88038086 -126.6901416 105.57326172 -127.59301758 105.25683594 C-134.26915719 102.74253667 -140.88087559 99.24917215 -144.18408203 92.62573242 C-148.04041438 80.21554259 -142.53468565 68.48663078 -138.1875 57 C-137.53661104 55.2233148 -136.88750923 53.44597381 -136.24023438 51.66796875 C-135.61359919 49.96554865 -134.98539958 48.2637034 -134.35546875 46.5625 C-134.0647197 45.77601074 -133.77397064 44.98952148 -133.47441101 44.17919922 C-130.86004275 37.28564142 -128.63591663 32.79195236 -122 29 C-118.6974338 27.89500315 -115.73457003 27.94236133 -112.27050781 28.06445312 C-110.53232033 28.11573868 -110.53232033 28.11573868 -108.75901794 28.1680603 C-107.50307327 28.2054129 -106.2471286 28.2427655 -104.953125 28.28125 C-63.22087333 29.41857938 -63.22087333 29.41857938 -26.05957031 12.17773438 C-21.33336877 8.81372881 -16.28936227 6.11849349 -11.1875 3.375 C-10.37901611 2.90852051 -9.57053223 2.44204102 -8.73754883 1.96142578 C-3.34089124 -1.11363041 -3.34089124 -1.11363041 0 0 Z " fill="#1F3A71" transform="translate(207,184)"/>
<path d="M0 0 C2.15064135 2.70983887 3.74068554 5.32353263 5.15625 8.4765625 C5.73052734 9.72953125 5.73052734 9.72953125 6.31640625 11.0078125 C7.10840308 12.75909261 7.89744609 14.51171142 8.68359375 16.265625 C9.25787109 17.51472656 9.25787109 17.51472656 9.84375 18.7890625 C10.35711914 19.92915771 10.35711914 19.92915771 10.88085938 21.09228516 C11.99735144 23.31384249 11.99735144 23.31384249 15 25 C17.47807094 25.51664583 17.47807094 25.51664583 20.25390625 25.78125 C21.27291016 25.90113281 22.29191406 26.02101563 23.34179688 26.14453125 C25.49279157 26.38193637 27.64383349 26.61891402 29.79492188 26.85546875 C30.81263672 26.97535156 31.83035156 27.09523438 32.87890625 27.21875 C33.8129126 27.32123047 34.74691895 27.42371094 35.70922852 27.52929688 C38 28 38 28 40 30 C35.43783339 34.6713674 30.81979938 39.12701998 25.76171875 43.26171875 C23.61995661 45.37498738 22.33788741 47.29739493 21 50 C20.96141101 52.67530972 20.96141101 52.67530972 21.6171875 55.4140625 C21.81183594 56.42210937 22.00648438 57.43015625 22.20703125 58.46875 C22.42746094 59.5103125 22.64789063 60.551875 22.875 61.625 C23.29545318 63.69923567 23.70980682 65.77471983 24.1171875 67.8515625 C24.30909668 68.76760254 24.50100586 69.68364258 24.69873047 70.62744141 C25 73 25 73 24 76 C23.43079834 75.66677734 22.86159668 75.33355469 22.27514648 74.99023438 C19.67138635 73.47774245 17.05485257 71.98883647 14.4375 70.5 C13.54224609 69.97535156 12.64699219 69.45070313 11.72460938 68.91015625 C4.79613277 64.95694132 4.79613277 64.95694132 -3 65 C-6.61126704 66.58685249 -9.97882767 68.49964959 -13.375 70.5 C-15.17372952 71.532557 -16.97316894 72.56387868 -18.7734375 73.59375 C-19.56153809 74.05458984 -20.34963867 74.51542969 -21.16162109 74.99023438 C-23 76 -23 76 -24 76 C-23.51734049 69.43329037 -22.73921968 63.05565114 -21.40234375 56.60546875 C-21.26957031 55.74566406 -21.13679688 54.88585938 -21 54 C-20.81824219 53.07445312 -20.63648438 52.14890625 -20.44921875 51.1953125 C-21.35049201 45.9666492 -25.11404231 43.22022863 -28.875 39.6875 C-29.62136719 38.95982422 -30.36773437 38.23214844 -31.13671875 37.48242188 C-34.75481847 33.81412985 -34.75481847 33.81412985 -39 31 C-39 30.34 -39 29.68 -39 29 C-31.78738723 27.40473976 -24.54862257 26.3666158 -17.22265625 25.46484375 C-13.99317264 25.09636302 -13.99317264 25.09636302 -11 24 C-10.26549539 22.02390602 -9.61633754 20.01607849 -9 18 C-7.72435246 15.02536125 -6.32978367 12.10905411 -4.9375 9.1875 C-4.57333984 8.41212891 -4.20917969 7.63675781 -3.83398438 6.83789062 C-1.13446065 1.13446065 -1.13446065 1.13446065 0 0 Z " fill="#0FA4DE" transform="translate(470,6)"/>
<path d="M0 0 C8.44176667 2.713425 16.71110853 5.85734053 25 9 C25 13.91592076 23.13157566 16.17863035 20.375 20 C19.88427002 20.69641602 19.39354004 21.39283203 18.88793945 22.11035156 C17.82272242 23.6211137 16.75363215 25.12915059 15.68115234 26.63476562 C13.41076473 29.8290025 11.1700753 33.04361014 8.92773438 36.25756836 C7.17034501 38.77457005 5.4080433 41.28806631 3.64453125 43.80078125 C1.13549462 47.37705915 -1.36635031 50.95822857 -3.86328125 54.54296875 C-4.49322998 55.4462793 -5.12317871 56.34958984 -5.7722168 57.28027344 C-6.97681065 59.00787911 -8.18016722 60.73634837 -9.38208008 62.46582031 C-17.95439976 74.74771756 -17.95439976 74.74771756 -24 77 C-28.56225637 77.65175091 -30.36214285 77.41706045 -34.25 74.875 C-38.66097062 70.26353071 -40.29132862 66.65228125 -40.49609375 60.22265625 C-39.10515561 53.99081529 -34.29547543 48.42272461 -30.625 43.3125 C-29.55682847 41.81282981 -28.48914059 40.31281505 -27.421875 38.8125 C-26.86435547 38.03003906 -26.30683594 37.24757813 -25.73242188 36.44140625 C-22.75677522 32.24799213 -19.8180313 28.02883459 -16.875 23.8125 C-11.30179131 15.83749644 -5.67733097 7.90117028 0 0 Z " fill="#1F3A71" transform="translate(64,297)"/>
<path d="M0 0 C8.44176667 2.713425 16.71110853 5.85734053 25 9 C25 13.91592076 23.13157566 16.17863035 20.375 20 C19.88427002 20.69641602 19.39354004 21.39283203 18.88793945 22.11035156 C17.82272242 23.6211137 16.75363215 25.12915059 15.68115234 26.63476562 C13.41076473 29.8290025 11.1700753 33.04361014 8.92773438 36.25756836 C7.17034501 38.77457005 5.4080433 41.28806631 3.64453125 43.80078125 C1.13549462 47.37705915 -1.36635031 50.95822857 -3.86328125 54.54296875 C-4.49322998 55.4462793 -5.12317871 56.34958984 -5.7722168 57.28027344 C-6.97681065 59.00787911 -8.18016722 60.73634837 -9.38208008 62.46582031 C-17.95439976 74.74771756 -17.95439976 74.74771756 -24 77 C-28.56225637 77.65175091 -30.36214285 77.41706045 -34.25 74.875 C-38.119824 70.82927491 -39.6893824 67.83264383 -40.625 62.3125 C-40.34238469 56.91252886 -37.34396159 53.10063028 -34.28857422 48.81005859 C-32.81168267 46.73547089 -31.36079781 44.64380579 -29.91015625 42.55078125 C-26.92506956 38.25546131 -23.91634756 33.97720893 -20.90234375 29.70214844 C-17.73631402 25.20502099 -14.58807292 20.69546261 -11.4375 16.1875 C-7.65234163 10.77166401 -3.85002462 5.36995986 0 0 Z " fill="#0FA4DE" transform="translate(255,217)"/>
<path d="M0 0 C5.38625629 4.22383773 7.88649647 9.35870816 10.015625 15.74609375 C10.81249937 23.51561887 8.91907789 29.15068273 5.328125 35.93359375 C1.74451578 40.2920374 -2.64909203 42.96766609 -7.984375 44.74609375 C-15.88534819 45.35849447 -23.54274748 45.91957089 -29.984375 40.74609375 C-35.02958722 35.94160736 -38.59000495 31.5843232 -39.3203125 24.4765625 C-39.41416888 15.96378898 -39.05290722 10.19267542 -33.21875 3.81640625 C-23.6644642 -5.24888067 -11.40937729 -7.20946872 0 0 Z " fill="#0FA4DE" transform="translate(318.984375,63.25390625)"/>
<path d="M0 0 C5.47905528 5.09768252 7.86837423 11.61064104 8.5 18.9375 C8.40295265 25.4275418 5.90755221 31.23033153 1.8125 36.1875 C-6.69189507 43.07201029 -12.99876452 44.14155305 -23.8125 43.3125 C-30.47004287 41.64811428 -35.00371378 36.84038702 -38.8125 31.3125 C-42.03529713 24.90987636 -42.05122904 16.62461621 -40.08984375 9.796875 C-36.80588979 2.83010627 -31.56835548 -1.30957226 -24.8125 -4.6875 C-16.12679419 -7.29321174 -7.09864327 -5.57859118 0 0 Z " fill="#1F3A71" transform="translate(129.8125,144.6875)"/>
<path d="M0 0 C-0.57653813 3.03992832 -1.2528939 5.99946037 -2 9 C-2.24878906 10.13308594 -2.49757812 11.26617187 -2.75390625 12.43359375 C-4.56040452 19.01491489 -6.38706758 23.2560258 -12.20800781 26.87475586 C-15.11543995 28.48658114 -17.86699999 29.85687838 -21 31 C-24 30 -24 30 -25.421875 27.8203125 C-25.86015625 26.93085938 -26.2984375 26.04140625 -26.75 25.125 C-27.19859375 24.24070313 -27.6471875 23.35640625 -28.109375 22.4453125 C-29 20 -29 20 -28 17 C-26.46875 15.74487305 -26.46875 15.74487305 -24.5 14.51171875 C-23.78142822 14.05514893 -23.06285645 13.5985791 -22.32250977 13.12817383 C-21.55608154 12.65275146 -20.78965332 12.1773291 -20 11.6875 C-18.44625503 10.7062983 -16.89286647 9.72453197 -15.33984375 8.7421875 C-14.5907373 8.27135742 -13.84163086 7.80052734 -13.06982422 7.31542969 C-9.84625985 5.2667667 -6.70280514 3.1046885 -3.56640625 0.92578125 C-2 0 -2 0 0 0 Z " fill="#0FA4DE" transform="translate(247,157)"/>
</svg>
