<?xml version="1.0" encoding="UTF-8"?>
<!DOCTYPE svg PUBLIC "-//W3C//DTD SVG 1.1//EN" "http://www.w3.org/Graphics/SVG/1.1/DTD/svg11.dtd">
<svg xmlns="http://www.w3.org/2000/svg" version="1.1" width="512px" height="512px" style="shape-rendering:geometricPrecision; text-rendering:geometricPrecision; image-rendering:optimizeQuality; fill-rule:evenodd; clip-rule:evenodd" xmlns:xlink="http://www.w3.org/1999/xlink">
<g><path style="opacity:0.989" fill="#020101" d="M 138.5,-0.5 C 216.5,-0.5 294.5,-0.5 372.5,-0.5C 403.16,30.3266 433.66,61.3266 464,92.5C 464.667,204.167 464.667,315.833 464,427.5C 458.828,444.486 447.328,452.152 429.5,450.5C 429.833,474.167 418.167,485.833 394.5,485.5C 392.294,498.618 384.96,507.284 372.5,511.5C 271.167,511.5 169.833,511.5 68.5,511.5C 57.103,507.932 49.9363,500.265 47,488.5C 46.3333,449.5 46.3333,410.5 47,371.5C 48.2725,368.778 50.4392,367.444 53.5,367.5C 56.617,367.642 59.117,368.976 61,371.5C 61.3333,409.5 61.6667,447.5 62,485.5C 63.4329,490.598 66.5995,494.098 71.5,496C 170.5,496.667 269.5,496.667 368.5,496C 370.066,495.392 371.4,494.558 372.5,493.5C 375.163,491.911 377.163,489.578 378.5,486.5C 363.178,485.667 347.844,485.167 332.5,485C 329.211,483.59 327.544,481.09 327.5,477.5C 327.78,474.713 329.113,472.547 331.5,471C 355.167,470.667 378.833,470.333 402.5,470C 407.249,468.746 410.582,465.912 412.5,461.5C 413.404,460.791 413.737,459.791 413.5,458.5C 414.477,455.713 414.81,452.713 414.5,449.5C 323.5,449.5 232.5,449.5 141.5,449.5C 134.842,448.338 129.176,445.338 124.5,440.5C 120.765,435.821 118.265,430.487 117,424.5C 116.333,323.167 116.333,221.833 117,120.5C 118.886,117.758 121.386,116.091 124.5,115.5C 127.195,115.933 129.362,117.266 131,119.5C 131.333,220.833 131.667,322.167 132,423.5C 133.757,429.426 137.591,433.092 143.5,434.5C 241.332,435.666 339.332,435.832 437.5,435C 443.333,433.167 447.167,429.333 449,423.5C 449.5,316.834 449.667,210.167 449.5,103.5C 441.833,103.5 434.167,103.5 426.5,103.5C 412.829,103.667 399.163,103.5 385.5,103C 372.89,100.392 364.723,92.892 361,80.5C 360.5,58.5025 360.333,36.5025 360.5,14.5C 286.776,14.0093 213.109,14.5093 139.5,16C 136.179,18.4516 133.679,21.6182 132,25.5C 131.667,48.1667 131.333,70.8333 131,93.5C 129.728,96.2224 127.561,97.5557 124.5,97.5C 120.83,97.6734 118.33,96.0067 117,92.5C 116.5,78.1705 116.333,63.8372 116.5,49.5C 106.906,47.9671 100.406,51.6337 97,60.5C 96.3333,193.5 96.3333,326.5 97,459.5C 99.1667,464.333 102.667,467.833 107.5,470C 173.5,470.333 239.5,470.667 305.5,471C 307.923,472.571 309.256,474.737 309.5,477.5C 309.531,481.597 307.531,484.097 303.5,485C 237.5,485.667 171.5,485.667 105.5,485C 100.199,483.016 95.1991,480.516 90.5,477.5C 86.1974,472.228 83.5307,466.228 82.5,459.5C 82.5,331.5 82.5,203.5 82.5,75.5C 78.9581,75.1872 75.6248,75.5206 72.5,76.5C 67.5746,78.2569 64.0746,81.5902 62,86.5C 61.6667,172.833 61.3333,259.167 61,345.5C 59.2872,348.278 56.7872,349.945 53.5,350.5C 50.3252,350.16 48.1585,348.493 47,345.5C 46.3333,258.167 46.3333,170.833 47,83.5C 52.1723,66.5142 63.6723,58.8475 81.5,60.5C 83.2715,47.2268 90.6049,38.7268 103.5,35C 107.821,34.501 112.154,34.3343 116.5,34.5C 115.029,17.075 122.363,5.40837 138.5,-0.5 Z"/></g>
<g><path style="opacity:1" fill="#eeecee" d="M 426.5,103.5 C 426.667,210.834 426.5,318.167 426,425.5C 425.647,428.539 424.48,431.205 422.5,433.5C 329.502,434.5 236.502,434.833 143.5,434.5C 137.591,433.092 133.757,429.426 132,423.5C 131.667,322.167 131.333,220.833 131,119.5C 129.362,117.266 127.195,115.933 124.5,115.5C 124.5,109.5 124.5,103.5 124.5,97.5C 127.561,97.5557 129.728,96.2224 131,93.5C 131.333,70.8333 131.667,48.1667 132,25.5C 133.679,21.6182 136.179,18.4516 139.5,16C 213.109,14.5093 286.776,14.0093 360.5,14.5C 360.333,36.5025 360.5,58.5025 361,80.5C 364.723,92.892 372.89,100.392 385.5,103C 399.163,103.5 412.829,103.667 426.5,103.5 Z"/></g>
<g><path style="opacity:1" fill="#b2aab3" d="M 375.5,25.5 C 396.632,46.1317 417.632,66.965 438.5,88C 421.167,88.6667 403.833,88.6667 386.5,88C 381,86.5 377.5,83 376,77.5C 375.5,60.1699 375.333,42.8365 375.5,25.5 Z"/></g>
<g><path style="opacity:1" fill="#f9cf01" d="M 124.5,97.5 C 124.5,103.5 124.5,109.5 124.5,115.5C 121.386,116.091 118.886,117.758 117,120.5C 116.333,221.833 116.333,323.167 117,424.5C 118.265,430.487 120.765,435.821 124.5,440.5C 125.513,450.008 130.513,456.508 139.5,460C 230.668,460.167 321.668,460.667 412.5,461.5C 410.582,465.912 407.249,468.746 402.5,470C 378.833,470.333 355.167,470.667 331.5,471C 329.113,472.547 327.78,474.713 327.5,477.5C 321.5,477.5 315.5,477.5 309.5,477.5C 309.256,474.737 307.923,472.571 305.5,471C 239.5,470.667 173.5,470.333 107.5,470C 102.667,467.833 99.1667,464.333 97,459.5C 96.3333,326.5 96.3333,193.5 97,60.5C 100.406,51.6337 106.906,47.9671 116.5,49.5C 116.333,63.8372 116.5,78.1705 117,92.5C 118.33,96.0067 120.83,97.6734 124.5,97.5 Z"/></g>
<g><path style="opacity:1" fill="#88c6fa" d="M 72.5,76.5 C 75.5,76.5 78.5,76.5 81.5,76.5C 81.1671,204.334 81.5004,332.001 82.5,459.5C 83.5307,466.228 86.1974,472.228 90.5,477.5C 92.5756,485.41 97.5756,490.577 105.5,493C 194.499,493.5 283.499,493.667 372.5,493.5C 371.4,494.558 370.066,495.392 368.5,496C 269.5,496.667 170.5,496.667 71.5,496C 66.5995,494.098 63.4329,490.598 62,485.5C 61.6667,447.5 61.3333,409.5 61,371.5C 59.117,368.976 56.617,367.642 53.5,367.5C 53.5,361.833 53.5,356.167 53.5,350.5C 56.7872,349.945 59.2872,348.278 61,345.5C 61.3333,259.167 61.6667,172.833 62,86.5C 64.0746,81.5902 67.5746,78.2569 72.5,76.5 Z"/></g>
<g><path style="opacity:1" fill="#30475a" d="M 72.5,76.5 C 75.6248,75.5206 78.9581,75.1872 82.5,75.5C 82.5,203.5 82.5,331.5 82.5,459.5C 81.5004,332.001 81.1671,204.334 81.5,76.5C 78.5,76.5 75.5,76.5 72.5,76.5 Z"/></g>
<g><path style="opacity:1" fill="#d2cbd1" d="M 426.5,103.5 C 434.167,103.5 441.833,103.5 449.5,103.5C 449.667,210.167 449.5,316.834 449,423.5C 447.167,429.333 443.333,433.167 437.5,435C 339.332,435.832 241.332,435.666 143.5,434.5C 236.502,434.833 329.502,434.5 422.5,433.5C 424.48,431.205 425.647,428.539 426,425.5C 426.5,318.167 426.667,210.834 426.5,103.5 Z"/></g>
<g><path style="opacity:1" fill="#060606" d="M 187.5,161.5 C 255.834,161.333 324.167,161.5 392.5,162C 399.933,166.337 400.266,171.003 393.5,176C 324.833,176.667 256.167,176.667 187.5,176C 183.788,173.487 182.622,169.987 184,165.5C 185.376,164.295 186.542,162.962 187.5,161.5 Z"/></g>
<g><path style="opacity:1" fill="#040404" d="M 187.5,217.5 C 256.167,217.333 324.834,217.5 393.5,218C 400.266,222.997 399.933,227.663 392.5,232C 324.167,232.667 255.833,232.667 187.5,232C 182.235,227.076 182.235,222.242 187.5,217.5 Z"/></g>
<g><path style="opacity:1" fill="#090909" d="M 188.5,272.5 C 256.501,272.333 324.501,272.5 392.5,273C 399.466,276.846 400.133,281.513 394.5,287C 325.167,287.667 255.833,287.667 186.5,287C 182.054,281.397 182.721,276.564 188.5,272.5 Z"/></g>
<g><path style="opacity:1" fill="#f9c500" d="M 124.5,440.5 C 129.176,445.338 134.842,448.338 141.5,449.5C 231.998,450.499 322.665,450.833 413.5,450.5C 413.5,453.167 413.5,455.833 413.5,458.5C 413.737,459.791 413.404,460.791 412.5,461.5C 321.668,460.667 230.668,460.167 139.5,460C 130.513,456.508 125.513,450.008 124.5,440.5 Z"/></g>
<g><path style="opacity:1" fill="#554300" d="M 141.5,449.5 C 232.5,449.5 323.5,449.5 414.5,449.5C 414.81,452.713 414.477,455.713 413.5,458.5C 413.5,455.833 413.5,453.167 413.5,450.5C 322.665,450.833 231.998,450.499 141.5,449.5 Z"/></g>
<g><path style="opacity:1" fill="#60b6fd" d="M 90.5,477.5 C 95.1991,480.516 100.199,483.016 105.5,485C 171.5,485.667 237.5,485.667 303.5,485C 307.531,484.097 309.531,481.597 309.5,477.5C 315.5,477.5 321.5,477.5 327.5,477.5C 327.544,481.09 329.211,483.59 332.5,485C 347.844,485.167 363.178,485.667 378.5,486.5C 377.163,489.578 375.163,491.911 372.5,493.5C 283.499,493.667 194.499,493.5 105.5,493C 97.5756,490.577 92.5756,485.41 90.5,477.5 Z"/></g>
</svg>
