<?xml version="1.0" encoding="UTF-8"?>
<!DOCTYPE svg PUBLIC "-//W3C//DTD SVG 1.1//EN" "http://www.w3.org/Graphics/SVG/1.1/DTD/svg11.dtd">
<svg xmlns="http://www.w3.org/2000/svg" version="1.1" width="512px" height="475px" style="shape-rendering:geometricPrecision; text-rendering:geometricPrecision; image-rendering:optimizeQuality; fill-rule:evenodd; clip-rule:evenodd" xmlns:xlink="http://www.w3.org/1999/xlink">
<g><path style="opacity:0.854" fill="#000000" d="M 41.5,-0.5 C 43.5,-0.5 45.5,-0.5 47.5,-0.5C 55.4881,10.7987 62.9881,22.4653 70,34.5C 70.0359,41.3188 67.0359,42.9855 61,39.5C 53.1801,28.0204 46.0134,16.187 39.5,4C 39.5186,2.16698 40.1852,0.666976 41.5,-0.5 Z"/></g>
<g><path style="opacity:0.868" fill="#000000" d="M 421.5,-0.5 C 423.5,-0.5 425.5,-0.5 427.5,-0.5C 429.391,1.83574 429.891,4.5024 429,7.5C 423,16.8333 417,26.1667 411,35.5C 407.952,39.0095 404.619,39.3428 401,36.5C 400.333,34.5 400.333,32.5 401,30.5C 408.056,20.2846 414.889,9.95122 421.5,-0.5 Z"/></g>
<g><path style="opacity:0.893" fill="#000000" d="M 106.5,12.5 C 109.368,12.085 111.535,13.085 113,15.5C 113.667,30.8333 113.667,46.1667 113,61.5C 110,65.5 107,65.5 104,61.5C 103.333,46.1667 103.333,30.8333 104,15.5C 104.698,14.3094 105.531,13.3094 106.5,12.5 Z"/></g>
<g><path style="opacity:0.89" fill="#000000" d="M 358.5,12.5 C 361.368,12.085 363.535,13.085 365,15.5C 365.667,30.8333 365.667,46.1667 365,61.5C 362.271,64.8639 359.271,65.1972 356,62.5C 355.333,46.5 355.333,30.5 356,14.5C 356.995,13.9341 357.828,13.2674 358.5,12.5 Z"/></g>
<g><path style="opacity:0.849" fill="#000000" d="M 241.5,22.5 C 250.476,22.1138 253.309,26.1138 250,34.5C 245.293,38.4934 241.293,37.8267 238,32.5C 236.756,28.191 237.923,24.8577 241.5,22.5 Z"/></g>
<g><path style="opacity:0.854" fill="#000000" d="M 394.5,41.5 C 400.448,40.2834 402.948,42.6168 402,48.5C 397.119,57.0982 391.619,65.2649 385.5,73C 380.178,73.3403 378.011,70.8403 379,65.5C 383.928,57.3015 389.095,49.3015 394.5,41.5 Z"/></g>
<g><path style="opacity:0.859" fill="#000000" d="M 69.5,42.5 C 72.3646,42.0548 74.8646,42.7215 77,44.5C 81.3333,51.1667 85.6667,57.8333 90,64.5C 91.7528,69.3567 90.2528,72.3567 85.5,73.5C 83.6171,73.1243 82.1171,72.1243 81,70.5C 76.6667,63.5 72.3333,56.5 68,49.5C 67.1668,46.829 67.6668,44.4957 69.5,42.5 Z"/></g>
<g><path style="opacity:0.871" fill="#000000" d="M 32.5,60.5 C 34.5273,60.3379 36.5273,60.5045 38.5,61C 50.5,67.3333 62.5,73.6667 74.5,80C 78.5,83 78.5,86 74.5,89C 72.5,89.6667 70.5,89.6667 68.5,89C 56.5,82.6667 44.5,76.3333 32.5,70C 28.6491,66.8557 28.6491,63.689 32.5,60.5 Z"/></g>
<g><path style="opacity:0.863" fill="#000000" d="M 430.5,60.5 C 437.934,60.1995 439.934,63.3662 436.5,70C 424.167,76.3333 411.833,82.6667 399.5,89C 394.932,90.6505 392.266,89.1505 391.5,84.5C 391.876,82.6171 392.876,81.1171 394.5,80C 406.721,73.7258 418.721,67.2258 430.5,60.5 Z"/></g>
<g><path style="opacity:0.958" fill="#040302" d="M 403.5,183.5 C 405.248,185.16 405.748,187.16 405,189.5C 382.167,212.333 359.333,235.167 336.5,258C 342.93,261.603 348.597,266.103 353.5,271.5C 355.57,273.964 357.404,276.631 359,279.5C 384.667,253.833 410.333,228.167 436,202.5C 435.228,199.536 433.395,197.202 430.5,195.5C 425.536,190.035 420.37,184.702 415,179.5C 412.427,182.767 409.261,183.434 405.5,181.5C 405.338,179.473 405.505,177.473 406,175.5C 416.167,165.333 426.333,155.167 436.5,145C 445.339,140.149 454.006,140.483 462.5,146C 465.667,149.167 468.833,152.333 472,155.5C 478,164.167 478,172.833 472,181.5C 439.972,213.861 407.639,245.861 375,277.5C 374.5,309.832 374.333,342.165 374.5,374.5C 387.504,374.333 400.504,374.5 413.5,375C 414,375.5 414.5,376 415,376.5C 414.236,406.942 398.736,424.776 368.5,430C 361.174,430.5 353.841,430.666 346.5,430.5C 346.917,439.915 346.417,449.248 345,458.5C 342.545,463.149 338.712,465.983 333.5,467C 249.456,467.989 165.456,467.656 81.5,466C 76.5723,464.073 73.4056,460.573 72,455.5C 71.3333,418.167 71.3333,380.833 72,343.5C 72.8159,342.177 73.9826,341.511 75.5,341.5C 77.3904,341.297 78.8904,341.963 80,343.5C 80.0124,380.585 80.679,417.585 82,454.5C 82.9025,455.701 84.0692,456.535 85.5,457C 120.498,457.5 155.498,457.667 190.5,457.5C 237.835,457.667 285.168,457.5 332.5,457C 334.667,456.167 336.167,454.667 337,452.5C 337.5,445.174 337.666,437.841 337.5,430.5C 298.5,430.5 259.5,430.5 220.5,430.5C 193.467,430.937 166.467,430.437 139.5,429C 122.232,423.734 112.065,412.234 109,394.5C 108.333,326.167 108.333,257.833 109,189.5C 110.11,187.963 111.61,187.297 113.5,187.5C 115.017,187.511 116.184,188.177 117,189.5C 117.333,258.167 117.667,326.833 118,395.5C 120.854,406.354 127.354,414.188 137.5,419C 145.593,419.859 152.927,417.859 159.5,413C 171.148,404.07 176.648,392.237 176,377.5C 176.5,377 177,376.5 177.5,376C 219.5,375.333 261.5,375.333 303.5,376C 304.823,376.816 305.489,377.983 305.5,379.5C 305.376,381.582 304.376,383.082 302.5,384C 263.496,384.167 224.496,384.667 185.5,385.5C 184.51,389.105 183.844,392.772 183.5,396.5C 179.756,405.913 173.756,413.579 165.5,419.5C 164.711,419.783 164.044,420.283 163.5,421C 231.335,421.832 299.001,421.665 366.5,420.5C 381.843,419.124 393.176,411.791 400.5,398.5C 403.334,394.336 405.001,389.669 405.5,384.5C 377.498,384.667 349.498,384.5 321.5,384C 319.845,382.556 319.178,380.722 319.5,378.5C 319.5,376.5 320.5,375.5 322.5,375.5C 336.833,375.5 351.167,375.5 365.5,375.5C 365.833,345.426 365.499,316.093 364.5,287.5C 363.067,288.833 361.733,290.333 360.5,292C 350.3,295.232 340.3,298.732 330.5,302.5C 324.792,303.957 319.126,305.624 313.5,307.5C 311.167,307.167 309.833,305.833 309.5,303.5C 314.105,287.97 319.272,272.636 325,257.5C 327.705,254.964 330.205,252.297 332.5,249.5C 343.132,239.369 353.632,229.035 364,218.5C 364.667,176.167 364.667,133.833 364,91.5C 362.363,89.1898 360.196,87.6898 357.5,87C 348.173,86.5002 338.839,86.3335 329.5,86.5C 260.833,86.3333 192.166,86.5 123.5,87C 121,88.1667 119.167,90 118,92.5C 117.667,115.5 117.333,138.5 117,161.5C 116.292,162.381 115.458,163.047 114.5,163.5C 112.278,163.822 110.444,163.155 109,161.5C 108.5,147.171 108.333,132.837 108.5,118.5C 100.826,118.334 93.1594,118.5 85.5,119C 83.3333,119.833 81.8333,121.333 81,123.5C 80.8333,190.169 80.3333,256.836 79.5,323.5C 78.1401,324.18 76.8068,324.847 75.5,325.5C 74.2794,324.972 73.1127,324.305 72,323.5C 71.3333,255.833 71.3333,188.167 72,120.5C 73.4056,115.427 76.5723,111.927 81.5,110C 90.1074,108.661 98.7741,108.161 107.5,108.5C 106.967,100.528 108.133,92.8616 111,85.5C 114.237,80.791 118.737,77.9576 124.5,77C 203.869,76.0145 283.202,76.3478 362.5,78C 368.492,80.6587 372.325,85.1587 374,91.5C 374.333,129.833 374.667,168.167 375,206.5C 382.833,198.667 390.667,190.833 398.5,183C 400.265,182.36 401.932,182.527 403.5,183.5 Z"/></g>
<g><path style="opacity:1" fill="#fdf4e9" d="M 329.5,86.5 C 330.072,87.9733 330.905,89.3066 332,90.5C 332.829,108.005 332.662,125.338 331.5,142.5C 329.679,133.905 328.179,125.239 327,116.5C 325.556,110.529 322.39,109.196 317.5,112.5C 314.79,122.35 311.623,132.017 308,141.5C 305.492,132.959 303.492,124.293 302,115.5C 297.528,109.969 293.862,110.636 291,117.5C 288.637,128.564 285.97,139.564 283,150.5C 282.333,153.5 282.333,156.5 283,159.5C 285,160.833 287,160.833 289,159.5C 291.333,151.167 293.667,142.833 296,134.5C 298.128,141.884 300.461,149.217 303,156.5C 306,160.5 309,160.5 312,156.5C 314.469,148.758 317.136,141.092 320,133.5C 322.314,141.014 324.314,148.681 326,156.5C 326.66,158.324 327.827,159.657 329.5,160.5C 330.209,161.404 331.209,161.737 332.5,161.5C 332.5,190.833 332.5,220.167 332.5,249.5C 330.205,252.297 327.705,254.964 325,257.5C 319.272,272.636 314.105,287.97 309.5,303.5C 309.833,305.833 311.167,307.167 313.5,307.5C 319.126,305.624 324.792,303.957 330.5,302.5C 332.49,326.143 333.157,350.143 332.5,374.5C 328.958,374.187 325.625,374.521 322.5,375.5C 320.5,375.5 319.5,376.5 319.5,378.5C 314.93,379.441 310.263,379.774 305.5,379.5C 305.489,377.983 304.823,376.816 303.5,376C 261.5,375.333 219.5,375.333 177.5,376C 177,376.5 176.5,377 176,377.5C 176.648,392.237 171.148,404.07 159.5,413C 152.927,417.859 145.593,419.859 137.5,419C 127.354,414.188 120.854,406.354 118,395.5C 117.667,326.833 117.333,258.167 117,189.5C 116.184,188.177 115.017,187.511 113.5,187.5C 113.199,179.414 113.533,171.414 114.5,163.5C 115.458,163.047 116.292,162.381 117,161.5C 117.333,138.5 117.667,115.5 118,92.5C 119.167,90 121,88.1667 123.5,87C 192.166,86.5 260.833,86.3333 329.5,86.5 Z"/></g>
<g><path style="opacity:1" fill="#ecc8af" d="M 329.5,86.5 C 338.839,86.3335 348.173,86.5002 357.5,87C 360.196,87.6898 362.363,89.1898 364,91.5C 364.667,133.833 364.667,176.167 364,218.5C 353.632,229.035 343.132,239.369 332.5,249.5C 332.5,220.167 332.5,190.833 332.5,161.5C 331.209,161.737 330.209,161.404 329.5,160.5C 333.49,161.176 335.157,159.51 334.5,155.5C 333.964,151.025 332.964,146.692 331.5,142.5C 332.662,125.338 332.829,108.005 332,90.5C 330.905,89.3066 330.072,87.9733 329.5,86.5 Z"/></g>
<g><path style="opacity:1" fill="#0a0a0a" d="M 160.5,109.5 C 167.508,109.334 174.508,109.5 181.5,110C 183.517,110.674 185.183,111.841 186.5,113.5C 188.26,110.979 190.593,110.146 193.5,111C 198.988,116.321 204.321,121.821 209.5,127.5C 213.811,121.721 218.477,116.221 223.5,111C 227.646,110.297 229.98,112.13 230.5,116.5C 225.691,123.143 220.691,129.643 215.5,136C 220.515,143.011 225.515,150.011 230.5,157C 229.025,161.379 226.359,162.379 222.5,160C 218,154.167 213.5,148.333 209,142.5C 203.866,148.635 198.366,154.469 192.5,160C 187.41,160.829 185.576,158.662 187,153.5C 192.5,147.333 198,141.167 203.5,135C 197.989,128.657 192.323,122.491 186.5,116.5C 184.689,117.739 182.689,118.406 180.5,118.5C 173.856,117.452 167.19,117.286 160.5,118C 158.611,121.836 157.945,126.003 158.5,130.5C 165.819,129.645 173.152,129.479 180.5,130C 183.462,133.488 182.795,136.155 178.5,138C 171.5,138.577 164.5,139.077 157.5,139.5C 157.228,143.902 157.561,148.235 158.5,152.5C 165.811,153.331 173.144,153.831 180.5,154C 182.418,155.77 182.918,157.937 182,160.5C 180.933,161.191 179.766,161.691 178.5,162C 172.167,162.667 165.833,162.667 159.5,162C 155.501,161.332 152.668,159.165 151,155.5C 150.756,140.797 150.756,126.13 151,111.5C 154.27,110.868 157.437,110.201 160.5,109.5 Z"/></g>
<g><path style="opacity:1" fill="#080707" d="M 331.5,142.5 C 332.964,146.692 333.964,151.025 334.5,155.5C 335.157,159.51 333.49,161.176 329.5,160.5C 327.827,159.657 326.66,158.324 326,156.5C 324.314,148.681 322.314,141.014 320,133.5C 317.136,141.092 314.469,148.758 312,156.5C 309,160.5 306,160.5 303,156.5C 300.461,149.217 298.128,141.884 296,134.5C 293.667,142.833 291.333,151.167 289,159.5C 287,160.833 285,160.833 283,159.5C 282.333,156.5 282.333,153.5 283,150.5C 285.97,139.564 288.637,128.564 291,117.5C 293.862,110.636 297.528,109.969 302,115.5C 303.492,124.293 305.492,132.959 308,141.5C 311.623,132.017 314.79,122.35 317.5,112.5C 322.39,109.196 325.556,110.529 327,116.5C 328.179,125.239 329.679,133.905 331.5,142.5 Z"/></g>
<g><path style="opacity:1" fill="#0a0909" d="M 261.5,112.5 C 263.903,112.393 265.736,113.393 267,115.5C 268.843,127.693 271.51,139.693 275,151.5C 275.667,153.5 275.667,155.5 275,157.5C 273.867,159.211 272.367,159.711 270.5,159C 267.643,155.273 265.643,151.107 264.5,146.5C 259.147,145.648 253.814,145.981 248.5,147.5C 246.667,151.167 244.833,154.833 243,158.5C 238.944,160.499 236.444,159.332 235.5,155C 241.941,139.646 250.608,125.479 261.5,112.5 Z"/></g>
<g><path style="opacity:1" fill="#dccab5" d="M 114.5,163.5 C 113.533,171.414 113.199,179.414 113.5,187.5C 111.61,187.297 110.11,187.963 109,189.5C 108.333,257.833 108.333,326.167 109,394.5C 112.065,412.234 122.232,423.734 139.5,429C 166.467,430.437 193.467,430.937 220.5,430.5C 210.5,439.5 200.5,448.5 190.5,457.5C 155.498,457.667 120.498,457.5 85.5,457C 84.0692,456.535 82.9025,455.701 82,454.5C 80.679,417.585 80.0124,380.585 80,343.5C 78.8904,341.963 77.3904,341.297 75.5,341.5C 75.5,336.167 75.5,330.833 75.5,325.5C 76.8068,324.847 78.1401,324.18 79.5,323.5C 80.3333,256.836 80.8333,190.169 81,123.5C 81.8333,121.333 83.3333,119.833 85.5,119C 93.1594,118.5 100.826,118.334 108.5,118.5C 108.333,132.837 108.5,147.171 109,161.5C 110.444,163.155 112.278,163.822 114.5,163.5 Z"/></g>
<g><path style="opacity:1" fill="#ede4da" d="M 259.5,128.5 C 261.243,131.495 262.243,134.829 262.5,138.5C 259.753,138.813 257.086,138.48 254.5,137.5C 255.925,134.312 257.592,131.312 259.5,128.5 Z"/></g>
<g><path style="opacity:1" fill="#fa4000" d="M 463.5,161.5 C 460.304,167.371 455.97,172.371 450.5,176.5C 444.812,171.479 439.479,166.146 434.5,160.5C 444.574,148.211 454.241,148.544 463.5,161.5 Z"/></g>
<g><path style="opacity:1" fill="#bb2e02" d="M 434.5,160.5 C 439.479,166.146 444.812,171.479 450.5,176.5C 455.97,172.371 460.304,167.371 463.5,161.5C 464.222,161.918 464.722,162.584 465,163.5C 465.667,166.5 465.667,169.5 465,172.5C 462.036,176.466 458.703,180.133 455,183.5C 448,176.5 441,169.5 434,162.5C 433.308,161.563 433.475,160.897 434.5,160.5 Z"/></g>
<g><path style="opacity:1" fill="#66cdea" d="M 426.5,168.5 C 433.798,175.297 440.965,182.297 448,189.5C 447.628,191.92 446.295,193.92 444,195.5C 437,188.5 430,181.5 423,174.5C 422.333,173.833 422.333,173.167 423,172.5C 424.376,171.295 425.542,169.962 426.5,168.5 Z"/></g>
<g><path style="opacity:1" fill="#f5b20a" d="M 430.5,195.5 C 427.899,199.771 424.566,203.437 420.5,206.5C 416.253,196.532 409.587,194.366 400.5,200C 386.304,213.862 372.471,228.029 359,242.5C 356.622,250.655 359.455,256.322 367.5,259.5C 363.69,264.654 359.024,268.654 353.5,271.5C 348.597,266.103 342.93,261.603 336.5,258C 359.333,235.167 382.167,212.333 405,189.5C 405.748,187.16 405.248,185.16 403.5,183.5C 404.5,183.167 405.167,182.5 405.5,181.5C 409.261,183.434 412.427,182.767 415,179.5C 420.37,184.702 425.536,190.035 430.5,195.5 Z"/></g>
<g><path style="opacity:0.864" fill="#000000" d="M 482.5,186.5 C 486.642,186.403 488.976,188.403 489.5,192.5C 486.744,211.102 476.077,219.936 457.5,219C 456.398,216.599 456.231,214.099 457,211.5C 461.41,209.998 465.91,208.498 470.5,207C 476.12,202.927 478.953,197.427 479,190.5C 479.69,188.65 480.856,187.316 482.5,186.5 Z"/></g>
<g><path style="opacity:0.872" fill="#000000" d="M 511.5,193.5 C 511.5,197.833 511.5,202.167 511.5,206.5C 504.047,230.562 487.713,242.396 462.5,242C 459.701,238.661 460.034,235.661 463.5,233C 487.411,230.589 500.411,217.422 502.5,193.5C 505.534,190.845 508.534,190.845 511.5,193.5 Z"/></g>
<g><path style="opacity:0.866" fill="#000000" d="M 15.5,192.5 C 17.7925,192.244 19.9592,192.577 22,193.5C 24.079,197.993 26.4123,202.326 29,206.5C 33.5272,203.903 38.1939,201.57 43,199.5C 46.9764,200.786 48.3097,203.453 47,207.5C 42.5492,210.637 38.0492,213.637 33.5,216.5C 36.819,221.44 38.6524,226.773 39,232.5C 36.791,234.706 34.291,235.04 31.5,233.5C 29.0699,228.963 26.4032,224.63 23.5,220.5C 18.5604,223.819 13.2271,225.652 7.5,226C 4.08343,223.679 3.75009,221.012 6.5,218C 10.9926,215.921 15.326,213.588 19.5,211C 16.6653,206.667 14.6653,202 13.5,197C 13.7586,195.213 14.4253,193.713 15.5,192.5 Z"/></g>
<g><path style="opacity:1" fill="#0b0b0a" d="M 169.5,192.5 C 175,191.831 177.167,194.165 176,199.5C 169.883,212.236 163.383,224.736 156.5,237C 155.167,237.667 153.833,237.667 152.5,237C 148.313,232.139 144.479,226.972 141,221.5C 140.514,216.008 143.014,214.175 148.5,216C 150.458,218.748 152.291,221.582 154,224.5C 158.908,213.685 164.075,203.018 169.5,192.5 Z"/></g>
<g><path style="opacity:1" fill="#cb7f06" d="M 430.5,195.5 C 433.395,197.202 435.228,199.536 436,202.5C 410.333,228.167 384.667,253.833 359,279.5C 357.404,276.631 355.57,273.964 353.5,271.5C 359.024,268.654 363.69,264.654 367.5,259.5C 370.425,259.54 373.091,258.707 375.5,257C 389.667,242.833 403.833,228.667 418,214.5C 419.707,212.091 420.54,209.425 420.5,206.5C 424.566,203.437 427.899,199.771 430.5,195.5 Z"/></g>
<g><path style="opacity:1" fill="#0d0600" d="M 420.5,206.5 C 420.54,209.425 419.707,212.091 418,214.5C 403.833,228.667 389.667,242.833 375.5,257C 373.091,258.707 370.425,259.54 367.5,259.5C 359.455,256.322 356.622,250.655 359,242.5C 372.471,228.029 386.304,213.862 400.5,200C 409.587,194.366 416.253,196.532 420.5,206.5 Z"/></g>
<g><path style="opacity:1" fill="#e93c00" d="M 407.5,206.5 C 410.166,206.066 411.333,207.066 411,209.5C 397.833,222.667 384.667,235.833 371.5,249C 369.359,249.884 367.693,249.384 366.5,247.5C 380.521,234.146 394.188,220.479 407.5,206.5 Z"/></g>
<g><path style="opacity:1" fill="#050504" d="M 192.5,210.5 C 232.501,210.333 272.501,210.5 312.5,211C 315.399,214.156 315.065,216.822 311.5,219C 272.167,219.667 232.833,219.667 193.5,219C 191.265,216.415 190.931,213.582 192.5,210.5 Z"/></g>
<g><path style="opacity:1" fill="#0d0d0c" d="M 151.5,256.5 C 157.509,256.334 163.509,256.501 169.5,257C 172.196,257.69 174.363,259.19 176,261.5C 182.563,283.233 174.729,292.066 152.5,288C 150.376,286.878 148.543,285.378 147,283.5C 145.449,276.582 145.116,269.582 146,262.5C 147.36,259.977 149.193,257.977 151.5,256.5 Z"/></g>
<g><path style="opacity:1" fill="#fdfdfd" d="M 154.5,265.5 C 158.833,265.5 163.167,265.5 167.5,265.5C 167.5,269.833 167.5,274.167 167.5,278.5C 163.167,278.5 158.833,278.5 154.5,278.5C 154.5,274.167 154.5,269.833 154.5,265.5 Z"/></g>
<g><path style="opacity:1" fill="#080707" d="M 192.5,265.5 C 232.501,265.333 272.501,265.5 312.5,266C 315.25,269.012 314.917,271.679 311.5,274C 272.167,274.667 232.833,274.667 193.5,274C 191.265,271.415 190.931,268.582 192.5,265.5 Z"/></g>
<g><path style="opacity:1" fill="#f43f00" d="M 344.5,275.5 C 344.53,276.497 344.03,277.164 343,277.5C 339.354,278.547 335.854,279.88 332.5,281.5C 330.044,280.878 328.377,279.378 327.5,277C 328.566,273.539 329.899,270.206 331.5,267C 333.807,267.642 336.141,268.642 338.5,270C 340.396,272.068 342.396,273.901 344.5,275.5 Z"/></g>
<g><path style="opacity:1" fill="#b82d02" d="M 344.5,275.5 C 347.356,278.202 349.689,281.369 351.5,285C 347.533,286.6 343.533,288.1 339.5,289.5C 336.457,287.457 334.124,284.79 332.5,281.5C 335.854,279.88 339.354,278.547 343,277.5C 344.03,277.164 344.53,276.497 344.5,275.5 Z"/></g>
<g><path style="opacity:1" fill="#746257" d="M 322.5,375.5 C 325.625,374.521 328.958,374.187 332.5,374.5C 343.167,374.5 353.833,374.5 364.5,374.5C 364.5,345.5 364.5,316.5 364.5,287.5C 365.499,316.093 365.833,345.426 365.5,375.5C 351.167,375.5 336.833,375.5 322.5,375.5 Z"/></g>
<g><path style="opacity:1" fill="#a82902" d="M 323.5,287.5 C 331.677,291.195 331.344,293.861 322.5,295.5C 322.167,295.167 321.833,294.833 321.5,294.5C 322.577,292.271 323.244,289.937 323.5,287.5 Z"/></g>
<g><path style="opacity:1" fill="#ecc8b0" d="M 364.5,287.5 C 364.5,316.5 364.5,345.5 364.5,374.5C 353.833,374.5 343.167,374.5 332.5,374.5C 333.157,350.143 332.49,326.143 330.5,302.5C 340.3,298.732 350.3,295.232 360.5,292C 361.733,290.333 363.067,288.833 364.5,287.5 Z"/></g>
<g><path style="opacity:1" fill="#060605" d="M 150.5,306.5 C 157.508,306.334 164.508,306.5 171.5,307C 173.286,307.785 174.786,308.951 176,310.5C 182.917,333.246 174.75,342.413 151.5,338C 149.91,336.954 148.41,335.787 147,334.5C 145.402,326.939 145.069,319.272 146,311.5C 147.707,309.963 149.207,308.296 150.5,306.5 Z"/></g>
<g><path style="opacity:0.913" fill="#030000" d="M 440.5,326.5 C 441.886,328.244 442.886,330.244 443.5,332.5C 442.541,345.042 448.208,349.542 460.5,346C 466.728,339.953 467.062,333.62 461.5,327C 459.222,326.014 456.889,325.18 454.5,324.5C 453.05,323.15 452.383,321.484 452.5,319.5C 452.858,317.299 454.192,315.965 456.5,315.5C 474.067,320.635 479.234,331.635 472,348.5C 461.87,359.09 450.87,360.09 439,351.5C 433.851,345.046 432.184,337.713 434,329.5C 435.734,327.549 437.901,326.549 440.5,326.5 Z"/></g>
<g><path style="opacity:1" fill="#fdfdfd" d="M 154.5,315.5 C 159.167,315.5 163.833,315.5 168.5,315.5C 168.5,320.167 168.5,324.833 168.5,329.5C 163.833,329.5 159.167,329.5 154.5,329.5C 154.5,324.833 154.5,320.167 154.5,315.5 Z"/></g>
<g><path style="opacity:1" fill="#020202" d="M 193.5,315.5 C 233.168,315.333 272.835,315.5 312.5,316C 315.167,318.667 315.167,321.333 312.5,324C 272.5,324.667 232.5,324.667 192.5,324C 191.041,320.929 191.374,318.096 193.5,315.5 Z"/></g>
<g><path style="opacity:0.986" fill="#f94000" d="M 452.5,319.5 C 452.383,321.484 453.05,323.15 454.5,324.5C 456.889,325.18 459.222,326.014 461.5,327C 467.062,333.62 466.728,339.953 460.5,346C 448.208,349.542 442.541,345.042 443.5,332.5C 442.886,330.244 441.886,328.244 440.5,326.5C 443.253,322.12 447.253,319.787 452.5,319.5 Z"/></g>
<g><path style="opacity:1" fill="#fedec9" d="M 319.5,378.5 C 319.178,380.722 319.845,382.556 321.5,384C 349.498,384.5 377.498,384.667 405.5,384.5C 405.001,389.669 403.334,394.336 400.5,398.5C 327.826,399.164 255.492,398.497 183.5,396.5C 183.844,392.772 184.51,389.105 185.5,385.5C 224.496,384.667 263.496,384.167 302.5,384C 304.376,383.082 305.376,381.582 305.5,379.5C 310.263,379.774 314.93,379.441 319.5,378.5 Z"/></g>
<g><path style="opacity:1" fill="#ecc8af" d="M 183.5,396.5 C 255.492,398.497 327.826,399.164 400.5,398.5C 393.176,411.791 381.843,419.124 366.5,420.5C 299.331,420.832 232.331,420.499 165.5,419.5C 173.756,413.579 179.756,405.913 183.5,396.5 Z"/></g>
<g><path style="opacity:1" fill="#5d4f45" d="M 165.5,419.5 C 232.331,420.499 299.331,420.832 366.5,420.5C 299.001,421.665 231.335,421.832 163.5,421C 164.044,420.283 164.711,419.783 165.5,419.5 Z"/></g>
<g><path style="opacity:0.961" fill="#a5e500" d="M 43.5,472.5 C 42.3055,468.11 40.8055,463.777 39,459.5C 38.2974,456.287 38.4641,453.121 39.5,450C 36.7025,445.517 33.5359,445.351 30,449.5C 29.8184,452.226 29.3184,454.893 28.5,457.5C 24.9722,456.079 21.3055,455.412 17.5,455.5C 18.3382,451.501 18.8382,447.501 19,443.5C 15.8359,440.888 12.6693,440.888 9.5,443.5C 9.01083,438.371 7.6775,433.537 5.5,429C 5.80927,424.668 8.1426,423.001 12.5,424C 21.8982,435.264 32.8982,437.098 45.5,429.5C 49.5246,430.217 51.0246,432.55 50,436.5C 39.3886,445.222 37.3886,455.555 44,467.5C 44.7796,469.387 44.6129,471.054 43.5,472.5 Z"/></g>
<g><path style="opacity:1" fill="#c3987b" d="M 220.5,430.5 C 259.5,430.5 298.5,430.5 337.5,430.5C 337.666,437.841 337.5,445.174 337,452.5C 336.167,454.667 334.667,456.167 332.5,457C 285.168,457.5 237.835,457.667 190.5,457.5C 200.5,448.5 210.5,439.5 220.5,430.5 Z"/></g>
<g><path style="opacity:1" fill="#0d0f02" d="M 43.5,472.5 C 43.1667,473.167 42.8333,473.833 42.5,474.5C 40.1667,474.5 37.8333,474.5 35.5,474.5C 30.8369,466.506 23.8369,463.34 14.5,465C 11.1276,466.606 7.62755,467.772 4,468.5C 2.40846,468.395 0.908458,468.061 -0.5,467.5C -0.5,465.167 -0.5,462.833 -0.5,460.5C 5.62303,456.603 8.95636,450.936 9.5,443.5C 12.6693,440.888 15.8359,440.888 19,443.5C 18.8382,447.501 18.3382,451.501 17.5,455.5C 21.3055,455.412 24.9722,456.079 28.5,457.5C 29.3184,454.893 29.8184,452.226 30,449.5C 33.5359,445.351 36.7025,445.517 39.5,450C 38.4641,453.121 38.2974,456.287 39,459.5C 40.8055,463.777 42.3055,468.11 43.5,472.5 Z"/></g>
</svg>
