<?xml version="1.0" encoding="UTF-8"?>
<!DOCTYPE svg PUBLIC "-//W3C//DTD SVG 1.1//EN" "http://www.w3.org/Graphics/SVG/1.1/DTD/svg11.dtd">
<svg xmlns="http://www.w3.org/2000/svg" version="1.1" width="512px" height="512px" style="shape-rendering:geometricPrecision; text-rendering:geometricPrecision; image-rendering:optimizeQuality; fill-rule:evenodd; clip-rule:evenodd" xmlns:xlink="http://www.w3.org/1999/xlink">
<g><path style="opacity:0.997" fill="#fec419" d="M 335.5,87.5 C 333.28,103.305 335.614,118.305 342.5,132.5C 349.135,146.637 359.135,157.804 372.5,166C 376.863,168.684 381.53,170.518 386.5,171.5C 385.702,176.06 384.202,180.394 382,184.5C 378.962,187.203 376.295,190.203 374,193.5C 372.967,196.217 373.8,198.051 376.5,199C 386.481,199.064 395.814,196.564 404.5,191.5C 427.668,227.493 453.502,261.493 482,293.5C 484.172,299.145 483.505,304.478 480,309.5C 471.734,317.362 462.901,324.362 453.5,330.5C 428.978,344.595 403.645,357.428 377.5,369C 361.367,376.211 344.7,381.711 327.5,385.5C 306.449,381.387 288.616,371.387 274,355.5C 266.975,344.096 259.475,333.096 251.5,322.5C 255.754,319.656 257.587,315.656 257,310.5C 254.518,303.542 250.685,297.542 245.5,292.5C 245.666,286.491 245.499,280.491 245,274.5C 244.828,270.807 243.161,268.141 240,266.5C 237.974,267.52 236.641,269.187 236,271.5C 234.505,277.485 233.338,283.485 232.5,289.5C 223.274,290.405 215.107,293.738 208,299.5C 207.517,300.448 207.351,301.448 207.5,302.5C 205.801,302.34 204.134,302.506 202.5,303C 201.978,303.561 201.645,304.228 201.5,305C 203.957,307.399 206.623,309.566 209.5,311.5C 211.676,318.869 216.009,324.535 222.5,328.5C 222.423,329.75 221.756,330.583 220.5,331C 199.866,338.166 179.2,338.333 158.5,331.5C 127.062,279.624 96.3951,227.291 66.5,174.5C 58.8797,160.925 52.0464,146.925 46,132.5C 44.6071,127.905 44.2738,123.239 45,118.5C 45.7845,116.714 46.9512,115.214 48.5,114C 106.099,105.8 160.433,87.8002 211.5,60C 227.996,50.9196 244.329,41.5862 260.5,32C 269.416,26.3574 279.083,24.024 289.5,25C 291.96,26.4578 294.127,28.2911 296,30.5C 309.189,49.5663 322.356,68.5663 335.5,87.5 Z"/></g>
<g><path style="opacity:0.994" fill="#fe4b3d" d="M 481.5,86.5 C 475.073,113.765 458.406,131.598 431.5,140C 400.858,148.064 371.191,145.564 342.5,132.5C 335.614,118.305 333.28,103.305 335.5,87.5C 341.704,53.4615 361.704,32.6282 395.5,25C 441.308,21.6541 469.975,42.1541 481.5,86.5 Z"/></g>
<g><path style="opacity:1" fill="#fffdfc" d="M 396.5,54.5 C 398.5,54.5 400.5,54.5 402.5,54.5C 400.655,85.4525 414.155,94.7859 443,82.5C 447.052,83.558 449.386,86.2247 450,90.5C 451.778,102.5 449.778,113.833 444,124.5C 442.701,125.98 441.034,126.646 439,126.5C 433.187,125.501 427.354,125.335 421.5,126C 413.969,128.466 406.302,130.466 398.5,132C 392.083,132.87 385.749,132.536 379.5,131C 377.962,129.068 376.795,126.901 376,124.5C 370.881,122.062 368.215,118.062 368,112.5C 366.333,111.167 364.667,109.833 363,108.5C 362.667,104.5 362.333,100.5 362,96.5C 358.451,92.8526 357.118,88.5193 358,83.5C 359.214,81.9512 360.714,80.7845 362.5,80C 370.568,79.6861 378.568,78.8527 386.5,77.5C 385.989,67.9934 389.323,60.3267 396.5,54.5 Z"/></g>
<g><path style="opacity:1" fill="#fffdfa" d="M 275.5,77.5 C 283.758,77.1521 285.592,80.4854 281,87.5C 275.265,92.2856 269.099,96.4523 262.5,100C 225.988,119.057 188.321,135.391 149.5,149C 137.472,153.085 125.139,154.419 112.5,153C 110.789,151.867 110.289,150.367 111,148.5C 112.579,146.959 114.413,145.792 116.5,145C 173.894,132.288 226.894,109.788 275.5,77.5 Z"/></g>
<g><path style="opacity:1" fill="#fffdfa" d="M 222.5,81.5 C 225.167,81.5 227.833,81.5 230.5,81.5C 229.681,85.8526 227.348,89.3526 223.5,92C 198.071,108.254 170.571,119.421 141,125.5C 137.772,126.008 135.272,125.008 133.5,122.5C 133.977,121.522 134.643,120.689 135.5,120C 165.521,109.319 194.521,96.4862 222.5,81.5 Z"/></g>
<g><path style="opacity:1" fill="#d01731" d="M 481.5,86.5 C 485.474,117.364 475.474,142.531 451.5,162C 444.675,166.613 437.342,170.28 429.5,173C 421.852,180.155 413.519,186.322 404.5,191.5C 395.814,196.564 386.481,199.064 376.5,199C 373.8,198.051 372.967,196.217 374,193.5C 376.295,190.203 378.962,187.203 382,184.5C 384.202,180.394 385.702,176.06 386.5,171.5C 381.53,170.518 376.863,168.684 372.5,166C 359.135,157.804 349.135,146.637 342.5,132.5C 371.191,145.564 400.858,148.064 431.5,140C 458.406,131.598 475.073,113.765 481.5,86.5 Z"/></g>
<g><path style="opacity:1" fill="#7a3ac3" d="M 307.5,119.5 C 314.673,117.839 317.173,120.506 315,127.5C 306.991,135.489 297.825,141.989 287.5,147C 265.347,158.743 242.68,169.41 219.5,179C 214.607,180.64 209.607,181.807 204.5,182.5C 192.911,180.218 192.578,176.718 203.5,172C 241.463,160.519 276.13,143.019 307.5,119.5 Z"/></g>
<g><path style="opacity:1" fill="#7a3ac3" d="M 307.5,148.5 C 315.415,147.238 317.582,150.238 314,157.5C 305.953,164.775 297.12,170.942 287.5,176C 271.334,184.499 254.834,192.333 238,199.5C 232.153,201.783 226.153,203.45 220,204.5C 216.559,204.687 213.559,203.687 211,201.5C 210.37,199.097 211.203,197.263 213.5,196C 231.938,190.965 249.605,183.965 266.5,175C 280.572,166.641 294.239,157.808 307.5,148.5 Z"/></g>
<g><path style="opacity:1" fill="#fdfbfb" d="M 182.5,192.5 C 181.276,199.342 179.109,206.008 176,212.5C 174.421,214.041 172.587,215.208 170.5,216C 166.5,216.667 162.5,216.667 158.5,216C 153.479,213.821 148.479,211.654 143.5,209.5C 140.669,208.002 139.002,205.669 138.5,202.5C 139.5,202.5 140.5,202.5 141.5,202.5C 149.819,203.124 158.152,203.457 166.5,203.5C 167.608,197.853 168.608,192.186 169.5,186.5C 170.341,181.138 171.507,175.804 173,170.5C 174.348,165.042 176.682,164.375 180,168.5C 182.217,176.332 183.05,184.332 182.5,192.5 Z"/></g>
<g><path style="opacity:1" fill="#7a3ac3" d="M 340.5,171.5 C 349.793,170.072 351.96,173.405 347,181.5C 339.935,187.284 332.435,192.45 324.5,197C 301.256,209.955 277.256,221.289 252.5,231C 248.032,232.408 243.532,233.575 239,234.5C 227.56,233.197 226.726,229.697 236.5,224C 274.733,213.051 309.4,195.551 340.5,171.5 Z"/></g>
<g><path style="opacity:0.999" fill="#7738c6" d="M 66.5,174.5 C 96.3951,227.291 127.062,279.624 158.5,331.5C 165.529,343.7 174.863,353.866 186.5,362C 223.957,388.031 265.29,398.031 310.5,392C 315.256,390.978 319.923,389.644 324.5,388C 325.942,387.623 326.942,386.79 327.5,385.5C 344.7,381.711 361.367,376.211 377.5,369C 403.645,357.428 428.978,344.595 453.5,330.5C 461.179,343.525 467.512,357.192 472.5,371.5C 471.545,375.907 469.212,379.407 465.5,382C 457.019,387.24 448.019,391.406 438.5,394.5C 414.861,401.242 390.861,406.409 366.5,410C 337.154,412.668 307.821,415.335 278.5,418C 254.08,424.541 230.746,433.874 208.5,446C 202.423,448.771 196.089,449.771 189.5,449C 185.667,446.5 182.5,443.333 180,439.5C 167.787,415.075 156.121,390.409 145,365.5C 133.107,340.034 119.44,315.701 104,292.5C 91.0881,275.01 78.4214,257.343 66,239.5C 62.2936,230.844 58.1269,222.51 53.5,214.5C 50.4075,208.647 47.5742,202.647 45,196.5C 43.6374,192.239 43.3041,187.905 44,183.5C 45.6626,181.083 47.8293,179.25 50.5,178C 55.784,176.512 61.1173,175.345 66.5,174.5 Z"/></g>
<g><path style="opacity:1" fill="#7a3bc5" d="M 169.5,186.5 C 168.608,192.186 167.608,197.853 166.5,203.5C 158.152,203.457 149.819,203.124 141.5,202.5C 140.822,198.727 142.156,195.894 145.5,194C 153.134,190.259 161.134,187.759 169.5,186.5 Z"/></g>
<g><path style="opacity:1" fill="#7c3dc4" d="M 182.5,192.5 C 187.079,197.657 190.079,203.657 191.5,210.5C 190.933,216.234 187.933,220.068 182.5,222C 174.735,225.086 166.735,226.752 158.5,227C 155.274,225.802 152.441,223.969 150,221.5C 147.567,217.633 145.4,213.633 143.5,209.5C 148.479,211.654 153.479,213.821 158.5,216C 162.5,216.667 166.5,216.667 170.5,216C 172.587,215.208 174.421,214.041 176,212.5C 179.109,206.008 181.276,199.342 182.5,192.5 Z"/></g>
<g><path style="opacity:1" fill="#7a3ac3" d="M 342.5,199.5 C 349.381,199.39 351.214,202.39 348,208.5C 345.5,211 343,213.5 340.5,216C 314.574,232.795 286.907,246.129 257.5,256C 252.891,257.074 248.724,256.24 245,253.5C 244.28,251.888 244.446,250.388 245.5,249C 257.271,244.076 269.271,239.743 281.5,236C 302.89,225.317 323.224,213.15 342.5,199.5 Z"/></g>
<g><path style="opacity:0.992" fill="#171d8f" d="M 53.5,214.5 C 58.1269,222.51 62.2936,230.844 66,239.5C 78.4214,257.343 91.0881,275.01 104,292.5C 119.44,315.701 133.107,340.034 145,365.5C 156.121,390.409 167.787,415.075 180,439.5C 182.5,443.333 185.667,446.5 189.5,449C 196.089,449.771 202.423,448.771 208.5,446C 230.746,433.874 254.08,424.541 278.5,418C 307.821,415.335 337.154,412.668 366.5,410C 390.861,406.409 414.861,401.242 438.5,394.5C 442.06,403.515 444.393,412.849 445.5,422.5C 445.899,428.499 443.566,432.999 438.5,436C 413.518,436.32 388.518,436.987 363.5,438C 334.966,440.04 306.966,445.04 279.5,453C 249.15,463.672 218.484,473.339 187.5,482C 171.672,485.499 155.672,487.166 139.5,487C 136.495,484.517 134.328,481.35 133,477.5C 125.797,453.559 118.797,429.559 112,405.5C 101.592,372.612 88.2587,340.945 72,310.5C 58.8393,286.175 45.1727,262.175 31,238.5C 25.7148,231.36 26.8814,225.526 34.5,221C 40.4756,217.731 46.8089,215.564 53.5,214.5 Z"/></g>
<g><path style="opacity:1" fill="#fcf9fc" d="M 213.5,240.5 C 212.552,246.069 211.386,251.735 210,257.5C 208.321,265.004 203.654,269.004 196,269.5C 190.2,268.733 184.7,267.066 179.5,264.5C 176.672,262.53 173.672,260.697 170.5,259C 169.62,257.644 169.286,256.144 169.5,254.5C 171.5,254.5 173.5,254.5 175.5,254.5C 182.472,255.508 189.472,255.675 196.5,255C 199.099,249.239 200.099,243.405 199.5,237.5C 201.228,232.704 202.728,227.704 204,222.5C 204.687,220.445 205.854,218.779 207.5,217.5C 209.995,219.149 211.495,221.483 212,224.5C 212.215,229.915 212.715,235.248 213.5,240.5 Z"/></g>
<g><path style="opacity:1" fill="#7a3ac4" d="M 357.5,236.5 C 365.69,234.969 368.19,237.969 365,245.5C 340.427,263.035 313.594,276.202 284.5,285C 280.409,286.231 276.242,287.065 272,287.5C 268.349,287.505 265.016,286.505 262,284.5C 261.37,282.097 262.203,280.263 264.5,279C 285.613,274.295 305.613,266.628 324.5,256C 335.563,249.474 346.563,242.974 357.5,236.5 Z"/></g>
<g><path style="opacity:1" fill="#7a3bc5" d="M 199.5,237.5 C 200.099,243.405 199.099,249.239 196.5,255C 189.472,255.675 182.472,255.508 175.5,254.5C 175.107,251.07 175.773,247.904 177.5,245C 184.338,240.998 191.672,238.498 199.5,237.5 Z"/></g>
<g><path style="opacity:1" fill="#ff523b" d="M 405.5,238.5 C 408.959,239.436 411.793,241.436 414,244.5C 416.757,242.205 419.923,241.205 423.5,241.5C 423.649,242.552 423.483,243.552 423,244.5C 421.108,246.054 419.608,247.888 418.5,250C 420.344,252.561 420.844,255.394 420,258.5C 416.242,259.152 413.575,257.485 412,253.5C 409.346,256.058 406.346,256.725 403,255.5C 402.333,254.5 402.333,253.5 403,252.5C 404.833,250.667 406.667,248.833 408.5,247C 406.503,244.508 405.503,241.675 405.5,238.5 Z"/></g>
<g><path style="opacity:1" fill="#7a3bc5" d="M 213.5,240.5 C 218.231,244.945 221.731,250.279 224,256.5C 225.72,262.202 224.22,266.702 219.5,270C 211.867,274.099 203.7,276.599 195,277.5C 187.575,275.912 182.408,271.579 179.5,264.5C 184.7,267.066 190.2,268.733 196,269.5C 203.654,269.004 208.321,265.004 210,257.5C 211.386,251.735 212.552,246.069 213.5,240.5 Z"/></g>
<g><path style="opacity:1" fill="#ff4d3c" d="M 378.5,252.5 C 388.464,252.481 396.13,256.648 401.5,265C 416.117,275.227 430.283,286.061 444,297.5C 443.538,305.29 439.371,308.79 431.5,308C 427.382,305.527 423.549,302.694 420,299.5C 415.09,302.707 409.923,305.54 404.5,308C 403.643,308.689 402.977,309.522 402.5,310.5C 405.793,315.251 408.126,320.417 409.5,326C 409.237,330.263 406.904,332.597 402.5,333C 399.806,334.19 397.139,334.356 394.5,333.5C 385.212,308.629 379.212,282.962 376.5,256.5C 376.752,254.927 377.418,253.594 378.5,252.5 Z"/></g>
<g><path style="opacity:1" fill="#7a3ac3" d="M 356.5,265.5 C 359.187,265.336 361.854,265.503 364.5,266C 366.984,268.284 367.151,270.784 365,273.5C 342.823,292.336 317.323,304.336 288.5,309.5C 285.034,309.4 281.868,308.4 279,306.5C 278.37,304.097 279.203,302.263 281.5,301C 289.026,298.496 296.693,296.496 304.5,295C 322.383,285.899 339.716,276.065 356.5,265.5 Z"/></g>
<g><path style="opacity:1" fill="#fdfbfb" d="M 245.5,292.5 C 244.741,297.455 243.575,302.455 242,307.5C 238.635,315.9 232.469,319.067 223.5,317C 218.7,315.431 214.034,313.597 209.5,311.5C 206.623,309.566 203.957,307.399 201.5,305C 201.645,304.228 201.978,303.561 202.5,303C 204.134,302.506 205.801,302.34 207.5,302.5C 214.412,304.159 221.412,304.659 228.5,304C 230.686,299.424 232.02,294.59 232.5,289.5C 233.338,283.485 234.505,277.485 236,271.5C 236.641,269.187 237.974,267.52 240,266.5C 243.161,268.141 244.828,270.807 245,274.5C 245.499,280.491 245.666,286.491 245.5,292.5 Z"/></g>
<g><path style="opacity:1" fill="#ffc218" d="M 392.5,273.5 C 398.32,278.819 403.986,284.319 409.5,290C 406.21,292.984 402.543,295.484 398.5,297.5C 395.867,289.636 393.867,281.636 392.5,273.5 Z"/></g>
<g><path style="opacity:1" fill="#7c3ec6" d="M 232.5,289.5 C 232.02,294.59 230.686,299.424 228.5,304C 221.412,304.659 214.412,304.159 207.5,302.5C 207.351,301.448 207.517,300.448 208,299.5C 215.107,293.738 223.274,290.405 232.5,289.5 Z"/></g>
<g><path style="opacity:1" fill="#7b3cc4" d="M 245.5,292.5 C 250.685,297.542 254.518,303.542 257,310.5C 257.587,315.656 255.754,319.656 251.5,322.5C 247.69,320.69 243.69,320.19 239.5,321C 233.99,324.094 228.323,326.594 222.5,328.5C 216.009,324.535 211.676,318.869 209.5,311.5C 214.034,313.597 218.7,315.431 223.5,317C 232.469,319.067 238.635,315.9 242,307.5C 243.575,302.455 244.741,297.455 245.5,292.5 Z"/></g>
<g><path style="opacity:1" fill="#fea919" d="M 251.5,322.5 C 259.475,333.096 266.975,344.096 274,355.5C 288.616,371.387 306.449,381.387 327.5,385.5C 326.942,386.79 325.942,387.623 324.5,388C 319.923,389.644 315.256,390.978 310.5,392C 265.29,398.031 223.957,388.031 186.5,362C 174.863,353.866 165.529,343.7 158.5,331.5C 179.2,338.333 199.866,338.166 220.5,331C 221.756,330.583 222.423,329.75 222.5,328.5C 228.323,326.594 233.99,324.094 239.5,321C 243.69,320.19 247.69,320.69 251.5,322.5 Z"/></g>
</svg>
