<?xml version="1.0" encoding="UTF-8"?>
<svg version="1.1" xmlns="http://www.w3.org/2000/svg" width="512" height="512">
<path d="M0 0 C1.27922927 1.07340623 2.55013137 2.15681479 3.8125 3.25 C4.64007813 3.89066406 5.46765625 4.53132813 6.3203125 5.19140625 C21.73144467 17.92129129 30.25701423 40.39043985 39.71369934 57.61494446 C43.24652987 64.04662411 46.80820569 70.46208962 50.375 76.875 C51.29563232 78.53063965 51.29563232 78.53063965 52.23486328 80.21972656 C53.47288415 82.44601783 54.71100245 84.67225492 55.94921875 86.8984375 C57.83228871 90.28559478 59.71333173 93.67386997 61.59375 97.0625 C67.64699333 107.96942766 73.71211996 118.86935597 79.8125 129.75 C86.54777072 141.76303568 93.23866786 153.8004417 99.92138672 165.84277344 C103.04995051 171.47951966 106.18132607 177.1147034 109.3125 182.75 C113.075631 189.52265455 116.83815148 196.2956442 120.59765625 203.0703125 C126.64994729 213.97444017 132.71354306 224.87189422 138.8125 235.75 C146.81985722 250.03193046 154.76364818 264.34897802 162.70800781 278.66601562 C164.59662238 282.06922311 166.48566639 285.47219165 168.375 288.875 C169.3036084 290.54767944 169.3036084 290.54767944 170.25097656 292.25415039 C173.89699874 298.81689491 177.5587484 305.37054133 181.234375 311.91674805 C184.1008614 317.02386603 186.95829571 322.13600977 189.8125 327.25 C190.65119629 328.75046875 190.65119629 328.75046875 191.50683594 330.28125 C203.88435857 352.47841843 203.88435857 352.47841843 206.8125 361.25 C207.12703125 362.16136719 207.4415625 363.07273437 207.765625 364.01171875 C213.79639764 384.98235997 210.21448478 407.72425985 199.94921875 426.62109375 C197.08574719 431.62729913 193.70877225 436.00425295 189.8125 440.25 C189.13703125 441.01699219 188.4615625 441.78398437 187.765625 442.57421875 C174.63322949 456.6891475 156.0100802 464.15303909 136.99924469 465.52524066 C132.96666131 465.63289254 128.94457456 465.65097632 124.91113281 465.63095093 C123.36619869 465.63441692 121.82126705 465.63918774 120.27634048 465.64513266 C116.0749325 465.65754317 111.87373151 465.65151819 107.67232323 465.64217401 C103.12418662 465.63534262 98.57608383 465.64588487 94.0279541 465.65411377 C85.13550603 465.66740994 76.24313419 465.66459178 67.35068321 465.65587585 C60.11956536 465.64908344 52.88846877 465.6481893 45.65734863 465.6514473 C44.62572672 465.651907 43.59410481 465.65236669 42.53122163 465.65284032 C40.4350926 465.65379956 38.33896358 465.6547722 36.24283457 465.6557581 C16.61624275 465.66429993 -3.01030694 465.65449682 -22.63689184 465.638357 C-39.45456356 465.62495492 -56.27217315 465.62728336 -73.08984375 465.64111328 C-92.64920702 465.65719044 -112.20853342 465.66347607 -131.76790237 465.65427649 C-133.85605112 465.65332091 -135.94419987 465.65237779 -138.03234863 465.6514473 C-139.05959038 465.65098447 -140.08683212 465.65052164 -141.1452024 465.65004479 C-148.36239496 465.64746131 -155.57956401 465.65181203 -162.79675293 465.65888596 C-171.59959146 465.66732491 -180.4023498 465.66497062 -189.20517921 465.64904372 C-193.69112686 465.64119316 -198.1769411 465.63801416 -202.66288757 465.64799118 C-206.77850738 465.65700571 -210.89387156 465.65189545 -215.00946856 465.63605852 C-216.48908632 465.63273907 -217.9687262 465.63433989 -219.44832945 465.64168589 C-241.73827396 465.74376291 -260.29320365 459.87419995 -277.1875 445.25 C-277.86167969 444.68796875 -278.53585937 444.1259375 -279.23046875 443.546875 C-292.6753497 431.36341309 -301.24963781 410.97918482 -302.31347656 393.13720703 C-303.21759377 366.94641926 -293.8412121 347.84456038 -281.109375 325.62207031 C-277.94262864 320.06578211 -274.84820049 314.46970617 -271.75 308.875 C-270.49106707 306.60667001 -269.23195173 304.33844124 -267.97265625 302.0703125 C-267.34762207 300.94399414 -266.72258789 299.81767578 -266.07861328 298.65722656 C-262.32638372 291.89681916 -258.57030141 285.13855159 -254.81494141 278.37988281 C-251.6761357 272.73052336 -248.53826378 267.08064935 -245.40234375 261.4296875 C-238.77681321 249.49278123 -232.13120133 237.56759071 -225.45458984 225.65917969 C-219.29921327 214.67520993 -213.18817614 203.66672498 -207.07861328 192.65722656 C-203.3271778 185.89824985 -199.572079 179.14130741 -195.81713867 172.38427734 C-192.66457703 166.71073548 -189.51397497 161.03612177 -186.3671875 155.359375 C-180.53456716 144.84168202 -174.68488889 134.33537931 -168.75 123.875 C-162.83405737 113.44454717 -157.03783081 102.94996612 -151.25419617 92.44589233 C-150.91765518 91.83468536 -150.5811142 91.22347839 -150.234375 90.59375 C-149.7292614 89.6763353 -149.7292614 89.6763353 -149.21394348 88.74038696 C-143.84616148 78.99477186 -138.43897283 69.27101511 -133.02539062 59.55078125 C-131.78881008 57.3299299 -130.55314919 55.10856625 -129.31835938 52.88671875 C-125.79863182 46.55489473 -122.26358383 40.23225917 -118.69775391 33.92626953 C-117.7549533 32.25556468 -116.81639257 30.58245157 -115.88427734 28.90576172 C-104.60148145 8.64135822 -88.74338118 -6.02870813 -66.3125 -13.1875 C-43.27959386 -18.77707555 -18.81561219 -14.52652921 0 0 Z " fill="#FEFEFE" transform="translate(302.1875,30.75)"/>
<path d="M0 0 C1.27922927 1.07340623 2.55013137 2.15681479 3.8125 3.25 C4.64007813 3.89066406 5.46765625 4.53132813 6.3203125 5.19140625 C21.73144467 17.92129129 30.25701423 40.39043985 39.71369934 57.61494446 C43.24652987 64.04662411 46.80820569 70.46208962 50.375 76.875 C51.29563232 78.53063965 51.29563232 78.53063965 52.23486328 80.21972656 C53.47288415 82.44601783 54.71100245 84.67225492 55.94921875 86.8984375 C57.83228871 90.28559478 59.71333173 93.67386997 61.59375 97.0625 C67.64699333 107.96942766 73.71211996 118.86935597 79.8125 129.75 C86.54777072 141.76303568 93.23866786 153.8004417 99.92138672 165.84277344 C103.04995051 171.47951966 106.18132607 177.1147034 109.3125 182.75 C113.075631 189.52265455 116.83815148 196.2956442 120.59765625 203.0703125 C126.64994729 213.97444017 132.71354306 224.87189422 138.8125 235.75 C146.81985722 250.03193046 154.76364818 264.34897802 162.70800781 278.66601562 C164.59662238 282.06922311 166.48566639 285.47219165 168.375 288.875 C169.3036084 290.54767944 169.3036084 290.54767944 170.25097656 292.25415039 C173.89699874 298.81689491 177.5587484 305.37054133 181.234375 311.91674805 C184.1008614 317.02386603 186.95829571 322.13600977 189.8125 327.25 C190.65119629 328.75046875 190.65119629 328.75046875 191.50683594 330.28125 C203.88435857 352.47841843 203.88435857 352.47841843 206.8125 361.25 C207.12703125 362.16136719 207.4415625 363.07273437 207.765625 364.01171875 C213.79639764 384.98235997 210.21448478 407.72425985 199.94921875 426.62109375 C197.08574719 431.62729913 193.70877225 436.00425295 189.8125 440.25 C189.13703125 441.01699219 188.4615625 441.78398437 187.765625 442.57421875 C174.63322949 456.6891475 156.0100802 464.15303909 136.99924469 465.52524066 C132.96666131 465.63289254 128.94457456 465.65097632 124.91113281 465.63095093 C123.36619869 465.63441692 121.82126705 465.63918774 120.27634048 465.64513266 C116.0749325 465.65754317 111.87373151 465.65151819 107.67232323 465.64217401 C103.12418662 465.63534262 98.57608383 465.64588487 94.0279541 465.65411377 C85.13550603 465.66740994 76.24313419 465.66459178 67.35068321 465.65587585 C60.11956536 465.64908344 52.88846877 465.6481893 45.65734863 465.6514473 C44.62572672 465.651907 43.59410481 465.65236669 42.53122163 465.65284032 C40.4350926 465.65379956 38.33896358 465.6547722 36.24283457 465.6557581 C16.61624275 465.66429993 -3.01030694 465.65449682 -22.63689184 465.638357 C-39.45456356 465.62495492 -56.27217315 465.62728336 -73.08984375 465.64111328 C-92.64920702 465.65719044 -112.20853342 465.66347607 -131.76790237 465.65427649 C-133.85605112 465.65332091 -135.94419987 465.65237779 -138.03234863 465.6514473 C-139.05959038 465.65098447 -140.08683212 465.65052164 -141.1452024 465.65004479 C-148.36239496 465.64746131 -155.57956401 465.65181203 -162.79675293 465.65888596 C-171.59959146 465.66732491 -180.4023498 465.66497062 -189.20517921 465.64904372 C-193.69112686 465.64119316 -198.1769411 465.63801416 -202.66288757 465.64799118 C-206.77850738 465.65700571 -210.89387156 465.65189545 -215.00946856 465.63605852 C-216.48908632 465.63273907 -217.9687262 465.63433989 -219.44832945 465.64168589 C-241.73827396 465.74376291 -260.29320365 459.87419995 -277.1875 445.25 C-277.86167969 444.68796875 -278.53585937 444.1259375 -279.23046875 443.546875 C-292.6753497 431.36341309 -301.24963781 410.97918482 -302.31347656 393.13720703 C-303.21759377 366.94641926 -293.8412121 347.84456038 -281.109375 325.62207031 C-277.94262864 320.06578211 -274.84820049 314.46970617 -271.75 308.875 C-270.49106707 306.60667001 -269.23195173 304.33844124 -267.97265625 302.0703125 C-267.34762207 300.94399414 -266.72258789 299.81767578 -266.07861328 298.65722656 C-262.32638372 291.89681916 -258.57030141 285.13855159 -254.81494141 278.37988281 C-251.6761357 272.73052336 -248.53826378 267.08064935 -245.40234375 261.4296875 C-238.77681321 249.49278123 -232.13120133 237.56759071 -225.45458984 225.65917969 C-219.29921327 214.67520993 -213.18817614 203.66672498 -207.07861328 192.65722656 C-203.3271778 185.89824985 -199.572079 179.14130741 -195.81713867 172.38427734 C-192.66457703 166.71073548 -189.51397497 161.03612177 -186.3671875 155.359375 C-180.53456716 144.84168202 -174.68488889 134.33537931 -168.75 123.875 C-162.83405737 113.44454717 -157.03783081 102.94996612 -151.25419617 92.44589233 C-150.91765518 91.83468536 -150.5811142 91.22347839 -150.234375 90.59375 C-149.7292614 89.6763353 -149.7292614 89.6763353 -149.21394348 88.74038696 C-143.84616148 78.99477186 -138.43897283 69.27101511 -133.02539062 59.55078125 C-131.78881008 57.3299299 -130.55314919 55.10856625 -129.31835938 52.88671875 C-125.79863182 46.55489473 -122.26358383 40.23225917 -118.69775391 33.92626953 C-117.7549533 32.25556468 -116.81639257 30.58245157 -115.88427734 28.90576172 C-104.60148145 8.64135822 -88.74338118 -6.02870813 -66.3125 -13.1875 C-43.27959386 -18.77707555 -18.81561219 -14.52652921 0 0 Z M-69.1875 45.25 C-71.5797936 48.8825165 -73.63551191 52.66718259 -75.6875 56.5 C-76.91792886 58.74741767 -78.14839901 60.99481274 -79.37890625 63.2421875 C-80.32080811 64.97807129 -80.32080811 64.97807129 -81.28173828 66.74902344 C-84.35604292 72.39666993 -87.49460576 78.00831881 -90.625 83.625 C-91.88461146 85.89295328 -93.14372366 88.1611839 -94.40234375 90.4296875 C-98.78463922 98.32663139 -103.17090073 106.22136959 -107.55786133 114.11572266 C-110.71042297 119.78926452 -113.86102503 125.46387823 -117.0078125 131.140625 C-122.84043284 141.65831798 -128.69011111 152.16462069 -134.625 162.625 C-140.54094263 173.05545283 -146.33716919 183.55003388 -152.12080383 194.05410767 C-152.45734482 194.66531464 -152.7938858 195.27652161 -153.140625 195.90625 C-153.4773674 196.5178598 -153.8141098 197.1294696 -154.16105652 197.75961304 C-163.01029979 213.82608497 -171.9506041 229.84204454 -180.9206543 245.84130859 C-187.07602137 256.82507518 -193.18691219 267.83343419 -199.29638672 278.84277344 C-203.0478222 285.60175015 -206.802921 292.35869259 -210.55786133 299.11572266 C-213.71042297 304.78926452 -216.86102503 310.46387823 -220.0078125 316.140625 C-226.00355298 326.95213809 -232.02268828 337.74822293 -238.125 348.5 C-252.24770573 371.85620004 -252.24770573 371.85620004 -252.38671875 398.37890625 C-248.59786026 406.69877078 -241.46601324 412.65019367 -233.1875 416.25 C-230.01316033 416.69488365 -230.01316033 416.69488365 -226.63066292 416.63031673 C-225.32086027 416.63875668 -224.01105763 416.64719662 -222.66156399 416.65589231 C-221.21481472 416.6500975 -219.76806658 416.6440165 -218.32131958 416.63768005 C-216.77916351 416.64185363 -215.2370105 416.64733128 -213.6948632 416.65399987 C-209.45961442 416.6684702 -205.22455998 416.6642048 -200.98930049 416.65683305 C-196.42068444 416.65210758 -191.85211081 416.66460576 -187.2835083 416.67485046 C-178.33402734 416.69205626 -169.38461654 416.69287475 -160.43512334 416.68763756 C-153.1612997 416.68359778 -145.88749681 416.68503714 -138.61367416 416.69038582 C-137.57881178 416.69113424 -136.5439494 416.69188266 -135.47772755 416.69265376 C-133.3754646 416.69418523 -131.27320166 416.69572357 -129.17093872 416.69726873 C-109.45113056 416.71100033 -89.73136207 416.70555155 -70.01155482 416.69408352 C-51.969226 416.68415143 -33.92699973 416.69709023 -15.88468672 416.72101771 C2.63871581 416.74539821 21.16207056 416.7550191 39.68548882 416.74836498 C50.0859482 416.74487031 60.48632871 416.74712119 70.88677597 416.76461601 C79.7409197 416.7793249 88.59492902 416.77999066 97.44907008 416.7625451 C101.96653148 416.75402173 106.48375264 416.75191812 111.00120163 416.76719666 C115.13785044 416.78101406 119.27405253 416.77631876 123.4106753 416.75695742 C124.90591645 416.753188 126.40119313 416.75614651 127.8964027 416.76656907 C137.58479851 416.82929293 144.10111573 416.42599969 151.5625 409.8125 C152.305 408.966875 153.0475 408.12125 153.8125 407.25 C154.493125 406.528125 155.17375 405.80625 155.875 405.0625 C161.28927233 397.20307243 163.44067062 388.73586361 161.8125 379.25 C159.03344803 371.27492388 155.17965533 363.96314454 150.9375 356.6875 C149.78022013 354.67116366 148.62401416 352.65421067 147.46875 350.63671875 C146.86933594 349.59306152 146.26992188 348.5494043 145.65234375 347.47412109 C142.5336339 342.00892971 139.48660152 336.50423775 136.4375 331 C135.81182129 329.87198975 135.18614258 328.74397949 134.54150391 327.58178711 C133.26728305 325.28450609 131.99335806 322.98706094 130.71972656 320.68945312 C127.58756586 315.04097899 124.44981567 309.39561203 121.3125 303.75 C117.54932728 296.97736865 113.7868485 290.20435577 110.02734375 283.4296875 C103.97505271 272.52555983 97.91145694 261.62810578 91.8125 250.75 C85.07722928 238.73696432 78.38633214 226.6995583 71.70361328 214.65722656 C67.9521778 207.89824985 64.197079 201.14130741 60.44213867 194.38427734 C57.28957703 188.71073548 54.13897497 183.03612177 50.9921875 177.359375 C45.15956716 166.84168202 39.30988889 156.33537931 33.375 145.875 C27.45905737 135.44454717 21.66283081 124.94996612 15.87919617 114.44589233 C15.54265518 113.83468536 15.2061142 113.22347839 14.859375 112.59375 C14.5226326 111.9821402 14.1858902 111.3705304 13.83894348 110.74038696 C8.47431642 101.0004999 3.06983034 91.28274015 -2.34082031 81.56835938 C-4.22781672 78.17755355 -6.11002613 74.78411656 -7.9921875 71.390625 C-9.22374115 69.17696249 -10.45550408 66.9634164 -11.6875 64.75 C-12.51435303 63.25581543 -12.51435303 63.25581543 -13.35791016 61.73144531 C-22.6670383 44.0839019 -22.6670383 44.0839019 -38.99609375 33.7265625 C-51.53037034 31.00074834 -61.17768538 35.65631757 -69.1875 45.25 Z " fill="#FF0303" transform="translate(302.1875,30.75)"/>
<path d="M0 0 C6.0028833 3.52152444 10.48609565 8.92760358 12.6875 15.5 C12.91110229 18.35452271 12.91110229 18.35452271 12.86279297 21.57470703 C12.84440369 22.81641663 12.8260144 24.05812622 12.80706787 25.33746338 C12.59542353 33.3305775 12.24533724 41.31725877 11.8828125 49.3046875 C11.79840341 51.21860466 11.71429893 53.13253527 11.63047791 55.04647827 C11.36193635 61.15617203 11.08774307 67.26560492 10.8125 73.375 C10.43758725 81.70046684 10.06347363 90.02596797 9.69140625 98.3515625 C9.64576727 99.36923203 9.60012829 100.38690155 9.55310631 101.43540955 C9.0086753 113.60901428 8.51686803 125.78056399 8.15234375 137.9609375 C8.08011313 140.2124087 8.00769641 142.46387393 7.93505859 144.71533203 C7.81023276 148.6094206 7.71416583 152.50269464 7.63525391 156.39794922 C7.35843624 166.38595154 6.59638651 172.71084243 -0.875 180 C-6.48740654 182.44905013 -12.70492053 182.89544518 -18.50390625 180.65234375 C-23.05736568 177.7511115 -25.67321874 173.59013491 -27.3125 168.5 C-28.00719617 163.36204191 -28.12787284 158.23005363 -28.25390625 153.0546875 C-28.3055748 151.50800815 -28.35901409 149.96138709 -28.41409302 148.41482544 C-28.52827528 145.11777149 -28.63137049 141.82063808 -28.72543335 138.52294922 C-28.87348554 133.34146921 -29.04576142 128.16099296 -29.22387695 122.98046875 C-29.25363082 122.11380711 -29.28338469 121.24714546 -29.31404018 120.35422134 C-29.37445095 118.59566491 -29.43493791 116.83711109 -29.49550056 115.07855988 C-29.58625982 112.42024679 -29.67463567 109.76186289 -29.76255798 107.10345459 C-30.14139344 95.7542698 -30.60440543 84.41200994 -31.1640625 73.0703125 C-31.1993424 72.35503262 -31.23462231 71.63975273 -31.2709713 70.9027977 C-31.57369023 64.79675564 -31.88667671 58.69125863 -32.2024231 52.58587646 C-32.33110091 50.09359678 -32.45864353 47.60125818 -32.58493042 45.1088562 C-32.69741646 42.89216463 -32.81268656 40.67561128 -32.93167114 38.45925903 C-33.20031844 33.16875538 -33.38842486 27.87874113 -33.47583008 22.58203125 C-33.49478836 21.54796143 -33.51374664 20.5138916 -33.53327942 19.44848633 C-33.03235745 12.7587252 -29.70330568 7.44132244 -24.8125 3 C-17.95162623 -2.56636929 -8.08603928 -3.56922828 0 0 Z " fill="#010101" transform="translate(266.3125,157.5)"/>
<path d="M0 0 C4.41391027 2.29199377 7.26634502 5.37769806 10.0625 9.4375 C10.990625 10.7678125 10.990625 10.7678125 11.9375 12.125 C14.31230891 19.11749291 14.08023756 26.08274006 11 32.8125 C7.14888731 39.57914433 2.57763301 43.37361495 -4.9375 45.4375 C-12.2681838 46.31129543 -18.69283329 46.14360787 -25 42.0625 C-30.30908936 37.60971537 -34.29557459 31.83637837 -35.30859375 24.89453125 C-35.48866669 17.72339126 -34.21151659 12.28993038 -29.9375 6.4375 C-27.46167786 4.06953546 -24.88679576 2.17306967 -21.9375 0.4375 C-21.32390625 0.06367188 -20.7103125 -0.31015625 -20.078125 -0.6953125 C-14.02048694 -3.14931916 -5.9839141 -2.37117685 0 0 Z " fill="#020202" transform="translate(266.9375,373.5625)"/>
</svg>
