<?xml version="1.0" encoding="UTF-8"?>
<!DOCTYPE svg PUBLIC "-//W3C//DTD SVG 1.1//EN" "http://www.w3.org/Graphics/SVG/1.1/DTD/svg11.dtd">
<svg xmlns="http://www.w3.org/2000/svg" version="1.1" width="512px" height="512px" style="shape-rendering:geometricPrecision; text-rendering:geometricPrecision; image-rendering:optimizeQuality; fill-rule:evenodd; clip-rule:evenodd" xmlns:xlink="http://www.w3.org/1999/xlink">
<g><path style="opacity:0.923" fill="#ff695a" d="M 145.5,22.5 C 263.167,22.5 380.833,22.5 498.5,22.5C 498.5,27.8333 498.5,33.1667 498.5,38.5C 380.833,38.5 263.167,38.5 145.5,38.5C 145.5,33.1667 145.5,27.8333 145.5,22.5 Z"/></g>
<g><path style="opacity:0.981" fill="#ff6859" d="M 162.5,51.5 C 269.167,51.5 375.833,51.5 482.5,51.5C 482.5,125.833 482.5,200.167 482.5,274.5C 370.167,274.5 257.833,274.5 145.5,274.5C 145.333,260.829 145.5,247.163 146,233.5C 161.615,228.72 177.115,223.554 192.5,218C 209.016,203.813 225.183,189.313 241,174.5C 246.23,166.578 246.73,158.412 242.5,150C 255,137.5 267.5,125 280,112.5C 282.431,107.025 280.764,103.359 275,101.5C 260.752,113.744 247.085,126.744 234,140.5C 224.763,135.038 215.596,135.205 206.5,141C 194.5,151.667 182.5,162.333 170.5,173C 167.854,173.497 165.187,173.664 162.5,173.5C 162.5,132.833 162.5,92.1667 162.5,51.5 Z M 308.5,101.5 C 348.168,101.333 387.835,101.5 427.5,102C 433.244,105.132 433.911,109.132 429.5,114C 388.5,114.667 347.5,114.667 306.5,114C 302.276,109.059 302.943,104.892 308.5,101.5 Z M 276.5,138.5 C 308.168,138.333 339.835,138.5 371.5,139C 376.932,143.324 376.599,147.324 370.5,151C 339.5,151.667 308.5,151.667 277.5,151C 271.181,147.255 270.848,143.088 276.5,138.5 Z M 397.5,138.5 C 408.172,138.333 418.839,138.5 429.5,139C 433.654,143.399 433.321,147.399 428.5,151C 418.5,151.667 408.5,151.667 398.5,151C 392.181,147.255 391.848,143.088 397.5,138.5 Z M 259.5,174.5 C 315.834,174.333 372.168,174.5 428.5,175C 432.292,177.053 433.458,180.219 432,184.5C 431.167,185.333 430.333,186.167 429.5,187C 372.5,187.667 315.5,187.667 258.5,187C 253.505,182.462 253.838,178.296 259.5,174.5 Z M 274.5,211.5 C 285.505,211.333 296.505,211.5 307.5,212C 310.29,214.21 311.123,217.044 310,220.5C 308.764,222.538 306.931,223.705 304.5,224C 295.5,224.667 286.5,224.667 277.5,224C 270.788,221.235 269.788,217.069 274.5,211.5 Z M 341.5,211.5 C 370.835,211.333 400.169,211.5 429.5,212C 432.576,214.612 433.243,217.779 431.5,221.5C 430.088,222.806 428.421,223.64 426.5,224C 399.167,224.667 371.833,224.667 344.5,224C 337.926,221.205 336.926,217.038 341.5,211.5 Z"/></g>
<g><path style="opacity:0.98" fill="#2d365f" d="M 81.5,104.5 C 105.886,102.73 119.552,113.897 122.5,138C 120.095,160.734 107.429,171.734 84.5,171C 64.1981,166.249 54.6981,153.416 56,132.5C 59.1279,118.208 67.6279,108.875 81.5,104.5 Z"/></g>
<g><path style="opacity:0.988" fill="#2e365f" d="M 217.5,149.5 C 225.995,148.568 230.995,152.234 232.5,160.5C 232.232,164.143 230.899,167.31 228.5,170C 214.203,181.961 200.203,194.295 186.5,207C 169.561,212.535 152.561,217.869 135.5,223C 134.667,223.833 133.833,224.667 133,225.5C 132.5,252.831 132.333,280.165 132.5,307.5C 103.5,307.5 74.5,307.5 45.5,307.5C 45.6666,281.498 45.5,255.498 45,229.5C 39.6235,225.011 35.6235,226.011 33,232.5C 32.6667,259.833 32.3333,287.167 32,314.5C 25.6667,322.5 19.3333,322.5 13,314.5C 12.3333,283.5 12.3333,252.5 13,221.5C 17.7614,203.739 28.9281,192.239 46.5,187C 89.1667,186.667 131.833,186.333 174.5,186C 188.754,173.567 203.087,161.4 217.5,149.5 Z"/></g>
<g><path style="opacity:0.923" fill="#ff695a" d="M 145.5,287.5 C 263.167,287.5 380.833,287.5 498.5,287.5C 498.5,292.833 498.5,298.167 498.5,303.5C 380.833,303.5 263.167,303.5 145.5,303.5C 145.5,298.167 145.5,292.833 145.5,287.5 Z"/></g>
<g><path style="opacity:0.986" fill="#2e3660" d="M 45.5,320.5 C 74.5,320.5 103.5,320.5 132.5,320.5C 132.667,370.834 132.5,421.168 132,471.5C 128.759,485.208 120.259,490.374 106.5,487C 101.011,484.532 97.5109,480.365 96,474.5C 95.6667,437.167 95.3333,399.833 95,362.5C 92.3689,358.371 88.8689,357.538 84.5,360C 83.8742,360.75 83.3742,361.584 83,362.5C 82.982,400.893 82.3154,439.226 81,477.5C 74.2552,488.48 65.0886,490.98 53.5,485C 50.5665,482.736 48.3999,479.902 47,476.5C 45.5222,424.538 45.0222,372.538 45.5,320.5 Z"/></g>
<g><path style="opacity:0.977" fill="#2e365f" d="M 192.5,364.5 C 210.422,362.291 222.255,369.624 228,386.5C 229.87,410.63 218.703,422.463 194.5,422C 172.13,414.246 165.63,399.412 175,377.5C 179.581,371.41 185.415,367.077 192.5,364.5 Z"/></g>
<g><path style="opacity:0.977" fill="#2d365f" d="M 315.5,364.5 C 336.504,363.184 348.504,372.851 351.5,393.5C 348.796,413.375 337.463,422.875 317.5,422C 298.697,416.868 290.863,404.702 294,385.5C 297.785,374.88 304.952,367.88 315.5,364.5 Z"/></g>
<g><path style="opacity:0.976" fill="#2d365f" d="M 437.5,364.5 C 461.637,363.139 473.471,374.473 473,398.5C 468.365,415.573 457.199,423.406 439.5,422C 421.335,417.145 413.502,405.312 416,386.5C 419.35,375.318 426.517,367.984 437.5,364.5 Z"/></g>
<g><path style="opacity:0.977" fill="#2d3760" d="M 164.5,435.5 C 188.169,435.333 211.836,435.5 235.5,436C 245.443,438.942 251.609,445.442 254,455.5C 254.949,465.6 254.615,475.6 253,485.5C 252.097,486.701 250.931,487.535 249.5,488C 215.44,488.979 181.44,488.646 147.5,487C 146.874,486.25 146.374,485.416 146,484.5C 145.333,473.833 145.333,463.167 146,452.5C 149.426,443.727 155.593,438.06 164.5,435.5 Z"/></g>
<g><path style="opacity:0.976" fill="#2d365f" d="M 286.5,435.5 C 310.169,435.333 333.836,435.5 357.5,436C 366.598,438.766 372.765,444.599 376,453.5C 376.667,463.833 376.667,474.167 376,484.5C 374.786,486.049 373.286,487.215 371.5,488C 337.748,488.986 304.081,488.652 270.5,487C 269.667,486.167 268.833,485.333 268,484.5C 267.333,474.167 267.333,463.833 268,453.5C 271.416,444.583 277.583,438.583 286.5,435.5 Z"/></g>
<g><path style="opacity:0.977" fill="#2d3660" d="M 409.5,435.5 C 432.836,435.333 456.169,435.5 479.5,436C 488.688,438.168 494.855,443.668 498,452.5C 498.955,463.931 498.622,475.264 497,486.5C 495.933,487.191 494.766,487.691 493.5,488C 477,488.167 460.5,488.333 444,488.5C 426.745,488.654 409.578,488.154 392.5,487C 391.299,486.097 390.465,484.931 390,483.5C 389.097,472.774 389.431,462.107 391,451.5C 394.609,443.048 400.775,437.715 409.5,435.5 Z"/></g>
</svg>
