<?xml version="1.0" encoding="UTF-8"?>
<!DOCTYPE svg PUBLIC "-//W3C//DTD SVG 1.1//EN" "http://www.w3.org/Graphics/SVG/1.1/DTD/svg11.dtd">
<svg xmlns="http://www.w3.org/2000/svg" version="1.1" width="512px" height="512px" style="shape-rendering:geometricPrecision; text-rendering:geometricPrecision; image-rendering:optimizeQuality; fill-rule:evenodd; clip-rule:evenodd" xmlns:xlink="http://www.w3.org/1999/xlink">
<g><path style="opacity:0.938" fill="#f5c84c" d="M 210.5,-0.5 C 213.167,-0.5 215.833,-0.5 218.5,-0.5C 221.957,3.41176 222.291,7.57843 219.5,12C 210.242,15.2948 206.409,12.1282 208,2.5C 209.045,1.62656 209.878,0.626561 210.5,-0.5 Z"/></g>
<g><path style="opacity:0.942" fill="#fc647d" d="M 279.5,34.5 C 287.591,33.6298 290.924,37.2965 289.5,45.5C 295.651,43.8436 299.317,46.0102 300.5,52C 299.317,57.9898 295.651,60.1564 289.5,58.5C 290.321,68.8702 286.155,71.8702 277,67.5C 275.711,64.6492 275.211,61.6492 275.5,58.5C 265.841,59.6496 262.841,55.8163 266.5,47C 269.351,45.7114 272.351,45.2114 275.5,45.5C 274.656,40.8619 275.989,37.1953 279.5,34.5 Z"/></g>
<g><path style="opacity:0.963" fill="#030202" d="M 153.5,63.5 C 180.132,62.3014 193.632,74.9681 194,101.5C 192.678,110.989 188.178,118.489 180.5,124C 205.68,127.676 218.68,142.176 219.5,167.5C 224.516,166.379 229.516,165.212 234.5,164C 219.982,150.736 217.149,135.236 226,117.5C 239.269,100.979 255.436,97.4785 274.5,107C 287.41,116.725 292.244,129.558 289,145.5C 286.948,153.105 282.782,159.272 276.5,164C 281.484,165.212 286.484,166.379 291.5,167.5C 292.32,142.176 305.32,127.676 330.5,124C 318.581,114.579 314.415,102.413 318,87.5C 327.503,65.3229 343.669,58.4896 366.5,67C 384.602,79.4913 388.768,95.658 379,115.5C 376.833,119 374,121.833 370.5,124C 391.113,126.283 403.947,137.45 409,157.5C 409.333,167.833 409.667,178.167 410,188.5C 423.025,208.179 420.858,226.013 403.5,242C 424.997,243.815 438.83,254.981 445,275.5C 446.934,292.854 446.934,310.187 445,327.5C 443.221,331.612 440.388,334.778 436.5,337C 416.901,338.463 397.234,338.963 377.5,338.5C 377.666,348.506 377.5,358.506 377,368.5C 375.167,375.667 370.667,380.167 363.5,382C 349.821,382.167 336.154,382.667 322.5,383.5C 323.154,385.115 323.654,386.782 324,388.5C 324.667,406.5 324.667,424.5 324,442.5C 321.833,448.667 317.667,452.833 311.5,455C 274.167,455.667 236.833,455.667 199.5,455C 193.333,452.833 189.167,448.667 187,442.5C 186.333,424.5 186.333,406.5 187,388.5C 187.346,386.782 187.846,385.115 188.5,383.5C 174.846,382.667 161.179,382.167 147.5,382C 140.333,380.167 135.833,375.667 134,368.5C 133.5,358.506 133.334,348.506 133.5,338.5C 114.83,338.667 96.1637,338.5 77.5,338C 70.4829,335.648 66.3162,330.815 65,323.5C 64.3333,310.167 64.3333,296.833 65,283.5C 68.2339,258.601 82.4006,244.767 107.5,242C 90.1402,225.973 87.9735,208.139 101,188.5C 101.087,176.776 101.754,165.11 103,153.5C 109.008,135.499 121.508,125.666 140.5,124C 128.581,114.579 124.415,102.413 128,87.5C 132.217,74.7781 140.717,66.7781 153.5,63.5 Z M 164.5,213.5 C 174.5,213.5 184.5,213.5 194.5,213.5C 194.799,215.604 194.466,217.604 193.5,219.5C 182.506,221.341 173.673,226.675 167,235.5C 165.259,238.309 164.092,241.309 163.5,244.5C 158.905,243.352 154.238,242.519 149.5,242C 159.092,234.986 164.092,225.486 164.5,213.5 Z M 316.5,213.5 C 326.5,213.5 336.5,213.5 346.5,213.5C 346.908,225.486 351.908,234.986 361.5,242C 356.762,242.519 352.095,243.352 347.5,244.5C 344.931,235.537 339.597,228.703 331.5,224C 326.988,221.996 322.322,220.496 317.5,219.5C 316.534,217.604 316.201,215.604 316.5,213.5 Z M 233.5,256.5 C 248.167,256.5 262.833,256.5 277.5,256.5C 278.005,269.013 283.338,278.846 293.5,286C 289.805,286.318 286.138,286.818 282.5,287.5C 264.5,275.5 246.5,275.5 228.5,287.5C 224.862,286.818 221.195,286.318 217.5,286C 227.662,278.846 232.995,269.013 233.5,256.5 Z"/></g>
<g><path style="opacity:1" fill="#f5ccb1" d="M 155.5,73.5 C 178.681,74.5393 187.181,86.206 181,108.5C 172.451,120.128 161.618,122.962 148.5,117C 137.272,108.848 134.439,98.3483 140,85.5C 144.02,79.9194 149.186,75.9194 155.5,73.5 Z"/></g>
<g><path style="opacity:1" fill="#f5ccb1" d="M 345.5,73.5 C 365.672,73.5024 374.838,83.5024 373,103.5C 368.075,116.047 358.909,121.547 345.5,120C 329.151,113.645 323.985,102.145 330,85.5C 334.02,79.9194 339.186,75.9194 345.5,73.5 Z"/></g>
<g><path style="opacity:0.932" fill="#70d6f9" d="M 431.5,105.5 C 432.496,105.414 433.329,105.748 434,106.5C 435.923,112.721 440.09,116.554 446.5,118C 440.026,120.474 435.526,124.974 433,131.5C 430.651,124.985 426.151,120.652 419.5,118.5C 425.648,116.023 429.648,111.69 431.5,105.5 Z"/></g>
<g><path style="opacity:1" fill="#f6cdb1" d="M 248.5,112.5 C 270.154,110.988 280.321,120.988 279,142.5C 272.349,158.494 260.849,163.66 244.5,158C 231.22,149.275 228.053,137.775 235,123.5C 238.336,118.269 242.836,114.602 248.5,112.5 Z"/></g>
<g><path style="opacity:1" fill="#b396f6" d="M 113.5,179.5 C 112.509,173.021 112.176,166.354 112.5,159.5C 115.672,146.162 124.005,137.995 137.5,135C 152.833,134.333 168.167,134.333 183.5,135C 203.731,140.939 212.231,154.439 209,175.5C 200.47,182.894 195.97,192.227 195.5,203.5C 184.813,203.832 174.146,203.499 163.5,202.5C 153.849,179.675 137.182,172.009 113.5,179.5 Z"/></g>
<g><path style="opacity:1" fill="#85ce46" d="M 398.5,159.5 C 398.824,166.354 398.491,173.021 397.5,179.5C 373.819,172.008 357.152,179.675 347.5,202.5C 336.854,203.499 326.187,203.832 315.5,203.5C 315.03,192.227 310.53,182.894 302,175.5C 298.831,154.986 306.998,141.486 326.5,135C 342.167,134.333 357.833,134.333 373.5,135C 386.995,137.995 395.328,146.162 398.5,159.5 Z"/></g>
<g><path style="opacity:1" fill="#685890" d="M 112.5,159.5 C 112.176,166.354 112.509,173.021 113.5,179.5C 113.44,180.043 113.107,180.376 112.5,180.5C 111.181,173.344 111.181,166.344 112.5,159.5 Z"/></g>
<g><path style="opacity:1" fill="#4e7929" d="M 398.5,159.5 C 399.819,166.344 399.819,173.344 398.5,180.5C 397.893,180.376 397.56,180.043 397.5,179.5C 398.491,173.021 398.824,166.354 398.5,159.5 Z"/></g>
<g><path style="opacity:1" fill="#6fd5f7" d="M 228.5,175.5 C 246.503,175.333 264.503,175.5 282.5,176C 294.433,179.599 301.933,187.432 305,199.5C 305.5,206.826 305.666,214.159 305.5,221.5C 291.654,224.427 282.988,232.76 279.5,246.5C 263.5,246.5 247.5,246.5 231.5,246.5C 227.608,233.217 218.941,224.884 205.5,221.5C 204.895,212.006 205.729,202.672 208,193.5C 212.544,184.823 219.377,178.823 228.5,175.5 Z"/></g>
<g><path style="opacity:1" fill="#f6cdb2" d="M 123.5,186.5 C 144.285,186.452 154.452,196.785 154,217.5C 147.275,235.419 134.775,241.252 116.5,235C 103.634,226.05 100.134,214.217 106,199.5C 110.581,193.41 116.415,189.077 123.5,186.5 Z"/></g>
<g><path style="opacity:1" fill="#f6cdb2" d="M 377.5,186.5 C 399.073,186.567 408.907,197.234 407,218.5C 401.729,233.418 391.229,239.584 375.5,237C 358.422,229.434 353.255,216.934 360,199.5C 364.38,193.075 370.213,188.741 377.5,186.5 Z"/></g>
<g><path style="opacity:1" fill="#f6cdb2" d="M 190.5,230.5 C 213.479,229.645 223.979,240.645 222,263.5C 216.389,277.223 206.222,283.057 191.5,281C 174.255,274.342 168.421,262.175 174,244.5C 178.055,238.066 183.555,233.4 190.5,230.5 Z"/></g>
<g><path style="opacity:1" fill="#f6cdb2" d="M 307.5,230.5 C 323.654,228.519 334.154,235.186 339,250.5C 339.313,271.854 328.813,282.02 307.5,281C 292.723,275.619 286.557,265.119 289,249.5C 292.017,239.984 298.184,233.651 307.5,230.5 Z"/></g>
<g><path style="opacity:1" fill="#85cf46" d="M 134.5,324.5 C 133.596,325.209 133.263,326.209 133.5,327.5C 115.833,327.5 98.1667,327.5 80.5,327.5C 78.2475,327.084 76.7475,325.751 76,323.5C 75.0605,307.113 75.3938,290.78 77,274.5C 81.9545,262.545 90.7879,255.378 103.5,253C 120.167,252.333 136.833,252.333 153.5,253C 155.788,253.822 158.122,254.489 160.5,255C 161.372,268.424 167.372,278.757 178.5,286C 153.653,287.354 138.987,300.187 134.5,324.5 Z"/></g>
<g><path style="opacity:1" fill="#f3c64b" d="M 430.5,327.5 C 412.833,327.5 395.167,327.5 377.5,327.5C 377.737,326.209 377.404,325.209 376.5,324.5C 372.163,300.669 357.829,287.836 333.5,286C 344.254,278.327 349.587,267.827 349.5,254.5C 351.854,254.162 354.187,253.662 356.5,253C 373.5,252.333 390.5,252.333 407.5,253C 421.822,255.99 430.988,264.49 435,278.5C 435.667,293.5 435.667,308.5 435,323.5C 434.252,325.751 432.752,327.084 430.5,327.5 Z"/></g>
<g><path style="opacity:1" fill="#f7ceb2" d="M 249.5,288.5 C 265.968,287.148 277.135,294.148 283,309.5C 285.282,334.787 273.782,346.62 248.5,345C 232.027,338.902 225.194,327.069 228,309.5C 231.776,298.889 238.943,291.889 249.5,288.5 Z"/></g>
<g><path style="opacity:1" fill="#b497f7" d="M 171.5,296.5 C 188.503,296.333 205.503,296.5 222.5,297C 213.937,312.353 214.771,327.186 225,341.5C 228.251,345.422 232.084,348.588 236.5,351C 219.144,350.678 205.144,357.345 194.5,371C 178.833,371.667 163.167,371.667 147.5,371C 146.667,370.167 145.833,369.333 145,368.5C 144.333,352.833 144.333,337.167 145,321.5C 149.548,308.448 158.381,300.114 171.5,296.5 Z"/></g>
<g><path style="opacity:1" fill="#fa647d" d="M 288.5,297.5 C 304.995,296.338 321.662,296.172 338.5,297C 352.359,299.857 361.526,308.023 366,321.5C 366.667,337.167 366.667,352.833 366,368.5C 365.167,369.333 364.333,370.167 363.5,371C 347.833,371.667 332.167,371.667 316.5,371C 305.862,357.348 291.862,350.682 274.5,351C 289.405,341.649 295.905,328.149 294,310.5C 293.216,305.627 291.383,301.294 288.5,297.5 Z"/></g>
<g><path style="opacity:1" fill="#609432" d="M 134.5,324.5 C 134.5,325.833 134.5,327.167 134.5,328.5C 116.326,328.83 98.3256,328.497 80.5,327.5C 98.1667,327.5 115.833,327.5 133.5,327.5C 133.263,326.209 133.596,325.209 134.5,324.5 Z"/></g>
<g><path style="opacity:1" fill="#ae8e36" d="M 376.5,324.5 C 377.404,325.209 377.737,326.209 377.5,327.5C 395.167,327.5 412.833,327.5 430.5,327.5C 412.674,328.497 394.674,328.83 376.5,328.5C 376.5,327.167 376.5,325.833 376.5,324.5 Z"/></g>
<g><path style="opacity:1" fill="#6fd4f7" d="M 226.5,361.5 C 245.17,361.333 263.836,361.5 282.5,362C 299.008,364.841 309.508,374.341 314,390.5C 314.971,407.591 314.638,424.591 313,441.5C 311.786,443.049 310.286,444.215 308.5,445C 272.415,445.987 236.415,445.653 200.5,444C 198.951,442.786 197.785,441.286 197,439.5C 196.056,421.78 196.389,404.114 198,386.5C 203.364,373.294 212.864,364.961 226.5,361.5 Z"/></g>
<g><path style="opacity:0.934" fill="#f5c84c" d="M 128.5,431.5 C 132.456,440.451 139.123,446.784 148.5,450.5C 138.927,453.073 132.594,459.073 129.5,468.5C 126.067,459.399 119.734,453.399 110.5,450.5C 119.95,447.385 125.95,441.052 128.5,431.5 Z"/></g>
<g><path style="opacity:0.909" fill="#87d047" d="M 196.5,511.5 C 193.833,511.5 191.167,511.5 188.5,511.5C 185.645,508.408 184.812,504.741 186,500.5C 190.801,496.251 195.134,496.584 199,501.5C 199.976,505.327 199.143,508.66 196.5,511.5 Z"/></g>
</svg>
