<?xml version="1.0" encoding="UTF-8"?>
<!DOCTYPE svg PUBLIC "-//W3C//DTD SVG 1.1//EN" "http://www.w3.org/Graphics/SVG/1.1/DTD/svg11.dtd">
<svg xmlns="http://www.w3.org/2000/svg" version="1.1" width="512px" height="512px" style="shape-rendering:geometricPrecision; text-rendering:geometricPrecision; image-rendering:optimizeQuality; fill-rule:evenodd; clip-rule:evenodd" xmlns:xlink="http://www.w3.org/1999/xlink">
<g><path style="opacity:0.982" fill="#62a4fb" d="M 247.5,76.5 C 266.015,74.1675 278.849,81.5008 286,98.5C 290.149,119.044 282.315,132.544 262.5,139C 244.334,141.505 231.834,134.339 225,117.5C 221.035,97.4242 228.535,83.7575 247.5,76.5 Z"/></g>
<g><path style="opacity:0.984" fill="#fad807" d="M 125.5,104.5 C 142.588,102.463 154.755,109.13 162,124.5C 167.077,143.502 160.91,157.336 143.5,166C 123.965,171.145 110.132,164.645 102,146.5C 97.6474,125.528 105.481,111.528 125.5,104.5 Z"/></g>
<g><path style="opacity:0.983" fill="#fad807" d="M 371.5,104.5 C 391.225,102.435 404.059,110.768 410,129.5C 412.153,148.377 404.32,160.877 386.5,167C 359,168.833 346.167,156 348,128.5C 351.34,115.994 359.174,107.994 371.5,104.5 Z"/></g>
<g><path style="opacity:0.971" fill="#62a4fb" d="M 249.5,148.5 C 281.407,148.104 302.407,162.937 312.5,193C 303.669,190.171 294.669,187.505 285.5,185C 265.5,180.333 245.5,180.333 225.5,185C 216.331,187.505 207.331,190.171 198.5,193C 206.661,167.935 223.661,153.102 249.5,148.5 Z"/></g>
<g><path style="opacity:0.978" fill="#fad807" d="M 129.5,176.5 C 151.817,176.489 169.15,185.656 181.5,204C 168.585,212.247 157.585,222.58 148.5,235C 144.167,235.667 139.833,235.667 135.5,235C 129.147,212.812 114.813,198.646 92.5,192.5C 103.102,183.029 115.436,177.696 129.5,176.5 Z"/></g>
<g><path style="opacity:0.979" fill="#fad807" d="M 374.5,176.5 C 391.356,176.116 406.022,181.449 418.5,192.5C 396.187,198.646 381.853,212.812 375.5,235C 371.167,235.667 366.833,235.667 362.5,235C 353.415,222.58 342.415,212.247 329.5,204C 340.167,187.67 355.167,178.503 374.5,176.5 Z"/></g>
<g><path style="opacity:0.971" fill="#eb3a48" d="M 244.5,196.5 C 305.31,194.962 346.81,222.295 369,278.5C 384.227,338.171 366.394,385.005 315.5,419C 275.5,439.667 235.5,439.667 195.5,419C 144.606,385.005 126.773,338.171 142,278.5C 160.04,230.956 194.206,203.623 244.5,196.5 Z M 246.5,223.5 C 293.135,222.555 325.302,243.555 343,286.5C 354.821,332.322 341.321,368.489 302.5,395C 259.772,416.405 221.272,410.572 187,377.5C 160.8,345.286 156.467,310.286 174,272.5C 190.254,244.406 214.421,228.072 246.5,223.5 Z"/></g>
<g><path style="opacity:0.987" fill="#22c268" d="M 72.5,207.5 C 105.615,205.783 121.782,221.45 121,254.5C 117.446,270.387 107.946,280.887 92.5,286C 68.75,290.562 52.25,281.729 43,259.5C 37.9346,233.459 47.768,216.126 72.5,207.5 Z"/></g>
<g><path style="opacity:0.986" fill="#22c268" d="M 420.5,207.5 C 454.103,205.936 470.269,221.936 469,255.5C 462.34,278.249 447.173,288.749 423.5,287C 398.674,280.861 387.508,265.027 390,239.5C 393.942,222.728 404.108,212.062 420.5,207.5 Z"/></g>
<g><path style="opacity:0.967" fill="#eb3a47" d="M 253.5,254.5 C 260.035,254.182 264.869,256.849 268,262.5C 269.443,275.426 269.943,288.426 269.5,301.5C 282.561,301.078 295.561,301.578 308.5,303C 316.449,308.182 318.282,315.015 314,323.5C 312.039,326.135 309.539,327.969 306.5,329C 294.171,329.5 281.838,329.667 269.5,329.5C 269.667,341.838 269.5,354.171 269,366.5C 264.888,375.762 258.055,378.596 248.5,375C 245.567,372.736 243.4,369.902 242,366.5C 241.5,354.171 241.333,341.838 241.5,329.5C 229.162,329.667 216.829,329.5 204.5,329C 194.781,324.389 192.281,317.223 197,307.5C 198.543,305.622 200.376,304.122 202.5,303C 215.439,301.578 228.439,301.078 241.5,301.5C 241.333,289.495 241.5,277.495 242,265.5C 243.789,259.541 247.622,255.875 253.5,254.5 Z"/></g>
<g><path style="opacity:0.989" fill="#22c268" d="M 72.5,296.5 C 89.7098,295.137 105.71,298.804 120.5,307.5C 120.656,329.28 124.656,350.28 132.5,370.5C 92.4986,370.667 52.4986,370.5 12.5,370C 9.11133,368.028 7.778,365.028 8.5,361C 13.5323,329.628 31.199,308.961 61.5,299C 65.3474,298.367 69.014,297.533 72.5,296.5 Z"/></g>
<g><path style="opacity:0.989" fill="#22c269" d="M 420.5,296.5 C 455.099,294.878 480.599,309.211 497,339.5C 501.751,348.795 503.084,358.461 501,368.5C 500.25,369.126 499.416,369.626 498.5,370C 458.501,370.5 418.501,370.667 378.5,370.5C 386.478,350.308 390.478,329.308 390.5,307.5C 399.866,301.825 409.866,298.159 420.5,296.5 Z"/></g>
</svg>
