<?xml version="1.0" encoding="UTF-8"?>
<!DOCTYPE svg PUBLIC "-//W3C//DTD SVG 1.1//EN" "http://www.w3.org/Graphics/SVG/1.1/DTD/svg11.dtd">
<svg xmlns="http://www.w3.org/2000/svg" version="1.1" width="512px" height="512px" style="shape-rendering:geometricPrecision; text-rendering:geometricPrecision; image-rendering:optimizeQuality; fill-rule:evenodd; clip-rule:evenodd" xmlns:xlink="http://www.w3.org/1999/xlink">
<g><path style="opacity:0.994" fill="#ffcd00" d="M 232.5,-0.5 C 247.833,-0.5 263.167,-0.5 278.5,-0.5C 368.144,10.3879 435.644,54.7213 481,132.5C 488.283,146.394 494.45,160.728 499.5,175.5C 498.761,175.631 498.094,175.464 497.5,175C 462.965,140.299 428.299,105.799 393.5,71.5C 392.833,70.1667 392.167,70.1667 391.5,71.5C 380.518,78.8075 369.518,86.1408 358.5,93.5C 347.167,85.8333 335.833,78.1667 324.5,70.5C 313.004,78.4153 301.338,86.0819 289.5,93.5C 278.149,85.8077 266.815,78.141 255.5,70.5C 244.143,78.3521 232.643,86.0188 221,93.5C 209.431,85.9634 197.931,78.2967 186.5,70.5C 175.167,78.1667 163.833,85.8333 152.5,93.5C 141.299,86.4045 130.299,79.0712 119.5,71.5C 119.44,70.9569 119.107,70.6236 118.5,70.5C 117.168,189.999 117.168,309.333 118.5,428.5C 142.798,453.299 167.298,477.965 192,502.5C 192.464,503.094 192.631,503.761 192.5,504.5C 126.09,486.24 74.2567,448.24 37,390.5C 16.1784,355.868 3.67839,318.535 -0.5,278.5C -0.5,263.167 -0.5,247.833 -0.5,232.5C 10.3875,142.857 54.7208,75.3573 132.5,30C 163.971,13.3053 197.304,3.1386 232.5,-0.5 Z"/></g>
<g><path style="opacity:1" fill="#ffeeaa" d="M 119.5,71.5 C 118.5,190.332 118.167,309.332 118.5,428.5C 117.168,309.333 117.168,189.999 118.5,70.5C 119.107,70.6236 119.44,70.9569 119.5,71.5 Z"/></g>
<g><path style="opacity:1" fill="#fefefe" d="M 255.5,70.5 C 255.5,157.833 255.5,245.167 255.5,332.5C 250.167,332.5 244.833,332.5 239.5,332.5C 239.5,354.167 239.5,375.833 239.5,397.5C 244.64,398.488 249.974,398.821 255.5,398.5C 255.5,408.5 255.5,418.5 255.5,428.5C 209.833,428.5 164.167,428.5 118.5,428.5C 118.167,309.332 118.5,190.332 119.5,71.5C 130.299,79.0712 141.299,86.4045 152.5,93.5C 163.833,85.8333 175.167,78.1667 186.5,70.5C 197.931,78.2967 209.431,85.9634 221,93.5C 232.643,86.0188 244.143,78.3521 255.5,70.5 Z"/></g>
<g><path style="opacity:1" fill="#e8ecf4" d="M 255.5,70.5 C 266.815,78.141 278.149,85.8077 289.5,93.5C 301.338,86.0819 313.004,78.4153 324.5,70.5C 335.833,78.1667 347.167,85.8333 358.5,93.5C 369.518,86.1408 380.518,78.8075 391.5,71.5C 392.5,190.332 392.833,309.332 392.5,428.5C 346.833,428.5 301.167,428.5 255.5,428.5C 255.5,418.5 255.5,408.5 255.5,398.5C 249.974,398.821 244.64,398.488 239.5,397.5C 244.833,397.5 250.167,397.5 255.5,397.5C 255.333,385.162 255.5,372.829 256,360.5C 265.077,372.322 273.911,384.322 282.5,396.5C 288.128,397.495 293.794,397.829 299.5,397.5C 299.5,375.833 299.5,354.167 299.5,332.5C 294.167,332.5 288.833,332.5 283.5,332.5C 282.833,343.833 282.167,355.167 281.5,366.5C 273.186,354.858 264.519,343.525 255.5,332.5C 255.5,245.167 255.5,157.833 255.5,70.5 Z"/></g>
<g><path style="opacity:1" fill="#f0e8db" d="M 391.5,71.5 C 392.167,70.1667 392.833,70.1667 393.5,71.5C 393.833,190.668 393.5,309.668 392.5,428.5C 392.833,309.332 392.5,190.332 391.5,71.5 Z"/></g>
<g><path style="opacity:1" fill="#ffa300" d="M 393.5,71.5 C 428.299,105.799 462.965,140.299 497.5,175C 498.094,175.464 498.761,175.631 499.5,175.5C 505.314,194.242 509.314,213.242 511.5,232.5C 511.5,247.833 511.5,263.167 511.5,278.5C 500.612,368.144 456.279,435.644 378.5,481C 347.029,497.695 313.696,507.861 278.5,511.5C 263.167,511.5 247.833,511.5 232.5,511.5C 219.203,509.711 205.87,507.377 192.5,504.5C 192.631,503.761 192.464,503.094 192,502.5C 167.298,477.965 142.798,453.299 118.5,428.5C 164.167,428.5 209.833,428.5 255.5,428.5C 301.167,428.5 346.833,428.5 392.5,428.5C 393.5,309.668 393.833,190.668 393.5,71.5 Z"/></g>
<g><path style="opacity:1" fill="#ff442f" d="M 146.5,134.5 C 165.503,134.333 184.503,134.5 203.5,135C 231.343,140.176 246.676,156.842 249.5,185C 249.251,205.846 240.251,221.513 222.5,232C 218.038,234.23 213.372,235.897 208.5,237C 197.889,238.375 187.222,238.875 176.5,238.5C 175.504,253.991 175.17,269.658 175.5,285.5C 165.833,285.5 156.167,285.5 146.5,285.5C 146.5,235.167 146.5,184.833 146.5,134.5 Z"/></g>
<g><path style="opacity:1" fill="#9096a9" d="M 362.5,146.5 C 362.5,156.167 362.5,165.833 362.5,175.5C 338.167,175.5 313.833,175.5 289.5,175.5C 289.5,165.833 289.5,156.167 289.5,146.5C 313.833,146.5 338.167,146.5 362.5,146.5 Z"/></g>
<g><path style="opacity:1" fill="#ff9f95" d="M 176.5,164.5 C 176.5,178.833 176.5,193.167 176.5,207.5C 184.833,207.5 193.167,207.5 201.5,207.5C 193.016,208.493 184.349,208.826 175.5,208.5C 175.171,193.657 175.504,178.99 176.5,164.5 Z"/></g>
<g><path style="opacity:1" fill="#fffdfd" d="M 176.5,164.5 C 184.84,164.334 193.173,164.5 201.5,165C 216.244,169.655 221.744,179.488 218,194.5C 214.659,201.685 209.159,206.018 201.5,207.5C 193.167,207.5 184.833,207.5 176.5,207.5C 176.5,193.167 176.5,178.833 176.5,164.5 Z"/></g>
<g><path style="opacity:1" fill="#babfcc" d="M 362.5,146.5 C 338.167,146.5 313.833,146.5 289.5,146.5C 289.5,156.167 289.5,165.833 289.5,175.5C 313.833,175.5 338.167,175.5 362.5,175.5C 338.006,176.498 313.339,176.831 288.5,176.5C 288.5,166.167 288.5,155.833 288.5,145.5C 313.339,145.169 338.006,145.502 362.5,146.5 Z"/></g>
<g><path style="opacity:1" fill="#b6bbca" d="M 362.5,197.5 C 346.167,197.5 329.833,197.5 313.5,197.5C 313.5,207.167 313.5,216.833 313.5,226.5C 312.506,216.681 312.173,206.681 312.5,196.5C 329.342,196.17 346.008,196.503 362.5,197.5 Z"/></g>
<g><path style="opacity:1" fill="#9096a9" d="M 362.5,197.5 C 362.5,207.167 362.5,216.833 362.5,226.5C 346.167,226.5 329.833,226.5 313.5,226.5C 313.5,216.833 313.5,207.167 313.5,197.5C 329.833,197.5 346.167,197.5 362.5,197.5 Z"/></g>
<g><path style="opacity:1" fill="#ff9a8e" d="M 146.5,134.5 C 146.5,184.833 146.5,235.167 146.5,285.5C 156.167,285.5 165.833,285.5 175.5,285.5C 175.17,269.658 175.504,253.991 176.5,238.5C 176.5,254.5 176.5,270.5 176.5,286.5C 166.167,286.5 155.833,286.5 145.5,286.5C 145.168,235.664 145.501,184.997 146.5,134.5 Z"/></g>
<g><path style="opacity:1" fill="#343a41" d="M 200.5,332.5 C 200.5,337.167 200.5,341.833 200.5,346.5C 190.319,346.173 180.319,346.506 170.5,347.5C 170.5,350.833 170.5,354.167 170.5,357.5C 180.5,357.5 190.5,357.5 200.5,357.5C 200.5,362.5 200.5,367.5 200.5,372.5C 190.5,372.5 180.5,372.5 170.5,372.5C 169.507,380.65 169.174,388.983 169.5,397.5C 164.167,397.5 158.833,397.5 153.5,397.5C 153.5,375.833 153.5,354.167 153.5,332.5C 169.167,332.5 184.833,332.5 200.5,332.5 Z"/></g>
<g><path style="opacity:1" fill="#353b42" d="M 210.5,332.5 C 216.167,332.5 221.833,332.5 227.5,332.5C 227.5,354.167 227.5,375.833 227.5,397.5C 221.833,397.5 216.167,397.5 210.5,397.5C 210.5,375.833 210.5,354.167 210.5,332.5 Z"/></g>
<g><path style="opacity:1" fill="#333940" d="M 255.5,332.5 C 264.519,343.525 273.186,354.858 281.5,366.5C 281.783,367.289 282.283,367.956 283,368.5C 283.5,356.505 283.667,344.505 283.5,332.5C 288.833,332.5 294.167,332.5 299.5,332.5C 299.5,354.167 299.5,375.833 299.5,397.5C 293.794,397.829 288.128,397.495 282.5,396.5C 273.911,384.322 265.077,372.322 256,360.5C 255.5,372.829 255.333,385.162 255.5,397.5C 250.167,397.5 244.833,397.5 239.5,397.5C 239.5,375.833 239.5,354.167 239.5,332.5C 244.833,332.5 250.167,332.5 255.5,332.5 Z"/></g>
<g><path style="opacity:1" fill="#858a91" d="M 283.5,332.5 C 283.667,344.505 283.5,356.505 283,368.5C 282.283,367.956 281.783,367.289 281.5,366.5C 282.167,355.167 282.833,343.833 283.5,332.5 Z"/></g>
<g><path style="opacity:1" fill="#343a41" d="M 358.5,357.5 C 358.5,362.167 358.5,366.833 358.5,371.5C 348.319,371.173 338.319,371.506 328.5,372.5C 328.5,376.167 328.5,379.833 328.5,383.5C 338.833,383.5 349.167,383.5 359.5,383.5C 359.5,388.167 359.5,392.833 359.5,397.5C 343.5,397.5 327.5,397.5 311.5,397.5C 311.5,375.833 311.5,354.167 311.5,332.5C 327.5,332.5 343.5,332.5 359.5,332.5C 359.5,337.5 359.5,342.5 359.5,347.5C 349.167,347.5 338.833,347.5 328.5,347.5C 328.5,350.833 328.5,354.167 328.5,357.5C 338.5,357.5 348.5,357.5 358.5,357.5 Z"/></g>
<g><path style="opacity:1" fill="#71757a" d="M 200.5,332.5 C 201.487,337.305 201.821,342.305 201.5,347.5C 191.167,347.5 180.833,347.5 170.5,347.5C 180.319,346.506 190.319,346.173 200.5,346.5C 200.5,341.833 200.5,337.167 200.5,332.5 Z"/></g>
<g><path style="opacity:1" fill="#7b8087" d="M 358.5,357.5 C 359.487,362.305 359.821,367.305 359.5,372.5C 349.167,372.5 338.833,372.5 328.5,372.5C 338.319,371.506 348.319,371.173 358.5,371.5C 358.5,366.833 358.5,362.167 358.5,357.5 Z"/></g>
<g><path style="opacity:1" fill="#969a9d" d="M 170.5,372.5 C 170.5,381.167 170.5,389.833 170.5,398.5C 164.642,398.822 158.975,398.489 153.5,397.5C 158.833,397.5 164.167,397.5 169.5,397.5C 169.174,388.983 169.507,380.65 170.5,372.5 Z"/></g>
</svg>
