<?xml version="1.0" encoding="UTF-8"?>
<!DOCTYPE svg PUBLIC "-//W3C//DTD SVG 1.1//EN" "http://www.w3.org/Graphics/SVG/1.1/DTD/svg11.dtd">
<svg xmlns="http://www.w3.org/2000/svg" version="1.1" width="512px" height="512px" style="shape-rendering:geometricPrecision; text-rendering:geometricPrecision; image-rendering:optimizeQuality; fill-rule:evenodd; clip-rule:evenodd" xmlns:xlink="http://www.w3.org/1999/xlink">
<g><path style="opacity:0.991" fill="#1a3752" d="M 33.5,2.5 C 181.5,2.33333 329.5,2.5 477.5,3C 493.99,4.49229 503.823,13.3256 507,29.5C 507.667,158.833 507.667,288.167 507,417.5C 504.7,432.465 496.2,441.631 481.5,445C 485.408,448.519 487.908,452.686 489,457.5C 478.167,468.333 467.333,479.167 456.5,490C 455.092,490.315 453.759,489.982 452.5,489C 446.01,483.922 439.344,479.089 432.5,474.5C 428.245,476.363 423.912,478.03 419.5,479.5C 417.513,488.74 416.18,498.074 415.5,507.5C 399.163,507.667 382.83,507.5 366.5,507C 364.976,497.84 363.309,488.674 361.5,479.5C 357.088,478.03 352.755,476.363 348.5,474.5C 341.5,479.667 334.5,484.833 327.5,490C 326.5,490.667 325.5,490.667 324.5,490C 313.667,479.167 302.833,468.333 292,457.5C 291.333,456.5 291.333,455.5 292,454.5C 294.167,451.667 296.333,448.833 298.5,446C 210.5,445.667 122.5,445.333 34.5,445C 15.8008,443.301 5.3008,433.134 3,414.5C 2.33333,287.5 2.33333,160.5 3,33.5C 5.34487,15.3226 15.5115,4.98928 33.5,2.5 Z"/></g>
<g><path style="opacity:1" fill="#fefefe" d="M 491.5,32.5 C 491.5,61.5 491.5,90.5 491.5,119.5C 334.167,119.5 176.833,119.5 19.5,119.5C 19.5,90.5 19.5,61.5 19.5,32.5C 20.3991,26.4296 23.7324,22.263 29.5,20C 179.833,19.3333 330.167,19.3333 480.5,20C 486.839,21.8381 490.506,26.0048 491.5,32.5 Z"/></g>
<g><path style="opacity:1" fill="#8795a4" d="M 19.5,32.5 C 19.5,61.5 19.5,90.5 19.5,119.5C 176.833,119.5 334.167,119.5 491.5,119.5C 491.5,90.5 491.5,61.5 491.5,32.5C 492.498,61.6619 492.831,90.9953 492.5,120.5C 334.5,120.5 176.5,120.5 18.5,120.5C 18.1686,90.9953 18.5019,61.6619 19.5,32.5 Z"/></g>
<g><path style="opacity:1" fill="#1b3852" d="M 432.5,54.5 C 447.395,54.8859 452.895,62.2193 449,76.5C 444.96,82.9792 439.127,85.4792 431.5,84C 422.823,79.8097 419.657,72.9764 422,63.5C 424.489,59.1675 427.989,56.1675 432.5,54.5 Z"/></g>
<g><path style="opacity:1" fill="#1c3853" d="M 379.5,54.5 C 393.035,54.5308 398.869,61.1975 397,74.5C 391.927,84.191 384.427,86.691 374.5,82C 368.096,75.7089 366.93,68.5423 371,60.5C 373.671,58.0976 376.505,56.0976 379.5,54.5 Z"/></g>
<g><path style="opacity:1" fill="#1c3853" d="M 327.5,54.5 C 341.035,54.5308 346.869,61.1975 345,74.5C 339.927,84.191 332.427,86.691 322.5,82C 316.096,75.7089 314.93,68.5423 319,60.5C 321.671,58.0976 324.505,56.0976 327.5,54.5 Z"/></g>
<g><path style="opacity:1" fill="#f15f50" d="M 68.5,52.5 C 123.168,52.3333 177.834,52.5 232.5,53C 243.538,56.57 247.705,64.07 245,75.5C 242.744,80.7575 238.91,84.2575 233.5,86C 178.167,86.6667 122.833,86.6667 67.5,86C 56.2617,79.2782 53.7617,70.1115 60,58.5C 62.6371,56.109 65.4704,54.109 68.5,52.5 Z"/></g>
<g><path style="opacity:1" fill="#dfe4e8" d="M 491.5,135.5 C 491.5,211.5 491.5,287.5 491.5,363.5C 490.167,363.5 488.833,363.5 487.5,363.5C 484.881,363.768 482.381,363.435 480,362.5C 478.444,357.722 476.61,353.055 474.5,348.5C 479.962,341.071 485.295,333.571 490.5,326C 483.314,317.647 475.647,309.814 467.5,302.5C 468.499,255.003 468.832,207.336 468.5,159.5C 326.5,159.5 184.5,159.5 42.5,159.5C 42.1729,169.348 42.5062,179.014 43.5,188.5C 39.6576,198.111 39.6576,207.777 43.5,217.5C 42.5009,279.998 42.1676,342.664 42.5,405.5C 120.167,405.5 197.833,405.5 275.5,405.5C 275.171,392.323 275.505,379.323 276.5,366.5C 276.5,382.833 276.5,399.167 276.5,415.5C 285.546,416.245 294.546,417.411 303.5,419C 304.642,421.45 305.642,423.95 306.5,426.5C 215.002,427.499 123.335,427.833 31.5,427.5C 25.5554,426.056 21.722,422.389 20,416.5C 19.5,322.834 19.3333,229.167 19.5,135.5C 176.833,135.5 334.167,135.5 491.5,135.5 Z"/></g>
<g><path style="opacity:1" fill="#576c80" d="M 491.5,135.5 C 492.499,211.665 492.833,287.998 492.5,364.5C 490.585,364.784 488.919,364.451 487.5,363.5C 488.833,363.5 490.167,363.5 491.5,363.5C 491.5,287.5 491.5,211.5 491.5,135.5 Z"/></g>
<g><path style="opacity:1" fill="#fefefe" d="M 467.5,302.5 C 463.823,298.989 459.989,295.656 456,292.5C 449.177,297.319 442.344,302.152 435.5,307C 433.833,307.667 432.167,307.667 430.5,307C 426.979,305.326 423.313,304.16 419.5,303.5C 418.26,294.15 416.926,284.817 415.5,275.5C 399.167,275.5 382.833,275.5 366.5,275.5C 365.862,284.803 364.528,293.97 362.5,303C 358.757,304.136 355.09,305.47 351.5,307C 350.167,307.667 348.833,307.667 347.5,307C 340.656,302.152 333.823,297.319 327,292.5C 315.36,303.305 303.86,314.305 292.5,325.5C 297.667,332.5 302.833,339.5 308,346.5C 307.38,352.359 305.547,357.859 302.5,363C 293.806,364.058 285.14,365.225 276.5,366.5C 275.505,379.323 275.171,392.323 275.5,405.5C 197.833,405.5 120.167,405.5 42.5,405.5C 42.1676,342.664 42.5009,279.998 43.5,217.5C 46.8737,224.07 51.5404,229.57 57.5,234C 72.1667,244.667 86.8333,255.333 101.5,266C 116.922,276.966 132.588,277.3 148.5,267C 152.026,264.974 154.693,262.141 156.5,258.5C 152.5,255.5 148.5,252.5 144.5,249.5C 137.327,258.357 128.327,260.857 117.5,257C 98.3794,244.356 79.8794,230.856 62,216.5C 52.414,198.872 56.914,186.705 75.5,180C 82.434,179.197 88.7673,180.864 94.5,185C 104.474,193.319 114.808,201.152 125.5,208.5C 128.159,205.671 130.659,202.671 133,199.5C 133.982,198.241 134.315,196.908 134,195.5C 122.435,186.301 110.601,177.468 98.5,169C 74.1195,158.958 55.7861,165.458 43.5,188.5C 42.5062,179.014 42.1729,169.348 42.5,159.5C 184.5,159.5 326.5,159.5 468.5,159.5C 468.832,207.336 468.499,255.003 467.5,302.5 Z"/></g>
<g><path style="opacity:1" fill="#1c3853" d="M 43.5,217.5 C 39.6576,207.777 39.6576,198.111 43.5,188.5C 55.7861,165.458 74.1195,158.958 98.5,169C 110.601,177.468 122.435,186.301 134,195.5C 134.315,196.908 133.982,198.241 133,199.5C 130.659,202.671 128.159,205.671 125.5,208.5C 114.808,201.152 104.474,193.319 94.5,185C 88.7673,180.864 82.434,179.197 75.5,180C 56.914,186.705 52.414,198.872 62,216.5C 79.8794,230.856 98.3794,244.356 117.5,257C 128.327,260.857 137.327,258.357 144.5,249.5C 148.5,252.5 152.5,255.5 156.5,258.5C 154.693,262.141 152.026,264.974 148.5,267C 132.588,277.3 116.922,276.966 101.5,266C 86.8333,255.333 72.1667,244.667 57.5,234C 51.5404,229.57 46.8737,224.07 43.5,217.5 Z"/></g>
<g><path style="opacity:1" fill="#1d3953" d="M 139.5,213.5 C 161.923,213.134 176.089,223.801 182,245.5C 183.993,256.11 185.493,266.777 186.5,277.5C 181.184,278.296 175.851,278.963 170.5,279.5C 169.989,269.763 168.822,260.096 167,250.5C 162.328,232.38 151.161,226.547 133.5,233C 131.667,234.167 129.833,235.333 128,236.5C 124.318,232.985 120.818,229.318 117.5,225.5C 119.024,223.142 121.024,221.309 123.5,220C 128.744,217.315 134.077,215.148 139.5,213.5 Z"/></g>
<g><path style="opacity:1" fill="#1c3853" d="M 123.5,285.5 C 124.496,285.414 125.329,285.748 126,286.5C 127.343,296.225 129.01,305.892 131,315.5C 135.948,328.128 145.115,333.628 158.5,332C 163.027,329.904 167.027,327.071 170.5,323.5C 174.5,326.5 178.5,329.5 182.5,332.5C 175.148,342.925 164.982,347.925 152,347.5C 134.553,346.06 122.887,337.06 117,320.5C 114.38,309.902 112.214,299.235 110.5,288.5C 115.035,287.863 119.368,286.863 123.5,285.5 Z"/></g>
<g><path style="opacity:1" fill="#1c3853" d="M 162.5,291.5 C 173.464,290.114 183.797,291.947 193.5,297C 208.99,308.578 224.657,319.912 240.5,331C 257.801,345.694 261.301,363.194 251,383.5C 234.937,403.225 216.104,406.391 194.5,393C 184.604,384.804 174.437,376.97 164,369.5C 166.194,364.837 169.194,360.504 173,356.5C 183.894,365.695 195.06,374.528 206.5,383C 219.393,387.805 229.893,384.638 238,373.5C 242.729,361.341 239.896,351.174 229.5,343C 214.833,332.333 200.167,321.667 185.5,311C 173.396,303.899 162.562,305.399 153,315.5C 149.064,313.235 145.397,310.568 142,307.5C 141.333,306.5 141.333,305.5 142,304.5C 147.98,298.661 154.813,294.328 162.5,291.5 Z"/></g>
<g><path style="opacity:1" fill="#43c2a0" d="M 381.5,291.5 C 388.833,291.5 396.167,291.5 403.5,291.5C 404.609,299.82 405.609,308.154 406.5,316.5C 416.944,318.482 426.777,322.149 436,327.5C 441.489,323.348 446.989,319.181 452.5,315C 453.759,314.018 455.092,313.685 456.5,314C 461.167,318.667 465.833,323.333 470.5,328C 465.379,334.41 460.379,340.91 455.5,347.5C 461.657,356.637 465.657,366.637 467.5,377.5C 475.497,378.499 483.497,379.499 491.5,380.5C 491.5,387.833 491.5,395.167 491.5,402.5C 483.196,403.224 475.029,404.557 467,406.5C 464.73,416.646 460.897,426.146 455.5,435C 460.621,441.41 465.621,447.91 470.5,454.5C 466.015,459.485 461.349,464.319 456.5,469C 454.721,468.956 453.055,468.289 451.5,467C 447.12,462.952 442.454,459.285 437.5,456C 436.167,455.333 434.833,455.333 433.5,456C 425.525,461.16 416.858,464.66 407.5,466.5C 405.135,474.526 403.468,482.693 402.5,491C 395.508,491.5 388.508,491.666 381.5,491.5C 380.45,483.253 379.116,475.086 377.5,467C 367.359,464.259 357.692,460.426 348.5,455.5C 342.718,459.44 337.051,463.607 331.5,468C 330.241,468.982 328.908,469.315 327.5,469C 322.786,464.622 318.453,459.956 314.5,455C 318.92,448.158 323.587,441.492 328.5,435C 323.108,426.163 319.274,416.663 317,406.5C 308.928,404.794 300.761,403.46 292.5,402.5C 292.5,395.167 292.5,387.833 292.5,380.5C 300.693,379.107 308.86,377.773 317,376.5C 319.041,366.254 322.875,356.754 328.5,348C 323.833,341.333 319.167,334.667 314.5,328C 318.453,323.044 322.786,318.378 327.5,314C 328.5,313.333 329.5,313.333 330.5,314C 336.397,318.901 342.564,323.401 349,327.5C 357.695,321.735 367.195,318.069 377.5,316.5C 378.509,308.111 379.843,299.778 381.5,291.5 Z"/></g>
<g><path style="opacity:1" fill="#1a3852" d="M 382.5,336.5 C 416.662,335.315 437.496,351.315 445,384.5C 445.606,418.126 429.439,438.292 396.5,445C 368.566,445.949 349.399,433.449 339,407.5C 332.611,380.659 340.778,359.492 363.5,344C 369.718,340.879 376.051,338.379 382.5,336.5 Z"/></g>
<g><path style="opacity:1" fill="#fdfdfd" d="M 426.5,405.5 C 402.833,405.5 379.167,405.5 355.5,405.5C 348.173,379.655 357.173,362.155 382.5,353C 406.077,350.264 421.577,360.097 429,382.5C 429.969,390.427 429.136,398.094 426.5,405.5 Z"/></g>
<g><path style="opacity:1" fill="#dee4e7" d="M 355.5,405.5 C 379.167,405.5 402.833,405.5 426.5,405.5C 419.322,421.266 406.988,429.266 389.5,429.5C 373.442,428.098 362.109,420.098 355.5,405.5 Z"/></g>
<g><path style="opacity:1" fill="#d4dadf" d="M 480.5,418.5 C 490.877,416.899 492.544,419.399 485.5,426C 482.626,427.919 479.626,428.419 476.5,427.5C 477.573,424.356 478.907,421.356 480.5,418.5 Z"/></g>
<g><path style="opacity:1" fill="#8393a1" d="M 306.5,426.5 C 307.043,426.56 307.376,426.893 307.5,427.5C 215.334,428.832 123.334,428.832 31.5,427.5C 123.335,427.833 215.002,427.499 306.5,426.5 Z"/></g>
</svg>
