<?xml version="1.0" encoding="UTF-8"?>
<!DOCTYPE svg PUBLIC "-//W3C//DTD SVG 1.1//EN" "http://www.w3.org/Graphics/SVG/1.1/DTD/svg11.dtd">
<svg xmlns="http://www.w3.org/2000/svg" version="1.1" width="512px" height="512px" style="shape-rendering:geometricPrecision; text-rendering:geometricPrecision; image-rendering:optimizeQuality; fill-rule:evenodd; clip-rule:evenodd" xmlns:xlink="http://www.w3.org/1999/xlink">
<g><path style="opacity:0.985" fill="#772185" d="M 393.5,10.5 C 420.003,7.65821 438.503,18.3249 449,42.5C 455.309,70.7126 445.476,90.8792 419.5,103C 397.826,108.997 379.659,103.497 365,86.5C 350.912,62.7807 353.412,40.9473 372.5,21C 379.045,16.3941 386.045,12.8941 393.5,10.5 Z"/></g>
<g><path style="opacity:0.984" fill="#782185" d="M 144.5,38.5 C 168.853,45.896 192.853,54.396 216.5,64C 245.548,64.0323 274.548,64.699 303.5,66C 338.167,99.3333 372.167,133.333 405.5,168C 408.126,170.146 411.126,171.479 414.5,172C 441.203,176.117 467.869,180.45 494.5,185C 501.037,188.227 504.37,193.56 504.5,201C 503.372,210.128 498.206,215.294 489,216.5C 458.533,211.506 428.033,206.672 397.5,202C 395.004,200.92 392.67,199.586 390.5,198C 380.167,187.667 369.833,177.333 359.5,167C 357.305,165.627 354.971,165.294 352.5,166C 321.194,196.305 290.194,226.972 259.5,258C 256.991,259.421 254.657,261.088 252.5,263C 176.321,288.004 99.9876,312.504 23.5,336.5C 10.6517,334.496 5.48505,327.162 8,314.5C 9.39988,311.098 11.5665,308.264 14.5,306C 83.9778,282.785 153.311,259.285 222.5,235.5C 226.174,228.847 224.341,224.514 217,222.5C 189.236,231.478 161.402,240.144 133.5,248.5C 132.966,243.099 134.133,238.099 137,233.5C 180.333,191.5 223.667,149.5 267,107.5C 269.601,102.498 268.434,98.6649 263.5,96C 245.5,95.6667 227.5,95.3333 209.5,95C 185.422,86.1965 161.422,77.1965 137.5,68C 131.885,63.0317 130.052,56.865 132,49.5C 133.891,43.1527 138.057,39.4861 144.5,38.5 Z"/></g>
<g><path style="opacity:0.931" fill="#782285" d="M 317.5,293.5 C 328.873,293.207 340.206,293.707 351.5,295C 351.957,295.414 352.291,295.914 352.5,296.5C 345.137,305.525 337.803,314.525 330.5,323.5C 322.487,314.651 314.82,305.484 307.5,296C 310.909,295.004 314.242,294.171 317.5,293.5 Z"/></g>
<g><path style="opacity:0.98" fill="#772285" d="M 290.5,299.5 C 301.136,312.312 311.636,325.312 322,338.5C 322.832,346.853 322.665,355.187 321.5,363.5C 313.561,369.05 305.728,374.716 298,380.5C 290.795,377.932 283.628,375.265 276.5,372.5C 267.289,359.126 258.289,345.626 249.5,332C 260.705,317.951 274.371,307.118 290.5,299.5 Z"/></g>
<g><path style="opacity:0.977" fill="#772285" d="M 368.5,301.5 C 385.999,307.592 400.332,318.092 411.5,333C 402.5,346.667 393.5,360.333 384.5,374C 377.129,376.401 369.796,378.901 362.5,381.5C 354.5,375.833 346.5,370.167 338.5,364.5C 337.335,356.521 337.168,348.521 338,340.5C 348.667,327.802 358.833,314.802 368.5,301.5 Z"/></g>
<g><path style="opacity:0.977" fill="#782285" d="M 163.5,307.5 C 164.5,307.5 165.5,307.5 166.5,307.5C 166.667,324.503 166.5,341.503 166,358.5C 160.26,368.608 152.094,371.108 141.5,366C 138.131,363.635 135.964,360.468 135,356.5C 135.234,343.531 135.568,330.531 136,317.5C 145.287,314.24 154.453,310.907 163.5,307.5 Z"/></g>
<g><path style="opacity:0.937" fill="#772185" d="M 238.5,346.5 C 239.496,346.414 240.329,346.748 241,347.5C 246.833,356.667 252.667,365.833 258.5,375C 248.32,379.451 237.987,383.618 227.5,387.5C 227.167,387 226.833,386.5 226.5,386C 228.414,372.173 232.414,359.006 238.5,346.5 Z"/></g>
<g><path style="opacity:0.93" fill="#782285" d="M 419.5,348.5 C 420.496,348.414 421.329,348.748 422,349.5C 428.739,362.041 432.405,375.375 433,389.5C 422.362,385.455 411.862,381.122 401.5,376.5C 407.947,367.4 413.947,358.067 419.5,348.5 Z"/></g>
<g><path style="opacity:0.972" fill="#772185" d="M 328.5,377.5 C 330.308,377.491 331.975,377.991 333.5,379C 339.669,383.674 345.669,388.507 351.5,393.5C 349.035,401.563 346.368,409.563 343.5,417.5C 339,417.833 334.5,418.167 330,418.5C 325.081,418.468 320.414,417.801 316,416.5C 313.5,409 311,401.5 308.5,394C 314.956,388.268 321.622,382.768 328.5,377.5 Z"/></g>
<g><path style="opacity:0.976" fill="#772185" d="M 268.5,388.5 C 277.066,389.855 285.233,392.522 293,396.5C 296.068,405.87 299.235,415.204 302.5,424.5C 298.359,430.474 294.026,436.308 289.5,442C 274.638,446.798 259.638,450.798 244.5,454C 234.02,439.063 228.687,422.563 228.5,404.5C 241.922,399.113 255.255,393.779 268.5,388.5 Z"/></g>
<g><path style="opacity:0.978" fill="#772185" d="M 388.5,388.5 C 402.141,393.651 415.808,398.817 429.5,404C 431.223,404.523 432.556,405.523 433.5,407C 431.885,421.297 427.718,434.797 421,447.5C 419.477,450.555 417.477,453.222 415,455.5C 399.87,451.469 384.87,447.136 370,442.5C 365.903,436.631 362.069,430.631 358.5,424.5C 361.709,414.876 364.709,405.209 367.5,395.5C 374.784,393.739 381.784,391.405 388.5,388.5 Z"/></g>
<g><path style="opacity:0.97" fill="#772185" d="M 90.5,410.5 C 111.169,410.333 131.836,410.5 152.5,411C 157.833,416 157.833,421 152.5,426C 131.833,426.667 111.167,426.667 90.5,426C 85.2802,420.956 85.2802,415.789 90.5,410.5 Z"/></g>
<g><path style="opacity:0.974" fill="#772185" d="M 313.5,434.5 C 324.187,434.168 334.854,434.501 345.5,435.5C 349.14,440.973 352.973,446.306 357,451.5C 357.653,466.868 357.153,482.201 355.5,497.5C 337.887,501.726 320.387,501.393 303,496.5C 301.841,481.5 301.174,466.5 301,451.5C 305.409,445.937 309.576,440.271 313.5,434.5 Z"/></g>
<g><path style="opacity:0.979" fill="#772185" d="M 37.5,458.5 C 62.8355,458.333 88.1689,458.5 113.5,459C 120.15,464.044 120.15,469.044 113.5,474C 88.1667,474.667 62.8333,474.667 37.5,474C 32.1019,470.445 31.2686,465.945 35,460.5C 35.9947,459.934 36.828,459.267 37.5,458.5 Z"/></g>
<g><path style="opacity:0.934" fill="#772285" d="M 283.5,459.5 C 284.814,461.915 285.481,464.748 285.5,468C 286.431,475.52 286.431,483.02 285.5,490.5C 274.041,485.109 264.041,477.776 255.5,468.5C 264.794,465.181 274.128,462.181 283.5,459.5 Z"/></g>
<g><path style="opacity:0.94" fill="#772285" d="M 372.5,461.5 C 383.003,463.875 393.336,466.708 403.5,470C 394.562,479.139 384.228,486.306 372.5,491.5C 371.748,481.519 371.748,471.519 372.5,461.5 Z"/></g>
</svg>
