<?xml version="1.0" encoding="UTF-8"?>
<!DOCTYPE svg PUBLIC "-//W3C//DTD SVG 1.1//EN" "http://www.w3.org/Graphics/SVG/1.1/DTD/svg11.dtd">
<svg xmlns="http://www.w3.org/2000/svg" version="1.1" width="512px" height="512px" style="shape-rendering:geometricPrecision; text-rendering:geometricPrecision; image-rendering:optimizeQuality; fill-rule:evenodd; clip-rule:evenodd" xmlns:xlink="http://www.w3.org/1999/xlink">
<g><path style="opacity:0.99" fill="#010100" d="M 115.5,-0.5 C 148.833,-0.5 182.167,-0.5 215.5,-0.5C 222.157,3.13815 225.49,8.80481 225.5,16.5C 246.169,16.3334 266.836,16.5 287.5,17C 291.531,17.9029 293.531,20.4029 293.5,24.5C 292.892,27.9583 290.892,30.4583 287.5,32C 266.836,32.5 246.169,32.6666 225.5,32.5C 225.896,40.253 225.396,47.9196 224,55.5C 222.073,60.4277 218.573,63.5944 213.5,65C 180.833,65.6667 148.167,65.6667 115.5,65C 114.307,63.9054 112.973,63.072 111.5,62.5C 109.14,60.2874 107.306,57.6207 106,54.5C 105.5,47.1742 105.334,39.8409 105.5,32.5C 92.8333,32.5 80.1667,32.5 67.5,32.5C 67.5,164.5 67.5,296.5 67.5,428.5C 81.8333,428.5 96.1667,428.5 110.5,428.5C 172.833,428.5 235.167,428.5 297.5,428.5C 297.333,406.164 297.5,383.831 298,361.5C 300.167,356.667 303.667,353.167 308.5,351C 330.831,350.5 353.164,350.333 375.5,350.5C 375.5,244.5 375.5,138.5 375.5,32.5C 356.164,32.6666 336.83,32.5 317.5,32C 314.72,30.0867 313.053,27.5867 312.5,24.5C 312.469,20.4029 314.469,17.9029 318.5,17C 339.551,16.0461 360.551,16.3794 381.5,18C 385.388,20.2215 388.221,23.3882 390,27.5C 390.5,35.1594 390.666,42.8261 390.5,50.5C 418.202,45.5354 429.535,56.8687 424.5,84.5C 431.841,84.3337 439.174,84.5003 446.5,85C 451.91,86.7425 455.744,90.2425 458,95.5C 458.667,120.5 458.667,145.5 458,170.5C 456.362,172.734 454.195,174.067 451.5,174.5C 448.213,173.945 445.713,172.278 444,169.5C 443.5,146.502 443.333,123.502 443.5,100.5C 437.167,100.5 430.833,100.5 424.5,100.5C 424.667,222.167 424.5,343.834 424,465.5C 422.257,470.91 418.757,474.744 413.5,477C 356.5,477.667 299.5,477.667 242.5,477C 239.159,475.15 237.826,472.317 238.5,468.5C 239.203,466.284 240.536,464.451 242.5,463C 298.166,462.5 353.832,462.333 409.5,462.5C 409.5,330.5 409.5,198.5 409.5,66.5C 403.167,66.5 396.833,66.5 390.5,66.5C 390.667,164.501 390.5,262.501 390,360.5C 363.528,387.972 336.695,415.139 309.5,442C 308.255,442.791 306.922,443.291 305.5,443.5C 237.5,443.5 169.5,443.5 101.5,443.5C 101.177,450.022 101.51,456.355 102.5,462.5C 119.5,462.5 136.5,462.5 153.5,462.5C 173.169,462.333 192.836,462.5 212.5,463C 215.079,464.076 216.746,465.909 217.5,468.5C 218.265,472.808 216.598,475.642 212.5,477C 204.507,477.5 196.507,477.666 188.5,477.5C 170.833,477.5 153.167,477.5 135.5,477.5C 135.5,483.833 135.5,490.167 135.5,496.5C 153.167,496.5 170.833,496.5 188.5,496.5C 273.5,496.5 358.5,496.5 443.5,496.5C 443.333,397.166 443.5,297.833 444,198.5C 445.713,195.722 448.213,194.055 451.5,193.5C 454.195,193.933 456.362,195.266 458,197.5C 458.667,298.833 458.667,400.167 458,501.5C 455.978,506.02 452.811,509.353 448.5,511.5C 342.5,511.5 236.5,511.5 130.5,511.5C 126.189,509.353 123.022,506.02 121,501.5C 120.5,493.841 120.334,486.174 120.5,478.5C 114.158,478.666 107.825,478.5 101.5,478C 94.4342,477.553 89.6008,474.053 87,467.5C 86.5003,459.841 86.3336,452.174 86.5,444.5C 78.4295,444.863 70.4295,444.363 62.5,443C 58,441.167 54.8333,438 53,433.5C 52.3333,298.167 52.3333,162.833 53,27.5C 55.3648,21.7979 59.5315,18.2979 65.5,17C 78.5128,16.8327 91.5128,16.3327 104.5,15.5C 105.224,8.02621 108.891,2.69288 115.5,-0.5 Z"/></g>
<g><path style="opacity:1" fill="#fec243" d="M 146.5,14.5 C 146.5,26.5 146.5,38.5 146.5,50.5C 137.833,50.5 129.167,50.5 120.5,50.5C 120.5,38.5 120.5,26.5 120.5,14.5C 129.167,14.5 137.833,14.5 146.5,14.5 Z"/></g>
<g><path style="opacity:1" fill="#fdcf5a" d="M 146.5,14.5 C 167.833,14.5 189.167,14.5 210.5,14.5C 210.5,26.5 210.5,38.5 210.5,50.5C 189.167,50.5 167.833,50.5 146.5,50.5C 146.5,38.5 146.5,26.5 146.5,14.5 Z"/></g>
<g><path style="opacity:1" fill="#f7f1ef" d="M 293.5,24.5 C 299.833,24.5 306.167,24.5 312.5,24.5C 313.053,27.5867 314.72,30.0867 317.5,32C 336.83,32.5 356.164,32.6666 375.5,32.5C 375.5,138.5 375.5,244.5 375.5,350.5C 353.164,350.333 330.831,350.5 308.5,351C 303.667,353.167 300.167,356.667 298,361.5C 297.5,383.831 297.333,406.164 297.5,428.5C 235.167,428.5 172.833,428.5 110.5,428.5C 110.5,408.833 110.5,389.167 110.5,369.5C 119.936,373.703 124.103,370.703 123,360.5C 119.652,356.261 115.819,355.594 111.5,358.5C 110.167,348.167 110.167,337.833 111.5,327.5C 112.473,327.987 113.473,328.487 114.5,329C 185.833,329.667 257.167,329.667 328.5,329C 333.224,326.565 334.724,322.731 333,317.5C 332.097,316.299 330.931,315.465 329.5,315C 256.793,314.173 184.126,314.34 111.5,315.5C 110.167,305.167 110.167,294.833 111.5,284.5C 112.289,284.783 112.956,285.283 113.5,286C 128.167,286.667 142.833,286.667 157.5,286C 164.167,281.333 164.167,276.667 157.5,272C 142.833,271.333 128.167,271.333 113.5,272C 112.956,272.717 112.289,273.217 111.5,273.5C 110.167,263.167 110.167,252.833 111.5,242.5C 184.126,243.66 256.793,243.827 329.5,243C 333.212,240.487 334.378,236.987 333,232.5C 331.786,230.951 330.286,229.785 328.5,229C 257.167,228.333 185.833,228.333 114.5,229C 113.473,229.513 112.473,230.013 111.5,230.5C 110.167,220.167 110.167,209.833 111.5,199.5C 112.473,199.987 113.473,200.487 114.5,201C 159.5,201.667 204.5,201.667 249.5,201C 254.224,198.565 255.724,194.731 254,189.5C 253.097,188.299 251.931,187.465 250.5,187C 204.833,186.333 159.167,186.333 113.5,187C 112.473,187.513 111.473,188.013 110.5,188.5C 110.5,177.833 110.5,167.167 110.5,156.5C 111.756,156.461 112.756,156.961 113.5,158C 185.5,158.667 257.5,158.667 329.5,158C 333.212,155.487 334.378,151.987 333,147.5C 331.786,145.951 330.286,144.785 328.5,144C 256.833,143.333 185.167,143.333 113.5,144C 112.956,144.717 112.289,145.217 111.5,145.5C 110.167,135.167 110.167,124.833 111.5,114.5C 130.093,115.653 148.76,115.819 167.5,115C 172.726,110.585 172.726,106.251 167.5,102C 148.76,101.181 130.093,101.347 111.5,102.5C 110.167,89.1667 110.167,75.8333 111.5,62.5C 112.973,63.072 114.307,63.9054 115.5,65C 148.167,65.6667 180.833,65.6667 213.5,65C 218.573,63.5944 222.073,60.4277 224,55.5C 225.396,47.9196 225.896,40.253 225.5,32.5C 246.169,32.6666 266.836,32.5 287.5,32C 290.892,30.4583 292.892,27.9583 293.5,24.5 Z"/></g>
<g><path style="opacity:1" fill="#ede0db" d="M 111.5,62.5 C 110.167,75.8333 110.167,89.1667 111.5,102.5C 108.911,106.432 108.911,110.432 111.5,114.5C 110.167,124.833 110.167,135.167 111.5,145.5C 109.207,148.906 108.874,152.573 110.5,156.5C 110.5,167.167 110.5,177.833 110.5,188.5C 108.874,192.427 109.207,196.094 111.5,199.5C 110.167,209.833 110.167,220.167 111.5,230.5C 108.911,234.432 108.911,238.432 111.5,242.5C 110.167,252.833 110.167,263.167 111.5,273.5C 108.833,277.167 108.833,280.833 111.5,284.5C 110.167,294.833 110.167,305.167 111.5,315.5C 108.911,319.568 108.911,323.568 111.5,327.5C 110.167,337.833 110.167,348.167 111.5,358.5C 109.207,361.906 108.874,365.573 110.5,369.5C 110.5,389.167 110.5,408.833 110.5,428.5C 96.1667,428.5 81.8333,428.5 67.5,428.5C 67.5,296.5 67.5,164.5 67.5,32.5C 80.1667,32.5 92.8333,32.5 105.5,32.5C 105.334,39.8409 105.5,47.1742 106,54.5C 107.306,57.6207 109.14,60.2874 111.5,62.5 Z"/></g>
<g><path style="opacity:1" fill="#fdd05a" d="M 238.5,468.5 C 235.262,469.748 231.762,470.415 228,470.5C 224.238,470.415 220.738,469.748 217.5,468.5C 216.746,465.909 215.079,464.076 212.5,463C 192.836,462.5 173.169,462.333 153.5,462.5C 153.5,456.5 153.5,450.5 153.5,444.5C 204.336,444.832 255.003,444.499 305.5,443.5C 306.922,443.291 308.255,442.791 309.5,442C 336.695,415.139 363.528,387.972 390,360.5C 390.5,262.501 390.667,164.501 390.5,66.5C 396.833,66.5 403.167,66.5 409.5,66.5C 409.5,198.5 409.5,330.5 409.5,462.5C 353.832,462.333 298.166,462.5 242.5,463C 240.536,464.451 239.203,466.284 238.5,468.5 Z"/></g>
<g><path style="opacity:0.999" fill="#fb9367" d="M 451.5,174.5 C 451.5,180.833 451.5,187.167 451.5,193.5C 448.213,194.055 445.713,195.722 444,198.5C 443.5,297.833 443.333,397.166 443.5,496.5C 358.5,496.5 273.5,496.5 188.5,496.5C 188.5,490.167 188.5,483.833 188.5,477.5C 196.507,477.666 204.507,477.5 212.5,477C 216.598,475.642 218.265,472.808 217.5,468.5C 220.738,469.748 224.238,470.415 228,470.5C 231.762,470.415 235.262,469.748 238.5,468.5C 237.826,472.317 239.159,475.15 242.5,477C 299.5,477.667 356.5,477.667 413.5,477C 418.757,474.744 422.257,470.91 424,465.5C 424.5,343.834 424.667,222.167 424.5,100.5C 430.833,100.5 437.167,100.5 443.5,100.5C 443.333,123.502 443.5,146.502 444,169.5C 445.713,172.278 448.213,173.945 451.5,174.5 Z"/></g>
<g><path style="opacity:1" fill="#010101" d="M 111.5,114.5 C 108.911,110.432 108.911,106.432 111.5,102.5C 130.093,101.347 148.76,101.181 167.5,102C 172.726,106.251 172.726,110.585 167.5,115C 148.76,115.819 130.093,115.653 111.5,114.5 Z"/></g>
<g><path style="opacity:1" fill="#000000" d="M 193.5,101.5 C 239.168,101.333 284.835,101.5 330.5,102C 334.5,106.333 334.5,110.667 330.5,115C 284.833,115.667 239.167,115.667 193.5,115C 189.304,112.019 188.471,108.186 191,103.5C 191.995,102.934 192.828,102.267 193.5,101.5 Z"/></g>
<g><path style="opacity:1" fill="#030303" d="M 110.5,156.5 C 108.874,152.573 109.207,148.906 111.5,145.5C 112.289,145.217 112.956,144.717 113.5,144C 185.167,143.333 256.833,143.333 328.5,144C 330.286,144.785 331.786,145.951 333,147.5C 334.378,151.987 333.212,155.487 329.5,158C 257.5,158.667 185.5,158.667 113.5,158C 112.756,156.961 111.756,156.461 110.5,156.5 Z"/></g>
<g><path style="opacity:1" fill="#060606" d="M 111.5,199.5 C 109.207,196.094 108.874,192.427 110.5,188.5C 111.473,188.013 112.473,187.513 113.5,187C 159.167,186.333 204.833,186.333 250.5,187C 251.931,187.465 253.097,188.299 254,189.5C 255.724,194.731 254.224,198.565 249.5,201C 204.5,201.667 159.5,201.667 114.5,201C 113.473,200.487 112.473,199.987 111.5,199.5 Z"/></g>
<g><path style="opacity:1" fill="#060606" d="M 278.5,186.5 C 295.503,186.333 312.503,186.5 329.5,187C 333.212,189.513 334.378,193.013 333,197.5C 331.786,199.049 330.286,200.215 328.5,201C 312.167,201.667 295.833,201.667 279.5,201C 274.776,198.565 273.276,194.731 275,189.5C 276.145,188.364 277.312,187.364 278.5,186.5 Z"/></g>
<g><path style="opacity:1" fill="#080707" d="M 111.5,242.5 C 108.911,238.432 108.911,234.432 111.5,230.5C 112.473,230.013 113.473,229.513 114.5,229C 185.833,228.333 257.167,228.333 328.5,229C 330.286,229.785 331.786,230.951 333,232.5C 334.378,236.987 333.212,240.487 329.5,243C 256.793,243.827 184.126,243.66 111.5,242.5 Z"/></g>
<g><path style="opacity:1" fill="#030303" d="M 111.5,284.5 C 108.833,280.833 108.833,277.167 111.5,273.5C 112.289,273.217 112.956,272.717 113.5,272C 128.167,271.333 142.833,271.333 157.5,272C 164.167,276.667 164.167,281.333 157.5,286C 142.833,286.667 128.167,286.667 113.5,286C 112.956,285.283 112.289,284.783 111.5,284.5 Z"/></g>
<g><path style="opacity:1" fill="#010101" d="M 185.5,271.5 C 233.168,271.333 280.834,271.5 328.5,272C 333.415,274.442 334.749,278.276 332.5,283.5C 331.335,284.584 330.002,285.417 328.5,286C 280.833,286.667 233.167,286.667 185.5,286C 180.202,281.092 180.202,276.258 185.5,271.5 Z"/></g>
<g><path style="opacity:1" fill="#090909" d="M 111.5,327.5 C 108.911,323.568 108.911,319.568 111.5,315.5C 184.126,314.34 256.793,314.173 329.5,315C 330.931,315.465 332.097,316.299 333,317.5C 334.724,322.731 333.224,326.565 328.5,329C 257.167,329.667 185.833,329.667 114.5,329C 113.473,328.487 112.473,327.987 111.5,327.5 Z"/></g>
<g><path style="opacity:1" fill="#090909" d="M 110.5,369.5 C 108.874,365.573 109.207,361.906 111.5,358.5C 115.819,355.594 119.652,356.261 123,360.5C 124.103,370.703 119.936,373.703 110.5,369.5 Z"/></g>
<g><path style="opacity:1" fill="#090909" d="M 144.5,356.5 C 154.11,356.936 156.776,361.436 152.5,370C 143.319,373.325 139.485,370.158 141,360.5C 142.376,359.295 143.542,357.962 144.5,356.5 Z"/></g>
<g><path style="opacity:1" fill="#090909" d="M 175.5,356.5 C 185.11,356.936 187.776,361.436 183.5,370C 174.319,373.325 170.485,370.158 172,360.5C 173.376,359.295 174.542,357.962 175.5,356.5 Z"/></g>
<g><path style="opacity:1" fill="#060606" d="M 203.5,356.5 C 217.837,356.333 232.171,356.5 246.5,357C 254.073,361.187 254.406,365.854 247.5,371C 232.833,371.667 218.167,371.667 203.5,371C 199.788,368.487 198.622,364.987 200,360.5C 201.376,359.295 202.542,357.962 203.5,356.5 Z"/></g>
<g><path style="opacity:1" fill="#cabdb8" d="M 312.5,365.5 C 329.837,365.333 347.17,365.5 364.5,366C 347.333,383.167 330.167,400.333 313,417.5C 312.5,400.17 312.333,382.837 312.5,365.5 Z"/></g>
<g><path style="opacity:1" fill="#ddb24a" d="M 305.5,443.5 C 255.003,444.499 204.336,444.832 153.5,444.5C 136.5,444.5 119.5,444.5 102.5,444.5C 102.5,450.5 102.5,456.5 102.5,462.5C 101.51,456.355 101.177,450.022 101.5,443.5C 169.5,443.5 237.5,443.5 305.5,443.5 Z"/></g>
<g><path style="opacity:1" fill="#fec343" d="M 153.5,444.5 C 153.5,450.5 153.5,456.5 153.5,462.5C 136.5,462.5 119.5,462.5 102.5,462.5C 102.5,456.5 102.5,450.5 102.5,444.5C 119.5,444.5 136.5,444.5 153.5,444.5 Z"/></g>
<g><path style="opacity:1" fill="#fc7c42" d="M 188.5,477.5 C 188.5,483.833 188.5,490.167 188.5,496.5C 170.833,496.5 153.167,496.5 135.5,496.5C 135.5,490.167 135.5,483.833 135.5,477.5C 153.167,477.5 170.833,477.5 188.5,477.5 Z"/></g>
</svg>
