<?xml version="1.0" encoding="UTF-8"?>
<!DOCTYPE svg PUBLIC "-//W3C//DTD SVG 1.1//EN" "http://www.w3.org/Graphics/SVG/1.1/DTD/svg11.dtd">
<svg xmlns="http://www.w3.org/2000/svg" version="1.1" width="512px" height="512px" style="shape-rendering:geometricPrecision; text-rendering:geometricPrecision; image-rendering:optimizeQuality; fill-rule:evenodd; clip-rule:evenodd" xmlns:xlink="http://www.w3.org/1999/xlink">
<g><path style="opacity:0.972" fill="#040302" d="M 472.5,430.5 C 471.565,427.887 471.398,425.221 472,422.5C 482.067,413.102 491.4,403.102 500,392.5C 500.667,371.833 500.667,351.167 500,330.5C 497.045,326.723 493.212,325.557 488.5,327C 486.951,328.214 485.785,329.714 485,331.5C 484.667,347.5 484.333,363.5 484,379.5C 483,381.5 482,383.5 481,385.5C 467.167,399.333 453.333,413.167 439.5,427C 426.242,435.29 416.409,432.457 410,418.5C 408.959,413.56 409.626,408.894 412,404.5C 419.032,397.803 425.698,390.803 432,383.5C 433.395,378.394 431.561,375.061 426.5,373.5C 425.062,373.719 423.729,374.219 422.5,375C 408.304,388.862 394.471,403.029 381,417.5C 377.873,422.419 375.873,427.752 375,433.5C 374.179,454.906 374.346,476.24 375.5,497.5C 372.945,503.073 369.445,503.74 365,499.5C 364.333,476.833 364.333,454.167 365,431.5C 366.369,422.384 369.869,414.217 375.5,407C 295.5,406.333 215.5,406.333 135.5,407C 141.131,414.217 144.631,422.384 146,431.5C 146.667,454.167 146.667,476.833 146,499.5C 141.555,503.74 138.055,503.073 135.5,497.5C 136.654,476.24 136.821,454.906 136,433.5C 134.709,426.585 132.042,420.252 128,414.5C 114.833,401.333 101.667,388.167 88.5,375C 84.5431,372.615 81.3764,373.448 79,377.5C 78.3333,379.5 78.3333,381.5 79,383.5C 85.2739,390.776 91.9406,397.776 99,404.5C 104.145,416.402 100.979,425.235 89.5,431C 82.8164,432.519 76.8164,431.186 71.5,427C 57.6667,413.167 43.8333,399.333 30,385.5C 29,383.5 28,381.5 27,379.5C 26.6667,363.5 26.3333,347.5 26,331.5C 23.5647,326.776 19.7314,325.276 14.5,327C 13.3333,328.167 12.1667,329.333 11,330.5C 10.3333,351.167 10.3333,371.833 11,392.5C 11.6667,393.833 12.3333,395.167 13,396.5C 36.3333,419.833 59.6667,443.167 83,466.5C 83.1697,477.008 83.6697,487.341 84.5,497.5C 81.9449,503.073 78.4449,503.74 74,499.5C 73.6667,490.167 73.3333,480.833 73,471.5C 50,448.5 27,425.5 4,402.5C 3.33333,401.167 2.66667,399.833 2,398.5C 0.363701,374.897 0.0303677,351.23 1,327.5C 6.07473,316.853 14.2414,313.353 25.5,317C 30.7306,319.232 34.2306,323.065 36,328.5C 36.3333,341.5 36.6667,354.5 37,367.5C 37.1432,371.619 37.8099,375.619 39,379.5C 52.1667,392.667 65.3333,405.833 78.5,419C 83.9813,422.681 88.148,421.515 91,415.5C 91.6667,414.5 91.6667,413.5 91,412.5C 84,404.833 77,397.167 70,389.5C 64.7152,373.956 70.2152,365.29 86.5,363.5C 86.6667,310.832 86.5,258.166 86,205.5C 81.4545,209.714 76.6212,213.547 71.5,217C 56.654,221.162 46.8207,215.995 42,201.5C 41.0874,195.815 42.0874,190.482 45,185.5C 65.8692,166.295 87.0358,147.462 108.5,129C 111.119,127.304 113.786,127.137 116.5,128.5C 117.39,130.782 117.556,133.115 117,135.5C 95.4785,154.265 74.1451,173.265 53,192.5C 50.7815,201.409 54.1148,206.742 63,208.5C 65.3207,208.091 67.4874,207.257 69.5,206C 130.5,153 191.5,100 252.5,47C 254.5,46.3333 256.5,46.3333 258.5,47C 319.5,100 380.5,153 441.5,206C 448.435,209.957 453.935,208.457 458,201.5C 458.667,198.5 458.667,195.5 458,192.5C 392.425,134.254 326.258,76.7536 259.5,20C 256.036,19.1834 252.702,19.5167 249.5,21C 215.204,50.2938 181.204,79.9605 147.5,110C 144.584,111.818 141.584,111.984 138.5,110.5C 137.677,108.545 137.51,106.545 138,104.5C 173.242,72.5871 209.075,41.4204 245.5,11C 256.093,7.11864 265.427,9.11864 273.5,17C 334.5,70 395.5,123 456.5,176C 459.667,179.167 462.833,182.333 466,185.5C 471.861,196.78 470.028,206.613 460.5,215C 451.593,219.916 442.927,219.583 434.5,214C 431.428,211.049 428.261,208.216 425,205.5C 424.5,258.166 424.333,310.832 424.5,363.5C 440.785,365.29 446.285,373.956 441,389.5C 434,397.167 427,404.833 420,412.5C 419.833,418.333 422.667,421.167 428.5,421C 429.833,420.333 431.167,419.667 432.5,419C 445.667,405.833 458.833,392.667 472,379.5C 473.19,375.619 473.857,371.619 474,367.5C 474.333,354.5 474.667,341.5 475,328.5C 480.073,317.215 488.573,313.382 500.5,317C 504.719,319.552 507.886,323.052 510,327.5C 510.667,350.167 510.667,372.833 510,395.5C 509.275,397.949 508.275,400.283 507,402.5C 497.246,412.926 486.912,422.592 476,431.5C 474.989,430.663 473.822,430.33 472.5,430.5 Z"/></g>
<g><path style="opacity:1" fill="#f85b3c" d="M 116.5,128.5 C 119.009,127.079 121.343,125.412 123.5,123.5C 131.192,125.808 133.859,123.141 131.5,115.5C 134.009,114.079 136.343,112.412 138.5,110.5C 141.584,111.984 144.584,111.818 147.5,110C 181.204,79.9605 215.204,50.2938 249.5,21C 252.702,19.5167 256.036,19.1834 259.5,20C 326.258,76.7536 392.425,134.254 458,192.5C 458.667,195.5 458.667,198.5 458,201.5C 453.935,208.457 448.435,209.957 441.5,206C 380.5,153 319.5,100 258.5,47C 256.5,46.3333 254.5,46.3333 252.5,47C 191.5,100 130.5,153 69.5,206C 67.4874,207.257 65.3207,208.091 63,208.5C 54.1148,206.742 50.7815,201.409 53,192.5C 74.1451,173.265 95.4785,154.265 117,135.5C 117.556,133.115 117.39,130.782 116.5,128.5 Z"/></g>
<g><path style="opacity:1" fill="#4aa2c4" d="M 413.5,204.5 C 361.156,158.989 308.656,113.656 256,68.5C 252.232,70.5973 248.732,73.0973 245.5,76C 196.59,119.416 147.257,162.249 97.5,204.5C 96.2238,198.524 97.8905,193.691 102.5,190C 153.5,145.833 204.5,101.667 255.5,57.5C 308.148,102.98 360.648,148.647 413,194.5C 413.498,197.817 413.665,201.15 413.5,204.5 Z"/></g>
<g><path style="opacity:1" fill="#71c1e8" d="M 413.5,204.5 C 413.5,255.833 413.5,307.167 413.5,358.5C 400.198,370.135 387.531,382.468 375.5,395.5C 374.5,395.5 373.5,395.5 372.5,395.5C 372.667,333.499 372.5,271.499 372,209.5C 367.933,200.048 360.767,196.215 350.5,198C 341.172,202.154 337.172,209.321 338.5,219.5C 323.833,219.5 309.167,219.5 294.5,219.5C 294.806,216.615 294.473,213.948 293.5,211.5C 291.401,202.24 285.568,197.573 276,197.5C 267.513,198.486 262.347,203.153 260.5,211.5C 259.527,213.948 259.194,216.615 259.5,219.5C 248.5,219.5 237.5,219.5 226.5,219.5C 226.784,217.585 226.451,215.919 225.5,214.5C 223.948,205.242 218.615,199.409 209.5,197C 198.833,196.333 188.167,196.333 177.5,197C 176.099,197.41 174.766,197.91 173.5,198.5C 172.833,194.167 172.167,189.833 171.5,185.5C 168.983,177.484 163.483,173.484 155,173.5C 147.245,173.58 141.912,177.247 139,184.5C 138.5,254.833 138.333,325.166 138.5,395.5C 137.5,395.5 136.5,395.5 135.5,395.5C 123.469,382.468 110.802,370.135 97.5,358.5C 97.5,307.167 97.5,255.833 97.5,204.5C 147.257,162.249 196.59,119.416 245.5,76C 248.732,73.0973 252.232,70.5973 256,68.5C 308.656,113.656 361.156,158.989 413.5,204.5 Z"/></g>
<g><path style="opacity:0.886" fill="#030100" d="M 131.5,115.5 C 133.859,123.141 131.192,125.808 123.5,123.5C 121.833,116.5 124.5,113.833 131.5,115.5 Z"/></g>
<g><path style="opacity:1" fill="#020404" d="M 252.5,122.5 C 254.527,122.338 256.527,122.505 258.5,123C 261.041,127.942 263.208,133.108 265,138.5C 268.755,143.295 273.588,146.462 279.5,148C 282.034,150.587 282.034,153.253 279.5,156C 267.963,159.546 261.463,167.379 260,179.5C 257,182.167 254,182.167 251,179.5C 249.579,167.415 243.079,159.582 231.5,156C 228.595,152.626 228.928,149.626 232.5,147C 238.199,146.067 242.699,143.234 246,138.5C 247.873,132.965 250.039,127.632 252.5,122.5 Z"/></g>
<g><path style="opacity:1" fill="#dfb21d" d="M 254.5,143.5 C 257.558,146.051 260.558,148.885 263.5,152C 260.622,154.709 257.956,157.542 255.5,160.5C 253.016,157.516 250.35,154.682 247.5,152C 250.665,149.829 252.998,146.995 254.5,143.5 Z"/></g>
<g><path style="opacity:1" fill="#efbf1f" d="M 161.5,187.5 C 161.5,256.833 161.5,326.167 161.5,395.5C 157.167,395.5 152.833,395.5 148.5,395.5C 148.333,325.833 148.5,256.166 149,186.5C 153.85,180.938 158.017,181.271 161.5,187.5 Z"/></g>
<g><path style="opacity:1" fill="#a48316" d="M 161.5,187.5 C 162.499,256.998 162.833,326.665 162.5,396.5C 157.637,396.819 152.97,396.486 148.5,395.5C 152.833,395.5 157.167,395.5 161.5,395.5C 161.5,326.167 161.5,256.833 161.5,187.5 Z"/></g>
<g><path style="opacity:1" fill="#26414e" d="M 171.5,185.5 C 172.167,189.833 172.833,194.167 173.5,198.5C 173.44,199.043 173.107,199.376 172.5,199.5C 171.507,194.88 171.173,190.214 171.5,185.5 Z"/></g>
<g><path style="opacity:1" fill="#e7e7e7" d="M 178.5,206.5 C 188.506,206.334 198.506,206.5 208.5,207C 214.525,209.539 216.859,214.039 215.5,220.5C 201.167,220.5 186.833,220.5 172.5,220.5C 172.336,217.813 172.503,215.146 173,212.5C 175.04,210.63 176.873,208.63 178.5,206.5 Z"/></g>
<g><path style="opacity:1" fill="#fb5c3c" d="M 273.5,207.5 C 277.192,206.971 280.358,207.971 283,210.5C 283.5,272.166 283.667,333.832 283.5,395.5C 279.167,395.5 274.833,395.5 270.5,395.5C 270.333,333.832 270.5,272.166 271,210.5C 272.045,209.627 272.878,208.627 273.5,207.5 Z"/></g>
<g><path style="opacity:1" fill="#fb5c3c" d="M 362.5,395.5 C 358.167,395.5 353.833,395.5 349.5,395.5C 349.5,334.167 349.5,272.833 349.5,211.5C 352.267,207.256 355.934,206.422 360.5,209C 361.126,209.75 361.626,210.584 362,211.5C 362.5,272.832 362.667,334.166 362.5,395.5 Z"/></g>
<g><path style="opacity:1" fill="#ab3f29" d="M 349.5,211.5 C 349.5,272.833 349.5,334.167 349.5,395.5C 353.833,395.5 358.167,395.5 362.5,395.5C 358.03,396.486 353.363,396.819 348.5,396.5C 348.168,334.664 348.501,272.998 349.5,211.5 Z"/></g>
<g><path style="opacity:1" fill="#4b7f99" d="M 260.5,211.5 C 260.5,214.5 260.5,217.5 260.5,220.5C 248.833,220.5 237.167,220.5 225.5,220.5C 225.5,218.5 225.5,216.5 225.5,214.5C 226.451,215.919 226.784,217.585 226.5,219.5C 237.5,219.5 248.5,219.5 259.5,219.5C 259.194,216.615 259.527,213.948 260.5,211.5 Z"/></g>
<g><path style="opacity:1" fill="#4b7f99" d="M 293.5,211.5 C 294.473,213.948 294.806,216.615 294.5,219.5C 309.167,219.5 323.833,219.5 338.5,219.5C 323.676,220.496 308.676,220.829 293.5,220.5C 293.5,217.5 293.5,214.5 293.5,211.5 Z"/></g>
<g><path style="opacity:1" fill="#525252" d="M 338.5,230.5 C 323.833,230.5 309.167,230.5 294.5,230.5C 294.5,234.833 294.5,239.167 294.5,243.5C 309.167,243.5 323.833,243.5 338.5,243.5C 323.676,244.496 308.676,244.829 293.5,244.5C 293.5,239.5 293.5,234.5 293.5,229.5C 308.676,229.171 323.676,229.504 338.5,230.5 Z"/></g>
<g><path style="opacity:1" fill="#eeefee" d="M 172.5,230.5 C 201.5,230.5 230.5,230.5 259.5,230.5C 259.5,234.833 259.5,239.167 259.5,243.5C 230.5,243.5 201.5,243.5 172.5,243.5C 172.5,239.167 172.5,234.833 172.5,230.5 Z"/></g>
<g><path style="opacity:1" fill="#eeefee" d="M 338.5,230.5 C 338.5,234.833 338.5,239.167 338.5,243.5C 323.833,243.5 309.167,243.5 294.5,243.5C 294.5,239.167 294.5,234.833 294.5,230.5C 309.167,230.5 323.833,230.5 338.5,230.5 Z"/></g>
<g><path style="opacity:1" fill="#474747" d="M 172.5,230.5 C 201.662,229.502 230.995,229.169 260.5,229.5C 260.5,234.5 260.5,239.5 260.5,244.5C 230.995,244.831 201.662,244.498 172.5,243.5C 201.5,243.5 230.5,243.5 259.5,243.5C 259.5,239.167 259.5,234.833 259.5,230.5C 230.5,230.5 201.5,230.5 172.5,230.5 Z"/></g>
<g><path style="opacity:1" fill="#efc01f" d="M 172.5,254.5 C 201.5,254.5 230.5,254.5 259.5,254.5C 259.5,257.5 259.5,260.5 259.5,263.5C 230.5,263.5 201.5,263.5 172.5,263.5C 172.5,260.5 172.5,257.5 172.5,254.5 Z"/></g>
<g><path style="opacity:1" fill="#efc01f" d="M 338.5,254.5 C 338.5,257.5 338.5,260.5 338.5,263.5C 323.833,263.5 309.167,263.5 294.5,263.5C 294.5,260.5 294.5,257.5 294.5,254.5C 309.167,254.5 323.833,254.5 338.5,254.5 Z"/></g>
<g><path style="opacity:1" fill="#ae8c16" d="M 172.5,254.5 C 201.662,253.502 230.995,253.169 260.5,253.5C 260.5,257.167 260.5,260.833 260.5,264.5C 230.995,264.831 201.662,264.498 172.5,263.5C 201.5,263.5 230.5,263.5 259.5,263.5C 259.5,260.5 259.5,257.5 259.5,254.5C 230.5,254.5 201.5,254.5 172.5,254.5 Z"/></g>
<g><path style="opacity:1" fill="#ae8b16" d="M 338.5,254.5 C 323.833,254.5 309.167,254.5 294.5,254.5C 294.5,257.5 294.5,260.5 294.5,263.5C 309.167,263.5 323.833,263.5 338.5,263.5C 323.676,264.496 308.676,264.829 293.5,264.5C 293.5,260.833 293.5,257.167 293.5,253.5C 308.676,253.171 323.676,253.504 338.5,254.5 Z"/></g>
<g><path style="opacity:1" fill="#71c1e8" d="M 259.5,274.5 C 259.5,288.833 259.5,303.167 259.5,317.5C 248.5,317.5 237.5,317.5 226.5,317.5C 226.784,315.585 226.451,313.919 225.5,312.5C 223.953,304.789 219.62,299.289 212.5,296C 199.087,293.858 185.754,294.025 172.5,296.5C 172.5,289.167 172.5,281.833 172.5,274.5C 201.5,274.5 230.5,274.5 259.5,274.5 Z"/></g>
<g><path style="opacity:1" fill="#72c2e9" d="M 294.5,274.5 C 309.167,274.5 323.833,274.5 338.5,274.5C 338.5,279.833 338.5,285.167 338.5,290.5C 323.833,290.5 309.167,290.5 294.5,290.5C 294.5,285.167 294.5,279.833 294.5,274.5 Z"/></g>
<g><path style="opacity:1" fill="#5189a5" d="M 294.5,274.5 C 294.5,279.833 294.5,285.167 294.5,290.5C 309.167,290.5 323.833,290.5 338.5,290.5C 323.676,291.496 308.676,291.829 293.5,291.5C 293.178,285.642 293.511,279.975 294.5,274.5 Z"/></g>
<g><path style="opacity:1" fill="#72c2e9" d="M 294.5,301.5 C 309.167,301.5 323.833,301.5 338.5,301.5C 338.5,306.833 338.5,312.167 338.5,317.5C 323.833,317.5 309.167,317.5 294.5,317.5C 294.5,312.167 294.5,306.833 294.5,301.5 Z"/></g>
<g><path style="opacity:1" fill="#e8e8e8" d="M 179.5,304.5 C 189.912,304.074 200.246,304.574 210.5,306C 214.988,308.978 216.655,313.145 215.5,318.5C 201.167,318.5 186.833,318.5 172.5,318.5C 172.336,315.813 172.503,313.146 173,310.5C 175.063,308.266 177.229,306.266 179.5,304.5 Z"/></g>
<g><path style="opacity:1" fill="#4f86a1" d="M 259.5,274.5 C 260.496,288.99 260.829,303.657 260.5,318.5C 248.833,318.5 237.167,318.5 225.5,318.5C 225.5,316.5 225.5,314.5 225.5,312.5C 226.451,313.919 226.784,315.585 226.5,317.5C 237.5,317.5 248.5,317.5 259.5,317.5C 259.5,303.167 259.5,288.833 259.5,274.5 Z"/></g>
<g><path style="opacity:1" fill="#5189a5" d="M 294.5,301.5 C 294.5,306.833 294.5,312.167 294.5,317.5C 309.167,317.5 323.833,317.5 338.5,317.5C 323.676,318.496 308.676,318.829 293.5,318.5C 293.178,312.642 293.511,306.975 294.5,301.5 Z"/></g>
<g><path style="opacity:1" fill="#fcb49d" d="M 135.5,497.5 C 118.5,497.5 101.5,497.5 84.5,497.5C 83.6697,487.341 83.1697,477.008 83,466.5C 59.6667,443.167 36.3333,419.833 13,396.5C 12.3333,395.167 11.6667,393.833 11,392.5C 10.3333,371.833 10.3333,351.167 11,330.5C 12.1667,329.333 13.3333,328.167 14.5,327C 19.7314,325.276 23.5647,326.776 26,331.5C 26.3333,347.5 26.6667,363.5 27,379.5C 28,381.5 29,383.5 30,385.5C 43.8333,399.333 57.6667,413.167 71.5,427C 76.8164,431.186 82.8164,432.519 89.5,431C 100.979,425.235 104.145,416.402 99,404.5C 91.9406,397.776 85.2739,390.776 79,383.5C 78.3333,381.5 78.3333,379.5 79,377.5C 81.3764,373.448 84.5431,372.615 88.5,375C 101.667,388.167 114.833,401.333 128,414.5C 132.042,420.252 134.709,426.585 136,433.5C 136.821,454.906 136.654,476.24 135.5,497.5 Z"/></g>
<g><path style="opacity:0.999" fill="#fcb39d" d="M 472.5,430.5 C 470.167,432.167 468.167,434.167 466.5,436.5C 458.397,433.268 455.73,435.934 458.5,444.5C 456.167,446.167 454.167,448.167 452.5,450.5C 449.887,449.565 447.221,449.398 444.5,450C 439,455.5 433.5,461 428,466.5C 427.83,477.008 427.33,487.341 426.5,497.5C 409.5,497.5 392.5,497.5 375.5,497.5C 374.346,476.24 374.179,454.906 375,433.5C 375.873,427.752 377.873,422.419 381,417.5C 394.471,403.029 408.304,388.862 422.5,375C 423.729,374.219 425.062,373.719 426.5,373.5C 431.561,375.061 433.395,378.394 432,383.5C 425.698,390.803 419.032,397.803 412,404.5C 409.626,408.894 408.959,413.56 410,418.5C 416.409,432.457 426.242,435.29 439.5,427C 453.333,413.167 467.167,399.333 481,385.5C 482,383.5 483,381.5 484,379.5C 484.333,363.5 484.667,347.5 485,331.5C 485.785,329.714 486.951,328.214 488.5,327C 493.212,325.557 497.045,326.723 500,330.5C 500.667,351.167 500.667,371.833 500,392.5C 491.4,403.102 482.067,413.102 472,422.5C 471.398,425.221 471.565,427.887 472.5,430.5 Z"/></g>
<g><path style="opacity:1" fill="#eeefee" d="M 172.5,328.5 C 201.5,328.5 230.5,328.5 259.5,328.5C 259.5,332.833 259.5,337.167 259.5,341.5C 230.5,341.5 201.5,341.5 172.5,341.5C 172.5,337.167 172.5,332.833 172.5,328.5 Z"/></g>
<g><path style="opacity:1" fill="#eeefee" d="M 338.5,328.5 C 338.5,332.833 338.5,337.167 338.5,341.5C 323.833,341.5 309.167,341.5 294.5,341.5C 294.5,337.167 294.5,332.833 294.5,328.5C 309.167,328.5 323.833,328.5 338.5,328.5 Z"/></g>
<g><path style="opacity:1" fill="#595959" d="M 172.5,328.5 C 201.662,327.502 230.995,327.169 260.5,327.5C 260.5,332.5 260.5,337.5 260.5,342.5C 230.995,342.831 201.662,342.498 172.5,341.5C 201.5,341.5 230.5,341.5 259.5,341.5C 259.5,337.167 259.5,332.833 259.5,328.5C 230.5,328.5 201.5,328.5 172.5,328.5 Z"/></g>
<g><path style="opacity:1" fill="#5b5b5b" d="M 338.5,328.5 C 323.833,328.5 309.167,328.5 294.5,328.5C 294.5,332.833 294.5,337.167 294.5,341.5C 309.167,341.5 323.833,341.5 338.5,341.5C 323.676,342.496 308.676,342.829 293.5,342.5C 293.5,337.5 293.5,332.5 293.5,327.5C 308.676,327.171 323.676,327.504 338.5,328.5 Z"/></g>
<g><path style="opacity:1" fill="#886d12" d="M 259.5,362.5 C 259.5,359.167 259.5,355.833 259.5,352.5C 230.5,352.5 201.5,352.5 172.5,352.5C 172.5,355.833 172.5,359.167 172.5,362.5C 171.518,359.038 171.185,355.371 171.5,351.5C 201.167,351.5 230.833,351.5 260.5,351.5C 260.815,355.371 260.482,359.038 259.5,362.5 Z"/></g>
<g><path style="opacity:1" fill="#846911" d="M 338.5,362.5 C 338.5,359.167 338.5,355.833 338.5,352.5C 323.833,352.5 309.167,352.5 294.5,352.5C 294.5,355.833 294.5,359.167 294.5,362.5C 293.518,359.038 293.185,355.371 293.5,351.5C 308.833,351.5 324.167,351.5 339.5,351.5C 339.815,355.371 339.482,359.038 338.5,362.5 Z"/></g>
<g><path style="opacity:1" fill="#ebbc1f" d="M 259.5,362.5 C 230.5,362.5 201.5,362.5 172.5,362.5C 172.5,359.167 172.5,355.833 172.5,352.5C 201.5,352.5 230.5,352.5 259.5,352.5C 259.5,355.833 259.5,359.167 259.5,362.5 Z"/></g>
<g><path style="opacity:1" fill="#ebbc1f" d="M 338.5,362.5 C 323.833,362.5 309.167,362.5 294.5,362.5C 294.5,359.167 294.5,355.833 294.5,352.5C 309.167,352.5 323.833,352.5 338.5,352.5C 338.5,355.833 338.5,359.167 338.5,362.5 Z"/></g>
<g><path style="opacity:1" fill="#49a1c3" d="M 97.5,358.5 C 110.802,370.135 123.469,382.468 135.5,395.5C 131.154,395.666 126.821,395.499 122.5,395C 114.333,386.833 106.167,378.667 98,370.5C 97.5012,366.514 97.3345,362.514 97.5,358.5 Z"/></g>
<g><path style="opacity:1" fill="#49a1c3" d="M 413.5,358.5 C 413.666,362.514 413.499,366.514 413,370.5C 404.833,378.667 396.667,386.833 388.5,395C 384.179,395.499 379.846,395.666 375.5,395.5C 387.531,382.468 400.198,370.135 413.5,358.5 Z"/></g>
<g><path style="opacity:1" fill="#72c2e9" d="M 259.5,372.5 C 259.5,380.167 259.5,387.833 259.5,395.5C 230.5,395.5 201.5,395.5 172.5,395.5C 172.5,387.833 172.5,380.167 172.5,372.5C 201.5,372.5 230.5,372.5 259.5,372.5 Z"/></g>
<g><path style="opacity:1" fill="#72c2e9" d="M 294.5,372.5 C 309.167,372.5 323.833,372.5 338.5,372.5C 338.5,380.167 338.5,387.833 338.5,395.5C 323.833,395.5 309.167,395.5 294.5,395.5C 294.5,387.833 294.5,380.167 294.5,372.5 Z"/></g>
<g><path style="opacity:1" fill="#325565" d="M 259.5,372.5 C 260.492,380.316 260.826,388.316 260.5,396.5C 230.995,396.831 201.662,396.498 172.5,395.5C 201.5,395.5 230.5,395.5 259.5,395.5C 259.5,387.833 259.5,380.167 259.5,372.5 Z"/></g>
<g><path style="opacity:1" fill="#345869" d="M 294.5,372.5 C 294.5,380.167 294.5,387.833 294.5,395.5C 309.167,395.5 323.833,395.5 338.5,395.5C 323.676,396.496 308.676,396.829 293.5,396.5C 293.174,388.316 293.508,380.316 294.5,372.5 Z"/></g>
<g><path style="opacity:0.882" fill="#090605" d="M 466.5,436.5 C 468.234,443.433 465.567,446.1 458.5,444.5C 455.73,435.934 458.397,433.268 466.5,436.5 Z"/></g>
<g><path style="opacity:0.949" fill="#020101" d="M 452.5,450.5 C 453.511,452.402 453.678,454.402 453,456.5C 448,461.5 443,466.5 438,471.5C 437.667,480.833 437.333,490.167 437,499.5C 432.555,503.74 429.055,503.073 426.5,497.5C 427.33,487.341 427.83,477.008 428,466.5C 433.5,461 439,455.5 444.5,450C 447.221,449.398 449.887,449.565 452.5,450.5 Z"/></g>
</svg>
