<?xml version="1.0" encoding="UTF-8"?>
<!DOCTYPE svg PUBLIC "-//W3C//DTD SVG 1.1//EN" "http://www.w3.org/Graphics/SVG/1.1/DTD/svg11.dtd">
<svg xmlns="http://www.w3.org/2000/svg" version="1.1" width="512px" height="512px" style="shape-rendering:geometricPrecision; text-rendering:geometricPrecision; image-rendering:optimizeQuality; fill-rule:evenodd; clip-rule:evenodd" xmlns:xlink="http://www.w3.org/1999/xlink">
<g><path style="opacity:1" fill="#f3f3e5" d="M -0.5,-0.5 C 170.167,-0.5 340.833,-0.5 511.5,-0.5C 511.5,46.8333 511.5,94.1667 511.5,141.5C 496.833,141.5 482.167,141.5 467.5,141.5C 455.5,140.167 443.5,140.167 431.5,141.5C 317.167,141.5 202.833,141.5 88.5,141.5C 76.2647,140.18 63.9313,140.18 51.5,141.5C 34.1667,141.5 16.8333,141.5 -0.5,141.5C -0.5,94.1667 -0.5,46.8333 -0.5,-0.5 Z"/></g>
<g><path style="opacity:1" fill="#e78897" d="M 341.5,26.5 C 356.991,25.5037 372.658,25.1704 388.5,25.5C 388.823,31.69 388.49,37.69 387.5,43.5C 387.5,37.8333 387.5,32.1667 387.5,26.5C 372.167,26.5 356.833,26.5 341.5,26.5 Z"/></g>
<g><path style="opacity:1" fill="#da1c4b" d="M 52.5,26.5 C 58.1667,26.5 63.8333,26.5 69.5,26.5C 69.1717,38.3453 69.5051,50.012 70.5,61.5C 76.1667,61.5 81.8333,61.5 87.5,61.5C 88.4949,50.012 88.8283,38.3453 88.5,26.5C 94.1667,26.5 99.8333,26.5 105.5,26.5C 105.5,55.5 105.5,84.5 105.5,113.5C 99.8333,113.5 94.1667,113.5 88.5,113.5C 88.8283,101.655 88.4949,89.988 87.5,78.5C 81.5,78.5 75.5,78.5 69.5,78.5C 69.5,90.1667 69.5,101.833 69.5,113.5C 63.8333,113.5 58.1667,113.5 52.5,113.5C 52.5,84.5 52.5,55.5 52.5,26.5 Z"/></g>
<g><path style="opacity:1" fill="#e4738a" d="M 52.5,26.5 C 58.31,25.5104 64.31,25.1771 70.5,25.5C 70.5,37.5 70.5,49.5 70.5,61.5C 69.5051,50.012 69.1717,38.3453 69.5,26.5C 63.8333,26.5 58.1667,26.5 52.5,26.5 Z"/></g>
<g><path style="opacity:1" fill="#e2637d" d="M 105.5,26.5 C 99.8333,26.5 94.1667,26.5 88.5,26.5C 88.8283,38.3453 88.4949,50.012 87.5,61.5C 87.5,49.5 87.5,37.5 87.5,25.5C 93.69,25.1771 99.69,25.5104 105.5,26.5 Z"/></g>
<g><path style="opacity:1" fill="#da234d" d="M 129.5,25.5 C 142.837,25.3334 156.171,25.5001 169.5,26C 172.333,27.5 174.5,29.6667 176,32.5C 176.667,57.5 176.667,82.5 176,107.5C 175.167,111 173,113.167 169.5,114C 156.167,114.667 142.833,114.667 129.5,114C 127.376,112.878 125.543,111.378 124,109.5C 123.333,83.1667 123.333,56.8333 124,30.5C 125.73,28.5981 127.563,26.9314 129.5,25.5 Z"/></g>
<g><path style="opacity:1" fill="#da234d" d="M 240.5,113.5 C 225.167,113.5 209.833,113.5 194.5,113.5C 194.5,107.833 194.5,102.167 194.5,96.5C 205.833,96.5 217.167,96.5 228.5,96.5C 228.5,90.8333 228.5,85.1667 228.5,79.5C 219.161,79.6665 209.827,79.4998 200.5,79C 197.333,77.8333 195.167,75.6667 194,72.5C 193.333,58.8333 193.333,45.1667 194,31.5C 195.251,28.6193 197.417,26.786 200.5,26C 215.83,25.5001 231.163,25.3334 246.5,25.5C 246.5,31.5 246.5,37.5 246.5,43.5C 234.833,43.5 223.167,43.5 211.5,43.5C 211.5,49.5 211.5,55.5 211.5,61.5C 221.506,61.3335 231.506,61.5002 241.5,62C 242.931,62.4652 244.097,63.2986 245,64.5C 246.633,79.0733 246.966,93.7399 246,108.5C 244.924,111.079 243.091,112.746 240.5,113.5 Z"/></g>
<g><path style="opacity:1" fill="#db274f" d="M 317.5,43.5 C 311.5,43.5 305.5,43.5 299.5,43.5C 299.5,67.1667 299.5,90.8333 299.5,114.5C 293.5,114.5 287.5,114.5 281.5,114.5C 281.5,90.8333 281.5,67.1667 281.5,43.5C 275.833,43.5 270.167,43.5 264.5,43.5C 264.5,37.5 264.5,31.5 264.5,25.5C 282.167,25.5 299.833,25.5 317.5,25.5C 317.5,31.5 317.5,37.5 317.5,43.5 Z"/></g>
<g><path style="opacity:1" fill="#da224d" d="M 341.5,26.5 C 356.833,26.5 372.167,26.5 387.5,26.5C 387.5,32.1667 387.5,37.8333 387.5,43.5C 375.833,43.5 364.167,43.5 352.5,43.5C 352.5,49.5 352.5,55.5 352.5,61.5C 364.167,61.5 375.833,61.5 387.5,61.5C 387.5,67.5 387.5,73.5 387.5,79.5C 375.833,79.5 364.167,79.5 352.5,79.5C 352.5,85.1667 352.5,90.8333 352.5,96.5C 364.167,96.5 375.833,96.5 387.5,96.5C 387.5,102.167 387.5,107.833 387.5,113.5C 372.167,113.5 356.833,113.5 341.5,113.5C 337.921,113.089 335.754,111.089 335,107.5C 334.333,82.5 334.333,57.5 335,32.5C 336.406,29.5914 338.572,27.5914 341.5,26.5 Z"/></g>
<g><path style="opacity:1" fill="#da1f4c" d="M 405.5,26.5 C 411.167,26.5 416.833,26.5 422.5,26.5C 422.169,50.006 422.502,73.3393 423.5,96.5C 435.167,96.5 446.833,96.5 458.5,96.5C 458.5,102.5 458.5,108.5 458.5,114.5C 442.83,114.667 427.163,114.5 411.5,114C 409.714,113.215 408.214,112.049 407,110.5C 405.525,82.5638 405.025,54.5638 405.5,26.5 Z"/></g>
<g><path style="opacity:1" fill="#e25f7b" d="M 405.5,26.5 C 411.31,25.5104 417.31,25.1771 423.5,25.5C 423.5,49.1667 423.5,72.8333 423.5,96.5C 422.502,73.3393 422.169,50.006 422.5,26.5C 416.833,26.5 411.167,26.5 405.5,26.5 Z"/></g>
<g><path style="opacity:1" fill="#efd3ce" d="M 387.5,43.5 C 376.346,44.4948 365.012,44.8281 353.5,44.5C 353.5,49.8333 353.5,55.1667 353.5,60.5C 365.012,60.1719 376.346,60.5052 387.5,61.5C 375.833,61.5 364.167,61.5 352.5,61.5C 352.5,55.5 352.5,49.5 352.5,43.5C 364.167,43.5 375.833,43.5 387.5,43.5 Z"/></g>
<g><path style="opacity:1" fill="#f0d3ce" d="M 157.5,96.5 C 157.5,79.1667 157.5,61.8333 157.5,44.5C 152.167,44.5 146.833,44.5 141.5,44.5C 141.5,61.8333 141.5,79.1667 141.5,96.5C 140.503,79.0079 140.17,61.3412 140.5,43.5C 146.5,43.5 152.5,43.5 158.5,43.5C 158.83,61.3412 158.497,79.0079 157.5,96.5 Z"/></g>
<g><path style="opacity:1" fill="#f3f4e5" d="M 157.5,96.5 C 152.167,96.5 146.833,96.5 141.5,96.5C 141.5,79.1667 141.5,61.8333 141.5,44.5C 146.833,44.5 152.167,44.5 157.5,44.5C 157.5,61.8333 157.5,79.1667 157.5,96.5 Z"/></g>
<g><path style="opacity:1" fill="#f0d6cf" d="M 317.5,43.5 C 312.025,44.4889 306.358,44.8222 300.5,44.5C 300.831,68.006 300.498,91.3393 299.5,114.5C 299.5,90.8333 299.5,67.1667 299.5,43.5C 305.5,43.5 311.5,43.5 317.5,43.5 Z"/></g>
<g><path style="opacity:1" fill="#e46f86" d="M 87.5,78.5 C 87.5,78.8333 87.5,79.1667 87.5,79.5C 81.8333,79.5 76.1667,79.5 70.5,79.5C 70.5,91.1667 70.5,102.833 70.5,114.5C 64.31,114.823 58.31,114.49 52.5,113.5C 58.1667,113.5 63.8333,113.5 69.5,113.5C 69.5,101.833 69.5,90.1667 69.5,78.5C 75.5,78.5 81.5,78.5 87.5,78.5 Z"/></g>
<g><path style="opacity:1" fill="#e05574" d="M 87.5,78.5 C 88.4949,89.988 88.8283,101.655 88.5,113.5C 94.1667,113.5 99.8333,113.5 105.5,113.5C 99.69,114.49 93.69,114.823 87.5,114.5C 87.5,102.833 87.5,91.1667 87.5,79.5C 87.5,79.1667 87.5,78.8333 87.5,78.5 Z"/></g>
<g><path style="opacity:1" fill="#e15573" d="M 194.5,96.5 C 194.5,102.167 194.5,107.833 194.5,113.5C 209.833,113.5 225.167,113.5 240.5,113.5C 225.009,114.496 209.342,114.83 193.5,114.5C 193.177,108.31 193.51,102.31 194.5,96.5 Z"/></g>
<g><path style="opacity:1" fill="#e3677f" d="M 387.5,96.5 C 388.49,102.31 388.823,108.31 388.5,114.5C 372.658,114.83 356.991,114.496 341.5,113.5C 356.833,113.5 372.167,113.5 387.5,113.5C 387.5,107.833 387.5,102.167 387.5,96.5 Z"/></g>
<g><path style="opacity:0.98" fill="#394d5c" d="M 88.5,141.5 C 88.5,170.5 88.5,199.5 88.5,228.5C 76.1667,229.833 63.8333,229.833 51.5,228.5C 51.5,199.5 51.5,170.5 51.5,141.5C 63.9313,140.18 76.2647,140.18 88.5,141.5 Z"/></g>
<g><path style="opacity:0.981" fill="#394d5c" d="M 467.5,141.5 C 467.5,170.5 467.5,199.5 467.5,228.5C 455.5,229.833 443.5,229.833 431.5,228.5C 431.5,199.5 431.5,170.5 431.5,141.5C 443.5,140.167 455.5,140.167 467.5,141.5 Z"/></g>
<g><path style="opacity:0.997" fill="#cddee7" d="M 51.5,228.5 C 63.8333,229.833 76.1667,229.833 88.5,228.5C 202.833,228.5 317.167,228.5 431.5,228.5C 443.5,229.833 455.5,229.833 467.5,228.5C 476.5,228.5 485.5,228.5 494.5,228.5C 494.5,310.833 494.5,393.167 494.5,475.5C 444.167,475.5 393.833,475.5 343.5,475.5C 343.5,440.5 343.5,405.5 343.5,370.5C 314.167,370.5 284.833,370.5 255.5,370.5C 226.167,370.5 196.833,370.5 167.5,370.5C 167.5,405.5 167.5,440.5 167.5,475.5C 117.167,475.5 66.8333,475.5 16.5,475.5C 16.5,393.167 16.5,310.833 16.5,228.5C 28.1667,228.5 39.8333,228.5 51.5,228.5 Z"/></g>
<g><path style="opacity:1" fill="#2d75bb" d="M 61.5,264.5 C 84.8333,264.5 108.167,264.5 131.5,264.5C 131.5,287.833 131.5,311.167 131.5,334.5C 108.167,334.5 84.8333,334.5 61.5,334.5C 61.5,311.167 61.5,287.833 61.5,264.5 Z"/></g>
<g><path style="opacity:1" fill="#2d75bb" d="M 167.5,264.5 C 190.833,264.5 214.167,264.5 237.5,264.5C 237.5,287.833 237.5,311.167 237.5,334.5C 214.167,334.5 190.833,334.5 167.5,334.5C 167.5,311.167 167.5,287.833 167.5,264.5 Z"/></g>
<g><path style="opacity:1" fill="#2d75bb" d="M 273.5,264.5 C 296.833,264.5 320.167,264.5 343.5,264.5C 343.5,287.833 343.5,311.167 343.5,334.5C 320.167,334.5 296.833,334.5 273.5,334.5C 273.5,311.167 273.5,287.833 273.5,264.5 Z"/></g>
<g><path style="opacity:1" fill="#2d75bb" d="M 379.5,264.5 C 402.833,264.5 426.167,264.5 449.5,264.5C 449.5,287.833 449.5,311.167 449.5,334.5C 426.167,334.5 402.833,334.5 379.5,334.5C 379.5,311.167 379.5,287.833 379.5,264.5 Z"/></g>
<g><path style="opacity:1" fill="#2d75bb" d="M 61.5,370.5 C 84.8333,370.5 108.167,370.5 131.5,370.5C 131.5,393.833 131.5,417.167 131.5,440.5C 108.167,440.5 84.8333,440.5 61.5,440.5C 61.5,417.167 61.5,393.833 61.5,370.5 Z"/></g>
<g><path style="opacity:1" fill="#adc6d2" d="M 255.5,370.5 C 255.5,417.5 255.5,464.5 255.5,511.5C 226.167,511.5 196.833,511.5 167.5,511.5C 167.5,499.833 167.5,488.167 167.5,476.5C 117.167,476.5 66.8333,476.5 16.5,476.5C 16.5,476.167 16.5,475.833 16.5,475.5C 66.8333,475.5 117.167,475.5 167.5,475.5C 167.5,440.5 167.5,405.5 167.5,370.5C 196.833,370.5 226.167,370.5 255.5,370.5 Z"/></g>
<g><path style="opacity:1" fill="#94b2be" d="M 255.5,370.5 C 284.833,370.5 314.167,370.5 343.5,370.5C 343.5,405.5 343.5,440.5 343.5,475.5C 393.833,475.5 444.167,475.5 494.5,475.5C 494.5,487.5 494.5,499.5 494.5,511.5C 494.167,511.5 493.833,511.5 493.5,511.5C 493.5,499.833 493.5,488.167 493.5,476.5C 443.5,476.5 393.5,476.5 343.5,476.5C 343.5,488.167 343.5,499.833 343.5,511.5C 314.167,511.5 284.833,511.5 255.5,511.5C 255.5,464.5 255.5,417.5 255.5,370.5 Z"/></g>
<g><path style="opacity:1" fill="#2d75bb" d="M 379.5,370.5 C 402.833,370.5 426.167,370.5 449.5,370.5C 449.5,393.833 449.5,417.167 449.5,440.5C 426.167,440.5 402.833,440.5 379.5,440.5C 379.5,417.167 379.5,393.833 379.5,370.5 Z"/></g>
<g><path style="opacity:1" fill="#394d5b" d="M 228.5,423.5 C 228.5,429.167 228.5,434.833 228.5,440.5C 222.833,440.5 217.167,440.5 211.5,440.5C 211.5,434.833 211.5,429.167 211.5,423.5C 217.167,423.5 222.833,423.5 228.5,423.5 Z"/></g>
<g><path style="opacity:1" fill="#394d5b" d="M 282.5,423.5 C 288.167,423.5 293.833,423.5 299.5,423.5C 299.5,429.167 299.5,434.833 299.5,440.5C 299.5,434.833 299.5,429.167 299.5,423.5C 293.833,423.5 288.167,423.5 282.5,423.5 Z"/></g>
<g><path style="opacity:1" fill="#7d93a1" d="M 228.5,423.5 C 229.49,429.31 229.823,435.31 229.5,441.5C 223.31,441.823 217.31,441.49 211.5,440.5C 217.167,440.5 222.833,440.5 228.5,440.5C 228.5,434.833 228.5,429.167 228.5,423.5 Z"/></g>
<g><path style="opacity:1" fill="#6e8895" d="M 282.5,423.5 C 282.5,429.167 282.5,434.833 282.5,440.5C 288.167,440.5 293.833,440.5 299.5,440.5C 293.69,441.49 287.69,441.823 281.5,441.5C 281.177,435.31 281.51,429.31 282.5,423.5 Z"/></g>
<g><path style="opacity:1" fill="#394d5c" d="M 16.5,476.5 C 66.8333,476.5 117.167,476.5 167.5,476.5C 167.5,488.167 167.5,499.833 167.5,511.5C 117.167,511.5 66.8333,511.5 16.5,511.5C 16.5,499.833 16.5,488.167 16.5,476.5 Z"/></g>
<g><path style="opacity:1" fill="#394d5c" d="M 493.5,511.5 C 443.5,511.5 393.5,511.5 343.5,511.5C 343.5,499.833 343.5,488.167 343.5,476.5C 393.5,476.5 443.5,476.5 493.5,476.5C 493.5,488.167 493.5,499.833 493.5,511.5 Z"/></g>
</svg>
