<?xml version="1.0" encoding="UTF-8"?>
<svg version="1.1" xmlns="http://www.w3.org/2000/svg" width="512" height="512">
<path d="M0 0 C0.84775497 -0.01268417 1.69550995 -0.02536835 2.56895447 -0.03843689 C3.4814949 -0.03550125 4.39403534 -0.03256561 5.33422852 -0.02954102 C6.74527611 -0.03740379 6.74527611 -0.03740379 8.18482971 -0.04542542 C10.1744793 -0.05184933 12.16416684 -0.05050385 14.15380859 -0.04199219 C17.19836103 -0.03348853 20.24103371 -0.06222812 23.28540039 -0.09399414 C25.21834254 -0.09560639 27.15128801 -0.09502818 29.08422852 -0.09204102 C29.99474472 -0.10327499 30.90526093 -0.11450897 31.84336853 -0.12608337 C38.14005097 -0.05666467 38.14005097 -0.05666467 41.31884766 2.24755859 C43.97300603 6.17653143 43.95523032 9.62750234 44.09204102 14.25952148 C44.11282211 14.92115799 44.13360321 15.58279449 44.15501404 16.26448059 C44.22028204 18.37340125 44.27928821 20.48244408 44.33813477 22.59155273 C44.38134166 24.02320588 44.42495665 25.45484677 44.46899414 26.88647461 C44.57593982 30.39220428 44.67727117 33.89807059 44.77563477 37.40405273 C45.65300293 36.51097412 45.65300293 36.51097412 46.5480957 35.59985352 C48.72827768 33.38551161 50.91298614 31.17576406 53.10083008 28.96899414 C54.50898177 27.54588265 55.91187431 26.11757353 57.31469727 24.68920898 C58.20415039 23.79331055 59.09360352 22.89741211 60.01000977 21.97436523 C60.82695312 21.14694824 61.64389648 20.31953125 62.4855957 19.46704102 C65.42310624 16.82077619 67.67434965 15.6293156 71.52563477 14.84155273 C80.14426121 16.33323808 87.78867642 27.26746046 93.71313477 33.21655273 C94.67976379 34.17961186 95.64655967 35.14250355 96.61352539 36.10522461 C97.97574219 37.469375 97.97574219 37.469375 99.36547852 38.86108398 C100.18910889 39.68584229 101.01273926 40.51060059 101.86132812 41.36035156 C104.1508865 43.80466901 104.70959431 44.82289671 105.08813477 48.15405273 C104.327502 56.06463351 96.88890558 61.52472336 91.52563477 66.77905273 C90.68516602 67.61049805 89.84469727 68.44194336 88.97875977 69.29858398 C86.91552975 71.33836821 84.84776354 73.3733156 82.77563477 75.40405273 C83.65823975 75.41863525 84.54084473 75.43321777 85.45019531 75.44824219 C88.7400212 75.50947341 92.02903406 75.58365603 95.31835938 75.66650391 C96.73914678 75.69965831 98.1600629 75.72771965 99.58105469 75.75048828 C101.62954297 75.78421121 103.67686197 75.83653019 105.72485352 75.89233398 C107.5708313 75.93161011 107.5708313 75.93161011 109.45410156 75.97167969 C113.98912141 76.5620156 116.58208091 78.21049888 119.77563477 81.40405273 C120.0430603 83.25009155 120.0430603 83.25009155 120.06616211 85.51489258 C120.08530167 86.78663834 120.08530167 86.78663834 120.10482788 88.08407593 C120.10816635 89.46062851 120.10816635 89.46062851 120.11157227 90.86499023 C120.11822906 91.80710358 120.12488586 92.74921692 120.13174438 93.71987915 C120.14188154 95.71549524 120.14656108 97.7111453 120.14624023 99.70678711 C120.15060764 102.76009093 120.18689991 105.81194293 120.22485352 108.86499023 C120.23072259 110.80248528 120.23469138 112.73998721 120.23657227 114.67749023 C120.2509433 115.59114349 120.26531433 116.50479675 120.28012085 117.44613647 C120.23472813 123.74710689 120.23472813 123.74710689 117.99682617 126.94946289 C113.81038187 129.69103633 109.98388523 129.56871171 105.04125977 129.72045898 C103.09799805 129.78330078 103.09799805 129.78330078 101.11547852 129.84741211 C99.7522 129.88721945 98.38891871 129.92693179 97.02563477 129.96655273 C95.64671601 130.00977548 94.26780951 130.05339094 92.88891602 130.09741211 C89.51792286 130.20349231 86.1468565 130.30555123 82.77563477 130.40405273 C83.72200806 131.3425708 83.72200806 131.3425708 84.6875 132.30004883 C87.02463112 134.62014892 89.35950255 136.94247566 91.69287109 139.26635742 C92.70369062 140.27214477 93.71540539 141.27703321 94.72802734 142.28100586 C96.18245332 143.72331756 97.63364092 145.16881946 99.08422852 146.61499023 C99.95877686 147.48430176 100.8333252 148.35361328 101.734375 149.24926758 C104.23087948 151.88461605 104.69900734 152.92513134 105.27563477 156.52905273 C104.54701084 162.17588813 101.72962259 164.48832931 97.77563477 168.40405273 C96.65511513 169.53614517 95.53538395 170.66901831 94.41625977 171.80249023 C91.22679086 175.02752586 88.00164542 178.21563212 84.77563477 181.40405273 C89.76226791 192.15987199 94.94789702 202.79559622 100.34204102 213.35327148 C101.49776453 215.62469249 102.65336219 217.89617753 103.80883789 220.16772461 C105.58523111 223.65845472 107.36639606 227.1463537 109.16162109 230.62744141 C110.9241028 234.04953994 112.66597692 237.48147375 114.40454102 240.91577148 C114.94502579 241.95231369 115.48551056 242.9888559 116.04237366 244.05680847 C118.89948938 249.74876422 120.92777332 254.01499963 119.77563477 260.40405273 C118.12563477 262.05405273 116.47563477 263.70405273 114.77563477 265.40405273 C102.56563477 265.40405273 90.35563477 265.40405273 77.77563477 265.40405273 C77.77563477 318.53405273 77.77563477 371.66405273 77.77563477 426.40405273 C81.07563477 426.40405273 84.37563477 426.40405273 87.77563477 426.40405273 C90.72491392 427.63291905 92.16239674 428.45849835 93.88842773 431.11987305 C95.0408556 434.08688326 95.00095045 436.52059036 94.97094727 439.70092773 C94.96450195 440.90620117 94.95805664 442.11147461 94.95141602 443.35327148 C94.9346582 444.6075293 94.91790039 445.86178711 94.90063477 447.15405273 C94.89161133 448.4237793 94.88258789 449.69350586 94.87329102 451.00170898 C94.84972482 454.13601366 94.81682309 457.26993814 94.77563477 460.40405273 C95.33025391 460.3935791 95.88487305 460.38310547 96.45629883 460.37231445 C98.97936436 460.33063269 101.50235729 460.30468835 104.02563477 460.27905273 C104.89833008 460.26229492 105.77102539 460.24553711 106.67016602 460.22827148 C107.51450195 460.22182617 108.35883789 460.21538086 109.22875977 460.20874023 C110.00380859 460.1982666 110.77885742 460.18779297 111.57739258 460.17700195 C114.10406068 460.437975 115.63853243 461.03959509 117.77563477 462.40405273 C119.82545752 465.47878686 120.03058889 466.1513357 120.06616211 469.62841797 C120.08530167 470.90005043 120.08530167 470.90005043 120.10482788 472.19737244 C120.10816635 473.56618309 120.10816635 473.56618309 120.11157227 474.96264648 C120.11822906 475.90334488 120.12488586 476.84404327 120.13174438 477.81324768 C120.14186999 479.80288741 120.14656143 481.79256109 120.14624023 483.78222656 C120.15061337 486.82665925 120.18693366 489.86964224 120.22485352 492.91381836 C120.23072168 494.84675611 120.23469107 496.77970074 120.23657227 498.71264648 C120.2509433 499.62316269 120.26531433 500.53367889 120.28012085 501.4717865 C120.27396759 502.32269363 120.26781433 503.17360077 120.26147461 504.05029297 C120.26432465 504.79625229 120.26717468 505.54221161 120.27011108 506.31077576 C119.5338879 509.4274448 118.32116472 510.46189863 115.77563477 512.40405273 C112.86492996 512.79596327 110.33346462 512.94161215 107.42346191 512.9074173 C106.56910459 512.91323106 105.71474726 512.91904482 104.83450031 512.92503476 C101.95196612 512.93971245 99.0702731 512.92571339 96.18774414 512.9119873 C94.10823885 512.91659314 92.02873682 512.92294392 89.94924164 512.93089628 C84.21952033 512.94765621 78.49006414 512.93931299 72.76034164 512.92695141 C66.58711667 512.91793044 60.41393845 512.93185593 54.24072266 512.94287109 C42.84124792 512.9596616 31.44188174 512.95816175 20.04240966 512.94722522 C9.51231348 512.93717208 -1.01775157 512.93453194 -11.54785156 512.9393158 C-12.24571488 512.93962134 -12.9435782 512.93992688 -13.66258889 512.94024168 C-16.49528013 512.94148698 -19.32797136 512.94276058 -22.16066256 512.94408073 C-48.74594464 512.95632306 -75.3311726 512.94521288 -101.91644633 512.92369314 C-125.54776078 512.90471001 -149.17898903 512.90640849 -172.81030273 512.92553711 C-199.34624302 512.94694499 -225.88213547 512.95545492 -252.41808319 512.94308805 C-255.24568175 512.94180514 -258.07328033 512.94055378 -260.90087891 512.9393158 C-261.59713105 512.93899949 -262.2933832 512.93868318 -263.0107339 512.93835728 C-273.53548935 512.93380298 -284.06021027 512.93913668 -294.58496094 512.94923401 C-306.54933833 512.96065511 -318.51361387 512.95745963 -330.47798729 512.93611103 C-336.58677325 512.92557145 -342.69538389 512.92152826 -348.8041687 512.93470764 C-354.39015158 512.94657717 -359.97579566 512.94015912 -365.56174755 512.91879743 C-367.58860023 512.91430821 -369.6154812 512.91664916 -371.64231586 512.92630059 C-374.38602174 512.93836913 -377.12854928 512.92608734 -379.87219238 512.9074173 C-381.06760037 512.92146429 -381.06760037 512.92146429 -382.28715801 512.93579507 C-385.85616971 512.88686294 -387.83679637 512.69992014 -390.71463013 510.50300169 C-392.42852728 508.12021108 -392.72949804 506.97159219 -392.74194336 504.06616211 C-392.754552 503.21848267 -392.76716064 502.37080322 -392.78015137 501.49743652 C-392.77205444 500.59005737 -392.76395752 499.68267822 -392.75561523 498.74780273 C-392.75944214 497.80851929 -392.76326904 496.86923584 -392.76721191 495.90148926 C-392.769931 493.91779507 -392.76257007 491.93406503 -392.74584961 489.95043945 C-392.72443985 486.91463258 -392.7456513 483.88119228 -392.77124023 480.84545898 C-392.76859696 478.91706835 -392.76347198 476.98867918 -392.75561523 475.06030273 C-392.76371216 474.15292358 -392.77180908 473.24554443 -392.78015137 472.31066895 C-392.68657526 466.01954428 -392.68657526 466.01954428 -390.31616211 462.86303711 C-387.24062659 460.7179157 -385.57785307 460.28169615 -381.87280273 460.30639648 C-381.02202148 460.30961914 -380.17124023 460.3128418 -379.29467773 460.31616211 C-378.40522461 460.32454102 -377.51577148 460.33291992 -376.59936523 460.34155273 C-375.70217773 460.34606445 -374.80499023 460.35057617 -373.88061523 460.35522461 C-371.66179875 460.36702682 -369.44311505 460.38349118 -367.22436523 460.40405273 C-367.2453125 459.58203369 -367.26625977 458.76001465 -367.2878418 457.91308594 C-367.37109832 454.1810331 -367.4230577 450.4491758 -367.47436523 446.71655273 C-367.50788086 445.42297852 -367.54139648 444.1294043 -367.57592773 442.79663086 C-367.58881836 441.54946289 -367.60170898 440.30229492 -367.61499023 439.01733398 C-367.6359375 437.87047119 -367.65688477 436.7236084 -367.6784668 435.54199219 C-367.12534253 431.71978454 -365.94030714 430.10252188 -363.22436523 427.40405273 C-360.22436523 426.40405273 -360.22436523 426.40405273 -350.22436523 426.40405273 C-350.22436523 373.27405273 -350.22436523 320.14405273 -350.22436523 265.40405273 C-362.43436523 265.40405273 -374.64436523 265.40405273 -387.22436523 265.40405273 C-392.22436523 260.40405273 -392.22436523 260.40405273 -392.83123779 256.74201965 C-392.45743075 251.30352771 -389.9583932 246.77809878 -387.5144043 241.99658203 C-386.76326355 240.48050102 -386.76326355 240.48050102 -385.99694824 238.93379211 C-384.343592 235.60722167 -382.66745299 232.29274283 -380.98999023 228.97827148 C-379.83261022 226.6657416 -378.67635577 224.35264808 -377.5211792 222.03901672 C-375.0998782 217.19815634 -372.66810978 212.36278386 -370.22729492 207.53173828 C-367.40787934 201.95103845 -364.60694298 196.36137216 -361.81603837 190.76636571 C-359.12594276 185.37416732 -356.42439754 179.98781261 -353.71733856 174.604105 C-352.56806004 172.31643506 -351.42142619 170.02743453 -350.27747345 167.73709679 C-348.67879743 164.54116931 -347.06726563 161.35207006 -345.4519043 158.16455078 C-344.980047 157.21542816 -344.5081897 156.26630554 -344.02203369 155.28842163 C-343.57899902 154.4207869 -343.13596436 153.55315216 -342.67950439 152.65922546 C-342.29972569 151.90544963 -341.91994698 151.15167379 -341.52865982 150.37505627 C-339.9368371 147.96955046 -338.77416117 146.78801242 -336.22436523 145.40405273 C-333.65115268 145.12702147 -331.32580058 145.02157512 -328.75608826 145.05915833 C-327.62329244 145.05765487 -327.62329244 145.05765487 -326.46761185 145.05612105 C-323.93503818 145.05620162 -321.40308495 145.07756444 -318.87060547 145.09863281 C-317.05537674 145.10271318 -315.24014432 145.10536359 -313.4249115 145.10668945 C-309.5136109 145.111909 -305.60247217 145.12588685 -301.69122124 145.14618874 C-295.500329 145.17686208 -289.30962375 145.17951481 -283.1186676 145.17668152 C-265.51306851 145.17236297 -247.90769671 145.19568375 -230.30224609 145.27001953 C-220.58031919 145.31082934 -210.85878532 145.32295799 -201.136787 145.30378264 C-194.98921483 145.29324547 -188.84310823 145.31768152 -182.69575012 145.36815512 C-178.85896992 145.39113826 -175.0228189 145.38044715 -171.18604469 145.36043549 C-169.41520126 145.35782055 -167.64427433 145.36874932 -165.87361908 145.39469719 C-155.87768416 145.53287719 -149.27496084 145.3053977 -141.57461643 138.12057018 C-138.57829982 135.9321957 -136.85788539 135.95592371 -133.22436523 136.40405273 C-130.71406555 138.10928345 -130.71406555 138.10928345 -128.20605469 140.32446289 C-121.76622706 145.24796318 -116.45391889 145.66027429 -108.51733398 145.67749023 C-107.23433914 145.69937408 -105.9513443 145.72125793 -104.62947083 145.74380493 C-101.92863574 145.78238757 -99.22986497 145.78961675 -96.52880859 145.77661133 C-93.78611943 145.76701041 -91.05221676 145.80861511 -88.31103516 145.8996582 C-70.45840115 147.00504479 -70.45840115 147.00504479 -55.1599884 139.29702759 C-52.56092904 136.47466444 -50.3475058 133.60184381 -48.22436523 130.40405273 C-49.07667725 130.3842334 -49.92898926 130.36441406 -50.80712891 130.34399414 C-53.98494848 130.2656577 -57.16240105 130.17895608 -60.33984375 130.08666992 C-61.71215105 130.04850985 -63.08455394 130.01363478 -64.45703125 129.98217773 C-66.43568813 129.93624591 -68.41402966 129.87731636 -70.39233398 129.81811523 C-71.58109131 129.78669434 -72.76984863 129.75527344 -73.99462891 129.72290039 C-77.89610074 129.33773732 -80.77084149 128.58104355 -83.84039307 126.09547424 C-85.57226385 123.97886846 -85.60876734 122.88984392 -85.62841797 120.1796875 C-85.64744423 118.90805504 -85.64744423 118.90805504 -85.66685486 117.61073303 C-85.6624514 116.24192238 -85.6624514 116.24192238 -85.65795898 114.84545898 C-85.66320084 113.90476059 -85.66844269 112.96406219 -85.67384338 111.99485779 C-85.6802673 110.0052082 -85.67892182 108.01552066 -85.67041016 106.02587891 C-85.6619065 102.98132647 -85.69064609 99.93865379 -85.72241211 96.89428711 C-85.72402435 94.96134496 -85.72344614 93.02839949 -85.72045898 91.09545898 C-85.73169296 90.18494278 -85.74292694 89.27442657 -85.75450134 88.33631897 C-85.68508264 82.03963653 -85.68508264 82.03963653 -83.38085938 78.86083984 C-79.45188654 76.20668147 -76.00091562 76.22445718 -71.36889648 76.08764648 C-70.70725998 76.06686539 -70.04562347 76.04608429 -69.36393738 76.02467346 C-67.25501672 75.95940546 -65.14597389 75.90039929 -63.03686523 75.84155273 C-61.60521209 75.79834584 -60.1735712 75.75473085 -58.74194336 75.71069336 C-55.23621369 75.60374768 -51.73034738 75.50241633 -48.22436523 75.40405273 C-49.11744385 74.52668457 -49.11744385 74.52668457 -50.02856445 73.6315918 C-52.24290636 71.45140982 -54.45265391 69.26670136 -56.65942383 67.07885742 C-58.08253532 65.67070573 -59.51084444 64.26781319 -60.93920898 62.86499023 C-61.83510742 61.97553711 -62.73100586 61.08608398 -63.65405273 60.16967773 C-64.48146973 59.35273437 -65.30888672 58.53579102 -66.16137695 57.6940918 C-68.80764178 54.75658126 -69.99910237 52.50533785 -70.78686523 48.65405273 C-69.29517989 40.03542629 -58.36095751 32.39101108 -52.41186523 26.46655273 C-51.4488061 25.49992371 -50.48591442 24.53312783 -49.52319336 23.56616211 C-48.61375977 22.65801758 -47.70432617 21.74987305 -46.76733398 20.81420898 C-45.94257568 19.99057861 -45.11781738 19.16694824 -44.26806641 18.31835938 C-41.7025312 15.91525801 -40.60313839 15.46465644 -37.09936523 14.90405273 C-31.41966341 15.63691749 -29.17141458 18.42045664 -25.22436523 22.40405273 C-23.94378284 23.672956 -22.66246611 24.9411184 -21.38061523 26.20874023 C-17.64083406 29.91982856 -13.92623998 33.65518153 -10.22436523 37.40405273 C-10.2045459 36.55174072 -10.18472656 35.69942871 -10.16430664 34.82128906 C-10.0859702 31.64346949 -9.99926858 28.46601692 -9.90698242 25.28857422 C-9.86882235 23.91626692 -9.83394728 22.54386403 -9.80249023 21.17138672 C-9.75655841 19.19272984 -9.69762886 17.21438831 -9.63842773 15.23608398 C-9.60700684 14.04732666 -9.57558594 12.85856934 -9.54321289 11.63378906 C-9.15804982 7.73231723 -8.40135605 4.85757648 -5.91578674 1.7880249 C-3.79918096 0.05615412 -2.71015642 0.01965063 0 0 Z " fill="#010101" transform="translate(392.224365234375,-0.404052734375)"/>
<path d="M0 0 C5.51996219 0.10434711 8.9852254 3.96448686 12.9375 7.375 C14.46503508 8.6640778 15.99369571 9.95182292 17.5234375 11.23828125 C18.28108398 11.87846191 19.03873047 12.51864258 19.81933594 13.17822266 C22.84802742 15.70846178 25.9448111 18.14340854 29.0625 20.5625 C34.09284671 24.48054015 39.06039676 28.4681774 44 32.5 C50.03086611 37.41827779 56.10723199 42.27152599 62.23046875 47.07421875 C62.77818341 47.52159204 63.32589808 47.96896534 63.89021015 48.4298954 C66.11316122 50.14230839 66.11316122 50.14230839 69.15998363 51.86531639 C74.32589756 55.06406732 78.29044987 57.76979726 80.184412 63.72275162 C80.76332654 68.24188086 80.61102884 72.74824729 80.47583008 77.29150391 C80.47215783 79.0269442 80.47423182 80.76240465 80.48158264 82.49783325 C80.48529679 87.18483544 80.40915379 91.86746889 80.31812119 96.55345964 C80.23657324 101.45926987 80.22919618 106.36519251 80.21379089 111.27157593 C80.17346532 120.55118736 80.06690163 129.8287958 79.93624753 139.10752714 C79.79068487 149.67559326 79.71940103 160.24375764 79.65420687 170.81257749 C79.51850482 192.54308295 79.28021147 214.27084435 79 236 C67.78 236 56.56 236 45 236 C44.9906543 232.33044189 44.98130859 228.66088379 44.97167969 224.88012695 C44.9379372 212.76616984 44.88260501 200.65240215 44.81609726 188.53858662 C44.77629572 181.19279427 44.74390897 173.84710923 44.72900391 166.5012207 C44.71599307 160.09817851 44.68904326 153.6953723 44.64538693 147.292463 C44.6227589 143.9024233 44.60709009 140.5126748 44.60811615 137.12255287 C44.60575755 133.33695501 44.57876462 129.55228432 44.54589844 125.7668457 C44.5509288 124.64403198 44.55595917 123.52121826 44.56114197 122.36437988 C44.50160164 117.94191081 44.39744529 114.80692585 42.42633057 110.80500793 C39.19959438 108.40455826 36.50909633 108.29616794 32.6328125 108.35302734 C31.8973822 108.34426575 31.1619519 108.33550415 30.40423584 108.32647705 C27.97722079 108.30449952 25.55203302 108.31902795 23.125 108.3359375 C21.43635712 108.33256884 19.74771661 108.32771581 18.05908203 108.32144165 C14.52157486 108.31407262 10.98469932 108.3247762 7.44726562 108.34814453 C2.91392747 108.37663306 -1.61793075 108.36022914 -6.1512146 108.33028221 C-9.63772726 108.31220962 -13.12388934 108.31796692 -16.6104126 108.33092117 C-18.28176041 108.33425533 -19.95314011 108.33016771 -21.62445068 108.31852341 C-23.96142806 108.30581433 -26.29601326 108.32518773 -28.6328125 108.35302734 C-29.32280334 108.34290619 -30.01279419 108.33278503 -30.72369385 108.32235718 C-33.98883282 108.39437852 -35.7926583 108.84575333 -38.42633057 110.80500793 C-40.84341423 115.71236838 -40.57009788 120.36535564 -40.54589844 125.7668457 C-40.55623611 126.95751144 -40.56657379 128.14817719 -40.57722473 129.37492371 C-40.60163081 132.63087564 -40.60849032 135.88629369 -40.60750484 139.14231896 C-40.61063734 142.54834997 -40.63626246 145.9542106 -40.65948486 149.3601532 C-40.70002288 155.80569049 -40.72038031 162.25112667 -40.73345876 168.6967718 C-40.74933633 176.03662105 -40.78775506 183.37629841 -40.82805204 190.71604788 C-40.9104209 205.81066603 -40.96155625 220.90519411 -41 236 C-52.22 236 -63.44 236 -75 236 C-75.31636295 213.24237923 -75.57410793 190.48654581 -75.72537041 167.72728252 C-75.79747959 157.15910156 -75.89573498 146.59238638 -76.05615234 136.02514648 C-76.19595159 126.81167869 -76.28607374 117.59927251 -76.31723893 108.38477355 C-76.33545114 103.5076826 -76.37805546 98.63362782 -76.48022079 93.75751305 C-76.57574491 89.16083281 -76.60447286 84.5684171 -76.58350754 79.97083855 C-76.58733824 78.29010006 -76.61491779 76.60920921 -76.66887665 74.92933273 C-77.04544443 62.59371738 -77.04544443 62.59371738 -73.62021875 58.25037408 C-70.2915063 55.01099867 -66.58680678 52.46337314 -62.64075685 50.03634322 C-60.49157321 48.67886487 -58.56290945 47.10982558 -56.625 45.46875 C-55.71814453 44.7272168 -55.71814453 44.7272168 -54.79296875 43.97070312 C-54.20128906 43.48537109 -53.60960937 43.00003906 -53 42.5 C-47.47772885 37.9910388 -41.90812794 33.55155196 -36.2890625 29.1640625 C-31.13587385 25.13011844 -26.06330178 21.00074581 -20.99389648 16.86230469 C-15.79445816 12.62548998 -10.54059908 8.46269217 -5.25195312 4.33789062 C-2.53469728 2.27475845 -2.53469728 2.27475845 0 0 Z " fill="#56A2FD" transform="translate(254,191)"/>
<path d="M0 0 C20.79 0 41.58 0 63 0 C63 53.46 63 106.92 63 162 C29.34 162 -4.32 162 -39 162 C-39 108.87 -39 55.74 -39 1 C-35.24647811 3.25211313 -31.54881125 5.5503741 -27.8671875 7.9140625 C-23.42273577 10.498911 -18.99095611 10.68128082 -14 10 C-7.57852536 7.73746288 -4.32666429 5.40833036 0 0 Z " fill="#BBD9FD" transform="translate(389,265)"/>
<path d="M0 0 C20.79 0 41.58 0 63 0 C64.65 1.98 66.3 3.96 68 6 C72.62804046 9.58361725 77.62542387 10.69769038 83.41015625 10.45703125 C90.16192724 9.26554225 95.90133959 5.44076875 101 1 C101.33 1 101.66 1 102 1 C102 54.13 102 107.26 102 162 C68.34 162 34.68 162 0 162 C0 108.54 0 55.08 0 0 Z " fill="#BCDAFE" transform="translate(60,265)"/>
<path d="M0 0 C5.61 0 11.22 0 17 0 C17.01417969 2.17980469 17.02835937 4.35960937 17.04296875 6.60546875 C17.07362279 8.72712465 17.11270208 10.84847063 17.15258789 12.9699707 C17.17571993 14.43925947 17.1901524 15.90871292 17.19555664 17.37817383 C17.20488279 19.49664345 17.24594127 21.61254065 17.29296875 23.73046875 C17.3086792 25.00301514 17.32438965 26.27556152 17.34057617 27.58666992 C18.16271886 31.8422704 19.69086425 33.29365285 23 36 C27.74461105 38.7012549 33.46187371 40.95326116 39 40.640625 C46.46112385 38.25073377 52.1163601 29.79133213 57 24 C59.1875 21.4375 59.1875 21.4375 61 20 C65.27376473 20.22444279 67.42468396 23.12565833 70.25 26.0625 C71.14203125 26.98160156 72.0340625 27.90070312 72.953125 28.84765625 C73.96632813 29.91306641 73.96632813 29.91306641 75 31 C71.8737962 34.78358311 68.7276575 38.33965572 65.1328125 41.68359375 C64.47539062 42.30169922 63.81796875 42.91980469 63.140625 43.55664062 C61.78622497 44.82048484 60.41869847 46.07039379 59.0390625 47.30664062 C54.71277757 51.42098419 54.71277757 51.42098419 53.37890625 57.04296875 C53.76439038 60.98842762 55.08792248 64.3083555 56.8125 67.875 C57.33457031 68.98617187 57.85664063 70.09734375 58.39453125 71.2421875 C59.85980666 74.22431668 59.85980666 74.22431668 63 76 C66.29770342 76.37032217 66.29770342 76.37032217 70.07421875 76.4140625 C70.7580513 76.43342865 71.44188385 76.4527948 72.1464386 76.4727478 C74.32666625 76.53243997 76.50694702 76.57888631 78.6875 76.625 C80.1673405 76.66318943 81.647159 76.70224174 83.12695312 76.7421875 C86.75118641 76.83975519 90.37519062 76.91940155 94 77 C94 82.61 94 88.22 94 94 C91.82019531 94.01417969 89.64039063 94.02835937 87.39453125 94.04296875 C85.27287535 94.07362279 83.15152937 94.11270208 81.0300293 94.15258789 C79.56074053 94.17571993 78.09128708 94.1901524 76.62182617 94.19555664 C74.50335655 94.20488279 72.38745935 94.24594127 70.26953125 94.29296875 C68.36071167 94.31653442 68.36071167 94.31653442 66.41333008 94.34057617 C62.1577296 95.16271886 60.70634715 96.69086425 58 100 C56.59033168 102.34328737 56.59033168 102.34328737 55.6875 104.8125 C55.36136719 105.60269531 55.03523437 106.39289063 54.69921875 107.20703125 C53.25345599 112.61078332 53.25345599 112.61078332 54 118 C57.09729223 122.09029384 60.76084806 125.51418785 64.5 129 C65.5135367 129.97337098 66.52527711 130.94861605 67.53515625 131.92578125 C70.00639657 134.30287909 72.49431317 136.65932801 75 139 C74.06122074 140.1065941 73.12079084 141.21178799 72.1796875 142.31640625 C71.65616699 142.93201416 71.13264648 143.54762207 70.59326172 144.18188477 C68.4984209 146.57236585 66.28027529 148.78679163 64 151 C60.77594239 149.58593181 58.66442424 147.89002371 56.21484375 145.375 C55.51939453 144.66859375 54.82394531 143.9621875 54.10742188 143.234375 C53.39134766 142.49703125 52.67527344 141.7596875 51.9375 141 C50.51140161 139.53943012 49.08310516 138.08100233 47.65234375 136.625 C47.02320068 135.97789062 46.39405762 135.33078125 45.74584961 134.6640625 C43.01722964 132.06326909 41.34024185 131.04330351 37.5625 130.5625 C31.37878451 130.71192063 23.76974871 133.21037271 19.3671875 137.64453125 C17.48576914 140.88594631 17.56480751 143.43739328 17.48828125 147.171875 C17.46135445 148.1955014 17.46135445 148.1955014 17.43388367 149.23980713 C17.37989617 151.4098094 17.34592417 153.57959325 17.3125 155.75 C17.27931648 157.22529074 17.24482585 158.70055269 17.20898438 160.17578125 C17.12172431 163.7838835 17.06156525 167.39100249 17 171 C11.39 171 5.78 171 0 171 C-0.01417969 168.73640625 -0.02835937 166.4728125 -0.04296875 164.140625 C-0.07360295 161.94288316 -0.1126875 159.74544239 -0.15258789 157.54785156 C-0.17575217 156.02322067 -0.19016 154.49843012 -0.19555664 152.97363281 C-0.20485895 150.77828678 -0.24586696 148.58544588 -0.29296875 146.390625 C-0.3086792 145.07094727 -0.32438965 143.75126953 -0.34057617 142.39160156 C-0.69926787 138.85352098 -0.69926787 138.85352098 -3.39453125 136.6171875 C-5.83695954 135.10119753 -8.15166417 133.83324819 -10.8125 132.75 C-11.60269531 132.41484375 -12.39289063 132.0796875 -13.20703125 131.734375 C-18.60630119 130.24351028 -18.60630119 130.24351028 -24 131 C-28.09013951 134.09755816 -31.51416299 137.76082139 -35 141.5 C-35.97337098 142.5135367 -36.94861605 143.52527711 -37.92578125 144.53515625 C-40.30287909 147.00639657 -42.65932801 149.49431317 -45 152 C-46.10433586 151.05488516 -47.20846118 150.10952431 -48.3125 149.1640625 C-48.92738281 148.6376416 -49.54226563 148.1112207 -50.17578125 147.56884766 C-52.61670109 145.46963046 -54.9218998 143.46774399 -57 141 C-56.77160838 137.06164972 -54.54466776 135.29714455 -51.74609375 132.734375 C-50.89208984 131.92613281 -50.03808594 131.11789063 -49.15820312 130.28515625 C-47.35007383 128.600338 -45.5323658 126.92573912 -43.70507812 125.26171875 C-38.26452053 120.43243588 -38.26452053 120.43243588 -36.26953125 113.78515625 C-36.96652994 110.17343576 -37.79648765 107.06297598 -39.25 103.6875 C-39.66765625 102.68074219 -40.0853125 101.67398438 -40.515625 100.63671875 C-42.15397475 97.72649222 -43.12967747 96.66602468 -46 95 C-49.38526241 94.49513031 -49.38526241 94.49513031 -53.171875 94.48828125 C-53.8542926 94.47033005 -54.53671021 94.45237885 -55.23980713 94.43388367 C-57.4098094 94.37989617 -59.57959325 94.34592417 -61.75 94.3125 C-63.22529074 94.27931648 -64.70055269 94.24482585 -66.17578125 94.20898438 C-69.7838835 94.12172431 -73.39100249 94.06156525 -77 94 C-77 88.39 -77 82.78 -77 77 C-74.89238281 76.96261719 -72.78476562 76.92523438 -70.61328125 76.88671875 C-68.56117665 76.84044295 -66.5092501 76.78923169 -64.45727539 76.73754883 C-63.03648798 76.70439443 -61.61557187 76.67633308 -60.19458008 76.65356445 C-58.1460918 76.61984153 -56.0987728 76.56752255 -54.05078125 76.51171875 C-52.82012939 76.48553467 -51.58947754 76.45935059 -50.3215332 76.43237305 C-46.75611315 75.96825258 -44.84905829 75.15548664 -42 73 C-38.37929805 66.96549675 -35.42608975 59.97017397 -37 53 C-39.62290885 49.27534423 -42.75072844 46.17964431 -46 43 C-47.01736928 41.97438356 -48.03295153 40.94699184 -49.046875 39.91796875 C-51.67723526 37.25719481 -54.33205532 34.62306337 -57 32 C-55.46356148 28.31930113 -53.21849055 26.01224796 -50.375 23.25 C-49.55773437 22.45078125 -48.74046875 21.6515625 -47.8984375 20.828125 C-47.27195312 20.22484375 -46.64546875 19.6215625 -46 19 C-42.21641689 22.1262038 -38.66034428 25.2723425 -35.31640625 28.8671875 C-34.69830078 29.52460937 -34.08019531 30.18203125 -33.44335938 30.859375 C-32.17951516 32.21377503 -30.92960621 33.58130153 -29.69335938 34.9609375 C-25.57901581 39.28722243 -25.57901581 39.28722243 -19.95703125 40.62109375 C-16.01157238 40.23560962 -12.6916445 38.91207752 -9.125 37.1875 C-8.01382813 36.66542969 -6.90265625 36.14335938 -5.7578125 35.60546875 C-2.77568332 34.14019334 -2.77568332 34.14019334 -1 31 C-0.62967783 27.70229658 -0.62967783 27.70229658 -0.5859375 23.92578125 C-0.56657135 23.2419487 -0.5472052 22.55811615 -0.5272522 21.8535614 C-0.46756003 19.67333375 -0.42111369 17.49305298 -0.375 15.3125 C-0.33681057 13.8326595 -0.29775826 12.352841 -0.2578125 10.87304688 C-0.16024481 7.24881359 -0.08059845 3.62480938 0 0 Z " fill="#FBCA00" transform="translate(401,17)"/>
<path d="M0 0 C157.74 0 315.48 0 478 0 C478 5.61 478 11.22 478 17 C320.26 17 162.52 17 0 17 C0 11.39 0 5.78 0 0 Z " fill="#4E901E" transform="translate(17,478)"/>
<path d="M0 0 C140.58 0 281.16 0 426 0 C426 5.61 426 11.22 426 17 C285.42 17 144.84 17 0 17 C0 11.39 0 5.78 0 0 Z " fill="#7BD13D" transform="translate(43,444)"/>
<path d="M0 0 C51.15 0 102.3 0 155 0 C150.50092999 5.62383751 150.50092999 5.62383751 147.58203125 7.859375 C146.96779297 8.33503906 146.35355469 8.81070313 145.72070312 9.30078125 C145.09099609 9.77902344 144.46128906 10.25726563 143.8125 10.75 C139.7644158 13.71451251 139.7644158 13.71451251 136 17 C133.64856663 17.10365556 131.32555513 17.14362035 128.97338867 17.1418457 C127.87090034 17.14705734 127.87090034 17.14705734 126.74613953 17.15237427 C125.14464772 17.15974418 123.54314561 17.16508295 121.94164085 17.16866493 C119.40740476 17.17581104 116.8733645 17.19146379 114.33918762 17.21000671 C107.13199569 17.26256121 99.92490867 17.31045607 92.7175293 17.32592773 C88.31359339 17.336003 83.91014599 17.36531813 79.50640297 17.40724754 C77.82672125 17.41957198 76.14697056 17.42467616 74.4672451 17.42244911 C72.11589753 17.42009907 69.76595303 17.44223833 67.41479492 17.4699707 C66.72009094 17.46336929 66.02538696 17.45676788 65.30963135 17.44996643 C61.93756315 17.51529644 60.25627693 17.79919339 57.56758118 19.90592957 C54.9412448 23.41434969 55.52296417 25.70667752 56 30 C57.12225557 31.81962023 57.12225557 31.81962023 59 33 C61.47829577 33.47249505 61.47829577 33.47249505 64.29760742 33.43237305 C65.37850143 33.45216721 66.45939545 33.47196136 67.57304382 33.49235535 C69.32159416 33.50194023 69.32159416 33.50194023 71.10546875 33.51171875 C72.29981033 33.52966995 73.49415192 33.54762115 74.72468567 33.56611633 C78.54558768 33.62037033 82.36636371 33.65416429 86.1875 33.6875 C88.77540822 33.72065965 91.36329977 33.75514802 93.95117188 33.79101562 C100.30066828 33.87610557 106.65018069 33.94439153 113 34 C110.18853089 36.85414509 107.38136256 39.62073525 104.28515625 42.1640625 C103.60638428 42.72295166 102.9276123 43.28184082 102.22827148 43.85766602 C101.51356689 44.44088623 100.7988623 45.02410645 100.0625 45.625 C99.31105713 46.24109131 98.55961426 46.85718262 97.78540039 47.49194336 C93.2083264 51.23268618 88.59452824 54.92195643 83.9375 58.5625 C82.81249669 59.44530828 81.68749673 60.32812083 80.5625 61.2109375 C78.6869528 62.68230852 76.80789266 64.14850403 74.921875 65.60644531 C72.750922 67.2883482 70.59359808 68.98661376 68.4375 70.6875 C67.77032959 71.19804932 67.10315918 71.70859863 66.41577148 72.23461914 C65.78227783 72.73856201 65.14878418 73.24250488 64.49609375 73.76171875 C63.66356079 74.410802 63.66356079 74.410802 62.81420898 75.07299805 C60.95164543 76.86157607 60.95164543 76.86157607 60.06530571 78.90625477 C57.23603314 84.55301575 57.23603314 84.55301575 53.98023701 85.73040295 C51.43428796 85.98658641 48.99404137 85.99009005 46.4362793 85.90820312 C45.47969925 85.90937134 44.5231192 85.91053955 43.53755188 85.91174316 C40.38162059 85.90617765 37.22948799 85.84399773 34.07421875 85.78125 C31.88420171 85.76632603 29.69415793 85.75493975 27.50410461 85.74694824 C21.74451741 85.716427 15.98654857 85.63786192 10.2276001 85.54931641 C4.34922175 85.46742593 -1.52941858 85.43092979 -7.40820312 85.390625 C-18.9395125 85.30486946 -30.46962159 85.16836083 -42 85 C-40.69721449 80.73748817 -39.0542834 77.00980954 -36.875 73.125 C-36.06675781 71.67480469 -36.06675781 71.67480469 -35.2421875 70.1953125 C-34.62730469 69.10863281 -34.62730469 69.10863281 -34 68 C-32.85629944 67.99635437 -31.71259888 67.99270874 -30.53424072 67.98895264 C-19.76309793 67.95203325 -8.99224185 67.89429408 1.77868271 67.81609726 C7.3163345 67.77656509 12.85382591 67.74440475 18.39160156 67.72900391 C23.73452874 67.71387518 29.07701515 67.67949693 34.4197464 67.63169098 C36.45947695 67.61683809 38.49927042 67.60895676 40.53905487 67.60811615 C43.39337827 67.6057565 46.24647359 67.57875786 49.10058594 67.54589844 C49.94647278 67.5509288 50.79235962 67.55595917 51.66387939 67.56114197 C55.46867839 67.49324126 57.38988464 67.44551541 60.52886963 65.15338135 C62.53051712 62.22345042 62.50755494 60.48037671 62 57 C60.22015595 53.8640843 59.47691793 53.15897264 56 52 C53.40005141 51.88027381 50.82483265 51.81472759 48.22387695 51.79467773 C47.43339966 51.78477814 46.64292236 51.77487854 45.82849121 51.76467896 C43.21511838 51.73308607 40.60172737 51.70831526 37.98828125 51.68359375 C36.17652412 51.66302231 34.36477177 51.64202579 32.55302429 51.62062073 C27.78388336 51.56541965 23.01469926 51.51600169 18.2454834 51.46777344 C13.37911129 51.4175441 8.5128019 51.36186551 3.64648438 51.30664062 C-5.90229018 51.19908306 -15.45111918 51.09763272 -25 51 C-23.63288745 46.75421272 -22.05969256 43.01945196 -19.875 39.125 C-19.33617188 38.15820312 -18.79734375 37.19140625 -18.2421875 36.1953125 C-17.83226563 35.47085938 -17.42234375 34.74640625 -17 34 C-16.39500671 33.99635437 -15.79001343 33.99270874 -15.16668701 33.98895264 C-8.87228928 33.94715638 -2.57862269 33.87783118 3.71533203 33.79248047 C6.06454152 33.76424712 8.41384641 33.74304442 10.76318359 33.72900391 C14.13949518 33.70760776 17.51465667 33.66097263 20.890625 33.609375 C21.94179504 33.60814636 22.99296509 33.60691772 24.07598877 33.60565186 C29.71344505 33.56913009 29.71344505 33.56913009 34.66699219 31.18457031 C36.61867411 27.98609964 36.4663846 25.66445044 36 22 C34.45737187 19.89641619 33.31891683 19.15945841 31 18 C28.0851463 17.84279903 25.19060364 17.74144346 22.2734375 17.68359375 C21.41062164 17.66281265 20.54780579 17.64203156 19.65884399 17.62062073 C16.89764507 17.55513966 14.13634962 17.49624702 11.375 17.4375 C9.50519828 17.3943134 7.63540638 17.35069907 5.765625 17.30664062 C1.17718272 17.19945976 -3.41135683 17.09818825 -8 17 C-6.25684402 10.55032286 -3.41092156 6.25335619 0 0 Z " fill="#E81B23" transform="translate(65,162)"/>
<path d="M0 0 C17.16 0 34.32 0 52 0 C52 36.63 52 73.26 52 111 C34.84 111 17.68 111 0 111 C0 74.37 0 37.74 0 0 Z " fill="#F9C800" transform="translate(230,316)"/>
<path d="M0 0 C27.42717683 -4.3246808 27.42717683 -4.3246808 36.98583984 2.55175781 C42.10619297 6.78545284 46.47693986 11.66166948 50.72412109 16.75146484 C51.22659866 17.34833099 51.72907623 17.94519714 52.2467804 18.56015015 C53.18339292 19.69627326 54.09411866 20.85444219 54.97233582 22.0362854 C56.74238905 24.25796114 58.1872212 25.84679479 61.03938293 26.38441467 C63.94602222 26.42974553 66.37977873 26.31071514 69.00390625 24.99609375 C69.51824219 24.48175781 70.03257812 23.96742188 70.5625 23.4375 C71.20574219 22.81617188 71.84898437 22.19484375 72.51171875 21.5546875 C73.74341797 20.29011719 73.74341797 20.29011719 75 19 C76.93405541 17.04423742 78.8719599 15.09239417 80.81225586 13.14282227 C82.18098492 11.76242928 83.54258174 10.37492548 84.89672852 8.98022461 C85.84116821 8.01741577 85.84116821 8.01741577 86.8046875 7.03515625 C87.37171387 6.4512915 87.93874023 5.86742676 88.52294922 5.26586914 C90 4 90 4 92 4 C92.00410889 4.97348389 92.00821777 5.94696777 92.01245117 6.94995117 C92.03428785 10.57532079 92.08862216 14.19961202 92.15258789 17.82446289 C92.17572882 19.39076369 92.19015448 20.95721922 92.19555664 22.52368164 C92.20487588 24.78108703 92.24592233 27.03607221 92.29296875 29.29296875 C92.2890361 29.98899704 92.28510345 30.68502533 92.28105164 31.40214539 C92.38794845 34.99550591 92.96502059 36.94835638 94.99145508 39.94018555 C99.04618608 42.71627623 102.03339674 42.72405164 106.84375 42.6640625 C107.69046265 42.66884613 108.53717529 42.67362976 109.4095459 42.67855835 C111.1947618 42.68195175 112.98004032 42.67278841 114.76513672 42.65185547 C117.49197423 42.62507881 120.2146962 42.65161898 122.94140625 42.68359375 C124.67969655 42.68028955 126.4179843 42.67388309 128.15625 42.6640625 C128.96783569 42.67418365 129.77942139 42.68430481 130.61560059 42.69473267 C134.67768744 42.61096671 136.57389975 42.29173154 140.00854492 39.94018555 C142.44637486 36.34097187 142.73082621 33.50437178 142.70703125 29.29296875 C142.72971321 28.20487663 142.72971321 28.20487663 142.75285339 27.09480286 C142.79562827 24.79204987 142.80455741 22.49061016 142.8125 20.1875 C142.83565261 18.62040804 142.86101956 17.05334714 142.88867188 15.48632812 C142.95142194 11.65743655 142.98383701 7.82936016 143 4 C146.38441658 5.46362131 148.57301275 7.33918066 151.15234375 9.95703125 C151.92900391 10.74013672 152.70566406 11.52324219 153.50585938 12.33007812 C154.30830078 13.14927734 155.11074219 13.96847656 155.9375 14.8125 C156.73607422 15.62009766 157.53464844 16.42769531 158.35742188 17.25976562 C159.90512438 18.82541994 161.44786488 20.39599812 162.98510742 21.97192383 C164.51662378 23.51346101 166.1123103 24.99154518 167.734375 26.4375 C171.11144286 30.25708021 173.11035753 34.61683096 175.3125 39.1875 C175.76689453 40.10208984 176.22128906 41.01667969 176.68945312 41.95898438 C180 48.70453477 180 48.70453477 180 51 C179.35973877 51.0093457 178.71947754 51.01869141 178.05981445 51.02832031 C175.14327625 51.08218847 172.22831375 51.16580199 169.3125 51.25 C168.30509766 51.26417969 167.29769531 51.27835938 166.25976562 51.29296875 C161.76275511 51.44138494 158.77477532 51.55400387 154.82421875 53.828125 C152.6878676 55.98323996 152.6878676 55.98323996 152.5 59.5 C153.03203522 63.22424656 153.29952948 64.46518374 156 67 C158.63454348 67.42677963 160.87230436 67.60478396 163.51171875 67.609375 C164.23994339 67.62591125 164.96816803 67.64244751 165.71846008 67.65948486 C168.04155865 67.70802197 170.3640025 67.72934669 172.6875 67.75 C174.26370492 67.77815518 175.83987926 67.80808199 177.41601562 67.83984375 C181.27728983 67.91378144 185.13819939 67.96332032 189 68 C190.33838733 70.45570175 191.67086232 72.91429916 193 75.375 C193.57234375 76.42300781 193.57234375 76.42300781 194.15625 77.4921875 C197 82.7734375 197 82.7734375 197 85 C184.30899215 85.18530776 171.61830573 85.32748079 158.92622089 85.41449738 C153.03276624 85.45626028 147.14023664 85.51291022 141.24731445 85.60351562 C135.5608581 85.69040002 129.87529172 85.73826582 124.18822289 85.75901794 C122.01795625 85.77380732 119.84773872 85.80268865 117.67785072 85.84584045 C114.63873472 85.90387799 111.60330113 85.91191518 108.5637207 85.90820312 C107.66532471 85.93696533 106.76692871 85.96572754 105.84130859 85.99536133 C103.31752515 85.9619805 101.37585099 85.85879378 99 85 C97.25103089 83.08897045 96.1412145 81.2565284 94.9974699 78.93703461 C93.60217194 76.22743863 91.66344522 74.84132687 89.1875 73.125 C87.76165116 72.1248124 86.35597273 71.09304991 85 70 C85 69.34 85 68.68 85 68 C85.83232147 67.99786247 85.83232147 67.99786247 86.68145752 67.99568176 C92.45692373 67.97599486 98.23133158 67.921744 104.00634766 67.84741211 C106.16154385 67.82421528 108.31685368 67.80983246 110.47216797 67.80444336 C113.57070873 67.79516629 116.66745807 67.75420213 119.765625 67.70703125 C121.21113739 67.71293022 121.21113739 67.71293022 122.68585205 67.71894836 C128.18244998 67.65235155 128.18244998 67.65235155 132.64355469 64.65112305 C134.24720693 62.03247205 134.24720693 62.03247205 133.9375 58.875 C132.99835204 55.99494626 132.37365928 54.80398105 130 53 C127.23248408 51.61624204 125.06403902 51.93554792 121.96826172 52.00097656 C120.69868622 52.02299133 119.42911072 52.0450061 118.12106323 52.06768799 C117.09819025 52.08686153 117.09819025 52.08686153 116.05465317 52.10642242 C111.65306386 52.1772686 107.25080513 52.18326924 102.84873772 52.20027542 C98.99628778 52.21879939 95.14683378 52.25999729 91.29541016 52.35302734 C61.63579245 53.03712012 61.63579245 53.03712012 52.3203125 44.765625 C50.64513623 43.11002616 49.06388537 41.41878077 47.51837158 39.64196777 C44.97472379 36.89126581 41.99326754 34.73432885 39 32.5 C37.8521157 31.6067962 36.70603562 30.71126452 35.5625 29.8125 C34.985 29.35875 34.4075 28.905 33.8125 28.4375 C29.83873416 25.28589261 25.9180229 22.06827401 21.99169922 18.85791016 C18.66990582 16.14774856 15.33190485 13.46485156 11.9453125 10.8359375 C11.30207031 10.33642578 10.65882813 9.83691406 9.99609375 9.32226562 C8.78047716 8.38200268 7.56188064 7.44557528 6.33984375 6.51367188 C3.69155637 4.46612427 1.87739991 2.81609987 0 0 Z " fill="#E91B23" transform="translate(292,162)"/>
<path d="M0 0 C1.2684375 -0.00478363 2.536875 -0.00956726 3.84375 -0.01449585 C6.52430824 -0.01789684 9.20258142 -0.01121028 11.8828125 0.01220703 C15.30975855 0.04069708 18.73474681 0.02428549 22.16162109 -0.00565529 C25.44114993 -0.02811794 28.72044556 -0.01236811 32 0 C33.2271875 -0.01012115 34.454375 -0.02024231 35.71875 -0.03067017 C40.52621966 0.03552221 43.99519513 0.13048679 48.27758789 2.40454102 C51.03193097 7.61690592 50.65239655 12.67695568 50.55859375 18.48046875 C50.55509666 20.35338844 50.55509666 20.35338844 50.55152893 22.2641449 C50.54179103 24.90181885 50.52274987 27.53732034 50.48706055 30.17456055 C50.44174189 33.54952745 50.42703128 36.92372331 50.42332363 40.29896641 C50.41782334 43.52622129 50.39444665 46.7533006 50.37109375 49.98046875 C50.3630497 51.79618126 50.3630497 51.79618126 50.35484314 53.64857483 C50.33885574 54.77331711 50.32286835 55.89805939 50.30639648 57.05688477 C50.29043678 58.53983788 50.29043678 58.53983788 50.27415466 60.05274963 C49.98507946 62.80618005 49.57472043 64.39374375 48 66.6640625 C44.87655045 68.83052473 42.13148335 68.93022311 38.39282227 68.97045898 C36.70570885 68.99444008 36.70570885 68.99444008 34.98451233 69.01890564 C33.77403732 69.02426834 32.56356232 69.02963104 31.31640625 69.03515625 C30.06874985 69.04418472 28.82109344 69.0532132 27.53562927 69.06251526 C24.89689697 69.07702348 22.25859782 69.08670101 19.61987305 69.08959961 C16.24575087 69.09498666 12.87282412 69.13268692 9.49903965 69.17834377 C6.27156639 69.21530836 3.04406276 69.21662962 -0.18359375 69.22265625 C-1.39204453 69.24218857 -2.6004953 69.26172089 -3.8455658 69.28184509 C-8.60982194 69.25617261 -12.01024299 69.18707469 -16.25952148 66.94165039 C-19.05282165 61.68143792 -18.71243954 56.52976615 -18.6640625 50.6640625 C-18.66884613 49.395625 -18.67362976 48.1271875 -18.67855835 46.8203125 C-18.68195934 44.13975426 -18.67527278 41.46148108 -18.65185547 38.78125 C-18.62336542 35.35430395 -18.63977701 31.92931569 -18.66971779 28.50244141 C-18.69218044 25.22291257 -18.67643061 21.94361694 -18.6640625 18.6640625 C-18.67418365 17.436875 -18.68430481 16.2096875 -18.69473267 14.9453125 C-18.62866716 10.14705731 -18.53227676 6.67104414 -16.27099609 2.39306641 C-11.01281308 -0.38633739 -5.85803522 -0.04831379 0 0 Z " fill="#010000" transform="translate(95,315.3359375)"/>
<path d="M0 0 C1.2684375 -0.00478363 2.536875 -0.00956726 3.84375 -0.01449585 C6.52430824 -0.01789684 9.20258142 -0.01121028 11.8828125 0.01220703 C15.30975855 0.04069708 18.73474681 0.02428549 22.16162109 -0.00565529 C25.44114993 -0.02811794 28.72044556 -0.01236811 32 0 C33.2271875 -0.01012115 34.454375 -0.02024231 35.71875 -0.03067017 C40.51647718 0.03538807 43.99403803 0.13335697 48.27319336 2.39086914 C51.05369762 7.66136549 50.69214138 12.83117597 50.62890625 18.69921875 C50.63131821 19.97002792 50.63373016 21.2408371 50.63621521 22.55015564 C50.63523621 25.2349037 50.62443142 27.91741923 50.59692383 30.60180664 C50.56280507 34.03761629 50.56887466 37.47193339 50.5875864 40.90781498 C50.60070939 44.19253632 50.58243992 47.47702968 50.56640625 50.76171875 C50.57384605 52.61024193 50.57384605 52.61024193 50.58143616 54.49610901 C50.56559982 55.64087204 50.54976349 56.78563507 50.53344727 57.96508789 C50.52724869 58.97148819 50.52105011 59.97788849 50.5146637 61.01478577 C49.86368995 64.3657305 48.60925951 65.53550565 46 67.6640625 C43.41083126 68.95864687 41.50345162 68.81240973 38.60400391 68.84106445 C37.47588287 68.85389969 36.34776184 68.86673492 35.18545532 68.87995911 C33.34955338 68.89103951 33.34955338 68.89103951 31.4765625 68.90234375 C30.22370453 68.9104155 28.97084656 68.91848724 27.68002319 68.92680359 C25.02525118 68.94065344 22.37060375 68.95166752 19.71582031 68.95922852 C16.31709589 68.97029597 12.91902568 69.00470012 9.52053261 69.04440022 C6.276774 69.076844 3.03295864 69.08134315 -0.2109375 69.08984375 C-1.43082367 69.10735184 -2.65070984 69.12485992 -3.90756226 69.14289856 C-5.04198761 69.13997299 -6.17641296 69.13704742 -7.34521484 69.1340332 C-8.34289886 69.13989944 -9.34058289 69.14576569 -10.36849976 69.15180969 C-13.72079406 68.5304637 -14.87555303 67.26900707 -17 64.6640625 C-18.29129734 62.08146783 -18.15541859 60.17600508 -18.19287109 57.28393555 C-18.20893402 56.15904221 -18.22499695 55.03414886 -18.24154663 53.87516785 C-18.28591476 48.72840159 -18.32750102 43.58172449 -18.35009766 38.43481445 C-18.36343211 35.71767471 -18.39127382 33.0012869 -18.43212891 30.28442383 C-18.49094168 26.3732302 -18.50875963 22.46240198 -18.5234375 18.55078125 C-18.54610687 17.33605637 -18.56877625 16.12133148 -18.59213257 14.86979675 C-18.58011694 10.0874276 -18.52927214 6.66829742 -16.27978516 2.40014648 C-11.01687278 -0.38566339 -5.86512972 -0.0483723 0 0 Z " fill="#010000" transform="translate(385,315.3359375)"/>
<path d="M0 0 C157.41 0 314.82 0 477 0 C477 2.64 477 5.28 477 8 C319.59 8 162.18 8 0 8 C0 5.36 0 2.72 0 0 Z " fill="#5DAB23" transform="translate(18,478)"/>
<path d="M0 0 C8.1330751 5.84834199 13.00245355 13.66730481 15.3125 23.375 C16.69484019 33.7111346 13.55483661 42.7832796 7.40234375 51.04296875 C1.1813883 57.98485735 -6.00379051 61.90642866 -15.3359375 62.67578125 C-27.73722716 62.71477902 -35.51352528 60.97783233 -44.6875 52.375 C-52.0426803 44.43433272 -53.22793181 35.50550688 -52.96484375 24.9609375 C-52.28194064 16.13128886 -48.98421011 9.63748886 -42.6875 3.375 C-29.35665001 -6.91720036 -14.65990851 -8.94502892 0 0 Z " fill="#040301" transform="translate(428.6875,73.625)"/>
<path d="M0 0 C140.58 0 281.16 0 426 0 C426 2.64 426 5.28 426 8 C285.42 8 144.84 8 0 8 C0 5.36 0 2.72 0 0 Z " fill="#91DC5A" transform="translate(43,444)"/>
<path d="M0 0 C2.76655418 1.29108381 5.04962067 2.7064804 7.3984375 4.65234375 C8.03523438 5.17570313 8.67203125 5.6990625 9.328125 6.23828125 C10.34132813 7.07939453 10.34132813 7.07939453 11.375 7.9375 C12.81953475 9.12464492 14.26486093 10.31082742 15.7109375 11.49609375 C16.4337793 12.08890137 17.15662109 12.68170898 17.90136719 13.29248047 C20.9033487 15.73499544 23.94743381 18.12122227 27 20.5 C32.74057422 24.98138854 38.3969472 29.5595776 44.0390625 34.1640625 C48.32451618 37.65530083 52.64329453 41.09818888 57 44.5 C62.74010668 48.9820011 68.39693246 53.55956557 74.0390625 58.1640625 C78.32451737 61.65530179 82.64333106 65.09814072 87 68.5 C92.82179059 73.04670823 98.57758438 77.6701806 104.28515625 82.35961914 C107.2237762 84.77043223 110.16237447 87.15118672 113.234375 89.390625 C114.14703125 90.06609375 115.0596875 90.7415625 116 91.4375 C116.78375 91.99308594 117.5675 92.54867187 118.375 93.12109375 C120 95 120 95 120.4375 98.09765625 C120.2209375 99.53431641 120.2209375 99.53431641 120 101 C117 103 117 103 114.734375 102.9765625 C110.83049856 101.58232092 108.28940755 99.13557422 105.25 96.375 C103.99607782 95.26807259 102.7408731 94.1625963 101.484375 93.05859375 C100.88173828 92.5260498 100.27910156 91.99350586 99.65820312 91.44482422 C96.23573024 88.46275789 92.60610022 85.75342628 89 83 C80.91007863 76.7055719 72.90409286 70.31807938 64.96264648 63.83740234 C60.67668541 60.34559705 56.35729716 56.90227312 52 53.5 C46.95153618 49.5580488 41.96246186 45.54965431 37 41.5 C29.73689784 35.57490689 22.39026503 29.76532477 15 24 C14.07574219 23.27296875 13.15148437 22.5459375 12.19921875 21.796875 C11.39097656 21.16265625 10.58273437 20.5284375 9.75 19.875 C9.06421875 19.33617187 8.3784375 18.79734375 7.671875 18.2421875 C4.08018616 15.57359626 1.44765732 15.50782269 -3 16 C-5.81965065 17.59832461 -8.14536459 19.66593274 -10.5625 21.8125 C-11.97296754 23.01288392 -13.38444469 24.21208244 -14.796875 25.41015625 C-15.85165039 26.31725342 -15.85165039 26.31725342 -16.92773438 27.24267578 C-19.98614295 29.83626967 -23.14268858 32.2948851 -26.3125 34.75 C-30.41579625 37.95253076 -34.4813168 41.19118639 -38.5 44.5 C-42.51875468 47.80887246 -46.58570616 51.04547356 -50.6875 54.25 C-55.83948543 58.27605484 -60.93452894 62.36566825 -66 66.5 C-71.51892673 71.0040049 -77.08205712 75.44238194 -82.69775391 79.82495117 C-87.96517619 83.94672784 -93.15173365 88.16527925 -98.3203125 92.41015625 C-100.20451406 93.95177571 -102.09819737 95.48015138 -104 97 C-104.71003174 97.568396 -105.42006348 98.13679199 -106.15161133 98.72241211 C-106.85825928 99.27292236 -107.56490723 99.82343262 -108.29296875 100.390625 C-108.93258545 100.89239258 -109.57220215 101.39416016 -110.23120117 101.91113281 C-112 103 -112 103 -114.9375 102.9375 C-117 102 -117 102 -118 101 C-118.4140625 98.26171875 -118.4140625 98.26171875 -118 95 C-116.14617854 92.9460151 -114.54079938 91.46512791 -112.375 89.8125 C-111.49581909 89.10649658 -111.49581909 89.10649658 -110.59887695 88.38623047 C-108.74636268 86.90569614 -106.87510423 85.45177263 -105 84 C-103.85972134 83.10147199 -102.72037273 82.20176221 -101.58203125 81.30078125 C-99.28396914 79.48615496 -96.97800974 77.68215605 -94.66796875 75.8828125 C-90.73550997 72.80782311 -86.86648847 69.65728392 -83 66.5 C-77.47674994 61.99222351 -71.90815183 57.55157061 -66.2890625 53.1640625 C-61.81563292 49.66223753 -57.40132798 46.09188836 -53 42.5 C-47.47660315 37.99240027 -41.90815564 33.55157358 -36.2890625 29.1640625 C-31.13587385 25.13011844 -26.06330178 21.00074581 -20.99389648 16.86230469 C-15.79445816 12.62548998 -10.54059908 8.46269217 -5.25195312 4.33789062 C-2.53469728 2.27475845 -2.53469728 2.27475845 0 0 Z " fill="#F84D22" transform="translate(255,156)"/>
<path d="M0 0 C2.0984771 2.0984771 2.64980228 3.34278638 3.6640625 6.078125 C3.97714355 6.9023999 4.29022461 7.7266748 4.61279297 8.57592773 C4.94682129 9.45837158 5.28084961 10.34081543 5.625 11.25 C11.14063761 25.35599797 18.47507486 37.27577126 28 49 C28.52207031 49.67675781 29.04414062 50.35351562 29.58203125 51.05078125 C37.35941997 60.80053368 48.39616792 67.67579835 59 74 C59.87825439 74.52456787 60.75650879 75.04913574 61.66137695 75.58959961 C65.81221531 77.34312013 69.22388386 77.47513906 73.6796875 77.51171875 C74.89883347 77.53864555 74.89883347 77.53864555 76.14260864 77.56611633 C78.7200208 77.61998358 81.2972503 77.65403836 83.875 77.6875 C85.63023362 77.72069399 87.38544321 77.75518557 89.140625 77.79101562 C93.42695103 77.87569611 97.71322512 77.94261897 102 78 C102 78.33 102 78.66 102 79 C68.34 79 34.68 79 0 79 C0 52.93 0 26.86 0 0 Z " fill="#98C5FA" transform="translate(60,348)"/>
<path d="M0 0 C11.22 0 22.44 0 34 0 C34 11.22 34 22.44 34 34 C22.78 34 11.56 34 0 34 C0 22.78 0 11.56 0 0 Z " fill="#FE7855" transform="translate(384,333)"/>
<path d="M0 0 C11.22 0 22.44 0 34 0 C34 11.22 34 22.44 34 34 C22.78 34 11.56 34 0 34 C0 22.78 0 11.56 0 0 Z " fill="#FE7855" transform="translate(94,333)"/>
<path d="M0 0 C4.76720207 3.45855836 7.1586631 6.8352708 8.1875 12.625 C8.55843706 17.85344622 6.98303532 21.93954663 4.1875 26.3125 C-0.94627783 31.32106374 -5.77492215 31.83056098 -12.72265625 31.796875 C-17.75397754 31.00814701 -20.71500829 28.22010492 -23.8125 24.3125 C-26.90452943 19.42444028 -26.50618946 13.88392164 -25.8125 8.3125 C-24.10446366 3.83982811 -21.12366047 1.216707 -17.0625 -1.1875 C-11.20402792 -3.74713375 -5.60348547 -2.83766252 0 0 Z " fill="#ECEDED" transform="translate(418.8125,87.6875)"/>
<path d="M0 0 C5.61 0 11.22 0 17 0 C17 5.61 17 11.22 17 17 C11.39 17 5.78 17 0 17 C0 11.39 0 5.78 0 0 Z " fill="#000000" transform="translate(256,367)"/>
</svg>
