<?xml version="1.0" encoding="UTF-8"?>
<!DOCTYPE svg PUBLIC "-//W3C//DTD SVG 1.1//EN" "http://www.w3.org/Graphics/SVG/1.1/DTD/svg11.dtd">
<svg xmlns="http://www.w3.org/2000/svg" version="1.1" width="512px" height="512px" style="shape-rendering:geometricPrecision; text-rendering:geometricPrecision; image-rendering:optimizeQuality; fill-rule:evenodd; clip-rule:evenodd" xmlns:xlink="http://www.w3.org/1999/xlink">
<g><path style="opacity:0.975" fill="#010101" d="M 85.5,-0.5 C 89.1667,-0.5 92.8333,-0.5 96.5,-0.5C 124.724,6.02764 148.891,19.6943 169,40.5C 189.677,68.2124 194.844,98.7124 184.5,132C 184.833,132.5 185.167,133 185.5,133.5C 227.886,103.637 268.552,105.804 307.5,140C 315.039,147.87 322.206,156.037 329,164.5C 334.489,173.097 333.323,180.597 325.5,187C 323.256,187.906 320.923,188.406 318.5,188.5C 304.059,183.632 289.392,179.465 274.5,176C 263.601,173.678 252.601,172.678 241.5,173C 268.064,184.582 283.897,204.749 289,233.5C 292.265,249.848 292.265,266.181 289,282.5C 283.366,289.603 276.533,291.103 268.5,287C 260.875,272.91 252.375,259.41 243,246.5C 235.57,236.981 227.237,228.315 218,220.5C 225.768,243.495 223.435,265.495 211,286.5C 202.932,298.569 193.432,309.403 182.5,319C 177.013,321.185 171.68,320.851 166.5,318C 163.781,315.227 162.447,311.894 162.5,308C 165.048,297.594 167.215,287.094 169,276.5C 171.647,256.637 170.647,236.97 166,217.5C 157.169,250.495 145.669,282.495 131.5,313.5C 183.368,321.276 229.368,341.776 269.5,375C 279.074,375.549 287.074,372.216 293.5,365C 299.528,361.33 305.861,360.664 312.5,363C 316.783,365.615 320.783,368.615 324.5,372C 338.826,378.415 351.492,376.082 362.5,365C 373.806,358.962 383.473,360.962 391.5,371C 402.488,376.998 413.488,376.998 424.5,371C 436.426,358.394 448.426,358.394 460.5,371C 467.657,375.117 475.324,376.45 483.5,375C 488.505,373.163 493.505,371.33 498.5,369.5C 504.329,369.907 508.662,372.573 511.5,377.5C 511.5,417.5 511.5,457.5 511.5,497.5C 508.5,503.833 503.833,508.5 497.5,511.5C 394.167,511.5 290.833,511.5 187.5,511.5C 185.15,509.787 184.15,507.453 184.5,504.5C 184.544,500.91 186.211,498.41 189.5,497C 236.832,496.5 284.165,496.333 331.5,496.5C 303.992,416.16 249.659,363.326 168.5,338C 153.435,333.302 138.102,330.802 122.5,330.5C 100.951,374.975 73.9506,415.642 41.5,452.5C 32.8963,461.605 24.0629,470.605 15,479.5C 14.3333,483.833 14.3333,488.167 15,492.5C 15.4652,493.931 16.2986,495.097 17.5,496C 25.4931,496.5 33.4931,496.666 41.5,496.5C 80.8347,496.333 120.168,496.5 159.5,497C 162.789,498.41 164.456,500.91 164.5,504.5C 164.85,507.453 163.85,509.787 161.5,511.5C 112.167,511.5 62.8333,511.5 13.5,511.5C 7.16667,508.5 2.5,503.833 -0.5,497.5C -0.5,445.5 -0.5,393.5 -0.5,341.5C 2.31434,335.187 6.98101,330.687 13.5,328C 30.4024,322.317 47.5691,317.817 65,314.5C 89.7723,278.289 109.272,239.289 123.5,197.5C 120.718,194.386 117.385,192.053 113.5,190.5C 95.8845,195.309 79.5512,202.809 64.5,213C 55.1667,220.333 45.8333,227.667 36.5,235C 24.8431,236.342 19.3431,231.176 20,219.5C 25.0791,196.169 36.2457,176.335 53.5,160C 64.8617,151.658 77.5283,146.658 91.5,145C 65.1443,134.829 37.811,129.829 9.5,130C 1.76023,125.448 -0.406441,118.948 3,110.5C 27.7788,89.6863 56.2788,81.1863 88.5,85C 106.065,88.8632 120.565,97.6966 132,111.5C 126.913,92.597 118.913,74.9303 108,58.5C 98.049,44.8809 87.7157,31.5475 77,18.5C 74.9962,9.85047 77.8296,3.51714 85.5,-0.5 Z"/></g>
<g><path style="opacity:1" fill="#00e09a" d="M 127.5,28.5 C 126.448,28.3505 125.448,28.5172 124.5,29C 146.716,64.1506 160.049,102.317 164.5,143.5C 163.91,144.766 163.41,146.099 163,147.5C 160.629,144.794 157.963,142.461 155,140.5C 147.352,92.8747 127.186,51.5414 94.5,16.5C 106.073,18.473 117.073,22.473 127.5,28.5 Z"/></g>
<g><path style="opacity:1" fill="#00f1a6" d="M 127.5,28.5 C 166.502,48.5862 181.002,80.2528 171,123.5C 168.829,130.19 166.662,136.857 164.5,143.5C 160.049,102.317 146.716,64.1506 124.5,29C 125.448,28.5172 126.448,28.3505 127.5,28.5 Z"/></g>
<g><path style="opacity:1" fill="#00eea4" d="M 125.5,138.5 C 124.127,138.657 122.793,138.49 121.5,138C 100.301,121.903 76.6343,110.903 50.5,105C 49.4019,104.23 49.4019,103.397 50.5,102.5C 85.7898,93.3786 112.456,104.712 130.5,136.5C 128.978,137.562 127.312,138.229 125.5,138.5 Z"/></g>
<g><path style="opacity:1" fill="#00de98" d="M 50.5,102.5 C 49.4019,103.397 49.4019,104.23 50.5,105C 76.6343,110.903 100.301,121.903 121.5,138C 122.793,138.49 124.127,138.657 125.5,138.5C 123.836,139.999 121.836,140.999 119.5,141.5C 89.3088,125.034 56.9754,116.201 22.5,115C 31.234,109.466 40.5673,105.299 50.5,102.5 Z"/></g>
<g><path style="opacity:1" fill="#00de99" d="M 300.5,166.5 C 301.239,166.631 301.906,166.464 302.5,166C 269.204,134.443 233.537,131.276 195.5,156.5C 193.197,154.675 190.864,152.842 188.5,151C 225.109,119.456 261.442,119.79 297.5,152C 302.833,158 308.167,164 313.5,170C 308.942,169.534 304.609,168.368 300.5,166.5 Z"/></g>
<g><path style="opacity:1" fill="#00f1a6" d="M 300.5,166.5 C 278.768,160.419 256.602,157.086 234,156.5C 222.35,156.702 210.85,158.035 199.5,160.5C 197.812,159.479 196.479,158.145 195.5,156.5C 233.537,131.276 269.204,134.443 302.5,166C 301.906,166.464 301.239,166.631 300.5,166.5 Z"/></g>
<g><path style="opacity:1" fill="#786976" d="M 141.5,151.5 C 134.136,161.421 133.636,171.754 140,182.5C 141.011,183.337 142.178,183.67 143.5,183.5C 130.999,185.704 123.666,180.371 121.5,167.5C 123.132,155.867 129.799,150.534 141.5,151.5 Z"/></g>
<g><path style="opacity:1" fill="#908190" d="M 141.5,151.5 C 149.8,153.304 154.467,158.47 155.5,167C 155.013,175.169 151.013,180.669 143.5,183.5C 142.178,183.67 141.011,183.337 140,182.5C 133.636,171.754 134.136,161.421 141.5,151.5 Z"/></g>
<g><path style="opacity:1" fill="#00de98" d="M 106.5,169.5 C 79.7579,169.107 60.0912,180.607 47.5,204C 47.5699,204.765 47.9033,205.265 48.5,205.5C 44.7922,208.127 41.2922,211.127 38,214.5C 42.8714,194.267 54.0381,178.434 71.5,167C 82.6086,161.965 94.2752,160.132 106.5,161.5C 106.5,164.167 106.5,166.833 106.5,169.5 Z"/></g>
<g><path style="opacity:1" fill="#8b7d8b" d="M 170.5,162.5 C 183.829,162.659 189.996,169.326 189,182.5C 185.505,193.504 178.005,197.671 166.5,195C 164.283,193.732 162.283,192.232 160.5,190.5C 167.801,182.656 171.134,173.323 170.5,162.5 Z"/></g>
<g><path style="opacity:1" fill="#00f0a5" d="M 106.5,169.5 C 106.674,171.861 107.007,174.194 107.5,176.5C 85.7934,182.187 66.1268,191.854 48.5,205.5C 47.9033,205.265 47.5699,204.765 47.5,204C 60.0912,180.607 79.7579,169.107 106.5,169.5 Z"/></g>
<g><path style="opacity:0.896" fill="#000000" d="M 406.5,169.5 C 411.439,168.352 414.939,170.019 417,174.5C 417.667,180.5 417.667,186.5 417,192.5C 413.987,197.535 409.82,198.702 404.5,196C 403.299,195.097 402.465,193.931 402,192.5C 401.333,186.5 401.333,180.5 402,174.5C 403.025,172.313 404.525,170.646 406.5,169.5 Z"/></g>
<g><path style="opacity:1" fill="#00efa5" d="M 274.5,240.5 C 274.66,242.199 274.494,243.866 274,245.5C 255.802,220.3 232.969,200.467 205.5,186C 204.748,185.329 204.414,184.496 204.5,183.5C 228.111,181.34 247.611,189.674 263,208.5C 269.376,218.252 273.209,228.919 274.5,240.5 Z"/></g>
<g><path style="opacity:1" fill="#00df99" d="M 204.5,183.5 C 204.414,184.496 204.748,185.329 205.5,186C 232.969,200.467 255.802,220.3 274,245.5C 274.494,243.866 274.66,242.199 274.5,240.5C 275.657,249.324 275.824,258.324 275,267.5C 257.984,234.962 233.818,209.128 202.5,190C 202.99,187.654 203.657,185.487 204.5,183.5 Z"/></g>
<g><path style="opacity:0.883" fill="#000000" d="M 345.5,194.5 C 348.32,194.248 350.986,194.748 353.5,196C 357.333,199.833 361.167,203.667 365,207.5C 366.399,216.87 362.566,220.37 353.5,218C 347.501,214.173 343.168,209.006 340.5,202.5C 341.191,199.095 342.858,196.429 345.5,194.5 Z"/></g>
<g><path style="opacity:0.885" fill="#000000" d="M 467.5,194.5 C 477.01,194.198 480.177,198.531 477,207.5C 472.854,212.654 467.854,216.654 462,219.5C 455.658,218.477 452.991,214.811 454,208.5C 458.031,203.304 462.531,198.637 467.5,194.5 Z"/></g>
<g><path style="opacity:1" fill="#c86a34" d="M 148.5,199.5 C 119.651,284.582 74.984,359.915 14.5,425.5C 14.3336,417.493 14.5003,409.493 15,401.5C 63.494,350.549 101.494,292.549 129,227.5C 132.265,218.538 135.432,209.538 138.5,200.5C 141.89,198.803 145.223,198.47 148.5,199.5 Z"/></g>
<g><path style="opacity:1" fill="#db8657" d="M 148.5,199.5 C 150.235,201.235 151.568,203.235 152.5,205.5C 128.502,302.195 82.6688,386.528 15,458.5C 14.5002,447.505 14.3335,436.505 14.5,425.5C 74.984,359.915 119.651,284.582 148.5,199.5 Z"/></g>
<g><path style="opacity:1" fill="#00f0a5" d="M 193.5,284.5 C 193.506,270.019 193.339,255.352 193,240.5C 192.063,229.701 189.896,219.201 186.5,209C 187.056,208.617 187.389,208.117 187.5,207.5C 187.897,206.475 188.563,206.308 189.5,207C 210.73,231.774 212.064,257.607 193.5,284.5 Z"/></g>
<g><path style="opacity:1" fill="#00de99" d="M 187.5,207.5 C 187.389,208.117 187.056,208.617 186.5,209C 189.896,219.201 192.063,229.701 193,240.5C 193.339,255.352 193.506,270.019 193.5,284.5C 189.545,289.627 185.378,294.627 181,299.5C 180.833,298.833 180.667,298.167 180.5,297.5C 188.328,268.131 188.328,238.798 180.5,209.5C 182.921,209.122 185.254,208.455 187.5,207.5 Z"/></g>
<g><path style="opacity:0.952" fill="#020100" d="M 455.5,253.5 C 452.68,253.752 450.014,253.252 447.5,252C 442.197,237.191 431.863,228.358 416.5,225.5C 396.295,222.857 381.795,230.857 373,249.5C 367.717,266.422 371.55,280.922 384.5,293C 393.897,300.407 404.564,303.24 416.5,301.5C 430.02,298.814 439.52,291.147 445,278.5C 447.362,273.936 450.862,272.603 455.5,274.5C 460.064,276.984 461.231,280.651 459,285.5C 447.587,308.295 429.087,318.795 403.5,317C 373.385,311.551 357.385,293.551 355.5,263C 358.22,229.78 376.22,211.613 409.5,208.5C 433.056,210.016 449.889,221.35 460,242.5C 460.667,244.833 460.667,247.167 460,249.5C 459.252,251.751 457.752,253.084 455.5,253.5 Z"/></g>
<g><path style="opacity:1" fill="#fba70f" d="M 416.5,225.5 C 394.823,244.714 391.657,266.714 407,291.5C 410.371,294.703 413.538,298.036 416.5,301.5C 404.564,303.24 393.897,300.407 384.5,293C 371.55,280.922 367.717,266.422 373,249.5C 381.795,230.857 396.295,222.857 416.5,225.5 Z"/></g>
<g><path style="opacity:0.998" fill="#fdc264" d="M 416.5,225.5 C 431.863,228.358 442.197,237.191 447.5,252C 450.014,253.252 452.68,253.752 455.5,253.5C 456.8,260.47 456.8,267.47 455.5,274.5C 450.862,272.603 447.362,273.936 445,278.5C 439.52,291.147 430.02,298.814 416.5,301.5C 413.538,298.036 410.371,294.703 407,291.5C 391.657,266.714 394.823,244.714 416.5,225.5 Z"/></g>
<g><path style="opacity:0.899" fill="#000000" d="M 319.5,255.5 C 326.947,255.071 334.281,255.571 341.5,257C 343.429,260.256 343.929,263.756 343,267.5C 341.681,269.487 339.848,270.654 337.5,271C 331.388,271.909 325.388,271.576 319.5,270C 314.232,265.171 314.232,260.337 319.5,255.5 Z"/></g>
<g><path style="opacity:0.898" fill="#000000" d="M 479.5,255.5 C 486.175,255.334 492.842,255.5 499.5,256C 505.194,261.862 504.527,266.862 497.5,271C 491.083,271.87 484.749,271.536 478.5,270C 474.285,264.72 474.618,259.886 479.5,255.5 Z"/></g>
<g><path style="opacity:0.892" fill="#000000" d="M 353.5,307.5 C 362.108,306.276 365.941,309.943 365,318.5C 361.869,322.633 358.369,326.466 354.5,330C 344.054,333.542 339.887,330.042 342,319.5C 346.037,315.631 349.87,311.631 353.5,307.5 Z"/></g>
<g><path style="opacity:0.89" fill="#000000" d="M 457.5,307.5 C 460.187,307.336 462.854,307.503 465.5,308C 469.333,311.833 473.167,315.667 477,319.5C 479.367,323.999 478.533,327.832 474.5,331C 471.036,331.817 467.702,331.483 464.5,330C 459.232,326.081 455.566,321.081 453.5,315C 453.927,311.977 455.261,309.477 457.5,307.5 Z"/></g>
<g><path style="opacity:0.896" fill="#000000" d="M 407.5,328.5 C 411.794,328.198 414.961,329.864 417,333.5C 417.667,339.833 417.667,346.167 417,352.5C 414.089,356.277 410.256,357.444 405.5,356C 403.951,354.786 402.785,353.286 402,351.5C 401.333,345.5 401.333,339.5 402,333.5C 403.352,331.251 405.185,329.584 407.5,328.5 Z"/></g>
<g><path style="opacity:1" fill="#fedca7" d="M 184.5,504.5 C 177.833,504.5 171.167,504.5 164.5,504.5C 164.456,500.91 162.789,498.41 159.5,497C 120.168,496.5 80.8347,496.333 41.5,496.5C 41.5,481.833 41.5,467.167 41.5,452.5C 73.9506,415.642 100.951,374.975 122.5,330.5C 138.102,330.802 153.435,333.302 168.5,338C 249.659,363.326 303.992,416.16 331.5,496.5C 284.165,496.333 236.832,496.5 189.5,497C 186.211,498.41 184.544,500.91 184.5,504.5 Z"/></g>
<g><path style="opacity:1" fill="#eccc9b" d="M 41.5,346.5 C 42.069,342.671 41.4023,339.337 39.5,336.5C 43.3028,334.92 47.3028,334.087 51.5,334C 48.6826,338.643 45.3492,342.81 41.5,346.5 Z"/></g>
<g><path style="opacity:1" fill="#fabf63" d="M 39.5,336.5 C 41.4023,339.337 42.069,342.671 41.5,346.5C 33.1553,357.835 24.322,368.835 15,379.5C 14.3333,368.167 14.3333,356.833 15,345.5C 22.5528,341.036 30.7195,338.036 39.5,336.5 Z"/></g>
<g><path style="opacity:1" fill="#5fb8fc" d="M 304.5,377.5 C 309.776,381.479 315.442,384.979 321.5,388C 333.956,392.713 346.29,392.379 358.5,387C 363.658,383.995 368.658,380.828 373.5,377.5C 378.793,381.486 384.46,384.986 390.5,388C 402.956,392.713 415.29,392.379 427.5,387C 432.658,383.995 437.658,380.828 442.5,377.5C 446.474,379.492 450.141,381.992 453.5,385C 467.428,392.661 481.762,393.495 496.5,387.5C 496.833,402.848 496.499,418.181 495.5,433.5C 484.675,440.5 473.342,441.333 461.5,436C 449.417,422.608 437.083,422.275 424.5,435C 409.68,442.593 396.346,440.593 384.5,429C 374.127,423.139 365.127,424.805 357.5,434C 354.473,435.513 351.473,437.013 348.5,438.5C 336.158,416.491 321.491,396.157 304.5,377.5 Z"/></g>
<g><path style="opacity:1" fill="#1ca6fc" d="M 304.5,377.5 C 321.491,396.157 336.158,416.491 348.5,438.5C 337.945,441.167 328.279,439.333 319.5,433C 308.673,417.86 297.007,403.36 284.5,389.5C 291.544,385.984 298.211,381.984 304.5,377.5 Z"/></g>
<g><path style="opacity:1" fill="#8ac9fe" d="M 371.5,496.5 C 367.768,480.95 362.101,466.284 354.5,452.5C 361.281,449.273 367.614,445.273 373.5,440.5C 390.511,455.843 409.511,458.676 430.5,449C 434.664,446.327 438.664,443.493 442.5,440.5C 445.95,442.774 449.283,445.274 452.5,448C 466.418,455.682 480.751,456.516 495.5,450.5C 496.666,464.488 496.833,478.488 496,492.5C 495.5,494.333 494.333,495.5 492.5,496C 452.168,496.5 411.835,496.667 371.5,496.5 Z"/></g>
<g><path style="opacity:1" fill="#5fb7fb" d="M 354.5,452.5 C 362.101,466.284 367.768,480.95 371.5,496.5C 363.472,496.831 355.472,496.498 347.5,495.5C 342.941,481.482 337.608,467.816 331.5,454.5C 339.285,454.868 346.951,454.202 354.5,452.5 Z"/></g>
<g><path style="opacity:1" fill="#fbc064" d="M 41.5,452.5 C 41.5,467.167 41.5,481.833 41.5,496.5C 33.4931,496.666 25.4931,496.5 17.5,496C 16.2986,495.097 15.4652,493.931 15,492.5C 14.3333,488.167 14.3333,483.833 15,479.5C 24.0629,470.605 32.8963,461.605 41.5,452.5 Z"/></g>
</svg>
