<?xml version="1.0" encoding="UTF-8"?>
<!DOCTYPE svg PUBLIC "-//W3C//DTD SVG 1.1//EN" "http://www.w3.org/Graphics/SVG/1.1/DTD/svg11.dtd">
<svg xmlns="http://www.w3.org/2000/svg" version="1.1" width="512px" height="512px" style="shape-rendering:geometricPrecision; text-rendering:geometricPrecision; image-rendering:optimizeQuality; fill-rule:evenodd; clip-rule:evenodd" xmlns:xlink="http://www.w3.org/1999/xlink">
<g><path style="opacity:1" fill="#fad380" d="M 206.5,12.5 C 156.194,41.655 105.861,70.8216 55.5,100C 57.1688,102.356 59.1688,103.189 61.5,102.5C 61.9371,104.074 62.9371,105.241 64.5,106C 74.0818,111.374 83.5818,116.874 93,122.5C 139.312,95.5996 185.478,68.5996 231.5,41.5C 235.139,39.3448 238.806,37.1782 242.5,35C 244.92,34.3131 247.087,34.8131 249,36.5C 249.498,39.8168 249.665,43.1501 249.5,46.5C 249.5,47.1667 249.167,47.5 248.5,47.5C 248.817,44.4281 248.484,41.4281 247.5,38.5C 196.5,67.8333 145.5,97.1667 94.5,126.5C 93.8243,127.602 93.1577,128.602 92.5,129.5C 91.9688,127.376 90.6355,125.876 88.5,125C 74.8333,117.167 61.1667,109.333 47.5,101.5C 46.5001,146.495 46.1667,191.495 46.5,236.5C 46.5,248.5 46.5,260.5 46.5,272.5C 46.5,275.833 46.5,279.167 46.5,282.5C 46.5,285.167 46.5,287.833 46.5,290.5C 46.8296,306.342 46.4963,322.009 45.5,337.5C 45.3333,258.166 45.5,178.833 46,99.5C 97.8527,69.2405 149.853,39.2405 202,9.5C 203.981,9.89852 205.481,10.8985 206.5,12.5 Z"/></g>
<g><path style="opacity:1" fill="#efad45" d="M 206.5,12.5 C 206.5,17.1667 206.5,21.8333 206.5,26.5C 203.606,25.0392 200.606,24.2058 197.5,24C 152.275,50.4428 106.942,76.6095 61.5,102.5C 59.1688,103.189 57.1688,102.356 55.5,100C 105.861,70.8216 156.194,41.655 206.5,12.5 Z"/></g>
<g><path style="opacity:1" fill="#e8f0f8" d="M 206.5,26.5 C 215.035,31.263 223.368,36.263 231.5,41.5C 185.478,68.5996 139.312,95.5996 93,122.5C 83.5818,116.874 74.0818,111.374 64.5,106C 62.9371,105.241 61.9371,104.074 61.5,102.5C 106.942,76.6095 152.275,50.4428 197.5,24C 200.606,24.2058 203.606,25.0392 206.5,26.5 Z"/></g>
<g><path style="opacity:1" fill="#efab42" d="M 248.5,47.5 C 199.5,76.1667 150.5,104.833 101.5,133.5C 101.5,159.5 101.5,185.5 101.5,211.5C 98.0078,210.59 95.0078,208.924 92.5,206.5C 92.5,180.833 92.5,155.167 92.5,129.5C 93.1577,128.602 93.8243,127.602 94.5,126.5C 145.5,97.1667 196.5,67.8333 247.5,38.5C 248.484,41.4281 248.817,44.4281 248.5,47.5 Z"/></g>
<g><path style="opacity:1" fill="#f5728e" d="M 262.5,59.5 C 262.167,59.5 261.833,59.5 261.5,59.5C 261.826,55.1161 261.492,50.7828 260.5,46.5C 210.369,75.0669 160.369,103.9 110.5,133C 112.333,134.167 114.167,135.333 116,136.5C 116.383,135.944 116.883,135.611 117.5,135.5C 117.414,136.496 117.748,137.329 118.5,138C 127.425,142.601 136.092,147.601 144.5,153C 146.365,154.301 148.365,154.635 150.5,154C 192.67,129.414 235.004,105.081 277.5,81C 281.343,78.9652 284.676,76.4652 287.5,73.5C 291.823,71.5192 296.156,69.5192 300.5,67.5C 302.187,67.7605 303.687,68.4272 305,69.5C 305.5,124.832 305.667,180.166 305.5,235.5C 305.5,236.167 305.167,236.5 304.5,236.5C 304.667,181.166 304.5,125.832 304,70.5C 252.221,100.638 200.388,130.638 148.5,160.5C 132.964,151.233 117.298,142.233 101.5,133.5C 150.5,104.833 199.5,76.1667 248.5,47.5C 249.167,47.5 249.5,47.1667 249.5,46.5C 252.176,45.1618 254.843,43.8285 257.5,42.5C 258.938,42.7189 260.271,43.2189 261.5,44C 262.471,49.0717 262.805,54.2384 262.5,59.5 Z"/></g>
<g><path style="opacity:1" fill="#ed495f" d="M 261.5,59.5 C 258.409,56.7613 255.076,56.2613 251.5,58C 206.969,84.0976 162.303,109.931 117.5,135.5C 116.883,135.611 116.383,135.944 116,136.5C 114.167,135.333 112.333,134.167 110.5,133C 160.369,103.9 210.369,75.0669 260.5,46.5C 261.492,50.7828 261.826,55.1161 261.5,59.5 Z"/></g>
<g><path style="opacity:1" fill="#e8eff8" d="M 261.5,59.5 C 261.833,59.5 262.167,59.5 262.5,59.5C 270.699,64.4322 279.032,69.0988 287.5,73.5C 284.676,76.4652 281.343,78.9652 277.5,81C 235.004,105.081 192.67,129.414 150.5,154C 148.365,154.635 146.365,154.301 144.5,153C 136.092,147.601 127.425,142.601 118.5,138C 117.748,137.329 117.414,136.496 117.5,135.5C 162.303,109.931 206.969,84.0976 251.5,58C 255.076,56.2613 258.409,56.7613 261.5,59.5 Z"/></g>
<g><path style="opacity:1" fill="#ec435c" d="M 304.5,236.5 C 304.158,237.338 303.492,237.672 302.5,237.5C 294.439,214.152 286.273,190.819 278,167.5C 274.972,166.049 272.472,166.716 270.5,169.5C 272.438,173.314 273.771,177.314 274.5,181.5C 274.586,182.496 274.252,183.329 273.5,184C 263.806,189.512 254.139,195.012 244.5,200.5C 243.193,196.919 241.859,193.253 240.5,189.5C 239.054,188.387 237.387,188.22 235.5,189C 234.484,189.519 233.818,190.353 233.5,191.5C 242.04,215.788 250.374,240.122 258.5,264.5C 233.833,278.5 209.167,292.5 184.5,306.5C 184.667,292.829 184.5,279.163 184,265.5C 182.283,260.451 179.116,256.618 174.5,254C 165.689,249.339 157.022,244.506 148.5,239.5C 148.5,213.167 148.5,186.833 148.5,160.5C 200.388,130.638 252.221,100.638 304,70.5C 304.5,125.832 304.667,181.166 304.5,236.5 Z"/></g>
<g><path style="opacity:1" fill="#f8ba4a" d="M 92.5,129.5 C 92.5,155.167 92.5,180.833 92.5,206.5C 88.0967,203.967 83.43,201.967 78.5,200.5C 73.0465,202.392 68.0465,205.059 63.5,208.5C 62.5416,208.953 61.7083,209.619 61,210.5C 60.5001,221.828 60.3335,233.162 60.5,244.5C 55.8333,241.833 51.1667,239.167 46.5,236.5C 46.1667,191.495 46.5001,146.495 47.5,101.5C 61.1667,109.333 74.8333,117.167 88.5,125C 90.6355,125.876 91.9688,127.376 92.5,129.5 Z"/></g>
<g><path style="opacity:1" fill="#f15573" d="M 101.5,133.5 C 117.298,142.233 132.964,151.233 148.5,160.5C 148.5,186.833 148.5,213.167 148.5,239.5C 132.632,230.404 116.966,221.07 101.5,211.5C 101.5,185.5 101.5,159.5 101.5,133.5 Z"/></g>
<g><path style="opacity:1" fill="#464651" d="M 302.5,237.5 C 304.462,243.733 306.796,249.733 309.5,255.5C 310.766,260.965 312.433,266.299 314.5,271.5C 321.15,290.141 327.817,308.808 334.5,327.5C 332.707,330.197 330.374,330.864 327.5,329.5C 326.091,325.684 324.424,322.017 322.5,318.5C 311.909,323.949 301.909,330.116 292.5,337C 294.317,341.43 295.484,345.93 296,350.5C 295.329,351.252 294.496,351.586 293.5,351.5C 274.799,297.898 255.799,244.398 236.5,191C 237.563,189.812 238.897,189.312 240.5,189.5C 241.859,193.253 243.193,196.919 244.5,200.5C 244.369,201.239 244.536,201.906 245,202.5C 256.613,196.283 267.78,189.449 278.5,182C 278.333,181.5 278.167,181 278,180.5C 277.296,182.727 276.129,183.06 274.5,181.5C 273.771,177.314 272.438,173.314 270.5,169.5C 272.472,166.716 274.972,166.049 278,167.5C 286.273,190.819 294.439,214.152 302.5,237.5 Z"/></g>
<g><path style="opacity:1" fill="#524e58" d="M 240.5,189.5 C 238.897,189.312 237.563,189.812 236.5,191C 255.799,244.398 274.799,297.898 293.5,351.5C 292.432,352.434 291.099,352.768 289.5,352.5C 283.936,334.135 277.602,316.135 270.5,298.5C 269.269,292.468 267.269,286.801 264.5,281.5C 263.269,275.468 261.269,269.801 258.5,264.5C 250.374,240.122 242.04,215.788 233.5,191.5C 233.818,190.353 234.484,189.519 235.5,189C 237.387,188.22 239.054,188.387 240.5,189.5 Z"/></g>
<g><path style="opacity:1" fill="#ea435b" d="M 286.5,214.5 C 276.666,221.254 266.333,227.254 255.5,232.5C 252.704,224.114 249.704,215.781 246.5,207.5C 256.584,201.374 266.751,195.374 277,189.5C 280.655,197.629 283.821,205.962 286.5,214.5 Z"/></g>
<g><path style="opacity:1" fill="#685668" d="M 244.5,200.5 C 254.139,195.012 263.806,189.512 273.5,184C 274.252,183.329 274.586,182.496 274.5,181.5C 276.129,183.06 277.296,182.727 278,180.5C 278.167,181 278.333,181.5 278.5,182C 267.78,189.449 256.613,196.283 245,202.5C 244.536,201.906 244.369,201.239 244.5,200.5 Z"/></g>
<g><path style="opacity:1" fill="#5e6072" d="M 92.5,206.5 C 95.0078,208.924 98.0078,210.59 101.5,211.5C 116.966,221.07 132.632,230.404 148.5,239.5C 157.022,244.506 165.689,249.339 174.5,254C 179.116,256.618 182.283,260.451 184,265.5C 184.5,279.163 184.667,292.829 184.5,306.5C 184.5,313.167 184.5,319.833 184.5,326.5C 184.5,328.833 184.5,331.167 184.5,333.5C 184.5,335.167 184.5,336.833 184.5,338.5C 184.5,348.167 184.5,357.833 184.5,367.5C 184.5,369.167 184.5,370.833 184.5,372.5C 184.5,374.167 184.5,375.833 184.5,377.5C 184.5,382.167 184.5,386.833 184.5,391.5C 184.5,401.167 184.5,410.833 184.5,420.5C 183.218,423.731 183.218,427.064 184.5,430.5C 184.667,450.169 184.5,469.836 184,489.5C 183.691,490.766 183.191,491.933 182.5,493C 177.938,495.78 173.272,498.28 168.5,500.5C 169.785,449.712 170.452,398.878 170.5,348C 170.653,322.44 170.153,296.94 169,271.5C 166.833,266.667 163.333,263.167 158.5,261C 130.003,244.919 101.67,228.586 73.5,212C 70.4388,209.965 67.1055,208.799 63.5,208.5C 68.0465,205.059 73.0465,202.392 78.5,200.5C 83.43,201.967 88.0967,203.967 92.5,206.5 Z"/></g>
<g><path style="opacity:1" fill="#4b4e5c" d="M 63.5,208.5 C 67.1055,208.799 70.4388,209.965 73.5,212C 101.67,228.586 130.003,244.919 158.5,261C 163.333,263.167 166.833,266.667 169,271.5C 170.153,296.94 170.653,322.44 170.5,348C 170.452,398.878 169.785,449.712 168.5,500.5C 165.067,501.876 161.734,501.376 158.5,499C 126.918,480.626 95.4178,462.126 64,443.5C 62.1395,441.112 60.8061,438.446 60,435.5C 59.5,408.169 59.3334,380.835 59.5,353.5C 60.4968,335.341 60.8302,317.008 60.5,298.5C 60.5,295.5 60.5,292.5 60.5,289.5C 60.5,286.5 60.5,283.5 60.5,280.5C 60.5,268.5 60.5,256.5 60.5,244.5C 60.3335,233.162 60.5001,221.828 61,210.5C 61.7083,209.619 62.5416,208.953 63.5,208.5 Z"/></g>
<g><path style="opacity:1" fill="#fdd27b" d="M 360.5,226.5 C 358.692,226.491 357.025,226.991 355.5,228C 339.938,236.941 324.604,246.108 309.5,255.5C 306.796,249.733 304.462,243.733 302.5,237.5C 303.492,237.672 304.158,237.338 304.5,236.5C 305.167,236.5 305.5,236.167 305.5,235.5C 317.51,228.829 329.51,222.162 341.5,215.5C 348.35,218.42 354.683,222.087 360.5,226.5 Z"/></g>
<g><path style="opacity:1" fill="#695769" d="M 286.5,214.5 C 289.999,214.259 290.332,215.092 287.5,217C 277.252,222.707 267.085,228.54 257,234.5C 256.283,233.956 255.783,233.289 255.5,232.5C 266.333,227.254 276.666,221.254 286.5,214.5 Z"/></g>
<g><path style="opacity:1" fill="#ea445c" d="M 296.5,242.5 C 286.033,247.9 275.7,253.567 265.5,259.5C 263.263,253.971 261.097,248.305 259,242.5C 258.219,241.056 258.386,239.723 259.5,238.5C 268.998,233.252 278.331,227.752 287.5,222C 288.744,221.544 289.577,222.044 290,223.5C 292.077,229.899 294.244,236.232 296.5,242.5 Z"/></g>
<g><path style="opacity:1" fill="#e3e6f2" d="M 64.5,226.5 C 66.6547,226.372 68.6547,226.872 70.5,228C 102.581,246.455 134.414,265.289 166,284.5C 166.5,352.166 166.667,419.833 166.5,487.5C 163.575,487.54 160.909,486.707 158.5,485C 127.415,466.707 96.2487,448.54 65,430.5C 64.5,362.501 64.3333,294.501 64.5,226.5 Z"/></g>
<g><path style="opacity:1" fill="#f8bb4b" d="M 360.5,226.5 C 366.165,228.997 371.498,231.997 376.5,235.5C 374.669,237.776 372.336,239.609 369.5,241C 351.391,251.718 333.058,261.884 314.5,271.5C 312.433,266.299 310.766,260.965 309.5,255.5C 324.604,246.108 339.938,236.941 355.5,228C 357.025,226.991 358.692,226.491 360.5,226.5 Z"/></g>
<g><path style="opacity:1" fill="#e5a03c" d="M 46.5,236.5 C 51.1667,239.167 55.8333,241.833 60.5,244.5C 60.5,256.5 60.5,268.5 60.5,280.5C 55.8333,277.833 51.1667,275.167 46.5,272.5C 46.5,260.5 46.5,248.5 46.5,236.5 Z"/></g>
<g><path style="opacity:1" fill="#fdd479" d="M 376.5,235.5 C 406.521,251.928 436.021,269.261 465,287.5C 465.812,291.689 465.645,295.689 464.5,299.5C 464.657,298.127 464.49,296.793 464,295.5C 409.525,327.986 354.692,359.819 299.5,391C 293.747,391.851 288.08,391.517 282.5,390C 253.776,373.978 225.442,357.478 197.5,340.5C 221.336,325.745 245.669,311.745 270.5,298.5C 277.602,316.135 283.936,334.135 289.5,352.5C 291.099,352.768 292.432,352.434 293.5,351.5C 294.496,351.586 295.329,351.252 296,350.5C 295.484,345.93 294.317,341.43 292.5,337C 301.909,330.116 311.909,323.949 322.5,318.5C 324.424,322.017 326.091,325.684 327.5,329.5C 330.374,330.864 332.707,330.197 334.5,327.5C 327.817,308.808 321.15,290.141 314.5,271.5C 333.058,261.884 351.391,251.718 369.5,241C 372.336,239.609 374.669,237.776 376.5,235.5 Z"/></g>
<g><path style="opacity:1" fill="#ccd1de" d="M 71.5,238.5 C 101.019,254.511 130.185,271.178 159,288.5C 159.667,289.833 159.667,291.167 159,292.5C 130.745,275.621 102.245,259.121 73.5,243C 71.9632,241.89 71.2965,240.39 71.5,238.5 Z"/></g>
<g><path style="opacity:1" fill="#f8cf79" d="M 296.5,242.5 C 297.234,243.708 297.567,245.041 297.5,246.5C 297.047,247.458 296.381,248.292 295.5,249C 286.054,254.721 276.388,259.887 266.5,264.5C 265.962,262.883 265.629,261.216 265.5,259.5C 275.7,253.567 286.033,247.9 296.5,242.5 Z"/></g>
<g><path style="opacity:1" fill="#ccd1de" d="M 71.5,250.5 C 99.806,266.655 128.139,282.821 156.5,299C 158.847,300.191 159.68,302.024 159,304.5C 130.085,287.96 101.252,271.293 72.5,254.5C 71.5713,253.311 71.238,251.978 71.5,250.5 Z"/></g>
<g><path style="opacity:1" fill="#e63344" d="M 372.5,251.5 C 392.594,262.048 412.26,273.382 431.5,285.5C 422.455,291.355 413.122,296.689 403.5,301.5C 383.714,291.107 364.38,279.941 345.5,268C 354.897,262.977 363.897,257.477 372.5,251.5 Z"/></g>
<g><path style="opacity:1" fill="#f7cf77" d="M 302.5,259.5 C 292.033,264.9 281.7,270.567 271.5,276.5C 269.293,274.284 269.293,272.118 271.5,270C 281.082,264.626 290.582,259.126 300,253.5C 301.122,255.407 301.955,257.407 302.5,259.5 Z"/></g>
<g><path style="opacity:1" fill="#6a676b" d="M 266.5,264.5 C 276.388,259.887 286.054,254.721 295.5,249C 296.381,248.292 297.047,247.458 297.5,246.5C 298.822,246.67 299.989,246.337 301,245.5C 301.667,246.167 301.667,246.833 301,247.5C 290.085,253.707 279.251,260.041 268.5,266.5C 267.478,266.145 266.811,265.478 266.5,264.5 Z"/></g>
<g><path style="opacity:1" fill="#f7ba4a" d="M 302.5,259.5 C 304.363,264.421 306.029,269.421 307.5,274.5C 307.489,276.017 306.823,277.184 305.5,278C 296.26,283.424 286.927,288.59 277.5,293.5C 275.125,288.047 273.125,282.381 271.5,276.5C 281.7,270.567 292.033,264.9 302.5,259.5 Z"/></g>
<g><path style="opacity:1" fill="#e9c576" d="M 145.5,260.5 C 148.621,261.288 150.288,263.288 150.5,266.5C 146.686,266.349 145.019,264.349 145.5,260.5 Z"/></g>
<g><path style="opacity:1" fill="#ccd1de" d="M 71.5,262.5 C 100.483,279.139 129.483,295.806 158.5,312.5C 159.833,313.833 159.833,315.167 158.5,316.5C 129.997,299.747 101.33,283.247 72.5,267C 71.6198,265.644 71.2865,264.144 71.5,262.5 Z"/></g>
<g><path style="opacity:1" fill="#fdd379" d="M 258.5,264.5 C 261.269,269.801 263.269,275.468 264.5,281.5C 237.833,296.5 211.167,311.5 184.5,326.5C 184.5,319.833 184.5,313.167 184.5,306.5C 209.167,292.5 233.833,278.5 258.5,264.5 Z"/></g>
<g><path style="opacity:1" fill="#f8ba49" d="M 46.5,272.5 C 51.1667,275.167 55.8333,277.833 60.5,280.5C 60.5,283.5 60.5,286.5 60.5,289.5C 55.8333,287.167 51.1667,284.833 46.5,282.5C 46.5,279.167 46.5,275.833 46.5,272.5 Z"/></g>
<g><path style="opacity:1" fill="#cbd1de" d="M 71.5,275.5 C 99.6076,291.056 127.608,306.89 155.5,323C 157.327,323.899 158.66,325.233 159.5,327C 159.167,327.5 158.833,328 158.5,328.5C 129.421,312.212 100.588,295.546 72,278.5C 71.5172,277.552 71.3505,276.552 71.5,275.5 Z"/></g>
<g><path style="opacity:1" fill="#f5cd77" d="M 307.5,274.5 C 308.537,275.93 309.204,277.597 309.5,279.5C 299.216,285.137 289.216,291.137 279.5,297.5C 277.896,296.713 277.229,295.38 277.5,293.5C 286.927,288.59 296.26,283.424 305.5,278C 306.823,277.184 307.489,276.017 307.5,274.5 Z"/></g>
<g><path style="opacity:1" fill="#f8bb4a" d="M 264.5,281.5 C 267.269,286.801 269.269,292.468 270.5,298.5C 245.669,311.745 221.336,325.745 197.5,340.5C 192.932,338.597 188.598,336.264 184.5,333.5C 184.5,331.167 184.5,328.833 184.5,326.5C 211.167,311.5 237.833,296.5 264.5,281.5 Z"/></g>
<g><path style="opacity:1" fill="#e5a03c" d="M 46.5,282.5 C 51.1667,284.833 55.8333,287.167 60.5,289.5C 60.5,292.5 60.5,295.5 60.5,298.5C 55.8333,295.833 51.1667,293.167 46.5,290.5C 46.5,287.833 46.5,285.167 46.5,282.5 Z"/></g>
<g><path style="opacity:1" fill="#69676c" d="M 309.5,279.5 C 310.552,279.351 311.552,279.517 312.5,280C 301.704,285.967 291.037,292.134 280.5,298.5C 279.893,298.376 279.56,298.043 279.5,297.5C 289.216,291.137 299.216,285.137 309.5,279.5 Z"/></g>
<g><path style="opacity:1" fill="#ccd1de" d="M 71.5,287.5 C 100.445,303.976 129.445,320.476 158.5,337C 159.554,338.388 159.72,339.888 159,341.5C 130.296,324.634 101.463,307.967 72.5,291.5C 71.5713,290.311 71.238,288.978 71.5,287.5 Z"/></g>
<g><path style="opacity:1" fill="#fad279" d="M 320.5,311.5 C 310.366,317.737 300.033,323.737 289.5,329.5C 287.098,320.962 284.098,312.628 280.5,304.5C 290.617,297.444 301.284,291.444 312.5,286.5C 315.167,294.833 317.833,303.167 320.5,311.5 Z"/></g>
<g><path style="opacity:1" fill="#f7ba4b" d="M 46.5,290.5 C 51.1667,293.167 55.8333,295.833 60.5,298.5C 60.8302,317.008 60.4968,335.341 59.5,353.5C 55.0614,351.446 50.728,349.113 46.5,346.5C 45.5159,343.572 45.1826,340.572 45.5,337.5C 46.4963,322.009 46.8296,306.342 46.5,290.5 Z"/></g>
<g><path style="opacity:1" fill="#e5a242" d="M 464.5,299.5 C 464.144,301.19 463.144,302.19 461.5,302.5C 407.691,333.908 353.691,365.074 299.5,396C 293.747,396.851 288.08,396.517 282.5,395C 249.687,376.339 217.02,357.505 184.5,338.5C 184.5,336.833 184.5,335.167 184.5,333.5C 188.598,336.264 192.932,338.597 197.5,340.5C 225.442,357.478 253.776,373.978 282.5,390C 288.08,391.517 293.747,391.851 299.5,391C 354.692,359.819 409.525,327.986 464,295.5C 464.49,296.793 464.657,298.127 464.5,299.5 Z"/></g>
<g><path style="opacity:1" fill="#ccd1de" d="M 71.5,299.5 C 100.483,316.139 129.483,332.806 158.5,349.5C 159.833,350.833 159.833,352.167 158.5,353.5C 129.997,336.747 101.33,320.247 72.5,304C 71.6198,302.644 71.2865,301.144 71.5,299.5 Z"/></g>
<g><path style="opacity:1" fill="#e4e7f2" d="M 461.5,302.5 C 461.5,309.5 461.5,316.5 461.5,323.5C 460.806,326.421 459.973,329.421 459,332.5C 406.047,363.726 352.88,394.559 299.5,425C 293.747,425.851 288.08,425.517 282.5,424C 249.643,405.408 216.976,386.574 184.5,367.5C 184.5,357.833 184.5,348.167 184.5,338.5C 217.02,357.505 249.687,376.339 282.5,395C 288.08,396.517 293.747,396.851 299.5,396C 353.691,365.074 407.691,333.908 461.5,302.5 Z"/></g>
<g><path style="opacity:1" fill="#cbd1de" d="M 71.5,312.5 C 97.9272,327.077 124.261,341.911 150.5,357C 154.132,358.645 157.132,360.979 159.5,364C 159.167,364.5 158.833,365 158.5,365.5C 129.537,349.033 100.704,332.366 72,315.5C 71.5172,314.552 71.3505,313.552 71.5,312.5 Z"/></g>
<g><path style="opacity:1" fill="#ccd1de" d="M 71.5,324.5 C 100.445,340.976 129.445,357.476 158.5,374C 159.554,375.388 159.72,376.888 159,378.5C 130.296,361.634 101.463,344.967 72.5,328.5C 71.5713,327.311 71.238,325.978 71.5,324.5 Z"/></g>
<g><path style="opacity:1" fill="#69676b" d="M 289.5,329.5 C 300.033,323.737 310.366,317.737 320.5,311.5C 322.109,311.094 323.443,311.094 324.5,311.5C 313.167,318.167 301.833,324.833 290.5,331.5C 289.702,331.043 289.369,330.376 289.5,329.5 Z"/></g>
<g><path style="opacity:1" fill="#f8d37b" d="M 461.5,323.5 C 463.411,323.574 464.578,324.574 465,326.5C 465.499,330.152 465.665,333.818 465.5,337.5C 464.71,336.391 464.21,335.058 464,333.5C 460.778,336.388 457.278,338.888 453.5,341C 404.167,369.667 354.833,398.333 305.5,427C 296.833,431.667 288.167,431.667 279.5,427C 248.105,408.304 216.438,390.137 184.5,372.5C 184.5,370.833 184.5,369.167 184.5,367.5C 216.976,386.574 249.643,405.408 282.5,424C 288.08,425.517 293.747,425.851 299.5,425C 352.88,394.559 406.047,363.726 459,332.5C 459.973,329.421 460.806,326.421 461.5,323.5 Z"/></g>
<g><path style="opacity:1" fill="#e2a13e" d="M 465.5,337.5 C 464.89,338.391 464.557,339.391 464.5,340.5C 463.883,340.389 463.383,340.056 463,339.5C 409.04,371.898 354.54,403.398 299.5,434C 294.5,434.667 289.5,434.667 284.5,434C 258.112,419.143 231.779,404.309 205.5,389.5C 198.671,385.251 191.671,381.251 184.5,377.5C 184.5,375.833 184.5,374.167 184.5,372.5C 216.438,390.137 248.105,408.304 279.5,427C 288.167,431.667 296.833,431.667 305.5,427C 354.833,398.333 404.167,369.667 453.5,341C 457.278,338.888 460.778,336.388 464,333.5C 464.21,335.058 464.71,336.391 465.5,337.5 Z"/></g>
<g><path style="opacity:1" fill="#ccd1de" d="M 71.5,336.5 C 100.636,352.902 129.636,369.569 158.5,386.5C 159.833,387.833 159.833,389.167 158.5,390.5C 129.833,373.833 101.167,357.167 72.5,340.5C 71.5713,339.311 71.238,337.978 71.5,336.5 Z"/></g>
<g><path style="opacity:1" fill="#77c973" d="M 464.5,340.5 C 465.359,345.28 463.692,348.78 459.5,351C 406.461,382.186 353.128,412.853 299.5,443C 292.129,444.31 285.129,443.31 278.5,440C 251.5,424.333 224.5,408.667 197.5,393C 199.818,391.007 202.484,389.841 205.5,389.5C 231.779,404.309 258.112,419.143 284.5,434C 289.5,434.667 294.5,434.667 299.5,434C 354.54,403.398 409.04,371.898 463,339.5C 463.383,340.056 463.883,340.389 464.5,340.5 Z"/></g>
<g><path style="opacity:1" fill="#6dad6b" d="M 464.5,340.5 C 465.645,344.311 465.812,348.311 465,352.5C 463.961,353.71 462.794,354.71 461.5,355.5C 410.03,385.069 358.697,414.903 307.5,445C 296.613,451.311 285.946,450.977 275.5,444C 245.279,426.273 214.945,408.773 184.5,391.5C 184.5,386.833 184.5,382.167 184.5,377.5C 191.671,381.251 198.671,385.251 205.5,389.5C 202.484,389.841 199.818,391.007 197.5,393C 224.5,408.667 251.5,424.333 278.5,440C 285.129,443.31 292.129,444.31 299.5,443C 353.128,412.853 406.461,382.186 459.5,351C 463.692,348.78 465.359,345.28 464.5,340.5 Z"/></g>
<g><path style="opacity:1" fill="#cbd1de" d="M 71.5,348.5 C 99.976,365.241 128.643,381.741 157.5,398C 159.421,399.241 159.754,400.741 158.5,402.5C 129.704,386.2 101.038,369.7 72.5,353C 71.6198,351.644 71.2865,350.144 71.5,348.5 Z"/></g>
<g><path style="opacity:1" fill="#e2e7f2" d="M 461.5,355.5 C 461.5,362.167 461.5,368.833 461.5,375.5C 460.683,377.969 460.183,380.635 460,383.5C 458.127,385.709 455.96,387.542 453.5,389C 405.5,417 357.5,445 309.5,473C 300.282,478.807 290.616,479.807 280.5,476C 248.636,457.236 216.636,438.736 184.5,420.5C 184.5,410.833 184.5,401.167 184.5,391.5C 214.945,408.773 245.279,426.273 275.5,444C 285.946,450.977 296.613,451.311 307.5,445C 358.697,414.903 410.03,385.069 461.5,355.5 Z"/></g>
<g><path style="opacity:1" fill="#cbd1de" d="M 71.5,361.5 C 100.445,377.976 129.445,394.476 158.5,411C 159.554,412.388 159.72,413.888 159,415.5C 130.745,398.621 102.245,382.121 73.5,366C 71.9632,364.89 71.2965,363.39 71.5,361.5 Z"/></g>
<g><path style="opacity:1" fill="#cbd1de" d="M 71.5,373.5 C 100.636,389.902 129.636,406.569 158.5,423.5C 159.614,424.723 159.781,426.056 159,427.5C 130.085,410.96 101.252,394.293 72.5,377.5C 71.5713,376.311 71.238,374.978 71.5,373.5 Z"/></g>
<g><path style="opacity:1" fill="#7acb7a" d="M 461.5,375.5 C 463.262,376.262 464.262,377.596 464.5,379.5C 465.295,383.594 463.962,386.761 460.5,389C 409.336,418.414 358.336,448.081 307.5,478C 299.619,482.622 291.286,483.622 282.5,481C 250.19,461.684 217.524,443.184 184.5,425.5C 184.5,423.833 184.5,422.167 184.5,420.5C 216.636,438.736 248.636,457.236 280.5,476C 290.616,479.807 300.282,478.807 309.5,473C 357.5,445 405.5,417 453.5,389C 455.96,387.542 458.127,385.709 460,383.5C 460.183,380.635 460.683,377.969 461.5,375.5 Z"/></g>
<g><path style="opacity:1" fill="#cbd1de" d="M 71.5,385.5 C 98.4726,400.988 125.473,416.488 152.5,432C 155.492,433.315 157.825,435.315 159.5,438C 158.423,439.543 157.089,439.543 155.5,438C 127.749,421.707 99.9152,405.54 72,389.5C 71.51,388.207 71.3433,386.873 71.5,385.5 Z"/></g>
<g><path style="opacity:1" fill="#71b071" d="M 464.5,379.5 C 465.643,382.976 465.81,386.642 465,390.5C 464.535,391.931 463.701,393.097 462.5,394C 412.003,423.081 361.669,452.414 311.5,482C 301.843,488.798 291.51,490.132 280.5,486C 248.612,467.273 216.612,448.773 184.5,430.5C 183.218,427.064 183.218,423.731 184.5,420.5C 184.5,422.167 184.5,423.833 184.5,425.5C 217.524,443.184 250.19,461.684 282.5,481C 291.286,483.622 299.619,482.622 307.5,478C 358.336,448.081 409.336,418.414 460.5,389C 463.962,386.761 465.295,383.594 464.5,379.5 Z"/></g>
<g><path style="opacity:1" fill="#cbd1de" d="M 71.5,398.5 C 100.77,414.47 129.77,430.97 158.5,448C 159.554,449.388 159.72,450.888 159,452.5C 130.745,435.621 102.245,419.121 73.5,403C 71.9632,401.89 71.2965,400.39 71.5,398.5 Z"/></g>
<g><path style="opacity:1" fill="#cbd1de" d="M 71.5,410.5 C 99.806,426.655 128.139,442.821 156.5,459C 158.847,460.191 159.68,462.024 159,464.5C 130.085,447.96 101.252,431.293 72.5,414.5C 71.5713,413.311 71.238,411.978 71.5,410.5 Z"/></g>
<g><path style="opacity:1" fill="#cbd1de" d="M 71.5,422.5 C 100.309,439.408 129.309,456.074 158.5,472.5C 159.833,473.833 159.833,475.167 158.5,476.5C 129.997,459.747 101.33,443.247 72.5,427C 71.6198,425.644 71.2865,424.144 71.5,422.5 Z"/></g>
</svg>
