<?xml version="1.0" encoding="UTF-8"?>
<!DOCTYPE svg PUBLIC "-//W3C//DTD SVG 1.1//EN" "http://www.w3.org/Graphics/SVG/1.1/DTD/svg11.dtd">
<svg xmlns="http://www.w3.org/2000/svg" version="1.1" width="512px" height="512px" style="shape-rendering:geometricPrecision; text-rendering:geometricPrecision; image-rendering:optimizeQuality; fill-rule:evenodd; clip-rule:evenodd" xmlns:xlink="http://www.w3.org/1999/xlink">
<g><path style="opacity:0.988" fill="#1e76da" d="M 482.5,68.5 C 473.339,63.7536 464.339,58.7536 455.5,53.5C 452.833,52.1667 450.167,50.8333 447.5,49.5C 438.833,44.8333 430.167,40.1667 421.5,35.5C 425.321,28.5271 429.154,21.5271 433,14.5C 436.662,8.70827 441.995,5.70827 449,5.5C 454.87,6.68323 460.37,8.8499 465.5,12C 472.833,16 480.167,20 487.5,24C 495.164,29.8343 497.664,37.3343 495,46.5C 491.059,54.0584 486.892,61.3917 482.5,68.5 Z"/></g>
<g><path style="opacity:1" fill="#fe80a7" d="M 421.5,35.5 C 430.167,40.1667 438.833,44.8333 447.5,49.5C 435.719,70.8931 424.052,92.3931 412.5,114C 409.485,114.201 406.485,113.868 403.5,113C 396.818,110.717 390.151,108.55 383.5,106.5C 384.11,105.609 384.443,104.609 384.5,103.5C 396.833,80.8333 409.167,58.1667 421.5,35.5 Z"/></g>
<g><path style="opacity:1" fill="#fe80a7" d="M 455.5,53.5 C 464.339,58.7536 473.339,63.7536 482.5,68.5C 476.755,80.3233 470.755,91.9899 464.5,103.5C 461.833,107.5 459.167,111.5 456.5,115.5C 445.707,116.433 434.707,116.433 423.5,115.5C 434.724,95.0511 445.39,74.3844 455.5,53.5 Z"/></g>
<g><path style="opacity:0.999" fill="#a2dbf1" d="M 373.5,103.5 C 365.579,117.674 357.912,132.008 350.5,146.5C 243.665,146.167 136.999,146.501 30.5,147.5C 25.5,147.5 20.5,147.5 15.5,147.5C 15.5,188.833 15.5,230.167 15.5,271.5C 15.1667,271.5 14.8333,271.5 14.5,271.5C 14.3333,223.166 14.5,174.832 15,126.5C 16.3658,116.137 21.8658,108.97 31.5,105C 145.443,103.506 259.443,103.006 373.5,103.5 Z"/></g>
<g><path style="opacity:1" fill="#65c1e6" d="M 373.5,103.5 C 377.167,103.5 380.833,103.5 384.5,103.5C 384.443,104.609 384.11,105.609 383.5,106.5C 376.167,119.833 368.833,133.167 361.5,146.5C 357.833,146.5 354.167,146.5 350.5,146.5C 357.912,132.008 365.579,117.674 373.5,103.5 Z"/></g>
<g><path style="opacity:1" fill="#64c2e7" d="M 464.5,103.5 C 467.916,103.528 470.916,104.528 473.5,106.5C 465.675,119.477 458.341,132.811 451.5,146.5C 447.833,146.5 444.167,146.5 440.5,146.5C 445.565,136.037 450.898,125.703 456.5,115.5C 459.167,111.5 461.833,107.5 464.5,103.5 Z"/></g>
<g><path style="opacity:0.985" fill="#a2dbf1" d="M 473.5,106.5 C 479.227,109.729 483.393,114.396 486,120.5C 487.381,129.432 487.881,138.432 487.5,147.5C 487.167,147.5 486.833,147.5 486.5,147.5C 481.695,146.513 476.695,146.179 471.5,146.5C 464.833,146.5 458.167,146.5 451.5,146.5C 458.341,132.811 465.675,119.477 473.5,106.5 Z"/></g>
<g><path style="opacity:1" fill="#fe306e" d="M 447.5,49.5 C 450.167,50.8333 452.833,52.1667 455.5,53.5C 445.39,74.3844 434.724,95.0511 423.5,115.5C 434.707,116.433 445.707,116.433 456.5,115.5C 450.898,125.703 445.565,136.037 440.5,146.5C 439.833,146.5 439.5,146.833 439.5,147.5C 434.833,156.167 430.167,164.833 425.5,173.5C 422.515,178.798 419.515,184.132 416.5,189.5C 411.454,179.076 406.12,168.742 400.5,158.5C 407.566,144.701 414.9,131.035 422.5,117.5C 418.869,115.945 415.203,115.612 411.5,116.5C 404.805,128.85 398.138,141.184 391.5,153.5C 379.788,153.987 368.121,154.987 356.5,156.5C 358.091,153.648 359.424,150.648 360.5,147.5C 361.167,147.5 361.5,147.167 361.5,146.5C 368.833,133.167 376.167,119.833 383.5,106.5C 390.151,108.55 396.818,110.717 403.5,113C 406.485,113.868 409.485,114.201 412.5,114C 424.052,92.3931 435.719,70.8931 447.5,49.5 Z"/></g>
<g><path style="opacity:1" fill="#cd1259" d="M 400.5,158.5 C 397.594,156.55 394.594,154.883 391.5,153.5C 398.138,141.184 404.805,128.85 411.5,116.5C 415.203,115.612 418.869,115.945 422.5,117.5C 414.9,131.035 407.566,144.701 400.5,158.5 Z"/></g>
<g><path style="opacity:1" fill="#237adb" d="M 210.5,121.5 C 224.504,121.333 238.504,121.5 252.5,122C 255.418,125.472 255.085,128.472 251.5,131C 238.167,131.667 224.833,131.667 211.5,131C 207.956,128.127 207.623,124.96 210.5,121.5 Z"/></g>
<g><path style="opacity:1" fill="#247adb" d="M 266.5,121.5 C 271.511,121.334 276.511,121.501 281.5,122C 284.418,125.472 284.085,128.472 280.5,131C 275.833,131.667 271.167,131.667 266.5,131C 263.888,127.836 263.888,124.669 266.5,121.5 Z"/></g>
<g><path style="opacity:1" fill="#e7ecd7" d="M 350.5,146.5 C 354.167,146.5 357.833,146.5 361.5,146.5C 361.5,147.167 361.167,147.5 360.5,147.5C 356.833,147.5 353.167,147.5 349.5,147.5C 243.5,147.5 137.5,147.5 31.5,147.5C 31.5,191.5 31.5,235.5 31.5,279.5C 31.1667,279.5 30.8333,279.5 30.5,279.5C 30.5,235.5 30.5,191.5 30.5,147.5C 136.999,146.501 243.665,146.167 350.5,146.5 Z"/></g>
<g><path style="opacity:1" fill="#1d76db" d="M 30.5,147.5 C 30.5,191.5 30.5,235.5 30.5,279.5C 30.5,300.167 30.5,320.833 30.5,341.5C 25.5,341.5 20.5,341.5 15.5,341.5C 15.5,318.167 15.5,294.833 15.5,271.5C 15.5,230.167 15.5,188.833 15.5,147.5C 20.5,147.5 25.5,147.5 30.5,147.5 Z"/></g>
<g><path style="opacity:1" fill="#fcf3d3" d="M 349.5,147.5 C 344.101,157.132 339.101,166.966 334.5,177C 336.13,183.556 337.963,190.056 340,196.5C 340.667,198.167 340.667,199.833 340,201.5C 328.828,208.166 318.662,216.166 309.5,225.5C 301.094,235.316 292.927,245.316 285,255.5C 268.532,272.154 249.032,283.821 226.5,290.5C 225.71,289.206 224.71,288.039 223.5,287C 214.167,286.333 204.833,286.333 195.5,287C 191.915,289.528 191.582,292.528 194.5,296C 203.827,296.5 213.161,296.666 222.5,296.5C 204.89,297.426 187.223,299.259 169.5,302C 146.417,303.119 123.417,302.286 100.5,299.5C 103.23,282.065 96.2295,270.565 79.5,265C 63.4609,263.552 52.7942,270.386 47.5,285.5C 42.4379,284.035 37.4379,282.368 32.5,280.5C 32.5,279.833 32.1667,279.5 31.5,279.5C 31.5,235.5 31.5,191.5 31.5,147.5C 137.5,147.5 243.5,147.5 349.5,147.5 Z"/></g>
<g><path style="opacity:1" fill="#fbf3d1" d="M 439.5,147.5 C 439.5,146.833 439.833,146.5 440.5,146.5C 444.167,146.5 447.833,146.5 451.5,146.5C 458.167,146.5 464.833,146.5 471.5,146.5C 471.5,154.833 471.5,163.167 471.5,171.5C 460.114,171.709 448.781,171.709 437.5,171.5C 441.706,163.586 446.04,155.753 450.5,148C 446.848,147.501 443.182,147.335 439.5,147.5 Z"/></g>
<g><path style="opacity:1" fill="#1d76db" d="M 486.5,147.5 C 486.5,212.167 486.5,276.833 486.5,341.5C 481.833,341.5 477.167,341.5 472.5,341.5C 472.5,276.833 472.5,212.167 472.5,147.5C 477.167,147.5 481.833,147.5 486.5,147.5 Z"/></g>
<g><path style="opacity:1" fill="#2e77d9" d="M 98.5,190.5 C 91.033,198.136 83.6997,205.969 76.5,214C 74.5,214.667 72.5,214.667 70.5,214C 65.5247,209.869 61.5247,205.035 58.5,199.5C 59.4372,195.717 61.7705,194.217 65.5,195C 67.9757,196.309 69.9757,198.142 71.5,200.5C 72.365,201.583 73.365,201.749 74.5,201C 80.5233,195.086 86.19,188.919 91.5,182.5C 95.0355,178.645 98.7021,174.812 102.5,171C 107.84,170.011 110.34,172.178 110,177.5C 106.33,182.002 102.497,186.335 98.5,190.5 Z"/></g>
<g><path style="opacity:1" fill="#f9db71" d="M 349.5,147.5 C 353.167,147.5 356.833,147.5 360.5,147.5C 359.424,150.648 358.091,153.648 356.5,156.5C 352.14,163.378 348.14,170.545 344.5,178C 346.479,184.099 348.145,190.266 349.5,196.5C 346.248,197.615 343.581,199.448 341.5,202C 343.293,210.08 345.793,217.913 349,225.5C 353.53,231.171 359.363,233.004 366.5,231C 380.262,227.615 393.929,223.948 407.5,220C 409.848,219.654 411.681,218.487 413,216.5C 420.833,202.167 428.667,187.833 436.5,173.5C 433.015,173.311 429.348,173.311 425.5,173.5C 430.167,164.833 434.833,156.167 439.5,147.5C 443.182,147.335 446.848,147.501 450.5,148C 446.04,155.753 441.706,163.586 437.5,171.5C 448.781,171.709 460.114,171.709 471.5,171.5C 471.5,228.167 471.5,284.833 471.5,341.5C 428.5,341.5 385.5,341.5 342.5,341.5C 238.833,341.5 135.167,341.5 31.5,341.5C 31.1695,320.993 31.5028,300.66 32.5,280.5C 37.4379,282.368 42.4379,284.035 47.5,285.5C 46.4978,308.665 57.4978,319.499 80.5,318C 90.5747,315.422 97.2414,309.256 100.5,299.5C 123.417,302.286 146.417,303.119 169.5,302C 187.223,299.259 204.89,297.426 222.5,296.5C 225.776,295.878 227.109,293.878 226.5,290.5C 249.032,283.821 268.532,272.154 285,255.5C 292.927,245.316 301.094,235.316 309.5,225.5C 318.662,216.166 328.828,208.166 340,201.5C 340.667,199.833 340.667,198.167 340,196.5C 337.963,190.056 336.13,183.556 334.5,177C 339.101,166.966 344.101,157.132 349.5,147.5 Z"/></g>
<g><path style="opacity:1" fill="#fcf3d3" d="M 391.5,153.5 C 394.594,154.883 397.594,156.55 400.5,158.5C 406.12,168.742 411.454,179.076 416.5,189.5C 412.846,196.14 409.179,202.806 405.5,209.5C 396.627,212.569 387.627,215.235 378.5,217.5C 377.514,212.706 376.014,208.04 374,203.5C 370.257,199.741 365.757,198.574 360.5,200C 358.412,201.03 356.245,201.863 354,202.5C 352.97,202.836 352.47,203.503 352.5,204.5C 351.749,201.754 350.749,199.087 349.5,196.5C 348.145,190.266 346.479,184.099 344.5,178C 348.14,170.545 352.14,163.378 356.5,156.5C 368.121,154.987 379.788,153.987 391.5,153.5 Z"/></g>
<g><path style="opacity:1" fill="#5590c4" d="M 471.5,146.5 C 476.695,146.179 481.695,146.513 486.5,147.5C 481.833,147.5 477.167,147.5 472.5,147.5C 472.5,212.167 472.5,276.833 472.5,341.5C 472.167,341.5 471.833,341.5 471.5,341.5C 471.5,284.833 471.5,228.167 471.5,171.5C 471.5,163.167 471.5,154.833 471.5,146.5 Z"/></g>
<g><path style="opacity:0.992" fill="#7eaec0" d="M 486.5,147.5 C 486.833,147.5 487.167,147.5 487.5,147.5C 487.5,212.5 487.5,277.5 487.5,342.5C 439.167,342.5 390.833,342.5 342.5,342.5C 342.5,342.167 342.5,341.833 342.5,341.5C 385.5,341.5 428.5,341.5 471.5,341.5C 471.833,341.5 472.167,341.5 472.5,341.5C 477.167,341.5 481.833,341.5 486.5,341.5C 486.5,276.833 486.5,212.167 486.5,147.5 Z"/></g>
<g><path style="opacity:1" fill="#f8b327" d="M 349.5,196.5 C 350.749,199.087 351.749,201.754 352.5,204.5C 353.664,210.332 355.664,215.832 358.5,221C 365.272,220.812 371.939,219.645 378.5,217.5C 387.627,215.235 396.627,212.569 405.5,209.5C 409.179,202.806 412.846,196.14 416.5,189.5C 419.515,184.132 422.515,178.798 425.5,173.5C 429.348,173.311 433.015,173.311 436.5,173.5C 428.667,187.833 420.833,202.167 413,216.5C 411.681,218.487 409.848,219.654 407.5,220C 393.929,223.948 380.262,227.615 366.5,231C 359.363,233.004 353.53,231.171 349,225.5C 345.793,217.913 343.293,210.08 341.5,202C 343.581,199.448 346.248,197.615 349.5,196.5 Z"/></g>
<g><path style="opacity:1" fill="#fe739d" d="M 91.5,182.5 C 86.19,188.919 80.5233,195.086 74.5,201C 73.365,201.749 72.365,201.583 71.5,200.5C 69.9757,198.142 67.9757,196.309 65.5,195C 61.7705,194.217 59.4372,195.717 58.5,199.5C 61.5247,205.035 65.5247,209.869 70.5,214C 72.5,214.667 74.5,214.667 76.5,214C 83.6997,205.969 91.033,198.136 98.5,190.5C 104.38,204.246 101.713,216.08 90.5,226C 72.8389,235.628 59.0055,231.795 49,214.5C 44.0603,193.288 52.227,180.622 73.5,176.5C 79.9914,177.108 85.9914,179.108 91.5,182.5 Z"/></g>
<g><path style="opacity:1" fill="#32a5e7" d="M 122.5,187.5 C 132.172,187.334 141.839,187.5 151.5,188C 155.482,191.048 155.482,194.048 151.5,197C 141.833,197.667 132.167,197.667 122.5,197C 119.888,193.836 119.888,190.669 122.5,187.5 Z"/></g>
<g><path style="opacity:1" fill="#31a5e7" d="M 170.5,187.5 C 188.17,187.333 205.836,187.5 223.5,188C 227.072,190.626 227.405,193.626 224.5,197C 206.5,197.667 188.5,197.667 170.5,197C 167.888,193.836 167.888,190.669 170.5,187.5 Z"/></g>
<g><path style="opacity:1" fill="#2678d9" d="M 378.5,217.5 C 371.939,219.645 365.272,220.812 358.5,221C 355.664,215.832 353.664,210.332 352.5,204.5C 352.47,203.503 352.97,202.836 354,202.5C 356.245,201.863 358.412,201.03 360.5,200C 365.757,198.574 370.257,199.741 374,203.5C 376.014,208.04 377.514,212.706 378.5,217.5 Z"/></g>
<g><path style="opacity:1" fill="#34a6e7" d="M 122.5,210.5 C 156.502,210.333 190.502,210.5 224.5,211C 227.311,214.294 226.978,217.294 223.5,220C 189.833,220.667 156.167,220.667 122.5,220C 119.888,216.836 119.888,213.669 122.5,210.5 Z"/></g>
<g><path style="opacity:1" fill="#2c77d8" d="M 310.5,279.5 C 303.73,286.771 296.73,293.938 289.5,301C 287.833,301.667 286.167,301.667 284.5,301C 280.667,297.167 276.833,293.333 273,289.5C 271.766,282.069 274.6,279.902 281.5,283C 283.24,285.035 285.074,286.869 287,288.5C 293.052,282.95 298.552,276.95 303.5,270.5C 307.997,266.836 311.997,262.669 315.5,258C 322.931,256.766 325.098,259.6 322,266.5C 317.564,270.428 313.731,274.761 310.5,279.5 Z"/></g>
<g><path style="opacity:1" fill="#a3dcf1" d="M 100.5,299.5 C 97.2414,309.256 90.5747,315.422 80.5,318C 57.4978,319.499 46.4978,308.665 47.5,285.5C 52.7942,270.386 63.4609,263.552 79.5,265C 96.2295,270.565 103.23,282.065 100.5,299.5 Z"/></g>
<g><path style="opacity:1" fill="#fe729b" d="M 303.5,270.5 C 298.552,276.95 293.052,282.95 287,288.5C 285.074,286.869 283.24,285.035 281.5,283C 274.6,279.902 271.766,282.069 273,289.5C 276.833,293.333 280.667,297.167 284.5,301C 286.167,301.667 287.833,301.667 289.5,301C 296.73,293.938 303.73,286.771 310.5,279.5C 316.726,291.892 314.726,303.058 304.5,313C 295.826,318.575 286.493,319.909 276.5,317C 262.83,309.825 257.664,298.658 261,283.5C 266.809,269.359 277.309,263.192 292.5,265C 296.507,266.337 300.173,268.17 303.5,270.5 Z"/></g>
<g><path style="opacity:0.675" fill="#cad4b5" d="M 14.5,271.5 C 14.8333,271.5 15.1667,271.5 15.5,271.5C 15.5,294.833 15.5,318.167 15.5,341.5C 20.5,341.5 25.5,341.5 30.5,341.5C 30.8333,341.5 31.1667,341.5 31.5,341.5C 135.167,341.5 238.833,341.5 342.5,341.5C 342.5,341.833 342.5,342.167 342.5,342.5C 342.167,342.5 341.833,342.5 341.5,342.5C 330.167,342.5 318.833,342.5 307.5,342.5C 209.833,342.5 112.167,342.5 14.5,342.5C 14.5,318.833 14.5,295.167 14.5,271.5 Z"/></g>
<g><path style="opacity:1" fill="#39a5e3" d="M 338.5,276.5 C 372.168,276.333 405.835,276.5 439.5,277C 442.978,279.706 443.311,282.706 440.5,286C 406.167,286.667 371.833,286.667 337.5,286C 334.675,282.476 335.008,279.31 338.5,276.5 Z"/></g>
<g><path style="opacity:1" fill="#dacd81" d="M 30.5,279.5 C 30.8333,279.5 31.1667,279.5 31.5,279.5C 32.1667,279.5 32.5,279.833 32.5,280.5C 31.5028,300.66 31.1695,320.993 31.5,341.5C 31.1667,341.5 30.8333,341.5 30.5,341.5C 30.5,320.833 30.5,300.167 30.5,279.5 Z"/></g>
<g><path style="opacity:1" fill="#38a6e7" d="M 122.5,286.5 C 140.17,286.333 157.836,286.5 175.5,287C 179.072,289.626 179.405,292.626 176.5,296C 158.5,296.667 140.5,296.667 122.5,296C 119.888,292.836 119.888,289.669 122.5,286.5 Z"/></g>
<g><path style="opacity:1" fill="#38a6e6" d="M 226.5,290.5 C 227.109,293.878 225.776,295.878 222.5,296.5C 213.161,296.666 203.827,296.5 194.5,296C 191.582,292.528 191.915,289.528 195.5,287C 204.833,286.333 214.167,286.333 223.5,287C 224.71,288.039 225.71,289.206 226.5,290.5 Z"/></g>
<g><path style="opacity:1" fill="#32a4e6" d="M 338.5,299.5 C 356.17,299.333 373.836,299.5 391.5,300C 395.5,303 395.5,306 391.5,309C 373.833,309.667 356.167,309.667 338.5,309C 334.581,305.84 334.581,302.673 338.5,299.5 Z"/></g>
<g><path style="opacity:1" fill="#31a4e6" d="M 410.5,299.5 C 420.172,299.334 429.839,299.5 439.5,300C 443.482,302.952 443.482,305.952 439.5,309C 429.833,309.667 420.167,309.667 410.5,309C 407.888,305.836 407.888,302.669 410.5,299.5 Z"/></g>
<g><path style="opacity:0.999" fill="#a2dbf1" d="M 14.5,342.5 C 112.167,342.5 209.833,342.5 307.5,342.5C 294.359,353.632 280.359,363.632 265.5,372.5C 263.833,370.5 262.167,368.5 260.5,366.5C 250.129,360.759 242.629,363.426 238,374.5C 237.297,377.482 237.797,380.149 239.5,382.5C 240.11,383.391 240.443,384.391 240.5,385.5C 222.091,394.583 202.757,401.417 182.5,406C 162.188,410.127 141.855,412.96 121.5,414.5C 92.4981,414.667 63.4981,414.5 34.5,414C 23.3624,410.528 16.8624,403.028 15,391.5C 14.5001,375.17 14.3334,358.837 14.5,342.5 Z"/></g>
<g><path style="opacity:1" fill="#60c2e8" d="M 307.5,342.5 C 318.833,342.5 330.167,342.5 341.5,342.5C 335.718,367.8 339.051,391.8 351.5,414.5C 332.14,414.217 312.806,414.55 293.5,415.5C 266.167,414.167 238.833,414.167 211.5,415.5C 181.521,414.539 151.521,414.206 121.5,414.5C 141.855,412.96 162.188,410.127 182.5,406C 202.757,401.417 222.091,394.583 240.5,385.5C 246.455,391.131 253.122,391.965 260.5,388C 264.658,383.693 266.324,378.526 265.5,372.5C 280.359,363.632 294.359,353.632 307.5,342.5 Z"/></g>
<g><path style="opacity:1" fill="#2ca4e7" d="M 341.5,342.5 C 341.833,342.5 342.167,342.5 342.5,342.5C 390.833,342.5 439.167,342.5 487.5,342.5C 487.667,359.503 487.5,376.503 487,393.5C 484.339,403.494 478.172,410.328 468.5,414C 429.501,414.5 390.501,414.667 351.5,414.5C 339.051,391.8 335.718,367.8 341.5,342.5 Z"/></g>
<g><path style="opacity:1" fill="#1d77db" d="M 460.5,360.5 C 463.325,360.081 465.491,361.081 467,363.5C 469.985,390.842 457.818,402.009 430.5,397C 427.833,394 427.833,391 430.5,388C 437.167,387.667 443.833,387.333 450.5,387C 452.624,385.878 454.457,384.378 456,382.5C 457.251,376.275 457.917,369.942 458,363.5C 458.698,362.309 459.531,361.309 460.5,360.5 Z"/></g>
<g><path style="opacity:1" fill="#3f82dd" d="M 260.5,366.5 C 257.854,377.953 250.854,383.286 239.5,382.5C 237.797,380.149 237.297,377.482 238,374.5C 242.629,363.426 250.129,360.759 260.5,366.5 Z"/></g>
<g><path style="opacity:1" fill="#354bb8" d="M 260.5,366.5 C 262.167,368.5 263.833,370.5 265.5,372.5C 266.324,378.526 264.658,383.693 260.5,388C 253.122,391.965 246.455,391.131 240.5,385.5C 240.443,384.391 240.11,383.391 239.5,382.5C 250.854,383.286 257.854,377.953 260.5,366.5 Z"/></g>
<g><path style="opacity:1" fill="#1d78db" d="M 398.5,387.5 C 403.844,387.334 409.177,387.501 414.5,388C 418.5,391 418.5,394 414.5,397C 409.167,397.667 403.833,397.667 398.5,397C 395.888,393.836 395.888,390.669 398.5,387.5 Z"/></g>
<g><path style="opacity:1" fill="#4aade8" d="M 293.5,415.5 C 289.932,417.41 287.932,420.41 287.5,424.5C 264.167,424.5 240.833,424.5 217.5,424.5C 216.356,421.005 214.356,418.005 211.5,415.5C 238.833,414.167 266.167,414.167 293.5,415.5 Z"/></g>
<g><path style="opacity:0.993" fill="#a2dbf1" d="M 217.5,424.5 C 240.833,424.5 264.167,424.5 287.5,424.5C 287.739,428.842 288.073,433.176 288.5,437.5C 272.45,452.687 254.117,464.52 233.5,473C 225.705,475.782 217.705,477.616 209.5,478.5C 212.164,460.527 214.831,442.527 217.5,424.5 Z"/></g>
<g><path style="opacity:1" fill="#60c3e8" d="M 288.5,437.5 C 291.534,456.408 294.201,475.408 296.5,494.5C 266.833,494.5 237.167,494.5 207.5,494.5C 208.446,489.207 209.113,483.874 209.5,478.5C 217.705,477.616 225.705,475.782 233.5,473C 254.117,464.52 272.45,452.687 288.5,437.5 Z"/></g>
<g><path style="opacity:0.989" fill="#1d77db" d="M 207.5,494.5 C 237.167,494.5 266.833,494.5 296.5,494.5C 307.172,494.333 317.839,494.5 328.5,495C 332.311,498.723 331.977,502.056 327.5,505C 277.5,505.667 227.5,505.667 177.5,505C 173.788,503.368 172.621,500.535 174,496.5C 174.5,496 175,495.5 175.5,495C 186.161,494.5 196.828,494.333 207.5,494.5 Z"/></g>
</svg>
