<?xml version="1.0" encoding="UTF-8"?>
<!DOCTYPE svg PUBLIC "-//W3C//DTD SVG 1.1//EN" "http://www.w3.org/Graphics/SVG/1.1/DTD/svg11.dtd">
<svg xmlns="http://www.w3.org/2000/svg" version="1.1" width="512px" height="512px" style="shape-rendering:geometricPrecision; text-rendering:geometricPrecision; image-rendering:optimizeQuality; fill-rule:evenodd; clip-rule:evenodd" xmlns:xlink="http://www.w3.org/1999/xlink">
<g><path style="opacity:1" fill="#8ccafe" d="M 175.5,-0.5 C 181.5,-0.5 187.5,-0.5 193.5,-0.5C 190.528,1.64111 188.028,4.30777 186,7.5C 185.5,15.1594 185.334,22.8261 185.5,30.5C 179.31,30.8229 173.31,30.4896 167.5,29.5C 167.334,22.4921 167.5,15.4921 168,8.5C 169.113,4.23406 171.613,1.23406 175.5,-0.5 Z"/></g>
<g><path style="opacity:0.991" fill="#b1dafc" d="M 193.5,-0.5 C 194.167,-0.5 194.833,-0.5 195.5,-0.5C 198.139,1.30904 200.306,3.64238 202,6.5C 203.311,14.1052 203.811,21.7718 203.5,29.5C 197.591,30.4553 191.591,30.7886 185.5,30.5C 185.334,22.8261 185.5,15.1594 186,7.5C 188.028,4.30777 190.528,1.64111 193.5,-0.5 Z"/></g>
<g><path style="opacity:0.998" fill="#deebfa" d="M 167.5,29.5 C 173.31,30.4896 179.31,30.8229 185.5,30.5C 191.591,30.7886 197.591,30.4553 203.5,29.5C 229.835,29.3334 256.169,29.5 282.5,30C 287.778,30.7813 291.445,33.6146 293.5,38.5C 291.66,42.505 288.66,45.3383 284.5,47C 218.167,47.6667 151.833,47.6667 85.5,47C 82.0629,45.8951 79.5629,43.7284 78,40.5C 77.501,44.8206 77.3343,49.1539 77.5,53.5C 76.5386,51.7354 76.2053,49.7354 76.5,47.5C 75.2379,37.9456 79.2379,32.1123 88.5,30C 114.831,29.5 141.165,29.3334 167.5,29.5 Z"/></g>
<g><path style="opacity:1" fill="#b2d9f9" d="M 293.5,38.5 C 293.5,41.5 293.5,44.5 293.5,47.5C 294.834,54.6559 292.5,60.1559 286.5,64C 273.24,65.4444 259.907,65.9444 246.5,65.5C 241.5,65.5 236.5,65.5 231.5,65.5C 200.833,65.5 170.167,65.5 139.5,65.5C 134.167,65.5 128.833,65.5 123.5,65.5C 111.162,65.6665 98.8288,65.4999 86.5,65C 81.0105,63.0212 78.0105,59.1879 77.5,53.5C 77.3343,49.1539 77.501,44.8206 78,40.5C 79.5629,43.7284 82.0629,45.8951 85.5,47C 151.833,47.6667 218.167,47.6667 284.5,47C 288.66,45.3383 291.66,42.505 293.5,38.5 Z"/></g>
<g><path style="opacity:0.999" fill="#bb7c63" d="M 54.5,47.5 C 61.8333,47.5 69.1667,47.5 76.5,47.5C 76.2053,49.7354 76.5386,51.7354 77.5,53.5C 78.0105,59.1879 81.0105,63.0212 86.5,65C 98.8288,65.4999 111.162,65.6665 123.5,65.5C 123.5,75.1667 123.5,84.8333 123.5,94.5C 106.167,94.5 88.8333,94.5 71.5,94.5C 60.8281,94.3335 50.1615,94.5002 39.5,95C 38.6266,96.045 37.6266,96.8783 36.5,97.5C 36.3335,86.495 36.5002,75.495 37,64.5C 40.1095,55.8886 45.9428,50.2219 54.5,47.5 Z"/></g>
<g><path style="opacity:0.999" fill="#bb7b63" d="M 293.5,47.5 C 312.17,47.3334 330.836,47.5001 349.5,48C 356.909,50.4084 362.076,55.2417 365,62.5C 366.489,126.775 366.989,191.108 366.5,255.5C 364.057,259.954 362.057,264.621 360.5,269.5C 360.782,272.731 362.115,275.398 364.5,277.5C 355.071,294.034 345.404,310.367 335.5,326.5C 335.667,250.833 335.5,175.166 335,99.5C 333.833,97.6667 332.333,96.1667 330.5,95C 302.502,94.5 274.502,94.3334 246.5,94.5C 246.5,84.8333 246.5,75.1667 246.5,65.5C 259.907,65.9444 273.24,65.4444 286.5,64C 292.5,60.1559 294.834,54.6559 293.5,47.5 Z"/></g>
<g><path style="opacity:1" fill="#ab6b51" d="M 54.5,47.5 C 45.9428,50.2219 40.1095,55.8886 37,64.5C 36.5002,75.495 36.3335,86.495 36.5,97.5C 35.1667,224.167 35.1667,350.833 36.5,477.5C 33.6718,493.858 39.6718,505.191 54.5,511.5C 43.1667,511.5 31.8333,511.5 20.5,511.5C 16.8075,509.562 13.3075,507.229 10,504.5C 8.07973,501.661 6.41306,498.661 5,495.5C 4.33333,351.5 4.33333,207.5 5,63.5C 7.81805,55.5029 13.3181,50.3362 21.5,48C 32.495,47.5002 43.495,47.3335 54.5,47.5 Z"/></g>
<g><path style="opacity:1" fill="#695d67" d="M 123.5,65.5 C 128.833,65.5 134.167,65.5 139.5,65.5C 139.5,75.1667 139.5,84.8333 139.5,94.5C 139.334,99.8437 139.501,105.177 140,110.5C 140.5,111 141,111.5 141.5,112C 170.5,112.667 199.5,112.667 228.5,112C 229.333,111.167 230.167,110.333 231,109.5C 231.499,104.511 231.666,99.5111 231.5,94.5C 231.5,84.8333 231.5,75.1667 231.5,65.5C 236.5,65.5 241.5,65.5 246.5,65.5C 246.5,75.1667 246.5,84.8333 246.5,94.5C 246.666,100.509 246.499,106.509 246,112.5C 243.833,120 239,124.833 231.5,127C 200.167,127.667 168.833,127.667 137.5,127C 131.333,124.833 127.167,120.667 125,114.5C 123.671,107.908 123.171,101.241 123.5,94.5C 123.5,84.8333 123.5,75.1667 123.5,65.5 Z"/></g>
<g><path style="opacity:1" fill="#bb7b63" d="M 139.5,65.5 C 170.167,65.5 200.833,65.5 231.5,65.5C 231.5,75.1667 231.5,84.8333 231.5,94.5C 200.833,94.5 170.167,94.5 139.5,94.5C 139.5,84.8333 139.5,75.1667 139.5,65.5 Z"/></g>
<g><path style="opacity:1" fill="#b1dafb" d="M 71.5,94.5 C 69.525,95.6464 68.025,97.313 67,99.5C 66.5,122.498 66.3334,145.498 66.5,168.5C 54.5327,185.106 54.5327,201.772 66.5,218.5C 66.1679,264.003 66.5012,309.336 67.5,354.5C 65.0216,359.289 62.6883,364.123 60.5,369C 61.416,374.752 64.7493,377.252 70.5,376.5C 69.4324,377.434 68.099,377.768 66.5,377.5C 66.3334,410.168 66.5,442.835 67,475.5C 67.9973,477.323 69.1639,478.99 70.5,480.5C 60.1613,480.666 49.828,480.5 39.5,480C 38.6266,478.955 37.6266,478.122 36.5,477.5C 35.1667,350.833 35.1667,224.167 36.5,97.5C 37.6266,96.8783 38.6266,96.045 39.5,95C 50.1615,94.5002 60.8281,94.3335 71.5,94.5 Z"/></g>
<g><path style="opacity:1" fill="#deeaf9" d="M 71.5,94.5 C 88.8333,94.5 106.167,94.5 123.5,94.5C 123.171,101.241 123.671,107.908 125,114.5C 127.167,120.667 131.333,124.833 137.5,127C 168.833,127.667 200.167,127.667 231.5,127C 239,124.833 243.833,120 246,112.5C 246.499,106.509 246.666,100.509 246.5,94.5C 274.502,94.3334 302.502,94.5 330.5,95C 332.333,96.1667 333.833,97.6667 335,99.5C 335.5,175.166 335.667,250.833 335.5,326.5C 325.254,345.999 314.254,364.999 302.5,383.5C 302.667,364.497 302.5,345.497 302,326.5C 301.5,324.667 300.333,323.5 298.5,323C 257.664,322.707 216.83,322.207 176,321.5C 169.325,321.5 162.825,321.834 156.5,322.5C 154.248,322.916 152.748,324.249 152,326.5C 151.333,363.5 151.333,400.5 152,437.5C 153.167,438.667 154.333,439.833 155.5,441C 168.496,441.5 181.496,441.667 194.5,441.5C 225.833,441.5 257.167,441.5 288.5,441.5C 287.04,444.704 286.54,448.038 287,451.5C 288.938,453.978 291.105,454.145 293.5,452C 296.094,449.914 298.094,447.414 299.5,444.5C 307.833,436.833 315.833,428.833 323.5,420.5C 325.296,419.207 326.963,417.707 328.5,416C 330.92,415.71 333.254,415.21 335.5,414.5C 335.667,434.503 335.5,454.503 335,474.5C 334.315,477.057 332.815,478.891 330.5,480C 243.834,480.5 157.167,480.667 70.5,480.5C 69.1639,478.99 67.9973,477.323 67,475.5C 66.5,442.835 66.3334,410.168 66.5,377.5C 68.099,377.768 69.4324,377.434 70.5,376.5C 72.371,376.141 73.871,375.141 75,373.5C 76.5795,370.006 78.4128,366.673 80.5,363.5C 88.8333,362.167 97.1667,362.167 105.5,363.5C 107.246,367.327 109.246,370.993 111.5,374.5C 115.922,378.59 120.089,378.257 124,373.5C 124.667,370.833 124.667,368.167 124,365.5C 115.745,349.99 107.745,334.323 100,318.5C 95.2551,313.257 90.5884,313.257 86,318.5C 80.0061,330.641 73.8395,342.641 67.5,354.5C 66.5012,309.336 66.1679,264.003 66.5,218.5C 77.0385,228.053 89.3719,231.553 103.5,229C 108.172,236.88 113.339,237.38 119,230.5C 119.747,227.147 119.247,223.98 117.5,221C 119.985,217.177 122.485,213.344 125,209.5C 133.589,182.844 124.422,165.678 97.5,158C 85.594,156.957 75.2607,160.457 66.5,168.5C 66.3334,145.498 66.5,122.498 67,99.5C 68.025,97.313 69.525,95.6464 71.5,94.5 Z"/></g>
<g><path style="opacity:1" fill="#dce7f6" d="M 139.5,94.5 C 170.167,94.5 200.833,94.5 231.5,94.5C 231.666,99.5111 231.499,104.511 231,109.5C 230.167,110.333 229.333,111.167 228.5,112C 199.5,112.667 170.5,112.667 141.5,112C 141,111.5 140.5,111 140,110.5C 139.501,105.177 139.334,99.8437 139.5,94.5 Z"/></g>
<g><path style="opacity:1" fill="#b2dbfb" d="M 492.5,120.5 C 485.66,119.67 480.16,122.003 476,127.5C 472.887,132.729 470.053,138.062 467.5,143.5C 466.391,143.443 465.391,143.11 464.5,142.5C 460.48,140.134 456.48,137.801 452.5,135.5C 455.743,129.074 459.243,122.74 463,116.5C 471.659,107.646 480.659,107.312 490,115.5C 490.847,117.193 491.68,118.86 492.5,120.5 Z"/></g>
<g><path style="opacity:0.982" fill="#deeaf9" d="M 492.5,120.5 C 493.589,124.078 493.755,127.745 493,131.5C 489.154,138.527 485.321,145.527 481.5,152.5C 476.797,149.486 472.13,146.486 467.5,143.5C 470.053,138.062 472.887,132.729 476,127.5C 480.16,122.003 485.66,119.67 492.5,120.5 Z"/></g>
<g><path style="opacity:1" fill="#4f67d2" d="M 452.5,135.5 C 456.48,137.801 460.48,140.134 464.5,142.5C 457.86,146.974 452.36,152.641 448,159.5C 425.333,198.833 402.667,238.167 380,277.5C 379.009,279.808 378.176,282.141 377.5,284.5C 373.299,281.9 368.966,279.566 364.5,277.5C 362.115,275.398 360.782,272.731 360.5,269.5C 362.057,264.621 364.057,259.954 366.5,255.5C 387.559,219.726 408.392,183.726 429,147.5C 434.875,139.646 442.709,135.646 452.5,135.5 Z"/></g>
<g><path style="opacity:0.996" fill="#6b7dd6" d="M 464.5,142.5 C 465.391,143.11 466.391,143.443 467.5,143.5C 472.13,146.486 476.797,149.486 481.5,152.5C 484.508,159.275 485.175,166.275 483.5,173.5C 481.426,178.647 479.093,183.647 476.5,188.5C 455.459,225.706 433.792,262.54 411.5,299C 408.518,299.498 405.518,299.665 402.5,299.5C 396.201,295.012 389.534,291.012 382.5,287.5C 381.035,286.263 379.368,285.263 377.5,284.5C 378.176,282.141 379.009,279.808 380,277.5C 402.667,238.167 425.333,198.833 448,159.5C 452.36,152.641 457.86,146.974 464.5,142.5 Z"/></g>
<g><path style="opacity:1" fill="#fe6771" d="M 66.5,218.5 C 54.5327,201.772 54.5327,185.106 66.5,168.5C 75.2607,160.457 85.594,156.957 97.5,158C 124.422,165.678 133.589,182.844 125,209.5C 122.485,213.344 119.985,217.177 117.5,221C 119.247,223.98 119.747,227.147 119,230.5C 113.339,237.38 108.172,236.88 103.5,229C 89.3719,231.553 77.0385,228.053 66.5,218.5 Z"/></g>
<g><path style="opacity:1" fill="#fe4856" d="M 194.5,165.5 C 193.199,166.64 192.032,167.973 191,169.5C 190.501,175.491 190.334,181.491 190.5,187.5C 217.672,187.169 244.672,187.502 271.5,188.5C 241.165,188.333 210.832,188.5 180.5,189C 175.171,194.034 175.504,198.701 181.5,203C 184.482,203.498 187.482,203.665 190.5,203.5C 190.5,207.833 190.5,212.167 190.5,216.5C 217.672,216.169 244.672,216.502 271.5,217.5C 241.165,217.333 210.832,217.5 180.5,218C 175.171,223.034 175.504,227.701 181.5,232C 184.482,232.498 187.482,232.665 190.5,232.5C 190.5,236.833 190.5,241.167 190.5,245.5C 203.344,245.171 216.011,245.505 228.5,246.5C 212.497,246.333 196.497,246.5 180.5,247C 175.171,252.034 175.504,256.701 181.5,261C 184.482,261.498 187.482,261.665 190.5,261.5C 190.334,267.509 190.501,273.509 191,279.5C 191.465,280.931 192.299,282.097 193.5,283C 180.838,283.5 168.171,283.667 155.5,283.5C 153.827,282.657 152.66,281.324 152,279.5C 151.333,242.833 151.333,206.167 152,169.5C 152.833,168 154,166.833 155.5,166C 168.496,165.5 181.496,165.333 194.5,165.5 Z"/></g>
<g><path style="opacity:1" fill="#fe656f" d="M 194.5,165.5 C 229.168,165.333 263.835,165.5 298.5,166C 299.667,167.167 300.833,168.333 302,169.5C 302.667,206.167 302.667,242.833 302,279.5C 301.167,281.667 299.667,283.167 297.5,284C 249.998,284.832 202.665,284.665 155.5,283.5C 168.171,283.667 180.838,283.5 193.5,283C 192.299,282.097 191.465,280.931 191,279.5C 190.501,273.509 190.334,267.509 190.5,261.5C 203.504,261.667 216.504,261.5 229.5,261C 234.689,258.087 235.856,253.92 233,248.5C 231.67,247.418 230.17,246.751 228.5,246.5C 216.011,245.505 203.344,245.171 190.5,245.5C 190.5,241.167 190.5,236.833 190.5,232.5C 217.835,232.667 245.169,232.5 272.5,232C 276.861,229.774 278.361,226.274 277,221.5C 275.549,219.536 273.716,218.203 271.5,217.5C 244.672,216.502 217.672,216.169 190.5,216.5C 190.5,212.167 190.5,207.833 190.5,203.5C 217.835,203.667 245.169,203.5 272.5,203C 276.861,200.774 278.361,197.274 277,192.5C 275.549,190.536 273.716,189.203 271.5,188.5C 244.672,187.502 217.672,187.169 190.5,187.5C 190.334,181.491 190.501,175.491 191,169.5C 192.032,167.973 193.199,166.64 194.5,165.5 Z"/></g>
<g><path style="opacity:1" fill="#dfe8f7" d="M 86.5,173.5 C 103.891,171.581 112.725,179.247 113,196.5C 112.312,200.209 110.812,203.543 108.5,206.5C 107.07,203.567 105.07,201.067 102.5,199C 91.4277,198.752 88.761,203.419 94.5,213C 78.5652,212.724 71.3985,204.557 73,188.5C 75.2632,181.407 79.7632,176.407 86.5,173.5 Z"/></g>
<g><path style="opacity:0.952" fill="#4f66d2" d="M 483.5,173.5 C 501.646,182.791 508.812,197.458 505,217.5C 488.919,245.997 472.586,274.33 456,302.5C 444.877,306.707 440.544,303.04 443,291.5C 458.667,264.5 474.333,237.5 490,210.5C 490.313,200.294 485.813,192.961 476.5,188.5C 479.093,183.647 481.426,178.647 483.5,173.5 Z"/></g>
<g><path style="opacity:1" fill="#fc2d39" d="M 271.5,188.5 C 273.716,189.203 275.549,190.536 277,192.5C 278.361,197.274 276.861,200.774 272.5,203C 245.169,203.5 217.835,203.667 190.5,203.5C 187.482,203.665 184.482,203.498 181.5,203C 175.504,198.701 175.171,194.034 180.5,189C 210.832,188.5 241.165,188.333 271.5,188.5 Z"/></g>
<g><path style="opacity:1" fill="#fc2d39" d="M 271.5,217.5 C 273.716,218.203 275.549,219.536 277,221.5C 278.361,226.274 276.861,229.774 272.5,232C 245.169,232.5 217.835,232.667 190.5,232.5C 187.482,232.665 184.482,232.498 181.5,232C 175.504,227.701 175.171,223.034 180.5,218C 210.832,217.5 241.165,217.333 271.5,217.5 Z"/></g>
<g><path style="opacity:1" fill="#fc2d39" d="M 228.5,246.5 C 230.17,246.751 231.67,247.418 233,248.5C 235.856,253.92 234.689,258.087 229.5,261C 216.504,261.5 203.504,261.667 190.5,261.5C 187.482,261.665 184.482,261.498 181.5,261C 175.504,256.701 175.171,252.034 180.5,247C 196.497,246.5 212.497,246.333 228.5,246.5 Z"/></g>
<g><path style="opacity:1" fill="#334ccc" d="M 364.5,277.5 C 368.966,279.566 373.299,281.9 377.5,284.5C 379.368,285.263 381.035,286.263 382.5,287.5C 359.588,326.986 336.921,366.653 314.5,406.5C 309.806,403.821 305.139,401.155 300.5,398.5C 298.974,397.508 298.307,396.008 298.5,394C 299.153,390.202 300.486,386.702 302.5,383.5C 314.254,364.999 325.254,345.999 335.5,326.5C 345.404,310.367 355.071,294.034 364.5,277.5 Z"/></g>
<g><path style="opacity:0.996" fill="#4f67d1" d="M 382.5,287.5 C 389.534,291.012 396.201,295.012 402.5,299.5C 390.765,320.635 378.765,341.635 366.5,362.5C 356.181,379.798 345.848,397.131 335.5,414.5C 333.254,415.21 330.92,415.71 328.5,416C 326.963,417.707 325.296,419.207 323.5,420.5C 320.309,419.908 317.309,418.741 314.5,417C 310.316,415.835 307.483,417.335 306,421.5C 304.272,429.32 302.105,436.986 299.5,444.5C 298.094,447.414 296.094,449.914 293.5,452C 291.105,454.145 288.938,453.978 287,451.5C 286.54,448.038 287.04,444.704 288.5,441.5C 292.5,427.167 296.5,412.833 300.5,398.5C 305.139,401.155 309.806,403.821 314.5,406.5C 336.921,366.653 359.588,326.986 382.5,287.5 Z"/></g>
<g><path style="opacity:1" fill="#62b8fd" d="M 70.5,376.5 C 64.7493,377.252 61.416,374.752 60.5,369C 62.6883,364.123 65.0216,359.289 67.5,354.5C 73.8395,342.641 80.0061,330.641 86,318.5C 90.5884,313.257 95.2551,313.257 100,318.5C 107.745,334.323 115.745,349.99 124,365.5C 124.667,368.167 124.667,370.833 124,373.5C 120.089,378.257 115.922,378.59 111.5,374.5C 109.246,370.993 107.246,367.327 105.5,363.5C 97.1667,362.167 88.8333,362.167 80.5,363.5C 78.4128,366.673 76.5795,370.006 75,373.5C 73.871,375.141 72.371,376.141 70.5,376.5 Z"/></g>
<g><path style="opacity:1" fill="#25a8fd" d="M 156.5,322.5 C 168.838,322.333 181.171,322.5 193.5,323C 192.299,323.903 191.465,325.069 191,326.5C 190.501,332.491 190.334,338.491 190.5,344.5C 217.672,344.169 244.672,344.502 271.5,345.5C 241.165,345.333 210.832,345.5 180.5,346C 175.171,351.034 175.504,355.701 181.5,360C 184.482,360.498 187.482,360.665 190.5,360.5C 190.5,364.833 190.5,369.167 190.5,373.5C 217.672,373.169 244.672,373.502 271.5,374.5C 241.165,374.333 210.832,374.5 180.5,375C 175.014,380.081 175.347,384.748 181.5,389C 184.482,389.498 187.482,389.665 190.5,389.5C 190.5,393.833 190.5,398.167 190.5,402.5C 203.344,402.171 216.011,402.505 228.5,403.5C 212.497,403.333 196.497,403.5 180.5,404C 175.171,409.034 175.504,413.701 181.5,418C 184.482,418.498 187.482,418.665 190.5,418.5C 190.334,424.509 190.501,430.509 191,436.5C 191.997,438.323 193.164,439.99 194.5,441.5C 181.496,441.667 168.496,441.5 155.5,441C 154.333,439.833 153.167,438.667 152,437.5C 151.333,400.5 151.333,363.5 152,326.5C 152.748,324.249 154.248,322.916 156.5,322.5 Z"/></g>
<g><path style="opacity:1" fill="#60b8fd" d="M 156.5,322.5 C 162.825,321.834 169.325,321.5 176,321.5C 216.83,322.207 257.664,322.707 298.5,323C 300.333,323.5 301.5,324.667 302,326.5C 302.5,345.497 302.667,364.497 302.5,383.5C 300.486,386.702 299.153,390.202 298.5,394C 298.307,396.008 298.974,397.508 300.5,398.5C 296.5,412.833 292.5,427.167 288.5,441.5C 257.167,441.5 225.833,441.5 194.5,441.5C 193.164,439.99 191.997,438.323 191,436.5C 190.501,430.509 190.334,424.509 190.5,418.5C 203.504,418.667 216.504,418.5 229.5,418C 234.535,414.987 235.702,410.82 233,405.5C 231.67,404.418 230.17,403.751 228.5,403.5C 216.011,402.505 203.344,402.171 190.5,402.5C 190.5,398.167 190.5,393.833 190.5,389.5C 217.835,389.667 245.169,389.5 272.5,389C 276.861,386.774 278.361,383.274 277,378.5C 275.549,376.536 273.716,375.203 271.5,374.5C 244.672,373.502 217.672,373.169 190.5,373.5C 190.5,369.167 190.5,364.833 190.5,360.5C 217.502,360.667 244.502,360.5 271.5,360C 276.599,358.305 278.432,354.805 277,349.5C 275.549,347.536 273.716,346.203 271.5,345.5C 244.672,344.502 217.672,344.169 190.5,344.5C 190.334,338.491 190.501,332.491 191,326.5C 191.465,325.069 192.299,323.903 193.5,323C 181.171,322.5 168.838,322.333 156.5,322.5 Z"/></g>
<g><path style="opacity:1" fill="#d7e7fa" d="M 92.5,339.5 C 93.81,341.435 95.1433,343.435 96.5,345.5C 94.1667,346.833 91.8333,346.833 89.5,345.5C 90.5133,343.473 91.5133,341.473 92.5,339.5 Z"/></g>
<g><path style="opacity:1" fill="#0193fa" d="M 271.5,345.5 C 273.716,346.203 275.549,347.536 277,349.5C 278.432,354.805 276.599,358.305 271.5,360C 244.502,360.5 217.502,360.667 190.5,360.5C 187.482,360.665 184.482,360.498 181.5,360C 175.504,355.701 175.171,351.034 180.5,346C 210.832,345.5 241.165,345.333 271.5,345.5 Z"/></g>
<g><path style="opacity:1" fill="#bb7c63" d="M 366.5,362.5 C 366.667,406.168 366.5,449.835 366,493.5C 363.408,502.255 357.908,508.255 349.5,511.5C 251.167,511.5 152.833,511.5 54.5,511.5C 39.6718,505.191 33.6718,493.858 36.5,477.5C 37.6266,478.122 38.6266,478.955 39.5,480C 49.828,480.5 60.1613,480.666 70.5,480.5C 157.167,480.667 243.834,480.5 330.5,480C 332.815,478.891 334.315,477.057 335,474.5C 335.5,454.503 335.667,434.503 335.5,414.5C 345.848,397.131 356.181,379.798 366.5,362.5 Z"/></g>
<g><path style="opacity:1" fill="#0193fa" d="M 271.5,374.5 C 273.716,375.203 275.549,376.536 277,378.5C 278.361,383.274 276.861,386.774 272.5,389C 245.169,389.5 217.835,389.667 190.5,389.5C 187.482,389.665 184.482,389.498 181.5,389C 175.347,384.748 175.014,380.081 180.5,375C 210.832,374.5 241.165,374.333 271.5,374.5 Z"/></g>
<g><path style="opacity:1" fill="#0193fa" d="M 228.5,403.5 C 230.17,403.751 231.67,404.418 233,405.5C 235.702,410.82 234.535,414.987 229.5,418C 216.504,418.5 203.504,418.667 190.5,418.5C 187.482,418.665 184.482,418.498 181.5,418C 175.504,413.701 175.171,409.034 180.5,404C 196.497,403.5 212.497,403.333 228.5,403.5 Z"/></g>
<g><path style="opacity:1" fill="#6b7dd6" d="M 323.5,420.5 C 315.833,428.833 307.833,436.833 299.5,444.5C 302.105,436.986 304.272,429.32 306,421.5C 307.483,417.335 310.316,415.835 314.5,417C 317.309,418.741 320.309,419.908 323.5,420.5 Z"/></g>
</svg>
