<?xml version="1.0" encoding="UTF-8"?>
<!DOCTYPE svg PUBLIC "-//W3C//DTD SVG 1.1//EN" "http://www.w3.org/Graphics/SVG/1.1/DTD/svg11.dtd">
<svg xmlns="http://www.w3.org/2000/svg" version="1.1" width="512px" height="512px" style="shape-rendering:geometricPrecision; text-rendering:geometricPrecision; image-rendering:optimizeQuality; fill-rule:evenodd; clip-rule:evenodd" xmlns:xlink="http://www.w3.org/1999/xlink">
<g><path style="opacity:1" fill="#ff425a" d="M 308.5,-0.5 C 328.833,-0.5 349.167,-0.5 369.5,-0.5C 376.669,0.454364 384.002,1.2877 391.5,2C 401.789,7.65659 404.289,15.8233 399,26.5C 395.513,30.72 391.013,32.72 385.5,32.5C 342.59,28.5564 299.923,30.2231 257.5,37.5C 257.5,27.1667 257.5,16.8333 257.5,6.5C 274.51,3.30735 291.51,0.974013 308.5,-0.5 Z"/></g>
<g><path style="opacity:0.982" fill="#ff7b47" d="M 257.5,6.5 C 257.5,16.8333 257.5,27.1667 257.5,37.5C 198.828,49.5783 149.328,77.5783 109,121.5C 59.0541,183.288 42.0541,253.288 58,331.5C 78.5619,412.228 129.729,460.562 211.5,476.5C 226.379,479.221 241.379,480.555 256.5,480.5C 256.5,490.833 256.5,501.167 256.5,511.5C 249.833,511.5 243.167,511.5 236.5,511.5C 184.5,508.158 138.166,490.325 97.5,458C 48.9038,412.958 23.4038,357.125 21,290.5C 18.2413,197.879 52.408,122.379 123.5,64C 163.446,34.2032 208.112,15.0365 257.5,6.5 Z"/></g>
<g><path style="opacity:1" fill="#ff425a" d="M 284.5,511.5 C 275.5,511.5 266.5,511.5 257.5,511.5C 257.5,501.5 257.5,491.5 257.5,481.5C 264.687,481.825 271.687,481.491 278.5,480.5C 363.992,471.509 420.159,426.175 447,344.5C 466.658,277.379 462.658,211.713 435,147.5C 424.644,125.435 411.31,105.435 395,87.5C 391.667,71.4976 398.167,64.3309 414.5,66C 415.833,66.6667 417.167,67.3333 418.5,68C 453.807,106.452 475.974,151.618 485,203.5C 496.403,265.877 489.736,326.211 465,384.5C 428.789,460.704 368.622,503.037 284.5,511.5 Z"/></g>
<g><path style="opacity:0.972" fill="#ff415a" d="M 332.5,99.5 C 341.171,99.4151 347.004,103.415 350,111.5C 350.5,118.826 350.666,126.159 350.5,133.5C 357.507,133.834 364.507,134.334 371.5,135C 379.005,137.173 382.671,142.173 382.5,150C 381.57,161.255 375.403,166.421 364,165.5C 359.488,165.233 354.988,164.899 350.5,164.5C 350.667,176.505 350.5,188.505 350,200.5C 345.196,211.32 337.363,214.486 326.5,210C 323.567,207.736 321.4,204.902 320,201.5C 319.5,188.504 319.333,175.504 319.5,162.5C 311.03,162.88 302.697,162.047 294.5,160C 286.522,154.055 284.688,146.555 289,137.5C 292.584,132.625 297.417,130.292 303.5,130.5C 308.807,131.276 314.14,131.609 319.5,131.5C 319.334,124.492 319.5,117.492 320,110.5C 322.537,104.785 326.704,101.118 332.5,99.5 Z"/></g>
<g><path style="opacity:0.984" fill="#ff7b48" d="M 257.5,237.5 C 257.5,272.5 257.5,307.5 257.5,342.5C 255.259,337.1 253.592,331.433 252.5,325.5C 235.139,326.609 217.806,328.109 200.5,330C 194.595,351.116 188.762,372.283 183,393.5C 174.299,403.647 165.299,403.98 156,394.5C 154.455,391.698 153.622,388.698 153.5,385.5C 157.834,368.163 162.168,350.83 166.5,333.5C 159.509,334.256 152.509,334.423 145.5,334C 135.955,329.655 132.788,322.488 136,312.5C 138.315,308.183 141.815,305.35 146.5,304C 156.138,302.769 165.804,301.936 175.5,301.5C 186.558,259.157 197.724,216.823 209,174.5C 214.657,164.211 222.823,161.711 233.5,167C 235.359,168.558 236.859,170.391 238,172.5C 244.659,194.14 251.159,215.807 257.5,237.5 Z M 224.5,237.5 C 230.664,255.997 236.664,274.664 242.5,293.5C 241.271,294.281 239.938,294.781 238.5,295C 228.517,296.272 218.517,296.938 208.5,297C 214.221,277.285 219.554,257.452 224.5,237.5 Z"/></g>
<g><path style="opacity:1" fill="#ff425a" d="M 257.5,237.5 C 263.132,255.002 268.632,272.668 274,290.5C 279.824,290.201 285.658,290.701 291.5,292C 299.122,295.833 301.955,301.999 300,310.5C 296.998,317.767 291.498,321.767 283.5,322.5C 290.136,343.574 296.469,364.741 302.5,386C 299.298,400.102 290.964,404.435 277.5,399C 274.894,397.062 273.061,394.562 272,391.5C 266.856,375.237 262.023,358.904 257.5,342.5C 257.5,307.5 257.5,272.5 257.5,237.5 Z"/></g>
<g><path style="opacity:1" fill="#ff664f" d="M 256.5,480.5 C 263.833,480.5 271.167,480.5 278.5,480.5C 271.687,481.491 264.687,481.825 257.5,481.5C 257.5,491.5 257.5,501.5 257.5,511.5C 257.167,511.5 256.833,511.5 256.5,511.5C 256.5,501.167 256.5,490.833 256.5,480.5 Z"/></g>
</svg>
