<?xml version="1.0" encoding="UTF-8"?>
<svg version="1.1" xmlns="http://www.w3.org/2000/svg" width="512" height="512">
<path d="M0 0 C0.67585958 -0.00235223 1.35171917 -0.00470446 2.04805934 -0.00712797 C4.33518778 -0.01383728 6.62225965 -0.01335917 8.90939713 -0.01294994 C10.55676811 -0.01624737 12.20413829 -0.01997268 13.85150743 -0.02409142 C18.39603579 -0.03413335 22.94055094 -0.03783173 27.48508883 -0.04048073 C32.37956208 -0.04437729 37.27402481 -0.05395605 42.16849136 -0.0626936 C53.99722717 -0.0824762 65.82596386 -0.09252641 77.65471208 -0.10142139 C83.22068931 -0.10580128 88.78666559 -0.11116885 94.35264206 -0.11641026 C112.8476517 -0.13342419 131.34266074 -0.14791937 149.837677 -0.155159 C154.63959885 -0.15706899 159.4415207 -0.15898931 164.24344254 -0.16094494 C165.43698358 -0.16142868 166.63052462 -0.16191242 167.86023358 -0.16241082 C187.20392977 -0.17071485 206.5475642 -0.19605732 225.89123341 -0.22852562 C245.73660473 -0.26156532 265.58194463 -0.27960495 285.42734361 -0.28280324 C296.57563368 -0.28497118 307.72383369 -0.29376136 318.87209702 -0.31926441 C328.36464488 -0.34092923 337.85708081 -0.34904266 347.34965059 -0.33929763 C352.19493287 -0.33474069 357.03998398 -0.33671986 361.88523483 -0.35605907 C366.31921478 -0.37360429 370.75279345 -0.37276374 375.18677714 -0.35716178 C376.79247109 -0.35477251 378.3981922 -0.35917719 380.00384447 -0.37099043 C382.18440887 -0.38604218 384.36353898 -0.37648551 386.54406738 -0.36076355 C387.75580997 -0.36174036 388.96755256 -0.36271717 390.21601462 -0.36372358 C395.58580605 0.44465017 398.61799177 2.93474849 401.83621597 7.19672108 C404.67677342 12.14139515 404.61462159 15.58897813 404.52371597 21.13422108 C405.21296158 21.21462635 405.90220718 21.29503162 406.61233902 21.37787342 C413.23753906 22.15366315 419.86014533 22.94852032 426.48074722 23.76263905 C428.2822491 23.98262347 430.08418363 24.19918437 431.88699722 24.40814686 C443.82189425 25.79407795 443.82189425 25.79407795 448.52371597 30.13422108 C454.53332586 38.09289363 453.38882153 44.7640465 452.52371597 54.13422108 C452.3922316 55.60544422 452.3922316 55.60544422 452.25809097 57.10638905 C451.9574033 60.32740682 451.62012358 63.54282156 451.27371597 66.75922108 C451.17671402 67.80231434 451.07971207 68.8454076 450.97977066 69.92010975 C450.43446702 74.64389857 450.02483455 77.4522352 447.16434097 81.34515858 C444.52371597 83.13422108 444.52371597 83.13422108 440.52371597 83.13422108 C440.22050845 85.88410316 439.95537716 88.62900766 439.71121597 91.38422108 C439.62162613 92.16152576 439.53203629 92.93883045 439.4397316 93.73968983 C439.2584345 95.97250678 439.1600886 97.92201362 439.52371597 100.13422108 C441.8185686 102.61306215 441.8185686 102.61306215 444.52371597 104.13422108 C448.14979591 111.38638095 443.89790372 127.19131147 442.92959976 134.96434498 C442.77019236 136.27171 442.61078496 137.57907502 442.44654703 138.92605716 C442.10018017 141.76662102 441.75127844 144.60685728 441.40032768 147.44685841 C440.82869847 152.07292695 440.26285275 156.69969306 439.69771194 161.32655811 C438.98192003 167.18371279 438.26472361 173.04069244 437.54587519 178.89747278 C436.12752047 190.45467708 434.72081159 202.01327455 433.31827164 213.57240772 C433.09622304 215.40201606 432.87417189 217.23162408 432.65211821 219.06123179 C432.20259708 222.76530566 431.75313194 226.46938632 431.30369282 230.17347014 C430.15019657 239.67961654 428.99601002 249.18567885 427.8406105 258.69159412 C427.72480434 259.64441187 427.60899818 260.59722962 427.48968273 261.57892064 C425.62439074 276.92178055 423.74306032 292.26263582 421.85632235 307.60287132 C419.90788178 323.44854971 417.97999308 339.29664223 416.06941938 355.14693099 C415.00085726 364.00669889 413.92335146 372.86516862 412.82152176 381.7208662 C411.58617628 391.65825202 410.37640058 401.59844213 409.20145035 411.54315662 C409.06251797 412.71625882 409.06251797 412.71625882 408.92077887 413.91306005 C406.17032423 437.24403387 404.5463874 460.28386756 404.79192734 483.8082962 C404.7974005 484.80067098 404.80287367 485.79304577 404.80851269 486.81549251 C404.82285233 488.62248541 404.85493981 490.42948273 404.91013813 492.23568928 C404.9652338 498.00925512 403.78571436 502.31803444 400.52371597 507.13422108 C396.33713535 511.02176023 393.87744136 512.25814323 388.24438286 512.26844215 C387.11773079 512.2729 385.99107871 512.27735784 384.83028567 512.28195077 C383.58206353 512.28176641 382.33384139 512.28158205 381.04779434 512.2813921 C379.72992034 512.28506879 378.41204634 512.28874547 377.05423677 512.29253358 C373.38376807 512.30257072 369.71331572 512.30627311 366.04283524 512.30892289 C362.08910296 512.3128208 358.13538369 512.32239939 354.1816597 512.33113575 C344.62807601 512.35091333 335.07449125 512.3609674 325.5208922 512.36986354 C321.02556988 512.37424378 316.53024875 512.37961122 312.03492737 512.38485241 C297.09821759 512.40186497 282.16150855 512.41636061 267.22479057 512.42360115 C263.34721882 512.42551114 259.46964708 512.42743146 255.59207535 512.42938709 C254.62828702 512.42987083 253.66449869 512.43035457 252.67150466 512.43085297 C237.04793628 512.43915879 221.42444434 512.46450487 205.80090936 512.49696777 C189.77272928 512.53000091 173.74458811 512.54804646 157.7163738 512.55124539 C148.71213059 512.55341383 139.70799887 512.56221117 130.70378876 512.58770657 C123.03777286 512.60936238 115.37189554 512.6174893 107.70585252 512.60773978 C103.79241981 512.60318031 99.8792733 512.60517622 95.96587944 512.62450123 C92.38563421 512.64202895 88.80588616 512.64122088 85.22563641 512.62560394 C83.31194644 512.62207583 81.39825188 512.6383314 79.48463309 512.65520841 C78.35276552 512.64662752 77.22089795 512.63804662 76.05473137 512.6292057 C74.58683991 512.63067092 74.58683991 512.63067092 73.08929408 512.63216573 C69.77159281 511.98824395 68.55848201 510.7867457 66.52371597 508.13422108 C66.52371597 507.14422108 66.52371597 506.15422108 66.52371597 505.13422108 C60.25371597 505.13422108 53.98371597 505.13422108 47.52371597 505.13422108 C47.19371597 506.78422108 46.86371597 508.43422108 46.52371597 510.13422108 C43.23812596 512.32461442 42.23028012 512.39300637 38.41312027 512.42474842 C36.8508596 512.44388798 36.8508596 512.44388798 35.25703812 512.46341419 C34.132034 512.46563984 33.00702988 512.46786549 31.84793472 512.47015858 C30.69001923 512.47681538 29.53210373 512.48347218 28.33909988 512.4903307 C25.88706426 512.50046371 23.43500103 512.50514752 20.98294449 512.50482655 C17.23630461 512.50919185 13.49084986 512.54548506 9.7444191 512.58343983 C7.36226167 512.58930941 4.98009864 512.59327785 2.59793472 512.59515858 C0.91953758 512.61671513 0.91953758 512.61671513 -0.79276657 512.63870716 C-7.01167278 512.60229625 -10.76634929 512.33462257 -15.47628403 508.13422108 C-20.17564789 502.92681787 -20.62357769 498.97627436 -20.6105051 492.17897129 C-20.61285733 491.35536895 -20.61520956 490.53176661 -20.61763307 489.68320662 C-20.62433588 486.89951073 -20.62386447 484.11586138 -20.62345505 481.33215809 C-20.62675287 479.32577927 -20.63047826 477.31940111 -20.63459653 475.31302381 C-20.64463382 469.78074871 -20.64833609 464.24848446 -20.65098584 458.71620154 C-20.65488372 452.75695981 -20.66446235 446.79772672 -20.6731987 440.83849049 C-20.69204183 427.11914904 -20.70222091 413.39980605 -20.71065938 399.68045522 C-20.71486465 392.90263492 -20.72008679 386.12481551 -20.72534391 379.34699596 C-20.74323417 356.15125487 -20.75823099 332.95551353 -20.7656641 309.75976658 C-20.76613886 308.30334195 -20.76661475 306.84691732 -20.76709176 305.39049269 C-20.76732814 304.66822932 -20.76756451 303.94596594 -20.76780805 303.20181579 C-20.76900927 299.54240271 -20.77022471 295.88298962 -20.77145004 292.22357655 C-20.77169019 291.49735213 -20.77193034 290.77112771 -20.77217777 290.02289649 C-20.78007252 266.47146879 -20.80350794 242.92009143 -20.83600599 219.36868572 C-20.87029255 194.47574823 -20.89001412 169.5828402 -20.89330834 144.6898787 C-20.89372589 141.9579803 -20.89420545 139.22608192 -20.89473152 136.49418354 C-20.89485471 135.82150072 -20.8949779 135.1488179 -20.89510483 134.45575075 C-20.89743825 123.62378586 -20.91310602 112.79187938 -20.93357337 101.95993532 C-20.95381458 91.07510498 -20.95898292 80.19034825 -20.94980273 69.3055028 C-20.94524523 63.40696673 -20.94722843 57.50862055 -20.96656418 51.61011028 C-20.98410495 46.21268802 -20.98327223 40.81559545 -20.96766689 35.41817012 C-20.96527697 33.46323169 -20.9696855 31.50827097 -20.98149554 29.55336675 C-20.99653823 26.89945314 -20.9869951 24.2467193 -20.97126865 21.59283543 C-20.98149086 20.83076583 -20.99171307 20.06869624 -21.00224504 19.28353363 C-20.93154741 13.8310919 -19.55235274 10.64943112 -16.47628403 6.13422108 C-14.40597153 4.39203358 -14.40597153 4.39203358 -12.35128403 3.25922108 C-11.32647934 2.67527576 -11.32647934 2.67527576 -10.28097153 2.07953358 C-6.57510703 0.13836646 -4.25123993 0.00627833 0 0 Z " fill="#B6E1FD" transform="translate(39.47628402709961,-0.13422107696533203)"/>
<path d="M0 0 C1.50784058 0.01135986 1.50784058 0.01135986 3.04614258 0.02294922 C19.45219236 0.38305958 34.57069815 5.56624994 46.61328125 16.98828125 C50.52080497 21.3399995 53.21155508 26.23561016 55.8125 31.4375 C81.41113452 30.85137061 108.07357632 29.44877037 132.0625 19.625 C137.02033947 17.60204737 141.47687569 16.08418157 146.8125 17.4375 C149.875 19.4375 149.875 19.4375 151.8125 22.4375 C153.00266671 29.45948357 150.62887893 34.57568364 146.8125 40.4375 C134.16861846 56.46096109 114.78679599 68.49945515 94.25 71.125 C93.115625 71.228125 91.98125 71.33125 90.8125 71.4375 C94.84337921 79.70080239 98.87780923 86.28786856 105.8125 92.4375 C106.79894641 93.40933239 107.77926185 94.38747675 108.75 95.375 C109.430625 96.055625 110.11125 96.73625 110.8125 97.4375 C111.8125 98.4375 111.8125 98.4375 112.0625 102.1875 C111.98557587 106.10363768 111.43749433 108.38911948 108.8125 111.4375 C107.63171875 111.81648438 106.4509375 112.19546875 105.234375 112.5859375 C103.23575958 113.55251803 103.23575958 113.55251803 101.8125 115.4375 C100.83335647 120.70533207 101.00998778 125.97756748 101.125 131.3125 C101.15660952 133.50682774 101.17776491 135.69975383 101.17558289 137.89431763 C101.17577163 139.89046302 101.21061483 141.88651621 101.24731445 143.88232422 C100.73326869 148.08531942 99.46733506 150.17937552 96.8125 153.4375 C86.08192337 159.92715956 74.3770937 159.58424323 62.54296875 156.875 C61.97191406 156.730625 61.40085938 156.58625 60.8125 156.4375 C60.84737286 168.2245253 63.04570166 177.73541596 71.3125 186.5 C75.41589386 190.28354757 79.84404326 193.67834673 84.25366211 197.09448242 C109.67423116 216.7934882 132.45667395 238.99276665 136.8125 272.4375 C138.63594263 292.24399719 135.0212635 311.09328723 122.6875 327.0625 C109.30416331 342.53907071 90.44745151 353.47452837 69.8125 355.4375 C65.78627231 355.58960754 61.76242028 355.59462898 57.73364258 355.59863281 C55.93222809 355.60608017 55.93222809 355.60608017 54.09442139 355.61367798 C50.81520334 355.62573782 47.53602084 355.63323202 44.25678468 355.63768864 C42.20214396 355.640632 40.14750867 355.64473913 38.09287071 355.64919281 C31.64719509 355.6628482 25.20153205 355.67252418 18.75584298 355.6763947 C11.34719641 355.68086953 3.93873487 355.6983988 -3.46985549 355.7273953 C-9.21791107 355.74910183 -14.96591493 355.75910375 -20.71401101 355.76043582 C-24.13714861 355.76147753 -27.56011182 355.76724858 -30.9832058 355.78525543 C-34.809501 355.80241284 -38.63535129 355.8004117 -42.46166992 355.79394531 C-43.57637161 355.8031601 -44.6910733 355.81237488 -45.83955383 355.8218689 C-62.97185383 355.73169975 -78.78783069 349.34031845 -91.1875 337.4375 C-102.92737942 325.00332664 -108.80685664 310.01863142 -108.625 293 C-108.61670166 291.99155029 -108.60840332 290.98310059 -108.59985352 289.9440918 C-108.43077995 282.49582974 -107.5618868 276.16606769 -104.1875 269.4375 C-103.73632812 268.49648438 -103.28515625 267.55546875 -102.8203125 266.5859375 C-99.10312716 259.57691639 -94.28302652 253.89872631 -89.03979492 248.02001953 C-79.91987368 237.73813123 -72.56441503 227.8522811 -72.8828125 213.68359375 C-73.20080701 210.29572916 -73.87804572 207.17834437 -74.6875 203.875 C-77.52695778 191.73665441 -77.22953041 178.5241387 -74.1875 166.4375 C-75.21488281 166.6540625 -76.24226563 166.870625 -77.30078125 167.09375 C-98.25575938 171.37244881 -98.25575938 171.37244881 -104.3125 167.375 C-106.58463362 163.81532399 -107.26172031 161.66805793 -107.1875 157.4375 C-105.16658278 152.7893904 -102.07607231 150.47820272 -98.125 147.375 C-83.29556977 135.56272778 -73.48895822 118.94831751 -64.41934204 102.57992554 C-63.44980245 100.83464579 -62.46558399 99.09754673 -61.48120117 97.3605957 C-60.89443604 96.2799585 -60.3076709 95.19932129 -59.703125 94.0859375 C-58.90310059 92.63453369 -58.90310059 92.63453369 -58.08691406 91.15380859 C-56.90825585 88.45161499 -56.90825585 88.45161499 -57.96557617 85.74072266 C-58.36881104 84.98065918 -58.7720459 84.2205957 -59.1875 83.4375 C-59.87722365 81.77175232 -60.56472732 80.1050837 -61.25 78.4375 C-61.59160156 77.6125 -61.93320313 76.7875 -62.28515625 75.9375 C-66.8678 63.24099784 -64.19925138 49.46987515 -58.8671875 37.46484375 C-49.77524436 19.80262634 -35.16328341 8.00871851 -16.453125 1.76953125 C-10.94557547 0.18688415 -5.70535757 -0.06069017 0 0 Z " fill="#CF7C61" transform="translate(160.1875,128.5625)"/>
<path d="M0 0 C0.67585958 -0.00235223 1.35171917 -0.00470446 2.04805934 -0.00712797 C4.33518778 -0.01383728 6.62225965 -0.01335917 8.90939713 -0.01294994 C10.55676811 -0.01624737 12.20413829 -0.01997268 13.85150743 -0.02409142 C18.39603579 -0.03413335 22.94055094 -0.03783173 27.48508883 -0.04048073 C32.37956208 -0.04437729 37.27402481 -0.05395605 42.16849136 -0.0626936 C53.99722717 -0.0824762 65.82596386 -0.09252641 77.65471208 -0.10142139 C83.22068931 -0.10580128 88.78666559 -0.11116885 94.35264206 -0.11641026 C112.8476517 -0.13342419 131.34266074 -0.14791937 149.837677 -0.155159 C154.63959885 -0.15706899 159.4415207 -0.15898931 164.24344254 -0.16094494 C165.43698358 -0.16142868 166.63052462 -0.16191242 167.86023358 -0.16241082 C187.20392977 -0.17071485 206.5475642 -0.19605732 225.89123341 -0.22852562 C245.73660473 -0.26156532 265.58194463 -0.27960495 285.42734361 -0.28280324 C296.57563368 -0.28497118 307.72383369 -0.29376136 318.87209702 -0.31926441 C328.36464488 -0.34092923 337.85708081 -0.34904266 347.34965059 -0.33929763 C352.19493287 -0.33474069 357.03998398 -0.33671986 361.88523483 -0.35605907 C366.31921478 -0.37360429 370.75279345 -0.37276374 375.18677714 -0.35716178 C376.79247109 -0.35477251 378.3981922 -0.35917719 380.00384447 -0.37099043 C382.18440887 -0.38604218 384.36353898 -0.37648551 386.54406738 -0.36076355 C387.75580997 -0.36174036 388.96755256 -0.36271717 390.21601462 -0.36372358 C395.58580605 0.44465017 398.61799177 2.93474849 401.83621597 7.19672108 C404.67677342 12.14139515 404.61462159 15.58897813 404.52371597 21.13422108 C405.21296158 21.21462635 405.90220718 21.29503162 406.61233902 21.37787342 C413.23753906 22.15366315 419.86014533 22.94852032 426.48074722 23.76263905 C428.2822491 23.98262347 430.08418363 24.19918437 431.88699722 24.40814686 C443.82189425 25.79407795 443.82189425 25.79407795 448.52371597 30.13422108 C454.53332586 38.09289363 453.38882153 44.7640465 452.52371597 54.13422108 C452.3922316 55.60544422 452.3922316 55.60544422 452.25809097 57.10638905 C451.9574033 60.32740682 451.62012358 63.54282156 451.27371597 66.75922108 C451.17671402 67.80231434 451.07971207 68.8454076 450.97977066 69.92010975 C450.43446702 74.64389857 450.02483455 77.4522352 447.16434097 81.34515858 C444.52371597 83.13422108 444.52371597 83.13422108 440.52371597 83.13422108 C440.22050845 85.88410316 439.95537716 88.62900766 439.71121597 91.38422108 C439.62162613 92.16152576 439.53203629 92.93883045 439.4397316 93.73968983 C439.2584345 95.97250678 439.1600886 97.92201362 439.52371597 100.13422108 C441.8185686 102.61306215 441.8185686 102.61306215 444.52371597 104.13422108 C448.14979591 111.38638095 443.89790372 127.19131147 442.92959976 134.96434498 C442.77019236 136.27171 442.61078496 137.57907502 442.44654703 138.92605716 C442.10018017 141.76662102 441.75127844 144.60685728 441.40032768 147.44685841 C440.82869847 152.07292695 440.26285275 156.69969306 439.69771194 161.32655811 C438.98192003 167.18371279 438.26472361 173.04069244 437.54587519 178.89747278 C436.12752047 190.45467708 434.72081159 202.01327455 433.31827164 213.57240772 C433.09622304 215.40201606 432.87417189 217.23162408 432.65211821 219.06123179 C432.20259708 222.76530566 431.75313194 226.46938632 431.30369282 230.17347014 C430.15019657 239.67961654 428.99601002 249.18567885 427.8406105 258.69159412 C427.72480434 259.64441187 427.60899818 260.59722962 427.48968273 261.57892064 C425.62439074 276.92178055 423.74306032 292.26263582 421.85632235 307.60287132 C419.90788178 323.44854971 417.97999308 339.29664223 416.06941938 355.14693099 C415.00085726 364.00669889 413.92335146 372.86516862 412.82152176 381.7208662 C411.58617628 391.65825202 410.37640058 401.59844213 409.20145035 411.54315662 C409.06251797 412.71625882 409.06251797 412.71625882 408.92077887 413.91306005 C406.17032423 437.24403387 404.5463874 460.28386756 404.79192734 483.8082962 C404.7974005 484.80067098 404.80287367 485.79304577 404.80851269 486.81549251 C404.82285233 488.62248541 404.85493981 490.42948273 404.91013813 492.23568928 C404.9652338 498.00925512 403.78571436 502.31803444 400.52371597 507.13422108 C396.33713535 511.02176023 393.87744136 512.25814323 388.24438286 512.26844215 C387.11773079 512.2729 385.99107871 512.27735784 384.83028567 512.28195077 C383.58206353 512.28176641 382.33384139 512.28158205 381.04779434 512.2813921 C379.72992034 512.28506879 378.41204634 512.28874547 377.05423677 512.29253358 C373.38376807 512.30257072 369.71331572 512.30627311 366.04283524 512.30892289 C362.08910296 512.3128208 358.13538369 512.32239939 354.1816597 512.33113575 C344.62807601 512.35091333 335.07449125 512.3609674 325.5208922 512.36986354 C321.02556988 512.37424378 316.53024875 512.37961122 312.03492737 512.38485241 C297.09821759 512.40186497 282.16150855 512.41636061 267.22479057 512.42360115 C263.34721882 512.42551114 259.46964708 512.42743146 255.59207535 512.42938709 C254.62828702 512.42987083 253.66449869 512.43035457 252.67150466 512.43085297 C237.04793628 512.43915879 221.42444434 512.46450487 205.80090936 512.49696777 C189.77272928 512.53000091 173.74458811 512.54804646 157.7163738 512.55124539 C148.71213059 512.55341383 139.70799887 512.56221117 130.70378876 512.58770657 C123.03777286 512.60936238 115.37189554 512.6174893 107.70585252 512.60773978 C103.79241981 512.60318031 99.8792733 512.60517622 95.96587944 512.62450123 C92.38563421 512.64202895 88.80588616 512.64122088 85.22563641 512.62560394 C83.31194644 512.62207583 81.39825188 512.6383314 79.48463309 512.65520841 C78.35276552 512.64662752 77.22089795 512.63804662 76.05473137 512.6292057 C74.58683991 512.63067092 74.58683991 512.63067092 73.08929408 512.63216573 C69.78766246 511.99136286 68.57481857 510.74716674 66.52371597 508.13422108 C66.46512222 505.84515858 66.46512222 505.84515858 67.08621597 503.50922108 C67.27313004 502.73320545 67.4600441 501.95718983 67.65262222 501.15765858 C68.52371597 499.13422108 68.52371597 499.13422108 71.52371597 497.13422108 C73.92892474 496.88582408 73.92892474 496.88582408 76.84356594 496.88812542 C77.95412413 496.88414368 79.06468231 496.88016193 80.20889378 496.87605953 C82.04540894 496.88479753 82.04540894 496.88479753 83.91902542 496.89371204 C85.21293701 496.89200001 86.5068486 496.89028797 87.83996964 496.88852406 C91.44603817 496.88402573 95.05198854 496.89208174 98.65804206 496.90207562 C102.6009286 496.91078722 106.54380939 496.90788783 110.48670292 496.90643978 C118.14620168 496.9053749 125.80565369 496.91462467 133.46514042 496.92744244 C142.32178778 496.94182102 151.1784069 496.94343076 160.03506851 496.94501209 C183.4271251 496.95552033 206.81917123 496.98344246 230.21121597 497.00922108 C282.45434097 497.05047108 334.69746597 497.09172108 388.52371597 497.13422108 C388.52371597 338.07422108 388.52371597 179.01422108 388.52371597 15.13422108 C258.83371597 15.46422108 129.14371597 15.79422108 -4.47628403 16.13422108 C-4.47628403 174.86422108 -4.47628403 333.59422108 -4.47628403 497.13422108 C11.03371597 497.13422108 26.54371597 497.13422108 42.52371597 497.13422108 C47.52371597 502.13422108 47.52371597 502.13422108 48.08621597 505.19672108 C47.39132981 508.82557103 46.3705445 509.83728473 43.52371597 512.13422108 C41.0709877 512.64215565 41.0709877 512.64215565 38.29959488 512.6517992 C37.2581633 512.66440784 36.21673172 512.67701649 35.14374161 512.69000721 C33.46397736 512.67786182 33.46397736 512.67786182 31.75027847 512.66547108 C30.59377792 512.66929798 29.43727737 512.67312489 28.24573135 512.67706776 C25.79964706 512.67978941 23.3535338 512.67241067 20.90750504 512.65570545 C17.16953656 512.63434008 13.43349881 512.65548047 9.69559097 512.68109608 C7.31798257 512.67845209 4.94037537 512.67332564 2.56277847 512.66547108 C1.4469841 512.673568 0.33118973 512.68166492 -0.8184166 512.69000721 C-7.01779496 512.61540277 -10.77706874 512.31258029 -15.47628403 508.13422108 C-20.17564789 502.92681787 -20.62357769 498.97627436 -20.6105051 492.17897129 C-20.61285733 491.35536895 -20.61520956 490.53176661 -20.61763307 489.68320662 C-20.62433588 486.89951073 -20.62386447 484.11586138 -20.62345505 481.33215809 C-20.62675287 479.32577927 -20.63047826 477.31940111 -20.63459653 475.31302381 C-20.64463382 469.78074871 -20.64833609 464.24848446 -20.65098584 458.71620154 C-20.65488372 452.75695981 -20.66446235 446.79772672 -20.6731987 440.83849049 C-20.69204183 427.11914904 -20.70222091 413.39980605 -20.71065938 399.68045522 C-20.71486465 392.90263492 -20.72008679 386.12481551 -20.72534391 379.34699596 C-20.74323417 356.15125487 -20.75823099 332.95551353 -20.7656641 309.75976658 C-20.76613886 308.30334195 -20.76661475 306.84691732 -20.76709176 305.39049269 C-20.76732814 304.66822932 -20.76756451 303.94596594 -20.76780805 303.20181579 C-20.76900927 299.54240271 -20.77022471 295.88298962 -20.77145004 292.22357655 C-20.77169019 291.49735213 -20.77193034 290.77112771 -20.77217777 290.02289649 C-20.78007252 266.47146879 -20.80350794 242.92009143 -20.83600599 219.36868572 C-20.87029255 194.47574823 -20.89001412 169.5828402 -20.89330834 144.6898787 C-20.89372589 141.9579803 -20.89420545 139.22608192 -20.89473152 136.49418354 C-20.89485471 135.82150072 -20.8949779 135.1488179 -20.89510483 134.45575075 C-20.89743825 123.62378586 -20.91310602 112.79187938 -20.93357337 101.95993532 C-20.95381458 91.07510498 -20.95898292 80.19034825 -20.94980273 69.3055028 C-20.94524523 63.40696673 -20.94722843 57.50862055 -20.96656418 51.61011028 C-20.98410495 46.21268802 -20.98327223 40.81559545 -20.96766689 35.41817012 C-20.96527697 33.46323169 -20.9696855 31.50827097 -20.98149554 29.55336675 C-20.99653823 26.89945314 -20.9869951 24.2467193 -20.97126865 21.59283543 C-20.98149086 20.83076583 -20.99171307 20.06869624 -21.00224504 19.28353363 C-20.93154741 13.8310919 -19.55235274 10.64943112 -16.47628403 6.13422108 C-14.40597153 4.39203358 -14.40597153 4.39203358 -12.35128403 3.25922108 C-11.32647934 2.67527576 -11.32647934 2.67527576 -10.28097153 2.07953358 C-6.57510703 0.13836646 -4.25123993 0.00627833 0 0 Z " fill="#010102" transform="translate(39.47628402709961,-0.13422107696533203)"/>
<path d="M0 0 C1.50784058 0.01135986 1.50784058 0.01135986 3.04614258 0.02294922 C19.45219236 0.38305958 34.57069815 5.56624994 46.61328125 16.98828125 C50.52080497 21.3399995 53.21155508 26.23561016 55.8125 31.4375 C81.41113452 30.85137061 108.07357632 29.44877037 132.0625 19.625 C137.02033947 17.60204737 141.47687569 16.08418157 146.8125 17.4375 C149.875 19.4375 149.875 19.4375 151.8125 22.4375 C153.00266671 29.45948357 150.62887893 34.57568364 146.8125 40.4375 C134.16861846 56.46096109 114.78679599 68.49945515 94.25 71.125 C93.115625 71.228125 91.98125 71.33125 90.8125 71.4375 C94.84337921 79.70080239 98.87780923 86.28786856 105.8125 92.4375 C106.79894641 93.40933239 107.77926185 94.38747675 108.75 95.375 C109.430625 96.055625 110.11125 96.73625 110.8125 97.4375 C111.8125 98.4375 111.8125 98.4375 112.0625 102.1875 C111.98557587 106.10363768 111.43749433 108.38911948 108.8125 111.4375 C107.63171875 111.81648438 106.4509375 112.19546875 105.234375 112.5859375 C103.23575958 113.55251803 103.23575958 113.55251803 101.8125 115.4375 C100.83335647 120.70533207 101.00998778 125.97756748 101.125 131.3125 C101.15660952 133.50682774 101.17776491 135.69975383 101.17558289 137.89431763 C101.17577163 139.89046302 101.21061483 141.88651621 101.24731445 143.88232422 C100.73326869 148.08531942 99.46733506 150.17937552 96.8125 153.4375 C86.08192337 159.92715956 74.3770937 159.58424323 62.54296875 156.875 C61.97191406 156.730625 61.40085938 156.58625 60.8125 156.4375 C60.84737286 168.2245253 63.04570166 177.73541596 71.3125 186.5 C75.41589386 190.28354757 79.84404326 193.67834673 84.25366211 197.09448242 C109.67423116 216.7934882 132.45667395 238.99276665 136.8125 272.4375 C138.63594263 292.24399719 135.0212635 311.09328723 122.6875 327.0625 C109.30416331 342.53907071 90.44745151 353.47452837 69.8125 355.4375 C65.78627231 355.58960754 61.76242028 355.59462898 57.73364258 355.59863281 C55.93222809 355.60608017 55.93222809 355.60608017 54.09442139 355.61367798 C50.81520334 355.62573782 47.53602084 355.63323202 44.25678468 355.63768864 C42.20214396 355.640632 40.14750867 355.64473913 38.09287071 355.64919281 C31.64719509 355.6628482 25.20153205 355.67252418 18.75584298 355.6763947 C11.34719641 355.68086953 3.93873487 355.6983988 -3.46985549 355.7273953 C-9.21791107 355.74910183 -14.96591493 355.75910375 -20.71401101 355.76043582 C-24.13714861 355.76147753 -27.56011182 355.76724858 -30.9832058 355.78525543 C-34.809501 355.80241284 -38.63535129 355.8004117 -42.46166992 355.79394531 C-43.57637161 355.8031601 -44.6910733 355.81237488 -45.83955383 355.8218689 C-62.97185383 355.73169975 -78.78783069 349.34031845 -91.1875 337.4375 C-102.92737942 325.00332664 -108.80685664 310.01863142 -108.625 293 C-108.61670166 291.99155029 -108.60840332 290.98310059 -108.59985352 289.9440918 C-108.43077995 282.49582974 -107.5618868 276.16606769 -104.1875 269.4375 C-103.73632812 268.49648438 -103.28515625 267.55546875 -102.8203125 266.5859375 C-99.10312716 259.57691639 -94.28302652 253.89872631 -89.03979492 248.02001953 C-79.91987368 237.73813123 -72.56441503 227.8522811 -72.8828125 213.68359375 C-73.20080701 210.29572916 -73.87804572 207.17834437 -74.6875 203.875 C-77.52695778 191.73665441 -77.22953041 178.5241387 -74.1875 166.4375 C-75.21488281 166.6540625 -76.24226563 166.870625 -77.30078125 167.09375 C-98.25575938 171.37244881 -98.25575938 171.37244881 -104.3125 167.375 C-106.58463362 163.81532399 -107.26172031 161.66805793 -107.1875 157.4375 C-105.16658278 152.7893904 -102.07607231 150.47820272 -98.125 147.375 C-83.29556977 135.56272778 -73.48895822 118.94831751 -64.41934204 102.57992554 C-63.44980245 100.83464579 -62.46558399 99.09754673 -61.48120117 97.3605957 C-60.89443604 96.2799585 -60.3076709 95.19932129 -59.703125 94.0859375 C-58.90310059 92.63453369 -58.90310059 92.63453369 -58.08691406 91.15380859 C-56.90825585 88.45161499 -56.90825585 88.45161499 -57.96557617 85.74072266 C-58.36881104 84.98065918 -58.7720459 84.2205957 -59.1875 83.4375 C-59.87722365 81.77175232 -60.56472732 80.1050837 -61.25 78.4375 C-61.59160156 77.6125 -61.93320313 76.7875 -62.28515625 75.9375 C-66.8678 63.24099784 -64.19925138 49.46987515 -58.8671875 37.46484375 C-49.77524436 19.80262634 -35.16328341 8.00871851 -16.453125 1.76953125 C-10.94557547 0.18688415 -5.70535757 -0.06069017 0 0 Z M-9.1875 102.4375 C-10.05503906 103.16839844 -10.92257813 103.89929688 -11.81640625 104.65234375 C-21.49878396 113.09376098 -28.21181406 122.27909339 -34.84960938 133.21679688 C-39.46470854 140.67036331 -44.42367359 148.13259274 -51.875 153 C-58.45079743 158.31179976 -60.17370158 170.56504496 -61.1875 178.4375 C-61.6172141 186.11450766 -61.71206076 193.30114437 -59.6875 200.75 C-56.65685919 212.39404099 -56.07277382 226.73672919 -62.1875 237.4375 C-65.88229997 243.07525513 -70.17293392 248.20906185 -74.453125 253.40234375 C-89.15268168 271.12546195 -89.15268168 271.12546195 -93.6875 293.125 C-93.68250488 294.0005957 -93.67750977 294.87619141 -93.67236328 295.77832031 C-93.37506696 306.92795758 -89.6425443 316.07375627 -82.1875 324.4375 C-81.47207031 325.32501953 -81.47207031 325.32501953 -80.7421875 326.23046875 C-73.10245186 334.92594675 -60.84049183 339.82090821 -49.43928528 340.6333313 C-46.30910529 340.72428155 -43.18423357 340.75340341 -40.05273438 340.75976562 C-38.86928436 340.76969543 -37.68583435 340.77962524 -36.46652222 340.78985596 C-33.24285236 340.81392586 -30.01932688 340.82895137 -26.79558372 340.83787727 C-24.77204184 340.84377685 -22.74852165 340.85199339 -20.72499084 340.86088562 C-14.36634427 340.88818312 -8.00774843 340.90753969 -1.64904737 340.9152894 C5.63978548 340.92422657 12.92786368 340.95923011 20.21646738 341.01729059 C25.88397386 341.06083716 31.55127054 341.08071454 37.21894217 341.08337164 C40.5883721 341.08544652 43.95653053 341.09979156 47.32588196 341.13301086 C70.19789687 341.34237453 89.76122446 338.26670984 107.265625 322.10546875 C118.90062206 309.55965122 122.38724414 294.67747609 122.0859375 277.984375 C121.05743197 254.05380073 106.65340635 236.12192106 89.91259766 220.32470703 C83.90402159 214.92523098 77.30482705 210.23091584 70.8125 205.4375 C59.38435087 196.94481015 49.99816675 186.70539565 46.8125 172.4375 C46.17827871 162.39393013 46.69525162 153.02411162 48.8125 143.1875 C52.92197344 123.44773365 53.86800872 98.28038562 45.8125 79.4375 C27.22907177 78.72458076 4.69932459 90.63023317 -9.1875 102.4375 Z " fill="#030302" transform="translate(160.1875,128.5625)"/>
<path d="M0 0 C4.29 0 8.58 0 13 0 C13 159.06 13 318.12 13 482 C-145.3125 482.3125 -145.3125 482.3125 -195.38012695 482.38793945 C-210.13473282 482.42448499 -210.13473282 482.42448499 -224.889328 482.4650116 C-231.48337197 482.48301633 -238.07736666 482.49281466 -244.6714325 482.49711609 C-252.26906962 482.50210014 -259.8666019 482.5173445 -267.4641899 482.54548384 C-271.3539649 482.55956261 -275.24359274 482.568888 -279.13339484 482.56503928 C-283.29065403 482.5610299 -287.44748438 482.5799335 -291.60469055 482.60127258 C-292.82903399 482.59642444 -294.05337744 482.59157629 -295.3148222 482.58658123 C-296.42538038 482.59603834 -297.53593857 482.60549545 -298.68015003 482.61523914 C-299.64198163 482.61713775 -300.60381323 482.61903635 -301.59479123 482.62099248 C-304.02968011 482.81950023 -304.02968011 482.81950023 -305.76999062 484.27404755 C-307.31314193 486.21693017 -307.31314193 486.21693017 -308 490 C-314.6 490 -321.2 490 -328 490 C-328.99 488.02 -329.98 486.04 -331 484 C-333.37382985 482.81308507 -334.89178893 482.84427133 -337.54150391 482.79467773 C-338.48232819 482.77473251 -339.42315247 482.75478729 -340.39248657 482.73423767 C-341.41023163 482.71752518 -342.42797668 482.70081268 -343.4765625 482.68359375 C-345.03713882 482.6524221 -345.03713882 482.6524221 -346.62924194 482.62062073 C-349.96109249 482.55510128 -353.2930235 482.49622908 -356.625 482.4375 C-358.88021674 482.39431706 -361.13542527 482.35070285 -363.390625 482.30664062 C-368.92700033 482.19941742 -374.4634568 482.09815671 -380 482 C-380 478.04 -380 474.08 -380 470 C-378.07103756 469.99853344 -376.14207512 469.99706688 -374.15465927 469.99555588 C-328.39836903 469.95987892 -282.64214243 469.90367404 -236.88590996 469.82207905 C-231.25808737 469.8120612 -225.63026449 469.80221714 -220.00244141 469.79248047 C-218.88201011 469.7905391 -217.76157881 469.78859772 -216.60719505 469.78659752 C-198.44866073 469.75554895 -180.29013906 469.7385889 -162.13158318 469.72680578 C-143.50892333 469.71440901 -124.88633002 469.68694102 -106.26371217 469.64538693 C-94.76607251 469.62020926 -83.26854316 469.60688583 -71.77087554 469.60857043 C-63.89397613 469.60860011 -56.01718935 469.59403363 -48.1403338 469.56783572 C-43.59101927 469.55314083 -39.04193573 469.54502846 -34.49260139 469.55419731 C-30.33122952 469.56244268 -26.17032316 469.55244492 -22.0090206 469.52766338 C-20.50022138 469.52194736 -18.9913785 469.52304489 -17.48259208 469.53148755 C-15.43797469 469.54195209 -13.39327189 469.52561776 -11.34870529 469.50780869 C-10.21106318 469.5062898 -9.07342107 469.50477092 -7.90130496 469.50320601 C-4.93513293 469.1948334 -4.93513293 469.1948334 -2.63309497 467.3866331 C-0.45368004 464.2015986 -0.50826619 462.15443645 -0.52177525 458.30606174 C-0.51865785 457.63097162 -0.51554046 456.9558815 -0.51232859 456.2603341 C-0.50673256 453.98745619 -0.52981546 451.71576593 -0.55262756 449.44300842 C-0.554463 447.80145014 -0.55452498 446.15988908 -0.55296129 444.51833051 C-0.55372168 439.9990153 -0.57943224 435.48012857 -0.60903275 430.96092284 C-0.63653624 426.09039784 -0.64088623 421.21984838 -0.64781189 416.34925842 C-0.66278464 407.90674282 -0.69186041 399.46437046 -0.72990608 391.02192879 C-0.78448081 378.81007424 -0.81231172 366.59826876 -0.83258491 354.38631433 C-0.86575025 334.56715212 -0.91311731 314.74805429 -0.97290039 294.92895508 C-0.97647395 293.74226396 -0.98004751 292.55557284 -0.98372936 291.33292138 C-1.02382994 278.09122381 -1.06627951 264.84953463 -1.11016846 251.60784912 C-1.1260139 246.80570501 -1.14177878 242.00356063 -1.1574707 237.20141602 C-1.16134861 236.01646969 -1.16522652 234.83152336 -1.16922195 233.61066956 C-1.23326763 213.86809694 -1.27788761 194.12553069 -1.30776113 174.38287729 C-1.3270813 162.19851024 -1.36362817 150.01442582 -1.42216837 137.8301829 C-1.4610936 129.48475097 -1.48230862 121.13939648 -1.4894541 112.79387719 C-1.49420295 107.97495339 -1.50731068 103.15641611 -1.54219437 98.33760834 C-1.57397135 93.92902279 -1.58287159 89.52101405 -1.57334536 85.11232977 C-1.57401029 83.51476573 -1.58322477 81.91717845 -1.60170079 80.31972111 C-1.62556154 78.15235194 -1.6187092 75.98718045 -1.6040659 73.8197794 C-1.60813279 72.61481676 -1.61219968 71.40985412 -1.61638981 70.16837746 C-0.82582698 66.10471285 0.94640854 64.68698792 4 62 C4.99159658 58.90855185 4.5749786 56.16851183 4 53 C3.17862522 51.50073634 2.32495323 50.01895603 1.44921875 48.55078125 C-2.70955779 39.69258721 -1.26174771 29.83447675 -0.8125 20.3125 C-0.73908172 18.33928251 -0.66809711 16.3659729 -0.59960938 14.39257812 C-0.42780399 9.59352911 -0.22303164 4.79693006 0 0 Z " fill="#A2DAFE" transform="translate(415,15)"/>
<path d="M0 0 C0.99424988 -0.00686325 1.98849976 -0.0137265 3.01287842 -0.02079773 C6.2907144 -0.03905892 9.56807145 -0.03522909 12.84594727 -0.02954102 C15.12988948 -0.03410311 17.41383032 -0.03940876 19.69776917 -0.04542542 C24.48167502 -0.05435519 29.26541392 -0.05193477 34.04931641 -0.04199219 C40.17383161 -0.03050249 46.29777027 -0.05071524 52.42220974 -0.07990932 C57.13804269 -0.09827257 61.85373751 -0.09797857 66.56959724 -0.0922718 C68.82739127 -0.09211861 71.08519467 -0.09816152 73.34295464 -0.11056328 C76.50243982 -0.12547338 79.66086019 -0.11479524 82.8203125 -0.09765625 C83.74884537 -0.10732422 84.67737823 -0.11699219 85.63404846 -0.12695312 C92.45771019 -0.04960863 96.79021707 1.43121047 101.88745117 6.18945312 C103.44452138 9.36057657 103.4039188 12.38028756 103.37329102 15.83764648 C103.37616119 16.55259781 103.37903137 17.26754913 103.38198853 18.00416565 C103.38402545 19.51287632 103.37852152 21.02161363 103.3659668 22.53027344 C103.34992985 24.83060276 103.36581415 27.12916902 103.38500977 29.42944336 C103.3830268 30.89884826 103.37918203 32.36825206 103.37329102 33.83764648 C103.37936371 34.52112656 103.3854364 35.20460663 103.39169312 35.90879822 C103.30927779 41.55100081 101.78887868 44.46227556 98.0055542 48.51203918 C93.610336 51.25589721 89.78301448 50.97931217 84.69604492 50.95336914 C83.66292679 50.963591 82.62980865 50.97381287 81.56538391 50.98434448 C78.1521585 51.01213146 74.73974105 51.01022351 71.32641602 51.00561523 C68.9513621 51.01338978 66.57631096 51.02205925 64.20126343 51.03158569 C59.2230325 51.04650924 54.24508524 51.04592867 49.2668457 51.03540039 C42.89208382 51.02381453 36.5184848 51.05766275 30.14391518 51.10408974 C25.23846668 51.13357767 20.33329776 51.13530608 15.42777634 51.12907028 C13.07786125 51.13009618 10.72793042 51.14056197 8.37810135 51.16069412 C5.08878678 51.18541529 1.80173054 51.17184929 -1.48754883 51.14868164 C-2.93880913 51.17161285 -2.93880913 51.17161285 -4.41938782 51.19500732 C-10.29080353 51.10376233 -13.47798389 50.05368196 -17.76670265 45.98334312 C-21.61037054 41.15971286 -20.28868933 33.71155067 -20.3203125 27.83544922 C-20.33182774 26.34479273 -20.35227278 24.85417733 -20.38183594 23.36376953 C-20.42466809 21.20373678 -20.44070176 19.04492703 -20.45092773 16.88452148 C-20.46551025 15.59441162 -20.48009277 14.30430176 -20.49511719 12.97509766 C-19.93185883 8.69521193 -18.83745835 6.6613525 -16.02514648 3.40405273 C-10.73852693 -0.04612237 -6.09734274 -0.02949641 0 0 Z " fill="#040402" transform="translate(309.025146484375,285.595947265625)"/>
<path d="M0 0 C8.21131144 0.63163934 16.20053624 1.33838417 24.3125 2.5625 C25.25544922 2.70107422 26.19839844 2.83964844 27.16992188 2.98242188 C29.44723212 3.31766044 31.72387041 3.65685353 34 4 C34.10809855 9.33736583 33.92438752 14.34828793 33 19.625 C32.22487249 24.82457796 31.70062692 29.9373979 31.5625 35.1875 C31.52253906 36.41855469 31.48257812 37.64960937 31.44140625 38.91796875 C31.62574219 39.93503906 31.81007813 40.95210937 32 42 C34.45396664 43.6933176 34.45396664 43.6933176 37 45 C37.5234375 46.9453125 37.5234375 46.9453125 37.375 49.125 C37.32988281 49.91261719 37.28476562 50.70023438 37.23828125 51.51171875 C37.15964844 52.33285156 37.08101563 53.15398437 37 54 C36.93167969 54.83144531 36.86335938 55.66289063 36.79296875 56.51953125 C36.21656687 62.56686627 36.21656687 62.56686627 35 65 C34.030625 65.309375 33.06125 65.61875 32.0625 65.9375 C28.7319557 66.74744122 28.7319557 66.74744122 27 70 C26.52216587 71.97536761 26.52216587 71.97536761 26.30151367 74.17211914 C26.19747726 75.01904327 26.09344086 75.86596741 25.98625183 76.73855591 C25.88121841 77.66143402 25.776185 78.58431213 25.66796875 79.53515625 C25.55129349 80.50363495 25.43461823 81.47211365 25.31440735 82.46994019 C24.93116315 85.6666046 24.55933616 88.86449022 24.1875 92.0625 C23.92130486 94.30094979 23.6543693 96.53931165 23.38671875 98.77758789 C22.70947678 104.45516111 22.04112126 110.13374205 21.37493896 115.81262207 C20.82498853 120.48778267 20.26657619 125.16191703 19.70703125 129.8359375 C18.9979575 135.76345986 18.29156724 141.69128494 17.58952332 147.61964417 C16.58020229 156.14219443 15.56036371 164.66341024 14.53125 173.18359375 C14.02061082 177.41403568 13.51017541 181.64450212 13 185.875 C12.87353088 186.92369263 12.74706177 187.97238525 12.61676025 189.05285645 C10.6957857 205.00213375 8.85895209 220.95954017 7.06802368 236.92388916 C5.22706528 253.30736254 3.1902335 269.65963203 1 286 C0.67 286 0.34 286 0 286 C0 191.62 0 97.24 0 0 Z " fill="#818181" transform="translate(443,37)"/>
<path d="M0 0 C4.3370262 11.82825326 5.38752556 23.32125346 5.375 35.875 C5.3764502 36.5498645 5.37790039 37.224729 5.37939453 37.92004395 C5.37710222 47.65260699 4.45914822 56.85632113 2.44091797 66.39135742 C-0.15399689 78.91922722 -1.17726601 92.37867464 5 104 C5.48597656 104.92039062 5.97195312 105.84078125 6.47265625 106.7890625 C12.88425835 117.79337249 22.77188355 124.65687195 32.74609375 132.19824219 C38.44524924 136.52322297 43.83105939 141.04751419 49 146 C49.92425781 146.86109375 50.84851563 147.7221875 51.80078125 148.609375 C58.00313522 154.55154904 62.81310819 160.50535376 67 168 C67.46019531 168.77601563 67.92039062 169.55203125 68.39453125 170.3515625 C76.27504648 184.58886797 78.64269154 202.78503231 74.74609375 218.61328125 C70.46869119 232.29649048 63.77609193 241.76763944 52 250 C51.67 249.34 51.34 248.68 51 248 C52.07421875 246.0390625 52.07421875 246.0390625 53.6875 243.625 C62.97931405 228.73648866 64.3631994 210.02263431 60.82202148 193.06225586 C56.35635407 174.43997341 47.20956736 160.54353586 34 147 C33.46721436 146.44094971 32.93442871 145.88189941 32.38549805 145.3059082 C28.2070928 140.99831669 23.75896456 137.37289758 18.9375 133.8125 C-11.18999885 111.03252928 -11.18999885 111.03252928 -15 96 C-15.24403327 93.301446 -15.37982329 90.75901961 -15.375 88.0625 C-15.37628906 87.2780249 -15.37757813 86.4935498 -15.37890625 85.68530273 C-15.27178183 79.45808699 -14.25334193 73.64721157 -13 67.5625 C-10.97102298 57.36730968 -10.57681648 47.41868367 -10.5625 37.0625 C-10.55677979 36.33282013 -10.55105957 35.60314026 -10.54516602 34.85134888 C-10.36534035 17.97756218 -10.36534035 17.97756218 -15 2 C-9.77487721 0.53329887 -5.4185766 -0.22577402 0 0 Z " fill="#BB684E" transform="translate(206,208)"/>
<path d="M0 0 C-19.66766574 19.19938798 -51.43849861 21.39518509 -77.1875 25.0625 C-107.88009691 29.47117623 -134.45898446 40.21274453 -157 62 C-157.78890625 62.75152344 -158.5778125 63.50304687 -159.390625 64.27734375 C-165.13825452 70.14548808 -169.18998094 76.40459184 -173.375 83.4375 C-181.23338115 96.5351855 -190.25024637 107.50332922 -205 113 C-205.99 112.67 -206.98 112.34 -208 112 C-207.40574219 111.319375 -206.81148438 110.63875 -206.19921875 109.9375 C-194.59241027 96.3631299 -185.8390381 82.13433088 -177.70703125 66.2421875 C-164.48633473 40.47203395 -143.97435408 25.40224042 -116.7578125 16.14453125 C-95.42355391 9.39417569 -73.29686098 8.43779143 -51.11108398 7.17700195 C-35.25676502 6.23971425 -20.0942459 4.1688161 -4.84375 -0.328125 C-2 -1 -2 -1 0 0 Z " fill="#F9DB01" transform="translate(289,167)"/>
<path d="M0 0 C1.8253125 0.00966797 1.8253125 0.00966797 3.6875 0.01953125 C6.34481759 0.15427731 8.45986182 0.52193495 11 1.1875 C11.33 0.8575 11.66 0.5275 12 0.1875 C19.13709584 -0.39750786 19.13709584 -0.39750786 22.09838867 1.61010742 C24.97539218 5.50952019 24.57330955 9.12232203 24.53125 13.8515625 C24.5350769 14.79881195 24.53890381 15.7460614 24.54284668 16.72201538 C24.5455675 18.72761089 24.53819443 20.73324179 24.52148438 22.73876953 C24.50021948 25.78109911 24.52120615 28.82102858 24.546875 31.86328125 C24.54422897 33.81771348 24.53909832 35.77214423 24.53125 37.7265625 C24.53934692 38.62484772 24.54744385 39.52313293 24.55578613 40.44863892 C24.44364022 48.16225361 22.25243223 54.48707563 18.25 61.0625 C12.01843762 66.94786447 5.97835256 67.88568513 -2.5078125 67.6484375 C-7.62126202 66.97350792 -11.84109905 65.23793355 -16 62.1875 C-18.44460927 58.5205861 -18.8300812 55.44915399 -18 51.1875 C-15.875 48.625 -15.875 48.625 -13 47.1875 C-9.51882526 47.26002447 -7.57327789 47.80015007 -4.6875 49.75 C-0.82804495 51.81435968 2.7102743 51.43983681 7 51.1875 C7.33 49.2075 7.66 47.2275 8 45.1875 C6.515 45.6825 6.515 45.6825 5 46.1875 C-1.84293112 46.92891883 -7.38471051 46.33489224 -13 42.1875 C-19.31521715 36.45561616 -22.4162494 30.71156715 -23.5 22.3125 C-23.22652884 16.27235436 -20.30136088 10.6840656 -16.25 6.2890625 C-10.93438309 1.59207342 -7.22581236 -0.08419908 0 0 Z " fill="#030405" transform="translate(174,49.8125)"/>
<path d="M0 0 C3.68374427 2.625431 6.39525926 5.36544863 9 9.0625 C9 9.7225 9 10.3825 9 11.0625 C8.33693848 11.18254395 7.67387695 11.30258789 6.99072266 11.42626953 C-22.27556019 16.80026481 -50.46196316 25.32885358 -72.27050781 46.60864258 C-75.81894912 50.0625 -75.81894912 50.0625 -78 50.0625 C-80.85438429 41.49934712 -80.47563174 28.46144925 -76.4453125 20.38671875 C-68.09428706 6.95736703 -57.6587026 -2.96075633 -42.14599609 -7.47729492 C-27.19820416 -10.68282254 -12.80556927 -7.91730955 0 0 Z " fill="#FCE774" transform="translate(191,151.9375)"/>
<path d="M0 0 C4.56935855 0.89755257 5.80840533 1.87440756 8.5 5.6875 C9.4794492 8.55646993 10.24260814 11.40535401 10.921875 14.359375 C11.27409983 16.63354975 11.27409983 16.63354975 12.5 17.6875 C12.73783203 16.47513672 12.73783203 16.47513672 12.98046875 15.23828125 C14.03512556 10.40783653 14.91257462 6.53600332 17.75 2.4375 C21.3243098 0.16293922 23.3377943 0.0064118 27.5 0.6875 C31.01690274 3.49843147 32.11926545 5.7618874 33 10.125 C33.34998047 11.83236328 33.34998047 11.83236328 33.70703125 13.57421875 C33.89193115 14.53787354 33.89193115 14.53787354 34.08056641 15.52099609 C34.55728984 17.98341968 35.0660702 20.43840571 35.57421875 22.89453125 C35.9467846 24.74189122 36.31787725 26.58954892 36.6875 28.4375 C36.86667969 29.31204834 37.04585937 30.18659668 37.23046875 31.08764648 C38.2805967 36.51518768 39.32447858 42.16218711 38.5 47.6875 C36.11132818 50.48565842 34.53985162 51.42753709 31 52.3125 C27.88480895 51.53370224 26.36812813 50.01619746 24.4375 47.48828125 C22.91745859 44.56853504 23.18014563 41.88604371 23.5 38.6875 C22.84 38.6875 22.18 38.6875 21.5 38.6875 C21.396875 39.739375 21.29375 40.79125 21.1875 41.875 C20.11568886 47.81867996 20.11568886 47.81867996 17.5 50.6875 C14.77908956 51.69677481 12.38569676 51.9636702 9.5 51.6875 C5.52845281 49.61538842 4.67366873 48.18369637 3.1875 43.9375 C2.960625 42.865 2.73375 41.7925 2.5 40.6875 C2.24605469 41.31398437 1.99210937 41.94046875 1.73046875 42.5859375 C1.38628906 43.40320313 1.04210938 44.22046875 0.6875 45.0625 C0.18283203 46.28066406 0.18283203 46.28066406 -0.33203125 47.5234375 C-1.5 49.6875 -1.5 49.6875 -4.5 51.6875 C-8.15955902 51.55680146 -10.58415569 51.45562749 -13.4375 49.0625 C-15.81503446 43.74801121 -14.32856935 37.56678489 -13.36328125 31.99609375 C-13.1813044 30.93359154 -13.1813044 30.93359154 -12.99565125 29.84962463 C-12.7375957 28.36244727 -12.47605582 26.87587065 -12.21118164 25.38989258 C-11.81345955 23.13045114 -11.44277188 20.86755683 -11.07226562 18.60351562 C-10.81676208 17.15074911 -10.55965392 15.6982637 -10.30078125 14.24609375 C-10.195345 13.57718613 -10.08990875 12.9082785 -9.98127747 12.21910095 C-8.84672356 6.17773618 -6.363278 1.24992961 0 0 Z " fill="#030404" transform="translate(57.5,48.3125)"/>
<path d="M0 0 C18 2 18 2 21 3 C21.1948618 10.46805382 20.4344632 17.61660966 19.4609375 25.015625 C19.21350605 26.95451241 18.96608171 28.89340075 18.71894646 30.83232594 C18.45581372 32.88960231 18.19010695 34.94653188 17.92370605 37.00338745 C16.9889854 44.22562811 16.07638453 51.45068278 15.1640625 58.67578125 C15.07162262 59.40670046 14.97918274 60.13761967 14.88394165 60.89068794 C13.05184155 75.3928522 11.3678419 89.90985271 9.75 104.4375 C9.27092248 108.73308287 8.79180508 113.02866127 8.3125 117.32421875 C8.20030121 118.33076508 8.08810242 119.3373114 7.97250366 120.37435913 C6.53811479 133.19759777 4.96879738 146.00384731 3.390625 158.81005859 C2.56689388 165.53685284 1.78110154 172.268138 1 179 C0.67 179 0.34 179 0 179 C0 119.93 0 60.86 0 0 Z " fill="#9C9C9C" transform="translate(444,37)"/>
<path d="M0 0 C1.97265625 0.4609375 1.97265625 0.4609375 3.56665039 1.89990234 C5.7063303 5.79732242 5.44041002 9.51861857 5.44140625 13.8984375 C5.45282654 15.2740686 5.45282654 15.2740686 5.46447754 16.67749023 C5.47527017 18.61406738 5.47813504 20.5507027 5.47363281 22.48730469 C5.47265956 25.45085468 5.51430848 28.41182319 5.55859375 31.375 C5.56380019 33.2578071 5.56648895 35.1406232 5.56640625 37.0234375 C5.59099915 38.35169556 5.59099915 38.35169556 5.61608887 39.70678711 C5.54747632 45.80944219 5.54747632 45.80944219 2.67382812 49.06640625 C-0.92121526 50.92241563 -3.16456009 50.36982777 -7.02734375 49.4609375 C-7.35734375 48.4709375 -7.68734375 47.4809375 -8.02734375 46.4609375 C-8.7440625 46.78191406 -9.46078125 47.10289063 -10.19921875 47.43359375 C-15.53972355 49.37358375 -21.19453938 49.47638891 -26.56640625 47.55078125 C-31.54305898 44.96258894 -34.84040757 42.05387494 -38.02734375 37.4609375 C-38.62546875 36.6153125 -39.22359375 35.7696875 -39.83984375 34.8984375 C-42.02911327 28.56107837 -42.25440883 21.97852407 -40.03125 15.60546875 C-36.61504356 9.20854961 -32.02313296 4.63895407 -25.02734375 2.4609375 C-20.53661798 2.01260163 -16.08710615 2.20337601 -11.58984375 2.4453125 C-10.41421875 2.45046875 -9.23859375 2.455625 -8.02734375 2.4609375 C-5.44743574 -0.11897051 -3.52489914 0.14494912 0 0 Z " fill="#020203" transform="translate(140.02734375,49.5390625)"/>
<path d="M0 0 C2.5794646 0.47503012 3.33980355 1.33661809 4.97265625 3.36328125 C5.36706543 5.32957458 5.36706543 5.32957458 5.39257812 7.58764648 C5.40848999 8.43540146 5.42440186 9.28315643 5.4407959 10.15660095 C5.44099731 11.06914139 5.44119873 11.98168182 5.44140625 12.921875 C5.45282654 14.33292259 5.45282654 14.33292259 5.46447754 15.7724762 C5.47528364 17.76210882 5.47812958 19.75179819 5.47363281 21.74145508 C5.47266088 24.78628136 5.51426768 27.82858488 5.55859375 30.87304688 C5.56380099 32.80598432 5.56648894 34.73893054 5.56640625 36.671875 C5.59099915 38.03764931 5.59099915 38.03764931 5.61608887 39.43101501 C5.54744612 45.70785232 5.54744612 45.70785232 2.67382812 48.98461914 C-0.92050132 50.81914358 -3.17341012 50.27008916 -7.02734375 49.36328125 C-7.35734375 48.37328125 -7.68734375 47.38328125 -8.02734375 46.36328125 C-8.95546875 46.85828125 -8.95546875 46.85828125 -9.90234375 47.36328125 C-16.41095705 49.4460375 -22.13044366 49.12055502 -28.33984375 46.23828125 C-35.01075361 42.51595537 -38.7254744 37.75349336 -41.02734375 30.36328125 C-41.89843901 23.26704184 -41.43527704 17.16706009 -37.02734375 11.36328125 C-28.5669672 2.59084163 -28.5669672 2.59084163 -23.15136719 2.24267578 C-20.89836663 2.23809858 -18.65406596 2.2877201 -16.40234375 2.36328125 C-13.58686883 2.45681862 -10.84863074 2.45674003 -8.02734375 2.36328125 C-5.4339847 -0.2300778 -3.53987343 0.08601562 0 0 Z " fill="#020203" transform="translate(245.02734375,49.63671875)"/>
<path d="M0 0 C30.69 0 61.38 0 93 0 C93 6.6 93 13.2 93 20 C62.31 20 31.62 20 0 20 C0 13.4 0 6.8 0 0 Z " fill="#FDE875" transform="translate(304,301)"/>
<path d="M0 0 C6.31070166 2.84959978 10.09710999 7.79432924 13.390625 13.72265625 C14.73992319 18.07039485 15.30088171 21.83876287 14.515625 26.34765625 C12.72168832 29.21795494 11.53299224 30.83897263 8.515625 32.34765625 C6.64505709 32.57515775 4.76876542 32.75728436 2.890625 32.91015625 C1.88773437 32.99394531 0.88484375 33.07773438 -0.1484375 33.1640625 C-0.91929687 33.22464844 -1.69015625 33.28523438 -2.484375 33.34765625 C-1.246875 34.12109375 -1.246875 34.12109375 0.015625 34.91015625 C2.515625 37.34765625 2.515625 37.34765625 3.078125 40.84765625 C2.42337759 44.92164015 1.71788064 45.85999793 -1.484375 48.34765625 C-9.11855889 49.71513348 -15.78932597 48.34189576 -22.28515625 44.19921875 C-28.48182136 39.60811355 -31.6754159 33.0698728 -32.96484375 25.54296875 C-33.33107695 18.55484329 -31.48689368 13.06125166 -27.484375 7.34765625 C-19.89647549 -0.8330479 -10.95802699 -2.87734357 0 0 Z " fill="#040505" transform="translate(405.484375,50.65234375)"/>
<path d="M0 0 C0.90298828 -0.00064453 1.80597656 -0.00128906 2.73632812 -0.00195312 C3.67283203 0.01802734 4.60933594 0.03800781 5.57421875 0.05859375 C6.49912109 0.05150391 7.42402344 0.04441406 8.37695312 0.03710938 C15.5472852 0.10335978 20.65939355 1.01205606 26.01171875 6.12109375 C31.68474194 13.75228845 31.75608474 22.58549945 31.69921875 31.74609375 C31.72918945 33.48246094 31.72918945 33.48246094 31.75976562 35.25390625 C31.75495388 43.5878458 31.75495388 43.5878458 29.48828125 47.76171875 C27.11887371 49.60736252 26.15909526 50.13296665 23.19921875 49.99609375 C19.26171875 49.49609375 19.26171875 49.49609375 17.54541016 48.359375 C15.67479771 45.64417641 15.84217323 43.45813008 15.78515625 40.18359375 C15.75421875 38.94351563 15.72328125 37.7034375 15.69140625 36.42578125 C15.67335938 35.12898438 15.6553125 33.8321875 15.63671875 32.49609375 C15.58577288 29.93351663 15.53125614 27.37100727 15.47265625 24.80859375 C15.45509277 23.67035156 15.4375293 22.53210938 15.41943359 21.359375 C15.38386893 18.42325597 15.38386893 18.42325597 14.26171875 15.49609375 C11.25787821 16.19152815 11.25787821 16.19152815 8.26171875 17.49609375 C7.09461223 20.507968 7.11253926 23.53955323 7.05078125 26.7421875 C7.02242188 27.74443359 6.9940625 28.74667969 6.96484375 29.77929688 C6.91286155 31.87807839 6.86856015 33.97706453 6.83203125 36.07617188 C6.52965294 45.88456835 6.52965294 45.88456835 3.26171875 49.49609375 C-0.11328125 50.62109375 -0.11328125 50.62109375 -3.73828125 50.49609375 C-6.51395714 48.5071998 -8.41350984 46.91485016 -9.19851685 43.48556519 C-9.38390933 41.03639105 -9.40511686 38.63561738 -9.3671875 36.1796875 C-9.36959946 35.28621109 -9.37201141 34.39273468 -9.37449646 33.47218323 C-9.37351937 31.58858794 -9.36015864 29.70496345 -9.33520508 27.8215332 C-9.30084898 24.93927555 -9.3145639 22.06007711 -9.33398438 19.17773438 C-9.3270869 17.34503904 -9.31741541 15.51235161 -9.3046875 13.6796875 C-9.30964737 12.81919296 -9.31460724 11.95869843 -9.31971741 11.0721283 C-9.24497362 7.27550059 -9.17982956 5.14168151 -6.99902344 1.953125 C-4.41572963 0.28821167 -3.05161665 -0.00694441 0 0 Z " fill="#030304" transform="translate(336.73828125,49.50390625)"/>
<path d="M0 0 C1.26650391 -0.01933594 2.53300781 -0.03867187 3.83789062 -0.05859375 C14.12664565 -0.00424217 14.12664565 -0.00424217 17.30859375 2.7890625 C19.24743004 6.16459043 19.30626993 7.78044699 18.9375 11.625 C17.59228516 14.27807617 17.59228516 14.27807617 15.7265625 16.91796875 C15.05882812 17.87767578 14.39109375 18.83738281 13.703125 19.82617188 C12.64351563 21.3044043 12.64351563 21.3044043 11.5625 22.8125 C10.86382812 23.80958984 10.16515625 24.80667969 9.4453125 25.83398438 C8.15039061 27.68049319 6.84971196 29.52298761 5.54150391 31.36010742 C4.31235081 33.09570153 3.11721368 34.85542947 1.9375 36.625 C2.81792969 36.57859375 3.69835937 36.5321875 4.60546875 36.484375 C6.34763672 36.43023437 6.34763672 36.43023437 8.125 36.375 C9.27355469 36.32859375 10.42210937 36.2821875 11.60546875 36.234375 C15.60097841 36.70278176 17.17575127 37.74583866 19.9375 40.625 C20.5625 44.125 20.5625 44.125 19.9375 47.625 C17.19977196 50.48309229 15.52504087 51.53422042 11.58764648 52.14257812 C10.34055908 52.14708984 9.09347168 52.15160156 7.80859375 52.15625 C6.80131981 52.16199036 6.80131981 52.16199036 5.7736969 52.16784668 C4.36091605 52.17055691 2.94808426 52.16325788 1.53540039 52.14648438 C-0.62272091 52.12502266 -2.77752707 52.14632758 -4.93554688 52.171875 C-6.31250731 52.16923222 -7.6894657 52.16410825 -9.06640625 52.15625 C-10.31236572 52.15173828 -11.5583252 52.14722656 -12.84204102 52.14257812 C-16.62390368 51.53477365 -17.8148767 50.67698887 -20.0625 47.625 C-20.83972032 43.18526199 -20.23725262 40.46998508 -17.8671875 36.7578125 C-16.90677661 35.41021678 -15.92946742 34.07453915 -14.9375 32.75 C-13.92798472 31.34664232 -12.91886765 29.9429981 -11.91015625 28.5390625 C-11.42047363 27.86907227 -10.93079102 27.19908203 -10.42626953 26.50878906 C-8.67568555 24.09068916 -7.01705774 21.61776235 -5.375 19.125 C-4.91738281 18.4340625 -4.45976562 17.743125 -3.98828125 17.03125 C-3.68277344 16.5671875 -3.37726563 16.103125 -3.0625 15.625 C-4.40054687 15.71201172 -4.40054687 15.71201172 -5.765625 15.80078125 C-6.93609375 15.84589844 -8.1065625 15.89101562 -9.3125 15.9375 C-10.47265625 15.99550781 -11.6328125 16.05351563 -12.828125 16.11328125 C-16.0625 15.625 -16.0625 15.625 -18.4453125 13.26171875 C-20.0625 10.625 -20.0625 10.625 -20.6875 8.125 C-19.93692691 5.12270763 -18.66065392 3.61275151 -16.25585938 1.69433594 C-11.26715719 -0.73782296 -5.42471403 -0.08307372 0 0 Z " fill="#030404" transform="translate(278.0625,48.375)"/>
<path d="M0 0 C0.50789062 1.07378906 1.01578125 2.14757812 1.5390625 3.25390625 C5.07311743 10.59585371 8.33222109 17.04883215 14 23 C14 23.66 14 24.32 14 25 C14.99 25.33 15.98 25.66 17 26 C16.38394021 30.00438862 14.24558699 32.70179411 12 36 C10.8992924 39.3021228 10.79372928 41.94083279 10.68359375 45.41796875 C10.64169922 46.67158203 10.59980469 47.92519531 10.55664062 49.21679688 C10.51732422 50.52712891 10.47800781 51.83746094 10.4375 53.1875 C10.39429008 54.52279978 10.350675 55.85808652 10.30664062 57.19335938 C10.20043498 60.46213297 10.09839003 63.73098333 10 67 C2.50712883 70.13800011 -4.40154527 69.64294078 -12 67 C-11.93071289 66.4644751 -11.86142578 65.9289502 -11.79003906 65.37719727 C-10.84952587 57.24309693 -10.76194698 49.11520916 -10.75 40.9375 C-10.74766357 40.20688354 -10.74532715 39.47626709 -10.74291992 38.72351074 C-10.73112867 28.95660217 -11.16643877 19.60285205 -13.34375 10.046875 C-13.94642842 7.24872519 -14.12849322 4.84826632 -14 2 C-12.4176994 1.66179834 -10.83410625 1.32964061 -9.25 1 C-8.36828125 0.814375 -7.4865625 0.62875 -6.578125 0.4375 C-4 0 -4 0 0 0 Z " fill="#FBBB82" transform="translate(236,203)"/>
<path d="M0 0 C-17.35861661 11.57241107 -47.33211472 11.95695733 -67.53417969 14.48291016 C-94.74846499 18.54319871 -123.02903212 34.27110005 -140 56 C-142.41309865 59.46062149 -144.65137196 63.02999607 -146.8828125 66.609375 C-152.21318689 75.14584173 -158.11169947 82.65872732 -165 90 C-165 85.95441717 -163.41336598 84.39211209 -161.125 81.0625 C-157.18455397 75.18420737 -153.95744116 69.11564073 -150.875 62.75 C-147.43796494 55.71145022 -143.97972604 49.09739788 -139 43 C-138.33742188 42.17628906 -137.67484375 41.35257813 -136.9921875 40.50390625 C-115.39921458 15.07992201 -80.83696754 5.49824908 -48.80102539 2.65185547 C-37.26871722 1.72402934 -25.71365096 1.04088656 -14.1640625 0.3671875 C-12.95186035 0.29612793 -11.7396582 0.22506836 -10.49072266 0.15185547 C-6.98897718 -0.00047952 -3.50457647 -0.0263502 0 0 Z " fill="#F9E471" transform="translate(261,173)"/>
<path d="M0 0 C0.77269226 -0.00846954 1.54538452 -0.01693909 2.3414917 -0.02566528 C4.89856378 -0.04908454 7.45503576 -0.0500562 10.01220703 -0.04882812 C11.78956341 -0.05592754 13.56691749 -0.06362622 15.3442688 -0.07189941 C19.0716997 -0.0853561 22.79891877 -0.08690805 26.52636719 -0.08105469 C31.30054478 -0.07516215 36.07370417 -0.10572558 40.84768486 -0.14617157 C44.51947495 -0.17203833 48.1910197 -0.17492685 51.86288834 -0.17127991 C53.62274863 -0.17297261 55.38262007 -0.18262962 57.1423912 -0.20042419 C59.60603378 -0.22259129 62.06761375 -0.21292497 64.53125 -0.1953125 C65.25661957 -0.20857574 65.98198914 -0.22183899 66.7293396 -0.23550415 C70.61546688 -0.17103656 72.28900502 0.33688394 75.38650513 2.76306152 C77.39501953 5.41992188 77.39501953 5.41992188 77.39501953 8.54492188 C76.11899894 12.21348106 74.82623509 13.7043141 71.39501953 15.41992188 C68.95026127 15.53868554 66.5330595 15.59820632 64.0871582 15.61279297 C62.95759956 15.6250592 62.95759956 15.6250592 61.80522156 15.63757324 C59.30781858 15.66242918 56.81047245 15.67894365 54.31298828 15.69335938 C53.03429084 15.70134489 53.03429084 15.70134489 51.72976112 15.70949173 C47.21771773 15.73622415 42.70570202 15.75559875 38.19360352 15.77001953 C33.53269874 15.78666816 28.87250095 15.83144693 24.21186352 15.88239098 C20.62847581 15.91604404 17.04525632 15.92759478 13.46172523 15.93324661 C11.74370228 15.93996446 10.0256906 15.95520051 8.30782127 15.97913742 C5.90164935 16.01075219 3.49738947 16.01083222 1.09106445 16.00341797 C0.38282532 16.0198233 -0.32541382 16.03622864 -1.05511475 16.0531311 C-4.88413662 16.00489201 -6.52262436 15.4837376 -9.58598328 13.11001587 C-11.60498047 10.41992188 -11.60498047 10.41992188 -11.60498047 6.79492188 C-9.63032293 0.13045268 -6.481025 -0.02603899 0 0 Z " fill="#030404" transform="translate(331.60498046875,468.580078125)"/>
<path d="M0 0 C0.78419815 -0.00861557 1.5683963 -0.01723114 2.37635803 -0.02610779 C4.96543494 -0.0487886 7.55343139 -0.04202586 10.14257812 -0.03295898 C11.94332196 -0.03819341 13.74406305 -0.04446922 15.5447998 -0.05174255 C19.3175955 -0.06215044 23.09001411 -0.05757944 26.86279297 -0.04296875 C31.69873046 -0.02577422 36.53348059 -0.04928187 41.36928558 -0.08445835 C45.08738078 -0.10641282 48.80519095 -0.10499576 52.52333069 -0.09669304 C54.30633344 -0.09587256 56.08935693 -0.10275445 57.87229919 -0.11746407 C60.36482883 -0.13487616 62.85521317 -0.12039819 65.34765625 -0.09765625 C66.08440079 -0.10934845 66.82114532 -0.12104065 67.58021545 -0.13308716 C71.33952236 -0.06326094 72.88477433 0.26035006 75.65905762 2.88148499 C77.17382812 5.53344727 77.17382812 5.53344727 77.23632812 8.59594727 C75.88116868 12.34256456 74.52373776 13.40219831 71.17382812 15.53344727 C68.51381877 15.92049132 66.27072635 16.08197651 63.6171875 16.05102539 C62.8734639 16.05803467 62.1297403 16.06504395 61.36347961 16.07226562 C58.91446165 16.08981577 56.46660705 16.07823437 54.01757812 16.06469727 C52.31034118 16.06739306 50.60310573 16.07127621 48.89587402 16.07629395 C45.32154695 16.08218492 41.7476203 16.07363919 38.17333984 16.05493164 C33.59659705 16.03214204 29.02079255 16.04526731 24.44408417 16.0692215 C20.91982989 16.08369047 17.39579729 16.07906851 13.87153625 16.06871033 C12.18426909 16.06604607 10.49698165 16.06930224 8.80973816 16.07862854 C6.4494411 16.08881266 4.09065364 16.07326913 1.73046875 16.05102539 C0.68920586 16.06317078 0.68920586 16.06317078 -0.37309265 16.07556152 C-3.83963808 16.01517861 -5.7663798 15.57076425 -8.73205566 13.71984863 C-11.6161397 10.70866652 -11.89981606 8.65752171 -11.82617188 4.53344727 C-8.66732388 -0.02392729 -5.15809875 -0.04568901 0 0 Z " fill="#060708" transform="translate(331.826171875,440.466552734375)"/>
<path d="M0 0 C1.63842613 -0.00929787 1.63842613 -0.00929787 3.30995178 -0.01878357 C5.61897897 -0.02588465 7.92805733 -0.02270278 10.23706055 -0.01000977 C13.76902629 0.00384299 17.29833671 -0.03019835 20.83007812 -0.06835938 C23.0742194 -0.06931069 25.31836399 -0.06745111 27.5625 -0.0625 C28.61783432 -0.07575821 29.67316864 -0.08901642 30.76048279 -0.10267639 C38.0626414 -0.01002254 38.0626414 -0.01002254 42.04516602 2.91430664 C43.84765625 5.56640625 43.84765625 5.56640625 43.97265625 8.62890625 C42.51055042 12.44662702 41.37573291 13.46259638 37.84765625 15.56640625 C34.24468463 16.16978976 30.68185874 16.15074812 27.03515625 16.1328125 C25.46544067 16.14211037 25.46544067 16.14211037 23.86401367 16.15159607 C21.65512013 16.15868879 19.44617307 16.15552985 17.23730469 16.14282227 C13.85902546 16.12895293 10.4835143 16.16304217 7.10546875 16.20117188 C4.95703057 16.20212306 2.80858893 16.20026428 0.66015625 16.1953125 C-0.85251831 16.21519981 -0.85251831 16.21519981 -2.39575195 16.23548889 C-7.1245802 16.17273803 -9.41584252 16.11700734 -13.29296875 13.21850586 C-15.15234375 10.56640625 -15.15234375 10.56640625 -15.71484375 7.50390625 C-14.08842127 -0.98963337 -7.11234696 -0.03336268 0 0 Z " fill="#050607" transform="translate(365.15234375,353.43359375)"/>
<path d="M0 0 C0.94455551 -0.01268417 1.88911102 -0.02536835 2.86228943 -0.03843689 C3.87590042 -0.03550125 4.88951141 -0.03256561 5.93383789 -0.02954102 C6.98172989 -0.03478287 8.02962189 -0.04002472 9.10926819 -0.04542542 C11.32413853 -0.05184533 13.53904298 -0.05050904 15.75390625 -0.04199219 C19.14067399 -0.03348699 22.5257526 -0.06223783 25.91235352 -0.09399414 C28.0653478 -0.09560638 30.21834507 -0.0950282 32.37133789 -0.09204102 C33.38292465 -0.10327499 34.39451141 -0.11450897 35.43675232 -0.12608337 C39.88584275 -0.08204374 42.49054823 -0.03779708 46.35766602 2.30786133 C48.38048977 4.58592596 48.87981995 5.46472361 48.78149414 8.46655273 C48.21899414 12.40405273 48.21899414 12.40405273 46.49511719 14.12390137 C43.85233617 15.6102708 42.25612898 15.79468157 39.23852539 15.82397461 C38.25070068 15.83988647 37.26287598 15.85579834 36.24511719 15.87219238 C34.65437378 15.87249451 34.65437378 15.87249451 33.03149414 15.87280273 C31.93683838 15.88041626 30.84218262 15.88802979 29.71435547 15.89587402 C27.40114625 15.90667417 25.08788826 15.90952849 22.7746582 15.9050293 C19.23184188 15.90405626 15.69118563 15.94569663 12.14868164 15.98999023 C9.90129033 15.99519661 7.65389148 15.99788544 5.40649414 15.99780273 C4.34599854 16.014198 3.28550293 16.03059326 2.19287109 16.04748535 C-5.10970015 15.97869431 -5.10970015 15.97869431 -8.48022461 13.09350586 C-10.26743383 9.39833004 -9.93543314 7.30024482 -8.78100586 3.40405273 C-5.9176007 0.66728794 -3.91478586 0.02552216 0 0 Z " fill="#030404" transform="translate(359.781005859375,411.595947265625)"/>
<path d="M0 0 C2.18334961 1.44360352 2.18334961 1.44360352 4 4 C4.60688197 7.13166375 4.58429447 10.22000148 4.56640625 13.40234375 C4.57570412 14.77441734 4.57570412 14.77441734 4.58518982 16.17420959 C4.59228608 18.10660743 4.58911734 20.03906643 4.57641602 21.97143555 C4.56256257 24.92416282 4.59660744 27.87371288 4.63476562 30.82617188 C4.63571698 32.70572994 4.63385714 34.58529196 4.62890625 36.46484375 C4.64216446 37.34518784 4.65542267 38.22553192 4.66908264 39.1325531 C4.60193517 43.56641759 4.4330247 45.43621687 1.65209961 49.05688477 C-1 51 -1 51 -4.0625 51.625 C-7 51 -7 51 -9.15039062 49.05688477 C-11.71952462 44.81082791 -11.57608578 41.33964695 -11.53125 36.46484375 C-11.5350769 35.5491713 -11.53890381 34.63349884 -11.54284668 33.69007874 C-11.54556228 31.75943905 -11.53822574 29.82876236 -11.52148438 27.89819336 C-11.50004474 24.94366552 -11.52131022 21.99156246 -11.546875 19.03710938 C-11.54423214 17.1588488 -11.53910803 15.28058974 -11.53125 13.40234375 C-11.53934692 12.51997543 -11.54744385 11.63760712 -11.55578613 10.72850037 C-11.46285549 4.65212054 -11.46285549 4.65212054 -9.18554688 1.44360352 C-5.96462094 -0.68389146 -3.76963325 -0.53851904 0 0 Z " fill="#020203" transform="translate(316,49)"/>
<path d="M0 0 C3.09682722 1.54841361 3.84577091 4.60669677 5.25 7.625 C9.24214941 15.88544593 13.83892283 21.37343937 21 27 C20.62698541 29.69269909 20.2398855 30.78389625 18.1875 32.6328125 C17.465625 33.12523437 16.74375 33.61765625 16 34.125 C12.97716106 36.10073376 12.97716106 36.10073376 11 39 C10.84588894 41.0307477 10.75017547 43.06606421 10.68359375 45.1015625 C10.64169922 46.31328125 10.59980469 47.525 10.55664062 48.7734375 C10.51732422 50.04445312 10.47800781 51.31546875 10.4375 52.625 C10.39431641 53.90375 10.35113281 55.1825 10.30664062 56.5 C10.20030114 59.66655348 10.09827167 62.83318753 10 66 C6.04 65.505 6.04 65.505 2 65 C2.15984375 63.68128906 2.3196875 62.36257813 2.484375 61.00390625 C3.21259576 53.66101355 3.23923067 46.30910306 3.25 38.9375 C3.25233643 38.20688354 3.25467285 37.47626709 3.25708008 36.72351074 C3.26887133 26.95660217 2.83356123 17.60285205 0.65625 8.046875 C0.05357158 5.24872519 -0.12849322 2.84826632 0 0 Z " fill="#FCD0A1" transform="translate(222,205)"/>
<path d="M0 0 C3.96 0 7.92 0 12 0 C12 6.6 12 13.2 12 20 C8.04 20 4.08 20 0 20 C0 13.4 0 6.8 0 0 Z " fill="#FDDE03" transform="translate(385,301)"/>
<path d="M0 0 C9.6864245 -1.12632843 19.40834257 3.95228559 27.12109375 9.44921875 C29.88919818 11.73391201 31.93101941 14.06338239 34 17 C34 17.66 34 18.32 34 19 C29.71 19.66 25.42 20.32 21 21 C15.125 12.375 15.125 12.375 14 9 C12.16501763 7.91018994 12.16501763 7.91018994 10 7 C8.61443804 6.18434843 7.23929806 5.350741 5.875 4.5 C5.19179687 4.0771875 4.50859375 3.654375 3.8046875 3.21875 C2 2 2 2 0 0 Z " fill="#F6D802" transform="translate(166,144)"/>
<path d="M0 0 C3.0625 2.0625 3.0625 2.0625 5 5 C5.1506132 9.29247606 4.66257079 11.22050496 1.875 14.5 C-1.97148295 16.50686067 -3.88546541 16.27176524 -8 15 C-10.5 12.875 -10.5 12.875 -12 10 C-11.94021398 6.53241058 -11.60965977 4.11173251 -9.9375 1.0625 C-6.70668894 -0.7092351 -3.5202266 -0.7177161 0 0 Z " fill="#AFD8F3" transform="translate(178,65)"/>
<path d="M0 0 C2.5 1.5625 2.5 1.5625 4 4 C4.5625 7.4375 4.5625 7.4375 4 11 C1.55401113 14.38121991 0.10703441 15.76936783 -4 16.625 C-8.10703441 15.76936783 -9.55401113 14.38121991 -12 11 C-12.62491523 7.04220351 -12.61006839 4.99136114 -10.5 1.5625 C-6.97873756 -0.63828902 -4.04560357 -0.80414661 0 0 Z " fill="#B2DCF7" transform="translate(126,67)"/>
<path d="M0 0 C2.5 1.5625 2.5 1.5625 4 4 C4.5625 7.4375 4.5625 7.4375 4 11 C1.52506641 14.42123173 0.11736219 15.79477021 -4.0625 16.5625 C-7.61734581 15.88178485 -8.777046 14.79927541 -11 12 C-12.42041821 9.15916359 -12.31452272 7.14522722 -12 4 C-9.04487268 -0.67895159 -5.10946802 -1.01561147 0 0 Z " fill="#B3DDF8" transform="translate(231,67)"/>
<path d="M0 0 C2 1.625 2 1.625 3 4 C2.93416738 7.75245951 2.81598805 10.06312483 0.3125 12.9375 C-2.76819895 14.35295627 -4.64720251 14.55879958 -8 14 C-10.4375 11.9375 -10.4375 11.9375 -12 9 C-12 5.19715329 -11.7968187 2.98069994 -9.375 0 C-5.88418213 -1.46981805 -3.60851044 -0.98413921 0 0 Z " fill="#070809" transform="translate(317,29)"/>
<path d="M0 0 C2.09375 -0.3984375 2.09375 -0.3984375 4.5 -0.375 C5.2940625 -0.38273437 6.088125 -0.39046875 6.90625 -0.3984375 C7.5971875 -0.26695313 8.288125 -0.13546875 9 0 C9.66 0.99 10.32 1.98 11 3 C6.71 3 2.42 3 -2 3 C-1.34 2.01 -0.68 1.02 0 0 Z " fill="#8BACC2" transform="translate(392,65)"/>
</svg>
