<?xml version="1.0" encoding="UTF-8"?>
<!DOCTYPE svg PUBLIC "-//W3C//DTD SVG 1.1//EN" "http://www.w3.org/Graphics/SVG/1.1/DTD/svg11.dtd">
<svg xmlns="http://www.w3.org/2000/svg" version="1.1" width="512px" height="512px" style="shape-rendering:geometricPrecision; text-rendering:geometricPrecision; image-rendering:optimizeQuality; fill-rule:evenodd; clip-rule:evenodd" xmlns:xlink="http://www.w3.org/1999/xlink">
<g><path style="opacity:0.993" fill="#367ce1" d="M 473.5,177.5 C 465.73,193.814 453.397,198.648 436.5,192C 372.601,145.764 308.434,99.9307 244,54.5C 180.511,99.9854 117.011,145.485 53.5,191C 40.5426,198.255 29.0426,196.421 19,185.5C 16.9653,182.439 15.7986,179.105 15.5,175.5C 17.466,170.028 20.7993,165.528 25.5,162C 93.5,113.333 161.5,64.6667 229.5,16C 241.506,9.33392 252.84,10.3339 263.5,19C 332.265,68.1326 400.765,117.633 469,167.5C 471.324,170.48 472.824,173.813 473.5,177.5 Z"/></g>
<g><path style="opacity:1" fill="#2467d3" d="M 473.5,177.5 C 476.51,194.014 469.843,204.514 453.5,209C 449.095,209.696 444.761,209.363 440.5,208C 431.406,202.728 422.739,196.895 414.5,190.5C 401.558,180.356 388.225,170.689 374.5,161.5C 361.205,151.845 347.871,142.179 334.5,132.5C 304.757,110.594 274.59,89.2607 244,68.5C 186.396,108.631 129.562,149.631 73.5,191.5C 65.8907,196.646 58.2241,201.813 50.5,207C 29.7509,212.795 17.4176,205.128 13.5,184C 13.4886,180.884 14.1553,178.051 15.5,175.5C 15.7986,179.105 16.9653,182.439 19,185.5C 29.0426,196.421 40.5426,198.255 53.5,191C 117.011,145.485 180.511,99.9854 244,54.5C 308.434,99.9307 372.601,145.764 436.5,192C 453.397,198.648 465.73,193.814 473.5,177.5 Z"/></g>
<g><path style="opacity:0.997" fill="#f0f1f1" d="M 334.5,132.5 C 334.5,139.5 334.5,146.5 334.5,153.5C 321.097,151.597 313.597,143.93 312,130.5C 311.424,127.876 310.09,127.209 308,128.5C 306.671,144.496 298.004,153.163 282,154.5C 281.383,155.449 281.549,156.282 282.5,157C 293.592,157.455 301.425,162.622 306,172.5C 306.301,175.974 307.134,179.308 308.5,182.5C 309.325,183.386 310.325,183.719 311.5,183.5C 311.705,169.306 318.705,160.972 332.5,158.5C 333.831,165.301 334.497,172.467 334.5,180C 334.484,187.576 334.151,195.076 333.5,202.5C 330.063,202.245 327.396,203.412 325.5,206C 325.645,206.772 325.978,207.439 326.5,208C 329.379,208.546 332.046,209.379 334.5,210.5C 334.5,253.167 334.5,295.833 334.5,338.5C 327.833,338.5 321.167,338.5 314.5,338.5C 314.667,292.832 314.5,247.165 314,201.5C 313.5,201 313,200.5 312.5,200C 266.833,199.333 221.167,199.333 175.5,200C 174.874,200.75 174.374,201.584 174,202.5C 173.5,263.166 173.333,323.832 173.5,384.5C 140.167,384.5 106.833,384.5 73.5,384.5C 73.5,320.167 73.5,255.833 73.5,191.5C 129.562,149.631 186.396,108.631 244,68.5C 274.59,89.2607 304.757,110.594 334.5,132.5 Z"/></g>
<g><path style="opacity:1" fill="#feca25" d="M 334.5,153.5 C 336.912,153.694 337.912,155.027 337.5,157.5C 335.585,157.216 333.919,157.549 332.5,158.5C 318.705,160.972 311.705,169.306 311.5,183.5C 310.325,183.719 309.325,183.386 308.5,182.5C 307.134,179.308 306.301,175.974 306,172.5C 301.425,162.622 293.592,157.455 282.5,157C 281.549,156.282 281.383,155.449 282,154.5C 298.004,153.163 306.671,144.496 308,128.5C 310.09,127.209 311.424,127.876 312,130.5C 313.597,143.93 321.097,151.597 334.5,153.5 Z"/></g>
<g><path style="opacity:1" fill="#e5e6e6" d="M 334.5,132.5 C 347.871,142.179 361.205,151.845 374.5,161.5C 374.827,171.681 374.494,181.681 373.5,191.5C 371.526,189.572 370.026,187.239 369,184.5C 367.895,179.475 366.729,174.475 365.5,169.5C 364.277,168.386 362.944,168.219 361.5,169C 360.117,177.368 357.284,185.201 353,192.5C 347.653,198.01 341.153,201.343 333.5,202.5C 334.151,195.076 334.484,187.576 334.5,180C 334.497,172.467 333.831,165.301 332.5,158.5C 333.919,157.549 335.585,157.216 337.5,157.5C 337.912,155.027 336.912,153.694 334.5,153.5C 334.5,146.5 334.5,139.5 334.5,132.5 Z"/></g>
<g><path style="opacity:1" fill="#d0d2d3" d="M 374.5,161.5 C 388.225,170.689 401.558,180.356 414.5,190.5C 414.5,201.5 414.5,212.5 414.5,223.5C 413.041,223.433 411.708,223.766 410.5,224.5C 408.164,226.004 406.331,228.004 405,230.5C 404.5,282.166 404.333,333.832 404.5,385.5C 401.615,385.194 398.948,385.527 396.5,386.5C 394.284,387.203 392.451,388.536 391,390.5C 390.501,395.489 390.334,400.489 390.5,405.5C 385.167,405.5 379.833,405.5 374.5,405.5C 375.429,399.547 376.096,393.547 376.5,387.5C 392.137,377.895 399.637,363.895 399,345.5C 396.519,343.686 393.685,343.02 390.5,343.5C 389.833,342.167 388.833,341.167 387.5,340.5C 386.737,339.732 385.737,339.232 384.5,339C 381.183,338.502 377.85,338.335 374.5,338.5C 374.5,298.833 374.5,259.167 374.5,219.5C 376.336,216.832 378.669,214.666 381.5,213C 387.383,210.956 393.383,209.289 399.5,208C 400.833,206.667 400.833,205.333 399.5,204C 392.155,202.666 385.155,200.332 378.5,197C 376.627,195.296 374.96,193.463 373.5,191.5C 374.494,181.681 374.827,171.681 374.5,161.5 Z"/></g>
<g><path style="opacity:1" fill="#fec923" d="M 373.5,191.5 C 374.96,193.463 376.627,195.296 378.5,197C 385.155,200.332 392.155,202.666 399.5,204C 400.833,205.333 400.833,206.667 399.5,208C 393.383,209.289 387.383,210.956 381.5,213C 378.669,214.666 376.336,216.832 374.5,219.5C 371.949,221.578 370.116,224.244 369,227.5C 367.559,232.493 366.225,237.493 365,242.5C 363.989,243.337 362.822,243.67 361.5,243.5C 360.687,235.298 358.187,227.631 354,220.5C 348.918,214.376 342.418,211.042 334.5,210.5C 332.046,209.379 329.379,208.546 326.5,208C 325.978,207.439 325.645,206.772 325.5,206C 327.396,203.412 330.063,202.245 333.5,202.5C 341.153,201.343 347.653,198.01 353,192.5C 357.284,185.201 360.117,177.368 361.5,169C 362.944,168.219 364.277,168.386 365.5,169.5C 366.729,174.475 367.895,179.475 369,184.5C 370.026,187.239 371.526,189.572 373.5,191.5 Z"/></g>
<g><path style="opacity:1" fill="#58595b" d="M 314.5,338.5 C 288.498,338.333 262.498,338.5 236.5,339C 233.977,340.36 231.977,342.193 230.5,344.5C 223.161,342 220.327,344.667 222,352.5C 224.394,367.993 232.228,379.66 245.5,387.5C 246.428,399.846 247.428,412.179 248.5,424.5C 223.5,424.5 198.5,424.5 173.5,424.5C 173.5,417.833 173.5,411.167 173.5,404.5C 173.5,397.833 173.5,391.167 173.5,384.5C 173.333,323.832 173.5,263.166 174,202.5C 174.374,201.584 174.874,200.75 175.5,200C 221.167,199.333 266.833,199.333 312.5,200C 313,200.5 313.5,201 314,201.5C 314.5,247.165 314.667,292.832 314.5,338.5 Z"/></g>
<g><path style="opacity:1" fill="#fefefe" d="M 83.5,209.5 C 86.0444,209.104 88.2111,209.771 90,211.5C 90.6667,242.833 90.6667,274.167 90,305.5C 88.4192,308.553 86.0859,309.22 83,307.5C 82.1746,274.762 82.3413,242.095 83.5,209.5 Z"/></g>
<g><path style="opacity:1" fill="#e5e6e7" d="M 334.5,210.5 C 342.418,211.042 348.918,214.376 354,220.5C 358.187,227.631 360.687,235.298 361.5,243.5C 362.822,243.67 363.989,243.337 365,242.5C 366.225,237.493 367.559,232.493 369,227.5C 370.116,224.244 371.949,221.578 374.5,219.5C 374.5,259.167 374.5,298.833 374.5,338.5C 361.167,338.5 347.833,338.5 334.5,338.5C 334.5,295.833 334.5,253.167 334.5,210.5 Z"/></g>
<g><path style="opacity:1" fill="#5e9bf5" d="M 198.5,223.5 C 228.835,223.333 259.168,223.5 289.5,224C 290.333,224.833 291.167,225.667 292,226.5C 292.667,246.167 292.667,265.833 292,285.5C 291.5,286 291,286.5 290.5,287C 259.833,287.667 229.167,287.667 198.5,287C 198,286.5 197.5,286 197,285.5C 196.333,265.5 196.333,245.5 197,225.5C 197.717,224.956 198.217,224.289 198.5,223.5 Z"/></g>
<g><path style="opacity:1" fill="#424143" d="M 414.5,223.5 C 419.228,223.775 422.394,226.108 424,230.5C 424.5,282.166 424.667,333.832 424.5,385.5C 421.375,386.479 418.042,386.813 414.5,386.5C 413.671,334.237 413.171,281.904 413,229.5C 411.628,228.09 410.795,226.423 410.5,224.5C 411.708,223.766 413.041,223.433 414.5,223.5 Z"/></g>
<g><path style="opacity:1" fill="#5a5b5d" d="M 410.5,224.5 C 410.795,226.423 411.628,228.09 413,229.5C 413.171,281.904 413.671,334.237 414.5,386.5C 408.5,386.5 402.5,386.5 396.5,386.5C 398.948,385.527 401.615,385.194 404.5,385.5C 404.333,333.832 404.5,282.166 405,230.5C 406.331,228.004 408.164,226.004 410.5,224.5 Z"/></g>
<g><path style="opacity:1" fill="#fec925" d="M 122.5,312.5 C 124.124,312.36 125.29,313.027 126,314.5C 127.875,332.875 138.042,342.542 156.5,343.5C 156.762,344.978 156.429,346.311 155.5,347.5C 137.547,348.953 127.714,358.619 126,376.5C 125.576,378.615 124.409,379.448 122.5,379C 120.938,360.439 110.938,350.105 92.5,348C 90.4078,347.047 90.0745,345.714 91.5,344C 99.7788,342.857 107.112,339.691 113.5,334.5C 115.499,332.507 116.999,330.173 118,327.5C 119.502,322.445 121.002,317.445 122.5,312.5 Z"/></g>
<g><path style="opacity:1" fill="#ea7719" d="M 202.5,311.5 C 211.015,311.844 214.515,316.177 213,324.5C 207.159,331.394 201.825,331.061 197,323.5C 196.333,321.167 196.333,318.833 197,316.5C 198.73,314.598 200.563,312.931 202.5,311.5 Z"/></g>
<g><path style="opacity:1" fill="#5e9cf6" d="M 314.5,338.5 C 321.167,338.5 327.833,338.5 334.5,338.5C 347.833,338.5 361.167,338.5 374.5,338.5C 377.85,338.335 381.183,338.502 384.5,339C 385.737,339.232 386.737,339.732 387.5,340.5C 388.006,344.673 386.339,348.173 382.5,351C 332.332,351.167 282.332,351.667 232.5,352.5C 230.96,350.162 230.294,347.495 230.5,344.5C 231.977,342.193 233.977,340.36 236.5,339C 262.498,338.5 288.498,338.333 314.5,338.5 Z"/></g>
<g><path style="opacity:1" fill="#4c8ef5" d="M 387.5,340.5 C 388.833,341.167 389.833,342.167 390.5,343.5C 391.714,346.129 391.714,348.796 390.5,351.5C 388.054,354.723 384.72,356.39 380.5,356.5C 380.768,358.099 380.434,359.432 379.5,360.5C 379.5,359.167 379.5,357.833 379.5,356.5C 375.833,356.5 372.167,356.5 368.5,356.5C 326.167,356.5 283.833,356.5 241.5,356.5C 237.584,357.039 234.584,355.706 232.5,352.5C 282.332,351.667 332.332,351.167 382.5,351C 386.339,348.173 388.006,344.673 387.5,340.5 Z"/></g>
<g><path style="opacity:1" fill="#434346" d="M 230.5,344.5 C 230.294,347.495 230.96,350.162 232.5,352.5C 234.584,355.706 237.584,357.039 241.5,356.5C 241.931,363.213 242.764,369.88 244,376.5C 248.211,380.131 253.045,382.631 258.5,384C 293.167,384.667 327.833,384.667 362.5,384C 363.901,383.59 365.234,383.09 366.5,382.5C 371.165,381.172 375.165,378.839 378.5,375.5C 386.331,369.172 390.331,361.172 390.5,351.5C 391.714,348.796 391.714,346.129 390.5,343.5C 393.685,343.02 396.519,343.686 399,345.5C 399.637,363.895 392.137,377.895 376.5,387.5C 371.668,389.459 366.668,390.959 361.5,392C 326.833,392.667 292.167,392.667 257.5,392C 253.369,390.765 249.369,389.265 245.5,387.5C 232.228,379.66 224.394,367.993 222,352.5C 220.327,344.667 223.161,342 230.5,344.5 Z"/></g>
<g><path style="opacity:1" fill="#cbced1" d="M 390.5,351.5 C 390.331,361.172 386.331,369.172 378.5,375.5C 378.916,370.507 379.249,365.507 379.5,360.5C 380.434,359.432 380.768,358.099 380.5,356.5C 384.72,356.39 388.054,354.723 390.5,351.5 Z"/></g>
<g><path style="opacity:1" fill="#377ce1" d="M 241.5,356.5 C 283.833,356.5 326.167,356.5 368.5,356.5C 367.76,365.161 367.093,373.827 366.5,382.5C 365.234,383.09 363.901,383.59 362.5,384C 327.833,384.667 293.167,384.667 258.5,384C 253.045,382.631 248.211,380.131 244,376.5C 242.764,369.88 241.931,363.213 241.5,356.5 Z"/></g>
<g><path style="opacity:1" fill="#2366d2" d="M 368.5,356.5 C 372.167,356.5 375.833,356.5 379.5,356.5C 379.5,357.833 379.5,359.167 379.5,360.5C 379.249,365.507 378.916,370.507 378.5,375.5C 375.165,378.839 371.165,381.172 366.5,382.5C 367.093,373.827 367.76,365.161 368.5,356.5 Z"/></g>
<g><path style="opacity:1" fill="#e5e6e7" d="M 73.5,384.5 C 106.833,384.5 140.167,384.5 173.5,384.5C 173.5,391.167 173.5,397.833 173.5,404.5C 140.5,404.5 107.5,404.5 74.5,404.5C 74.5,408.833 74.5,413.167 74.5,417.5C 73.5054,406.679 73.1721,395.679 73.5,384.5 Z"/></g>
<g><path style="opacity:0.993" fill="#783007" d="M 424.5,385.5 C 427.518,385.335 430.518,385.502 433.5,386C 434.931,386.465 436.097,387.299 437,388.5C 438.397,393.708 438.897,399.041 438.5,404.5C 422.675,405.496 406.675,405.83 390.5,405.5C 390.334,400.489 390.501,395.489 391,390.5C 392.451,388.536 394.284,387.203 396.5,386.5C 402.5,386.5 408.5,386.5 414.5,386.5C 418.042,386.813 421.375,386.479 424.5,385.5 Z"/></g>
<g><path style="opacity:0.998" fill="#377ce1" d="M 245.5,387.5 C 249.369,389.265 253.369,390.765 257.5,392C 292.167,392.667 326.833,392.667 361.5,392C 366.668,390.959 371.668,389.459 376.5,387.5C 376.096,393.547 375.429,399.547 374.5,405.5C 361.155,402.079 350.988,406.079 344,417.5C 342.75,422.42 342.25,427.42 342.5,432.5C 342.5,435.833 342.5,439.167 342.5,442.5C 338.535,457.694 335.202,473.027 332.5,488.5C 332.167,488.5 331.833,488.5 331.5,488.5C 306.5,488.5 281.5,488.5 256.5,488.5C 253.627,467.325 250.96,445.992 248.5,424.5C 247.428,412.179 246.428,399.846 245.5,387.5 Z"/></g>
<g><path style="opacity:1" fill="#d1d3d4" d="M 173.5,404.5 C 173.5,411.167 173.5,417.833 173.5,424.5C 142.165,424.667 110.832,424.5 79.5,424C 76.5066,422.841 74.8399,420.675 74.5,417.5C 74.5,413.167 74.5,408.833 74.5,404.5C 107.5,404.5 140.5,404.5 173.5,404.5 Z"/></g>
<g><path style="opacity:0.999" fill="#8b3f0a" d="M 438.5,404.5 C 448.506,404.334 458.506,404.5 468.5,405C 471.865,405.505 474.865,406.672 477.5,408.5C 475.7,414.758 474.867,421.425 475,428.5C 474.5,430.333 473.333,431.5 471.5,432C 428.501,432.5 385.501,432.667 342.5,432.5C 342.25,427.42 342.75,422.42 344,417.5C 350.988,406.079 361.155,402.079 374.5,405.5C 379.833,405.5 385.167,405.5 390.5,405.5C 406.675,405.83 422.675,405.496 438.5,404.5 Z"/></g>
<g><path style="opacity:1" fill="#7c3108" d="M 477.5,408.5 C 482.042,411.237 484.875,415.237 486,420.5C 486.5,427.826 486.666,435.159 486.5,442.5C 480.167,442.5 473.833,442.5 467.5,442.5C 465.167,442.5 462.833,442.5 460.5,442.5C 454.167,442.5 447.833,442.5 441.5,442.5C 439.167,442.5 436.833,442.5 434.5,442.5C 428.833,442.5 423.167,442.5 417.5,442.5C 415.5,442.5 413.5,442.5 411.5,442.5C 396.833,442.5 382.167,442.5 367.5,442.5C 365.5,442.5 363.5,442.5 361.5,442.5C 355.167,442.5 348.833,442.5 342.5,442.5C 342.5,439.167 342.5,435.833 342.5,432.5C 385.501,432.667 428.501,432.5 471.5,432C 473.333,431.5 474.5,430.333 475,428.5C 474.867,421.425 475.7,414.758 477.5,408.5 Z"/></g>
<g><path style="opacity:1" fill="#fca71d" d="M 342.5,442.5 C 348.833,442.5 355.167,442.5 361.5,442.5C 357.962,457.782 354.629,473.116 351.5,488.5C 345.068,489.807 338.734,489.807 332.5,488.5C 335.202,473.027 338.535,457.694 342.5,442.5 Z"/></g>
<g><path style="opacity:1" fill="#ef7a16" d="M 361.5,442.5 C 363.5,442.5 365.5,442.5 367.5,442.5C 367.5,442.833 367.5,443.167 367.5,443.5C 364.714,457.553 361.714,471.553 358.5,485.5C 357.297,489.331 356.297,493.331 355.5,497.5C 353.604,498.466 351.604,498.799 349.5,498.5C 349.851,495.097 350.518,491.763 351.5,488.5C 354.629,473.116 357.962,457.782 361.5,442.5 Z"/></g>
<g><path style="opacity:1" fill="#fea819" d="M 367.5,443.5 C 373.833,443.5 380.167,443.5 386.5,443.5C 386.5,444.833 386.5,446.167 386.5,447.5C 385.245,461.357 383.578,475.024 381.5,488.5C 373.833,488.5 366.167,488.5 358.5,488.5C 358.5,487.5 358.5,486.5 358.5,485.5C 361.714,471.553 364.714,457.553 367.5,443.5 Z"/></g>
<g><path style="opacity:1" fill="#ef7916" d="M 392.5,447.5 C 391.167,461.167 389.833,474.834 388.5,488.5C 387.949,491.807 387.616,495.14 387.5,498.5C 385.5,498.5 383.5,498.5 381.5,498.5C 381.5,495.167 381.5,491.833 381.5,488.5C 383.578,475.024 385.245,461.357 386.5,447.5C 387.434,446.432 387.768,445.099 387.5,443.5C 389.167,443.5 390.833,443.5 392.5,443.5C 392.5,444.833 392.5,446.167 392.5,447.5 Z"/></g>
<g><path style="opacity:1" fill="#fea819" d="M 388.5,488.5 C 389.833,474.834 391.167,461.167 392.5,447.5C 393.434,446.432 393.768,445.099 393.5,443.5C 399.167,443.5 404.833,443.5 410.5,443.5C 410.5,458.5 410.5,473.5 410.5,488.5C 403.167,488.5 395.833,488.5 388.5,488.5 Z"/></g>
<g><path style="opacity:1" fill="#ef7816" d="M 411.5,442.5 C 413.5,442.5 415.5,442.5 417.5,442.5C 417.5,457.833 417.5,473.167 417.5,488.5C 417.5,492.167 417.5,495.833 417.5,499.5C 415.5,499.5 413.5,499.5 411.5,499.5C 411.5,480.5 411.5,461.5 411.5,442.5 Z"/></g>
<g><path style="opacity:1" fill="#fea819" d="M 417.5,442.5 C 423.167,442.5 428.833,442.5 434.5,442.5C 436.66,456.062 438.326,469.729 439.5,483.5C 439.5,485.167 439.5,486.833 439.5,488.5C 432.167,488.5 424.833,488.5 417.5,488.5C 417.5,473.167 417.5,457.833 417.5,442.5 Z"/></g>
<g><path style="opacity:1" fill="#ef7916" d="M 434.5,442.5 C 436.833,442.5 439.167,442.5 441.5,442.5C 443.075,458.366 445.075,474.033 447.5,489.5C 447.5,492.5 447.5,495.5 447.5,498.5C 445.5,498.5 443.5,498.5 441.5,498.5C 440.994,493.346 440.327,488.346 439.5,483.5C 438.326,469.729 436.66,456.062 434.5,442.5 Z"/></g>
<g><path style="opacity:1" fill="#fea719" d="M 441.5,442.5 C 447.833,442.5 454.167,442.5 460.5,442.5C 463.941,457.478 467.274,472.478 470.5,487.5C 463.24,489.465 455.573,490.132 447.5,489.5C 445.075,474.033 443.075,458.366 441.5,442.5 Z"/></g>
<g><path style="opacity:1" fill="#ef7a16" d="M 460.5,442.5 C 462.833,442.5 465.167,442.5 467.5,442.5C 467.5,442.833 467.5,443.167 467.5,443.5C 470.675,458.532 474.008,473.532 477.5,488.5C 478.642,492.071 479.309,495.738 479.5,499.5C 477.5,499.5 475.5,499.5 473.5,499.5C 472.706,495.361 471.706,491.361 470.5,487.5C 467.274,472.478 463.941,457.478 460.5,442.5 Z"/></g>
<g><path style="opacity:1" fill="#fea819" d="M 467.5,443.5 C 471.182,443.335 474.848,443.501 478.5,444C 482.521,457.244 485.021,470.744 486,484.5C 484.106,487.844 481.273,489.178 477.5,488.5C 474.008,473.532 470.675,458.532 467.5,443.5 Z"/></g>
<g><path style="opacity:1" fill="#f79318" d="M 467.5,443.5 C 467.5,443.167 467.5,442.833 467.5,442.5C 473.833,442.5 480.167,442.5 486.5,442.5C 490.241,458.631 493.907,474.797 497.5,491C 497.031,494.804 495.031,497.471 491.5,499C 487.514,499.499 483.514,499.666 479.5,499.5C 479.309,495.738 478.642,492.071 477.5,488.5C 481.273,489.178 484.106,487.844 486,484.5C 485.021,470.744 482.521,457.244 478.5,444C 474.848,443.501 471.182,443.335 467.5,443.5 Z"/></g>
<g><path style="opacity:1" fill="#2467d3" d="M 256.5,488.5 C 281.5,488.5 306.5,488.5 331.5,488.5C 331.171,493.513 333.171,497.18 337.5,499.5C 312.831,499.667 288.164,499.5 263.5,499C 258.293,497.419 255.959,493.919 256.5,488.5 Z"/></g>
<g><path style="opacity:1" fill="#f6921a" d="M 367.5,443.5 C 367.5,443.167 367.5,442.833 367.5,442.5C 382.167,442.5 396.833,442.5 411.5,442.5C 411.5,461.5 411.5,480.5 411.5,499.5C 386.833,499.5 362.167,499.5 337.5,499.5C 333.171,497.18 331.171,493.513 331.5,488.5C 331.833,488.5 332.167,488.5 332.5,488.5C 338.734,489.807 345.068,489.807 351.5,488.5C 350.518,491.763 349.851,495.097 349.5,498.5C 351.604,498.799 353.604,498.466 355.5,497.5C 356.297,493.331 357.297,489.331 358.5,485.5C 358.5,486.5 358.5,487.5 358.5,488.5C 366.167,488.5 373.833,488.5 381.5,488.5C 381.5,491.833 381.5,495.167 381.5,498.5C 383.5,498.5 385.5,498.5 387.5,498.5C 387.616,495.14 387.949,491.807 388.5,488.5C 395.833,488.5 403.167,488.5 410.5,488.5C 410.5,473.5 410.5,458.5 410.5,443.5C 404.833,443.5 399.167,443.5 393.5,443.5C 393.768,445.099 393.434,446.432 392.5,447.5C 392.5,446.167 392.5,444.833 392.5,443.5C 390.833,443.5 389.167,443.5 387.5,443.5C 387.768,445.099 387.434,446.432 386.5,447.5C 386.5,446.167 386.5,444.833 386.5,443.5C 380.167,443.5 373.833,443.5 367.5,443.5 Z"/></g>
<g><path style="opacity:1" fill="#f79218" d="M 439.5,483.5 C 440.327,488.346 440.994,493.346 441.5,498.5C 443.5,498.5 445.5,498.5 447.5,498.5C 447.5,495.5 447.5,492.5 447.5,489.5C 455.573,490.132 463.24,489.465 470.5,487.5C 471.706,491.361 472.706,495.361 473.5,499.5C 454.833,499.5 436.167,499.5 417.5,499.5C 417.5,495.833 417.5,492.167 417.5,488.5C 424.833,488.5 432.167,488.5 439.5,488.5C 439.5,486.833 439.5,485.167 439.5,483.5 Z"/></g>
</svg>
