<?xml version="1.0" encoding="UTF-8"?>
<svg version="1.1" xmlns="http://www.w3.org/2000/svg" width="512" height="512">
<path d="M0 0 C1.32396412 -0.00935994 1.32396412 -0.00935994 2.67467499 -0.01890898 C5.63820449 -0.03488939 8.60091723 -0.02221496 11.56445312 -0.00964355 C13.68660971 -0.01506242 15.80876253 -0.02218375 17.9309082 -0.03088379 C23.69944448 -0.04914793 29.46769519 -0.04203675 35.23623657 -0.02936745 C41.26687401 -0.01925584 47.29748663 -0.02862801 53.328125 -0.03491211 C63.45642497 -0.04219387 73.58460835 -0.03258689 83.71289062 -0.0135498 C95.43046156 0.00821986 107.14775411 0.00116887 118.8653183 -0.02085543 C128.9172072 -0.03899431 138.96901219 -0.04157513 149.02091217 -0.03110075 C155.02822942 -0.02485753 161.03541572 -0.024053 167.04272461 -0.0372467 C172.68986066 -0.04878253 178.33663703 -0.04082075 183.98373413 -0.01766968 C186.05902509 -0.01237048 188.1343462 -0.01391694 190.20962524 -0.02272034 C193.03729732 -0.0336115 195.86380863 -0.01999008 198.69140625 0 C199.51747124 -0.00892289 200.34353622 -0.01784577 201.19463348 -0.02703905 C204.57989372 0.01955167 206.93323439 0.25862247 209.85653305 2.02557755 C211.96290002 5.5367647 211.88593798 8.75863358 211.82672119 12.73358154 C211.83013889 13.57004392 211.83355659 14.4065063 211.83707786 15.26831603 C211.84367449 18.07542385 211.82165148 20.88157869 211.79980469 23.68859863 C211.79867659 25.69901507 211.79930932 27.70943316 211.80157471 29.71984863 C211.80272427 35.1823913 211.77917562 40.64458398 211.75127888 46.10704517 C211.72630563 51.81387886 211.72392644 57.5207202 211.71917725 63.2276001 C211.70673549 74.03649765 211.67389757 84.84523374 211.63377929 95.65406013 C211.58909896 107.95861185 211.56708393 120.26317121 211.54699755 132.56778383 C211.50516605 157.88126003 211.43398666 183.19458145 211.34570312 208.50793457 C221.90570313 208.50793457 232.46570313 208.50793457 243.34570312 208.50793457 C243.33682068 205.96108948 243.32793823 203.41424438 243.31878662 200.79022217 C243.23713823 176.83360858 243.17756204 152.87701329 243.13845444 128.9202919 C243.11781332 116.60277063 243.08966305 104.28535133 243.04394531 91.96789551 C243.00412507 81.2342668 242.9782816 70.50071192 242.96934915 59.7670114 C242.96412626 54.08152233 242.95181829 48.39624454 242.9227829 42.71082306 C242.89568992 37.36255637 242.88724578 32.01458856 242.8932724 26.66625977 C242.89216942 24.70060351 242.8841793 22.73493755 242.86888123 20.76934052 C242.84904898 18.09038385 242.85373901 15.41256319 242.86468506 12.73358154 C242.85303369 11.95147946 242.84138233 11.16937737 242.82937789 10.36357522 C242.86568467 7.08776137 243.13667162 4.85637754 244.8348732 2.02557755 C248.46481573 -0.16850049 251.8827302 -0.04447342 256 0 C257.32396412 -0.00935994 257.32396412 -0.00935994 258.67467499 -0.01890898 C261.63820449 -0.03488939 264.60091723 -0.02221496 267.56445312 -0.00964355 C269.68660971 -0.01506242 271.80876253 -0.02218375 273.9309082 -0.03088379 C279.69944448 -0.04914793 285.46769519 -0.04203675 291.23623657 -0.02936745 C297.26687401 -0.01925584 303.29748663 -0.02862801 309.328125 -0.03491211 C319.45642497 -0.04219387 329.58460835 -0.03258689 339.71289062 -0.0135498 C351.43046156 0.00821986 363.14775411 0.00116887 374.8653183 -0.02085543 C384.9172072 -0.03899431 394.96901219 -0.04157513 405.02091217 -0.03110075 C411.02822942 -0.02485753 417.03541572 -0.024053 423.04272461 -0.0372467 C428.68986066 -0.04878253 434.33663703 -0.04082075 439.98373413 -0.01766968 C442.05902509 -0.01237048 444.1343462 -0.01391694 446.20962524 -0.02272034 C449.03729732 -0.0336115 451.86380863 -0.01999008 454.69140625 0 C455.51747124 -0.00892289 456.34353622 -0.01784577 457.19463348 -0.02703905 C460.49683573 0.01840856 462.93951755 0.28502955 465.85485077 1.88489532 C468.24755119 6.09466638 467.89557425 10.22430859 467.8536377 14.98449707 C467.86299764 16.60247696 467.86299764 16.60247696 467.87254667 18.25314331 C467.8885452 21.8799605 467.87584506 25.50611199 467.86328125 29.13293457 C467.86869929 31.72799066 467.87582015 34.32304367 467.88452148 36.91809082 C467.90232222 43.24229021 467.8984599 49.56629987 467.88687092 55.89050674 C467.87784294 61.02960011 467.87660983 66.16864024 467.88096619 71.30773926 C467.88157912 72.03873777 467.88219205 72.76973629 467.88282356 73.52288628 C467.88410244 75.00782523 467.88539929 76.49276417 467.88671392 77.97770309 C467.89812426 91.90697366 467.88499893 105.83613899 467.86351246 119.7653923 C467.84564103 131.72129244 467.84874501 143.67703724 467.8671875 155.63293457 C467.88858623 169.51183633 467.89702559 183.39064582 467.88473845 197.26956177 C467.88346423 198.74908446 467.88220675 200.22860716 467.88096619 201.70812988 C467.88004053 202.80010335 467.88004053 202.80010335 467.87909618 203.91413689 C467.87564028 209.04796435 467.88147678 214.18173335 467.8908844 219.31555176 C467.90326441 226.2233759 467.89446958 233.13090121 467.87130737 240.03869629 C467.86600489 242.57840485 467.86756017 245.11813805 467.87635803 247.65783691 C467.88723583 251.11601961 467.87364278 254.57325056 467.8536377 258.03137207 C467.86702203 259.55061783 467.86702203 259.55061783 467.88067675 261.10055542 C467.80511874 267.80171807 467.80511874 267.80171807 465.63824081 271.1326561 C462.90780444 272.77062715 461.33225088 273.00180723 458.15716553 272.98895264 C457.10831177 272.99445129 456.05945801 272.99994995 454.9788208 273.00561523 C453.83371033 272.99123413 452.68859985 272.97685303 451.50878906 272.96203613 C450.29876221 272.96262024 449.08873535 272.96320435 447.84204102 272.96380615 C444.52794246 272.96149759 441.21484183 272.94144535 437.90091991 272.91351032 C434.43627554 272.8884968 430.97161771 272.88615473 427.50689697 272.88140869 C420.94786494 272.86897869 414.38909974 272.83615702 407.83018517 272.79601073 C400.36231577 272.75129356 392.89443358 272.72930616 385.4264636 272.70922899 C370.0660556 272.6674242 354.70591378 272.59707198 339.34570312 272.50793457 C339.3493903 273.55560879 339.35307747 274.603283 339.35687637 275.68270493 C339.44560323 301.15362843 339.51137218 326.62453193 339.55295181 352.09557724 C339.57359293 364.41309851 339.6017432 376.73051781 339.64746094 389.04797363 C339.68728118 399.78160234 339.71312465 410.51515722 339.7220571 421.24885774 C339.72727999 426.93434681 339.73958796 432.61962461 339.76862335 438.30504608 C339.79571633 443.65331277 339.80416047 449.00128058 339.79813385 454.34960938 C339.79923683 456.31526563 339.80722695 458.28093159 339.82252502 460.24652863 C339.84235727 462.92548529 339.83766724 465.60330595 339.82672119 468.2822876 C339.83837256 469.06438968 339.85002392 469.84649177 339.86202836 470.65229392 C339.82572158 473.92810777 339.55473463 476.1594916 337.85653305 478.9902916 C334.22659052 481.18436963 330.80867605 481.06034256 326.69140625 481.01586914 C325.36744213 481.02522908 325.36744213 481.02522908 324.01673126 481.03477812 C321.05320176 481.05075853 318.09048902 481.0380841 315.12695312 481.0255127 C313.00479654 481.03093156 310.88264372 481.03805289 308.76049805 481.04675293 C302.99196177 481.06501707 297.22371106 481.05790589 291.45516968 481.04523659 C285.42453224 481.03512498 279.39391962 481.04449715 273.36328125 481.05078125 C263.23498128 481.05806301 253.1067979 481.04845603 242.97851562 481.02941895 C231.26094469 481.00764928 219.54365214 481.01470027 207.82608795 481.03672457 C197.77419905 481.05486346 187.72239406 481.05744427 177.67049408 481.04696989 C171.66317683 481.04072667 165.65599053 481.03992214 159.64868164 481.05311584 C154.00154559 481.06465167 148.35476922 481.05668989 142.70767212 481.03353882 C140.63238116 481.02823962 138.55706005 481.02978609 136.48178101 481.03858948 C133.65410893 481.04948065 130.82759762 481.03585923 128 481.01586914 C126.76090252 481.02925347 126.76090252 481.02925347 125.49677277 481.04290819 C122.11151253 480.99631747 119.75817186 480.75724667 116.8348732 478.9902916 C114.72850623 475.47910444 114.80546827 472.25723556 114.86468506 468.2822876 C114.86126736 467.44582522 114.85784966 466.60936284 114.85432839 465.74755311 C114.84773176 462.94044529 114.86975477 460.13429045 114.89160156 457.32727051 C114.89272966 455.31685407 114.89209693 453.30643598 114.88983154 451.29602051 C114.88868198 445.83347784 114.91223063 440.37128516 114.94012737 434.90882397 C114.96510062 429.20199028 114.96747981 423.49514894 114.972229 417.78826904 C114.98467076 406.97937149 115.01750868 396.17063541 115.05762696 385.36180902 C115.10230729 373.05725729 115.12432232 360.75269793 115.1444087 348.44808531 C115.18624019 323.13461215 115.25661564 297.8212824 115.34570312 272.50793457 C114.71032749 272.51162174 114.07495186 272.51530891 113.42032242 272.51910782 C97.96364052 272.60742682 82.50704632 272.67362842 67.05017471 272.71518326 C59.57534985 272.73581278 52.10069336 272.76394058 44.62597656 272.80969238 C38.11136442 272.84954851 31.59687422 272.87536456 25.08214355 272.88428855 C21.63224809 272.88950547 18.18270148 272.90177451 14.73291779 272.9308548 C10.88275083 272.96304721 7.03292586 272.96389476 3.18261719 272.96203613 C1.46495148 272.98360779 1.46495148 272.98360779 -0.28741455 273.00561523 C-1.86069519 272.99736725 -1.86069519 272.99736725 -3.46575928 272.98895264 C-4.37649075 272.99263981 -5.28722221 272.99632698 -6.22555161 273.00012589 C-8.65429688 272.50793457 -8.65429688 272.50793457 -10.94683456 271.1326561 C-13.6515458 266.97495742 -13.20502237 262.88853931 -13.16223145 258.03137207 C-13.17159139 256.41339218 -13.17159139 256.41339218 -13.18114042 254.76272583 C-13.19713895 251.13590865 -13.18443881 247.50975715 -13.171875 243.88293457 C-13.17729304 241.28787848 -13.1844139 238.69282547 -13.19311523 236.09777832 C-13.21091597 229.77357893 -13.20705365 223.44956927 -13.19546467 217.1253624 C-13.18643669 211.98626903 -13.18520358 206.8472289 -13.18955994 201.70812988 C-13.19017287 200.97713137 -13.1907858 200.24613285 -13.19141731 199.49298286 C-13.19269619 198.00804391 -13.19399304 196.52310497 -13.19530767 195.03816605 C-13.20671801 181.10889548 -13.19359268 167.17973015 -13.17210621 153.25047684 C-13.15423478 141.2945767 -13.15733876 129.3388319 -13.17578125 117.38293457 C-13.19717998 103.50403281 -13.20561934 89.62522333 -13.1933322 75.74630737 C-13.19205798 74.26678468 -13.1908005 72.78726198 -13.18955994 71.30773926 C-13.18894283 70.57975695 -13.18832573 69.85177464 -13.18768993 69.10173225 C-13.18423403 63.96790479 -13.19007053 58.83413579 -13.19947815 53.70031738 C-13.21185816 46.79249324 -13.20306333 39.88496793 -13.17990112 32.97717285 C-13.17459864 30.43746429 -13.17615392 27.89773109 -13.18495178 25.35803223 C-13.19582958 21.89984953 -13.18223653 18.44261858 -13.16223145 14.98449707 C-13.17115433 13.97166656 -13.18007722 12.95883606 -13.1892705 11.91531372 C-13.11488689 5.31830702 -13.11488689 5.31830702 -11.16344452 1.88489532 C-7.50962228 -0.12023572 -4.06135843 -0.04386948 0 0 Z " fill="#D1D3D4" transform="translate(28.654296875,15.4920654296875)"/>
<path d="M0 0 C1.32396412 -0.00935994 1.32396412 -0.00935994 2.67467499 -0.01890898 C5.63820449 -0.03488939 8.60091723 -0.02221496 11.56445312 -0.00964355 C13.68660971 -0.01506242 15.80876253 -0.02218375 17.9309082 -0.03088379 C23.69944448 -0.04914793 29.46769519 -0.04203675 35.23623657 -0.02936745 C41.26687401 -0.01925584 47.29748663 -0.02862801 53.328125 -0.03491211 C63.45642497 -0.04219387 73.58460835 -0.03258689 83.71289062 -0.0135498 C95.43046156 0.00821986 107.14775411 0.00116887 118.8653183 -0.02085543 C128.9172072 -0.03899431 138.96901219 -0.04157513 149.02091217 -0.03110075 C155.02822942 -0.02485753 161.03541572 -0.024053 167.04272461 -0.0372467 C172.68986066 -0.04878253 178.33663703 -0.04082075 183.98373413 -0.01766968 C186.05902509 -0.01237048 188.1343462 -0.01391694 190.20962524 -0.02272034 C193.03729732 -0.0336115 195.86380863 -0.01999008 198.69140625 0 C199.51747124 -0.00892289 200.34353622 -0.01784577 201.19463348 -0.02703905 C204.57989372 0.01955167 206.93323439 0.25862247 209.85653305 2.02557755 C211.96290002 5.5367647 211.88593798 8.75863358 211.82672119 12.73358154 C211.83013889 13.57004392 211.83355659 14.4065063 211.83707786 15.26831603 C211.84367449 18.07542385 211.82165148 20.88157869 211.79980469 23.68859863 C211.79867659 25.69901507 211.79930932 27.70943316 211.80157471 29.71984863 C211.80272427 35.1823913 211.77917562 40.64458398 211.75127888 46.10704517 C211.72630563 51.81387886 211.72392644 57.5207202 211.71917725 63.2276001 C211.70673549 74.03649765 211.67389757 84.84523374 211.63377929 95.65406013 C211.58909896 107.95861185 211.56708393 120.26317121 211.54699755 132.56778383 C211.50516606 157.88125699 211.43479061 183.19458674 211.34570312 208.50793457 C211.9698495 208.50516919 212.59399588 208.50240381 213.23705578 208.49955463 C228.42705504 208.43328867 243.61700993 208.38365105 258.80711651 208.35249805 C266.15295797 208.33703209 273.49870291 208.31594781 280.84448242 208.28161621 C287.24740231 208.25170548 293.65025231 208.2323576 300.05324012 208.22566909 C303.44329819 208.22175963 306.8331563 208.21257774 310.22315025 208.1907444 C314.00850743 208.16902001 317.7934481 208.16596564 321.57885742 208.1673584 C323.263078 208.15117966 323.263078 208.15117966 324.98132324 208.13467407 C326.53142342 208.14086006 326.53142342 208.14086006 328.11283875 208.14717102 C329.45543023 208.14302295 329.45543023 208.14302295 330.82514477 208.13879108 C333.92398184 208.59262526 335.81456335 209.69351779 338.34570312 211.50793457 C345.0555632 224.92765472 339.34570312 241.50423132 339.34570312 256.50793457 C265.42570312 256.50793457 191.50570312 256.50793457 115.34570312 256.50793457 C115.34570312 261.78793457 115.34570312 267.06793457 115.34570312 272.50793457 C99.24722419 272.60051127 83.14885492 272.67190296 67.05017471 272.71518326 C59.57534985 272.73581278 52.10069336 272.76394058 44.62597656 272.80969238 C38.11136442 272.84954851 31.59687422 272.87536456 25.08214355 272.88428855 C21.63224809 272.88950547 18.18270148 272.90177451 14.73291779 272.9308548 C10.88275083 272.96304721 7.03292586 272.96389476 3.18261719 272.96203613 C1.46495148 272.98360779 1.46495148 272.98360779 -0.28741455 273.00561523 C-1.86069519 272.99736725 -1.86069519 272.99736725 -3.46575928 272.98895264 C-4.37649075 272.99263981 -5.28722221 272.99632698 -6.22555161 273.00012589 C-8.65429688 272.50793457 -8.65429688 272.50793457 -10.94683456 271.1326561 C-13.6515458 266.97495742 -13.20502237 262.88853931 -13.16223145 258.03137207 C-13.17159139 256.41339218 -13.17159139 256.41339218 -13.18114042 254.76272583 C-13.19713895 251.13590865 -13.18443881 247.50975715 -13.171875 243.88293457 C-13.17729304 241.28787848 -13.1844139 238.69282547 -13.19311523 236.09777832 C-13.21091597 229.77357893 -13.20705365 223.44956927 -13.19546467 217.1253624 C-13.18643669 211.98626903 -13.18520358 206.8472289 -13.18955994 201.70812988 C-13.19017287 200.97713137 -13.1907858 200.24613285 -13.19141731 199.49298286 C-13.19269619 198.00804391 -13.19399304 196.52310497 -13.19530767 195.03816605 C-13.20671801 181.10889548 -13.19359268 167.17973015 -13.17210621 153.25047684 C-13.15423478 141.2945767 -13.15733876 129.3388319 -13.17578125 117.38293457 C-13.19717998 103.50403281 -13.20561934 89.62522333 -13.1933322 75.74630737 C-13.19205798 74.26678468 -13.1908005 72.78726198 -13.18955994 71.30773926 C-13.18894283 70.57975695 -13.18832573 69.85177464 -13.18768993 69.10173225 C-13.18423403 63.96790479 -13.19007053 58.83413579 -13.19947815 53.70031738 C-13.21185816 46.79249324 -13.20306333 39.88496793 -13.17990112 32.97717285 C-13.17459864 30.43746429 -13.17615392 27.89773109 -13.18495178 25.35803223 C-13.19582958 21.89984953 -13.18223653 18.44261858 -13.16223145 14.98449707 C-13.17115433 13.97166656 -13.18007722 12.95883606 -13.1892705 11.91531372 C-13.11488689 5.31830702 -13.11488689 5.31830702 -11.16344452 1.88489532 C-7.50962228 -0.12023572 -4.06135843 -0.04386948 0 0 Z " fill="#D1D3D4" transform="translate(28.654296875,15.4920654296875)"/>
<path d="M0 0 C73.92 0 147.84 0 224 0 C224.0825 36.2175 224.165 72.435 224.25 109.75 C224.28641602 121.19913086 224.32283203 132.64826172 224.36035156 144.44433594 C224.37841797 158.39111328 224.37841797 158.39111328 224.3817749 164.91363525 C224.38551182 169.48353797 224.40054234 174.05325611 224.42230225 178.62310791 C224.44966198 184.44578499 224.45797898 190.2681922 224.4522891 196.0909276 C224.45347954 198.23188932 224.46145678 200.37286012 224.47686052 202.51376677 C224.4966578 205.39850016 224.49199777 208.28217518 224.48101807 211.16693115 C224.49849405 212.43310461 224.49849405 212.43310461 224.51632309 213.72485733 C224.48125972 217.13522712 224.26159226 219.55727258 222.51082993 222.52032089 C218.87412102 224.66350157 215.44758657 224.55224179 211.34570312 224.50793457 C210.46306038 224.51417453 209.58041763 224.5204145 208.67102814 224.52684355 C205.70749864 224.54282396 202.74478589 224.53014953 199.78125 224.51757812 C197.65909342 224.52299699 195.53694059 224.53011832 193.41479492 224.53881836 C187.64625865 224.5570825 181.87800794 224.54997132 176.10946655 224.53730202 C170.07882912 224.52719041 164.0482165 224.53656258 158.01757812 224.54284668 C147.88927816 224.55012844 137.76109478 224.54052146 127.6328125 224.52148438 C115.91524157 224.49971471 104.19794901 224.5067657 92.48038483 224.52879 C82.42849592 224.54692889 72.37669093 224.5495097 62.32479095 224.53903532 C56.31747371 224.5327921 50.3102874 224.53198757 44.30297852 224.54518127 C38.65584247 224.5567171 33.00906609 224.54875532 27.36196899 224.52560425 C25.28667804 224.52030505 23.21135693 224.52185151 21.13607788 224.53065491 C18.3084058 224.54154608 15.48189449 224.52792466 12.65429688 224.50793457 C11.82823189 224.51685746 11.0021669 224.52578034 10.15106964 224.53497362 C6.78861985 224.48869684 4.41055965 224.24195049 1.48917007 222.52032089 C-0.69008796 218.83207221 -0.53844569 215.3276882 -0.48101807 211.16693115 C-0.48444214 210.26730652 -0.48786621 209.36768188 -0.49139404 208.4407959 C-0.49802607 205.41040569 -0.47590452 202.38089561 -0.45410156 199.35058594 C-0.45287653 197.14739129 -0.45340967 194.94419507 -0.45556259 192.74100113 C-0.45646695 186.83213468 -0.43325628 180.92359117 -0.40512085 175.01480103 C-0.38236864 169.47356123 -0.38126989 163.93240063 -0.37841797 158.39111328 C-0.35741497 142.17736595 -0.30157052 125.96367892 -0.25 109.75 C-0.1675 73.5325 -0.085 37.315 0 0 Z " fill="#F0F1F1" transform="translate(144,272)"/>
<path d="M0 0 C1.23909748 0.01338433 1.23909748 0.01338433 2.50322723 0.02703905 C3.82719135 0.01767911 3.82719135 0.01767911 5.17790222 0.00813007 C8.14143172 -0.00785034 11.10414447 0.00482409 14.06768036 0.0173955 C16.18983694 0.01197663 18.31198977 0.0048553 20.43413544 -0.00384474 C26.20267171 -0.02210888 31.97092242 -0.0149977 37.73946381 -0.0023284 C43.77010124 0.00778322 49.80071386 -0.00158896 55.83135223 -0.00787306 C65.9596522 -0.01515482 76.08783558 -0.00554784 86.21611786 0.01348925 C97.93368879 0.03525891 109.65098135 0.02820792 121.36854553 0.00618362 C131.42043443 -0.01195526 141.47223943 -0.01453608 151.5241394 -0.0040617 C157.53145665 0.00218152 163.53864296 0.00298605 169.54595184 -0.01020765 C175.19308789 -0.02174348 180.83986426 -0.0137817 186.48696136 0.00936937 C188.56225232 0.01466857 190.63757343 0.01312211 192.71285248 0.00431871 C195.54052456 -0.00657245 198.36703587 0.00704897 201.19463348 0.02703905 C202.02069847 0.01811616 202.84676346 0.00919328 203.69786072 0 C209.12523578 0.07469598 209.73247471 0.41851797 213.84893036 4.53497362 C213.84893036 19.05497362 213.84893036 33.57497362 213.84893036 48.53497362 C139.92893036 48.53497362 66.00893036 48.53497362 -10.15106964 48.53497362 C-10.15106964 0.13970733 -10.15106964 0.13970733 0 0 Z " fill="#0410F3" transform="translate(282.1510696411133,15.465026378631592)"/>
<path d="M0 0 C1.23909748 0.01338433 1.23909748 0.01338433 2.50322723 0.02703905 C3.82719135 0.01767911 3.82719135 0.01767911 5.17790222 0.00813007 C8.14143172 -0.00785034 11.10414447 0.00482409 14.06768036 0.0173955 C16.18983694 0.01197663 18.31198977 0.0048553 20.43413544 -0.00384474 C26.20267171 -0.02210888 31.97092242 -0.0149977 37.73946381 -0.0023284 C43.77010124 0.00778322 49.80071386 -0.00158896 55.83135223 -0.00787306 C65.9596522 -0.01515482 76.08783558 -0.00554784 86.21611786 0.01348925 C97.93368879 0.03525891 109.65098135 0.02820792 121.36854553 0.00618362 C131.42043443 -0.01195526 141.47223943 -0.01453608 151.5241394 -0.0040617 C157.53145665 0.00218152 163.53864296 0.00298605 169.54595184 -0.01020765 C175.19308789 -0.02174348 180.83986426 -0.0137817 186.48696136 0.00936937 C188.56225232 0.01466857 190.63757343 0.01312211 192.71285248 0.00431871 C195.54052456 -0.00657245 198.36703587 0.00704897 201.19463348 0.02703905 C202.02069847 0.01811616 202.84676346 0.00919328 203.69786072 0 C209.12523578 0.07469598 209.73247471 0.41851797 213.84893036 4.53497362 C213.84893036 19.05497362 213.84893036 33.57497362 213.84893036 48.53497362 C139.92893036 48.53497362 66.00893036 48.53497362 -10.15106964 48.53497362 C-10.15106964 0.13970733 -10.15106964 0.13970733 0 0 Z " fill="#0410F3" transform="translate(26.15106964111328,15.465026378631592)"/>
<path d="M0 0 C1.21619577 0.01877677 1.21619577 0.01877677 2.45696115 0.03793287 C3.3275021 0.03154405 4.19804305 0.02515523 5.09496403 0.01857281 C8.01179255 0.00331314 10.9272649 0.02379051 13.84404612 0.04415846 C15.9351711 0.04065756 18.02629342 0.03499934 20.11740732 0.02734327 C25.79719439 0.01308129 31.47649815 0.03017098 37.15623903 0.05362844 C43.09697282 0.07371667 49.03768614 0.06785894 54.97844553 0.06552076 C64.95537407 0.06557436 74.93211337 0.08534445 84.90898752 0.11740065 C96.44759821 0.1542943 107.98596094 0.1630764 119.52462292 0.15610313 C130.61930586 0.14980033 141.71390367 0.16054834 152.80856943 0.18006849 C157.53255027 0.18824839 162.25648762 0.19095095 166.98047495 0.18937635 C172.54223325 0.18849813 178.10375549 0.20269706 183.66545153 0.22860289 C185.70806659 0.23577189 187.75070675 0.23784479 189.79333162 0.23448515 C192.57884475 0.2307772 195.36366638 0.2454942 198.14909983 0.26498365 C198.95989701 0.25965573 199.77069419 0.2543278 200.60606098 0.24883842 C205.16860537 0.30401923 208.18671704 0.79666965 211.80303049 3.65939283 C218.51289057 17.07911298 212.80303049 33.65568959 212.80303049 48.65939283 C138.88303049 48.65939283 64.96303049 48.65939283 -11.19696951 48.65939283 C-11.19696951 0.17651955 -11.19696951 0.17651955 0 0 Z " fill="#666DF1" transform="translate(155.19696950912476,223.34060716629028)"/>
<path d="M0 0 C2.9336317 0.60841232 4.19624742 2.00599639 5.90234375 4.39453125 C7.115186 8.03305799 7.05780359 11.37860816 7.06347656 15.16723633 C7.07092392 16.35312599 7.07092392 16.35312599 7.07852173 17.56297302 C7.09313356 20.18001169 7.09994395 22.79698973 7.10546875 25.4140625 C7.11122131 27.2338613 7.11697903 29.05366009 7.1227417 30.87345886 C7.1332491 34.6907886 7.13909338 38.50809729 7.14257812 42.32543945 C7.14806025 47.21133591 7.17208335 52.09695333 7.20055008 56.98276234 C7.21919595 60.74290269 7.22438311 64.50297612 7.225914 68.2631588 C7.22893699 70.06404838 7.2369536 71.86493688 7.25009918 73.66578102 C7.26719945 76.18861592 7.26526979 78.71077285 7.25878906 81.23364258 C7.26800385 81.97411835 7.27721863 82.71459412 7.28671265 83.47750854 C7.24900803 88.17521093 6.57102495 91.4964379 3.90234375 95.39453125 C0.538946 97.32152557 -2.42202277 97.65515454 -6.25512695 97.71337891 C-7.2557869 97.7332486 -8.25644684 97.75311829 -9.28742981 97.77359009 C-10.35531235 97.7851413 -11.42319489 97.7966925 -12.5234375 97.80859375 C-14.17752876 97.83764297 -14.17752876 97.83764297 -15.86503601 97.86727905 C-19.37999791 97.92696048 -22.89499276 97.973415 -26.41015625 98.01953125 C-28.79623808 98.05772151 -31.18230628 98.09677385 -33.56835938 98.13671875 C-39.41133715 98.23265268 -45.25439731 98.31773372 -51.09765625 98.39453125 C-50.53973389 98.92997559 -49.98181152 99.46541992 -49.40698242 100.01708984 C-48.67970947 100.72687988 -47.95243652 101.43666992 -47.203125 102.16796875 C-46.48020264 102.86841309 -45.75728027 103.56885742 -45.01245117 104.29052734 C-42.35864268 107.20656987 -41.46021082 109.47894191 -41.09765625 113.39453125 C-43.1431108 118.91725852 -43.1431108 118.91725852 -46.09765625 120.39453125 C-52.75006074 121.31210428 -52.75006074 121.31210428 -55.92773438 119.1484375 C-56.83168945 118.31119141 -56.83168945 118.31119141 -57.75390625 117.45703125 C-58.44564941 116.82087891 -59.13739258 116.18472656 -59.85009766 115.52929688 C-60.59179199 114.82482422 -61.33348633 114.12035156 -62.09765625 113.39453125 C-62.8870459 112.65396484 -63.67643555 111.91339844 -64.48974609 111.15039062 C-67.01039665 108.7575379 -69.49402104 106.33082952 -71.97265625 103.89453125 C-72.82601563 103.07855469 -73.679375 102.26257813 -74.55859375 101.421875 C-82.65110303 93.44460715 -82.65110303 93.44460715 -83.09765625 87.39453125 C-81.15293788 82.55745456 -78.30680469 79.18521812 -74.625 75.59375 C-74.10128311 75.07190628 -73.57756622 74.55006256 -73.03797913 74.0124054 C-71.93792624 72.91903558 -70.83430094 71.82924933 -69.72729492 70.74291992 C-68.02967849 69.07665466 -66.34314932 67.39977075 -64.65820312 65.72070312 C-63.5852592 64.65692256 -62.51171252 63.59374952 -61.4375 62.53125 C-60.93226303 62.03026291 -60.42702606 61.52927582 -59.90647888 61.0131073 C-56.47153936 57.64828434 -55.11661906 56.47670567 -50.22265625 56.08203125 C-47.26796972 56.14112498 -46.20707232 56.32888161 -43.59765625 57.89453125 C-41.91489886 60.6991269 -41.35667069 62.95224897 -41.50390625 66.234375 C-42.6830461 70.52427194 -45.9744589 73.37833852 -49.09765625 76.39453125 C-50.08765625 77.38453125 -51.07765625 78.37453125 -52.09765625 79.39453125 C-38.23765625 79.72453125 -24.37765625 80.05453125 -10.09765625 80.39453125 C-10.1440625 74.9546875 -10.19046875 69.51484375 -10.23828125 63.91015625 C-10.25871837 60.46482468 -10.27797396 57.01956779 -10.29296875 53.57421875 C-10.31688459 48.10498544 -10.34518304 42.63601986 -10.39941406 37.16699219 C-10.44286113 32.75792252 -10.46679103 28.34913995 -10.47716522 23.93987274 C-10.48455868 22.25731638 -10.49899642 20.57477582 -10.52057648 18.89234161 C-10.54959628 16.53628024 -10.553613 14.18140652 -10.55175781 11.82519531 C-10.56613892 11.12892029 -10.58052002 10.43264526 -10.59533691 9.715271 C-10.56648261 6.33075614 -10.30825185 4.66352771 -8.1942749 1.96331787 C-5.2985008 -0.20343366 -3.50458493 -0.17620818 0 0 Z " fill="#000557" transform="translate(466.09765625,303.60546875)"/>
<path d="M0 0 C2.38581507 3.57872261 2.27003045 6.0979394 2.22705078 10.2253418 C2.22734283 10.95729767 2.22763489 11.68925354 2.22793579 12.44338989 C2.22654274 14.86212021 2.21098289 17.28054226 2.1953125 19.69921875 C2.19158228 21.37644787 2.18873535 23.05367917 2.18673706 24.73091125 C2.17910132 29.14505023 2.15945335 33.55905756 2.1373291 37.97314453 C2.1132721 43.26949595 2.10408941 48.56589138 2.09242249 53.8622818 C2.0730289 61.90827942 2.03470602 69.9539882 2 78 C15.53 77.67 29.06 77.34 43 77 C40.36 74.36 37.72 71.72 35 69 C33.39579482 65.79158965 33.52537255 62.4806013 34 59 C35.5 56.5 35.5 56.5 38 55 C41.31239279 54.39272799 42.86757539 54.15808636 46 55 C47.7980957 56.24462891 47.7980957 56.24462891 49.61328125 57.9140625 C50.30599121 58.54836182 50.99870117 59.18266113 51.71240234 59.83618164 C52.46730957 60.5502417 53.2222168 61.26430176 54 62 C54.82580566 62.77657959 55.65161133 63.55315918 56.50244141 64.35327148 C59.17346251 66.89753986 61.80806494 69.47532029 64.4375 72.0625 C65.80165039 73.37057617 65.80165039 73.37057617 67.19335938 74.70507812 C68.05638672 75.55650391 68.91941406 76.40792969 69.80859375 77.28515625 C70.98119751 78.42803101 70.98119751 78.42803101 72.17749023 79.59399414 C74.4153901 82.54838171 74.93926672 84.29820369 75 88 C73.22050198 92.89352042 70.19561125 96.22251817 66.52734375 99.80078125 C66.00362686 100.32262497 65.47990997 100.84446869 64.94032288 101.38212585 C63.84026999 102.47549567 62.73664469 103.56528192 61.62963867 104.65161133 C59.93202224 106.31787659 58.24549307 107.9947605 56.56054688 109.67382812 C55.48760295 110.73760869 54.41405627 111.80078173 53.33984375 112.86328125 C52.83460678 113.36426834 52.32936981 113.86525543 51.80882263 114.38142395 C48.37388311 117.74624691 47.01896281 118.91782558 42.125 119.3125 C39.17031347 119.25340627 38.10941607 119.06564964 35.5 117.5 C33.81724261 114.69540435 33.25901444 112.44228228 33.40625 109.16015625 C34.58538985 104.87025931 37.87680265 102.01619273 41 99 C42.00121084 98.0012123 43.0014082 97.00140622 44 96 C42.9985495 95.99453156 42.9985495 95.99453156 41.97686768 95.98895264 C35.03370236 95.9471717 28.0912008 95.87785674 21.1484375 95.79248047 C18.55670812 95.76423893 15.96489211 95.74304035 13.37304688 95.72900391 C9.64928729 95.70761938 5.92657299 95.66098914 2.203125 95.609375 C1.04258606 95.60814636 -0.11795288 95.60691772 -1.31365967 95.60565186 C-2.39447815 95.58593323 -3.47529663 95.5662146 -4.58886719 95.54589844 C-5.53928894 95.53701599 -6.48971069 95.52813354 -7.46893311 95.51898193 C-10.92090078 94.81117415 -12.01683598 93.920839 -14 91 C-14.39455787 88.0521473 -14.54732315 85.47822717 -14.51757812 82.53125 C-14.5245874 81.67877686 -14.53159668 80.82630371 -14.53881836 79.94799805 C-14.55641568 77.1316668 -14.5447696 74.31634136 -14.53125 71.5 C-14.53394442 69.54231575 -14.53782642 67.5846328 -14.54284668 65.62695312 C-14.54874408 61.52460993 -14.54017093 57.42261518 -14.52148438 53.3203125 C-14.49869475 48.06079372 -14.51181653 42.80209136 -14.53577423 37.54260254 C-14.55022563 33.5002629 -14.54562923 29.45811695 -14.53526306 25.41577148 C-14.53259396 23.47648014 -14.53587197 21.53717123 -14.54518127 19.59790039 C-14.55533602 16.8877095 -14.53986128 14.17884225 -14.51757812 11.46875 C-14.52567505 10.66655029 -14.53377197 9.86435059 -14.54211426 9.0378418 C-14.48802449 5.48839408 -14.31084572 3.41564019 -12.15515137 0.53320312 C-7.6673361 -2.65948788 -4.98474497 -1.81263453 0 0 Z " fill="#000557" transform="translate(54,305)"/>
<path d="M0 0 C1.28992355 -0.00554901 2.57984711 -0.01109802 3.90885925 -0.01681519 C7.44006301 -0.03104557 10.97048642 -0.01401989 14.50161552 0.00946999 C18.20017049 0.02960069 21.89869375 0.02369828 25.59729004 0.0213623 C31.80799199 0.02141585 38.01838947 0.0411583 44.22900391 0.07324219 C51.40512854 0.11013413 58.5808544 0.11891753 65.75706148 0.11194468 C72.66570695 0.10563518 79.57421594 0.11640218 86.48283386 0.13591003 C89.42052661 0.14407593 92.35814952 0.14679508 95.29585266 0.1452179 C99.3992621 0.14417419 103.50214772 0.1683704 107.60546875 0.1953125 C109.43219368 0.1909166 109.43219368 0.1909166 111.29582214 0.18643188 C112.41455215 0.19778168 113.53328217 0.20913147 114.68591309 0.2208252 C115.65559776 0.22455391 116.62528244 0.22828262 117.6243515 0.23212433 C120.84545115 0.6928634 122.72282749 1.64798851 125.30273438 3.61523438 C126.47454351 7.57009021 126.70754767 9.68416379 125.05273438 13.49023438 C123.30273438 15.61523438 123.30273438 15.61523438 120.30273438 16.61523438 C118.51038537 16.71197221 116.71464231 16.75018776 114.91969299 16.75567627 C113.80226715 16.76138641 112.68484131 16.76709656 111.53355408 16.77297974 C110.30697586 16.7740976 109.08039764 16.77521545 107.81665039 16.77636719 C105.8797937 16.78381454 105.8797937 16.78381454 103.90380859 16.79141235 C100.36044275 16.8045276 96.81709585 16.81097931 93.27370954 16.81542301 C91.06035371 16.81835446 88.84700305 16.82245935 86.63364983 16.82692719 C79.70957035 16.84059828 72.78550271 16.85026748 65.86141068 16.85412908 C57.86628476 16.85861249 49.87132957 16.876175 41.87625557 16.90512967 C35.69698693 16.92673245 29.51776639 16.93683256 23.33846039 16.93817019 C19.64724567 16.93921901 15.95619154 16.94514317 12.26501656 16.96298981 C8.14930952 16.98250256 4.033961 16.97818718 -0.08178711 16.97167969 C-1.30634109 16.98089447 -2.53089508 16.99010925 -3.79255676 16.99960327 C-5.47292526 16.99124954 -5.47292526 16.99124954 -7.1872406 16.98272705 C-8.64704676 16.98492689 -8.64704676 16.98492689 -10.13634396 16.98717117 C-13.13799746 16.55122446 -14.49980972 15.66964997 -16.69726562 13.61523438 C-17.48242188 11.74804688 -17.48242188 11.74804688 -17.75976562 9.74023438 C-17.87449219 9.0828125 -17.98921875 8.42539063 -18.10742188 7.74804688 C-17.59852832 5.10180039 -16.51499395 3.54437863 -14.57403564 1.69447327 C-10.25870377 -0.7870636 -4.82780189 -0.05257961 0 0 Z " fill="#FEFEFE" transform="translate(329.697265625,175.384765625)"/>
<path d="M0 0 C1.28992355 -0.00554901 2.57984711 -0.01109802 3.90885925 -0.01681519 C7.44006301 -0.03104557 10.97048642 -0.01401989 14.50161552 0.00946999 C18.20017049 0.02960069 21.89869375 0.02369828 25.59729004 0.0213623 C31.80799199 0.02141585 38.01838947 0.0411583 44.22900391 0.07324219 C51.40512854 0.11013413 58.5808544 0.11891753 65.75706148 0.11194468 C72.66570695 0.10563518 79.57421594 0.11640218 86.48283386 0.13591003 C89.42052661 0.14407593 92.35814952 0.14679508 95.29585266 0.1452179 C99.3992621 0.14417419 103.50214772 0.1683704 107.60546875 0.1953125 C109.43219368 0.1909166 109.43219368 0.1909166 111.29582214 0.18643188 C112.41455215 0.19778168 113.53328217 0.20913147 114.68591309 0.2208252 C115.65559776 0.22455391 116.62528244 0.22828262 117.6243515 0.23212433 C120.84545115 0.6928634 122.72282749 1.64798851 125.30273438 3.61523438 C126.47454351 7.57009021 126.70754767 9.68416379 125.05273438 13.49023438 C123.30273438 15.61523438 123.30273438 15.61523438 120.30273438 16.61523438 C118.51038537 16.71197221 116.71464231 16.75018776 114.91969299 16.75567627 C113.80226715 16.76138641 112.68484131 16.76709656 111.53355408 16.77297974 C110.30697586 16.7740976 109.08039764 16.77521545 107.81665039 16.77636719 C105.8797937 16.78381454 105.8797937 16.78381454 103.90380859 16.79141235 C100.36044275 16.8045276 96.81709585 16.81097931 93.27370954 16.81542301 C91.06035371 16.81835446 88.84700305 16.82245935 86.63364983 16.82692719 C79.70957035 16.84059828 72.78550271 16.85026748 65.86141068 16.85412908 C57.86628476 16.85861249 49.87132957 16.876175 41.87625557 16.90512967 C35.69698693 16.92673245 29.51776639 16.93683256 23.33846039 16.93817019 C19.64724567 16.93921901 15.95619154 16.94514317 12.26501656 16.96298981 C8.14930952 16.98250256 4.033961 16.97818718 -0.08178711 16.97167969 C-1.30634109 16.98089447 -2.53089508 16.99010925 -3.79255676 16.99960327 C-5.47292526 16.99124954 -5.47292526 16.99124954 -7.1872406 16.98272705 C-8.64704676 16.98492689 -8.64704676 16.98492689 -10.13634396 16.98717117 C-13.13799746 16.55122446 -14.49980972 15.66964997 -16.69726562 13.61523438 C-17.48242188 11.74804688 -17.48242188 11.74804688 -17.75976562 9.74023438 C-17.87449219 9.0828125 -17.98921875 8.42539063 -18.10742188 7.74804688 C-17.59852832 5.10180039 -16.51499395 3.54437863 -14.57403564 1.69447327 C-10.25870377 -0.7870636 -4.82780189 -0.05257961 0 0 Z " fill="#FEFEFE" transform="translate(73.697265625,175.384765625)"/>
<path d="M0 0 C1.28992355 -0.00554901 2.57984711 -0.01109802 3.90885925 -0.01681519 C7.44006301 -0.03104557 10.97048642 -0.01401989 14.50161552 0.00946999 C18.20017049 0.02960069 21.89869375 0.02369828 25.59729004 0.0213623 C31.80799199 0.02141585 38.01838947 0.0411583 44.22900391 0.07324219 C51.40512854 0.11013413 58.5808544 0.11891753 65.75706148 0.11194468 C72.66570695 0.10563518 79.57421594 0.11640218 86.48283386 0.13591003 C89.42052661 0.14407593 92.35814952 0.14679508 95.29585266 0.1452179 C99.3992621 0.14417419 103.50214772 0.1683704 107.60546875 0.1953125 C109.43219368 0.1909166 109.43219368 0.1909166 111.29582214 0.18643188 C112.41455215 0.19778168 113.53328217 0.20913147 114.68591309 0.2208252 C115.65559776 0.22455391 116.62528244 0.22828262 117.6243515 0.23212433 C120.84545115 0.6928634 122.72282749 1.64798851 125.30273438 3.61523438 C126.47454351 7.57009021 126.70754767 9.68416379 125.05273438 13.49023438 C123.30273438 15.61523438 123.30273438 15.61523438 120.30273438 16.61523438 C118.51038537 16.71197221 116.71464231 16.75018776 114.91969299 16.75567627 C113.80226715 16.76138641 112.68484131 16.76709656 111.53355408 16.77297974 C110.30697586 16.7740976 109.08039764 16.77521545 107.81665039 16.77636719 C105.8797937 16.78381454 105.8797937 16.78381454 103.90380859 16.79141235 C100.36044275 16.8045276 96.81709585 16.81097931 93.27370954 16.81542301 C91.06035371 16.81835446 88.84700305 16.82245935 86.63364983 16.82692719 C79.70957035 16.84059828 72.78550271 16.85026748 65.86141068 16.85412908 C57.86628476 16.85861249 49.87132957 16.876175 41.87625557 16.90512967 C35.69698693 16.92673245 29.51776639 16.93683256 23.33846039 16.93817019 C19.64724567 16.93921901 15.95619154 16.94514317 12.26501656 16.96298981 C8.14930952 16.98250256 4.033961 16.97818718 -0.08178711 16.97167969 C-1.30634109 16.98089447 -2.53089508 16.99010925 -3.79255676 16.99960327 C-5.47292526 16.99124954 -5.47292526 16.99124954 -7.1872406 16.98272705 C-8.64704676 16.98492689 -8.64704676 16.98492689 -10.13634396 16.98717117 C-13.13799746 16.55122446 -14.49980972 15.66964997 -16.69726562 13.61523438 C-17.48242188 11.74804688 -17.48242188 11.74804688 -17.75976562 9.74023438 C-17.87449219 9.0828125 -17.98921875 8.42539063 -18.10742188 7.74804688 C-17.59852832 5.10180039 -16.51499395 3.54437863 -14.57403564 1.69447327 C-10.25870377 -0.7870636 -4.82780189 -0.05257961 0 0 Z " fill="#FEFEFE" transform="translate(329.697265625,135.384765625)"/>
<path d="M0 0 C1.28992355 -0.00554901 2.57984711 -0.01109802 3.90885925 -0.01681519 C7.44006301 -0.03104557 10.97048642 -0.01401989 14.50161552 0.00946999 C18.20017049 0.02960069 21.89869375 0.02369828 25.59729004 0.0213623 C31.80799199 0.02141585 38.01838947 0.0411583 44.22900391 0.07324219 C51.40512854 0.11013413 58.5808544 0.11891753 65.75706148 0.11194468 C72.66570695 0.10563518 79.57421594 0.11640218 86.48283386 0.13591003 C89.42052661 0.14407593 92.35814952 0.14679508 95.29585266 0.1452179 C99.3992621 0.14417419 103.50214772 0.1683704 107.60546875 0.1953125 C109.43219368 0.1909166 109.43219368 0.1909166 111.29582214 0.18643188 C112.41455215 0.19778168 113.53328217 0.20913147 114.68591309 0.2208252 C115.65559776 0.22455391 116.62528244 0.22828262 117.6243515 0.23212433 C120.84545115 0.6928634 122.72282749 1.64798851 125.30273438 3.61523438 C126.47454351 7.57009021 126.70754767 9.68416379 125.05273438 13.49023438 C123.30273438 15.61523438 123.30273438 15.61523438 120.30273438 16.61523438 C118.51038537 16.71197221 116.71464231 16.75018776 114.91969299 16.75567627 C113.80226715 16.76138641 112.68484131 16.76709656 111.53355408 16.77297974 C110.30697586 16.7740976 109.08039764 16.77521545 107.81665039 16.77636719 C105.8797937 16.78381454 105.8797937 16.78381454 103.90380859 16.79141235 C100.36044275 16.8045276 96.81709585 16.81097931 93.27370954 16.81542301 C91.06035371 16.81835446 88.84700305 16.82245935 86.63364983 16.82692719 C79.70957035 16.84059828 72.78550271 16.85026748 65.86141068 16.85412908 C57.86628476 16.85861249 49.87132957 16.876175 41.87625557 16.90512967 C35.69698693 16.92673245 29.51776639 16.93683256 23.33846039 16.93817019 C19.64724567 16.93921901 15.95619154 16.94514317 12.26501656 16.96298981 C8.14930952 16.98250256 4.033961 16.97818718 -0.08178711 16.97167969 C-1.30634109 16.98089447 -2.53089508 16.99010925 -3.79255676 16.99960327 C-5.47292526 16.99124954 -5.47292526 16.99124954 -7.1872406 16.98272705 C-8.64704676 16.98492689 -8.64704676 16.98492689 -10.13634396 16.98717117 C-13.13799746 16.55122446 -14.49980972 15.66964997 -16.69726562 13.61523438 C-17.48242188 11.74804688 -17.48242188 11.74804688 -17.75976562 9.74023438 C-17.87449219 9.0828125 -17.98921875 8.42539063 -18.10742188 7.74804688 C-17.59852832 5.10180039 -16.51499395 3.54437863 -14.57403564 1.69447327 C-10.25870377 -0.7870636 -4.82780189 -0.05257961 0 0 Z " fill="#FEFEFE" transform="translate(73.697265625,135.384765625)"/>
<path d="M0 0 C1.28992355 -0.00554901 2.57984711 -0.01109802 3.90885925 -0.01681519 C7.44006301 -0.03104557 10.97048642 -0.01401989 14.50161552 0.00946999 C18.20017049 0.02960069 21.89869375 0.02369828 25.59729004 0.0213623 C31.80799199 0.02141585 38.01838947 0.0411583 44.22900391 0.07324219 C51.40512854 0.11013413 58.5808544 0.11891753 65.75706148 0.11194468 C72.66570695 0.10563518 79.57421594 0.11640218 86.48283386 0.13591003 C89.42052661 0.14407593 92.35814952 0.14679508 95.29585266 0.1452179 C99.3992621 0.14417419 103.50214772 0.1683704 107.60546875 0.1953125 C109.43219368 0.1909166 109.43219368 0.1909166 111.29582214 0.18643188 C112.41455215 0.19778168 113.53328217 0.20913147 114.68591309 0.2208252 C115.65559776 0.22455391 116.62528244 0.22828262 117.6243515 0.23212433 C120.84545115 0.6928634 122.72282749 1.64798851 125.30273438 3.61523438 C126.47454351 7.57009021 126.70754767 9.68416379 125.05273438 13.49023438 C123.30273438 15.61523438 123.30273438 15.61523438 120.30273438 16.61523438 C118.51038537 16.71197221 116.71464231 16.75018776 114.91969299 16.75567627 C113.80226715 16.76138641 112.68484131 16.76709656 111.53355408 16.77297974 C110.30697586 16.7740976 109.08039764 16.77521545 107.81665039 16.77636719 C105.8797937 16.78381454 105.8797937 16.78381454 103.90380859 16.79141235 C100.36044275 16.8045276 96.81709585 16.81097931 93.27370954 16.81542301 C91.06035371 16.81835446 88.84700305 16.82245935 86.63364983 16.82692719 C79.70957035 16.84059828 72.78550271 16.85026748 65.86141068 16.85412908 C57.86628476 16.85861249 49.87132957 16.876175 41.87625557 16.90512967 C35.69698693 16.92673245 29.51776639 16.93683256 23.33846039 16.93817019 C19.64724567 16.93921901 15.95619154 16.94514317 12.26501656 16.96298981 C8.14930952 16.98250256 4.033961 16.97818718 -0.08178711 16.97167969 C-1.30634109 16.98089447 -2.53089508 16.99010925 -3.79255676 16.99960327 C-5.47292526 16.99124954 -5.47292526 16.99124954 -7.1872406 16.98272705 C-8.64704676 16.98492689 -8.64704676 16.98492689 -10.13634396 16.98717117 C-13.13799746 16.55122446 -14.49980972 15.66964997 -16.69726562 13.61523438 C-17.48242188 11.74804688 -17.48242188 11.74804688 -17.75976562 9.74023438 C-17.87449219 9.0828125 -17.98921875 8.42539063 -18.10742188 7.74804688 C-17.59852832 5.10180039 -16.51499395 3.54437863 -14.57403564 1.69447327 C-10.25870377 -0.7870636 -4.82780189 -0.05257961 0 0 Z " fill="#FEFEFE" transform="translate(329.697265625,95.384765625)"/>
<path d="M0 0 C1.28992355 -0.00554901 2.57984711 -0.01109802 3.90885925 -0.01681519 C7.44006301 -0.03104557 10.97048642 -0.01401989 14.50161552 0.00946999 C18.20017049 0.02960069 21.89869375 0.02369828 25.59729004 0.0213623 C31.80799199 0.02141585 38.01838947 0.0411583 44.22900391 0.07324219 C51.40512854 0.11013413 58.5808544 0.11891753 65.75706148 0.11194468 C72.66570695 0.10563518 79.57421594 0.11640218 86.48283386 0.13591003 C89.42052661 0.14407593 92.35814952 0.14679508 95.29585266 0.1452179 C99.3992621 0.14417419 103.50214772 0.1683704 107.60546875 0.1953125 C109.43219368 0.1909166 109.43219368 0.1909166 111.29582214 0.18643188 C112.41455215 0.19778168 113.53328217 0.20913147 114.68591309 0.2208252 C115.65559776 0.22455391 116.62528244 0.22828262 117.6243515 0.23212433 C120.84545115 0.6928634 122.72282749 1.64798851 125.30273438 3.61523438 C126.47454351 7.57009021 126.70754767 9.68416379 125.05273438 13.49023438 C123.30273438 15.61523438 123.30273438 15.61523438 120.30273438 16.61523438 C118.51038537 16.71197221 116.71464231 16.75018776 114.91969299 16.75567627 C113.80226715 16.76138641 112.68484131 16.76709656 111.53355408 16.77297974 C110.30697586 16.7740976 109.08039764 16.77521545 107.81665039 16.77636719 C105.8797937 16.78381454 105.8797937 16.78381454 103.90380859 16.79141235 C100.36044275 16.8045276 96.81709585 16.81097931 93.27370954 16.81542301 C91.06035371 16.81835446 88.84700305 16.82245935 86.63364983 16.82692719 C79.70957035 16.84059828 72.78550271 16.85026748 65.86141068 16.85412908 C57.86628476 16.85861249 49.87132957 16.876175 41.87625557 16.90512967 C35.69698693 16.92673245 29.51776639 16.93683256 23.33846039 16.93817019 C19.64724567 16.93921901 15.95619154 16.94514317 12.26501656 16.96298981 C8.14930952 16.98250256 4.033961 16.97818718 -0.08178711 16.97167969 C-1.30634109 16.98089447 -2.53089508 16.99010925 -3.79255676 16.99960327 C-5.47292526 16.99124954 -5.47292526 16.99124954 -7.1872406 16.98272705 C-8.64704676 16.98492689 -8.64704676 16.98492689 -10.13634396 16.98717117 C-13.13799746 16.55122446 -14.49980972 15.66964997 -16.69726562 13.61523438 C-17.48242188 11.74804688 -17.48242188 11.74804688 -17.75976562 9.74023438 C-17.87449219 9.0828125 -17.98921875 8.42539063 -18.10742188 7.74804688 C-17.59852832 5.10180039 -16.51499395 3.54437863 -14.57403564 1.69447327 C-10.25870377 -0.7870636 -4.82780189 -0.05257961 0 0 Z " fill="#FEFEFE" transform="translate(73.697265625,95.384765625)"/>
<path d="M0 0 C2.0625 1.5625 2.0625 1.5625 3 4 C3.17821261 6.85140177 2.92914963 9.292848 2 12 C-0.93837168 14.85194898 -2.53597436 15 -6.625 15 C-10 14 -10 14 -12 11.875 C-13.30782688 8.11499772 -13.06090617 5.81926223 -12 2 C-8.81688665 -2.07438508 -4.54417813 -1.38635943 0 0 Z " fill="#D2D4D5" transform="translate(325,369)"/>
<path d="M0 0 C2.0625 1.5625 2.0625 1.5625 3 4 C3.17821261 6.85140177 2.92914963 9.292848 2 12 C-0.93837168 14.85194898 -2.53597436 15 -6.625 15 C-10 14 -10 14 -12 11.875 C-13.30782688 8.11499772 -13.06090617 5.81926223 -12 2 C-8.81688665 -2.07438508 -4.54417813 -1.38635943 0 0 Z " fill="#D2D4D5" transform="translate(293,369)"/>
<path d="M0 0 C2.0625 1.5625 2.0625 1.5625 3 4 C3.17821261 6.85140177 2.92914963 9.292848 2 12 C-0.93837168 14.85194898 -2.53597436 15 -6.625 15 C-10 14 -10 14 -12 11.875 C-13.30782688 8.11499772 -13.06090617 5.81926223 -12 2 C-8.81688665 -2.07438508 -4.54417813 -1.38635943 0 0 Z " fill="#D2D4D5" transform="translate(261,369)"/>
<path d="M0 0 C2.0625 1.5625 2.0625 1.5625 3 4 C3.17821261 6.85140177 2.92914963 9.292848 2 12 C-0.93837168 14.85194898 -2.53597436 15 -6.625 15 C-10 14 -10 14 -12 11.875 C-13.30782688 8.11499772 -13.06090617 5.81926223 -12 2 C-8.81688665 -2.07438508 -4.54417813 -1.38635943 0 0 Z " fill="#D2D4D5" transform="translate(229,369)"/>
<path d="M0 0 C2.0625 1.5625 2.0625 1.5625 3 4 C3.17821261 6.85140177 2.92914963 9.292848 2 12 C-0.93837168 14.85194898 -2.53597436 15 -6.625 15 C-10 14 -10 14 -12 11.875 C-13.30782688 8.11499772 -13.06090617 5.81926223 -12 2 C-8.81688665 -2.07438508 -4.54417813 -1.38635943 0 0 Z " fill="#D2D4D5" transform="translate(197,369)"/>
</svg>
