<?xml version="1.0" encoding="UTF-8"?>
<!DOCTYPE svg PUBLIC "-//W3C//DTD SVG 1.1//EN" "http://www.w3.org/Graphics/SVG/1.1/DTD/svg11.dtd">
<svg xmlns="http://www.w3.org/2000/svg" version="1.1" width="512px" height="512px" style="shape-rendering:geometricPrecision; text-rendering:geometricPrecision; image-rendering:optimizeQuality; fill-rule:evenodd; clip-rule:evenodd" xmlns:xlink="http://www.w3.org/1999/xlink">
<g><path style="opacity:0.998" fill="#ff3130" d="M 63.5,-0.5 C 77.8333,-0.5 92.1667,-0.5 106.5,-0.5C 109.355,0.873632 110.855,3.20697 111,6.5C 111.5,16.828 111.666,27.1613 111.5,37.5C 110.668,53.995 110.168,70.6616 110,87.5C 109.167,89.6667 107.667,91.1667 105.5,92C 91.5,92.6667 77.5,92.6667 63.5,92C 61.9512,90.786 60.7845,89.286 60,87.5C 59.5001,70.8367 59.3334,54.17 59.5,37.5C 59.3335,26.1618 59.5001,14.8284 60,3.5C 60.6897,1.64977 61.8564,0.316435 63.5,-0.5 Z"/></g>
<g><path style="opacity:0.998" fill="#ff3130" d="M 168.5,-0.5 C 182.833,-0.5 197.167,-0.5 211.5,-0.5C 213.97,1.08167 215.47,3.41501 216,6.5C 216.5,16.828 216.666,27.1613 216.5,37.5C 198.833,38.8333 181.167,38.8333 163.5,37.5C 163.334,27.4944 163.5,17.4944 164,7.5C 164.246,3.99526 165.746,1.32859 168.5,-0.5 Z"/></g>
<g><path style="opacity:0.998" fill="#ff3130" d="M 273.5,-0.5 C 287.833,-0.5 302.167,-0.5 316.5,-0.5C 318.97,1.08167 320.47,3.41501 321,6.5C 321.5,16.828 321.666,27.1613 321.5,37.5C 303.833,38.8333 286.167,38.8333 268.5,37.5C 268.334,27.4944 268.5,17.4944 269,7.5C 269.246,3.99526 270.746,1.32859 273.5,-0.5 Z"/></g>
<g><path style="opacity:0.997" fill="#ffa620" d="M 59.5,37.5 C 59.3334,54.17 59.5001,70.8367 60,87.5C 60.7845,89.286 61.9512,90.786 63.5,92C 77.5,92.6667 91.5,92.6667 105.5,92C 107.667,91.1667 109.167,89.6667 110,87.5C 110.168,70.6616 110.668,53.995 111.5,37.5C 128.833,37.5 146.167,37.5 163.5,37.5C 181.167,38.8333 198.833,38.8333 216.5,37.5C 233.833,37.5 251.167,37.5 268.5,37.5C 286.167,38.8333 303.833,38.8333 321.5,37.5C 336.17,37.3334 350.837,37.5001 365.5,38C 368.455,38.3917 370.622,39.8917 372,42.5C 372.5,72.1648 372.667,101.831 372.5,131.5C 250.833,131.5 129.167,131.5 7.5,131.5C 7.33335,101.831 7.50002,72.1648 8,42.5C 9.37832,39.8917 11.545,38.3917 14.5,38C 29.4963,37.5001 44.4963,37.3334 59.5,37.5 Z"/></g>
<g><path style="opacity:0.997" fill="#ffe2ae" d="M 7.5,131.5 C 129.167,131.5 250.833,131.5 372.5,131.5C 372.5,161.833 372.5,192.167 372.5,222.5C 371.502,255.996 371.168,289.663 371.5,323.5C 361.833,323.5 352.167,323.5 342.5,323.5C 342.667,300.831 342.5,278.164 342,255.5C 338.478,250.602 334.478,250.269 330,254.5C 329.333,280.833 329.333,307.167 330,333.5C 330.833,335 332,336.167 333.5,337C 346.162,337.5 358.829,337.667 371.5,337.5C 371.5,342.5 371.5,347.5 371.5,352.5C 323.499,352.333 275.499,352.5 227.5,353C 223.767,355.769 222.767,359.269 224.5,363.5C 219.5,363.5 214.5,363.5 209.5,363.5C 207.833,363.5 206.167,363.5 204.5,363.5C 140.166,363.667 75.8325,363.5 11.5,363C 10.6667,362.167 9.83333,361.333 9,360.5C 7.50607,284.249 7.00607,207.916 7.5,131.5 Z"/></g>
<g><path style="opacity:1" fill="#fe3231" d="M 38.5,151.5 C 58.5923,151.024 78.5923,151.524 98.5,153C 99.1258,153.75 99.6258,154.584 100,155.5C 100.167,163.333 100.333,171.167 100.5,179C 100.638,187.597 100.138,196.097 99,204.5C 98.2496,205.126 97.4162,205.626 96.5,206C 77.1667,206.667 57.8333,206.667 38.5,206C 37.2986,205.097 36.4652,203.931 36,202.5C 35.3333,186.5 35.3333,170.5 36,154.5C 37.045,153.627 37.8783,152.627 38.5,151.5 Z"/></g>
<g><path style="opacity:1" fill="#fe3332" d="M 120.5,151.5 C 140.259,151.024 159.926,151.524 179.5,153C 180.126,153.75 180.626,154.584 181,155.5C 181.167,163.333 181.333,171.167 181.5,179C 181.638,187.597 181.138,196.097 180,204.5C 179.25,205.126 178.416,205.626 177.5,206C 158.5,206.667 139.5,206.667 120.5,206C 118.951,204.786 117.785,203.286 117,201.5C 116.333,186.5 116.333,171.5 117,156.5C 117.997,154.677 119.164,153.01 120.5,151.5 Z"/></g>
<g><path style="opacity:1" fill="#fe3332" d="M 202.5,151.5 C 221.926,151.025 241.259,151.525 260.5,153C 261.701,153.903 262.535,155.069 263,156.5C 263.968,172.259 263.635,187.926 262,203.5C 261.167,204.333 260.333,205.167 259.5,206C 239.744,206.975 220.077,206.642 200.5,205C 199.874,204.25 199.374,203.416 199,202.5C 198.333,186.833 198.333,171.167 199,155.5C 199.69,153.65 200.856,152.316 202.5,151.5 Z"/></g>
<g><path style="opacity:1" fill="#fe3231" d="M 283.5,151.5 C 302.503,151.333 321.503,151.5 340.5,152C 341.667,153.167 342.833,154.333 344,155.5C 344.97,171.925 344.636,188.259 343,204.5C 342.25,205.126 341.416,205.626 340.5,206C 321.5,206.667 302.5,206.667 283.5,206C 281.951,204.786 280.785,203.286 280,201.5C 279.333,186.5 279.333,171.5 280,156.5C 280.997,154.677 282.164,153.01 283.5,151.5 Z"/></g>
<g><path style="opacity:1" fill="#e62c2c" d="M 44.5,160.5 C 60.1667,160.5 75.8333,160.5 91.5,160.5C 91.5,172.833 91.5,185.167 91.5,197.5C 75.8333,197.5 60.1667,197.5 44.5,197.5C 44.5,185.167 44.5,172.833 44.5,160.5 Z"/></g>
<g><path style="opacity:1" fill="#e62c2c" d="M 125.5,160.5 C 141.167,160.5 156.833,160.5 172.5,160.5C 172.5,172.833 172.5,185.167 172.5,197.5C 156.833,197.5 141.167,197.5 125.5,197.5C 125.5,185.167 125.5,172.833 125.5,160.5 Z"/></g>
<g><path style="opacity:1" fill="#e62c2c" d="M 207.5,160.5 C 223.167,160.5 238.833,160.5 254.5,160.5C 254.5,172.833 254.5,185.167 254.5,197.5C 238.833,197.5 223.167,197.5 207.5,197.5C 207.5,185.167 207.5,172.833 207.5,160.5 Z"/></g>
<g><path style="opacity:1" fill="#e62c2c" d="M 288.5,160.5 C 304.167,160.5 319.833,160.5 335.5,160.5C 335.5,172.833 335.5,185.167 335.5,197.5C 319.833,197.5 304.167,197.5 288.5,197.5C 288.5,185.167 288.5,172.833 288.5,160.5 Z"/></g>
<g><path style="opacity:1" fill="#fe3433" d="M 40.5,219.5 C 58.5031,219.333 76.5031,219.5 94.5,220C 96.9393,220.774 98.7727,222.274 100,224.5C 100.954,240.567 100.621,256.567 99,272.5C 97.8289,273.893 96.3289,274.727 94.5,275C 75.743,275.974 57.0763,275.64 38.5,274C 37.2986,273.097 36.4652,271.931 36,270.5C 35.3333,255.167 35.3333,239.833 36,224.5C 37.025,222.313 38.525,220.646 40.5,219.5 Z"/></g>
<g><path style="opacity:1" fill="#fe3533" d="M 121.5,219.5 C 140.593,219.025 159.593,219.525 178.5,221C 179.333,221.833 180.167,222.667 181,223.5C 181.667,239.5 181.667,255.5 181,271.5C 179.786,273.049 178.286,274.215 176.5,275C 158.167,275.667 139.833,275.667 121.5,275C 119.274,273.773 117.774,271.939 117,269.5C 116.333,254.5 116.333,239.5 117,224.5C 118.707,222.963 120.207,221.296 121.5,219.5 Z"/></g>
<g><path style="opacity:0.96" fill="#273f71" d="M 372.5,222.5 C 404.168,222.333 435.835,222.5 467.5,223C 470.583,223.786 472.749,225.619 474,228.5C 474.5,290.499 474.667,352.499 474.5,414.5C 472.597,414.204 470.93,413.537 469.5,412.5C 469.667,351.832 469.5,291.166 469,230.5C 468.167,229.667 467.333,228.833 466.5,228C 435.168,227.5 403.835,227.333 372.5,227.5C 372.5,225.833 372.5,224.167 372.5,222.5 Z"/></g>
<g><path style="opacity:1" fill="#304d8a" d="M 372.5,227.5 C 403.835,227.333 435.168,227.5 466.5,228C 467.333,228.833 468.167,229.667 469,230.5C 469.5,291.166 469.667,351.832 469.5,412.5C 443.709,405.262 423.209,412.596 408,434.5C 399.505,451.742 399.338,469.075 407.5,486.5C 375.168,487.167 342.668,487.5 310,487.5C 276.75,487.66 243.583,487.16 210.5,486C 209.503,445.239 209.17,404.406 209.5,363.5C 214.5,363.5 219.5,363.5 224.5,363.5C 225.683,364.504 227.016,365.338 228.5,366C 302.5,366.667 376.5,366.667 450.5,366C 457.059,361.578 457.059,357.245 450.5,353C 424.502,352.5 398.502,352.333 372.5,352.5C 372.173,347.456 372.506,342.456 373.5,337.5C 378.581,334.716 379.748,330.716 377,325.5C 375.915,324.707 374.748,324.04 373.5,323.5C 372.5,291.507 372.167,259.507 372.5,227.5 Z"/></g>
<g><path style="opacity:1" fill="#e62c2c" d="M 44.5,228.5 C 60.1667,228.5 75.8333,228.5 91.5,228.5C 91.5,241.167 91.5,253.833 91.5,266.5C 75.8333,266.5 60.1667,266.5 44.5,266.5C 44.5,253.833 44.5,241.167 44.5,228.5 Z"/></g>
<g><path style="opacity:1" fill="#e62c2c" d="M 125.5,228.5 C 141.167,228.5 156.833,228.5 172.5,228.5C 172.5,241.167 172.5,253.833 172.5,266.5C 156.833,266.5 141.167,266.5 125.5,266.5C 125.5,253.833 125.5,241.167 125.5,228.5 Z"/></g>
<g><path style="opacity:1" fill="#fffefd" d="M 243.5,251.5 C 252.506,251.334 261.506,251.5 270.5,252C 284.438,256.942 290.605,266.775 289,281.5C 287.819,285.363 285.986,288.863 283.5,292C 295.007,302.908 296.507,315.075 288,328.5C 283.842,332.495 279.008,335.329 273.5,337C 263.5,337.667 253.5,337.667 243.5,337C 241.951,335.786 240.785,334.286 240,332.5C 239.333,306.833 239.333,281.167 240,255.5C 241.376,254.295 242.542,252.962 243.5,251.5 Z"/></g>
<g><path style="opacity:1" fill="#f7f7f7" d="M 372.5,222.5 C 372.5,224.167 372.5,225.833 372.5,227.5C 372.167,259.507 372.5,291.507 373.5,323.5C 374.748,324.04 375.915,324.707 377,325.5C 379.748,330.716 378.581,334.716 373.5,337.5C 372.506,342.456 372.173,347.456 372.5,352.5C 372.167,352.5 371.833,352.5 371.5,352.5C 371.5,347.5 371.5,342.5 371.5,337.5C 358.829,337.667 346.162,337.5 333.5,337C 332,336.167 330.833,335 330,333.5C 329.333,307.167 329.333,280.833 330,254.5C 334.478,250.269 338.478,250.602 342,255.5C 342.5,278.164 342.667,300.831 342.5,323.5C 352.167,323.5 361.833,323.5 371.5,323.5C 371.168,289.663 371.502,255.996 372.5,222.5 Z"/></g>
<g><path style="opacity:1" fill="#fffefc" d="M 308.5,251.5 C 312.888,250.943 316.055,252.61 318,256.5C 318.667,281.833 318.667,307.167 318,332.5C 313.578,339.059 309.245,339.059 305,332.5C 304.333,306.833 304.333,281.167 305,255.5C 306.376,254.295 307.542,252.962 308.5,251.5 Z"/></g>
<g><path style="opacity:1" fill="#f8f9fb" d="M 393.5,251.5 C 397.594,250.705 400.761,252.038 403,255.5C 403.5,278.164 403.667,300.831 403.5,323.5C 413.839,323.334 424.172,323.5 434.5,324C 441.167,328.333 441.167,332.667 434.5,337C 421.167,337.667 407.833,337.667 394.5,337C 393.069,336.535 391.903,335.701 391,334.5C 389.352,308.587 389.019,282.587 390,256.5C 390.997,254.677 392.164,253.01 393.5,251.5 Z"/></g>
<g><path style="opacity:1" fill="#ffe4af" d="M 253.5,265.5 C 258.511,265.334 263.511,265.501 268.5,266C 277.046,271.83 277.713,278.497 270.5,286C 264.928,287.351 259.262,287.851 253.5,287.5C 253.5,280.167 253.5,272.833 253.5,265.5 Z"/></g>
<g><path style="opacity:1" fill="#fe3633" d="M 39.5,288.5 C 58.9261,288.025 78.2594,288.525 97.5,290C 98.7014,290.903 99.5348,292.069 100,293.5C 100.968,309.259 100.635,324.926 99,340.5C 97.786,342.049 96.286,343.215 94.5,344C 76.5,344.667 58.5,344.667 40.5,344C 38.4299,343.052 36.9299,341.552 36,339.5C 35.3333,323.833 35.3333,308.167 36,292.5C 37.3756,291.295 38.5423,289.962 39.5,288.5 Z"/></g>
<g><path style="opacity:1" fill="#fe3633" d="M 121.5,288.5 C 140.17,288.333 158.836,288.5 177.5,289C 178.667,290.167 179.833,291.333 181,292.5C 181.97,308.925 181.636,325.259 180,341.5C 178.581,342.46 177.081,343.293 175.5,344C 157.076,344.973 138.743,344.64 120.5,343C 118.951,341.786 117.785,340.286 117,338.5C 116.333,323.5 116.333,308.5 117,293.5C 118.025,291.313 119.525,289.646 121.5,288.5 Z"/></g>
<g><path style="opacity:1" fill="#e62c2c" d="M 44.5,297.5 C 60.1667,297.5 75.8333,297.5 91.5,297.5C 91.5,310.167 91.5,322.833 91.5,335.5C 75.8333,335.5 60.1667,335.5 44.5,335.5C 44.5,322.833 44.5,310.167 44.5,297.5 Z"/></g>
<g><path style="opacity:1" fill="#e62c2c" d="M 125.5,297.5 C 141.167,297.5 156.833,297.5 172.5,297.5C 172.5,310.167 172.5,322.833 172.5,335.5C 156.833,335.5 141.167,335.5 125.5,335.5C 125.5,322.833 125.5,310.167 125.5,297.5 Z"/></g>
<g><path style="opacity:1" fill="#ffe4af" d="M 253.5,301.5 C 259.842,301.334 266.175,301.5 272.5,302C 279.053,304.73 281.22,309.563 279,316.5C 278.226,318.939 276.726,320.773 274.5,322C 267.589,323.384 260.589,323.884 253.5,323.5C 253.5,316.167 253.5,308.833 253.5,301.5 Z"/></g>
<g><path style="opacity:1" fill="#f9f9fb" d="M 371.5,352.5 C 371.833,352.5 372.167,352.5 372.5,352.5C 398.502,352.333 424.502,352.5 450.5,353C 457.059,357.245 457.059,361.578 450.5,366C 376.5,366.667 302.5,366.667 228.5,366C 227.016,365.338 225.683,364.504 224.5,363.5C 222.767,359.269 223.767,355.769 227.5,353C 275.499,352.5 323.499,352.333 371.5,352.5 Z"/></g>
<g><path style="opacity:0.974" fill="#273f71" d="M 204.5,363.5 C 206.167,363.5 207.833,363.5 209.5,363.5C 209.17,404.406 209.503,445.239 210.5,486C 243.583,487.16 276.75,487.66 310,487.5C 342.668,487.5 375.168,487.167 407.5,486.5C 409.192,488.205 410.525,490.205 411.5,492.5C 343.751,492.993 276.084,492.493 208.5,491C 206.951,489.786 205.785,488.286 205,486.5C 204.5,445.501 204.333,404.501 204.5,363.5 Z"/></g>
<g><path style="opacity:1" fill="#fefefe" d="M 227.5,382.5 C 302.167,382.333 376.834,382.5 451.5,383C 456.41,386.568 456.743,390.568 452.5,395C 377.5,395.667 302.5,395.667 227.5,395C 224.932,393.873 223.598,391.873 223.5,389C 224.205,386.458 225.539,384.292 227.5,382.5 Z"/></g>
<g><path style="opacity:0.971" fill="#fda622" d="M 469.5,412.5 C 470.93,413.537 472.597,414.204 474.5,414.5C 495.486,425.796 504.986,443.462 503,467.5C 498.721,490.273 485.555,504.939 463.5,511.5C 455.833,511.5 448.167,511.5 440.5,511.5C 428.722,508.441 419.056,502.108 411.5,492.5C 410.525,490.205 409.192,488.205 407.5,486.5C 399.338,469.075 399.505,451.742 408,434.5C 423.209,412.596 443.709,405.262 469.5,412.5 Z"/></g>
<g><path style="opacity:1" fill="#fefefe" d="M 227.5,412.5 C 286.168,412.333 344.834,412.5 403.5,413C 407.5,417 407.5,421 403.5,425C 344.833,425.667 286.167,425.667 227.5,425C 222.262,420.741 222.262,416.575 227.5,412.5 Z"/></g>
<g><path style="opacity:1" fill="#ff961f" d="M 445.5,417.5 C 470.18,416.24 486.346,427.24 494,450.5C 497.929,475.145 488.429,492.311 465.5,502C 437.973,507.827 419.473,497.66 410,471.5C 406.026,442.994 417.859,424.994 445.5,417.5 Z"/></g>
<g><path style="opacity:1" fill="#fffcf9" d="M 449.5,426.5 C 456.716,426.546 459.383,430.212 457.5,437.5C 467.228,438.032 468.894,441.865 462.5,449C 458.179,449.499 453.846,449.666 449.5,449.5C 449.5,451.167 449.5,452.833 449.5,454.5C 453.846,454.334 458.179,454.501 462.5,455C 464.333,455.5 465.5,456.667 466,458.5C 466.667,465.833 466.667,473.167 466,480.5C 463.804,483.125 460.97,484.125 457.5,483.5C 457.665,486.518 457.498,489.518 457,492.5C 453.667,496.5 450.333,496.5 447,492.5C 446.502,489.518 446.335,486.518 446.5,483.5C 440.17,484.334 437.337,481.667 438,475.5C 438.833,474.667 439.667,473.833 440.5,473C 445.155,472.501 449.821,472.334 454.5,472.5C 454.5,470.5 454.5,468.5 454.5,466.5C 449.821,466.666 445.155,466.499 440.5,466C 439.299,465.097 438.465,463.931 438,462.5C 437.333,455.167 437.333,447.833 438,440.5C 440.196,437.875 443.03,436.875 446.5,437.5C 446.336,434.813 446.503,432.146 447,429.5C 447.698,428.309 448.531,427.309 449.5,426.5 Z"/></g>
<g><path style="opacity:1" fill="#f9fafc" d="M 228.5,441.5 C 276.834,441.333 325.168,441.5 373.5,442C 378.626,444.553 379.793,448.386 377,453.5C 376.25,454.126 375.416,454.626 374.5,455C 325.5,455.667 276.5,455.667 227.5,455C 222.045,450.011 222.378,445.511 228.5,441.5 Z"/></g>
</svg>
