<?xml version="1.0" encoding="UTF-8"?>
<!DOCTYPE svg PUBLIC "-//W3C//DTD SVG 1.1//EN" "http://www.w3.org/Graphics/SVG/1.1/DTD/svg11.dtd">
<svg xmlns="http://www.w3.org/2000/svg" version="1.1" width="512px" height="512px" style="shape-rendering:geometricPrecision; text-rendering:geometricPrecision; image-rendering:optimizeQuality; fill-rule:evenodd; clip-rule:evenodd" xmlns:xlink="http://www.w3.org/1999/xlink">
<g><path style="opacity:0.996" fill="#c4e2fe" d="M 30.5,0.5 C 38.7624,2.39184 45.5957,6.72518 51,13.5C 53.4788,17.1229 54.8122,21.1229 55,25.5C 55.8315,71.6685 55.6649,117.668 54.5,163.5C 38.1633,163.667 21.8299,163.5 5.5,163C 2.97739,161.64 0.977392,159.807 -0.5,157.5C -0.5,112.167 -0.5,66.8333 -0.5,21.5C 4.61211,7.0894 14.9454,0.0894027 30.5,0.5 Z"/></g>
<g><path style="opacity:0.997" fill="#e4edf8" d="M 30.5,0.5 C 136.5,0.5 242.5,0.5 348.5,0.5C 360.644,3.14154 368.477,10.4749 372,22.5C 372.5,106.166 372.667,189.833 372.5,273.5C 327.833,273.5 283.167,273.5 238.5,273.5C 224.829,273.333 211.163,273.5 197.5,274C 195.722,276.135 195.055,278.635 195.5,281.5C 165.662,281.169 135.995,281.502 106.5,282.5C 100.508,284.712 99.0085,288.712 102,294.5C 102.816,295.823 103.983,296.489 105.5,296.5C 135.329,297.498 165.329,297.831 195.5,297.5C 195.5,303.833 195.5,310.167 195.5,316.5C 195.5,323.833 195.5,331.167 195.5,338.5C 165.329,338.169 135.329,338.502 105.5,339.5C 98.9406,344.081 98.9406,348.747 105.5,353.5C 135.329,354.498 165.329,354.831 195.5,354.5C 195.5,359.833 195.5,365.167 195.5,370.5C 195.333,384.171 195.5,397.837 196,411.5C 196.5,412 197,412.5 197.5,413C 211.163,413.5 224.829,413.667 238.5,413.5C 247.167,413.5 255.833,413.5 264.5,413.5C 264.831,435.007 264.497,456.34 263.5,477.5C 196.499,477.667 129.499,477.5 62.5,477C 58.2297,475.73 55.7297,472.896 55,468.5C 54.5,366.834 54.3333,265.167 54.5,163.5C 55.6649,117.668 55.8315,71.6685 55,25.5C 54.8122,21.1229 53.4788,17.1229 51,13.5C 45.5957,6.72518 38.7624,2.39184 30.5,0.5 Z"/></g>
<g><path style="opacity:1" fill="#c5e2fe" d="M 348.5,0.5 C 359.564,0.093905 370.564,0.593905 381.5,2C 392.327,6.14931 398.494,13.9826 400,25.5C 400.5,107.833 400.667,190.166 400.5,272.5C 400.5,273.167 400.167,273.5 399.5,273.5C 390.5,273.5 381.5,273.5 372.5,273.5C 372.667,189.833 372.5,106.166 372,22.5C 368.477,10.4749 360.644,3.14154 348.5,0.5 Z"/></g>
<g><path style="opacity:1" fill="#596c76" d="M 135.5,40.5 C 145.172,40.3335 154.839,40.5002 164.5,41C 182.125,47.865 186.791,59.865 178.5,77C 190.127,88.5773 191.627,101.411 183,115.5C 179.279,119.551 174.779,122.384 169.5,124C 158.167,124.667 146.833,124.667 135.5,124C 133.667,123.5 132.5,122.333 132,120.5C 131.333,95.1667 131.333,69.8333 132,44.5C 133.376,43.2949 134.542,41.9616 135.5,40.5 Z"/></g>
<g><path style="opacity:1" fill="#596c76" d="M 206.5,40.5 C 210.909,39.6185 214.409,40.9518 217,44.5C 217.667,69.8333 217.667,95.1667 217,120.5C 212.239,125.812 207.572,125.812 203,120.5C 202.333,95.1667 202.333,69.8333 203,44.5C 204.376,43.2949 205.542,41.9616 206.5,40.5 Z"/></g>
<g><path style="opacity:1" fill="#5c6f79" d="M 236.5,40.5 C 241.635,39.4262 245.468,41.0928 248,45.5C 248.5,66.8307 248.667,88.1641 248.5,109.5C 254.842,109.334 261.175,109.5 267.5,110C 274.167,114.667 274.167,119.333 267.5,124C 257.167,124.667 246.833,124.667 236.5,124C 234.951,122.786 233.785,121.286 233,119.5C 232.333,94.8333 232.333,70.1667 233,45.5C 233.997,43.6769 235.164,42.0103 236.5,40.5 Z"/></g>
<g><path style="opacity:1" fill="#596c76" d="M 288.5,40.5 C 292.909,39.6185 296.409,40.9518 299,44.5C 299.5,66.1641 299.667,87.8308 299.5,109.5C 305.842,109.334 312.175,109.5 318.5,110C 323.143,112.072 324.643,115.572 323,120.5C 322.5,122.333 321.333,123.5 319.5,124C 309.167,124.667 298.833,124.667 288.5,124C 286.667,123.5 285.5,122.333 285,120.5C 284.333,95.1667 284.333,69.8333 285,44.5C 285.69,42.6498 286.856,41.3164 288.5,40.5 Z"/></g>
<g><path style="opacity:1" fill="#dfe8f3" d="M 146.5,55.5 C 151.511,55.3341 156.511,55.5007 161.5,56C 169.5,61.3333 169.5,66.6667 161.5,72C 156.511,72.4993 151.511,72.6659 146.5,72.5C 146.5,66.8333 146.5,61.1667 146.5,55.5 Z"/></g>
<g><path style="opacity:1" fill="#e2ebf6" d="M 146.5,87.5 C 152.842,87.3338 159.175,87.5005 165.5,88C 173.802,91.7303 175.635,97.5637 171,105.5C 169.421,107.041 167.587,108.208 165.5,109C 159.175,109.5 152.842,109.666 146.5,109.5C 146.5,102.167 146.5,94.8333 146.5,87.5 Z"/></g>
<g><path style="opacity:1" fill="#8795de" d="M 104.5,168.5 C 156.168,168.333 207.834,168.5 259.5,169C 264.833,173.667 264.833,178.333 259.5,183C 207.833,183.667 156.167,183.667 104.5,183C 99.232,178.171 99.232,173.337 104.5,168.5 Z"/></g>
<g><path style="opacity:1" fill="#8795de" d="M 320.5,168.5 C 333.171,168.333 345.838,168.5 358.5,169C 365.167,173.667 365.167,178.333 358.5,183C 345.833,183.667 333.167,183.667 320.5,183C 315.202,178.092 315.202,173.258 320.5,168.5 Z"/></g>
<g><path style="opacity:1" fill="#8795de" d="M 104.5,225.5 C 156.168,225.333 207.834,225.5 259.5,226C 263.212,228.513 264.378,232.013 263,236.5C 261.786,238.049 260.286,239.215 258.5,240C 207.5,240.667 156.5,240.667 105.5,240C 99.2917,235.58 98.9583,230.747 104.5,225.5 Z"/></g>
<g><path style="opacity:1" fill="#8795de" d="M 320.5,225.5 C 333.171,225.333 345.838,225.5 358.5,226C 365.167,230.667 365.167,235.333 358.5,240C 345.833,240.667 333.167,240.667 320.5,240C 315.202,235.092 315.202,230.258 320.5,225.5 Z"/></g>
<g><path style="opacity:1" fill="#0ab69f" d="M 238.5,273.5 C 236.917,295.921 225.25,310.087 203.5,316C 200.854,316.497 198.187,316.664 195.5,316.5C 195.5,310.167 195.5,303.833 195.5,297.5C 195.5,292.167 195.5,286.833 195.5,281.5C 195.055,278.635 195.722,276.135 197.5,274C 211.163,273.5 224.829,273.333 238.5,273.5 Z"/></g>
<g><path style="opacity:1" fill="#0ed1b2" d="M 238.5,273.5 C 283.167,273.5 327.833,273.5 372.5,273.5C 381.5,273.5 390.5,273.5 399.5,273.5C 399.36,287.888 405.027,299.221 416.5,307.5C 416.5,307.833 416.5,308.167 416.5,308.5C 416.5,323.833 416.5,339.167 416.5,354.5C 392.5,354.5 368.5,354.5 344.5,354.5C 343.703,349.521 341.37,345.355 337.5,342C 329.437,337.636 321.103,333.802 312.5,330.5C 310.721,326.904 311.721,324.404 315.5,323C 317.833,322.333 320.167,322.333 322.5,323C 326.884,324.863 331.217,326.696 335.5,328.5C 340.266,328.234 342.933,325.734 343.5,321C 343.205,318.077 341.871,315.743 339.5,314C 335.879,311.356 331.879,309.523 327.5,308.5C 327.701,298.181 323.035,294.681 313.5,298C 312.056,301.325 311.056,304.825 310.5,308.5C 294.518,316.271 291.518,327.437 301.5,342C 310.227,346.284 318.893,350.451 327.5,354.5C 307.741,354.024 288.074,354.524 268.5,356C 267.333,357.167 266.167,358.333 265,359.5C 264.5,377.497 264.333,395.497 264.5,413.5C 255.833,413.5 247.167,413.5 238.5,413.5C 237.68,395.178 229.013,382.011 212.5,374C 206.984,372.037 201.317,370.87 195.5,370.5C 195.5,365.167 195.5,359.833 195.5,354.5C 195.5,349.167 195.5,343.833 195.5,338.5C 195.5,331.167 195.5,323.833 195.5,316.5C 198.187,316.664 200.854,316.497 203.5,316C 225.25,310.087 236.917,295.921 238.5,273.5 Z"/></g>
<g><path style="opacity:1" fill="#0ab69f" d="M 400.5,272.5 C 404.5,272.5 408.5,272.5 412.5,272.5C 413.731,273.718 414.898,275.051 416,276.5C 416.5,286.828 416.666,297.161 416.5,307.5C 405.027,299.221 399.36,287.888 399.5,273.5C 400.167,273.5 400.5,273.167 400.5,272.5 Z"/></g>
<g><path style="opacity:1" fill="#01998d" d="M 412.5,272.5 C 421.173,272.334 429.84,272.5 438.5,273C 439.931,273.465 441.097,274.299 442,275.5C 442.5,289.163 442.667,302.829 442.5,316.5C 433.055,316.306 424.388,313.64 416.5,308.5C 416.5,308.167 416.5,307.833 416.5,307.5C 416.666,297.161 416.5,286.828 416,276.5C 414.898,275.051 413.731,273.718 412.5,272.5 Z"/></g>
<g><path style="opacity:1" fill="#8795de" d="M 106.5,282.5 C 135.833,282.5 165.167,282.5 194.5,282.5C 194.5,287.167 194.5,291.833 194.5,296.5C 164.833,296.5 135.167,296.5 105.5,296.5C 103.983,296.489 102.816,295.823 102,294.5C 99.0085,288.712 100.508,284.712 106.5,282.5 Z"/></g>
<g><path style="opacity:1" fill="#9aaae2" d="M 106.5,282.5 C 135.995,281.502 165.662,281.169 195.5,281.5C 195.5,286.833 195.5,292.167 195.5,297.5C 165.329,297.831 135.329,297.498 105.5,296.5C 135.167,296.5 164.833,296.5 194.5,296.5C 194.5,291.833 194.5,287.167 194.5,282.5C 165.167,282.5 135.833,282.5 106.5,282.5 Z"/></g>
<g><path style="opacity:1" fill="#0ab69f" d="M 344.5,354.5 C 338.833,354.5 333.167,354.5 327.5,354.5C 318.893,350.451 310.227,346.284 301.5,342C 291.518,327.437 294.518,316.271 310.5,308.5C 311.056,304.825 312.056,301.325 313.5,298C 323.035,294.681 327.701,298.181 327.5,308.5C 331.879,309.523 335.879,311.356 339.5,314C 341.871,315.743 343.205,318.077 343.5,321C 342.933,325.734 340.266,328.234 335.5,328.5C 331.217,326.696 326.884,324.863 322.5,323C 320.167,322.333 317.833,322.333 315.5,323C 311.721,324.404 310.721,326.904 312.5,330.5C 321.103,333.802 329.437,337.636 337.5,342C 341.37,345.355 343.703,349.521 344.5,354.5 Z"/></g>
<g><path style="opacity:1" fill="#0ab69f" d="M 416.5,308.5 C 424.388,313.64 433.055,316.306 442.5,316.5C 442.5,329.167 442.5,341.833 442.5,354.5C 433.833,354.5 425.167,354.5 416.5,354.5C 416.5,339.167 416.5,323.833 416.5,308.5 Z"/></g>
<g><path style="opacity:1" fill="#8795de" d="M 105.5,339.5 C 135.167,339.5 164.833,339.5 194.5,339.5C 194.5,344.167 194.5,348.833 194.5,353.5C 164.833,353.5 135.167,353.5 105.5,353.5C 98.9406,348.747 98.9406,344.081 105.5,339.5 Z"/></g>
<g><path style="opacity:1" fill="#9fafe4" d="M 105.5,339.5 C 135.329,338.502 165.329,338.169 195.5,338.5C 195.5,343.833 195.5,349.167 195.5,354.5C 165.329,354.831 135.329,354.498 105.5,353.5C 135.167,353.5 164.833,353.5 194.5,353.5C 194.5,348.833 194.5,344.167 194.5,339.5C 164.833,339.5 135.167,339.5 105.5,339.5 Z"/></g>
<g><path style="opacity:0.999" fill="#8795dd" d="M 327.5,354.5 C 333.167,354.5 338.833,354.5 344.5,354.5C 368.5,354.5 392.5,354.5 416.5,354.5C 425.167,354.5 433.833,354.5 442.5,354.5C 454.833,354.5 467.167,354.5 479.5,354.5C 481.437,355.931 483.27,357.598 485,359.5C 485.667,407.833 485.667,456.167 485,504.5C 483.506,507.314 481.34,509.314 478.5,510.5C 408.833,510.667 339.166,510.5 269.5,510C 266.572,508.74 264.739,506.573 264,503.5C 263.5,494.84 263.334,486.173 263.5,477.5C 264.497,456.34 264.831,435.007 264.5,413.5C 264.333,395.497 264.5,377.497 265,359.5C 266.167,358.333 267.333,357.167 268.5,356C 288.074,354.524 307.741,354.024 327.5,354.5 Z"/></g>
<g><path style="opacity:1" fill="#6c7fd8" d="M 479.5,354.5 C 488.506,354.334 497.506,354.5 506.5,355C 508.323,355.997 509.99,357.164 511.5,358.5C 511.5,407.5 511.5,456.5 511.5,505.5C 510.146,507.696 508.146,509.196 505.5,510C 496.506,510.5 487.506,510.666 478.5,510.5C 481.34,509.314 483.506,507.314 485,504.5C 485.667,456.167 485.667,407.833 485,359.5C 483.27,357.598 481.437,355.931 479.5,354.5 Z"/></g>
<g><path style="opacity:1" fill="#0ab69f" d="M 195.5,370.5 C 201.317,370.87 206.984,372.037 212.5,374C 229.013,382.011 237.68,395.178 238.5,413.5C 224.829,413.667 211.163,413.5 197.5,413C 197,412.5 196.5,412 196,411.5C 195.5,397.837 195.333,384.171 195.5,370.5 Z"/></g>
<g><path style="opacity:1" fill="#fce70a" d="M 310.5,391.5 C 325.264,391.033 339.93,391.533 354.5,393C 355.126,393.75 355.626,394.584 356,395.5C 356.167,400.5 356.333,405.5 356.5,410.5C 356.621,416.273 356.121,421.939 355,427.5C 354.5,428 354,428.5 353.5,429C 339.167,429.667 324.833,429.667 310.5,429C 309.667,428.167 308.833,427.333 308,426.5C 307.333,415.833 307.333,405.167 308,394.5C 309.045,393.627 309.878,392.627 310.5,391.5 Z"/></g>
<g><path style="opacity:1" fill="#e1ebf8" d="M 448.5,392.5 C 455.841,392.334 463.174,392.5 470.5,393C 475.224,395.435 476.724,399.269 475,404.5C 473.786,406.049 472.286,407.215 470.5,408C 463.5,408.667 456.5,408.667 449.5,408C 444.776,405.565 443.276,401.731 445,396.5C 446.376,395.295 447.542,393.962 448.5,392.5 Z"/></g>
<g><path style="opacity:1" fill="#e3ecf8" d="M 303.5,465.5 C 311.507,465.334 319.507,465.5 327.5,466C 331.212,468.513 332.378,472.013 331,476.5C 329.786,478.049 328.286,479.215 326.5,480C 319.167,480.667 311.833,480.667 304.5,480C 298.205,475.663 297.872,470.829 303.5,465.5 Z"/></g>
<g><path style="opacity:1" fill="#e3ecf8" d="M 351.5,465.5 C 359.507,465.334 367.507,465.5 375.5,466C 379.212,468.513 380.378,472.013 379,476.5C 377.786,478.049 376.286,479.215 374.5,480C 367.167,480.667 359.833,480.667 352.5,480C 346.205,475.663 345.872,470.829 351.5,465.5 Z"/></g>
<g><path style="opacity:1" fill="#e3ecf8" d="M 399.5,465.5 C 407.507,465.334 415.507,465.5 423.5,466C 427.212,468.513 428.378,472.013 427,476.5C 426.167,478 425,479.167 423.5,480C 415.833,480.667 408.167,480.667 400.5,480C 394.205,475.663 393.872,470.829 399.5,465.5 Z"/></g>
<g><path style="opacity:1" fill="#e4edf8" d="M 448.5,465.5 C 456.174,465.334 463.841,465.5 471.5,466C 472.931,466.465 474.097,467.299 475,468.5C 476.444,473.256 475.277,477.089 471.5,480C 463.833,480.667 456.167,480.667 448.5,480C 444.723,477.089 443.556,473.256 445,468.5C 446.145,467.364 447.312,466.364 448.5,465.5 Z"/></g>
</svg>
