<?xml version="1.0" encoding="UTF-8"?>
<!DOCTYPE svg PUBLIC "-//W3C//DTD SVG 1.1//EN" "http://www.w3.org/Graphics/SVG/1.1/DTD/svg11.dtd">
<svg xmlns="http://www.w3.org/2000/svg" version="1.1" width="512px" height="512px" style="shape-rendering:geometricPrecision; text-rendering:geometricPrecision; image-rendering:optimizeQuality; fill-rule:evenodd; clip-rule:evenodd" xmlns:xlink="http://www.w3.org/1999/xlink">
<g><path style="opacity:0.999" fill="#d0d9fd" d="M 386.5,70.5 C 387.187,77.8131 387.521,85.1464 387.5,92.5C 393.5,92.5 399.5,92.5 405.5,92.5C 405.672,93.4916 405.338,94.1583 404.5,94.5C 399.025,93.5111 393.358,93.1778 387.5,93.5C 389.626,166.555 388.459,239.555 384,312.5C 380.888,320.612 375.054,325.445 366.5,327C 289.144,334.236 211.811,334.236 134.5,327C 125.443,324.943 119.609,319.443 117,310.5C 114.473,237.781 113.973,165.115 115.5,92.5C 115.5,85.1667 115.5,77.8333 115.5,70.5C 115.567,58.151 116.067,45.8177 117,33.5C 118.623,27.5431 122.123,23.0431 127.5,20C 137.383,18.0577 147.383,17.0577 157.5,17C 218.833,13.7179 280.166,13.7179 341.5,17C 352.283,17.0203 362.95,18.0203 373.5,20C 378.712,22.2468 382.212,26.0802 384,31.5C 385.571,44.4429 386.404,57.4429 386.5,70.5 Z"/></g>
<g><path style="opacity:1" fill="#476cc6" d="M 239.5,36.5 C 241.722,36.178 243.556,36.8446 245,38.5C 245.667,53.1667 245.667,67.8333 245,82.5C 242.925,84.6483 240.592,84.9817 238,83.5C 237.333,68.5 237.333,53.5 238,38.5C 238.717,37.9558 239.217,37.2891 239.5,36.5 Z"/></g>
<g><path style="opacity:1" fill="#476cc5" d="M 173.5,38.5 C 180.361,37.9651 187.028,38.7984 193.5,41C 196.446,44.4911 195.612,46.6578 191,47.5C 184.702,44.7566 178.535,44.9233 172.5,48C 169.735,50.9663 170.068,53.633 173.5,56C 180.371,57.7347 187.037,60.068 193.5,63C 199.019,72.1659 197.019,79.1659 187.5,84C 178.728,86.675 170.561,85.5083 163,80.5C 161.928,77.4473 162.928,75.4473 166,74.5C 173.257,77.9576 180.59,78.2909 188,75.5C 190.379,71.971 189.546,69.471 185.5,68C 179.618,66.5949 173.951,64.5949 168.5,62C 161.022,55.7675 160.689,49.1008 167.5,42C 169.727,41.059 171.727,39.8923 173.5,38.5 Z"/></g>
<g><path style="opacity:1" fill="#496dc6" d="M 208.5,50.5 C 212.846,50.3343 217.179,50.501 221.5,51C 226.062,52.6271 228.895,55.7938 230,60.5C 230.667,67.8333 230.667,75.1667 230,82.5C 227.205,85.113 224.371,85.113 221.5,82.5C 208.06,89.044 201.227,85.044 201,70.5C 202.981,67.2553 205.814,65.0886 209.5,64C 213.486,63.5012 217.486,63.3345 221.5,63.5C 222.035,60.7615 221.035,58.9282 218.5,58C 213.712,57.5185 209.045,57.8518 204.5,59C 202.675,57.5341 202.175,55.7008 203,53.5C 204.876,52.3913 206.709,51.3913 208.5,50.5 Z"/></g>
<g><path style="opacity:1" fill="#466cc5" d="M 258.5,50.5 C 262.846,50.3343 267.179,50.501 271.5,51C 274.539,52.0314 277.039,53.8647 279,56.5C 280.576,65.0895 280.91,73.7562 280,82.5C 277.472,85.0231 274.805,85.0231 272,82.5C 266.205,86.0956 260.372,86.2622 254.5,83C 248.475,75.8149 249.475,69.8149 257.5,65C 262.42,63.7497 267.42,63.2497 272.5,63.5C 272.548,60.7081 271.215,58.8747 268.5,58C 263.7,57.5205 259.034,57.8539 254.5,59C 252.485,54.5395 253.819,51.7061 258.5,50.5 Z"/></g>
<g><path style="opacity:1" fill="#466cc5" d="M 289.5,50.5 C 292.325,50.0807 294.491,51.0807 296,53.5C 299.935,50.0701 304.102,49.7367 308.5,52.5C 310.191,50.7438 312.191,50.2438 314.5,51C 317.74,58.2265 321.074,65.3931 324.5,72.5C 327.662,65.5087 330.829,58.5087 334,51.5C 338.686,49.8496 340.686,51.5163 340,56.5C 334.405,70.9659 328.238,85.1325 321.5,99C 319.633,99.7112 318.133,99.2112 317,97.5C 317.652,92.183 318.318,86.8497 319,81.5C 315.867,72.5722 312.2,63.9055 308,55.5C 305.376,57.0352 302.543,58.2018 299.5,59C 298,59.8333 296.833,61 296,62.5C 295.667,69.5 295.333,76.5 295,83.5C 292.408,84.9817 290.075,84.6483 288,82.5C 287.333,72.5 287.333,62.5 288,52.5C 288.717,51.9558 289.217,51.2891 289.5,50.5 Z"/></g>
<g><path style="opacity:0.994" fill="#4269c3" d="M 477.5,74.5 C 488.844,93.4544 486.177,110.288 469.5,125C 454.154,134.957 437.487,137.957 419.5,134C 414.215,132.354 409.215,130.187 404.5,127.5C 400.561,116.6 400.561,105.6 404.5,94.5C 405.338,94.1583 405.672,93.4916 405.5,92.5C 409.983,83.5116 416.316,76.1783 424.5,70.5C 443.044,61.4671 460.711,62.8004 477.5,74.5 Z"/></g>
<g><path style="opacity:0.981" fill="#51504f" d="M 115.5,70.5 C 115.5,77.8333 115.5,85.1667 115.5,92.5C 100.83,92.3334 86.1629,92.5001 71.5,93C 63.907,95.0916 59.2404,99.925 57.5,107.5C 56.5007,185.998 56.1674,264.665 56.5,343.5C 48.3636,346.982 41.0303,351.649 34.5,357.5C 34.0106,271.789 34.5106,186.122 36,100.5C 41.5316,84.3035 52.6983,74.4702 69.5,71C 84.8297,70.5001 100.163,70.3334 115.5,70.5 Z"/></g>
<g><path style="opacity:1" fill="#cad4fb" d="M 210.5,70.5 C 214.5,70.5 218.5,70.5 222.5,70.5C 222.714,72.1439 222.38,73.6439 221.5,75C 217.603,77.6183 213.436,78.1183 209,76.5C 208.252,74.1599 208.752,72.1599 210.5,70.5 Z"/></g>
<g><path style="opacity:1" fill="#cbd5fb" d="M 261.5,70.5 C 265.167,70.5 268.833,70.5 272.5,70.5C 272.247,75.7341 269.414,78.0674 264,77.5C 259.567,78.4013 257.9,76.7346 259,72.5C 259.995,71.9341 260.828,71.2674 261.5,70.5 Z"/></g>
<g><path style="opacity:0.964" fill="#51504f" d="M 386.5,70.5 C 399.167,70.5 411.833,70.5 424.5,70.5C 416.316,76.1783 409.983,83.5116 405.5,92.5C 399.5,92.5 393.5,92.5 387.5,92.5C 387.521,85.1464 387.187,77.8131 386.5,70.5 Z"/></g>
<g><path style="opacity:1" fill="#26529a" d="M 477.5,74.5 C 494.799,89.7927 499.632,108.459 492,130.5C 486.291,142.918 477.125,151.585 464.5,156.5C 456.924,158.065 449.258,158.732 441.5,158.5C 423.382,155.047 411.048,144.713 404.5,127.5C 409.215,130.187 414.215,132.354 419.5,134C 437.487,137.957 454.154,134.957 469.5,125C 486.177,110.288 488.844,93.4544 477.5,74.5 Z"/></g>
<g><path style="opacity:1" fill="#fefefe" d="M 115.5,92.5 C 113.973,165.115 114.473,237.781 117,310.5C 119.609,319.443 125.443,324.943 134.5,327C 211.811,334.236 289.144,334.236 366.5,327C 375.054,325.445 380.888,320.612 384,312.5C 388.459,239.555 389.626,166.555 387.5,93.5C 393.358,93.1778 399.025,93.5111 404.5,94.5C 400.561,105.6 400.561,116.6 404.5,127.5C 411.048,144.713 423.382,155.047 441.5,158.5C 441.5,219.5 441.5,280.5 441.5,341.5C 411.804,339.984 382.137,340.484 352.5,343C 348.764,343.703 345.431,345.203 342.5,347.5C 268.5,347.5 194.5,347.5 120.5,347.5C 102.707,339.401 84.3741,337.401 65.5,341.5C 63.139,341.674 60.8056,342.007 58.5,342.5C 57.5007,264.335 57.1674,186.002 57.5,107.5C 59.2404,99.925 63.907,95.0916 71.5,93C 86.1629,92.5001 100.83,92.3334 115.5,92.5 Z"/></g>
<g><path style="opacity:1" fill="#f9fafd" d="M 470.5,92.5 C 471.376,92.3691 472.043,92.7025 472.5,93.5C 465.426,108.815 454.759,120.982 440.5,130C 438.5,130.667 436.5,130.667 434.5,130C 429.219,124.318 426.219,117.818 425.5,110.5C 429.282,112.904 433.282,114.404 437.5,115C 446.901,104.981 457.901,97.4806 470.5,92.5 Z"/></g>
<g><path style="opacity:1" fill="#446ac4" d="M 188.5,151.5 C 188.666,143.826 188.5,136.159 188,128.5C 172.914,143.806 154.747,149.806 133.5,146.5C 133.333,134.495 133.5,122.495 134,110.5C 134.792,108.413 135.959,106.579 137.5,105C 152.741,103.366 168.074,103.032 183.5,104C 186.381,105.251 188.214,107.417 189,110.5C 189.827,124.34 189.661,138.006 188.5,151.5 Z"/></g>
<g><path style="opacity:1" fill="#8c9dea" d="M 216.5,108.5 C 225.173,108.334 233.84,108.5 242.5,109C 245.702,109.547 248.702,110.547 251.5,112C 241.048,115.067 230.382,116.067 219.5,115C 215.96,114.266 212.627,113.099 209.5,111.5C 211.875,110.34 214.208,109.34 216.5,108.5 Z"/></g>
<g><path style="opacity:1" fill="#8e9feb" d="M 308.5,107.5 C 329.002,107.017 349.335,108.517 369.5,112C 338.154,116.646 306.821,116.646 275.5,112C 275.833,111.667 276.167,111.333 276.5,111C 287.257,109.354 297.924,108.188 308.5,107.5 Z"/></g>
<g><path style="opacity:1" fill="#e7e7e7" d="M 57.5,107.5 C 57.1674,186.002 57.5007,264.335 58.5,342.5C 58.1583,343.338 57.4916,343.672 56.5,343.5C 56.1674,264.665 56.5007,185.998 57.5,107.5 Z"/></g>
<g><path style="opacity:1" fill="#f3f5fb" d="M 174.5,118.5 C 175.239,118.369 175.906,118.536 176.5,119C 171.677,127.832 165.343,135.498 157.5,142C 155.956,143.187 154.289,143.52 152.5,143C 148.791,139.393 146.291,135.226 145,130.5C 147.921,132.377 150.754,134.377 153.5,136.5C 159.905,129.758 166.905,123.758 174.5,118.5 Z"/></g>
<g><path style="opacity:1" fill="#8d9eeb" d="M 227.5,127.5 C 244.503,127.333 261.503,127.5 278.5,128C 285.565,128.591 292.565,129.591 299.5,131C 276.291,134.379 252.958,135.379 229.5,134C 222.746,133.489 216.079,132.489 209.5,131C 215.581,129.503 221.581,128.336 227.5,127.5 Z"/></g>
<g><path style="opacity:1" fill="#8c9dea" d="M 334.5,127.5 C 342.84,127.334 351.173,127.5 359.5,128C 362.936,128.692 366.27,129.692 369.5,131C 354.837,135.632 340.17,135.632 325.5,131C 328.571,129.704 331.571,128.538 334.5,127.5 Z"/></g>
<g><path style="opacity:1" fill="#265299" d="M 188.5,151.5 C 188.16,154.675 186.493,156.841 183.5,158C 168.833,158.667 154.167,158.667 139.5,158C 135.274,155.383 133.274,151.55 133.5,146.5C 154.747,149.806 172.914,143.806 188,128.5C 188.5,136.159 188.666,143.826 188.5,151.5 Z"/></g>
<g><path style="opacity:1" fill="#8c9dea" d="M 231.5,146.5 C 254.284,145.894 276.951,147.061 299.5,150C 292.615,151.717 285.615,152.717 278.5,153C 262.5,153.667 246.5,153.667 230.5,153C 223.395,152.458 216.395,151.458 209.5,150C 216.979,148.893 224.312,147.727 231.5,146.5 Z"/></g>
<g><path style="opacity:1" fill="#535251" d="M 464.5,156.5 C 464.5,218.167 464.5,279.833 464.5,341.5C 456.908,342.241 449.242,342.241 441.5,341.5C 441.5,280.5 441.5,219.5 441.5,158.5C 449.258,158.732 456.924,158.065 464.5,156.5 Z"/></g>
<g><path style="opacity:1" fill="#446ac4" d="M 188.5,226.5 C 188.666,218.826 188.5,211.159 188,203.5C 172.96,218.459 154.794,224.793 133.5,222.5C 133.333,210.162 133.5,197.829 134,185.5C 134.792,183.413 135.959,181.579 137.5,180C 152.407,178.367 167.407,178.033 182.5,179C 185.973,179.807 188.14,181.973 189,185.5C 189.827,199.34 189.661,213.006 188.5,226.5 Z"/></g>
<g><path style="opacity:1" fill="#8d9dea" d="M 216.5,183.5 C 225.173,183.334 233.84,183.5 242.5,184C 245.702,184.547 248.702,185.547 251.5,187C 241.037,190.067 230.371,191.067 219.5,190C 215.821,189.719 212.488,188.552 209.5,186.5C 211.875,185.34 214.208,184.34 216.5,183.5 Z"/></g>
<g><path style="opacity:1" fill="#8c9dea" d="M 294.5,183.5 C 311.17,183.333 327.837,183.5 344.5,184C 352.299,184.104 359.966,185.104 367.5,187C 336.834,191.65 306.168,191.65 275.5,187C 281.821,185.439 288.154,184.273 294.5,183.5 Z"/></g>
<g><path style="opacity:1" fill="#f3f5fb" d="M 174.5,193.5 C 175.239,193.369 175.906,193.536 176.5,194C 171.677,202.832 165.343,210.498 157.5,217C 155.956,218.187 154.289,218.52 152.5,218C 148.791,214.393 146.291,210.226 145,205.5C 147.921,207.377 150.754,209.377 153.5,211.5C 159.905,204.758 166.905,198.758 174.5,193.5 Z"/></g>
<g><path style="opacity:1" fill="#8c9cea" d="M 230.5,202.5 C 244.504,202.333 258.504,202.5 272.5,203C 281.588,203.292 290.588,204.292 299.5,206C 291.633,207.925 283.633,208.925 275.5,209C 260.833,209.667 246.167,209.667 231.5,209C 224.094,208.393 216.761,207.393 209.5,206C 216.626,204.829 223.626,203.662 230.5,202.5 Z"/></g>
<g><path style="opacity:1" fill="#8d9dea" d="M 334.5,202.5 C 342.84,202.334 351.173,202.5 359.5,203C 363.019,203.395 366.352,204.395 369.5,206C 365.389,207.891 361.056,208.891 356.5,209C 349.167,209.667 341.833,209.667 334.5,209C 331.363,208.399 328.363,207.399 325.5,206C 328.571,204.704 331.571,203.538 334.5,202.5 Z"/></g>
<g><path style="opacity:1" fill="#255299" d="M 188.5,226.5 C 188.16,229.675 186.493,231.841 183.5,233C 168.833,233.667 154.167,233.667 139.5,233C 135.571,230.647 133.571,227.147 133.5,222.5C 154.794,224.793 172.96,218.459 188,203.5C 188.5,211.159 188.666,218.826 188.5,226.5 Z"/></g>
<g><path style="opacity:1" fill="#8d9dea" d="M 234.5,221.5 C 256.593,221.006 278.593,222.172 300.5,225C 293.888,226.327 287.222,227.327 280.5,228C 262.167,228.667 243.833,228.667 225.5,228C 220.022,227.643 214.688,226.643 209.5,225C 217.924,223.451 226.258,222.284 234.5,221.5 Z"/></g>
<g><path style="opacity:1" fill="#446ac4" d="M 188.5,301.5 C 188.666,293.826 188.5,286.159 188,278.5C 172.973,293.455 154.806,299.788 133.5,297.5C 133.333,285.162 133.5,272.829 134,260.5C 134.786,257.417 136.619,255.251 139.5,254C 153.833,253.333 168.167,253.333 182.5,254C 186,254.833 188.167,257 189,260.5C 189.827,274.34 189.661,288.006 188.5,301.5 Z"/></g>
<g><path style="opacity:1" fill="#8c9dea" d="M 216.5,258.5 C 224.84,258.334 233.173,258.5 241.5,259C 245.069,259.39 248.403,260.39 251.5,262C 237.471,266.576 223.471,266.576 209.5,262C 211.858,260.724 214.192,259.558 216.5,258.5 Z"/></g>
<g><path style="opacity:1" fill="#8d9dea" d="M 292.5,258.5 C 310.503,258.333 328.503,258.5 346.5,259C 354.278,259.188 361.945,260.188 369.5,262C 338.135,266.509 306.802,266.509 275.5,262C 281.224,260.432 286.89,259.266 292.5,258.5 Z"/></g>
<g><path style="opacity:1" fill="#f4f5fb" d="M 174.5,268.5 C 175.239,268.369 175.906,268.536 176.5,269C 171.677,277.832 165.343,285.498 157.5,292C 155.956,293.187 154.289,293.52 152.5,293C 148.791,289.393 146.291,285.226 145,280.5C 147.921,282.377 150.754,284.377 153.5,286.5C 159.905,279.758 166.905,273.758 174.5,268.5 Z"/></g>
<g><path style="opacity:1" fill="#8d9dea" d="M 227.5,277.5 C 242.504,277.333 257.504,277.5 272.5,278C 281.615,278.065 290.615,279.065 299.5,281C 291.898,282.437 284.232,283.437 276.5,284C 260.5,284.667 244.5,284.667 228.5,284C 222.12,283.196 215.786,282.196 209.5,281C 215.663,280.028 221.663,278.862 227.5,277.5 Z"/></g>
<g><path style="opacity:1" fill="#8d9eeb" d="M 334.5,277.5 C 342.84,277.334 351.173,277.5 359.5,278C 372.292,280.747 371.626,282.747 357.5,284C 349.833,284.667 342.167,284.667 334.5,284C 331.363,283.399 328.363,282.399 325.5,281C 328.571,279.704 331.571,278.538 334.5,277.5 Z"/></g>
<g><path style="opacity:1" fill="#265299" d="M 188.5,301.5 C 188.16,304.675 186.493,306.841 183.5,308C 168.833,308.667 154.167,308.667 139.5,308C 135.175,305.882 133.175,302.382 133.5,297.5C 154.806,299.788 172.973,293.455 188,278.5C 188.5,286.159 188.666,293.826 188.5,301.5 Z"/></g>
<g><path style="opacity:1" fill="#8c9dea" d="M 231.5,296.5 C 253.937,295.945 276.27,297.112 298.5,300C 291.943,301.651 285.276,302.651 278.5,303C 261.5,303.667 244.5,303.667 227.5,303C 221.983,302.916 216.649,301.916 211.5,300C 218.275,298.862 224.942,297.696 231.5,296.5 Z"/></g>
<g><path style="opacity:0.995" fill="#faac3d" d="M 120.5,347.5 C 146.626,364.426 157.626,388.426 153.5,419.5C 146.894,445.939 130.561,463.105 104.5,471C 96.8948,472.311 89.2282,472.811 81.5,472.5C 47.976,466.791 28.1426,447.125 22,413.5C 20.5516,378.547 36.0516,354.714 68.5,342C 67.552,341.517 66.552,341.351 65.5,341.5C 84.3741,337.401 102.707,339.401 120.5,347.5 Z"/></g>
<g><path style="opacity:0.955" fill="#f99910" d="M 65.5,341.5 C 66.552,341.351 67.552,341.517 68.5,342C 36.0516,354.714 20.5516,378.547 22,413.5C 28.1426,447.125 47.976,466.791 81.5,472.5C 44.6639,471.167 22.1639,452.501 14,416.5C 10.8286,393.174 17.6619,373.508 34.5,357.5C 41.0303,351.649 48.3636,346.982 56.5,343.5C 57.4916,343.672 58.1583,343.338 58.5,342.5C 60.8056,342.007 63.139,341.674 65.5,341.5 Z"/></g>
<g><path style="opacity:1" fill="#912010" d="M 441.5,341.5 C 449.242,342.241 456.908,342.241 464.5,341.5C 465.959,341.433 467.292,341.766 468.5,342.5C 478.79,344.47 484.123,350.803 484.5,361.5C 476.291,374.233 466.291,385.733 454.5,396C 442.833,405.667 431.167,415.333 419.5,425C 414.657,427.835 409.657,428.168 404.5,426C 383.517,410.694 364.017,393.527 346,374.5C 342.91,370.261 340.077,365.928 337.5,361.5C 337.198,356.07 338.864,351.403 342.5,347.5C 345.431,345.203 348.764,343.703 352.5,343C 382.137,340.484 411.804,339.984 441.5,341.5 Z"/></g>
<g><path style="opacity:0.956" fill="#7f1b11" d="M 468.5,342.5 C 475.526,341.805 482.193,342.972 488.5,346C 491.106,347.938 492.939,350.438 494,353.5C 498.653,388.175 498.653,422.841 494,457.5C 492.5,463 489,466.5 483.5,468C 467.569,470.079 451.569,471.246 435.5,471.5C 448.05,470.196 460.717,468.696 473.5,467C 477.275,465.558 480.108,463.058 482,459.5C 484.787,447.009 486.12,434.342 486,421.5C 486.857,401.459 486.357,381.459 484.5,361.5C 484.123,350.803 478.79,344.47 468.5,342.5 Z"/></g>
<g><path style="opacity:0.998" fill="#525150" d="M 120.5,347.5 C 194.5,347.5 268.5,347.5 342.5,347.5C 338.864,351.403 337.198,356.07 337.5,361.5C 336.924,380.99 336.257,400.324 335.5,419.5C 322.5,419.5 309.5,419.5 296.5,419.5C 266.167,418.167 235.833,418.167 205.5,419.5C 188.167,419.5 170.833,419.5 153.5,419.5C 157.626,388.426 146.626,364.426 120.5,347.5 Z"/></g>
<g><path style="opacity:1" fill="#f99911" d="M 133.5,436.5 C 120.405,443.52 106.405,446.853 91.5,446.5C 91.6816,444.409 91.3482,442.409 90.5,440.5C 103.279,436.888 108.445,428.554 106,415.5C 103.631,408.464 98.7979,404.297 91.5,403C 77.1105,401.956 72.6105,394.789 78,381.5C 83.8227,375.876 90.3227,375.043 97.5,379C 100.106,380.938 101.939,383.438 103,386.5C 101.978,379.465 97.978,374.798 91,372.5C 92.2841,368.271 91.2841,364.604 88,361.5C 84.6869,364.236 83.8535,367.57 85.5,371.5C 71.4002,376.033 66.5669,385.366 71,399.5C 76.755,407.321 84.5883,411.155 94.5,411C 101.037,416.475 102.204,422.975 98,430.5C 85.928,439.138 77.2614,436.471 72,422.5C 71.6121,425.685 72.2787,428.685 74,431.5C 77.0923,435.423 80.9256,438.423 85.5,440.5C 84.7542,441.736 84.4208,443.07 84.5,444.5C 64.8065,440.397 50.3065,429.397 41,411.5C 38.388,405.384 36.5547,399.051 35.5,392.5C 40.9214,371.912 53.9214,358.745 74.5,353C 107.554,348.102 129.721,361.269 141,392.5C 144.007,408.123 141.507,422.789 133.5,436.5 Z"/></g>
<g><path style="opacity:1" fill="#fffaf3" d="M 91.5,446.5 C 88.2309,451.696 85.8976,451.029 84.5,444.5C 84.4208,443.07 84.7542,441.736 85.5,440.5C 80.9256,438.423 77.0923,435.423 74,431.5C 72.2787,428.685 71.6121,425.685 72,422.5C 77.2614,436.471 85.928,439.138 98,430.5C 102.204,422.975 101.037,416.475 94.5,411C 84.5883,411.155 76.755,407.321 71,399.5C 66.5669,385.366 71.4002,376.033 85.5,371.5C 83.8535,367.57 84.6869,364.236 88,361.5C 91.2841,364.604 92.2841,368.271 91,372.5C 97.978,374.798 101.978,379.465 103,386.5C 101.939,383.438 100.106,380.938 97.5,379C 90.3227,375.043 83.8227,375.876 78,381.5C 72.6105,394.789 77.1105,401.956 91.5,403C 98.7979,404.297 103.631,408.464 106,415.5C 108.445,428.554 103.279,436.888 90.5,440.5C 91.3482,442.409 91.6816,444.409 91.5,446.5 Z"/></g>
<g><path style="opacity:0.997" fill="#b42f15" d="M 337.5,361.5 C 340.077,365.928 342.91,370.261 346,374.5C 364.017,393.527 383.517,410.694 404.5,426C 409.657,428.168 414.657,427.835 419.5,425C 431.167,415.333 442.833,405.667 454.5,396C 466.291,385.733 476.291,374.233 484.5,361.5C 486.357,381.459 486.857,401.459 486,421.5C 486.12,434.342 484.787,447.009 482,459.5C 480.108,463.058 477.275,465.558 473.5,467C 460.717,468.696 448.05,470.196 435.5,471.5C 406.419,472.172 377.419,471.005 348.5,468C 343.243,465.744 339.743,461.91 338,456.5C 336.678,444.199 335.845,431.866 335.5,419.5C 336.257,400.324 336.924,380.99 337.5,361.5 Z"/></g>
<g><path style="opacity:1" fill="#3a3a3a" d="M 232.5,379.5 C 250.64,378.795 268.64,379.962 286.5,383C 289.95,384.03 293.283,385.363 296.5,387C 280.716,392.67 264.383,395.17 247.5,394.5C 233.419,394.193 219.752,391.693 206.5,387C 209.64,385.284 212.973,383.951 216.5,383C 221.979,381.881 227.312,380.714 232.5,379.5 Z"/></g>
<g><path style="opacity:1" fill="#e0860e" d="M 35.5,392.5 C 36.5547,399.051 38.388,405.384 41,411.5C 50.3065,429.397 64.8065,440.397 84.5,444.5C 85.8976,451.029 88.2309,451.696 91.5,446.5C 106.405,446.853 120.405,443.52 133.5,436.5C 115.63,459.139 92.9633,465.639 65.5,456C 39.6802,442.198 29.6802,421.031 35.5,392.5 Z"/></g>
<g><path style="opacity:1" fill="#fefcf8" d="M 47.5,399.5 C 53.6508,397.844 57.3174,400.01 58.5,406C 57.306,412.149 53.6393,414.149 47.5,412C 43.5654,407.837 43.5654,403.67 47.5,399.5 Z"/></g>
<g><path style="opacity:1" fill="#fffbf7" d="M 120.5,399.5 C 126.471,398.141 130.137,400.308 131.5,406C 130.306,412.149 126.639,414.149 120.5,412C 116.547,407.835 116.547,403.669 120.5,399.5 Z"/></g>
<g><path style="opacity:0.992" fill="#3a3a3a" d="M 296.5,419.5 C 301.435,435.973 306.769,452.306 312.5,468.5C 271.5,464.622 230.5,464.622 189.5,468.5C 194.435,452.027 199.769,435.694 205.5,419.5C 235.833,418.167 266.167,418.167 296.5,419.5 Z"/></g>
<g><path style="opacity:0.979" fill="#504f4e" d="M 312.5,468.5 C 324.039,469.301 335.039,472.135 345.5,477C 347.787,479.048 347.954,481.215 346,483.5C 338.648,487.395 330.815,489.895 322.5,491C 272.777,498.473 223.11,498.14 173.5,490C 166.629,489.048 160.462,486.548 155,482.5C 154.257,480.559 154.424,478.726 155.5,477C 166.27,471.974 177.603,469.141 189.5,468.5C 230.5,464.622 271.5,464.622 312.5,468.5 Z"/></g>
</svg>
