<?xml version="1.0" encoding="UTF-8"?>
<!DOCTYPE svg PUBLIC "-//W3C//DTD SVG 1.1//EN" "http://www.w3.org/Graphics/SVG/1.1/DTD/svg11.dtd">
<svg xmlns="http://www.w3.org/2000/svg" version="1.1" width="512px" height="512px" style="shape-rendering:geometricPrecision; text-rendering:geometricPrecision; image-rendering:optimizeQuality; fill-rule:evenodd; clip-rule:evenodd" xmlns:xlink="http://www.w3.org/1999/xlink">
<g><path style="opacity:0.995" fill="#1665c0" d="M 103.5,-0.5 C 170.5,-0.5 237.5,-0.5 304.5,-0.5C 363.102,48.2592 421.602,97.2592 480,146.5C 481.474,259.496 481.807,372.496 481,485.5C 477.554,498.801 469.387,507.468 456.5,511.5C 338.833,511.5 221.167,511.5 103.5,511.5C 92.257,507.937 84.4236,500.604 80,489.5C 78.5398,465.552 78.0398,441.552 78.5,417.5C 65.8289,417.667 53.1623,417.5 40.5,417C 35.4268,415.594 31.9268,412.428 30,407.5C 29.3333,359.5 29.3333,311.5 30,263.5C 31.0681,258.765 33.9014,255.598 38.5,254C 51.8292,253.5 65.1625,253.333 78.5,253.5C 78.3333,177.499 78.5,101.499 79,25.5C 82.2682,12.0689 90.4349,3.40222 103.5,-0.5 Z"/></g>
<g><path style="opacity:1" fill="#fefefe" d="M 113.5,9.5 C 176.5,9.5 239.5,9.5 302.5,9.5C 302.333,54.8346 302.5,100.168 303,145.5C 303.5,146 304,146.5 304.5,147C 358.5,147.333 412.5,147.667 466.5,148C 467.667,149.167 468.833,150.333 470,151.5C 471.593,258.826 471.926,366.16 471,473.5C 468.384,489.243 459.217,498.41 443.5,501C 333.5,501.667 223.5,501.667 113.5,501C 101.432,497.933 93.599,490.433 90,478.5C 88.5591,457.879 88.0591,437.212 88.5,416.5C 174.501,416.667 260.501,416.5 346.5,416C 351.307,414.526 354.474,411.36 356,406.5C 356.667,358.833 356.667,311.167 356,263.5C 354.073,258.572 350.573,255.406 345.5,254C 259.834,253.5 174.167,253.333 88.5,253.5C 88.3333,180.499 88.5,107.499 89,34.5C 92.7094,21.6253 100.876,13.2919 113.5,9.5 Z"/></g>
<g><path style="opacity:1" fill="#fdfefe" d="M 245.5,327.5 C 244.503,349.66 244.169,371.994 244.5,394.5C 237.833,394.5 231.167,394.5 224.5,394.5C 224.831,371.994 224.497,349.66 223.5,327.5C 220.5,327.5 217.5,327.5 214.5,327.5C 214.5,321.5 214.5,315.5 214.5,309.5C 217.5,309.5 220.5,309.5 223.5,309.5C 222.5,285.833 233.833,274.5 257.5,275.5C 257.5,281.5 257.5,287.5 257.5,293.5C 247.283,293.877 243.283,299.21 245.5,309.5C 249.833,309.5 254.167,309.5 258.5,309.5C 258.5,315.5 258.5,321.5 258.5,327.5C 254.167,327.5 249.833,327.5 245.5,327.5 Z"/></g>
<g><path style="opacity:1" fill="#fcfdfe" d="M 149.5,352.5 C 148.504,366.323 148.171,380.323 148.5,394.5C 141.5,394.5 134.5,394.5 127.5,394.5C 127.5,358.833 127.5,323.167 127.5,287.5C 143.837,287.333 160.17,287.5 176.5,288C 197.99,292.493 207.49,305.66 205,327.5C 199.937,343.22 189.104,351.386 172.5,352C 164.841,352.5 157.174,352.666 149.5,352.5 Z"/></g>
<g><path style="opacity:1" fill="#1865c0" d="M 149.5,304.5 C 158.582,304.086 167.582,304.586 176.5,306C 181.592,309.017 183.926,313.517 183.5,319.5C 183.828,326.012 181.162,330.845 175.5,334C 166.916,335.41 158.25,335.91 149.5,335.5C 149.5,325.167 149.5,314.833 149.5,304.5 Z"/></g>
<g><path style="opacity:1" fill="#cfdff1" d="M 223.5,327.5 C 224.497,349.66 224.831,371.994 224.5,394.5C 231.167,394.5 237.833,394.5 244.5,394.5C 244.169,371.994 244.503,349.66 245.5,327.5C 245.5,350.167 245.5,372.833 245.5,395.5C 238.167,395.5 230.833,395.5 223.5,395.5C 223.5,372.833 223.5,350.167 223.5,327.5 Z"/></g>
<g><path style="opacity:1" fill="#a4c3e6" d="M 149.5,352.5 C 149.5,366.833 149.5,381.167 149.5,395.5C 141.981,395.825 134.648,395.492 127.5,394.5C 134.5,394.5 141.5,394.5 148.5,394.5C 148.171,380.323 148.504,366.323 149.5,352.5 Z"/></g>
</svg>
