<?xml version="1.0" encoding="UTF-8"?>
<!DOCTYPE svg PUBLIC "-//W3C//DTD SVG 1.1//EN" "http://www.w3.org/Graphics/SVG/1.1/DTD/svg11.dtd">
<svg xmlns="http://www.w3.org/2000/svg" version="1.1" width="512px" height="512px" style="shape-rendering:geometricPrecision; text-rendering:geometricPrecision; image-rendering:optimizeQuality; fill-rule:evenodd; clip-rule:evenodd" xmlns:xlink="http://www.w3.org/1999/xlink">
<g><path style="opacity:0.968" fill="#3e3e3e" d="M 103.5,0.5 C 204.834,0.333335 306.167,0.500002 407.5,1C 422.908,3.7418 431.408,12.9085 433,28.5C 433.667,179.833 433.667,331.167 433,482.5C 431.408,498.092 422.908,507.258 407.5,510C 306.167,510.667 204.833,510.667 103.5,510C 88.0921,507.258 79.5921,498.092 78,482.5C 77.3333,331.167 77.3333,179.833 78,28.5C 79.7769,12.8954 88.2769,3.56205 103.5,0.5 Z M 104.5,17.5 C 205.167,17.3333 305.834,17.5 406.5,18C 410.186,19.0886 413.019,21.2553 415,24.5C 416.662,177.444 416.995,330.444 416,483.5C 414.911,487.186 412.745,490.019 409.5,492C 307.89,493.66 206.223,493.993 104.5,493C 100.814,491.911 97.9806,489.745 96,486.5C 94.3378,333.556 94.0045,180.556 95,27.5C 96.3499,22.3193 99.5166,18.9859 104.5,17.5 Z M 155.5,70.5 C 160.511,70.3341 165.511,70.5007 170.5,71C 175.436,74.9576 175.769,79.2909 171.5,84C 166.264,85.339 160.93,85.839 155.5,85.5C 155.5,80.5 155.5,75.5 155.5,70.5 Z M 269.5,70.5 C 274.223,69.5531 278.056,70.8864 281,74.5C 282.397,79.7081 282.897,85.0414 282.5,90.5C 276.167,90.5 269.833,90.5 263.5,90.5C 262.962,84.5982 263.795,78.9315 266,73.5C 267.145,72.3636 268.312,71.3636 269.5,70.5 Z"/></g>
<g><path style="opacity:0.971" fill="#3e3e3e" d="M 143.5,53.5 C 154.578,53.0688 165.578,53.5688 176.5,55C 189.328,61.7908 193.828,72.2908 190,86.5C 187.076,93.7583 181.909,98.5916 174.5,101C 168.175,101.5 161.842,101.666 155.5,101.5C 155.949,111.605 155.449,121.605 154,131.5C 148.72,134.674 144.053,134.008 140,129.5C 139.333,105.5 139.333,81.5 140,57.5C 141.376,56.2949 142.542,54.9616 143.5,53.5 Z M 155.5,70.5 C 155.5,75.5 155.5,80.5 155.5,85.5C 160.93,85.839 166.264,85.339 171.5,84C 175.769,79.2909 175.436,74.9576 170.5,71C 165.511,70.5007 160.511,70.3341 155.5,70.5 Z"/></g>
<g><path style="opacity:0.976" fill="#3d3d3d" d="M 200.5,53.5 C 206.947,52.4511 210.78,55.1178 212,61.5C 212.5,80.1637 212.667,98.8304 212.5,117.5C 221.173,117.334 229.84,117.5 238.5,118C 244.747,122.514 245.08,127.514 239.5,133C 226.167,133.667 212.833,133.667 199.5,133C 198.333,131.833 197.167,130.667 196,129.5C 195.333,105.833 195.333,82.1667 196,58.5C 197.025,56.313 198.525,54.6464 200.5,53.5 Z"/></g>
<g><path style="opacity:0.96" fill="#3e3e3e" d="M 267.5,53.5 C 281.896,51.7558 292.063,57.4225 298,70.5C 299.616,89.7814 299.95,109.115 299,128.5C 296.565,133.224 292.731,134.724 287.5,133C 286.069,132.535 284.903,131.701 284,130.5C 282.599,122.585 282.099,114.585 282.5,106.5C 276.167,106.5 269.833,106.5 263.5,106.5C 263.938,114.943 263.438,123.277 262,131.5C 258.744,133.429 255.244,133.929 251.5,133C 249.667,132.5 248.5,131.333 248,129.5C 247.333,110.5 247.333,91.5 248,72.5C 251.121,62.5437 257.621,56.2104 267.5,53.5 Z M 269.5,70.5 C 268.312,71.3636 267.145,72.3636 266,73.5C 263.795,78.9315 262.962,84.5982 263.5,90.5C 269.833,90.5 276.167,90.5 282.5,90.5C 282.897,85.0414 282.397,79.7081 281,74.5C 278.056,70.8864 274.223,69.5531 269.5,70.5 Z"/></g>
<g><path style="opacity:0.971" fill="#3e3e3e" d="M 315.5,53.5 C 319.516,52.8999 323.016,53.8999 326,56.5C 335.667,70.5 345.333,84.5 355,98.5C 355.333,84.8333 355.667,71.1667 356,57.5C 361,52.1667 366,52.1667 371,57.5C 371.667,81.5 371.667,105.5 371,129.5C 366.947,134.008 362.28,134.674 357,131.5C 347.333,117.5 337.667,103.5 328,89.5C 327.667,102.5 327.333,115.5 327,128.5C 324.565,133.224 320.731,134.724 315.5,133C 314.069,132.535 312.903,131.701 312,130.5C 310.364,106.897 310.03,83.2299 311,59.5C 311.804,56.8541 313.304,54.8541 315.5,53.5 Z"/></g>
<g><path style="opacity:0.991" fill="#7bc357" d="M 218.5,184.5 C 272.167,184.5 325.833,184.5 379.5,184.5C 379.5,200.833 379.5,217.167 379.5,233.5C 325.832,233.667 272.166,233.5 218.5,233C 209.081,225.291 200.081,217.125 191.5,208.5C 200.52,200.478 209.52,192.478 218.5,184.5 Z"/></g>
<g><path style="opacity:0.94" fill="#3e3e3e" d="M 163.5,187.5 C 173.62,188.408 176.453,193.408 172,202.5C 163.5,211 155,219.5 146.5,228C 142.5,230 138.5,230 134.5,228C 130.631,224.466 127.131,220.633 124,216.5C 122.227,209.697 124.727,205.697 131.5,204.5C 135.247,205.497 138.58,206.997 141.5,209C 148.729,201.603 156.062,194.437 163.5,187.5 Z"/></g>
<g><path style="opacity:1" fill="#3f3f3f" d="M 225.5,201.5 C 252.835,201.333 280.169,201.5 307.5,202C 310.683,203.018 312.016,205.185 311.5,208.5C 311.849,211.971 310.516,214.471 307.5,216C 280.5,216.667 253.5,216.667 226.5,216C 223.484,214.471 222.151,211.971 222.5,208.5C 222.667,207.167 222.833,205.833 223,204.5C 224.045,203.627 224.878,202.627 225.5,201.5 Z"/></g>
<g><path style="opacity:0.987" fill="#7bc457" d="M 219.5,272.5 C 272.833,272.5 326.167,272.5 379.5,272.5C 379.5,289.167 379.5,305.833 379.5,322.5C 326.166,322.667 272.832,322.5 219.5,322C 209.993,313.991 200.66,305.824 191.5,297.5C 200.853,289.144 210.187,280.811 219.5,272.5 Z"/></g>
<g><path style="opacity:0.954" fill="#3d3d3d" d="M 163.5,276.5 C 173.598,277.361 176.431,282.361 172,291.5C 163.137,300.697 153.97,309.531 144.5,318C 141.833,318.667 139.167,318.667 136.5,318C 132.667,314.167 128.833,310.333 125,306.5C 121.852,299.126 124.186,294.792 132,293.5C 135.581,294.061 138.747,295.228 141.5,297C 148.428,289.566 155.761,282.733 163.5,276.5 Z"/></g>
<g><path style="opacity:1" fill="#40413f" d="M 227.5,289.5 C 253.835,289.333 280.169,289.5 306.5,290C 311.224,292.435 312.724,296.269 311,301.5C 309.786,303.049 308.286,304.215 306.5,305C 279.833,305.667 253.167,305.667 226.5,305C 219.695,299.382 220.029,294.215 227.5,289.5 Z"/></g>
<g><path style="opacity:0.998" fill="#7bc457" d="M 219.5,361.5 C 272.833,361.5 326.167,361.5 379.5,361.5C 379.5,378.167 379.5,394.833 379.5,411.5C 326.166,411.667 272.832,411.5 219.5,411C 209.993,402.991 200.66,394.824 191.5,386.5C 200.853,378.144 210.187,369.811 219.5,361.5 Z"/></g>
<g><path style="opacity:0.946" fill="#3f3f3f" d="M 162.5,365.5 C 172.543,364.701 176.043,369.034 173,378.5C 163.833,387.667 154.667,396.833 145.5,406C 142.167,408 138.833,408 135.5,406C 132,402.5 128.5,399 125,395.5C 121.902,388.361 124.069,384.027 131.5,382.5C 135.286,382.917 138.619,384.083 141.5,386C 148.395,378.937 155.395,372.103 162.5,365.5 Z"/></g>
<g><path style="opacity:1" fill="#40413f" d="M 226.5,378.5 C 253.169,378.333 279.835,378.5 306.5,379C 311.224,381.435 312.724,385.269 311,390.5C 309.786,392.049 308.286,393.215 306.5,394C 279.833,394.667 253.167,394.667 226.5,394C 219.914,388.84 219.914,383.673 226.5,378.5 Z"/></g>
</svg>
