<?xml version="1.0" encoding="UTF-8"?>
<!DOCTYPE svg PUBLIC "-//W3C//DTD SVG 1.1//EN" "http://www.w3.org/Graphics/SVG/1.1/DTD/svg11.dtd">
<svg xmlns="http://www.w3.org/2000/svg" version="1.1" width="512px" height="512px" style="shape-rendering:geometricPrecision; text-rendering:geometricPrecision; image-rendering:optimizeQuality; fill-rule:evenodd; clip-rule:evenodd" xmlns:xlink="http://www.w3.org/1999/xlink">
<g><path style="opacity:0.915" fill="#384850" d="M 364.5,-0.5 C 368.5,-0.5 372.5,-0.5 376.5,-0.5C 386.149,4.38693 389.316,12.0536 386,22.5C 379.667,37.5 373.333,52.5 367,67.5C 358.661,77.7677 349.328,78.7677 339,70.5C 336.123,66.2111 335.123,61.5445 336,56.5C 342.606,39.3499 349.606,22.3499 357,5.5C 359.114,2.87922 361.614,0.879222 364.5,-0.5 Z"/></g>
<g><path style="opacity:1" fill="#e8ebed" d="M 367.5,7.5 C 376.207,7.03655 379.707,11.0365 378,19.5C 371.805,33.7521 365.805,48.0854 360,62.5C 355.313,68.6971 350.313,69.0304 345,63.5C 344.333,60.8333 344.333,58.1667 345,55.5C 350.667,41.8333 356.333,28.1667 362,14.5C 362.967,11.3794 364.8,9.04602 367.5,7.5 Z"/></g>
<g><path style="opacity:0.965" fill="#3a474e" d="M 74.5,25.5 C 136.501,25.3333 198.501,25.5 260.5,26C 280.873,29.0377 293.706,40.5377 299,60.5C 299.5,110.166 299.667,159.832 299.5,209.5C 345.501,209.333 391.501,209.5 437.5,210C 457.323,213.488 469.823,224.988 475,244.5C 475.667,296.167 475.667,347.833 475,399.5C 470.6,416.9 459.767,428.067 442.5,433C 429.955,433.994 417.455,434.827 405,435.5C 403.699,450.074 403.033,464.74 403,479.5C 398.513,486.549 392.346,488.383 384.5,485C 371.167,471.667 357.833,458.333 344.5,445C 338.894,440.363 332.561,437.029 325.5,435C 298.472,434.927 271.472,434.26 244.5,433C 227.224,428.058 216.391,416.891 212,399.5C 211.5,349.834 211.333,300.168 211.5,250.5C 203.16,250.334 194.827,250.5 186.5,251C 181.172,252.163 176.172,254.163 171.5,257C 157.5,271 143.5,285 129.5,299C 121.247,305.085 114.081,303.919 108,295.5C 107.667,281.5 107.333,267.5 107,253.5C 106.626,252.584 106.126,251.75 105.5,251C 95.5,250.667 85.5,250.333 75.5,250C 54.5975,247.435 41.4308,235.935 36,215.5C 35.3333,163.833 35.3333,112.167 36,60.5C 41.5335,40.6722 54.3669,29.0055 74.5,25.5 Z"/></g>
<g><path style="opacity:1" fill="#fdc928" d="M 77.5,33.5 C 137.834,33.3333 198.168,33.5 258.5,34C 275.546,36.3776 286.379,45.8776 291,62.5C 291.667,102.167 291.667,141.833 291,181.5C 287.167,196 278,205.167 263.5,209C 238.167,209.333 212.833,209.667 187.5,210C 177.345,211.91 168.345,216.244 160.5,223C 147.5,236 134.5,249 121.5,262C 119.299,262.825 117.466,262.325 116,260.5C 115.667,246.833 115.333,233.167 115,219.5C 113.715,213.882 110.215,210.715 104.5,210C 93.1667,209.667 81.8333,209.333 70.5,209C 57.3333,205.167 48.8333,196.667 45,183.5C 43.8758,162.864 43.3758,142.198 43.5,121.5C 43.3758,100.802 43.8758,80.1355 45,59.5C 50.9791,44.6804 61.8124,36.0137 77.5,33.5 Z"/></g>
<g><path style="opacity:1" fill="#ffdf80" d="M 72.5,42.5 C 86.5159,42.1674 100.516,42.5008 114.5,43.5C 115.833,45.1667 115.833,46.8333 114.5,48.5C 101.513,49.3327 88.5128,49.8327 75.5,50C 68.0657,52.4351 62.899,57.2684 60,64.5C 59.6667,77.5 59.3333,90.5 59,103.5C 56.7309,106.054 54.3975,106.054 52,103.5C 51.3333,90.1667 51.3333,76.8333 52,63.5C 55.3857,52.9494 62.2191,45.9494 72.5,42.5 Z"/></g>
<g><path style="opacity:0.909" fill="#37474f" d="M 439.5,47.5 C 451.501,46.6754 458.167,52.1754 459.5,64C 459.344,67.8172 458.178,71.3172 456,74.5C 443.138,87.6962 429.971,100.53 416.5,113C 398,116.5 390.5,109 394,90.5C 406.47,77.0289 419.304,63.8622 432.5,51C 434.925,49.7874 437.259,48.6207 439.5,47.5 Z"/></g>
<g><path style="opacity:1" fill="#e5e9eb" d="M 439.5,56.5 C 450.057,56.5486 452.891,61.2153 448,70.5C 436.105,83.0645 423.605,94.8979 410.5,106C 404.896,106.414 401.563,103.747 400.5,98C 400.858,95.9676 401.692,94.1343 403,92.5C 415.062,80.2708 427.228,68.2708 439.5,56.5 Z"/></g>
<g><path style="opacity:1" fill="#3b4a50" d="M 154.5,59.5 C 184.839,55.9234 208.005,66.9234 224,92.5C 234.163,113.242 233.996,133.908 223.5,154.5C 225.439,157.615 227.606,160.615 230,163.5C 233.724,180.447 226.891,187.947 209.5,186C 205.711,183.873 202.211,181.373 199,178.5C 163.228,194.477 134.228,186.477 112,154.5C 96.7448,122.776 102.245,95.2758 128.5,72C 136.598,66.4497 145.264,62.283 154.5,59.5 Z"/></g>
<g><path style="opacity:1" fill="#e8ecee" d="M 160.5,66.5 C 189.481,66.0045 209.648,79.0045 221,105.5C 224.333,116.838 224.333,128.172 221,139.5C 219.08,144.997 216.913,150.331 214.5,155.5C 214.667,156.5 214.833,157.5 215,158.5C 218.038,161.203 220.705,164.203 223,167.5C 224.622,176.79 220.789,180.29 211.5,178C 208.203,175.705 205.203,173.038 202.5,170C 201.667,169.833 200.833,169.667 200,169.5C 167.393,186.316 140.393,179.983 119,150.5C 105.913,123.935 110.08,100.435 131.5,80C 140.24,73.2941 149.906,68.7941 160.5,66.5 Z"/></g>
<g><path style="opacity:1" fill="#3c4a51" d="M 158.5,82.5 C 182.023,79.8349 197.857,89.5016 206,111.5C 208.595,121.309 207.429,130.642 202.5,139.5C 200.579,140.641 198.579,140.808 196.5,140C 193.465,136.63 190.132,133.63 186.5,131C 178.839,130.33 175.673,133.83 177,141.5C 179.63,145.132 182.63,148.465 186,151.5C 186.743,153.441 186.576,155.274 185.5,157C 165.791,165.989 148.958,162.156 135,145.5C 122.655,124.576 125.489,106.076 143.5,90C 148.313,86.9267 153.313,84.4267 158.5,82.5 Z"/></g>
<g><path style="opacity:1" fill="#fcc828" d="M 159.5,90.5 C 179.072,88.1938 192.238,96.1938 199,114.5C 199.984,119.7 199.484,124.7 197.5,129.5C 187.911,119.848 178.744,120.181 170,130.5C 166.707,139.135 168.54,146.468 175.5,152.5C 150.989,155.494 137.656,144.66 135.5,120C 137.511,105.167 145.511,95.334 159.5,90.5 Z"/></g>
<g><path style="opacity:0.914" fill="#384850" d="M 488.5,119.5 C 503.342,120.176 509.508,127.843 507,142.5C 505.533,145.266 503.7,147.766 501.5,150C 484.915,157.195 468.248,164.195 451.5,171C 435.396,171.893 428.896,164.393 432,148.5C 433.061,145.438 434.894,142.938 437.5,141C 454.571,133.708 471.571,126.541 488.5,119.5 Z"/></g>
<g><path style="opacity:1" fill="#e8ebed" d="M 487.5,128.5 C 496.211,127.38 500.044,131.047 499,139.5C 497.833,141.333 496.333,142.833 494.5,144C 479.167,150.333 463.833,156.667 448.5,163C 444.81,163.348 441.977,161.848 440,158.5C 438.431,153.375 439.931,149.541 444.5,147C 458.975,140.906 473.309,134.739 487.5,128.5 Z"/></g>
<g><path style="opacity:1" fill="#fb9e02" d="M 43.5,199.5 C 50.0958,208.238 58.7625,214.071 69.5,217C 81.5,217.333 93.5,217.667 105.5,218C 106,218.5 106.5,219 107,219.5C 107.5,227.159 107.666,234.826 107.5,242.5C 95.1988,241.726 82.8655,241.226 70.5,241C 50.9387,234.235 41.9387,220.402 43.5,199.5 Z"/></g>
<g><path style="opacity:1" fill="#f49b06" d="M 291.5,209.5 C 288.287,209.81 285.287,209.477 282.5,208.5C 285.832,206 288.666,203 291,199.5C 291.498,202.817 291.665,206.15 291.5,209.5 Z"/></g>
<g><path style="opacity:1" fill="#836831" d="M 282.5,208.5 C 285.287,209.477 288.287,209.81 291.5,209.5C 288.024,210.643 284.358,210.81 280.5,210C 281.044,209.283 281.711,208.783 282.5,208.5 Z"/></g>
<g><path style="opacity:1" fill="#a27725" d="M 187.5,218.5 C 201.339,217.174 215.339,217.174 229.5,218.5C 229.376,219.107 229.043,219.44 228.5,219.5C 215.01,218.504 201.344,218.171 187.5,218.5 Z"/></g>
<g><path style="opacity:1" fill="#fd9f01" d="M 187.5,218.5 C 201.344,218.171 215.01,218.504 228.5,219.5C 221.303,224.882 216.303,231.882 213.5,240.5C 203.136,241.129 192.803,241.962 182.5,243C 176.933,244.783 171.599,247.117 166.5,250C 151.195,264.304 136.195,278.971 121.5,294C 119.299,294.825 117.466,294.325 116,292.5C 115.169,284.812 115.335,277.145 116.5,269.5C 120.848,270.582 124.848,269.748 128.5,267C 142.5,253 156.5,239 170.5,225C 175.531,221.151 181.197,218.984 187.5,218.5 Z"/></g>
<g><path style="opacity:1" fill="#ed5350" d="M 252.5,217.5 C 312.501,217.333 372.501,217.5 432.5,218C 452.457,219.959 463.957,230.792 467,250.5C 467.667,287.167 467.667,323.833 467,360.5C 464.97,377.404 455.803,388.237 439.5,393C 427.833,393.333 416.167,393.667 404.5,394C 401.438,395.061 398.938,396.894 397,399.5C 395.698,414.407 395.032,429.407 395,444.5C 393.534,446.325 391.701,446.825 389.5,446C 376.167,432.667 362.833,419.333 349.5,406C 341.257,398.693 331.591,394.693 320.5,394C 296.167,393.667 271.833,393.333 247.5,393C 230.742,388.577 221.576,377.743 220,360.5C 219.333,322.5 219.333,284.5 220,246.5C 224.797,229.861 235.63,220.194 252.5,217.5 Z"/></g>
<g><path style="opacity:1" fill="#ef9797" d="M 250.5,225.5 C 263.171,225.333 275.838,225.5 288.5,226C 292.037,227.826 292.371,230.16 289.5,233C 276.833,233.333 264.167,233.667 251.5,234C 243.848,236.232 238.681,241.065 236,248.5C 235.667,261.5 235.333,274.5 235,287.5C 232.667,290.167 230.333,290.167 228,287.5C 227.333,274.167 227.333,260.833 228,247.5C 231.447,235.885 238.947,228.552 250.5,225.5 Z"/></g>
<g><path style="opacity:1" fill="#3d4a52" d="M 339.5,242.5 C 346.651,242.166 352.485,244.833 357,250.5C 373.667,283.833 390.333,317.167 407,350.5C 407.849,361.988 402.515,368.321 391,369.5C 385.555,369.277 381.221,366.943 378,362.5C 375.294,356.922 372.461,351.422 369.5,346C 352.157,345.167 334.824,345.334 317.5,346.5C 314.297,354.415 309.964,361.582 304.5,368C 293.319,372.832 285.152,369.665 280,358.5C 279.333,355.833 279.333,353.167 280,350.5C 297,316.5 314,282.5 331,248.5C 333.637,246.109 336.47,244.109 339.5,242.5 Z"/></g>
<g><path style="opacity:1" fill="#e9ecef" d="M 341.5,250.5 C 345.025,250.346 347.859,251.679 350,254.5C 366.333,287.167 382.667,319.833 399,352.5C 399.592,358.248 396.925,361.248 391,361.5C 389.373,361.375 387.873,360.875 386.5,360C 382.419,352.502 378.085,345.169 373.5,338C 353.833,337.333 334.167,337.333 314.5,338C 313.584,338.374 312.75,338.874 312,339.5C 308.548,346.905 304.715,354.072 300.5,361C 292.531,363.692 288.364,360.859 288,352.5C 304.5,319.5 321,286.5 337.5,253.5C 338.901,252.479 340.235,251.479 341.5,250.5 Z"/></g>
<g><path style="opacity:1" fill="#3c4951" d="M 341.5,281.5 C 343.722,281.178 345.556,281.845 347,283.5C 352.922,294.343 358.589,305.343 364,316.5C 364.711,318.367 364.211,319.867 362.5,321C 349.591,321.822 336.758,321.655 324,320.5C 322.813,318.956 322.48,317.289 323,315.5C 328.925,303.98 335.092,292.646 341.5,281.5 Z"/></g>
<g><path style="opacity:1" fill="#e95250" d="M 342.5,294.5 C 343.376,294.369 344.043,294.702 344.5,295.5C 347.372,301.412 350.372,307.245 353.5,313C 346.833,313.667 340.167,313.667 333.5,313C 336.912,307.011 339.912,300.844 342.5,294.5 Z"/></g>
<g><path style="opacity:0.914" fill="#384850" d="M 59.5,339.5 C 75.5863,339.084 82.0863,346.751 79,362.5C 77.9392,365.562 76.1059,368.062 73.5,370C 56.6501,377.394 39.6501,384.394 22.5,391C 7.63148,390.79 1.46481,383.29 4,368.5C 5.46688,365.734 7.30022,363.234 9.5,361C 26.3086,353.906 42.9753,346.739 59.5,339.5 Z"/></g>
<g><path style="opacity:1" fill="#e8ebed" d="M 62.5,347.5 C 69.4969,348.481 72.3302,352.481 71,359.5C 70.0701,361.552 68.5701,363.052 66.5,364C 52.0854,369.805 37.7521,375.805 23.5,382C 14.8504,383.682 11.017,380.182 12,371.5C 13.1667,369.667 14.6667,368.167 16.5,367C 31.9748,360.572 47.3081,354.072 62.5,347.5 Z"/></g>
<g><path style="opacity:1" fill="#d12f2f" d="M 219.5,383.5 C 226.096,392.238 234.763,398.071 245.5,401C 270.5,401.333 295.5,401.667 320.5,402C 326.523,402.452 332.19,404.119 337.5,407C 352.471,420.971 367.138,435.304 381.5,450C 383.5,451.333 385.5,452.667 387.5,454C 389.899,454.711 392.232,454.544 394.5,453.5C 395.665,461.145 395.831,468.812 395,476.5C 393.534,478.325 391.701,478.825 389.5,478C 376.167,464.667 362.833,451.333 349.5,438C 341.257,430.693 331.591,426.693 320.5,426C 296.167,425.667 271.833,425.333 247.5,425C 227.625,418.449 218.292,404.615 219.5,383.5 Z"/></g>
<g><path style="opacity:1" fill="#d02f2f" d="M 466.5,383.5 C 468.739,404.499 459.739,418.332 439.5,425C 427.468,425.228 415.468,425.728 403.5,426.5C 403.334,418.826 403.5,411.159 404,403.5C 404.5,403 405,402.5 405.5,402C 417.167,401.667 428.833,401.333 440.5,401C 451.78,398.861 460.447,393.027 466.5,383.5 Z"/></g>
<g><path style="opacity:0.907" fill="#37474f" d="M 97.5,396.5 C 114.194,396.222 120.694,404.222 117,420.5C 104.53,433.971 91.6962,447.138 78.5,460C 66.6442,466.485 57.8109,463.652 52,451.5C 50.8263,446.06 51.8263,441.06 55,436.5C 67.1667,424.333 79.3333,412.167 91.5,400C 93.4319,398.541 95.4319,397.375 97.5,396.5 Z"/></g>
<g><path style="opacity:1" fill="#e5e9eb" d="M 99.5,404.5 C 109.296,405.106 112.129,409.772 108,418.5C 96.1376,430.696 83.971,442.53 71.5,454C 61.5877,455.08 58.421,450.913 62,441.5C 74.3951,428.937 86.8951,416.604 99.5,404.5 Z"/></g>
<g><path style="opacity:0.914" fill="#384850" d="M 146.5,511.5 C 142.5,511.5 138.5,511.5 134.5,511.5C 124.851,506.613 121.684,498.946 125,488.5C 131.333,473.5 137.667,458.5 144,443.5C 152.293,432.976 161.627,431.976 172,440.5C 175.033,445.106 176.033,450.106 175,455.5C 168.195,472.248 161.195,488.915 154,505.5C 151.886,508.121 149.386,510.121 146.5,511.5 Z"/></g>
<g><path style="opacity:1" fill="#e8ebed" d="M 155.5,443.5 C 164.493,442.66 167.993,446.66 166,455.5C 159.667,470.5 153.333,485.5 147,500.5C 141.471,505.044 136.804,504.377 133,498.5C 132.333,496.167 132.333,493.833 133,491.5C 138.667,477.833 144.333,464.167 150,450.5C 151.371,447.734 153.204,445.401 155.5,443.5 Z"/></g>
</svg>
