<?xml version="1.0" encoding="UTF-8"?>
<!DOCTYPE svg PUBLIC "-//W3C//DTD SVG 1.1//EN" "http://www.w3.org/Graphics/SVG/1.1/DTD/svg11.dtd">
<svg xmlns="http://www.w3.org/2000/svg" version="1.1" width="225px" height="225px" style="shape-rendering:geometricPrecision; text-rendering:geometricPrecision; image-rendering:optimizeQuality; fill-rule:evenodd; clip-rule:evenodd" xmlns:xlink="http://www.w3.org/1999/xlink">
<g><path style="opacity:1" fill="#fefdfe" d="M -0.5,-0.5 C 74.5,-0.5 149.5,-0.5 224.5,-0.5C 224.5,74.5 224.5,149.5 224.5,224.5C 149.5,224.5 74.5,224.5 -0.5,224.5C -0.5,149.5 -0.5,74.5 -0.5,-0.5 Z"/></g>
<g><path style="opacity:1" fill="#400870" d="M 159.5,109.5 C 158.833,109.5 158.167,109.5 157.5,109.5C 157.822,97.253 157.488,85.0864 156.5,73C 122.5,72.3333 88.5,72.3333 54.5,73C 53.1667,92.3333 53.1667,111.667 54.5,131C 80.8312,131.5 107.165,131.667 133.5,131.5C 134.338,131.842 134.672,132.508 134.5,133.5C 115.167,133.5 95.8333,133.5 76.5,133.5C 76.5,142.833 76.5,152.167 76.5,161.5C 98.5,162.167 120.5,162.833 142.5,163.5C 120.5,163.5 98.5,163.5 76.5,163.5C 76.3342,168.179 76.5008,172.845 77,177.5C 77.5,178 78,178.5 78.5,179C 100.167,179.667 121.833,179.667 143.5,179C 145.29,175.417 145.957,171.584 145.5,167.5C 146.479,170.625 146.813,173.958 146.5,177.5C 146.426,179.411 145.426,180.578 143.5,181C 121.5,181.667 99.5,181.667 77.5,181C 76.6667,180.167 75.8333,179.333 75,178.5C 74.5001,163.504 74.3334,148.504 74.5,133.5C 67.2454,133.813 60.0787,133.48 53,132.5C 51.856,122.261 51.356,111.928 51.5,101.5C 51.6667,91.8333 51.8333,82.1667 52,72.5C 52.5,72 53,71.5 53.5,71C 60.4921,70.5004 67.4921,70.3337 74.5,70.5C 74.3336,62.16 74.5003,53.8267 75,45.5C 75.8333,44.6667 76.6667,43.8333 77.5,43C 88.5,42.8333 99.5,42.6667 110.5,42.5C 122.259,42.3531 133.926,42.8531 145.5,44C 146,44.5 146.5,45 147,45.5C 147.5,53.8267 147.666,62.16 147.5,70.5C 150.518,70.3354 153.518,70.502 156.5,71C 157.667,71.5 158.5,72.3333 159,73.5C 159.5,85.4954 159.667,97.4954 159.5,109.5 Z"/></g>
<g><path style="opacity:1" fill="#fcfbfc" d="M 76.5,59.5 C 99.5,59.5 122.5,59.5 145.5,59.5C 145.5,63.1667 145.5,66.8333 145.5,70.5C 122.5,70.5 99.5,70.5 76.5,70.5C 76.5,66.8333 76.5,63.1667 76.5,59.5 Z"/></g>
<g><path style="opacity:1" fill="#b8947b" d="M 144.5,46.5 C 145.482,49.9619 145.815,53.6286 145.5,57.5C 122.327,57.8308 99.3273,57.4975 76.5,56.5C 99.1667,56.5 121.833,56.5 144.5,56.5C 144.5,53.1667 144.5,49.8333 144.5,46.5 Z"/></g>
<g><path style="opacity:1" fill="#fed279" d="M 144.5,46.5 C 144.5,49.8333 144.5,53.1667 144.5,56.5C 121.833,56.5 99.1667,56.5 76.5,56.5C 76.335,53.1501 76.5017,49.8168 77,46.5C 77.5,46 78,45.5 78.5,45C 100.167,44.3333 121.833,44.3333 143.5,45C 144.056,45.3826 144.389,45.8826 144.5,46.5 Z"/></g>
<g><path style="opacity:1" fill="#93d2f9" d="M 157.5,109.5 C 154.729,108.367 151.896,107.367 149,106.5C 146.594,106.703 144.594,107.703 143,109.5C 129.724,97.7671 127.224,99.9337 135.5,116C 133.813,117.853 132.813,120.019 132.5,122.5C 133.162,125.468 133.495,128.468 133.5,131.5C 107.165,131.667 80.8312,131.5 54.5,131C 53.1667,111.667 53.1667,92.3333 54.5,73C 88.5,72.3333 122.5,72.3333 156.5,73C 157.488,85.0864 157.822,97.253 157.5,109.5 Z"/></g>
<g><path style="opacity:1" fill="#46046c" d="M 67.5,85.5 C 93.5085,85.1669 119.509,85.5002 145.5,86.5C 132.5,86.8333 119.5,87.1667 106.5,87.5C 93.1491,87.4992 80.1491,86.8325 67.5,85.5 Z"/></g>
<g><path style="opacity:1" fill="#461770" d="M 67.5,100.5 C 83.8469,100.167 100.18,100.501 116.5,101.5C 108.333,101.833 100.167,102.167 92,102.5C 83.4716,102.498 75.3049,101.831 67.5,100.5 Z"/></g>
<g><path style="opacity:1" fill="#61498c" d="M 68.5,114.5 C 84.5,114.5 100.5,114.5 116.5,114.5C 116.5,115.5 116.5,116.5 116.5,117.5C 100.497,117.667 84.4965,117.5 68.5,117C 67.4019,116.23 67.4019,115.397 68.5,114.5 Z"/></g>
<g><path style="opacity:1" fill="#fdfdfd" d="M 134.5,133.5 C 136.392,142.516 138.392,151.516 140.5,160.5C 119.177,161.5 97.8437,161.833 76.5,161.5C 76.5,152.167 76.5,142.833 76.5,133.5C 95.8333,133.5 115.167,133.5 134.5,133.5 Z"/></g>
<g><path style="opacity:1" fill="#491975" d="M 157.5,109.5 C 158.167,109.5 158.833,109.5 159.5,109.5C 164.246,112.91 169.246,115.91 174.5,118.5C 177.079,123.992 179.912,129.325 183,134.5C 183.694,137.468 184.194,140.468 184.5,143.5C 182.31,152.24 179.81,160.906 177,169.5C 176.827,173.541 176.327,177.541 175.5,181.5C 174.436,169.892 176.602,158.892 182,148.5C 182.791,144.074 182.457,139.741 181,135.5C 178.279,129.89 175.446,124.39 172.5,119C 171.5,118.333 170.5,118.333 169.5,119C 171.358,122.902 173.024,126.902 174.5,131C 174.167,131.5 173.833,132 173.5,132.5C 170.921,126.914 168.255,121.414 165.5,116C 159.46,112.436 153.127,110.102 146.5,109C 145.445,112.258 146.445,114.924 149.5,117C 153.531,118.432 157.364,120.266 161,122.5C 162,126.833 163,131.167 164,135.5C 168.061,138.572 169.394,142.572 168,147.5C 164.606,150.032 161.106,150.032 157.5,147.5C 152.027,148.896 148.193,146.896 146,141.5C 144.41,134.885 143.077,128.218 142,121.5C 139.966,118.141 137.632,117.808 135,120.5C 136.4,133.618 138.733,146.618 142,159.5C 144.264,164.959 148.264,168.292 154,169.5C 154.827,173.541 154.66,177.541 153.5,181.5C 152.511,177.893 152.177,174.226 152.5,170.5C 151.07,170.579 149.736,170.246 148.5,169.5C 147.832,172.306 147.166,174.972 146.5,177.5C 146.813,173.958 146.479,170.625 145.5,167.5C 144.026,166.564 143.026,165.23 142.5,163.5C 120.5,162.833 98.5,162.167 76.5,161.5C 97.8437,161.833 119.177,161.5 140.5,160.5C 138.392,151.516 136.392,142.516 134.5,133.5C 134.672,132.508 134.338,131.842 133.5,131.5C 133.495,128.468 133.162,125.468 132.5,122.5C 132.813,120.019 133.813,117.853 135.5,116C 127.224,99.9337 129.724,97.7671 143,109.5C 144.594,107.703 146.594,106.703 149,106.5C 151.896,107.367 154.729,108.367 157.5,109.5 Z"/></g>
<g><path style="opacity:1" fill="#e9e3eb" d="M 146.5,132.5 C 150.539,136.223 153.873,140.557 156.5,145.5C 153.566,146.799 151.066,146.132 149,143.5C 147.096,140.077 146.263,136.41 146.5,132.5 Z"/></g>
<g><path style="opacity:1" fill="#92cef5" d="M 140.5,111.5 C 142.017,111.511 143.184,112.177 144,113.5C 150.621,122.456 157.621,131.123 165,139.5C 168.106,145.218 166.606,147.718 160.5,147C 155.333,139.833 150.167,132.667 145,125.5C 144.606,120.778 142.273,117.445 138,115.5C 137.333,114.833 137.333,114.167 138,113.5C 138.995,112.934 139.828,112.267 140.5,111.5 Z"/></g>
<g><path style="opacity:1" fill="#dfd5e5" d="M 153.5,122.5 C 153.56,121.957 153.893,121.624 154.5,121.5C 159.18,122.667 161.013,125.667 160,130.5C 157.969,127.645 155.803,124.978 153.5,122.5 Z"/></g>
<g><path style="opacity:1" fill="#93c3e5" d="M 133.5,104.5 C 135.509,106.169 137.509,107.836 139.5,109.5C 138.672,110.415 137.672,111.081 136.5,111.5C 134.673,109.513 133.673,107.179 133.5,104.5 Z"/></g>
<g><path style="opacity:1" fill="#f9cd79" d="M 142.5,163.5 C 143.026,165.23 144.026,166.564 145.5,167.5C 145.957,171.584 145.29,175.417 143.5,179C 121.833,179.667 100.167,179.667 78.5,179C 78,178.5 77.5,178 77,177.5C 76.5008,172.845 76.3342,168.179 76.5,163.5C 98.5,163.5 120.5,163.5 142.5,163.5 Z"/></g>
</svg>
