<?xml version="1.0" encoding="UTF-8"?>
<svg version="1.1" xmlns="http://www.w3.org/2000/svg" width="512" height="512">
<path d="M0 0 C3.62656688 1.81328344 5.52614813 3.33660738 7.875 6.625 C9.36599455 11.09798365 9.90165749 15.34261958 9 20 C5.83490973 25.45808916 1.64494111 29.61422962 -2.828125 34.0234375 C-3.57713074 34.76961334 -4.32613647 35.51578918 -5.09783936 36.28457642 C-7.47721601 38.65281128 -9.86347243 41.01397363 -12.25 43.375 C-13.87025177 44.98521424 -15.49004852 46.59588649 -17.109375 48.20703125 C-21.06766354 52.14333907 -25.03161494 56.07387258 -29 60 C-12.31726049 63.98516842 9.38281958 68.06262685 24.99636078 58.81797028 C43.31711421 46.38579933 58.46836228 27.95529242 72.69224548 11.18202209 C73.4578778 10.28996598 73.4578778 10.28996598 74.23897743 9.37988853 C75.17929912 8.28078392 76.10944969 7.17284555 77.02628136 6.05407143 C80.69924762 1.77430529 84.73706181 -0.71286144 90.44140625 -1.21484375 C95.53298529 -0.549094 99.0325206 0.50483957 103 4 C106.10087173 8.34122042 106.37191021 12.27146469 106.49609375 17.4375 C105.16144475 24.33143499 98.96052439 29.30315165 94.171875 34.0234375 C93.42286926 34.76961334 92.67386353 35.51578918 91.90216064 36.28457642 C89.52278399 38.65281128 87.13652757 41.01397363 84.75 43.375 C83.12974823 44.98521424 81.50995148 46.59588649 79.890625 48.20703125 C75.93233646 52.14333907 71.96838506 56.07387258 68 60 C68.73055603 60.04310303 69.46111206 60.08620605 70.21380615 60.13061523 C89.4456949 61.28507491 103.97944709 63.15543081 117.75 77.8125 C124.37311567 85.74179858 128.23627874 95.25349227 128.26742554 105.61419678 C128.28022049 107.5484552 128.28022049 107.5484552 128.29327393 109.52178955 C128.29257503 110.9334718 128.29165205 112.34515396 128.29052734 113.75683594 C128.29651782 115.25724622 128.30332456 116.75765343 128.31088257 118.25805664 C128.32849851 122.32025123 128.33323613 126.38236147 128.33451414 130.44459057 C128.33593898 132.98701788 128.34021491 135.52942398 128.34550858 138.07184601 C128.36399541 146.95448663 128.37218102 155.83706735 128.37060547 164.71972656 C128.36940495 172.97845636 128.39049301 181.23692445 128.4220928 189.49558806 C128.44831219 196.60328572 128.45897037 203.71089821 128.45769465 210.81864381 C128.45718661 215.05610762 128.46278166 219.29333877 128.48405075 223.53075409 C128.50352857 227.51999688 128.50349314 231.50878738 128.48901749 235.49804688 C128.48693994 236.95441607 128.49156682 238.41081428 128.5037384 239.86713409 C128.60355405 252.64726036 125.95290101 263.73041281 118 274 C116.46890722 275.17754774 114.9157399 276.32685004 113.34375 277.44921875 C110.45379442 279.95807483 109.16528379 281.33019927 108.2409668 285.07592773 C108.03461133 288.62010192 108.05150389 292.07760845 108.1875 295.625 C108.50715197 310.15747011 108.50715197 310.15747011 104 315 C99.66678361 318.92052912 96.12887795 319.63392313 90.46875 319.38671875 C85.50790988 318.60962512 82.17922888 316.57230518 79.125 312.5 C75.64539657 304.76754794 77 299.58442966 77 290 C31.79 290 -13.42 290 -60 290 C-60 296.27 -60 302.54 -60 309 C-62.84643949 313.74406581 -65.08635197 316.54317599 -70 319 C-74.47061078 319.41145444 -78.61329021 319.55468391 -82.8125 317.875 C-87.72955647 313.66038017 -90.33193228 310.46517152 -91 304 C-91.02733649 302.20980577 -91.03730725 300.41930789 -91.03515625 298.62890625 C-91.04095703 297.64212891 -91.04675781 296.65535156 -91.05273438 295.63867188 C-91.05923269 293.59170117 -91.03849266 291.54445896 -90.99023438 289.49804688 C-91.03364729 283.75511273 -91.03364729 283.75511273 -93.72900391 278.86547852 C-95.80286193 277.02891333 -95.80286193 277.02891333 -97.96557617 275.53369141 C-104.94951542 270.26870805 -108.02925098 261.19719737 -110 253 C-110.54170641 247.87050519 -110.55917511 242.76742792 -110.53344727 237.61547852 C-110.54052197 236.10771853 -110.54927344 234.59996565 -110.55955505 233.09222412 C-110.58188504 229.03215563 -110.57914818 224.97247996 -110.57023358 220.91237378 C-110.56509067 217.50807095 -110.57244283 214.10383981 -110.57970566 210.69954437 C-110.59665256 202.66152913 -110.59319156 194.62370396 -110.57641602 186.58569336 C-110.55949764 178.32510878 -110.575337 170.06505279 -110.6076389 161.80452591 C-110.63442602 154.68138264 -110.64158636 147.55840299 -110.63312382 140.43521446 C-110.62822136 136.19438208 -110.63026349 131.95386745 -110.65091133 127.71307564 C-110.66941297 123.72282038 -110.66313576 119.73331901 -110.63871193 115.74310303 C-110.6337496 114.28919274 -110.63707295 112.83522353 -110.64986038 111.38136101 C-110.7738576 96.05689658 -106.46573305 85.00645851 -96.04296875 73.91796875 C-91.88183953 69.88036099 -87.88323628 67.40220957 -82.56811523 65.10058594 C-73.75453945 60.93916275 -67.64754455 54.46296579 -60.97265625 47.515625 C-59.68850507 46.20818792 -58.40245004 44.90261837 -57.11460876 43.59881592 C-53.75997409 40.1952656 -50.42532519 36.77288852 -47.09655762 33.34405518 C-41.75022751 27.8400271 -36.381829 22.35787984 -30.99773979 16.89080048 C-29.13206242 14.98821188 -27.28030503 13.07282678 -25.42945862 11.15582275 C-24.28298422 9.98522459 -23.13603173 8.81509441 -21.98852539 7.64550781 C-21.23172737 6.85064217 -21.23172737 6.85064217 -20.4596405 6.03971863 C-14.43786968 -0.03928529 -8.30951206 -2.20981559 0 0 Z " fill="#00CDF4" transform="translate(110,193)"/>
<path d="M0 0 C16.23296977 12.33300511 26.67397058 29.021432 30.19140625 49.08984375 C33.31023586 91.81996039 8.56568075 131.24247634 -17.80859375 163.08984375 C-18.453125 163.88777344 -19.09765625 164.68570313 -19.76171875 165.5078125 C-26.75526785 173.90322167 -34.76219114 179.84776508 -45.80859375 181.08984375 C-48.56919545 181.16499438 -51.30131462 181.19691563 -54.06030273 181.17163086 C-55.25223488 181.16703102 -55.25223488 181.16703102 -56.46824646 181.16233826 C-58.18421389 181.1552184 -59.90017317 181.14584716 -61.61611748 181.13444328 C-64.34727904 181.11691414 -67.0783809 181.10670802 -69.80958557 181.098526 C-77.57225187 181.07420957 -85.33483838 181.03886256 -93.09741211 180.99389648 C-97.85821565 180.9668321 -102.61897242 180.9499721 -107.37983894 180.93902779 C-109.1780475 180.932892 -110.9762479 180.92298287 -112.77441216 180.9089489 C-136.14395661 180.72832382 -157.05060958 182.96523195 -174.99609375 199.65234375 C-187.58031731 212.83676875 -193.25886777 229.91189387 -193.08203125 247.94921875 C-192.22567698 265.87330708 -183.79507938 281.08037771 -170.65625 293.05078125 C-156.44374145 304.82171961 -141.24028534 307.53156918 -123.3828125 307.56640625 C-121.70570147 307.5807569 -120.02860201 307.59652101 -118.35151672 307.61361694 C-113.95938427 307.65521577 -109.56732345 307.6803642 -105.17504883 307.70111084 C-98.15876807 307.73707783 -91.14266587 307.79868707 -84.12656593 307.85960007 C-81.70186494 307.87837166 -79.2772111 307.89032873 -76.85246277 307.90103149 C-45.95764354 308.08313719 -18.90974884 314.22447934 3.85546875 336.72265625 C22.84202164 356.85643288 30.96577371 381.50833243 30.44140625 408.82421875 C29.6906807 429.55925835 21.62284022 449.31741911 8.19140625 465.08984375 C7.61003906 465.81558594 7.02867187 466.54132813 6.4296875 467.2890625 C-7.9323925 484.54162401 -29.73211456 495.19919954 -51.80859375 498.08984375 C-57.21194719 498.37882811 -62.60780596 498.38442902 -68.0168457 498.38037109 C-69.62447925 498.38636691 -71.23210994 498.39317485 -72.83973694 498.40072632 C-77.17407658 498.41827345 -81.50833709 498.42307652 -85.84270883 498.42435789 C-88.55396793 498.42578498 -91.26520725 498.43006481 -93.97646141 498.43535233 C-103.44338625 498.45380594 -112.91025503 498.46202766 -122.37719727 498.46044922 C-131.19164293 498.45924485 -140.00584493 498.4804169 -148.82022887 498.51193655 C-156.4035082 498.53808471 -163.98670775 498.54881733 -171.57003182 498.5475384 C-176.09287539 498.54702891 -180.61550145 498.55270697 -185.13829994 498.5738945 C-189.38611627 498.59325566 -193.63350678 498.59341615 -197.88133812 498.57886124 C-199.43817644 498.57677031 -200.99504133 498.58149098 -202.55183411 498.59358215 C-204.68006009 498.60903994 -206.80681803 498.59972584 -208.93501282 498.58432007 C-210.12458745 498.5854096 -211.31416208 498.58649914 -212.53978443 498.58762169 C-217.06335675 497.89876704 -220.23360282 495.85855015 -223.26953125 492.44921875 C-225.92663563 487.77089821 -226.40586745 484.46530707 -225.80859375 479.08984375 C-224.09207499 474.39200294 -221.99209379 471.81398331 -217.80859375 469.08984375 C-213.46502211 467.36486682 -209.84257813 466.83965688 -205.1829834 466.83828735 C-203.86553131 466.83290451 -202.54807922 466.82752167 -201.19070435 466.82197571 C-199.74237018 466.82598952 -198.29403644 466.83016042 -196.84570312 466.83447266 C-195.31090102 466.83172065 -193.77610035 466.82803948 -192.24130249 466.82350159 C-188.94123917 466.81540315 -185.64124355 466.81321781 -182.34117126 466.81544876 C-177.1112214 466.81829023 -171.88140574 466.80389658 -166.65148926 466.78646851 C-151.7810265 466.73952806 -136.91057264 466.7155215 -122.04003906 466.70898438 C-113.8229596 466.70521972 -105.60603198 466.68707542 -97.38901758 466.65389001 C-92.20277396 466.63379648 -87.01692521 466.63124671 -81.83065891 466.64217019 C-78.5849347 466.64479948 -75.33943462 466.63066557 -72.09376907 466.61208916 C-70.60319974 466.60681983 -69.11258774 466.60817236 -67.62203598 466.61712456 C-48.921071 466.72026401 -33.73115172 461.35574 -20.05859375 448.40625 C-8.08170468 436.07587636 -1.47595062 420.73515782 -1.37109375 403.46484375 C-1.66570692 386.44997674 -7.71985978 370.32347693 -19.80859375 358.08984375 C-34.52839299 345.08312459 -50.80244615 339.93358995 -70.08789062 339.94799805 C-70.86169067 339.94452362 -71.63549072 339.94104919 -72.43273926 339.93746948 C-74.09735921 339.93017449 -75.76198848 339.9247962 -77.42662048 339.92117882 C-80.0784764 339.91392259 -82.73015676 339.89818775 -85.38195801 339.87983704 C-92.91672279 339.82780904 -100.45138774 339.77950286 -107.98632812 339.76391602 C-112.61349641 339.75372306 -117.24021414 339.72412038 -121.86720276 339.68259621 C-123.61150169 339.67044335 -125.35586467 339.66513553 -127.10020447 339.66739464 C-154.15003178 339.69379748 -177.50715896 331.22331913 -197.40625 312.58203125 C-215.7858943 293.51501814 -225.23074736 269.15004823 -225.11132812 242.67480469 C-224.49162251 217.02587797 -213.93012283 194.01106908 -196.37109375 175.5234375 C-172.99995829 153.42080116 -145.73405106 149.48964376 -114.82757568 149.35162354 C-111.32044955 149.33177556 -107.81358651 149.28984135 -104.30664062 149.25 C-97.4740594 149.17551463 -90.6414893 149.12473521 -83.80859375 149.08984375 C-84.45868408 148.12884766 -85.10877441 147.16785156 -85.77856445 146.17773438 C-90.76150557 138.77965353 -95.61319749 131.36464068 -99.99609375 123.58984375 C-100.50164795 122.69458984 -101.00720215 121.79933594 -101.52807617 120.87695312 C-115.12467269 96.54826671 -126.11268783 69.32533547 -119.30859375 41.08984375 C-112.82139939 20.55467569 -99.26493324 3.95785966 -80.26953125 -6.1875 C-53.86607831 -19.329625 -24.11960874 -16.40401763 0 0 Z " fill="#3C57D1" transform="translate(481.80859375,13.91015625)"/>
<path d="M0 0 C3.62656688 1.81328344 5.52614813 3.33660738 7.875 6.625 C9.36599455 11.09798365 9.90165749 15.34261958 9 20 C5.83490973 25.45808916 1.64494111 29.61422962 -2.828125 34.0234375 C-3.57713074 34.76961334 -4.32613647 35.51578918 -5.09783936 36.28457642 C-7.47721601 38.65281128 -9.86347243 41.01397363 -12.25 43.375 C-13.87025177 44.98521424 -15.49004852 46.59588649 -17.109375 48.20703125 C-21.06766354 52.14333907 -25.03161494 56.07387258 -29 60 C-28.26944397 60.04310303 -27.53888794 60.08620605 -26.78619385 60.13061523 C-7.5543051 61.28507491 6.97944709 63.15543081 20.75 77.8125 C27.37311567 85.74179858 31.23627874 95.25349227 31.26742554 105.61419678 C31.27595551 106.90370239 31.28448547 108.19320801 31.29327393 109.52178955 C31.29257503 110.9334718 31.29165205 112.34515396 31.29052734 113.75683594 C31.29651782 115.25724622 31.30332456 116.75765343 31.31088257 118.25805664 C31.32849851 122.32025123 31.33323613 126.38236147 31.33451414 130.44459057 C31.33593898 132.98701788 31.34021491 135.52942398 31.34550858 138.07184601 C31.36399541 146.95448663 31.37218102 155.83706735 31.37060547 164.71972656 C31.36940495 172.97845636 31.39049301 181.23692445 31.4220928 189.49558806 C31.44831219 196.60328572 31.45897037 203.71089821 31.45769465 210.81864381 C31.45718661 215.05610762 31.46278166 219.29333877 31.48405075 223.53075409 C31.50352857 227.51999688 31.50349314 231.50878738 31.48901749 235.49804688 C31.48693994 236.95441607 31.49156682 238.41081428 31.5037384 239.86713409 C31.60355405 252.64726036 28.95290101 263.73041281 21 274 C19.46890722 275.17754774 17.9157399 276.32685004 16.34375 277.44921875 C13.45379442 279.95807483 12.16528379 281.33019927 11.2409668 285.07592773 C11.03461133 288.62010192 11.05150389 292.07760845 11.1875 295.625 C11.50715197 310.15747011 11.50715197 310.15747011 7 315 C2.66678361 318.92052912 -0.87112205 319.63392313 -6.53125 319.38671875 C-11.49209012 318.60962512 -14.82077112 316.57230518 -17.875 312.5 C-21.35460343 304.76754794 -20 299.58442966 -20 290 C-42.44 290 -64.88 290 -88 290 C-88 252.05 -88 214.1 -88 175 C-50.5 174.75 -50.5 174.75 -38.69726562 174.70214844 C-35.17935475 174.66889286 -35.17935475 174.66889286 -31.66149902 174.63043213 C-30.10523452 174.61590138 -28.54888594 174.6090498 -26.99255371 174.60845947 C-14.8890116 174.7680268 -14.8890116 174.7680268 -4 170 C-0.1062614 165.98065693 0.12257448 161.85645042 0.17700195 156.44042969 C0.18983719 155.32537048 0.20267242 154.21031128 0.21589661 153.0614624 C0.22328354 151.86039856 0.23067047 150.65933472 0.23828125 149.421875 C0.25038887 147.56106293 0.25038887 147.56106293 0.26274109 145.66265869 C0.27657084 143.03667596 0.28729795 140.41067533 0.29516602 137.78466797 C0.30401923 135.10181928 0.32488039 132.41948968 0.35668945 129.73681641 C0.39938478 125.86084399 0.41553884 121.98555346 0.42578125 118.109375 C0.45204338 116.31992462 0.45204338 116.31992462 0.47883606 114.49432373 C0.46191505 107.97207719 0.36935083 102.16791122 -4 97 C-10.48863539 90.89178125 -21.12189486 92.39482081 -29.40625 92.390625 C-31.09877087 92.37562847 -32.79127718 92.35889825 -34.48376465 92.34051514 C-38.91586006 92.29699437 -43.3477581 92.27687662 -47.7800293 92.26177979 C-52.31180416 92.24215335 -56.8433676 92.2001897 -61.375 92.16015625 C-70.24997034 92.08501954 -79.12478738 92.03669535 -88 92 C-88 82.1 -88 72.2 -88 62 C-81.565 61.505 -81.565 61.505 -75 61 C-72.03690499 59.15406926 -70.45850633 57.98140507 -68.21923828 55.51806641 C-67.65312332 54.94727859 -67.08700836 54.37649078 -66.5037384 53.78840637 C-64.66302892 51.91924208 -62.86818139 50.01188358 -61.0703125 48.1015625 C-59.78583565 46.78448275 -58.49833278 45.47034803 -57.20797729 44.1590271 C-53.83363337 40.71654633 -50.49523382 37.24136194 -47.16522217 33.75604248 C-41.82462379 28.17770783 -36.43183764 22.64992104 -31.03667831 17.12443161 C-29.16468036 15.19687614 -27.30893246 13.25474401 -25.45510864 11.3097229 C-24.30521938 10.11971903 -23.15499875 8.93003525 -22.00439453 7.74072266 C-21.49829147 7.20138596 -20.99218842 6.66204926 -20.4707489 6.10636902 C-14.47021325 -0.04001147 -8.33912567 -2.21769098 0 0 Z " fill="#3CACD2" transform="translate(207,193)"/>
<path d="M0 0 C16.23296977 12.33300511 26.67397058 29.021432 30.19140625 49.08984375 C33.31023586 91.81996039 8.56568075 131.24247634 -17.80859375 163.08984375 C-18.453125 163.88777344 -19.09765625 164.68570313 -19.76171875 165.5078125 C-25.74914014 172.6954152 -32.94834766 178.54185422 -42.12109375 180.96484375 C-50.60508742 181.25243676 -56.48714207 177.34487167 -62.80859375 172.08984375 C-63.62457031 171.46980469 -64.44054687 170.84976563 -65.28125 170.2109375 C-67.89411179 168.01807204 -69.87843619 165.75976097 -71.99609375 163.08984375 C-74.33425122 160.15462795 -76.66671574 157.24989914 -79.15625 154.44140625 C-103.36938881 126.96047798 -122.46120969 88.88671931 -120.99511719 51.84667969 C-119.75319575 33.49095084 -109.15461839 16.92720076 -96.18359375 4.46484375 C-68.68413556 -19.40181352 -29.56683117 -20.10873497 0 0 Z " fill="#FE4908" transform="translate(481.80859375,13.91015625)"/>
<path d="M0 0 C1.93663765 -0.01485695 1.93663765 -0.01485695 3.91239929 -0.03001404 C5.3361063 -0.0257762 6.75981239 -0.02121836 8.18351746 -0.01637268 C9.68850206 -0.02207735 11.19348234 -0.02904198 12.69845581 -0.03717041 C16.78127372 -0.05510961 20.86387679 -0.05393165 24.94672227 -0.04822803 C28.35859048 -0.04513625 31.77041743 -0.05122873 35.18227977 -0.05726677 C43.23481061 -0.07131384 51.28723538 -0.06975014 59.33976746 -0.05836487 C67.63715452 -0.04689235 75.93421803 -0.06094421 84.23156244 -0.08776134 C91.36296257 -0.10994413 98.49426133 -0.11654966 105.6256935 -0.11068493 C109.88152065 -0.10731922 114.13714058 -0.1097042 118.39293861 -0.12693596 C122.39776045 -0.14244348 126.4021048 -0.13840776 130.40690804 -0.11963081 C131.87259075 -0.11595494 133.33830913 -0.11902414 134.80395889 -0.1295166 C142.77834512 -0.18222307 148.87321238 -0.13312983 155.60612488 4.38768005 C159.41728709 9.17606335 160.72539466 12.81156273 160.76725769 18.84959412 C160.77686523 19.96795654 160.78647278 21.08631897 160.79637146 22.23857117 C160.80274628 24.05261444 160.80274628 24.05261444 160.80924988 25.90330505 C160.81494995 27.14763306 160.82065002 28.39196106 160.82652283 29.67399597 C160.83597722 32.31020259 160.84287156 34.94629527 160.84635925 37.58250427 C160.8507454 40.27893092 160.86464171 42.97503784 160.88737488 45.67137146 C160.91787276 49.56128139 160.92841193 53.4507888 160.93424988 57.34080505 C160.94659668 58.54207031 160.95894348 59.74333557 160.97166443 60.98100281 C160.9551157 67.21743176 160.74581202 71.93136713 157.60612488 77.38768005 C152.65145648 82.21196245 148.0238536 83.63473662 141.20552063 83.65510559 C139.26671524 83.66790054 139.26671524 83.66790054 137.28874207 83.68095398 C135.86344897 83.68025501 134.43815598 83.67933198 133.01286316 83.6782074 C131.50625781 83.6841942 129.99965552 83.6910001 128.49305725 83.69856262 C124.40622036 83.71621386 120.31946725 83.72091761 116.23259592 83.72219419 C113.67781486 83.72361679 111.12305504 83.72788842 108.56827927 83.73318863 C99.651356 83.75168562 90.73449248 83.75985961 81.81755066 83.75828552 C73.51220472 83.75708403 65.20711861 83.77818862 56.90183842 83.80977285 C49.76536913 83.83594285 42.62898466 83.84665252 35.49246776 83.8453747 C31.23274591 83.8448653 26.97325504 83.85053621 22.71358109 83.8717308 C18.70632042 83.89112565 14.69951082 83.89122942 10.69223404 83.87669754 C9.2245111 83.8746099 7.75675984 83.87930773 6.28908539 83.89141846 C-7.64212395 83.99889662 -7.64212395 83.99889662 -13.39387512 79.38768005 C-18.75692548 73.59146803 -18.00621725 65.13142251 -17.99543762 57.76268005 C-18.00400787 56.46121033 -18.01257813 55.1597406 -18.02140808 53.8188324 C-18.03625661 51.07533885 -18.03580532 48.33236042 -18.02522278 45.58885193 C-18.01362334 42.09151952 -18.04754616 38.5963023 -18.09391212 35.09931946 C-18.13063454 31.73702157 -18.12301351 28.37517683 -18.12043762 25.01268005 C-18.14806686 23.14362 -18.14806686 23.14362 -18.17625427 21.23680115 C-18.10528439 14.54394518 -17.54594374 10.15030074 -13.16911316 4.9516449 C-8.91040881 1.19977403 -5.67567525 0.01230652 0 0 Z " fill="#FEFEFE" transform="translate(47.39387512207031,284.61231994628906)"/>
<path d="M0 0 C12.375 -0.0825 24.75 -0.165 37.5 -0.25 C41.39490234 -0.28641602 45.28980469 -0.32283203 49.30273438 -0.36035156 C54.09082031 -0.37841797 54.09082031 -0.37841797 56.33850098 -0.3817749 C57.89486273 -0.38788241 59.45120657 -0.40187822 61.00744629 -0.42230225 C77.45640927 -0.62722365 77.45640927 -0.62722365 84 4 C87.81116222 8.7883833 89.11926979 12.42388268 89.16113281 18.46191406 C89.17074036 19.58027649 89.1803479 20.69863892 89.19024658 21.85089111 C89.19449646 23.0602533 89.19874634 24.26961548 89.203125 25.515625 C89.20882507 26.759953 89.21452515 28.00428101 89.22039795 29.28631592 C89.22985234 31.92252254 89.23674669 34.55861522 89.24023438 37.19482422 C89.24462053 39.89125086 89.25851683 42.58735779 89.28125 45.28369141 C89.31174789 49.17360134 89.32228706 53.06310875 89.328125 56.953125 C89.3404718 58.15439026 89.3528186 59.35565552 89.36553955 60.59332275 C89.34899082 66.8297517 89.13968714 71.54368707 86 77 C80.69908891 82.16141343 75.67391934 83.30189617 68.45581055 83.22705078 C67.70188176 83.22729185 66.94795298 83.22753292 66.17117786 83.2277813 C63.74290267 83.22629451 61.31493866 83.21109112 58.88671875 83.1953125 C57.38269193 83.19237009 55.87866307 83.19033087 54.37463379 83.18920898 C48.81222453 83.17874456 43.24985917 83.15082202 37.6875 83.125 C19.0321875 83.063125 19.0321875 83.063125 0 83 C0 55.61 0 28.22 0 0 Z " fill="#ECE0DC" transform="translate(119,285)"/>
<path d="M0 0 C3.62656688 1.81328344 5.52614813 3.33660738 7.875 6.625 C9.36599455 11.09798365 9.90165749 15.34261958 9 20 C-0.38118883 35.31399575 -16.67384231 56.97507774 -34.0088501 63.05535889 C-47.68027312 66.24223928 -62.21638036 64.85672352 -76 63 C-70.35950584 56.13822853 -64.10324959 49.90214818 -57.84765625 43.609375 C-57.26613737 43.02378059 -56.68461849 42.43818619 -56.08547783 41.8348465 C-53.01346465 38.74209525 -49.9382734 35.65254358 -46.8605957 32.56542969 C-43.69375155 29.38747881 -40.53876947 26.19801242 -37.38622379 23.00588608 C-34.94699496 20.54048126 -32.49889196 18.08403376 -30.04833794 15.62989044 C-28.88123367 14.45793174 -27.71749446 13.2826114 -26.55729866 12.10381317 C-24.93302786 10.45510501 -23.29648248 8.81957801 -21.65649414 7.18652344 C-20.26800011 5.78923004 -20.26800011 5.78923004 -18.85145569 4.3637085 C-12.95621823 -0.52313682 -7.41885617 -1.97295629 0 0 Z " fill="#1CC4F4" transform="translate(110,193)"/>
<path d="M0 0 C3.62656688 1.81328344 5.52614813 3.33660738 7.875 6.625 C9.36599455 11.09798365 9.90165749 15.34261958 9 20 C-0.27342398 35.16676232 -16.73403092 57.06071344 -33.92034912 63.0111084 C-47.01754013 65.93800747 -60.9058182 64.21582191 -74 62 C-72.40329485 58.06852403 -69.69517353 55.39935312 -66.7434082 52.45288086 C-65.94053627 51.63993309 -65.94053627 51.63993309 -65.1214447 50.81056213 C-63.35317707 49.02332201 -61.5774834 47.24369681 -59.80078125 45.46484375 C-58.56472737 44.22236088 -57.32882359 42.97972866 -56.09306335 41.73695374 C-53.50155674 39.13347582 -50.90595259 36.53416195 -48.30786133 33.93725586 C-44.98671874 30.61631632 -41.67953633 27.28184513 -38.37577534 23.94362545 C-35.82693057 21.37249223 -33.26899498 18.8105526 -30.70845604 16.25107002 C-29.48567968 15.02594014 -28.26612981 13.79758083 -27.04995155 12.5659008 C-25.34388859 10.84014168 -23.62549237 9.12763504 -21.90356445 7.41772461 C-21.16056595 6.65786758 -21.16056595 6.65786758 -20.40255737 5.88265991 C-14.35845992 -0.055346 -8.22776172 -2.18807507 0 0 Z " fill="#2B5AB8" transform="translate(207,193)"/>
<path d="M0 0 C3.3510465 0.78109767 6.18964188 1.98189393 9.3125 3.4375 C16.44289233 6.48708683 23.33008659 7.29797241 31 8 C31.08115993 11.06303578 31.14057409 14.12390815 31.1875 17.1875 C31.21263672 18.05181641 31.23777344 18.91613281 31.26367188 19.80664062 C31.32008673 24.71473274 31.22756952 28.03054839 28 32 C22.94328061 36.4400463 20.07793638 37.30589707 13.46875 37.2109375 C8.63930928 36.79829541 6.54164528 34.5539554 3.25 31.1875 C-1.07117077 25.06584141 -0.12309556 17.84985546 -0.0625 10.625 C-0.05798828 9.60277344 -0.05347656 8.58054687 -0.04882812 7.52734375 C-0.037103 5.01816806 -0.02069176 2.5091151 0 0 Z " fill="#3D58D1" transform="translate(19,475)"/>
<path d="M0 0 C0.11651725 4.37477474 0.18736 8.74914827 0.25 13.125 C0.28351563 14.3625 0.31703125 15.6 0.3515625 16.875 C0.47386964 28.24956387 0.47386964 28.24956387 -4 33 C-8.33321639 36.92052912 -11.87112205 37.63392313 -17.53125 37.38671875 C-22.49209012 36.60962512 -25.82077112 34.57230518 -28.875 30.5 C-31.08466071 25.58964286 -31.1236785 21.07723572 -31.0625 15.75 C-31.05798828 15.00492187 -31.05347656 14.25984375 -31.04882812 13.4921875 C-31.03709246 11.6614236 -31.0191585 9.83070127 -31 8 C-29.98421875 7.91363281 -28.9684375 7.82726562 -27.921875 7.73828125 C-18.70558892 6.83866571 -8.20566316 0 0 0 Z " fill="#4C7B8B" transform="translate(218,475)"/>
<path d="M0 0 C5.35755096 1.92063148 8.45837216 4.91674432 11 10 C11.37364646 15.60469691 11.20860998 19.18708503 8 24 C4.26619006 27.7746166 1.05993779 29.80566625 -4.3125 30.3125 C-9.83597187 29.84440916 -12.66819116 27.47578817 -16.3125 23.4375 C-19.18082901 19.29435809 -19.33553833 15.94919042 -19 11 C-15.54787634 1.73377333 -9.21392984 -0.85458034 0 0 Z " fill="#FBD2D2" transform="translate(174,411)"/>
<path d="M0 0 C4.60998529 2.2852073 7.29858431 5.49703054 9.0078125 10.33984375 C9.65127756 15.57948782 8.88800243 18.92355252 6.0078125 23.33984375 C2.30457075 27.09367623 -0.90771291 29.1394135 -6.2421875 29.65234375 C-10.62109581 29.28743472 -13.71441371 28.22817907 -16.9921875 25.33984375 C-20.78201986 20.30159602 -21.78954751 15.51938384 -20.9921875 9.33984375 C-16.66058551 0.67663978 -9.26456165 -3.07002141 0 0 Z " fill="#F9D2D3" transform="translate(73.9921875,411.66015625)"/>
<path d="M0 0 C3.68828459 1.25674882 6.30146874 3.23386894 8.9375 6.125 C10.95436053 11.58238733 10.70139872 16.89580384 8.875 22.375 C6.46853928 25.74404501 4.78565751 27.2423733 1 29 C-4.32533427 29.77661125 -8.59075444 29.65429258 -13.5 27.375 C-17.68139869 23.40267124 -19.17132054 19.81344247 -19.625 14.125 C-19.49674313 8.82638826 -17.34081667 6.19215203 -13.7265625 2.49609375 C-9.69740258 -0.99523713 -5.08763439 -0.54836778 0 0 Z " fill="#FFFCFB" transform="translate(441,61)"/>
</svg>
