<?xml version="1.0" encoding="UTF-8"?>
<!DOCTYPE svg PUBLIC "-//W3C//DTD SVG 1.1//EN" "http://www.w3.org/Graphics/SVG/1.1/DTD/svg11.dtd">
<svg xmlns="http://www.w3.org/2000/svg" version="1.1" width="512px" height="512px" style="shape-rendering:geometricPrecision; text-rendering:geometricPrecision; image-rendering:optimizeQuality; fill-rule:evenodd; clip-rule:evenodd" xmlns:xlink="http://www.w3.org/1999/xlink">
<g><path style="opacity:0.986" fill="#020101" d="M 247.5,-0.5 C 252.833,-0.5 258.167,-0.5 263.5,-0.5C 307.736,27.2958 352.069,55.1292 396.5,83C 400.034,87.0756 400.367,91.409 397.5,96C 391.182,98.6894 385.682,97.5228 381,92.5C 380.5,99.8258 380.334,107.159 380.5,114.5C 404.836,114.333 429.169,114.5 453.5,115C 461.333,117.5 466.5,122.667 469,130.5C 474.073,152.956 478.906,175.456 483.5,198C 482.718,209.61 476.718,216.776 465.5,219.5C 465.5,241.167 465.5,262.833 465.5,284.5C 475.233,284.109 484.9,284.609 494.5,286C 502.838,289.833 508.505,296 511.5,304.5C 511.5,340.833 511.5,377.167 511.5,413.5C 506.097,427.552 495.763,434.718 480.5,435C 485.711,440.921 489.211,447.754 491,455.5C 493.313,470.262 492.979,484.929 490,499.5C 487.15,505.486 482.65,509.486 476.5,511.5C 441.5,511.5 406.5,511.5 371.5,511.5C 369.422,509.61 368.089,507.276 367.5,504.5C 368.053,501.413 369.72,498.913 372.5,497C 405.833,496.667 439.167,496.333 472.5,496C 474.333,495.5 475.5,494.333 476,492.5C 476.499,487.177 476.666,481.844 476.5,476.5C 329.167,476.5 181.833,476.5 34.5,476.5C 34.334,481.844 34.5006,487.177 35,492.5C 35.5,494.333 36.6667,495.5 38.5,496C 140.167,496.333 241.833,496.667 343.5,497C 346.789,498.41 348.456,500.91 348.5,504.5C 348.429,507.652 347.095,509.986 344.5,511.5C 241.167,511.5 137.833,511.5 34.5,511.5C 24.9933,507.861 19.8267,500.861 19,490.5C 18.2678,478.804 18.6012,467.137 20,455.5C 21.7893,447.754 25.2893,440.921 30.5,435C 15.2366,434.718 4.90323,427.552 -0.5,413.5C -0.5,377.167 -0.5,340.833 -0.5,304.5C 2.49545,296 8.16212,289.833 16.5,286C 26.1003,284.609 35.767,284.109 45.5,284.5C 45.5,262.833 45.5,241.167 45.5,219.5C 34.2821,216.776 28.2821,209.61 27.5,198C 32.1927,172.864 38.0261,148.031 45,123.5C 48.0925,119.072 52.2591,116.239 57.5,115C 81.8311,114.5 106.164,114.333 130.5,114.5C 130.666,107.159 130.5,99.8258 130,92.5C 125.318,97.5228 119.818,98.6894 113.5,96C 110.833,92 110.833,88 113.5,84C 158.095,55.546 202.762,27.3793 247.5,-0.5 Z"/></g>
<g><path style="opacity:1" fill="#fdd1a3" d="M 340.5,66.5 C 336.784,81.0445 327.451,89.5445 312.5,92C 300.505,92.4999 288.505,92.6665 276.5,92.5C 270.131,87.7651 262.965,85.0984 255,84.5C 252.075,84.5229 249.241,85.0229 246.5,86C 242.34,88.0226 238.34,90.1892 234.5,92.5C 205.167,92.5 175.833,92.5 146.5,92.5C 146.335,88.8183 146.501,85.1516 147,81.5C 180.5,60 214,38.5 247.5,17C 252.803,13.754 258.137,13.754 263.5,17C 289.231,33.5242 314.898,50.0242 340.5,66.5 Z"/></g>
<g><path style="opacity:1" fill="#fdbc85" d="M 340.5,66.5 C 348.45,71.2763 356.283,76.2763 364,81.5C 364.5,92.495 364.667,103.495 364.5,114.5C 346.164,114.667 327.83,114.5 309.5,114C 298.325,106.97 287.325,99.8037 276.5,92.5C 288.505,92.6665 300.505,92.4999 312.5,92C 327.451,89.5445 336.784,81.0445 340.5,66.5 Z"/></g>
<g><path style="opacity:1" fill="#febc85" d="M 146.5,92.5 C 175.833,92.5 205.167,92.5 234.5,92.5C 223.675,99.8037 212.675,106.97 201.5,114C 183.17,114.5 164.836,114.667 146.5,114.5C 146.5,107.167 146.5,99.8333 146.5,92.5 Z"/></g>
<g><path style="opacity:1" fill="#f3f6f8" d="M 138.5,253.5 C 138.5,249.833 138.5,246.167 138.5,242.5C 138.5,239.5 138.5,236.5 138.5,233.5C 142.637,233.518 145.137,231.518 146,227.5C 146.023,207.411 146.69,187.411 148,167.5C 151.251,163.578 155.084,160.412 159.5,158C 190.167,138.667 220.833,119.333 251.5,100C 253.833,99.3333 256.167,99.3333 258.5,100C 289.635,119.07 320.635,138.404 351.5,158C 355.916,160.412 359.749,163.578 363,167.5C 364.482,206.439 364.982,245.439 364.5,284.5C 352.5,284.5 340.5,284.5 328.5,284.5C 328.98,260.743 328.48,237.076 327,213.5C 325.829,212.107 324.329,211.273 322.5,211C 277.5,210.333 232.5,210.333 187.5,211C 186.069,211.465 184.903,212.299 184,213.5C 182.52,237.076 182.02,260.743 182.5,284.5C 170.5,284.5 158.5,284.5 146.5,284.5C 146.666,275.827 146.5,267.16 146,258.5C 144.59,255.211 142.09,253.544 138.5,253.5 Z"/></g>
<g><path style="opacity:1" fill="#aa822d" d="M 61.5,130.5 C 99.3311,129.336 137.331,129.169 175.5,130C 174.956,130.717 174.289,131.217 173.5,131.5C 136.337,130.502 99.0037,130.168 61.5,130.5 Z"/></g>
<g><path style="opacity:1" fill="#a9812c" d="M 449.5,130.5 C 411.996,130.168 374.663,130.502 337.5,131.5C 336.711,131.217 336.044,130.717 335.5,130C 373.669,129.169 411.669,129.336 449.5,130.5 Z"/></g>
<g><path style="opacity:1" fill="#fdc243" d="M 61.5,130.5 C 99.0037,130.168 136.337,130.502 173.5,131.5C 163.898,137.642 154.231,143.809 144.5,150C 137.929,154.978 133.763,161.478 132,169.5C 131.5,181.162 131.333,192.829 131.5,204.5C 103.165,204.667 74.8314,204.5 46.5,204C 45.6667,203.167 44.8333,202.333 44,201.5C 43.5042,196.792 43.8376,192.125 45,187.5C 48.8641,169.044 53.1974,150.711 58,132.5C 58.8159,131.177 59.9826,130.511 61.5,130.5 Z"/></g>
<g><path style="opacity:1" fill="#fdc243" d="M 449.5,130.5 C 451.017,130.511 452.184,131.177 453,132.5C 457.801,150.703 462.134,169.037 466,187.5C 467.162,192.125 467.496,196.792 467,201.5C 466.167,202.333 465.333,203.167 464.5,204C 436.169,204.5 407.835,204.667 379.5,204.5C 379.667,192.829 379.5,181.162 379,169.5C 377.237,161.478 373.071,154.978 366.5,150C 356.769,143.809 347.102,137.642 337.5,131.5C 374.663,130.502 411.996,130.168 449.5,130.5 Z"/></g>
<g><path style="opacity:1" fill="#d9a577" d="M 449.5,220.5 C 426.5,220.5 403.5,220.5 380.5,220.5C 380.5,227.833 380.5,235.167 380.5,242.5C 380.5,256.5 380.5,270.5 380.5,284.5C 379.503,263.006 379.169,241.34 379.5,219.5C 403.006,219.169 426.339,219.502 449.5,220.5 Z"/></g>
<g><path style="opacity:1" fill="#fdbb85" d="M 138.5,233.5 C 138.5,236.5 138.5,239.5 138.5,242.5C 112.833,242.5 87.1667,242.5 61.5,242.5C 61.5,234.833 61.5,227.167 61.5,219.5C 84.8333,219.5 108.167,219.5 131.5,219.5C 130.571,224.765 131.904,229.265 135.5,233C 136.448,233.483 137.448,233.649 138.5,233.5 Z"/></g>
<g><path style="opacity:1" fill="#febd85" d="M 449.5,220.5 C 449.5,227.833 449.5,235.167 449.5,242.5C 426.5,242.5 403.5,242.5 380.5,242.5C 380.5,235.167 380.5,227.833 380.5,220.5C 403.5,220.5 426.5,220.5 449.5,220.5 Z"/></g>
<g><path style="opacity:1" fill="#fdd1a3" d="M 61.5,242.5 C 87.1667,242.5 112.833,242.5 138.5,242.5C 138.5,246.167 138.5,249.833 138.5,253.5C 135.737,253.744 133.571,255.077 132,257.5C 131.5,266.494 131.334,275.494 131.5,284.5C 108.167,284.5 84.8333,284.5 61.5,284.5C 61.5,270.5 61.5,256.5 61.5,242.5 Z"/></g>
<g><path style="opacity:1" fill="#fed1a3" d="M 380.5,242.5 C 403.5,242.5 426.5,242.5 449.5,242.5C 449.5,256.5 449.5,270.5 449.5,284.5C 426.5,284.5 403.5,284.5 380.5,284.5C 380.5,270.5 380.5,256.5 380.5,242.5 Z"/></g>
<g><path style="opacity:1" fill="#c16a35" d="M 198.5,225.5 C 198.5,238.833 198.5,252.167 198.5,265.5C 214.833,265.5 231.167,265.5 247.5,265.5C 247.5,252.167 247.5,238.833 247.5,225.5C 248.497,244.993 248.83,264.66 248.5,284.5C 231.5,284.5 214.5,284.5 197.5,284.5C 197.17,264.66 197.503,244.993 198.5,225.5 Z"/></g>
<g><path style="opacity:1" fill="#d67f49" d="M 198.5,225.5 C 214.833,225.5 231.167,225.5 247.5,225.5C 247.5,238.833 247.5,252.167 247.5,265.5C 231.167,265.5 214.833,265.5 198.5,265.5C 198.5,252.167 198.5,238.833 198.5,225.5 Z"/></g>
<g><path style="opacity:1" fill="#c16a35" d="M 263.5,225.5 C 263.5,238.833 263.5,252.167 263.5,265.5C 279.833,265.5 296.167,265.5 312.5,265.5C 312.5,252.167 312.5,238.833 312.5,225.5C 313.497,244.993 313.83,264.66 313.5,284.5C 296.5,284.5 279.5,284.5 262.5,284.5C 262.17,264.66 262.503,244.993 263.5,225.5 Z"/></g>
<g><path style="opacity:1" fill="#d67f49" d="M 263.5,225.5 C 279.833,225.5 296.167,225.5 312.5,225.5C 312.5,238.833 312.5,252.167 312.5,265.5C 296.167,265.5 279.833,265.5 263.5,265.5C 263.5,252.167 263.5,238.833 263.5,225.5 Z"/></g>
<g><path style="opacity:1" fill="#e5eaef" d="M 23.5,300.5 C 173.833,300.5 324.167,300.5 474.5,300.5C 474.667,326.502 474.5,352.502 474,378.5C 472.167,388.333 466.333,394.167 456.5,396C 309.167,396.5 161.834,396.667 14.5,396.5C 14.3334,367.165 14.5,337.831 15,308.5C 16.4129,304.252 19.2462,301.585 23.5,300.5 Z"/></g>
<g><path style="opacity:1" fill="#ccd9dd" d="M 23.5,300.5 C 177.666,299.334 331.999,299.167 486.5,300C 491.235,301.068 494.402,303.901 496,308.5C 496.667,342.167 496.667,375.833 496,409.5C 494.474,413.693 491.641,416.526 487.5,418C 332.5,418.667 177.5,418.667 22.5,418C 18.9421,416.108 16.4421,413.275 15,409.5C 14.501,405.179 14.3343,400.846 14.5,396.5C 161.834,396.667 309.167,396.5 456.5,396C 466.333,394.167 472.167,388.333 474,378.5C 474.5,352.502 474.667,326.502 474.5,300.5C 324.167,300.5 173.833,300.5 23.5,300.5 Z"/></g>
<g><path style="opacity:1" fill="#050606" d="M 71.5,324.5 C 81.9357,323.812 91.1024,326.812 99,333.5C 101.515,339.673 99.5146,343.673 93,345.5C 88.0085,342.674 82.6751,340.674 77,339.5C 71.9484,339.862 70.1151,342.362 71.5,347C 81.1635,349.991 89.9968,354.491 98,360.5C 105.618,376.306 101.118,387.139 84.5,393C 71.7093,395.178 61.2093,391.345 53,381.5C 51.5199,374.325 54.3532,370.825 61.5,371C 65.1667,373.333 68.8333,375.667 72.5,378C 76.5935,378.767 80.5935,378.434 84.5,377C 88.5048,373.64 88.1715,370.64 83.5,368C 76.3839,365.275 69.3839,362.275 62.5,359C 55.0995,351.968 53.5995,343.801 58,334.5C 61.5308,329.795 66.0308,326.462 71.5,324.5 Z"/></g>
<g><path style="opacity:1" fill="#060606" d="M 144.5,324.5 C 154.748,323.64 163.914,326.307 172,332.5C 174.283,338.602 172.283,342.602 166,344.5C 162.123,343.146 158.29,341.646 154.5,340C 144.044,338.812 136.544,342.979 132,352.5C 129.367,364.401 133.534,372.901 144.5,378C 152.092,379.802 158.425,377.802 163.5,372C 169.969,369.789 173.969,371.956 175.5,378.5C 171.805,386.692 165.472,391.525 156.5,393C 127.893,393.388 114.726,379.221 117,350.5C 121.853,337.144 131.02,328.477 144.5,324.5 Z"/></g>
<g><path style="opacity:1" fill="#050505" d="M 194.5,324.5 C 198.548,324.441 201.715,326.108 204,329.5C 204.5,336.492 204.666,343.492 204.5,350.5C 211.833,350.5 219.167,350.5 226.5,350.5C 226.334,343.492 226.5,336.492 227,329.5C 231.667,322.833 236.333,322.833 241,329.5C 241.667,349.167 241.667,368.833 241,388.5C 238.774,392.861 235.274,394.361 230.5,393C 228.951,391.786 227.785,390.286 227,388.5C 226.5,380.841 226.334,373.174 226.5,365.5C 219.167,365.5 211.833,365.5 204.5,365.5C 204.666,373.174 204.5,380.841 204,388.5C 199.7,394.664 195.033,394.997 190,389.5C 189.333,369.167 189.333,348.833 190,328.5C 191.397,326.93 192.897,325.596 194.5,324.5 Z"/></g>
<g><path style="opacity:1" fill="#040404" d="M 284.5,324.5 C 311.043,324.212 324.543,337.212 325,363.5C 319.832,385.502 305.998,395.336 283.5,393C 264.31,386.788 255.477,373.621 257,353.5C 260.569,338.433 269.736,328.766 284.5,324.5 Z"/></g>
<g><path style="opacity:1" fill="#040405" d="M 368.5,324.5 C 396.719,324.549 409.886,338.549 408,366.5C 401.964,386.45 388.464,395.284 367.5,393C 346.911,386.346 338.077,372.179 341,350.5C 345.853,337.144 355.02,328.477 368.5,324.5 Z"/></g>
<g><path style="opacity:1" fill="#010101" d="M 429.5,324.5 C 433.426,324.047 436.592,325.38 439,328.5C 439.5,345.163 439.667,361.83 439.5,378.5C 444.179,378.334 448.845,378.501 453.5,379C 458.143,381.072 459.643,384.572 458,389.5C 456.786,391.049 455.286,392.215 453.5,393C 445.5,393.667 437.5,393.667 429.5,393C 427.667,392.5 426.5,391.333 426,389.5C 425.333,369.167 425.333,348.833 426,328.5C 427.376,327.295 428.542,325.962 429.5,324.5 Z"/></g>
<g><path style="opacity:1" fill="#e4e9ee" d="M 286.5,339.5 C 302.978,339.144 310.812,347.144 310,363.5C 305.013,376.41 295.846,380.91 282.5,377C 271.702,370.249 268.869,361.082 274,349.5C 277.191,344.837 281.358,341.503 286.5,339.5 Z"/></g>
<g><path style="opacity:1" fill="#e4e8ed" d="M 370.5,339.5 C 386.959,339.125 394.792,347.125 394,363.5C 389.659,375.426 381.159,380.259 368.5,378C 356.56,372.282 352.727,363.115 357,350.5C 360.213,345.107 364.713,341.441 370.5,339.5 Z"/></g>
<g><path style="opacity:1" fill="#90dcb5" d="M 60.5,433.5 C 190.5,433.333 320.5,433.5 450.5,434C 462.075,437.24 470.242,444.406 475,455.5C 475.495,457.473 475.662,459.473 475.5,461.5C 328.833,461.5 182.167,461.5 35.5,461.5C 36.2192,452.567 40.2192,445.4 47.5,440C 51.6467,437.26 55.98,435.093 60.5,433.5 Z"/></g>
<g><path style="opacity:0.999" fill="#fbd599" d="M 367.5,504.5 C 361.167,504.5 354.833,504.5 348.5,504.5C 348.456,500.91 346.789,498.41 343.5,497C 241.833,496.667 140.167,496.333 38.5,496C 36.6667,495.5 35.5,494.333 35,492.5C 34.5006,487.177 34.334,481.844 34.5,476.5C 181.833,476.5 329.167,476.5 476.5,476.5C 476.666,481.844 476.499,487.177 476,492.5C 475.5,494.333 474.333,495.5 472.5,496C 439.167,496.333 405.833,496.667 372.5,497C 369.72,498.913 368.053,501.413 367.5,504.5 Z"/></g>
</svg>
