<?xml version="1.0" encoding="UTF-8"?>
<!DOCTYPE svg PUBLIC "-//W3C//DTD SVG 1.1//EN" "http://www.w3.org/Graphics/SVG/1.1/DTD/svg11.dtd">
<svg xmlns="http://www.w3.org/2000/svg" version="1.1" width="512px" height="512px" style="shape-rendering:geometricPrecision; text-rendering:geometricPrecision; image-rendering:optimizeQuality; fill-rule:evenodd; clip-rule:evenodd" xmlns:xlink="http://www.w3.org/1999/xlink">
<g><path style="opacity:1" fill="#010101" d="M 130.5,-0.5 C 213.833,-0.5 297.167,-0.5 380.5,-0.5C 400.939,7.37511 408.439,22.0418 403,43.5C 399.486,52.8511 392.986,58.8511 383.5,61.5C 383.667,92.8351 383.5,124.168 383,155.5C 379.849,175.133 371.849,192.466 359,207.5C 342.811,221.599 326.811,235.932 311,250.5C 309.051,254.312 309.385,257.979 312,261.5C 327.667,275.5 343.333,289.5 359,303.5C 371.849,318.534 379.849,335.867 383,355.5C 383.5,386.832 383.667,418.165 383.5,449.5C 392.986,452.149 399.486,458.149 403,467.5C 408.439,488.958 400.939,503.625 380.5,511.5C 297.167,511.5 213.833,511.5 130.5,511.5C 110.061,503.625 102.561,488.958 108,467.5C 111.514,458.149 118.014,452.149 127.5,449.5C 127.333,418.165 127.5,386.832 128,355.5C 131.151,335.867 139.151,318.534 152,303.5C 168.189,289.401 184.189,275.068 200,260.5C 201.949,256.688 201.615,253.021 199,249.5C 183.333,235.5 167.667,221.5 152,207.5C 139.151,192.466 131.151,175.133 128,155.5C 127.5,124.168 127.333,92.8351 127.5,61.5C 118.014,58.8511 111.514,52.8511 108,43.5C 102.561,22.0418 110.061,7.37511 130.5,-0.5 Z"/></g>
<g><path style="opacity:1" fill="#425760" d="M 136.5,20.5 C 215.501,20.3333 294.501,20.5 373.5,21C 382.775,23.8061 385.275,29.6395 381,38.5C 379.065,40.1022 376.899,41.2689 374.5,42C 294.833,42.6667 215.167,42.6667 135.5,42C 127.846,38.0373 126.013,32.204 130,24.5C 132.095,22.8753 134.261,21.5419 136.5,20.5 Z"/></g>
<g><path style="opacity:1" fill="#eaedef" d="M 150.5,430.5 C 149.503,408.673 149.169,386.673 149.5,364.5C 149.959,350.623 154.126,337.956 162,326.5C 167.468,320.031 173.301,313.864 179.5,308C 192.596,297.575 205.096,286.408 217,274.5C 225.667,261.833 225.667,249.167 217,236.5C 199.667,220.5 182.333,204.5 165,188.5C 155.944,176.338 150.61,162.671 149,147.5C 148.5,119.502 148.333,91.502 148.5,63.5C 219.833,63.5 291.167,63.5 362.5,63.5C 362.667,91.502 362.5,119.502 362,147.5C 360.39,162.671 355.056,176.338 346,188.5C 328.667,204.5 311.333,220.5 294,236.5C 285.402,249.137 285.402,261.804 294,274.5C 311.333,290.5 328.667,306.5 346,322.5C 355.268,334.968 360.602,348.968 362,364.5C 362.667,384.167 362.667,403.833 362,423.5C 328.799,392.631 295.299,362.131 261.5,332C 257.5,330 253.5,330 249.5,332C 216.632,365.035 183.632,397.868 150.5,430.5 Z"/></g>
<g><path style="opacity:1" fill="#010100" d="M 197.5,170.5 C 236.168,170.333 274.835,170.5 313.5,171C 319.987,175.411 321.153,180.911 317,187.5C 298.5,206 280,224.5 261.5,243C 257.471,244.913 253.471,244.913 249.5,243C 229.971,223.805 210.805,204.305 192,184.5C 191.333,181.833 191.333,179.167 192,176.5C 194.04,174.63 195.873,172.63 197.5,170.5 Z"/></g>
<g><path style="opacity:1" fill="#fdbf06" d="M 228.5,192.5 C 246.329,191.338 264.329,191.171 282.5,192C 273.652,201.014 264.652,209.848 255.5,218.5C 246.479,209.812 237.479,201.145 228.5,192.5 Z"/></g>
<g><path style="opacity:1" fill="#fec006" d="M 255.5,355.5 C 289.135,385.993 322.801,416.493 356.5,447C 292.5,447.667 228.5,447.667 164.5,447C 195.035,416.632 225.368,386.132 255.5,355.5 Z"/></g>
<g><path style="opacity:1" fill="#74797b" d="M 149.5,364.5 C 149.169,386.673 149.503,408.673 150.5,430.5C 150.217,431.289 149.717,431.956 149,432.5C 148.17,409.663 148.337,386.996 149.5,364.5 Z"/></g>
<g><path style="opacity:1" fill="#425760" d="M 135.5,468.5 C 215.167,468.333 294.834,468.5 374.5,469C 382.969,472.402 385.136,478.235 381,486.5C 378.932,488.562 376.432,489.728 373.5,490C 294.5,490.667 215.5,490.667 136.5,490C 128.031,486.598 125.864,480.765 130,472.5C 132.015,471.303 133.849,469.97 135.5,468.5 Z"/></g>
</svg>
