<?xml version="1.0" encoding="UTF-8"?>
<!DOCTYPE svg PUBLIC "-//W3C//DTD SVG 1.1//EN" "http://www.w3.org/Graphics/SVG/1.1/DTD/svg11.dtd">
<svg xmlns="http://www.w3.org/2000/svg" version="1.1" width="512px" height="512px" style="shape-rendering:geometricPrecision; text-rendering:geometricPrecision; image-rendering:optimizeQuality; fill-rule:evenodd; clip-rule:evenodd" xmlns:xlink="http://www.w3.org/1999/xlink">
<g><path style="opacity:0.987" fill="#1a3a6f" d="M 165.5,15.5 C 234.62,11.3127 288.454,37.646 327,94.5C 329.363,97.893 331.196,101.56 332.5,105.5C 331.99,107.088 330.99,108.255 329.5,109C 320.074,114.795 310.908,120.962 302,127.5C 268.486,67.9982 217.986,44.4982 150.5,57C 89.1728,76.8411 56.5062,119.008 52.5,183.5C 55.3211,238.683 81.3211,278.516 130.5,303C 188.394,324.756 238.894,313.59 282,269.5C 310.334,234.846 320.001,195.513 311,151.5C 321.493,143.92 332.159,136.586 343,129.5C 359.446,182.604 352.779,232.604 323,279.5C 322.035,283.782 322.702,287.782 325,291.5C 341.5,308 358,324.5 374.5,341C 362.667,351.5 351.5,362.667 341,374.5C 324.5,358 308,341.5 291.5,325C 287.782,322.702 283.782,322.035 279.5,323C 229.311,354.565 176.311,360.231 120.5,340C 62.9891,314.84 28.4891,271.34 17,209.5C 8.92286,137.173 34.7562,80.6732 94.5,40C 116.514,26.7187 140.181,18.552 165.5,15.5 Z"/></g>
<g><path style="opacity:0.968" fill="#f88124" d="M 373.5,73.5 C 385.884,73.8842 392.884,80.2176 394.5,92.5C 391.515,107.629 382.515,113.129 367.5,109C 366.069,108.535 364.903,107.701 364,106.5C 333.971,127.362 303.804,148.029 273.5,168.5C 273.692,188.75 264.025,195.917 244.5,190C 238.858,185.715 235.858,180.049 235.5,173C 222.495,168.164 209.495,163.33 196.5,158.5C 193.333,160.585 189.999,162.418 186.5,164C 182.577,164.793 178.744,164.626 175,163.5C 162.5,179.333 150,195.167 137.5,211C 142.542,218.503 142.376,226.003 137,233.5C 128.258,240.93 119.091,241.43 109.5,235C 105.239,229.981 103.406,224.148 104,217.5C 90.6304,209.301 77.1304,201.301 63.5,193.5C 62.2739,189.251 61.6073,184.917 61.5,180.5C 77.811,189.076 93.9777,198.076 110,207.5C 115.983,203.571 122.483,202.071 129.5,203C 141.333,187.833 153.167,172.667 165,157.5C 159.368,145.063 162.535,135.563 174.5,129C 189.608,126.434 198.275,132.767 200.5,148C 213.411,152.637 226.244,157.47 239,162.5C 247.539,155.154 256.705,154.154 266.5,159.5C 296.5,139.167 326.5,118.833 356.5,98.5C 355.567,85.2919 361.234,76.9586 373.5,73.5 Z"/></g>
<g><path style="opacity:0.991" fill="#1a3b6f" d="M 383.5,346.5 C 389.929,345.698 395.929,346.864 401.5,350C 430.667,379.167 459.833,408.333 489,437.5C 495.146,446.953 497.146,457.286 495,468.5C 487.69,489.745 472.856,498.579 450.5,495C 447.007,494.058 443.674,492.725 440.5,491C 410.028,461.528 379.861,431.695 350,401.5C 346.194,394.829 345.527,387.829 348,380.5C 358.791,367.872 370.624,356.538 383.5,346.5 Z"/></g>
</svg>
