<?xml version="1.0" encoding="UTF-8"?>
<!DOCTYPE svg PUBLIC "-//W3C//DTD SVG 1.1//EN" "http://www.w3.org/Graphics/SVG/1.1/DTD/svg11.dtd">
<svg xmlns="http://www.w3.org/2000/svg" version="1.1" width="512px" height="512px" style="shape-rendering:geometricPrecision; text-rendering:geometricPrecision; image-rendering:optimizeQuality; fill-rule:evenodd; clip-rule:evenodd" xmlns:xlink="http://www.w3.org/1999/xlink">
<g><path style="opacity:0.997" fill="#dcf4fe" d="M 101.5,-0.5 C 218.167,-0.5 334.833,-0.5 451.5,-0.5C 451.667,68.1675 451.5,136.834 451,205.5C 448.081,211.025 443.581,212.858 437.5,211C 412.003,193.975 384.336,189.308 354.5,197C 310.396,214.33 287.896,246.83 287,294.5C 285.269,296.617 283.102,298.117 280.5,299C 218.834,299.5 157.168,299.667 95.5,299.5C 95.3333,201.833 95.5,104.166 96,6.5C 96.9668,3.37935 98.8001,1.04602 101.5,-0.5 Z"/></g>
<g><path style="opacity:1" fill="#c1e8f3" d="M 451.5,-0.5 C 458.833,-0.5 466.167,-0.5 473.5,-0.5C 476.2,1.04602 478.033,3.37935 479,6.5C 479.667,172.5 479.667,338.5 479,504.5C 478.033,507.621 476.2,509.954 473.5,511.5C 466.167,511.5 458.833,511.5 451.5,511.5C 451.667,463.499 451.5,415.499 451,367.5C 448.735,364.068 445.568,362.068 441.5,361.5C 433.886,365.307 426.219,369.141 418.5,373C 411.948,375.406 405.282,377.406 398.5,379C 395.667,380.5 393.5,382.667 392,385.5C 391.5,427.499 391.333,469.499 391.5,511.5C 382.167,511.5 372.833,511.5 363.5,511.5C 366.34,510.314 368.506,508.314 370,505.5C 370.5,456.834 370.667,408.168 370.5,359.5C 417.181,361.63 445.347,339.964 455,294.5C 456.947,269.154 448.447,248.154 429.5,231.5C 409.104,215.157 386.104,210.324 360.5,217C 321.969,232.544 305.469,261.044 311,302.5C 312.561,308.759 314.727,314.759 317.5,320.5C 243.331,320.833 169.331,320.499 95.5,319.5C 95.5,312.833 95.5,306.167 95.5,299.5C 157.168,299.667 218.834,299.5 280.5,299C 283.102,298.117 285.269,296.617 287,294.5C 287.896,246.83 310.396,214.33 354.5,197C 384.336,189.308 412.003,193.975 437.5,211C 443.581,212.858 448.081,211.025 451,205.5C 451.5,136.834 451.667,68.1675 451.5,-0.5 Z"/></g>
<g><path style="opacity:1" fill="#fed987" d="M 378.5,43.5 C 386.818,45.6531 391.985,50.9864 394,59.5C 394.667,93.5 394.667,127.5 394,161.5C 390.794,169.214 385.294,174.214 377.5,176.5C 310.499,176.667 243.499,176.5 176.5,176C 168.667,173.5 163.5,168.333 161,160.5C 160.333,126.5 160.333,92.5 161,58.5C 163.526,51.3074 168.359,46.474 175.5,44C 243.166,43.5 310.833,43.3333 378.5,43.5 Z"/></g>
<g><path style="opacity:1" fill="#fecd69" d="M 378.5,43.5 C 385.508,43.3337 392.508,43.5004 399.5,44C 407,46.1667 411.833,51 414,58.5C 414.667,92.1667 414.667,125.833 414,159.5C 411.941,167.893 406.775,173.393 398.5,176C 391.508,176.5 384.508,176.666 377.5,176.5C 385.294,174.214 390.794,169.214 394,161.5C 394.667,127.5 394.667,93.5 394,59.5C 391.985,50.9864 386.818,45.6531 378.5,43.5 Z"/></g>
<g><path style="opacity:1" fill="#4d5b5a" d="M 190.5,67.5 C 206.596,67.0304 222.596,67.5304 238.5,69C 243.726,73.2514 243.726,77.5847 238.5,82C 232.956,83.4038 227.29,83.9038 221.5,83.5C 221.667,104.503 221.5,125.503 221,146.5C 218.565,151.224 214.731,152.724 209.5,151C 207.951,149.786 206.785,148.286 206,146.5C 205.5,125.503 205.333,104.503 205.5,83.5C 200.489,83.6659 195.489,83.4993 190.5,83C 185.776,80.5647 184.276,76.7314 186,71.5C 187.397,69.9297 188.897,68.5964 190.5,67.5 Z"/></g>
<g><path style="opacity:1" fill="#4c5b59" d="M 272.5,67.5 C 282.172,67.3335 291.839,67.5002 301.5,68C 308.573,70.0724 313.406,74.5724 316,81.5C 316.667,103.167 316.667,124.833 316,146.5C 313.459,151.069 309.625,152.569 304.5,151C 303.667,150.167 302.833,149.333 302,148.5C 300.549,138.271 300.049,127.938 300.5,117.5C 291.833,117.5 283.167,117.5 274.5,117.5C 274.951,127.938 274.451,138.271 273,148.5C 270.091,151.394 266.591,152.227 262.5,151C 260.951,149.786 259.785,148.286 259,146.5C 258.333,124.833 258.333,103.167 259,81.5C 261.687,74.981 266.187,70.3143 272.5,67.5 Z"/></g>
<g><path style="opacity:1" fill="#4b5a59" d="M 337.5,67.5 C 340.972,67.1262 343.972,68.1262 346.5,70.5C 351.265,78.374 356.265,86.0407 361.5,93.5C 366.944,85.4553 372.278,77.2887 377.5,69C 386.661,66.4911 390.495,69.9911 389,79.5C 383.032,89.6323 376.865,99.6323 370.5,109.5C 376.667,119.833 382.833,130.167 389,140.5C 390.833,149.333 387.333,152.833 378.5,151C 372.213,142.93 366.546,134.43 361.5,125.5C 355.957,134.086 350.291,142.586 344.5,151C 336.381,152.875 332.548,149.708 333,141.5C 339.5,131 346,120.5 352.5,110C 345.874,99.2495 339.374,88.4162 333,77.5C 332.333,75.8333 332.333,74.1667 333,72.5C 334.707,70.9625 336.207,69.2959 337.5,67.5 Z"/></g>
<g><path style="opacity:1" fill="#fad686" d="M 275.5,83.5 C 283.507,83.3336 291.507,83.5003 299.5,84C 300.476,90.0758 300.81,96.2424 300.5,102.5C 291.833,102.5 283.167,102.5 274.5,102.5C 274.209,96.077 274.542,89.7436 275.5,83.5 Z"/></g>
<g><path style="opacity:1" fill="#495959" d="M 157.5,210.5 C 203.835,210.333 250.168,210.5 296.5,211C 302.84,215.084 303.173,219.75 297.5,225C 250.833,225.667 204.167,225.667 157.5,225C 150.899,220.171 150.899,215.338 157.5,210.5 Z"/></g>
<g><path style="opacity:1" fill="#e4646e" d="M 429.5,231.5 C 428.957,231.56 428.624,231.893 428.5,232.5C 444.51,257.365 445.677,283.032 432,309.5C 413.968,337.095 388.468,348.929 355.5,345C 345.451,343.224 336.284,339.391 328,333.5C 327.601,333.728 327.435,334.062 327.5,334.5C 323.688,330.223 320.355,325.557 317.5,320.5C 314.727,314.759 312.561,308.759 311,302.5C 305.469,261.044 321.969,232.544 360.5,217C 386.104,210.324 409.104,215.157 429.5,231.5 Z"/></g>
<g><path style="opacity:1" fill="#df4b56" d="M 429.5,231.5 C 448.447,248.154 456.947,269.154 455,294.5C 445.347,339.964 417.181,361.63 370.5,359.5C 364.971,357.697 359.304,356.03 353.5,354.5C 343.408,349.748 334.741,343.081 327.5,334.5C 327.435,334.062 327.601,333.728 328,333.5C 336.284,339.391 345.451,343.224 355.5,345C 388.468,348.929 413.968,337.095 432,309.5C 445.677,283.032 444.51,257.365 428.5,232.5C 428.624,231.893 428.957,231.56 429.5,231.5 Z"/></g>
<g><path style="opacity:1" fill="#4b5959" d="M 356.5,241.5 C 365.486,240.906 371.986,244.573 376,252.5C 376.667,258.833 376.667,265.167 376,271.5C 369.381,282.932 360.547,285.099 349.5,278C 347.57,275.742 346.07,273.242 345,270.5C 344.333,264.5 344.333,258.5 345,252.5C 347.412,247.252 351.246,243.586 356.5,241.5 Z"/></g>
<g><path style="opacity:1" fill="#4b5959" d="M 398.5,241.5 C 406.372,241.201 409.872,244.868 409,252.5C 395.667,277.833 382.333,303.167 369,328.5C 364.199,332.749 359.866,332.416 356,327.5C 355.333,324.833 355.333,322.167 356,319.5C 368.255,296.657 380.255,273.657 392,250.5C 393.686,247.117 395.853,244.117 398.5,241.5 Z"/></g>
<g><path style="opacity:1" fill="#495959" d="M 156.5,245.5 C 189.502,245.333 222.502,245.5 255.5,246C 260.812,250.572 260.812,255.239 255.5,260C 222.833,260.667 190.167,260.667 157.5,260C 151.205,255.663 150.872,250.829 156.5,245.5 Z"/></g>
<g><path style="opacity:1" fill="#4d5d5d" d="M 158.5,279.5 C 190.502,279.333 222.502,279.5 254.5,280C 259.069,282.541 260.569,286.375 259,291.5C 257.786,293.049 256.286,294.215 254.5,295C 222.167,295.667 189.833,295.667 157.5,295C 150.754,289.512 151.088,284.346 158.5,279.5 Z"/></g>
<g><path style="opacity:1" fill="#4b5959" d="M 398.5,291.5 C 408.758,290.207 415.925,294.207 420,303.5C 421.947,312.633 420.113,320.799 414.5,328C 402.39,334.895 393.556,332.062 388,319.5C 384.373,307.187 387.873,297.853 398.5,291.5 Z"/></g>
<g><path style="opacity:0.999" fill="#aadd96" d="M 95.5,319.5 C 169.331,320.499 243.331,320.833 317.5,320.5C 320.355,325.557 323.688,330.223 327.5,334.5C 334.741,343.081 343.408,349.748 353.5,354.5C 353.5,406.833 353.5,459.167 353.5,511.5C 248.167,511.5 142.833,511.5 37.5,511.5C 35.193,510.023 33.3597,508.023 32,505.5C 31.3333,445.5 31.3333,385.5 32,325.5C 33.2506,322.619 35.4173,320.786 38.5,320C 57.4971,319.5 76.4971,319.333 95.5,319.5 Z"/></g>
<g><path style="opacity:1" fill="#6dc44a" d="M 300.5,353.5 C 299.97,370.129 307.137,382.129 322,389.5C 322.833,407.509 322.666,425.509 321.5,443.5C 312.167,448.167 305.167,455.167 300.5,464.5C 229.17,465.5 157.836,465.833 86.5,465.5C 82.1084,459.968 76.4417,456.135 69.5,454C 67.683,452.2 66.5163,450.034 66,447.5C 65.3333,426.167 65.3333,404.833 66,383.5C 69.0605,378.212 73.5605,374.712 79.5,373C 84.5485,369.285 88.0485,364.452 90,358.5C 91.1667,356.667 92.6667,355.167 94.5,354C 163.166,353.5 231.833,353.333 300.5,353.5 Z"/></g>
<g><path style="opacity:1" fill="#5db33a" d="M 300.5,353.5 C 303.649,353.211 306.649,353.711 309.5,355C 312.409,358.374 314.576,362.207 316,366.5C 320.399,371.947 325.899,375.78 332.5,378C 333.787,379.41 334.954,380.91 336,382.5C 336.667,404.833 336.667,427.167 336,449.5C 334.878,451.624 333.378,453.457 331.5,455C 321.333,457.833 314.833,464.333 312,474.5C 310.833,475.667 309.667,476.833 308.5,478C 237.582,479.66 166.582,479.993 95.5,479C 90.5975,475.835 87.5975,471.335 86.5,465.5C 157.836,465.833 229.17,465.5 300.5,464.5C 305.167,455.167 312.167,448.167 321.5,443.5C 322.666,425.509 322.833,407.509 322,389.5C 307.137,382.129 299.97,370.129 300.5,353.5 Z"/></g>
<g><path style="opacity:1" fill="#82cc64" d="M 353.5,354.5 C 359.304,356.03 364.971,357.697 370.5,359.5C 370.667,408.168 370.5,456.834 370,505.5C 368.506,508.314 366.34,510.314 363.5,511.5C 360.167,511.5 356.833,511.5 353.5,511.5C 353.5,459.167 353.5,406.833 353.5,354.5 Z"/></g>
<g><path style="opacity:1" fill="#dcf4fe" d="M 451.5,511.5 C 431.5,511.5 411.5,511.5 391.5,511.5C 391.333,469.499 391.5,427.499 392,385.5C 393.5,382.667 395.667,380.5 398.5,379C 405.282,377.406 411.948,375.406 418.5,373C 426.219,369.141 433.886,365.307 441.5,361.5C 445.568,362.068 448.735,364.068 451,367.5C 451.5,415.499 451.667,463.499 451.5,511.5 Z"/></g>
<g><path style="opacity:1" fill="#5db33a" d="M 192.5,377.5 C 216.284,375.119 231.784,385.119 239,407.5C 241.74,408.282 244.574,408.782 247.5,409C 253.729,413.171 254.062,417.837 248.5,423C 245.312,424.316 241.978,424.816 238.5,424.5C 233.777,444.043 221.277,454.376 201,455.5C 181.059,453.972 168.559,443.638 163.5,424.5C 157.93,425.584 153.43,423.917 150,419.5C 149.202,410.638 153.369,406.805 162.5,408C 167.35,392.65 177.35,382.484 192.5,377.5 Z"/></g>
<g><path style="opacity:1" fill="#6cc449" d="M 196.5,392.5 C 216.101,392.411 225.268,402.078 224,421.5C 219.613,434.78 210.447,440.613 196.5,439C 183.312,435.138 177.145,426.304 178,412.5C 180.578,402.425 186.744,395.759 196.5,392.5 Z"/></g>
<g><path style="opacity:1" fill="#5db33a" d="M 101.5,408.5 C 112.172,408.333 122.839,408.5 133.5,409C 138.038,410.713 139.538,413.88 138,418.5C 136.833,421 135,422.833 132.5,424C 122.5,424.667 112.5,424.667 102.5,424C 94.9569,419.165 94.6236,413.998 101.5,408.5 Z"/></g>
<g><path style="opacity:1" fill="#5db33a" d="M 268.5,408.5 C 279.172,408.333 289.839,408.5 300.5,409C 307.433,414.421 307.1,419.421 299.5,424C 289.5,424.667 279.5,424.667 269.5,424C 261.957,419.165 261.624,413.998 268.5,408.5 Z"/></g>
</svg>
