<?xml version="1.0" encoding="UTF-8"?>
<!DOCTYPE svg PUBLIC "-//W3C//DTD SVG 1.1//EN" "http://www.w3.org/Graphics/SVG/1.1/DTD/svg11.dtd">
<svg xmlns="http://www.w3.org/2000/svg" version="1.1" width="512px" height="512px" style="shape-rendering:geometricPrecision; text-rendering:geometricPrecision; image-rendering:optimizeQuality; fill-rule:evenodd; clip-rule:evenodd" xmlns:xlink="http://www.w3.org/1999/xlink">
<g><path style="opacity:1" fill="#f7f2f0" d="M 285.5,7.5 C 289.289,8.33303 291.789,10.6664 293,14.5C 293.831,46.6693 293.664,78.6693 292.5,110.5C 243.571,109.339 194.571,109.172 145.5,110C 140.014,115.081 140.347,119.748 146.5,124C 194.167,124.667 241.833,124.667 289.5,124C 290.901,123.59 292.234,123.09 293.5,122.5C 293.5,138.833 293.5,155.167 293.5,171.5C 273.435,181.202 255.435,193.869 239.5,209.5C 208.165,209.333 176.832,209.5 145.5,210C 140.014,215.081 140.347,219.748 146.5,224C 173.336,224.168 200.003,224.668 226.5,225.5C 208.889,250.665 199.222,278.665 197.5,309.5C 180.163,309.333 162.83,309.5 145.5,310C 140.167,314.667 140.167,319.333 145.5,324C 162.83,324.5 180.163,324.667 197.5,324.5C 198.436,328.735 198.769,333.069 198.5,337.5C 196.337,361.892 198.337,385.892 204.5,409.5C 185.164,409.333 165.83,409.5 146.5,410C 141.566,412.665 140.399,416.498 143,421.5C 144.129,423.141 145.629,424.141 147.5,424.5C 168.671,425.167 190.004,425.833 211.5,426.5C 228.108,460.44 253.108,486.106 286.5,503.5C 192.499,503.667 98.4994,503.5 4.5,503C 2.96252,501.293 1.29585,499.793 -0.5,498.5C -0.5,336.5 -0.5,174.5 -0.5,12.5C 1.29585,11.2073 2.96252,9.70733 4.5,8C 98.1661,7.5 191.833,7.33334 285.5,7.5 Z"/></g>
<g><path style="opacity:1" fill="#e5e1e5" d="M 285.5,7.5 C 299.171,7.33343 312.837,7.5001 326.5,8C 328.333,9.16667 329.833,10.6667 331,12.5C 332.481,61.7868 332.981,111.12 332.5,160.5C 319.374,163.368 306.374,167.034 293.5,171.5C 293.5,155.167 293.5,138.833 293.5,122.5C 296.439,118.16 296.106,114.16 292.5,110.5C 293.664,78.6693 293.831,46.6693 293,14.5C 291.789,10.6664 289.289,8.33303 285.5,7.5 Z"/></g>
<g><path style="opacity:1" fill="#f9d234" d="M 105.5,72.5 C 104.5,72.8333 103.833,73.5 103.5,74.5C 94.5,83.1667 85.5,91.8333 76.5,100.5C 73.6802,100.752 71.0135,100.252 68.5,99C 63.6354,95.1514 59.9688,90.4847 57.5,85C 58.5759,78.5902 62.2426,76.2569 68.5,78C 70.3049,78.972 71.9716,80.1387 73.5,81.5C 74.8549,80.8118 75.8549,79.8118 76.5,78.5C 84.1667,71.5 91.5,64.1667 98.5,56.5C 101.667,53.502 105,50.6686 108.5,48C 117.622,47.112 120.789,50.9454 118,59.5C 113.63,63.7022 109.463,68.0355 105.5,72.5 Z"/></g>
<g><path style="opacity:1" fill="#36bcc6" d="M 69.5,55.5 C 72.1393,57.309 74.3059,59.6424 76,62.5C 76.4994,67.8229 76.666,73.1563 76.5,78.5C 75.8549,79.8118 74.8549,80.8118 73.5,81.5C 71.9716,80.1387 70.3049,78.972 68.5,78C 62.2426,76.2569 58.5759,78.5902 57.5,85C 59.9688,90.4847 63.6354,95.1514 68.5,99C 71.0135,100.252 73.6802,100.752 76.5,100.5C 77.6214,107.505 75.2881,112.838 69.5,116.5C 62.825,116.666 56.1583,116.5 49.5,116C 48,114.5 46.5,113 45,111.5C 43.8615,103.097 43.3615,94.5975 43.5,86C 43.3615,77.4025 43.8615,68.9025 45,60.5C 46.5,59 48,57.5 49.5,56C 56.1583,55.5004 62.825,55.3337 69.5,55.5 Z"/></g>
<g><path style="opacity:1" fill="#20abb9" d="M 69.5,55.5 C 79.3478,55.1729 89.0144,55.5062 98.5,56.5C 91.5,64.1667 84.1667,71.5 76.5,78.5C 76.666,73.1563 76.4994,67.8229 76,62.5C 74.3059,59.6424 72.1393,57.309 69.5,55.5 Z"/></g>
<g><path style="opacity:1" fill="#91d2d5" d="M 105.5,72.5 C 105.828,84.0123 105.495,95.3456 104.5,106.5C 104.828,95.6536 104.494,84.9869 103.5,74.5C 103.833,73.5 104.5,72.8333 105.5,72.5 Z"/></g>
<g><path style="opacity:1" fill="#26abb7" d="M 103.5,74.5 C 104.494,84.9869 104.828,95.6536 104.5,106.5C 104.655,111.023 102.655,114.189 98.5,116C 88.8391,116.5 79.1724,116.666 69.5,116.5C 75.2881,112.838 77.6214,107.505 76.5,100.5C 85.5,91.8333 94.5,83.1667 103.5,74.5 Z"/></g>
<g><path style="opacity:1" fill="#c9c0c7" d="M 145.5,80.5 C 155.839,80.3335 166.172,80.5002 176.5,81C 183.167,85.6667 183.167,90.3333 176.5,95C 166.167,95.6667 155.833,95.6667 145.5,95C 140.232,90.1706 140.232,85.3373 145.5,80.5 Z"/></g>
<g><path style="opacity:1" fill="#c9c0c7" d="M 292.5,110.5 C 296.106,114.16 296.439,118.16 293.5,122.5C 292.234,123.09 290.901,123.59 289.5,124C 241.833,124.667 194.167,124.667 146.5,124C 140.347,119.748 140.014,115.081 145.5,110C 194.571,109.172 243.571,109.339 292.5,110.5 Z"/></g>
<g><path style="opacity:1" fill="#fbd231" d="M 104.5,173.5 C 103.833,173.5 103.5,173.833 103.5,174.5C 94.5,183.167 85.5,191.833 76.5,200.5C 73.6802,200.752 71.0135,200.252 68.5,199C 63.6354,195.151 59.9688,190.485 57.5,185C 58.5759,178.59 62.2426,176.257 68.5,178C 70.6238,179.122 72.4571,180.622 74,182.5C 75.045,181.627 75.8783,180.627 76.5,179.5C 84.5,172.167 92.1667,164.5 99.5,156.5C 102.631,153.871 105.631,151.038 108.5,148C 117.567,147.062 120.734,150.895 118,159.5C 113.297,164.035 108.797,168.702 104.5,173.5 Z"/></g>
<g><path style="opacity:1" fill="#3abcc6" d="M 69.5,155.5 C 72.5287,157.372 74.6954,160.039 76,163.5C 76.4994,168.823 76.666,174.156 76.5,179.5C 75.8783,180.627 75.045,181.627 74,182.5C 72.4571,180.622 70.6238,179.122 68.5,178C 62.2426,176.257 58.5759,178.59 57.5,185C 59.9688,190.485 63.6354,195.151 68.5,199C 71.0135,200.252 73.6802,200.752 76.5,200.5C 78.0023,207.472 75.669,212.639 69.5,216C 78.1603,216.5 86.8269,216.666 95.5,216.5C 81.3393,217.661 67.0059,217.827 52.5,217C 48.3197,215.998 45.4864,213.498 44,209.5C 43.3333,193.833 43.3333,178.167 44,162.5C 45.5,159.667 47.6667,157.5 50.5,156C 56.8246,155.5 63.1579,155.334 69.5,155.5 Z"/></g>
<g><path style="opacity:1" fill="#2facb5" d="M 69.5,155.5 C 79.5522,155.216 89.5522,155.55 99.5,156.5C 92.1667,164.5 84.5,172.167 76.5,179.5C 76.666,174.156 76.4994,168.823 76,163.5C 74.6954,160.039 72.5287,157.372 69.5,155.5 Z"/></g>
<g><path style="opacity:1" fill="#5591d6" d="M 332.5,160.5 C 334.5,160.5 336.5,160.5 338.5,160.5C 412.276,173.44 457.776,216.44 475,289.5C 483.707,361.912 457.207,417.079 395.5,455C 377.665,464.112 358.999,470.279 339.5,473.5C 337.167,473.5 334.833,473.5 332.5,473.5C 296.304,466.903 265.304,450.57 239.5,424.5C 235.137,419.142 230.803,413.809 226.5,408.5C 211.869,386.907 202.535,363.24 198.5,337.5C 198.769,333.069 198.436,328.735 197.5,324.5C 197.5,319.5 197.5,314.5 197.5,309.5C 199.222,278.665 208.889,250.665 226.5,225.5C 230.803,220.191 235.137,214.858 239.5,209.5C 255.435,193.869 273.435,181.202 293.5,171.5C 306.374,167.034 319.374,163.368 332.5,160.5 Z"/></g>
<g><path style="opacity:1" fill="#1575cb" d="M 511.5,299.5 C 511.5,311.167 511.5,322.833 511.5,334.5C 503.215,389.916 474.549,431.082 425.5,458C 398.266,471.214 369.599,476.38 339.5,473.5C 358.999,470.279 377.665,464.112 395.5,455C 457.207,417.079 483.707,361.912 475,289.5C 457.776,216.44 412.276,173.44 338.5,160.5C 391.308,156.169 435.808,173.169 472,211.5C 493.961,236.881 507.127,266.214 511.5,299.5 Z"/></g>
<g><path style="opacity:1" fill="#92d2d6" d="M 103.5,174.5 C 103.5,173.833 103.833,173.5 104.5,173.5C 105.833,184.833 105.833,196.167 104.5,207.5C 104.828,196.321 104.495,185.321 103.5,174.5 Z"/></g>
<g><path style="opacity:1" fill="#28abb7" d="M 103.5,174.5 C 104.495,185.321 104.828,196.321 104.5,207.5C 103.833,212.833 100.833,215.833 95.5,216.5C 86.8269,216.666 78.1603,216.5 69.5,216C 75.669,212.639 78.0023,207.472 76.5,200.5C 85.5,191.833 94.5,183.167 103.5,174.5 Z"/></g>
<g><path style="opacity:1" fill="#c9c0c7" d="M 146.5,180.5 C 156.506,180.334 166.506,180.5 176.5,181C 182.729,185.171 183.062,189.837 177.5,195C 166.833,195.667 156.167,195.667 145.5,195C 140.003,189.683 140.336,184.85 146.5,180.5 Z"/></g>
<g><path style="opacity:1" fill="#e4e0e5" d="M 341.5,197.5 C 398.204,194.103 439.371,217.77 465,268.5C 485.04,323.169 473.873,370.335 431.5,410C 405.003,431.114 375.003,439.947 341.5,436.5C 383.413,429.584 414.079,407.251 433.5,369.5C 439.963,366.919 441.63,362.586 438.5,356.5C 442.613,346.35 444.947,335.683 445.5,324.5C 452.948,321.745 454.281,317.245 449.5,311C 447.323,309.798 444.989,309.298 442.5,309.5C 443.209,308.596 444.209,308.263 445.5,308.5C 445.165,303.823 444.665,299.156 444,294.5C 442.721,288.541 440.887,282.874 438.5,277.5C 442.205,269.909 439.871,265.576 431.5,264.5C 431.804,263.85 432.137,263.183 432.5,262.5C 412.967,225.885 382.634,204.218 341.5,197.5 Z"/></g>
<g><path style="opacity:1" fill="#f7f2f0" d="M 341.5,197.5 C 382.634,204.218 412.967,225.885 432.5,262.5C 432.137,263.183 431.804,263.85 431.5,264.5C 425.07,266.362 423.237,270.362 426,276.5C 429.827,280.162 433.994,280.496 438.5,277.5C 440.887,282.874 442.721,288.541 444,294.5C 444.665,299.156 445.165,303.823 445.5,308.5C 444.209,308.263 443.209,308.596 442.5,309.5C 435.783,312.612 434.783,317.112 439.5,323C 441.345,324.128 443.345,324.628 445.5,324.5C 444.947,335.683 442.613,346.35 438.5,356.5C 433.308,352.036 428.808,352.703 425,358.5C 424.28,364.944 427.113,368.61 433.5,369.5C 414.079,407.251 383.413,429.584 341.5,436.5C 286.763,427.933 251.93,396.933 237,343.5C 227.528,286.525 247.028,242.692 295.5,212C 309.806,203.842 325.139,199.009 341.5,197.5 Z"/></g>
<g><path style="opacity:1" fill="#c8c0c7" d="M 239.5,209.5 C 235.137,214.858 230.803,220.191 226.5,225.5C 200.003,224.668 173.336,224.168 146.5,224C 140.347,219.748 140.014,215.081 145.5,210C 176.832,209.5 208.165,209.333 239.5,209.5 Z"/></g>
<g><path style="opacity:1" fill="#bab0ba" d="M 350.5,219.5 C 359.33,218.162 362.83,221.829 361,230.5C 355.833,236.092 351.167,235.759 347,229.5C 346.333,227.5 346.333,225.5 347,223.5C 348.376,222.295 349.542,220.962 350.5,219.5 Z"/></g>
<g><path style="opacity:1" fill="#bab0ba" d="M 305.5,231.5 C 315.855,231.038 318.855,235.538 314.5,245C 305.961,248.451 301.794,245.618 302,236.5C 302.997,234.677 304.164,233.01 305.5,231.5 Z"/></g>
<g><path style="opacity:1" fill="#bab0ba" d="M 396.5,231.5 C 404.164,230.666 407.664,234 407,241.5C 403.196,247.377 398.529,248.044 393,243.5C 391.593,238.556 392.759,234.556 396.5,231.5 Z"/></g>
<g><path style="opacity:1" fill="#5691d5" d="M 362.5,301.5 C 357.937,299.466 353.27,299.133 348.5,300.5C 347.504,285.342 347.17,270.009 347.5,254.5C 348.422,250.917 350.756,249.25 354.5,249.5C 357.791,249.279 360.291,250.613 362,253.5C 362.5,269.497 362.667,285.497 362.5,301.5 Z"/></g>
<g><path style="opacity:1" fill="#fca631" d="M 68.5,255.5 C 72.1468,256.983 74.6468,259.65 76,263.5C 76.6667,278.5 76.6667,293.5 76,308.5C 74.9226,311.913 72.7559,314.413 69.5,316C 78.4938,316.5 87.4938,316.666 96.5,316.5C 81.6723,317.661 66.6723,317.828 51.5,317C 47.763,315.719 45.263,313.219 44,309.5C 43.3333,293.833 43.3333,278.167 44,262.5C 45.5,259.667 47.6667,257.5 50.5,256C 56.4908,255.501 62.4908,255.334 68.5,255.5 Z"/></g>
<g><path style="opacity:1" fill="#f98824" d="M 68.5,255.5 C 78.1724,255.334 87.8391,255.5 97.5,256C 100.333,257.5 102.5,259.667 104,262.5C 104.667,278.5 104.667,294.5 104,310.5C 102.52,313.817 100.02,315.817 96.5,316.5C 87.4938,316.666 78.4938,316.5 69.5,316C 72.7559,314.413 74.9226,311.913 76,308.5C 76.6667,293.5 76.6667,278.5 76,263.5C 74.6468,259.65 72.1468,256.983 68.5,255.5 Z"/></g>
<g><path style="opacity:1" fill="#a8c1e0" d="M 347.5,254.5 C 347.17,270.009 347.504,285.342 348.5,300.5C 348.158,301.338 347.492,301.672 346.5,301.5C 346.17,285.658 346.504,269.991 347.5,254.5 Z"/></g>
<g><path style="opacity:1" fill="#bbb1bb" d="M 273.5,264.5 C 279.629,263.555 283.296,266.055 284.5,272C 283.008,278.418 279.008,280.751 272.5,279C 267.003,273.683 267.336,268.85 273.5,264.5 Z"/></g>
<g><path style="opacity:1" fill="#bbb1bb" d="M 431.5,264.5 C 439.871,265.576 442.205,269.909 438.5,277.5C 433.994,280.496 429.827,280.162 426,276.5C 423.237,270.362 425.07,266.362 431.5,264.5 Z"/></g>
<g><path style="opacity:1" fill="#cac1c8" d="M 146.5,280.5 C 156.506,280.334 166.506,280.5 176.5,281C 183.311,286.33 182.977,291.33 175.5,296C 166.167,296.667 156.833,296.667 147.5,296C 139.957,291.165 139.624,285.998 146.5,280.5 Z"/></g>
<g><path style="opacity:1" fill="#fa9929" d="M 362.5,301.5 C 370.131,306.436 373.131,313.436 371.5,322.5C 369.45,326.061 366.783,329.228 363.5,332C 359.687,333.772 355.687,334.605 351.5,334.5C 338.433,329.472 334.6,320.472 340,307.5C 342.037,305.294 344.203,303.294 346.5,301.5C 347.492,301.672 348.158,301.338 348.5,300.5C 353.27,299.133 357.937,299.466 362.5,301.5 Z"/></g>
<g><path style="opacity:1" fill="#c9c0c7" d="M 197.5,309.5 C 197.5,314.5 197.5,319.5 197.5,324.5C 180.163,324.667 162.83,324.5 145.5,324C 140.167,319.333 140.167,314.667 145.5,310C 162.83,309.5 180.163,309.333 197.5,309.5 Z"/></g>
<g><path style="opacity:1" fill="#bbb1bb" d="M 260.5,309.5 C 267.253,307.772 271.253,310.272 272.5,317C 270.37,324.479 265.87,326.312 259,322.5C 255.513,317.754 256.013,313.42 260.5,309.5 Z"/></g>
<g><path style="opacity:1" fill="#bbb1ba" d="M 442.5,309.5 C 444.989,309.298 447.323,309.798 449.5,311C 454.281,317.245 452.948,321.745 445.5,324.5C 443.345,324.628 441.345,324.128 439.5,323C 434.783,317.112 435.783,312.612 442.5,309.5 Z"/></g>
<g><path style="opacity:1" fill="#fde166" d="M 371.5,322.5 C 377.975,332.769 384.475,343.102 391,353.5C 391.667,355.833 391.667,358.167 391,360.5C 385.516,365.164 379.35,367.997 372.5,369C 364.599,358.027 357.599,346.527 351.5,334.5C 355.687,334.605 359.687,333.772 363.5,332C 366.783,329.228 369.45,326.061 371.5,322.5 Z"/></g>
<g><path style="opacity:1" fill="#e2dfe4" d="M 198.5,337.5 C 202.535,363.24 211.869,386.907 226.5,408.5C 219.352,409.492 212.019,409.825 204.5,409.5C 198.337,385.892 196.337,361.892 198.5,337.5 Z"/></g>
<g><path style="opacity:1" fill="#bbb2bb" d="M 274.5,353.5 C 282.409,354.207 285.242,358.207 283,365.5C 276.063,371.68 271.229,370.347 268.5,361.5C 269.357,357.977 271.357,355.31 274.5,353.5 Z"/></g>
<g><path style="opacity:1" fill="#bbb1bb" d="M 438.5,356.5 C 441.63,362.586 439.963,366.919 433.5,369.5C 427.113,368.61 424.28,364.944 425,358.5C 428.808,352.703 433.308,352.036 438.5,356.5 Z"/></g>
<g><path style="opacity:1" fill="#fde165" d="M 68.5,355.5 C 72.1468,356.983 74.6468,359.65 76,363.5C 76.6667,378.5 76.6667,393.5 76,408.5C 75.0206,411.625 73.1873,414.125 70.5,416C 79.1603,416.5 87.8269,416.666 96.5,416.5C 81.6723,417.661 66.6723,417.828 51.5,417C 47.6667,415.833 45.1667,413.333 44,409.5C 43.3333,393.833 43.3333,378.167 44,362.5C 45.5629,359.272 48.0629,357.105 51.5,356C 57.1569,355.501 62.8236,355.334 68.5,355.5 Z"/></g>
<g><path style="opacity:1" fill="#fdd330" d="M 68.5,355.5 C 77.8393,355.334 87.1726,355.5 96.5,356C 99.913,357.077 102.413,359.244 104,362.5C 104.667,378.5 104.667,394.5 104,410.5C 102.52,413.817 100.02,415.817 96.5,416.5C 87.8269,416.666 79.1603,416.5 70.5,416C 73.1873,414.125 75.0206,411.625 76,408.5C 76.6667,393.5 76.6667,378.5 76,363.5C 74.6468,359.65 72.1468,356.983 68.5,355.5 Z"/></g>
<g><path style="opacity:1" fill="#cac1c8" d="M 146.5,380.5 C 156.506,380.334 166.506,380.5 176.5,381C 183.411,386.522 183.078,391.522 175.5,396C 165.833,396.667 156.167,396.667 146.5,396C 139.888,390.836 139.888,385.67 146.5,380.5 Z"/></g>
<g><path style="opacity:1" fill="#bbb1bb" d="M 306.5,386.5 C 314.696,386.529 317.863,390.529 316,398.5C 310.837,404.062 306.171,403.729 302,397.5C 301.333,395.5 301.333,393.5 302,391.5C 303.366,389.638 304.866,387.972 306.5,386.5 Z"/></g>
<g><path style="opacity:1" fill="#bbb2bb" d="M 397.5,386.5 C 404.464,386.96 407.63,390.627 407,397.5C 401.62,404.297 396.62,403.964 392,396.5C 391.477,391.88 393.31,388.547 397.5,386.5 Z"/></g>
<g><path style="opacity:1" fill="#bab0ba" d="M 350.5,399.5 C 358.661,398.171 362.495,401.505 362,409.5C 357.748,415.653 353.081,415.986 348,410.5C 346.812,406.259 347.645,402.592 350.5,399.5 Z"/></g>
<g><path style="opacity:1" fill="#c8c0c7" d="M 226.5,408.5 C 230.803,413.809 235.137,419.142 239.5,424.5C 208.833,424.5 178.167,424.5 147.5,424.5C 145.629,424.141 144.129,423.141 143,421.5C 140.399,416.498 141.566,412.665 146.5,410C 165.83,409.5 185.164,409.333 204.5,409.5C 212.019,409.825 219.352,409.492 226.5,408.5 Z"/></g>
<g><path style="opacity:0.999" fill="#e4e0e4" d="M 147.5,424.5 C 178.167,424.5 208.833,424.5 239.5,424.5C 265.304,450.57 296.304,466.903 332.5,473.5C 332.87,481.903 332.37,490.236 331,498.5C 329.833,500.333 328.333,501.833 326.5,503C 313.171,503.5 299.837,503.667 286.5,503.5C 253.108,486.106 228.108,460.44 211.5,426.5C 190.004,425.833 168.671,425.167 147.5,424.5 Z"/></g>
</svg>
