<?xml version="1.0" encoding="UTF-8"?>
<!DOCTYPE svg PUBLIC "-//W3C//DTD SVG 1.1//EN" "http://www.w3.org/Graphics/SVG/1.1/DTD/svg11.dtd">
<svg xmlns="http://www.w3.org/2000/svg" version="1.1" width="512px" height="512px" style="shape-rendering:geometricPrecision; text-rendering:geometricPrecision; image-rendering:optimizeQuality; fill-rule:evenodd; clip-rule:evenodd" xmlns:xlink="http://www.w3.org/1999/xlink">
<g><path style="opacity:1" fill="#c9d0d6" d="M 88.5,-0.5 C 96.8333,-0.5 105.167,-0.5 113.5,-0.5C 105.5,8.16667 97.1667,16.5 88.5,24.5C 88.5,16.1667 88.5,7.83333 88.5,-0.5 Z"/></g>
<g><path style="opacity:1" fill="#e3e7ea" d="M 113.5,-0.5 C 189.5,-0.5 265.5,-0.5 341.5,-0.5C 347.739,2.58232 351.573,7.58232 353,14.5C 353.5,26.8288 353.667,39.1622 353.5,51.5C 352.503,123.762 352.17,196.096 352.5,268.5C 303.783,286.062 274.616,320.396 265,371.5C 261.789,402.652 268.622,431.319 285.5,457.5C 217.002,458.499 148.335,458.833 79.5,458.5C 70.5,458.5 61.5,458.5 52.5,458.5C 48.1667,458.5 43.8333,458.5 39.5,458.5C 33.9356,456.105 29.769,452.105 27,446.5C 26.5,327.167 26.3333,207.834 26.5,88.5C 42.0091,88.8295 57.3424,88.4962 72.5,87.5C 81.1764,86.1569 86.1764,81.1569 87.5,72.5C 88.4964,56.6754 88.8297,40.6754 88.5,24.5C 97.1667,16.5 105.5,8.16667 113.5,-0.5 Z"/></g>
<g><path style="opacity:1" fill="#457393" d="M 86.5,0.5 C 87.493,8.98389 87.8264,17.6506 87.5,26.5C 66.8333,46.5 46.5,66.8333 26.5,87.5C 18.1667,87.5 9.83333,87.5 1.5,87.5C 21.465,67.0347 41.6317,46.7014 62,26.5C 62.4643,25.9056 62.631,25.2389 62.5,24.5C 70.1667,16.1667 78.1667,8.16667 86.5,0.5 Z"/></g>
<g><path style="opacity:1" fill="#a8becc" d="M 86.5,0.5 C 86.5,0.166667 86.5,-0.166667 86.5,-0.5C 87.1667,-0.5 87.8333,-0.5 88.5,-0.5C 88.5,7.83333 88.5,16.1667 88.5,24.5C 88.8297,40.6754 88.4964,56.6754 87.5,72.5C 87.5,57.1667 87.5,41.8333 87.5,26.5C 87.8264,17.6506 87.493,8.98389 86.5,0.5 Z"/></g>
<g><path style="opacity:1" fill="#5d8ea9" d="M 87.5,26.5 C 87.5,41.8333 87.5,57.1667 87.5,72.5C 86.1764,81.1569 81.1764,86.1569 72.5,87.5C 57.1667,87.5 41.8333,87.5 26.5,87.5C 46.5,66.8333 66.8333,46.5 87.5,26.5 Z"/></g>
<g><path style="opacity:1" fill="#5a829f" d="M 62.5,24.5 C 62.631,25.2389 62.4643,25.9056 62,26.5C 41.6317,46.7014 21.465,67.0347 1.5,87.5C 0.833333,87.5 0.166667,87.5 -0.5,87.5C -0.5,87.1667 -0.5,86.8333 -0.5,86.5C 20.5,65.8333 41.5,45.1667 62.5,24.5 Z"/></g>
<g><path style="opacity:1" fill="#a9b0bb" d="M 353.5,51.5 C 367.212,51.1155 380.879,51.6155 394.5,53C 400.94,55.773 404.774,60.6063 406,67.5C 406.5,133.499 406.667,199.499 406.5,265.5C 403.43,265.632 400.43,265.299 397.5,264.5C 382.283,263.661 367.283,264.994 352.5,268.5C 352.17,196.096 352.503,123.762 353.5,51.5 Z"/></g>
<g><path style="opacity:1" fill="#cad0d7" d="M -0.5,87.5 C 0.166667,87.5 0.833333,87.5 1.5,87.5C 9.83333,87.5 18.1667,87.5 26.5,87.5C 41.8333,87.5 57.1667,87.5 72.5,87.5C 57.3424,88.4962 42.0091,88.8295 26.5,88.5C 26.3333,207.834 26.5,327.167 27,446.5C 29.769,452.105 33.9356,456.105 39.5,458.5C 30.1607,458.666 20.8274,458.5 11.5,458C 5.64984,455.981 1.64984,452.148 -0.5,446.5C -0.5,326.833 -0.5,207.167 -0.5,87.5 Z"/></g>
<g><path style="opacity:1" fill="#395b74" d="M 49.5,140.5 C 133.501,140.333 217.501,140.5 301.5,141C 308.16,143.49 309.993,147.99 307,154.5C 305.681,156.487 303.848,157.654 301.5,158C 217.5,158.667 133.5,158.667 49.5,158C 41.542,152.086 41.542,146.252 49.5,140.5 Z"/></g>
<g><path style="opacity:1" fill="#3a5c74" d="M 50.5,184.5 C 104.834,184.333 159.168,184.5 213.5,185C 220.088,187.582 221.922,192.082 219,198.5C 217.681,200.487 215.848,201.654 213.5,202C 158.833,202.667 104.167,202.667 49.5,202C 41.4484,195.74 41.7817,189.906 50.5,184.5 Z"/></g>
<g><path style="opacity:1" fill="#3a5c74" d="M 253.5,184.5 C 269.503,184.333 285.503,184.5 301.5,185C 308.148,187.47 309.981,191.97 307,198.5C 305.681,200.487 303.848,201.654 301.5,202C 285.167,202.667 268.833,202.667 252.5,202C 244.311,195.647 244.644,189.813 253.5,184.5 Z"/></g>
<g><path style="opacity:1" fill="#3a5c74" d="M 50.5,228.5 C 66.5035,228.333 82.5035,228.5 98.5,229C 104.178,230.857 106.345,234.691 105,240.5C 103.833,243 102,244.833 99.5,246C 82.8333,246.667 66.1667,246.667 49.5,246C 41.4209,239.84 41.7542,234.007 50.5,228.5 Z"/></g>
<g><path style="opacity:1" fill="#395b74" d="M 138.5,228.5 C 192.834,228.333 247.168,228.5 301.5,229C 308.181,231.528 310.014,236.028 307,242.5C 305.786,244.049 304.286,245.215 302.5,246C 247.5,246.667 192.5,246.667 137.5,246C 132.845,243.103 131.345,238.937 133,233.5C 134.73,231.598 136.563,229.931 138.5,228.5 Z"/></g>
<g><path style="opacity:1" fill="#4b88da" d="M 397.5,264.5 C 337.166,276 301.333,312 290,372.5C 286.408,435.177 313.241,479.01 370.5,504C 377.692,506.505 385.025,508.505 392.5,510C 386.175,510.5 379.842,510.666 373.5,510.5C 336.329,505.592 306.996,487.925 285.5,457.5C 268.622,431.319 261.789,402.652 265,371.5C 274.616,320.396 303.783,286.062 352.5,268.5C 367.283,264.994 382.283,263.661 397.5,264.5 Z"/></g>
<g><path style="opacity:0.998" fill="#5e9cea" d="M 397.5,264.5 C 400.43,265.299 403.43,265.632 406.5,265.5C 457.108,274.6 490.608,303.6 507,352.5C 508.715,359.259 510.215,365.925 511.5,372.5C 511.5,382.833 511.5,393.167 511.5,403.5C 499.833,463.833 463.833,499.833 403.5,511.5C 393.5,511.5 383.5,511.5 373.5,511.5C 373.5,511.167 373.5,510.833 373.5,510.5C 379.842,510.666 386.175,510.5 392.5,510C 385.025,508.505 377.692,506.505 370.5,504C 313.241,479.01 286.408,435.177 290,372.5C 301.333,312 337.166,276 397.5,264.5 Z"/></g>
<g><path style="opacity:1" fill="#375a72" d="M 48.5,273.5 C 59.8382,273.333 71.1716,273.5 82.5,274C 87.2238,276.435 88.7238,280.269 87,285.5C 86.1667,287.667 84.6667,289.167 82.5,290C 71.5,290.667 60.5,290.667 49.5,290C 41.8732,285.009 41.5399,279.509 48.5,273.5 Z"/></g>
<g><path style="opacity:1" fill="#365972" d="M 119.5,273.5 C 169.168,273.333 218.834,273.5 268.5,274C 275.394,279.841 275.061,285.175 267.5,290C 218.167,290.667 168.833,290.667 119.5,290C 112.856,284.375 112.856,278.875 119.5,273.5 Z"/></g>
<g><path style="opacity:1" fill="#f2f5f7" d="M 398.5,340.5 C 398.217,339.711 397.717,339.044 397,338.5C 396.5,361.164 396.333,383.831 396.5,406.5C 392.563,415.787 387.063,416.787 380,409.5C 379.667,385.833 379.333,362.167 379,338.5C 373.969,344.676 368.636,345.009 363,339.5C 361,336.167 361,332.833 363,329.5C 369.5,323 376,316.5 382.5,310C 385.366,308.543 388.366,308.21 391.5,309C 399.667,315.833 407.167,323.333 414,331.5C 415.266,338.401 412.433,342.401 405.5,343.5C 402.782,343.305 400.449,342.305 398.5,340.5 Z"/></g>
<g><path style="opacity:1" fill="#365972" d="M 48.5,317.5 C 109.834,317.333 171.168,317.5 232.5,318C 237.609,321.366 238.776,325.866 236,331.5C 235.097,332.701 233.931,333.535 232.5,334C 171.167,334.667 109.833,334.667 48.5,334C 41.8987,328.504 41.8987,323.004 48.5,317.5 Z"/></g>
<g><path style="opacity:1" fill="#89b5ee" d="M 398.5,340.5 C 397.833,362.5 397.167,384.5 396.5,406.5C 396.333,383.831 396.5,361.164 397,338.5C 397.717,339.044 398.217,339.711 398.5,340.5 Z"/></g>
<g><path style="opacity:1" fill="#375972" d="M 48.5,361.5 C 68.5028,361.333 88.5028,361.5 108.5,362C 116.088,366.924 116.421,372.257 109.5,378C 89.1667,378.667 68.8333,378.667 48.5,378C 41.8987,372.504 41.8987,367.004 48.5,361.5 Z"/></g>
<g><path style="opacity:1" fill="#385a73" d="M 146.5,361.5 C 152.29,361.096 157.956,361.596 163.5,363C 168.965,368.353 168.632,373.353 162.5,378C 156.833,378.667 151.167,378.667 145.5,378C 141.673,374.692 140.506,370.526 142,365.5C 143.397,363.93 144.897,362.596 146.5,361.5 Z"/></g>
<g><path style="opacity:1" fill="#f1f4f7" d="M 323.5,396.5 C 329.031,396.177 332.864,398.51 335,403.5C 335.333,414.167 335.667,424.833 336,435.5C 336.465,436.931 337.299,438.097 338.5,439C 354.911,440.153 371.411,440.653 388,440.5C 404.589,440.653 421.089,440.153 437.5,439C 438.701,438.097 439.535,436.931 440,435.5C 440.333,424.5 440.667,413.5 441,402.5C 446.667,394.5 452.333,394.5 458,402.5C 458.667,414.167 458.667,425.833 458,437.5C 455.193,448.307 448.36,455.14 437.5,458C 404.5,458.667 371.5,458.667 338.5,458C 327.667,455.167 320.833,448.333 318,437.5C 317.333,425.5 317.333,413.5 318,401.5C 319.73,399.598 321.563,397.931 323.5,396.5 Z"/></g>
<g><path style="opacity:1" fill="#848f9e" d="M 52.5,458.5 C 61.5,458.5 70.5,458.5 79.5,458.5C 79.3334,471.837 79.5001,485.171 80,498.5C 82.327,504.659 86.4937,508.993 92.5,511.5C 83.1667,511.5 73.8333,511.5 64.5,511.5C 58.8522,509.35 55.0188,505.35 53,499.5C 52.5001,485.837 52.3334,472.171 52.5,458.5 Z"/></g>
<g><path style="opacity:1" fill="#a8afbb" d="M 285.5,457.5 C 306.996,487.925 336.329,505.592 373.5,510.5C 373.5,510.833 373.5,511.167 373.5,511.5C 279.833,511.5 186.167,511.5 92.5,511.5C 86.4937,508.993 82.327,504.659 80,498.5C 79.5001,485.171 79.3334,471.837 79.5,458.5C 148.335,458.833 217.002,458.499 285.5,457.5 Z"/></g>
</svg>
