<?xml version="1.0" encoding="UTF-8"?>
<!DOCTYPE svg PUBLIC "-//W3C//DTD SVG 1.1//EN" "http://www.w3.org/Graphics/SVG/1.1/DTD/svg11.dtd">
<svg xmlns="http://www.w3.org/2000/svg" version="1.1" width="512px" height="512px" style="shape-rendering:geometricPrecision; text-rendering:geometricPrecision; image-rendering:optimizeQuality; fill-rule:evenodd; clip-rule:evenodd" xmlns:xlink="http://www.w3.org/1999/xlink">
<g><path style="opacity:1" fill="#dc9600" d="M 202.5,31.5 C 197.857,33.9788 194.357,37.6455 192,42.5C 191.333,87.8333 191.333,133.167 192,178.5C 193.496,184.491 196.996,188.825 202.5,191.5C 196.824,191.666 191.157,191.499 185.5,191C 181,189.167 177.833,186 176,181.5C 175.333,134.833 175.333,88.1667 176,41.5C 177.833,37 181,33.8333 185.5,32C 191.157,31.5006 196.824,31.3339 202.5,31.5 Z"/></g>
<g><path style="opacity:1" fill="#f9b400" d="M 202.5,31.5 C 243.501,31.3333 284.501,31.5 325.5,32C 330,33.8333 333.167,37 335,41.5C 335.667,88.1667 335.667,134.833 335,181.5C 333.167,186 330,189.167 325.5,191C 284.501,191.5 243.501,191.667 202.5,191.5C 196.996,188.825 193.496,184.491 192,178.5C 191.333,133.167 191.333,87.8333 192,42.5C 194.357,37.6455 197.857,33.9788 202.5,31.5 Z"/></g>
<g><path style="opacity:1" fill="#f0efee" d="M 254.5,48.5 C 255.496,63.9911 255.83,79.6578 255.5,95.5C 266.172,95.3335 276.839,95.5002 287.5,96C 276.809,121.736 266.309,147.57 256,173.5C 255.5,158.17 255.333,142.837 255.5,127.5C 244.828,127.667 234.161,127.5 223.5,127C 234.259,100.985 244.593,74.818 254.5,48.5 Z"/></g>
<g><path style="opacity:1" fill="#dc4632" d="M 58.5,159.5 C 53.8566,161.979 50.3566,165.645 48,170.5C 47.3333,216.5 47.3333,262.5 48,308.5C 50.3566,313.355 53.8566,317.021 58.5,319.5C 52.8236,319.666 47.1569,319.499 41.5,319C 37,317.167 33.8333,314 32,309.5C 31.3333,262.833 31.3333,216.167 32,169.5C 33.8333,165 37,161.833 41.5,160C 47.1569,159.501 52.8236,159.334 58.5,159.5 Z"/></g>
<g><path style="opacity:0.999" fill="#f96450" d="M 58.5,159.5 C 92.1667,159.5 125.833,159.5 159.5,159.5C 158.503,171.027 160.336,182.027 165,192.5C 171.365,201.767 180.199,206.433 191.5,206.5C 191.667,240.835 191.5,275.168 191,309.5C 189.167,314 186,317.167 181.5,319C 140.501,319.5 99.5014,319.667 58.5,319.5C 53.8566,317.021 50.3566,313.355 48,308.5C 47.3333,262.5 47.3333,216.5 48,170.5C 50.3566,165.645 53.8566,161.979 58.5,159.5 Z"/></g>
<g><path style="opacity:1" fill="#46aad2" d="M 367.5,159.5 C 367.666,166.175 367.5,172.842 367,179.5C 363.895,197.103 353.395,206.437 335.5,207.5C 335.333,241.168 335.5,274.835 336,308.5C 338.357,313.355 341.857,317.021 346.5,319.5C 340.824,319.666 335.157,319.499 329.5,319C 325,317.167 321.833,314 320,309.5C 319.5,275.168 319.333,240.835 319.5,206.5C 335.236,205.552 345.403,197.552 350,182.5C 351.205,174.881 351.705,167.214 351.5,159.5C 356.833,159.5 362.167,159.5 367.5,159.5 Z"/></g>
<g><path style="opacity:0.999" fill="#64c8ef" d="M 367.5,159.5 C 401.502,159.333 435.502,159.5 469.5,160C 474,161.833 477.167,165 479,169.5C 479.667,216.167 479.667,262.833 479,309.5C 477.167,314 474,317.167 469.5,319C 428.501,319.5 387.501,319.667 346.5,319.5C 341.857,317.021 338.357,313.355 336,308.5C 335.5,274.835 335.333,241.168 335.5,207.5C 353.395,206.437 363.895,197.103 367,179.5C 367.5,172.842 367.666,166.175 367.5,159.5 Z"/></g>
<g><path style="opacity:1" fill="#eeeff0" d="M 406.5,176.5 C 408.017,176.511 409.184,177.177 410,178.5C 416.333,187.167 422.667,195.833 429,204.5C 434.408,221.184 428.908,232.684 412.5,239C 394.882,240.057 385.216,231.724 383.5,214C 383.517,210.617 384.35,207.45 386,204.5C 392.665,195.008 399.498,185.675 406.5,176.5 Z"/></g>
<g><path style="opacity:1" fill="#f0eeee" d="M 110.5,192.5 C 117.831,199.488 122.331,208.155 124,218.5C 124.333,224.833 124.667,231.167 125,237.5C 128.662,227.825 134.662,219.825 143,213.5C 143.667,229.833 143.667,246.167 143,262.5C 136.734,280.887 123.901,289.054 104.5,287C 91.6667,283.5 83.5,275.333 80,262.5C 79.3333,246.167 79.3333,229.833 80,213.5C 88.3375,219.825 94.3375,227.825 98,237.5C 96.7329,220.892 100.9,205.892 110.5,192.5 Z"/></g>
<g><path style="opacity:1" fill="#dc9604" d="M 272.5,226.5 C 251.972,234.381 240.972,249.381 239.5,271.5C 228.833,271.5 218.167,271.5 207.5,271.5C 208.464,246.364 221.13,230.531 245.5,224C 252.167,223.333 258.833,223.333 265.5,224C 268.104,224.39 270.438,225.224 272.5,226.5 Z"/></g>
<g><path style="opacity:1" fill="#f9b402" d="M 272.5,226.5 C 287.238,232.073 297.071,242.406 302,257.5C 303.225,262.085 303.725,266.752 303.5,271.5C 282.167,271.5 260.833,271.5 239.5,271.5C 240.972,249.381 251.972,234.381 272.5,226.5 Z"/></g>
<g><path style="opacity:1" fill="#eeeff0" d="M 374.5,240.5 C 376.017,240.511 377.184,241.177 378,242.5C 384.333,251.167 390.667,259.833 397,268.5C 402.408,285.184 396.908,296.684 380.5,303C 362.882,304.057 353.216,295.724 351.5,278C 351.517,274.617 352.35,271.45 354,268.5C 360.665,259.008 367.498,249.675 374.5,240.5 Z"/></g>
<g><path style="opacity:1" fill="#eeeff0" d="M 438.5,240.5 C 440.017,240.511 441.184,241.177 442,242.5C 448.333,251.167 454.667,259.833 461,268.5C 466.408,285.184 460.908,296.684 444.5,303C 426.882,304.057 417.216,295.724 415.5,278C 415.517,274.617 416.35,271.45 418,268.5C 424.665,259.008 431.498,249.675 438.5,240.5 Z"/></g>
<g><path style="opacity:1" fill="#d2aa82" d="M 207.5,271.5 C 218.167,271.5 228.833,271.5 239.5,271.5C 240.787,293.421 251.454,308.755 271.5,317.5C 269.302,317.875 267.302,318.542 265.5,319.5C 258.833,319.5 252.167,319.5 245.5,319.5C 221.326,312.655 208.659,296.655 207.5,271.5 Z"/></g>
<g><path style="opacity:0.992" fill="#efc79f" d="M 239.5,271.5 C 260.833,271.5 282.167,271.5 303.5,271.5C 302.722,293.725 292.055,309.059 271.5,317.5C 251.454,308.755 240.787,293.421 239.5,271.5 Z"/></g>
<g><path style="opacity:1" fill="#1eaa96" d="M 245.5,319.5 C 252.167,319.5 258.833,319.5 265.5,319.5C 267.302,320.458 269.302,321.125 271.5,321.5C 251.458,330.233 240.791,345.567 239.5,367.5C 228.833,367.5 218.167,367.5 207.5,367.5C 208.659,342.345 221.326,326.345 245.5,319.5 Z"/></g>
<g><path style="opacity:0.991" fill="#3bc7b3" d="M 271.5,321.5 C 292.055,329.941 302.722,345.275 303.5,367.5C 282.167,367.5 260.833,367.5 239.5,367.5C 240.791,345.567 251.458,330.233 271.5,321.5 Z"/></g>
<g><path style="opacity:1" fill="#3b3c3b" d="M 79.5,367.5 C 79.5,404.833 79.5,442.167 79.5,479.5C 74.1667,479.5 68.8333,479.5 63.5,479.5C 63.5,442.167 63.5,404.833 63.5,367.5C 68.8333,367.5 74.1667,367.5 79.5,367.5 Z"/></g>
<g><path style="opacity:1" fill="#4f504f" d="M 79.5,367.5 C 90.1667,367.5 100.833,367.5 111.5,367.5C 111.5,372.833 111.5,378.167 111.5,383.5C 111.5,405.167 111.5,426.833 111.5,448.5C 111.5,458.833 111.5,469.167 111.5,479.5C 100.833,479.5 90.1667,479.5 79.5,479.5C 79.5,442.167 79.5,404.833 79.5,367.5 Z"/></g>
<g><path style="opacity:0.993" fill="#f0c8a0" d="M 111.5,383.5 C 175.5,383.5 239.5,383.5 303.5,383.5C 304.737,391.188 302.071,397.021 295.5,401C 271.946,406.411 248.279,411.244 224.5,415.5C 224.48,422.621 227.813,427.454 234.5,430C 254.817,431.928 275.15,431.928 295.5,430C 330.167,425.667 364.833,421.333 399.5,417C 404.558,415.99 409.391,416.49 414,418.5C 415.504,422.039 415.837,425.705 415,429.5C 413.891,431.815 412.057,433.315 409.5,434C 361.212,448.489 312.879,462.822 264.5,477C 257.167,477.667 249.833,477.667 242.5,477C 198.853,467.338 155.186,457.838 111.5,448.5C 111.5,426.833 111.5,405.167 111.5,383.5 Z"/></g>
</svg>
