<?xml version="1.0" encoding="UTF-8"?>
<svg version="1.1" xmlns="http://www.w3.org/2000/svg" width="1600" height="1600">
<path d="M0 0 C89.04493573 -0.04949914 178.08987361 -0.09667356 277.45198059 -0.12702942 C278.83427367 -0.12744777 280.21656675 -0.12786613 281.59885983 -0.12828448 C310.6140836 -0.1370527 339.62930752 -0.14520283 368.64453167 -0.15263903 C383.2200192 -0.15637519 397.7955067 -0.16023011 412.37099417 -0.16419732 C414.56964007 -0.16479507 416.76828598 -0.16538943 418.96693189 -0.16598364 C452.81965216 -0.17516269 486.67236919 -0.18688741 520.52508545 -0.20599365 C521.61673243 -0.2066097 521.61673243 -0.2066097 522.73043289 -0.20723819 C534.46402014 -0.21387523 546.19760726 -0.22072609 557.93119437 -0.22760532 C591.73097301 -0.24741839 625.53074916 -0.26564829 659.33053303 -0.27341938 C660.37332036 -0.27366029 660.37332036 -0.27366029 661.4371741 -0.27390606 C676.69899485 -0.2774035 691.96081563 -0.280088 707.22263666 -0.28200295 C713.36365285 -0.2827878 719.50466903 -0.28368967 725.6456852 -0.28463173 C726.65384096 -0.28478215 726.65384096 -0.28478215 727.6823635 -0.28493561 C749.33098236 -0.28822389 770.97958272 -0.30103352 792.62819412 -0.31884663 C815.04597313 -0.33724777 837.46373262 -0.3450419 859.88151916 -0.34050413 C872.80737875 -0.33821987 885.73317131 -0.3443283 898.65901881 -0.36239263 C907.29162265 -0.3736343 915.92418256 -0.37399658 924.55678942 -0.36549544 C929.47671601 -0.3609624 934.39651576 -0.36117595 939.3164288 -0.37464955 C943.7959234 -0.38682378 948.27519263 -0.38507657 952.75468392 -0.37241993 C954.36164285 -0.37028451 955.96861854 -0.37313482 957.57555604 -0.38170573 C973.52439894 -0.46135013 987.07486342 1.55460171 999.25 12.625 C1011.70512982 25.83651422 1011.29866762 42.08657012 1011.2746582 59.02270508 C1011.27901031 61.05232429 1011.28419512 63.08194186 1011.29014587 65.11155701 C1011.30349415 70.60341673 1011.30411914 76.09520746 1011.30158257 81.58708024 C1011.30050993 86.18173417 1011.30540379 90.7763743 1011.310188 95.37102526 C1011.32126898 106.21651765 1011.32172866 117.0619754 1011.31567383 127.9074707 C1011.30963599 139.07280972 1011.32194353 150.23802265 1011.3432439 161.40334016 C1011.36089356 171.01046766 1011.36685591 180.61755515 1011.36360615 190.22469825 C1011.36179836 195.95330371 1011.36437897 201.68181924 1011.37832069 207.41040993 C1011.39094906 212.80068401 1011.38890769 218.19076243 1011.37590981 223.58103371 C1011.37355528 225.55096505 1011.37623805 227.52091037 1011.38453293 229.49082565 C1011.44945511 246.117354 1010.65234957 260.89321674 998.75 273.75 C986.95874953 284.64213551 973.00050625 286.43982245 957.43948936 286.46284771 C956.14349512 286.47643948 954.84750088 286.49003126 953.51223409 286.50403491 C949.94260372 286.54106992 946.37307404 286.56030701 942.80329637 286.57643382 C938.90889874 286.59726172 935.01465752 286.63501546 931.12037146 286.67056066 C924.30380045 286.73047535 917.48721812 286.77971918 910.67051506 286.8218689 C900.53293936 286.88460031 890.39554121 286.96398796 880.25811142 287.04671745 C863.19585746 287.18548548 846.13352952 287.31079216 829.0711174 287.42836571 C812.16306678 287.5449141 795.25507615 287.66738219 778.34712601 287.79772377 C777.29436926 287.80583563 776.24161252 287.81394749 775.15695405 287.82230517 C769.80962641 287.86353734 764.46229957 287.90487233 759.11497302 287.94624535 C721.24111937 288.23908085 683.3671766 288.51835806 645.49316406 288.78979492 C608.77272948 289.05298948 572.05235299 289.32280906 535.33203125 289.60131836 C534.20183373 289.60988812 533.07163621 289.61845787 531.90719028 289.62728732 C521.68287465 289.70481856 511.45855957 289.78242146 501.23424508 289.86010237 C430.58727111 290.39679309 359.9402411 290.92634814 289.2930717 291.43671457 C282.92430375 291.48276786 276.55553963 291.5293257 270.18677711 291.57612228 C262.55566892 291.63218266 254.92455584 291.68750861 247.29343549 291.7418898 C243.46187242 291.76920753 239.63031207 291.79680647 235.7987576 291.82530739 C235.08681405 291.83055228 234.37487049 291.83579717 233.6413529 291.84120099 C232.23564625 291.85163097 230.82994124 291.86228228 229.42423802 291.87316371 C226.08664775 291.89823914 222.74939005 291.91596661 219.41168984 291.92348741 C212.94015976 291.9402344 206.48830992 292.03988331 200.02124715 292.28948653 C198.73966628 292.32545061 197.45808542 292.3614147 196.13766877 292.3984686 C193.72600471 292.46743838 191.31493376 292.56679542 188.90611746 292.70275281 C181.14785858 292.87813113 181.14785858 292.87813113 177.7877454 290.307588 C174.74954945 286.83696927 172.45164987 283.16042381 170.703125 278.8828125 C167.73975349 272.19360447 163.90250422 266.17428684 160 260 C158.62227774 257.76209029 157.24723727 255.52252717 155.875 253.28125 C152.62230168 247.99561524 149.32775062 242.73862304 146 237.5 C141.32885857 230.14480841 136.74582717 222.73810049 132.1875 215.3125 C124.52574261 202.83241129 116.77686997 190.40859189 109 178 C100.53182274 164.48837436 92.11207585 150.94962726 83.76977539 137.35986328 C79.42566507 130.29200163 75.02568988 123.26311194 70.57739258 116.26049805 C65.61285185 108.4268884 60.77223066 100.51790222 55.921875 92.61328125 C51.99090406 86.21420069 48.02693009 79.839096 44 73.5 C39.26279795 66.04281106 34.62054611 58.52998004 30 51 C25.25209147 43.26345763 20.48168574 35.5437864 15.625 27.875 C15.14901367 27.1221875 14.67302734 26.369375 14.18261719 25.59375 C11.81281951 21.84937113 9.43156696 18.11272223 7.0390625 14.3828125 C6.10925125 12.92195376 5.17955838 11.46101966 4.25 10 C3.81896973 9.33468262 3.38793945 8.66936523 2.94384766 7.98388672 C0 3.33936619 0 3.33936619 0 0 Z " fill="#EC1C24" transform="translate(448,626)"/>
<path d="M0 0 C1.00514648 0.00757324 2.01029297 0.01514648 3.04589844 0.02294922 C10.88067781 0.19624027 17.4190278 1.18417078 24.625 4.4375 C25.57246094 4.86160156 26.51992188 5.28570313 27.49609375 5.72265625 C40.84176232 12.36772562 50.80312979 23.67922527 58.125 36.4375 C59.16714801 38.21348696 60.2115193 39.9881707 61.2578125 41.76171875 C61.8034082 42.68774902 62.34900391 43.6137793 62.91113281 44.56787109 C65.86304716 49.51043537 68.93417119 54.37757857 72 59.25 C76.93620844 67.10969173 81.81549435 74.99963944 86.625 82.9375 C91.35798746 90.74586332 96.14987538 98.51384558 101 106.25 C108.26457387 117.83749031 115.43918178 129.47883995 122.59570312 141.13330078 C125.99851121 146.67391732 129.40521377 152.21213654 132.8125 157.75 C133.47797852 158.831604 134.14345703 159.91320801 134.82910156 161.02758789 C141.07544972 171.17598145 147.34694729 181.30869916 153.625 191.4375 C161.33052394 203.86933531 169.01427634 216.31423094 176.67626953 228.77294922 C182.97187485 239.00728141 189.29478881 249.2245484 195.625 259.4375 C198.80064425 264.56097852 201.97512103 269.68516218 205.14453125 274.8125 C207.33790958 278.36070585 209.53720205 281.90514684 211.74150085 285.44657898 C213.1854245 287.76828903 214.62565045 290.09228013 216.0652771 292.41665649 C217.0930407 294.07347948 218.12518672 295.72758146 219.1574707 297.3815918 C230.34768488 315.47133281 236.84258814 333.09644754 231.82421875 354.4140625 C228.59952011 366.13763355 222.39492419 376.07114754 213.625 384.4375 C212.67173828 385.40236328 212.67173828 385.40236328 211.69921875 386.38671875 C199.36427899 398.1598186 183.94609498 400.89985168 167.53286743 400.82518005 C166.02708267 400.82935978 164.52130106 400.83484079 163.01552522 400.84149987 C158.90383805 400.85588946 154.79235243 400.85173018 150.68065453 400.84433305 C146.23609436 400.83958754 141.79157694 400.85212344 137.34703064 400.86235046 C128.6498914 400.87951677 119.95282448 400.88038297 111.25567271 400.87513756 C104.18414724 400.87109057 97.11264308 400.8725457 90.04111862 400.87788582 C88.52947402 400.87900845 88.52947402 400.87900845 86.98729115 400.88015376 C84.93979753 400.88168529 82.89230391 400.88322364 80.84481029 400.88476873 C61.65847142 400.89848594 42.47217336 400.89306157 23.28583543 400.88158352 C5.74835697 400.87165208 -11.78901598 400.88459167 -29.32647817 400.90851771 C-47.35172796 400.93292319 -65.37692864 400.94251301 -83.40219462 400.93586498 C-93.5148994 400.93237597 -103.62752305 400.93458383 -113.7402153 400.95211601 C-122.34889086 400.9668561 -130.95742816 400.96744982 -139.56610106 400.9500451 C-143.95460206 400.9415476 -148.34285625 400.93935486 -152.73134422 400.95469666 C-156.75579972 400.96859116 -160.77979806 400.96372001 -164.80422743 400.94445742 C-166.25297502 400.94071163 -167.70175966 400.94357804 -169.15047412 400.95406907 C-185.94826754 401.0669747 -200.73695434 396.50746534 -212.99609375 384.8046875 C-213.78113281 384.02351563 -214.56617188 383.24234375 -215.375 382.4375 C-216.44427734 381.42042969 -216.44427734 381.42042969 -217.53515625 380.3828125 C-228.09001857 369.60424404 -233.16009216 354.04976273 -233.5625 339.1875 C-233.29081985 323.3213793 -227.29434003 310.11212374 -218.875 296.9375 C-218.16188639 295.80319243 -217.44991088 294.66816865 -216.73901367 293.5324707 C-215.30575717 291.24563032 -213.86705545 288.96237998 -212.42333984 286.68212891 C-209.47813855 282.01684581 -206.58355232 277.32087901 -203.6875 272.625 C-202.62806384 270.91377782 -201.56817102 269.20283828 -200.5078125 267.4921875 C-199.98993164 266.65655273 -199.47205078 265.82091797 -198.93847656 264.95996094 C-197.89615885 263.27832031 -196.85384115 261.59667969 -195.81152344 259.91503906 C-189.31539571 249.4331105 -182.83500546 238.94173644 -176.375 228.4375 C-168.87855608 216.2479717 -161.35055326 204.07825832 -153.81152344 191.91503906 C-147.31539571 181.4331105 -140.83500546 170.94173644 -134.375 160.4375 C-126.87855608 148.2479717 -119.35055326 136.07825832 -111.81152344 123.91503906 C-105.31539571 113.4331105 -98.83500546 102.94173644 -92.375 92.4375 C-86.44467409 82.79454444 -80.49943634 73.16105135 -74.53515625 63.5390625 C-72.35122501 60.0156262 -70.17212154 56.48926016 -67.99609375 52.9609375 C-63.15766301 45.11879 -58.31856141 37.27647203 -53.375 29.5 C-52.715 28.45972656 -52.055 27.41945313 -51.375 26.34765625 C-39.45960496 9.00982558 -20.88149218 -0.22229368 0 0 Z M-25.99121094 39.27050781 C-30.60013482 45.13110083 -34.50132186 51.30429931 -38.30960083 57.70880127 C-40.1615419 60.8223709 -42.03334469 63.92399475 -43.90234375 67.02734375 C-44.46863747 67.96930603 -44.46863747 67.96930603 -45.04637146 68.93029785 C-48.60996905 74.849707 -52.26145655 80.71231 -55.9375 86.5625 C-63.14297842 98.04375682 -70.25270763 109.58229238 -77.34570312 121.13330078 C-80.74851121 126.67391732 -84.15521377 132.21213654 -87.5625 137.75 C-88.22797852 138.831604 -88.89345703 139.91320801 -89.57910156 141.02758789 C-96.343978 152.01843035 -103.13926496 162.99033973 -109.93847656 173.95996094 C-116.43460429 184.4418895 -122.91499454 194.93326356 -129.375 205.4375 C-136.87144392 217.6270283 -144.39944674 229.79674168 -151.93847656 241.95996094 C-158.43460439 252.44188966 -164.91495266 262.93328921 -171.375 273.4375 C-176.32436932 281.48473128 -181.27949235 289.52830628 -186.25 297.5625 C-186.77513184 298.41360352 -187.30026367 299.26470703 -187.84130859 300.14160156 C-190.29325387 304.10891548 -192.76539241 308.05944431 -195.296875 311.9765625 C-202.4701319 323.10472904 -207.03403943 331.79828163 -205.375 345.4375 C-202.84282319 354.99177823 -197.86593163 363.09641965 -189.33203125 368.2890625 C-182.80216114 371.64546346 -177.74777086 373.55938042 -170.40060329 373.57172108 C-169.16978415 373.57617892 -167.938965 373.58063676 -166.67084831 373.58522969 C-165.30281793 373.5851404 -163.93478756 373.58495055 -162.5667572 373.58467102 C-161.11508907 373.58797065 -159.66342186 373.59169643 -158.21175581 373.5958125 C-154.21727301 373.60582944 -150.22280524 373.60954881 -146.22831166 373.61220181 C-141.92205805 373.6161058 -137.61581633 373.62568411 -133.30957031 373.63441467 C-122.9069436 373.65417695 -112.50431592 373.66424523 -102.10167512 373.67314246 C-97.20230489 373.67752596 -92.30293574 373.68289263 -87.40356636 373.68813133 C-71.11569792 373.70514378 -54.82783015 373.71963763 -38.53995419 373.72688007 C-34.31317583 373.72878995 -30.08639748 373.73071029 -25.85961914 373.73266602 C-24.80907955 373.73314976 -23.75853995 373.7336335 -22.67616583 373.7341319 C-5.66068677 373.74243099 11.35472195 373.76776582 28.3701703 373.80024669 C45.84147319 373.83332569 63.31274035 373.85132962 80.78407472 373.85452431 C90.59278406 373.85668869 100.40139085 373.86542666 110.21006966 373.89098549 C118.56423856 373.912704 126.91828001 373.92073725 135.27247394 373.91101871 C139.53309976 373.90647728 143.79346268 373.90835099 148.05405235 373.92778015 C151.95962726 373.94543612 155.86474796 373.94439466 159.77032786 373.92888286 C161.17820643 373.92651045 162.58611665 373.93081127 163.99394692 373.94271151 C176.12245783 374.03882718 186.5892881 371.99660292 195.625 363.4375 C203.07511537 355.57252902 206.03338664 346.35681417 206.15625 335.65234375 C204.72074535 326.96542958 200.12489376 319.43116494 195.625 312 C195.05177002 311.0419043 194.47854004 310.08380859 193.88793945 309.09667969 C189.80477977 302.30433316 185.61341413 295.58384185 181.35522461 288.90014648 C177.06434427 282.16250989 172.86734683 275.36949504 168.6875 268.5625 C168.00671387 267.45398682 167.32592773 266.34547363 166.62451172 265.20336914 C165.26981512 262.99742141 163.91515958 260.79144847 162.56054688 258.58544922 C159.69568904 253.92608029 156.81809503 249.27465133 153.9375 244.625 C153.41075684 243.77462158 152.88401367 242.92424316 152.34130859 242.0480957 C150.76949811 239.51104914 149.19732097 236.97423021 147.625 234.4375 C139.91947606 222.00566469 132.23572366 209.56076906 124.57373047 197.10205078 C118.27812515 186.86771859 111.95521119 176.6504516 105.625 166.4375 C97.91947606 154.00566469 90.23572366 141.56076906 82.57373047 129.10205078 C76.27812515 118.86771859 69.95521119 108.6504516 63.625 98.4375 C61.52036702 95.04195535 59.41623004 91.64610415 57.3125 88.25 C56.52480225 86.97914551 56.52480225 86.97914551 55.72119141 85.68261719 C52.64510098 80.71546487 49.58238632 75.74032716 46.53125 70.7578125 C45.47075557 69.02789305 44.41013696 67.29804978 43.34951782 65.56820679 C42.35001789 63.93625791 41.35305951 62.30275326 40.35620117 60.66918945 C28.09632446 39.64139722 28.09632446 39.64139722 7.67578125 27.85546875 C-4.91578484 25.28918766 -17.5263546 29.67018434 -25.99121094 39.27050781 Z " fill="#EC1C24" transform="translate(374.375,599.5625)"/>
<path d="M0 0 C1.75685875 -0.01395813 1.75685875 -0.01395813 3.54920959 -0.02819824 C4.80970627 -0.01180298 6.07020294 0.00459229 7.36889648 0.02148438 C8.66568832 0.02144409 9.96248016 0.02140381 11.29856873 0.0213623 C14.04003801 0.02301395 16.78068794 0.04168274 19.52197266 0.07324219 C23.0350815 0.1129602 26.54711969 0.1172824 30.0604105 0.10977936 C33.41336966 0.10597189 36.76599036 0.12678477 40.11889648 0.14648438 C42.01267784 0.1467865 42.01267784 0.1467865 43.94471741 0.14709473 C45.11280441 0.16300659 46.28089142 0.17891846 47.484375 0.1953125 C48.51377701 0.20373169 49.54317902 0.21215088 50.60377502 0.2208252 C53.17749023 0.61523438 53.17749023 0.61523438 54.97080994 1.95397949 C57.55205191 5.50761408 57.30745658 8.94542034 57.31793213 13.17947388 C57.32090325 13.8494732 57.32387437 14.51947252 57.32693553 15.20977485 C57.33562187 17.45968671 57.33713074 19.70954535 57.33862305 21.95947266 C57.3432514 23.57090875 57.34827609 25.18234375 57.35366821 26.79377747 C57.36679569 31.17629533 57.37323827 35.55879788 57.37767887 39.94133234 C57.38061006 42.68070717 57.38471503 45.42007781 57.38918304 48.15945053 C57.40286114 56.73393647 57.41252531 65.30841285 57.41638494 73.88290894 C57.42086153 83.77345776 57.43838957 93.66386809 57.46738553 103.55437481 C57.48902822 111.20292318 57.49909066 118.85143267 57.50042605 126.50001132 C57.50147256 131.06607249 57.5073471 135.63200352 57.52524567 140.19803238 C57.54177029 144.49739292 57.54386062 148.79652616 57.53510666 153.09590721 C57.53433853 154.66921664 57.53864927 156.24253851 57.54856491 157.81581688 C57.60986592 168.15319944 57.27372309 177.54113065 50.76733398 186.04492188 C43.07564317 193.64212018 34.14375815 193.81841585 23.98999023 193.86523438 C22.34160156 193.89617187 22.34160156 193.89617187 20.65991211 193.92773438 C12.44092051 193.96694244 5.87344044 193.0318172 -1.07250977 188.49023438 C-7.52894109 181.7403289 -9.937485 175.02924879 -9.96968079 165.82789612 C-9.97335747 165.146053 -9.97703416 164.46420989 -9.98082227 163.76170486 C-9.99183176 161.47792904 -9.99569822 159.19419875 -9.99951172 156.91040039 C-10.00577823 155.27262224 -10.0124252 153.6348455 -10.01942444 151.99707031 C-10.04043752 146.62110377 -10.05082134 141.24513702 -10.06079102 135.86914062 C-10.06483901 134.01810122 -10.06895594 132.16706197 -10.0731411 130.31602287 C-10.09218337 121.62301742 -10.10641881 112.93002043 -10.11475307 104.23699814 C-10.12453509 94.19978896 -10.15088373 84.16279975 -10.19125396 74.12566811 C-10.22138834 66.36760982 -10.23621923 58.60961471 -10.23953408 50.85149902 C-10.2418868 46.21734759 -10.25087662 41.58343143 -10.27599525 36.94934273 C-10.29923551 32.59166025 -10.30352566 28.23436865 -10.29323387 23.87664032 C-10.29273748 22.27745452 -10.29908834 20.67824972 -10.31278992 19.07912254 C-10.33045334 16.89546343 -10.32343192 14.71321582 -10.31025696 12.52955627 C-10.31264531 11.30784509 -10.31503366 10.0861339 -10.31749439 8.82740116 C-9.33448863 2.44825663 -6.26180974 -0.01248744 0 0 Z " fill="#EC1C24" transform="translate(350.822509765625,687.384765625)"/>
<path d="M0 0 C8.58 0 17.16 0 26 0 C26 23.76 26 47.52 26 72 C29.96 62.43 33.92 52.86 38 43 C40.67089946 36.78160928 43.34071611 30.56672246 46.05859375 24.36938477 C47.1645873 21.8472232 48.26613547 19.32315042 49.3671875 16.79882812 C50.0804866 15.16656065 50.79401807 13.53439468 51.5078125 11.90234375 C51.83169952 11.16088608 52.15558655 10.41942841 52.48928833 9.65550232 C53.92152966 6.39211161 55.4054778 3.1890444 57 0 C65.25 0 73.5 0 82 0 C82.33 23.1 82.66 46.2 83 70 C87.95 56.635 87.95 56.635 93 43 C95.4523863 36.75822634 97.91740359 30.52646554 100.4375 24.3125 C101.33908024 22.08009676 102.23955455 19.84725298 103.13917542 17.61405945 C103.68546334 16.25886969 104.23297246 14.90417112 104.78208923 13.55012512 C106.59845105 9.05681753 108.29678526 4.54190598 110 0 C119.24 0 128.48 0 138 0 C137.29491566 3.52542171 136.75131003 5.90683763 135.36791992 9.06030273 C134.86315376 10.22094994 134.86315376 10.22094994 134.34819031 11.40504456 C133.79491814 12.65667641 133.79491814 12.65667641 133.23046875 13.93359375 C132.84192215 14.82348495 132.45337555 15.71337616 132.05305481 16.63023376 C130.76914417 19.56802972 129.4783564 22.50275017 128.1875 25.4375 C127.29182429 27.48301969 126.39664907 29.52875861 125.50195312 31.57470703 C124.10562251 34.767276 122.70879051 37.95961868 121.31002808 41.15112305 C117.97631351 48.7583084 114.66370967 56.37441304 111.36328125 63.99609375 C110.45484329 66.09253333 109.54639616 68.18896893 108.63793945 70.28540039 C107.32748935 73.30981904 106.0175357 76.33444686 104.70932007 79.35983276 C103.49578896 82.1652725 102.2794447 84.96947717 101.0625 87.7734375 C100.70912064 88.59238998 100.35574127 89.41134247 99.99165344 90.25511169 C99.65538437 91.0286348 99.3191153 91.8021579 98.97265625 92.59912109 C98.68656494 93.25979584 98.40047363 93.92047058 98.10571289 94.60116577 C96.48923648 98.1080969 94.72693729 101.54612543 93 105 C82.11 105 71.22 105 60 105 C60 84.54 60 64.08 60 43 C57.36 50.26 54.72 57.52 52 65 C50.53482412 68.66149076 49.0684792 72.28568859 47.5 75.8984375 C46.95098022 77.18350693 46.95098022 77.18350693 46.39086914 78.49453735 C45.26612526 81.12378014 44.13332824 83.7494481 43 86.375 C42.21689822 88.20158735 41.43434455 90.02840978 40.65234375 91.85546875 C38.77546095 96.24015268 36.88761859 100.61986686 35 105 C24.44 105 13.88 105 3 105 C2.60334085 95.14892781 2.21124308 85.29770035 1.82654572 75.44615364 C1.64762594 70.86861297 1.46692982 66.29115876 1.28173828 61.71386719 C0.44999058 41.12371557 -0.18526149 20.61034119 0 0 Z " fill="#FEFCFC" transform="translate(649,720)"/>
<path d="M0 0 C11.22 0 22.44 0 34 0 C35.70979732 5.72873373 37.41846446 11.45779467 39.125 17.1875 C39.37677002 18.03268188 39.62854004 18.87786377 39.88793945 19.74865723 C43.04515362 30.35307541 46.18714806 40.96014376 49.16064453 51.61791992 C50.61622959 56.80179542 52.25696782 61.90567398 54 67 C54.1451001 66.142854 54.2902002 65.28570801 54.43969727 64.40258789 C58.1163015 42.81417508 62.31118316 21.3909928 67 0 C75.58 0 84.16 0 93 0 C80.14011911 64.71423931 80.14011911 64.71423931 73.63500977 93.19799805 C72.74409934 97.12917025 71.87441641 101.06512615 71 105 C60.11 105 49.22 105 38 105 C34.62773939 96.00730503 34.62773939 96.00730503 33.53515625 91.6796875 C33.29482666 90.74012207 33.05449707 89.80055664 32.80688477 88.83251953 C32.56123779 87.85653809 32.31559082 86.88055664 32.0625 85.875 C31.53242818 83.80698932 31.00118398 81.73927878 30.46875 79.671875 C30.21480469 78.68509766 29.96085937 77.69832031 29.69921875 76.68164062 C28.5885316 72.42193825 27.3738186 68.19540608 26.14453125 63.96875 C24.46982975 58.19980659 22.86723725 52.41024552 21.25 46.625 C20.93168213 45.48691895 20.61336426 44.34883789 20.28540039 43.17626953 C19.5232801 40.45093568 18.76147467 37.7255143 18 35 C16.54077766 40.51317907 15.48078369 45.94183098 14.66796875 51.58203125 C12.98449725 62.70998957 10.66362861 73.68481453 8.3125 84.6875 C7.89213285 86.67243179 7.47220879 88.65745748 7.05273438 90.64257812 C6.04103968 95.42966997 5.02037513 100.21471874 4 105 C-4.58 105 -13.16 105 -22 105 C-19.15154721 90.67280511 -16.23195058 76.36245944 -13.25 62.0625 C-13.03611633 61.03560059 -12.82223267 60.00870117 -12.60186768 58.95068359 C-8.50235238 39.27787742 -4.27544848 19.63539302 0 0 Z " fill="#FEFCFC" transform="translate(1161,720)"/>
<path d="M0 0 C1.39120471 0.00015906 2.78241534 0.00585033 4.17358398 0.01586914 C4.90463852 0.01728409 5.63569305 0.01869904 6.38890076 0.02015686 C8.73253406 0.02577131 11.07607313 0.03832617 13.41967773 0.05102539 C15.00496282 0.05603853 16.59024939 0.06060176 18.17553711 0.06469727 C22.06945383 0.07574542 25.96329979 0.09301967 29.85717773 0.11352539 C34.18034374 13.43203903 38.25407201 26.79255831 42.04956055 40.27026367 C43.58159309 45.66387037 45.15884031 51.04435149 46.73217773 56.42602539 C47.0428418 57.48934082 47.35350586 58.55265625 47.67358398 59.64819336 C48.40094857 62.13678407 49.12878667 64.62523497 49.85717773 67.11352539 C49.97198486 66.42766357 50.08679199 65.74180176 50.20507812 65.03515625 C52.62471754 50.71944889 55.3139707 36.51654096 58.54467773 22.36352539 C58.69470245 21.70585175 58.84472717 21.0481781 58.9992981 20.37057495 C60.54927494 13.59850713 62.17207905 6.85392013 63.85717773 0.11352539 C72.10717773 0.11352539 80.35717773 0.11352539 88.85717773 0.11352539 C88.20932333 5.94421503 87.4905564 11.45569597 86.25561523 17.14477539 C86.09846542 17.88589569 85.94131561 18.62701599 85.77940369 19.39059448 C85.26771104 21.79912119 84.74996789 24.20630292 84.23217773 26.61352539 C83.87132555 28.30695825 83.51089877 30.0004818 83.15087891 31.6940918 C82.41478735 35.15372824 81.67635529 38.61285146 80.93579102 42.0715332 C79.48310581 48.85742398 78.04425168 55.64623537 76.60534668 62.43505859 C76.17291829 64.47325146 75.73932813 66.51119397 75.30541992 68.54907227 C73.96477828 74.85025182 72.63820803 81.15388195 71.34545898 87.46508789 C71.11366943 88.59382324 70.88187988 89.72255859 70.64306641 90.88549805 C70.21407765 92.98083951 69.78827058 95.07683583 69.36621094 97.17358398 C69.18018311 98.08188965 68.99415527 98.99019531 68.80249023 99.92602539 C68.64280762 100.7162207 68.483125 101.50641602 68.31860352 102.32055664 C67.85717773 104.11352539 67.85717773 104.11352539 66.85717773 105.11352539 C64.40887347 105.20196332 61.98897175 105.22881291 59.54077148 105.21118164 C58.44418968 105.20905922 58.44418968 105.20905922 57.32545471 105.20689392 C54.98182141 105.20127947 52.63828234 105.18872461 50.29467773 105.17602539 C48.70939265 105.17101225 47.12410608 105.16644902 45.53881836 105.16235352 C41.64490163 105.15130536 37.75105568 105.13403111 33.85717773 105.11352539 C33.1461498 102.57413991 32.43512625 100.03475319 31.72412109 97.49536133 C31.09610085 95.25250257 30.46800649 93.00966456 29.83984375 90.7668457 C28.23975929 85.05345095 26.64065498 79.33978768 25.04467773 73.62524414 C21.36106213 60.44145519 17.63420502 47.27086221 13.85717773 34.11352539 C13.73713379 34.91121338 13.61708984 35.70890137 13.4934082 36.53076172 C10.6484914 55.24753093 7.190023 73.67428164 2.85717773 92.11352539 C2.29624483 94.53776483 1.73633579 96.96224142 1.17749023 99.38696289 C0.74178711 101.27672852 0.30608398 103.16649414 -0.14282227 105.11352539 C-8.39282227 105.11352539 -16.64282227 105.11352539 -25.14282227 105.11352539 C-24.01786494 96.1138668 -24.01786494 96.1138668 -23.27001953 92.56079102 C-23.01770065 91.35005165 -23.01770065 91.35005165 -22.76028442 90.11485291 C-22.57843597 89.25847733 -22.39658752 88.40210175 -22.20922852 87.51977539 C-22.01561737 86.59479752 -21.82200623 85.66981964 -21.62252808 84.71681213 C-20.9865396 81.68172735 -20.34603057 78.64761702 -19.70532227 75.61352539 C-19.03234698 72.41175123 -18.36027208 69.20978881 -17.68818665 66.00782776 C-17.22236179 63.78918438 -16.75611861 61.5706288 -16.28947449 59.35215759 C-14.60530097 51.34010816 -12.94345992 43.32362973 -11.29125977 35.30493164 C-10.60851284 31.99857396 -9.92548982 28.69227342 -9.24240112 25.38598633 C-8.80103276 23.24609742 -8.36086732 21.10596004 -7.92190552 18.96557617 C-7.31016251 15.98422666 -6.69381182 13.00386483 -6.07641602 10.02368164 C-5.89456757 9.13121231 -5.71271912 8.23874298 -5.52536011 7.31922913 C-4.03141979 0.14562341 -4.03141979 0.14562341 0 0 Z " fill="#FEFCFC" transform="translate(997.142822265625,719.886474609375)"/>
<path d="M0 0 C5.76164081 -0.12473576 11.5224748 -0.21486943 17.28515625 -0.2746582 C19.24037387 -0.29961363 21.19550004 -0.3335907 23.15039062 -0.37719727 C36.81728514 -0.67415177 47.23393747 -0.34778456 58.5 8.25 C64.65841903 14.26728859 66.38221193 20.28287086 66.5625 28.8125 C66.49485715 38.44935111 63.48263523 46.76575489 57 54 C54.421875 56.01953125 54.421875 56.01953125 51.75 57.8125 C50.85796875 58.41707031 49.9659375 59.02164063 49.046875 59.64453125 C48.37140625 60.09183594 47.6959375 60.53914062 47 61 C49.42329081 68.8693625 52.67170013 76.25369275 56.0625 83.75 C57.13831124 86.13991293 58.21173285 88.53088741 59.28515625 90.921875 C59.75832275 91.96956055 60.23148926 93.01724609 60.71899414 94.09667969 C64 101.53287593 64 101.53287593 64 105 C54.1 105 44.2 105 34 105 C28.41638225 91.59931741 28.41638225 91.59931741 26.71875 86.39453125 C26.35136719 85.30978516 25.98398437 84.22503906 25.60546875 83.10742188 C24.85551926 80.87214839 24.11895799 78.63234692 23.39453125 76.38867188 C22.84345703 74.78282227 22.84345703 74.78282227 22.28125 73.14453125 C21.96220703 72.17878174 21.64316406 71.21303223 21.31445312 70.21801758 C20.17519512 67.73078691 20.17519512 67.73078691 17.35742188 67.1784668 C16.57947266 67.11957275 15.80152344 67.06067871 15 67 C14.75765625 68.15113281 14.5153125 69.30226563 14.265625 70.48828125 C11.84375 81.9921875 9.421875 93.49609375 7 105 C-2.57 105 -12.14 105 -22 105 C-18.71523887 88.13822621 -15.14319532 71.35601897 -11.47131348 54.57507324 C-7.49928303 36.41287691 -3.68755551 18.22195696 0 0 Z " fill="#FEFCFC" transform="translate(898,720)"/>
<path d="M0 0 C12.21 0 24.42 0 37 0 C39.29618188 19.51754601 39.29618188 19.51754601 39.96484375 27.9296875 C40.08174309 29.35109795 40.08174309 29.35109795 40.20100403 30.80122375 C40.44922777 33.8256004 40.69342463 36.85028604 40.9375 39.875 C41.19707011 43.05331715 41.45764545 46.23155077 41.71835327 49.40977478 C41.8926909 51.53528718 42.06670366 53.66082625 42.24038696 55.78639221 C42.78506322 62.43855887 43.34651899 69.08903957 43.92578125 75.73828125 C44.03230263 76.96333374 44.03230263 76.96333374 44.14097595 78.21313477 C44.40784003 81.27771462 44.67514672 84.34224736 44.94650269 87.40643311 C45.12758133 89.45179279 45.30617557 91.49735655 45.484375 93.54296875 C45.58459961 94.67758545 45.68482422 95.81220215 45.78808594 96.98120117 C45.9753256 99.64850347 46 102.32613384 46 105 C36.76 105 27.52 105 18 105 C18 98.4 18 91.8 18 85 C7.11 85 -3.78 85 -15 85 C-15.99 87.97 -16.98 90.94 -18 94 C-19.65 97.63 -21.3 101.26 -23 105 C-32.9 105 -42.8 105 -53 105 C-47.28679098 92.79450801 -41.38836621 80.72787006 -35.20223999 68.75628662 C-32.90279096 64.30585269 -30.61329022 59.85030964 -28.32421875 55.39453125 C-27.86930557 54.50930786 -27.4143924 53.62408447 -26.94569397 52.71203613 C-22.20884645 43.4813713 -17.56999799 34.20269461 -12.97021484 24.90307617 C-8.80216995 16.50330964 -4.41887476 8.28539018 0 0 Z " fill="#FEFCFC" transform="translate(819,720)"/>
<path d="M0 0 C-0.66498928 3.07672462 -1.70627629 5.71167453 -3.06640625 8.546875 C-3.6706543 9.81337891 -3.6706543 9.81337891 -4.28710938 11.10546875 C-4.70798828 11.97816406 -5.12886719 12.85085938 -5.5625 13.75 C-6.19961914 15.08224609 -6.19961914 15.08224609 -6.84960938 16.44140625 C-7.89645848 18.62920326 -8.94668927 20.81530851 -10 23 C-15.54632867 21.19055944 -15.54632867 21.19055944 -18.02734375 20.1484375 C-25.82904739 16.98946547 -34.84824456 16.52220561 -42.94140625 18.84375 C-52.15840831 23.00899063 -57.19913403 30.15338644 -61 39.29296875 C-64.36319081 48.39723137 -66.01493714 59.21075367 -63.20703125 68.671875 C-61.58856448 72.07003513 -60.14753448 73.90164368 -57 76 C-54.22503673 76.14289203 -51.58047807 76.18737542 -48.8125 76.125 C-46.234375 76.08375 -43.65625 76.0425 -41 76 C-39.68 70.72 -38.36 65.44 -37 60 C-42.28 60 -47.56 60 -53 60 C-52.34733579 52.29856235 -50.78289327 45.72587082 -49 38 C-34.48 38 -19.96 38 -5 38 C-5.62621704 43.00973636 -6.27805589 47.76039464 -7.26953125 52.67578125 C-7.6394519 54.52369263 -7.6394519 54.52369263 -8.0168457 56.40893555 C-8.55525196 59.0504138 -9.09622572 61.69121539 -9.64135742 64.33129883 C-9.91736795 65.67134286 -10.19316646 67.01143059 -10.46875 68.3515625 C-10.60432816 69.00926132 -10.73990631 69.66696014 -10.8795929 70.34458923 C-11.67419987 74.24672008 -12.36627928 78.14988429 -12.96875 82.0859375 C-13.18760864 83.400177 -13.18760864 83.400177 -13.41088867 84.7409668 C-13.67063716 86.32330092 -13.89955038 87.91113963 -14.09106445 89.50317383 C-14.45703125 91.60546875 -14.45703125 91.60546875 -16 95 C-18.86179035 96.65885184 -21.78058634 97.3305005 -25 98 C-26.27359375 98.31324219 -27.5471875 98.62648438 -28.859375 98.94921875 C-36.91469318 100.47778816 -44.73141136 101.30259334 -52.9375 101.375 C-53.78860352 101.38877686 -54.63970703 101.40255371 -55.51660156 101.41674805 C-66.53592227 101.33638544 -75.60029098 97.81532579 -83.75390625 90.40625 C-91.92201792 81.72635189 -94.14781091 69.38398279 -94 57.8125 C-93.38029623 39.02746607 -87.75674377 21.02968638 -74.04296875 7.625 C-53.40828623 -10.9752772 -24.22392387 -10.8247752 0 0 Z " fill="#FEFCFC" transform="translate(1354,725)"/>
<path d="M0 0 C9.57 0 19.14 0 29 0 C27.72947682 7.62313909 26.41343033 15.16895665 24.828125 22.72265625 C24.5236293 24.18660576 24.5236293 24.18660576 24.21298218 25.68013 C23.56135074 28.80815659 22.9059289 31.93537199 22.25 35.0625 C22.02656921 36.13147522 21.80313843 37.20045044 21.57293701 38.30181885 C18.36470689 53.65041743 15.08503139 68.97876782 11.6171875 84.27099609 C10.60643942 88.74019785 9.61662648 93.21402506 8.625 97.6875 C8.08875 100.100625 7.5525 102.51375 7 105 C-2.24 105 -11.48 105 -21 105 C-20.338467 98.38467003 -19.56680649 92.18646564 -18.1796875 85.7421875 C-18.00025101 84.88835983 -17.82081451 84.03453217 -17.63594055 83.15483093 C-17.0541665 80.39375689 -16.4647417 77.63438214 -15.875 74.875 C-15.46749879 72.94921267 -15.06035736 71.02334918 -14.65356445 69.09741211 C-11.93920111 56.27614959 -9.15316127 43.47088807 -6.3293457 30.67333984 C-4.08390333 20.47309256 -2.00209977 10.25075083 0 0 Z " fill="#FEFCFC" transform="translate(1109,720)"/>
<path d="M0 0 C7.25309284 4.00027448 11.46172544 9.53997516 13.921875 17.37890625 C16.0036874 26.12491124 15.05560809 33.88685343 10.6875 41.76953125 C6.37128906 47.97665365 0.80530319 52.75164503 -6.5703125 54.73046875 C-14.23174456 56.01156067 -22.01275479 55.89824524 -28.953125 52.12890625 C-36.87987595 46.46526615 -41.05927492 40.75738154 -43.703125 31.50390625 C-44.70496544 21.98642206 -42.92021124 13.48967514 -36.8359375 5.953125 C-26.75763238 -3.81153992 -12.68616906 -5.94923288 0 0 Z " fill="#EC1C24" transform="translate(388.953125,907.87109375)"/>
<path d="M0 0 C0.33 0 0.66 0 1 0 C1.84432793 9.1257857 2.12761945 18.15069448 2.0625 27.3125 C2.05798828 28.54162109 2.05347656 29.77074219 2.04882812 31.03710938 C2.03720302 34.0247613 2.01927492 37.01238763 2 40 C-4.6 40 -11.2 40 -18 40 C-14.5 32.125 -14.5 32.125 -13.32763672 29.48828125 C-11.46813814 25.30596272 -9.61083558 21.12269197 -7.7578125 16.9375 C-7.40009766 16.13038574 -7.04238281 15.32327148 -6.67382812 14.49169922 C-5.98687523 12.94157785 -5.30064969 11.39113389 -4.61523438 9.84033203 C-3.14423803 6.52303893 -1.67067277 3.22321716 0 0 Z " fill="#EC2028" transform="translate(833,742)"/>
<path d="M0 0 C7.01588929 -0.59456689 7.01588929 -0.59456689 11 1.8125 C13.93289334 6.48679876 13.9848883 10.62644946 13 16 C11.32266962 19.46420071 8.9614 21.4434 5.625 23.375 C2.35918604 24.15257475 -0.65583945 24.13114355 -4 24 C-3.52087184 15.75569133 -2.02214499 7.99955473 0 0 Z " fill="#EC2129" transform="translate(922,741)"/>
</svg>
