<?xml version="1.0" encoding="UTF-8"?>
<svg version="1.1" xmlns="http://www.w3.org/2000/svg" width="512" height="512">
<path d="M0 0 C0.89115509 -0.00974854 1.78231018 -0.01949707 2.70046997 -0.02954102 C22.6295645 -0.20261362 41.87011372 0.05359185 61.4453125 4.23828125 C62.34491699 4.42551758 63.24452148 4.61275391 64.17138672 4.80566406 C74.69688385 7.05571495 84.7978791 10.17775112 94.82592773 14.09106445 C103.3644477 17.30680189 108.71802469 14.87744658 116.93359375 11.4921875 C134.81632675 5.10691799 154.84322025 6.81546846 171.95239258 14.61621094 C189.09477737 22.89648119 201.76775909 37.0115795 208.796875 54.625 C211.75141716 63.26544163 212.62727035 70.83112022 212.6328125 79.92578125 C212.64505859 80.96412109 212.65730469 82.00246094 212.66992188 83.07226562 C212.67945334 88.13983008 212.44765027 92.64222323 211.17578125 97.55859375 C210.32591 101.38435246 210.37585221 102.07603444 212.015625 105.90625 C212.84200787 107.09729765 213.69550912 108.26983047 214.5703125 109.42578125 C215.51675465 110.80860389 216.45513387 112.19696874 217.38671875 113.58984375 C217.88703613 114.33266602 218.38735352 115.07548828 218.90283203 115.84082031 C239.71007844 148.18130144 252.44296015 189.21864182 252.6484375 227.75 C252.65545181 228.6324942 252.66246613 229.5149884 252.66969299 230.42422485 C252.68711014 233.25812942 252.69354568 236.09182512 252.6953125 238.92578125 C252.69598724 239.89325287 252.69666199 240.86072449 252.69735718 241.85751343 C252.68180035 255.87392055 252.28796674 269.46987424 249.4453125 283.23828125 C249.27902344 284.10469238 249.11273438 284.97110352 248.94140625 285.86376953 C243.16548862 315.67927025 232.16660154 351.90996188 211.72192383 375.20166016 C210.21194217 377.17542061 210.21194217 377.17542061 210.57666016 379.62207031 C210.79370605 380.49057617 211.01075195 381.35908203 211.234375 382.25390625 C215.57318092 402.40361509 212.57160232 422.9927155 201.64306641 440.47460938 C191.06956858 456.04390173 174.53738353 467.79996073 156.05859375 471.80078125 C139.33163477 473.82609953 122.51923835 473.15215866 107.47265625 464.875 C102.16805466 463.20900759 96.28576105 466.21825575 91.24780273 467.91748047 C81.5595585 471.18237783 71.89818502 474.04046407 61.8828125 476.11328125 C60.97031738 476.30374023 60.05782227 476.49419922 59.11767578 476.69042969 C43.75166999 479.72034632 28.755067 480.64498062 13.1328125 480.61328125 C12.16786865 480.61306976 11.2029248 480.61285828 10.20874023 480.61264038 C-5.69779089 480.57795375 -20.95341413 479.56462142 -36.5546875 476.23828125 C-37.43833984 476.0563623 -38.32199219 475.87444336 -39.23242188 475.68701172 C-54.19518539 472.5278924 -69.57933177 468.0040744 -83.41015625 461.43359375 C-86.92968067 460.09573726 -88.0693669 459.96015135 -91.5546875 461.23828125 C-94.11070458 462.48689419 -96.61111195 463.77305872 -99.1171875 465.11328125 C-116.09166106 473.7993701 -135.18952968 475.64103007 -153.5546875 470.23828125 C-172.83725634 463.80292941 -187.23974468 451.32366336 -196.8046875 433.48828125 C-204.52369478 416.95357713 -206.97392039 396.49224582 -201.55859375 378.78125 C-200.05008172 374.9600775 -198.33423556 371.26085681 -196.4453125 367.61328125 C-195.39249009 364.80575484 -195.42557423 363.98115002 -196.5546875 361.23828125 C-197.66649304 359.1365914 -198.81890496 357.05628026 -199.9921875 354.98828125 C-230.5190792 299.14041687 -236.34674267 232.16538959 -218.85400391 171.32421875 C-213.54509062 153.71365235 -206.82293588 136.50262145 -196.85546875 120.98046875 C-195.30614758 117.71433223 -195.39235627 116.60904183 -196.5546875 113.23828125 C-197.72826614 110.31046832 -199.0116013 107.44493342 -200.30078125 104.56640625 C-206.82046764 87.26181809 -205.33315315 66.11382299 -197.89453125 49.41796875 C-188.58380496 29.86593592 -172.50478497 17.94224687 -152.76953125 10.13671875 C-137.75292408 5.40394418 -116.72114897 6.15205089 -102.57421875 13.22900391 C-99.894325 14.65509022 -97.23656113 16.09300873 -94.65014648 17.68359375 C-91.8217187 19.36389461 -89.93335473 20.24783593 -86.61328125 20.1640625 C-82.86989537 19.031007 -79.28537108 17.61520977 -75.6796875 16.11328125 C-51.72574263 6.53619607 -25.88885027 0.23612676 0 0 Z M-74.5546875 34.23828125 C-73.37719162 36.6843165 -72.10251546 39.02615677 -70.75 41.3828125 C-60.33442183 59.62261714 -57.18941316 79.64508528 -62.0546875 100.30078125 C-68.16824083 119.34439337 -79.99991042 134.34020073 -97.71484375 143.953125 C-100.95241206 145.53139132 -104.20015992 146.9283015 -107.5546875 148.23828125 C-108.42867188 148.57988281 -109.30265625 148.92148438 -110.203125 149.2734375 C-128.45458771 155.02719774 -149.79665293 152.08020121 -166.4921875 143.42578125 C-171.58156806 140.66688706 -175.99518034 137.55290911 -180.0390625 133.390625 C-180.53921875 133.01035156 -181.039375 132.63007813 -181.5546875 132.23828125 C-184.55413415 132.90787828 -184.55413415 132.90787828 -185.65454102 134.8034668 C-212.77487833 189.39802483 -219.19373264 250.81118659 -200.57275391 309.22314453 C-196.02326879 322.69703929 -190.21765454 335.6836231 -183.5546875 348.23828125 C-180.48062446 346.81574644 -177.94159428 345.08815735 -175.2421875 343.05078125 C-158.32617413 331.15243998 -138.56711043 326.517875 -118.12109375 329.89453125 C-98.92639858 333.64415249 -82.61183505 343.94566531 -71.5546875 360.23828125 C-60.52195534 378.63100074 -57.0485652 399.20831931 -62.0546875 420.30078125 C-64.51639677 428.14637268 -68.4814662 435.14100171 -72.5546875 442.23828125 C-73.23414327 443.56514299 -73.90809357 444.89509902 -74.5546875 446.23828125 C-22.29841239 468.04398617 33.86790128 469.09741832 87.4453125 451.23828125 C86.02006112 448.12864188 84.22753109 445.3539104 82.32250977 442.51831055 C70.38028525 424.65031159 66.24092335 405.11746764 70.1328125 383.76171875 C73.08462161 371.88068708 78.35228501 361.41594129 86.4453125 352.23828125 C87.42951172 351.11292969 87.42951172 351.11292969 88.43359375 349.96484375 C101.28840515 336.19351015 118.76307759 329.44130201 137.296875 328.01953125 C157.22506341 327.37495373 175.58779985 334.25289117 190.20703125 347.796875 C194.23700854 351.75625415 197.96959314 355.78080973 201.4453125 360.23828125 C233.60093072 304.04986278 245.13474988 243.08933687 227.99609375 179.7578125 C221.9864013 158.52131503 212.59078914 139.20930532 201.4453125 120.23828125 C198.8881101 122.74545143 196.49649387 125.30835394 194.1953125 128.05078125 C182.74087031 141.06938046 167.1027106 150.12209659 149.57275391 151.45703125 C127.90476617 152.53554363 109.18745176 149.00180405 92.4453125 134.23828125 C91.69507813 133.58214844 90.94484375 132.92601562 90.171875 132.25 C78.61992987 121.46687033 70.28304647 105.65344842 69.28417969 89.65795898 C68.95145221 67.9784423 71.55566027 49.76694164 86.1953125 32.83984375 C87.65040279 31.31411358 87.65040279 31.31411358 87.4453125 29.23828125 C33.74753444 12.6080254 -22.22067825 11.0070869 -74.5546875 34.23828125 Z " fill="#41914B" transform="translate(243.5546875,15.76171875)"/>
<path d="M0 0 C2.09976321 -0.00083089 4.19952634 -0.00329853 6.29928589 -0.00730896 C10.67482352 -0.01014948 15.04984431 0.00436496 19.42529297 0.03198242 C25.00086222 0.06610401 30.57551128 0.06001578 36.15112495 0.04131985 C40.47862261 0.0306949 44.80591033 0.03973671 49.13338852 0.05470467 C51.18804168 0.05984381 53.24271716 0.05945729 55.2973671 0.05315971 C74.21212693 0.01692473 90.56127949 2.85458583 104.92578125 16.37109375 C108.61269565 20.39951818 111.54516664 24.752726 113.9921875 29.62890625 C114.34522949 30.28882568 114.69827148 30.94874512 115.06201172 31.62866211 C119.21007465 40.77782448 118.59447021 50.61490677 118.51367188 60.45288086 C118.49225949 63.55597314 118.51352525 66.65674448 118.5390625 69.75976562 C118.56460903 87.18302096 115.48604011 100.57249 103.4296875 113.81640625 C95.62737116 121.17851408 86.46178557 125.74209065 75.9921875 127.62890625 C75.91178223 128.25345703 75.83137695 128.87800781 75.74853516 129.52148438 C75.37626921 132.39127781 74.99677868 135.26007291 74.6171875 138.12890625 C74.49085938 139.11117187 74.36453125 140.0934375 74.234375 141.10546875 C72.27957629 155.76645906 72.27957629 155.76645906 69.63671875 159.58984375 C67.55736148 160.90364193 66.13604772 161.16057305 63.6796875 161.25390625 C62.94105469 161.30804688 62.20242188 161.3621875 61.44140625 161.41796875 C55.0339462 159.35368338 51.24109254 151.16816386 47.9296875 145.69140625 C47.52169922 145.02689453 47.11371094 144.36238281 46.69335938 143.67773438 C45.92023207 142.41850175 45.14955829 141.15775563 44.38256836 139.89477539 C43.69432983 138.77317017 43.69432983 138.77317017 42.9921875 137.62890625 C42.69991776 136.96896164 42.40764801 136.30901703 42.10652161 135.6290741 C40.93063907 133.26359597 39.85967484 131.50530151 37.9921875 129.62890625 C34.37936309 128.46163003 30.90650189 128.57674224 27.13671875 128.671875 C26.07990402 128.67133621 25.02308929 128.67079742 23.93424988 128.67024231 C21.69910148 128.67793647 19.46394665 128.70523787 17.22924805 128.75073242 C13.83287021 128.81586578 10.44179808 128.81239491 7.04492188 128.79882812 C4.86715337 128.8149109 2.68940986 128.83496691 0.51171875 128.859375 C-0.49279831 128.85866501 -1.49731537 128.85795502 -2.53227234 128.85722351 C-8.82387546 129.02326329 -13.01202876 130.32412329 -18.50415039 133.34449768 C-26.79756724 137.59911959 -35.24602578 138.02673101 -44.39453125 137.89453125 C-46.73763183 137.89730042 -49.08073126 137.90124139 -51.42382812 137.90625 C-55.07107856 137.89788305 -58.7174576 137.87866165 -62.36450195 137.83837891 C-65.91686838 137.80547559 -69.46709518 137.81588631 -73.01953125 137.83203125 C-74.10304367 137.80836487 -75.18655609 137.78469849 -76.30290222 137.76031494 C-81.87350187 137.81362447 -85.24393782 138.25269889 -89.52563477 141.97851562 C-90.70076218 143.18140999 -91.86214587 144.39791995 -93.0078125 145.62890625 C-94.22960029 146.71099558 -95.46234026 147.78099002 -96.7109375 148.83203125 C-97.29875 149.33734375 -97.8865625 149.84265625 -98.4921875 150.36328125 C-99.07484375 150.8634375 -99.6575 151.36359375 -100.2578125 151.87890625 C-100.8559375 152.39453125 -101.4540625 152.91015625 -102.0703125 153.44140625 C-103.70801617 154.84722268 -105.35501627 156.24089142 -107.0078125 157.62890625 C-107.72453125 158.23347656 -108.44125 158.83804688 -109.1796875 159.4609375 C-111.28093713 160.80340254 -112.52996822 161.06156671 -115.0078125 161.06640625 C-115.6678125 161.08574219 -116.3278125 161.10507812 -117.0078125 161.125 C-120.18066432 160.33798402 -121.16444137 159.35725865 -123.0078125 156.62890625 C-123.49728146 153.19920333 -123.38363651 149.83422714 -123.2578125 146.37890625 C-123.23976562 145.44304687 -123.22171875 144.5071875 -123.203125 143.54296875 C-123.15606923 141.2372361 -123.09034963 138.9335968 -123.0078125 136.62890625 C-123.97424683 136.59132202 -123.97424683 136.59132202 -124.96020508 136.55297852 C-138.5597934 135.89257985 -149.01922969 129.03379527 -158.1953125 119.44140625 C-165.98480176 110.34589484 -170.30646121 99.44931791 -170.34375 87.4921875 C-170.3504068 86.7314946 -170.3570636 85.9708017 -170.36392212 85.1870575 C-170.37399363 83.58444616 -170.37874085 81.98179334 -170.37841797 80.37915039 C-170.3827701 77.96492819 -170.41908696 75.55256906 -170.45703125 73.13867188 C-170.55941641 59.255334 -167.97529379 48.60832245 -159.0078125 37.62890625 C-158.50765625 37.00371094 -158.0075 36.37851563 -157.4921875 35.734375 C-147.73980352 24.8245111 -132.35037489 19.17845568 -117.97120667 18.28800964 C-114.56894045 18.20786241 -111.18403741 18.18295226 -107.78213501 18.23474693 C-105.56031459 18.26666654 -103.33995256 18.26967946 -101.11791992 18.26582336 C-94.81572602 18.25939685 -88.51424556 18.30001902 -82.21240234 18.36450195 C-78.32272635 18.40234915 -74.43417785 18.4060268 -70.54437256 18.38947487 C-69.07722273 18.39023358 -67.61001323 18.40410764 -66.14312744 18.43195152 C-56.51221583 18.728612 -56.51221583 18.728612 -48.2734375 14.24536133 C-47.17413797 13.04967841 -46.08472846 11.84478829 -45.0078125 10.62890625 C-31.97173846 0.01927771 -15.91026851 -0.11515149 0 0 Z " fill="#606C70" transform="translate(282.0078125,175.37109375)"/>
<path d="M0 0 C0.66 0 1.32 0 2 0 C3.57005548 2.15491678 4.98394286 4.29373592 6.375 6.5625 C7.02940063 7.62585571 7.02940063 7.62585571 7.69702148 8.71069336 C28.93091599 43.80856552 43.98192371 84.0317892 44.203125 125.51171875 C44.21013931 126.39421295 44.21715363 127.27670715 44.22438049 128.1859436 C44.24179764 131.01984817 44.24823318 133.85354387 44.25 136.6875 C44.25067474 137.65497162 44.25134949 138.62244324 44.25204468 139.61923218 C44.23648785 153.6356393 43.84265424 167.23159299 41 181 C40.83371094 181.86641113 40.66742188 182.73282227 40.49609375 183.62548828 C34.72017612 213.440989 23.72128904 249.67168063 3.27661133 272.96337891 C1.76662967 274.93713936 1.76662967 274.93713936 2.13134766 277.38378906 C2.34839355 278.25229492 2.56543945 279.12080078 2.7890625 280.015625 C7.12786842 300.16533384 4.12628982 320.75443425 -6.80224609 338.23632812 C-17.37574392 353.80562048 -33.90792897 365.56167948 -52.38671875 369.5625 C-69.11367773 371.58781828 -85.92607415 370.91387741 -100.97265625 362.63671875 C-106.27725784 360.97072634 -112.15955145 363.9799745 -117.19750977 365.67919922 C-126.885754 368.94409658 -136.54712748 371.80218282 -146.5625 373.875 C-147.47499512 374.06545898 -148.38749023 374.25591797 -149.32763672 374.45214844 C-164.69364251 377.48206507 -179.6902455 378.40669937 -195.3125 378.375 C-196.27744385 378.37478851 -197.2423877 378.37457703 -198.23657227 378.37435913 C-214.14310339 378.3396725 -229.39872663 377.32634017 -245 374 C-245.88365234 373.81808105 -246.76730469 373.63616211 -247.67773438 373.44873047 C-262.64049789 370.28961115 -278.02464427 365.76579315 -291.85546875 359.1953125 C-295.37499317 357.85745601 -296.5146794 357.7218701 -300 359 C-302.55601708 360.24861294 -305.05642445 361.53477747 -307.5625 362.875 C-324.53697356 371.56108885 -343.63484218 373.40274882 -362 368 C-370.12822093 365.28729289 -378.39168726 361.5420559 -385 356 C-386.25421633 352.68188337 -385.99767153 351.99383159 -384.6640625 348.4609375 C-384.00239527 347.09011336 -383.3215446 345.72843561 -382.625 344.375 C-382.26140381 343.662229 -381.89780762 342.94945801 -381.52319336 342.21508789 C-374.9935969 329.90957785 -364.36745392 319.50532706 -351 315 C-347.625 314.25 -347.625 314.25 -344 314 C-342.80117188 313.88785156 -342.80117188 313.88785156 -341.578125 313.7734375 C-331.35029143 313.21179346 -321.69187687 316.8277343 -313.82421875 323.359375 C-313.22222656 323.90078125 -312.62023437 324.4421875 -312 325 C-311.34644531 325.56203125 -310.69289063 326.1240625 -310.01953125 326.703125 C-302.39831831 333.71994774 -297.50354258 342.77120197 -293 352 C-292.23816406 351.11634766 -292.23816406 351.11634766 -291.4609375 350.21484375 C-290.77257812 349.46332031 -290.08421875 348.71179688 -289.375 347.9375 C-288.70210938 347.18339844 -288.02921875 346.42929687 -287.3359375 345.65234375 C-285 344 -285 344 -282.41015625 344.01953125 C-277.56032964 345.41392584 -272.82186812 347.07614958 -268.0625 348.75 C-259.76971116 351.5868897 -251.50718697 354.02733067 -242.9375 355.875 C-242.06037354 356.06545898 -241.18324707 356.25591797 -240.27954102 356.45214844 C-225.7036157 359.44833344 -211.52091353 360.40948508 -196.6875 360.375 C-195.30245773 360.37368576 -195.30245773 360.37368576 -193.88943481 360.37234497 C-170.25800828 360.29861237 -148.83326758 356.56978713 -126.22290039 349.57910156 C-124 349 -124 349 -121 349 C-121.72445313 348.00742187 -122.44890625 347.01484375 -123.1953125 345.9921875 C-137.15571861 326.51518876 -142.78410396 307.71065687 -139.6953125 283.62402344 C-136.33186489 265.16796271 -124.95319769 248.78821218 -109.9609375 237.765625 C-92.29938161 226.33503165 -72.65964022 222.54120958 -52.07446289 226.52148438 C-34.44121142 230.34044498 -22.13132002 240.31539342 -10 253 C-9.00322752 254.00321713 -8.00494632 255.00497091 -7 256 C24.58054926 201.87258106 35.09102914 141.38949377 19.27978516 80.21337891 C13.75128575 59.78422204 5.58833901 40.4440975 -5.75 22.55078125 C-7.1753996 19.6420752 -7.46480688 18.19493569 -7 15 C-5.72265625 11.9921875 -5.72265625 11.9921875 -4.0625 8.875 C-1.77911332 4.54576813 -1.77911332 4.54576813 0 0 Z " fill="#558AD7" transform="translate(452,118)"/>
<path d="M0 0 C15.35830062 11.7320352 25.87659761 27.98840633 29.21875 47.12109375 C29.43513577 51.03567601 29.40387135 54.95108339 29.40625 58.87109375 C29.41849609 59.9178125 29.43074219 60.96453125 29.44335938 62.04296875 C29.46190134 71.93201781 27.9195319 79.58521953 23.28125 88.30859375 C22.93384766 88.98083984 22.58644531 89.65308594 22.22851562 90.34570312 C21.54717769 91.66346972 20.86040204 92.97844169 20.16772461 94.2902832 C19.31276325 95.93971856 18.51583678 97.61892453 17.7265625 99.30078125 C15.0658755 104.27750668 11.12045218 108.09083466 7.21875 112.12109375 C6.61160156 112.75402344 6.00445312 113.38695312 5.37890625 114.0390625 C-8.90452722 127.69740041 -27.51848743 131.74999259 -46.64086914 131.59423828 C-67.4454266 131.01032823 -84.04462244 121.64333222 -98.359375 106.90625 C-113.50675437 89.48676372 -115.76541955 69.30005751 -114.78125 47.12109375 C-113.05307404 30.82439442 -102.80600101 14.66804519 -90.32666016 4.51879883 C-82.2579816 -1.87890625 -82.2579816 -1.87890625 -79.78125 -1.87890625 C-79.78125 -2.53890625 -79.78125 -3.19890625 -79.78125 -3.87890625 C-53.56689361 -17.1768334 -24.66939481 -16.66570071 0 0 Z " fill="#EC8A3F" transform="translate(426.78125,36.87890625)"/>
<path d="M0 0 C13.72533837 11.95691995 24.99429322 28.44575574 26.30200195 47.15771484 C26.7427994 66.42284625 25.56166775 86.37913406 11.640625 101.28515625 C10.81046875 102.05730469 9.9803125 102.82945312 9.125 103.625 C8.38636719 104.36363281 7.64773437 105.10226562 6.88671875 105.86328125 C4.96614583 107.78385417 3.04557292 109.70442708 1.125 111.625 C-1.40701536 109.09298464 -2.33725809 106.51789529 -3.8125 103.25 C-9.96705369 90.40166185 -20.02595031 80.68197509 -33.25 75.25 C-42.58906753 72.12395229 -53.04252504 72.83096385 -62.1484375 76.5546875 C-77.29683845 84.26176868 -85.40569099 97.50624854 -91.875 112.625 C-96.43530104 109.86760867 -99.67361065 106.9169866 -102.875 102.625 C-103.30506348 102.05249512 -103.73512695 101.47999023 -104.17822266 100.89013672 C-117.40142669 82.83317777 -120.12665337 62.65683564 -117.40234375 40.83984375 C-114.55300599 27.88985957 -107.10942969 17.67335319 -98.875 7.625 C-98.45669922 7.09865967 -98.03839844 6.57231934 -97.60742188 6.0300293 C-74.40488664 -22.76310139 -27.20385352 -21.41182427 0 0 Z " fill="#FE585D" transform="translate(157.875,359.375)"/>
<path d="M0 0 C1.52412156 0.00748877 3.04825294 0.01316917 4.5723877 0.01715088 C8.52459759 0.03220055 12.47619044 0.0712947 16.42816162 0.1159668 C20.48457499 0.15737446 24.54109108 0.17525753 28.59765625 0.1953125 C36.51329953 0.23781673 44.42844737 0.30580582 52.34375 0.390625 C48.51611328 7.13378906 48.51611328 7.13378906 46.96484375 9.4453125 C43.68407178 14.49098821 42.62529699 19.36468948 41.69140625 25.2109375 C41.55931763 25.99863525 41.427229 26.78633301 41.2911377 27.59790039 C40.96853196 29.52768252 40.65520171 31.45901133 40.34375 33.390625 C39.5884198 33.39205002 38.8330896 33.39347504 38.05487061 33.39494324 C30.93315326 33.41277999 23.81215944 33.45441182 16.69076157 33.52271557 C13.02959772 33.55699327 9.36885144 33.58209659 5.70751953 33.58618164 C2.17338812 33.59046321 -1.35980122 33.61891135 -4.89363861 33.66405678 C-6.89655074 33.68334981 -8.89965285 33.67767294 -10.90264893 33.67167664 C-12.12361267 33.69131973 -13.34457642 33.71096283 -14.60253906 33.73120117 C-15.67731506 33.73786301 -16.75209106 33.74452484 -17.85943604 33.75138855 C-21.60115987 34.60659247 -22.65267869 36.20103612 -24.65625 39.390625 C-24.92970567 41.61401333 -24.92970567 41.61401333 -24.40625 43.703125 C-24.15875 44.92 -23.91125 46.136875 -23.65625 47.390625 C-20.45497874 48.45771542 -18.08267377 48.54735703 -14.71606445 48.59594727 C-12.88450554 48.6258651 -12.88450554 48.6258651 -11.01594543 48.65638733 C-9.69712875 48.67309982 -8.37831207 48.68981232 -7.01953125 48.70703125 C-5.65617756 48.7276076 -4.29283015 48.74860425 -2.92948914 48.77000427 C0.65596422 48.8251547 4.24147448 48.87459487 7.82702637 48.92285156 C11.4869492 48.97311799 15.14678957 49.02877719 18.80664062 49.08398438 C25.98560915 49.19147997 33.16464692 49.29244545 40.34375 49.390625 C40.34375 53.350625 40.34375 57.310625 40.34375 61.390625 C38.85004883 61.3999707 37.35634766 61.40931641 35.81738281 61.41894531 C30.27834185 61.45880103 24.73985888 61.52454828 19.20117188 61.59814453 C16.8034583 61.62637965 14.40565121 61.64758146 12.0078125 61.66162109 C8.56201203 61.68301472 5.11733905 61.7296488 1.671875 61.78125 C0.06230927 61.78309296 0.06230927 61.78309296 -1.57977295 61.78497314 C-2.58050842 61.80469177 -3.5812439 61.8244104 -4.61230469 61.84472656 C-5.49166687 61.85360901 -6.37102905 61.86249146 -7.27703857 61.87164307 C-10.44411235 62.56248292 -11.66021504 63.88583719 -13.65625 66.390625 C-14.32291667 69.390625 -14.32291667 69.390625 -13.65625 72.390625 C-11.60729508 75.00361683 -10.42686263 76.24417348 -7.12518311 76.87164307 C-5.69955048 76.8583194 -5.69955048 76.8583194 -4.24511719 76.84472656 C-2.62388947 76.84427338 -2.62388947 76.84427338 -0.96990967 76.84381104 C0.77089874 76.81284332 0.77089874 76.81284332 2.546875 76.78125 C4.33626495 76.77276031 4.33626495 76.77276031 6.1618042 76.76409912 C9.97286056 76.74170426 13.78297767 76.69149929 17.59375 76.640625 C20.17706976 76.62056415 22.76040425 76.60231266 25.34375 76.5859375 C31.67740394 76.54182911 38.01050987 76.47488478 44.34375 76.390625 C44.67944504 77.07823914 45.01514008 77.76585327 45.36100769 78.4743042 C46.0276519 79.82652069 46.0276519 79.82652069 46.70776367 81.20605469 C47.14658371 82.09991882 47.58540375 82.99378296 48.03752136 83.91473389 C54.34282734 95.8661263 66.63278573 103.95419063 79.21875 107.9921875 C82.33051247 108.57564296 85.43601048 108.7484567 88.59375 108.953125 C90.48867188 109.07880859 90.48867188 109.07880859 92.421875 109.20703125 C93.38609375 109.26761719 94.3503125 109.32820313 95.34375 109.390625 C92.2246123 112.96733792 89.3386276 114.4537739 84.90625 116.078125 C83.23755859 116.70267578 83.23755859 116.70267578 81.53515625 117.33984375 C76.94950531 118.84968476 72.86278423 119.51451201 68.0378418 119.48486328 C67.00294113 119.48221466 65.96804047 119.47956604 64.90177917 119.47683716 C63.79337173 119.47159027 62.68496429 119.46634338 61.54296875 119.4609375 C59.18033117 119.46952135 56.81769985 119.47999712 54.45507812 119.4921875 C50.74179077 119.50887974 47.02990559 119.51561581 43.31665039 119.49023438 C39.72455314 119.46922935 36.13494761 119.4925399 32.54296875 119.5234375 C30.88946663 119.49734909 30.88946663 119.49734909 29.20256042 119.47073364 C22.41981197 119.57636508 18.80854959 120.67135831 14.02650452 125.57705688 C13.47119553 126.17553436 12.91588654 126.77401184 12.34375 127.390625 C11.12210323 128.47287353 9.88936984 129.54288414 8.640625 130.59375 C8.0528125 131.0990625 7.465 131.604375 6.859375 132.125 C6.27671875 132.62515625 5.6940625 133.1253125 5.09375 133.640625 C4.495625 134.15625 3.8975 134.671875 3.28125 135.203125 C1.64354633 136.60894143 -0.00345377 138.00261017 -1.65625 139.390625 C-2.37296875 139.99519531 -3.0896875 140.59976563 -3.828125 141.22265625 C-5.92937463 142.56512129 -7.17840572 142.82328546 -9.65625 142.828125 C-10.31625 142.84746094 -10.97625 142.86679687 -11.65625 142.88671875 C-14.82910182 142.09970277 -15.81287887 141.1189774 -17.65625 138.390625 C-18.14571896 134.96092208 -18.03207401 131.59594589 -17.90625 128.140625 C-17.88820312 127.20476562 -17.87015625 126.26890625 -17.8515625 125.3046875 C-17.80450673 122.99895485 -17.73878713 120.69531555 -17.65625 118.390625 C-18.62268433 118.35304077 -18.62268433 118.35304077 -19.60864258 118.31469727 C-33.2082309 117.6542986 -43.66766719 110.79551402 -52.84375 101.203125 C-60.63323926 92.10761359 -64.95489871 81.21103666 -64.9921875 69.25390625 C-64.9988443 68.49321335 -65.0055011 67.73252045 -65.01235962 66.94877625 C-65.02243113 65.34616491 -65.02717835 63.74351209 -65.02685547 62.14086914 C-65.0312076 59.72664694 -65.06752446 57.31428781 -65.10546875 54.90039062 C-65.20785391 41.01705275 -62.62373129 30.3700412 -53.65625 19.390625 C-53.15609375 18.76542969 -52.6559375 18.14023438 -52.140625 17.49609375 C-38.83582549 2.61218924 -18.83403161 -0.27824122 0 0 Z " fill="#CBCBBE" transform="translate(176.65625,193.609375)"/>
<path d="M0 0 C10.22783357 -0.56164404 19.88624813 3.0542968 27.75390625 9.5859375 C28.35589844 10.12734375 28.95789063 10.66875 29.578125 11.2265625 C30.23167969 11.78859375 30.88523437 12.350625 31.55859375 12.9296875 C39.17980669 19.94651024 44.07458242 28.99776447 48.578125 38.2265625 C49.08601563 37.63746094 49.59390625 37.04835938 50.1171875 36.44140625 C50.80554688 35.68988281 51.49390625 34.93835938 52.203125 34.1640625 C52.87601562 33.40996094 53.54890625 32.65585937 54.2421875 31.87890625 C56.578125 30.2265625 56.578125 30.2265625 59.16796875 30.24609375 C64.01779536 31.64048834 68.75625688 33.30271208 73.515625 34.9765625 C81.80841384 37.8134522 90.07093803 40.25389317 98.640625 42.1015625 C99.51775146 42.29202148 100.39487793 42.48248047 101.29858398 42.67871094 C115.8745093 45.67489594 130.05721147 46.63604758 144.890625 46.6015625 C146.27566727 46.60024826 146.27566727 46.60024826 147.68869019 46.59890747 C171.22260161 46.52547913 192.59796482 42.83246986 215.12817383 35.91918945 C217.61925149 35.21493561 220.01044959 34.57165117 222.578125 34.2265625 C224.82421875 35.73828125 224.82421875 35.73828125 227.015625 37.9140625 C230.38760197 41.13379302 233.61484318 43.78761984 237.578125 46.2265625 C213.1298155 62.5254355 174.88599525 64.65963656 146.265625 64.6015625 C145.30068115 64.60135101 144.3357373 64.60113953 143.34155273 64.60092163 C127.43502161 64.566235 112.17939837 63.55290267 96.578125 60.2265625 C95.69447266 60.04464355 94.81082031 59.86272461 93.90039062 59.67529297 C78.93762711 56.51617365 63.55348073 51.99235565 49.72265625 45.421875 C46.20313183 44.08401851 45.0634456 43.9484326 41.578125 45.2265625 C39.02210792 46.47517544 36.52170055 47.76133997 34.015625 49.1015625 C17.04115144 57.78765135 -2.05671718 59.62931132 -20.421875 54.2265625 C-28.55009593 51.51385539 -36.81356226 47.7686184 -43.421875 42.2265625 C-44.67609133 38.90844587 -44.41954653 38.22039409 -43.0859375 34.6875 C-42.42427027 33.31667586 -41.7434196 31.95499811 -41.046875 30.6015625 C-40.68327881 29.8887915 -40.31968262 29.17602051 -39.94506836 28.44165039 C-33.4154719 16.13614035 -22.78932892 5.73188956 -9.421875 1.2265625 C-6.25532379 0.52288445 -3.21883631 0.30111695 0 0 Z " fill="#5789D6" transform="translate(110.421875,431.7734375)"/>
<path d="M0 0 C0.66 0 1.32 0 2 0 C3.57005548 2.15491678 4.98394286 4.29373592 6.375 6.5625 C6.81126709 7.27140381 7.24753418 7.98030762 7.69702148 8.71069336 C28.93091599 43.80856552 43.98192371 84.0317892 44.203125 125.51171875 C44.21364647 126.83546005 44.21364647 126.83546005 44.22438049 128.1859436 C44.24179764 131.01984817 44.24823318 133.85354387 44.25 136.6875 C44.25067474 137.65497162 44.25134949 138.62244324 44.25204468 139.61923218 C44.23648785 153.6356393 43.84265424 167.23159299 41 181 C40.83371094 181.86641113 40.66742188 182.73282227 40.49609375 183.62548828 C34.46699004 214.74794491 22.74921427 250.35790774 2 275 C1.34 275 0.68 275 0 275 C-1.20474943 272.61153168 -2.38864958 270.21609848 -3.5625 267.8125 C-4.07586914 266.80219727 -4.07586914 266.80219727 -4.59960938 265.77148438 C-4.91865234 265.11083984 -5.23769531 264.45019531 -5.56640625 263.76953125 C-6.01415405 262.86618042 -6.01415405 262.86618042 -6.47094727 261.94458008 C-7.74378761 257.26614292 -5.31941255 253.36971558 -3.12109375 249.34375 C-2.239375 247.70249146 -2.239375 247.70249146 -1.33984375 246.02807617 C-1.02901855 245.45302338 -0.71819336 244.87797058 -0.39794922 244.28549194 C28.22557338 191.07386139 34.21580313 130.36657432 17.0625 72.375 C11.62082065 54.78417248 4.1096979 38.110617 -5.75 22.55078125 C-7.1753996 19.6420752 -7.46480688 18.19493569 -7 15 C-5.72265625 11.9921875 -5.72265625 11.9921875 -4.0625 8.875 C-1.77911332 4.54576813 -1.77911332 4.54576813 0 0 Z " fill="#003265" transform="translate(452,118)"/>
<path d="M0 0 C0.66 0 1.32 0 2 0 C3.62109375 2.01171875 3.62109375 2.01171875 5.4375 4.6875 C6.03433594 5.55761719 6.63117187 6.42773438 7.24609375 7.32421875 C7.82488281 8.20722656 8.40367188 9.09023437 9 10 C9.639375 10.78117188 10.27875 11.56234375 10.9375 12.3671875 C12 15 12 15 10.75390625 18.49609375 C10.04294162 19.82055206 9.31101229 21.13389352 8.5625 22.4375 C7.79026372 23.88527914 7.02076679 25.33452251 6.25390625 26.78515625 C5.67406982 27.86240967 5.67406982 27.86240967 5.08251953 28.96142578 C-20.3931523 76.93658586 -21.44144054 137.83739522 -5.98828125 188.94140625 C-1.63057546 202.61104903 3.95942678 215.80786733 10.98046875 228.3203125 C12 231 12 231 11.46484375 232.9765625 C10.98144531 233.64429688 10.49804688 234.31203125 10 235 C9.28585938 235.99515625 8.57171875 236.9903125 7.8359375 238.015625 C7.01889469 239.09623 6.19849778 240.17430603 5.375 241.25 C4.95476563 241.80429687 4.53453125 242.35859375 4.1015625 242.9296875 C3.07061281 244.28866663 2.03570089 245.64463835 1 247 C-2.20016627 243.27000488 -4.53932695 239.39416617 -6.6875 235 C-7.1968811 233.9627478 -7.1968811 233.9627478 -7.71655273 232.90454102 C-37.15200925 172.16417833 -42.16125676 105.23230233 -20.14306641 41.16064453 C-8.23547919 8.23547919 -8.23547919 8.23547919 0 0 Z " fill="#003265" transform="translate(49,133)"/>
<path d="M0 0 C8.33543193 7.0750917 15.5417915 16.50372897 19 27 C19 28.32 19 29.64 19 31 C6.3143906 41.96802206 -10.97321864 46.59811432 -27.375 46.4375 C-28.46772217 46.42992676 -29.56044434 46.42235352 -30.6862793 46.41455078 C-47.01073844 46.08226478 -61.38660181 40.46170085 -74 30 C-67.83207895 13.00856365 -57.65999272 0.26203725 -41.4296875 -7.6875 C-26.99558099 -13.2112583 -11.77048936 -9.54479683 0 0 Z " fill="#43914A" transform="translate(411,122)"/>
<path d="M0 0 C8.73767306 7.35243221 16.37055715 17.02093538 20 28 C20 29.32 20 30.64 20 32 C13.78152964 37.37651113 5.62675806 41.0591738 -2 44 C-3.24523437 44.48146484 -3.24523437 44.48146484 -4.515625 44.97265625 C-22.01637464 50.47362288 -43.02124275 48.2324328 -59.17163086 40.00390625 C-63.66352729 37.62766747 -68.01211041 35.17645796 -72 32 C-71.23102463 22.2596453 -65.18279356 14.16996228 -59 7 C-58.42765625 6.3090625 -57.8553125 5.618125 -57.265625 4.90625 C-42.23413075 -11.79541027 -17.67861696 -13.37228719 0 0 Z " fill="#FC585C" transform="translate(138,121)"/>
<path d="M0 0 C10.22842405 -0.57479616 19.89471018 3.05092979 27.76171875 9.58203125 C28.36371094 10.1234375 28.96570313 10.66484375 29.5859375 11.22265625 C30.23949219 11.7846875 30.89304687 12.34671875 31.56640625 12.92578125 C38.53757352 19.34410933 44.61329354 28.16960418 47.5859375 37.22265625 C47.5859375 38.54265625 47.5859375 39.86265625 47.5859375 41.22265625 C32.27751088 54.45837521 12.7456982 57.33990232 -6.68359375 56.43847656 C-19.92879215 55.39155637 -33.99042263 49.81802532 -43.4140625 40.22265625 C-44.33984375 38.390625 -44.33984375 38.390625 -44.4140625 36.22265625 C-40.92565628 27.22110453 -35.2404804 19.9540979 -28.4140625 13.22265625 C-27.76566406 12.56394531 -27.11726563 11.90523438 -26.44921875 11.2265625 C-18.83248064 3.98365203 -10.30677878 0.95062523 0 0 Z " fill="#EA8A41" transform="translate(382.4140625,431.77734375)"/>
<path d="M0 0 C4.83397451 1.42175721 9.57175982 3.07467327 14.32421875 4.74609375 C22.61700759 7.58298345 30.87953178 10.02342442 39.44921875 11.87109375 C40.32634521 12.06155273 41.20347168 12.25201172 42.10717773 12.44824219 C56.68310305 15.44442719 70.86580522 16.40557883 85.69921875 16.37109375 C87.08426102 16.36977951 87.08426102 16.36977951 88.49728394 16.36843872 C112.03119536 16.29501038 133.40655857 12.60200111 155.93676758 5.6887207 C158.42784524 4.98446686 160.81904334 4.34118242 163.38671875 3.99609375 C165.6328125 5.5078125 165.6328125 5.5078125 167.82421875 7.68359375 C171.19619572 10.90332427 174.42343693 13.55715109 178.38671875 15.99609375 C153.93840925 32.29496675 115.694589 34.42916781 87.07421875 34.37109375 C86.1092749 34.37088226 85.14433105 34.37067078 84.15014648 34.37045288 C68.24361536 34.33576625 52.98799212 33.32243392 37.38671875 29.99609375 C36.50306641 29.8141748 35.61941406 29.63225586 34.70898438 29.44482422 C18.2011913 25.95949961 1.33887934 20.87581218 -13.61328125 12.99609375 C-11.95594682 9.50306325 -10.03839099 6.99973819 -7.36328125 4.18359375 C-6.615625 3.37277344 -5.86796875 2.56195313 -5.09765625 1.7265625 C-2.61328125 -0.00390625 -2.61328125 -0.00390625 0 0 Z " fill="#003366" transform="translate(169.61328125,462.00390625)"/>
<path d="M0 0 C0.96494385 0.00021149 1.9298877 0.00042297 2.92407227 0.00064087 C18.82825271 0.03532237 34.08964781 1.04056813 49.6875 4.375 C50.58710449 4.56223633 51.48670898 4.74947266 52.41357422 4.94238281 C65.56619945 7.75403871 79.61370907 11.33810453 91.6875 17.375 C91.6875 18.035 91.6875 18.695 91.6875 19.375 C89.96602222 20.75159768 88.18372345 22.05272763 86.375 23.3125 C83.22747278 25.51371185 80.35451668 27.61701228 77.6875 30.375 C77.02540527 30.19324219 76.36331055 30.01148437 75.68115234 29.82421875 C23.52768285 15.54813305 -30.95474637 10.87432799 -81.859375 33.625 C-84.88324414 34.54949502 -86.34555078 34.4658593 -89.3125 33.375 C-91.69921875 31.34375 -91.69921875 31.34375 -94 28.875 C-96.8410757 25.70303323 -96.8410757 25.70303323 -100.3125 23.375 C-100.3125 22.715 -100.3125 22.055 -100.3125 21.375 C-79.94619869 12.78680065 -59.2125467 5.77634308 -37.3125 2.375 C-36.18803467 2.19839844 -35.06356934 2.02179687 -33.9050293 1.83984375 C-22.59980065 0.23738142 -11.40721654 -0.02314657 0 0 Z " fill="#003365" transform="translate(255.3125,15.625)"/>
<path d="M0 0 C5.10325793 3.71796024 8.22380381 8.69499016 10.23046875 14.625 C11.39846427 22.62884299 9.8413948 29.00477872 5.23046875 35.625 C0.17653181 41.31518078 -5.90583358 44.66922576 -13.58203125 45.125 C-20.1817965 44.89395799 -25.70036355 42.34525179 -30.625 37.98046875 C-36.15280588 31.93400454 -38.44535359 25.64577773 -38.17578125 17.46875 C-37.20565728 10.67788218 -34.19914542 5.3795454 -28.83203125 1.125 C-19.68325467 -4.89482697 -9.60115869 -5.37298547 0 0 Z " fill="#F6C97A" transform="translate(397.76953125,376.375)"/>
<path d="M0 0 C5.10325793 3.71796024 8.22380381 8.69499016 10.23046875 14.625 C11.39846427 22.62884299 9.8413948 29.00477872 5.23046875 35.625 C0.17653181 41.31518078 -5.90583358 44.66922576 -13.58203125 45.125 C-20.1817965 44.89395799 -25.70036355 42.34525179 -30.625 37.98046875 C-36.15280588 31.93400454 -38.44535359 25.64577773 -38.17578125 17.46875 C-37.20565728 10.67788218 -34.19914542 5.3795454 -28.83203125 1.125 C-19.68325467 -4.89482697 -9.60115869 -5.37298547 0 0 Z " fill="#F6C978" transform="translate(125.76953125,56.375)"/>
<path d="M0 0 C5.18652946 5.18652946 8.4111358 10.98757234 8.6875 18.375 C8.60382273 25.40389074 6.34017462 30.90366919 1.66796875 36.1640625 C-4.08216495 41.43393673 -10.23997172 43.99664102 -18.06640625 43.72265625 C-25.2419441 42.59980756 -31.14601121 38.87010276 -35.50390625 33.1171875 C-39.69752459 26.72295756 -40.758823 20.81176103 -39.6875 13.3125 C-37.3786136 5.87275494 -33.42012115 1.14059075 -26.6875 -2.6875 C-17.72890279 -6.97204649 -8.11563238 -5.09586219 0 0 Z " fill="#F9C878" transform="translate(127.6875,377.6875)"/>
<path d="M0 0 C4.19277634 4.19277634 7.86932434 9.25576593 8.3125 15.3125 C8.38597656 15.95703125 8.45945312 16.6015625 8.53515625 17.265625 C8.98747856 23.89968552 7.00488832 28.84367297 3.3125 34.3125 C-1.07080032 39.26844051 -6.36790565 42.65580491 -13 43.6640625 C-20.58249435 44.1142731 -26.85667249 41.70782291 -32.54296875 36.66796875 C-38.07077463 30.62150454 -40.36332234 24.33327773 -40.09375 16.15625 C-39.12362603 9.36538218 -36.11711417 4.0670454 -30.75 -0.1875 C-20.77499311 -6.76320286 -9.95560484 -6.25119374 0 0 Z " fill="#F8C978" transform="translate(399.6875,57.6875)"/>
<path d="M0 0 C1.02643112 -0.00861557 2.05286224 -0.01723114 3.11039734 -0.02610779 C6.50622718 -0.04882608 9.90123568 -0.04201758 13.29711914 -0.03295898 C15.65597276 -0.03819213 18.01482428 -0.04446747 20.37367249 -0.05174255 C25.31920208 -0.06215778 30.26444414 -0.05756922 35.20996094 -0.04296875 C41.55008177 -0.0257841 47.88929611 -0.04926747 54.22931576 -0.08445835 C59.10122187 -0.10641144 63.97291043 -0.10499576 68.84485054 -0.09669304 C71.18244991 -0.09587229 73.52006507 -0.10275907 75.85761833 -0.11746407 C79.12569879 -0.13486942 82.39214191 -0.12039892 85.66015625 -0.09765625 C87.11053284 -0.11519455 87.11053284 -0.11519455 88.59020996 -0.13308716 C93.16624703 -0.06824343 95.25388639 0.05934947 99.02662659 2.85023499 C100.89477539 5.53344727 100.89477539 5.53344727 101.01977539 9.09594727 C99.64065061 13.30993965 98.6892192 14.27618731 94.89477539 16.53344727 C91.54950029 17.12142685 88.24937523 17.09026246 84.85961914 17.06689453 C83.85254913 17.0755101 82.84547913 17.08412567 81.80789185 17.09300232 C78.48242417 17.1156861 75.15779747 17.10891908 71.83227539 17.09985352 C69.51969146 17.10508776 67.20710967 17.1113635 64.89453125 17.11863708 C60.04913279 17.1290456 55.20402793 17.12447271 50.35864258 17.10986328 C44.14745916 17.09266934 37.93720025 17.1161769 31.72612 17.15135288 C26.95115013 17.17330539 22.17640225 17.17189062 17.40139771 17.16358757 C15.1112466 17.16276699 12.82107937 17.16965062 10.53097534 17.1843586 C7.33004783 17.20176535 4.13079167 17.18729312 0.92993164 17.16455078 C-0.01671356 17.17624298 -0.96335876 17.18793518 -1.93869019 17.19998169 C-6.46097909 17.13456087 -8.48259156 16.99997038 -12.19726562 14.21665955 C-14.69819947 10.69953131 -14.79704632 8.76124661 -14.10522461 4.53344727 C-10.65862383 -0.82340628 -5.75050519 -0.03872998 0 0 Z " fill="#A0D2E0" transform="translate(265.105224609375,203.466552734375)"/>
<path d="M0 0 C1.23503769 -0.01073296 1.23503769 -0.01073296 2.49502563 -0.02168274 C5.20876026 -0.03855207 7.92083889 -0.01918012 10.63452148 0.00219727 C12.52351518 0.00136848 14.41250881 -0.00109126 16.30149841 -0.00511169 C20.25672156 -0.00796837 24.211378 0.00672018 28.16650391 0.03417969 C33.23658335 0.06828564 38.30565107 0.06223531 43.37577915 0.04351711 C47.27488135 0.03295044 51.173748 0.04188151 55.07282829 0.05690193 C56.94233437 0.06208508 58.81186503 0.06160033 60.68136787 0.05535698 C63.29332551 0.04990782 65.90383265 0.07026833 68.515625 0.09765625 C69.28820145 0.09113037 70.06077789 0.08460449 70.85676575 0.07788086 C74.33150385 0.13985093 76.33339044 0.36689712 79.16905212 2.44960022 C81.43506234 5.69310682 81.30271196 7.77032424 80.69311523 11.63110352 C77.96414762 15.24096667 76.48489967 16.4973471 71.9744873 17.2592926 C70.51179599 17.28580872 69.04844739 17.28500228 67.58569336 17.26220703 C66.78344833 17.26936234 65.98120331 17.27651764 65.15464783 17.28388977 C62.51063576 17.30075767 59.8683239 17.28138658 57.22436523 17.26000977 C55.38260762 17.26083865 53.54085009 17.26329875 51.69909668 17.26731873 C47.84222096 17.27017541 43.98592639 17.25548834 40.12915039 17.22802734 C35.18919711 17.19394467 30.25028286 17.19996393 25.31027985 17.21868992 C21.50807052 17.22926636 17.70610232 17.22031626 13.90391541 17.2053051 C12.08268449 17.20012755 10.26142835 17.20059991 8.44020081 17.20685005 C5.89309686 17.21231012 3.34747239 17.19190315 0.80053711 17.16455078 C0.05025742 17.17107666 -0.70002228 17.17760254 -1.47303772 17.18432617 C-5.06475595 17.11885167 -7.16418549 16.71947637 -10.24328613 14.81260681 C-12.30688477 12.63110352 -12.30688477 12.63110352 -13.43188477 9.19360352 C-13.30688477 5.63110352 -13.30688477 5.63110352 -11.31825256 2.94789124 C-7.52403549 0.02882053 -4.59834133 -0.06977428 0 0 Z " fill="#9FD1DF" transform="translate(274.306884765625,231.368896484375)"/>
<path d="M0 0 C1.28813599 -0.01583633 2.57627197 -0.03167267 3.90344238 -0.04798889 C5.30607465 -0.04414758 6.70870408 -0.03910862 8.11132812 -0.03295898 C9.55334881 -0.03819508 10.99536607 -0.04447151 12.43737793 -0.05174255 C15.45695127 -0.06214351 18.47605326 -0.05758987 21.49560547 -0.04296875 C25.36310656 -0.02577353 29.229123 -0.04928416 33.09645844 -0.08445835 C36.07340314 -0.10642967 39.04999234 -0.1049919 42.0269928 -0.09669304 C43.45273976 -0.09587348 44.87851281 -0.10273788 46.30418396 -0.11746407 C48.29777607 -0.13490121 50.29158225 -0.11705303 52.28515625 -0.09765625 C53.418927 -0.09669449 54.55269775 -0.09573273 55.7208252 -0.09474182 C58.64257812 0.53344727 58.64257812 0.53344727 61.03601074 2.85023499 C62.64257812 5.53344727 62.64257812 5.53344727 62.70507812 9.09594727 C61.4241238 13.24021127 60.24319743 14.21141801 56.64257812 16.53344727 C53.72119141 17.04811096 53.72119141 17.04811096 50.46289062 17.06689453 C49.23812012 17.08273087 48.01334961 17.0985672 46.75146484 17.11488342 C45.43678223 17.10992355 44.12209961 17.10496368 42.76757812 17.09985352 C41.39664285 17.10509225 40.02571118 17.11136965 38.65478516 17.11863708 C35.78661087 17.12902682 32.91893316 17.12450061 30.05078125 17.10986328 C26.38179521 17.09266809 22.71437421 17.11618393 19.04556274 17.15135288 C16.2161224 17.17335057 13.38705533 17.17188013 10.55755615 17.16358757 C8.54955965 17.16237286 6.54158618 17.18228085 4.53369141 17.20252991 C-5.58902066 17.09894391 -5.58902066 17.09894391 -8.68945312 14.21679688 C-10.88851744 10.67904572 -11.02711676 8.62602711 -10.35742188 4.53344727 C-7.28680187 0.44351164 -5.00011953 0.02733677 0 0 Z " fill="#9FD1DE" transform="translate(282.357421875,259.466552734375)"/>
<path d="M0 0 C1.36046982 0.01119971 2.72096394 0.01973624 4.08146667 0.02572632 C7.6511899 0.04856528 11.21943319 0.10744074 14.78857422 0.1739502 C18.43501771 0.23548241 22.0817019 0.26276434 25.72851562 0.29296875 C32.87566102 0.35719311 40.02156219 0.46267455 47.16796875 0.5859375 C47.16796875 5.8659375 47.16796875 11.1459375 47.16796875 16.5859375 C39.28363118 16.67633827 31.39969709 16.74970989 23.51498032 16.79318619 C19.85370364 16.8140536 16.19280017 16.84235456 12.53173828 16.88769531 C8.99798164 16.93118513 5.46458376 16.95508098 1.93058014 16.96544647 C-0.07254377 16.97642487 -2.07552351 17.00764626 -4.07843018 17.03912354 C-5.29939392 17.03942566 -6.52035767 17.03972778 -7.77832031 17.04003906 C-9.39048431 17.05336273 -9.39048431 17.05336273 -11.03521729 17.06695557 C-14.53174958 16.46559444 -15.66871718 15.34293685 -17.83203125 12.5859375 C-18.89453125 9.7109375 -18.89453125 9.7109375 -18.83203125 6.5859375 C-14.6762948 -1.42104957 -8.2259348 -0.19468057 0 0 Z " fill="#568AD7" transform="translate(169.83203125,226.4140625)"/>
<path d="M0 0 C1.10272751 0.00707474 2.20545502 0.01414948 3.34159851 0.0214386 C6.85733392 0.04938636 10.37146618 0.1121296 13.88671875 0.17578125 C16.27276343 0.20086344 18.65883312 0.22367674 21.04492188 0.24414062 C26.88856612 0.29921433 32.7312779 0.3828458 38.57421875 0.48828125 C39.10673641 2.40173452 39.62481358 4.31921075 40.13671875 6.23828125 C40.42675781 7.305625 40.71679688 8.37296875 41.015625 9.47265625 C41.56164129 12.42038054 41.39578637 13.70597558 40.57421875 16.48828125 C33.26036091 16.6150952 25.94678673 16.70263883 18.63208008 16.76293945 C16.14401657 16.78807796 13.65602687 16.82219372 11.16821289 16.86547852 C7.59112334 16.92615555 4.0150104 16.95449859 0.4375 16.9765625 C-1.22994514 17.01527214 -1.22994514 17.01527214 -2.93107605 17.05476379 C-10.64769619 17.05756404 -10.64769619 17.05756404 -14.62817383 14.14526367 C-16.42578125 11.48828125 -16.42578125 11.48828125 -17.05078125 8.48828125 C-15.12871516 -0.73763597 -7.72806573 -0.18675627 0 0 Z " fill="#558AD7" transform="translate(178.42578125,254.51171875)"/>
</svg>
