<?xml version="1.0" encoding="UTF-8"?>
<svg version="1.1" xmlns="http://www.w3.org/2000/svg" width="512" height="512">
<path d="M0 0 C1.27284479 -0.00453111 2.54568959 -0.00906223 3.85710543 -0.01373065 C7.38349102 -0.02594944 10.90978165 -0.02570151 14.43618357 -0.02334189 C18.24202662 -0.02293344 22.04783933 -0.03397555 25.85366821 -0.04345703 C33.30752474 -0.06006177 40.76134963 -0.06556634 48.21522311 -0.06668179 C54.27479044 -0.0676325 60.33434733 -0.07174393 66.39391136 -0.07808304 C83.57818566 -0.09569389 100.76243499 -0.10492213 117.94671837 -0.10342209 C119.33599691 -0.10330222 119.33599691 -0.10330222 120.75334167 -0.10317993 C122.14431868 -0.10305729 122.14431868 -0.10305729 123.56339624 -0.10293217 C138.59165178 -0.10211928 153.6198071 -0.12125811 168.64803366 -0.14945666 C184.08311359 -0.17818984 199.51814466 -0.19199673 214.95325202 -0.19026911 C223.61721161 -0.18960537 232.28106612 -0.19509085 240.9450016 -0.21662521 C248.32166443 -0.23484271 255.69817453 -0.2391797 263.07485012 -0.22560637 C266.83703376 -0.21907958 270.59892446 -0.21894875 274.36108017 -0.23631287 C278.44349676 -0.25496102 282.52523612 -0.24248169 286.60766602 -0.22705078 C287.79133359 -0.23733791 288.97500117 -0.24762503 290.19453746 -0.25822389 C298.1845931 -0.19147849 304.20102657 1.23035348 310.76383972 5.87289429 C311.27301941 6.3949646 311.7821991 6.91703491 312.30680847 7.45492554 C312.82887878 7.96410522 313.3509491 8.47328491 313.88883972 8.99789429 C318.58521217 15.63680522 320.084979 21.86840724 319.88493347 29.89633179 C319.87927368 30.77143906 319.87361389 31.64654633 319.86778259 32.548172 C319.84561282 35.3093426 319.79545618 38.06915547 319.74430847 40.82992554 C319.72421827 42.71597434 319.70597195 44.60204374 319.68962097 46.48812866 C319.64581215 51.08174088 319.57692339 55.67435403 319.49430847 60.26742554 C321.2176239 60.24385986 321.2176239 60.24385986 322.97575378 60.21981812 C327.29208698 60.16497558 331.60839024 60.1308805 335.92497253 60.10263062 C337.78309837 60.08766649 339.64118964 60.06728781 341.49919128 60.04110718 C368.57519849 59.66950428 368.57519849 59.66950428 378.51774597 68.16586304 C384.39690999 74.41683189 387.61201776 80.98073602 387.62852955 89.52621651 C387.63298739 90.59741615 387.63744524 91.6686158 387.64203817 92.77227604 C387.64176162 94.53634889 387.64176162 94.53634889 387.64147949 96.33605957 C387.64515618 97.58607219 387.64883287 98.8360848 387.65262097 100.12397659 C387.66263117 103.59591783 387.66635618 107.06784178 387.66901028 110.5397954 C387.67291625 114.28365341 387.68249439 118.02749776 387.69122314 121.77134705 C387.71097934 130.81392612 387.72105272 139.8565063 387.72995093 148.89910156 C387.73433524 153.15854357 387.73970168 157.41798435 387.7449398 161.67742538 C387.76195128 175.83872024 387.77644514 190.00001432 387.78368855 204.16131783 C387.78559841 207.83568447 387.78751874 211.51005111 387.78947449 215.18441772 C387.78995823 216.09765135 387.79044197 217.01088497 387.79094037 217.95179234 C387.79923955 232.74346693 387.82457493 247.53506061 387.85705516 262.32669987 C387.8901375 277.5165031 387.90813837 292.70626524 387.91133279 307.89610469 C387.9134968 316.42320007 387.92222953 324.95017746 387.94779396 333.4772377 C387.96951701 340.7397279 387.97754351 348.00207146 387.96782718 355.26459046 C387.96328709 358.9681591 387.96515138 362.6714253 387.98458862 366.37495232 C388.00550848 370.39581005 387.99522031 374.41599915 387.98205566 378.43688965 C387.99850953 380.180886 387.99850953 380.180886 388.0152958 381.9601146 C387.93916953 391.60218236 385.79728792 399.68247691 379.04118347 406.80648804 C369.525756 415.79328065 356.75890651 415.70882867 344.36247253 415.60800171 C342.88288897 415.60715341 341.40330415 415.60763453 339.92372131 415.60932922 C335.94510652 415.61018269 331.96676839 415.59266334 327.98821735 415.57160735 C323.81625113 415.55273117 319.64427712 415.55108155 315.47227478 415.54753113 C307.58901957 415.53824257 299.70589059 415.51367243 291.82269073 415.48348266 C282.84073905 415.44983879 273.85878104 415.43342764 264.87678194 415.41839635 C246.41588614 415.38711967 227.95510749 415.33442188 209.49430847 415.26742554 C209.78245422 415.83927582 210.07059998 416.4111261 210.36747742 417.00030518 C213.35677189 422.93476055 216.34050247 428.8719886 219.32096863 434.81088257 C220.43509257 437.0290523 221.55064923 439.24650302 222.66764832 441.46322632 C224.26986388 444.64348915 225.86696521 447.82627411 227.46305847 451.00961304 C228.21770386 452.50341995 228.21770386 452.50341995 228.9875946 454.02740479 C229.4480719 454.94820831 229.90854919 455.86901184 230.38298035 456.81771851 C230.99586914 458.03683426 230.99586914 458.03683426 231.62113953 459.28057861 C232.49430847 461.26742554 232.49430847 461.26742554 232.49430847 463.26742554 C233.59307312 463.24124146 234.69183777 463.21505737 235.82389832 463.18807983 C239.94250217 463.09684188 244.06101876 463.03991214 248.18034363 462.99276733 C249.95523656 462.96778927 251.7300284 462.93379428 253.50456238 462.89022827 C273.13442865 462.42074638 273.13442865 462.42074638 280.49430847 468.26742554 C285.76601735 473.71674176 288.10255545 479.03649294 288.80680847 486.64242554 C288.19374362 493.75397778 286.06336477 499.18934943 281.48258972 504.66195679 C275.04153684 509.86288554 269.05548565 510.85079644 260.94328308 510.77536011 C259.38566332 510.78472005 259.38566332 510.78472005 257.7965765 510.79426908 C254.3297016 510.81017735 250.86353189 510.79760276 247.39665222 510.78500366 C244.90601696 510.79042571 242.4153849 510.79754883 239.92475891 510.8062439 C233.86977658 510.82257854 227.81506926 510.82020347 221.76009774 510.80859333 C216.83757161 510.7995467 211.91510104 510.79834031 206.99256897 510.8026886 C206.29102092 510.80330153 205.58947286 510.80391446 204.86666578 510.80454597 C203.44132589 510.80582492 202.01598601 510.80712177 200.59064615 510.80843633 C187.23636783 510.81983281 173.88219948 510.80674311 160.5279392 510.78523487 C149.07819734 510.7673647 137.62861772 510.77046907 126.17887878 510.78890991 C112.87123349 510.81033315 99.56368449 510.81873426 86.25602436 510.80646086 C84.83603225 510.80518671 83.41604012 510.80392922 81.99604797 510.8026886 C81.29744956 510.8020715 80.59885116 510.80145439 79.8790831 510.80081859 C74.96449556 510.79737004 70.04996928 510.80318333 65.13539124 510.81260681 C58.51643342 510.82501981 51.89773414 510.81613729 45.27878952 510.79302979 C42.85041182 510.78774327 40.42200832 510.78925544 37.9936409 510.79808044 C34.67719131 510.80902115 31.36172116 510.79528872 28.04533386 510.77536011 C27.08579268 510.78428299 26.12625151 510.79320588 25.13763332 510.80239916 C18.1487707 510.72101648 12.97501202 509.07797398 7.50602722 504.66195679 C2.95068434 499.21973299 0.87425999 493.81363968 0.11930847 486.76742554 C0.8770128 479.6955185 2.87795211 472.99394232 8.49430847 468.26742554 C17.35144985 461.647291 27.59970143 462.48708665 38.11930847 462.45492554 C39.90449482 462.43174761 41.6896541 462.40637551 43.47477722 462.37875366 C47.81472215 462.31632673 52.15395499 462.28365651 56.49430847 462.26742554 C56.76468933 461.69637085 57.03507019 461.12531616 57.31364441 460.53695679 C58.62127279 457.77920908 59.93282325 455.02334105 61.24430847 452.26742554 C61.66841003 451.3715271 62.0925116 450.47562866 62.52946472 449.55258179 C66.16502916 441.92301698 69.93329 434.36300059 73.71794128 426.80648804 C74.27414154 425.69507446 74.8303418 424.58366089 75.40339661 423.43856812 C76.76663454 420.7146537 78.1302825 417.99094539 79.49430847 415.26742554 C78.73231014 415.27019092 77.97031181 415.2729563 77.18522263 415.27580547 C58.60461841 415.34219166 40.02403801 415.39176744 21.4433403 415.42286205 C12.45768207 415.43830063 3.47210323 415.45933231 -5.51350403 415.4937439 C-13.34956536 415.52373872 -21.18556916 415.54302239 -29.02168632 415.54969102 C-33.16704418 415.55358627 -37.31223752 415.56267719 -41.45754242 415.58461571 C-45.36781651 415.60514059 -49.27785999 415.61122741 -53.18818283 415.60674858 C-54.61510603 415.60756669 -56.0420378 415.6134364 -57.46891403 415.62504196 C-69.10736808 415.7149749 -80.33338845 415.22716635 -89.52912903 407.36898804 C-95.40829304 401.11801918 -98.62340082 394.55411506 -98.63991261 386.00863457 C-98.64437045 384.93743492 -98.64882829 383.86623527 -98.65342122 382.76257503 C-98.65323686 381.58652647 -98.6530525 380.4104779 -98.65286255 379.1987915 C-98.65653924 377.94877889 -98.66021592 376.69876627 -98.66400403 375.41087449 C-98.67401422 371.93893325 -98.67773924 368.4670093 -98.68039334 364.99505568 C-98.6842993 361.25119767 -98.69387744 357.50735331 -98.7026062 353.76350403 C-98.7223624 344.72092496 -98.73243577 335.67834478 -98.74133399 326.63574952 C-98.74571829 322.3763075 -98.75108474 318.11686673 -98.75632286 313.85742569 C-98.77333433 299.69613084 -98.7878282 285.53483675 -98.7950716 271.37353325 C-98.79698146 267.69916661 -98.7989018 264.02479997 -98.80085754 260.35043335 C-98.80134128 259.43719973 -98.80182502 258.5239661 -98.80232342 257.58305873 C-98.8106226 242.79138415 -98.83595798 227.99979047 -98.86843822 213.20815121 C-98.90152056 198.01834797 -98.91952143 182.82858583 -98.92271584 167.63874638 C-98.92487986 159.11165101 -98.93361259 150.58467361 -98.95917702 142.05761337 C-98.98090007 134.79512318 -98.98892657 127.53277962 -98.97921024 120.27026062 C-98.97467014 116.56669198 -98.97653444 112.86342578 -98.99597168 109.15989876 C-99.01689154 105.13904102 -99.00660337 101.11885193 -98.99343872 97.09796143 C-99.00440797 95.93529719 -99.01537721 94.77263296 -99.02667886 93.57473648 C-98.95055258 83.93266872 -96.80867098 75.85237417 -90.05256653 68.72836304 C-79.33725264 58.60834437 -64.48787192 59.8756388 -50.75569153 60.07992554 C-48.97966127 60.09500688 -47.20361856 60.10868915 -45.42756653 60.12094116 C-41.11996164 60.15365695 -36.81296773 60.20524617 -32.50569153 60.26742554 C-32.53187561 59.10807495 -32.55805969 57.94872437 -32.58503723 56.75424194 C-32.6762179 52.41199393 -32.73318498 48.06982876 -32.78034973 43.72689819 C-32.80534051 41.85500817 -32.83934526 39.98321419 -32.88288879 38.11166382 C-33.1534131 26.17676789 -33.30071874 17.12067511 -25.25959778 7.61117554 C-24.53643372 7.00273804 -23.81326965 6.39430054 -23.06819153 5.76742554 C-22.34760559 5.13836304 -21.62701965 4.50930054 -20.88459778 3.86117554 C-14.37170996 -0.50213847 -7.55370599 -0.01965403 0 0 Z " fill="#020202" transform="translate(111.50569152832031,0.732574462890625)"/>
<path d="M0 0 C106.26 0 212.52 0 322 0 C322.0928125 65.401875 322.0928125 65.401875 322.1875 132.125 C322.21481201 145.90523926 322.24212402 159.68547852 322.27026367 173.88330078 C322.28381348 190.67749023 322.28381348 190.67749023 322.28633118 198.53317261 C322.28913236 204.03378125 322.30015195 209.53429881 322.31672668 215.03488159 C322.33580909 221.37703499 322.34451103 227.71910083 322.34033485 234.06128316 C322.33852583 237.30632511 322.34308241 240.55113136 322.35764539 243.79614663 C322.37251554 247.27027458 322.36898904 250.74390938 322.36076355 254.2180481 C322.37387054 255.73804822 322.37387054 255.73804822 322.38724232 257.28875542 C322.35357037 262.56192616 322.1660575 266.55390896 319 271 C315.4344168 273.56004176 312.97078755 274.37571682 308.60419464 274.38311005 C306.98978336 274.39669501 306.98978336 274.39669501 305.3427577 274.41055441 C303.57793822 274.40256252 303.57793822 274.40256252 301.77746582 274.39440918 C300.52307095 274.40050028 299.26867608 274.40659139 297.97626925 274.41286707 C294.49686884 274.42927638 291.01769487 274.42694675 287.53826928 274.4214921 C283.78496023 274.41882316 280.03171172 274.43335101 276.27842712 274.44558716 C268.92669617 274.466648 261.57504406 274.47118168 254.22328651 274.46939927 C248.24899135 274.46809216 242.27472082 274.4718932 236.3004303 274.47932434 C234.58021752 274.4814235 232.86000474 274.4835211 231.13979197 274.48561716 C230.28363033 274.48666069 229.4274687 274.48770422 228.54536277 274.48877937 C212.3513205 274.50768384 196.15732352 274.50663069 179.96327478 274.49981004 C165.14238754 274.49423244 150.32167304 274.51506884 135.50082618 274.54817051 C120.28727189 274.58188596 105.0738004 274.59707866 89.86020803 274.59245348 C81.31706558 274.59020687 72.77408287 274.5954801 64.23097229 274.62034607 C56.9591741 274.64133136 49.68762325 274.64497876 42.415815 274.62604648 C38.70470681 274.61687193 34.99406015 274.6157974 31.28298759 274.63640213 C27.2624747 274.65847844 23.24305513 274.64193708 19.22253418 274.62145996 C18.04598786 274.63397781 16.86944154 274.64649566 15.6572423 274.65939283 C7.7858844 274.5730542 7.7858844 274.5730542 3.86109161 271.71115875 C1.17283409 267.79502004 -0.25062871 265.16517897 -0.24609566 260.36920547 C-0.2500774 259.43785027 -0.25405914 258.50649506 -0.25816154 257.54691696 C-0.24942355 256.01817884 -0.24942355 256.01817884 -0.24050903 254.45855713 C-0.24222107 253.37561874 -0.24393311 252.29268036 -0.24569702 251.17692566 C-0.24901629 247.52445973 -0.23794583 243.87217583 -0.22705078 240.21972656 C-0.22643834 237.56597364 -0.22661583 234.91223169 -0.2277813 232.25848007 C-0.22884517 225.860645 -0.21960511 219.462866 -0.20677864 213.06504534 C-0.19238769 205.66559108 -0.19078964 198.26617057 -0.18920898 190.86669922 C-0.17870511 171.32779058 -0.15078293 151.78889445 -0.125 132.25 C-0.08375 88.6075 -0.0425 44.965 0 0 Z " fill="#98E5FB" transform="translate(94,65)"/>
<path d="M0 0 C7.26 0 14.52 0 22 0 C22.00364563 2.79439041 22.00729126 5.58878082 22.01104736 8.46784973 C22.04636036 34.1217274 22.1014328 59.77550307 22.17792095 85.42929219 C22.18793783 88.79490204 22.19778205 92.16051238 22.20751953 95.52612305 C22.2094609 96.19612596 22.21140228 96.86612886 22.21340248 97.55643489 C22.24438251 108.39013035 22.26139194 119.22380465 22.27319422 130.05753604 C22.28562655 141.18261792 22.31347029 152.30759745 22.35461307 163.43261164 C22.37722417 169.67774107 22.39291087 175.92271275 22.39188385 182.16788673 C22.39113705 188.05056769 22.40909644 193.93289999 22.44116783 199.81549072 C22.44966007 201.97006833 22.45142138 204.12468507 22.44580269 206.27927208 C22.20244556 223.71384761 22.20244556 223.71384761 29.1875 239.375 C36.83970584 246.51705878 43.666976 247.73210451 53.93565369 247.64164734 C55.8599581 247.65440562 55.8599581 247.65440562 57.82313734 247.66742164 C61.36380435 247.69013216 64.90381038 247.68188943 68.4444989 247.66828239 C72.27079844 247.65900036 76.09696951 247.67853704 79.92323303 247.69425964 C87.41116972 247.72031094 94.89886601 247.71926922 102.38683074 247.70822146 C108.47446338 247.69965343 114.56202661 247.70050139 120.64966011 247.70801735 C121.5170169 247.70907224 122.38437369 247.71012713 123.27801402 247.71121398 C125.04020092 247.71338497 126.8023878 247.71557174 128.56457467 247.71777413 C145.07881696 247.73719221 161.59292454 247.72521742 178.10715581 247.70298818 C192.26643875 247.68473961 206.4254609 247.69564003 220.5847168 247.72729492 C237.03945179 247.76407974 253.49402395 247.78107141 269.94880015 247.76788265 C271.70470811 247.76654159 273.46061611 247.76523261 275.21652412 247.76395607 C276.51232704 247.76301007 276.51232704 247.76301007 277.8343078 247.76204496 C283.91167725 247.75902123 289.98892357 247.77026245 296.06626701 247.78720665 C303.47694682 247.80755759 310.88725872 247.80662258 318.29791944 247.77857425 C322.07656502 247.7648263 325.85456889 247.76056303 329.63319016 247.78252411 C333.73511137 247.80604867 337.83546727 247.78281095 341.93736267 247.75517273 C343.12385294 247.76923918 344.31034322 247.78330563 345.53278774 247.79779834 C354.61955494 247.67455455 360.70111137 244.95950268 367.375 238.8125 C374.02973974 227.29468122 373.57960629 216.02278751 373.54589844 203.09692383 C373.55464204 200.87857338 373.56513056 198.66022924 373.57722473 196.44189453 C373.60500862 190.44475279 373.60849109 184.44781763 373.60750484 178.45062089 C373.61064047 172.17387696 373.63627225 165.89722518 373.65948486 159.62052917 C373.69540048 149.09362302 373.71753582 138.56675244 373.72900391 128.03979492 C373.7408488 117.2018687 373.76107705 106.36401101 373.79248047 95.52612305 C373.79441657 94.856939 373.79635267 94.18775495 373.79834744 93.4982926 C373.80811267 90.14085314 373.81804166 86.78341418 373.82805204 83.42597544 C373.91038767 55.61734553 373.96372006 27.80872485 374 0 C381.92 0 389.84 0 398 0 C398 87.45 398 174.9 398 265 C266.66 265 135.32 265 0 265 C0 177.55 0 90.1 0 0 Z " fill="#C5ECFB" transform="translate(57,106)"/>
<path d="M0 0 C0.9029631 0.00424484 1.80592621 0.00848969 2.73625183 0.01286316 C5.60963225 0.02960564 8.48230166 0.06724959 11.35546875 0.10546875 C13.30793255 0.12052132 15.26040739 0.13420872 17.21289062 0.14648438 C21.98985572 0.17949467 26.76629184 0.2312464 31.54296875 0.29296875 C31.54296875 4.91296875 31.54296875 9.53296875 31.54296875 14.29296875 C30.55901123 14.30231445 29.57505371 14.31166016 28.5612793 14.32128906 C24.90994015 14.36116755 21.25944556 14.42691855 17.60864258 14.50048828 C16.02867483 14.52871068 14.44856557 14.549919 12.8684082 14.56396484 C10.5964303 14.5853784 8.32615604 14.63201409 6.0546875 14.68359375 C5.34833664 14.68482239 4.64198578 14.68605103 3.91423035 14.68731689 C-0.04602857 14.77650698 -0.04602857 14.77650698 -3.1440531 17.01883936 C-4.67219378 19.66563865 -4.83283758 21.18573076 -4.83455467 24.22493744 C-4.84237791 25.22320258 -4.85020116 26.22146771 -4.85826147 27.24998331 C-4.8515693 28.34452373 -4.84487714 29.43906415 -4.83798218 30.56677246 C-4.84500214 32.31338425 -4.84500214 32.31338425 -4.85216391 34.09528112 C-4.86207062 37.32808489 -4.85849022 40.56055167 -4.84920526 43.79334712 C-4.84242724 47.2794302 -4.85288978 50.76546717 -4.86114502 54.25154114 C-4.87449792 61.08104424 -4.87159771 67.91044854 -4.8629071 74.73995554 C-4.85613707 80.28951048 -4.85521088 85.8390377 -4.85847855 91.38859558 C-4.85893825 92.17787668 -4.85939794 92.96715779 -4.85987157 93.7803565 C-4.86083073 95.38367244 -4.86180337 96.98698838 -4.86278935 98.59030432 C-4.8713478 113.63119291 -4.86150198 128.67202669 -4.84538825 143.7129063 C-4.83198465 156.62389859 -4.83431261 169.53480996 -4.84814453 182.44580078 C-4.86419232 197.43218204 -4.87052378 212.41851524 -4.86130774 227.40490389 C-4.86035207 229.00238322 -4.85940896 230.59986257 -4.85847855 232.19734192 C-4.85778431 233.37638486 -4.85778431 233.37638486 -4.85707604 234.57924685 C-4.85448374 240.12333347 -4.85886231 245.66738965 -4.86591721 251.21147156 C-4.87432351 257.96615542 -4.87207046 264.72073468 -4.85607497 271.47540653 C-4.84818046 274.92299208 -4.84512057 278.3704031 -4.85502243 281.81798744 C-4.86317718 285.55188938 -4.8529893 289.28529503 -4.83798218 293.01916504 C-4.84802043 294.66097567 -4.84802043 294.66097567 -4.85826147 296.33595419 C-4.85043822 297.33421933 -4.84261498 298.33248446 -4.83455467 299.36100006 C-4.83406762 300.22307524 -4.83358056 301.08515042 -4.83307874 301.97334909 C-4.347278 304.96997314 -3.72117189 306.2490809 -1.45703125 308.29296875 C1.72253016 308.89799766 1.72253016 308.89799766 5.46302795 308.79633331 C6.17470765 308.80214708 6.88638734 308.80796084 7.61963308 308.81395078 C10.02288293 308.82863879 12.42512543 308.81462553 14.82836914 308.80090332 C16.56124172 308.80550878 18.29411041 308.8118593 20.02697086 308.8198123 C24.80316745 308.83657758 29.57904613 308.82822673 34.35524416 308.81586742 C39.50051354 308.80684857 44.64572675 308.82077088 49.79098511 308.83178711 C59.876217 308.84961086 69.9613301 308.84571521 80.04656672 308.83413655 C88.24013036 308.82511763 96.43366061 308.82387153 104.62722778 308.82823181 C105.79160687 308.82884474 106.95598595 308.82945768 108.15564924 308.83008918 C110.52076746 308.83136803 112.88588567 308.83266488 115.25100386 308.83397955 C137.44954917 308.84539664 159.64802849 308.83225394 181.84656298 308.81077808 C200.91043702 308.79290609 219.97421365 308.79600988 239.03808594 308.81445312 C261.15503132 308.83583991 283.27191882 308.8442979 305.3888731 308.83200407 C307.7454853 308.83072982 310.1020975 308.82947234 312.45870972 308.82823181 C313.61832893 308.82761471 314.77794814 308.82699761 315.97270733 308.82636181 C324.16021456 308.82290232 332.3476852 308.82875011 340.53518677 308.83815002 C350.50761019 308.84934706 360.47990761 308.84637843 370.45231652 308.82502705 C375.54429961 308.81448564 380.63607233 308.8104472 385.72805405 308.82362366 C390.38390326 308.83548968 395.03934588 308.82908138 399.69515789 308.80771345 C401.3848775 308.80322267 403.07463104 308.80556864 404.76432908 308.8152166 C407.05101971 308.82727787 409.3362945 308.81501284 411.62290955 308.79633331 C412.89600448 308.7956839 414.16909941 308.79503449 415.48077297 308.79436541 C418.58206111 308.57025166 418.58206111 308.57025166 420.45187724 306.56975651 C421.70338436 303.95822845 421.91885927 302.25117629 421.92049217 299.36100006 C421.92831541 298.36273492 421.93613866 297.36446979 421.94419897 296.33595419 C421.9375068 295.24141377 421.93081464 294.14687335 421.92391968 293.01916504 C421.92859965 291.85475718 421.93327962 290.69034932 421.93810141 289.49065638 C421.94800812 286.25785261 421.94442772 283.02538583 421.93514276 279.79259038 C421.92836474 276.3065073 421.93882728 272.82047033 421.94708252 269.33439636 C421.96043542 262.50489326 421.95753521 255.67548896 421.9488446 248.84598196 C421.94207457 243.29642702 421.94114838 237.7468998 421.94441605 232.19734192 C421.94487575 231.40806082 421.94533544 230.61877971 421.94580907 229.805581 C421.94676823 228.20226506 421.94774087 226.59894912 421.94872685 224.99563318 C421.9572853 209.95474459 421.94743948 194.91391081 421.93132575 179.8730312 C421.91792215 166.96203891 421.92025011 154.05112754 421.93408203 141.14013672 C421.95012982 126.15375546 421.95646128 111.16742226 421.94724524 96.18103361 C421.94628957 94.58355428 421.94534646 92.98607493 421.94441605 91.38859558 C421.94372181 90.20955264 421.94372181 90.20955264 421.94301354 89.00669065 C421.94042124 83.46260403 421.94479981 77.91854785 421.95185471 72.37446594 C421.96026101 65.61978208 421.95800796 58.86520282 421.94201247 52.11053097 C421.93411796 48.66294542 421.93105807 45.2155344 421.94095993 41.76795006 C421.94911468 38.03404812 421.9389268 34.30064247 421.92391968 30.56677246 C421.93061184 29.47223204 421.93730401 28.37769162 421.94419897 27.24998331 C421.93637572 26.25171817 421.92855248 25.25345304 421.92049217 24.22493744 C421.92000512 23.36286226 421.91951806 22.50078708 421.91901624 21.61258841 C421.45206586 18.73224133 420.58144996 17.36430354 418.54296875 15.29296875 C415.76881175 14.86679114 413.37288786 14.68814589 410.59375 14.68359375 C409.82113327 14.6670575 409.04851654 14.65052124 408.25248718 14.63348389 C405.78673413 14.58493017 403.32159803 14.56361787 400.85546875 14.54296875 C399.18291154 14.51481503 397.51038317 14.48488844 395.83789062 14.453125 C391.73963413 14.37916994 387.64172159 14.32964097 383.54296875 14.29296875 C383.54296875 9.67296875 383.54296875 5.05296875 383.54296875 0.29296875 C389.55691758 0.19386705 395.5703879 0.12138959 401.58496094 0.07324219 C403.62964155 0.05316455 405.67426502 0.0258965 407.71875 -0.00878906 C410.66290412 -0.05747644 413.60629709 -0.08003869 416.55078125 -0.09765625 C417.46038605 -0.11830139 418.36999084 -0.13894653 419.30715942 -0.16021729 C424.87109072 -0.16217094 428.27453307 0.36985007 432.54296875 4.29296875 C437.14881338 10.53089685 437.11227261 15.91397398 437.05763245 23.50804138 C437.06457797 24.73752709 437.0715235 25.9670128 437.0786795 27.23375565 C437.09378335 30.63467458 437.09101366 34.03471655 437.08052647 37.43559563 C437.07352517 41.10781826 437.08953943 44.77995207 437.1025238 48.45214844 C437.12415363 55.64154321 437.12403954 62.83077964 437.11589826 70.02019625 C437.10959551 75.86427482 437.11073781 81.70830725 437.11717033 87.55238533 C437.11807199 88.38451085 437.11897364 89.21663637 437.11990262 90.07397782 C437.12175385 91.76449824 437.12361641 93.45501865 437.12549018 95.14553905 C437.14206515 110.99442905 437.13335208 126.84323001 437.1165046 142.69211466 C437.10180841 157.18752869 437.1164354 171.68273542 437.14527477 186.17812275 C437.17467695 201.06744901 437.18563862 215.95667962 437.17609257 230.84603363 C437.17507003 232.53060121 437.17407542 234.2151688 437.17310905 235.8997364 C437.17263266 236.72854298 437.17215627 237.55734956 437.17166545 238.41127149 C437.16950237 244.2465887 437.17929972 250.08181525 437.19388008 255.91711235 C437.21140757 263.0310522 437.21128024 270.14472779 437.18852843 277.25865727 C437.17738974 280.8871113 437.17421459 284.51509985 437.19282913 288.14353371 C437.21276163 292.07956972 437.19384078 296.01487915 437.17115784 299.95091248 C437.18299357 301.09401034 437.19482929 302.23710821 437.20702368 303.41484541 C437.13693511 309.39629914 436.49284669 313.63412768 433.20057148 318.68390042 C428.70171402 323.05103191 424.09516617 323.66883471 418.03067875 323.6760788 C417.29141031 323.68103831 416.55214186 323.68599783 415.79047135 323.69110763 C413.31156035 323.70406821 410.83318759 323.69567777 408.35426331 323.68737793 C406.55978178 323.69226661 404.7653034 323.6984563 402.97083038 323.70583582 C398.03816895 323.7222612 393.10566707 323.71991212 388.17298782 323.71446085 C382.85387126 323.71179388 377.53479754 323.72631612 372.21569824 323.73855591 C361.79467776 323.75962563 351.37371289 323.7641499 340.95267362 323.76236802 C332.48414286 323.76106126 324.01562947 323.76486013 315.54710197 323.77229309 C313.10933286 323.77439224 310.67156375 323.77648984 308.23379463 323.77858591 C306.41388132 323.7801512 306.41388132 323.7801512 304.55720209 323.78174812 C281.60361717 323.80065643 258.65006421 323.79959836 235.69647472 323.79277879 C214.68855728 323.78720189 193.68076174 323.80803403 172.67287279 323.84113926 C151.1108719 323.87485446 129.54892945 323.89004736 107.9869017 323.88542223 C95.87786075 323.88317548 83.76893249 323.88845094 71.65991402 323.91331482 C61.35206689 323.9342998 51.04439425 323.93794768 40.73654003 323.91901523 C35.47589704 323.90984046 30.21557964 323.90876777 24.95496178 323.92937088 C20.14044573 323.94801859 15.32652336 323.9436472 10.51203036 323.92082506 C8.7691618 323.91662362 7.02624828 323.92089096 5.28342719 323.934421 C2.91526559 323.95155559 0.54918288 323.93790542 -1.81890011 323.91658783 C-3.79217451 323.91699641 -3.79217451 323.91699641 -5.80531305 323.91741323 C-11.37233635 322.96545122 -15.01559909 320.21948098 -18.36988068 315.73639488 C-20.00374169 310.56132545 -19.87647969 305.59445743 -19.85144043 300.19815063 C-19.85753153 298.96951935 -19.86362264 297.74088807 -19.86989832 296.47502553 C-19.88365652 293.07198895 -19.88398289 289.66943548 -19.87852335 286.26640749 C-19.87585145 282.59349513 -19.89038795 278.92064436 -19.90261841 275.24775696 C-19.92366782 268.05491065 -19.92821355 260.86214495 -19.92643052 253.66927148 C-19.92512265 247.82231417 -19.9289283 241.975382 -19.93635559 236.12842941 C-19.9384548 234.44391326 -19.9405524 232.75939711 -19.94264841 231.07488096 C-19.94369194 230.23643661 -19.94473547 229.39799226 -19.94581062 228.53414051 C-19.964711 212.67859667 -19.9636634 196.8230991 -19.95684129 180.96754865 C-19.95126591 166.46560987 -19.97209136 151.96384775 -20.00520176 137.46195026 C-20.03894279 122.56814301 -20.05410658 107.67442038 -20.04948473 92.7805742 C-20.04724046 84.42011429 -20.05247692 76.05981766 -20.07737732 67.69939041 C-20.0983958 60.58177728 -20.10197712 53.46441696 -20.08307773 46.34679343 C-20.07392311 42.7163136 -20.07276768 39.08630508 -20.09343338 35.45586205 C-20.11560309 31.51759869 -20.09891822 27.5800391 -20.07849121 23.64175415 C-20.09100906 22.49797416 -20.10352691 21.35419418 -20.11642408 20.17575419 C-20.03959148 13.27221123 -19.00148345 8.61507609 -14.45703125 3.29296875 C-10.14018695 -0.55798467 -5.49359974 -0.09765821 0 0 Z " fill="#E9E9E9" transform="translate(47.45703125,76.70703125)"/>
<path d="M0 0 C7.95741535 4.5924445 13.48409962 10.01127406 18 18 C18.433125 18.74636719 18.86625 19.49273437 19.3125 20.26171875 C23.44402203 28.71125512 23.35776446 39.22257365 21.234375 48.2578125 C20.29483266 50.93476251 19.23802046 53.44867406 18 56 C17.42765625 57.21042969 17.42765625 57.21042969 16.84375 58.4453125 C15.93178356 60.3148437 14.97166 62.16078643 14 64 C14.70125 64.4125 15.4025 64.825 16.125 65.25 C30.26608926 73.85761955 39.51086508 85.18907662 44.21044922 101.18481445 C45.57807211 107.79330018 45.55513173 114.36040381 45.46655273 121.08691406 C45.43720185 123.52476382 45.44606837 125.96048095 45.45898438 128.3984375 C45.45275599 129.96355216 45.44437212 131.52866006 45.43359375 133.09375 C45.43652939 133.81461792 45.43946503 134.53548584 45.44248962 135.27819824 C45.36002312 139.68889582 44.80436942 142.55484002 42 146 C37.20330251 150.01214315 31.98296057 149.42974336 26.046875 149.40405273 C24.94226929 149.41091599 23.83766357 149.41777924 22.69958496 149.42485046 C19.04959244 149.44314664 15.40002853 149.43927712 11.75 149.43359375 C9.21321472 149.43815384 6.67643068 149.44345889 4.13964844 149.44947815 C-1.17648926 149.45841457 -6.49247074 149.45621336 -11.80859375 149.44604492 C-17.94867773 149.43455979 -24.08832513 149.44864803 -30.22835159 149.4754414 C-36.14278069 149.50028126 -42.05707422 149.50277475 -47.97155762 149.49632454 C-50.48499274 149.49617102 -52.99843616 149.5022407 -55.51184082 149.51461601 C-59.02385065 149.52947275 -62.53489562 149.51888721 -66.046875 149.50170898 C-67.60710388 149.51621094 -67.60710388 149.51621094 -69.19885254 149.53100586 C-76.25878066 149.45859881 -76.25878066 149.45859881 -80.10385132 147.07962036 C-84.05525233 142.74588109 -84.31779275 139.15083517 -84.3359375 133.41015625 C-84.3425943 132.66978622 -84.3492511 131.9294162 -84.35610962 131.16661072 C-84.36622401 129.59734571 -84.37092701 128.0280378 -84.37060547 126.45874023 C-84.37492887 124.10128777 -84.41111696 121.74578701 -84.44921875 119.38867188 C-84.58000909 101.93225267 -79.5582936 87.19108673 -67.44921875 74.30078125 C-63.12916761 70.2425514 -58.31417444 66.65708722 -53 64 C-54.4039808 60.25605121 -56.1158255 56.77591958 -58 53.2578125 C-62.17623597 43.82865472 -62.65029685 32.84744935 -59.375 23.0625 C-54.8747497 12.46260731 -46.48479847 3.66829384 -36.01953125 -1.2109375 C-24.26059983 -5.80533624 -11.41183858 -5.61082064 0 0 Z " fill="#020302" transform="translate(203,94)"/>
<path d="M0 0 C1.60097453 -0.01173486 1.60097453 -0.01173486 3.23429197 -0.02370679 C4.40596924 -0.01701463 5.5776465 -0.01032246 6.78482914 -0.00342751 C8.03020248 -0.00810748 9.27557582 -0.01278745 10.55868775 -0.01760924 C14.0176495 -0.02751902 17.47612398 -0.02393352 20.93505633 -0.01465058 C24.66451342 -0.00787437 28.39392733 -0.01833426 32.12337589 -0.02659035 C39.43047127 -0.03994557 46.73747433 -0.03704189 54.04457336 -0.02835242 C59.98265851 -0.02158279 65.92071775 -0.02065603 71.85880566 -0.02392387 C72.70330526 -0.02438357 73.54780486 -0.02484327 74.41789537 -0.0253169 C76.13338558 -0.02627606 77.84887579 -0.0272487 79.56436599 -0.02823468 C95.65921703 -0.03679394 111.75401685 -0.0269463 127.8488595 -0.01083358 C141.66291464 0.00256766 155.47689414 0.00024416 169.29094791 -0.01358986 C185.3258662 -0.02964039 201.36073955 -0.03596736 217.39566475 -0.02675307 C219.10522083 -0.02579741 220.81477691 -0.02485429 222.524333 -0.02392387 C223.78608818 -0.02322963 223.78608818 -0.02322963 225.07333336 -0.02252137 C231.00467704 -0.01992972 236.93599224 -0.0243063 242.8673315 -0.03136253 C250.0951938 -0.03977199 257.32295835 -0.0375092 264.55080944 -0.0215203 C268.23952176 -0.0136297 271.92807103 -0.01055928 275.61678219 -0.02046776 C279.61304429 -0.03104007 283.60889382 -0.01842616 287.60514164 -0.00342751 C289.35931146 -0.01346575 289.35931146 -0.01346575 291.14891905 -0.02370679 C292.21884314 -0.01588355 293.28876724 -0.00806031 294.39111328 0 C295.77478935 0.00073059 295.77478935 0.00073059 297.18641847 0.00147593 C300.43059254 0.47578995 302.15355801 1.38014075 304.75847721 3.37752342 C308.75847721 9.37752342 308.75847721 9.37752342 308.75847721 34.37752342 C202.49847721 34.37752342 96.23847721 34.37752342 -13.24152279 34.37752342 C-13.24152279 9.37752342 -13.24152279 9.37752342 -9.24152279 3.37752342 C-6.20935522 0.45734268 -4.16513738 0.00219959 0 0 Z " fill="#429FFB" transform="translate(107.24152278900146,15.622476577758789)"/>
<path d="M0 0 C0.94487778 -0.0071553 1.88975555 -0.01431061 2.86326599 -0.02168274 C4.42329094 -0.02571609 4.42329094 -0.02571609 6.01483154 -0.02983093 C7.10763931 -0.03640213 8.20044708 -0.04297333 9.32637024 -0.04974365 C12.95527204 -0.0695099 16.58413239 -0.08114674 20.21307373 -0.09111023 C21.45043022 -0.09518576 22.68778671 -0.09926128 23.96263885 -0.10346031 C29.835937 -0.12218114 35.70922191 -0.13674346 41.58254266 -0.14507228 C48.35803084 -0.15483937 55.13319187 -0.18114379 61.90856481 -0.22157317 C67.77971532 -0.25540202 73.65075633 -0.26721984 79.52199554 -0.27127647 C82.0178728 -0.27615293 84.5137463 -0.28779683 87.00955963 -0.30631447 C90.50246816 -0.33061878 93.99452089 -0.32975629 97.48748779 -0.32279968 C98.5194075 -0.33560974 99.55132721 -0.3484198 100.61451721 -0.36161804 C106.54735151 -0.31853253 110.00173798 0.1669121 114.50994873 4.14717102 C117.03014318 9.18755991 115.82311279 17.07657485 115.86004639 22.68598938 C115.87660088 24.52986782 115.90388442 26.37368221 115.94207764 28.21723938 C115.99690538 30.87781507 116.01872852 33.53688739 116.03338623 36.19795227 C116.0560556 37.01894913 116.07872498 37.83994598 116.1020813 38.68582153 C116.0860861 43.02959125 115.9209104 44.63565668 113.10223389 48.14399719 C109.72996358 50.74990018 108.18425266 51.27257277 104.01316833 51.28761292 C103.0668454 51.29332306 102.12052246 51.2990332 101.14552307 51.30491638 C99.58314156 51.30659317 99.58314156 51.30659317 97.98919678 51.30830383 C96.34757568 51.31575119 96.34757568 51.31575119 94.67279053 51.323349 C91.03907653 51.33799768 87.4054062 51.34477725 83.77166748 51.35029602 C81.25301614 51.35604538 78.73436481 51.36180313 76.2157135 51.36756897 C71.60514229 51.3767412 66.99458424 51.38303829 62.3840062 51.38606572 C55.60007773 51.39054471 48.81635092 51.40808415 42.03248376 51.43706632 C36.15599019 51.46129969 30.27956385 51.46901066 24.40302467 51.47074127 C21.90354121 51.47377201 19.40405868 51.48181461 16.90460777 51.49492645 C13.40921067 51.51195338 9.91430586 51.51011459 6.41888428 51.50361633 C5.38336929 51.51283112 4.34785431 51.5220459 3.28096008 51.53153992 C-5.48719601 51.48039612 -5.48719601 51.48039612 -9.49005127 48.14717102 C-12.31133793 44.52667118 -11.83150815 40.0126791 -11.86114502 35.61982727 C-11.87017349 34.79389572 -11.87920197 33.96796417 -11.88850403 33.11700439 C-11.90298852 31.37294633 -11.91188879 29.62883414 -11.91558838 27.88471985 C-11.92749648 25.22192198 -11.97670548 22.56143399 -12.02716064 19.89912415 C-12.03662427 18.2018698 -12.0438596 16.50460126 -12.04864502 14.80732727 C-12.06817734 14.0144783 -12.08770966 13.22162933 -12.10783386 12.40475464 C-12.07312968 8.13648532 -11.86694438 6.61302786 -9.08013916 3.16841125 C-5.71603083 0.5431447 -4.17416211 0.02165713 0 0 Z " fill="#020303" transform="translate(131.49005126953125,263.8528289794922)"/>
<path d="M0 0 C31.02 0 62.04 0 94 0 C96.64 5.28 99.28 10.56 102 16 C103.35137222 18.67459085 104.70472564 21.3481848 106.0625 24.01953125 C107.04653197 25.96582607 108.02951344 27.91264826 109.01220703 29.85961914 C109.68302868 31.18584316 110.3559548 32.51100439 111.03076172 33.83520508 C112.02609973 35.78970848 113.01377588 37.74791677 114 39.70703125 C114.5775 40.8463208 115.155 41.98561035 115.75 43.15942383 C117 46 117 46 117 49 C70.8 49 24.6 49 -23 49 C-22.2602007 45.30100352 -21.79347239 43.21362683 -20.18994141 40.03930664 C-19.81930573 39.29826187 -19.44867004 38.5572171 -19.06680298 37.79371643 C-18.66577362 37.00714157 -18.26474426 36.22056671 -17.8515625 35.41015625 C-17.43836761 34.58801132 -17.02517273 33.76586639 -16.59945679 32.91880798 C-15.2802608 30.29715976 -13.95278928 27.67980471 -12.625 25.0625 C-11.73902995 23.3056175 -10.85360734 21.54845881 -9.96875 19.79101562 C-8.00934604 15.90160361 -6.0447132 12.01488563 -4.0753479 8.13050842 C-2.70934174 5.42413996 -1.35575832 2.71151664 0 0 Z " fill="#DFDEE0" transform="translate(209,415)"/>
<path d="M0 0 C1.01707031 0.49886719 1.01707031 0.49886719 2.0546875 1.0078125 C6.3464038 2.45356308 10.44075079 2.28930152 14.9375 2.25 C16.25911133 2.26160156 16.25911133 2.26160156 17.60742188 2.2734375 C22.52348562 2.25870772 26.34977903 1.73775074 31 0 C40.4826807 0.30589293 47.0296645 4.35450718 53.890625 10.73046875 C66.8498765 24.67366342 65 39.92079545 65 59 C32.33 59 -0.34 59 -34 59 C-34 23.2992126 -34 23.2992126 -23 11 C-16.82145912 5.22150852 -8.90376015 -1.18716802 0 0 Z " fill="#FDD34E" transform="translate(168,169)"/>
<path d="M0 0 C1.27534564 -0.00761181 1.27534564 -0.00761181 2.57645583 -0.0153774 C3.98566531 -0.01612404 3.98566531 -0.01612404 5.42334366 -0.01688576 C6.914137 -0.02345914 6.914137 -0.02345914 8.43504739 -0.03016531 C11.78679985 -0.04358865 15.13852601 -0.04974009 18.49029922 -0.0558567 C20.88477066 -0.06375485 23.2792409 -0.07202362 25.67370987 -0.08063698 C32.87503664 -0.10462233 40.07636521 -0.11978951 47.27771795 -0.13269705 C49.311321 -0.13640837 51.34492337 -0.14038165 53.37852573 -0.14444971 C66.00379825 -0.16968584 78.62907184 -0.19174148 91.25436401 -0.20417786 C94.17936329 -0.20710761 97.10436253 -0.21006927 100.02936172 -0.21308327 C100.75636686 -0.21382932 101.483372 -0.21457537 102.2324076 -0.21534403 C114.01031209 -0.22799852 125.78806565 -0.2612222 137.56589958 -0.3028851 C149.65486555 -0.34529842 161.74375424 -0.36887219 173.83279443 -0.37409842 C180.6216229 -0.37751327 187.41021551 -0.38927674 194.19897079 -0.42220116 C200.58477071 -0.45220185 206.97015897 -0.45862191 213.35601425 -0.4468174 C215.70139472 -0.446596 218.04679385 -0.45495549 220.39210892 -0.47247124 C223.5914965 -0.49506718 226.78937934 -0.48691128 229.98877335 -0.47098732 C231.38459849 -0.49181045 231.38459849 -0.49181045 232.80862212 -0.51305425 C237.10888571 -0.46023193 240.08031169 -0.23454419 243.54807281 2.45235825 C245.96002579 5.13701439 245.96002579 5.13701439 246.52252579 8.69951439 C245.95036865 12.19603022 245.48386597 13.70664977 242.96002579 16.13701439 C240.21644166 17.05154243 238.60310474 17.26513776 235.77859306 17.27402878 C234.49411071 17.28164059 234.49411071 17.28164059 233.18367922 17.28940618 C232.24254601 17.28990394 231.3014128 17.29040169 230.33176041 17.29091454 C229.33225463 17.29529679 228.33274886 17.29967904 227.30295503 17.30419409 C223.93815513 17.31759854 220.57338143 17.3237646 217.20856094 17.32988548 C214.80246741 17.33778498 212.39637506 17.34605384 209.99028397 17.35466576 C202.7597173 17.37863308 195.52914886 17.39381345 188.29855639 17.40672582 C186.25673682 17.41043798 184.21491793 17.41441118 182.17309904 17.41847849 C169.49560377 17.44371066 156.81810741 17.4657652 144.14059258 17.47820663 C141.20475256 17.48113635 138.26891259 17.48409802 135.33307266 17.48711205 C134.6033801 17.4878581 133.87368754 17.48860415 133.12188308 17.4893728 C121.29486804 17.5020331 109.46800311 17.53526626 97.64105828 17.57691388 C85.50121493 17.61931342 73.36144849 17.64289919 61.22153127 17.6481272 C54.40424544 17.65154313 47.58719439 17.66331976 40.76998138 17.69622993 C34.35958986 17.72712556 27.94949585 17.73265846 21.5390377 17.72084618 C19.18356107 17.72062461 16.82806596 17.72899784 14.47265434 17.74650002 C11.26202321 17.76906266 8.05289536 17.7609558 4.84225845 17.7450161 C3.90558669 17.75889819 2.96891492 17.77278027 2.00385916 17.78708303 C-2.48262071 17.73202933 -4.43711886 17.58983677 -8.1224575 14.82167053 C-10.63462687 11.3044595 -10.73278881 9.37088137 -10.03997421 5.13701439 C-7.03670356 1.33287156 -4.75712977 0.01503952 0 0 Z " fill="#EBEBEB" transform="translate(138.03997421264648,478.8629856109619)"/>
<path d="M0 0 C6.21776513 3.65307172 11.29233722 9.30203375 13.25390625 16.32421875 C14.45779148 26.116646 12.85591042 33.76376948 6.94140625 41.63671875 C1.07293119 47.50519381 -4.81323453 49.45787478 -12.99609375 49.57421875 C-20.40633234 49.49953549 -26.60750587 48.29891202 -32.29296875 43.08203125 C-37.83414114 36.37900014 -40.76944448 28.90868115 -40.2578125 20.2109375 C-38.86151339 12.33410512 -35.00099817 6.64151331 -28.76953125 1.73046875 C-19.95732454 -4.39384479 -9.63219631 -4.40638194 0 0 Z " fill="#FBDDC3" transform="translate(196.74609375,107.67578125)"/>
<path d="M0 0 C32.01 0 64.02 0 97 0 C97 6.93 97 13.86 97 21 C64.99 21 32.98 21 0 21 C0 14.07 0 7.14 0 0 Z " fill="#419EF9" transform="translate(135,279)"/>
<path d="M0 0 C1.05990143 -0.00983414 2.11980286 -0.01966827 3.21182251 -0.02980042 C4.94811417 -0.01529846 4.94811417 -0.01529846 6.71948242 -0.00050354 C7.94259125 -0.00590652 9.16570007 -0.01130951 10.4258728 -0.01687622 C13.7773952 -0.02724108 17.12793051 -0.0196609 20.4793663 -0.00316501 C23.98755033 0.01069088 27.49570473 0.00422481 31.00390625 0.0007019 C36.895185 -0.00199981 42.78625997 0.01147183 48.67749023 0.03465271 C55.48722662 0.06126237 62.2966223 0.0630095 69.10639286 0.05126435 C75.65889403 0.04048261 82.21127203 0.04667669 88.76376343 0.06081963 C91.55157383 0.06657604 94.339294 0.06649949 97.12710571 0.06175423 C101.02000812 0.05609297 104.91257002 0.0753087 108.80541992 0.09715271 C109.96294769 0.09265106 111.12047546 0.08814941 112.31307983 0.08351135 C113.37298126 0.09341599 114.43288269 0.10332062 115.52490234 0.11352539 C116.44518723 0.11595529 117.36547211 0.11838518 118.31364441 0.12088871 C121.28535345 0.58241581 122.65086312 1.37224022 124.76245117 3.50120544 C125.54400457 8.97207923 125.54400457 8.97207923 124.76245117 11.50120544 C122.554941 14.07286708 120.71595392 15.35367171 117.33695984 15.87649727 C114.18243083 16.03078001 111.04968225 16.05283351 107.89135742 16.03465271 C106.08814529 16.04757607 106.08814529 16.04757607 104.24850464 16.0607605 C100.95910982 16.07955285 97.67035083 16.08032234 94.38093185 16.07143903 C91.63234612 16.06632237 88.88385039 16.07362704 86.13527393 16.0809111 C79.65056779 16.0979003 73.16609703 16.0943538 66.68139648 16.07762146 C59.99592016 16.06069396 53.31109648 16.07654472 46.62569141 16.10884434 C40.880288 16.13554873 35.13508765 16.14281425 29.38962841 16.13432926 C25.9604614 16.12940322 22.53168719 16.13159755 19.10256958 16.15211678 C15.27907487 16.1695031 11.45698274 16.15506657 7.63354492 16.13230896 C5.93305496 16.14984726 5.93305496 16.14984726 4.19821167 16.16773987 C-3.45403529 16.07490095 -3.45403529 16.07490095 -7.44433594 13.15316772 C-9.64316286 9.90134744 -9.97435006 8.34894519 -9.23754883 4.50120544 C-6.37264661 0.89070982 -4.57152772 0.00103962 0 0 Z " fill="#010406" transform="translate(269.237548828125,25.498794555664063)"/>
<path d="M0 0 C1.11421326 -0.00861557 2.22842651 -0.01723114 3.37640381 -0.02610779 C7.06440372 -0.04883497 10.7516479 -0.04201583 14.43969727 -0.03295898 C17.00033292 -0.0381917 19.56096663 -0.04446688 22.12159729 -0.05174255 C27.49083522 -0.06215944 32.85979813 -0.05789544 38.22900391 -0.04296875 C44.43107865 -0.02604932 50.63244948 -0.04187891 56.83444732 -0.07419163 C62.80602576 -0.10412256 68.77738548 -0.10606908 74.7490406 -0.09669304 C77.28759743 -0.09587202 79.82616876 -0.10276395 82.36468315 -0.11746407 C85.91291656 -0.13485961 89.45964019 -0.12040628 93.0078125 -0.09765625 C94.05888687 -0.10934845 95.10996124 -0.12104065 96.19288635 -0.13308716 C103.30772343 -0.04014922 103.30772343 -0.04014922 107.2247467 2.91273499 C109.06860352 5.53344727 109.06860352 5.53344727 109.63110352 8.09594727 C108.89827048 11.27155708 107.55458265 12.48617033 105.06860352 14.53344727 C102.67867057 15.72841374 101.1956194 15.66693877 98.52713013 15.68061829 C97.09285675 15.69135124 97.09285675 15.69135124 95.62960815 15.70230103 C94.57709869 15.70498993 93.52458923 15.70767883 92.44018555 15.71044922 C91.33441162 15.71702042 90.2286377 15.72359161 89.08935547 15.73036194 C85.41837503 15.75012521 81.74743552 15.76176313 78.07641602 15.77172852 C76.20008799 15.77784181 76.20008799 15.77784181 74.28585434 15.7840786 C68.35062372 15.80279662 62.41540618 15.81736089 56.4801532 15.82569057 C49.62710629 15.83546698 42.77438202 15.86179726 35.92144883 15.90219146 C29.98730045 15.93597076 24.05323133 15.9478339 18.11898422 15.95189476 C15.59354334 15.95677825 13.06810634 15.96844189 10.54272842 15.98693275 C7.01349152 16.01117141 3.48510447 16.01038697 -0.04418945 16.00341797 C-1.09265045 16.01622803 -2.14111145 16.02903809 -3.22134399 16.04223633 C-10.26132927 15.99141156 -10.26132927 15.99141156 -13.58059692 13.7228241 C-15.57961163 10.48281972 -15.46345609 8.25786452 -14.93139648 4.53344727 C-11.48751354 -1.04970116 -5.85948524 -0.03631027 0 0 Z " fill="#020303" transform="translate(281.931396484375,287.466552734375)"/>
<path d="M0 0 C1.11421326 -0.00861557 2.22842651 -0.01723114 3.37640381 -0.02610779 C7.06440372 -0.04883497 10.7516479 -0.04201583 14.43969727 -0.03295898 C17.00033292 -0.0381917 19.56096663 -0.04446688 22.12159729 -0.05174255 C27.49083522 -0.06215944 32.85979813 -0.05789544 38.22900391 -0.04296875 C44.43107865 -0.02604932 50.63244948 -0.04187891 56.83444732 -0.07419163 C62.80602576 -0.10412256 68.77738548 -0.10606908 74.7490406 -0.09669304 C77.28759743 -0.09587202 79.82616876 -0.10276395 82.36468315 -0.11746407 C85.91291656 -0.13485961 89.45964019 -0.12040628 93.0078125 -0.09765625 C94.05888687 -0.10934845 95.10996124 -0.12104065 96.19288635 -0.13308716 C103.30772343 -0.04014922 103.30772343 -0.04014922 107.2247467 2.91273499 C109.06860352 5.53344727 109.06860352 5.53344727 109.63110352 8.09594727 C108.89827048 11.27155708 107.55458265 12.48617033 105.06860352 14.53344727 C102.67867057 15.72841374 101.1956194 15.66693877 98.52713013 15.68061829 C97.09285675 15.69135124 97.09285675 15.69135124 95.62960815 15.70230103 C94.57709869 15.70498993 93.52458923 15.70767883 92.44018555 15.71044922 C91.33441162 15.71702042 90.2286377 15.72359161 89.08935547 15.73036194 C85.41837503 15.75012521 81.74743552 15.76176313 78.07641602 15.77172852 C76.20008799 15.77784181 76.20008799 15.77784181 74.28585434 15.7840786 C68.35062372 15.80279662 62.41540618 15.81736089 56.4801532 15.82569057 C49.62710629 15.83546698 42.77438202 15.86179726 35.92144883 15.90219146 C29.98730045 15.93597076 24.05323133 15.9478339 18.11898422 15.95189476 C15.59354334 15.95677825 13.06810634 15.96844189 10.54272842 15.98693275 C7.01349152 16.01117141 3.48510447 16.01038697 -0.04418945 16.00341797 C-1.09265045 16.01622803 -2.14111145 16.02903809 -3.22134399 16.04223633 C-10.26132927 15.99141156 -10.26132927 15.99141156 -13.58059692 13.7228241 C-15.57961163 10.48281972 -15.46345609 8.25786452 -14.93139648 4.53344727 C-11.48751354 -1.04970116 -5.85948524 -0.03631027 0 0 Z " fill="#030404" transform="translate(281.931396484375,244.466552734375)"/>
<path d="M0 0 C1.11421326 -0.00861557 2.22842651 -0.01723114 3.37640381 -0.02610779 C7.06440372 -0.04883497 10.7516479 -0.04201583 14.43969727 -0.03295898 C17.00033292 -0.0381917 19.56096663 -0.04446688 22.12159729 -0.05174255 C27.49083522 -0.06215944 32.85979813 -0.05789544 38.22900391 -0.04296875 C44.43107865 -0.02604932 50.63244948 -0.04187891 56.83444732 -0.07419163 C62.80602576 -0.10412256 68.77738548 -0.10606908 74.7490406 -0.09669304 C77.28759743 -0.09587202 79.82616876 -0.10276395 82.36468315 -0.11746407 C85.91291656 -0.13485961 89.45964019 -0.12040628 93.0078125 -0.09765625 C94.05888687 -0.10934845 95.10996124 -0.12104065 96.19288635 -0.13308716 C103.30772343 -0.04014922 103.30772343 -0.04014922 107.2247467 2.91273499 C109.06860352 5.53344727 109.06860352 5.53344727 109.63110352 8.09594727 C108.89827048 11.27155708 107.55458265 12.48617033 105.06860352 14.53344727 C102.67867057 15.72841374 101.1956194 15.66693877 98.52713013 15.68061829 C97.09285675 15.69135124 97.09285675 15.69135124 95.62960815 15.70230103 C94.57709869 15.70498993 93.52458923 15.70767883 92.44018555 15.71044922 C91.33441162 15.71702042 90.2286377 15.72359161 89.08935547 15.73036194 C85.41837503 15.75012521 81.74743552 15.76176313 78.07641602 15.77172852 C76.20008799 15.77784181 76.20008799 15.77784181 74.28585434 15.7840786 C68.35062372 15.80279662 62.41540618 15.81736089 56.4801532 15.82569057 C49.62710629 15.83546698 42.77438202 15.86179726 35.92144883 15.90219146 C29.98730045 15.93597076 24.05323133 15.9478339 18.11898422 15.95189476 C15.59354334 15.95677825 13.06810634 15.96844189 10.54272842 15.98693275 C7.01349152 16.01117141 3.48510447 16.01038697 -0.04418945 16.00341797 C-1.09265045 16.01622803 -2.14111145 16.02903809 -3.22134399 16.04223633 C-10.26132927 15.99141156 -10.26132927 15.99141156 -13.58059692 13.7228241 C-15.57961163 10.48281972 -15.46345609 8.25786452 -14.93139648 4.53344727 C-11.48751354 -1.04970116 -5.85948524 -0.03631027 0 0 Z " fill="#030404" transform="translate(281.931396484375,201.466552734375)"/>
<path d="M0 0 C1.11421326 -0.00861557 2.22842651 -0.01723114 3.37640381 -0.02610779 C7.06440372 -0.04883497 10.7516479 -0.04201583 14.43969727 -0.03295898 C17.00033292 -0.0381917 19.56096663 -0.04446688 22.12159729 -0.05174255 C27.49083522 -0.06215944 32.85979813 -0.05789544 38.22900391 -0.04296875 C44.43107865 -0.02604932 50.63244948 -0.04187891 56.83444732 -0.07419163 C62.80602576 -0.10412256 68.77738548 -0.10606908 74.7490406 -0.09669304 C77.28759743 -0.09587202 79.82616876 -0.10276395 82.36468315 -0.11746407 C85.91291656 -0.13485961 89.45964019 -0.12040628 93.0078125 -0.09765625 C94.05888687 -0.10934845 95.10996124 -0.12104065 96.19288635 -0.13308716 C103.30772343 -0.04014922 103.30772343 -0.04014922 107.2247467 2.91273499 C109.06860352 5.53344727 109.06860352 5.53344727 109.63110352 8.09594727 C108.89827048 11.27155708 107.55458265 12.48617033 105.06860352 14.53344727 C102.68945214 15.72302295 101.22732831 15.66686222 98.57182312 15.68061829 C97.62550018 15.68777359 96.67917725 15.69492889 95.70417786 15.70230103 C94.66259018 15.70498993 93.6210025 15.70767883 92.54785156 15.71044922 C91.4534375 15.71702042 90.35902344 15.72359161 89.23144531 15.73036194 C85.597737 15.7501265 81.96407005 15.76176404 78.33032227 15.77172852 C77.09171762 15.77580404 75.85311298 15.77987957 74.57697487 15.7840786 C68.69887337 15.80279796 62.82078507 15.81736128 56.94266099 15.82569057 C50.15867306 15.83546228 43.37501148 15.86177956 36.59113854 15.90219146 C30.7146452 15.93599594 24.83826132 15.94783604 18.96167946 15.95189476 C16.46218464 15.95677467 13.96269365 15.96842828 11.46326256 15.98693275 C7.96775518 16.01120474 4.47310439 16.01038067 0.97753906 16.00341797 C-0.05797592 16.01622803 -1.09349091 16.02903809 -2.16038513 16.04223633 C-6.55590182 16.01026919 -9.21249407 15.94711273 -13.07804871 13.7228241 C-14.93139648 11.53344727 -14.93139648 11.53344727 -15.49389648 8.03344727 C-14.93139648 4.53344727 -14.93139648 4.53344727 -13.57945251 2.34803772 C-9.33645047 -0.55949555 -5.02644074 -0.03114803 0 0 Z " fill="#020404" transform="translate(281.931396484375,158.466552734375)"/>
<path d="M0 0 C1.11421326 -0.00861557 2.22842651 -0.01723114 3.37640381 -0.02610779 C7.06440372 -0.04883497 10.7516479 -0.04201583 14.43969727 -0.03295898 C17.00033292 -0.0381917 19.56096663 -0.04446688 22.12159729 -0.05174255 C27.49083522 -0.06215944 32.85979813 -0.05789544 38.22900391 -0.04296875 C44.43107865 -0.02604932 50.63244948 -0.04187891 56.83444732 -0.07419163 C62.80602576 -0.10412256 68.77738548 -0.10606908 74.7490406 -0.09669304 C77.28759743 -0.09587202 79.82616876 -0.10276395 82.36468315 -0.11746407 C85.91291656 -0.13485961 89.45964019 -0.12040628 93.0078125 -0.09765625 C94.05888687 -0.10934845 95.10996124 -0.12104065 96.19288635 -0.13308716 C103.30772343 -0.04014922 103.30772343 -0.04014922 107.2247467 2.91273499 C109.06860352 5.53344727 109.06860352 5.53344727 109.63110352 8.09594727 C108.89827048 11.27155708 107.55458265 12.48617033 105.06860352 14.53344727 C102.68945214 15.72302295 101.22732831 15.66686222 98.57182312 15.68061829 C97.62550018 15.68777359 96.67917725 15.69492889 95.70417786 15.70230103 C94.66259018 15.70498993 93.6210025 15.70767883 92.54785156 15.71044922 C91.4534375 15.71702042 90.35902344 15.72359161 89.23144531 15.73036194 C85.597737 15.7501265 81.96407005 15.76176404 78.33032227 15.77172852 C77.09171762 15.77580404 75.85311298 15.77987957 74.57697487 15.7840786 C68.69887337 15.80279796 62.82078507 15.81736128 56.94266099 15.82569057 C50.15867306 15.83546228 43.37501148 15.86177956 36.59113854 15.90219146 C30.7146452 15.93599594 24.83826132 15.94783604 18.96167946 15.95189476 C16.46218464 15.95677467 13.96269365 15.96842828 11.46326256 15.98693275 C7.96775518 16.01120474 4.47310439 16.01038067 0.97753906 16.00341797 C-0.05797592 16.01622803 -1.09349091 16.02903809 -2.16038513 16.04223633 C-6.55590182 16.01026919 -9.21249407 15.94711273 -13.07804871 13.7228241 C-14.93139648 11.53344727 -14.93139648 11.53344727 -15.49389648 8.03344727 C-14.93139648 4.53344727 -14.93139648 4.53344727 -13.57945251 2.34803772 C-9.33645047 -0.55949555 -5.02644074 -0.03114803 0 0 Z " fill="#020404" transform="translate(281.931396484375,115.466552734375)"/>
<path d="M0 0 C0.80695313 -0.01095703 1.61390625 -0.02191406 2.4453125 -0.03320312 C6.29242718 0.01440968 8.36354034 0.09792373 11.53125 2.41015625 C13.54515188 5.36137948 13.58346216 7.06172701 13 10.5625 C11.1329009 12.86525556 9.64352259 14.24073871 7 15.5625 C4.73354234 15.73772676 2.46027146 15.82978256 0.1875 15.875 C-1.03582031 15.91238281 -2.25914063 15.94976562 -3.51953125 15.98828125 C-7.58923676 15.49041604 -9.16129561 14.46405394 -12 11.5625 C-13.0625 8.625 -13.0625 8.625 -13 5.5625 C-9.77916401 -0.37291592 -6.13511256 -0.18130924 0 0 Z " fill="#020509" transform="translate(126,25.4375)"/>
<path d="M0 0 C0.81146484 -0.01998047 1.62292969 -0.03996094 2.45898438 -0.06054688 C6.33066025 -0.05737077 8.39965577 -0.04531246 11.59375 2.28125 C13.63382604 5.27625525 13.71510503 6.88442819 13.0625 10.4375 C10.34322577 13.93297538 8.88414611 15.29371193 4.46875 16.06640625 C3.1796875 16.04449219 1.890625 16.02257813 0.5625 16 C-0.7265625 16.00128906 -2.015625 16.00257812 -3.34375 16.00390625 C-7.42775993 15.36023077 -9.13884453 14.44817482 -11.9375 11.4375 C-12.79667455 8.49256618 -12.3360621 6.57617651 -11.9375 3.4375 C-8.78966167 -0.80440041 -4.86426352 -0.04229794 0 0 Z " fill="#020508" transform="translate(196.9375,25.5625)"/>
<path d="M0 0 C0.75925781 -0.00708984 1.51851562 -0.01417969 2.30078125 -0.02148438 C5.56120944 0.01563083 8.07438904 0.21903303 10.99609375 1.71875 C13.06354072 4.08154654 13.02877846 6.34550129 13.12890625 9.40234375 C12.12112002 12.66356503 10.37369964 13.69261713 7.5 15.4375 C3.90625 16.00390625 3.90625 16.00390625 0 16 C-1.93359375 16.03287109 -1.93359375 16.03287109 -3.90625 16.06640625 C-8.32164611 15.29371193 -9.78072577 13.93297538 -12.5 10.4375 C-13.0625 7.375 -13.0625 7.375 -12.5 4.4375 C-9.18999369 -0.30827528 -5.35723455 -0.14097986 0 0 Z " fill="#020507" transform="translate(161.5,25.5625)"/>
</svg>
