<?xml version="1.0" encoding="UTF-8"?>
<svg version="1.1" xmlns="http://www.w3.org/2000/svg" width="512" height="512">
<path d="M0 0 C155.80310822 0 155.80310822 0 201.56101227 0.20263672 C207.84506977 0.22988315 214.12913894 0.25388585 220.41320801 0.27832031 C238.25465054 0.34929029 256.09607452 0.42486503 273.9375 0.5 C334.3584375 0.7475 334.3584375 0.7475 396 1 C396 83.83 396 166.66 396 252 C398.97 252.33 401.94 252.66 405 253 C436.78725189 261.11143622 464.39841006 281.73065625 481.14257812 309.92382812 C487.30568143 320.47319277 491.7394835 331.23496964 495 343 C495.3403125 344.18851562 495.680625 345.37703125 496.03125 346.6015625 C503.78241587 379.54401747 496.34942773 414.48058782 479 443 C463.91747107 466.53162923 440.28032807 484.40447857 413.9375 493.375 C413.27919189 493.60147217 412.62088379 493.82794434 411.94262695 494.0612793 C398.85056328 498.22999791 385.93206102 499.44438804 372.3079834 499.36076355 C370.69349516 499.36207973 369.07900756 499.36471761 367.46452332 499.36854553 C363.06720424 499.37520891 358.67010829 499.36332497 354.27281749 499.34821819 C349.44334676 499.33502871 344.61388477 499.33950788 339.78440094 499.34167194 C330.42831349 499.34326082 321.07231309 499.32946853 311.71624795 499.31016796 C300.88406575 499.28849506 290.05193519 499.28617973 279.21972656 499.28381348 C250.64647067 499.26808804 222.07323401 499.22620443 193.5 499.1875 C129.645 499.125625 65.79 499.06375 0 499 C0 334.33 0 169.66 0 0 Z " fill="#4D5680" transform="translate(7,6)"/>
<path d="M0 0 C44.55 0 89.1 0 135 0 C135 164.67 135 329.34 135 499 C90.45 499 45.9 499 0 499 C0 334.33 0 169.66 0 0 Z " fill="#80A2FE" transform="translate(7,6)"/>
<path d="M0 0 C22.70180544 18.46877403 38.47848361 41.10725751 46.3125 69.375 C46.6528125 70.56351562 46.993125 71.75203125 47.34375 72.9765625 C55.09491587 105.91901747 47.66192773 140.85558782 30.3125 169.375 C13.31412363 195.89571759 -13.63210006 214.06283592 -43.6875 222.375 C-44.88761719 222.7153125 -46.08773437 223.055625 -47.32421875 223.40625 C-67.04408038 228.01110418 -89.30676882 227.04237431 -108.6875 221.375 C-109.66082275 221.11009766 -109.66082275 221.11009766 -110.65380859 220.83984375 C-121.65281762 217.81952091 -133.57421614 212.95710847 -142.62788391 205.85229492 C-148.93915304 200.98392397 -153.99244854 200.56668195 -161.80078125 200.74609375 C-162.93275436 200.74424576 -164.06472748 200.74239777 -165.23100281 200.74049377 C-168.82141966 200.73626471 -172.40984885 200.77031964 -176 200.8125 C-179.60785817 200.84928789 -183.21449977 200.87702156 -186.82255554 200.87379456 C-189.06079246 200.87202479 -191.29919277 200.89327081 -193.53694153 200.94004822 C-201.03199477 200.93799655 -201.03199477 200.93799655 -204.40698242 198.03930664 C-206.05088693 194.61891963 -205.85464739 192.95425201 -204.6875 189.375 C-203.61206055 187.72729492 -203.61206055 187.72729492 -201.6875 186.375 C-199.03833986 186.04411188 -196.61056044 185.88656506 -193.95703125 185.86328125 C-193.20661057 185.84533005 -192.45618988 185.82737885 -191.68302917 185.80888367 C-189.2887431 185.75474813 -186.89465669 185.72087584 -184.5 185.6875 C-182.87562323 185.65432964 -181.25127283 185.61984024 -179.62695312 185.58398438 C-175.64727944 185.4990203 -171.6676653 185.43222535 -167.6875 185.375 C-168.07083496 184.8809668 -168.45416992 184.38693359 -168.84912109 183.87792969 C-170.59044614 181.6296633 -172.32651199 179.3773895 -174.0625 177.125 C-174.66578125 176.34769531 -175.2690625 175.57039062 -175.890625 174.76953125 C-176.47070312 174.01542969 -177.05078125 173.26132812 -177.6484375 172.484375 C-178.18259277 171.79311523 -178.71674805 171.10185547 -179.26708984 170.38964844 C-180.63700377 168.44662167 -181.65023185 166.50831447 -182.6875 164.375 C-183.25712967 164.36913376 -183.82675934 164.36326752 -184.41365051 164.35722351 C-190.33477196 164.29336036 -196.25534629 164.20895962 -202.17602539 164.11254883 C-204.38656406 164.07926492 -206.59718843 164.05124388 -208.80786133 164.02856445 C-211.98295666 163.99508241 -215.15726417 163.94276948 -218.33203125 163.88671875 C-219.32274124 163.88032883 -220.31345123 163.8739389 -221.33418274 163.86735535 C-222.71527473 163.83766411 -222.71527473 163.83766411 -224.12426758 163.80737305 C-225.34005241 163.79071846 -225.34005241 163.79071846 -226.58039856 163.77372742 C-229.21708705 163.27478609 -230.10519292 162.51829647 -231.6875 160.375 C-232.1875 156.9375 -232.1875 156.9375 -231.6875 153.375 C-228.78688853 150.20043993 -227.11990334 149.42570741 -222.81518555 148.92089844 C-221.31804722 148.92152634 -219.82080752 148.94380873 -218.32421875 148.984375 C-217.53223587 148.99003479 -216.74025299 148.99569458 -215.92427063 149.00152588 C-213.40721906 149.02382692 -210.89161757 149.07400861 -208.375 149.125 C-206.66343209 149.14507325 -204.95184176 149.16332258 -203.24023438 149.1796875 C-199.05543515 149.22367075 -194.871713 149.29265231 -190.6875 149.375 C-191.19845215 147.87151001 -191.19845215 147.87151001 -191.71972656 146.33764648 C-192.17266395 144.99467541 -192.62545564 143.65165519 -193.078125 142.30859375 C-193.30193848 141.65129272 -193.52575195 140.9939917 -193.75634766 140.31677246 C-198.25302948 126.93790869 -199.86726871 114.11025978 -199.875 100.0625 C-199.88724609 98.90298828 -199.89949219 97.74347656 -199.91210938 96.54882812 C-199.92438495 89.26941107 -199.27815219 82.48111474 -197.6875 75.375 C-198.78739258 75.40118408 -199.88728516 75.42736816 -201.02050781 75.4543457 C-205.10542418 75.54491878 -209.19025203 75.60227433 -213.27587891 75.6496582 C-215.04328338 75.67478641 -216.8105841 75.70889516 -218.57763672 75.75219727 C-221.11972649 75.81292735 -223.66044165 75.84122515 -226.203125 75.86328125 C-227.38615204 75.90199089 -227.38615204 75.90199089 -228.59307861 75.94148254 C-232.51823301 75.94348447 -234.28729548 75.74378191 -237.22167969 73.03979492 C-238.6875 70.375 -238.6875 70.375 -238.625 67.25 C-237.65658508 64.28019424 -237.08003108 63.27352259 -234.6875 61.375 C-232.7702179 60.97627258 -232.7702179 60.97627258 -230.58325195 60.94262695 C-229.76262772 60.92283279 -228.94200348 60.90303864 -228.09651184 60.88264465 C-227.21517075 60.87625473 -226.33382965 60.86986481 -225.42578125 60.86328125 C-224.51998825 60.84533005 -223.61419525 60.82737885 -222.68095398 60.80888367 C-219.78735004 60.75469341 -216.89391185 60.72085714 -214 60.6875 C-212.03838835 60.65433461 -210.07679859 60.61984568 -208.11523438 60.58398438 C-203.30610903 60.49896194 -198.49703359 60.4321924 -193.6875 60.375 C-192.98173828 58.74691406 -192.98173828 58.74691406 -192.26171875 57.0859375 C-191.63289781 55.64058788 -191.00398677 54.19527746 -190.375 52.75 C-190.06626953 52.03714844 -189.75753906 51.32429688 -189.43945312 50.58984375 C-189.13330078 49.88730469 -188.82714844 49.18476563 -188.51171875 48.4609375 C-188.23416748 47.8220459 -187.95661621 47.1831543 -187.6706543 46.52490234 C-186.4120717 43.77271006 -185.05155053 41.07619007 -183.6875 38.375 C-184.94395325 38.38388245 -186.20040649 38.39276489 -187.49493408 38.4019165 C-199.32541852 38.48293997 -211.1558468 38.54293553 -222.98654556 38.58224869 C-229.06911008 38.60313934 -235.15145094 38.63148445 -241.23388672 38.67675781 C-247.10181634 38.7201621 -252.9695306 38.74412597 -258.83760834 38.75450897 C-261.07837058 38.76191003 -263.3191208 38.77636224 -265.55979156 38.79792023 C-268.69409321 38.82688158 -271.82750053 38.83095896 -274.96191406 38.82910156 C-275.89195755 38.84348267 -276.82200104 38.85786377 -277.78022766 38.87268066 C-284.04730974 38.83239141 -284.04730974 38.83239141 -287.26409912 36.53411865 C-289.21663065 33.5723759 -289.26730415 31.85382487 -288.6875 28.375 C-287.32720947 26.21588135 -287.32720947 26.21588135 -284.6875 24.375 C-281.11243394 23.78270374 -277.56802262 23.87055457 -273.95214844 23.92089844 C-272.85916443 23.92031433 -271.76618042 23.91973022 -270.64007568 23.91912842 C-267.02535303 23.92191638 -263.4114537 23.95304351 -259.796875 23.984375 C-257.29152883 23.99183482 -254.78617684 23.99752897 -252.28082275 24.00152588 C-246.35927281 24.01524079 -240.43798727 24.04676996 -234.51657319 24.08692384 C-227.11266391 24.13603962 -219.70871799 24.15750771 -212.3046875 24.1796875 C-199.0988081 24.22259407 -185.89317277 24.29010206 -172.6875 24.375 C-172.40535645 23.77284668 -172.12321289 23.17069336 -171.83251953 22.55029297 C-170.20622259 19.46067554 -167.91180445 17.04828925 -165.5625 14.5 C-165.11390625 13.99597656 -164.6653125 13.49195313 -164.203125 12.97265625 C-161.51023879 10.0315431 -158.70421205 7.5531228 -155.49267578 5.18310547 C-154.77830353 4.65393524 -154.06393127 4.12476501 -153.32791138 3.57955933 C-152.51590775 2.98330246 -152.51590775 2.98330246 -151.6875 2.375 C-152.36925922 2.37353344 -153.05101845 2.37206688 -153.75343704 2.37055588 C-170.33689164 2.33351531 -186.92010801 2.27453741 -203.50339127 2.19109726 C-211.52293486 2.15127612 -219.5423799 2.11889933 -227.56201172 2.10400391 C-234.551375 2.09100324 -241.54052168 2.06407943 -248.52976298 2.02038693 C-252.23108001 1.99773609 -255.93212954 1.98209146 -259.63352203 1.98311615 C-263.76412685 1.98399892 -267.89394022 1.95379966 -272.02441406 1.92089844 C-273.25368118 1.9259288 -274.4829483 1.93095917 -275.74946594 1.93614197 C-276.87404709 1.92222916 -277.99862823 1.90831635 -279.1572876 1.89398193 C-280.13438816 1.89029476 -281.11148872 1.88660759 -282.11819839 1.88280869 C-285.43340635 1.22757561 -286.62891099 0.00691709 -288.6875 -2.625 C-289.1875 -5.625 -289.1875 -5.625 -288.6875 -8.625 C-286.51631036 -11.49946447 -285.33891962 -12.51554302 -281.74845982 -13.11884212 C-280.59651095 -13.1160352 -279.44456209 -13.11322828 -278.25770569 -13.1103363 C-277.29241043 -13.11629644 -277.29241043 -13.11629644 -276.30761427 -13.12237698 C-274.15264587 -13.13096351 -271.99887673 -13.11114183 -269.84399414 -13.09155273 C-268.29801267 -13.09210153 -266.75203092 -13.09447657 -265.20605469 -13.09854126 C-261.87583999 -13.10372031 -258.54595428 -13.0966372 -255.21577644 -13.08028984 C-249.9400126 -13.0551621 -244.66457318 -13.06145974 -239.38877869 -13.07276917 C-226.27693136 -13.0959719 -213.16517653 -13.07763409 -200.05334473 -13.05126953 C-189.87687947 -13.03127485 -179.70067481 -13.02284741 -169.52420896 -13.04820591 C-164.29070654 -13.059962 -159.0579476 -13.04850154 -153.82452309 -13.0189532 C-150.55043744 -13.00559405 -147.27663256 -13.01318609 -144.00255585 -13.02623367 C-142.49703194 -13.02807336 -140.99146767 -13.02152518 -139.48602867 -13.00543022 C-130.75244097 -12.91724668 -123.51930338 -13.86273563 -115.43500423 -17.42250156 C-111.63601608 -19.0852023 -107.79108456 -20.01043177 -103.75 -20.875 C-103.04810547 -21.03484375 -102.34621094 -21.1946875 -101.62304688 -21.359375 C-66.57054837 -29.22897242 -28.90570137 -21.19751434 0 0 Z " fill="#7FEBC5" transform="translate(455.6875,279.625)"/>
<path d="M0 0 C15.17691692 11.94778566 28.21884194 30.16936164 31.03320312 49.71704102 C33.69363836 72.90420047 30.39986979 96.40950935 15.52197266 115.31005859 C2.38849803 131.05754822 -15.60626256 143.64423256 -36.25 146.75 C-60.89324372 148.8061076 -82.50604657 143.94789877 -102.03515625 128.5546875 C-116.65583079 115.94520312 -125.59741745 100.38661597 -130.25 81.75 C-130.44464844 81.00621094 -130.63929688 80.26242188 -130.83984375 79.49609375 C-131.46156792 75.33350241 -131.39364976 71.20241244 -131.375 67 C-131.37886719 66.1440625 -131.38273438 65.288125 -131.38671875 64.40625 C-131.35260585 41.89173368 -122.66629757 22.53576532 -106.98046875 6.41796875 C-76.89152672 -22.11548677 -33.22256629 -23.63994552 0 0 Z " fill="#F2F4F8" transform="translate(322.25,55.25)"/>
<path d="M0 0 C1.20319885 -0.00761353 2.40639771 -0.01522705 3.64605713 -0.02307129 C6.18426446 -0.0338433 8.72251601 -0.03673725 11.26074219 -0.03222656 C15.1146974 -0.03125653 18.96664535 -0.07286984 22.8203125 -0.1171875 C25.29687089 -0.122397 27.77343613 -0.12508265 30.25 -0.125 C31.38789978 -0.14139526 32.52579956 -0.15779053 33.69818115 -0.17468262 C44.31101256 -0.08444709 53.85862642 3.00768261 61.640625 10.44921875 C66.42014667 15.9648721 70.05395453 22.25072947 71.390625 29.46875 C71.54273438 30.10425781 71.69484375 30.73976562 71.8515625 31.39453125 C72.19077777 33.75528615 72.14515664 35.19643218 71.390625 37.46875 C61.45193045 49.13591316 41.66151924 57.44492866 26.58740234 58.70263672 C3.95424871 59.7495365 -15.03603418 55.72864466 -33.609375 42.46875 C-34.55683594 41.82421875 -35.50429687 41.1796875 -36.48046875 40.515625 C-38.609375 38.46875 -38.609375 38.46875 -39.203125 35.98828125 C-38.82360746 25.02971228 -36.21356565 17.54440047 -28.609375 9.46875 C-19.91881478 1.49081572 -11.48526167 0.00201861 0 0 Z " fill="#FED731" transform="translate(256.609375,143.53125)"/>
<path d="M0 0 C1.23715117 -0.00935994 1.23715117 -0.00935994 2.49929529 -0.01890898 C5.26703673 -0.03488257 8.0339028 -0.02221781 10.801651 -0.00964355 C12.78425613 -0.01506278 14.76685723 -0.02218431 16.74945068 -0.03088379 C22.13790755 -0.04914495 27.52605865 -0.04203771 32.91452098 -0.02936745 C38.54964073 -0.01925286 44.18473398 -0.02862897 49.81985474 -0.03491211 C59.28486337 -0.0421936 68.74974724 -0.03258824 78.21473694 -0.0135498 C89.16090014 0.00821355 100.10676528 0.00117339 111.05292124 -0.02085543 C120.44580957 -0.03900258 129.83860812 -0.04157089 139.23150831 -0.03110075 C144.84370882 -0.02486127 150.45576921 -0.02404261 156.06796074 -0.0372467 C161.34493916 -0.04879433 166.62153308 -0.04079913 171.89846992 -0.01766968 C173.83627305 -0.01237653 175.77410849 -0.01390668 177.7118988 -0.02272034 C180.35532704 -0.03363567 182.99751983 -0.0199611 185.64086914 0 C186.40954801 -0.00892289 187.17822688 -0.01784577 187.97019905 -0.02703905 C191.60420805 0.02626495 193.75456021 0.43021524 196.89521122 2.31702423 C198.88392639 4.50793457 198.88392639 4.50793457 198.94642639 8.07043457 C197.75232425 11.93370621 197.35913694 12.64398878 193.88392639 14.50793457 C191.10095971 14.79904796 188.54320075 14.91728465 185.76112366 14.89561462 C184.52291414 14.90369293 184.52291414 14.90369293 183.25969028 14.91193444 C180.48975338 14.92625821 177.72029139 14.91909948 174.95033264 14.9119873 C172.96610631 14.91768852 170.98188326 14.92465181 168.99766541 14.93278503 C163.60519656 14.95075788 158.21289006 14.94954044 152.82040024 14.94384265 C148.32212045 14.94075712 143.82387213 14.94683608 139.32559681 14.9528814 C128.71643276 14.96693823 118.10734921 14.96535536 107.4981842 14.95397949 C96.54405804 14.94249348 85.59017657 14.95657951 74.63608265 14.98337597 C65.23812285 15.00550709 55.84024 15.01217629 46.44225597 15.00629956 C40.82616506 15.00292302 35.21023106 15.00539138 29.59416199 15.02255058 C24.31474032 15.03797669 19.03568226 15.03411242 13.75627518 15.01524544 C11.81643368 15.01154769 9.87656549 15.01470234 7.9367485 15.02513123 C5.292985 15.03826185 2.65043941 15.02686481 0.00672913 15.00914001 C-1.15065844 15.02354752 -1.15065844 15.02354752 -2.33142757 15.0382461 C-5.81390145 14.9900499 -7.76286883 14.77091361 -10.59249878 12.66410923 C-12.67456824 9.71754873 -12.70482743 8.04045751 -12.11607361 4.50793457 C-8.84761977 -0.11542764 -5.26447174 -0.06093359 0 0 Z " fill="#7FA2FE" transform="translate(179.11607360839844,229.4920654296875)"/>
<path d="M0 0 C4.65735979 1.52062468 4.65735979 1.52062468 6.12214661 4.01937866 C6.69223022 6.57847595 6.69223022 6.57847595 6.12214661 10.01937866 C3.77877755 13.30451276 0.92674787 16.05427572 -1.93669128 18.88632202 C-2.79351501 19.75687225 -3.65033875 20.62742249 -4.53312683 21.52435303 C-6.88388053 23.90543277 -9.2474088 26.27216195 -11.61902165 28.63236308 C-13.59784377 30.6050027 -15.56741237 32.58675323 -17.53709406 34.56851298 C-22.18385679 39.24336322 -26.84603874 43.90242764 -31.51823425 48.55184937 C-36.33723238 53.34787592 -41.13010001 58.16891786 -45.91074377 63.00315183 C-50.01779136 67.15450465 -54.14017347 71.29017279 -58.27530092 75.41355616 C-60.74422691 77.87573918 -63.20699536 80.34336465 -65.65530586 82.82606316 C-68.38554358 85.59296475 -71.14747115 88.32680319 -73.91325378 91.05819702 C-74.72030258 91.88458176 -75.52735138 92.71096649 -76.3588562 93.56239319 C-81.89033624 98.95043593 -81.89033624 98.95043593 -86.62554932 99.28102112 C-90.20422133 97.89277314 -92.16313849 96.49422554 -94.87931824 93.79428101 C-95.79651642 92.89599579 -96.7137146 91.99771057 -97.65870667 91.07220459 C-98.63616976 90.08400119 -99.61284593 89.09501889 -100.58879089 88.10531616 C-101.60684794 87.09130516 -102.62579388 86.0781859 -103.64558411 85.06591797 C-105.77505675 82.94527095 -107.89335145 80.81420475 -110.00431824 78.67514038 C-112.70433483 75.94093863 -115.43040193 73.23456548 -118.16544151 70.53545189 C-120.27308101 68.4495461 -122.36615626 66.34949415 -124.45517349 64.24495316 C-125.45466571 63.24147283 -126.45859464 62.24239063 -127.46706772 61.24793625 C-128.87685505 59.85347122 -130.26529091 58.43752074 -131.65275574 57.02084351 C-132.44660675 56.22221893 -133.24045776 55.42359436 -134.05836487 54.60076904 C-136.33931085 51.36468816 -136.71532477 48.94492377 -136.87785339 45.01937866 C-134.92643297 41.97516281 -133.61940241 41.20476592 -130.12785339 40.33187866 C-122.54297193 41.93637282 -116.49116349 50.31468008 -111.23722839 55.73812866 C-109.82375629 57.17881231 -108.40967659 58.61890005 -106.99504089 60.05844116 C-104.79463127 62.3023645 -102.59837116 64.54982242 -100.41203308 66.8074646 C-98.28169558 69.00404982 -96.13607921 71.18467204 -93.98722839 73.36312866 C-93.33300903 74.0462915 -92.67878967 74.72945435 -92.00474548 75.43331909 C-91.39020508 76.05146484 -90.77566467 76.6696106 -90.14250183 77.30648804 C-89.60703735 77.85607178 -89.07157288 78.40565552 -88.5198822 78.97189331 C-86.93248178 80.23075815 -86.93248178 80.23075815 -84.98979282 79.78022957 C-82.48729578 78.87867571 -81.30016971 77.79146413 -79.4447937 75.89324951 C-78.78469299 75.22571152 -78.12459229 74.55817352 -77.44448853 73.8704071 C-76.7311586 73.13372299 -76.01782867 72.39703888 -75.28288269 71.63803101 C-74.52301056 70.86574661 -73.76313843 70.09346222 -72.98023987 69.29777527 C-71.32979639 67.61916052 -69.6826523 65.9372969 -68.03841209 64.25260544 C-65.43635311 61.58922669 -62.82305214 58.93739465 -60.20593262 56.28881836 C-52.76583525 48.75695706 -45.33932874 41.21202589 -37.93864441 33.64144897 C-33.41237595 29.01322547 -28.86692572 24.40460364 -24.30861855 19.80794144 C-22.57359403 18.05056544 -20.84605973 16.28576226 -19.12618065 14.51356125 C-16.72244915 12.03782707 -14.29516526 9.58770894 -11.86100769 7.14193726 C-11.15375046 6.40120468 -10.44649323 5.66047211 -9.71780396 4.89729309 C-4.79542609 0.02396402 -4.79542609 0.02396402 0 0 Z " fill="#4D5780" transform="translate(445.8778533935547,330.9806213378906)"/>
<path d="M0 0 C0.64453542 -0.0034177 1.28907084 -0.0068354 1.95313764 -0.01035666 C4.11083418 -0.01694049 6.26728401 0.00504629 8.42486572 0.0269165 C9.97223379 0.02804489 11.519604 0.0274113 13.06697083 0.02514648 C17.26720066 0.02399803 21.4669743 0.04752831 25.66709805 0.07544231 C30.05664703 0.10043423 34.44620628 0.10279622 38.83581543 0.10754395 C47.1479107 0.11998024 55.45979572 0.15281065 63.77179837 0.1929419 C73.2348011 0.23763931 82.69781383 0.25964154 92.16089582 0.27972364 C111.62693471 0.32154274 131.09277785 0.39190745 150.55865479 0.48101807 C148.09392594 2.34608856 145.65190567 4.09658748 142.99224854 5.67242432 C142.01675049 6.25346924 142.01675049 6.25346924 141.02154541 6.84625244 C140.3531665 7.2413501 139.6847876 7.63644775 138.99615479 8.04351807 C137.66112909 8.83582958 136.32647962 9.62877544 134.99224854 10.42242432 C134.405 10.76990723 133.81775146 11.11739014 133.21270752 11.47540283 C131.63471964 12.43477288 130.09523265 13.45663283 128.55865479 14.48101807 C126.09233952 14.73828697 126.09233952 14.73828697 123.09968567 14.7484436 C121.96543152 14.75697357 120.83117737 14.76550354 119.66255188 14.77429199 C118.41727219 14.77338562 117.17199249 14.77247925 115.88897705 14.77154541 C114.57823212 14.77826263 113.26748718 14.78497986 111.91702271 14.79190063 C108.31992043 14.80958019 104.72291328 14.8142568 101.12577176 14.81553221 C98.1237115 14.81743072 95.12167342 14.82478761 92.11962169 14.8318764 C85.03768315 14.84816499 77.95579546 14.85304488 70.87384033 14.85162354 C63.56593507 14.8504216 56.25832491 14.87153245 48.95049435 14.90311086 C42.67779765 14.92925137 36.40519747 14.93999179 30.13244671 14.93871272 C26.38530192 14.93820247 22.6384194 14.94391998 18.89132881 14.96506882 C14.71325585 14.98800625 10.53584542 14.97894405 6.35772705 14.96685791 C5.11447159 14.97809692 3.87121613 14.98933594 2.59028625 15.00091553 C1.45321228 14.99252655 0.31613831 14.98413757 -0.85539246 14.97549438 C-2.33732165 14.97712869 -2.33732165 14.97712869 -3.8491888 14.97879601 C-7.18678221 14.33787003 -8.37481475 13.13044182 -10.44134521 10.48101807 C-10.94134521 7.48101807 -10.94134521 7.48101807 -10.44134521 4.48101807 C-7.32949066 0.35885396 -5.04854101 -0.01612952 0 0 Z " fill="#7FA2FE" transform="translate(177.44134521484375,266.51898193359375)"/>
<path d="M0 0 C0.94147888 -0.00960754 1.88295776 -0.01921509 2.85296631 -0.02911377 C3.87376282 -0.03336365 4.89455933 -0.03761353 5.94628906 -0.04199219 C6.99463928 -0.04769226 8.0429895 -0.05339233 9.12310791 -0.05926514 C11.34573352 -0.06872452 13.56837322 -0.07525283 15.79101562 -0.07910156 C19.18417036 -0.08878799 22.57671458 -0.11979511 25.96972656 -0.15136719 C28.12857713 -0.15789908 30.28743203 -0.16314882 32.44628906 -0.16699219 C33.96533844 -0.18551239 33.96533844 -0.18551239 35.51507568 -0.20440674 C42.58034417 -0.18218282 46.91112384 0.8370795 52.27441406 5.72363281 C55.37154462 9.75290946 55.72171994 14.20120233 55.46191406 19.16113281 C53.81879438 25.05703285 51.30116238 27.73333192 46.46191406 31.16113281 C43.63314466 32.10405595 41.78048233 32.31311288 38.84204102 32.36987305 C37.90709305 32.38916367 36.97214508 32.40845428 36.00886536 32.42832947 C31.72836337 32.48626326 27.4480263 32.53536058 23.16723633 32.56616211 C20.91415056 32.58772507 18.66114818 32.62180735 16.40844727 32.66870117 C13.15115136 32.73585945 9.89558687 32.76318904 6.63769531 32.78222656 C5.63845535 32.81005722 4.63921539 32.83788788 3.60969543 32.86656189 C-2.62439669 32.8483686 -6.18307944 31.75396101 -10.985672 27.72645569 C-14.57960477 24.10263795 -15.70029771 20.64134716 -15.97558594 15.66113281 C-15.80939271 11.16636155 -14.5066665 8.61110482 -11.53808594 5.16113281 C-7.5694268 1.66493309 -5.25627375 0.0432316 0 0 Z " fill="#F2F4F9" transform="translate(54.5380859375,440.8388671875)"/>
<path d="M0 0 C0.94396133 -0.0038269 1.88792267 -0.00765381 2.86048889 -0.01159668 C4.84637526 -0.01430483 6.83229797 -0.00702093 8.81811523 0.00976562 C11.8359439 0.03116694 14.8513857 0.00993878 17.86914062 -0.015625 C19.80859894 -0.01298106 21.74805579 -0.00785472 23.6875 0 C24.57839828 -0.00809692 25.46929657 -0.01619385 26.38719177 -0.02453613 C32.51063882 0.06582821 37.68732769 1.20222974 42.91015625 4.53125 C46.37662178 8.27072217 48.19014232 11.90912016 48.53515625 17.03125 C48.22858483 21.95342452 46.34757638 25.99790186 42.91015625 29.53125 C37.32479725 33.21331063 32.05475194 32.98300231 25.59765625 32.96484375 C24.51057373 32.9700856 23.42349121 32.97532745 22.3034668 32.98072815 C20.0105881 32.9871368 17.71767647 32.98582639 15.42480469 32.97729492 C11.92192988 32.96877862 8.42068291 32.99757474 4.91796875 33.02929688 C2.6861984 33.0309089 0.45442518 33.03033132 -1.77734375 33.02734375 C-2.82124268 33.03857773 -3.8651416 33.04981171 -4.94067383 33.06138611 C-10.97571341 33.00368803 -14.51768269 32.59178624 -19.08984375 28.53125 C-22.45903899 24.00943534 -23.83108744 20.47258226 -23.53125 14.8046875 C-22.73928744 10.72572991 -21.06783887 7.42859109 -18.08984375 4.53125 C-12.16657224 0.6491511 -6.96832393 -0.063188 0 0 Z " fill="#FCD733" transform="translate(62.08984375,298.46875)"/>
<path d="M0 0 C1.3422464 -0.01913956 1.3422464 -0.01913956 2.71160889 -0.03866577 C4.15228729 -0.04200424 4.15228729 -0.04200424 5.62207031 -0.04541016 C6.6184552 -0.05206696 7.61484009 -0.05872375 8.64141846 -0.06558228 C10.74953365 -0.07570258 12.85768085 -0.08039949 14.96582031 -0.08007812 C18.17469864 -0.08443801 21.38218646 -0.12072816 24.59082031 -0.15869141 C26.64289896 -0.1645625 28.69498412 -0.16852993 30.74707031 -0.17041016 C31.69942566 -0.18478119 32.65178101 -0.19915222 33.63299561 -0.21395874 C39.73962434 -0.17255029 44.3564027 0.80480843 49.45019531 4.29052734 C53.63073385 8.57825918 54.29361653 11.34895042 54.76269531 17.16552734 C54.69786922 21.52508185 53.27696428 23.92896424 50.45019531 27.29052734 C46.30981722 31.02696611 43.33753806 32.40167238 37.79858398 32.4675293 C36.85718063 32.48036453 35.91577728 32.49319977 34.94584656 32.50642395 C33.93021133 32.51381088 32.91457611 32.52119781 31.86816406 32.52880859 C30.82122879 32.53688034 29.77429352 32.54495209 28.69563293 32.55326843 C26.47899021 32.56710253 24.26232624 32.5778277 22.0456543 32.58569336 C18.66120934 32.60290774 15.27774084 32.64680106 11.89355469 32.69091797 C9.73926499 32.70104498 7.584967 32.70956106 5.43066406 32.71630859 C4.42110153 32.73381668 3.411539 32.75132477 2.37138367 32.7693634 C-3.61563933 32.75094277 -6.98083489 32.25598837 -11.54980469 28.29052734 C-14.89205554 24.58695207 -16.41240026 22.07678492 -16.79980469 17.04052734 C-16.43605634 11.5843022 -15.11754705 7.77787266 -11.11230469 3.97802734 C-7.28729003 1.45911525 -4.62956076 0.0450078 0 0 Z " fill="#7FEBC6" transform="translate(55.5498046875,369.70947265625)"/>
<path d="M0 0 C5.43910517 3.05067576 9.32346193 7.75672748 11.8125 13.4375 C12.24355795 16.51068959 12.18272258 19.58695729 12.1875 22.6875 C12.21199219 23.50863281 12.23648438 24.32976562 12.26171875 25.17578125 C12.29445031 32.06031957 10.59301123 37.21534158 6.06640625 42.4609375 C0.55868267 46.86202839 -3.68343634 48.94851592 -10.8515625 48.74609375 C-17.50972323 47.86650395 -21.82982387 44.29609636 -25.9609375 39.21875 C-29.50951743 34.06539826 -29.58488431 29.80291336 -29.625 23.6875 C-29.65787109 22.81867188 -29.69074219 21.94984375 -29.72460938 21.0546875 C-29.77804835 14.58371399 -28.32252884 10.43346611 -24.1875 5.4375 C-22.0546875 3.37890625 -22.0546875 3.37890625 -20.0625 2 C-19.39992188 1.52691406 -18.73734375 1.05382812 -18.0546875 0.56640625 C-12.53759117 -2.76924404 -5.77926942 -2.60067124 0 0 Z " fill="#FED9B3" transform="translate(281.1875,69.5625)"/>
<path d="M0 0 C1.08323044 -0.00058411 2.16646088 -0.00116821 3.28251648 -0.00177002 C6.86477648 0.00101782 10.44620557 0.0321443 14.02832031 0.06347656 C16.51124619 0.07093642 18.99417795 0.07663056 21.47711182 0.08062744 C27.34554867 0.09434207 33.2136785 0.12587067 39.08198953 0.1660254 C46.41952038 0.2151423 53.75706881 0.23660948 61.09472656 0.25878906 C74.18211775 0.30169499 87.26926264 0.36920248 100.35644531 0.45410156 C99.2318486 2.22519104 98.10675328 3.99596392 96.98144531 5.76660156 C96.35496094 6.75273437 95.72847656 7.73886719 95.08300781 8.75488281 C93.85992918 10.66698086 92.61550971 12.56550496 91.35644531 14.45410156 C89.5285511 14.8344183 89.5285511 14.8344183 87.27053833 14.84178162 C86.41532593 14.85168625 85.56011353 14.86159088 84.6789856 14.87179565 C83.738685 14.86729401 82.7983844 14.86279236 81.82958984 14.8581543 C80.34649323 14.86844917 80.34649323 14.86844917 78.83343506 14.87895203 C75.55189818 14.89731321 72.27083523 14.89336878 68.98925781 14.88769531 C66.71483198 14.8922531 64.44040753 14.89755745 62.16598511 14.90357971 C57.39266374 14.91252949 52.61950949 14.91006698 47.84619141 14.90014648 C41.7235073 14.88866289 35.60140043 14.90884994 29.47879219 14.93806362 C24.77937136 14.95639574 20.08008954 14.95613895 15.38064194 14.9504261 C13.12315945 14.95027248 10.86566777 14.95635065 8.60821915 14.96871758 C5.45247302 14.98356655 2.29780193 14.97299423 -0.85791016 14.95581055 C-1.79416229 14.96547852 -2.73041443 14.97514648 -3.69503784 14.98510742 C-10.00126387 14.91306683 -10.00126387 14.91306683 -13.22390747 12.61024475 C-15.17295968 9.65004761 -15.22282851 7.92974452 -14.64355469 4.45410156 C-11.1564998 -1.05747374 -5.84581299 -0.08213489 0 0 Z " fill="#7FA2FE" transform="translate(181.6435546875,303.5458984375)"/>
<path d="M0 0 C0.72421646 -0.00700928 1.44843292 -0.01401855 2.19459534 -0.02124023 C4.57869275 -0.03878626 6.96159451 -0.02721062 9.34570312 -0.01367188 C11.00809964 -0.01636779 12.67049461 -0.02025104 14.33288574 -0.02526855 C17.81305997 -0.03115897 21.29282289 -0.02261569 24.77294922 -0.00390625 C29.2286325 0.01888341 33.683352 0.00575782 38.13899994 -0.01819611 C41.57060985 -0.03266666 45.00199215 -0.02804241 48.43360901 -0.01768494 C50.07621882 -0.01502111 51.71884945 -0.01827533 53.36143494 -0.02760315 C55.65948026 -0.03778998 57.95597603 -0.02224035 60.25390625 0 C62.21318054 0.00477356 62.21318054 0.00477356 64.21203613 0.00964355 C68.18602662 0.60073469 69.86152186 1.64441335 72.62695312 4.51757812 C73.18945312 7.51757812 73.18945312 7.51757812 72.62695312 10.51757812 C71.0579834 12.67272949 71.0579834 12.67272949 68.62695312 14.51757812 C66.00048687 14.91258756 63.79201445 15.06553725 61.16796875 15.03515625 C60.42278488 15.04216553 59.67760101 15.0491748 58.90983582 15.05639648 C56.45057737 15.07397854 53.99247294 15.06235386 51.53320312 15.04882812 C49.82214131 15.051523 48.11108099 15.05540538 46.40002441 15.0604248 C42.81552538 15.06632011 39.23142529 15.05775611 35.64697266 15.0390625 C31.05328873 15.01627263 26.46053958 15.02939559 21.86688995 15.05335236 C18.33409589 15.06780964 14.80152329 15.06320473 11.26872253 15.05284119 C9.57504668 15.05017369 7.8813507 15.05344448 6.18769836 15.0627594 C3.81990336 15.07292425 1.45361996 15.05742692 -0.9140625 15.03515625 C-1.61340408 15.04325317 -2.31274567 15.0513501 -3.03327942 15.05969238 C-6.37279458 15.00152851 -8.1122904 14.71545975 -10.80407715 12.67272949 C-12.37304688 10.51757812 -12.37304688 10.51757812 -12.93554688 7.51757812 C-12.37304688 4.51757812 -12.37304688 4.51757812 -10.29870605 2.36242676 C-6.61746062 0.04112404 -4.33590811 0.01056397 0 0 Z " fill="#4E5782" transform="translate(44.373046875,132.482421875)"/>
<path d="M0 0 C0.72680466 0.00090637 1.45360931 0.00181274 2.20243835 0.00274658 C2.9684436 -0.00397064 3.73444885 -0.01068787 4.52366638 -0.01760864 C7.06322157 -0.03665209 9.60251341 -0.04051593 12.14213562 -0.04266357 C13.90329092 -0.04908686 15.66444513 -0.05581486 17.42559814 -0.06283569 C21.12027969 -0.07482417 24.81486763 -0.07851489 28.50956726 -0.07733154 C33.24906147 -0.07712821 37.987957 -0.10443789 42.72730923 -0.13887596 C46.3655372 -0.16108891 50.00361979 -0.16517082 53.64190865 -0.16411209 C55.38946154 -0.16647623 57.13701796 -0.17534526 58.88450432 -0.19077682 C61.3268491 -0.21032529 63.76788601 -0.20464383 66.21025085 -0.19256592 C66.93503128 -0.20380493 67.65981171 -0.21504395 68.40655518 -0.22662354 C71.61507459 -0.1862059 73.33326945 -0.10712212 75.74749756 2.10098267 C77.32275328 5.47496396 76.73238463 7.76835049 75.77104187 11.29327393 C73.37826816 13.81087672 71.95441815 14.27132167 68.47637939 14.68768311 C66.51377419 14.70031189 66.51377419 14.70031189 64.51152039 14.7131958 C63.42541473 14.72590012 63.42541473 14.72590012 62.31736755 14.73886108 C59.92804821 14.76222642 57.53937299 14.76325342 55.14994812 14.76202393 C53.48612206 14.76912575 51.82229845 14.77682478 50.15847778 14.78509521 C46.672411 14.79853887 43.18657068 14.80010934 39.70048523 14.79425049 C35.23682659 14.78835398 30.7742555 14.81894341 26.31080723 14.85936737 C22.87492028 14.88523827 19.43929543 14.88812239 16.00332451 14.88447571 C14.35789697 14.8861675 12.7124574 14.89581588 11.06712532 14.91362 C8.76399936 14.93579995 6.4630774 14.92611595 4.15995789 14.9085083 C2.85075882 14.91056274 1.54155975 14.91261719 0.19268799 14.91473389 C-4.10809007 14.13360069 -5.62011065 12.74561987 -8.22895813 9.29327393 C-8.11374053 2.49543583 -6.8961809 0.08870663 0 0 Z " fill="#4E5884" transform="translate(40.22895812988281,99.70672607421875)"/>
<path d="M0 0 C0.74503784 -0.00671722 1.49007568 -0.01343445 2.25769043 -0.02035522 C4.72207292 -0.03936282 7.18618352 -0.04326065 9.65063477 -0.04541016 C11.36312472 -0.05183574 13.07561357 -0.05856392 14.7881012 -0.06558228 C18.37845404 -0.07756163 21.96871061 -0.08126238 25.55908203 -0.08007812 C30.16057299 -0.0798748 34.76144728 -0.10718782 39.36279202 -0.14162254 C42.89983457 -0.16385476 46.4367278 -0.16791682 49.97383308 -0.16685867 C51.67032054 -0.16921977 53.36681179 -0.17807187 55.06323051 -0.19352341 C57.43582296 -0.21311156 59.80707363 -0.2073749 62.1796875 -0.1953125 C62.88060013 -0.20655151 63.58151276 -0.21779053 64.30366516 -0.22937012 C67.63458994 -0.18631809 69.40524162 0.10786495 72.12171936 2.09823608 C73.65454102 4.29052734 73.65454102 4.29052734 73.65454102 7.85302734 C72.65454102 11.29052734 72.65454102 11.29052734 71.04576111 12.97912598 C67.738092 14.79312955 65.16027098 14.68622094 61.39501953 14.71044922 C60.30891388 14.72315353 60.30891388 14.72315353 59.2008667 14.7361145 C56.81154735 14.75947984 54.42287213 14.76050684 52.03344727 14.75927734 C50.3696212 14.76637917 48.70579759 14.7740782 47.04197693 14.78234863 C43.55591014 14.79579229 40.07006982 14.79736275 36.58398438 14.79150391 C32.12032574 14.7856074 27.65775464 14.81619683 23.19430637 14.85662079 C19.75841943 14.88249168 16.32279457 14.88537581 12.88682365 14.88172913 C11.24139612 14.88342092 9.59595655 14.8930693 7.95062447 14.91087341 C5.64749851 14.93305337 3.34657654 14.92336937 1.04345703 14.90576172 C-0.26574203 14.90781616 -1.5749411 14.90987061 -2.92381287 14.9119873 C-7.22487957 14.13080168 -8.73349396 12.74037437 -11.34545898 9.29052734 C-11.34545898 5.60302734 -11.34545898 5.60302734 -10.34545898 2.29052734 C-6.751016 -0.10576798 -4.15203706 -0.00535367 0 0 Z " fill="#4E5782" transform="translate(43.345458984375,65.70947265625)"/>
<path d="M0 0 C0.73382401 -0.00700928 1.46764801 -0.01401855 2.22370911 -0.02124023 C4.64570131 -0.03882275 7.06652162 -0.02719632 9.48852539 -0.01367188 C11.17477136 -0.01636703 12.86101582 -0.02024965 14.54725647 -0.02526855 C18.08048303 -0.03116416 21.61330489 -0.0226 25.14648438 -0.00390625 C29.67057289 0.01886618 34.19371132 0.00577197 38.71776485 -0.01819611 C42.19998805 -0.03266753 45.68198695 -0.0280417 49.164217 -0.01768494 C50.83194657 -0.01502044 52.49969664 -0.01827768 54.16740227 -0.02760315 C56.50147084 -0.03778937 58.83401352 -0.02224017 61.16796875 0 C61.85436432 -0.00809692 62.54075989 -0.01619385 63.24795532 -0.02453613 C66.70944692 0.03641472 68.63308197 0.50805247 71.61231995 2.32727051 C73.64868164 4.51757813 73.64868164 4.51757813 73.71118164 8.08007812 C72.52212814 11.92701592 72.08698281 12.63415627 68.64868164 14.51757812 C66.11117 14.81728203 63.8181595 14.948274 61.28149414 14.9375 C60.54606384 14.94596954 59.81063354 14.95443909 59.05291748 14.96316528 C56.62632879 14.98653009 54.20037421 14.98755774 51.77368164 14.98632812 C50.08503974 14.9934292 48.39640025 15.00112812 46.70776367 15.00939941 C43.17042327 15.02284238 39.63330606 15.02441349 36.09594727 15.01855469 C31.56269517 15.01265361 27.03051222 15.04326693 22.49746704 15.08367157 C19.01100901 15.10951684 15.52480967 15.11242901 12.03826904 15.10877991 C10.36689564 15.11047363 8.69551061 15.1201405 7.02423096 15.13792419 C4.687381 15.16005689 2.3527115 15.15044458 0.01586914 15.1328125 C-0.6741217 15.14607574 -1.36411255 15.15933899 -2.07501221 15.17300415 C-5.74979294 15.10856377 -7.11328969 14.75061895 -9.78051758 12.13928223 C-11.55022421 9.1855995 -12.04212314 7.88525142 -11.35131836 4.51757812 C-8.14399758 0.19162292 -5.07708391 -0.05971467 0 0 Z " fill="#4D5680" transform="translate(43.351318359375,31.482421875)"/>
<path d="M0 0 C0.41137207 0.52988525 0.82274414 1.05977051 1.24658203 1.60571289 C2.55949219 2.74459961 2.55949219 2.74459961 3.89892578 3.90649414 C4.65302734 4.57036133 5.40712891 5.23422852 6.18408203 5.91821289 C6.95623047 6.5949707 7.72837891 7.27172852 8.52392578 7.96899414 C9.09240234 8.50911133 9.66087891 9.04922852 10.24658203 9.60571289 C10.24658203 9.93571289 10.24658203 10.26571289 10.24658203 10.60571289 C3.05683186 10.7324144 -4.13263084 10.82002287 -11.32324219 10.88037109 C-13.76964069 10.90552645 -16.21596396 10.93965455 -18.66210938 10.98291016 C-22.17710928 11.0435136 -25.69111626 11.0719131 -29.20654297 11.09399414 C-30.30146057 11.11980057 -31.39637817 11.14560699 -32.5244751 11.17219543 C-40.08896888 11.17499411 -40.08896888 11.17499411 -43.47900391 8.27050781 C-45.11479594 4.85007293 -44.91962195 3.18207177 -43.75341797 -0.39428711 C-42.67626953 -2.02880859 -42.67626953 -2.02880859 -40.75341797 -3.39428711 C-38.1164793 -3.79843069 -35.70022241 -4.02518797 -33.05029297 -4.11694336 C-32.29427795 -4.1491246 -31.53826294 -4.18130585 -30.75933838 -4.21446228 C-29.15917734 -4.27655473 -27.55869034 -4.33068387 -25.95800781 -4.37744141 C-23.5238984 -4.45612507 -21.09543876 -4.58313453 -18.66357422 -4.71264648 C-4.62153777 -5.28098073 -4.62153777 -5.28098073 0 0 Z " fill="#7FA2FD" transform="translate(294.75341796875,469.394287109375)"/>
<path d="M0 0 C1.08520032 2.18726903 2.12120606 4.39919604 3.125 6.625 C3.66382813 7.81351562 4.20265625 9.00203125 4.7578125 10.2265625 C5.16773438 11.14179688 5.57765625 12.05703125 6 13 C-0.49609906 13.07597206 -6.99208385 13.12856672 -13.48852539 13.16479492 C-15.69918092 13.17989525 -17.90980643 13.20037709 -20.12036133 13.22631836 C-23.29515993 13.26264655 -26.46956297 13.27971384 -29.64453125 13.29296875 C-30.63524124 13.30845261 -31.62595123 13.32393646 -32.64668274 13.33988953 C-33.56741074 13.34011612 -34.48813873 13.34034271 -35.43676758 13.34057617 C-36.2472908 13.34723801 -37.05781403 13.35389984 -37.89289856 13.36076355 C-40.54959893 12.90590142 -41.41525487 12.1538957 -43 10 C-43.5 6.5625 -43.5 6.5625 -43 3 C-40.12481499 -0.11405727 -38.3808559 -0.94271788 -34.15942383 -1.57763672 C-32.67589989 -1.6320267 -31.19147868 -1.66494327 -29.70703125 -1.6796875 C-28.91979172 -1.7009671 -28.13255219 -1.7222467 -27.32145691 -1.74417114 C-25.66510717 -1.78491545 -24.00850378 -1.81630297 -22.35180664 -1.83886719 C-19.80967275 -1.87504023 -17.26984323 -1.94299461 -14.72851562 -2.015625 C-13.11722783 -2.05134712 -11.50589879 -2.08526448 -9.89453125 -2.1171875 C-8.75235893 -2.1466597 -8.75235893 -2.1466597 -7.58711243 -2.17672729 C-2.23192476 -2.23192476 -2.23192476 -2.23192476 0 0 Z " fill="#7EA0FA" transform="translate(267,430)"/>
<path d="M0 0 C1.23093636 0.00033989 1.23093636 0.00033989 2.48674011 0.00068665 C3.36808121 0.0161705 4.2494223 0.03165436 5.1574707 0.04760742 C6.5161602 0.05397469 6.5161602 0.05397469 7.90229797 0.06047058 C10.79625128 0.07726769 13.68950902 0.11492167 16.58325195 0.15307617 C18.54483044 0.16812168 20.50641984 0.18181032 22.46801758 0.1940918 C27.27753051 0.2271746 32.08652329 0.27896395 36.89575195 0.34057617 C35.90575195 4.96057617 34.91575195 9.58057617 33.89575195 14.34057617 C28.55729621 14.46425725 23.21967571 14.55495226 17.88012695 14.61523438 C16.06422396 14.64036518 14.248422 14.67447578 12.43286133 14.71777344 C9.82127973 14.77849128 7.21103601 14.80679898 4.59887695 14.82885742 C3.78831848 14.85466385 2.97776001 14.88047028 2.14263916 14.90705872 C-1.82865752 14.90903085 -3.67437337 14.73457304 -6.65209961 12.00537109 C-8.10424805 9.34057617 -8.10424805 9.34057617 -8.04174805 6.21557617 C-6.56822331 1.69676699 -4.79267516 -0.04424008 0 0 Z " fill="#7FA2FD" transform="translate(225.104248046875,340.659423828125)"/>
</svg>
