<?xml version="1.0" encoding="UTF-8"?>
<svg version="1.1" xmlns="http://www.w3.org/2000/svg" width="512" height="512">
<path d="M0 0 C1.2023507 -0.00311998 2.4047014 -0.00623996 3.64348698 -0.00945449 C6.94532131 -0.01600238 10.2470059 -0.01371259 13.54883623 -0.00748205 C17.12353805 -0.00292681 20.69822077 -0.00995644 24.2729187 -0.01544189 C31.2617414 -0.02430497 38.25052097 -0.0224277 45.23934531 -0.01661661 C50.92259813 -0.01208794 56.60583891 -0.01149242 62.28909302 -0.01366425 C63.09995867 -0.01397071 63.91082432 -0.01427718 64.74626166 -0.01459293 C66.39385248 -0.01523242 68.04144329 -0.01588085 69.6890341 -0.01653811 C85.11504108 -0.02223237 100.54102424 -0.01569774 115.96702731 -0.00493738 C129.18465448 0.00399731 142.40224651 0.00244501 155.61987305 -0.0067749 C170.99312512 -0.01749354 186.36635634 -0.02168313 201.73961163 -0.01555037 C203.38092231 -0.01491332 205.02223301 -0.01428458 206.6635437 -0.01366425 C207.47096372 -0.01335569 208.27838374 -0.01304714 209.11027104 -0.01272924 C214.78243231 -0.01100708 220.45458029 -0.01390705 226.1267395 -0.01862335 C233.04530277 -0.02424992 239.9638207 -0.02267854 246.88237882 -0.01206186 C250.4079381 -0.00682897 253.93342195 -0.00470745 257.45898056 -0.01136017 C261.29027384 -0.01684822 265.12135674 -0.00994179 268.95263672 0 C270.05343598 -0.00446144 271.15423525 -0.00892289 272.28839207 -0.01351953 C288.11149658 0.06578519 301.66427921 3.37640806 313.60913086 14.18365479 C324.57043903 25.56174273 326.97416319 38.16615351 326.75366211 53.25006104 C326.5317785 59.19234687 325.24722685 63.98924115 322.47631836 69.25396729 C322.06381836 70.09959229 321.65131836 70.94521729 321.22631836 71.81646729 C315.01899638 83.38465824 305.0427346 90.30003065 292.85131836 94.50396729 C285.02072988 96.24409806 277.42332247 96.39880218 269.43365479 96.38768005 C268.23472178 96.38994561 267.03578878 96.39221117 265.80052447 96.39454538 C262.48968588 96.39976403 259.17890178 96.4005331 255.86806297 96.399351 C252.29056793 96.39914628 248.71308088 96.40467252 245.1355896 96.40940857 C238.13286254 96.41770037 231.13014391 96.42046275 224.12741235 96.42102095 C218.43262458 96.42149682 212.73783957 96.4235551 207.04305267 96.42672157 C190.88187106 96.43552421 174.72069608 96.44014157 158.55951205 96.4393911 C157.68901126 96.43935114 156.81851046 96.43931119 155.92163086 96.43927002 C155.05006185 96.43922914 154.17849285 96.43918826 153.28051266 96.43914614 C139.15975627 96.4387398 125.03902656 96.44830725 110.91827789 96.46240839 C96.4040855 96.47678755 81.88990612 96.48367772 67.37570643 96.48281461 C59.23317891 96.48248317 51.09067936 96.48520708 42.94815826 96.49599266 C36.01486333 96.50511796 29.08160905 96.50725629 22.14831069 96.50048324 C18.61467504 96.49722823 15.0811173 96.49712429 11.54748917 96.50583649 C7.70726265 96.51520677 3.86714863 96.50889888 0.0269165 96.50120544 C-1.07661124 96.50634901 -2.18013898 96.51149257 -3.31710696 96.516792 C-18.85841094 96.44827236 -32.26866068 93.46136141 -43.96118164 82.69146729 C-53.7974576 72.07736391 -58.08054202 59.19393334 -57.83618164 44.91412354 C-56.71811836 31.81880735 -50.6729138 20.34321844 -41.19946289 11.36334229 C-28.84975416 1.62780547 -15.33120614 -0.06213604 0 0 Z " fill="#0DAA8B" transform="translate(185.523681640625,207.74603271484375)"/>
<path d="M0 0 C1.05740702 -0.00445784 2.11481403 -0.00891569 3.20426369 -0.01350862 C4.93755204 -0.01323207 4.93755204 -0.01323207 6.70585632 -0.01294994 C8.55448052 -0.01846498 8.55448052 -0.01846498 10.44045067 -0.02409142 C13.85874624 -0.03320214 17.27699387 -0.03782442 20.695297 -0.04048073 C24.383298 -0.04439083 28.07128519 -0.05396872 31.75927734 -0.0626936 C40.66500557 -0.0824389 49.57073489 -0.09252211 58.47647953 -0.10142139 C62.67376847 -0.10580777 66.87105616 -0.1111737 71.06834412 -0.11641026 C85.0272241 -0.13342119 98.98610331 -0.14791414 112.94499207 -0.155159 C116.56588238 -0.15706879 120.18677268 -0.15898914 123.80766296 -0.16094494 C124.7075817 -0.16142868 125.60750043 -0.16191242 126.53468943 -0.16241082 C141.10441247 -0.17070657 155.67405328 -0.19603641 170.24374044 -0.22852562 C185.21323742 -0.26163329 200.18269267 -0.27961114 215.15222645 -0.28280324 C223.55253003 -0.28496498 231.95271374 -0.29366434 240.35298157 -0.31926441 C247.50886275 -0.34102221 254.66459493 -0.34899698 261.82050544 -0.33929763 C265.46774714 -0.33476746 269.11468174 -0.33656353 272.76188087 -0.35605907 C276.7268114 -0.37706874 280.69132411 -0.36665864 284.65629578 -0.35352612 C285.79397557 -0.36449536 286.93165537 -0.37546461 288.10381031 -0.38676625 C302.07749211 -0.27556333 314.69699048 4.28111713 324.93901062 13.88422108 C335.79926829 25.4246161 338.56408425 37.79421147 338.10307312 53.20062733 C337.25606425 67.11767558 329.44212419 77.0456601 319.50151062 86.13422108 C308.94274417 93.64267722 298.88105686 95.43555478 286.19078064 95.40164661 C284.31887719 95.40844328 284.31887719 95.40844328 282.40915751 95.41537726 C278.96149121 95.42756255 275.51392226 95.4273521 272.06623936 95.42498851 C268.34149253 95.4245792 264.61677645 95.4356303 260.89204407 95.44510365 C253.60055168 95.46169009 246.30909164 95.46721213 239.01758197 95.4683284 C233.08823693 95.46928 227.15890253 95.47339588 221.22956085 95.47972965 C204.4043249 95.49733569 187.57911443 95.50656953 170.75386921 95.5050687 C169.84752447 95.50498879 168.94117973 95.50490888 168.00737 95.50482655 C166.64618542 95.5047039 166.64618542 95.5047039 165.25750217 95.50457878 C150.55472582 95.50376608 135.85205196 95.52290148 121.14930525 95.55110328 C106.03846092 95.57985825 90.92766653 95.59364213 75.81679416 95.59191573 C67.33888592 95.59125272 58.86108513 95.59670558 50.3832016 95.61827183 C43.16440854 95.63651805 35.94577164 95.6408028 28.72696546 95.62725298 C25.04742973 95.62074059 21.36819329 95.62054295 17.68868637 95.63795948 C13.69062489 95.65668837 9.69325086 95.6440908 5.69517517 95.6286974 C4.54495605 95.63898452 3.39473692 95.64927165 2.20966268 95.65987051 C-11.00367459 95.54784789 -23.18030314 90.97649784 -32.99848938 82.00922108 C-42.85300015 71.4092154 -46.98828637 58.58584636 -46.59614563 44.29828358 C-45.43789091 31.44641612 -39.8310737 19.84614883 -30.31098938 11.13422108 C-21.25369764 4.24425764 -11.4688584 0.02250459 0 0 Z " fill="#0DAA8B" transform="translate(174.3109893798828,352.86577892303467)"/>
<path d="M0 0 C1.87597165 -0.00935994 1.87597165 -0.00935994 3.78984171 -0.01890898 C7.22666271 -0.03546261 10.66303409 -0.0274206 14.09985578 -0.0149641 C17.81979421 -0.0058579 21.53965905 -0.01991081 25.25958252 -0.03088379 C32.53353111 -0.0486151 39.80731404 -0.04485303 47.08126896 -0.03323323 C52.9966935 -0.02417717 58.91207181 -0.02298427 64.8275013 -0.02732849 C66.09332319 -0.02824789 66.09332319 -0.02824789 67.38471724 -0.02918586 C69.09938634 -0.03046484 70.81405543 -0.0317617 72.5287245 -0.03307623 C88.5852406 -0.04446642 104.64166517 -0.03139323 120.69816626 -0.00987476 C134.45503773 0.00799155 148.21177415 0.00489294 161.96864319 -0.0135498 C177.96854818 -0.03498977 193.96837304 -0.04336451 209.96829039 -0.03110075 C211.67674195 -0.02982664 213.38519351 -0.02856916 215.0936451 -0.02732849 C215.93409373 -0.02671139 216.77454236 -0.02609429 217.64045913 -0.02545848 C223.54359946 -0.02201471 229.44668868 -0.02781296 235.34982109 -0.0372467 C242.55130462 -0.04850302 249.75261391 -0.04535085 256.95407765 -0.02412373 C260.62362684 -0.01366137 264.29288627 -0.00940828 267.96243286 -0.02272034 C271.95119677 -0.03697079 275.93923863 -0.01987656 279.92797852 0 C281.64484522 -0.01338433 281.64484522 -0.01338433 283.3963961 -0.02703905 C296.70939778 0.10102023 307.84605324 3.99454653 317.71498108 12.94543457 C318.47810608 13.79105957 319.24123108 14.63668457 320.02748108 15.50793457 C320.74871155 16.22336426 320.74871155 16.22336426 321.48451233 16.95324707 C330.96507036 26.88983194 332.49868133 39.35012432 332.30091858 52.40246582 C331.90247458 63.17426113 327.75332482 71.25871597 321.02748108 79.50793457 C320.52732483 80.14473145 320.02716858 80.78152832 319.51185608 81.43762207 C312.33094018 89.59775377 300.06646382 94.96000203 289.31935632 95.69251883 C286.09013651 95.76831641 282.86651723 95.77926338 279.63641357 95.76863098 C278.40002303 95.77245653 277.16363249 95.77628208 275.88977557 95.78022355 C272.47433609 95.78873281 269.05911283 95.78832907 265.64367974 95.78404295 C261.95372084 95.78157051 258.26378695 95.79059637 254.57383728 95.79808044 C247.35085603 95.81081545 240.12791197 95.8126226 232.90492138 95.81028018 C227.03182298 95.80849538 221.15873586 95.81025014 215.28563881 95.81450462 C214.44896422 95.81509981 213.61228964 95.815695 212.75026128 95.81630823 C211.0504056 95.81752001 209.35054991 95.81873415 207.65069423 95.8199506 C191.71684676 95.83082171 175.78302046 95.82866579 159.84917179 95.82256576 C145.28476753 95.81739802 130.72043017 95.82864902 116.15603914 95.84766398 C101.18871218 95.86705464 86.22141686 95.87529615 71.25407726 95.87154073 C62.85614718 95.86963041 54.45827404 95.87209959 46.06035423 95.88625526 C38.9103539 95.89818576 31.76044555 95.89955534 24.61044391 95.8874651 C20.96551118 95.88158785 17.32074653 95.88044476 13.67582512 95.8924675 C9.71696725 95.90537349 5.75836231 95.89483424 1.79949951 95.88215637 C0.65804039 95.88953066 -0.48341873 95.89690494 -1.65946752 95.90450269 C-15.77246883 95.80966638 -28.48026439 91.57045609 -38.86705017 81.80871582 C-48.55914519 71.21753963 -52.35448251 59.09849535 -52.17955017 44.97668457 C-51.43299897 32.46843057 -46.24600037 20.5614643 -36.90220642 12.02746582 C-25.7724905 3.26337778 -14.02666787 -0.10913624 0 0 Z " fill="#0DAA8B" transform="translate(179.97251892089844,63.4920654296875)"/>
<path d="M0 0 C1.45002739 0.00056557 2.90005534 0.00024471 4.3500824 -0.00088501 C8.24805928 -0.00145382 12.14591058 0.01022323 16.04385853 0.02426291 C20.13175109 0.03684972 24.2196472 0.03794698 28.30755615 0.04031372 C36.03140645 0.0465053 43.75519946 0.06288435 51.47902465 0.0830127 C61.92836957 0.10964691 72.3777304 0.12036313 82.82710075 0.13201714 C99.26596156 0.15076687 115.70470153 0.19062792 132.14355469 0.22705078 C132.14355469 31.90705078 132.14355469 63.58705078 132.14355469 96.22705078 C95.76334913 96.30765685 95.76334913 96.30765685 80.47558594 96.32470703 C69.93503871 96.33655739 59.39452355 96.35046101 48.85400391 96.37792969 C41.17615602 96.3979286 33.49833424 96.41078259 25.82046103 96.41522777 C21.7589798 96.41782418 17.69757322 96.42388229 13.63611603 96.43851089 C9.80466954 96.45219779 5.97332767 96.45625124 2.14185905 96.45326614 C0.74396888 96.45381138 -0.6539252 96.45772215 -2.05179405 96.46546173 C-18.92824113 96.55423071 -33.48225349 94.46530486 -46.29394531 82.66455078 C-56.13022127 72.0504474 -60.41330569 59.16701684 -60.16894531 44.88720703 C-59.05088203 31.79189085 -53.00567747 20.31630193 -43.53222656 11.33642578 C-30.43778429 1.01379976 -16.18057343 -0.08958698 0 0 Z " fill="#4BC55E" transform="translate(187.8564453125,207.77294921875)"/>
<path d="M0 0 C1.27741058 -0.00137466 2.55482117 -0.00274933 3.87094116 -0.00416565 C5.27900719 -0.00062696 6.68707299 0.00300784 8.09513855 0.00672913 C9.58354185 0.00701132 11.07194529 0.00685264 12.56034851 0.00628662 C16.59505994 0.00599989 20.6297416 0.01187664 24.66444612 0.01886058 C28.8831786 0.02511469 33.10191178 0.02569955 37.32064819 0.02688599 C45.30678888 0.02999323 53.29291587 0.03819845 61.27905053 0.04823548 C72.07258099 0.0615062 82.8661152 0.06690142 93.65965176 0.07273769 C110.66183926 0.08213873 127.66399784 0.10206171 144.66618347 0.12025452 C144.66618347 31.47025452 144.66618347 62.82025452 144.66618347 95.12025452 C106.78133131 95.28146665 106.78133131 95.28146665 90.86540222 95.31556702 C79.89022822 95.33927097 68.91517736 95.367087 57.94010925 95.42201233 C49.94583436 95.46200089 41.95165969 95.48771587 33.95728755 95.4966085 C29.72803887 95.50180299 25.49907678 95.51392899 21.26992035 95.54317474 C17.28080676 95.57053434 13.29209501 95.57865855 9.3028965 95.57268524 C7.84693778 95.57377638 6.39096416 95.58160728 4.9350872 95.59707642 C-9.86108171 95.7464412 -22.89793551 92.15460918 -34.02131653 81.99525452 C-43.8758273 71.39524884 -48.01111352 58.5718798 -47.61897278 44.28431702 C-46.46071806 31.43244956 -40.85390085 19.83218227 -31.33381653 11.12025452 C-21.83971745 3.8980078 -11.953608 -0.0099365 0 0 Z " fill="#4CC65D" transform="translate(175.3338165283203,352.87974548339844)"/>
<path d="M0 0 C1.50913971 0.00113099 3.01828161 0.00048972 4.52742004 -0.00177002 C8.58669491 -0.0029083 12.64548801 0.0204556 16.70465183 0.04852581 C20.96068888 0.07368885 25.2167394 0.07589313 29.47283936 0.08062744 C37.51551134 0.09301374 45.55796341 0.12577589 53.60053897 0.1660254 C64.48034959 0.21928128 75.3602212 0.24072374 86.24012947 0.26403427 C103.35784187 0.30154094 120.47509044 0.38126036 137.59277344 0.45410156 C137.59277344 31.80410156 137.59277344 63.15410156 137.59277344 95.45410156 C100.16916711 95.57501067 100.16916711 95.57501067 84.45410156 95.60058594 C73.61494678 95.61836792 62.77586211 95.63924145 51.93676758 95.68041992 C44.0417522 95.71039924 36.14679384 95.72969477 28.25172311 95.73636705 C24.0745397 95.7402649 19.89751936 95.74937267 15.72038841 95.77129173 C11.78139072 95.79179198 7.84262188 95.79790829 3.9035759 95.79342461 C2.46494487 95.7942438 1.02630545 95.80012839 -0.41227913 95.81171799 C-16.02400799 95.93122416 -29.67156995 92.68520096 -41.30175781 81.75488281 C-50.99385284 71.16370662 -54.78919015 59.04466234 -54.61425781 44.92285156 C-53.86770662 32.41459756 -48.68070802 20.50763129 -39.33691406 11.97363281 C-27.30757766 2.50113916 -15.06752237 -0.16009705 0 0 Z " fill="#4BC65D" transform="translate(182.4072265625,63.5458984375)"/>
<path d="M0 0 C10.73325242 10.07955729 16.7049464 21.87914986 17.30078125 36.6796875 C16.92705755 49.94687869 12.26989554 61.54057165 3.17578125 71.2421875 C-7.21008213 80.8862035 -18.98317077 84.8671875 -33.01171875 84.8671875 C-46.2920557 83.82431441 -57.92737924 78.42906844 -67.19921875 68.8046875 C-77.76490779 56.37943719 -79.18716752 42.44909008 -78.01171875 26.8671875 C-77.20256439 22.83066319 -75.923601 19.49976377 -74.01171875 15.8671875 C-73.59921875 15.0215625 -73.18671875 14.1759375 -72.76171875 13.3046875 C-66.55439677 1.73649654 -56.57813499 -5.17887587 -44.38671875 -9.3828125 C-28.54480697 -12.90323734 -12.67357065 -10.79686274 0 0 Z " fill="#4DC65C" transform="translate(78.01171875,219.1328125)"/>
<path d="M0 0 C9.83163542 9.04174334 14.93084959 20.55747615 16.28515625 33.78515625 C16.70767979 46.55271539 12.37526767 58.23191536 4.625 68.3125 C-5.47090801 78.64878677 -17.40473254 83.88307158 -31.75 84.375 C-44.93037235 84.1477522 -56.65389873 79.2474787 -66.25 70.25 C-77.11025767 58.70960498 -79.87507363 46.3400096 -79.4140625 30.93359375 C-78.56705363 17.01654549 -70.75311357 7.08856098 -60.8125 -2 C-42.04193022 -15.34796073 -18.02211369 -14.22650472 0 0 Z " fill="#4DC65C" transform="translate(79,75)"/>
<path d="M0 0 C9.55611142 8.78981947 15.42929175 21.0393935 16.53515625 33.90234375 C16.96177284 46.83068132 12.92581162 59.02642029 4.6875 69 C-4.47746878 78.69602305 -16.29496522 84.18052896 -29.64160156 84.78295898 C-43.16635044 84.97824474 -54.37607452 80.94379288 -64.375 71.875 C-65.138125 71.029375 -65.90125 70.18375 -66.6875 69.3125 C-67.16832031 68.82394531 -67.64914063 68.33539063 -68.14453125 67.83203125 C-77.82209208 57.51746641 -79.16586823 45.84033433 -78.9609375 32.3828125 C-78.56026384 21.6280966 -74.40168557 13.54741991 -67.6875 5.3125 C-67.18734375 4.67570312 -66.6871875 4.03890625 -66.171875 3.3828125 C-49.57024582 -15.4826752 -18.81858852 -14.83692725 0 0 Z " fill="#4DC65C" transform="translate(78.6875,363.6875)"/>
<path d="M0 0 C0 31.35 0 62.7 0 95 C0.99 95.33 1.98 95.66 3 96 C-13.17106427 95.47835277 -25.41815876 91.13163027 -36.8125 79.3125 C-46.90803437 67.07622581 -48.14222213 53.1414459 -47 38 C-46.19084564 33.96347569 -44.91188225 30.63257627 -43 27 C-42.5875 26.154375 -42.175 25.30875 -41.75 24.4375 C-35.54267802 12.86930904 -25.56641624 5.95393663 -13.375 1.75 C-8.96496843 0.76999298 -4.53335624 0 0 0 Z " fill="#9BE825" transform="translate(47,208)"/>
<path d="M0 0 C0 31.35 0 62.7 0 95 C-13.04372484 95 -23.04897652 91.30441665 -32.6875 82.5625 C-33.450625 81.716875 -34.21375 80.87125 -35 80 C-35.48082031 79.51144531 -35.96164063 79.02289063 -36.45703125 78.51953125 C-46.13459208 68.20496641 -47.47836823 56.52783433 -47.2734375 43.0703125 C-46.87276384 32.3155966 -42.71418557 24.23491991 -36 16 C-35.49984375 15.36320312 -34.9996875 14.72640625 -34.484375 14.0703125 C-26.00048204 4.42952505 -12.42186107 0 0 0 Z " fill="#9BE825" transform="translate(47,353)"/>
<path d="M0 0 C0 31.35 0 62.7 0 95 C-13.16574283 95 -24.64326344 90.25745054 -34.25 81.25 C-45.11025767 69.70960498 -47.87507363 57.3400096 -47.4140625 41.93359375 C-46.56705363 28.01654549 -38.75311357 18.08856098 -28.8125 9 C-19.6092726 2.45548274 -11.28771229 0 0 0 Z " fill="#9BE825" transform="translate(47,64)"/>
</svg>
