<?xml version="1.0" encoding="UTF-8"?>
<svg version="1.1" xmlns="http://www.w3.org/2000/svg" width="512" height="512">
<path d="M0 0 C5.35953166 6.21836128 7.49111074 12.83079211 7 21 C5.76143795 28.89104482 1.41147369 34.4886252 -4.7421875 39.38671875 C-10.8992703 43.1523166 -18.03749039 42.78175547 -25 42 C-31.65729474 40.29026138 -36.16121644 35.54224376 -40 30 C-40 29.34 -40 28.68 -40 28 C-63.79977685 32.03148607 -86.79474895 38.24738768 -108 50 C-108.92683594 50.46535156 -109.85367188 50.93070313 -110.80859375 51.41015625 C-154.78967752 73.82547829 -185.69927108 116.58535711 -200.87207031 162.64746094 C-202.53373754 168.04201347 -203.83847136 173.47853052 -205 179 C-205.16081055 179.70640625 -205.32162109 180.4128125 -205.48730469 181.140625 C-211.07918674 206.41362595 -210.0288635 235.96982189 -204 261 C-203.79101074 261.88848633 -203.58202148 262.77697266 -203.36669922 263.69238281 C-195.36948155 296.69962579 -178.39583728 326.61284979 -154.9765625 351.1171875 C-152.22801259 354.02058529 -151.04954554 355.67520143 -150.4375 359.6875 C-151.30779754 364.8125855 -151.30779754 364.8125855 -154 367 C-160.68495306 368.75343031 -160.68495306 368.75343031 -164.97265625 366.296875 C-194.71343051 343.73226175 -213.97265063 299.35162184 -222 264 C-222.19609863 263.16275391 -222.39219727 262.32550781 -222.59423828 261.46289062 C-234.41012424 208.71167448 -223.07051832 151.1669829 -194.51367188 105.62988281 C-188.06711576 95.82557028 -180.75003512 86.79215731 -173 78 C-172.27941406 77.15695313 -171.55882812 76.31390625 -170.81640625 75.4453125 C-166.539091 70.49263168 -162.00446386 66.2030676 -157 62 C-156.08863281 61.18917969 -155.17726563 60.37835938 -154.23828125 59.54296875 C-123.47357602 32.3507152 -82.20331297 13.42075206 -41 11 C-40.79528076 9.82739624 -40.79528076 9.82739624 -40.58642578 8.63110352 C-39.44882247 3.52704404 -35.27538878 -0.27994369 -31.19140625 -3.3671875 C-20.90835688 -9.64236685 -8.93437627 -7.5657713 0 0 Z " fill="#11AAFF" transform="translate(274,38)"/>
<path d="M0 0 C32.23659997 22.16266248 50.99744875 71.60883627 59 108 C59.17934082 108.79647949 59.35868164 109.59295898 59.54345703 110.41357422 C64.83238229 135.16700493 64.55455707 165.33137863 59 190 C58.70198486 191.35520752 58.70198486 191.35520752 58.39794922 192.73779297 C51.58256574 222.88374013 39.1014164 251.5708874 20 276 C19.57605957 276.54946289 19.15211914 277.09892578 18.71533203 277.66503906 C-13.32339927 318.73000626 -61.31621022 347.89579963 -113.12744141 355.30419922 C-116.41358403 355.68545517 -119.69300595 355.92325541 -123 356 C-123.10183594 356.74121094 -123.20367187 357.48242188 -123.30859375 358.24609375 C-124.74211168 363.95586855 -129.60840967 368.49978581 -134.5625 371.5 C-140.9456411 374.28718052 -148.77591171 374.08483809 -155.43359375 372.375 C-161.48555715 369.73242729 -166.2301547 364.51609266 -169.171875 358.671875 C-171.17844404 352.19785035 -171.2761327 343.82722423 -168.5 337.5625 C-164.98003218 331.73764221 -159.51037066 327.01783418 -153 325 C-145.17482293 324.19597942 -137.36693263 323.86674919 -131 329 C-128.42859441 331.4973728 -126.04362338 334.04951875 -124 337 C-124 337.66 -124 338.32 -124 339 C-100.20022315 334.96851393 -77.20525105 328.75261232 -56 317 C-55.07316406 316.53464844 -54.14632812 316.06929688 -53.19140625 315.58984375 C-29.34598018 303.43682571 -8.90577769 284.25707375 7 263 C7.62648438 262.16855469 8.25296875 261.33710938 8.8984375 260.48046875 C23.78333454 239.97005898 34.27864337 216.65977132 40 192 C40.20882812 191.12988281 40.41765625 190.25976562 40.6328125 189.36328125 C46.77333306 162.74140414 46.38776829 132.52025179 40 106 C39.79101074 105.11151367 39.58202148 104.22302734 39.36669922 103.30761719 C31.36948155 70.30037421 14.39583728 40.38715021 -9.0234375 15.8828125 C-11.77198741 12.97941471 -12.95045446 11.32479857 -13.5625 7.3125 C-12.98264997 3.89782762 -12.47318876 2.38158917 -10 0 C-6.14217025 -1.28594325 -3.95337324 -0.93808857 0 0 Z " fill="#436DFF" transform="translate(402,107)"/>
<path d="M0 0 C0.57363281 0.15855469 1.14726562 0.31710938 1.73828125 0.48046875 C3.61211939 0.99513446 5.48730728 1.50489351 7.36328125 2.01171875 C10.01059781 2.73112916 12.65225413 3.46427565 15.29296875 4.20703125 C29.77062328 8.21756767 44.04155017 10.50415502 59 12 C59 36.09 59 60.18 59 85 C33.92 85 8.84 85 -17 85 C-15.83799896 59.43597706 -15.83799896 59.43597706 -14.25 50.8125 C-14.0751709 49.82040527 -13.9003418 48.82831055 -13.72021484 47.80615234 C-10.84327063 32.05747179 -7.20271718 14.40543436 0 0 Z " fill="#2197FF" transform="translate(189,163)"/>
<path d="M0 0 C25.08 0 50.16 0 76 0 C74.83799896 25.56402294 74.83799896 25.56402294 73.25 34.1875 C73.0751709 35.17959473 72.9003418 36.17168945 72.72021484 37.19384766 C69.84327063 52.94252821 66.20271718 70.59456564 59 85 C58.42636719 84.84144531 57.85273438 84.68289063 57.26171875 84.51953125 C55.38788061 84.00486554 53.51269272 83.49510649 51.63671875 82.98828125 C48.98940219 82.26887084 46.34774587 81.53572435 43.70703125 80.79296875 C29.22937672 76.78243233 14.95844983 74.49584498 0 73 C0 48.91 0 24.82 0 0 Z " fill="#3380FF" transform="translate(264,264)"/>
<path d="M0 0 C25.08 0 50.16 0 76 0 C76 24.09 76 48.18 76 73 C64.12 74.485 64.12 74.485 52 76 C41.45924062 78.2838312 31.20909716 80.63533393 21.08203125 84.30078125 C19 85 19 85 17 85 C6.88004605 57.5265855 0 29.43092194 0 0 Z " fill="#2197FF" transform="translate(172,264)"/>
<path d="M0 0 C10.11995395 27.4734145 17 55.56907806 17 85 C-8.08 85 -33.16 85 -59 85 C-59 60.91 -59 36.82 -59 12 C-51.08 11.01 -43.16 10.02 -35 9 C-24.45924062 6.7161688 -14.20909716 4.36466607 -4.08203125 0.69921875 C-2 0 -2 0 0 0 Z " fill="#3380FF" transform="translate(323,163)"/>
<path d="M0 0 C8.23078108 3.94470614 16.1127908 8.41996353 24 13 C23.75878418 13.67651611 23.51756836 14.35303223 23.26904297 15.05004883 C12.83942946 44.57582346 7.84189446 72.73916093 5 104 C-12.49 104 -29.98 104 -48 104 C-46.83330534 85.33288551 -46.83330534 85.33288551 -44.875 77.6875 C-44.65690674 76.8114209 -44.43881348 75.9353418 -44.21411133 75.03271484 C-36.57206018 45.47920041 -21.61667768 21.3983274 0 0 Z " fill="#12A9FF" transform="translate(152,144)"/>
<path d="M0 0 C24.10760449 19.39089926 38.49583374 48.168127 45.875 77.6875 C46.07843018 78.4813208 46.28186035 79.2751416 46.49145508 80.09301758 C48.38074641 88.20624221 48.45997705 95.35963282 49 104 C31.51 104 14.02 104 -4 104 C-4.5878125 97.379375 -4.5878125 97.379375 -5.1875 90.625 C-7.78043679 63.86297068 -13.57749895 38.20496154 -23 13 C-22.48091064 12.71278076 -21.96182129 12.42556152 -21.42700195 12.12963867 C-19.05499613 10.8165026 -16.68374289 9.50201321 -14.3125 8.1875 C-13.49587891 7.73568359 -12.67925781 7.28386719 -11.83789062 6.81835938 C-7.85197264 4.60754657 -3.88682498 2.38275829 0 0 Z " fill="#426EFF" transform="translate(359,144)"/>
<path d="M0 0 C17.49 0 34.98 0 53 0 C53.5878125 6.620625 53.5878125 6.620625 54.1875 13.375 C56.78043679 40.13702932 62.57749895 65.79503846 72 91 C69.12619779 92.60631936 66.25074523 94.20966215 63.375 95.8125 C62.56675781 96.26431641 61.75851563 96.71613281 60.92578125 97.18164062 C56.66160565 99.55640509 52.38824402 101.86268374 48 104 C21.63547956 78.98879145 2.94608388 44.67834516 0 8 C0 5.36 0 2.72 0 0 Z " fill="#12A9FF" transform="translate(104,264)"/>
<path d="M0 0 C17.49 0 34.98 0 53 0 C51.83287523 18.67399627 51.83287523 18.67399627 49.875 26.3125 C49.65473145 27.19220459 49.43446289 28.07190918 49.20751953 28.97827148 C42.17523788 56.06153426 27.80076835 87.50551403 4 104 C1.10337586 102.39725825 -1.79215554 100.79255217 -4.6875 99.1875 C-5.50412109 98.73568359 -6.32074219 98.28386719 -7.16210938 97.81835938 C-7.95810547 97.37685547 -8.75410156 96.93535156 -9.57421875 96.48046875 C-10.30213623 96.07723389 -11.03005371 95.67399902 -11.7800293 95.25854492 C-14.21215611 93.87972454 -16.60792627 92.44701155 -19 91 C-18.75878418 90.32348389 -18.51756836 89.64696777 -18.26904297 88.94995117 C-7.83942946 59.42417654 -2.84189446 31.26083907 0 0 Z " fill="#426EFF" transform="translate(355,264)"/>
<path d="M0 0 C7.52487322 0 13.69628123 0.33363584 20.9375 1.625 C22.41682007 1.88361816 22.41682007 1.88361816 23.92602539 2.14746094 C33.56568093 3.93261098 42.75975763 6.76537606 52 10 C45.17542703 28.28593713 29.3281475 44.25187001 12.1171875 52.80859375 C8.2156432 54.29978549 4.07734308 55.09392376 0 56 C0 37.52 0 19.04 0 0 Z " fill="#3085FF" transform="translate(264,352)"/>
<path d="M0 0 C0 18.48 0 36.96 0 56 C-20.82897452 50.31937059 -34.53148475 38.88244739 -46.5 21.125 C-47.1506543 20.16098267 -47.1506543 20.16098267 -47.81445312 19.17749023 C-49.80394669 16.14095782 -51.25434638 13.54571817 -52 10 C-41.76960517 6.41876494 -31.62698578 3.49376069 -20.9375 1.625 C-19.99962646 1.45774414 -19.06175293 1.29048828 -18.09545898 1.11816406 C-11.83016187 0.08569728 -6.57207132 0 0 0 Z " fill="#2492FF" transform="translate(248,352)"/>
<path d="M0 0 C20.82897452 5.68062941 34.53148475 17.11755261 46.5 34.875 C46.93376953 35.51767822 47.36753906 36.16035645 47.81445312 36.82250977 C49.80394669 39.85904218 51.25434638 42.45428183 52 46 C41.58507048 49.68452695 31.28609146 52.56213232 20.375 54.375 C19.38113281 54.54225586 18.38726562 54.70951172 17.36328125 54.88183594 C11.36848105 55.81978415 6.22199979 56 0 56 C0 37.52 0 19.04 0 0 Z " fill="#3085FF" transform="translate(264,104)"/>
<path d="M0 0 C0 18.48 0 36.96 0 56 C-7.21475314 56 -13.36586744 55.55455246 -20.375 54.375 C-21.41269531 54.20258789 -22.45039063 54.03017578 -23.51953125 53.85253906 C-33.32437729 52.12138968 -42.62752727 49.31573328 -52 46 C-45.61142853 28.77863343 -31.22440258 13.34751705 -15 5 C-3.89776358 0 -3.89776358 0 0 0 Z " fill="#2493FF" transform="translate(248,104)"/>
<path d="M0 0 C4.50727647 0.60266785 7.8587963 2.36599794 11.8125 4.5625 C12.7087207 5.0565332 12.7087207 5.0565332 13.62304688 5.56054688 C15.08533998 6.36773267 16.5431399 7.18304917 18 8 C18 8.66 18 9.32 18 10 C16.03019178 11.48351181 14.08185554 12.81406859 12 14.125 C11.0711499 14.71680054 11.0711499 14.71680054 10.12353516 15.32055664 C3.01943354 19.75243264 -4.45775639 23.38492461 -12 27 C-12.72960937 27.42410156 -13.45921875 27.84820312 -14.2109375 28.28515625 C-16.4939608 29.19736862 -17.7258796 28.81218586 -20 28 C-19.29037109 27.26910156 -19.29037109 27.26910156 -18.56640625 26.5234375 C-11.08201601 18.49923743 -5.59577136 9.39101061 0 0 Z " fill="#3878FF" transform="translate(329,369)"/>
<path d="M0 0 C1.6742399 2.40860866 3.16004134 4.78064769 4.625 7.3125 C8.42619074 13.66358852 12.45411665 19.34029037 17.28515625 24.9609375 C19 27 19 27 20 29 C14.95104901 28.44594201 10.89990786 26.74288718 6.4375 24.4375 C5.74438721 24.0854248 5.05127441 23.73334961 4.3371582 23.37060547 C-3.40010865 19.37849089 -10.75738415 14.82841056 -18 10 C-18 9.34 -18 8.68 -18 8 C-15.5664433 6.6589995 -13.12864699 5.32705144 -10.6875 4 C-9.99720703 3.6184375 -9.30691406 3.236875 -8.59570312 2.84375 C-3.33984375 0 -3.33984375 0 0 0 Z " fill="#1B9FFF" transform="translate(183,369)"/>
<path d="M0 0 C-0.47308594 0.48726563 -0.94617188 0.97453125 -1.43359375 1.4765625 C-8.91798399 9.50076257 -14.40422864 18.60898939 -20 28 C-24.50727647 27.39733215 -27.8587963 25.63400206 -31.8125 23.4375 C-32.40998047 23.10814453 -33.00746094 22.77878906 -33.62304688 22.43945312 C-35.08533998 21.63226733 -36.5431399 20.81695083 -38 20 C-38 19.34 -38 18.68 -38 18 C-36.03019178 16.51648819 -34.08185554 15.18593141 -32 13.875 C-31.3807666 13.48046631 -30.7615332 13.08593262 -30.12353516 12.67944336 C-23.01943354 8.24756736 -15.54224361 4.61507539 -8 1 C-7.27039063 0.57589844 -6.54078125 0.15179688 -5.7890625 -0.28515625 C-3.5060392 -1.19736862 -2.2741204 -0.81218586 0 0 Z " fill="#1B9EFF" transform="translate(203,115)"/>
<path d="M0 0 C5.04895099 0.55405799 9.10009214 2.25711282 13.5625 4.5625 C14.25561279 4.9145752 14.94872559 5.26665039 15.6628418 5.62939453 C23.40010865 9.62150911 30.75738415 14.17158944 38 19 C38 19.66 38 20.32 38 21 C35.5664433 22.3410005 33.12864699 23.67294856 30.6875 25 C29.99720703 25.3815625 29.30691406 25.763125 28.59570312 26.15625 C23.33984375 29 23.33984375 29 20 29 C18.3257601 26.59139134 16.83995866 24.21935231 15.375 21.6875 C11.57380926 15.33641148 7.54588335 9.65970963 2.71484375 4.0390625 C1 2 1 2 0 0 Z " fill="#3878FF" transform="translate(309,114)"/>
</svg>
