<?xml version="1.0" encoding="UTF-8"?>
<svg version="1.1" xmlns="http://www.w3.org/2000/svg" width="512" height="512">
<path d="M0 0 C0.94488785 -0.00705963 1.8897757 -0.01411926 2.86329651 -0.02139282 C41.91562467 -0.247035 41.91562467 -0.247035 58.76953125 3.203125 C59.7661377 3.39648438 60.76274414 3.58984375 61.78955078 3.7890625 C110.19101182 13.35276024 154.38512896 35.77050265 189.76953125 70.203125 C190.77330811 71.16822998 190.77330811 71.16822998 191.79736328 72.15283203 C200.73444332 80.76720099 209.13659789 89.47627109 216.49560547 99.48486328 C217.79203791 101.23348182 219.12241843 102.95141303 220.4609375 104.66796875 C228.32520366 114.8826848 234.71064045 125.84037758 240.76953125 137.203125 C241.43299561 138.44376709 241.43299561 138.44376709 242.10986328 139.70947266 C253.62475138 161.60914048 261.30553389 185.90530086 265.76953125 210.203125 C265.9303418 211.00911133 266.09115234 211.81509766 266.25683594 212.64550781 C271.68202827 240.59923078 271.25050234 273.30296829 265.76953125 301.203125 C265.60855957 302.09870117 265.44758789 302.99427734 265.28173828 303.91699219 C260.75836232 328.91939879 252.09284318 352.51324937 240.76953125 375.203125 C240.20637207 376.3473291 240.20637207 376.3473291 239.63183594 377.51464844 C233.1638221 390.46859305 233.1638221 390.46859305 226.90234375 393.5625 C221.89675305 395.06601076 217.35687338 395.23631069 212.4609375 393.28125 C207.94926773 390.73153571 205.47455975 388.2179147 203.76953125 383.203125 C201.65612337 374.26178399 205.17622122 368.06826384 209.39453125 360.453125 C224.46083069 332.38481366 230.95500829 303.49752422 235.76953125 272.203125 C216.29953125 272.203125 196.82953125 272.203125 176.76953125 272.203125 C177.09953125 272.863125 177.42953125 273.523125 177.76953125 274.203125 C179.53451544 304.07414534 174.37899569 329.48985993 158.76953125 355.203125 C157.76886846 356.86939382 156.76874786 358.53598855 155.76953125 360.203125 C156.23060178 360.66235194 156.69167231 361.12157888 157.16671467 361.59472179 C168.38946719 372.7732899 179.606664 383.95739854 190.81772327 395.14769268 C196.23945702 400.55911746 201.6630483 405.9686556 207.09106445 411.3737793 C211.82256603 416.08533545 216.55053179 420.80040635 221.2742998 425.51971656 C223.77520467 428.01801601 226.27783471 430.51452999 228.78470802 433.00684166 C231.58435664 435.79035978 234.37610478 438.5817196 237.16723633 441.3737793 C238.41340729 442.60916443 238.41340729 442.60916443 239.68475342 443.86950684 C240.44615128 444.63365402 241.20754913 445.39780121 241.99201965 446.18510437 C242.98340801 447.17372735 242.98340801 447.17372735 243.99482441 448.1823225 C248.33954186 453.12951472 249.94873503 457.68458733 249.76953125 464.203125 C248.02772771 470.00913681 245.16312194 474.19366964 239.8828125 477.3203125 C237.56718247 478.28765517 235.89571738 478.50246086 233.39453125 478.515625 C232.66492188 478.53238281 231.9353125 478.54914063 231.18359375 478.56640625 C223.57553606 477.42150437 218.87535723 471.71638045 213.73486328 466.5090332 C212.8464122 465.6210202 211.95796112 464.7330072 211.04258728 463.81808472 C208.61809902 461.39186921 206.20044385 458.95920748 203.78562021 456.52339578 C201.25658832 453.97556216 198.71901189 451.43626746 196.18234253 448.89604187 C191.38471764 444.08910678 186.59478905 439.27457828 181.80760086 434.45725173 C176.35523012 428.97130507 170.89429997 423.4939128 165.43264604 418.0172106 C154.20207912 406.75531788 142.98227084 395.48276907 131.76953125 384.203125 C131.5198056 384.93673752 131.27007996 385.67035004 131.01278687 386.42619324 C129.86011277 389.80501591 128.70157899 393.18180222 127.54296875 396.55859375 C127.15036865 397.7122644 126.75776855 398.86593506 126.35327148 400.05456543 C118.76787631 422.11301932 108.46638092 444.247313 94.76953125 463.203125 C111.59553354 456.57469986 127.11143695 448.16067863 142.04296875 437.96875 C146.82983114 434.86894799 151.21315028 434.54671394 156.76953125 435.203125 C162.09210705 437.0188185 165.08007504 440.3414157 167.76953125 445.203125 C169.38879642 450.06092051 169.38504772 454.38609896 167.45703125 459.140625 C164.34029811 464.76805983 159.07434439 467.82266971 153.76953125 471.203125 C153.21861816 471.55487793 152.66770508 471.90663086 152.10009766 472.26904297 C147.72573169 475.03644822 143.27074635 477.64809759 138.76953125 480.203125 C137.7021875 480.81075684 137.7021875 480.81075684 136.61328125 481.43066406 C113.48251317 494.4519019 88.31370906 503.1974083 62.33203125 508.515625 C61.61313721 508.66298096 60.89424316 508.81033691 60.15356445 508.9621582 C44.50727446 511.93601602 29.0338504 512.57612308 13.14453125 512.515625 C11.61717346 512.51239227 11.61717346 512.51239227 10.05895996 512.50909424 C-4.56525715 512.45939109 -18.85851513 512.14520488 -33.23046875 509.203125 C-34.72537842 508.91308594 -34.72537842 508.91308594 -36.25048828 508.6171875 C-77.3392893 500.49840627 -114.43346369 483.12897385 -147.23046875 457.203125 C-148.26816406 456.39101563 -149.30585938 455.57890625 -150.375 454.7421875 C-165.94170369 442.07300889 -180.508334 427.51513536 -192.23046875 411.203125 C-193.09422145 410.03324044 -193.95882344 408.8639825 -194.82421875 407.6953125 C-209.96754617 387.0693007 -222.04968525 364.46015373 -230.23046875 340.203125 C-230.64353271 338.98061035 -230.64353271 338.98061035 -231.06494141 337.73339844 C-234.30302381 327.96254823 -236.83532348 318.08093763 -238.98046875 308.015625 C-239.17922607 307.09096436 -239.3779834 306.16630371 -239.58276367 305.21362305 C-242.87545902 289.00701323 -243.60577153 273.0727548 -243.54296875 256.578125 C-243.5408136 255.55988647 -243.53865845 254.54164795 -243.53643799 253.49255371 C-243.48673484 238.8683366 -243.17254863 224.57507862 -240.23046875 210.203125 C-239.94042969 208.70821533 -239.94042969 208.70821533 -239.64453125 207.18310547 C-232.01587656 168.57481372 -216.30304558 132.42145621 -192.23046875 101.203125 C-191.26560547 99.95015625 -191.26560547 99.95015625 -190.28125 98.671875 C-176.19691174 80.74132256 -159.85363505 63.45372011 -141.23046875 50.203125 C-140.61284668 49.75710937 -139.99522461 49.31109375 -139.35888672 48.8515625 C-99.20602152 19.97940435 -49.95191371 0.24935871 0 0 Z M-30.6953125 54.53125 C-34.10798382 57.98698488 -37.13606782 61.62857038 -40.04296875 65.515625 C-40.55359863 66.19786133 -41.06422852 66.88009766 -41.59033203 67.58300781 C-47.26369498 75.35285704 -51.80281148 83.68048962 -56.23046875 92.203125 C-56.73030273 93.14937744 -56.73030273 93.14937744 -57.24023438 94.11474609 C-60.8682118 100.3433345 -60.8682118 100.3433345 -62.23046875 107.203125 C-42.76046875 107.203125 -23.29046875 107.203125 -3.23046875 107.203125 C-3.23046875 83.773125 -3.23046875 60.343125 -3.23046875 36.203125 C-13.0708048 36.203125 -24.11892228 48.11501814 -30.6953125 54.53125 Z M28.76953125 36.203125 C28.76953125 59.633125 28.76953125 83.063125 28.76953125 107.203125 C48.23953125 107.203125 67.70953125 107.203125 87.76953125 107.203125 C82.8645925 82.67843123 61.05465399 55.40566363 40.76953125 41.203125 C35.11253133 37.63780312 35.11253133 37.63780312 28.76953125 36.203125 Z M-70.23046875 48.203125 C-72.77239819 49.10351958 -72.77239819 49.10351958 -75.6640625 50.52734375 C-76.77869873 51.05521484 -77.89333496 51.58308594 -79.04174805 52.12695312 C-80.25117223 52.71343543 -81.45989815 53.30135954 -82.66796875 53.890625 C-83.27694 54.18590088 -83.88591125 54.48117676 -84.51333618 54.78540039 C-102.00876168 63.30267184 -117.5123962 73.48007442 -132.23046875 86.203125 C-133.16375 87.00621094 -134.09703125 87.80929688 -135.05859375 88.63671875 C-141.368094 94.20217416 -147.46954793 100.06982527 -153.23046875 106.203125 C-153.23046875 106.533125 -153.23046875 106.863125 -153.23046875 107.203125 C-135.08046875 107.203125 -116.93046875 107.203125 -98.23046875 107.203125 C-96.64234375 103.325625 -95.05421875 99.448125 -93.41796875 95.453125 C-86.58073662 79.10340088 -78.49160592 63.66868227 -68.23046875 49.203125 C-69.22046875 48.708125 -69.22046875 48.708125 -70.23046875 48.203125 Z M93.76953125 48.203125 C94.15882813 48.78835937 94.548125 49.37359375 94.94921875 49.9765625 C106.72379068 68.04537564 115.76597086 87.19422402 123.76953125 107.203125 C141.91953125 107.203125 160.06953125 107.203125 178.76953125 107.203125 C168.97657815 95.77801306 158.78661257 86.16439621 146.76953125 77.203125 C146.21040039 76.77789551 145.65126953 76.35266602 145.07519531 75.91455078 C121.13207162 57.41794396 121.13207162 57.41794396 93.76953125 48.203125 Z M-178.23046875 140.203125 C-195.44343116 170.32580921 -210.23046875 204.77885495 -210.23046875 240.203125 C-181.52046875 240.203125 -152.81046875 240.203125 -123.23046875 240.203125 C-121.92052376 237.58323502 -121.9843011 235.4666319 -121.8359375 232.53515625 C-121.76987305 231.34792969 -121.70380859 230.16070312 -121.63574219 228.9375 C-121.56387695 227.64328125 -121.49201172 226.3490625 -121.41796875 225.015625 C-119.88246462 199.73109241 -116.16824777 174.9979561 -110.83129883 150.25976562 C-110.17660155 146.929083 -109.71051198 143.56342763 -109.23046875 140.203125 C-132.00046875 140.203125 -154.77046875 140.203125 -178.23046875 140.203125 Z M-74.23046875 140.203125 C-76.74325233 146.90388122 -78.58426793 153.15489674 -80.16796875 160.078125 C-80.42739258 161.21145264 -80.68681641 162.34478027 -80.95410156 163.51245117 C-86.6061081 188.88869984 -88.86606079 214.27937368 -90.23046875 240.203125 C-75.71046875 240.203125 -61.19046875 240.203125 -46.23046875 240.203125 C-44.25046875 236.243125 -42.27046875 232.283125 -40.23046875 228.203125 C-38.66823274 225.73434505 -37.14809334 223.40925896 -35.41796875 221.078125 C-34.99056396 220.49393799 -34.56315918 219.90975098 -34.12280273 219.30786133 C-27.24400701 210.04340016 -18.94836891 199.60445745 -8.45240784 194.30545044 C-6.30822644 193.1251078 -4.83684653 192.06132451 -3.23046875 190.203125 C-2.24602746 186.39320333 -2.41392964 182.69018452 -2.546875 178.77734375 C-2.55392456 177.79946899 -2.56097412 176.82159424 -2.5682373 175.81408691 C-2.60477463 172.17234573 -2.70250626 168.53142579 -2.79296875 164.890625 C-3.00953125 152.6703125 -3.00953125 152.6703125 -3.23046875 140.203125 C-26.66046875 140.203125 -50.09046875 140.203125 -74.23046875 140.203125 Z M28.76953125 140.203125 C28.76953125 151.753125 28.76953125 163.303125 28.76953125 175.203125 C34.50965786 174.49070008 34.50965786 174.49070008 40.234375 173.66796875 C64.46384149 169.98857845 86.87786359 173.68759089 109.76953125 182.203125 C107.70896776 159.94581706 107.70896776 159.94581706 99.76953125 140.203125 C97.56085294 140.10879515 95.34911604 140.08570069 93.13842773 140.08959961 C92.4457782 140.08945358 91.75312866 140.08930756 91.03948975 140.0891571 C88.73983679 140.08985626 86.44026388 140.09764872 84.140625 140.10546875 C82.55021713 140.10733292 80.95980868 140.10875683 79.36940002 140.10975647 C75.17557195 140.11358171 70.9817783 140.12341205 66.78796387 140.13446045 C61.7602942 140.14646903 56.73261306 140.15107678 51.70493317 140.15691376 C44.05977523 140.16662381 36.41469287 140.18578029 28.76953125 140.203125 Z M134.76953125 140.203125 C135.81388926 146.59266994 136.87284284 152.96880646 138.171875 159.3125 C138.42018066 160.54991943 138.66848633 161.78733887 138.92431641 163.06225586 C139.32154716 165.03688673 139.71888762 167.01149785 140.11981201 168.98538208 C141.74290752 177.02159437 143.01496058 184.94357894 143.64892578 193.12963867 C144.62612732 205.10958555 147.7143908 212.043422 156.00292969 220.69116211 C157.66828561 223.05916198 158.32495646 224.70662703 159.18457031 227.42016602 C161.07309108 232.6639824 163.03685793 237.00624203 167.76953125 240.203125 C178.09914904 242.99452958 189.39591518 241.87789725 199.97839355 241.37042236 C204.01273985 241.19543695 208.04887823 241.11865616 212.0859375 241.03320312 C219.98543533 240.85170357 227.87612241 240.56226471 235.76953125 240.203125 C235.62583654 237.99514556 235.47806208 235.78743142 235.32861328 233.57983398 C235.24676788 232.35038559 235.16492249 231.12093719 235.08059692 229.85423279 C234.63084467 224.57530267 233.71375383 219.44985006 232.64453125 214.265625 C232.42643799 213.20077881 232.20834473 212.13593262 231.98364258 211.03881836 C227.48388833 189.86948442 219.73960719 156.17320094 203.76953125 140.203125 C201.62209576 140.10886905 199.47152099 140.08569852 197.32202148 140.08959961 C196.64887909 140.08945358 195.97573669 140.08930756 195.28219604 140.0891571 C193.04747341 140.08985622 190.81283315 140.09764848 188.578125 140.10546875 C187.03255763 140.10733294 185.48698968 140.10875684 183.94142151 140.10975647 C179.86596048 140.1135816 175.79053488 140.12341183 171.71508789 140.13446045 C167.55941243 140.14467468 163.40373126 140.14925411 159.24804688 140.15429688 C151.08852538 140.16503411 142.92903272 140.18211046 134.76953125 140.203125 Z M-3.484375 232.57421875 C-19.8609608 252.09151963 -25.94397197 275.09716297 -24.23046875 300.203125 C-22.43015296 316.11882 -15.03465757 330.70448244 -5.23046875 343.203125 C-4.47056641 344.20859375 -4.47056641 344.20859375 -3.6953125 345.234375 C10.04342783 362.24745885 31.45890924 371.65821813 52.76953125 374.203125 C76.82779205 375.63943908 98.76218814 368.2886618 117.1796875 352.56640625 C131.89441118 339.13894347 143.6206215 319.83453175 144.9465332 299.48681641 C145.37067902 279.99636382 145.37067902 279.99636382 140.76953125 261.203125 C140.40730469 260.16542969 140.04507813 259.12773437 139.671875 258.05859375 C131.46472883 236.38616369 114.53003542 220.68645506 93.9140625 210.96484375 C59.85893922 195.835476 21.63319896 206.15070507 -3.484375 232.57421875 Z M-210.23046875 272.203125 C-209.58516263 281.23741066 -208.86403816 289.56064265 -207.04296875 298.328125 C-206.82229736 299.40143066 -206.60162598 300.47473633 -206.37426758 301.58056641 C-201.85599857 322.89112983 -194.12099102 356.31260273 -178.23046875 372.203125 C-176.08303326 372.29738095 -173.93245849 372.32055148 -171.78295898 372.31665039 C-171.10981659 372.31679642 -170.43667419 372.31694244 -169.74313354 372.3170929 C-167.50841091 372.31639378 -165.27377065 372.30860152 -163.0390625 372.30078125 C-161.49349513 372.29891706 -159.94792718 372.29749316 -158.40235901 372.29649353 C-154.32689798 372.2926684 -150.25147238 372.28283817 -146.17602539 372.27178955 C-142.02034993 372.26157532 -137.86466876 372.25699589 -133.70898438 372.25195312 C-125.54946288 372.24121589 -117.38997022 372.22413954 -109.23046875 372.203125 C-110.29942748 366.2552463 -111.38728476 360.31557441 -112.59765625 354.39453125 C-117.66915948 328.9633452 -121.23934741 303.23828386 -122.0546875 277.2890625 C-122.02127783 274.29182026 -122.02127783 274.29182026 -123.23046875 272.203125 C-151.94046875 272.203125 -180.65046875 272.203125 -210.23046875 272.203125 Z M-90.23046875 272.203125 C-90.26838153 325.24082722 -90.26838153 325.24082722 -74.23046875 372.203125 C-72.66499827 372.29639216 -71.09534103 372.32058082 -69.52709961 372.31665039 C-68.02565651 372.31653709 -68.02565651 372.31653709 -66.49388123 372.31642151 C-65.40535355 372.31126022 -64.31682587 372.30609894 -63.1953125 372.30078125 C-62.0869252 372.2993663 -60.9785379 372.29795135 -59.83656311 372.29649353 C-56.28033806 372.29087533 -52.72417492 372.27831975 -49.16796875 372.265625 C-46.76367278 372.26061234 -44.35937583 372.25604903 -41.95507812 372.25195312 C-36.04685371 372.24089999 -30.13866565 372.22414417 -24.23046875 372.203125 C-26.65860608 368.52000948 -29.11995804 365.06008798 -31.98046875 361.703125 C-53.47811393 335.08127389 -56.67339225 305.12710544 -56.23046875 272.203125 C-67.45046875 272.203125 -78.67046875 272.203125 -90.23046875 272.203125 Z M28.76953125 403.203125 C28.76953125 427.293125 28.76953125 451.383125 28.76953125 476.203125 C53.29754107 468.02712173 69.8141127 443.58338884 81.12548828 421.56347656 C86.08839695 413.15020808 86.08839695 413.15020808 88.76953125 404.203125 C87.10270594 404.3471338 85.4360794 404.49344344 83.76953125 404.640625 C82.37734375 404.76244141 82.37734375 404.76244141 80.95703125 404.88671875 C78.60445855 405.12024619 76.25702123 405.40693841 73.9140625 405.72265625 C61.34224929 407.30940442 49.08951349 406.09639918 36.68359375 403.859375 C32.77349138 403.09288728 32.77349138 403.09288728 28.76953125 403.203125 Z M-153.23046875 405.203125 C-143.43751565 416.62823694 -133.24755007 426.24185379 -121.23046875 435.203125 C-120.67133789 435.62835449 -120.11220703 436.05358398 -119.53613281 436.49169922 C-106.85660944 446.1179223 -93.04221073 453.48587302 -78.73046875 460.390625 C-77.91102783 460.78967041 -77.09158691 461.18871582 -76.24731445 461.59985352 C-75.48894287 461.95748779 -74.73057129 462.31512207 -73.94921875 462.68359375 C-73.27826172 463.00223389 -72.60730469 463.32087402 -71.91601562 463.64916992 C-70.14090945 464.45172697 -70.14090945 464.45172697 -68.23046875 463.203125 C-68.76414062 462.40132813 -69.2978125 461.59953125 -69.84765625 460.7734375 C-81.53396281 443.03405992 -90.1537555 424.87717009 -98.23046875 405.203125 C-116.38046875 405.203125 -134.53046875 405.203125 -153.23046875 405.203125 Z M-62.23046875 405.203125 C-61.41091387 409.30089938 -60.67210274 411.67807862 -58.82421875 415.265625 C-58.33219971 416.22114258 -57.84018066 417.17666016 -57.33325195 418.16113281 C-56.53987427 419.66691895 -56.53987427 419.66691895 -55.73046875 421.203125 C-55.18801514 422.2353418 -54.64556152 423.26755859 -54.08666992 424.33105469 C-47.7074361 436.29059074 -40.12137784 446.95709593 -31.23046875 457.203125 C-30.68132812 457.83734375 -30.1321875 458.4715625 -29.56640625 459.125 C-22.93008076 466.25169437 -14.06258354 472.19889505 -5.23046875 476.203125 C-4.57046875 476.203125 -3.91046875 476.203125 -3.23046875 476.203125 C-3.23046875 452.773125 -3.23046875 429.343125 -3.23046875 405.203125 C-22.70046875 405.203125 -42.17046875 405.203125 -62.23046875 405.203125 Z " fill="#F0781E" transform="translate(243.23046875,-0.203125)"/>
</svg>
