<?xml version="1.0" encoding="UTF-8"?>
<svg version="1.1" xmlns="http://www.w3.org/2000/svg" width="1200" height="1200">
<path d="M0 0 C2.44607432 0.37301983 3.68826022 0.65191288 5.36523438 2.52441406 C5.77064453 3.18151367 6.17605469 3.83861328 6.59375 4.515625 C7.06071289 5.26158936 7.52767578 6.00755371 8.00878906 6.77612305 C8.50088867 7.59250244 8.99298828 8.40888184 9.5 9.25 C10.28068848 10.51807495 10.28068848 10.51807495 11.07714844 11.81176758 C19.61366586 25.78166297 27.7894171 39.94879607 34.88818359 54.70703125 C36.16260705 57.33535472 37.46639809 59.94829581 38.76953125 62.5625 C70.12638545 125.97540908 86.85570835 195.75983601 93 266 C93.07202637 266.77666016 93.14405273 267.55332031 93.21826172 268.35351562 C98.64916858 328.45363078 88.82555051 391.75000298 62 446 C61.31499598 447.41140583 60.63009873 448.82286349 59.9453125 450.234375 C58.32078617 453.55347748 56.65540772 456.84938677 54.96191406 460.13378906 C54.33239891 461.35511237 53.70659416 462.57835708 53.08496094 463.80371094 C39.4975945 490.55338057 22.11550439 515.12274349 1.69921875 537.078125 C-0.80487591 539.78878029 -3.24926845 542.5427361 -5.6875 545.3125 C-8.88494856 548.87213743 -12.19284413 552.08099327 -15.84765625 555.1640625 C-18.3965206 557.33822991 -20.84947313 559.60412416 -23.3125 561.875 C-28.19483748 566.3232035 -33.2267474 570.52722696 -38.3671875 574.671875 C-40.21430784 576.17431738 -42.04527845 577.69516863 -43.875 579.21875 C-53.01688155 586.82328373 -62.30286762 594.18472265 -71.80322266 601.3359375 C-73.99987867 602.99990809 -76.17869503 604.68512982 -78.35546875 606.375 C-106.23564794 627.85689005 -136.32702962 647.0943824 -167.38916016 663.60644531 C-169.84514308 664.917344 -172.28900335 666.24824683 -174.73046875 667.5859375 C-225.25428881 695.05248421 -304.8749175 727.94080614 -364 716 C-366.79322461 715.15916146 -369.32520818 714.1769084 -372 713 C-368.74327844 709.56563908 -365.58739646 707.32094045 -361 706 C-357.81711915 705.96714446 -354.79248642 706.23655744 -351.63671875 706.640625 C-300.97148883 711.64728574 -239.83805788 687.77636232 -195 667 C-193.96246582 666.52304687 -192.92493164 666.04609375 -191.85595703 665.5546875 C-162.14426417 651.838072 -133.54841461 635.28336498 -106.86425781 616.31982422 C-104.91603944 614.94055909 -102.95547681 613.58037025 -100.9921875 612.22265625 C-84.13658609 600.51875507 -67.92797867 587.93080462 -52 575 C-51.05253906 574.23558594 -50.10507812 573.47117187 -49.12890625 572.68359375 C-42.1749656 567.04171737 -35.35584985 561.24667852 -28.59130859 555.37988281 C-27.2370304 554.20553787 -25.87870501 553.03586289 -24.51953125 551.8671875 C-12.11072755 540.97477805 0.03499734 529.18601362 10 516 C11.14819217 514.51803906 12.29665568 513.03628833 13.4453125 511.5546875 C25.74520658 495.55631207 36.3093532 478.80761579 45.88134766 461.05664062 C46.90418872 459.17614889 47.95178587 457.31287806 49.01171875 455.453125 C65.27230302 426.29621527 75.81363367 393.69782657 82 361 C82.16580566 360.12843262 82.33161133 359.25686523 82.50244141 358.35888672 C83.50798165 352.92508118 84.31562609 347.48298899 85 342 C85.10296387 341.20996582 85.20592773 340.41993164 85.31201172 339.60595703 C89.25232883 308.02739665 87.67382884 275.52622314 84 244 C83.9175 243.28817566 83.835 242.57635132 83.75 241.84295654 C74.40280424 162.18732265 48.75549026 79.31698265 2.16088867 10.31054688 C-1.04481127 5.62901751 -1.04481127 5.62901751 -0.7890625 2.0390625 C-0.39847656 1.02972656 -0.39847656 1.02972656 0 0 Z " fill="#BC6209" transform="translate(976,237)"/>
<path d="M0 0 C1.32 0.33 2.64 0.66 4 1 C3.43910619 4.53067081 2.58237978 7.0929198 0.69921875 10.125 C0.22282959 10.90278809 -0.25355957 11.68057617 -0.74438477 12.48193359 C-1.26186279 13.31289551 -1.77934082 14.14385742 -2.3125 15 C-3.41312619 16.80367081 -4.51203334 18.60839152 -5.609375 20.4140625 C-6.17333984 21.33993164 -6.73730469 22.26580078 -7.31835938 23.21972656 C-49.66093262 93.22513076 -72.97152429 172.04719676 -82 253 C-82.12004395 254.07330566 -82.24008789 255.14661133 -82.36376953 256.25244141 C-92.40765121 350.65894176 -65.52610044 442.86848721 -6 517 C-5.54012695 517.5770166 -5.08025391 518.1540332 -4.60644531 518.74853516 C1.95610267 526.9101399 9.18811062 534.38358168 16.5625 541.8125 C17.85607422 543.12009277 17.85607422 543.12009277 19.17578125 544.45410156 C24.36635463 549.6191153 29.74545026 554.37235839 35.45776367 558.95239258 C38.85057865 561.68508625 42.10979531 564.55503329 45.375 567.4375 C51.46647757 572.76009774 57.73472676 577.7516874 64.19238281 582.62207031 C66.95212082 584.7257928 69.67458602 586.87644526 72.40283203 589.02075195 C103.02760221 613.03819033 135.70778665 634.5815923 170 653 C171.28994873 653.69923584 171.28994873 653.69923584 172.60595703 654.41259766 C215.31540083 677.49775561 259.84077979 691.52083943 307 702 C308.2552951 702.27908707 308.2552951 702.27908707 309.53594971 702.56381226 C311.69058895 703.04274072 313.84527275 703.52146768 316 704 C314.94124926 707.40312738 313.99097846 710.01353231 312 713 C303.57077379 712.3256619 295.45870842 710.44632551 287.25 708.5 C286.1323526 708.23589828 286.1323526 708.23589828 284.99212646 707.96646118 C239.40478571 697.1268046 196.72229609 678.9829186 156 656 C155.16484863 655.52981445 154.32969727 655.05962891 153.46923828 654.57519531 C141.68278547 647.87266645 130.40547989 640.38557491 119.125 632.875 C118.42857391 632.41150146 117.73214783 631.94800293 117.01461792 631.47045898 C103.93856564 622.75141812 91.11062525 613.73814009 78.625 604.1875 C77.29118286 603.16946289 77.29118286 603.16946289 75.93041992 602.13085938 C68.3827827 596.34445027 60.98803793 590.38575119 53.64404297 584.34423828 C51.40809459 582.51603339 49.1420617 580.72689878 46.875 578.9375 C36.93360455 571.00446726 27.39923925 562.56342547 18 554 C16.98867139 553.09331465 15.97693245 552.18708683 14.96484375 551.28125 C9.92088237 546.74489149 5.03657274 542.19468482 0.67578125 536.98046875 C-0.47739989 535.61761832 -1.67057686 534.28794416 -2.89453125 532.98828125 C-20.9864718 513.75510512 -34.91468389 490.78733971 -48 468 C-48.38397949 467.33564941 -48.76795898 466.67129883 -49.16357422 465.98681641 C-77.75033721 416.10708873 -91.27607716 358.01858277 -91.1875 300.8125 C-91.18689575 300.07944641 -91.1862915 299.34639282 -91.18566895 298.59112549 C-91.01089107 219.51266155 -71.44788046 140.81234132 -39 69 C-38.6174707 68.14245117 -38.23494141 67.28490234 -37.84082031 66.40136719 C-27.56280679 43.39632066 -15.10636597 20.21274319 0 0 Z " fill="#B15C14" transform="translate(222,237)"/>
<path d="M0 0 C-0.33 0.99 -0.66 1.98 -1 3 C-3.73053062 4.29324795 -6.35122237 5.36568258 -9.1875 6.375 C-10.02450439 6.67809082 -10.86150879 6.98118164 -11.72387695 7.29345703 C-39.74014452 17.07167363 -72.20514445 20.38759481 -101 12 C-101.73847168 11.78569336 -102.47694336 11.57138672 -103.23779297 11.35058594 C-124.90301328 4.82394426 -148.40478576 -8.49146138 -162 -27 C-160.54032806 -26.56262188 -159.08070274 -26.12508817 -157.62109375 -25.6875 C-156.70440918 -25.41292969 -155.78772461 -25.13835938 -154.84326172 -24.85546875 C-153.06502477 -24.32044022 -151.28782328 -23.78194393 -149.51220703 -23.23828125 C-133.31370296 -18.28537161 -117.08190855 -14.0794181 -100 -15 C-119.97813674 -23.45476463 -139.43542928 -29.35944032 -161 -32 C-160.67 -32.66 -160.34 -33.32 -160 -34 C-157.08368547 -34.93610096 -154.2155098 -35.75319973 -151.25 -36.5 C-149.94011108 -36.83100708 -149.94011108 -36.83100708 -148.60375977 -37.16870117 C-146.07278852 -37.79554904 -143.53804928 -38.40253276 -141 -39 C-139.93136719 -39.25394531 -138.86273437 -39.50789062 -137.76171875 -39.76953125 C-89.28476979 -49.0894426 -39.02746577 -26.74246546 0 0 Z " fill="#D1851F" transform="translate(931,956)"/>
<path d="M0 0 C0.33 0.66 0.66 1.32 1 2 C-0.20011719 2.14695312 -1.40023437 2.29390625 -2.63671875 2.4453125 C-20.9547263 4.84721735 -38.03087077 9.74001172 -55 17 C-56.66480839 17.67129371 -58.33076849 18.33978157 -60 19 C-42.01227186 19.96939852 -25.02941277 15.21410872 -8 10 C-6.12664673 9.43635327 -4.25295633 8.8738256 -2.37890625 8.3125 C-1.54045166 8.06113281 -0.70199707 7.80976562 0.16186523 7.55078125 C0.76844971 7.36902344 1.37503418 7.18726563 2 7 C-17.34828812 30.81327769 -48.59627656 46.83759491 -79 50 C-95.34978479 50.96988389 -112.04255295 51.01312368 -128 47 C-128.85803223 46.78537109 -129.71606445 46.57074219 -130.60009766 46.34960938 C-140.76501111 43.74147113 -150.68664358 40.92931745 -160 36 C-160 35.34 -160 34.68 -160 34 C-157.68213175 32.26393224 -155.37393184 30.68141288 -152.9375 29.125 C-151.80803955 28.40123169 -151.80803955 28.40123169 -150.65576172 27.6628418 C-107.11717029 0.31821444 -50.65268343 -19.33726864 0 0 Z " fill="#D18520" transform="translate(430,922)"/>
<path d="M0 0 C-18.62539718 19.64132794 -52.86812076 30.28246594 -79.109375 31.23828125 C-111.81243048 31.87843849 -138.90171807 21.37272594 -163 -1 C-158.9024393 -2.36585357 -156.01323685 -0.97192458 -152.0625 0.3125 C-140.11542112 4.19170877 -128.79528409 5.29523872 -116.25 5.125 C-114.96867188 5.11597656 -113.68734375 5.10695313 -112.3671875 5.09765625 C-109.24458779 5.07435327 -106.12239975 5.04164054 -103 5 C-107.28057746 2.14628169 -111.78334836 1.32924555 -116.75 0.125 C-117.83079834 -0.13748535 -118.91159668 -0.3999707 -120.02514648 -0.67041016 C-133.85330531 -3.86535677 -147.91097256 -5.43533281 -162 -7 C-161 -9 -161 -9 -159.36791992 -9.71435547 C-158.30988159 -10.03750732 -158.30988159 -10.03750732 -157.23046875 -10.3671875 C-156.43374756 -10.61122314 -155.63702637 -10.85525879 -154.81616211 -11.10668945 C-153.94870361 -11.36023193 -153.08124512 -11.61377441 -152.1875 -11.875 C-151.29619385 -12.13821045 -150.4048877 -12.4014209 -149.48657227 -12.67260742 C-143.18721779 -14.48323672 -136.86170091 -16.01569117 -130.4375 -17.3125 C-129.65463623 -17.47153809 -128.87177246 -17.63057617 -128.06518555 -17.79443359 C-86.98629187 -25.6564642 -37.77302509 -17.2326089 0 0 Z " fill="#D1851F" transform="translate(1010,887)"/>
<path d="M0 0 C0.33 0.66 0.66 1.32 1 2 C0.19183838 2.08975098 -0.61632324 2.17950195 -1.44897461 2.27197266 C-15.87219924 3.90956182 -30.12203598 5.6938478 -44.25 9.125 C-45.29534912 9.37846191 -46.34069824 9.63192383 -47.41772461 9.89306641 C-52.97994212 11.29412414 -52.97994212 11.29412414 -58 14 C-38.88205338 14.53865042 -21.01577307 14.25387403 -2.9519043 7.48168945 C-1 7 -1 7 2 8 C-13.0520292 22.98824941 -31.32595179 33.01136656 -52 38 C-52.90492188 38.226875 -53.80984375 38.45375 -54.7421875 38.6875 C-88.55450565 45.74398379 -123.11966135 33.96787122 -152 17 C-155.16953139 14.83056346 -158.15529081 12.57988641 -161 10 C-158.13037997 7.64870146 -155.57430121 6.31778828 -152.0546875 5.16796875 C-151.07330811 4.84723389 -150.09192871 4.52649902 -149.08081055 4.19604492 C-148.02289307 3.8632251 -146.96497559 3.53040527 -145.875 3.1875 C-144.7713208 2.83856689 -143.6676416 2.48963379 -142.53051758 2.13012695 C-124.04500111 -3.57992203 -105.20288201 -7.65966332 -86 -10 C-84.98035156 -10.13148438 -83.96070313 -10.26296875 -82.91015625 -10.3984375 C-56.43439513 -13.20935045 -24.55242081 -11.26754382 0 0 Z " fill="#D1861F" transform="translate(352,878)"/>
<path d="M0 0 C1.02966888 0.00089127 1.02966888 0.00089127 2.08013916 0.00180054 C8.70252176 0.02384788 15.07372057 0.21465924 21.625 1.25 C20.27504889 5.2528029 18.57473206 7.69412564 15.6171875 10.69140625 C14.80362793 11.51656738 13.99006836 12.34172852 13.15185547 13.19189453 C12.27674316 14.05669434 11.40163086 14.92149414 10.5 15.8125 C9.59781738 16.70565918 8.69563477 17.59881836 7.76611328 18.51904297 C-8.93560634 34.79621755 -28.04726377 47.20280825 -50.375 54.25 C-51.40625 54.58902344 -52.4375 54.92804687 -53.5 55.27734375 C-70.2387084 59.8177184 -91.18197944 59.47808483 -107.375 53.25 C-108.38691406 52.88777344 -109.39882813 52.52554688 -110.44140625 52.15234375 C-118.54669655 49.0349244 -125.93756521 44.68385536 -133.375 40.25 C-133.045 39.59 -132.715 38.93 -132.375 38.25 C-131.33601562 38.394375 -130.29703125 38.53875 -129.2265625 38.6875 C-111.28986337 41.11067907 -90.09258894 41.60879447 -73.375 33.25 C-79.83047629 33.22439939 -86.28593924 33.20702922 -92.74145508 33.19506836 C-94.93221526 33.19007582 -97.12297218 33.18327945 -99.3137207 33.17456055 C-116.37007994 33.07284025 -116.37007994 33.07284025 -133.375 34.25 C-105.03869508 4.14601379 -37.84998383 -0.03637647 0 0 Z " fill="#D28720" transform="translate(1053.375,799.75)"/>
<path d="M0 0 C0.70207581 -0.00067474 1.40415161 -0.00134949 2.12750244 -0.00204468 C47.45626723 0.06641618 94.40887283 9.2154308 133.375 33.25 C130.2925875 34.27747083 129.02566387 34.22849892 125.89111328 33.81860352 C120.28174973 33.18613981 114.75719081 33.12253216 109.1171875 33.15234375 C107.57359055 33.15446617 107.57359055 33.15446617 105.99880981 33.15663147 C102.74917551 33.16217745 99.49961307 33.17471954 96.25 33.1875 C94.031251 33.19252199 91.81250091 33.19708367 89.59375 33.20117188 C84.18747596 33.21212911 78.78124312 33.22881242 73.375 33.25 C75.43285399 33.89429462 77.49162876 34.53564875 79.55078125 35.17578125 C80.69716064 35.53325439 81.84354004 35.89072754 83.0246582 36.2590332 C99.93219056 41.25995675 116.12744141 40.49098209 133.375 38.25 C133.375 38.91 133.375 39.57 133.375 40.25 C109.29062511 54.66219242 83.57810543 62.43466714 55.3125 55.75 C28.6976123 48.67003173 7.34142729 33.33277521 -12 14.25 C-13.09803955 13.17298828 -13.09803955 13.17298828 -14.21826172 12.07421875 C-14.89646973 11.38972656 -15.57467773 10.70523438 -16.2734375 10 C-16.87333496 9.39671875 -17.47323242 8.7934375 -18.09130859 8.171875 C-19.83551256 5.98620585 -20.70784216 3.87854378 -21.625 1.25 C-14.39787225 0.1078506 -7.30092416 0.00631957 0 0 Z " fill="#D28720" transform="translate(147.625,799.75)"/>
<path d="M0 0 C0.99 0.495 0.99 0.495 2 1 C8.50318751 39.24363491 0.4435011 83.36065414 -21.95703125 115.25 C-33.37555532 130.62025037 -46.23555844 143.1812656 -62 154 C-62.33 153.34 -62.66 152.68 -63 152 C-61.81471327 149.86960306 -60.5726158 147.85605203 -59.25 145.8125 C-48.97505692 129.24225873 -41.63088889 111.62229124 -36 93 C-39.99452167 96.54653793 -42.52073504 100.72082568 -45.25 105.25 C-45.73380127 106.05066895 -46.21760254 106.85133789 -46.71606445 107.67626953 C-54.98813448 121.53742808 -61.22007621 135.9461792 -67 151 C-67.33 151 -67.66 151 -68 151 C-69.3771961 96.44890935 -48.11746515 50.45604535 -11 11 C-7.38080532 7.28559507 -3.69797007 3.63576123 0 0 Z " fill="#CF831F" transform="translate(827,754)"/>
<path d="M0 0 C11.52831673 9.43225914 21.11925076 20.10039315 30 32 C30.41459473 32.54317871 30.82918945 33.08635742 31.25634766 33.64599609 C57.75709678 68.40262663 70.09706487 107.54497906 69 151 C67.21572489 148.32358733 66.13817504 146.05794286 64.96875 143.08984375 C57.54432331 124.5622478 49.04142946 107.93567899 37 92 C42.55210137 113.08730808 51.52054298 134.02500228 64 152 C63.67 152.66 63.34 153.32 63 154 C55.26526104 148.37835983 47.95765054 142.57671638 41 136 C40.18917969 135.25363281 39.37835938 134.50726562 38.54296875 133.73828125 C17.5925898 113.77768399 5.07543304 86.23881461 0 58 C-0.17877686 57.01064453 -0.35755371 56.02128906 -0.54174805 55.00195312 C-1.98912277 46.09621354 -2.27966934 37.42319399 -2.20581055 28.4296875 C-2.18735429 26.10666052 -2.18530316 23.78403086 -2.18554688 21.4609375 C-2.18063612 19.95572577 -2.17480974 18.45051669 -2.16796875 16.9453125 C-2.16685593 16.26493927 -2.1657431 15.58456604 -2.16459656 14.88357544 C-2.03947954 2.03947954 -2.03947954 2.03947954 0 0 Z " fill="#CF831F" transform="translate(373,754)"/>
<path d="M0 0 C-1.34531477 4.80262906 -3.44777873 8.51843225 -6.375 12.5 C-6.81416748 13.10312012 -7.25333496 13.70624023 -7.70581055 14.32763672 C-28.00176563 41.79001131 -54.99004928 64.51120376 -89.46484375 70.61328125 C-105.40475036 72.35698374 -122.39500331 71.12931656 -137 64 C-137.33 63.34 -137.66 62.68 -138 62 C-136.82566406 61.91363281 -135.65132812 61.82726562 -134.44140625 61.73828125 C-119.0981948 60.4632933 -96.5735502 57.5735502 -85 46 C-92.58316284 46.52558656 -99.75354512 47.93001399 -107.125 49.75 C-108.75900757 50.14662842 -108.75900757 50.14662842 -110.42602539 50.55126953 C-118.11664491 52.45020196 -125.66608477 54.62441601 -133.18359375 57.1171875 C-136 58 -136 58 -138 58 C-136.68105055 54.04315166 -134.13691462 52.44549486 -130.9375 50 C-130.31407715 49.51869629 -129.6906543 49.03739258 -129.04833984 48.54150391 C-116.96427419 39.30816147 -104.46556164 31.07524347 -91 24 C-89.91589844 23.41863281 -88.83179688 22.83726562 -87.71484375 22.23828125 C-62.26776412 9.47009744 -28.6306181 -0.73411841 0 0 Z " fill="#D38820" transform="translate(1120,719)"/>
<path d="M0 0 C49.00077881 2.35435286 93.65139628 20.86506885 132 51 C132.58990723 51.45922852 133.17981445 51.91845703 133.78759766 52.39160156 C135.23156953 53.54627226 136.62164765 54.76774029 138 56 C138 56.66 138 57.32 138 58 C137.36255859 57.82476807 136.72511719 57.64953613 136.06835938 57.46899414 C128.55768873 55.4116357 121.03394182 53.40785036 113.5 51.4375 C112.35402344 51.13392578 111.20804687 50.83035156 110.02734375 50.51757812 C97.67360024 47.18730383 97.67360024 47.18730383 85 46 C101.8173579 55.63356526 118.58511921 61.3246998 138 62 C135.88534434 64.36694469 134.2788052 65.47645812 131.234375 66.3515625 C130.50863281 66.56296875 129.78289062 66.774375 129.03515625 66.9921875 C128.28105469 67.20101562 127.52695313 67.40984375 126.75 67.625 C126.01136719 67.8415625 125.27273437 68.058125 124.51171875 68.28125 C101.57835673 74.83363915 77.33283986 70.36386444 56.56054688 59.23217773 C35.89277515 47.61954566 18.5665076 30.49732161 5.375 10.9375 C4.73558472 9.99040161 4.73558472 9.99040161 4.08325195 9.02416992 C2.1266724 6.03628386 0.7386879 3.48488548 0 0 Z " fill="#D38820" transform="translate(81,719)"/>
<path d="M0 0 C0.66 0 1.32 0 2 0 C13.63015854 34.98241363 15.52492631 71.80798793 -1.07543945 105.5949707 C-9.61210594 122.13792463 -21.97273145 136.03807947 -37 147 C-37.66 146.67 -38.32 146.34 -39 146 C-38.443125 145.08863281 -37.88625 144.17726563 -37.3125 143.23828125 C-27.81465997 127.28283192 -18 106.98377513 -18 88 C-28.06380803 105.85160498 -35.51576867 124.58900526 -42 144 C-42.66 144 -43.32 144 -44 144 C-44.93480144 94.33328055 -32.83954755 39.02457444 0 0 Z " fill="#CF831F" transform="translate(880,718)"/>
<path d="M0 0 C3.42943886 1.14314629 3.74886347 1.71360542 5.6015625 4.65625 C6.0872168 5.42259766 6.57287109 6.18894531 7.07324219 6.97851562 C7.58532227 7.81060547 8.09740234 8.64269531 8.625 9.5 C9.15770508 10.35787109 9.69041016 11.21574219 10.23925781 12.09960938 C35.38396919 53.03706988 46.42240601 96.15764535 46 144 C45.34 144 44.68 144 44 144 C43.77449463 143.34741211 43.54898926 142.69482422 43.31665039 142.02246094 C36.85118505 123.41938354 29.97248581 105.05099535 20 88 C20.57475181 94.56009824 21.73863895 100.61470233 23.5625 106.9375 C23.82353516 107.84483887 24.08457031 108.75217773 24.35351562 109.68701172 C28.28124948 122.81836902 34.11847367 135.16586003 41 147 C35.83490929 145.48490673 32.61604724 142.25027861 28.8125 138.625 C27.81947876 137.68333984 27.81947876 137.68333984 26.80639648 136.72265625 C3.96159508 114.74102254 -8.55845626 86.04942292 -9.28515625 54.19384766 C-9.46207688 35.95522668 -7.12428007 16.93995484 0 0 Z " fill="#CF831F" transform="translate(319,718)"/>
<path d="M0 0 C4.58641004 0.57142017 8.17489295 1.80742393 12.33203125 3.80859375 C12.92128891 4.09067184 13.51054657 4.37274994 14.11766052 4.66337585 C16.02060936 5.57878737 17.91697839 6.50681597 19.8125 7.4375 C20.46238892 7.75434753 21.11227783 8.07119507 21.78186035 8.39764404 C38.55243285 16.58553217 54.00361658 25.88598503 69 37 C69.61472168 37.45487793 70.22944336 37.90975586 70.86279297 38.37841797 C89.10164143 51.99908052 104.1396779 68.02044199 118 86 C117.67 86.66 117.34 87.32 117 88 C116.41323486 87.65855957 115.82646973 87.31711914 115.22192383 86.96533203 C104.39885991 80.69276708 93.54315565 74.57961083 82.25 69.1875 C81.36417236 68.76162598 80.47834473 68.33575195 79.56567383 67.89697266 C74.9823209 65.64726256 74.9823209 65.64726256 70 65 C83.70109915 77.40754644 98.35530313 85.56746504 116 91 C115.67 91.66 115.34 92.32 115 93 C89.45976298 95.187474 66.7600291 90.90050534 46.3125 74.6875 C24.36697185 55.8265556 8.04971213 30.93723621 0 3 C0 2.01 0 1.02 0 0 Z " fill="#D48A22" transform="translate(55,623)"/>
<path d="M0 0 C-4.14196438 25.31200452 -20.33431749 49.08515413 -38 67 C-39.29357422 68.31291016 -39.29357422 68.31291016 -40.61328125 69.65234375 C-58.3014645 86.65920439 -79.82347267 93.67336899 -104 94 C-111.62189561 93.79606968 -111.62189561 93.79606968 -115 93 C-115.33 92.34 -115.66 91.68 -116 91 C-114.80246094 90.59910156 -113.60492187 90.19820312 -112.37109375 89.78515625 C-95.4079734 83.93580441 -82.29347981 75.99327437 -69 64 C-77.91772402 67.22621662 -86.3144493 70.99370214 -94.6875 75.4375 C-96.26241211 76.25831055 -96.26241211 76.25831055 -97.86914062 77.09570312 C-104.38322623 80.51671141 -110.73707237 84.13871819 -117 88 C-117 84.60893735 -116.63583071 84.17706923 -114.578125 81.6640625 C-113.79091064 80.69557373 -113.79091064 80.69557373 -112.98779297 79.70751953 C-112.41432129 79.02028809 -111.84084961 78.33305664 -111.25 77.625 C-110.66234863 76.91327637 -110.07469727 76.20155273 -109.46923828 75.46826172 C-86.78744161 48.22455904 -59.44774904 27.89691266 -28.0625 11.5625 C-26.94931396 10.98298584 -25.83612793 10.40347168 -24.68920898 9.80639648 C-5.52027998 0 -5.52027998 0 0 0 Z " fill="#D48A22" transform="translate(1146,623)"/>
<path d="M0 0 C-0.1194456 33.38504596 -15.07113278 67.15835088 -37.75 91.25 C-51.45198562 104.47876163 -69.12634858 112.18522582 -88 114 C-88 113.34 -88 112.68 -88 112 C-86.29236392 110.79193831 -84.53043992 109.66043795 -82.75 108.5625 C-70.04098379 100.27466278 -59.07247323 89.55557368 -52 76 C-64.92642968 86.44666562 -77.43145711 97.05007658 -89 109 C-89.66 108.67 -90.32 108.34 -91 108 C-73.65607879 70.0877396 -49.56857657 35.26447998 -15.65966797 10.23193359 C-13.93534591 8.95200875 -12.23398372 7.64556752 -10.53515625 6.33203125 C-2.28742131 0 -2.28742131 0 0 0 Z " fill="#D48921" transform="translate(1150,529)"/>
<path d="M0 0 C22.04965011 10.37038339 43.32237323 32.82191624 58 52 C58.43022461 52.55913086 58.86044922 53.11826172 59.30371094 53.69433594 C68.56576553 65.79614042 76.22202696 78.49675914 83.375 91.9375 C83.79209229 92.71834961 84.20918457 93.49919922 84.63891602 94.30371094 C87.15151276 99.10239663 89.19814944 103.89088179 91 109 C86.74371142 107.36927739 84.01695406 104.15473111 80.9375 100.9375 C75.28535699 95.15961233 69.35274613 90.00381295 63 85 C60.93060311 83.32078361 58.87206396 81.62881498 56.8125 79.9375 C55.89082031 79.18339844 54.96914062 78.42929687 54.01953125 77.65234375 C53.35308594 77.10707031 52.68664062 76.56179688 52 76 C60.84311836 91.332096 72.77040061 102.97505221 88 112 C87.67 112.66 87.34 113.32 87 114 C62.3159193 110.14702801 42.3557916 98.96898109 27 79 C11.88783976 57.01597162 -1.30590474 27.15513689 0 0 Z " fill="#D58C23" transform="translate(51,529)"/>
<path d="M0 0 C0.99 0.33 1.98 0.66 3 1 C4.131638 3.6992349 5.03761833 6.26955132 5.875 9.0625 C6.1325708 9.90522461 6.3901416 10.74794922 6.65551758 11.61621094 C12.00573121 29.71247333 14.9416423 48.27471601 17 67 C17.19916016 68.70736328 17.19916016 68.70736328 17.40234375 70.44921875 C19.62393865 93.24339112 17.9257145 116.48978602 14 139 C13.34 138.67 12.68 138.34 12 138 C11.33325195 135.62109375 11.33325195 135.62109375 10.73828125 132.4375 C10.50963379 131.25889404 10.28098633 130.08028809 10.04541016 128.8659668 C9.8035498 127.59019775 9.56168945 126.31442871 9.3125 125 C6.57741919 111.11613469 3.04682943 97.56464011 -1 84 C-1.7170074 101.60651501 0.34913321 117.79946849 7.15673828 134.15307617 C7.81879488 135.74978855 8.41594304 137.37313589 9 139 C8.67 139.66 8.34 140.32 8 141 C-10.27616177 124.51659524 -21.13069093 100.56051079 -22.89794922 76.16552734 C-24.19660748 48.60787477 -15.16063852 22.74095777 0 0 Z " fill="#D08520" transform="translate(280,680)"/>
<path d="M0 0 C0.66 0 1.32 0 2 0 C3.67617039 2.44837321 5.200013 4.87636316 6.6875 7.4375 C7.13303223 8.20304199 7.57856445 8.96858398 8.03759766 9.75732422 C22.73888802 35.62080338 29.55937847 66.23593173 21.71533203 95.42724609 C16.7822907 112.47531995 7.44550024 130.16587482 -7 141 C-6.4121875 139.2984375 -6.4121875 139.2984375 -5.8125 137.5625 C0.20325559 119.4006474 3.36153038 103.20128012 3 84 C-1.65137112 98.67609246 -5.29559187 113.32688326 -8.04541016 128.45947266 C-8.27405762 129.68843262 -8.50270508 130.91739258 -8.73828125 132.18359375 C-8.93462158 133.28243896 -9.13096191 134.38128418 -9.33325195 135.51342773 C-9.55327881 136.33399658 -9.77330566 137.15456543 -10 138 C-10.66 138.33 -11.32 138.66 -12 139 C-18.54034478 95.61714859 -20.96570488 40.2340531 0 0 Z " fill="#D08520" transform="translate(919,680)"/>
<path d="M0 0 C4.0663158 1.52953163 6.22110822 4.3802863 8.75 7.75 C9.18538086 8.32564697 9.62076172 8.90129395 10.06933594 9.49438477 C28.36621984 34.21656226 37.19678794 64.47074825 32.74609375 95.01171875 C30.9742384 105.13838149 27.46823086 114.5504448 22.9375 123.75 C22.60927246 124.41765381 22.28104492 125.08530762 21.94287109 125.77319336 C20.05768729 129.43297231 18.09130167 132.27359586 15 135 C15.14363527 133.62476865 15.29003517 132.24982598 15.4375 130.875 C15.51871094 130.10929688 15.59992187 129.34359375 15.68359375 128.5546875 C15.9041342 126.77402757 16.18419612 125.0001665 16.50927734 123.2355957 C17.36110415 117.6190481 17.18454204 111.98291842 17.1875 106.3125 C17.19974609 105.09626953 17.21199219 103.88003906 17.22460938 102.62695312 C17.23658089 95.19264033 16.64276437 88.25515482 15 81 C13.18353077 84.63293846 13.34262994 88.86955616 13 92.875 C12.91314941 93.874104 12.82629883 94.87320801 12.73681641 95.90258789 C11.70165389 108.57992997 11.34618392 121.28829547 11 134 C9 133 9 133 8.11791992 130.89648438 C7.12734339 127.7680611 6.14218357 124.63962026 5.1875 121.5 C4.83220215 120.3332373 4.4769043 119.16647461 4.11083984 117.96435547 C-5.53085262 85.44169696 -16.15975274 32.31950548 0 0 Z " fill="#D28620" transform="translate(957,631)"/>
<path d="M0 0 C0.66 0 1.32 0 2 0 C12.97230788 40.59753915 8.74455637 83.61575403 -3.6875 123.375 C-3.98495117 124.32729492 -4.28240234 125.27958984 -4.58886719 126.26074219 C-4.8727832 127.13118164 -5.15669922 128.00162109 -5.44921875 128.8984375 C-5.70018311 129.66849121 -5.95114746 130.43854492 -6.2097168 131.23193359 C-7 133 -7 133 -9 134 C-9.01981934 133.27224365 -9.03963867 132.5444873 -9.06005859 131.79467773 C-9.42922747 118.79932155 -9.87385186 105.82988226 -11 92.875 C-11.0829834 91.9048999 -11.1659668 90.9347998 -11.25146484 89.93530273 C-11.5504788 85.31441389 -11.5504788 85.31441389 -13 81 C-14.87837034 89.38634595 -15.30557116 97.42351799 -15.25 106 C-15.25773437 107.19367188 -15.26546875 108.38734375 -15.2734375 109.6171875 C-15.25905825 116.18850488 -14.8049186 122.28339544 -13.33105469 128.6953125 C-12.98183082 131.12648752 -13.23877951 132.6856764 -14 135 C-24.34682527 119.42724013 -31.00343499 102.90359245 -32 84 C-32.04125 83.24847656 -32.0825 82.49695313 -32.125 81.72265625 C-32.93879008 51.15466647 -20.03401535 24.08450651 -1 1 C-0.67 0.67 -0.34 0.34 0 0 Z " fill="#D28620" transform="translate(242,631)"/>
<path d="M0 0 C33.88658556 20.46083851 54.670701 64.25539974 63.83056641 101.12597656 C66.24578927 111.10312142 66.24578927 111.10312142 66 116 C63.36876015 112.80492304 61.03778854 109.5892582 58.875 106.0625 C52.25712995 95.54759727 44.90462182 85.58269795 37 76 C42.51495793 90.47676456 49.78290752 104.09888196 61 115 C63 117 63 117 63 119 C43.14012326 113.61427072 27.86647008 98.41405733 17.65625 81.09375 C5.60231502 59.82327542 -0.26076343 35.37115065 -0.0625 11 C-0.05573242 9.40865234 -0.05573242 9.40865234 -0.04882812 7.78515625 C-0.03713843 5.19004402 -0.02075276 2.59505291 0 0 Z " fill="#CF831F" transform="translate(62,448)"/>
<path d="M0 0 C0.93837224 35.67258175 -6.2089882 71.0373512 -30.28125 98.61328125 C-39.02430233 107.77193641 -49.5105668 113.91932322 -61 119 C-61.66 119 -62.32 119 -63 119 C-61.50556894 115.53134686 -59.49074274 113.26482656 -56.875 110.5625 C-47.87746611 100.69981862 -42.34740804 89.08180005 -37 77 C-40.770441 80.60181663 -43.99298843 84.40456353 -47.0625 88.625 C-47.75835205 89.57451538 -47.75835205 89.57451538 -48.46826172 90.54321289 C-53.01166239 96.84053881 -57.13722783 103.39164746 -61.20336914 110.00439453 C-61.68539795 110.78540527 -62.16742676 111.56641602 -62.6640625 112.37109375 C-63.09154785 113.07161865 -63.5190332 113.77214355 -63.95947266 114.49389648 C-64.30284668 114.99091064 -64.6462207 115.4879248 -65 116 C-65.33 116 -65.66 116 -66 116 C-65.51130969 108.86646559 -64.2529181 102.24981675 -62.3125 95.375 C-62.04195801 94.41134521 -61.77141602 93.44769043 -61.49267578 92.45483398 C-55.13917042 70.26186626 -45.43215376 49.14849035 -31 31 C-30.58991699 30.47857422 -30.17983398 29.95714844 -29.75732422 29.41992188 C-6.44699962 0 -6.44699962 0 0 0 Z " fill="#CF831F" transform="translate(1139,448)"/>
<path d="M0 0 C1.29018626 21.07304217 -3.07266733 42.85363662 -9 63 C-9.35288086 64.22879883 -9.35288086 64.22879883 -9.71289062 65.48242188 C-15.36645269 84.82983612 -23.85122106 103.20673941 -35 120 C-36.29173269 116.30330205 -35.74231129 113.45094013 -35.0390625 109.64453125 C-34.81500732 108.38914551 -34.59095215 107.13375977 -34.36010742 105.84033203 C-34.23961029 105.1814801 -34.11911316 104.52262817 -33.9949646 103.84381104 C-31.88212766 92.24316331 -30.19061044 80.81784737 -30 69 C-36.57338436 85.80573994 -39.28953177 102.01780413 -40 120 C-48.29742023 111.70257977 -49.05719439 92.10048848 -49.3125 81.25 C-49.1694425 57.03240824 -39.98753778 36.09419889 -24 18 C-23.20722656 17.08154297 -23.20722656 17.08154297 -22.3984375 16.14453125 C-18.45243967 11.88487718 -13.83794591 8.50678786 -9.1875 5.0625 C-8.51638184 4.56492187 -7.84526367 4.06734375 -7.15380859 3.5546875 C-2.25117762 0 -2.25117762 0 0 0 Z " fill="#D18520" transform="translate(224,583)"/>
<path d="M0 0 C4.67482958 1.53186506 8.03006021 4.08931018 11.8125 7.125 C12.74497559 7.87076294 12.74497559 7.87076294 13.69628906 8.6315918 C32.86858671 24.14213077 44.79504928 44.56645234 48.75 68.9375 C48.86652715 70.28921492 48.94351866 71.64444784 49 73 C49.0515625 74.134375 49.103125 75.26875 49.15625 76.4375 C49.6191069 91.79244144 46.70152146 105.77999984 41 120 C40.67 120 40.34 120 40 120 C39.96036133 119.36199463 39.92072266 118.72398926 39.87988281 118.06665039 C38.7730366 101.04048147 37.24209376 84.67836255 30 69 C30.20163581 81.50142041 32.11691034 93.57502157 34.36010742 105.84033203 C34.5841626 107.09571777 34.80821777 108.35110352 35.0390625 109.64453125 C35.24740723 110.77221924 35.45575195 111.89990723 35.67041016 113.06176758 C35.97535327 115.78027897 35.89166509 117.44822088 35 120 C12.11803082 85.84095718 -1.73700378 41.30208997 0 0 Z " fill="#D18620" transform="translate(977,583)"/>
<path d="M0 0 C4.86171278 4.86171278 3.23010098 16.23900173 3.25 22.8125 C3.23763135 53.31359577 -4.46311219 82.65706342 -25.4921875 105.50390625 C-29.70432119 109.69635707 -34.29587272 113.37745159 -39 117 C-39.72574219 117.57878906 -40.45148438 118.15757812 -41.19921875 118.75390625 C-43 120 -43 120 -45 120 C-43.47917484 116.80464927 -41.71176027 113.77513348 -39.92797852 110.72094727 C-33.50916785 99.64068322 -28.54808424 88.61865749 -26 76 C-32.65880829 87.1108021 -38.8748916 98.13036343 -43.58789062 110.2199707 C-45.82119278 115.91059639 -45.82119278 115.91059639 -48 117 C-50.38572498 75.11727263 -30.41326693 34.21464812 -3.25 3.5 C-2.17339913 2.32711775 -1.09316035 1.1574639 0 0 Z " fill="#CD811F" transform="translate(1119,375)"/>
<path d="M0 0 C4.80695111 3.72359347 8.46425539 7.72041529 12.125 12.5625 C12.68413086 13.30137451 13.24326172 14.04024902 13.81933594 14.80151367 C35.4447022 43.95073064 51.10583222 80.03094551 49 117 C46.35431017 115.67715509 46.20982431 114.51954498 45.1171875 111.80078125 C44.75834473 110.92744141 44.39950195 110.05410156 44.02978516 109.15429688 C43.4581665 107.74760742 43.4581665 107.74760742 42.875 106.3125 C39.17653196 97.42893958 35.03277493 89.19818541 30 81 C28.99933421 79.33373299 27.99909847 77.66720726 27 76 C29.79866944 90.07330916 35.62336626 102.46297859 43.3984375 114.42578125 C45 117 45 117 46 120 C25.83852211 110.64770606 13.1568861 91.2779252 5.48828125 71.1640625 C0.05282126 55.59220415 -2.19067488 39.94061121 -2.125 23.5 C-2.12886719 22.53191406 -2.13273437 21.56382812 -2.13671875 20.56640625 C-2.11479012 4.22958025 -2.11479012 4.22958025 0 0 Z " fill="#CD811F" transform="translate(81,375)"/>
<path d="M0 0 C13.31338466 3.00725865 24.80075431 10.13190586 35 19 C35.598125 19.45503906 36.19625 19.91007813 36.8125 20.37890625 C50.60378809 31.07353938 61.07646898 50.28588783 63.72753906 67.37890625 C66.54139248 94.4483778 66.54139248 94.4483778 62 102 C61.6596875 100.741875 61.319375 99.48375 60.96875 98.1875 C58.55385165 89.55099623 55.99156978 81.21053504 51.9375 73.1875 C51.62167969 72.56166016 51.30585937 71.93582031 50.98046875 71.29101562 C48.67484622 66.91127775 45.93994507 62.97937106 43 59 C45.12513849 67.76858946 48.20236493 76.0121934 51.5625 84.375 C52.06238825 85.63129596 52.56174001 86.88780554 53.06054688 88.14453125 C54.36809096 91.43196956 55.68236462 94.71659653 57 98 C57.66683663 99.66659867 58.333566 101.33324028 59 103 C50.09146862 99.04720793 43.82681725 89.47414038 38 82 C37.56252441 81.43893555 37.12504883 80.87787109 36.67431641 80.29980469 C29.49504936 71.01499363 23.37815854 61.42971792 18 51 C17.62101563 50.26797363 17.24203125 49.53594727 16.8515625 48.78173828 C9.10195949 33.61735151 1.95801827 17.06273067 0 0 Z M41 56 C42 58 42 58 42 58 Z " fill="#D08520" transform="translate(985,532)"/>
<path d="M0 0 C-7.00856848 38.2397333 -27.049415 74.02931864 -55 101 C-56.31623655 101.69981682 -57.64741314 102.37331745 -59 103 C-58.72849121 102.33170166 -58.45698242 101.66340332 -58.17724609 100.97485352 C-52.81483528 87.74810302 -47.57533558 74.52141857 -43 61 C-43.495 60.505 -43.495 60.505 -44 60 C-52.59715747 73.29693689 -58.26912792 86.5528805 -62 102 C-67.6869846 92.54343807 -65.10155682 73.64369964 -62.97216797 63.12841797 C-59.65465406 49.93040762 -52.96509783 38.12823427 -44 28 C-43.22527344 27.02933594 -42.45054687 26.05867187 -41.65234375 25.05859375 C-39.00314608 21.87975735 -35.99989164 19.23677416 -32.75 16.6875 C-32.15445313 16.21965088 -31.55890625 15.75180176 -30.9453125 15.26977539 C-23.08295079 9.29919336 -10.26170669 0 0 0 Z M-42 56 C-41 58 -41 58 -41 58 Z " fill="#D08420" transform="translate(216,532)"/>
<path d="M0 0 C0.79059814 0.00322266 1.58119629 0.00644531 2.39575195 0.00976562 C10.17569347 0.19093058 17.20268607 1.97322747 24.5625 4.4375 C24.5625 5.0975 24.5625 5.7575 24.5625 6.4375 C16.8079379 11.28252004 10.59793111 13.92611792 1.4375 14 C-9.2468772 14.13550393 -18.42270611 16.87796711 -28.4375 20.4375 C-29.26975098 20.73043945 -30.10200195 21.02337891 -30.95947266 21.32519531 C-64.99483183 33.4567406 -100.03196607 49.21409202 -128.2109375 72.20703125 C-130.4375 73.4375 -130.4375 73.4375 -132.76953125 73.359375 C-136.25245276 72.15590578 -139.48830454 70.57135037 -142.75 68.875 C-143.39517578 68.54564453 -144.04035156 68.21628906 -144.70507812 67.87695312 C-146.28535228 67.06925745 -147.86182105 66.25412387 -149.4375 65.4375 C-149.4375 64.4475 -149.4375 63.4575 -149.4375 62.4375 C-148.02661133 61.18579102 -148.02661133 61.18579102 -146.01953125 59.94140625 C-145.27098877 59.47154297 -144.52244629 59.00167969 -143.7512207 58.51757812 C-142.92581787 58.01677734 -142.10041504 57.51597656 -141.25 57 C-140.3943042 56.47212891 -139.5386084 55.94425781 -138.65698242 55.40039062 C-135.92734083 53.72854403 -133.18549407 52.07898795 -130.4375 50.4375 C-129.58800781 49.92944824 -128.73851562 49.42139648 -127.86328125 48.89794922 C-99.93773974 32.32121789 -70.76266823 19.56067449 -40.125 8.9375 C-39.39332611 8.68170166 -38.66165222 8.42590332 -37.9078064 8.16235352 C-25.6142015 3.8836672 -13.1599349 -0.17443855 0 0 Z " fill="#C97A1A" transform="translate(572.4375,973.5625)"/>
<path d="M0 0 C-12.32597184 35.15881535 -32.12643929 61.89144184 -63 83 C-63.84691406 83.58652344 -64.69382813 84.17304687 -65.56640625 84.77734375 C-67.6875 86.1875 -67.6875 86.1875 -71 88 C-71.99 87.67 -72.98 87.34 -74 87 C-73.53851563 86.45214844 -73.07703125 85.90429688 -72.6015625 85.33984375 C-63.5517836 74.34060655 -55.97370752 62.400268 -49 50 C-61.15203726 59.87353028 -69.35035988 71.86951475 -76 86 C-76.33 86 -76.66 86 -77 86 C-78.21716017 66.11971725 -69.45569278 45.39939115 -56.5 30.75 C-55.00597026 29.16103191 -53.50647396 27.5771749 -52 26 C-51.47148437 25.39671875 -50.94296875 24.7934375 -50.3984375 24.171875 C-40.62030716 13.44100375 -14.95770947 -4.14669173 0 0 Z " fill="#D28821" transform="translate(217,477)"/>
<path d="M0 0 C5.67094484 0.536185 10.51521431 1.62098364 15.8125 3.6875 C16.50827148 3.9558667 17.20404297 4.2242334 17.92089844 4.50073242 C40.13525202 13.27617164 60.06945394 29.75473145 69.78125 51.91796875 C74.29459176 62.93804487 77.73403784 75.01071531 77 87 C74.74621698 84.15484534 73.06825159 81.29966361 71.4375 78.0625 C65.92788512 67.8362173 58.51812786 58.87569922 50 51 C54.07606294 63.22818881 63.10824411 74.02006323 70.70654297 84.22924805 C71.84636267 85.78966939 72.92810682 87.39216023 74 89 C61.19211869 86.25195554 49.37611241 74.63637967 40 66 C39.20335937 65.28585937 38.40671875 64.57171875 37.5859375 63.8359375 C19.43936149 46.74516228 7.68712918 24.44280997 0 1 C0 0.67 0 0.34 0 0 Z " fill="#D28721" transform="translate(984,476)"/>
<path d="M0 0 C2.85165279 2.85165279 2.93813838 6.09872556 3.5625 9.9375 C3.75646362 11.0965686 3.75646362 11.0965686 3.9543457 12.27905273 C4.91674054 18.17595315 5.72808099 24.02602181 6 30 C6.05285156 31.15113281 6.10570312 32.30226563 6.16015625 33.48828125 C6.82606942 62.2962642 -0.69160765 89.52246515 -20.66015625 110.83984375 C-25.5718952 115.8787932 -25.5718952 115.8787932 -28 118 C-28.66 118 -29.32 118 -30 118 C-28.64230397 113.70062923 -26.9901004 109.6647545 -25.125 105.5625 C-20.79933764 95.7407175 -18.18462754 85.67337683 -17 75 C-24.72956761 92.69923579 -24.72956761 92.69923579 -30.5534668 111.08374023 C-30.98625516 112.73622377 -31.48621684 114.37087924 -32 116 C-32.99 116.495 -32.99 116.495 -34 117 C-34.07559343 112.32677536 -34.12926247 107.65392585 -34.16479492 102.98022461 C-34.17964641 101.39878117 -34.19993305 99.81737705 -34.22631836 98.23608398 C-34.46784667 83.36078161 -32.74396833 69.32686974 -28.3125 55.0625 C-27.93013184 53.81847412 -27.93013184 53.81847412 -27.54003906 52.54931641 C-21.70041434 34.19670847 -12.83082979 14.53027744 0 0 Z " fill="#D18520" transform="translate(1094,309)"/>
<path d="M0 0 C20.38012988 19.00700056 33.87492767 56.60809176 35.08740234 83.97259521 C35.11465707 86.09572601 35.11267941 88.21659491 35.09765625 90.33984375 C35.0962413 91.10680069 35.09482635 91.87375763 35.09336853 92.66395569 C35.08781766 95.0885119 35.07527463 97.51297219 35.0625 99.9375 C35.05747864 101.59179553 35.05291685 103.24609253 35.04882812 104.90039062 C35.03786438 108.93363012 35.02063424 112.96679886 35 117 C34.01 116.505 34.01 116.505 33 116 C32.07178646 113.09058314 31.23675134 110.19507341 30.4375 107.25 C27.26710508 96.06253801 22.79926996 85.57314116 18 75 C20.08596528 89.78473639 24.09155468 102.71452823 31 116 C31 116.66 31 117.32 31 118 C17.82594126 112.47242291 8.29979653 95.2024378 3.05078125 82.73828125 C-6.99089155 56.57020456 -7.90988283 26.89360161 0 0 Z " fill="#D18520" transform="translate(106,309)"/>
<path d="M0 0 C-6.8684363 26.10005795 -31.28959967 51.56465352 -54.01269531 64.89160156 C-62.28526965 69.50554351 -70.81611612 73.61721918 -80 76 C-78.90471261 72.71413784 -78.29271004 72.20701051 -75.6875 70.125 C-66.49701348 62.30647459 -58.50883148 53.15286038 -52 43 C-64.16795571 51.21395849 -73.78604151 60.83204429 -82 73 C-84.52669582 65.41991255 -77.67859395 52.99763043 -74.27368164 45.98388672 C-70.04028442 37.79666639 -64.57156799 31.40566585 -58 25 C-57.17371094 24.17628906 -56.34742188 23.35257812 -55.49609375 22.50390625 C-41.17070334 8.86834202 -19.94434502 0 0 0 Z " fill="#D18721" transform="translate(224,421)"/>
<path d="M0 0 C26.58476103 2.34057686 48.12258888 12.94979584 66 33 C74.07797572 43.66230895 80.23113815 56.90041911 83 70 C82.505 71.485 82.505 71.485 82 73 C81.40574219 72.18917969 80.81148437 71.37835938 80.19921875 70.54296875 C72.1934401 59.78086117 63.73040736 49.8644606 52 43 C59.39524336 53.36454562 67.41865124 63.50797705 77.25 71.6875 C78.61125 72.8321875 78.61125 72.8321875 80 74 C80 74.66 80 75.32 80 76 C59.60334404 70.06642736 42.98775629 58.77333918 28 44 C27.23300781 43.24589844 26.46601562 42.49179687 25.67578125 41.71484375 C17.17342786 32.8156121 0 13.09161987 0 0 Z " fill="#D18620" transform="translate(977,421)"/>
<path d="M0 0 C0.66 0 1.32 0 2 0 C21.15510738 37.63031939 28.77118013 72.14834408 22 114 C21.34 114 20.68 114 20 114 C19.87471924 113.32646484 19.74943848 112.65292969 19.62036133 111.95898438 C17.12944697 98.70121978 14.46359334 85.74498353 10 73 C10.42461698 87.58559335 13.50505964 101.14060057 18 115 C17.34 115 16.68 115 16 115 C-1.52972341 97.1410799 -8.62893643 72.22527667 -8.4375 47.8125 C-8.43512329 47.14423187 -8.43274658 46.47596375 -8.43029785 45.78744507 C-8.34185066 29.79776144 -5.70821933 14.93853144 0 0 Z " fill="#CE821F" transform="translate(136,250)"/>
<path d="M0 0 C0.66 0 1.32 0 2 0 C2.97133103 3.07938436 3.92448245 6.16413373 4.875 9.25 C5.14441406 10.10335938 5.41382813 10.95671875 5.69140625 11.8359375 C9.31227621 23.67000028 10.3428812 34.9595058 10.3125 47.3125 C10.32861328 48.61123047 10.34472656 49.90996094 10.36132812 51.24804688 C10.37247373 73.66186541 3.20101976 93.63555695 -11 111 C-11.78310547 112.11568359 -11.78310547 112.11568359 -12.58203125 113.25390625 C-13.04996094 113.83011719 -13.51789063 114.40632813 -14 115 C-14.66 115 -15.32 115 -16 115 C-15.82984375 114.47535156 -15.6596875 113.95070313 -15.484375 113.41015625 C-11.29634905 100.02183926 -8.40896089 87.04780658 -8 73 C-12.36349464 86.54137837 -15.60642295 99.97645448 -18 114 C-18.66 114 -19.32 114 -20 114 C-26.67510356 72.74217907 -19.41995814 36.8582879 0 0 Z " fill="#CE811F" transform="translate(1063,250)"/>
<path d="M0 0 C23.93672987 -1.02423408 45.88632913 5.50480041 64.2109375 21.3671875 C74.15208403 30.75140705 81.8181172 42.96083748 86 56 C86 56.66 86 57.32 86 58 C82.65475051 56.88491684 82.15778307 56.18708058 80.0625 53.5 C73.0111889 45.21396565 63.89427029 39.35610572 54 35 C61.26731016 42.77140103 68.90080791 49.49471402 77.47436523 55.80932617 C78.17762939 56.32857666 78.88089355 56.84782715 79.60546875 57.3828125 C80.23606201 57.84059082 80.86665527 58.29836914 81.51635742 58.77001953 C83 60 83 60 84 62 C49.57872232 55.86870991 24.04345322 36.37585254 4.0390625 8.2421875 C0 2.344777 0 2.344777 0 0 Z " fill="#D28721" transform="translate(964,370)"/>
<path d="M0 0 C-1.49203452 4.29962637 -3.73604504 7.83167273 -6.375 11.5 C-7.02940063 12.41096436 -7.02940063 12.41096436 -7.69702148 13.34033203 C-25.22578013 37.21256706 -49.86728308 55.69923742 -79.359375 61.4609375 C-80.8998713 61.68893095 -82.44941797 61.85575981 -84 62 C-80.97369862 58.77194519 -77.79070243 55.98874207 -74.3125 53.25 C-67.30028733 47.70521599 -60.46140427 42.11977589 -55 35 C-66.32175861 41.14496846 -75.76523792 48.07605595 -84 58 C-84.66 58 -85.32 58 -86 58 C-82.61116367 46.70387889 -77.634247 37.00280532 -70 28 C-68.83791016 26.54013672 -68.83791016 26.54013672 -67.65234375 25.05078125 C-55.49903614 10.51711743 -36.19016136 3.12382328 -17.9375 0.25 C-11.95851349 -0.12961819 -5.98860339 -0.07569864 0 0 Z " fill="#D18620" transform="translate(237,370)"/>
<path d="M0 0 C3.6825784 4.5158293 5.12691911 9.46376043 6.9375 14.9375 C7.29013916 16.00202393 7.64277832 17.06654785 8.00610352 18.16333008 C12.57576852 32.39402939 15.52252604 47.0322293 16 62 C16.03996094 62.85722656 16.07992187 63.71445312 16.12109375 64.59765625 C16.5222156 80.2414084 13.3378931 95.06572681 9 110 C8.67 110 8.34 110 8 110 C7.88930176 109.16863525 7.77860352 108.33727051 7.66455078 107.48071289 C7.2464279 104.35479838 6.82479182 101.22938221 6.40087891 98.10424805 C6.13048031 96.10305913 5.86402728 94.10133836 5.59765625 92.09960938 C4.67415736 85.31018232 3.62257201 78.65839237 2 72 C1.69740213 83.0392187 1.76487042 93.27752382 4.44140625 104.03125 C4.97379094 106.86070712 4.9843783 108.34022288 4 111 C-11.96000656 86.80702176 -17.36947051 61.56147248 -12.1171875 33 C-9.73702204 21.56058675 -6.13813758 9.98290507 0 0 Z " fill="#D18620" transform="translate(171,198)"/>
<path d="M0 0 C10.04687613 8.22830211 13.20320138 31.49118045 14.68359375 43.34765625 C16.85673707 68.43270568 11.49773739 90.38099572 -3 111 C-4.49320858 107.05436939 -3.48314241 103.95968442 -2.5625 99.9375 C-0.58311777 90.6206959 -0.7217739 81.48029686 -1 72 C-3.55507923 84.62848839 -5.72264635 97.17604161 -7 110 C-19.56919996 91.14620006 -16.17700814 57.61140997 -12 36.70703125 C-9.28983622 24.25271722 -5.72182822 11.44365644 0 0 Z " fill="#D18620" transform="translate(1029,198)"/>
<path d="M0 0 C0.76828125 -0.00386719 1.5365625 -0.00773437 2.328125 -0.01171875 C6.98796251 -0.00379386 11.40372732 0.35487984 16 1.125 C14.48238249 6.24209495 11.33619121 9.46247876 7.75 13.25 C6.81389893 14.2402417 6.81389893 14.2402417 5.85888672 15.25048828 C-14.30609139 36.14450401 -39.82177475 48.39812544 -69 50.125 C-69 49.465 -69 48.805 -69 48.125 C-67.99582031 47.59132813 -66.99164063 47.05765625 -65.95703125 46.5078125 C-56.61448633 41.44994406 -48.21170894 35.86028867 -40 29.125 C-43.95883319 29.125 -46.66133613 30.79512667 -50.0625 32.625 C-50.72991211 32.98086182 -51.39732422 33.33672363 -52.08496094 33.70336914 C-57.18197967 36.50034897 -61.65129756 39.73862764 -66.046875 43.55859375 C-68 45.125 -68 45.125 -71 46.125 C-63.88114048 27.38418844 -49.81205872 14.17939749 -31.98046875 5.8203125 C-21.81441472 1.31454162 -11.02771867 -0.05550865 0 0 Z " fill="#D18520" transform="translate(238,321.875)"/>
<path d="M0 0 C8.81919179 7.22833933 15.32492285 17.27645224 20.66796875 27.265625 C20.66796875 27.925625 20.66796875 28.585625 20.66796875 29.265625 C17.11204217 27.69169029 14.37808613 25.50708862 11.35546875 23.078125 C4.61967666 17.93261263 -2.56048354 14.56747109 -10.33203125 11.265625 C-1.89141437 19.97754742 7.95338059 25.81464215 18.66796875 31.265625 C18.66796875 31.925625 18.66796875 32.585625 18.66796875 33.265625 C-14.43050833 30.1866969 -39.81357731 16.29885022 -62.1875 -8.0078125 C-64.19833337 -10.56439118 -65.33217398 -12.66218787 -66.33203125 -15.734375 C-42.41121445 -19.63724511 -19.53220634 -14.52646501 0 0 Z " fill="#D08520" transform="translate(1013.33203125,338.734375)"/>
<path d="M0 0 C4.46553182 4.00385473 7.16774316 8.26777573 9.9375 13.5625 C10.3698999 14.38516357 10.8022998 15.20782715 11.24780273 16.05541992 C22.1537948 37.62903284 26.25089422 63.93446157 19.34765625 87.390625 C13.17964072 103.91017964 13.17964072 103.91017964 9 106 C9.0721875 105.41476562 9.144375 104.82953125 9.21875 104.2265625 C9.88544062 98.05967423 10.10974592 91.94697129 10.125 85.75 C10.12951172 84.99412598 10.13402344 84.23825195 10.13867188 83.45947266 C10.12659301 78.87252389 9.75421218 74.52527306 9 70 C4.30221559 79.39556881 6.90636582 95.65862531 7 106 C3.72919456 104.36459728 3.26417062 100.85186875 2.125 97.5625 C1.86178955 96.80912354 1.5985791 96.05574707 1.32739258 95.27954102 C-4.00886586 79.50199813 -6.23079242 63.93254599 -6.25 47.3125 C-6.25133942 46.62902496 -6.25267883 45.94554993 -6.25405884 45.24136353 C-6.24745606 29.65037621 -4.76605668 14.88686089 0 0 Z " fill="#CF831F" transform="translate(989,152)"/>
<path d="M0 0 C2.26704961 2.26704961 2.4344097 3.18467253 3.03515625 6.25390625 C3.20466797 7.10919922 3.37417969 7.96449219 3.54882812 8.84570312 C3.71833984 9.74224609 3.88785156 10.63878906 4.0625 11.5625 C4.23587891 12.43197266 4.40925781 13.30144531 4.58789062 14.19726562 C6.65127474 24.7987909 7.24043112 35.07205665 7.25 45.875 C7.25101212 46.90429123 7.25101212 46.90429123 7.25204468 47.95437622 C7.2201479 68.43479066 3.95477965 87.4271237 -5 106 C-5.33 106 -5.66 106 -6 106 C-5.98839844 104.71867187 -5.97679687 103.43734375 -5.96484375 102.1171875 C-4.83169096 85.62409347 -4.83169096 85.62409347 -8 70 C-8.88260202 75.29561213 -9.15701774 80.38588518 -9.125 85.75 C-9.12209961 86.92828369 -9.12209961 86.92828369 -9.11914062 88.13037109 C-9.07482286 94.12434925 -8.73420478 100.04769699 -8 106 C-16.72767754 98.29023734 -20.43638975 83.55190728 -21.18017578 72.26611328 C-22.31892955 46.8257826 -16.978426 19.96572144 0 0 Z " fill="#CF831F" transform="translate(211,152)"/>
<path d="M0 0 C7.61978039 2.14644691 14.99370094 4.77085358 22.375 7.625 C23.51404785 8.06521484 24.6530957 8.50542969 25.82666016 8.95898438 C36.05607528 12.95388693 46.08356532 17.28443604 56 22 C56.80566406 22.38091797 57.61132812 22.76183594 58.44140625 23.15429688 C72.09850821 29.65819409 85.09835356 37.11538052 98 45 C98.76828125 45.46422363 99.5365625 45.92844727 100.328125 46.40673828 C102.35219227 47.63310098 104.36569227 48.87464131 106.375 50.125 C107.47585938 50.80820313 108.57671875 51.49140625 109.7109375 52.1953125 C110.46632813 52.79085938 111.22171875 53.38640625 112 54 C112 54.99 112 55.98 112 57 C109.42362412 58.36907416 106.84031896 59.72028455 104.25 61.0625 C103.52039063 61.45244141 102.79078125 61.84238281 102.0390625 62.24414062 C101.33007812 62.60830078 100.62109375 62.97246094 99.890625 63.34765625 C99.24125977 63.68804932 98.59189453 64.02844238 97.92285156 64.37915039 C95.47758034 65.16867867 94.3883603 64.91523601 92 64 C89.91967773 62.77587891 89.91967773 62.77587891 87.68359375 61.2265625 C86.84683105 60.65454102 86.01006836 60.08251953 85.14794922 59.49316406 C84.25350098 58.87666992 83.35905273 58.26017578 82.4375 57.625 C72.54201594 50.9232061 62.45323721 44.78617815 52 39 C51.26700684 38.58830566 50.53401367 38.17661133 49.77880859 37.75244141 C35.35684304 29.68700109 20.23730212 23.33819606 5 17 C3.83968262 16.51611816 2.67936523 16.03223633 1.48388672 15.53369141 C-1.34362155 14.35469961 -4.17158648 13.17681803 -7 12 C-5.20171641 7.35721951 -2.96927498 3.98507958 0 0 Z " fill="#CB7D1D" transform="translate(666,982)"/>
<path d="M0 0 C5.13356449 4.98561097 9.30330704 10.59736775 13.36523438 16.47485352 C11.88023437 16.96985352 11.88023437 16.96985352 10.36523438 17.47485352 C8.52539062 16.43579102 8.52539062 16.43579102 6.42773438 14.84985352 C-1.14937916 9.54340593 -9.6206595 6.38168366 -18.63476562 4.47485352 C-10.93457244 9.5511795 -3.30172811 13.74351392 5.24609375 17.21533203 C10.26899977 19.2823843 10.26899977 19.2823843 11.36523438 21.47485352 C-17.90975447 22.3340108 -42.43412936 14.99376155 -64.63476562 -4.52514648 C-65.5190625 -5.27666992 -66.40335938 -6.02819336 -67.31445312 -6.80249023 C-71.97943493 -10.82076896 -71.97943493 -10.82076896 -73.63476562 -12.52514648 C-73.63476562 -13.18514648 -73.63476562 -13.84514648 -73.63476562 -14.52514648 C-47.33620325 -21.60039423 -20.72190546 -19.21735572 0 0 Z " fill="#D38921" transform="translate(999.634765625,295.525146484375)"/>
<path d="M0 0 C-5.95566684 14.17257618 -27.40185027 24.19835287 -41 30 C-55.62273048 35.52450692 -69.56771161 36.2905661 -85 36 C-81.99427941 32.72745899 -78.55029902 31.39014546 -74.5 29.75 C-67.47209428 26.80654585 -61.26590669 23.36754937 -55 19 C-62.00798907 20.42535371 -68.20422369 22.86614629 -74.5625 26.0625 C-75.26503906 26.41505859 -75.96757812 26.76761719 -76.69140625 27.13085938 C-79.45320492 28.55221474 -81.79036748 29.79036748 -84 32 C-84.99 31.67 -85.98 31.34 -87 31 C-73.71491082 13.22417645 -59.62771129 0.62224135 -36.88671875 -3.37109375 C-24.56995834 -5.0478292 -11.82767584 -3.62350763 0 0 Z " fill="#D38821" transform="translate(275,281)"/>
<path d="M0 0 C18.50228861 2.23360962 32.79743645 10.03988753 46 23 C46.69996094 23.67546875 47.39992188 24.3509375 48.12109375 25.046875 C58.32071706 35.62426214 67 52.99537879 67 68 C66.34 68 65.68 68 65 68 C63.48251682 65.79681715 62.0692932 63.59873965 60.6875 61.3125 C57.83976134 56.60184541 54.9567783 52.88674683 51 49 C51 48.34 51 47.68 51 47 C50.401875 46.71125 49.80375 46.4225 49.1875 46.125 C47 45 47 45 44 43 C49.06519088 50.53192687 54.25761923 57.74659046 60.15234375 64.66015625 C61.78387498 66.72630256 62.9423295 68.60224435 64 71 C54.33007954 66.43803 45.34643426 61.78147784 37 55 C36.195625 54.3709375 35.39125 53.741875 34.5625 53.09375 C19.02390923 40.14492436 7.23320726 20.76458521 0 2 C0 1.34 0 0.68 0 0 Z " fill="#DE9725" transform="translate(908,164)"/>
<path d="M0 0 C-7.22558391 25.74114267 -27.25535651 51.21314235 -50.3125 64.4375 C-54.78434971 66.92532348 -59.28030548 69.04392889 -64 71 C-62.39619819 67.2636705 -60.02924792 64.55690473 -57.375 61.5 C-52.37515538 55.65250688 -48.12607256 49.50029308 -44 43 C-44.78375 43.66 -45.5675 44.32 -46.375 45 C-49 47 -49 47 -51 47 C-51.27328125 47.59554687 -51.5465625 48.19109375 -51.828125 48.8046875 C-52.96075016 50.92647198 -54.11662872 52.37746836 -55.75 54.125 C-59.00424154 57.78602173 -61.33415875 61.78553903 -63.703125 66.05859375 C-64.13109375 66.69925781 -64.5590625 67.33992188 -65 68 C-65.66 68 -66.32 68 -67 68 C-63.17111525 45.21346637 -53.38357886 27.45092872 -35 13 C-25.21521947 6.06706505 -12.19655974 0 0 0 Z " fill="#CF831F" transform="translate(293,164)"/>
<path d="M0 0 C5.9952104 4.67432322 11.37250961 9.96461749 16 16 C15.34 16.33 14.68 16.66 14 17 C11.75 16.109375 11.75 16.109375 9 14.75 C0.75832482 10.87662785 -6.92896538 8.73153505 -16 8 C-5.88242439 12.66595008 4.26384921 16.06250596 15 19 C15 19.66 15 20.32 15 21 C-12.80446508 26.1211969 -40.76973155 19.86908465 -64 4 C-65.3684471 2.70273052 -66.71405081 1.37909037 -68 0 C-47.25266382 -12.16911064 -20.53107224 -13.14941096 0 0 Z " fill="#D18620" transform="translate(971,247)"/>
<path d="M0 0 C-4.06522684 4.57133941 -8.46290681 7.21168959 -13.875 10 C-14.71417969 10.43570312 -15.55335938 10.87140625 -16.41796875 11.3203125 C-31.70157248 19.06647888 -46.6786246 22.36706075 -63.8125 22.1875 C-65.59430664 22.1865332 -65.59430664 22.1865332 -67.41210938 22.18554688 C-72.74166965 22.158645 -77.74862478 21.98172562 -83 21 C-83 20.34 -83 19.68 -83 19 C-82.45174561 18.84442627 -81.90349121 18.68885254 -81.33862305 18.52856445 C-66.3002877 14.24661943 -66.3002877 14.24661943 -52 8 C-60.19872447 8.8990418 -67.40191272 10.61925079 -75.02734375 13.78125 C-77.98312894 14.99308309 -80.96000423 16.02140226 -84 17 C-77.28850994 5.09856886 -65.11381852 -3.61990736 -52.09765625 -7.52734375 C-34.30833011 -11.5357394 -15.7858215 -9.25899146 0 0 Z " fill="#C57416" transform="translate(298,247)"/>
<path d="M0 0 C-1.33934914 3.02666644 -2.76201946 5.00771524 -5.25 7.1875 C-5.81203125 7.69667969 -6.3740625 8.20585938 -6.953125 8.73046875 C-11.43648535 11.51117889 -16.48485434 11.0460793 -21.56982422 10.88232422 C-38.82286174 10.38660705 -51.69929847 16.39490468 -66.84033203 24.03198242 C-74.62705924 27.52218968 -85.86493079 27.34712205 -94.0078125 25.2109375 C-96.12881596 24.26906817 -98.04344824 23.24303862 -100 22 C-101.010625 21.46375 -102.02125 20.9275 -103.0625 20.375 C-103.701875 19.92125 -104.34125 19.4675 -105 19 C-105 18.34 -105 17.68 -105 17 C-98.67329195 14.34392257 -93.45690377 12.63399562 -86.5625 13.5 C-75.28032817 14.73877448 -66.35577046 9.76088864 -56.5 4.9375 C-37.93794496 -4.0952931 -19.92474099 -5.46061417 0 0 Z " fill="#CF801A" transform="translate(652,977)"/>
<path d="M0 0 C2.18776762 1.9313886 4.30677479 3.89879747 6.375 5.95703125 C3.23288716 9.09914409 -0.34651746 8.69703368 -4.64453125 9 C-8.33085848 8.94685505 -10.53436491 7.91694619 -13.625 5.95703125 C-26.00003885 2.46663568 -37.37657386 8.78880558 -48.25 14.08203125 C-66.07313932 22.72603417 -84.29691434 23.4999864 -103.625 19.95703125 C-102.31711652 16.0333808 -101.04119923 13.37800386 -97.625 10.95703125 C-94.77103415 10.7388747 -92.26844163 10.72837643 -89.4375 10.89453125 C-73.61061899 11.3066395 -60.76775756 7.87685408 -46.625 0.95703125 C-31.30335743 -6.48394307 -14.93426923 -11.62295061 0 0 Z " fill="#CE7F19" transform="translate(652.625,933.04296875)"/>
<path d="M0 0 C2.93835653 8.81506959 2.01547795 21.1648101 -1.67578125 29.609375 C-6.83262741 38.91907958 -13.74293685 45.77675951 -23.82104492 49.38916016 C-27.44541265 50.4052014 -30.94026359 50.53058802 -34.6875 50.5 C-35.46770508 50.49718018 -36.24791016 50.49436035 -37.05175781 50.49145508 C-46.73832134 50.22436963 -54.48963542 46.29295018 -63 42 C-59.3909076 37.71721036 -54.31747915 36.95999624 -49 36 C-45.4375 36.25 -45.4375 36.25 -42 37 C-32.87889246 38.78011253 -26.11574183 37.00271803 -18.125 32.3125 C-11.60250145 25.21448687 -9.82956675 18.14849556 -9.9375 8.75 C-9.94201172 8.00492188 -9.94652344 7.25984375 -9.95117188 6.4921875 C-9.96290754 4.6614236 -9.9808415 2.83070127 -10 1 C-6.58093768 0.27021695 -3.50129871 -0.10003711 0 0 Z " fill="#C1711A" transform="translate(666,953)"/>
<path d="M0 0 C-3.07568654 3.07568654 -6.81641475 4.0214665 -11 5 C-14.43038154 4.79417711 -17.15394096 3.95241825 -20.4375 2.9375 C-28.93692825 0.70080835 -35.54573096 2.81653478 -43.1875 6.5625 C-47.95130572 10.69113162 -51.93637674 16.6793882 -53 23 C-53.31668162 29.08214987 -53.06538011 35.00723687 -52 41 C-55.3 41.99 -58.6 42.98 -62 44 C-65.59961856 34.94335971 -65.47533451 23.08557711 -62.375 13.875 C-58.24280168 4.40719122 -51.58431056 -3.26095054 -42 -7.3125 C-26.67897914 -12.84189099 -13.36862792 -8.20347622 0 0 Z " fill="#C67619" transform="translate(598,936)"/>
<path d="M0 0 C-0.07456289 20.8403266 -6.17008796 46.55175216 -18 64 C-18.33 64 -18.66 64 -19 64 C-19.33 48.16 -19.66 32.32 -20 16 C-21.98 16.99 -21.98 16.99 -24 18 C-7.125 0 -7.125 0 0 0 Z " fill="#F2D168" transform="translate(1150,529)"/>
<path d="M0 0 C3.24894354 1.51166123 6.07880348 3.36683478 9 5.4375 C9.845625 6.03433594 10.69125 6.63117187 11.5625 7.24609375 C12.366875 7.82488281 13.17125 8.40367187 14 9 C14.7028009 9.43705765 15.40560181 9.8741153 16.12969971 10.32441711 C18 12 18 12 18.4430542 14.10710144 C18.41640686 14.91762466 18.38975952 15.72814789 18.36230469 16.56323242 C18.34198181 17.48396042 18.32165894 18.40468842 18.30072021 19.35331726 C18.23694183 20.83938225 18.23694183 20.83938225 18.171875 22.35546875 C18.13009125 23.88062859 18.13009125 23.88062859 18.08746338 25.43659973 C17.9940077 28.68780552 17.87234258 31.93726536 17.75 35.1875 C17.68173558 37.38991715 17.61530625 39.592392 17.55078125 41.79492188 C17.38848457 47.19746481 17.20301192 52.59884214 17 58 C16.01 58.495 16.01 58.495 15 59 C6.81929956 40.41693682 0.0734266 20.52273478 0 0 Z " fill="#F2D168" transform="translate(51,529)"/>
<path d="M0 0 C0.84329993 3.8728998 1.67285999 7.74861953 2.5 11.625 C2.73847656 12.71941406 2.97695313 13.81382812 3.22265625 14.94140625 C3.44824219 16.00488281 3.67382812 17.06835938 3.90625 18.1640625 C4.11572266 19.13811035 4.32519531 20.1121582 4.54101562 21.11572266 C5.01976189 24.12418453 5.07888771 26.95887878 5 30 C-2.02409367 29.10264883 -8.61447821 27.29335245 -15.3125 25.0625 C-16.07675293 24.80968262 -16.84100586 24.55686523 -17.62841797 24.29638672 C-21.93973398 22.82788297 -25.9681257 21.14734164 -30 19 C-30 18.34 -30 17.68 -30 17 C-28.61401367 15.85839844 -28.61401367 15.85839844 -26.66796875 14.609375 C-25.60074585 13.91968628 -25.60074585 13.91968628 -24.51196289 13.21606445 C-23.74489014 12.73226318 -22.97781738 12.24846191 -22.1875 11.75 C-21.03012329 11.01172974 -21.03012329 11.01172974 -19.84936523 10.25854492 C-3.63217315 0 -3.63217315 0 0 0 Z " fill="#F2D167" transform="translate(300,939)"/>
<path d="M0 0 C4.95621622 1.43128825 8.96454293 3.56461174 13.3125 6.25 C13.96677979 6.64823975 14.62105957 7.04647949 15.29516602 7.45678711 C20.28239317 10.51017893 25.18877714 13.6751712 30 17 C29 20 29 20 27.33276367 20.93554688 C26.26119019 21.32323242 26.26119019 21.32323242 25.16796875 21.71875 C23.9778418 22.15562134 23.9778418 22.15562134 22.76367188 22.60131836 C21.91353516 22.8978833 21.06339844 23.19444824 20.1875 23.5 C19.32833984 23.80752197 18.46917969 24.11504395 17.58398438 24.43188477 C1.75397082 30 1.75397082 30 -5 30 C-4.33951685 23.22135711 -3.25308378 16.61769044 -1.9375 9.9375 C-1.75123047 8.97650391 -1.56496094 8.01550781 -1.37304688 7.02539062 C-0.91854438 4.68295469 -0.46081098 2.34120156 0 0 Z " fill="#F2D167" transform="translate(901,939)"/>
<path d="M0 0 C14.68590125 1.12968471 14.68590125 1.12968471 21 3.375 C22.216875 3.79523438 23.43375 4.21546875 24.6875 4.6484375 C27.68339154 5.87081778 30.28980054 7.2445299 33 9 C28.86069485 13.69457779 24.2881477 16.29092441 18.75 19.125 C17.94175781 19.55425781 17.13351562 19.98351562 16.30078125 20.42578125 C10.85771281 23.25617684 5.99571052 25.00142983 0 27 C0 18.09 0 9.18 0 0 Z " fill="#EFB336" transform="translate(265,238)"/>
<path d="M0 0 C0.66 0.33 1.32 0.66 2 1 C3.37081142 8.10407929 3.11399295 15.29098734 3.0625 22.5 C3.05798828 23.70398438 3.05347656 24.90796875 3.04882812 26.1484375 C3.0371195 29.09901073 3.02071995 32.04947859 3 35 C-0.26921876 35 -1.91464139 34.32815649 -4.88671875 33.03125 C-5.82451172 32.62519531 -6.76230469 32.21914063 -7.72851562 31.80078125 C-8.70498047 31.37152344 -9.68144531 30.94226563 -10.6875 30.5 C-11.67556641 30.07074219 -12.66363281 29.64148438 -13.68164062 29.19921875 C-16.12325102 28.13764901 -18.56254741 27.07107383 -21 26 C-22.98 27.65 -24.96 29.3 -27 31 C-25.36813715 27.21045182 -22.90202305 24.23656235 -20.25 21.125 C-19.77844482 20.56852783 -19.30688965 20.01205566 -18.82104492 19.4387207 C-12.92324703 12.59460947 -6.46866344 6.29868396 0 0 Z " fill="#F2D167" transform="translate(827,754)"/>
<path d="M0 0 C4.61433823 3.77536765 8.90480665 7.7954081 13.125 12 C13.87861816 12.74685059 13.87861816 12.74685059 14.64746094 13.50878906 C17.97764298 16.85210791 21.02416604 20.33743513 24 24 C23 26 23 26 20.44921875 26.8984375 C19.31097656 27.26195312 18.17273438 27.62546875 17 28 C13.51848264 29.45770493 10.09096687 31.04082293 6.65820312 32.609375 C1.31947545 35 1.31947545 35 -2 35 C-2.02926019 30.83334831 -2.04688594 26.66672341 -2.0625 22.5 C-2.07087891 21.32695313 -2.07925781 20.15390625 -2.08789062 18.9453125 C-2.10494905 12.87251223 -2.03984134 6.99181301 -1 1 C-0.67 0.67 -0.34 0.34 0 0 Z " fill="#F2D167" transform="translate(373,754)"/>
<path d="M0 0 C5.56472574 0.56002831 9.9267939 2.6345243 14.875 5.0625 C16.050625 5.62807617 16.050625 5.62807617 17.25 6.20507812 C19.16995053 7.12993234 21.085439 8.06403978 23 9 C22.67 9.99 22.34 10.98 22 12 C21.8470353 14.51054905 21.74304822 16.99888525 21.68359375 19.51171875 C21.66281265 20.23994339 21.64203156 20.96816803 21.62062073 21.71846008 C21.55531254 24.04137875 21.49632763 26.36440906 21.4375 28.6875 C21.39429695 30.26368335 21.35068208 31.83985548 21.30664062 33.41601562 C21.1996504 37.27722975 21.09833039 41.13855603 21 45 C16.98925883 41.19837713 14.71787739 37.29613856 12.1875 32.4375 C11.7538916 31.60992188 11.3202832 30.78234375 10.87353516 29.9296875 C0 8.64019674 0 8.64019674 0 0 Z " fill="#F2D168" transform="translate(55,623)"/>
<path d="M0 0 C0.65597672 0.00141495 1.31195343 0.0028299 1.98780823 0.00428772 C4.05572327 0.00982594 6.12352467 0.02236623 8.19140625 0.03515625 C9.60481613 0.04017926 11.01822773 0.04474075 12.43164062 0.04882812 C15.87243193 0.05977499 19.31315797 0.07699587 22.75390625 0.09765625 C22.75390625 0.42765625 22.75390625 0.75765625 22.75390625 1.09765625 C20.11390625 1.42765625 17.47390625 1.75765625 14.75390625 2.09765625 C14.42390625 10.67765625 14.09390625 19.25765625 13.75390625 28.09765625 C8.22700985 28.09765625 4.58521615 22.77226387 0.75390625 19.09765625 C0.19155273 18.56253418 -0.37080078 18.02741211 -0.95019531 17.47607422 C-2.72650007 15.77757454 -4.48840918 14.06540458 -6.24609375 12.34765625 C-6.80989746 11.80536377 -7.37370117 11.26307129 -7.95458984 10.7043457 C-10.98037213 7.70297231 -13.00441723 5.28831449 -14.24609375 1.09765625 C-9.44614172 0.31964944 -4.86047311 -0.0208604 0 0 Z " fill="#F2D067" transform="translate(140.24609375,799.90234375)"/>
<path d="M0 0 C-1.98340581 12.12081331 -7.51205519 23.51119289 -13.1875 34.3125 C-13.50799316 34.92818848 -13.82848633 35.54387695 -14.15869141 36.17822266 C-16.14335636 39.84151089 -17.95844598 41.95844598 -21 45 C-21 32.79 -21 20.58 -21 8 C-18.091875 6.68 -15.18375 5.36 -12.1875 4 C-10.81887817 3.37351562 -10.81887817 3.37351562 -9.42260742 2.734375 C-8.69920166 2.40953125 -7.9757959 2.0846875 -7.23046875 1.75 C-6.49207764 1.41484375 -5.75368652 1.0796875 -4.99291992 0.734375 C-3 0 -3 0 0 0 Z " fill="#F2D168" transform="translate(1146,623)"/>
<path d="M0 0 C4.14428309 -0.02488484 8.28852554 -0.04294686 12.43286133 -0.05493164 C13.84009561 -0.0599327 15.24732477 -0.0667357 16.65454102 -0.07543945 C18.68767569 -0.08769159 20.72074114 -0.0932707 22.75390625 -0.09765625 C23.97408447 -0.10289307 25.1942627 -0.10812988 26.45141602 -0.11352539 C30.03512057 0.00112357 33.46312255 0.42672037 37 1 C35.61680073 5.20034461 33.7247314 7.65023721 30.60546875 10.7578125 C29.29545898 12.06685547 29.29545898 12.06685547 27.95898438 13.40234375 C26.58709961 14.75005859 26.58709961 14.75005859 25.1875 16.125 C23.83301758 17.48431641 23.83301758 17.48431641 22.45117188 18.87109375 C18.48641784 22.80380349 14.91221962 26.27819541 10 29 C9 28 9 28 8.88647461 25.40795898 C8.89171143 24.28204346 8.89694824 23.15612793 8.90234375 21.99609375 C8.90556641 20.78115234 8.90878906 19.56621094 8.91210938 18.31445312 C8.92048828 17.03505859 8.92886719 15.75566406 8.9375 14.4375 C8.94201172 13.15423828 8.94652344 11.87097656 8.95117188 10.54882812 C8.96300455 7.36583978 8.97948932 4.18294238 9 1 C6.03 1 3.06 1 0 1 C0 0.67 0 0.34 0 0 Z " fill="#F2D066" transform="translate(1038,800)"/>
<path d="M0 0 C22.2095672 6.51480638 22.2095672 6.51480638 30 10 C22.53084255 17.95237466 12.0282415 23.76901778 2 28 C1.34 28 0.68 28 0 28 C0 18.76 0 9.52 0 0 Z " fill="#F2D066" transform="translate(980,877)"/>
<path d="M0 0 C0 9.24 0 18.48 0 28 C-4.75343741 26.41552086 -8.93638324 24.6571885 -13.3125 22.3125 C-13.96677979 21.96380859 -14.62105957 21.61511719 -15.29516602 21.25585938 C-20.62414027 18.34639595 -25.40747795 14.98267495 -30 11 C-26.89358051 8.39424206 -24.03266834 7.16487876 -20.17578125 5.95703125 C-18.50999023 5.43012695 -18.50999023 5.43012695 -16.81054688 4.89257812 C-15.65619141 4.53615234 -14.50183594 4.17972656 -13.3125 3.8125 C-12.14654297 3.44447266 -10.98058594 3.07644531 -9.77929688 2.69726562 C-1.18707966 0 -1.18707966 0 0 0 Z " fill="#F2D167" transform="translate(221,877)"/>
<path d="M0 0 C9.14034937 0.47449901 17.99592496 1.2729614 27 3 C26.67 3.66 26.34 4.32 26 5 C25.91426606 7.25120742 25.89287812 9.50499303 25.90234375 11.7578125 C25.90446617 12.75238968 25.90446617 12.75238968 25.90663147 13.76705933 C25.91223246 15.88641863 25.924785 18.00567259 25.9375 20.125 C25.94251488 21.56119639 25.94707781 22.99739444 25.95117188 24.43359375 C25.96220218 27.95576345 25.97946741 31.47787145 26 35 C21.6017166 31.54190603 18.0916164 27.99128983 14.6875 23.5625 C13.98790161 22.66192871 13.98790161 22.66192871 13.27416992 21.74316406 C9.92786295 17.36927785 6.8042956 12.8728048 3.8125 8.25 C3.42602295 7.65388916 3.0395459 7.05777832 2.64135742 6.44360352 C0 2.25967875 0 2.25967875 0 0 Z " fill="#F2D167" transform="translate(81,719)"/>
<path d="M0 0 C-1.34543866 4.80307134 -3.44870716 8.51743414 -6.375 12.5 C-7.02178711 13.39271606 -7.02178711 13.39271606 -7.68164062 14.3034668 C-21.12953206 32.56476603 -21.12953206 32.56476603 -26 35 C-25.67 24.77 -25.34 14.54 -25 4 C-25.66 3.67 -26.32 3.34 -27 3 C-23.62601911 2.49295891 -20.25067379 1.99563464 -16.875 1.5 C-15.92367188 1.35691406 -14.97234375 1.21382812 -13.9921875 1.06640625 C-9.28805294 0.38038663 -4.7695743 -0.19271007 0 0 Z " fill="#F2D066" transform="translate(1120,719)"/>
<path d="M0 0 C0.66 0 1.32 0 2 0 C3.70549136 2.57483917 5.27813748 5.13761901 6.8125 7.8125 C7.26028809 8.58480957 7.70807617 9.35711914 8.16943359 10.15283203 C17 25.56857892 17 25.56857892 17 31 C16.10539063 30.9278125 15.21078125 30.855625 14.2890625 30.78125 C2.42021867 29.04897282 2.42021867 29.04897282 -9 31 C-8.05168565 23.72413987 -6.14622577 16.85099029 -3.9375 9.875 C-3.6679248 9.02123779 -3.39834961 8.16747559 -3.12060547 7.2878418 C-1.13656173 1.13656173 -1.13656173 1.13656173 0 0 Z " fill="#F2D167" transform="translate(919,680)"/>
<path d="M0 0 C3 1 3 1 3.85961914 2.68310547 C4.08254639 3.40385254 4.30547363 4.12459961 4.53515625 4.8671875 C4.7863623 5.66600342 5.03756836 6.46481934 5.29638672 7.2878418 C5.5492041 8.141604 5.80202148 8.99536621 6.0625 9.875 C6.32562988 10.73456299 6.58875977 11.59412598 6.85986328 12.47973633 C8.68765286 18.58404803 10.17526787 24.67231382 11 31 C10.67 30.34 10.34 29.68 10 29 C-2.375 29.99 -2.375 29.99 -15 31 C-14.04824446 26.24122231 -12.49376807 22.56637518 -10.3125 18.3125 C-9.95671875 17.60931641 -9.6009375 16.90613281 -9.234375 16.18164062 C-6.39883216 10.63759539 -3.33747229 5.25904725 0 0 Z " fill="#F2D167" transform="translate(280,680)"/>
<path d="M0 0 C3.55238262 1.18412754 3.91666625 1.98827859 5.84765625 5.078125 C6.37037109 5.90957031 6.89308594 6.74101563 7.43164062 7.59765625 C8.23891602 8.91056641 8.23891602 8.91056641 9.0625 10.25 C9.60455078 11.10980469 10.14660156 11.96960938 10.70507812 12.85546875 C13.226425 16.90084359 15.21371296 20.5342824 17 25 C9.08 26.98 1.16 28.96 -7 31 C-5.87100051 18.58100559 -5.87100051 18.58100559 -4.0625 12.125 C-3.72347656 10.89007812 -3.38445312 9.65515625 -3.03515625 8.3828125 C-2.15546823 5.50805843 -1.17247935 2.7655791 0 0 Z " fill="#F2D168" transform="translate(319,718)"/>
<path d="M0 0 C0.66 0 1.32 0 2 0 C9.13709091 22.20125608 9.13709091 22.20125608 9 31 C7.9378125 30.72285156 6.875625 30.44570313 5.78125 30.16015625 C4.35423263 29.79401364 2.92714552 29.42814278 1.5 29.0625 C0.80390625 28.88009766 0.1078125 28.69769531 -0.609375 28.50976562 C-5.39837494 27.29034434 -10.08537471 26.52577635 -15 26 C-13.52011402 20.6657217 -11.02378937 16.48145013 -8.0625 11.875 C-7.39831055 10.82119141 -7.39831055 10.82119141 -6.72070312 9.74609375 C-2.00414073 2.30924872 -2.00414073 2.30924872 0 0 Z " fill="#F2D067" transform="translate(880,718)"/>
<path d="M0 0 C0.66 0 1.32 0 2 0 C5.03792125 11.24030861 7.3962341 22.31109393 7 34 C6.67 34 6.34 34 6 34 C6 31.69 6 29.38 6 27 C2.3754207 26.80367975 -1.24967267 26.61944022 -4.875 26.4375 C-5.90753906 26.38142578 -6.94007813 26.32535156 -8.00390625 26.26757812 C-8.99003906 26.21923828 -9.97617188 26.17089844 -10.9921875 26.12109375 C-11.90339355 26.0739624 -12.81459961 26.02683105 -13.75341797 25.97827148 C-16.03774423 25.83614613 -16.03774423 25.83614613 -18 27 C-16.59881412 21.88567152 -14.35552153 18.25633022 -11.25 14.0625 C-10.80333984 13.45003418 -10.35667969 12.83756836 -9.89648438 12.20654297 C-6.77772818 7.96507968 -3.63498304 3.81673219 0 0 Z " fill="#F2D168" transform="translate(242,631)"/>
<path d="M0 0 C4.21156688 1.53678422 6.36094153 4.64659703 8.9375 8.125 C9.37626465 8.70741455 9.8150293 9.2898291 10.26708984 9.88989258 C19 21.59484587 19 21.59484587 19 25 C16.36512838 25.87829054 14.28547977 26.25985103 11.55078125 26.53515625 C10.70322266 26.62216797 9.85566406 26.70917969 8.98242188 26.79882812 C8.10134766 26.88583984 7.22027344 26.97285156 6.3125 27.0625 C5.41982422 27.15337891 4.52714844 27.24425781 3.60742188 27.33789062 C1.40523735 27.56164199 -0.79721768 27.78222601 -3 28 C-3.33 29.98 -3.66 31.96 -4 34 C-4.33 34 -4.66 34 -5 34 C-5.23262118 26.78874332 -4.3657434 20.1469131 -3.0625 13.0625 C-2.78889648 11.50305664 -2.78889648 11.50305664 -2.50976562 9.91210938 C-1.1465853 2.29317059 -1.1465853 2.29317059 0 0 Z " fill="#F2D167" transform="translate(957,631)"/>
<path d="M0 0 C5.81780667 0.53362433 10.70446629 1.73394141 16.125 3.875 C16.80175781 4.13152344 17.47851562 4.38804687 18.17578125 4.65234375 C22.24174443 6.21738567 26.13036066 7.98682315 30 10 C29.01 10.7734375 29.01 10.7734375 28 11.5625 C18.64752314 18.97143617 18.64752314 18.97143617 11 28 C2.2938248 9.01598851 2.2938248 9.01598851 0 0 Z " fill="#F2D168" transform="translate(984,476)"/>
<path d="M0 0 C-1.25747914 3.44253356 -2.53324575 6.87800479 -3.8125 10.3125 C-4.16892578 11.28896484 -4.52535156 12.26542969 -4.89257812 13.27148438 C-5.41948242 14.67817383 -5.41948242 14.67817383 -5.95703125 16.11328125 C-6.27647705 16.97735596 -6.59592285 17.84143066 -6.92504883 18.73168945 C-8.00892105 21.01882477 -9.10484234 22.3502924 -11 24 C-11.73605469 23.39671875 -12.47210938 22.7934375 -13.23046875 22.171875 C-14.20628906 21.37265625 -15.18210938 20.5734375 -16.1875 19.75 C-17.15042969 18.96109375 -18.11335937 18.1721875 -19.10546875 17.359375 C-24.42080485 13.00277601 -24.42080485 13.00277601 -30 9 C-6.28095502 -1.74125486 -6.28095502 -1.74125486 0 0 Z " fill="#F2D168" transform="translate(217,477)"/>
<path d="M0 0 C10.1409683 0.98936276 19.34731558 2.59511474 29 6 C24.88170392 10.92186605 20.5827377 15.51142814 16 20 C14.66548829 21.33215391 13.33187852 22.66521344 12 24 C10.36165572 21.32042701 8.74187869 18.63007071 7.125 15.9375 C6.66480469 15.18533203 6.20460938 14.43316406 5.73046875 13.65820312 C3.04033204 9.1551482 1.18225775 5.11632234 0 0 Z " fill="#F2D168" transform="translate(977,421)"/>
<path d="M0 0 C-2.1895034 8.07379378 -5.90470229 15.35351287 -11 22 C-14 22 -14 22 -15.44213867 20.83837891 C-16.17267456 20.04052979 -16.17267456 20.04052979 -16.91796875 19.2265625 C-17.44970703 18.6490625 -17.98144531 18.0715625 -18.52929688 17.4765625 C-19.07650391 16.86554688 -19.62371094 16.25453125 -20.1875 15.625 C-20.74630859 15.02171875 -21.30511719 14.4184375 -21.88085938 13.796875 C-26 9.27034684 -26 9.27034684 -26 7 C-26.99 6.67 -27.98 6.34 -29 6 C-19.51959875 2.85006023 -10.0650656 0 0 0 Z " fill="#F2D168" transform="translate(224,421)"/>
<path d="M0 0 C4.289086 3.93423356 7.23369122 8.16705533 10.25 13.125 C10.69601563 13.84042969 11.14203125 14.55585938 11.6015625 15.29296875 C13.39979881 18.20829125 14.91126554 20.73379663 16 24 C9.40620337 26.29561809 2.75052102 28.22089072 -4 30 C-4.53407309 20.84163555 -4.19519224 8.39038448 0 0 Z " fill="#F2D168" transform="translate(106,309)"/>
<path d="M0 0 C2.86248389 2.86248389 2.98074442 6.14722811 3.625 10 C3.75688721 10.76368896 3.88877441 11.52737793 4.0246582 12.31420898 C4.94603071 17.94190701 5.27182943 23.29158195 5 29 C-1.86036401 28.34034961 -8.34443923 26.7637236 -15 25 C-12.17386064 15.55182822 -6.01809748 7.69346528 0 0 Z " fill="#F2D168" transform="translate(1094,309)"/>
<path d="M0 0 C0.09579384 8.07861415 0.12513633 15.98340366 -1 24 C-7.95776959 22.63125844 -14.38603107 20.5466871 -21 18 C-21 15 -21 15 -19.3828125 13.203125 C-4.12 0 -4.12 0 0 0 Z M-25 19 C-25 19.99 -25 20.98 -25 22 C-25.99 22.495 -25.99 22.495 -27 23 C-26.34 21.68 -25.68 20.36 -25 19 Z " fill="#F2D067" transform="translate(224,583)"/>
<path d="M0 0 C4.13846238 4.13846238 3.05162974 11.98641572 3.09765625 17.5703125 C3.09113657 19.42190061 3.07940294 21.27347757 3.0625 23.125 C3.05798828 24.08148438 3.05347656 25.03796875 3.04882812 26.0234375 C3.03720017 28.34902758 3.02086102 30.6744776 3 33 C2.67 33 2.34 33 2 33 C2 31.02 2 29.04 2 27 C1.278125 26.88011719 0.55625 26.76023437 -0.1875 26.63671875 C-3.87888348 25.80103054 -7.08181313 24.24146543 -10.5 22.64453125 C-13.66510919 21.82852654 -15.14108534 22.54501665 -18 24 C-16.59181852 19.8648639 -14.61559254 17.02129853 -11.8125 13.6875 C-11.01585937 12.73617188 -10.21921875 11.78484375 -9.3984375 10.8046875 C-6.29551763 7.17619163 -3.17635569 3.56446346 0 0 Z " fill="#F2D066" transform="translate(1119,375)"/>
<path d="M0 0 C4.71626167 3.65965112 8.27714031 7.56586717 11.875 12.3125 C12.37257813 12.95767578 12.87015625 13.60285156 13.3828125 14.26757812 C14.59451851 15.84046574 15.79811973 17.4195916 17 19 C15.42018469 22.15963062 12.19752013 22.74474912 9.0625 24 C4.15179208 25.86880483 4.15179208 25.86880483 0 29 C-0.39764263 30.98821313 -0.73775349 32.98944339 -1 35 C-1.33 35 -1.66 35 -2 35 C-2.02946035 31.37501758 -2.04695131 27.75006668 -2.0625 24.125 C-2.07087891 23.11179687 -2.07925781 22.09859375 -2.08789062 21.0546875 C-2.1416451 4.28329021 -2.1416451 4.28329021 0 0 Z " fill="#F2D066" transform="translate(81,375)"/>
<path d="M0 0 C9.99366665 9.1022933 13.44711137 23.14041814 16 36 C16 36.66 16 37.32 16 38 C15.34 38 14.68 38 14 38 C12.48251682 35.79681715 11.0692932 33.59873965 9.6875 31.3125 C6.83976134 26.60184541 3.9567783 22.88674683 0 19 C0 18.34 0 17.68 0 17 C-0.5775 16.7525 -1.155 16.505 -1.75 16.25 C-4.3002997 14.83316683 -6.01785701 13.12372463 -8 11 C-6.63629701 8.00779732 -5.05091917 5.70973471 -2.875 3.25 C-2.33617187 2.63640625 -1.79734375 2.0228125 -1.2421875 1.390625 C-0.62730469 0.70226562 -0.62730469 0.70226562 0 0 Z " fill="#B45E12" transform="translate(959,194)"/>
<path d="M0 0 C4.77774757 1.55322212 8.24297655 4.23548562 12.125 7.3125 C13.05505859 8.0230957 13.05505859 8.0230957 14.00390625 8.74804688 C17.50028073 11.49627241 20.01961746 13.91636447 22 18 C22 18.33 22 18.66 22 19 C21.2265625 19.18175781 20.453125 19.36351562 19.65625 19.55078125 C13.5814517 21.01685262 7.7949447 22.65973387 2 25 C-1.08968504 21.91031496 -0.05700825 13.08307053 -0.06811523 9.00439453 C-0.05996047 6.0027305 -0.03559038 3.00145555 0 0 Z " fill="#F2D167" transform="translate(977,583)"/>
<path d="M0 0 C5.16192076 3.14480095 9.16943929 6.9303009 13.375 11.25 C14.01566406 11.8996875 14.65632813 12.549375 15.31640625 13.21875 C16.88229364 14.80800885 18.44328509 16.40176417 20 18 C18.29408171 21.41183658 14.39137819 22.41180574 11.0625 24 C9.5932654 24.70461989 8.1257344 25.41280608 6.66015625 26.125 C6.00668213 26.43695313 5.35320801 26.74890625 4.67993164 27.0703125 C2.81381972 28.00198017 2.81381972 28.00198017 1 30 C-0.13955862 23.67410373 -0.1142637 17.47721662 -0.0625 11.0625 C-0.05798828 9.99708984 -0.05347656 8.93167969 -0.04882812 7.83398438 C-0.03711787 5.22259709 -0.02071724 2.61132876 0 0 Z " fill="#F2D066" transform="translate(62,448)"/>
<path d="M0 0 C0.02912348 3.72915017 0.04684037 7.4582709 0.0625 11.1875 C0.07087891 12.24259766 0.07925781 13.29769531 0.08789062 14.38476562 C0.09272461 15.91713867 0.09272461 15.91713867 0.09765625 17.48046875 C0.10551147 18.88655396 0.10551147 18.88655396 0.11352539 20.32104492 C0 23 0 23 -1 28 C-7.27 25.03 -13.54 22.06 -20 19 C-16.31693567 14.70309161 -12.79115176 10.65381486 -8.8125 6.6875 C-7.97332031 5.84574219 -7.13414063 5.00398438 -6.26953125 4.13671875 C-1.87568556 0 -1.87568556 0 0 0 Z " fill="#F2D168" transform="translate(1139,448)"/>
<path d="M0 0 C2.64597388 3.22857364 5.11418377 6.53913633 7.50244141 9.96240234 C11.96119682 16.35124914 16.63224259 22.33236787 22 28 C21.67 28.66 21.34 29.32 21 30 C9.40668714 24.18989425 -0.82674759 18.33816481 -10 9 C-8.71142987 7.68445979 -7.41904109 6.37265903 -6.125 5.0625 C-5.04605469 3.96615234 -5.04605469 3.96615234 -3.9453125 2.84765625 C-2 1 -2 1 0 0 Z " fill="#B35E12" transform="translate(950,205)"/>
<path d="M0 0 C9.23015944 -0.24908976 17.91921505 0.31055164 27 2 C22.96423199 8.25322296 18.64562062 14.186102 14 20 C10.18724995 16.39041603 7.1377712 12.64709147 4.1875 8.3125 C3.78080078 7.73177734 3.37410156 7.15105469 2.95507812 6.55273438 C0 2.25669643 0 2.25669643 0 0 Z " fill="#F2D168" transform="translate(964,370)"/>
<path d="M0 0 C-1.57891849 4.66539191 -4.10388467 8.34216741 -6.9375 12.3125 C-7.38029297 12.95767578 -7.82308594 13.60285156 -8.27929688 14.26757812 C-9.4410425 15.90371764 -10.71394559 17.45965282 -12 19 C-12.99 19 -13.98 19 -15 19 C-16.87078857 16.74326922 -18.53585412 14.53296304 -20.1875 12.125 C-20.65091797 11.47402344 -21.11433594 10.82304687 -21.59179688 10.15234375 C-25 5.28348214 -25 5.28348214 -25 3 C-25.66 2.67 -26.32 2.34 -27 2 C-17.91921505 0.31055164 -9.23015944 -0.24908976 0 0 Z M-31 3 C-27 4 -27 4 -27 4 Z " fill="#F2D167" transform="translate(237,370)"/>
<path d="M0 0 C9.1570933 2.06842578 16.8913418 6.44833986 25 11 C21.12678305 14.28816124 17.10466735 16.79349086 12.6875 19.25 C12.04232422 19.61351562 11.39714844 19.97703125 10.73242188 20.3515625 C9.15718584 21.23836205 7.57890286 22.11974563 6 23 C5.18057052 20.48123707 4.36934931 17.9602933 3.5625 15.4375 C3.33240234 14.73302734 3.10230469 14.02855469 2.86523438 13.30273438 C1.45346322 8.86281638 0.52934885 4.63028129 0 0 Z " fill="#F2D167" transform="translate(985,532)"/>
<path d="M0 0 C-1.57532681 7.85428897 -3.27072787 15.46201031 -6 23 C-8.23235697 21.75543833 -10.46079662 20.5046061 -12.6875 19.25 C-13.31333984 18.90195312 -13.93917969 18.55390625 -14.58398438 18.1953125 C-18.33744549 16.07293658 -21.69859272 13.80272435 -25 11 C-22.29466468 9.53586529 -19.58599307 8.07859168 -16.875 6.625 C-16.11445313 6.2125 -15.35390625 5.8 -14.5703125 5.375 C-4.51386089 0 -4.51386089 0 0 0 Z " fill="#F2D167" transform="translate(216,532)"/>
<path d="M0 0 C3.49573083 3.82115923 4.65866775 8.41813513 6.1875 13.25 C6.46013672 14.09046875 6.73277344 14.9309375 7.01367188 15.796875 C7.68261471 17.8623827 8.34223257 19.93090634 9 22 C5.49496138 23.75251931 1.29023481 23.7043421 -2.58984375 24.07421875 C-4.40746027 24.28326237 -6.20736884 24.634073 -8 25 C-8.66 25.99 -9.32 26.98 -10 28 C-9.4203095 22.58484242 -8.08871397 17.94233996 -6.125 12.875 C-5.86847656 12.18535156 -5.61195313 11.49570313 -5.34765625 10.78515625 C-3.88400305 6.93846969 -2.25384681 3.46849479 0 0 Z " fill="#F2D067" transform="translate(171,198)"/>
<path d="M0 0 C-0.61875 0.25652344 -1.2375 0.51304687 -1.875 0.77734375 C-4.30660754 2.17641206 -4.86104149 3.04560509 -6 5.5625 C-6.48726562 6.61630859 -6.48726562 6.61630859 -6.984375 7.69140625 C-7.48710938 8.83416016 -7.48710938 8.83416016 -8 10 C-8.37640625 10.83402344 -8.7528125 11.66804688 -9.140625 12.52734375 C-10.10628207 14.67967096 -11.05867112 16.83694641 -12 19 C-17.91079564 15.42241317 -23.17456337 10.93987386 -28 6 C-28 5.34 -28 4.68 -28 4 C-18.5716813 1.46344725 -9.76594046 -0.20778597 0 0 Z " fill="#F2D168" transform="translate(954,277)"/>
<path d="M0 0 C3.38805122 2.70841221 4.60745404 6.3889955 6.125 10.3125 C6.38925781 10.96412109 6.65351562 11.61574219 6.92578125 12.28710938 C8.45819835 16.17260351 9.47343751 19.8581365 10 24 C7.37405216 23.8863485 4.74988453 23.75960946 2.125 23.625 C1.37863281 23.5940625 0.63226562 23.563125 -0.13671875 23.53125 C-5.7734375 23.2265625 -5.7734375 23.2265625 -8 21 C-6.85605153 17.87430676 -5.70952129 14.7495668 -4.5625 11.625 C-4.23701172 10.73554688 -3.91152344 9.84609375 -3.57617188 8.9296875 C-3.26357422 8.07890625 -2.95097656 7.228125 -2.62890625 6.3515625 C-2.34088135 5.56604004 -2.05285645 4.78051758 -1.75610352 3.97119141 C-1 2 -1 2 0 0 Z " fill="#F2D168" transform="translate(1029,198)"/>
<path d="M0 0 C9.69083823 0.35664252 18.64741039 1.18359518 28 4 C26.46294916 7.78218127 24.15470258 9.9369256 21.125 12.625 C20.26132812 13.40101563 19.39765625 14.17703125 18.5078125 14.9765625 C16.34829356 16.71897809 14.47932056 17.82503192 12 19 C11.55269531 17.78441406 11.10539062 16.56882812 10.64453125 15.31640625 C10.03490107 13.73136778 9.42416635 12.14675383 8.8125 10.5625 C8.52052734 9.76005859 8.22855469 8.95761719 7.92773438 8.13085938 C7.07443909 5.95633268 6.25636545 3.97035295 5 2 C2.39691943 0.8239509 2.39691943 0.8239509 0 1 C0 0.67 0 0.34 0 0 Z " fill="#F2D168" transform="translate(247,277)"/>
<path d="M0 0 C8.80479715 1.06292146 16.98136304 3.12121747 25 7 C25.33 7.66 25.66 8.32 26 9 C25.29488281 8.8865625 24.58976563 8.773125 23.86328125 8.65625 C19.76084918 9.14876572 17.85899335 11.59666811 15.1875 14.5 C14.68541016 15.02464844 14.18332031 15.54929688 13.66601562 16.08984375 C12.43237867 17.38222532 11.21458375 18.68969599 10 20 C6.56797698 17.22270137 5.08977666 13.35938189 3.3125 9.4375 C2.99216797 8.75236328 2.67183594 8.06722656 2.34179688 7.36132812 C0 2.27328758 0 2.27328758 0 0 Z " fill="#F2CD60" transform="translate(908,164)"/>
<path d="M0 0 C0.66 0 1.32 0 2 0 C3.01142195 3.22570078 4.00708653 6.45605865 5 9.6875 C5.28617188 10.59951172 5.57234375 11.51152344 5.8671875 12.45117188 C6.13789062 13.33740234 6.40859375 14.22363281 6.6875 15.13671875 C6.93886719 15.94842529 7.19023438 16.76013184 7.44921875 17.59643555 C8.03200496 20.13966705 8.09712888 22.39977907 8 25 C7.67 24.34 7.34 23.68 7 23 C1.39 22.67 -4.22 22.34 -10 22 C-7.75 15.25 -7.75 15.25 -6.0546875 11.9140625 C-5.70019531 11.21152344 -5.34570312 10.50898438 -4.98046875 9.78515625 C-4.61566406 9.07230469 -4.25085937 8.35945313 -3.875 7.625 C-3.50246094 6.88894531 -3.12992188 6.15289062 -2.74609375 5.39453125 C-1.8343878 3.59449642 -0.91770068 1.79698598 0 0 Z " fill="#F2D067" transform="translate(1063,250)"/>
<path d="M0 0 C0.66 0 1.32 0 2 0 C5.3 6.6 8.6 13.2 12 20 C7.10698646 22.44650677 3.19166787 22.41638853 -2.19921875 22.65625 C-3.12347656 22.7696875 -4.04773438 22.883125 -5 23 C-5.33 23.66 -5.66 24.32 -6 25 C-5.52897524 16.20753786 -2.75783166 8.29384797 0 0 Z " fill="#F2D168" transform="translate(136,250)"/>
<path d="M0 0 C4.43645088 3.93919544 6.79947166 7.97648726 9.3125 13.3125 C9.67150391 14.05306641 10.03050781 14.79363281 10.40039062 15.55664062 C11.27619585 17.36663808 12.13940791 19.18271993 13 21 C7.72 21.66 2.44 22.32 -3 23 C-3.33 24.98 -3.66 26.96 -4 29 C-4.33 29 -4.66 29 -5 29 C-4.65371382 18.88844352 -2.67531402 9.69334708 0 0 Z " fill="#F2D167" transform="translate(989,152)"/>
<path d="M0 0 C2.70928069 2.70928069 2.84542048 5.01746777 3.625 8.75 C4.01558594 10.56757813 4.01558594 10.56757813 4.4140625 12.421875 C5 16 5 16 5 22 C-0.61 22 -6.22 22 -12 22 C-9.32185574 13.96556722 -5.70430808 6.36249748 0 0 Z M-13 22 C-12.67 22.99 -12.34 23.98 -12 25 C-12.66 25.66 -13.32 26.32 -14 27 C-13.67 25.35 -13.34 23.7 -13 22 Z " fill="#F2D167" transform="translate(211,152)"/>
<path d="M0 0 C0.77923828 0.00451172 1.55847656 0.00902344 2.36132812 0.01367188 C4.26175268 0.02533092 6.16213706 0.04326123 8.0625 0.0625 C6.82561165 2.36215163 5.57407929 4.65144675 4.3125 6.9375 C3.96445312 7.58847656 3.61640625 8.23945313 3.2578125 8.91015625 C1.32381556 12.38418779 -0.03757535 14.8152268 -3.9375 16.0625 C-8.90864752 12.59776082 -12.58470595 8.0675355 -15.9375 3.0625 C-15.9375 2.4025 -15.9375 1.7425 -15.9375 1.0625 C-10.57260405 0.15766363 -5.43432543 -0.06053662 0 0 Z " fill="#F2D168" transform="translate(962.9375,321.9375)"/>
<path d="M0 0 C2.68756955 -0.02720824 5.37485798 -0.0469388 8.0625 -0.0625 C8.81466797 -0.07087891 9.56683594 -0.07925781 10.34179688 -0.08789062 C15.00633118 -0.10808341 19.39923173 0.22404041 24 1 C22.58319756 5.32046898 20.46236215 8.00461199 17.375 11.3125 C16.14910156 12.63701172 16.14910156 12.63701172 14.8984375 13.98828125 C14.27195313 14.65214844 13.64546875 15.31601562 13 16 C11.234375 15.87109375 11.234375 15.87109375 9 15 C7.078125 12.34765625 7.078125 12.34765625 5.25 9.0625 C4.63640625 7.98097656 4.0228125 6.89945312 3.390625 5.78515625 C2 3 2 3 2 1 C1.34 0.67 0.68 0.34 0 0 Z " fill="#F2D168" transform="translate(230,322)"/>
<path d="M0 0 C6.9113364 0.47122748 12.72204161 3.20636006 19 6 C19 6.99 19 7.98 19 9 C16.93579754 10.53323709 14.95787587 11.83431453 12.75 13.125 C12.16347656 13.48464844 11.57695312 13.84429687 10.97265625 14.21484375 C7.92468454 16.04362677 5.48554114 17.12861472 2 18 C2 12.39 2 6.78 2 1 C1.34 0.67 0.68 0.34 0 0 Z " fill="#F2CF65" transform="translate(278,240)"/>
<path d="M0 0 C-1.8331267 5.99932374 -4.07321751 11.44920563 -7 17 C-7.33 16.34 -7.66 15.68 -8 15 C-8.70125 14.773125 -9.4025 14.54625 -10.125 14.3125 C-14.27109929 12.41971554 -16.93086727 9.30794132 -20 6 C-17.27216889 3.27216889 -14.19456312 2.7975372 -10.5625 1.875 C-9.88123047 1.69324219 -9.19996094 1.51148438 -8.49804688 1.32421875 C-5.58344292 0.56488021 -3.02438796 0 0 0 Z " fill="#F2D066" transform="translate(293,164)"/>
<path d="M0 0 C-0.99 0.33 -1.98 0.66 -3 1 C-3.04898438 1.99902344 -3.09796875 2.99804688 -3.1484375 4.02734375 C-3.22320313 5.31769531 -3.29796875 6.60804688 -3.375 7.9375 C-3.44460938 9.22527344 -3.51421875 10.51304687 -3.5859375 11.83984375 C-3.72257813 12.88269531 -3.85921875 13.92554688 -4 15 C-4.66 15.33 -5.32 15.66 -6 16 C-8.2421875 14.92578125 -8.2421875 14.92578125 -10.875 13.3125 C-11.73867188 12.79300781 -12.60234375 12.27351562 -13.4921875 11.73828125 C-15.96403723 10.02492746 -17.94798 8.19041205 -20 6 C-4.82681941 -1.856469 -4.82681941 -1.856469 0 0 Z " fill="#F2CD5F" transform="translate(923,241)"/>
<path d="M0 0 C1.1666372 2.33327441 1.08993787 3.58236098 1.02172852 6.17431641 C1.00163223 7.03505768 0.98153595 7.89579895 0.96083069 8.78262329 C0.93379562 9.71287323 0.90676056 10.64312317 0.87890625 11.6015625 C0.85529526 12.55316254 0.83168427 13.50476257 0.80735779 14.48519897 C0.73063367 17.5319478 0.64664697 20.57844801 0.5625 23.625 C0.50928808 25.68748773 0.45654762 27.74998769 0.40429688 29.8125 C0.27500668 34.87515816 0.13920166 39.93760505 0 45 C0.99 45.33 1.98 45.66 3 46 C1.68 48.31 0.36 50.62 -1 53 C-1.33 53 -1.66 53 -2 53 C-2.33 37.16 -2.66 21.32 -3 5 C-4.98 5.99 -4.98 5.99 -7 7 C-4.66666667 4.66666667 -2.33333333 2.33333333 0 0 Z " fill="#F2C551" transform="translate(1133,540)"/>
<path d="M0 0 C3.465 1.485 3.465 1.485 7 3 C5 4 5 4 3.203125 4.24609375 C-0.09128211 5.37343519 -1.85657621 7.57459896 -4.25 10.0625 C-5.58804688 11.44115234 -5.58804688 11.44115234 -6.953125 12.84765625 C-7.62859375 13.55792969 -8.3040625 14.26820313 -9 15 C-9.99 14.01 -10.98 13.02 -12 12 C-11.319375 11.505 -10.63875 11.01 -9.9375 10.5 C-6.21041414 7.32801203 -3.14666758 3.73610099 0 0 Z " fill="#F2C44F" transform="translate(927,169)"/>
<path d="M0 0 C0.99 0.33 1.98 0.66 3 1 C3.33 3.97 3.66 6.94 4 10 C3.67 9.34 3.34 8.68 3 8 C1.68 8 0.36 8 -1 8 C-1.33 8.66 -1.66 9.32 -2 10 C-4.0625 11.125 -4.0625 11.125 -6 12 C-4.68139111 7.38486888 -2.78644563 3.90102388 0 0 Z " fill="#F1DB7D" transform="translate(280,680)"/>
<path d="M0 0 C3.63 0.66 7.26 1.32 11 2 C6.5078125 7.46875 6.5078125 7.46875 5 9 C4.34 9 3.68 9 3 9 C2.01 6.03 1.02 3.06 0 0 Z " fill="#F1D775" transform="translate(908,164)"/>
<path d="M0 0 C3.3 0.33 6.6 0.66 10 1 C8.38262276 4.23475448 7.52370777 5.70572021 5 8 C4.01 7.67 3.02 7.34 2 7 C0.8125 3.4375 0.8125 3.4375 0 0 Z " fill="#F1DD80" transform="translate(977,421)"/>
<path d="M0 0 C4.875 4.625 4.875 4.625 6 8 C3.33333333 9.33333333 0.66666667 10.66666667 -2 12 C-1.85904936 10.3745692 -1.71207913 8.74965949 -1.5625 7.125 C-1.48128906 6.22007812 -1.40007812 5.31515625 -1.31640625 4.3828125 C-1 2 -1 2 0 0 Z " fill="#F1DB7D" transform="translate(106,309)"/>
<path d="M0 0 C0.66 0 1.32 0 2 0 C6.09030544 5.14209827 6.09030544 5.14209827 5.75 8.375 C5.5025 8.91125 5.255 9.4475 5 10 C2.69 9.34 0.38 8.68 -2 8 C-1.125 1.125 -1.125 1.125 0 0 Z " fill="#F1DC7E" transform="translate(919,680)"/>
<path d="M0 0 C-0.66 2.31 -1.32 4.62 -2 7 C-3.32 7 -4.64 7 -6 7 C-8.25 4 -8.25 4 -10 1 C-6.56484998 0.37542727 -3.50935186 0 0 0 Z " fill="#F1DD7F" transform="translate(224,421)"/>
<path d="M0 0 C1.53445094 3.06890187 0.54984289 5.70094266 0 9 C-3.79588866 8.45773019 -5.47211993 6.79872437 -8 4 C-5.36 2.68 -2.72 1.36 0 0 Z " fill="#F1D672" transform="translate(911,243)"/>
<path d="M0 0 C7.75 0.75 7.75 0.75 10 3 C9.21625 3.61875 8.4325 4.2375 7.625 4.875 C5.03162353 6.89858661 5.03162353 6.89858661 3 9 C2.01 6.03 1.02 3.06 0 0 Z " fill="#F1DC7E" transform="translate(984,476)"/>
<path d="M0 0 C-0.99 2.64 -1.98 5.28 -3 8 C-4.98 6.35 -6.96 4.7 -9 3 C-8.67 2.01 -8.34 1.02 -8 0 C-4.76565159 -1.33835107 -3.58579314 -0.89644829 0 0 Z " fill="#F1DC7D" transform="translate(217,477)"/>
<path d="M0 0 C2.31 0.33 4.62 0.66 7 1 C6.01 1.33 5.02 1.66 4 2 C4.33 6.95 4.66 11.9 5 17 C4.01 17.33 3.02 17.66 2 18 C2 12.39 2 6.78 2 1 C1.34 0.67 0.68 0.34 0 0 Z " fill="#F2C551" transform="translate(278,240)"/>
<path d="M0 0 C2 2 2 2 2.1953125 4.1640625 C2.17210937 4.97617187 2.14890625 5.78828125 2.125 6.625 C2.10695313 7.44226563 2.08890625 8.25953125 2.0703125 9.1015625 C2.03550781 10.04128906 2.03550781 10.04128906 2 11 C1.67 10.34 1.34 9.68 1 9 C-2.02934491 8.34227572 -2.02934491 8.34227572 -5 8 C-1.125 1.125 -1.125 1.125 0 0 Z " fill="#F1E187" transform="translate(1094,309)"/>
<path d="M0 0 C1.98 0.99 3.96 1.98 6 3 C5.67 3.99 5.34 4.98 5 6 C3.02 6.33 1.04 6.66 -1 7 C-1.04254356 5.00045254 -1.04080783 2.99958364 -1 1 C-0.67 0.67 -0.34 0.34 0 0 Z " fill="#F1DC7E" transform="translate(925,953)"/>
<path d="M0 0 C1.4606285 2.64738916 2 3.89448334 2 7 C-0.97 6.505 -0.97 6.505 -4 6 C-4.33 5.01 -4.66 4.02 -5 3 C-3.35 2.01 -1.7 1.02 0 0 Z " fill="#F1DC7E" transform="translate(275,953)"/>
<path d="M0 0 C2.64 0 5.28 0 8 0 C7 2 6 4 5 6 C4.01 5.67 3.02 5.34 2 5 C0.8125 2.4375 0.8125 2.4375 0 0 Z " fill="#F1DD7F" transform="translate(964,370)"/>
<path d="M0 0 C2.64 0 5.28 0 8 0 C7.1875 2.4375 7.1875 2.4375 6 5 C5.01 5.33 4.02 5.66 3 6 C2.67 4.68 2.34 3.36 2 2 C1.34 2 0.68 2 0 2 C0 1.34 0 0.68 0 0 Z " fill="#F1DC7F" transform="translate(229,370)"/>
<path d="M0 0 C1.7074998 1.28062485 3.37373596 2.61767557 5 4 C5 4.66 5 5.32 5 6 C3.02 6.66 1.04 7.32 -1 8 C-1.04241723 5.66705225 -1.04092937 3.33297433 -1 1 C-0.67 0.67 -0.34 0.34 0 0 Z " fill="#F1DB7D" transform="translate(373,754)"/>
<path d="M0 0 C2 1.3125 2 1.3125 4 3 C4 3.99 4 4.98 4 6 C1.5 7.6875 1.5 7.6875 -1 9 C-1.125 2.25 -1.125 2.25 0 0 Z " fill="#F1D979" transform="translate(81,375)"/>
<path d="M0 0 C0.66 0.33 1.32 0.66 2 1 C2 2.98 2 4.96 2 7 C0.35 6.67 -1.3 6.34 -3 6 C-2.42655063 3.13275314 -2.1385485 2.1385485 0 0 Z " fill="#F1DB7C" transform="translate(827,754)"/>
<path d="M0 0 C2 2 2 2 2.125 5.125 C2.08375 6.07375 2.0425 7.0225 2 8 C-0.475 7.01 -0.475 7.01 -3 6 C-1.125 1.125 -1.125 1.125 0 0 Z " fill="#F1D979" transform="translate(1119,375)"/>
<path d="M0 0 C1.32 0.66 2.64 1.32 4 2 C3.67 3.32 3.34 4.64 3 6 C1.68 5.67 0.36 5.34 -1 5 C-0.67 3.35 -0.34 1.7 0 0 Z " fill="#F0D97A" transform="translate(957,631)"/>
<path d="M0 0 C0.66 0.66 1.32 1.32 2 2 C1.875 4 1.875 4 1 6 C-1.0625 7.25 -1.0625 7.25 -3 8 C-2.45276317 4.62537285 -1.9451 2.91765 0 0 Z " fill="#F1DD7E" transform="translate(171,198)"/>
<path d="M0 0 C0.66 0.66 1.32 1.32 2 2 C0.35 2.66 -1.3 3.32 -3 4 C-2.67 3.01 -2.34 2.02 -2 1 C-1.34 0.67 -0.68 0.34 0 0 Z " fill="#A9581C" transform="translate(147,493)"/>
<path d="M0 0 C1.32 1.32 2.64 2.64 4 4 C3.67 4.66 3.34 5.32 3 6 C1.68 6 0.36 6 -1 6 C-0.67 4.02 -0.34 2.04 0 0 Z " fill="#F1DE81" transform="translate(989,152)"/>
<path d="M0 0 C1.98 0.99 1.98 0.99 4 2 C2.79618552 4.49361571 1.54571278 6.68143083 0 9 C0 6.03 0 3.06 0 0 Z " fill="#F1DA7B" transform="translate(62,448)"/>
<path d="M0 0 C0.66 0 1.32 0 2 0 C2.3125 2.3125 2.3125 2.3125 2 5 C-0.5 6.8125 -0.5 6.8125 -3 8 C-1.125 2.25 -1.125 2.25 0 0 Z " fill="#F1D979" transform="translate(1063,250)"/>
<path d="M0 0 C2.50037734 2.17424117 3.43628586 3.73045798 4 7 C1.525 6.01 1.525 6.01 -1 5 C-0.67 3.35 -0.34 1.7 0 0 Z " fill="#F1DD7E" transform="translate(1029,198)"/>
<path d="M0 0 C2 2 2 2 2 6 C0.35 5.67 -1.3 5.34 -3 5 C-2.01 3.35 -1.02 1.7 0 0 Z " fill="#F1DE81" transform="translate(211,152)"/>
<path d="M0 0 C-0.33 0.66 -0.66 1.32 -1 2 C-3.31 2 -5.62 2 -8 2 C-6.14210462 -1.71579076 -3.44525918 -1.06921837 0 0 Z " fill="#A8571E" transform="translate(778,922)"/>
<path d="M0 0 C0.66 0 1.32 0 2 0 C2.33 1.98 2.66 3.96 3 6 C0.525 5.01 0.525 5.01 -2 4 C-1.34 2.68 -0.68 1.36 0 0 Z " fill="#F1DA7B" transform="translate(880,718)"/>
<path d="M0 0 C0.99 0.33 1.98 0.66 3 1 C2.67 3.31 2.34 5.62 2 8 C1.34 7.67 0.68 7.34 0 7 C0 4.69 0 2.38 0 0 Z " fill="#F1D775" transform="translate(51,529)"/>
<path d="M0 0 C0.66 0.33 1.32 0.66 2 1 C-0.39509338 3.89932357 -2.31245243 4.50168276 -6 5 C-6 4.34 -6 3.68 -6 3 C-4.03533587 1.93224776 -2.03144641 0.93446535 0 0 Z " fill="#AA591C" transform="translate(175,367)"/>
<path d="M0 0 C0.66 0.66 1.32 1.32 2 2 C1.625 4.125 1.625 4.125 1 6 C0.67 5.34 0.34 4.68 0 4 C-1.32 4.99 -2.64 5.98 -4 7 C-2.92598892 4.08482708 -2.22189824 2.22189824 0 0 Z " fill="#F1D572" transform="translate(1094,309)"/>
</svg>
