<?xml version="1.0" encoding="UTF-8"?>
<svg version="1.1" xmlns="http://www.w3.org/2000/svg" width="361" height="361">
<path d="M0 0 C2.37720939 0.25707735 4.75076606 0.53017068 7.125 0.8125 C7.79015625 0.88275391 8.4553125 0.95300781 9.140625 1.02539062 C14.83826024 1.72363024 19.25441197 2.87148654 22.9765625 7.41015625 C23.52054687 8.28542969 24.06453125 9.16070312 24.625 10.0625 C26.77336005 13.49685022 28.16757725 15.51891086 32 17 C31.72285156 16.18015625 31.44570313 15.3603125 31.16015625 14.515625 C30.61681641 12.89914063 30.61681641 12.89914063 30.0625 11.25 C29.52302734 9.64898437 29.52302734 9.64898437 28.97265625 8.015625 C28.22017881 5.68264275 27.55022756 3.38625005 27 1 C31.57240173 1.4916561 33.78254383 3.16308329 37.125 6.25 C38.39730469 7.40242188 38.39730469 7.40242188 39.6953125 8.578125 C43.86550798 12.96036432 45.28115102 15.88641463 45.25 21.9375 C45.46611269 26.36706146 45.46611269 26.36706146 47.61328125 30.11328125 C49.34792803 31.56982835 51.05519922 32.84225959 53 34 C53.10477512 28.21408489 52.99250545 22.70690634 52 17 C58.51271674 19.94214835 63.39866549 25.34274741 66.3515625 31.81640625 C67.70371329 36.36973331 67.80074671 41.52751894 66.33203125 46.0625 C65.79299245 48.05993881 65.79299245 48.05993881 66.9609375 49.921875 C67.42757812 50.52515625 67.89421875 51.1284375 68.375 51.75 C69.06722656 52.67039062 69.06722656 52.67039062 69.7734375 53.609375 C70.17820312 54.06828125 70.58296875 54.5271875 71 55 C71.33 55 71.66 55 72 55 C73.22517308 49.33357449 73.09228867 43.76291482 73 38 C76.54965477 39.43676503 78.07087942 41.11301898 80.125 44.3125 C80.62257813 45.07175781 81.12015625 45.83101562 81.6328125 46.61328125 C85.13686339 52.73035295 85.73024292 58.02669438 85 65 C84.01517978 67.00751815 83.01847486 69.00934459 82 71 C82.78768445 74.65199154 83.92536172 76.88804258 86 80 C88.27057103 73.95942424 89.48914188 68.43681228 90 62 C93 63 93 63 94.3515625 65.328125 C94.77179688 66.29234375 95.19203125 67.2565625 95.625 68.25 C96.05039062 69.20390625 96.47578125 70.1578125 96.9140625 71.140625 C99.41472338 77.72509897 100.02132125 84.08193929 97.6875 90.75 C96 94 96 94 94.25 95.9375 C92.19076307 99.33524093 93.24924956 102.18368528 94 106 C94.33 106.33 94.66 106.66 95 107 C98.37863948 101.1245672 101.52232949 95.64951729 103 89 C105 90 105 90 105.8515625 92.37109375 C108.2427064 101.85113397 110.01823139 111.074292 105 120 C102.36245072 123.09912041 100.85992365 124.71335878 97 126 C97.33 128.97 97.66 131.94 98 135 C103.30761836 130.10866544 106.81595684 125.47079738 110 119 C110.66 119 111.32 119 112 119 C112.86903973 142.51235276 112.86903973 142.51235276 106.09375 150.1484375 C100.95454545 155 100.95454545 155 96 155 C96 157.97 96 160.94 96 164 C97.9454723 162.4466384 99.88101135 160.88308765 101.8125 159.3125 C102.35970703 158.87744141 102.90691406 158.44238281 103.47070312 157.99414062 C106.79450556 155.2746659 108.88436603 152.70402793 111 149 C111.66 149 112.32 149 113 149 C112.59199155 160.68944218 110.36125856 171.63874144 101.8125 180.1875 C98.61346384 182.24910108 95.67781944 183.06751629 91.98828125 183.8984375 C89.65492868 184.92008167 89.65492868 184.92008167 88.73046875 188.1015625 C88.48941406 189.05804688 88.24835938 190.01453125 88 191 C90.2137214 189.94772421 92.4204618 188.88371927 94.625 187.8125 C95.24246094 187.52052734 95.85992187 187.22855469 96.49609375 186.92773438 C100.89061271 184.77673299 104.34500424 182.25575777 108 179 C107.81161222 188.41938895 102.93196189 198.30555267 96.5625 205.1875 C91.9483371 209.27521478 87.33711661 211.07662677 81.1875 210.875 C80.135625 210.91625 79.08375 210.9575 78 211 C76.27157341 213.44811766 76.27157341 213.44811766 75 216 C82.21743294 214.64673132 88.50036317 213.35198476 94.51171875 208.98828125 C96 208 96 208 98 208 C96.61569967 217.83208184 88.96563276 226.46503935 81.2734375 232.3125 C75.75202694 235.69583243 70.38318392 235.18651218 64.07421875 234.75 C60.89548893 234.66640836 60.89548893 234.66640836 59.08203125 237 C58.54642578 237.99 58.54642578 237.99 58 239 C66.37495014 238.61387352 74.00269231 237.54824033 82 235 C78.87053279 244.14391199 71.37576458 250.34024619 63.1640625 254.94140625 C56.70552059 258.1007291 48.61180791 257.98261253 41.75 256 C40.8425 255.67 39.935 255.34 39 255 C38.34 255.66 37.68 256.32 37 257 C45.68414125 258.9930816 53.18740657 259.46876557 62 258 C58.5269028 266.2666949 48.79965922 270.59292864 41 274 C34.81188372 276.06270543 27.18860547 276.21917268 21.078125 273.8828125 C18.95487541 272.68594888 16.9575557 271.45004126 15 270 C14.01 270.66 13.02 271.32 12 272 C20.37461115 274.90409903 28.12994977 276.68035855 37 277 C35.94994541 280.08996955 35.07748131 280.95470324 32.20703125 282.6328125 C21.06930157 287.52879954 9.85894847 291.90528712 -2.375 287.875 C-5.36611058 286.6194721 -6.88085486 285.03756524 -9 282.625 C-10.66298159 280.91053292 -10.66298159 280.91053292 -13 280 C-17.78786866 280.33293126 -22.28408096 281.43541415 -26.93994141 282.55273438 C-30.04678029 283.22726967 -33.14768536 283.54315407 -36.3125 283.8125 C-37.33988281 283.90144531 -38.36726562 283.99039062 -39.42578125 284.08203125 C-42 284 -42 284 -45 282 C-45.3125 279.5 -45.3125 279.5 -45 277 C-42.53520093 274.53520093 -41.45790462 274.61582001 -38.046875 274.25390625 C-37.04076172 274.14022705 -36.03464844 274.02654785 -34.99804688 273.90942383 C-33.92619141 273.79493896 -32.85433594 273.6804541 -31.75 273.5625 C-22.67673253 272.52156007 -13.87336732 271.20271971 -5 269 C-4.99742187 268.39414062 -4.99484375 267.78828125 -4.9921875 267.1640625 C-4.55160858 257.6181859 -0.58357183 251.10431451 6.375 244.6875 C14.6722656 237.79179954 14.6722656 237.79179954 19 236 C19.99 236.33 20.98 236.66 22 237 C20.02 244.26 18.04 251.52 16 259 C16.33 259 16.66 259 17 259 C17.99 259 18.98 259 20 259 C19.773125 257.72125 19.54625 256.4425 19.3125 255.125 C18.43349347 246.87785051 21.403286 239.97088766 26.10546875 233.31640625 C29.73164521 228.88275133 33.84514037 224.93315764 38 221 C38.66 221.66 39.32 222.32 40 223 C39.70066812 224.67310768 39.35719149 226.33828308 39 228 C38.86720103 230.93808751 38.9054589 233.87211311 38.9375 236.8125 C38.94201172 237.60076172 38.94652344 238.38902344 38.95117188 239.20117188 C38.96288688 241.13414761 38.98082002 243.06708393 39 245 C40.98449999 241.40214696 40.93082322 240.00253986 40 236 C39.20135185 225.81723605 43.22160426 217.16198399 49 209 C50.58595971 207.16210398 52.17556118 205.60979895 54 204 C55.54030523 207.08061047 55.61417095 210.42745299 56 213.8125 C56.51337474 218.24436785 57.04011812 222.63767967 58 227 C59.35062487 224.92876584 59.35062487 224.92876584 60 222 C59.27452479 220.08738353 58.54217524 218.17666628 57.75390625 216.2890625 C54.5078821 206.43325861 58.44466228 196.27342906 62.625 187.3125 C64 185 64 185 66 184 C66.50660156 185.64548828 66.50660156 185.64548828 67.0234375 187.32421875 C67.47385102 188.77867907 67.92437784 190.23310431 68.375 191.6875 C68.59671875 192.40873047 68.8184375 193.12996094 69.046875 193.87304688 C70.22052719 197.6528973 71.45903232 201.34920274 73 205 C74.5048792 202.95976672 74.5048792 202.95976672 75 200 C73.94879718 197.80637429 72.68562194 195.93490159 71.26171875 193.96484375 C66.85371204 187.10036272 68.32557641 175.31982956 69.8125 167.625 C70.204375 166.42875 70.59625 165.2325 71 164 C71.99 163.67 72.98 163.34 74 163 C74.38671875 163.80824219 74.7734375 164.61648437 75.171875 165.44921875 C75.95304687 167.05216797 75.95304687 167.05216797 76.75 168.6875 C77.26046875 169.74324219 77.7709375 170.79898438 78.296875 171.88671875 C79.94531172 174.90003083 81.77499662 177.39287648 84 180 C84.94607807 177.25038489 84.94607807 177.25038489 85 174 C82.79245093 171.45817955 82.79245093 171.45817955 80 169 C76.59708537 164.06856307 74.85969646 159.6424958 74.90234375 153.671875 C74.90717773 152.47304688 74.90717773 152.47304688 74.91210938 151.25 C74.92467773 150.0125 74.92467773 150.0125 74.9375 148.75 C74.94201172 147.90953125 74.94652344 147.0690625 74.95117188 146.203125 C74.96292039 144.13538599 74.98085478 142.06768376 75 140 C78.57214698 141.19071566 79.24553071 142.32966428 81.4375 145.3125 C83.76963436 148.4689682 86.16741187 151.27947031 89 154 C89.66 151.69 90.32 149.38 91 147 C90.46375 146.938125 89.9275 146.87625 89.375 146.8125 C84.56824568 145.16808405 81.25344853 141.92066864 78.8125 137.5625 C75.83177356 131.05229413 74 123.1551366 74 116 C77.14575332 117.41137593 79.45266773 119.12400487 82 121.4375 C84.58061627 123.77114323 87.18881369 125.94808499 90 128 C90 125.36 90 122.72 90 120 C88.989375 119.79375 87.97875 119.5875 86.9375 119.375 C81.39491738 117.74021806 77.63268337 114.53733642 74.51953125 109.69921875 C71.63555888 104.26111248 70.07252564 99.04514452 69 93 C72.6344969 94.78126333 76.18884937 96.70197866 79.75 98.625 C80.35199219 98.94984375 80.95398438 99.2746875 81.57421875 99.609375 C83.04977297 100.40570585 84.52492686 101.20277839 86 102 C85.01 98.04 85.01 98.04 84 94 C82.02 93.690625 82.02 93.690625 80 93.375 C71.9226648 91.5139212 67.50839383 87.15790884 63.0625 80.3125 C61.36153129 77.5111324 60.03719958 75.11159873 59 72 C63.04704581 72.72404774 66.89070402 73.83446287 70.8125 75.0625 C71.97394531 75.42472656 73.13539063 75.78695312 74.33203125 76.16015625 C75.65267578 76.57587891 75.65267578 76.57587891 77 77 C76.12337553 73.92129487 75.11422427 71.43109818 73 69 C70.22417693 68.34057494 67.65761297 68.31029155 64.80859375 68.2421875 C57.52423576 67.61405093 52.42121626 61.76250992 47.46875 56.8671875 C46 55 46 55 46 52 C51.61 52.66 57.22 53.32 63 54 C61.13258405 49.94614666 61.13258405 49.94614666 58 47 C54.47621553 46.6711727 51.11823616 46.88518154 47.5859375 47.0703125 C40.26329765 46.92673133 34.32665981 42.79399383 29 38 C29.33 37.01 29.66 36.02 30 35 C34.95 34.67 39.9 34.34 45 34 C41.74048803 30.66303516 41.74048803 30.66303516 38 28 C34.52451159 28.53977565 34.52451159 28.53977565 31 30 C22.84797917 31.15804408 15.74336605 28.49557736 9 24 C9 23.34 9 22.68 9 22 C14.445 20.515 14.445 20.515 20 19 C18.618125 18.4225 17.23625 17.845 15.8125 17.25 C8.22379843 13.82322695 4.05830129 9.22405522 0 2 C0 1.34 0 0.68 0 0 Z " fill="#F9B800" transform="translate(228,36)"/>
<path d="M0 0 C-2.27349953 6.33891987 -6.17176506 11.86157846 -11.5625 15.9375 C-14.32991784 17.14381034 -17.11079382 18.12651906 -20 19 C-14.555 20.485 -14.555 20.485 -9 22 C-10 25 -10 25 -11.70703125 26.1328125 C-12.40183594 26.46023437 -13.09664063 26.78765625 -13.8125 27.125 C-14.49957031 27.45757812 -15.18664062 27.79015625 -15.89453125 28.1328125 C-22.03793834 30.66312117 -28.4053429 30.98418028 -34.625 28.625 C-37.89141649 27.6333115 -37.89141649 27.6333115 -39.98828125 29.203125 C-41.74353678 30.70863476 -43.38144158 32.34840978 -45 34 C-39.72 34.33 -34.44 34.66 -29 35 C-29 35.99 -29 36.98 -29 38 C-31.01171875 39.75390625 -31.01171875 39.75390625 -33.6875 41.5625 C-34.55761719 42.16191406 -35.42773438 42.76132813 -36.32421875 43.37890625 C-41.57892364 46.56241359 -44.84675546 47.13175365 -51 46.6875 C-55.87175161 46.43765281 -55.87175161 46.43765281 -60.0234375 48.55078125 C-61.57499064 50.66995305 -61.57499064 50.66995305 -63 54 C-57.39 53.34 -51.78 52.68 -46 52 C-48.69396372 58.73490929 -52.87137125 62.84472242 -58.8125 66.9375 C-61.99720514 67.99906838 -64.29908367 68.09939626 -67.625 68.1875 C-70.46248631 68.25599617 -70.46248631 68.25599617 -73 69 C-75.11614048 71.43175067 -76.12285353 73.9194616 -77 77 C-75.95199219 76.62746094 -74.90398437 76.25492187 -73.82421875 75.87109375 C-72.44547699 75.39275477 -71.06656157 74.91491617 -69.6875 74.4375 C-68.65206055 74.0672168 -68.65206055 74.0672168 -67.59570312 73.68945312 C-62.33984375 71.88671875 -62.33984375 71.88671875 -59 73 C-69.06671382 90.28119206 -69.06671382 90.28119206 -77.38671875 92.69140625 C-79.58526513 93.18495748 -81.77846008 93.62480659 -84 94 C-84.66 96.64 -85.32 99.28 -86 102 C-85.02417969 101.43410156 -84.04835938 100.86820312 -83.04296875 100.28515625 C-81.75789475 99.54412818 -80.47273396 98.80325061 -79.1875 98.0625 C-78.54490234 97.68931641 -77.90230469 97.31613281 -77.24023438 96.93164062 C-74.51683576 95.36533365 -71.98891878 93.99630626 -69 93 C-70.4891204 101.46447386 -73.19469824 110.23417154 -80 116 C-83.24197545 117.88741735 -86.56635514 119.49319662 -90 121 C-90 123.31 -90 125.62 -90 128 C-88.22750476 126.5645497 -86.45706424 125.12656197 -84.6875 123.6875 C-83.70136719 122.88699219 -82.71523437 122.08648437 -81.69921875 121.26171875 C-79.08926152 119.15557856 -79.08926152 119.15557856 -77.26953125 117.20703125 C-76 116 -76 116 -74 116 C-75.23650535 127.43767451 -76.92994439 136.51609538 -85 145 C-88 147 -88 147 -91 147 C-90.01 150.465 -90.01 150.465 -89 154 C-87.37251997 152.23139162 -85.74796543 150.46024324 -84.125 148.6875 C-83.66480469 148.18798828 -83.20460938 147.68847656 -82.73046875 147.17382812 C-80.61393392 144.85790957 -78.74473617 142.61710426 -77 140 C-76.34 140 -75.68 140 -75 140 C-74.54194105 151.68050317 -74.21712867 161.10703838 -81.125 171.0625 C-83 173 -83 173 -85 174 C-84.67 175.98 -84.34 177.96 -84 180 C-81.74375257 177.08849508 -79.7704702 174.0950295 -77.875 170.9375 C-77.35679688 170.08027344 -76.83859375 169.22304687 -76.3046875 168.33984375 C-74.88452234 165.96326615 -74.88452234 165.96326615 -74 163 C-73.34 163 -72.68 163 -72 163 C-68.24600476 172.49671416 -66.73857503 183.70731843 -70.875 193.3125 C-72.09321612 195.68125356 -73.09671235 197.09671235 -75 199 C-74.64644564 201.26274788 -74.02455574 202.95088852 -73 205 C-70.69 198.4 -68.38 191.8 -66 185 C-65.34 185 -64.68 185 -64 185 C-58.51212448 196.58318765 -54.44676009 206.77958073 -58.625 219.5 C-58.92664063 220.2940625 -59.22828125 221.088125 -59.5390625 221.90625 C-59.69117188 222.5971875 -59.84328125 223.288125 -60 224 C-59.34 224.99 -58.68 225.98 -58 227 C-57.49772952 223.54199242 -56.99856919 220.08354301 -56.5 216.625 C-56.35691406 215.64015625 -56.21382812 214.6553125 -56.06640625 213.640625 C-55.93105469 212.69960937 -55.79570313 211.75859375 -55.65625 210.7890625 C-55.53056641 209.91975098 -55.40488281 209.05043945 -55.27539062 208.15478516 C-54.95774231 206.03140807 -54.95774231 206.03140807 -55 204 C-48.71327303 206.25028258 -45.9845046 213.4419925 -43 219 C-39.63278067 226.15534107 -39.93311535 232.31951464 -40.87109375 240.09375 C-40.93490234 241.53234375 -40.93490234 241.53234375 -41 243 C-40.34 243.66 -39.68 244.32 -39 245 C-38.9727633 242.47909222 -38.95304793 239.95848543 -38.9375 237.4375 C-38.92493164 236.38079102 -38.92493164 236.38079102 -38.91210938 235.30273438 C-38.89117397 230.75975202 -39.25199318 226.48215108 -40 222 C-35.89752715 222 -35.05401688 223.51288637 -32.1875 226.375 C-25.54529767 233.24022518 -20.37086003 240.40397978 -19 250 C-19.1380068 253.04090848 -19.48624782 256.00079808 -20 259 C-18.68 259.33 -17.36 259.66 -16 260 C-16.14622803 259.41508789 -16.29245605 258.83017578 -16.44311523 258.22753906 C-18.29541016 250.81835937 -20.14770508 243.40917969 -22 236 C-14.14850078 236.89319808 -6.76132557 243.79940432 -1.5 249.4375 C3.13725362 255.33696467 5.10825892 261.58681123 5 269 C9.0812095 269.82340988 13.1652886 270.63165748 17.25 271.4375 C18.38953125 271.66759766 19.5290625 271.89769531 20.703125 272.13476562 C27.37256036 273.44212653 33.87076724 274.34931916 40.66308594 274.67602539 C43 275 43 275 45 277 C45.125 279.625 45.125 279.625 45 282 C40.5044421 284.3623716 36.73209555 283.94402487 31.875 283.25 C31.12162354 283.15726807 30.36824707 283.06453613 29.59204102 282.96899414 C25.26353468 282.41317931 21.16273901 281.54566227 16.9375 280.4375 C13.7391355 279.79298109 12.57958064 279.64637475 9.765625 281.36328125 C7.67587227 283.19347169 7.67587227 283.19347169 5.94921875 285.203125 C1.07713385 289.69442571 -5.29383649 289.4233684 -11.5546875 289.31640625 C-20.01634331 288.53931541 -29.17825735 285.16896889 -36 280 C-36.495 278.515 -36.495 278.515 -37 277 C-36.28457031 276.97421875 -35.56914063 276.9484375 -34.83203125 276.921875 C-26.7454299 276.46157686 -19.63697899 274.64830723 -12 272 C-13.79071888 270.76560151 -13.79071888 270.76560151 -16 270 C-17.7431081 270.8762757 -17.7431081 270.8762757 -19.375 272.375 C-25.18887035 276.30854797 -31.24257958 275.89609271 -38 275 C-46.50849375 272.74896646 -53.790796 268.22157293 -60 262 C-61.2734375 259.75390625 -61.2734375 259.75390625 -62 258 C-61.01 258.165 -60.02 258.33 -59 258.5 C-51.26181876 259.57000903 -44.5618858 258.73551477 -37 257 C-38.7142289 255.76603959 -38.7142289 255.76603959 -41 255 C-43.45495549 255.8348653 -43.45495549 255.8348653 -46 257 C-54.43697175 258.13368079 -61.00088063 256.82582594 -68 252 C-73.21086645 247.83582493 -78.11862646 243.45873538 -82 238 C-82 237.01 -82 236.02 -82 235 C-81.05253906 235.30744141 -81.05253906 235.30744141 -80.0859375 235.62109375 C-72.40532372 237.93413162 -64.9960422 238.66148143 -57 239 C-59.72721843 236.40939548 -61.23877901 235.06237918 -65.05078125 234.75 C-66.12714844 234.8325 -67.20351562 234.915 -68.3125 235 C-76.65781593 235.22554908 -80.98950314 233.06305056 -87.0625 227.5 C-91.81426291 222.50359187 -98 215.1252394 -98 208 C-97.42507812 208.28875 -96.85015625 208.5775 -96.2578125 208.875 C-89.23482996 212.37434078 -82.78914145 214.76414457 -75 216 C-76.34162748 213.35580438 -76.34162748 213.35580438 -79 211 C-81.32149874 210.53068698 -81.32149874 210.53068698 -83.875 210.4375 C-90.56221036 210.0458625 -94.03622625 207.17746049 -98.5625 202.4375 C-104.3102741 195.59369802 -107.49635453 187.89773658 -108 179 C-107.56171875 179.36351562 -107.1234375 179.72703125 -106.671875 180.1015625 C-100.88482971 184.6888545 -94.66668566 187.86665774 -88 191 C-88.61165667 188.02182675 -88.61165667 188.02182675 -90 185 C-92.36363866 183.70735626 -92.36363866 183.70735626 -95.1875 183.125 C-101.34739333 181.14964154 -104.60598849 178.49330473 -108 173 C-111.93019072 165.28384575 -112.72769715 157.5639247 -113 149 C-112.34 149 -111.68 149 -111 149 C-109.80859375 150.50390625 -109.80859375 150.50390625 -108.4375 152.5625 C-104.99574152 157.35363277 -100.77567409 160.60396509 -96 164 C-96 161.03 -96 158.06 -96 155 C-96.845625 155 -97.69125 155 -98.5625 155 C-103.5890941 153.53771808 -106.19890905 150.33389132 -109 146 C-112.02984694 140.02221693 -112.38563113 134.61453156 -112.1875 128 C-112.17396484 127.12988281 -112.16042969 126.25976562 -112.14648438 125.36328125 C-112.11151678 123.24191373 -112.0577253 121.12087026 -112 119 C-111.01 119.33 -110.02 119.66 -109 120 C-108.06688314 121.89955933 -107.13908502 123.80209369 -106.25 125.72265625 C-104.0853025 129.66646452 -101.05103968 132.71426496 -98 136 C-97.67 132.7 -97.34 129.4 -97 126 C-97.721875 125.835 -98.44375 125.67 -99.1875 125.5 C-103.62827778 123.13158518 -106.09385791 118.81470386 -107.625 114.05859375 C-109.15247012 105.67341925 -107.59630225 97.98981108 -105 90 C-104.34 90 -103.68 90 -103 90 C-102.67386719 90.80824219 -102.34773438 91.61648437 -102.01171875 92.44921875 C-101.57472656 93.51785156 -101.13773438 94.58648437 -100.6875 95.6875 C-100.25824219 96.74324219 -99.82898438 97.79898438 -99.38671875 98.88671875 C-98.10967099 101.7537809 -96.67595878 104.35090386 -95 107 C-93.15849913 103.20867469 -92.62594469 101.02401912 -94 97 C-95.31431695 94.98745218 -96.64721885 92.98689731 -98 91 C-100.66553288 82.50468877 -98.57893665 74.89999394 -95 67 C-93.48828125 64.171875 -93.48828125 64.171875 -92 62 C-91.34 62 -90.68 62 -90 62 C-89.87882812 62.79664063 -89.75765625 63.59328125 -89.6328125 64.4140625 C-88.38116525 72.34501378 -88.38116525 72.34501378 -86 80 C-83.74153592 76.62230388 -83.74153592 76.62230388 -82 73 C-82.55474573 70.23690643 -82.55474573 70.23690643 -84 68 C-86.40054207 60.79837379 -85.5823013 54.40774167 -82.3125 47.625 C-79.99338282 43.38338425 -77.72729697 40.06953868 -74 37 C-72.74566542 40.76300374 -72.89304578 44.27210909 -72.9375 48.1875 C-72.94201172 48.93708984 -72.94652344 49.68667969 -72.95117188 50.45898438 C-72.96293646 52.30602383 -72.98087135 54.15302213 -73 56 C-68.46281534 51.65940107 -68.46281534 51.65940107 -66 46 C-66.33 45.34 -66.66 44.68 -67 44 C-67.77854145 37.13351963 -67.11403019 31.63372472 -63 26 C-60.1782052 22.79728796 -57.28085737 19.73615904 -54 17 C-53.34 17 -52.68 17 -52 17 C-52.165 17.763125 -52.33 18.52625 -52.5 19.3125 C-53.16562149 24.22145849 -53.07920078 29.05435114 -53 34 C-50.41811089 32.20189866 -48.07830462 30.37220628 -46 28 C-45.66619186 24.62563814 -45.66619186 24.62563814 -46 21 C-44.73466314 13.38047153 -40.81684338 8.84926669 -35 4 C-30.78125 1 -30.78125 1 -27 1 C-27.19335938 1.56847656 -27.38671875 2.13695312 -27.5859375 2.72265625 C-29.18136423 7.45364938 -30.66900586 12.18794425 -32 17 C-28.2448504 14.86639227 -25.91465078 13.28836067 -23.875 9.4375 C-22.00018157 6.00033288 -21.2637965 4.92688484 -18 3 C-15.45205088 2.32184925 -13.0217549 1.76854498 -10.4375 1.3125 C-9.76525391 1.18294922 -9.09300781 1.05339844 -8.40039062 0.91992188 C-5.55367439 0.38563253 -2.90244093 0 0 0 Z " fill="#F9B800" transform="translate(133,36)"/>
<path d="M0 0 C5.39062415 -0.27022409 9.3292923 0.57048237 14.375 2.4375 C19.95999634 4.43397172 25.06584857 5.68767624 31 6 C30.67 6.66 30.34 7.32 30 8 C20.31984392 8.49689014 12.90814167 6.56325667 4 3 C2.34080104 2.63128912 0.6752357 2.28718326 -1 2 C-0.67 1.34 -0.34 0.68 0 0 Z " fill="#FBD300" transform="translate(230,309)"/>
<path d="M0 0 C3.5625 0.1875 3.5625 0.1875 5.5625 2.1875 C4.52802734 2.46013672 4.52802734 2.46013672 3.47265625 2.73828125 C-1.07932746 3.95589006 -5.53287066 5.19628464 -9.9375 6.875 C-15.05739786 8.65906604 -20.07826084 8.45796628 -25.4375 8.1875 C-25.7675 7.5275 -26.0975 6.8675 -26.4375 6.1875 C-25.43783203 6.02314453 -25.43783203 6.02314453 -24.41796875 5.85546875 C-16.41120602 4.4780816 -7.63158652 0.41626836 0 0 Z " fill="#FBD300" transform="translate(126.4375,308.8125)"/>
<path d="M0 0 C0.33 0.66 0.66 1.32 1 2 C-7.84445459 3.64547992 -17.00557438 5.12733367 -26 4 C-27.8984375 2.48046875 -27.8984375 2.48046875 -29 1 C-19.31629705 0.30386731 -9.71614177 -0.14973506 0 0 Z " fill="#FBD300" transform="translate(104,296)"/>
<path d="M0 0 C9.69527822 -0.19219715 19.32867432 0.40418676 29 1 C28.67 1.66 28.34 2.32 28 3 C18.91119292 6.02960236 8.19964972 3.52420232 -1 2 C-0.67 1.34 -0.34 0.68 0 0 Z " fill="#FBD300" transform="translate(257,296)"/>
<path d="M0 0 C2.01886088 6.05658264 -0.46117112 14.81313504 -3.2109375 20.5078125 C-5.23337698 23.43728544 -6.58669088 24.86223029 -10 26 C-9.69441162 25.42636719 -9.38882324 24.85273438 -9.07397461 24.26171875 C-8.0487692 22.10270468 -7.40384728 20.1233294 -6.81640625 17.8125 C-6.50799805 16.64074219 -6.50799805 16.64074219 -6.19335938 15.4453125 C-5.77302916 13.81604492 -5.35635617 12.18582942 -4.94335938 10.5546875 C-3.85836707 6.45808103 -2.96563451 3.18178863 0 0 Z " fill="#FBD200" transform="translate(245,276)"/>
<path d="M0 0 C0.66 0 1.32 0 2 0 C1.0469363 2.35318306 0.39824112 3.73480356 -1.7421875 5.16015625 C-7.16310086 7.4536196 -12.55363677 9.01191928 -18.30078125 10.2890625 C-20.7729808 10.94020623 -22.77409255 11.76279729 -25 13 C-24.02359175 10.48023677 -23.41880719 9.24027185 -21.0390625 7.875 C-20.24242187 7.58625 -19.44578125 7.2975 -18.625 7 C-17.74199219 6.67386719 -16.85898437 6.34773437 -15.94921875 6.01171875 C-11.76940486 4.57784882 -7.58011658 3.17784619 -3.37109375 1.83203125 C-1.07373432 1.21809711 -1.07373432 1.21809711 0 0 Z " fill="#FBD200" transform="translate(321,248)"/>
<path d="M0 0 C0.56912109 0.30107666 1.13824219 0.60215332 1.72460938 0.91235352 C3.93727139 1.97001546 6.05730594 2.70730473 8.40625 3.40234375 C9.23253906 3.65306641 10.05882812 3.90378906 10.91015625 4.16210938 C12.63564917 4.67871623 14.36221781 5.19174371 16.08984375 5.70117188 C23.84873554 8.06757335 23.84873554 8.06757335 27 11 C26.67 11.66 26.34 12.32 26 13 C25.278125 12.566875 24.55625 12.13375 23.8125 11.6875 C20.49295311 9.9920751 17.13770104 9.31914182 13.5 8.5625 C8.43053303 7.45717101 4.88719698 6.45528621 1 3 C0.67 2.01 0.34 1.02 0 0 Z " fill="#FBD200" transform="translate(38,248)"/>
<path d="M0 0 C3.35593441 0.25121025 6.70910677 0.52952263 10.0625 0.8125 C11.00544922 0.88275391 11.94839844 0.95300781 12.91992188 1.02539062 C18.55532987 1.51627982 22.94359516 2.44023888 28 5 C28 5.33 28 5.66 28 6 C24.81151438 5.91831339 21.62483013 5.80554926 18.4375 5.6875 C17.54224609 5.66494141 16.64699219 5.64238281 15.72460938 5.61914062 C10.12803557 5.39363765 5.94747377 4.68956628 1 2 C0.67 1.34 0.34 0.68 0 0 Z " fill="#FBD300" transform="translate(55,275)"/>
<path d="M0 0 C1.485 0.99 1.485 0.99 3 2 C3.33653954 4.60296952 3.5086182 7.01511875 3.5625 9.625 C3.78689948 15.35326023 4.27940463 20.49409481 6 26 C3 25 3 25 1.32421875 22.02734375 C-0.42646704 17.55869828 -0.33639849 13.30052616 -0.1875 8.5625 C-0.17396484 7.73556641 -0.16042969 6.90863281 -0.14648438 6.05664062 C-0.11146992 4.0374736 -0.05767562 2.01864682 0 0 Z " fill="#FBD200" transform="translate(96,262)"/>
<path d="M0 0 C0.33 0 0.66 0 1 0 C1.10901505 2.83439137 1.18777904 5.66450203 1.25 8.5 C1.28351563 9.29148437 1.31703125 10.08296875 1.3515625 10.8984375 C1.45153439 16.99672294 0.06910431 20.7317737 -3 26 C-3.66 26 -4.32 26 -5 26 C-4.690625 24.824375 -4.38125 23.64875 -4.0625 22.4375 C-2.75780592 16.726042 -2.57723168 10.99136119 -2.34375 5.16015625 C-2 2 -2 2 0 0 Z " fill="#FBD200" transform="translate(264,262)"/>
<path d="M0 0 C0.33 0 0.66 0 1 0 C2.95344809 7.72658487 5.21271506 17.80863006 1.984375 25.3828125 C1.65953125 25.91648437 1.3346875 26.45015625 1 27 C0.34 26.67 -0.32 26.34 -1 26 C-1.02886751 21.85418113 -1.04675327 17.70838784 -1.0625 13.5625 C-1.07087891 12.37849609 -1.07925781 11.19449219 -1.08789062 9.97460938 C-1.09111328 8.84990234 -1.09433594 7.72519531 -1.09765625 6.56640625 C-1.10289307 5.52427979 -1.10812988 4.48215332 -1.11352539 3.40844727 C-1 1 -1 1 0 0 Z " fill="#FBD100" transform="translate(280,244)"/>
<path d="M0 0 C0.66 0 1.32 0 2 0 C4.23541502 4.9856924 6.00482186 9.95429109 7.5625 15.1875 C9.34280328 21.26609804 9.34280328 21.26609804 12 27 C9.17449283 25.90119166 7.41378424 24.71616503 5.8828125 22.06640625 C2.88074126 14.98012182 1.43285379 7.53333733 0 0 Z " fill="#FBD300" transform="translate(114,275)"/>
<path d="M0 0 C-2.96786517 2.54254098 -4.99842056 3.42161955 -8.87890625 3.765625 C-9.79994141 3.85070312 -10.72097656 3.93578125 -11.66992188 4.0234375 C-12.62447266 4.09820312 -13.57902344 4.17296875 -14.5625 4.25 C-16.00012695 4.38535156 -16.00012695 4.38535156 -17.46679688 4.5234375 C-24.57632713 5.14122429 -24.57632713 5.14122429 -28 4 C-22.55990689 1.35268196 -17.74961244 0.32045495 -11.75 -0.25 C-10.94820313 -0.34023438 -10.14640625 -0.43046875 -9.3203125 -0.5234375 C-5.8625659 -0.88193297 -3.33398402 -1.11132801 0 0 Z " fill="#FBD400" transform="translate(306,276)"/>
<path d="M0 0 C0.66 0.33 1.32 0.66 2 1 C2 9.58 2 18.16 2 27 C1.01 26.67 0.02 26.34 -1 26 C-4.61952948 18.76094105 -1.34450454 7.55083351 0 0 Z " fill="#FBD200" transform="translate(80,244)"/>
<path d="M0 0 C0.53367187 0.37511719 1.06734375 0.75023437 1.6171875 1.13671875 C5.73307624 3.96372191 9.801467 6.47337802 14.3125 8.625 C17.83827537 10.31934617 20.48551117 11.91403643 23 15 C22.67 15.66 22.34 16.32 22 17 C21.2575 16.46375 20.515 15.9275 19.75 15.375 C15.67888718 12.62845977 11.2431916 10.64057825 6.8046875 8.5625 C3.96480414 6.98039228 2.05245496 5.51401182 0 3 C0 2.01 0 1.02 0 0 Z " fill="#FBD300" transform="translate(27,219)"/>
<path d="M0 0 C0.66 0 1.32 0 2 0 C-1.22215796 7.62040357 -10.95721462 10.59642342 -18 14 C-18.99 14.495 -18.99 14.495 -20 15 C-16.95192282 7.55627467 -7.85287486 4.30406466 -1 1 C-0.67 0.67 -0.34 0.34 0 0 Z " fill="#FBD300" transform="translate(331,221)"/>
<path d="M0 0 C0.33 0.99 0.66 1.98 1 3 C-1.57788607 6.93001258 -4.67898983 9.44819343 -8.5 12.125 C-9.4384375 12.78757813 -10.376875 13.45015625 -11.34375 14.1328125 C-12.2203125 14.74898437 -13.096875 15.36515625 -14 16 C-15.33760144 16.99428374 -16.67270116 17.99200418 -18 19 C-16.61755024 13.29739472 -12.31539136 10.55606291 -8 7 C-6.49590136 5.69219898 -4.9957055 4.37989186 -3.5 3.0625 C-1.75 1.53125 -1.75 1.53125 0 0 Z " fill="#FBD300" transform="translate(338,190)"/>
<path d="M0 0 C0.969375 0.845625 1.93875 1.69125 2.9375 2.5625 C6.50278002 5.63401415 10.21098129 8.47880775 13.984375 11.2890625 C16.02868601 13.02434975 17.48165364 14.79935876 19 17 C18.67 17.66 18.34 18.32 18 19 C17.5153125 18.56429687 17.030625 18.12859375 16.53125 17.6796875 C12.38896664 13.99942805 8.18481361 10.56532599 3.6640625 7.359375 C2 6 2 6 0 3 C0 2.01 0 1.02 0 0 Z " fill="#FBD300" transform="translate(22,190)"/>
<path d="M0 0 C0.66015625 1.76171875 0.66015625 1.76171875 1 4 C-0.00390625 5.89453125 -0.00390625 5.89453125 -1.5625 7.8125 C-2.11679687 8.5034375 -2.67109375 9.194375 -3.2421875 9.90625 C-3.82226562 10.5971875 -4.40234375 11.288125 -5 12 C-5.53882813 12.6496875 -6.07765625 13.299375 -6.6328125 13.96875 C-8.98838107 16.76228861 -11.3923165 19.43847019 -14 22 C-13.53012809 14.4820494 -6.61205185 8.5088397 -2 3 C-1.34 2.01 -0.68 1.02 0 0 Z " fill="#FBD200" transform="translate(338,159)"/>
<path d="M0 0 C0.66 0 1.32 0 2 0 C2.50817228 5.36039794 0.88003047 8.6921655 -1.875 13.125 C-2.60231825 14.33548373 -3.32890139 15.5464095 -4.0546875 16.7578125 C-5.01761719 18.36269531 -5.01761719 18.36269531 -6 20 C-6.68533042 21.32383702 -7.36299973 22.65224154 -8 24 C-8.33 24 -8.66 24 -9 24 C-9.5828555 19.11511578 -7.55967391 15.99547825 -5.0625 12 C-2.64494346 8.0918257 -0.55513789 4.65258425 0 0 Z " fill="#FBD000" transform="translate(331,129)"/>
<path d="M0 0 C0.66 0 1.32 0 2 0 C1.85296364 6.46959973 -0.98783616 10.73900378 -4.40625 16.1328125 C-5.92155969 18.85888434 -6.59554354 20.93287188 -7 24 C-7.33 24 -7.66 24 -8 24 C-8.90372041 16.25382507 -6.79245915 12.11184522 -2.62890625 5.6015625 C-0.88207808 3.03861299 -0.88207808 3.03861299 0 0 Z " fill="#FBD100" transform="translate(59,202)"/>
<path d="M0 0 C2.73133178 2.60877202 5.10314082 5.45882133 7.5 8.375 C8.2734375 9.31085938 9.046875 10.24671875 9.84375 11.2109375 C11.80744283 13.75093149 13.57553818 16.12220213 15 19 C14.67 19.99 14.34 20.98 14 22 C13.64808594 21.5153125 13.29617187 21.030625 12.93359375 20.53125 C10.17803165 16.79001686 7.36123474 13.27168304 4.1875 9.875 C1.32983249 6.69002255 0.11019235 4.40769414 0 0 Z " fill="#FBD200" transform="translate(22,159)"/>
<path d="M0 0 C4.92022101 4.45090762 9.38480842 11.21338978 10.453125 17.7890625 C10.4375 20.25 10.4375 20.25 10 24 C9.67 24 9.34 24 9 24 C8.85304688 23.46632812 8.70609375 22.93265625 8.5546875 22.3828125 C6.86232085 16.76104283 4.47881561 12.23122909 1.20703125 7.359375 C-0.16006035 4.68713123 -0.23619295 2.96028497 0 0 Z " fill="#FBD200" transform="translate(300,202)"/>
<path d="M0 0 C0.66 0 1.32 0 2 0 C4.25169623 4.56746512 4.42423979 8.82277227 4.625 13.8125 C4.66367187 14.60076172 4.70234375 15.38902344 4.7421875 16.20117188 C4.83588844 18.1337538 4.91900779 20.06684376 5 22 C0.56717832 17.95264108 0.74135449 13.51599823 0.4375 7.8125 C0.39431641 7.06291016 0.35113281 6.31332031 0.30664062 5.54101562 C0.20077315 3.69421625 0.0999024 1.84713166 0 0 Z " fill="#FBCD00" transform="translate(282,56)"/>
<path d="M0 0 C3.02700579 2.52395038 3.97178939 5.10947343 5.1875 8.8125 C5.53167969 9.82957031 5.87585938 10.84664062 6.23046875 11.89453125 C7.02418719 15.09760822 7.28582982 17.7152999 7 21 C6.34 21.66 5.68 22.32 5 23 C4.80664062 22.18015625 4.61328125 21.3603125 4.4140625 20.515625 C4.15367187 19.43796875 3.89328125 18.3603125 3.625 17.25 C3.36976563 16.18265625 3.11453125 15.1153125 2.8515625 14.015625 C2.12674921 11.07796493 2.12674921 11.07796493 0.90625 8.84375 C-0.51169382 5.95896776 -0.12127634 3.15318496 0 0 Z " fill="#FBD300" transform="translate(292,226)"/>
<path d="M0 0 C0.33 0 0.66 0 1 0 C0.62991566 6.34247994 -0.35508643 11.15914919 -3 17 C-3.4054103 19.32189536 -3.76072994 21.65515344 -4 24 C-4.66 23.67 -5.32 23.34 -6 23 C-6.31424632 17.02931983 -5.643316 13.48243318 -3 8 C-1.96116868 5.34676865 -0.98510905 2.67386743 0 0 Z " fill="#FBD300" transform="translate(68,225)"/>
<path d="M0 0 C0.76953125 1.6953125 0.76953125 1.6953125 1 4 C-0.80078125 6.3671875 -0.80078125 6.3671875 -3.3125 8.875 C-6.87340363 12.44149374 -8.70714391 15.100004 -10 20 C-10.66 20 -11.32 20 -12 20 C-12.1228234 14.3501237 -10.37425114 11.91604852 -6.5625 7.75 C-5.75941406 6.91984375 -4.95632812 6.0896875 -4.12890625 5.234375 C-1.8707938 2.99291761 -1.8707938 2.99291761 0 0 Z " fill="#FBD200" transform="translate(55,180)"/>
<path d="M0 0 C2.61840341 1.3092017 2.77708945 2.44827592 3.875 5.125 C5.15549619 8.15775414 6.5135822 10.9544905 8.25 13.75 C9.96620752 16.93724254 10.42796792 18.46926465 10 22 C7.53963349 18.83559015 5.39185554 15.55135945 3.3125 12.125 C2.68988281 11.11695313 2.06726563 10.10890625 1.42578125 9.0703125 C-0.1145668 5.75328902 -0.28556183 3.6099326 0 0 Z " fill="#FBD100" transform="translate(28,129)"/>
<path d="M0 0 C5.11169654 3.99256771 9.82544918 8.26532755 13 14 C13.375 17.5 13.375 17.5 13 20 C11 18 11 18 9.3125 14.9375 C7.09143543 10.91762648 4.29522876 7.46329393 1.390625 3.91796875 C0 2 0 2 0 0 Z " fill="#FBD200" transform="translate(305,181)"/>
<path d="M0 0 C0.66 0 1.32 0 2 0 C0.40870074 4.1970518 -2.72060183 6.73232331 -6 9.625 C-7.08355315 10.59610895 -8.16689507 11.56745366 -9.25 12.5390625 C-10.1575 13.35117188 -11.065 14.16328125 -12 15 C-12.66 15.66 -13.32 16.32 -14 17 C-13.58072097 12.10841134 -11.60000892 10.20000793 -8 7 C-7.4740625 6.52949219 -6.948125 6.05898437 -6.40625 5.57421875 C-2.29841549 2 -2.29841549 2 0 2 C0 1.34 0 0.68 0 0 Z " fill="#FBD200" transform="translate(55,156)"/>
<path d="M0 0 C0.66 0 1.32 0 2 0 C2 0.66 2 1.32 2 2 C2.57492187 2.27070313 3.14984375 2.54140625 3.7421875 2.8203125 C6.03283183 4.01715435 8.04240326 5.34670657 10.125 6.875 C10.80820312 7.36742187 11.49140625 7.85984375 12.1953125 8.3671875 C14.16720907 10.15128439 15.12523552 11.49365234 16 14 C15.67 14.99 15.34 15.98 15 17 C14.38125 16.25556641 14.38125 16.25556641 13.75 15.49609375 C9.96125964 11.03924962 6.03765064 7.14457263 1.50390625 3.4453125 C1.00761719 2.96835938 0.51132812 2.49140625 0 2 C0 1.34 0 0.68 0 0 Z " fill="#FBD200" transform="translate(304,156)"/>
<path d="M0 0 C-1.46797738 4.53645786 -5.04488332 6.07095663 -9 8.1875 C-9.64195313 8.54263672 -10.28390625 8.89777344 -10.9453125 9.26367188 C-13.27731284 10.54919926 -15.61814463 11.80907231 -18 13 C-16.56443781 9.44564014 -14.90560522 7.96571758 -11.6875 5.9375 C-10.48480469 5.17373047 -10.48480469 5.17373047 -9.2578125 4.39453125 C-8.51273438 3.93433594 -7.76765625 3.47414062 -7 3 C-6.030625 2.38125 -5.06125 1.7625 -4.0625 1.125 C-2 0 -2 0 0 0 Z " fill="#FBD000" transform="translate(62,132)"/>
<path d="M0 0 C0.33 0 0.66 0 1 0 C1.55353075 14.78132118 1.55353075 14.78132118 -2 21 C-3.19593367 17.41219898 -2.95235699 14.82979421 -2.6875 11.0625 C-2.60886719 9.83660156 -2.53023438 8.61070313 -2.44921875 7.34765625 C-2.04884984 4.36403752 -1.55411553 2.53098815 0 0 Z " fill="#FBCE00" transform="translate(77,57)"/>
<path d="M0 0 C7.40237027 0.24309919 12.86895264 0.68039845 19 5 C19 5.99 19 6.98 19 8 C18.30261719 7.525625 17.60523438 7.05125 16.88671875 6.5625 C12.89597413 4.40242172 9.10133664 4.15256266 4.64453125 3.625 C2 3 2 3 0 0 Z " fill="#FBCF00" transform="translate(230,38)"/>
<path d="M0 0 C0.33 0 0.66 0 1 0 C1.99862699 7.36487404 2.10331031 14.57313685 2 22 C1.34 22.33 0.68 22.66 0 23 C-0.7912699 15.69488327 -1.46116563 8.35152271 -1 1 C-0.67 0.67 -0.34 0.34 0 0 Z " fill="#FBD000" transform="translate(57,77)"/>
<path d="M0 0 C0 0.99 0 1.98 0 3 C-1.12019531 3.40992187 -2.24039063 3.81984375 -3.39453125 4.2421875 C-4.867263 4.78625401 -6.33991511 5.33053611 -7.8125 5.875 C-8.55048828 6.14441406 -9.28847656 6.41382812 -10.04882812 6.69140625 C-10.76103516 6.95566406 -11.47324219 7.21992187 -12.20703125 7.4921875 C-12.8616333 7.73308105 -13.51623535 7.97397461 -14.19067383 8.22216797 C-16.27895937 9.05526168 -16.27895937 9.05526168 -19 11 C-17.58081685 7.5703074 -16.1171847 5.99499821 -13 4 C-10.77539933 3.19667198 -8.52160964 2.47126679 -6.25 1.8125 C-5.07953125 1.46832031 -3.9090625 1.12414062 -2.703125 0.76953125 C-1.81109375 0.51558594 -0.9190625 0.26164062 0 0 Z " fill="#FBD000" transform="translate(70,110)"/>
<path d="M0 0 C12.9019095 -0.68912276 12.9019095 -0.68912276 16.8125 2 C17.534375 2.66 18.25625 3.32 19 4 C15.73144316 5.63427842 12.39832666 4.35200277 8.9375 3.6875 C8.19177734 3.55666016 7.44605469 3.42582031 6.67773438 3.29101562 C4.77026705 2.93239098 2.88232249 2.47318627 1 2 C0.67 1.34 0.34 0.68 0 0 Z " fill="#FBCF00" transform="translate(278,91)"/>
<path d="M0 0 C1.18851563 0.00902344 2.37703125 0.01804687 3.6015625 0.02734375 C4.51679687 0.03894531 5.43203125 0.05054687 6.375 0.0625 C6.045 0.7225 5.715 1.3825 5.375 2.0625 C2.42515624 3.04578125 0.02375709 3.32799471 -3.0625 3.5625 C-6.36497215 3.81411693 -9.43513237 4.15757301 -12.625 5.0625 C-8.22128622 0.51199576 -6.35697115 -0.06232325 0 0 Z " fill="#FBCF00" transform="translate(76.625,90.9375)"/>
<path d="M0 0 C-3.87793011 1.81520133 -7.41920866 3.16870456 -11.625 4 C-15.25288374 4.73177826 -17.94424057 5.83139654 -21 8 C-20.04980176 5.49493191 -19.1272402 4.10671759 -17.0625 2.375 C-11.83694973 0.02883457 -5.5446779 -1.84822597 0 0 Z " fill="#FBD000" transform="translate(131,39)"/>
<path d="M0 0 C2.44118791 1.26413298 4.87783192 2.53592013 7.3125 3.8125 C8.00279297 4.16892578 8.69308594 4.52535156 9.40429688 4.89257812 C10.07138672 5.24384766 10.73847656 5.59511719 11.42578125 5.95703125 C12.03848877 6.27647705 12.65119629 6.59592285 13.2824707 6.92504883 C15.13643272 8.08538924 16.51434256 9.40296797 18 11 C17.67 11.66 17.34 12.32 17 13 C13.65599174 11.01738641 10.32390397 9.01613848 7 7 C6.35160156 6.60941406 5.70320313 6.21882812 5.03515625 5.81640625 C2.13946045 3.99686145 1.11732189 3.35196566 0 0 Z " fill="#FBD200" transform="translate(299,132)"/>
<path d="M0 0 C14.54981137 4.05840436 14.54981137 4.05840436 19 8 C19 8.99 19 9.98 19 11 C18.19755859 10.32130859 18.19755859 10.32130859 17.37890625 9.62890625 C14.63701808 7.75145573 12.11011434 6.90854801 8.9375 5.9375 C5.48080755 4.87357365 3.02758488 4.01838992 0 2 C0 1.34 0 0.68 0 0 Z " fill="#FBD000" transform="translate(290,110)"/>
<path d="M0 0 C4.20400029 6.30600043 6.67459432 13.41081393 6 21 C4 20 4 20 2.9296875 17.05078125 C2.58164062 15.81714844 2.23359375 14.58351563 1.875 13.3125 C1.34519531 11.48138672 1.34519531 11.48138672 0.8046875 9.61328125 C0.0581365 6.2610498 -0.1574381 3.41640681 0 0 Z " fill="#FBD200" transform="translate(40,104)"/>
<path d="M0 0 C0.33 0 0.66 0 1 0 C1.27908468 5.42121998 0.42721053 9.37857235 -1.5 14.4375 C-1.73847656 15.07365234 -1.97695313 15.70980469 -2.22265625 16.36523438 C-2.80490924 17.91402732 -3.40101069 19.45760253 -4 21 C-4.33 21 -4.66 21 -5 21 C-4.73510924 13.172478 -3.75854433 6.92271421 0 0 Z " fill="#FBD200" transform="translate(320,104)"/>
<path d="M0 0 C0.66 0 1.32 0 2 0 C1.62828452 2.23331495 1.22655905 4.46164665 0.8125 6.6875 C0.48185547 8.54955078 0.48185547 8.54955078 0.14453125 10.44921875 C-1.15597137 14.48388386 -2.81458918 16.27337175 -6 19 C-4.3186083 12.51292846 -2.46937673 6.2322365 0 0 Z " fill="#FBCF00" transform="translate(101,40)"/>
<path d="M0 0 C0.66 0.66 1.32 1.32 2 2 C-11.6332574 4.29612756 -11.6332574 4.29612756 -18 4 C-16.67661368 3.31379969 -15.34050052 2.65213539 -14 2 C-13.278125 1.62875 -12.55625 1.2575 -11.8125 0.875 C-7.92376169 -0.3348297 -4.043408 -0.54018024 0 0 Z " fill="#FBCF00" transform="translate(258,56)"/>
<path d="M0 0 C5.09751014 0.10307465 9.71484831 1.6651527 14.5 3.3125 C14.5 3.6425 14.5 3.9725 14.5 4.3125 C7.63484138 4.57654456 1.24153283 3.57091946 -5.5 2.3125 C-3.5 0.3125 -3.5 0.3125 0 0 Z " fill="#FBCF00" transform="translate(106.5,55.6875)"/>
<path d="M0 0 C0 0.66 0 1.32 0 2 C-7.92 2.495 -7.92 2.495 -16 3 C-16.33 2.34 -16.66 1.68 -17 1 C-11.27959989 0.1679418 -5.77759884 -0.12036664 0 0 Z " fill="#FBD100" transform="translate(277,72)"/>
</svg>
