<?xml version="1.0" encoding="UTF-8"?>
<svg version="1.1" xmlns="http://www.w3.org/2000/svg" width="512" height="512">
<path d="M0 0 C0.88728068 -0.01740852 1.77456137 -0.03481704 2.68872935 -0.05275309 C3.66971533 -0.06689324 4.65070131 -0.08103339 5.66141415 -0.09560204 C6.69904036 -0.11409561 7.73666657 -0.13258918 8.80573601 -0.15164316 C12.30654813 -0.21215233 15.80742885 -0.26499771 19.30837154 -0.31737328 C21.80994464 -0.35799486 24.31151627 -0.39870745 26.81308651 -0.43950462 C49.73430072 -0.80087105 72.65713875 -1.01369463 95.58048248 -1.18455505 C98.6541704 -1.2078785 101.72785434 -1.23166682 104.80153561 -1.25584984 C105.94737038 -1.26483823 105.94737038 -1.26483823 107.11635333 -1.2740082 C119.43908137 -1.37332539 131.75872039 -1.56398406 144.07970191 -1.79007478 C156.75735082 -2.02074899 169.43340357 -2.15441053 182.1130814 -2.20000207 C189.22205572 -2.22821232 196.32493799 -2.29920679 203.43178654 -2.48093605 C251.94650236 -3.68555758 251.94650236 -3.68555758 264.35435838 7.48706996 C268.08694496 11.18497819 271.10374385 15.26632263 274.10382748 19.56171608 C277.52816074 24.34550726 279.79327179 26.08256224 285.59140682 27.2610569 C292.11815326 28.03488673 298.51695536 27.61264965 305.04445553 27.06788063 C308.39105809 26.91431359 311.73740721 26.79659833 315.08565426 26.68534279 C317.14065915 26.60392405 319.19474433 26.49111075 321.24593258 26.34177589 C329.87890439 25.77030813 329.87890439 25.77030813 333.79445553 29.19288063 C335.70401352 31.32613863 336.72807546 32.57728727 337.03841305 35.45528603 C336.98014339 36.28304039 336.92187374 37.11079475 336.86183834 37.96363258 C336.80739559 38.9101519 336.75295284 39.85667122 336.69686031 40.83187294 C336.59821682 42.36602097 336.59821682 42.36602097 336.49758053 43.93116188 C336.42224864 46.1373353 336.35346808 48.34374018 336.29054928 50.55030251 C336.18507188 54.00505178 336.04919551 57.44061495 335.79689693 60.88794899 C335.24436583 68.83478264 334.9668054 76.63431713 337.79445553 84.19288063 C340.74529871 87.56267332 344.13081086 90.17809109 347.65361901 92.92853023 C356.00354974 99.68294927 361.82864326 106.41626332 363.18008892 117.28938405 C363.88260692 125.20014078 363.71932314 133.14089925 363.50794196 141.07000089 C363.41352142 145.58375015 363.45461056 150.09672649 363.47792721 154.61112404 C363.50294253 163.41839669 363.40745896 172.22029746 363.27093609 181.02638222 C363.11728282 191.29007155 363.09296486 201.55289991 363.07505493 211.81757616 C363.03947082 230.1243585 362.89935306 248.42877546 362.69435787 266.73438454 C362.49572066 284.48892344 362.35434973 302.24252949 362.28420162 319.99805641 C362.27985519 321.09437512 362.27550876 322.19069383 362.27103062 323.32023431 C362.25374199 327.72727375 362.23672874 332.13431413 362.22011033 336.54135615 C362.14371667 356.5529628 362.02649608 376.56437287 361.89601803 396.57569313 C361.88945881 397.59127306 361.88289959 398.606853 361.87614161 399.65320808 C361.79341195 412.32894942 361.69064313 425.00427185 361.55452633 437.67955589 C361.51702664 441.21217838 361.48625683 444.74475555 361.46161175 448.27749062 C361.43293509 452.33934892 361.39030828 456.40080977 361.33625965 460.46240757 C361.31898637 461.93348455 361.3066616 463.40462945 361.29971702 464.87579145 C361.2894368 466.87179845 361.2591613 468.86767274 361.22784519 470.86346054 C361.21651668 471.97306645 361.20518817 473.08267235 361.19351637 474.22590268 C360.63806025 478.35566408 358.92351199 480.95360675 356.15383053 483.99366188 C352.52101738 485.84014141 349.05278962 485.51000337 345.04445553 485.38038063 C344.25168209 485.36684547 343.45890865 485.35331032 342.64211178 485.33936501 C340.69259989 485.30413286 338.74343927 485.25032884 336.79445553 485.19288063 C336.81016598 485.77255592 336.82587643 486.35223122 336.84206295 486.94947243 C336.90468343 489.59300802 336.94353071 492.23638718 336.98195553 494.88038063 C337.00709225 495.79239235 337.03222897 496.70440407 337.0581274 497.64405251 C337.11288495 502.66349389 337.10285861 506.13147539 333.79445553 510.19288063 C331.09136127 512.89597489 329.70782749 512.44619082 325.92445564 512.45294285 C324.66605124 512.46000844 323.40764683 512.46707403 322.11110896 512.47435373 C320.70161768 512.47210202 319.29212671 512.46965548 317.88263607 512.46703529 C316.39541774 512.47148408 314.90820178 512.47679693 313.42098933 512.48290402 C309.31917483 512.49713777 305.2174359 512.4987463 301.11560023 512.49830711 C296.69762283 512.49995061 292.27967699 512.51300836 287.86171627 512.52449989 C278.19445239 512.54738561 268.52721042 512.55527436 258.85992312 512.56032634 C252.82717514 512.56357926 246.79443356 512.57009928 240.76168919 512.57732773 C224.06899088 512.59689843 207.37629855 512.61329984 190.68358803 512.61620426 C189.61460842 512.61639183 188.54562881 512.6165794 187.44425588 512.61677266 C185.27703051 512.61713891 183.10980514 512.61750261 180.94257977 512.61786377 C179.3287883 512.61813798 179.3287883 512.61813798 177.68239498 512.61841774 C176.06664092 512.61868856 176.06664092 512.61868856 174.41824535 512.61896486 C156.95884029 512.62250753 139.4995585 512.6495336 122.0401962 512.68691563 C104.12827555 512.72496069 86.21641612 512.74436146 68.30445415 512.74466377 C58.24214233 512.74524921 48.17997752 512.75379643 38.11770344 512.78266144 C29.55029103 512.80712458 20.98307924 512.81449264 12.41564139 512.79941391 C8.0423108 512.7922241 3.66937675 512.79319095 -0.70390987 512.81582451 C-4.70556003 512.83633672 -8.70650685 512.83388776 -12.70814874 512.81294966 C-14.15770247 512.80943977 -15.60730615 512.814428 -17.05679432 512.8286541 C-19.0237933 512.84671892 -20.99101603 512.83108725 -22.95802116 512.8137064 C-24.05167073 512.81452085 -25.1453203 512.81533531 -26.27211076 512.81617445 C-30.34426072 511.95092705 -31.77313457 510.54620874 -34.20554447 507.19288063 C-34.69742691 504.31969274 -34.87965505 502.04084987 -34.83475018 499.17335701 C-34.84201738 498.36710827 -34.84928458 497.56085953 -34.85677201 496.73017901 C-34.87508099 494.01712074 -34.85763979 491.30546571 -34.84046268 488.59241676 C-34.84622155 486.6323774 -34.85416108 484.67234343 -34.86409891 482.7123208 C-34.88502765 477.31737685 -34.87462959 471.92287346 -34.85916781 466.52792764 C-34.84788291 460.71324716 -34.8653028 454.89864392 -34.87906742 449.08397865 C-34.90133493 437.68954987 -34.89648296 426.29528548 -34.88200422 414.90085018 C-34.8707258 405.64279762 -34.86917502 396.38479123 -34.8746233 387.12673378 C-34.87538946 385.81055826 -34.87615563 384.49438273 -34.87694501 383.1383231 C-34.87813468 381.13501985 -34.87934074 379.13171662 -34.88057947 377.12841341 C-34.89587951 352.08659002 -34.88199921 327.04485641 -34.85509498 302.00304688 C-34.83136636 279.74775456 -34.83348948 257.49260529 -34.85739994 235.23731422 C-34.88416464 210.24172886 -34.8947945 185.24622284 -34.87933862 160.25062513 C-34.877735 157.58675927 -34.87617397 154.92289338 -34.8746233 152.25902748 C-34.87346623 150.29286666 -34.87346623 150.29286666 -34.87228579 148.28698543 C-34.86796333 139.03689344 -34.87526712 129.7868521 -34.88702106 120.53676796 C-34.90102433 109.26850412 -34.89729182 98.0004145 -34.87061734 86.7321707 C-34.85745 80.97966204 -34.85237657 75.22744414 -34.86886311 69.47493744 C-34.88371508 64.21330196 -34.87565296 58.95222795 -34.84897535 53.69064373 C-34.84337018 51.78291632 -34.84627609 49.87514189 -34.85835429 47.96744448 C-34.87347473 45.3817487 -34.85805568 42.79799707 -34.83475018 40.21240425 C-34.84645601 39.46490447 -34.85816184 38.71740469 -34.87022239 37.94725341 C-34.79941914 34.03972033 -34.32641441 32.3439135 -31.85371912 29.2541604 C-27.40351841 25.79022394 -23.41634802 26.06908985 -18.01804447 26.13038063 C-17.26845463 26.13489235 -16.51886478 26.13940407 -15.7465601 26.14405251 C-13.89952064 26.15581709 -12.05252234 26.17375198 -10.20554447 26.19288063 C-10.25195072 24.89092751 -10.29835697 23.58897438 -10.34616947 22.24756813 C-10.38370294 20.52102867 -10.42010141 18.79446427 -10.45554447 17.06788063 C-10.50581791 15.78397438 -10.50581791 15.78397438 -10.55710697 14.47413063 C-10.64581257 8.7082669 -10.00709628 5.59986477 -6.20554447 1.19288063 C-3.90828644 0.04425162 -2.55723358 0.04377794 0 0 Z " fill="#FEFDFD" transform="translate(52.20554447174072,-0.19288063049316406)"/>
<path d="M0 0 C0.89573136 -0.00199105 1.79146273 -0.0039821 2.71433747 -0.00603348 C4.19972309 -0.00166422 4.19972309 -0.00166422 5.7151165 0.00279331 C6.76221475 0.00193889 7.80931301 0.00108446 8.88814151 0.00020415 C12.41974747 -0.00145155 15.95130662 0.0040722 19.48290825 0.00952244 C22.00533866 0.00980432 24.52776915 0.00964656 27.05019951 0.00907993 C32.49263041 0.00885173 37.93504606 0.01170013 43.37747383 0.01731777 C51.24636953 0.02543472 59.11525943 0.02804819 66.98415886 0.02930576 C79.75002131 0.03149597 92.51587739 0.03815523 105.28173637 0.04760838 C117.68473084 0.05678329 130.08772358 0.06386374 142.49072075 0.06811619 C143.63693888 0.06851027 143.63693888 0.06851027 144.80631293 0.06891232 C148.63969389 0.07021733 152.47307487 0.07148104 156.30645585 0.07272422 C188.12292788 0.08309588 219.93939134 0.10098801 251.75585747 0.12304783 C251.75585747 14.97304783 251.75585747 29.82304783 251.75585747 45.12304783 C249.44585747 43.14304783 247.13585747 41.16304783 244.75585747 39.12304783 C237.25018725 33.22081399 229.36825575 33.40627636 220.2302227 33.463624 C218.67225174 33.45515976 217.11429136 33.44451061 215.5563488 33.4318552 C211.35025538 33.40382264 207.14467393 33.40616013 202.93851542 33.41414905 C198.53421568 33.41728356 194.13007631 33.39221216 189.72584343 33.37019444 C181.39627844 33.33280711 173.06687671 33.32060959 164.73723608 33.31757003 C155.24982599 33.31287343 145.76257884 33.27993082 136.27524078 33.24467218 C116.76879534 33.17280849 97.26242642 33.13623223 77.75585747 33.12304783 C77.61720174 33.91122237 77.47854601 34.69939692 77.33568859 35.51145554 C76.68690252 38.43362481 76.18161452 39.41286322 73.75585747 41.12304783 C71.64875603 41.52177525 71.64875603 41.52177525 69.19262505 41.55542088 C68.27189705 41.57521503 67.35116905 41.59500919 66.40254021 41.61540318 C65.41183022 41.6217931 64.42112022 41.62818302 63.40038872 41.63476658 C62.38361549 41.65271778 61.36684227 41.67066898 60.31925774 41.68916416 C57.06899994 41.74338323 53.81888997 41.77720042 50.56835747 41.81054783 C48.36586289 41.84371062 46.16338784 41.8781993 43.96093559 41.91406345 C38.55936879 41.99911626 33.15778627 42.06624291 27.75585747 42.12304783 C22.88608596 49.62335063 23.19599142 56.97257072 23.25465202 65.60937595 C23.2507566 67.19450727 23.24511421 68.77963508 23.23788112 70.36475468 C23.22314314 74.70956421 23.23329781 79.05401071 23.24761784 83.39880848 C23.25873317 88.08872594 23.24678317 92.77859271 23.2377758 97.46850681 C23.22384518 106.65169274 23.23139824 115.83474112 23.24645139 125.01792049 C23.26331474 135.71266373 23.2601008 146.40737274 23.2563573 157.10212517 C23.25047904 176.18464801 23.26464897 195.26710487 23.28930473 214.34961033 C23.31322539 232.86526049 23.32030894 251.38082249 23.30981255 269.89648533 C23.29840246 290.0600199 23.2964744 310.22351369 23.31091064 330.38704777 C23.31243648 332.53724765 23.31395683 334.68744754 23.31547165 336.83764744 C23.31622946 337.89558018 23.31698728 338.95351293 23.31776806 340.04350424 C23.32251018 347.49784069 23.32065995 354.95215892 23.31640625 362.40649509 C23.31147886 371.49114495 23.31746725 380.57571145 23.33730055 389.66034222 C23.3471701 394.2952388 23.35228126 398.93000849 23.34440804 403.56491184 C23.33734662 407.80874435 23.34416664 412.0523209 23.36201166 416.29611969 C23.36605317 417.8303282 23.36506127 419.36456007 23.3584928 420.89875984 C23.15635414 433.5409249 23.15635414 433.5409249 28.75585747 444.56054783 C32.64795461 447.60124872 36.76863892 447.33118485 41.48632622 447.43945408 C42.61195724 447.47062572 42.61195724 447.47062572 43.76032829 447.5024271 C46.15457931 447.56774709 48.54893885 447.62672575 50.94335747 447.68554783 C52.56771759 447.72874976 54.19206679 447.77236459 55.81640434 447.8164072 C59.79611117 447.92341046 63.77592704 448.0247272 67.75585747 448.12304783 C67.75585747 448.45304783 67.75585747 448.78304783 67.75585747 449.12304783 C57.52585747 449.45304783 47.29585747 449.78304783 36.75585747 450.12304783 C39.99208477 450.93210465 42.19425009 451.25076603 45.44239235 451.26006222 C46.85771346 451.26767403 46.85771346 451.26767403 48.30162692 451.27543962 C49.33507464 451.27593738 50.36852235 451.27643513 51.43328667 451.27694798 C52.53361898 451.28133023 53.63395129 451.28571248 54.767627 451.29022753 C58.4678071 451.30362017 62.16796338 451.30979543 65.86816216 451.31591892 C68.51583855 451.32381941 71.16351188 451.3320833 73.81118584 451.3406992 C81.76512273 451.36520254 89.71906582 451.37984606 97.67302883 451.39275926 C99.91985195 451.39647231 102.16667446 451.40044543 104.41349697 451.40451193 C118.36924881 451.42974643 132.32500165 451.45179706 146.28077126 451.46424007 C149.51205003 451.46716971 152.74332877 451.47013138 155.97460747 451.47314548 C157.17926572 451.47426456 157.17926572 451.47426456 158.40826049 451.47540624 C171.41978625 451.48806152 184.43117541 451.52128846 197.44263729 451.56294732 C210.8040701 451.60537579 224.16543297 451.62893603 237.52693295 451.63416064 C245.02784158 451.63757341 252.52853661 451.64931291 260.02937889 451.68226337 C266.41690046 451.71027748 272.80416463 451.72125729 279.19174287 451.71006791 C282.44962579 451.70488483 285.70685739 451.71047672 288.96468544 451.73253345 C292.50040519 451.7551689 296.03476746 451.74695428 299.5704937 451.73104954 C300.59501853 451.74493163 301.61954336 451.75881371 302.67511439 451.77311647 C310.05984232 451.69127928 314.86577354 449.80504716 320.24268222 444.71575487 C326.92336431 437.31930983 327.19498811 430.24808949 327.15699577 420.74507236 C327.16379244 419.49799116 327.17058911 418.25090995 327.17759174 416.96603841 C327.19327014 413.51598371 327.19555128 410.06639897 327.19200861 406.61634219 C327.19139525 402.8908772 327.20796573 399.16548163 327.22218132 395.44004917 C327.2470749 388.14507132 327.25534469 380.85016619 327.25701845 373.55514941 C327.25844535 367.62291421 327.26461663 361.69070294 327.27412033 355.7584753 C327.30053443 338.92732445 327.31437955 322.09623093 327.31212891 305.26505921 C327.31200904 304.35814907 327.31188917 303.45123893 327.31176567 302.51684666 C327.31164303 301.60882477 327.31152039 300.70080289 327.31139403 299.76526519 C327.31017518 285.0559037 327.33887152 270.34677279 327.38118077 255.63747797 C327.42431366 240.52213613 327.44498899 225.40690663 327.44239944 210.2915017 C327.44140487 201.81017009 327.44958664 193.32908013 327.48193359 184.84780407 C327.50930386 177.62526745 327.51572982 170.403082 327.49540532 163.18051586 C327.48563627 159.49882526 327.48533984 155.81780764 327.51146507 152.13618183 C327.53956034 148.13559718 327.52066374 144.13655811 327.49757195 140.13594151 C327.52071798 138.40958964 327.52071798 138.40958964 327.54433161 136.64836198 C327.39032695 124.53133105 322.53708505 117.20114668 314.75585747 108.12304783 C329.93585747 108.12304783 345.11585747 108.12304783 360.75585747 108.12304783 C360.82363972 155.04634902 360.87736637 201.9696385 360.90905346 248.89297892 C360.91280569 254.42938543 360.91668865 259.96579185 360.92065239 265.50219822 C360.92143932 266.60442352 360.92222625 267.70664882 360.92303703 268.84227488 C360.93610035 286.70269174 360.95975929 304.5630797 360.98731586 322.4234794 C361.01534429 340.74213276 361.0320283 359.06077097 361.03812295 377.3794449 C361.04224472 388.68822658 361.05527531 399.99692662 361.07960687 411.30568317 C361.09543244 419.05452921 361.10026505 426.80333287 361.0963616 434.5521939 C361.09443509 439.02668314 361.09744297 443.50102944 361.11347389 447.97549343 C361.12803531 452.06958357 361.12883442 456.16343415 361.11855415 460.25753514 C361.11728293 461.7407954 361.12112036 463.22407041 361.13050701 464.70730152 C361.14250562 466.71983239 361.1342814 468.73245369 361.12500095 470.74499893 C361.1267097 472.42355265 361.1267097 472.42355265 361.12845296 474.13601655 C360.60992896 478.2929305 358.89735193 480.87012176 356.11523247 483.92382908 C352.48241932 485.77030861 349.01419156 485.44017057 345.00585747 485.31054783 C344.21308403 485.29701267 343.42031059 485.28347752 342.60351372 485.2695322 C340.65400183 485.23430006 338.70484121 485.18049604 336.75585747 485.12304783 C336.77156792 485.70272312 336.78727837 486.28239841 336.80346489 486.87963963 C336.86608537 489.52317522 336.90493265 492.16655437 336.94335747 494.81054783 C336.96849419 495.72255955 336.99363091 496.63457127 337.01952934 497.5742197 C337.07428689 502.59366109 337.06426055 506.06164259 333.75585747 510.12304783 C331.05276321 512.82614208 329.66922943 512.37635802 325.88585758 512.38311005 C324.62745318 512.39017564 323.36904877 512.39724123 322.0725109 512.40452093 C320.66301962 512.40226922 319.25352865 512.39982268 317.84403801 512.39720249 C316.35681968 512.40165128 314.86960372 512.40696413 313.38239127 512.41307122 C309.28057677 512.42730497 305.17883784 512.4289135 301.07700217 512.42847431 C296.65902477 512.43011781 292.24107893 512.44317555 287.82311821 512.45466709 C278.15585433 512.47755281 268.48861236 512.48544156 258.82132506 512.49049354 C252.78857708 512.49374646 246.7558355 512.50026648 240.72309113 512.50749493 C224.03039282 512.52706563 207.33770048 512.54346704 190.64498997 512.54637146 C189.57601036 512.54655903 188.50703075 512.5467466 187.40565782 512.54693985 C185.23843245 512.54730611 183.07120708 512.54766981 180.90398171 512.54803097 C179.29019024 512.54830518 179.29019024 512.54830518 177.64379692 512.54858494 C176.02804285 512.54885576 176.02804285 512.54885576 174.37964729 512.54913206 C156.92024223 512.55267472 139.46096044 512.57970079 122.00159814 512.61708283 C104.08967749 512.65512788 86.17781806 512.67452866 68.26585609 512.67483097 C58.20354427 512.67541641 48.14137946 512.68396363 38.07910538 512.71282864 C29.51169297 512.73729178 20.94448118 512.74465983 12.37704333 512.72958111 C8.00371274 512.7223913 3.63077868 512.72335815 -0.74250793 512.74599171 C-4.74415809 512.76650392 -8.74510492 512.76405496 -12.7467468 512.74311686 C-14.19630053 512.73960697 -15.64590421 512.7445952 -17.09539238 512.7588213 C-19.06239136 512.77688612 -21.02961409 512.76125445 -22.99661922 512.7438736 C-24.09026879 512.74468805 -25.18391836 512.74550251 -26.31070882 512.74634165 C-30.38285878 511.88109425 -31.81173263 510.47637594 -34.24414253 507.12304783 C-34.73602497 504.24985994 -34.91825311 501.97101706 -34.87334824 499.10352421 C-34.88061544 498.29727547 -34.88788264 497.49102673 -34.89537007 496.66034621 C-34.91367905 493.94728794 -34.89623785 491.23563291 -34.87906075 488.52258396 C-34.88481961 486.5625446 -34.89275914 484.60251063 -34.90269697 482.642488 C-34.92362571 477.24754404 -34.91322765 471.85304066 -34.89776587 466.45809484 C-34.88648097 460.64341435 -34.90390086 454.82881112 -34.91766548 449.01414585 C-34.93993299 437.61971707 -34.93508102 426.22545268 -34.92060228 414.83101737 C-34.90932386 405.57296482 -34.90777308 396.31495843 -34.91322136 387.05690098 C-34.91398752 385.74072545 -34.91475369 384.42454993 -34.91554307 383.0684903 C-34.91673274 381.06518705 -34.9179388 379.06188382 -34.91917753 377.05858061 C-34.93447757 352.01675722 -34.92059727 326.97502361 -34.89369304 301.93321408 C-34.86996442 279.67792176 -34.87208754 257.42277249 -34.895998 235.16748142 C-34.9227627 210.17189606 -34.93339256 185.17639004 -34.91793668 160.18079233 C-34.91633306 157.51692646 -34.91477203 154.85306058 -34.91322136 152.18919468 C-34.91206429 150.22303386 -34.91206429 150.22303386 -34.91088385 148.21715263 C-34.90656139 138.96706064 -34.91386518 129.7170193 -34.92561913 120.46693516 C-34.93962239 109.19867132 -34.93588988 97.9305817 -34.90921541 86.6623379 C-34.89604806 80.90982924 -34.89097463 75.15761134 -34.90746117 69.40510464 C-34.92231314 64.14346916 -34.91425102 58.88239515 -34.88757341 53.62081093 C-34.88196824 51.71308352 -34.88487415 49.80530909 -34.89695235 47.89761168 C-34.91207279 45.3119159 -34.89665374 42.72816426 -34.87334824 40.14257145 C-34.88505407 39.39507167 -34.8967599 38.64757189 -34.90882045 37.8774206 C-34.8380172 33.96988752 -34.36501247 32.2740807 -31.89231718 29.1843276 C-27.44211647 25.72039114 -23.45494608 25.99925705 -18.05664253 26.06054783 C-17.30705269 26.06505955 -16.55746284 26.06957127 -15.78515816 26.0742197 C-13.9381187 26.08598429 -12.0911204 26.10391917 -10.24414253 26.12304783 C-10.29054878 24.8210947 -10.33695503 23.51914158 -10.38476753 22.17773533 C-10.422301 20.45119587 -10.45869947 18.72463147 -10.49414253 16.99804783 C-10.54441597 15.71414158 -10.54441597 15.71414158 -10.59570503 14.40429783 C-10.68441063 8.6384341 -10.04569434 5.53003197 -6.24414253 1.12304783 C-3.91877383 -0.03963652 -2.58904747 -0.00126542 0 0 Z " fill="#E5E6E7" transform="translate(52.24414253234863,-0.1230478286743164)"/>
<path d="M0 0 C0.74958984 0.00451172 1.49917969 0.00902344 2.27148438 0.01367188 C4.11852383 0.02543646 5.96552213 0.04337135 7.8125 0.0625 C7.81396521 1.49110557 7.81396521 1.49110557 7.81546003 2.94857186 C7.87357702 59.35620246 7.94745254 115.76379456 8.04148628 172.17137725 C8.05276502 178.93952799 8.06389672 185.70767897 8.07495117 192.47583008 C8.07660502 193.48611047 8.07660502 193.48611047 8.07829228 194.51680056 C8.1139748 216.356162 8.13994473 238.1955219 8.16088969 260.03490203 C8.1830718 283.10935518 8.21629602 306.18377278 8.26120156 329.25819474 C8.28775235 343.08512443 8.30542246 356.91200756 8.31184604 370.7389615 C8.31708945 380.21186067 8.33327106 389.68470118 8.35816566 399.15756895 C8.37221661 404.62846188 8.38133809 410.09924971 8.37750816 415.57016182 C8.37411085 420.57467412 8.38438791 425.57896151 8.40573552 430.5834277 C8.41102631 432.39776344 8.41121449 434.2121224 8.40589563 436.02645805 C8.3994179 438.48585193 8.41123119 440.94449553 8.42773914 443.40382671 C8.42146245 444.11425144 8.41518575 444.82467616 8.40871885 445.55662891 C8.46251234 449.88434782 9.08234034 452.6673708 11.8125 456.0625 C14.9759576 458.30819622 17.78585426 458.31576445 21.59897995 458.32421303 C22.78781524 458.33167852 23.97665054 458.33914401 25.20151114 458.34683573 C26.50889125 458.344901 27.81627136 458.34296626 29.16326904 458.3409729 C30.56503187 458.34597471 31.96679182 458.35185016 33.36854768 458.35852563 C37.22465853 458.37435364 41.08069659 458.37775785 44.936836 458.37917423 C49.09360827 458.3828634 53.25034036 458.39801645 57.40708923 458.41178894 C64.61033458 458.4340808 71.81356568 458.44908249 79.01683807 458.45915604 C89.43160179 458.47373125 99.84631587 458.4992648 110.26105049 458.52748732 C127.15758173 458.57297639 144.0541201 458.60958245 160.95068359 458.640625 C177.36573541 458.67080189 193.78076976 458.70514819 210.19580078 458.74511719 C211.20734139 458.74757874 212.218882 458.75004028 213.26107535 458.75257643 C218.33559313 458.76495086 223.41011072 458.77740743 228.4846282 458.78990483 C270.5938945 458.89350428 312.70318231 458.98269709 354.8125 459.0625 C354.9000127 462.29149426 354.95306146 465.52018116 355 468.75 C355.02513672 469.66201172 355.05027344 470.57402344 355.07617188 471.51367188 C355.13092942 476.53311326 355.12090308 480.00109476 351.8125 484.0625 C349.10940574 486.76559426 347.72587197 486.31581019 343.94250011 486.32256222 C342.05489351 486.3331606 342.05489351 486.3331606 340.12915343 486.3439731 C338.71966216 486.34172139 337.31017118 486.33927485 335.90068054 486.33665466 C334.41346221 486.34110345 332.92624625 486.3464163 331.43903381 486.35252339 C327.3372193 486.36675714 323.23548037 486.36836567 319.1336447 486.36792648 C314.7156673 486.36956998 310.29772147 486.38262773 305.87976074 486.39411926 C296.21249686 486.41700498 286.54525489 486.42489373 276.8779676 486.42994571 C270.84521961 486.43319863 264.81247803 486.43971865 258.77973366 486.4469471 C242.08703535 486.4665178 225.39434302 486.48291921 208.7016325 486.48582363 C207.63265289 486.4860112 206.56367328 486.48619877 205.46230035 486.48639202 C203.29507498 486.48675828 201.12784961 486.48712198 198.96062424 486.48748314 C197.34683277 486.48775735 197.34683277 486.48775735 195.70043945 486.48803711 C194.08468539 486.48830793 194.08468539 486.48830793 192.43628982 486.48858423 C174.97688477 486.4921269 157.51760297 486.51915297 140.05824067 486.556535 C122.14632002 486.59458006 104.23446059 486.61398083 86.32249862 486.61428314 C76.2601868 486.61486858 66.19802199 486.6234158 56.13574791 486.65228081 C47.5683355 486.67674395 39.00112371 486.68411201 30.43368586 486.66903328 C26.06035527 486.66184347 21.68742122 486.66281032 17.3141346 486.68544388 C13.31248444 486.70595609 9.31153762 486.70350713 5.30989573 486.68256903 C3.860342 486.67905914 2.41073832 486.68404737 0.96125015 486.69827347 C-1.00574882 486.71633829 -2.97297156 486.70070662 -4.93997669 486.68332577 C-6.03362626 486.68414022 -7.12727583 486.68495468 -8.25406629 486.68579382 C-12.32621625 485.82054642 -13.75509009 484.41582811 -16.1875 481.0625 C-16.67938244 478.18931211 -16.86161058 475.91046924 -16.8167057 473.04297638 C-16.82397291 472.23672764 -16.83124011 471.4304789 -16.83872753 470.59979838 C-16.85703652 467.88674011 -16.83959532 465.17508508 -16.82241821 462.46203613 C-16.82817708 460.50199677 -16.83611661 458.5419628 -16.84605443 456.58194017 C-16.86698317 451.18699621 -16.85658512 445.79249283 -16.84112334 440.39754701 C-16.82983844 434.58286653 -16.84725833 428.76826329 -16.86102295 422.95359802 C-16.88329045 411.55916924 -16.87843849 400.16490485 -16.86395974 388.77046955 C-16.85268133 379.51241699 -16.85113055 370.2544106 -16.85657883 360.99635315 C-16.85734499 359.68017762 -16.85811116 358.3640021 -16.85890054 357.00794247 C-16.86009021 355.00463922 -16.86129626 353.00133599 -16.862535 350.99803278 C-16.87783504 325.95620939 -16.86395473 300.91447578 -16.83705051 275.87266625 C-16.81332189 253.61737393 -16.815445 231.36222466 -16.83935547 209.10693359 C-16.86612017 184.11134823 -16.87675003 159.11584221 -16.86129415 134.1202445 C-16.85969053 131.45637864 -16.8581295 128.79251275 -16.85657883 126.12864685 C-16.85542176 124.16248603 -16.85542176 124.16248603 -16.85424132 122.1566048 C-16.84991886 112.90651281 -16.85722264 103.65647147 -16.86897659 94.40638733 C-16.88297986 83.13812349 -16.87924735 71.87003387 -16.85257287 60.60179007 C-16.83940553 54.84928141 -16.8343321 49.09706351 -16.85081863 43.34455681 C-16.86567061 38.08292133 -16.85760848 32.82184732 -16.83093087 27.5602631 C-16.82532571 25.65253569 -16.82823162 23.74476126 -16.84030981 21.83706385 C-16.85543026 19.25136807 -16.8400112 16.66761644 -16.8167057 14.08202362 C-16.82841153 13.33452384 -16.84011737 12.58702406 -16.85217792 11.81687278 C-16.78137466 7.9093397 -16.30836994 6.21353287 -13.83567464 3.12377977 C-9.38547394 -0.34015669 -5.39830355 -0.06129078 0 0 Z " fill="#A7A8AC" transform="translate(34.1875,25.9375)"/>
<path d="M0 0 C4.87557554 4.85207879 8.22609061 9.08393514 8.29637527 16.1509943 C8.31145795 17.19835949 8.32654063 18.24572468 8.34208035 19.32482821 C8.35175906 21.0492997 8.35175906 21.0492997 8.3616333 22.80860901 C8.37604234 24.0312544 8.39045137 25.25389979 8.40529704 26.51359504 C8.44293318 29.91043666 8.47152778 33.3071308 8.49599409 36.70407832 C8.51855419 39.61843257 8.54841442 42.53269435 8.57824031 45.44698191 C8.86151866 73.2278701 8.99143403 101.01087742 9.09688187 128.79293919 C9.11089686 132.42096109 9.12515099 136.04898195 9.13964844 139.67700195 C9.14503431 141.0293821 9.14503431 141.0293821 9.150529 142.40908306 C9.21027797 156.91727974 9.3394545 171.42399777 9.49702135 185.93142665 C9.65806293 200.88518322 9.74846507 215.83818534 9.77493358 230.79279178 C9.79157005 239.16499942 9.8378951 247.53458405 9.96427155 255.90591621 C11.05825733 330.7269806 11.05825733 330.7269806 -11.44788742 362.0127039 C-13 363 -13 363 -15.41645545 362.8848179 C-18 362 -18 362 -19.5624643 359.77949297 C-20.21901305 358.31959777 -20.21901305 358.31959777 -20.88882542 356.83020973 C-21.39213009 355.73781526 -21.89543476 354.64542078 -22.41399109 353.51992345 C-22.93737403 352.35834871 -23.46075697 351.19677397 -24 350 C-24.82641867 348.32415144 -24.82641867 348.32415144 -25.66953266 346.61444736 C-35.07420406 327.53356731 -38.93910208 311.17880972 -38.56748927 289.6637423 C-38.51833914 285.94896166 -38.54687092 282.23451601 -38.56452942 278.51956177 C-38.58733319 271.2962671 -38.54241986 264.07502334 -38.47293992 256.85209079 C-38.3947024 248.41858058 -38.38843307 239.98543196 -38.38468938 231.55161481 C-38.37580577 216.50679086 -38.306431 201.46288484 -38.20043945 186.41845703 C-38.09788082 171.85003229 -38.03441361 157.28215832 -38.01586914 142.71337891 C-38.01471535 141.81259132 -38.01356156 140.91180373 -38.0123728 139.98371954 C-38.0100782 138.16878015 -38.00778975 136.35384076 -38.0055075 134.53890135 C-38.00437767 133.64342682 -38.00324784 132.7479523 -38.00208378 131.82534218 C-38.00097338 130.9319873 -37.99986297 130.03863242 -37.99871892 129.11820618 C-37.98008084 115.17306106 -37.93041242 101.22800418 -37.87579464 87.28295959 C-37.85950217 83.08263317 -37.84481175 78.8823127 -37.83368611 74.68196917 C-37.81030069 65.87068218 -37.77670974 57.05971003 -37.70767707 48.24864717 C-37.67934559 44.60989205 -37.65699674 40.97138778 -37.65177917 37.33251953 C-37.64579299 33.38494692 -37.60872526 29.43801114 -37.5684967 25.4906311 C-37.57128051 24.34736221 -37.57406432 23.20409332 -37.57693249 22.02617991 C-37.46207666 14.37413958 -36.31569966 7.78240528 -31.140625 1.87890625 C-21.94759129 -4.52202838 -9.83443182 -6.8612315 0 0 Z " fill="#F4A060" transform="translate(486,111)"/>
<path d="M0 0 C4.29915941 2.1495797 5.10493217 3.31110425 7.6640625 7.19140625 C14.43836931 16.2512781 21.13645555 24.3882442 32.8984375 26.13037109 C44.99538742 27.29926481 57.2856892 26.9066246 69.39807129 26.09477234 C78.10046092 25.59248962 78.10046092 25.59248962 82 29 C83.90945549 31.13318136 84.93363103 32.38450957 85.24395752 35.2624054 C85.18568787 36.09015976 85.12741821 36.91791412 85.06738281 37.77075195 C85.01386154 38.71794601 84.96034027 39.66514008 84.90519714 40.64103699 C84.83851334 41.66312759 84.77182953 42.6852182 84.703125 43.73828125 C82.33018438 70.63034546 82.33018438 70.63034546 92.70864868 94.16505432 C97.01088793 98.48958561 101.82336192 102.22039937 106.90454102 105.58447266 C107.59604248 106.05159668 108.28754395 106.5187207 109 107 C109 107.33 109 107.66 109 108 C73.03 108 37.06 108 0 108 C0 72.36 0 36.72 0 0 Z " fill="#939598" transform="translate(304,0)"/>
<path d="M0 0 C6.93 0 13.86 0 21 0 C21 83.49 21 166.98 21 253 C14.07 253 7.14 253 0 253 C0 169.51 0 86.02 0 0 Z " fill="#F45C48" transform="translate(449,173)"/>
<path d="M0 0 C3.82860565 3.81015453 7.68646891 7.84893496 8.24050903 13.41717529 C8.2338472 14.76286591 8.2338472 14.76286591 8.22705078 16.13574219 C8.22689972 17.15649841 8.22674866 18.17725464 8.22659302 19.22894287 C8.21627045 20.32386047 8.20594788 21.41877808 8.1953125 22.546875 C8.1924826 23.6732135 8.18965271 24.799552 8.18673706 25.96002197 C8.17554374 29.55678946 8.15044037 33.15330779 8.125 36.75 C8.11496912 39.18879849 8.10584346 41.62760088 8.09765625 44.06640625 C8.07730895 50.04444402 8.03815781 56.02194315 8 62 C-6.85 62 -21.7 62 -37 62 C-37.09211895 55.18575677 -37.17167374 48.37369727 -37.21972656 41.55932617 C-37.23977 39.24414729 -37.26701225 36.92901858 -37.30175781 34.61401367 C-37.35059542 31.27510149 -37.37304225 27.93686201 -37.390625 24.59765625 C-37.41127014 23.57229263 -37.43191528 22.54692902 -37.45318604 21.49049377 C-37.45548654 14.02577971 -36.17678824 7.62394121 -31.140625 1.87890625 C-21.94759129 -4.52202838 -9.83443182 -6.8612315 0 0 Z " fill="#FE85A3" transform="translate(486,111)"/>
<path d="M0 0 C0.33 0 0.66 0 1 0 C1.24234375 0.9178125 1.4846875 1.835625 1.734375 2.78125 C6.37494763 19.77288517 14.94935964 29.07339843 27.27734375 41.515625 C28.12873428 42.37508728 28.98012482 43.23454956 29.85731506 44.12005615 C31.64324499 45.91970283 33.43065122 47.71788558 35.21948242 49.51464844 C37.03419077 51.34092997 38.84440963 53.17168334 40.65014648 55.00683594 C43.28688019 57.6863792 45.93674711 60.35229346 48.58984375 63.015625 C49.38494858 63.82823792 50.18005341 64.64085083 50.99925232 65.47808838 C58.02816516 72.48033082 65.50704987 77.71471592 75.125 80.375 C76.24132812 80.69210938 77.35765625 81.00921875 78.5078125 81.3359375 C79.33023438 81.55507812 80.15265625 81.77421875 81 82 C81 82.33 81 82.66 81 83 C54.27 83 27.54 83 0 83 C0 55.61 0 28.22 0 0 Z " fill="#A7A9AC" transform="translate(304,25)"/>
<path d="M0 0 C0.84503635 -0.00467997 1.6900727 -0.00935994 2.56071621 -0.01418173 C5.40286377 -0.02618336 8.24453373 -0.01665436 11.08668518 -0.00723267 C13.12002342 -0.0112961 15.15335946 -0.01663669 17.18669128 -0.02316284 C22.71765235 -0.0368702 28.24844603 -0.03152345 33.77941012 -0.02202559 C39.56047447 -0.01444565 45.34152422 -0.02147005 51.12258911 -0.02618408 C60.83314087 -0.03164694 70.54362426 -0.02443657 80.25416565 -0.01016235 C91.48827677 0.00616055 102.72222452 0.00088035 113.95633167 -0.01564157 C123.59205794 -0.02924681 133.22773498 -0.03118066 142.86346775 -0.02332556 C148.62262307 -0.01864317 154.38170156 -0.01803966 160.14085197 -0.02793503 C165.55564027 -0.03658824 170.9702176 -0.03061282 176.38498306 -0.01325226 C178.37481015 -0.00927842 180.36465493 -0.01043673 182.35447502 -0.01704025 C185.06598514 -0.0252105 187.77681476 -0.01498895 190.48828125 0 C191.28000982 -0.00669217 192.07173839 -0.01338433 192.88745874 -0.02027929 C197.12857019 0.02534817 199.74097199 0.32226768 202.80763245 3.38095093 C201.93263245 10.25595093 201.93263245 10.25595093 200.80763245 11.38095093 C198.10629459 11.48323941 195.43037413 11.5198115 192.72842407 11.5146637 C191.87143478 11.51692925 191.01444549 11.51919481 190.13148683 11.52152902 C187.23714502 11.52789912 184.34284967 11.52703774 181.44850159 11.5262146 C179.38265929 11.52920421 177.31681755 11.53260628 175.25097656 11.53639221 C169.62297883 11.54525641 163.99499628 11.54757133 158.36699224 11.548208 C153.67731452 11.54915503 148.98764038 11.55283093 144.29796404 11.55638009 C133.23876639 11.56453379 122.17957689 11.56696349 111.12037659 11.56625366 C99.69203475 11.56565257 88.26374007 11.57620856 76.83541018 11.59199733 C67.04095774 11.60504927 57.24652076 11.61043855 47.45205969 11.60979825 C41.59457999 11.60954258 35.73714217 11.61243174 29.8796711 11.6229763 C24.3730401 11.63261797 18.86649136 11.63276366 13.35985756 11.62545967 C11.33371105 11.62440892 9.30755952 11.62680552 7.28142166 11.63282013 C4.52545742 11.64047413 1.76978195 11.6359394 -0.98617554 11.62818909 C-1.79676688 11.63333265 -2.60735822 11.63847621 -3.44251293 11.64377564 C-8.96409635 11.60922213 -8.96409635 11.60922213 -11.19236755 9.38095093 C-11.73510008 4.27926517 -11.73510008 4.27926517 -10.18485928 1.71335411 C-7.02718911 -0.39821791 -3.67213801 -0.03095191 0 0 Z " fill="#3C4365" transform="translate(164.19236755371094,315.6190490722656)"/>
<path d="M0 0 C0.99 0.99 0.99 0.99 2 2 C1.78002949 7.59846513 -0.1244645 11.62596337 -3.0078125 16.296875 C-3.61337479 17.30829559 -3.61337479 17.30829559 -4.23117065 18.34014893 C-5.51825945 20.48353239 -6.82138546 22.61663674 -8.125 24.75 C-8.97760588 26.16603897 -9.82917748 27.58270122 -10.6796875 29 C-11.51805287 30.39073129 -12.3565929 31.78135731 -13.1953125 33.171875 C-13.60568253 33.85600464 -14.01605255 34.54013428 -14.43885803 35.24499512 C-16.2499038 38.2378639 -18.08258841 41.11290614 -20.15014648 43.93945312 C-25.61710074 51.46739829 -25.95576036 57.84057968 -25.8125 67 C-25.81122742 69.58334122 -25.81736856 72.16670008 -25.83203125 74.75 C-25.81889893 75.87921875 -25.8057666 77.0084375 -25.79223633 78.171875 C-26 81 -26 81 -28 84 C-30.7311293 84.30428811 -33.23173859 84.42005639 -35.96484375 84.3984375 C-37.1485128 84.40274277 -37.1485128 84.40274277 -38.35609436 84.40713501 C-40.02638465 84.409178 -41.69669873 84.40363169 -43.36694336 84.39111328 C-45.92421049 84.3750833 -48.47989206 84.39094202 -51.03710938 84.41015625 C-52.65885766 84.40817344 -54.28060496 84.40432898 -55.90234375 84.3984375 C-56.66804184 84.40451019 -57.43373993 84.41058289 -58.22264099 84.4168396 C-61.08094088 84.37898666 -63.42482552 84.30434987 -65.98120117 82.95166016 C-67.58786151 79.87386415 -67.42707427 76.76468207 -67.3984375 73.375 C-67.40130768 72.63169434 -67.40417786 71.88838867 -67.40713501 71.12255859 C-67.40917476 69.5524011 -67.403651 67.98221814 -67.39111328 66.41210938 C-67.37505703 64.00853668 -67.39096352 61.60664539 -67.41015625 59.203125 C-67.4081738 57.67707962 -67.40433009 56.15103529 -67.3984375 54.625 C-67.40754654 53.54677979 -67.40754654 53.54677979 -67.4168396 52.44677734 C-67.37726768 49.63974191 -67.26208229 47.46989732 -65.87988281 44.99169922 C-62.98027499 43.46206195 -60.73822228 44.07438314 -57.5234375 44.5078125 C-49.11136804 45.25103293 -41.06275796 45.92039376 -33 43 C-26.0420501 36.79829941 -22.35286409 28.18113373 -18.67306519 19.76708984 C-16.54788762 14.94976454 -14.03443066 10.52779569 -11.1796875 6.10546875 C-10.79467072 5.50535477 -10.40965393 4.90524078 -10.01296997 4.28694153 C-6.87532442 -0.46525238 -5.57389448 -1.53282098 0 0 Z " fill="#F9D44E" transform="translate(150,364)"/>
<path d="M0 0 C2.625 0.25 2.625 0.25 4.5 1.3125 C5.91803619 3.75467344 5.69354488 5.43500238 5.24072266 8.16918945 C3.96640688 12.4756896 1.31006265 16.08219126 -1.125 19.8125 C-1.69831055 20.73160156 -2.27162109 21.65070313 -2.86230469 22.59765625 C-5.81481327 27.32938475 -8.85497714 31.955478 -12.09375 36.49609375 C-21.79384509 50.63579699 -23.05642281 62.60090357 -22.14892578 79.59643555 C-22.375 82.25 -22.375 82.25 -23.38818359 84.09155273 C-26.50710992 85.91009604 -29.7082183 85.67721939 -33.21875 85.6484375 C-34.36700256 85.65274277 -34.36700256 85.65274277 -35.53845215 85.65713501 C-37.15568787 85.659175 -38.7729483 85.65364963 -40.39013672 85.64111328 C-42.86612091 85.62505758 -45.34047285 85.64096297 -47.81640625 85.66015625 C-49.38802444 85.65817381 -50.95964161 85.6543301 -52.53125 85.6484375 C-53.27193726 85.65451019 -54.01262451 85.66058289 -54.77575684 85.6668396 C-57.57686984 85.6284956 -59.84278771 85.53357359 -62.3425293 84.20166016 C-63.96965184 81.12594069 -63.78176571 78.01892725 -63.73828125 74.625 C-63.73877975 73.88169434 -63.73927826 73.13838867 -63.73979187 72.37255859 C-63.73745333 70.80238163 -63.72773768 69.23220079 -63.71118164 67.66210938 C-63.68758614 65.25877358 -63.69062226 62.85654721 -63.69726562 60.453125 C-63.69168872 58.92707672 -63.68457877 57.40103311 -63.67578125 55.875 C-63.67669266 55.15618652 -63.67760406 54.43737305 -63.67854309 53.69677734 C-63.6260669 50.0038727 -63.47834783 48.40502174 -61.375 45.25 C-58.89159097 44.98272986 -56.66027932 44.90133666 -54.1796875 44.95703125 C-53.11852219 44.96339851 -53.11852219 44.96339851 -52.03591919 44.96989441 C-49.77356095 44.98670453 -47.51208952 45.02435872 -45.25 45.0625 C-43.71746077 45.07754393 -42.1849076 45.09123284 -40.65234375 45.10351562 C-36.89288682 45.13661538 -33.13409382 45.18841175 -29.375 45.25 C-29.12065186 44.55342285 -28.86630371 43.8568457 -28.60424805 43.13916016 C-27.22522012 39.89796523 -25.54212323 37.03040568 -23.70703125 34.0234375 C-23.3491301 33.43511139 -22.99122894 32.84678528 -22.6224823 32.2406311 C-21.86524336 30.99739502 -21.10619887 29.75525709 -20.34545898 28.51416016 C-19.20505359 26.65363792 -18.06978313 24.79006938 -16.93554688 22.92578125 C-3.16628761 0.33329343 -3.16628761 0.33329343 0 0 Z " fill="#F9D44E" transform="translate(146.375,190.75)"/>
<path d="M0 0 C2.625 0.25 2.625 0.25 4.5 1.3125 C5.90632335 3.73450133 5.72569399 5.38199279 5.27636719 8.09790039 C3.8534402 12.79921277 0.92997943 16.82466267 -1.6875 20.9375 C-2.31035889 21.95569824 -2.93321777 22.97389648 -3.57495117 24.02294922 C-6.54674325 28.86600923 -9.58022079 33.59838591 -12.9375 38.18359375 C-22.36079251 51.51619698 -22.88726191 63.45763282 -22.13305664 79.56469727 C-22.375 82.25 -22.375 82.25 -23.39038086 84.09594727 C-26.50892843 85.9093775 -29.71066977 85.67719929 -33.21875 85.6484375 C-34.36700256 85.65274277 -34.36700256 85.65274277 -35.53845215 85.65713501 C-37.15568787 85.659175 -38.7729483 85.65364963 -40.39013672 85.64111328 C-42.86612091 85.62505758 -45.34047285 85.64096297 -47.81640625 85.66015625 C-49.38802444 85.65817381 -50.95964161 85.6543301 -52.53125 85.6484375 C-53.27193726 85.65451019 -54.01262451 85.66058289 -54.77575684 85.6668396 C-57.57615415 85.6285054 -59.84172622 85.53445685 -62.34033203 84.20166016 C-63.96973551 81.12816996 -63.80211446 78.01943868 -63.7734375 74.625 C-63.77630768 73.88169434 -63.77917786 73.13838867 -63.78213501 72.37255859 C-63.78417476 70.8024011 -63.778651 69.23221814 -63.76611328 67.66210938 C-63.75005703 65.25853668 -63.76596352 62.85664539 -63.78515625 60.453125 C-63.7831738 58.92707962 -63.77933009 57.40103529 -63.7734375 55.875 C-63.78254654 54.79677979 -63.78254654 54.79677979 -63.7918396 53.69677734 C-63.75226768 50.88974191 -63.63708229 48.71989732 -62.25488281 46.24169922 C-59.35527499 44.71206195 -57.11322228 45.32438314 -53.8984375 45.7578125 C-45.48636804 46.50103293 -37.43775796 47.17039376 -29.375 44.25 C-22.41995361 38.05088734 -18.72083976 29.43219878 -15.05026245 21.01708984 C-6.0790049 0.63989525 -6.0790049 0.63989525 0 0 Z " fill="#F9D44E" transform="translate(146.375,276.75)"/>
<path d="M0 0 C1.21486383 0.00669217 1.21486383 0.00669217 2.45427036 0.01351953 C3.31211408 0.01039954 4.16995779 0.00727956 5.05379677 0.00406504 C7.94508778 -0.00394947 10.83617093 0.00242206 13.72746372 0.00869775 C15.79345416 0.00598942 17.85944363 0.00242938 19.92543125 -0.00192237 C25.54925863 -0.01106743 31.17301291 -0.00749341 36.79684162 -0.0011642 C42.67093452 0.00388487 48.54502098 -0.00079259 54.41911411 -0.00393653 C64.28525515 -0.00757938 74.15136628 -0.00276873 84.01750278 0.00674462 C95.43848568 0.01762977 106.85939718 0.01410442 118.28037834 0.00309181 C128.07060865 -0.005972 137.86081742 -0.00727078 147.65105057 -0.00203085 C153.50515698 0.00109385 159.3592298 0.00148455 165.21333408 -0.00510383 C170.71588212 -0.01086352 176.21833773 -0.00690573 181.72087574 0.00468469 C183.74540777 0.00733867 185.76994751 0.00655369 187.79447651 0.00215936 C190.54820571 -0.00326853 193.30163475 0.00350427 196.05534458 0.01351953 C196.8652538 0.00905808 197.67516302 0.00459664 198.50961494 0 C204.0265074 0.03918674 204.0265074 0.03918674 206.25480747 2.26748681 C206.00480747 5.82998681 206.00480747 5.82998681 205.25480747 9.26748681 C202.06127847 10.86425131 198.60075183 10.40793843 195.09330845 10.40119958 C193.81266821 10.40459791 193.81266821 10.40459791 192.50615644 10.4080649 C189.62874013 10.41442442 186.75137068 10.4135743 183.8739481 10.41275048 C181.81781039 10.41574072 179.76167324 10.41914293 177.70553684 10.42292809 C172.10858905 10.43178517 166.51165654 10.4341069 160.91470242 10.43474388 C156.2498278 10.43569144 151.58495677 10.43936788 146.92008352 10.44291598 C135.91983993 10.45106671 124.91960452 10.45349961 113.91935825 10.45278955 C102.55291151 10.4521883 91.18651216 10.46274803 79.82007742 10.47853321 C70.0765598 10.49158487 60.33305772 10.49697446 50.58953142 10.49633414 C44.76336567 10.49607849 38.93724202 10.4989665 33.11108494 10.50951219 C27.63480925 10.51915355 22.15861627 10.51929975 16.68233776 10.51199555 C14.6674783 10.51094482 12.65261379 10.51334132 10.63776302 10.51935601 C7.89717846 10.52701009 5.15688427 10.52247527 2.4163065 10.51472497 C1.20727909 10.52244031 1.20727909 10.52244031 -0.02617311 10.53031152 C-5.51692115 10.49575819 -5.51692115 10.49575819 -7.74519253 8.26748681 C-7.99519253 5.26748681 -7.99519253 5.26748681 -7.74519253 2.26748681 C-5.18087977 -0.29682595 -3.495788 0.02483074 0 0 Z " fill="#353C60" transform="translate(160.745192527771,230.7325131893158)"/>
<path d="M0 0 C0.80533615 0.00377932 1.6106723 0.00755865 2.44041258 0.0114525 C3.71999447 0.00571418 3.71999447 0.00571418 5.02542651 -0.00014007 C7.90055695 -0.01050695 10.77548905 -0.00647097 13.65063292 -0.0025093 C15.70514938 -0.00685373 17.75966421 -0.01203598 19.81417662 -0.01799697 C25.40707461 -0.03142709 30.99990519 -0.03196119 36.59281617 -0.02943367 C41.25511513 -0.02836667 45.91740029 -0.03324035 50.5796963 -0.03803909 C61.5751947 -0.04914816 72.57065895 -0.04956382 83.56616026 -0.04352492 C94.9246631 -0.03748275 106.28304213 -0.04979915 117.64152384 -0.07109499 C127.37996737 -0.0886848 137.1183714 -0.0947165 146.85683024 -0.09145725 C152.67913275 -0.08964005 158.50134697 -0.09232385 164.32363516 -0.10617179 C169.79749059 -0.11870295 175.27115242 -0.11685086 180.74500471 -0.1037609 C182.75783101 -0.10138525 184.77067074 -0.10416489 186.78348166 -0.11238402 C189.52384548 -0.12276997 192.26354979 -0.11481691 195.00388914 -0.10207289 C195.80699457 -0.10944718 196.6101 -0.11682146 197.43754196 -0.12441921 C202.75862887 -0.0720881 202.75862887 -0.0720881 205.31887728 1.60022527 C206.86912142 4.28121677 206.03820608 6.38732256 205.28564268 9.27214891 C203.49219087 11.06560072 201.05796104 10.40003731 198.66953146 10.41055441 C197.8567094 10.40900581 197.04388734 10.40745721 196.20643431 10.40586168 C195.34944502 10.40812723 194.49245573 10.41039279 193.60949707 10.412727 C190.71515526 10.4190971 187.82085991 10.41823572 184.92651182 10.41741258 C182.86066953 10.42040219 180.79482779 10.42380425 178.7289868 10.42759019 C173.10098906 10.43645439 167.47300651 10.43876931 161.84500247 10.43940598 C157.15532476 10.44035301 152.46565062 10.44402891 147.77597427 10.44757807 C136.71677663 10.45573177 125.65758713 10.45816147 114.59838682 10.45745164 C103.17004499 10.45685055 91.74175031 10.46740654 80.31342041 10.4831953 C70.51896798 10.49624725 60.724531 10.50163653 50.93006992 10.50099623 C45.07259023 10.50074056 39.21515241 10.50362972 33.35768133 10.51417428 C27.85105034 10.52381594 22.3445016 10.52396164 16.8378678 10.51665765 C14.81172128 10.5156069 12.78556976 10.51800349 10.7594319 10.52401811 C8.00346766 10.53167211 5.24779219 10.52713738 2.4918347 10.51938707 C1.68124336 10.52453063 0.87065202 10.52967419 0.03549731 10.53497362 C-5.48608612 10.50042011 -5.48608612 10.50042011 -7.71435732 8.27214891 C-7.96435732 5.27214891 -7.96435732 5.27214891 -7.71435732 2.27214891 C-5.15650294 -0.28570547 -3.48759287 0.02785728 0 0 Z " fill="#353C60" transform="translate(160.714357316494,402.7278510928154)"/>
<path d="M0 0 C0.64887698 -0.00382555 1.29775396 -0.00765109 1.96629387 -0.01159257 C4.15046723 -0.02194887 6.33437899 -0.01792555 8.51856995 -0.01396179 C10.08048243 -0.01830683 11.64239277 -0.02348928 13.20429993 -0.02944946 C17.45427128 -0.04287335 21.7041539 -0.04341437 25.95414233 -0.04088616 C29.49804533 -0.03981871 33.04193019 -0.04469402 36.58582932 -0.04949158 C44.94444537 -0.06059855 53.30301649 -0.06101754 61.66163635 -0.05497742 C70.29357574 -0.04893583 78.92535221 -0.06125058 87.55726379 -0.08254749 C94.96027272 -0.10014291 102.3632297 -0.1061681 109.76625878 -0.10290974 C114.19128823 -0.1010934 118.61620149 -0.10376784 123.04121208 -0.11762428 C127.20184684 -0.13016458 131.36222699 -0.12829481 135.52285767 -0.11521339 C137.05191698 -0.11283971 138.580994 -0.1156105 140.11003304 -0.12383652 C142.19360857 -0.13423954 144.27631956 -0.1262566 146.35986328 -0.11352539 C148.11059977 -0.113777 148.11059977 -0.113777 149.89670467 -0.1140337 C152.74342346 0.26069641 152.74342346 0.26069641 154.61895847 1.62783527 C156.23316702 3.97186416 156.16058382 5.47962735 155.74342346 8.26069641 C154.61616516 9.89313698 154.61616516 9.89313698 152.74342346 11.26069641 C149.91511536 11.63821983 149.91511536 11.63821983 146.40455627 11.64164734 C145.4360845 11.6486673 145.4360845 11.6486673 144.44804764 11.65582907 C142.28067341 11.6678125 140.11392759 11.65830936 137.94654846 11.64888 C136.3943393 11.65294424 134.84213302 11.65828529 133.28993225 11.66481018 C129.07096284 11.67850727 124.85221308 11.67317533 120.63323975 11.66367292 C116.22237039 11.65608869 111.8115201 11.66311849 107.40065002 11.66783142 C99.992738 11.67329259 92.58491563 11.66608792 85.17701721 11.65180969 C76.6069635 11.63548247 68.03712387 11.64077072 59.46707535 11.65728891 C52.11499318 11.67089352 44.76297554 11.67282847 37.41088486 11.6649729 C33.01717875 11.66029073 28.62357334 11.65968642 24.22987366 11.66958237 C20.0995784 11.67823488 15.96955974 11.67226174 11.83929443 11.6548996 C10.32152771 11.65092554 8.80373779 11.65208447 7.28598022 11.65868759 C5.21776717 11.66685737 3.15044647 11.65663835 1.08229065 11.64164734 C-0.6554361 11.63995072 -0.6554361 11.63995072 -2.42826843 11.63821983 C-5.25657654 11.26069641 -5.25657654 11.26069641 -7.13322449 9.92829323 C-8.86329282 7.36003652 -8.57644996 5.26750658 -8.25657654 2.26069641 C-5.48892908 -0.50695104 -3.87831325 0.00682362 0 0 Z " fill="#3B4265" transform="translate(161.25657653808594,346.7393035888672)"/>
<path d="M0 0 C0.64887698 -0.00311998 1.29775396 -0.00623996 1.96629387 -0.00945449 C4.15047707 -0.01746077 6.33438446 -0.01110077 8.51856995 -0.00482178 C10.0804816 -0.00753051 11.64239198 -0.01109077 13.20429993 -0.01544189 C17.45427907 -0.02458301 21.70416143 -0.02101438 25.95414233 -0.01468372 C30.39571064 -0.00963172 34.83727049 -0.01431303 39.27883911 -0.01745605 C46.73978671 -0.02109842 54.20069476 -0.01628992 61.66163635 -0.0067749 C70.29354443 0.00410619 78.92535801 0.00058768 87.55726379 -0.01042771 C94.96027036 -0.01949765 102.36324845 -0.02078718 109.76625878 -0.01555037 C114.19125897 -0.01242854 118.61621472 -0.01202708 123.04121208 -0.01862335 C127.20180569 -0.02439179 131.36227727 -0.02040916 135.52285767 -0.00883484 C137.05191406 -0.00618539 138.58098068 -0.0069582 140.11003304 -0.01136017 C142.19344946 -0.01680602 144.27647211 -0.0099935 146.35986328 0 C147.52702094 0.00075405 148.6941786 0.0015081 149.89670467 0.002285 C152.74342346 0.25396729 152.74342346 0.25396729 155.74342346 2.25396729 C156.13104223 5.29031429 156.37057752 7.32619402 154.61616516 9.9215641 C151.87534385 11.87158158 149.74787393 11.63165399 146.40455627 11.63491821 C145.4360845 11.64193817 145.4360845 11.64193817 144.44804764 11.64909995 C142.28067341 11.66108337 140.11392759 11.65158023 137.94654846 11.64215088 C136.3943393 11.64621512 134.84213302 11.65155616 133.28993225 11.65808105 C129.07096284 11.67177815 124.85221308 11.6664462 120.63323975 11.6569438 C116.22237039 11.64935956 111.8115201 11.65638936 107.40065002 11.66110229 C99.992738 11.66656346 92.58491563 11.65935879 85.17701721 11.64508057 C76.6069635 11.62875334 68.03712387 11.63404159 59.46707535 11.65055978 C52.11499318 11.66416439 44.76297554 11.66609934 37.41088486 11.65824378 C33.01717875 11.6535616 28.62357334 11.6529573 24.22987366 11.66285324 C20.0995784 11.67150576 15.96955974 11.66553261 11.83929443 11.64817047 C10.32152771 11.64419642 8.80373779 11.64535534 7.28598022 11.65195847 C5.21776717 11.66012825 3.15044647 11.64990922 1.08229065 11.63491821 C-0.6554361 11.6332216 -0.6554361 11.6332216 -2.42826843 11.63149071 C-5.25657654 11.25396729 -5.25657654 11.25396729 -7.13322449 9.9215641 C-8.86329282 7.35330739 -8.57644996 5.26077746 -8.25657654 2.25396729 C-5.48819808 -0.51441117 -3.87911457 0.00250694 0 0 Z " fill="#3C4365" transform="translate(161.25657653808594,260.74603271484375)"/>
<path d="M0 0 C0.96847178 -0.00573832 0.96847178 -0.00573832 1.95650864 -0.01159257 C4.12375743 -0.0219259 6.29074145 -0.01792991 8.45800781 -0.01396179 C10.01021572 -0.01830805 11.56242147 -0.02349091 13.11462402 -0.02944946 C17.33354563 -0.04285894 21.55237776 -0.04341605 25.77131653 -0.04088616 C29.29041646 -0.03981793 32.80949817 -0.04469594 36.32859421 -0.04949158 C44.6282563 -0.06059317 52.92787313 -0.06102029 61.22753906 -0.05497742 C69.79758369 -0.04893379 78.36746429 -0.06125699 86.93748093 -0.08254749 C94.2895551 -0.10014249 101.64157696 -0.10616824 108.99367142 -0.10290974 C113.38738716 -0.10109363 117.78098588 -0.10376574 122.17468262 -0.11762428 C126.30496256 -0.1301642 130.43498602 -0.12829518 134.56526184 -0.11521339 C136.08303411 -0.11283978 137.60082422 -0.11561025 139.11857605 -0.12383652 C141.18677356 -0.13423995 143.25410016 -0.12625637 145.32226562 -0.11352539 C146.48075012 -0.11369313 147.63923462 -0.11386087 148.83282471 -0.1140337 C151.66113281 0.26069641 151.66113281 0.26069641 153.53387451 1.62783527 C155.1517729 3.97140054 155.0785196 5.47811783 154.66113281 8.26069641 C153.53387451 9.89355755 153.53387451 9.89355755 151.66113281 11.26069641 C148.83282471 11.63542652 148.83282471 11.63542652 145.32226562 11.63491821 C144.35379385 11.64087982 144.35379385 11.64087982 143.36575699 11.64696187 C141.19836781 11.65660037 139.03162887 11.64475808 136.86425781 11.63301086 C135.31204993 11.63543833 133.7598436 11.63915721 132.2076416 11.64407349 C127.98866088 11.65349237 123.76991175 11.64404876 119.5509491 11.63074136 C115.14008542 11.61943991 110.72923336 11.62353335 106.31835938 11.62548828 C98.9104432 11.62637167 91.50261846 11.61528148 84.09472656 11.59687805 C75.52470823 11.57570973 66.95482388 11.57220028 58.3847847 11.57844001 C50.14774045 11.58413072 41.91074349 11.57849147 33.67370605 11.56726646 C30.1649895 11.56261659 26.65630182 11.5617483 23.14758301 11.56385231 C19.01733396 11.56573318 14.88722166 11.55764689 10.75700378 11.54179192 C9.23923814 11.5375421 7.72145863 11.53670319 6.20368958 11.53948212 C4.13564197 11.54269465 2.06800534 11.53364602 0 11.52139282 C-1.1584845 11.51933995 -2.31696899 11.51728708 -3.51055908 11.515172 C-6.33886719 11.26069641 -6.33886719 11.26069641 -9.33886719 9.26069641 C-9.71386719 5.76069641 -9.71386719 5.76069641 -9.33886719 2.26069641 C-5.77088562 -0.11795796 -4.23555806 0.00750554 0 0 Z " fill="#3B4264" transform="translate(162.3388671875,432.7393035888672)"/>
<path d="M0 0 C2.96209265 1.16521064 4.50657014 2.52394632 6.7199707 4.80493164 C7.47084961 5.56870117 8.22172852 6.3324707 8.99536133 7.11938477 C9.76428711 7.92182617 10.53321289 8.72426758 11.32543945 9.55102539 C12.11370117 10.35733398 12.90196289 11.16364258 13.71411133 11.99438477 C15.65636861 13.98372708 17.58867606 15.9817981 19.51293945 17.98852539 C22.66164563 16.6068183 24.65100767 15.03339049 26.97387695 12.51196289 C27.92907227 11.50649414 27.92907227 11.50649414 28.90356445 10.48071289 C30.2267472 9.06897067 31.54189066 7.64965037 32.84887695 6.22290039 C37.72985395 1.12542845 37.72985395 1.12542845 41.86450195 0.40258789 C44.51293945 0.98852539 44.51293945 0.98852539 46.51293945 2.98852539 C46.76690674 5.34155273 46.76690674 5.34155273 46.77172852 8.32446289 C46.77803284 9.43901855 46.78433716 10.55357422 46.79083252 11.7019043 C46.78678406 12.91023926 46.7827356 14.11857422 46.77856445 15.36352539 C46.78143463 17.2166333 46.78143463 17.2166333 46.78436279 19.10717773 C46.78607556 22.39443946 46.77800644 25.68151326 46.7668457 28.96875 C46.76294343 30.98647069 46.76683116 33.0040174 46.77368164 35.02172852 C46.78599949 38.88574367 46.78454923 42.74949967 46.77856445 46.61352539 C46.78261292 47.82186035 46.78666138 49.03019531 46.79083252 50.27514648 C46.7845282 51.38970215 46.77822388 52.50425781 46.77172852 53.65258789 C46.77013733 54.63694824 46.76854614 55.62130859 46.76690674 56.63549805 C46.51293945 58.98852539 46.51293945 58.98852539 44.51293945 60.98852539 C41.51293945 61.23852539 41.51293945 61.23852539 38.51293945 60.98852539 C36.51293945 58.98852539 36.51293945 58.98852539 36.28588867 55.18139648 C36.28620599 53.54155119 36.29754264 51.90168522 36.31762695 50.26196289 C36.32045685 49.39914703 36.32328674 48.53633118 36.32620239 47.64736938 C36.33741613 44.88594819 36.36252262 42.12484889 36.38793945 39.36352539 C36.39796772 37.4937384 36.40709384 35.62394634 36.4152832 33.75415039 C36.43735933 29.16548431 36.47189711 24.57705946 36.51293945 19.98852539 C35.24377463 21.07967797 33.97739236 22.17406748 32.7121582 23.26977539 C32.00663818 23.87885742 31.30111816 24.48793945 30.57421875 25.11547852 C28.69502895 26.82306399 27.0224041 28.60380328 25.32543945 30.48852539 C22.51293945 32.98852539 22.51293945 32.98852539 20.0949707 32.85571289 C17.18435319 31.87816813 15.62782422 30.69530064 13.38793945 28.61352539 C12.72536133 28.00766602 12.0627832 27.40180664 11.38012695 26.77758789 C10.76395508 26.18719727 10.1477832 25.59680664 9.51293945 24.98852539 C8.93801758 24.46000977 8.3630957 23.93149414 7.77075195 23.38696289 C6.51293945 21.98852539 6.51293945 21.98852539 6.51293945 19.98852539 C5.85293945 19.98852539 5.19293945 19.98852539 4.51293945 19.98852539 C4.53650513 21.69165894 4.53650513 21.69165894 4.56054688 23.42919922 C4.61481977 27.63908808 4.64927982 31.84894598 4.67773438 36.05908203 C4.69282706 37.88172606 4.71330341 39.70433375 4.73925781 41.52685547 C4.77562048 44.14568039 4.79266069 46.76402547 4.8059082 49.38305664 C4.82139206 50.1987764 4.83687592 51.01449615 4.85282898 51.85493469 C4.85452843 57.55914409 4.85452843 57.55914409 3.14790344 59.70439148 C1.51293945 60.98852539 1.51293945 60.98852539 -0.98706055 61.36352539 C-3.98994731 60.91309238 -4.67357637 60.37783562 -6.48706055 57.98852539 C-6.8747406 55.60462952 -6.8747406 55.60462952 -6.89111328 52.75439453 C-6.90379745 51.68641129 -6.91648163 50.61842804 -6.92955017 49.51808167 C-6.92661453 48.36492966 -6.92367889 47.21177765 -6.9206543 46.02368164 C-6.92589615 44.83882675 -6.931138 43.65397186 -6.9365387 42.43321228 C-6.94296661 39.92569767 -6.94161203 37.41815295 -6.93310547 34.91064453 C-6.9246015 31.06952287 -6.95333941 27.22989043 -6.98510742 23.38891602 C-6.98671959 20.95467167 -6.98614161 18.52042469 -6.9831543 16.08618164 C-6.99438828 14.93505386 -7.00562225 13.78392609 -7.01719666 12.59791565 C-7.0078157 11.52678024 -6.99843475 10.45564484 -6.98876953 9.35205078 C-6.98860336 8.41067764 -6.98843719 7.4693045 -6.98826599 6.49940491 C-6.19929987 2.54693611 -4.15201881 -0.01915627 0 0 Z " fill="#E63C49" transform="translate(240.487060546875,107.011474609375)"/>
<path d="M0 0 C7.17196753 0.06701268 14.34339049 0.15682477 21.51489258 0.26245117 C23.95427983 0.29569417 26.39374388 0.32372801 28.83325195 0.34643555 C32.34099032 0.37999217 35.84802525 0.43231049 39.35546875 0.48828125 C40.44522507 0.49467117 41.53498138 0.5010611 42.65776062 0.50764465 C52.22803071 0.69324182 52.22803071 0.69324182 56 4 C58.76864988 7.08887462 59.37121118 9.01022753 59.34057617 13.13574219 C59.34023628 14.66687653 59.34023628 14.66687653 59.33988953 16.22894287 C59.32440567 17.32386047 59.30892181 18.41877808 59.29296875 19.546875 C59.28872391 20.6732135 59.28447906 21.799552 59.28010559 22.96002197 C59.26331497 26.55692463 59.22566099 30.15326672 59.1875 33.75 C59.17245371 36.18879399 59.15876521 38.62759677 59.14648438 41.06640625 C59.11341015 47.04446205 59.06320643 53.02219097 59 59 C52.9946169 54.06702559 47.52978903 48.6483271 42.06122398 43.13638878 C40.42009278 41.48236395 38.77574376 39.83159769 37.13056946 38.18159485 C33.64670798 34.68638301 30.16682971 31.18722226 26.6875 27.6875 C22.63624706 23.61263269 18.58337077 19.53940727 14.52628517 15.47034645 C12.90558008 13.84315556 11.28791097 12.21298694 9.67033386 10.58268738 C8.68230659 9.5910297 7.69413985 8.59951096 6.70581055 7.6081543 C5.84312057 6.74022751 4.9804306 5.87230072 4.09159851 4.97807312 C2.15837902 2.95850154 2.15837902 2.95850154 0 2 C0 1.34 0 0.68 0 0 Z " fill="#A7A9AC" transform="translate(330,25)"/>
<path d="M0 0 C4.15694562 1.60759225 5.87936659 4.75786604 8.33203125 8.359375 C9.04746094 9.37547852 9.04746094 9.37547852 9.77734375 10.41210938 C10.693108 11.71325775 11.6038626 13.01795111 12.50878906 14.32666016 C13.86204966 16.2694218 15.26724984 18.16742879 16.70703125 20.046875 C17.02454346 19.57789795 17.34205566 19.1089209 17.66918945 18.62573242 C19.11592478 16.49296539 20.56766716 14.3636536 22.01953125 12.234375 C22.51904297 11.49638672 23.01855469 10.75839844 23.53320312 9.99804688 C24.26313477 8.92973633 24.26313477 8.92973633 25.0078125 7.83984375 C25.45294189 7.1852417 25.89807129 6.53063965 26.35668945 5.85620117 C27.70663808 4.04740181 28.9793566 2.50197761 30.70703125 1.046875 C33.76953125 0.734375 33.76953125 0.734375 36.70703125 1.046875 C38.70703125 3.046875 38.70703125 3.046875 38.7734375 6.01953125 C37.78284913 11.64648171 33.95440793 15.99031956 30.64453125 20.484375 C29.98130859 21.40669922 29.31808594 22.32902344 28.63476562 23.27929688 C27.00375591 25.54393626 25.36113972 27.7990819 23.70703125 30.046875 C24.97945713 32.68662445 26.35535455 35.14318941 27.984375 37.578125 C28.41556641 38.22394531 28.84675781 38.86976563 29.29101562 39.53515625 C29.73767578 40.19902344 30.18433594 40.86289063 30.64453125 41.546875 C31.08732422 42.21074219 31.53011719 42.87460938 31.98632812 43.55859375 C33.76550701 46.21543018 35.53790663 48.82911323 37.5 51.35546875 C39.18384491 53.71503135 39.14224916 55.21795861 38.70703125 58.046875 C37.15610585 60.41407693 36.12121856 60.93493248 33.39453125 61.671875 C25.80748945 59.90744667 20.650611 48.14240816 16.70703125 42.046875 C13.41976384 45.0988123 11.0671138 48.34246918 8.64453125 52.109375 C4.20147304 59.00848074 4.20147304 59.00848074 1.70703125 61.046875 C-1.18231139 61.4802764 -2.64389099 61.47213284 -5.10546875 59.859375 C-6.77180953 57.31601276 -6.68773795 56.07483879 -6.29296875 53.046875 C-4.807524 50.60670751 -3.33005861 48.42729607 -1.60546875 46.171875 C-0.95288086 45.29208984 -0.95288086 45.29208984 -0.28710938 44.39453125 C0.36547852 43.51474609 0.36547852 43.51474609 1.03125 42.6171875 C1.46614746 42.02969727 1.90104492 41.44220703 2.34912109 40.83691406 C3.28039965 39.60927394 4.24100419 38.40349687 5.22509766 37.21777344 C6.87394613 35.2297139 6.87394613 35.2297139 8.70703125 32.046875 C7.98811193 26.42292388 2.34167129 20.90319036 -1.03710938 16.4609375 C-4.37893227 11.90205608 -6.04550206 8.73110989 -6.29296875 3.046875 C-4.15581614 1.06802999 -2.96223682 0.0605568 0 0 Z " fill="#E63D4A" transform="translate(133.29296875,106.953125)"/>
<path d="M0 0 C0.99 0.37125 1.98 0.7425 3 1.125 C4.15492819 3.79746111 5.11209822 6.36338668 6 9.125 C6.2511557 9.89223389 6.5023114 10.65946777 6.76107788 11.44995117 C7.57187894 13.97151846 8.35804755 16.49958062 9.13671875 19.03125 C9.42102249 19.95538696 9.70532623 20.87952393 9.99824524 21.83166504 C10.59391449 23.77417487 11.18798117 25.71717678 11.78051758 27.66064453 C12.38563416 29.63839029 12.99567147 31.61463712 13.6105957 33.58935547 C14.50522775 36.46258793 15.38503327 39.33999793 16.26171875 42.21875 C16.53666672 43.09293579 16.81161469 43.96712158 17.09489441 44.86779785 C18.6773875 50.13758094 19.46533235 54.61620153 19 60.125 C17 62.125 17 62.125 14.0625 62.4375 C11 62.125 11 62.125 9.3828125 60.9296875 C6.77426614 57.52531343 6.7002594 53.27269027 6 49.125 C1.38 49.125 -3.24 49.125 -8 49.125 C-8.33 51.105 -8.66 53.085 -9 55.125 C-11.48275862 60.60775862 -11.48275862 60.60775862 -13 62.125 C-15.9375 62.375 -15.9375 62.375 -19 62.125 C-21.34213769 58.61179347 -21.27799051 57.25546503 -21 53.125 C-20.42089844 50.44702148 -20.42089844 50.44702148 -19.609375 47.74609375 C-19.31393799 46.74884277 -19.01850098 45.7515918 -18.71411133 44.72412109 C-18.39595459 43.68078613 -18.07779785 42.63745117 -17.75 41.5625 C-17.42862061 40.48564941 -17.10724121 39.40879883 -16.77612305 38.29931641 C-15.86003779 35.23830177 -14.93304894 32.18088115 -14 29.125 C-13.78230957 28.4119873 -13.56461914 27.69897461 -13.34033203 26.96435547 C-12.53596395 24.3390169 -11.72326085 21.71664664 -10.8984375 19.09765625 C-10.2179973 16.84628671 -9.58575513 14.58027771 -8.9765625 12.30859375 C-8.80278076 11.6635791 -8.62899902 11.01856445 -8.44995117 10.35400391 C-7.96677178 8.54697282 -7.49663225 6.73646951 -7.02734375 4.92578125 C-5.59897608 1.03171425 -4.11024563 0.17126023 0 0 Z " fill="#E63E4A" transform="translate(204,105.875)"/>
<path d="M0 0 C3.1328125 -0.37231445 3.1328125 -0.37231445 7.125 -0.36328125 C7.8277002 -0.36377975 8.53040039 -0.36427826 9.25439453 -0.36479187 C10.74058865 -0.36245061 12.22678667 -0.35271888 13.71289062 -0.33618164 C15.99124505 -0.31259065 18.26842953 -0.31561934 20.546875 -0.32226562 C31.72092744 -0.27907256 31.72092744 -0.27907256 34 2 C34.25 5 34.25 5 34 8 C32 10 32 10 29.66162109 10.22705078 C28.70852051 10.21657715 27.75541992 10.20610352 26.7734375 10.1953125 C25.2265625 10.18564453 25.2265625 10.18564453 23.6484375 10.17578125 C22.56820312 10.15902344 21.48796875 10.14226562 20.375 10.125 C19.28703125 10.11597656 18.1990625 10.10695313 17.078125 10.09765625 C14.38532351 10.07403518 11.69263465 10.03816333 9 10 C9 14.95 9 19.9 9 25 C10.93875 24.95875 12.8775 24.9175 14.875 24.875 C18.1796875 24.8046875 18.1796875 24.8046875 21 25 C23 27 23 27 23.25 30 C23 33 23 33 21 35 C16.98805634 35.27783543 13.02552638 35.0856495 9 35 C9 39.62 9 44.24 9 49 C10.55332031 48.96519531 12.10664062 48.93039063 13.70703125 48.89453125 C15.74217671 48.8663956 17.77733383 48.8390952 19.8125 48.8125 C20.83666016 48.78736328 21.86082031 48.76222656 22.91601562 48.73632812 C24.39038086 48.72182617 24.39038086 48.72182617 25.89453125 48.70703125 C26.80050049 48.6913208 27.70646973 48.67561035 28.63989258 48.65942383 C31 49 31 49 32.7956543 50.3269043 C34.6538567 52.90834785 34.39292543 54.92208412 34 58 C29.21312732 61.19124845 23.71828759 60.33326278 18.12109375 60.31567383 C16.0072895 60.31251091 13.89488154 60.33599013 11.78125 60.36132812 C10.43750176 60.36360095 9.09374977 60.36430469 7.75 60.36328125 C6.52796875 60.36626221 5.3059375 60.36924316 4.046875 60.37231445 C1 60 1 60 -0.66716003 58.80485535 C-2.47166535 56.36129786 -2.37433084 54.77284417 -2.37231445 51.75 C-2.37854324 50.67878906 -2.38477203 49.60757813 -2.39118958 48.50390625 C-2.38197983 47.34761719 -2.37277008 46.19132812 -2.36328125 45 C-2.36402901 43.21916016 -2.36402901 43.21916016 -2.36479187 41.40234375 C-2.36244991 38.89060799 -2.35271432 36.37886994 -2.33618164 33.8671875 C-2.31259438 30.01541225 -2.31561945 26.16432907 -2.32226562 22.3125 C-2.31668889 19.87499586 -2.30957904 17.43749464 -2.30078125 15 C-2.30169266 13.84371094 -2.30260406 12.68742187 -2.30354309 11.49609375 C-2.29401108 10.42488281 -2.28447906 9.35367188 -2.2746582 8.25 C-2.27005081 7.30640625 -2.26544342 6.3628125 -2.26069641 5.390625 C-2 3 -2 3 0 0 Z " fill="#E63C49" transform="translate(80,108)"/>
<path d="M0 0 C14.85 0 29.7 0 45 0 C42.99991639 6.00025084 40.94526591 11.82386643 38.53125 17.6484375 C38.20966919 18.42764557 37.88808838 19.20685364 37.5567627 20.00967407 C36.88280026 21.63882552 36.20712379 23.26726888 35.52978516 24.89501953 C34.49521007 27.38653534 33.47211252 29.88257584 32.44921875 32.37890625 C31.78975923 33.96903913 31.12962691 35.55889318 30.46875 37.1484375 C30.16553833 37.89217621 29.86232666 38.63591492 29.54992676 39.40219116 C28.10405903 42.84492677 26.90016088 45.60612863 24 48 C21.49267578 48.00390625 21.49267578 48.00390625 19 47 C17.44091797 44.83984375 17.44091797 44.83984375 16.1171875 41.9375 C15.61413086 40.84953125 15.11107422 39.7615625 14.59277344 38.640625 C14.0671582 37.43921875 13.54154297 36.2378125 13 35 C12.72337524 34.37544922 12.44675049 33.75089844 12.16174316 33.10742188 C10.39500198 29.11291906 8.67925307 25.0989823 6.99316406 21.06982422 C6.1129961 18.97138102 5.22081077 16.87830016 4.328125 14.78515625 C3.76229184 13.44041067 3.19716075 12.09536942 2.6328125 10.75 C2.12637207 9.54859375 1.61993164 8.3471875 1.09814453 7.109375 C0 4 0 4 0 0 Z " fill="#F2A972" transform="translate(449,426)"/>
<path d="M0 0 C0.66163651 0.00424484 1.32327301 0.00848969 2.00495911 0.01286316 C4.11440035 0.02963182 6.22287971 0.06727776 8.33203125 0.10546875 C9.76365806 0.12051807 11.19529987 0.13420605 12.62695312 0.14648438 C16.13312413 0.17952845 19.63873379 0.23129708 23.14453125 0.29296875 C21.51953287 4.53250732 19.43673628 8.27466855 17.01953125 12.10546875 C16.64699219 12.70294922 16.27445313 13.30042969 15.890625 13.91601562 C14.97882645 15.37723126 14.06217149 16.8354146 13.14453125 18.29296875 C12.01865111 17.33566959 10.89385975 16.3770898 9.76953125 15.41796875 C9.14304687 14.88429688 8.5165625 14.350625 7.87109375 13.80078125 C6.58616474 12.67864868 5.3508115 11.499249 4.14453125 10.29296875 C1.64453125 9.95963542 1.64453125 9.95963542 -0.85546875 10.29296875 C-3.00433131 12.0990765 -3.00433131 12.0990765 -3.3984375 14.4609375 C-2.52562879 19.01335703 0.58486136 21.45561664 3.83203125 24.60546875 C4.45787109 25.25064453 5.08371094 25.89582031 5.72851562 26.56054688 C9.30215452 30.124632 9.30215452 30.124632 13.88671875 31.984375 C17.01403523 31.02670196 17.8273587 29.65306985 19.58203125 26.91796875 C20.17113281 26.015625 20.76023437 25.11328125 21.3671875 24.18359375 C23.61704231 20.52448922 25.83818154 16.85213268 27.98046875 13.12890625 C28.55667969 12.22011719 28.55667969 12.22011719 29.14453125 11.29296875 C29.47453125 11.29296875 29.80453125 11.29296875 30.14453125 11.29296875 C30.14453125 20.53296875 30.14453125 29.77296875 30.14453125 39.29296875 C27.05519866 40.83763505 23.79004 40.47676825 20.3984375 40.49609375 C19.24806252 40.50464386 19.24806252 40.50464386 18.07444763 40.5133667 C16.45125713 40.52281735 14.82804743 40.52935094 13.20483398 40.53320312 C10.72020096 40.54291726 8.23639222 40.57394221 5.75195312 40.60546875 C4.17578617 40.61199802 2.59961329 40.61724879 1.0234375 40.62109375 C0.27961319 40.63344055 -0.46421112 40.64578735 -1.23057556 40.6585083 C-4.04231413 40.64635014 -6.31012578 40.5823206 -8.82299805 39.24902344 C-10.44717145 36.17196568 -10.28259371 33.06365039 -10.25390625 29.66796875 C-10.25677643 28.92466309 -10.25964661 28.18135742 -10.26260376 27.41552734 C-10.26464351 25.84536985 -10.25911975 24.27518689 -10.24658203 22.70507812 C-10.23052578 20.30150543 -10.24643227 17.89961414 -10.265625 15.49609375 C-10.26364255 13.97004837 -10.25979884 12.44400404 -10.25390625 10.91796875 C-10.26301529 9.83974854 -10.26301529 9.83974854 -10.27230835 8.73974609 C-10.23314203 5.96148182 -10.13194117 3.78675304 -8.7590332 1.3347168 C-5.83272741 -0.26673848 -3.31338867 -0.04194163 0 0 Z " fill="#F4604B" transform="translate(92.85546875,321.70703125)"/>
<path d="M0 0 C3.07275391 -0.34057617 3.07275391 -0.34057617 6.9765625 -0.29296875 C7.66181 -0.28872391 8.3470575 -0.28447906 9.05307007 -0.28010559 C11.24411129 -0.26329753 13.43423632 -0.22564405 15.625 -0.1875 C17.10936173 -0.17245579 18.59373785 -0.15876693 20.078125 -0.14648438 C23.71904833 -0.1133879 27.35943478 -0.06159207 31 0 C29.44439603 4.02013363 27.57732004 7.60118289 25.375 11.3125 C24.74335937 12.38113281 24.11171875 13.44976562 23.4609375 14.55078125 C22.73777344 15.76314453 22.73777344 15.76314453 22 17 C18.6531522 16.43139575 17.24878587 15.49926987 15.0625 12.9375 C12.65961898 10.38362735 12.65961898 10.38362735 9.25 9.5 C6.81145444 9.83062856 6.81145444 9.83062856 5 12 C4.97606364 16.12902151 6.09425591 18.43415609 8.765625 21.4296875 C9.91397271 22.59123461 11.0759263 23.73946264 12.25 24.875 C13.11044922 25.76445312 13.11044922 25.76445312 13.98828125 26.671875 C16.52220786 29.1769414 18.20062924 30.80621315 21.70703125 31.65625 C24.882548 30.74741386 25.66714965 29.38453892 27.4375 26.625 C28.02660156 25.72265625 28.61570312 24.8203125 29.22265625 23.890625 C31.47251106 20.23152047 33.69365029 16.55916393 35.8359375 12.8359375 C36.41214844 11.92714844 36.41214844 11.92714844 37 11 C37.33 11 37.66 11 38 11 C38.0578304 15.45827926 38.09353855 19.9164628 38.125 24.375 C38.14175781 25.64601563 38.15851563 26.91703125 38.17578125 28.2265625 C38.18544922 30.04414063 38.18544922 30.04414063 38.1953125 31.8984375 C38.21102295 33.57945557 38.21102295 33.57945557 38.22705078 35.29443359 C38 38 38 38 36 40 C33.38236005 40.21193558 30.87315295 40.3039819 28.25390625 40.30078125 C27.48698959 40.30506638 26.72007294 40.3093515 25.92991638 40.31376648 C24.30672188 40.31951323 22.68350162 40.32000749 21.06030273 40.31567383 C18.57556206 40.3125166 16.09201498 40.33595754 13.60742188 40.36132812 C12.0312515 40.36360136 10.45507793 40.3643045 8.87890625 40.36328125 C8.13508194 40.372491 7.39125763 40.38170074 6.62489319 40.39118958 C3.81395032 40.36596241 1.54125179 40.28746454 -0.96972656 38.95385742 C-2.59265943 35.87605369 -2.4067695 32.76922376 -2.36328125 29.375 C-2.36377975 28.63169434 -2.36427826 27.88838867 -2.36479187 27.12255859 C-2.36245333 25.55238163 -2.35273768 23.98220079 -2.33618164 22.41210938 C-2.31258614 20.00877358 -2.31562226 17.60654721 -2.32226562 15.203125 C-2.31668872 13.67707672 -2.30957877 12.15103311 -2.30078125 10.625 C-2.30169266 9.90618652 -2.30260406 9.18737305 -2.30354309 8.44677734 C-2.2510669 4.7538727 -2.10334783 3.15502174 0 0 Z " fill="#F4604B" transform="translate(85,236)"/>
<path d="M0 0 C0.66163651 0.00424484 1.32327301 0.00848969 2.00495911 0.01286316 C4.11440035 0.02963182 6.22287971 0.06727776 8.33203125 0.10546875 C9.76365806 0.12051807 11.19529987 0.13420605 12.62695312 0.14648438 C16.13312413 0.17952845 19.63873379 0.23129708 23.14453125 0.29296875 C21.51953287 4.53250732 19.43673628 8.27466855 17.01953125 12.10546875 C16.64699219 12.70294922 16.27445313 13.30042969 15.890625 13.91601562 C14.97882645 15.37723126 14.06217149 16.8354146 13.14453125 18.29296875 C12.01865111 17.33566959 10.89385975 16.3770898 9.76953125 15.41796875 C9.14304687 14.88429688 8.5165625 14.350625 7.87109375 13.80078125 C6.58616474 12.67864868 5.3508115 11.499249 4.14453125 10.29296875 C1.64453125 9.95963542 1.64453125 9.95963542 -0.85546875 10.29296875 C-3.00499563 12.09877144 -3.00499563 12.09877144 -3.39453125 14.4609375 C-2.52958587 19.00503461 0.53929342 21.44997485 3.76953125 24.60546875 C4.38699219 25.25064453 5.00445312 25.89582031 5.640625 26.56054688 C8.46176256 29.36683635 10.41669432 31.08268461 14.28125 32.19921875 C18.79013114 30.77212404 20.12787744 27.47958089 22.33203125 23.48046875 C23.17625583 22.01364456 24.02380252 20.54872633 24.875 19.0859375 C25.24004639 18.43133545 25.60509277 17.7767334 25.98120117 17.10229492 C27.18651503 15.22767142 28.51662029 13.80675329 30.14453125 12.29296875 C30.17339463 16.77212203 30.19128312 21.25125166 30.20703125 25.73046875 C30.21541016 27.00986328 30.22378906 28.28925781 30.23242188 29.60742188 C30.23564453 30.82236328 30.23886719 32.03730469 30.2421875 33.2890625 C30.24742432 34.41497803 30.25266113 35.54089355 30.25805664 36.70092773 C30.14453125 39.29296875 30.14453125 39.29296875 29.14453125 40.29296875 C26.51336856 40.41875228 23.90987205 40.48161819 21.27734375 40.49609375 C20.4868161 40.50179382 19.69628845 40.5074939 18.88180542 40.5133667 C17.20555974 40.52283083 15.52929533 40.52935627 13.85302734 40.53320312 C11.28710442 40.54290232 8.72198448 40.57390869 6.15625 40.60546875 C4.52995269 40.61199918 2.90364963 40.61724949 1.27734375 40.62109375 C0.12409103 40.63961395 0.12409103 40.63961395 -1.05245972 40.6585083 C-3.92181696 40.64650313 -6.26840777 40.60196342 -8.83886719 39.24902344 C-10.44029758 36.16769292 -10.28255356 33.05889856 -10.25390625 29.66796875 C-10.25677643 28.92466309 -10.25964661 28.18135742 -10.26260376 27.41552734 C-10.26464351 25.84536985 -10.25911975 24.27518689 -10.24658203 22.70507812 C-10.23052578 20.30150543 -10.24643227 17.89961414 -10.265625 15.49609375 C-10.26364255 13.97004837 -10.25979884 12.44400404 -10.25390625 10.91796875 C-10.26301529 9.83974854 -10.26301529 9.83974854 -10.27230835 8.73974609 C-10.23314203 5.96148182 -10.13194117 3.78675304 -8.7590332 1.3347168 C-5.83272741 -0.26673848 -3.31338867 -0.04194163 0 0 Z " fill="#F4604B" transform="translate(92.85546875,407.70703125)"/>
<path d="M0 0 C0.9343689 -0.00630432 1.86873779 -0.01260864 2.8314209 -0.019104 C4.34862732 -0.01303131 4.34862732 -0.01303131 5.89648438 -0.00683594 C6.93212524 -0.00874939 7.96776611 -0.01066284 9.03479004 -0.01263428 C11.22713463 -0.01399691 13.41948726 -0.01029508 15.61181641 -0.00195312 C18.97642054 0.00874514 22.34049069 -0.00184597 25.70507812 -0.01464844 C27.83138139 -0.01332686 29.95768433 -0.01076449 32.08398438 -0.00683594 C33.09545532 -0.0108844 34.10692627 -0.01493286 35.14904785 -0.019104 C36.08341675 -0.01279968 37.01778564 -0.00649536 37.98046875 0 C39.21718323 0.00238678 39.21718323 0.00238678 40.47888184 0.00482178 C42.49023438 0.25878906 42.49023438 0.25878906 44.49023438 2.25878906 C45.04883215 7.50960813 45.04883215 7.50960813 43.24719238 9.92593384 C41.03348662 11.6052849 39.82667145 11.6385663 37.06640625 11.64697266 C36.17538208 11.65642914 35.28435791 11.66588562 34.36633301 11.67562866 C33.40690796 11.66955597 32.44748291 11.66348328 31.45898438 11.65722656 C30.47152222 11.66009674 29.48406006 11.66296692 28.4666748 11.66592407 C26.37865628 11.66796581 24.29061867 11.66242831 22.20263672 11.64990234 C19.00249554 11.63385056 15.80361741 11.64974766 12.60351562 11.66894531 C10.57616908 11.6669629 8.54882332 11.66311927 6.52148438 11.65722656 C5.0823468 11.6663356 5.0823468 11.6663356 3.61413574 11.67562866 C2.27759949 11.66144394 2.27759949 11.66144394 0.9140625 11.64697266 C0.13035278 11.64458588 -0.65335693 11.6421991 -1.46081543 11.63973999 C-4.05539862 11.15734228 -4.94543062 10.35684604 -6.50976562 8.25878906 C-6.82226562 5.19628906 -6.82226562 5.19628906 -6.50976562 2.25878906 C-4.05122057 -0.19975599 -3.3781355 0.00651959 0 0 Z " fill="#3C4366" transform="translate(84.509765625,29.7412109375)"/>
<path d="M0 0 C14.85 0 29.7 0 45 0 C45 3.63 45 7.26 45 11 C30.15 11 15.3 11 0 11 C0 7.37 0 3.74 0 0 Z " fill="#FDFCFC" transform="translate(449,162)"/>
<path d="M0 0 C14.85 0 29.7 0 45 0 C45 3.63 45 7.26 45 11 C30.15 11 15.3 11 0 11 C0 7.37 0 3.74 0 0 Z " fill="#A9ABAE" transform="translate(449,151)"/>
<path d="M0 0 C-1.7623869 1.8551441 -3.51215677 3.38724049 -5.5625 4.9375 C-8.68012038 7.57548647 -9.81376721 9.50158185 -10.31884766 13.56542969 C-10.35026855 14.50805664 -10.38168945 15.45068359 -10.4140625 16.421875 C-10.47207031 17.95908203 -10.47207031 17.95908203 -10.53125 19.52734375 C-10.57765625 21.12255859 -10.57765625 21.12255859 -10.625 22.75 C-10.68300781 24.36841797 -10.68300781 24.36841797 -10.7421875 26.01953125 C-10.83634248 28.67940932 -10.9192555 31.33968106 -11 34 C-15.95 34 -20.9 34 -26 34 C-26.8173502 14.22466599 -26.8173502 14.22466599 -22 8 C-15.77075913 1.66050708 -8.85050648 -0.44252532 0 0 Z " fill="#FE4B6E" transform="translate(475,107)"/>
<path d="M0 0 C14.85 0 29.7 0 45 0 C45 3.3 45 6.6 45 10 C30.15 10 15.3 10 0 10 C0 6.7 0 3.4 0 0 Z " fill="#FEFEFE" transform="translate(449,141)"/>
<path d="M0 0 C1.20527344 -0.00515625 2.41054688 -0.0103125 3.65234375 -0.015625 C6.90373725 0.2376336 9.14216971 0.85356123 12.0625 2.25 C11.49898741 7.82657913 10.06859474 12.47976483 7.875 17.625 C7.59591797 18.34816406 7.31683594 19.07132812 7.02929688 19.81640625 C6.14453125 21.8984375 6.14453125 21.8984375 4.0625 25.25 C0.82421875 26.2265625 0.82421875 26.2265625 -1.9375 26.25 C-12.1877317 11.02108434 -12.1877317 11.02108434 -11.8203125 4.015625 C-10.9375 2.25 -10.9375 2.25 -9.30859375 1.015625 C-6.13685689 -0.00852726 -3.32952263 -0.01421354 0 0 Z " fill="#444B75" transform="translate(470.9375,447.75)"/>
<path d="M0 0 C9.24 0 18.48 0 28 0 C24.7 8.25 21.4 16.5 18 25 C17.67 24.34 17.34 23.68 17 23 C15.33871537 22.64080332 13.67099977 22.31088368 12 22 C9.33991496 21.02497603 8.24278496 20.4214324 6.81152344 17.93701172 C6.49731445 17.10959473 6.18310547 16.28217773 5.859375 15.4296875 C5.54452148 14.62257324 5.22966797 13.81545898 4.90527344 12.98388672 C4.5240332 11.9579541 4.14279297 10.93202148 3.75 9.875 C2.5125 6.61625 1.275 3.3575 0 0 Z " fill="#F3D392" transform="translate(466,427)"/>
<path d="M0 0 C1.04450317 0.00326294 1.04450317 0.00326294 2.11010742 0.0065918 C4.23278268 0.00974873 6.35405999 -0.01369198 8.4765625 -0.0390625 C9.82486803 -0.04133583 11.17317731 -0.04203883 12.52148438 -0.04101562 C14.36407837 -0.04548706 14.36407837 -0.04548706 16.24389648 -0.05004883 C19.30664062 0.32226562 19.30664062 0.32226562 21.24243164 1.68481445 C22.30664062 3.32226562 22.30664062 3.32226562 22.11914062 5.88476562 C21.30664062 8.32226562 21.30664062 8.32226562 19.30664062 10.32226562 C16.35742188 10.58105469 16.35742188 10.58105469 12.61914062 10.58789062 C11.96083252 10.58980408 11.30252441 10.59171753 10.62426758 10.59368896 C9.23225523 10.59505012 7.84023016 10.59135846 6.44824219 10.58300781 C4.31481474 10.57230663 2.18222932 10.58290469 0.04882812 10.59570312 C-1.30273624 10.59438152 -2.65430008 10.5918191 -4.00585938 10.58789062 C-5.23949219 10.58563477 -6.473125 10.58337891 -7.74414062 10.58105469 C-10.69335938 10.32226562 -10.69335938 10.32226562 -12.69335938 8.32226562 C-12.94335938 5.32226562 -12.94335938 5.32226562 -12.69335938 2.32226562 C-9.30670722 -1.06438653 -4.57181389 0.01892366 0 0 Z " fill="#363D61" transform="translate(90.693359375,58.677734375)"/>
<path d="M0 0 C7.26 0 14.52 0 22 0 C22 3.63 22 7.26 22 11 C14.74 11 7.48 11 0 11 C0 7.37 0 3.74 0 0 Z " fill="#E5E4E4" transform="translate(449,162)"/>
<path d="M0 0 C7.26 0 14.52 0 22 0 C22 3.3 22 6.6 22 10 C14.74 10 7.48 10 0 10 C0 6.7 0 3.4 0 0 Z " fill="#E6E7E7" transform="translate(449,141)"/>
<path d="M0 0 C2.56616632 3.84924948 2.55097676 6.4349304 3 11 C1.02 11 -0.96 11 -3 11 C-2.69217504 9.35328588 -2.37860766 7.70764424 -2.0625 6.0625 C-1.88847656 5.14597656 -1.71445313 4.22945312 -1.53515625 3.28515625 C-1 1 -1 1 0 0 Z " fill="#FCEAEB" transform="translate(203,133)"/>
</svg>
