<?xml version="1.0" encoding="UTF-8"?>
<!DOCTYPE svg PUBLIC "-//W3C//DTD SVG 1.1//EN" "http://www.w3.org/Graphics/SVG/1.1/DTD/svg11.dtd">
<svg xmlns="http://www.w3.org/2000/svg" version="1.1" width="348px" height="313px" style="shape-rendering:geometricPrecision; text-rendering:geometricPrecision; image-rendering:optimizeQuality; fill-rule:evenodd; clip-rule:evenodd" xmlns:xlink="http://www.w3.org/1999/xlink">
<g><path style="opacity:1" fill="#f5f5f6" d="M -0.5,-0.5 C 61.5,-0.5 123.5,-0.5 185.5,-0.5C 182.515,1.25495 180.015,3.58828 178,6.5C 176.797,11.9146 176.797,17.2479 178,22.5C 180.628,23.7555 181.628,25.7555 181,28.5C 175.982,29.7266 171.315,31.7266 167,34.5C 166.119,38.5037 165.286,42.5037 164.5,46.5C 165.711,47.8745 166.711,49.3745 167.5,51C 164.302,56.1212 159.969,60.1212 154.5,63C 148.662,64.542 142.995,66.542 137.5,69C 135.81,73.0429 133.643,76.8763 131,80.5C 130.39,84.2364 130.723,87.9031 132,91.5C 134.461,94.9911 137.628,95.9911 141.5,94.5C 140.167,93.1667 138.833,91.8333 137.5,90.5C 139.917,86.3426 141.75,82.0092 143,77.5C 144.128,79.9898 146.128,80.9898 149,80.5C 155.003,79.2376 160.837,77.5709 166.5,75.5C 166.66,77.1992 166.494,78.8659 166,80.5C 163.685,86.5701 161.185,92.5701 158.5,98.5C 159.167,99.5 159.833,100.5 160.5,101.5C 156.948,104.273 155.281,107.94 155.5,112.5C 119.228,114.567 85.2278,124.4 53.5,142C 22.8414,163.199 21.8414,185.532 50.5,209C 57.4143,213.624 64.7476,217.457 72.5,220.5C 77.8269,224.996 83.8269,228.163 90.5,230C 79.612,223.715 72.4454,214.548 69,202.5C 67.5406,190.878 70.8739,180.878 79,172.5C 97.6665,157.251 118.833,146.918 142.5,141.5C 138.251,151.582 134.751,161.915 132,172.5C 130.379,174.493 128.713,176.493 127,178.5C 125.442,189.478 123.275,200.312 120.5,211C 120.396,213.145 121.063,214.979 122.5,216.5C 121.96,217.748 121.293,218.915 120.5,220C 117.905,220.226 115.405,220.726 113,221.5C 112.911,223.113 113.745,224.28 115.5,225C 111.5,225.333 107.5,225.667 103.5,226C 101.675,227.466 101.175,229.299 102,231.5C 104.441,233.969 107.274,235.802 110.5,237C 115.17,237.834 119.837,238.668 124.5,239.5C 126.228,239.41 127.894,239.077 129.5,238.5C 129.844,230.089 131.344,221.756 134,213.5C 135.466,209.971 136.466,206.305 137,202.5C 139,199.167 141,195.833 143,192.5C 144.809,186.019 146.143,179.686 147,173.5C 150.986,165.838 156.152,159.005 162.5,153C 163.966,152.365 165.3,151.531 166.5,150.5C 168.122,152.439 169.956,152.772 172,151.5C 175.147,146.845 177.647,141.845 179.5,136.5C 180.274,140.792 180.274,145.125 179.5,149.5C 179.408,154.191 179.408,159.191 179.5,164.5C 174.5,164.5 169.5,164.5 164.5,164.5C 164.5,169.5 164.5,174.5 164.5,179.5C 159.5,179.5 154.5,179.5 149.5,179.5C 149.5,184.5 149.5,189.5 149.5,194.5C 153.931,194.231 158.265,194.564 162.5,195.5C 162.435,195.938 162.601,196.272 163,196.5C 164.085,195.707 165.252,195.04 166.5,194.5C 167.852,195.524 169.185,196.524 170.5,197.5C 171.273,201.695 170.439,205.695 168,209.5C 166.482,210.163 165.315,211.163 164.5,212.5C 161.508,214.335 159.342,213.669 158,210.5C 157.723,207.041 158.057,203.707 159,200.5C 154.689,208.572 154.356,216.906 158,225.5C 160.001,228.331 162.167,230.997 164.5,233.5C 164.5,235.5 164.5,237.5 164.5,239.5C 169.547,239.337 174.547,239.671 179.5,240.5C 179.5,245.167 179.5,249.833 179.5,254.5C 184.5,254.5 189.5,254.5 194.5,254.5C 194.5,259.5 194.5,264.5 194.5,269.5C 199.5,269.5 204.5,269.5 209.5,269.5C 209.5,264.5 209.5,259.5 209.5,254.5C 214.5,254.5 219.5,254.5 224.5,254.5C 224.5,259.5 224.5,264.5 224.5,269.5C 229.5,269.5 234.5,269.5 239.5,269.5C 239.5,264.5 239.5,259.5 239.5,254.5C 244.5,254.5 249.5,254.5 254.5,254.5C 254.666,258.514 254.499,262.514 254,266.5C 252.62,267.256 252.453,267.922 253.5,268.5C 232.521,277.409 210.521,282.576 187.5,284C 134.088,287.237 82.0882,280.237 31.5,263C 20.8801,258.842 10.5468,254.509 0.5,250C 14.4999,259.5 29.4999,267.167 45.5,273C 107.487,295.999 171.153,302.499 236.5,292.5C 228.774,294.735 220.774,296.235 212.5,297C 155.712,302.275 100.045,295.609 45.5,277C 36.2685,273.718 27.2685,269.884 18.5,265.5C 17.3044,265.846 17.3044,266.346 18.5,267C 22.7324,269.275 26.7324,271.775 30.5,274.5C 29.5206,277.625 29.1872,280.958 29.5,284.5C 34.5,284.5 39.5,284.5 44.5,284.5C 44.5,289.5 44.5,294.5 44.5,299.5C 49.5,299.5 54.5,299.5 59.5,299.5C 59.5,303.833 59.5,308.167 59.5,312.5C 39.5,312.5 19.5,312.5 -0.5,312.5C -0.5,208.167 -0.5,103.833 -0.5,-0.5 Z"/></g>
<g><path style="opacity:1" fill="#0f029a" d="M 185.5,-0.5 C 189.5,-0.5 193.5,-0.5 197.5,-0.5C 201.32,3.80387 203.486,8.80387 204,14.5C 204.874,17.961 204.04,20.961 201.5,23.5C 202.531,24.7003 203.365,26.0337 204,27.5C 211.979,32.7718 220.479,37.2718 229.5,41C 234.667,46.8333 239.833,52.6667 245,58.5C 249.145,64.6057 251.479,71.2724 252,78.5C 247.994,88.0049 241.161,94.6715 231.5,98.5C 229.52,102.831 227.52,107.164 225.5,111.5C 224.59,114.992 222.924,117.992 220.5,120.5C 220.139,125.098 218.306,126.098 215,123.5C 214.667,125.047 215.167,126.38 216.5,127.5C 215.807,128.518 215.141,129.518 214.5,130.5C 216.413,133.1 217.58,136.1 218,139.5C 218.264,144.863 218.764,150.197 219.5,155.5C 219.32,156.554 218.987,157.554 218.5,158.5C 221.885,158.688 225.218,157.854 228.5,156C 229.235,152.131 230.568,148.464 232.5,145C 237.869,143.692 241.203,145.692 242.5,151C 247.121,150.302 247.454,151.302 243.5,154C 249.545,159.58 252.045,166.414 251,174.5C 250.31,178.19 248.143,179.357 244.5,178C 241.479,174.408 238.146,171.242 234.5,168.5C 229.376,174.125 224.042,179.625 218.5,185C 216.5,185.667 214.5,185.667 212.5,185C 211.051,183.883 209.384,183.216 207.5,183C 202.395,173.616 198.228,163.783 195,153.5C 190.081,151.195 184.915,149.861 179.5,149.5C 180.274,145.125 180.274,140.792 179.5,136.5C 177.647,141.845 175.147,146.845 172,151.5C 169.956,152.772 168.122,152.439 166.5,150.5C 165.3,151.531 163.966,152.365 162.5,153C 156.152,159.005 150.986,165.838 147,173.5C 146.143,179.686 144.809,186.019 143,192.5C 141,195.833 139,199.167 137,202.5C 136.466,206.305 135.466,209.971 134,213.5C 131.344,221.756 129.844,230.089 129.5,238.5C 127.894,239.077 126.228,239.41 124.5,239.5C 119.837,238.668 115.17,237.834 110.5,237C 107.274,235.802 104.441,233.969 102,231.5C 101.175,229.299 101.675,227.466 103.5,226C 107.5,225.667 111.5,225.333 115.5,225C 113.745,224.28 112.911,223.113 113,221.5C 115.405,220.726 117.905,220.226 120.5,220C 121.293,218.915 121.96,217.748 122.5,216.5C 121.063,214.979 120.396,213.145 120.5,211C 123.275,200.312 125.442,189.478 127,178.5C 128.713,176.493 130.379,174.493 132,172.5C 134.751,161.915 138.251,151.582 142.5,141.5C 143.822,137.407 145.822,133.574 148.5,130C 147.434,128.841 147.767,128.008 149.5,127.5C 150.586,127.38 151.253,126.713 151.5,125.5C 152.083,120.903 153.416,116.569 155.5,112.5C 155.281,107.94 156.948,104.273 160.5,101.5C 159.833,100.5 159.167,99.5 158.5,98.5C 161.185,92.5701 163.685,86.5701 166,80.5C 166.494,78.8659 166.66,77.1992 166.5,75.5C 160.837,77.5709 155.003,79.2376 149,80.5C 146.128,80.9898 144.128,79.9898 143,77.5C 141.75,82.0092 139.917,86.3426 137.5,90.5C 138.833,91.8333 140.167,93.1667 141.5,94.5C 137.628,95.9911 134.461,94.9911 132,91.5C 130.723,87.9031 130.39,84.2364 131,80.5C 133.643,76.8763 135.81,73.0429 137.5,69C 142.995,66.542 148.662,64.542 154.5,63C 159.969,60.1212 164.302,56.1212 167.5,51C 166.711,49.3745 165.711,47.8745 164.5,46.5C 165.286,42.5037 166.119,38.5037 167,34.5C 171.315,31.7266 175.982,29.7266 181,28.5C 181.628,25.7555 180.628,23.7555 178,22.5C 176.797,17.2479 176.797,11.9146 178,6.5C 180.015,3.58828 182.515,1.25495 185.5,-0.5 Z"/></g>
<g><path style="opacity:1" fill="#f5f5f5" d="M 197.5,-0.5 C 241.5,-0.5 285.5,-0.5 329.5,-0.5C 329.5,4.5 329.5,9.5 329.5,14.5C 334.5,14.5 339.5,14.5 344.5,14.5C 344.5,19.5 344.5,24.5 344.5,29.5C 339.5,29.5 334.5,29.5 329.5,29.5C 329.5,34.5 329.5,39.5 329.5,44.5C 334.5,44.5 339.5,44.5 344.5,44.5C 344.5,49.5 344.5,54.5 344.5,59.5C 339.5,59.5 334.5,59.5 329.5,59.5C 329.5,64.5 329.5,69.5 329.5,74.5C 334.5,74.5 339.5,74.5 344.5,74.5C 344.5,79.5 344.5,84.5 344.5,89.5C 339.5,89.5 334.5,89.5 329.5,89.5C 329.5,94.5 329.5,99.5 329.5,104.5C 334.5,104.5 339.5,104.5 344.5,104.5C 344.5,109.5 344.5,114.5 344.5,119.5C 339.5,119.5 334.5,119.5 329.5,119.5C 329.5,124.5 329.5,129.5 329.5,134.5C 334.5,134.5 339.5,134.5 344.5,134.5C 344.5,138.167 344.5,141.833 344.5,145.5C 334.248,141.086 323.915,137.086 313.5,133.5C 318.57,133.911 323.403,135.245 328,137.5C 328.5,137.333 329,137.167 329.5,137C 296.506,121.919 261.84,113.419 225.5,111.5C 227.52,107.164 229.52,102.831 231.5,98.5C 241.161,94.6715 247.994,88.0049 252,78.5C 251.479,71.2724 249.145,64.6057 245,58.5C 239.833,52.6667 234.667,46.8333 229.5,41C 220.479,37.2718 211.979,32.7718 204,27.5C 203.365,26.0337 202.531,24.7003 201.5,23.5C 204.04,20.961 204.874,17.961 204,14.5C 203.486,8.80387 201.32,3.80387 197.5,-0.5 Z"/></g>
<g><path style="opacity:1" fill="#e9e8f3" d="M 227.5,74.5 C 231.316,75.0897 232.983,77.4231 232.5,81.5C 230.473,81.6621 228.473,81.4955 226.5,81C 227.423,78.9592 227.756,76.7925 227.5,74.5 Z"/></g>
<g><path style="opacity:1" fill="#18189a" d="M 225.5,111.5 C 261.84,113.419 296.506,121.919 329.5,137C 329,137.167 328.5,137.333 328,137.5C 323.403,135.245 318.57,133.911 313.5,133.5C 303.215,129.718 292.549,126.885 281.5,125C 278.183,124.502 274.85,124.335 271.5,124.5C 269.052,123.527 266.385,123.194 263.5,123.5C 255.096,121.457 246.429,120.457 237.5,120.5C 231.833,120.5 226.167,120.5 220.5,120.5C 222.924,117.992 224.59,114.992 225.5,111.5 Z"/></g>
<g><path style="opacity:1" fill="#08149a" d="M 155.5,112.5 C 153.416,116.569 152.083,120.903 151.5,125.5C 151.253,126.713 150.586,127.38 149.5,127.5C 150.859,125.991 150.359,125.324 148,125.5C 121.57,129.971 96.7367,138.804 73.5,152C 62.6608,158.499 55.1608,167.666 51,179.5C 49.0043,190.505 51.6709,200.172 59,208.5C 63.0995,213.108 67.5995,217.108 72.5,220.5C 64.7476,217.457 57.4143,213.624 50.5,209C 21.8414,185.532 22.8414,163.199 53.5,142C 85.2278,124.4 119.228,114.567 155.5,112.5 Z"/></g>
<g><path style="opacity:1" fill="#aacb37" d="M 220.5,120.5 C 226.167,120.5 231.833,120.5 237.5,120.5C 245.967,122.016 254.633,123.016 263.5,123.5C 266.385,123.194 269.052,123.527 271.5,124.5C 285.439,127.223 299.439,130.223 313.5,133.5C 323.915,137.086 334.248,141.086 344.5,145.5C 344.265,146.097 343.765,146.43 343,146.5C 301.13,133.696 258.297,128.362 214.5,130.5C 215.141,129.518 215.807,128.518 216.5,127.5C 215.167,126.38 214.667,125.047 215,123.5C 218.306,126.098 220.139,125.098 220.5,120.5 Z"/></g>
<g><path style="opacity:1" fill="#a5a3cc" d="M 237.5,120.5 C 246.429,120.457 255.096,121.457 263.5,123.5C 254.633,123.016 245.967,122.016 237.5,120.5 Z"/></g>
<g><path style="opacity:1" fill="#a9ca34" d="M 149.5,127.5 C 147.767,128.008 147.434,128.841 148.5,130C 145.822,133.574 143.822,137.407 142.5,141.5C 118.833,146.918 97.6665,157.251 79,172.5C 70.8739,180.878 67.5406,190.878 69,202.5C 72.4454,214.548 79.612,223.715 90.5,230C 83.8269,228.163 77.8269,224.996 72.5,220.5C 67.5995,217.108 63.0995,213.108 59,208.5C 51.6709,200.172 49.0043,190.505 51,179.5C 55.1608,167.666 62.6608,158.499 73.5,152C 96.7367,138.804 121.57,129.971 148,125.5C 150.359,125.324 150.859,125.991 149.5,127.5 Z"/></g>
<g><path style="opacity:1" fill="#d8d9e4" d="M 271.5,124.5 C 274.85,124.335 278.183,124.502 281.5,125C 292.549,126.885 303.215,129.718 313.5,133.5C 299.439,130.223 285.439,127.223 271.5,124.5 Z"/></g>
<g><path style="opacity:1" fill="#f7f7f7" d="M 329.5,-0.5 C 335.5,-0.5 341.5,-0.5 347.5,-0.5C 347.5,103.833 347.5,208.167 347.5,312.5C 251.5,312.5 155.5,312.5 59.5,312.5C 59.5,308.167 59.5,303.833 59.5,299.5C 54.5,299.5 49.5,299.5 44.5,299.5C 44.5,294.5 44.5,289.5 44.5,284.5C 39.5,284.5 34.5,284.5 29.5,284.5C 29.1872,280.958 29.5206,277.625 30.5,274.5C 104.319,309.164 181.319,318.998 261.5,304C 279.469,300.265 295.302,292.432 309,280.5C 320.536,265.339 320.203,250.339 308,235.5C 304.571,231.561 300.737,228.228 296.5,225.5C 289.145,215.034 279.812,207.2 268.5,202C 290.465,222.944 289.798,242.944 266.5,262C 262.423,264.705 258.09,266.872 253.5,268.5C 252.453,267.922 252.62,267.256 254,266.5C 254.499,262.514 254.666,258.514 254.5,254.5C 249.5,254.5 244.5,254.5 239.5,254.5C 239.5,259.5 239.5,264.5 239.5,269.5C 234.5,269.5 229.5,269.5 224.5,269.5C 224.5,264.5 224.5,259.5 224.5,254.5C 219.5,254.5 214.5,254.5 209.5,254.5C 209.5,259.5 209.5,264.5 209.5,269.5C 204.5,269.5 199.5,269.5 194.5,269.5C 194.5,264.5 194.5,259.5 194.5,254.5C 189.5,254.5 184.5,254.5 179.5,254.5C 179.5,249.833 179.5,245.167 179.5,240.5C 174.547,239.671 169.547,239.337 164.5,239.5C 164.5,237.5 164.5,235.5 164.5,233.5C 166.05,234.441 167.716,235.107 169.5,235.5C 185.697,242.153 197.53,237.486 205,221.5C 208.66,205.987 203.16,195.154 188.5,189C 178.427,185.976 169.76,188.143 162.5,195.5C 158.265,194.564 153.931,194.231 149.5,194.5C 149.5,189.5 149.5,184.5 149.5,179.5C 154.5,179.5 159.5,179.5 164.5,179.5C 164.5,174.5 164.5,169.5 164.5,164.5C 169.5,164.5 174.5,164.5 179.5,164.5C 179.408,159.191 179.408,154.191 179.5,149.5C 184.915,149.861 190.081,151.195 195,153.5C 198.228,163.783 202.395,173.616 207.5,183C 209.384,183.216 211.051,183.883 212.5,185C 214.5,185.667 216.5,185.667 218.5,185C 224.042,179.625 229.376,174.125 234.5,168.5C 238.146,171.242 241.479,174.408 244.5,178C 248.143,179.357 250.31,178.19 251,174.5C 252.045,166.414 249.545,159.58 243.5,154C 247.454,151.302 247.121,150.302 242.5,151C 241.203,145.692 237.869,143.692 232.5,145C 230.568,148.464 229.235,152.131 228.5,156C 225.218,157.854 221.885,158.688 218.5,158.5C 218.987,157.554 219.32,156.554 219.5,155.5C 218.764,150.197 218.264,144.863 218,139.5C 217.58,136.1 216.413,133.1 214.5,130.5C 258.297,128.362 301.13,133.696 343,146.5C 343.765,146.43 344.265,146.097 344.5,145.5C 344.5,141.833 344.5,138.167 344.5,134.5C 339.5,134.5 334.5,134.5 329.5,134.5C 329.5,129.5 329.5,124.5 329.5,119.5C 334.5,119.5 339.5,119.5 344.5,119.5C 344.5,114.5 344.5,109.5 344.5,104.5C 339.5,104.5 334.5,104.5 329.5,104.5C 329.5,99.5 329.5,94.5 329.5,89.5C 334.5,89.5 339.5,89.5 344.5,89.5C 344.5,84.5 344.5,79.5 344.5,74.5C 339.5,74.5 334.5,74.5 329.5,74.5C 329.5,69.5 329.5,64.5 329.5,59.5C 334.5,59.5 339.5,59.5 344.5,59.5C 344.5,54.5 344.5,49.5 344.5,44.5C 339.5,44.5 334.5,44.5 329.5,44.5C 329.5,39.5 329.5,34.5 329.5,29.5C 334.5,29.5 339.5,29.5 344.5,29.5C 344.5,24.5 344.5,19.5 344.5,14.5C 339.5,14.5 334.5,14.5 329.5,14.5C 329.5,9.5 329.5,4.5 329.5,-0.5 Z"/></g>
<g><path style="opacity:1" fill="#42a33a" d="M 169.5,235.5 C 170.978,235.762 172.311,235.429 173.5,234.5C 172.018,232.517 170.351,230.684 168.5,229C 173.379,229.156 176.545,226.99 178,222.5C 180.035,228.098 183.868,229.765 189.5,227.5C 191.348,225.484 193.015,223.317 194.5,221C 194.097,218.359 193.097,216.026 191.5,214C 198.344,210.123 199.344,204.956 194.5,198.5C 188.559,193.023 184.559,194.357 182.5,202.5C 181.26,201.341 179.926,200.341 178.5,199.5C 185.621,197.941 186.955,194.441 182.5,189C 177.096,188.348 172.429,189.848 168.5,193.5C 169.63,194.622 170.297,195.956 170.5,197.5C 169.185,196.524 167.852,195.524 166.5,194.5C 165.252,195.04 164.085,195.707 163,196.5C 162.601,196.272 162.435,195.938 162.5,195.5C 169.76,188.143 178.427,185.976 188.5,189C 203.16,195.154 208.66,205.987 205,221.5C 197.53,237.486 185.697,242.153 169.5,235.5 Z"/></g>
<g><path style="opacity:1" fill="#fcfdfc" d="M 178.5,199.5 C 175.487,199.893 172.82,199.226 170.5,197.5C 170.297,195.956 169.63,194.622 168.5,193.5C 172.429,189.848 177.096,188.348 182.5,189C 186.955,194.441 185.621,197.941 178.5,199.5 Z"/></g>
<g><path style="opacity:1" fill="#fafcf7" d="M 196.5,196.5 C 202.74,200.349 205.24,206.016 204,213.5C 202.667,212.167 201.333,210.833 200,209.5C 199.476,205.285 197.976,201.452 195.5,198C 196.056,197.617 196.389,197.117 196.5,196.5 Z"/></g>
<g><path style="opacity:1" fill="#1b991a" d="M 170.5,197.5 C 172.82,199.226 175.487,199.893 178.5,199.5C 179.926,200.341 181.26,201.341 182.5,202.5C 182.498,206.397 184.165,209.23 187.5,211C 180.816,211.016 177.316,214.516 177,221.5C 176.955,218.666 176.121,216.166 174.5,214C 172.667,212.833 170.833,211.667 169,210.5C 167.67,211.582 166.17,212.249 164.5,212.5C 165.315,211.163 166.482,210.163 168,209.5C 170.439,205.695 171.273,201.695 170.5,197.5 Z"/></g>
<g><path style="opacity:1" fill="#329e2d" d="M 164.5,212.5 C 159.373,217.003 159.706,221.503 165.5,226C 163.583,225.973 161.916,225.139 160.5,223.5C 160.167,223.833 159.833,224.167 159.5,224.5C 162.174,228.837 165.507,232.504 169.5,235.5C 167.716,235.107 166.05,234.441 164.5,233.5C 162.167,230.997 160.001,228.331 158,225.5C 154.356,216.906 154.689,208.572 159,200.5C 158.057,203.707 157.723,207.041 158,210.5C 159.342,213.669 161.508,214.335 164.5,212.5 Z"/></g>
<g><path style="opacity:1" fill="#0d159a" d="M 296.5,225.5 C 307.329,243.2 304.663,258.7 288.5,272C 275.913,280.255 262.246,286.088 247.5,289.5C 245.102,289.259 243.102,289.926 241.5,291.5C 239.585,291.216 237.919,291.549 236.5,292.5C 171.153,302.499 107.487,295.999 45.5,273C 29.4999,267.167 14.4999,259.5 0.5,250C 10.5468,254.509 20.8801,258.842 31.5,263C 82.0882,280.237 134.088,287.237 187.5,284C 210.521,282.576 232.521,277.409 253.5,268.5C 258.09,266.872 262.423,264.705 266.5,262C 289.798,242.944 290.465,222.944 268.5,202C 279.812,207.2 289.145,215.034 296.5,225.5 Z"/></g>
<g><path style="opacity:1" fill="#f9fbf7" d="M 189.5,227.5 C 183.868,229.765 180.035,228.098 178,222.5C 176.545,226.99 173.379,229.156 168.5,229C 170.351,230.684 172.018,232.517 173.5,234.5C 172.311,235.429 170.978,235.762 169.5,235.5C 165.507,232.504 162.174,228.837 159.5,224.5C 159.833,224.167 160.167,223.833 160.5,223.5C 161.916,225.139 163.583,225.973 165.5,226C 159.706,221.503 159.373,217.003 164.5,212.5C 166.17,212.249 167.67,211.582 169,210.5C 170.833,211.667 172.667,212.833 174.5,214C 176.121,216.166 176.955,218.666 177,221.5C 177.316,214.516 180.816,211.016 187.5,211C 184.165,209.23 182.498,206.397 182.5,202.5C 184.559,194.357 188.559,193.023 194.5,198.5C 199.344,204.956 198.344,210.123 191.5,214C 193.097,216.026 194.097,218.359 194.5,221C 193.015,223.317 191.348,225.484 189.5,227.5 Z"/></g>
<g><path style="opacity:1" fill="#fbfcf9" d="M 189.5,227.5 C 191.196,227.315 192.529,226.481 193.5,225C 198.1,223.417 199.934,224.917 199,229.5C 195.523,233.822 191.023,235.822 185.5,235.5C 185.259,231.981 186.593,229.315 189.5,227.5 Z"/></g>
<g><path style="opacity:1" fill="#a9ca33" d="M 296.5,225.5 C 300.737,228.228 304.571,231.561 308,235.5C 320.203,250.339 320.536,265.339 309,280.5C 295.302,292.432 279.469,300.265 261.5,304C 181.319,318.998 104.319,309.164 30.5,274.5C 26.7324,271.775 22.7324,269.275 18.5,267C 17.3044,266.346 17.3044,265.846 18.5,265.5C 27.2685,269.884 36.2685,273.718 45.5,277C 100.045,295.609 155.712,302.275 212.5,297C 220.774,296.235 228.774,294.735 236.5,292.5C 237.919,291.549 239.585,291.216 241.5,291.5C 244.01,291.946 246.01,291.28 247.5,289.5C 262.246,286.088 275.913,280.255 288.5,272C 304.663,258.7 307.329,243.2 296.5,225.5 Z"/></g>
<g><path style="opacity:1" fill="#c0c5af" d="M 247.5,289.5 C 246.01,291.28 244.01,291.946 241.5,291.5C 243.102,289.926 245.102,289.259 247.5,289.5 Z"/></g>
</svg>
