<?xml version="1.0" encoding="UTF-8"?>
<svg version="1.1" xmlns="http://www.w3.org/2000/svg" width="512" height="512">
<path d="M0 0 C8.95103302 7.02158813 14.58992172 17.63586462 17.0078125 28.62890625 C17.89789896 39.26697409 18.10488007 50.01684364 13.0078125 59.62890625 C12.54890625 60.50933594 12.09 61.38976562 11.6171875 62.296875 C8.65458567 67.57498406 5.34695069 71.44085226 1.0078125 75.62890625 C2.04679688 76.24636719 3.08578125 76.86382812 4.15625 77.5 C12.50462888 82.53729633 20.12858237 87.63812104 27.0078125 94.62890625 C27.71292969 95.3353125 28.41804688 96.04171875 29.14453125 96.76953125 C35.66655808 103.67666823 40.66284125 111.73063321 44.0078125 120.62890625 C47.90067699 118.30339357 51.77014881 115.94172243 55.6328125 113.56640625 C56.20515625 113.21513672 56.7775 112.86386719 57.3671875 112.50195312 C59.9440996 110.91685254 62.49011115 109.30737382 65.0078125 107.62890625 C64.42773438 107.05785156 63.84765625 106.48679687 63.25 105.8984375 C51.58547141 93.79119578 48.49394628 81.89615433 48.73046875 65.703125 C49.10912773 55.49063575 52.9450755 47.67369189 59.0078125 39.62890625 C59.5853125 38.76265625 60.1628125 37.89640625 60.7578125 37.00390625 C70.27443407 26.95858349 83.15218242 21.8250907 96.8203125 21.31640625 C109.64662742 21.65817326 121.8914235 26.13503725 131.38671875 34.87890625 C143.31892264 47.75993599 145.81792816 61.35678508 145.18701172 78.25341797 C144.81361895 83.2031614 143.31370991 87.28043921 141.0078125 91.62890625 C140.54890625 92.50933594 140.09 93.38976562 139.6171875 94.296875 C136.65458567 99.57498406 133.34695069 103.44085226 129.0078125 107.62890625 C129.95140625 108.15097656 130.895 108.67304688 131.8671875 109.2109375 C141.02069534 114.40711073 148.61623993 120.14773886 156.0078125 127.62890625 C157.00554687 128.61117187 157.00554687 128.61117187 158.0234375 129.61328125 C169.94326236 142.17742096 177.07007362 160.38319976 177.24609375 177.5625 C177.2541655 178.31805679 177.26223724 179.07361359 177.27055359 179.85206604 C177.28433492 181.44473006 177.29508347 183.03742288 177.30297852 184.63012695 C177.3145224 186.25261133 177.33501229 187.87505702 177.36450195 189.49731445 C177.40726518 191.85263634 177.42335508 194.20683772 177.43359375 196.5625 C177.45110184 197.28142929 177.46860992 198.00035858 177.48664856 198.74107361 C177.4646897 203.8760822 176.331495 206.74269592 173.0078125 210.62890625 C167.28150793 215.93903328 161.05791953 215.1939191 153.5703125 215.14648438 C152.19986224 215.15190925 150.82941782 215.15903396 149.45898438 215.16772461 C145.74816514 215.18591792 142.03779209 215.17890727 138.32696533 215.16620827 C134.43801701 215.15605974 130.54910612 215.16547908 126.66015625 215.17175293 C120.13013878 215.17902397 113.60030245 215.16945601 107.0703125 215.15039062 C99.52776065 215.12862279 91.98564134 215.13567455 84.44309998 215.15769625 C77.95967413 215.17586584 71.47637827 215.17840099 64.99293518 215.16794157 C61.12396152 215.16171516 57.25519097 215.16084736 53.38623047 215.17408752 C49.74824848 215.18566829 46.1108225 215.17758051 42.47290039 215.1545105 C40.50602985 215.14672472 38.53911211 215.15856034 36.57226562 215.17102051 C25.57241179 215.06565792 25.57241179 215.06565792 21.0078125 210.62890625 C17.0078125 204.62890625 17.0078125 204.62890625 17.0078125 182.62890625 C-14.6721875 182.62890625 -46.3521875 182.62890625 -78.9921875 182.62890625 C-78.9921875 189.88890625 -78.9921875 197.14890625 -78.9921875 204.62890625 C-84.17672983 212.40571974 -84.17672983 212.40571974 -88.9921875 214.62890625 C-93.47274571 215.20893601 -97.91699471 215.17507273 -102.4296875 215.14648438 C-103.80013776 215.15190925 -105.17058218 215.15903396 -106.54101562 215.16772461 C-110.25183486 215.18591792 -113.96220791 215.17890727 -117.67303467 215.16620827 C-121.56198299 215.15605974 -125.45089388 215.16547908 -129.33984375 215.17175293 C-135.86986122 215.17902397 -142.39969755 215.16945601 -148.9296875 215.15039062 C-156.47223935 215.12862279 -164.01435866 215.13567455 -171.55690002 215.15769625 C-178.04032587 215.17586584 -184.52362173 215.17840099 -191.00706482 215.16794157 C-194.87603848 215.16171516 -198.74480903 215.16084736 -202.61376953 215.17408752 C-206.25175152 215.18566829 -209.8891775 215.17758051 -213.52709961 215.1545105 C-215.49397015 215.14672472 -217.46088789 215.15856034 -219.42773438 215.17102051 C-230.20937969 215.06774804 -230.20937969 215.06774804 -234.9921875 210.62890625 C-238.74793605 206.18990278 -239.5902194 202.58491756 -239.5234375 196.9140625 C-239.5272644 196.18126572 -239.53109131 195.44846893 -239.53503418 194.69346619 C-239.53774605 193.14450708 -239.53043559 191.59550162 -239.51367188 190.04663086 C-239.49252636 187.72855387 -239.51334846 185.41367568 -239.5390625 183.09570312 C-239.56535133 170.02814481 -237.40454258 157.92589994 -231.1796875 146.25390625 C-230.83276855 145.58601074 -230.48584961 144.91811523 -230.12841797 144.22998047 C-227.27840086 138.88245863 -224.08270263 134.11746322 -219.9921875 129.62890625 C-219.27675781 128.82195312 -218.56132812 128.015 -217.82421875 127.18359375 C-211.32959006 120.25457717 -204.07752663 115.45641642 -195.9921875 110.62890625 C-195.02925781 110.05011719 -194.06632812 109.47132813 -193.07421875 108.875 C-192.38714844 108.46378906 -191.70007813 108.05257812 -190.9921875 107.62890625 C-191.57226562 107.05785156 -192.15234375 106.48679687 -192.75 105.8984375 C-204.41452859 93.79119578 -207.50605372 81.89615433 -207.26953125 65.703125 C-206.89087227 55.49063575 -203.0549245 47.67369189 -196.9921875 39.62890625 C-196.4146875 38.76265625 -195.8371875 37.89640625 -195.2421875 37.00390625 C-185.72556593 26.95858349 -172.84781758 21.8250907 -159.1796875 21.31640625 C-146.35337258 21.65817326 -134.1085765 26.13503725 -124.61328125 34.87890625 C-112.68107736 47.75993599 -110.18207184 61.35678508 -110.81298828 78.25341797 C-111.18638105 83.2031614 -112.68629009 87.28043921 -114.9921875 91.62890625 C-115.45109375 92.50933594 -115.91 93.38976562 -116.3828125 94.296875 C-119.34541433 99.57498406 -122.65304931 103.44085226 -126.9921875 107.62890625 C-124.4300388 109.23363628 -121.86748195 110.83770807 -119.3046875 112.44140625 C-118.58345703 112.89322266 -117.86222656 113.34503906 -117.11914062 113.81054688 C-113.43022022 116.11822767 -109.73400129 118.40743495 -105.9921875 120.62890625 C-105.3734375 119.28699219 -105.3734375 119.28699219 -104.7421875 117.91796875 C-100.99271974 109.98640233 -96.92009762 103.18080691 -90.9921875 96.62890625 C-90.32703125 95.8709375 -89.661875 95.11296875 -88.9765625 94.33203125 C-82.82966869 87.72981197 -75.66003802 83.24072939 -67.9921875 78.62890625 C-67.02796875 78.04882812 -66.06375 77.46875 -65.0703125 76.87109375 C-64.38453125 76.46117187 -63.69875 76.05125 -62.9921875 75.62890625 C-63.57226562 75.05785156 -64.15234375 74.48679687 -64.75 73.8984375 C-76.41452859 61.79119578 -79.50605372 49.89615433 -79.26953125 33.703125 C-78.89087227 23.49063575 -75.0549245 15.67369189 -68.9921875 7.62890625 C-68.4146875 6.76265625 -67.8371875 5.89640625 -67.2421875 5.00390625 C-48.92551433 -14.33035987 -21.13499495 -14.54584946 0 0 Z M-59.7421875 10.75390625 C-68.30341101 19.82231124 -70.48820007 30.55391724 -70.26953125 42.5078125 C-69.76150995 53.53010553 -64.09054659 61.86544779 -56.3671875 69.31640625 C-46.91821796 77.07488219 -36.81222203 78.85472155 -24.94873047 77.86816406 C-14.22695082 76.55704052 -5.99147846 70.46338852 0.8203125 62.37890625 C8.00808859 52.41631428 9.56516969 41.62288104 8.0078125 29.62890625 C5.37550419 18.59345987 -1.63826387 10.07792641 -11.1796875 4.12890625 C-27.7557396 -4.91026195 -45.78281732 -1.71524794 -59.7421875 10.75390625 Z M-187.7421875 42.75390625 C-196.30341101 51.82231124 -198.48820007 62.55391724 -198.26953125 74.5078125 C-197.76150995 85.53010553 -192.09054659 93.86544779 -184.3671875 101.31640625 C-174.91821796 109.07488219 -164.81222203 110.85472155 -152.94873047 109.86816406 C-142.22695082 108.55704052 -133.99147846 102.46338852 -127.1796875 94.37890625 C-119.99191141 84.41631428 -118.43483031 73.62288104 -119.9921875 61.62890625 C-122.62449581 50.59345987 -129.63826387 42.07792641 -139.1796875 36.12890625 C-155.7557396 27.08973805 -173.78281732 30.28475206 -187.7421875 42.75390625 Z M68.2578125 42.75390625 C59.69658899 51.82231124 57.51179993 62.55391724 57.73046875 74.5078125 C58.23849005 85.53010553 63.90945341 93.86544779 71.6328125 101.31640625 C81.08178204 109.07488219 91.18777797 110.85472155 103.05126953 109.86816406 C113.77304918 108.55704052 122.00852154 102.46338852 128.8203125 94.37890625 C136.00808859 84.41631428 137.56516969 73.62288104 136.0078125 61.62890625 C133.37550419 50.59345987 126.36173613 42.07792641 116.8203125 36.12890625 C100.2442604 27.08973805 82.21718268 30.28475206 68.2578125 42.75390625 Z M-86.0078125 104.76953125 C-89.86785505 109.32507696 -92.60317013 114.39860024 -95.3046875 119.69140625 C-95.64274414 120.35229248 -95.98080078 121.01317871 -96.32910156 121.6940918 C-99.18181642 127.5245265 -100.9921875 133.05830316 -100.9921875 139.62890625 C-101.6728125 138.94828125 -102.3534375 138.26765625 -103.0546875 137.56640625 C-103.74691406 136.87998047 -103.74691406 136.87998047 -104.453125 136.1796875 C-105.49490663 135.12997353 -106.52069373 134.06418258 -107.53125 132.984375 C-120.50002529 119.37023411 -138.10805802 111.77700727 -156.8046875 110.6328125 C-178.2620107 110.60651676 -195.85507501 118.69915147 -210.9921875 133.62890625 C-227.88001537 150.78479488 -231.05211066 172.09692436 -231.35546875 195.10546875 C-230.95213099 199.01741131 -230.18619714 201.36896164 -227.9921875 204.62890625 C-224.44029907 206.42604285 -221.52379995 206.8808935 -217.57191467 206.88960266 C-216.49670059 206.89668747 -215.42148651 206.90377228 -214.31369019 206.91107178 C-213.1441983 206.90859436 -211.97470642 206.90611694 -210.76977539 206.90356445 C-209.53022598 206.90867538 -208.29067657 206.91378632 -207.01356506 206.91905212 C-203.62092379 206.93056016 -200.22852706 206.9330234 -196.83588338 206.93048882 C-194.00042943 206.9294176 -191.16499791 206.93430635 -188.32954878 206.93909425 C-181.63870874 206.95018146 -174.94792485 206.95063122 -168.25708008 206.94458008 C-161.36161157 206.93853964 -154.46634708 206.95085474 -147.57091337 206.97215015 C-141.64379073 206.98977995 -135.71673295 206.99576535 -129.78958505 206.9925124 C-126.2526068 206.99070165 -122.7157741 206.99331488 -119.17881966 207.00722694 C-115.2337967 207.02216413 -111.28903259 207.01282305 -107.34399414 207.0012207 C-106.17652649 207.00886444 -105.00905884 207.01650818 -103.80621338 207.02438354 C-95.97790192 206.97979553 -95.97790192 206.97979553 -88.9921875 203.62890625 C-86.51302063 199.62956256 -86.7229333 195.39033881 -86.8046875 190.81640625 C-86.80533203 190.14287109 -86.80597656 189.46933594 -86.80664062 188.77539062 C-86.84840201 183.92642961 -87.37910713 179.53354925 -87.9921875 174.62890625 C-50.3721875 174.62890625 -12.7521875 174.62890625 26.0078125 174.62890625 C25.6778125 177.26890625 25.3478125 179.90890625 25.0078125 182.62890625 C24.81641551 185.33920356 24.77874912 188.03738017 24.7578125 190.75390625 C24.7371875 191.43066406 24.7165625 192.10742188 24.6953125 192.8046875 C24.65904068 197.49282 25.35562982 200.74288206 28.0078125 204.62890625 C31.56111434 206.4235124 34.47571059 206.88089242 38.42808533 206.88960266 C39.50329941 206.89668747 40.57851349 206.90377228 41.68630981 206.91107178 C42.8558017 206.90859436 44.02529358 206.90611694 45.23022461 206.90356445 C46.46977402 206.90867538 47.70932343 206.91378632 48.98643494 206.91905212 C52.37907621 206.93056016 55.77147294 206.9330234 59.16411662 206.93048882 C61.99957057 206.9294176 64.83500209 206.93430635 67.67045122 206.93909425 C74.36129126 206.95018146 81.05207515 206.95063122 87.74291992 206.94458008 C94.63838843 206.93853964 101.53365292 206.95085474 108.42908663 206.97215015 C114.35620927 206.98977995 120.28326705 206.99576535 126.21041495 206.9925124 C129.7473932 206.99070165 133.2842259 206.99331488 136.82118034 207.00722694 C140.7662033 207.02216413 144.71096741 207.01282305 148.65600586 207.0012207 C149.82347351 207.00886444 150.99094116 207.01650818 152.19378662 207.02438354 C160.02280553 206.98098882 160.02280553 206.98098882 167.0078125 203.62890625 C172.75396089 194.20059955 169.02775835 175.10099317 166.53515625 164.64648438 C161.60063835 146.20600821 149.39388525 130.87311031 133.4453125 120.50390625 C116.20777719 110.64635548 96.79678282 108.85532357 77.72265625 113.4140625 C63.59971644 117.71234853 53.27387932 125.39171725 43.0078125 135.62890625 C42.22535156 136.40878906 41.44289063 137.18867188 40.63671875 137.9921875 C39.83041016 138.80236328 39.83041016 138.80236328 39.0078125 139.62890625 C38.9459375 138.57703125 38.8840625 137.52515625 38.8203125 136.44140625 C36.6650899 119.52889558 25.87596057 105.14036247 13.30859375 94.30078125 C-18.81076664 69.73064279 -59.41525782 76.5278259 -86.0078125 104.76953125 Z " fill="#005B92" transform="translate(286.9921875,249.37109375)"/>
<path d="M0 0 C1.47683969 1.12187997 2.93575209 2.26778397 4.375 3.4375 C5.19742188 4.05625 6.01984375 4.675 6.8671875 5.3125 C16.47771007 13.45599576 21.37937373 24.4549949 24.375 36.4375 C24.375 42.7075 24.375 48.9775 24.375 55.4375 C-12.585 55.4375 -49.545 55.4375 -87.625 55.4375 C-87.625 37.25415302 -86.89818538 25.17072372 -75.625 11.4375 C-74.84898437 10.45007813 -74.07296875 9.46265625 -73.2734375 8.4453125 C-55.79499277 -12.35561729 -21.83203836 -14.85346891 0 0 Z " fill="#005B92" transform="translate(287.625,352.5625)"/>
<path d="M0 0 C2.44225447 1.66159248 4.74768159 3.38773224 7.0390625 5.25 C7.86148438 5.86875 8.68390625 6.4875 9.53125 7.125 C19.14177257 15.26849576 24.04343623 26.2674949 27.0390625 38.25 C27.0390625 44.52 27.0390625 50.79 27.0390625 57.25 C-9.9209375 57.25 -46.8809375 57.25 -84.9609375 57.25 C-84.9609375 38.95913403 -84.19664624 27.07469756 -72.9609375 13.25 C-72.3421875 12.42757813 -71.7234375 11.60515625 -71.0859375 10.7578125 C-54.25015514 -9.11088653 -22.01325939 -13.01047521 0 0 Z " fill="#005B92" transform="translate(412.9609375,382.75)"/>
<path d="M0 0 C2.44225447 1.66159248 4.74768159 3.38773224 7.0390625 5.25 C7.86148438 5.86875 8.68390625 6.4875 9.53125 7.125 C19.14177257 15.26849576 24.04343623 26.2674949 27.0390625 38.25 C27.0390625 44.52 27.0390625 50.79 27.0390625 57.25 C-9.9209375 57.25 -46.8809375 57.25 -84.9609375 57.25 C-84.9609375 38.95913403 -84.19664624 27.07469756 -72.9609375 13.25 C-72.3421875 12.42757813 -71.7234375 11.60515625 -71.0859375 10.7578125 C-54.25015514 -9.11088653 -22.01325939 -13.01047521 0 0 Z " fill="#005B92" transform="translate(156.9609375,382.75)"/>
<path d="M0 0 C1.11338242 0.48421417 2.22676483 0.96842834 3.37388611 1.46731567 C6.36717035 2.77364825 9.35128314 4.09850945 12.33198929 5.43322754 C15.43956186 6.82006528 18.55681894 8.18475911 21.67358398 9.55078125 C25.46417222 11.213253 29.25396973 12.87736759 33.03923035 14.55194092 C40.92854808 18.0387017 48.85686275 21.41676464 56.83203125 24.703125 C58.77014768 25.50766663 60.70813989 26.31250756 62.64599609 27.11767578 C65.35086786 28.24115727 68.05728003 29.35862897 70.77325439 30.45501709 C89.1639593 37.8928804 89.1639593 37.8928804 93.0546875 45.3828125 C94.80415978 51.46538047 94.42437806 56.00779425 91.453125 61.59375 C87.03862622 67.241349 80.79072834 69.45887753 74.3671875 72.1328125 C72.92375977 72.74962891 72.92375977 72.74962891 71.45117188 73.37890625 C64.34059645 76.3828125 64.34059645 76.3828125 62.0546875 76.3828125 C62.06468025 77.58764534 62.06468025 77.58764534 62.07487488 78.81681824 C62.13503747 86.3940568 62.18068794 93.97117922 62.21012402 101.54859447 C62.22576628 105.44403986 62.24697791 109.33928753 62.28100586 113.23461914 C62.31365118 116.99529775 62.33155135 120.75578644 62.33931923 124.51659584 C62.3448535 125.94990337 62.35566071 127.38320076 62.37187767 128.81642723 C62.39371805 130.82697753 62.39491347 132.83771978 62.39526367 134.84838867 C62.40525642 136.56381111 62.40525642 136.56381111 62.41545105 138.31388855 C61.84284724 143.18488383 59.79571723 145.6734507 56.3125 149.0078125 C43.23639543 159.29509821 20.12955534 162.52719017 4.0546875 164.3828125 C3.14589844 164.49367187 2.23710937 164.60453125 1.30078125 164.71875 C-25.99822592 167.52838356 -52.93804264 163.78314566 -78.9453125 155.3203125 C-79.66855713 155.08731445 -80.39180176 154.85431641 -81.13696289 154.61425781 C-87.34496205 152.49068178 -92.5897013 149.38369943 -96.9453125 144.3828125 C-98.05507291 141.05353126 -98.06562145 138.58253893 -98.05883789 135.07543945 C-98.05876236 133.77431717 -98.05868683 132.47319489 -98.05860901 131.13264465 C-98.05350235 129.7121273 -98.04828635 128.29161033 -98.04296875 126.87109375 C-98.04110341 125.41806588 -98.03968006 123.96503739 -98.03868103 122.51200867 C-98.03486496 118.68975078 -98.02504243 114.86753095 -98.01397705 111.04528809 C-98.00374337 107.14412959 -97.99917921 103.24296493 -97.99414062 99.34179688 C-97.98341936 91.68878474 -97.96635385 84.03580396 -97.9453125 76.3828125 C-98.54623718 76.18496658 -99.14716187 75.98712067 -99.76629639 75.78327942 C-100.56368225 75.51939926 -101.36106812 75.2555191 -102.18261719 74.98364258 C-102.96916687 74.72392166 -103.75571655 74.46420074 -104.56610107 74.1966095 C-108.17233475 72.96311587 -111.68675187 71.55601114 -115.1953125 70.0703125 C-115.8759375 69.80025391 -116.5565625 69.53019531 -117.2578125 69.25195312 C-123.06292603 66.78252983 -126.01547537 63.54072781 -129.3203125 58.1328125 C-130.4794593 53.0325666 -130.45127128 47.90875042 -127.71308899 43.31600952 C-122.77876801 37.4610837 -117.51217808 34.82307055 -110.48828125 31.984375 C-108.80793541 31.27448929 -108.80793541 31.27448929 -107.09364319 30.55026245 C-104.07270266 29.27842836 -101.04482896 28.02545689 -98.01234436 26.78146362 C-94.85562639 25.48209836 -91.70788778 24.16135624 -88.55957031 22.84179688 C-84.73056031 21.23797364 -80.90094172 19.635758 -77.06704712 18.04364014 C-69.10680543 14.73444052 -61.19829001 11.32247343 -53.32421875 7.8125 C-51.41201328 6.96629949 -49.49966417 6.12042347 -47.5871582 5.27490234 C-44.92123999 4.09597783 -42.25875405 2.9116654 -39.60531616 1.70489502 C-37.19060355 0.60858174 -34.76522167 -0.45988991 -32.3359375 -1.5234375 C-31.65692886 -1.84095978 -30.97792023 -2.15848206 -30.27833557 -2.48562622 C-19.63300805 -7.05456782 -10.13101198 -4.60274923 0 0 Z M-32.84375 8.78125 C-33.89620407 9.24335876 -34.94865814 9.70546753 -36.03300476 10.18157959 C-39.46832898 11.69332661 -42.89426512 13.22517209 -46.3203125 14.7578125 C-49.8907156 16.33815536 -53.46304299 17.91409127 -57.03547668 19.48983765 C-59.45357012 20.55692651 -61.87087452 21.62580514 -64.28739929 22.69644165 C-72.04028431 26.12605374 -79.82390579 29.47020665 -87.64453125 32.7421875 C-88.62073425 33.15228058 -89.59693726 33.56237366 -90.60272217 33.9848938 C-98.07812895 37.12481194 -98.07812895 37.12481194 -101.7177124 38.62420654 C-104.22730555 39.6590693 -106.72932082 40.71054995 -109.23046875 41.765625 C-109.96029465 42.06055847 -110.69012054 42.35549194 -111.44206238 42.65936279 C-115.7833674 44.51231795 -118.43590591 46.3548174 -120.9453125 50.3828125 C-121.43326974 53.45946987 -121.43326974 53.45946987 -119.9453125 56.3828125 C-114.4229722 60.9094251 -107.4723714 63.48995912 -100.9453125 66.1953125 C-99.97980469 66.60201172 -99.01429688 67.00871094 -98.01953125 67.42773438 C-95.66396518 68.41893792 -93.30596317 69.40379536 -90.9453125 70.3828125 C-90.93318222 71.58764534 -90.93318222 71.58764534 -90.92080688 72.81681824 C-90.84279809 80.39421739 -90.75548857 87.97142572 -90.65778542 95.54859447 C-90.60788437 99.44389995 -90.56155395 103.33917912 -90.5234375 107.23461914 C-90.48650623 110.99541637 -90.44012532 114.75599018 -90.38724899 118.51659584 C-90.36874662 119.94983302 -90.35362336 121.38311801 -90.34196854 122.81642723 C-90.32503556 124.82717702 -90.29486778 126.83780207 -90.26416016 128.84838867 C-90.25083649 129.99200363 -90.23751282 131.13561859 -90.2237854 132.31388855 C-89.94088276 135.43163068 -89.37212134 137.60646014 -87.9453125 140.3828125 C-83.58766735 143.93155346 -78.9681614 145.691912 -73.6953125 147.3828125 C-72.51775391 147.76518066 -72.51775391 147.76518066 -71.31640625 148.15527344 C-33.20104893 160.20689957 13.75884952 161.16196345 50.0546875 142.3828125 C52.77278326 140.25383192 53.41722704 138.72604084 54.0546875 135.3828125 C54.16942438 133.24449507 54.23096253 131.10311052 54.26000977 128.96191406 C54.27995499 127.66086731 54.29990021 126.35982056 54.32044983 125.01934814 C54.33743168 123.6040458 54.35431057 122.18874222 54.37109375 120.7734375 C54.39167505 119.32183251 54.41267183 117.87023336 54.43406677 116.41864014 C54.48916601 112.60468278 54.53862865 108.79067243 54.58691406 104.97662354 C54.63721799 101.08202416 54.69285757 97.18750141 54.74804688 93.29296875 C54.85547978 85.65631495 54.95695751 78.01959729 55.0546875 70.3828125 C55.79106445 70.06530029 56.52744141 69.74778809 57.28613281 69.4206543 C60.62805097 67.97602033 63.96637806 66.52326496 67.3046875 65.0703125 C68.46355469 64.57080078 69.62242187 64.07128906 70.81640625 63.55664062 C71.93144531 63.07001953 73.04648437 62.58339844 74.1953125 62.08203125 C75.22172852 61.63690186 76.24814453 61.19177246 77.30566406 60.7331543 C82.39882262 58.25341784 82.39882262 58.25341784 85.0546875 53.5078125 C85.30987994 50.37992333 85.30987994 50.37992333 83.71142578 47.99291992 C79.86039894 44.20948599 75.48569223 42.56021883 70.546875 40.49609375 C69.48894241 40.04083313 68.43100983 39.58557251 67.34101868 39.11651611 C63.87617806 37.62926857 60.40333444 36.16186038 56.9296875 34.6953125 C54.53639415 33.67485087 52.14357521 32.65327592 49.7512207 31.63061523 C46.10138067 30.07147412 42.45082034 28.5141653 38.79762268 26.96290588 C31.00080818 23.65170403 23.23210646 20.2826602 15.48046875 16.8671875 C12.63425832 15.6200709 9.78741592 14.37441177 6.94024658 13.12948608 C5.15320798 12.34515786 3.36813565 11.55633303 1.58514404 10.7628479 C-0.88415557 9.66554694 -3.36075631 8.58668391 -5.83984375 7.51171875 C-6.54904465 7.19100403 -7.25824554 6.87028931 -7.98893738 6.53985596 C-17.43584164 2.50012339 -23.86083874 4.71315263 -32.84375 8.78125 Z " fill="#005C92" transform="translate(273.9453125,59.6171875)"/>
<path d="M0 0 C5.54307943 1.84769314 10.65561499 3.60761744 15.94921875 5.92578125 C16.56916214 6.19585495 17.18910553 6.46592865 17.82783508 6.7441864 C19.78266238 7.59667152 21.73514212 8.45437683 23.6875 9.3125 C24.97314654 9.87471669 26.25895313 10.43656756 27.54492188 10.99804688 C28.17971466 11.27542694 28.81450745 11.55280701 29.46853638 11.83859253 C30.7440672 12.39529664 32.02000574 12.95106754 33.2963562 13.50588989 C36.49745902 14.89870639 39.68841308 16.30901768 42.86572266 17.75537109 C44.10447455 18.30960974 45.3432434 18.86381047 46.58203125 19.41796875 C47.67362549 19.91449951 48.76521973 20.41103027 49.88989258 20.92260742 C55.22524856 22.77086285 59.22989629 22.22900644 64.33105469 19.98046875 C65.34520447 19.54001221 66.35935425 19.09955566 67.40423584 18.64575195 C69.02171722 17.92391724 69.02171722 17.92391724 70.671875 17.1875 C71.79064026 16.69918701 72.90940552 16.21087402 74.06207275 15.70776367 C77.62932097 14.14877775 81.18985541 12.57513213 84.75 11 C88.32548101 9.42742161 91.90227792 7.85794168 95.48077393 6.29223633 C97.70637571 5.31748265 99.93002657 4.33826045 102.15155029 3.35424805 C103.15309143 2.9137915 104.15463257 2.47333496 105.18652344 2.01953125 C106.51173004 1.43328979 106.51173004 1.43328979 107.8637085 0.83520508 C110 0 110 0 112 0 C112 17.82 112 35.64 112 54 C94.60130224 59.79956592 94.60130224 59.79956592 86.25 61.25 C85.34660889 61.41274414 84.44321777 61.57548828 83.51245117 61.74316406 C77.35127606 62.82686331 71.26151582 63.80163242 65 64 C64.37125977 64.02046387 63.74251953 64.04092773 63.09472656 64.06201172 C41.36969975 64.66798872 20.40276351 61.65103631 0 54 C0 36.18 0 18.36 0 0 Z " fill="#005B92" transform="translate(200,137)"/>
<path d="M0 0 C1.20415558 0.51660187 2.40831116 1.03320374 3.6489563 1.56546021 C6.18635996 2.65422597 8.72273775 3.74533359 11.25830078 4.83837891 C14.47619065 6.22553335 17.69584536 7.6085291 20.91619682 8.98995781 C24.02811571 10.32512519 27.13906509 11.66254139 30.25 13 C31.95988602 13.73462967 31.95988602 13.73462967 33.70431519 14.48410034 C40.59305775 17.45374654 47.44163523 20.50014383 54.2578125 23.6328125 C54.2578125 24.2928125 54.2578125 24.9528125 54.2578125 25.6328125 C53.59177002 25.91794205 52.92572754 26.20307159 52.23950195 26.49684143 C45.88684076 29.21651874 39.53444446 31.93681394 33.18232727 34.65776157 C29.28002136 36.32929626 25.37749998 38.00032642 21.47479248 39.67092323 C19.58103709 40.48173638 17.68747254 41.29299378 15.79394531 42.1043396 C13.32262076 43.16325148 10.85053055 44.22034775 8.37792969 45.27627563 C3.26052106 47.46588563 -1.84936139 49.66286568 -6.9140625 51.97216797 C-7.65245361 52.30659409 -8.39084473 52.6410202 -9.15161133 52.98558044 C-10.99740902 53.82705766 -12.83696129 54.68220049 -14.67578125 55.53881836 C-19.93804881 57.41622449 -23.94453853 56.8744627 -28.98706055 54.6484375 C-29.98638107 54.21378174 -30.9857016 53.77912598 -32.01530457 53.33129883 C-33.08404312 52.85329834 -34.15278168 52.37529785 -35.25390625 51.8828125 C-36.37674515 51.39127686 -37.49958405 50.89974121 -38.65644836 50.39331055 C-42.25214412 48.81674332 -45.84100294 47.22526566 -49.4296875 45.6328125 C-52.96328642 44.07668339 -56.49823462 42.52364854 -60.03323364 40.97070312 C-62.33500511 39.95905466 -64.63618007 38.94604786 -66.93673706 37.93164062 C-76.49328633 33.72222162 -86.09928085 29.6399481 -95.7421875 25.6328125 C-95.7421875 24.9728125 -95.7421875 24.3128125 -95.7421875 23.6328125 C-80.1096812 16.58790644 -64.42153874 9.71613885 -48.5715332 3.17504883 C-43.17364932 0.94309912 -37.79512878 -1.2866332 -32.54296875 -3.84765625 C-31.45181763 -4.37105591 -31.45181763 -4.37105591 -30.33862305 -4.9050293 C-28.5574216 -5.77434384 -26.79316065 -6.67816152 -25.03125 -7.5859375 C-17.02860439 -9.48680344 -7.23001535 -3.12087314 0 0 Z " fill="#005B92" transform="translate(276.7421875,87.3671875)"/>
<path d="M0 0 C5.82485779 3.51996782 10.54466582 8.98962934 12.5625 15.5 C13.36764105 23.33608208 13.68710392 31.11922577 8.5625 37.5 C3.75801361 42.54521222 -0.59927055 46.10562995 -7.70703125 46.8359375 C-16.22326573 46.92983204 -22.11345494 46.6177288 -28.40234375 40.62890625 C-34.7841668 33.72505269 -35.91792252 28.29832071 -35.7421875 18.9453125 C-35.04689797 11.08319245 -31.38995981 6.95041296 -25.53515625 1.9453125 C-18.47077988 -2.92213491 -7.84396301 -3.47595223 0 0 Z " fill="#005C92" transform="translate(395.4375,297.5)"/>
<path d="M0 0 C5.82485779 3.51996782 10.54466582 8.98962934 12.5625 15.5 C13.36764105 23.33608208 13.68710392 31.11922577 8.5625 37.5 C3.75801361 42.54521222 -0.59927055 46.10562995 -7.70703125 46.8359375 C-16.22326573 46.92983204 -22.11345494 46.6177288 -28.40234375 40.62890625 C-34.7841668 33.72505269 -35.91792252 28.29832071 -35.7421875 18.9453125 C-35.04689797 11.08319245 -31.38995981 6.95041296 -25.53515625 1.9453125 C-18.47077988 -2.92213491 -7.84396301 -3.47595223 0 0 Z " fill="#005C92" transform="translate(139.4375,297.5)"/>
<path d="M0 0 C5.82485779 3.51996782 10.54466582 8.98962934 12.5625 15.5 C13.36764105 23.33608208 13.68710392 31.11922577 8.5625 37.5 C3.75801361 42.54521222 -0.59927055 46.10562995 -7.70703125 46.8359375 C-16.22326573 46.92983204 -22.11345494 46.6177288 -28.40234375 40.62890625 C-34.7841668 33.72505269 -35.91792252 28.29832071 -35.7421875 18.9453125 C-35.04689797 11.08319245 -31.38995981 6.95041296 -25.53515625 1.9453125 C-18.47077988 -2.92213491 -7.84396301 -3.47595223 0 0 Z " fill="#005C91" transform="translate(267.4375,265.5)"/>
</svg>
