<?xml version="1.0" encoding="UTF-8"?>
<svg version="1.1" xmlns="http://www.w3.org/2000/svg" width="512" height="512">
<path d="M0 0 C0.80156713 -0.00467997 1.60313427 -0.00935994 2.42899132 -0.01418173 C5.09427187 -0.0260742 7.75903274 -0.01669724 10.42431641 -0.00723267 C12.34352924 -0.01130093 14.26273973 -0.01664423 16.1819458 -0.02316284 C21.38024922 -0.03681194 26.57837354 -0.03154769 31.77667999 -0.02202559 C37.22352064 -0.01441655 42.67034623 -0.02147806 48.1171875 -0.02618408 C57.26321152 -0.031638 66.40916281 -0.02445954 75.55517578 -0.01016235 C86.12073534 0.00616343 96.68612121 0.00087467 107.25167656 -0.01564157 C116.33215761 -0.02926677 125.41258645 -0.03117103 134.49307442 -0.02332556 C139.91246512 -0.01865475 145.33177425 -0.01800796 150.75115967 -0.02793503 C155.84674945 -0.03661742 160.94211586 -0.03055942 166.03768158 -0.01325226 C167.90489074 -0.00929423 169.77211879 -0.01040972 171.63932037 -0.01704025 C174.19371778 -0.02527298 176.74740528 -0.01491366 179.30175781 0 C180.03562399 -0.00669217 180.76949017 -0.01338433 181.52559471 -0.02027929 C187.569697 0.04787946 193.09958664 1.29635846 197.89306641 5.21298218 C198.43189453 5.86653687 198.97072266 6.52009155 199.52587891 7.19345093 C200.08017578 7.83927124 200.63447266 8.48509155 201.20556641 9.15048218 C204.19640776 13.76607789 204.89988205 18.23163353 204.84619141 23.65438843 C204.83974609 24.80809937 204.83330078 25.9618103 204.82666016 27.15048218 C204.80990234 28.34028687 204.79314453 29.53009155 204.77587891 30.75595093 C204.76685547 31.96895874 204.75783203 33.18196655 204.74853516 34.43173218 C204.72504479 37.41500866 204.69219572 40.39787687 204.65087891 43.38095093 C206.36984375 43.31134155 206.36984375 43.31134155 208.12353516 43.24032593 C209.65345681 43.20278184 211.18340691 43.16638452 212.71337891 43.13095093 C213.46554687 43.0974353 214.21771484 43.06391968 214.99267578 43.02938843 C221.80145175 42.91148755 225.94562926 44.82193099 230.96337891 49.56845093 C233.22518251 53.3381236 233.93851189 57.07862908 234.65087891 61.38095093 C235.72337891 61.58720093 236.79587891 61.79345093 237.90087891 62.00595093 C241.56536855 63.34959713 242.85156979 64.15871449 244.85668945 67.42245483 C246.51902888 71.52183598 246.21742799 75.89572341 246.18212891 80.25595093 C246.18595581 81.29864136 246.18978271 82.34133179 246.19372559 83.4156189 C246.19644069 85.61435922 246.18910776 87.81313206 246.17236328 90.0118103 C246.15094895 93.36996739 246.17217969 96.72598508 246.19775391 100.08407593 C246.19511056 102.22470563 246.18998544 104.36533401 246.18212891 106.50595093 C246.19022583 107.50610229 246.19832275 108.50625366 246.20666504 109.53671265 C246.12727373 115.46290582 245.56020538 118.84539547 241.65087891 123.38095093 C238.00986464 126.28369502 233.22842452 125.7487578 228.77587891 125.75595093 C227.98568359 125.78044312 227.19548828 125.8049353 226.38134766 125.83016968 C221.00907828 125.85698633 217.84724053 125.03833032 213.65087891 121.38095093 C211.7902777 118.3838858 211.39568764 116.10154714 211.3762207 112.59994507 C211.36668869 111.65538956 211.35715668 110.71083405 211.34733582 109.73765564 C211.34870293 108.21723915 211.34870293 108.21723915 211.35009766 106.66610718 C211.34581253 105.61821518 211.3415274 104.57032318 211.33711243 103.49067688 C211.33137263 101.27580487 211.33086628 99.06091401 211.33520508 96.84603882 C211.33836388 93.45956218 211.31490485 90.07396013 211.28955078 86.68759155 C211.28727763 84.53459786 211.28657436 82.38160182 211.28759766 80.22860718 C211.27838791 79.21702042 211.26917816 78.20543365 211.25968933 77.16319275 C211.31766734 68.34186495 211.31766734 68.34186495 214.65087891 64.38095093 C216.69384766 63.01766968 216.69384766 63.01766968 218.83837891 62.06845093 C219.55380859 61.74231812 220.26923828 61.4161853 221.00634766 61.08016968 C221.54904297 60.84942749 222.09173828 60.6186853 222.65087891 60.38095093 C221.34192171 57.25897615 221.34192171 57.25897615 218.65087891 55.38095093 C216.27964645 55.15065137 213.90345948 54.96975151 211.52587891 54.81845093 C210.24455078 54.73466187 208.96322266 54.6508728 207.64306641 54.56454468 C206.16193359 54.47366577 206.16193359 54.47366577 204.65087891 54.38095093 C204.65364429 55.31670959 204.65640966 56.25246826 204.65925884 57.21658325 C204.7258794 79.9934224 204.7751666 102.77024889 204.80631542 125.54716492 C204.82177942 136.56194524 204.84286008 147.57666116 204.87719727 158.59140015 C204.90711384 168.19267126 204.92645731 177.79389574 204.93314439 187.39521217 C204.9370528 192.47828572 204.94622852 197.56122584 204.96806908 202.64425659 C204.98846984 207.43109574 204.99470542 212.21774682 204.99020195 217.00462532 C204.99102554 218.75896286 204.99696976 220.51330686 205.00849533 222.26760674 C205.02349586 224.66914216 205.01980534 227.06997425 205.01164246 229.4715271 C205.02038098 230.16026791 205.0291195 230.84900871 205.03812283 231.55862045 C204.98116709 237.78888918 203.18694812 242.87772703 199.96337891 248.13095093 C196.74617119 251.26120708 192.30042375 254.38095093 187.65087891 254.38095093 C187.65087891 263.62095093 187.65087891 272.86095093 187.65087891 282.38095093 C194.31210937 282.34614624 194.31210937 282.34614624 201.10791016 282.31063843 C204.64686724 282.29777822 208.18581773 282.286932 211.72478485 282.27745056 C215.46167177 282.2668854 219.19846811 282.25276473 222.93530273 282.23007202 C226.53386522 282.20835554 230.1323398 282.19638484 233.73096275 282.19119644 C235.10450309 282.18749852 236.47803856 282.18027748 237.85154152 282.16949081 C239.77394553 282.15499264 241.69643782 282.15413415 243.61889648 282.15390015 C245.26103874 282.14723831 245.26103874 282.14723831 246.93635559 282.14044189 C249.65087891 282.38095093 249.65087891 282.38095093 252.65087891 284.38095093 C252.96337891 287.88095093 252.96337891 287.88095093 252.65087891 291.38095093 C250.04840492 293.98342491 248.99076953 293.63221838 245.36595917 293.63542652 C244.2380737 293.64125871 243.11018823 293.64709091 241.94812441 293.65309983 C240.07374484 293.64743085 240.07374484 293.64743085 238.16149902 293.64164734 C236.18257133 293.64738566 236.18257133 293.64738566 234.16366529 293.65323991 C230.48930728 293.66357367 226.81504624 293.66132451 223.14068007 293.65705931 C219.18289226 293.65460181 215.2251284 293.66359401 211.26734924 293.6710968 C203.50914893 293.68387277 195.75098319 293.68563393 187.99277413 293.68329654 C181.68991657 293.68151658 175.38706955 293.68325608 169.08421326 293.68752098 C167.74082337 293.68841376 167.74082337 293.68841376 166.3702943 293.68932458 C164.55115783 293.69053628 162.73202136 293.69175041 160.91288489 293.69296696 C143.83765524 293.7038535 126.76244532 293.70167464 109.68721455 293.69558211 C94.04937374 293.690411 78.41159519 293.70167155 62.7737667 293.72068033 C46.7342918 293.74002859 30.6948464 293.7483201 14.65535975 293.74455708 C5.64338286 293.74264057 -3.36854102 293.74517625 -12.38050842 293.75927162 C-20.05169623 293.77114805 -27.7227984 293.77263252 -35.3939873 293.76048145 C-39.3111701 293.75456653 -43.22819596 293.75356483 -47.14536858 293.76548386 C-51.38361895 293.77823048 -55.6214911 293.76794065 -59.85974121 293.75517273 C-61.10932759 293.76254701 -62.35891397 293.7699213 -63.6463666 293.77751905 C-64.77425207 293.7703125 -65.90213754 293.76310596 -67.06420135 293.75568104 C-68.0435551 293.75573605 -69.02290885 293.75579107 -70.03193998 293.75584775 C-71.17894463 293.57027382 -71.17894463 293.57027382 -72.34912109 293.38095093 C-74.49674293 290.15951817 -74.91018909 289.12140423 -74.34912109 285.38095093 C-72.08597442 283.12384993 -70.70594239 282.42636123 -67.51434326 282.02018738 C-66.42180237 282.02684921 -65.32926147 282.03351105 -64.20361328 282.04037476 C-62.96262878 282.04060135 -61.72164429 282.04082794 -60.4430542 282.0410614 C-59.09403114 282.05638003 -57.74501179 282.072028 -56.39599609 282.08798218 C-55.01166239 282.09358018 -53.62732273 282.09784931 -52.24298096 282.10084534 C-48.60635862 282.11227821 -44.97009798 282.14173147 -41.33361816 282.17495728 C-37.62008557 282.20569206 -33.90649432 282.21935792 -30.19287109 282.23446655 C-22.91145653 282.2666031 -15.63033957 282.31778006 -8.34912109 282.38095093 C-8.67912109 281.72095093 -9.00912109 281.06095093 -9.34912109 280.38095093 C-9.50290962 278.42321023 -9.59883573 276.46077741 -9.66552734 274.49813843 C-9.70742187 273.33153687 -9.74931641 272.1649353 -9.79248047 270.96298218 C-9.83179688 269.73966187 -9.87111328 268.51634155 -9.91162109 267.25595093 C-9.95480469 266.02489624 -9.99798828 264.79384155 -10.04248047 263.52548218 C-10.14880814 260.4774224 -10.2508389 257.42927903 -10.34912109 254.38095093 C-10.8932666 254.12628052 -11.43741211 253.87161011 -11.99804688 253.60922241 C-12.71460449 253.26447876 -13.43116211 252.91973511 -14.16943359 252.56454468 C-14.8785791 252.22737427 -15.58772461 251.89020386 -16.31835938 251.54281616 C-21.04423383 248.83898874 -23.72617615 244.5045221 -25.34912109 239.38095093 C-25.53026922 236.80136447 -25.61091772 234.33345358 -25.58963013 231.75636292 C-25.59133898 230.9966336 -25.59304783 230.23690429 -25.59480846 229.45415288 C-25.59809804 226.91297279 -25.58710849 224.37205779 -25.57617188 221.8309021 C-25.57560765 220.00752773 -25.57592455 218.18415291 -25.57705688 216.36077881 C-25.57763094 211.41284579 -25.565868 206.46500964 -25.55190897 201.51709914 C-25.53941048 196.34544474 -25.53823181 191.17378815 -25.53585815 186.00212097 C-25.5296408 176.2097511 -25.5132265 166.41742586 -25.49315917 156.62507564 C-25.47080815 145.4764477 -25.45980874 134.32781764 -25.4497683 123.17917287 C-25.42886052 100.24640748 -25.39367954 77.3136817 -25.34912109 54.38095093 C-27.78834471 54.4679589 -30.22390523 54.57481095 -32.66162109 54.69345093 C-33.69706055 54.72728882 -33.69706055 54.72728882 -34.75341797 54.7618103 C-38.75737402 54.9676616 -38.75737402 54.9676616 -42.26708984 56.73641968 C-43.53506079 58.50998323 -43.53506079 58.50998323 -44.34912109 61.38095093 C-43.27662109 61.60782593 -42.20412109 61.83470093 -41.09912109 62.06845093 C-36.68798014 63.61235026 -35.66811658 64.36506814 -33.34912109 68.38095093 C-32.74700284 72.11840963 -32.7648461 75.81638221 -32.78271484 79.59579468 C-32.77341698 81.22854088 -32.77341698 81.22854088 -32.76393127 82.89427185 C-32.75683665 85.19312649 -32.7600008 87.49203255 -32.77270508 89.79086304 C-32.78656005 93.30297724 -32.7525041 96.81242146 -32.71435547 100.3243103 C-32.71340414 102.56063908 -32.71526382 104.79697118 -32.72021484 107.03329468 C-32.70695663 108.08033066 -32.69369843 109.12736664 -32.68003845 110.20613098 C-32.78358604 118.3395463 -32.78358604 118.3395463 -35.70092773 122.02767944 C-40.04671039 125.88948446 -44.17969818 125.59348861 -49.72412109 125.63095093 C-50.47951172 125.65157593 -51.23490234 125.67220093 -52.01318359 125.69345093 C-56.63019507 125.72573772 -59.62122686 125.39037827 -63.34912109 122.38095093 C-66.05272842 119.35962506 -66.72795354 117.45068003 -66.75317383 113.41635132 C-66.765858 112.4317543 -66.77854218 111.44715729 -66.79161072 110.432724 C-66.78867508 109.37536545 -66.78573944 108.3180069 -66.78271484 107.22860718 C-66.7879567 106.13632309 -66.79319855 105.044039 -66.79859924 103.9186554 C-66.80502011 101.60962778 -66.80368164 99.30056747 -66.79516602 96.99154663 C-66.78666082 93.45994753 -66.81541087 89.92996816 -66.84716797 86.39852905 C-66.84878019 84.15438891 -66.84820205 81.91024591 -66.84521484 79.66610718 C-66.85644882 78.61077286 -66.8676828 77.55543854 -66.8792572 76.46812439 C-66.83689816 72.00801078 -66.80639613 69.17588496 -64.55249023 65.25765991 C-61.68667367 62.81671455 -58.99528771 62.1522554 -55.34912109 61.38095093 C-55.32849609 60.22595093 -55.30787109 59.07095093 -55.28662109 57.88095093 C-54.61697419 52.42672543 -51.47298755 48.8391539 -47.34912109 45.38095093 C-42.87506566 42.88380371 -38.51389937 43.14747713 -33.53662109 43.25595093 C-32.35422852 43.26948608 -32.35422852 43.26948608 -31.14794922 43.28329468 C-29.21487443 43.30672589 -27.2819573 43.34259255 -25.34912109 43.38095093 C-25.37006836 42.57464233 -25.39101562 41.76833374 -25.41259766 40.93759155 C-25.49621282 37.25217365 -25.54792658 33.56695599 -25.59912109 29.88095093 C-25.64939453 27.97829468 -25.64939453 27.97829468 -25.70068359 26.03720093 C-25.79009552 17.45365606 -25.31441939 11.4563964 -19.09912109 5.06845093 C-12.8128816 1.21098578 -7.23130649 -0.06594267 0 0 Z M42.65087891 254.38095093 C42.32087891 263.62095093 41.99087891 272.86095093 41.65087891 282.38095093 C73.00087891 282.38095093 104.35087891 282.38095093 136.65087891 282.38095093 C136.65087891 273.14095093 136.65087891 263.90095093 136.65087891 254.38095093 C105.63087891 254.38095093 74.61087891 254.38095093 42.65087891 254.38095093 Z " fill="#020201" transform="translate(253.34912109375,170.61904907226563)"/>
<path d="M0 0 C1.12038292 -0.00297112 2.24076584 -0.00594224 3.39509976 -0.0090034 C7.13288383 -0.01764501 10.8706357 -0.01919474 14.60842896 -0.02069092 C17.2945114 -0.02532197 19.98059099 -0.03032675 22.66667175 -0.03573608 C29.94916418 -0.04926703 37.23165106 -0.05533434 44.51415396 -0.05974674 C49.06161331 -0.06251493 53.60907055 -0.06675301 58.15652847 -0.07125092 C70.75163324 -0.0834308 83.34673632 -0.09373648 95.94184685 -0.09712601 C96.74643395 -0.09734557 97.55102105 -0.09756514 98.37998957 -0.09779136 C99.18645109 -0.09800964 99.99291262 -0.09822791 100.82381237 -0.09845281 C102.45790982 -0.09889627 104.09200728 -0.09934283 105.72610474 -0.09979248 C106.94194682 -0.10012463 106.94194682 -0.10012463 108.18235137 -0.10046348 C121.34239257 -0.10441912 134.50237868 -0.12190211 147.66239856 -0.145152 C161.1787785 -0.16883888 174.69513072 -0.18132644 188.21153176 -0.18249393 C195.79877554 -0.18341155 203.38594727 -0.18918698 210.97317123 -0.20731354 C217.42655023 -0.22267774 223.87983483 -0.22785642 230.33322863 -0.21957543 C233.62682827 -0.21565739 236.92019689 -0.21827283 240.21378136 -0.23063278 C243.77916209 -0.24323299 247.3440475 -0.23754079 250.90942383 -0.22705078 C251.95677511 -0.23510719 253.00412639 -0.24316359 254.08321559 -0.25146413 C255.03460544 -0.24487428 255.98599529 -0.23828444 256.96621513 -0.2314949 C258.20115221 -0.23239054 258.20115221 -0.23239054 259.46103752 -0.23330426 C262.0920845 0.23213464 262.97647457 1.0320093 264.57376099 3.14044189 C266.41162641 14.6541282 263.09576195 26.15762631 256.57766724 35.60137939 C249.3684687 44.73584148 240.15044161 50.31282814 228.57376099 52.14044189 C225.70031208 52.23718183 222.85123996 52.28397703 219.97798157 52.28088379 C219.11364087 52.28385491 218.24930017 52.28682603 217.35876733 52.28988719 C214.46321828 52.29855708 211.56771066 52.30008099 208.67214966 52.30157471 C206.59574801 52.30620404 204.5193472 52.31122886 202.44294739 52.31661987 C196.80239066 52.32973364 191.16184583 52.3361867 185.52127624 52.34063053 C181.99694836 52.34356255 178.47262374 52.34766758 174.9482975 52.3521347 C163.92038462 52.36580616 152.89247917 52.37547487 141.8645584 52.3793366 C129.13617763 52.38381837 116.4079042 52.40137337 103.67955607 52.43033719 C93.83906973 52.45195216 83.99861359 52.46204076 74.15810376 52.46337771 C68.28146412 52.46442575 62.40492542 52.47033363 56.52831078 52.48819733 C51.00024068 52.504675 45.47234745 52.5068349 39.94426155 52.49805832 C37.91740317 52.49728782 35.89053529 52.50163233 33.86370087 52.51151657 C31.09242088 52.52423683 28.32176729 52.51835879 25.55049133 52.50793457 C24.75232362 52.51599097 23.95415592 52.52404738 23.13180131 52.53234792 C16.9914368 52.47849099 11.54774226 51.3209916 6.48001099 47.60528564 C2.57376099 43.36266412 2.57376099 43.36266412 2.57376099 41.14044189 C-33.26094954 43.8290484 -64.35305491 57.16676398 -88.25827026 84.50372314 C-108.49303466 109.11357173 -116.48504258 137.21962253 -116.69967651 168.68341064 C-116.70766203 169.78511817 -116.70766203 169.78511817 -116.71580887 170.90908241 C-116.74235456 174.78689141 -116.76179904 178.66467008 -116.77633667 182.5425415 C-116.78973096 185.73846705 -116.81770921 188.93376243 -116.85836792 192.12945557 C-116.9077186 196.01081158 -116.93245699 199.89159238 -116.93956375 203.77324867 C-116.94625925 205.24483877 -116.96143714 206.71641682 -116.98545456 208.18782616 C-117.01717012 210.2458737 -117.01713726 212.30169538 -117.00973511 214.35992432 C-117.01782196 215.5274675 -117.02590881 216.69501068 -117.03424072 217.89793396 C-116.24492774 222.10738531 -114.21294931 223.94138683 -111.42623901 227.14044189 C-109.98442078 230.49964905 -109.98442078 230.49964905 -108.86300659 234.11236572 C-108.65786092 234.76437108 -108.45271524 235.41637644 -108.24135303 236.08813953 C-106.1341173 242.87279423 -104.25876293 249.72341028 -102.43795776 256.58966064 C-102.08664098 257.90392416 -101.73505737 259.21811637 -101.38322449 260.53224182 C-100.65681205 263.24971979 -99.93372005 265.96805212 -99.21310425 268.68707275 C-98.29063325 272.16653253 -97.35933266 275.64356074 -96.42560101 279.12001324 C-95.70227307 281.81708102 -94.98365666 284.51538674 -94.26645851 287.21409035 C-93.75951525 289.11814122 -93.24851512 291.02111048 -92.73744202 292.92405701 C-92.28115166 294.65284843 -92.28115166 294.65284843 -91.81564331 296.41656494 C-91.54648605 297.42833298 -91.2773288 298.44010101 -91.00001526 299.48252869 C-90.42623901 302.14044189 -90.42623901 302.14044189 -90.42623901 306.14044189 C-89.5545105 306.13155945 -88.68278198 306.122677 -87.78463745 306.11352539 C-79.54614326 306.03318451 -71.30778175 305.9723787 -63.06898499 305.93319321 C-58.83389494 305.9123698 -54.59913017 305.8841491 -50.36422729 305.83868408 C-46.27284575 305.79503765 -42.18177594 305.77126537 -38.09017944 305.76093292 C-36.53373308 305.75357509 -34.97730267 305.73920714 -33.42098999 305.71752167 C-24.11211495 305.59303975 -16.91585841 305.61069701 -9.43795776 311.78106689 C-3.70143068 318.75289332 -2.10393292 324.72627815 -2.02780151 333.72247314 C-2.5127606 336.66550916 -3.053993 337.37317069 -5.42623901 339.14044189 C-8.06173706 339.48101807 -8.06173706 339.48101807 -11.18795776 339.43341064 C-12.30621948 339.42374268 -13.4244812 339.41407471 -14.57662964 339.40411377 C-15.74387573 339.37897705 -16.91112183 339.35384033 -18.11373901 339.32794189 C-19.29258667 339.31440674 -20.47143433 339.30087158 -21.68600464 339.28692627 C-24.59987312 339.25153515 -27.51282846 339.20215999 -30.42623901 339.14044189 C-30.42179779 340.07560638 -30.41735657 341.01077087 -30.41278076 341.97427368 C-30.37229227 350.77388965 -30.34228238 359.5734868 -30.32261467 368.37317467 C-30.31216351 372.89752449 -30.29798011 377.42179931 -30.27536011 381.94610596 C-30.25367908 386.30975713 -30.24168043 390.67333603 -30.23648453 395.0370369 C-30.23278022 396.70446537 -30.22554694 398.37188975 -30.2147789 400.03928757 C-30.20032682 402.36915484 -30.19825841 404.69872083 -30.19918823 407.02862549 C-30.1884024 408.06979774 -30.1884024 408.06979774 -30.17739868 409.13200378 C-30.19813469 413.91233757 -30.19813469 413.91233757 -32.42623901 416.14044189 C-35.00827026 416.39923096 -35.00827026 416.39923096 -38.23873901 416.40606689 C-39.39631714 416.40864502 -40.55389526 416.41122314 -41.74655151 416.41387939 C-42.96084839 416.40614502 -44.17514526 416.39841064 -45.42623901 416.39044189 C-47.24768433 416.40204346 -47.24768433 416.40204346 -49.10592651 416.41387939 C-50.8422937 416.41001221 -50.8422937 416.41001221 -52.61373901 416.40606689 C-54.21282104 416.40268311 -54.21282104 416.40268311 -55.84420776 416.39923096 C-58.42623901 416.14044189 -58.42623901 416.14044189 -60.42623901 414.14044189 C-60.61389674 411.73117955 -60.67824882 409.43795792 -60.65328979 407.02862549 C-60.65358185 406.29681564 -60.6538739 405.5650058 -60.6541748 404.8110199 C-60.65277903 402.38685335 -60.63720641 399.96299239 -60.62155151 397.53887939 C-60.61782226 395.86022103 -60.61497487 394.18156049 -60.61297607 392.50289917 C-60.6053327 388.08052582 -60.58567823 383.65828345 -60.56356812 379.23596191 C-60.5431248 374.72497327 -60.53397761 370.2139635 -60.52389526 365.70294189 C-60.50243295 356.84871762 -60.46828857 347.99459064 -60.42623901 339.14044189 C-61.0983139 339.14488312 -61.77038879 339.14932434 -62.46282959 339.15390015 C-69.4377531 339.19803824 -76.41263715 339.22826857 -83.38766479 339.25030518 C-85.99314993 339.26038254 -88.5986237 339.2740446 -91.20407104 339.2913208 C-94.942218 339.31549292 -98.68021586 339.32690749 -102.41842651 339.33575439 C-104.17471878 339.35123825 -104.17471878 339.35123825 -105.9664917 339.36703491 C-107.58794601 339.36726151 -107.58794601 339.36726151 -109.24215698 339.36749268 C-110.19701996 339.3719339 -111.15188293 339.37637512 -112.13568115 339.38095093 C-114.42623901 339.14044189 -114.42623901 339.14044189 -116.42623901 337.14044189 C-116.75623901 347.37044189 -117.08623901 357.60044189 -117.42623901 368.14044189 C-114.12623901 368.14044189 -110.82623901 368.14044189 -107.42623901 368.14044189 C-100.81198824 369.48631354 -96.2840219 372.62057799 -91.89889526 377.65216064 C-87.38034331 385.28695533 -86.95545632 392.79921702 -87.05123901 401.51544189 C-87.03963745 402.59438721 -87.02803589 403.67333252 -87.01608276 404.78497314 C-87.01994995 405.81751221 -87.02381714 406.85005127 -87.02780151 407.91387939 C-87.0328772 409.31259277 -87.0328772 409.31259277 -87.03805542 410.73956299 C-87.50581871 413.63263478 -88.16635045 414.3390247 -90.42623901 416.14044189 C-93.50361705 416.43170619 -96.3778008 416.53966334 -99.45578003 416.51275635 C-100.84150208 416.51823235 -100.84150208 416.51823235 -102.25521851 416.52381897 C-105.31371348 416.53193568 -108.37168057 416.51830596 -111.43014526 416.50372314 C-113.55098978 416.50320472 -115.67183479 416.50372174 -117.79267883 416.50523376 C-122.23888313 416.50514399 -126.68490627 416.4947037 -131.131073 416.47662354 C-136.84013495 416.45392248 -142.54893241 416.45339425 -148.25802708 416.46014118 C-152.6373786 416.46347678 -157.01666942 416.45685904 -161.39600945 416.44701195 C-163.50162374 416.44315362 -165.60724478 416.44201434 -167.71286201 416.44359779 C-170.65073728 416.44396718 -173.58826873 416.43138426 -176.52609253 416.4151001 C-177.402509 416.41757751 -178.27892548 416.42005493 -179.18190002 416.42260742 C-185.19749737 416.36918354 -185.19749737 416.36918354 -187.42623901 414.14044189 C-187.84956271 410.11566514 -187.79782825 406.08413838 -187.79684448 402.03887939 C-187.80117716 400.04392032 -187.83808335 398.04911805 -187.87545776 396.05450439 C-187.90140844 387.5080832 -187.29454019 381.93111172 -181.82077026 375.15216064 C-175.99649415 370.27702583 -170.3713602 368.06379303 -162.76364136 368.11260986 C-161.54588516 368.11863724 -161.54588516 368.11863724 -160.30352783 368.12478638 C-159.68402252 368.1299527 -159.06451721 368.13511902 -158.42623901 368.14044189 C-158.4280826 367.0429062 -158.42992619 365.9453705 -158.43182564 364.81457615 C-158.47631308 338.05390567 -158.50913238 311.29324002 -158.52986336 284.53254032 C-158.54015631 271.59103642 -158.55417863 258.64955702 -158.57711792 245.70806885 C-158.59711259 234.4224006 -158.60996983 223.1367501 -158.614416 211.85106462 C-158.61701312 205.88074478 -158.62307586 199.9104757 -158.63769913 193.9401722 C-158.65137923 188.30875751 -158.65544078 182.67741399 -158.65245438 177.04598427 C-158.65299991 174.99066022 -158.65691471 172.93533352 -158.66464996 170.88002396 C-158.72074242 155.19258141 -157.99033224 139.86987385 -154.17623901 124.57794189 C-153.96007935 123.69791504 -153.74391968 122.81788818 -153.52120972 121.91119385 C-146.89555227 95.85972291 -133.74827594 71.77444116 -115.42623901 52.14044189 C-114.90126831 51.57696045 -114.37629761 51.013479 -113.8354187 50.43292236 C-84.40661603 19.20400121 -43.10888817 -0.036126 0 0 Z " fill="#020203" transform="translate(193.42623901367188,47.85955810546875)"/>
<path d="M0 0 C3.18005891 1.59002946 6.18133064 3.26830141 9.21875 5.09765625 C13.43431356 7.233172 17.52443351 7.13388818 22.19580078 7.15390015 C22.92170756 7.1582824 23.64761435 7.16266465 24.3955183 7.1671797 C26.82878571 7.18053766 29.26201692 7.18673988 31.6953125 7.19287109 C33.43995832 7.20077463 35.18460251 7.20904374 36.929245 7.21765137 C42.6611475 7.24384944 48.39305721 7.25918005 54.125 7.2734375 C56.10094202 7.2787987 58.076884 7.28417622 60.05282593 7.28956985 C68.27617256 7.31119822 76.49951726 7.32993236 84.72288513 7.34119225 C96.4913133 7.35741404 108.2594104 7.39054937 120.02771378 7.44759309 C128.31071597 7.48636708 136.5936299 7.50583394 144.87672043 7.51111281 C149.81910765 7.51475697 154.76114159 7.52667795 159.70343018 7.55921555 C164.35912355 7.58942642 169.01425231 7.59556187 173.67002296 7.58383179 C175.37109298 7.58361212 177.07219018 7.59182826 178.77316856 7.60948563 C190.10006664 7.7205868 199.33157709 6.44561527 209 0 C209 20.46 209 40.92 209 62 C202.8125 61.7525 196.625 61.505 190.25 61.25 C178.10952581 60.90273911 178.10952581 60.90273911 166.97509766 64.91357422 C161.37515345 70.90958521 158.36177042 78.45556887 157.71484375 86.58203125 C157.74067045 88.94714497 157.74067045 88.94714497 159 90 C160.56448383 90.12263388 162.13432772 90.17779522 163.70336914 90.20532227 C165.20481224 90.2352401 165.20481224 90.2352401 166.73658752 90.26576233 C167.8251152 90.28247482 168.91364288 90.29918732 170.03515625 90.31640625 C171.6977372 90.3475779 171.6977372 90.3475779 173.39390564 90.37937927 C176.95003808 90.44499623 180.50624703 90.50381596 184.0625 90.5625 C186.46680493 90.60567368 188.87110199 90.64928758 191.27539062 90.69335938 C197.18351185 90.80068992 203.09170991 90.90243331 209 91 C209.05437607 92.58294782 209.09296271 94.16644256 209.125 95.75 C209.14820313 96.63171875 209.17140625 97.5134375 209.1953125 98.421875 C208.98135659 101.24609299 208.62378451 102.68586399 207 105 C202.83036746 108.1818882 199.14298174 108.42906103 194.07411194 108.38768005 C192.88574011 108.39575836 192.88574011 108.39575836 191.67336076 108.40399987 C189.02174668 108.41829414 186.37063078 108.41117218 183.71899414 108.40405273 C181.81668191 108.40975553 179.9143731 108.41671944 178.0120697 108.42485046 C172.84678913 108.44280688 167.6816782 108.44160881 162.51637578 108.43590808 C158.20463346 108.43281984 153.8929239 108.43890462 149.58118623 108.44494683 C139.40964662 108.45899859 129.23819099 108.45742532 119.06665039 108.44604492 C108.57208119 108.4345626 98.07776751 108.44863988 87.58323199 108.4754414 C78.5733272 108.49759014 69.56350267 108.50423764 60.5535726 108.49836498 C55.17217386 108.49499229 49.79093892 108.4974313 44.40956306 108.51461601 C39.34926381 108.53006986 34.28934342 108.52614683 29.22905922 108.50731087 C27.37229739 108.50362069 25.5155076 108.50674593 23.65877151 108.51719666 C21.12303375 108.5303791 18.58855529 108.51888413 16.0528717 108.50120544 C15.31891538 108.51081045 14.58495906 108.52041546 13.82876164 108.53031152 C8.7712484 108.45781241 5.90621689 107.16283716 2 104 C-0.04587237 101.07732518 -0.22854357 98.77048135 -0.125 95.25 C-0.09792969 94.05117188 -0.09792969 94.05117188 -0.0703125 92.828125 C-0.03550781 91.92320312 -0.03550781 91.92320312 0 91 C0.62196259 90.99191315 1.24392517 90.98382629 1.88473511 90.97549438 C8.34085016 90.88963493 14.79665154 90.79014024 21.25244141 90.68261719 C23.66384628 90.64426353 26.07530962 90.6094221 28.48681641 90.578125 C31.94715313 90.53261297 35.40708508 90.47459596 38.8671875 90.4140625 C39.95055389 90.40251129 41.03392029 90.39096008 42.15011597 90.37905884 C43.65144577 90.3492543 43.65144577 90.3492543 45.18310547 90.31884766 C46.06690887 90.30552399 46.95071228 90.29220032 47.86129761 90.2784729 C50.2132825 90.19330996 50.2132825 90.19330996 52 88 C51.92639494 82.01038803 48.6084252 77.56937182 45.5 72.6875 C44.98824219 71.86443359 44.47648437 71.04136719 43.94921875 70.19335938 C41.73519263 66.39795912 41.73519263 66.39795912 39 63 C36.11768818 62.83977631 33.2560208 62.7403842 30.37109375 62.68359375 C29.22259949 62.65561707 29.22259949 62.65561707 28.05090332 62.6270752 C25.17989068 62.55857255 22.30868067 62.49855496 19.4375 62.4375 C13.023125 62.293125 6.60875 62.14875 0 62 C0 41.54 0 21.08 0 0 Z " fill="#EA8500" transform="translate(238,307)"/>
<path d="M0 0 C33 0 66 0 100 0 C100 31.35 100 62.7 100 95 C77.23 95 54.46 95 31 95 C32.32 92.36 33.64 89.72 35 87 C36.00811234 86.9845388 36.00811234 86.9845388 37.03659058 86.96876526 C44.01163764 86.86084977 50.98655159 86.7462399 57.96142578 86.62768555 C60.56686629 86.58428863 63.17233611 86.54261714 65.77783203 86.50268555 C69.51604056 86.44509808 73.25410082 86.3813706 76.9921875 86.31640625 C78.74847977 86.29133751 78.74847977 86.29133751 80.54025269 86.26576233 C82.161707 86.2358445 82.161707 86.2358445 83.81591797 86.20532227 C84.77078094 86.18977798 85.72564392 86.1742337 86.70944214 86.15821838 C89.02952228 86.14545368 89.02952228 86.14545368 91 85 C91.04254356 83.00045254 91.04080783 80.99958364 91 79 C89.25781447 77.25781447 86.8474269 77.80023484 84.47387695 77.74365234 C83.29207352 77.71467865 82.11027008 77.68570496 80.89265442 77.65585327 C76.18181673 77.57149611 71.47101153 77.49850398 66.75965595 77.45155907 C63.18281653 77.41582314 59.60823154 77.36261456 56.0324707 77.26611328 C52.57512492 77.17308604 49.11977174 77.12460887 45.66124535 77.10716629 C43.70764002 77.08627814 41.75467465 77.02084295 39.80207825 76.9546814 C33.31265489 76.8076374 33.31265489 76.8076374 27.92196655 79.90533447 C26.3660446 82.21107577 25.17553687 84.48278677 24 87 C23.05944963 88.53189484 22.10350246 90.05456441 21.125 91.5625 C20.41525792 92.70746128 19.70635877 93.85294837 19 95 C12.93112167 94.69655608 9.22853166 92.103809 5 88 C-1.42701096 79.63706634 -0.64875008 69.9426554 -0.48828125 59.9609375 C-0.48091469 58.42229113 -0.47582314 56.88363216 -0.47302246 55.3449707 C-0.44698322 49.68812067 -0.37717692 44.03154022 -0.3125 38.375 C-0.1578125 19.379375 -0.1578125 19.379375 0 0 Z " fill="#E8E8FE" transform="translate(238,210)"/>
<path d="M0 0 C32.67 0 65.34 0 99 0 C99.103125 13.035 99.20625 26.07 99.3125 39.5 C99.35802002 43.60373047 99.40354004 47.70746094 99.45043945 51.93554688 C99.47302246 56.97753906 99.47302246 56.97753906 99.47721863 59.34387207 C99.48485674 60.98358967 99.50235961 62.62328057 99.52787781 64.26281738 C99.77475224 80.9711993 99.77475224 80.9711993 95.3634491 86.61193848 C94.68854179 87.29902893 94.68854179 87.29902893 94 88 C93.52375687 88.49318726 93.04751373 88.98637451 92.55683899 89.49450684 C87.56322597 94.10768275 82.3467269 95.25455073 75.71923828 95.22705078 C73.88801926 95.22682419 73.88801926 95.22682419 72.01980591 95.22659302 C70.06480667 95.21110916 70.06480667 95.21110916 68.0703125 95.1953125 C66.71125497 95.19157802 65.35219474 95.1887331 63.99313354 95.18673706 C60.43225551 95.17913483 56.87154303 95.1595161 53.31072998 95.1373291 C49.67071776 95.11679679 46.03067855 95.10771962 42.390625 95.09765625 C35.26034932 95.07626662 28.13018552 95.04217234 21 95 C22.12451727 92.0280615 23.22293791 89.66559313 25 87 C27.3664856 86.60127258 27.3664856 86.60127258 30.36767578 86.56762695 C31.48868683 86.54783279 32.60969788 86.52803864 33.76467896 86.50764465 C34.97928802 86.50125473 36.19389709 86.49486481 37.4453125 86.48828125 C38.68546112 86.47033005 39.92560974 86.45237885 41.20333862 86.43388367 C44.50116068 86.38880026 47.79878507 86.35655106 51.09680176 86.33044434 C54.46180805 86.30067269 57.82657733 86.25413089 61.19140625 86.20898438 C67.79416179 86.12381922 74.39693264 86.05556371 81 86 C81.04241723 83.66705225 81.04092937 81.33297433 81 79 C79.25781447 77.25781447 76.8474269 77.80023484 74.47387695 77.74365234 C73.29207352 77.71467865 72.11027008 77.68570496 70.89265442 77.65585327 C66.18181673 77.57149611 61.47101153 77.49850398 56.75965595 77.45155907 C53.18281653 77.41582314 49.60823154 77.36261456 46.0324707 77.26611328 C42.57512492 77.17308604 39.11977174 77.12460887 35.66124535 77.10716629 C33.70764002 77.08627814 31.75467465 77.02084295 29.80207825 76.9546814 C23.30775193 76.81348941 23.30775193 76.81348941 17.90219116 79.90533447 C16.32732933 82.21688051 15.13359208 84.44651869 14 87 C12.52262669 90.08417893 11.14866723 92.2517047 9 95 C6.03 95 3.06 95 0 95 C0 63.65 0 32.3 0 0 Z " fill="#FEFEFE" transform="translate(348,210)"/>
<path d="M0 0 C0 6.6 0 13.2 0 20 C-4.640625 20.3403125 -4.640625 20.3403125 -9.375 20.6875 C-43.1171263 23.69573286 -73.60844099 40.79781341 -95.7421875 66.21875 C-119.25840566 95.18682496 -127.28150387 127.73923761 -127.31884766 164.34741211 C-127.32816463 166.45797604 -127.33833587 168.56853634 -127.34928894 170.67909241 C-127.37640371 176.3639656 -127.39168294 182.04881428 -127.40471697 187.73373485 C-127.42042923 193.6914605 -127.44719332 199.64913668 -127.4727478 205.60682678 C-127.51939303 216.8685861 -127.55620583 228.13035488 -127.58942068 239.39216095 C-127.62774322 252.22179969 -127.67712662 265.05138855 -127.72740483 277.88098514 C-127.83051248 304.25395374 -127.91944895 330.62695368 -128 357 C-134.27 357 -140.54 357 -147 357 C-147.06955755 328.2007577 -147.12304048 299.40153576 -147.15543652 270.60222626 C-147.15851588 267.93582656 -147.16161984 265.26942692 -147.16479492 262.60302734 C-147.16558185 261.94031722 -147.16636878 261.27760709 -147.16717956 260.59481484 C-147.17939141 250.55748961 -147.20050319 240.52020897 -147.22631836 230.48291016 C-147.25629529 218.82186136 -147.27559267 207.16085117 -147.28226548 195.49976492 C-147.2861637 189.32991855 -147.29527414 183.16018257 -147.31719017 176.9903717 C-147.33768647 171.17262198 -147.34380741 165.3550272 -147.33932304 159.5372448 C-147.3401424 157.4121561 -147.34602913 155.28706174 -147.35761642 153.16200447 C-147.4203886 141.046554 -146.80903587 129.81718723 -144 118 C-143.8458064 117.34396632 -143.6916128 116.68793264 -143.53274667 116.01201916 C-137.11294865 88.8636031 -123.70675428 65.36287596 -104.37695312 45.42822266 C-103.15503033 44.16080274 -101.95836774 42.86913701 -100.765625 41.57421875 C-79.93435535 19.52909692 -45.89387451 1.99189625 -15.421875 0.046875 C-10.27805179 -0.05268287 -5.1449438 -0.05473344 0 0 Z " fill="#7885BD" transform="translate(193,59)"/>
<path d="M0 0 C0 20.46 0 40.92 0 62 C-6.1875 61.7525 -12.375 61.505 -18.75 61.25 C-30.89047419 60.90273911 -30.89047419 60.90273911 -42.02490234 64.91357422 C-47.62484655 70.90958521 -50.63822958 78.45556887 -51.28515625 86.58203125 C-51.25932955 88.94714497 -51.25932955 88.94714497 -50 90 C-48.43551617 90.12263388 -46.86567228 90.17779522 -45.29663086 90.20532227 C-43.79518776 90.2352401 -43.79518776 90.2352401 -42.26341248 90.26576233 C-41.1748848 90.28247482 -40.08635712 90.29918732 -38.96484375 90.31640625 C-37.3022628 90.3475779 -37.3022628 90.3475779 -35.60609436 90.37937927 C-32.04996192 90.44499623 -28.49375297 90.50381596 -24.9375 90.5625 C-22.53319507 90.60567368 -20.12889801 90.64928758 -17.72460938 90.69335938 C-11.81648815 90.80068992 -5.90829009 90.90243331 0 91 C0.05437607 92.58294782 0.09296271 94.16644256 0.125 95.75 C0.14820313 96.63171875 0.17140625 97.5134375 0.1953125 98.421875 C-0.01362886 101.17990095 -0.48936661 102.69903523 -2 105 C-5.06996849 107.04664566 -5.66528563 107.24926417 -9.1191864 107.24050903 C-9.95631165 107.24325836 -10.79343689 107.24600769 -11.65592957 107.24884033 C-13.02833549 107.2380545 -13.02833549 107.2380545 -14.4284668 107.22705078 C-15.39450836 107.22734283 -16.36054993 107.22763489 -17.35586548 107.22793579 C-20.5537408 107.22654079 -23.75138406 107.21097143 -26.94921875 107.1953125 C-29.16453423 107.19158298 -31.37985135 107.18873572 -33.59516907 107.18673706 C-39.4297032 107.17909581 -45.26413797 107.15944304 -51.09863281 107.1373291 C-57.05076758 107.11688129 -63.00291837 107.10773762 -68.95507812 107.09765625 C-80.63676244 107.07619767 -92.31837296 107.04205575 -104 107 C-104 102.05 -104 97.1 -104 92 C-102.01355469 91.93941406 -100.02710938 91.87882812 -97.98046875 91.81640625 C-96.05427008 91.75382218 -94.1280723 91.69120635 -92.2019043 91.62768555 C-90.20696681 91.56312994 -88.21188071 91.5032217 -86.21679688 91.44335938 C-84.96318359 91.40146484 -83.70957031 91.35957031 -82.41796875 91.31640625 C-81.26063232 91.27974854 -80.1032959 91.24309082 -78.91088867 91.20532227 C-75.9356554 91.11671491 -75.9356554 91.11671491 -73 90 C-72.83318891 87.08347826 -72.83318891 87.08347826 -73 84 C-75.79177569 81.20822431 -77.63183572 81.68786516 -81.5390625 81.5859375 C-83.49199219 81.52792969 -83.49199219 81.52792969 -85.484375 81.46875 C-86.86457862 81.43729237 -88.24478704 81.40604509 -89.625 81.375 C-91.01304541 81.33682066 -92.40106711 81.29776895 -93.7890625 81.2578125 C-97.19257185 81.16327057 -100.59607165 81.07772103 -104 81 C-104 78.03 -104 75.06 -104 72 C-102.85934082 71.98018066 -101.71868164 71.96036133 -100.54345703 71.93994141 C-96.32024677 71.86399433 -92.09738601 71.77526072 -87.87451172 71.68261719 C-86.04515471 71.64428223 -84.21572115 71.60943737 -82.38623047 71.578125 C-79.75981241 71.53257195 -77.13392341 71.47456269 -74.5078125 71.4140625 C-73.68693146 71.40251129 -72.86605042 71.39096008 -72.02029419 71.37905884 C-67.5375356 71.4427456 -67.5375356 71.4427456 -64 69 C-63.58333333 66.5 -63.58333333 66.5 -64 64 C-67.80598601 61.46267599 -70.96815793 61.64999766 -75.38671875 61.5859375 C-76.11105103 61.56829346 -76.8353833 61.55064941 -77.58166504 61.5324707 C-80.2833856 61.46947905 -82.98547579 61.42324023 -85.6875 61.375 C-94.7521875 61.189375 -94.7521875 61.189375 -104 61 C-104 43.84 -104 26.68 -104 9 C-95.00492187 8.96132813 -95.00492187 8.96132813 -85.828125 8.921875 C-82.00907297 8.89668236 -78.19009825 8.87033084 -74.37109375 8.83984375 C-68.32112423 8.79165603 -62.27133386 8.74755622 -56.22119141 8.72900391 C-51.33856595 8.71376166 -46.45641197 8.67918318 -41.5739975 8.63169098 C-39.7195116 8.6169548 -37.86495837 8.60896349 -36.01041412 8.60811615 C-23.43376304 8.59660015 -10.20750631 0 0 0 Z " fill="#F79A00" transform="translate(447,307)"/>
<path d="M0 0 C80.52 0 161.04 0 244 0 C244 9.56587572 241.58068675 16.23602531 235 23.2421875 C227.7718574 29.59504721 220.85368956 31.14815707 211.47305298 31.15390015 C210.60407202 31.1582824 209.73509106 31.16266465 208.83977735 31.1671797 C205.92264233 31.1805539 203.00553751 31.1867434 200.08837891 31.19287109 C197.99902714 31.20077294 195.90967673 31.20904194 193.82032776 31.21765137 C186.95575257 31.24385475 180.09117132 31.25917407 173.2265625 31.2734375 C170.86415986 31.27879725 168.50175726 31.28417476 166.13935471 31.28956985 C156.31527294 31.31119317 146.49119281 31.3299315 136.66709328 31.34119225 C122.58147085 31.35744375 108.49612371 31.39065717 94.41060507 31.44759309 C84.50902633 31.48625537 74.60752134 31.50582035 64.70586908 31.51111281 C58.79007123 31.51477039 52.87456712 31.5268358 46.95885086 31.55921555 C41.3954243 31.58923176 35.83247023 31.59563088 30.26898003 31.58383179 C28.22675632 31.58361054 26.18451109 31.591958 24.14236259 31.60948563 C21.35464146 31.63211115 18.56864343 31.62391323 15.78091431 31.60800171 C14.97234785 31.6218838 14.16378139 31.63576588 13.33071291 31.65006864 C9.28579062 31.5931612 6.73781407 31.19882467 3.51369286 28.64949989 C-4.05499812 20.67189599 0 12.485032 0 0 Z " fill="#5C679D" transform="translate(203,58)"/>
<path d="M0 0 C1.20524289 -0.00679667 1.20524289 -0.00679667 2.43483412 -0.01373065 C5.13635235 -0.02642523 7.83767028 -0.02475103 10.53921509 -0.02310181 C12.47240967 -0.0290839 14.40560187 -0.03588871 16.33879089 -0.04345703 C21.59705845 -0.06115671 26.85526096 -0.06581408 32.11355543 -0.0670886 C36.49984605 -0.06898546 40.88612145 -0.07634053 45.27240622 -0.08343279 C55.61932559 -0.09972944 65.96621014 -0.10460058 76.31314087 -0.10317993 C86.99399241 -0.10197816 97.67464198 -0.12308412 108.3554424 -0.15466726 C117.51899683 -0.18080041 126.68248519 -0.19154847 135.84607661 -0.19026911 C141.32193954 -0.18975861 146.79762306 -0.19549067 152.27344894 -0.21662521 C157.42316491 -0.23595771 162.57252941 -0.23616626 167.72225761 -0.22159195 C169.61330744 -0.21949654 171.50437897 -0.22424811 173.39539146 -0.23631287 C175.97535455 -0.25170816 178.55409713 -0.24249566 181.1340332 -0.22705078 C181.88393945 -0.23733791 182.6338457 -0.24762503 183.40647638 -0.25822389 C188.27780122 -0.19369522 190.77851972 0.79331051 194.19400024 4.26742554 C196.28631422 8.45205349 195.19400024 13.58886925 195.19400024 18.26742554 C126.22400024 18.26742554 57.25400024 18.26742554 -13.80599976 18.26742554 C-13.80599976 5.71186998 -13.80599976 5.71186998 -10.80599976 2.26742554 C-7.10291049 -0.20130064 -4.28433148 -0.01759016 0 0 Z " fill="#ED8600" transform="translate(251.80599975585938,181.73257446289063)"/>
<path d="M0 0 C1.22154282 -0.01591187 2.44308563 -0.03182373 3.7016449 -0.04821777 C5.01319046 -0.04841919 6.32473602 -0.04862061 7.67602539 -0.04882812 C9.0445639 -0.0559352 10.41309946 -0.063635 11.78163147 -0.07189941 C14.64552093 -0.08532262 17.50913482 -0.0869228 20.37304688 -0.08105469 C24.03291425 -0.07515905 27.69145481 -0.10575161 31.35106564 -0.14617157 C34.17622429 -0.17209227 37.00106521 -0.17492218 39.82632637 -0.17127991 C41.82821567 -0.17378396 43.83003786 -0.19844895 45.83177185 -0.22351074 C55.95592478 -0.14658588 55.95592478 -0.14658588 59.58447266 2.64453125 C66.06126527 10.62763636 63.83618164 16.01603324 63.83618164 27.41992188 C37.76618164 27.41992188 11.69618164 27.41992188 -15.16381836 27.41992188 C-15.16381836 9.41992188 -15.16381836 9.41992188 -11.16381836 3.41992188 C-7.44692689 0.51408055 -4.66442113 0.03662544 0 0 Z " fill="#5C679D" transform="translate(31.163818359375,426.580078125)"/>
<path d="M0 0 C12.69124792 -0.09034648 25.38228247 -0.16374241 38.07377911 -0.20724869 C43.9668694 -0.22812885 49.85972838 -0.25645484 55.75268555 -0.30175781 C61.43907255 -0.34519948 67.12523698 -0.36913388 72.81177711 -0.37950897 C74.98193682 -0.3869033 77.15208425 -0.40134257 79.32214928 -0.42292023 C82.360461 -0.45193131 85.39785149 -0.45595689 88.4362793 -0.45410156 C89.33467529 -0.46848267 90.23307129 -0.48286377 91.15869141 -0.49768066 C95.30930605 -0.4702316 97.4428742 -0.34937121 101.03523254 1.90338135 C106.0277126 7.2308957 104 8.35429707 104 18 C69.68 18 35.36 18 0 18 C0 12.06 0 6.12 0 0 Z " fill="#F89B00" transform="translate(343,182)"/>
<path d="M0 0 C2.32652939 2.32652939 2.55308321 3.5465074 3.296875 6.70703125 C3.53027588 7.67552002 3.76367676 8.64400879 4.00415039 9.6418457 C4.25028076 10.68816162 4.49641113 11.73447754 4.75 12.8125 C6.9088744 21.72993767 9.23645454 30.56556512 11.81054688 39.37158203 C13.8145954 46.25488064 15.64192352 53.17562836 17.35180664 60.13793945 C18.37983081 64.48578374 18.37983081 64.48578374 21 68 C24.15642456 68.30542279 24.15642456 68.30542279 27.92480469 68.25537109 C28.63722321 68.25899155 29.34964172 68.262612 30.08364868 68.26634216 C31.63327502 68.27324369 33.18292571 68.27574019 34.73256683 68.27439499 C37.18770312 68.27343129 39.64239968 68.28635439 42.09747314 68.30337524 C49.07861883 68.34968627 56.05972171 68.37424188 63.04101562 68.38085938 C67.30992883 68.38588198 71.57838635 68.41017414 75.84714508 68.44618607 C77.47215282 68.45597131 79.09722337 68.45832295 80.72225189 68.45301437 C83.00119951 68.44592161 85.27879702 68.46327079 87.55761719 68.48583984 C88.85286316 68.48868988 90.14810913 68.49153992 91.48260498 68.49447632 C96.41110556 69.20280556 99.45670625 71.40526312 102.875 74.9375 C104 77 104 77 104 82 C72.65 82 41.3 82 9 82 C7.68 76.39 6.36 70.78 5 65 C4.09894531 62.36128906 3.19789062 59.72257812 2.26953125 57.00390625 C-1.28911503 45.92177246 -0.53992497 34.4400541 -0.3125 22.9375 C-0.28735482 20.70249925 -0.26455278 18.46747086 -0.24414062 16.23242188 C-0.18971161 10.82099928 -0.10659133 5.41063375 0 0 Z " fill="#CE8E4E" transform="translate(76,295)"/>
<path d="M0 0 C80.52 0 161.04 0 244 0 C244 0.33 244 0.66 244 1 C165.79 1 87.58 1 7 1 C8.13400231 14.03154199 8.13400231 14.03154199 15 22.8125 C19.5171298 25.49454582 24.34263744 25.13873732 29.45343018 25.12025452 C30.74487572 25.12153615 30.74487572 25.12153615 32.06241107 25.12284368 C34.95211021 25.12449297 37.84175151 25.11898609 40.73144531 25.11352539 C42.80097451 25.11324337 44.87050382 25.11340154 46.94003296 25.1139679 C52.56359242 25.11425531 58.18713064 25.10836764 63.81068516 25.10139394 C69.68569901 25.09515105 75.56071332 25.09455586 81.43572998 25.09336853 C92.5632984 25.09025798 103.69085702 25.0820483 114.81842113 25.07201904 C127.48574436 25.06084935 140.15306806 25.05534529 152.82039499 25.05032361 C178.88026877 25.03986547 204.94013383 25.02227135 231 25 C226.9228676 29.46965867 221.61890332 31.08669811 215.7058773 31.38311005 C214.13470527 31.40197732 212.5632855 31.40485559 210.99203491 31.39440918 C210.11963626 31.40050028 209.2472376 31.40659139 208.34840262 31.41286707 C205.44355947 31.42943248 202.53915775 31.42473058 199.63427734 31.41992188 C197.54433235 31.42726572 195.45439141 31.43585287 193.36445618 31.44558716 C187.70144848 31.46777272 182.0385864 31.4707355 176.37554121 31.46883965 C171.64611256 31.46871987 166.91671468 31.47728659 162.1872946 31.48561716 C151.03239421 31.50483865 139.87756866 31.50773878 128.72265625 31.50097656 C117.21404612 31.49432855 105.7057559 31.51723378 94.19721067 31.55429029 C84.31251755 31.58496347 74.42792751 31.59635014 64.54318774 31.59245348 C58.64089032 31.59038443 52.73884216 31.59589042 46.83658981 31.62034607 C41.28948881 31.64257255 35.74290967 31.64076926 30.1958065 31.62041855 C28.16004343 31.61700185 26.12424547 31.62212587 24.08852959 31.63640213 C21.30974091 31.65454568 18.53273216 31.64188245 15.7539978 31.62145996 C14.54524083 31.64023673 14.54524083 31.64023673 13.31206453 31.65939283 C9.27484676 31.59575832 6.73283316 31.19280991 3.51537514 28.64865875 C-4.05714082 20.67489358 0 12.48178541 0 0 Z " fill="#505B8D" transform="translate(203,58)"/>
<path d="M0 0 C33 0 66 0 100 0 C100 31.35 100 62.7 100 95 C99.67 95 99.34 95 99 95 C99 63.98 99 32.96 99 1 C68.97 1 38.94 1 8 1 C8 30.37 8 59.74 8 90 C2.2839665 84.2839665 -0.32261774 80.33150525 -0.37328625 72.18318272 C-0.36249192 71.47763721 -0.3516976 70.77209169 -0.34057617 70.04516602 C-0.34093778 69.27117179 -0.34129938 68.49717756 -0.34167194 67.69972897 C-0.33944944 65.21751626 -0.31668168 62.73599656 -0.29296875 60.25390625 C-0.28855271 58.7122022 -0.28549537 57.17049364 -0.28381348 55.62878418 C-0.26814488 49.93995377 -0.226261 44.25121993 -0.1875 38.5625 C-0.125625 25.836875 -0.06375 13.11125 0 0 Z " fill="#C6C6E1" transform="translate(238,210)"/>
<path d="M0 0 C9.9 0 19.8 0 30 0 C30.0825 4.0425 30.165 8.085 30.25 12.25 C30.28641602 13.51875977 30.32283203 14.78751953 30.36035156 16.09472656 C30.37533691 17.60244629 30.37533691 17.60244629 30.390625 19.140625 C30.41157227 20.16704102 30.43251953 21.19345703 30.45410156 22.25097656 C29.87055708 25.78361684 28.88598365 26.92091943 26 29 C23.48217773 29.48583984 23.48217773 29.48583984 20.68359375 29.4609375 C19.67232422 29.45707031 18.66105469 29.45320313 17.61914062 29.44921875 C16.56919922 29.42472656 15.51925781 29.40023438 14.4375 29.375 C13.38369141 29.37371094 12.32988281 29.37242187 11.24414062 29.37109375 C3.42185978 29.28123985 3.42185978 29.28123985 0 27 C-0.34057617 24.29443359 -0.34057617 24.29443359 -0.29296875 20.8984375 C-0.28547607 19.80708496 -0.2779834 18.71573242 -0.27026367 17.59130859 C-0.24295166 16.19992676 -0.21563965 14.80854492 -0.1875 13.375 C-0.125625 8.96125 -0.06375 4.5475 0 0 Z " fill="#313D65" transform="translate(401,425)"/>
<path d="M0 0 C9.9 0 19.8 0 30 0 C30.061875 4.228125 30.12375 8.45625 30.1875 12.8125 C30.21481201 14.1425708 30.24212402 15.4726416 30.27026367 16.84301758 C30.27775635 17.89126709 30.28524902 18.9395166 30.29296875 20.01953125 C30.3086792 21.09307861 30.32438965 22.16662598 30.34057617 23.27270508 C30 26 30 26 28.8215332 27.84887695 C26.32074216 29.42925891 24.51098099 29.38815893 21.5625 29.3984375 C20.50289063 29.40230469 19.44328125 29.40617187 18.3515625 29.41015625 C17.24554688 29.39855469 16.13953125 29.38695312 15 29.375 C13.89398438 29.38660156 12.78796875 29.39820313 11.6484375 29.41015625 C10.58882813 29.40628906 9.52921875 29.40242188 8.4375 29.3984375 C7.46683594 29.39505371 6.49617188 29.39166992 5.49609375 29.38818359 C3 29 3 29 1.1784668 27.84887695 C-0.51720662 25.18856314 -0.33886513 23.15578411 -0.29296875 20.01953125 C-0.28547607 18.97128174 -0.2779834 17.92303223 -0.27026367 16.84301758 C-0.24295166 15.51294678 -0.21563965 14.18287598 -0.1875 12.8125 C-0.125625 8.584375 -0.06375 4.35625 0 0 Z " fill="#313D65" transform="translate(255,425)"/>
<path d="M0 0 C1.07853745 0.00607269 1.07853745 0.00607269 2.17886353 0.01226807 C2.9367215 0.00876343 3.69457947 0.00525879 4.47540283 0.00164795 C6.98732591 -0.00717417 9.49896869 -0.00131861 12.01089478 0.00543213 C13.75202488 0.00408561 15.49315463 0.0021452 17.23428345 -0.00036621 C20.88609389 -0.00331812 24.53780661 0.0009823 28.18960571 0.01031494 C32.87746459 0.02170954 37.56509448 0.01515042 42.25294495 0.00317001 C45.84908788 -0.00404679 49.44517625 -0.00176149 53.0413208 0.0034256 C54.77014187 0.00476259 56.49896786 0.00311264 58.2277832 -0.00153351 C60.64129818 -0.00659584 63.05443901 0.00110714 65.46792603 0.01226807 C66.18695099 0.0082196 66.90597595 0.00417114 67.64678955 0 C72.59486581 0.04252817 72.59486581 0.04252817 74.82339478 2.27105713 C75.17018926 4.9760541 75.26676504 6.5897234 73.75820923 8.90794373 C70.86135685 10.94883106 67.96911641 10.68092467 64.55386353 10.64337158 C63.44852768 10.64884758 63.44852768 10.64884758 62.32086182 10.6544342 C59.88397202 10.66254313 57.44774647 10.64892724 55.01089478 10.63433838 C53.31843059 10.63381981 51.62596579 10.63433738 49.9335022 10.635849 C46.3859661 10.63575926 42.83865718 10.62532663 39.29116821 10.60723877 C34.74130212 10.5845515 30.19176805 10.58400731 25.64186096 10.59075642 C22.14689172 10.59409611 18.65199832 10.5874663 15.15704346 10.57762718 C13.47929277 10.5737749 11.80153365 10.57262708 10.1237793 10.57421303 C7.77999768 10.57458343 5.4366435 10.56197091 3.09292603 10.54571533 C2.05019028 10.54943146 2.05019028 10.54943146 0.98638916 10.55322266 C-2.63120887 10.51312971 -4.07440828 10.33918842 -7.17660522 8.27105713 C-7.48910522 5.27105713 -7.48910522 5.27105713 -7.17660522 2.27105713 C-4.71954662 -0.18600147 -3.35359113 0.02882374 0 0 Z " fill="#070400" transform="translate(309.1766052246094,368.72894287109375)"/>
<path d="M0 0 C32.67 0 65.34 0 99 0 C99.103125 13.035 99.20625 26.07 99.3125 39.5 C99.35802002 43.60373047 99.40354004 47.70746094 99.45043945 51.93554688 C99.47302246 56.97753906 99.47302246 56.97753906 99.47721863 59.34387207 C99.48485674 60.98358967 99.50235961 62.62328057 99.52787781 64.26281738 C99.78269865 81.50900977 99.78269865 81.50900977 94 88 C93.01 88.66 92.02 89.32 91 90 C91 60.63 91 31.26 91 1 C60.97 1 30.94 1 0 1 C0 0.67 0 0.34 0 0 Z " fill="#E5E5F7" transform="translate(348,210)"/>
<path d="M0 0 C3.3 0 6.6 0 10 0 C10 22.44 10 44.88 10 68 C6.7 68 3.4 68 0 68 C0 45.56 0 23.12 0 0 Z " fill="#C88A4B" transform="translate(143,386)"/>
<path d="M0 0 C1.17139023 -0.00953201 2.34278046 -0.01906403 3.54966736 -0.02888489 C4.8204866 -0.02797348 6.09130585 -0.02706207 7.40063477 -0.02612305 C8.7002565 -0.03040817 9.99987823 -0.0346933 11.33888245 -0.03910828 C14.09201124 -0.04657532 16.84501182 -0.04627592 19.59814453 -0.04101562 C23.12691263 -0.03522209 26.65515566 -0.05214604 30.18383694 -0.0753603 C33.54779184 -0.09363334 36.91163044 -0.08991245 40.27563477 -0.08862305 C42.17882729 -0.10243767 42.17882729 -0.10243767 44.12046814 -0.11653137 C45.88228172 -0.10718819 45.88228172 -0.10718819 47.6796875 -0.09765625 C48.71512192 -0.09828568 49.75055634 -0.0989151 50.81736755 -0.0995636 C53.40454102 0.2746582 53.40454102 0.2746582 55.27406311 1.60261536 C56.40454102 3.2746582 56.40454102 3.2746582 56.21704102 6.3996582 C55.94891602 7.3484082 55.68079102 8.2971582 55.40454102 9.2746582 C52.75808047 10.59788847 50.75679765 10.40903523 47.79321289 10.41992188 C46.61859497 10.42630173 45.44397705 10.43268158 44.23376465 10.43925476 C42.95980835 10.44036758 41.68585205 10.44148041 40.37329102 10.44262695 C39.07129761 10.44595535 37.7693042 10.44928375 36.42785645 10.45271301 C33.67056448 10.45870383 30.91330387 10.46055291 28.15600586 10.45996094 C24.61829258 10.4598592 21.08077949 10.47352336 17.54311371 10.49073315 C14.17400281 10.50450533 10.80492975 10.50394122 7.43579102 10.50512695 C6.16183472 10.51231247 4.88787842 10.51949799 3.57531738 10.52690125 C2.40069946 10.52382462 1.22608154 10.52074799 0.01586914 10.51757812 C-1.5406134 10.51971565 -1.5406134 10.51971565 -3.12854004 10.52189636 C-5.59545898 10.2746582 -5.59545898 10.2746582 -7.59545898 8.2746582 C-7.84545898 5.2746582 -7.84545898 5.2746582 -7.59545898 2.2746582 C-4.94407938 -0.3767214 -3.70179738 0.01648462 0 0 Z " fill="#040200" transform="translate(318.595458984375,387.725341796875)"/>
<path d="M0 0 C4.29 0 8.58 0 13 0 C13 13.86 13 27.72 13 42 C8.71 42 4.42 42 0 42 C0 28.14 0 14.28 0 0 Z " fill="#AE4200" transform="translate(476,243)"/>
<path d="M0 0 C4.29 0 8.58 0 13 0 C13 13.86 13 27.72 13 42 C8.71 42 4.42 42 0 42 C0 28.14 0 14.28 0 0 Z " fill="#B44400" transform="translate(197,243)"/>
<path d="M0 0 C1.98 0.99 1.98 0.99 4 2 C5.35291138 2.66757324 5.35291138 2.66757324 6.7331543 3.34863281 C10.52527995 7.7840108 9.49601295 12.80539663 9.26953125 18.421875 C9.24026047 19.63699768 9.21098969 20.85212036 9.18083191 22.10406494 C9.08182282 25.98711822 8.94759318 29.86805074 8.8125 33.75 C8.73921552 36.3814468 8.6682235 39.01295853 8.59960938 41.64453125 C8.43063984 48.09794587 8.21410099 54.54729287 8 61 C17.9 61 27.8 61 38 61 C38 61.33 38 61.66 38 62 C25.46 62 12.92 62 0 62 C0 41.54 0 21.08 0 0 Z " fill="#D56B00" transform="translate(238,307)"/>
<path d="M0 0 C0 20.46 0 40.92 0 62 C-12.21 62 -24.42 62 -37 62 C-37 61.67 -37 61.34 -37 61 C-27.43 61 -17.86 61 -8 61 C-8.165 57.01550781 -8.33 53.03101563 -8.5 48.92578125 C-8.63198842 45.06704032 -8.75001767 41.20810744 -8.86669922 37.34887695 C-8.95073577 34.66579698 -9.05489373 31.98462262 -9.17626953 29.30297852 C-9.34321233 25.44831205 -9.45791011 21.5950807 -9.5625 17.73828125 C-9.62566406 16.53915604 -9.68882812 15.34003082 -9.75390625 14.10456848 C-9.90377002 5.9608117 -9.90377002 5.9608117 -7.21435547 3.10165405 C-2.36146513 0 -2.36146513 0 0 0 Z " fill="#E98500" transform="translate(447,307)"/>
<path d="M0 0 C4.95 0 9.9 0 15 0 C15 9.24 15 18.48 15 28 C10.71 28 6.42 28 2 28 C0 26 0 26 -0.22705078 23.38623047 C-0.21657715 22.30744629 -0.20610352 21.22866211 -0.1953125 20.1171875 C-0.18886719 18.95058594 -0.18242187 17.78398437 -0.17578125 16.58203125 C-0.15902344 15.35871094 -0.14226562 14.13539063 -0.125 12.875 C-0.11597656 11.64394531 -0.10695312 10.41289062 -0.09765625 9.14453125 C-0.07402633 6.09627194 -0.03815439 3.04811211 0 0 Z " fill="#3C4974" transform="translate(255,425)"/>
<path d="M0 0 C4.95 0 9.9 0 15 0 C15.05380781 4.10434051 15.09358213 8.20797993 15.125 12.3125 C15.14175781 13.47974609 15.15851563 14.64699219 15.17578125 15.84960938 C15.18222656 16.96787109 15.18867188 18.08613281 15.1953125 19.23828125 C15.20578613 20.26993408 15.21625977 21.30158691 15.22705078 22.36450195 C15 25 15 25 13 28 C8.71 28 4.42 28 0 28 C0 18.76 0 9.52 0 0 Z " fill="#3C4973" transform="translate(416,425)"/>
<path d="M0 0 C11.22 0 22.44 0 34 0 C36.475 4.455 36.475 4.455 39 9 C26.13 9 13.26 9 0 9 C0 6.03 0 3.06 0 0 Z " fill="#D3D3F2" transform="translate(238,379)"/>
<path d="M0 0 C11.22 0 22.44 0 34 0 C34 2.97 34 5.94 34 9 C21.46 9 8.92 9 -4 9 C-2 4 -2 4 0 0 Z " fill="#D3D3F2" transform="translate(413,379)"/>
<path d="M0 0 C-0.474375 1.134375 -0.94875 2.26875 -1.4375 3.4375 C-3.71100214 10.77117308 -3.71100214 10.77117308 -4 26 C19.76 26 43.52 26 68 26 C68 26.33 68 26.66 68 27 C41.93 27 15.86 27 -11 27 C-11 9 -11 9 -7 3 C-2.8 0 -2.8 0 0 0 Z " fill="#4E5888" transform="translate(27,427)"/>
<path d="M0 0 C15.84 0 31.68 0 48 0 C48 10 48 10 46 14 C43 16 43 16 40 16 C40 11.05 40 6.1 40 1 C26.8 1 13.6 1 0 1 C0 0.67 0 0.34 0 0 Z " fill="#E58500" transform="translate(399,398)"/>
<path d="M0 0 C15.84 0 31.68 0 48 0 C48 0.33 48 0.66 48 1 C34.8 1 21.6 1 8 1 C8 5.95 8 10.9 8 16 C3 14 3 14 1.1875 11.9375 C0 9 0 9 0 0 Z " fill="#D66F00" transform="translate(238,398)"/>
<path d="M0 0 C6.11986002 2.44794401 6.11986002 2.44794401 8 6 C8.29296875 9.015625 8.29296875 9.015625 8.1875 12.25 C8.16042969 13.32765625 8.13335937 14.4053125 8.10546875 15.515625 C8.07066406 16.33546875 8.03585937 17.1553125 8 18 C5.36 18 2.72 18 0 18 C0 12.06 0 6.12 0 0 Z " fill="#EC8600" transform="translate(439,182)"/>
<path d="M0 0 C0 5.94 0 11.88 0 18 C-2.64 18 -5.28 18 -8 18 C-8.56312292 6.09099299 -8.56312292 6.09099299 -5 2 C-2 0 -2 0 0 0 Z " fill="#D96C00" transform="translate(246,182)"/>
<path d="M0 0 C3.3 0 6.6 0 10 0 C10 2.97 10 5.94 10 9 C5.38 9 0.76 9 -4 9 C-2 4 -2 4 0 0 Z " fill="#E5E5FB" transform="translate(413,379)"/>
<path d="M0 0 C3.3 0 6.6 0 10 0 C11.65 2.97 13.3 5.94 15 9 C10.05 9 5.1 9 0 9 C0 6.03 0 3.06 0 0 Z " fill="#E6E6FC" transform="translate(262,379)"/>
<path d="M0 0 C1.98 0 3.96 0 6 0 C6.33 2.97 6.66 5.94 7 9 C4.69 9 2.38 9 0 9 C0 6.03 0 3.06 0 0 Z " fill="#DCDCF1" transform="translate(238,379)"/>
<path d="M0 0 C1.98 0 3.96 0 6 0 C6 2.97 6 5.94 6 9 C4.02 9 2.04 9 0 9 C0 6.03 0 3.06 0 0 Z " fill="#E8E8FE" transform="translate(441,379)"/>
</svg>
