<?xml version="1.0" encoding="UTF-8"?>
<svg version="1.1" xmlns="http://www.w3.org/2000/svg" width="512" height="512">
<path d="M0 0 C1.81828189 -0.00679667 1.81828189 -0.00679667 3.67329675 -0.01373065 C7.01631653 -0.02415746 10.35912017 -0.02570801 13.70214069 -0.02334189 C17.31564345 -0.02293209 20.92911466 -0.03398796 24.54260254 -0.04345703 C31.61203123 -0.06002913 38.68142656 -0.06556475 45.75087305 -0.06668179 C51.49622601 -0.06763351 57.24156801 -0.07174996 62.9869175 -0.07808304 C79.28326416 -0.09568055 95.57958453 -0.10492356 111.87594076 -0.10342209 C112.75342648 -0.10334218 113.63091221 -0.10326227 114.5349884 -0.10317993 C115.413547 -0.10309817 116.2921056 -0.10301641 117.19728718 -0.10293217 C131.45139777 -0.10211839 145.70540292 -0.12128314 159.95948299 -0.14945666 C174.60250511 -0.17817042 189.24547575 -0.19199798 203.88852674 -0.19026911 C212.10689428 -0.18960497 220.32515109 -0.19510854 228.54349327 -0.21662521 C235.53626076 -0.23481657 242.52886725 -0.23920081 249.52164813 -0.22560637 C253.08906116 -0.21906795 256.65616509 -0.21899088 260.22354889 -0.23631287 C264.09001306 -0.25489438 267.95602374 -0.24251288 271.82250977 -0.22705078 C272.95061433 -0.23733791 274.0787189 -0.24762503 275.24100846 -0.25822389 C281.366829 -0.20391659 285.10431727 0.08668512 289.72077942 4.26742554 C292.41203708 8.30431204 292.38609286 11.52706729 291.72077942 16.26742554 C290.09577942 19.26742554 290.09577942 19.26742554 287.72077942 21.26742554 C285.74077942 21.59742554 283.76077942 21.92742554 281.72077942 22.26742554 C281.72077942 36.12742554 281.72077942 49.98742554 281.72077942 64.26742554 C283.70077942 64.92742554 285.68077942 65.58742554 287.72077942 66.26742554 C290.26023226 68.47273985 291.50919634 70.0778105 292.10359192 73.41976929 C292.37884675 78.93404114 291.29518851 80.98310402 287.72077942 85.26742554 C288.93660706 85.27153442 290.15243469 85.27564331 291.40510559 85.27987671 C295.92490272 85.30168224 300.44383105 85.35598667 304.96321106 85.42001343 C306.91755331 85.44318104 308.87202019 85.45758625 310.82649231 85.46298218 C313.63969985 85.47228086 316.45095054 85.51329028 319.26374817 85.56039429 C320.13476669 85.55646164 321.00578522 85.55252899 321.90319824 85.54847717 C326.30868892 85.65394982 328.16804482 85.83731292 331.74934387 88.62411499 C334.86475607 92.80127509 335.24250827 96.13709187 334.72077942 101.26742554 C333.32741962 103.91538732 332.00729243 105.18415813 329.72077942 107.26742554 C328.07077942 107.26742554 326.42077942 107.26742554 324.72077942 107.26742554 C324.72077942 121.45742554 324.72077942 135.64742554 324.72077942 150.26742554 C326.37077942 150.59742554 328.02077942 150.92742554 329.72077942 151.26742554 C333.23693666 154.0022145 334.00903365 155.9684811 334.72077942 160.26742554 C335.67211761 160.25854309 336.62345581 160.24966064 337.60362244 160.24050903 C346.57853396 160.15934634 355.55337081 160.09942333 364.52856636 160.06017685 C369.14259793 160.03932128 373.75633271 160.01104092 378.37019348 159.96566772 C382.82465905 159.92213726 387.27883954 159.89827315 391.73350143 159.88791656 C393.43115093 159.88053809 395.12878521 159.86612948 396.82631302 159.84450531 C399.20830485 159.81537473 401.58912578 159.81147343 403.9712677 159.81332397 C404.66970291 159.79894287 405.36813812 159.78456177 406.08773804 159.76974487 C411.07685963 159.8115554 413.88746808 161.13313788 417.72077942 164.26742554 C419.79781434 167.38297791 419.97156428 168.0559846 419.97804832 171.5894146 C419.98449722 172.47708672 419.99094611 173.36475885 419.99759042 174.27933013 C419.99294462 175.74355775 419.99294462 175.74355775 419.98820496 177.23736572 C419.99273607 178.27362347 419.99726718 179.30988121 420.0019356 180.37754071 C420.01464505 183.86675926 420.01295501 187.35582304 420.01130676 190.84506226 C420.01728791 193.33982546 420.0240925 195.83458681 420.03166199 198.3293457 C420.04752975 204.41266935 420.05377219 210.49593161 420.05488674 216.57927023 C420.05583654 221.5233839 420.05994338 226.46748477 420.06628799 231.41159439 C420.08390445 245.42428034 420.09312624 259.43693564 420.09162705 273.44963275 C420.09154713 274.2053198 420.09146722 274.96100685 420.09138489 275.73959351 C420.09130313 276.4962016 420.09122137 277.2528097 420.09113713 278.03234531 C420.09032413 290.29583022 420.10946417 302.55919233 420.13766162 314.82264172 C420.16637577 327.40997774 420.18020273 339.99725384 420.17847407 352.58462346 C420.17780965 359.65337058 420.1833244 366.72198898 420.20483017 373.79070663 C420.22492232 380.43747002 420.2243833 387.0840076 420.20979691 393.73080063 C420.20769931 396.17334387 420.21246587 398.61590386 420.22451782 401.05841827 C420.23988131 404.38710859 420.23072036 407.7148492 420.21525574 411.04351807 C420.22554286 412.01520837 420.23582999 412.98689867 420.24642885 413.98803413 C420.20328812 418.17606744 420.10387845 420.61907067 417.93987465 424.28141975 C414.53298838 427.33045332 411.89774344 428.5166706 407.32538795 428.52190113 C406.44679166 428.52773332 405.56819537 428.53356552 404.66297495 428.53957444 C403.70209102 428.53579512 402.74120708 428.5320158 401.75120544 428.52812195 C400.21497152 428.53386027 400.21497152 428.53386027 398.64770257 428.53971452 C395.20537566 428.5500586 391.7632151 428.54604965 388.32087708 428.54208374 C385.85714564 428.54642945 383.39341556 428.55161212 380.9296875 428.55757141 C374.92570405 428.56959378 368.92178633 428.57211088 362.91779687 428.56977115 C358.0375988 428.56798876 353.15741431 428.56973592 348.27721786 428.57399559 C347.58287649 428.57459078 346.88853512 428.57518597 346.17315309 428.57579919 C344.76262662 428.57701094 343.35210014 428.57822507 341.94157366 428.57944157 C328.70996978 428.59032097 315.47839137 428.58815283 302.24678604 428.58205672 C290.14249081 428.57688818 278.03827606 428.58814062 265.93399675 428.60715494 C253.50595714 428.6265282 241.07795561 428.63479018 228.64990079 428.63103169 C221.67226538 428.62911874 214.69469846 428.63161625 207.71707535 428.64574623 C201.15567976 428.65889878 194.59441879 428.65640693 188.0330143 428.64333534 C185.62314487 428.64096386 183.21326419 428.64372461 180.80340767 428.65195847 C177.51685665 428.66237903 174.23085178 428.65436253 170.94432068 428.64164734 C169.98789818 428.64902162 169.03147569 428.65639591 168.04607069 428.66399366 C162.87060624 428.62179326 159.15966997 428.23875378 154.72077942 425.26742554 C152.26688715 421.58658714 152.45224162 418.83691276 152.49372864 414.58309937 C152.49343658 413.80237564 152.49314453 413.02165192 152.49284363 412.2172699 C152.49423718 409.63621921 152.50979949 407.05545706 152.52546692 404.47445679 C152.52919696 402.68512632 152.53204397 400.89579381 152.53404236 399.10646057 C152.54167952 394.39640669 152.56132873 389.68647611 152.58345032 384.97647095 C152.60390695 380.17047799 152.61304369 375.36446511 152.62312317 370.55844116 C152.64457453 361.12804844 152.67871149 351.69774724 152.72077942 342.26742554 C152.07639514 342.27111271 151.43201086 342.27479988 150.76809978 342.27859879 C135.05026069 342.36714102 119.33250898 342.43322773 103.61448193 342.47467422 C96.01318563 342.49525294 88.41205636 342.52328305 80.81086731 342.56918335 C74.18155639 342.60919563 67.5523665 342.63489241 60.92293817 342.64377952 C57.41637033 342.64897011 53.91014858 342.66107013 50.40369225 342.69034576 C46.47831877 342.72284965 42.55327625 342.72337577 38.62776184 342.7215271 C36.9057682 342.74309875 36.9057682 342.74309875 35.14898682 342.7651062 C23.98683857 342.70847082 15.11945068 339.64753454 6.72077942 332.26742554 C6.11492004 331.76598022 5.50906067 331.26453491 4.88484192 330.74789429 C-1.60289181 324.92593236 -6.68666425 316.04218338 -7.45622253 307.2437439 C-7.88438191 292.31616326 -6.43974624 280.98803191 3.72077942 269.26742554 C8.85848648 264.4438948 14.41818934 261.30110966 20.72077942 258.26742554 C19.69307434 258.25807983 18.66536926 258.24873413 17.60652161 258.23910522 C13.73696478 258.1987652 9.86816688 258.13289308 5.99909973 258.05990601 C4.33513757 258.03194836 2.67104882 258.01061055 1.00691223 257.99642944 C-14.20324344 257.85915367 -26.60126892 255.94082221 -38.27922058 245.26742554 C-47.0781792 235.64032963 -50.94445806 225.19117218 -50.74797058 212.20150757 C-50.17195912 199.67025827 -44.97387763 189.38619811 -35.73625183 180.94320679 C-23.62443008 171.48794623 -11.28544634 170.64317221 3.47077942 170.51742554 C5.1504968 170.48920317 6.8301863 170.45926724 8.50984192 170.42758179 C12.58010324 170.35446823 16.65003639 170.3044439 20.72077942 170.26742554 C19.97602356 169.87055542 19.2312677 169.4736853 18.46394348 169.06478882 C17.48135559 168.53611206 16.4987677 168.0074353 15.48640442 167.46273804 C14.51477356 166.94211792 13.5431427 166.4214978 12.54206848 165.88510132 C3.02069212 160.42571747 -2.79859944 152.28617298 -6.44718933 141.96273804 C-9.12146316 130.08544675 -8.50253497 116.89047847 -2.27922058 106.26742554 C4.22248166 97.39247837 11.67030603 91.51013299 21.72077942 87.26742554 C20.62725159 87.25807983 19.53372375 87.24873413 18.40705872 87.23910522 C14.30086909 87.1988521 10.19540124 87.1330005 6.0896759 87.05990601 C4.32186748 87.03189921 2.55393856 87.01058508 0.78596497 86.99642944 C-14.50222799 86.8667586 -26.71456575 84.96728337 -38.43937683 74.30258179 C-47.17732269 65.27064897 -50.54660122 54.43548897 -50.52580261 42.11825562 C-50.31882043 30.35004284 -45.5504111 20.6523449 -37.65422058 12.01742554 C-26.95289879 1.90948488 -14.08960371 -0.03891376 0 0 Z " fill="#008999" transform="translate(71.27922058105469,41.732574462890625)"/>
<path d="M0 0 C1.81828189 -0.00679667 1.81828189 -0.00679667 3.67329675 -0.01373065 C7.01631653 -0.02415746 10.35912017 -0.02570801 13.70214069 -0.02334189 C17.31564345 -0.02293209 20.92911466 -0.03398796 24.54260254 -0.04345703 C31.61203123 -0.06002913 38.68142656 -0.06556475 45.75087305 -0.06668179 C51.49622601 -0.06763351 57.24156801 -0.07174996 62.9869175 -0.07808304 C79.28326416 -0.09568055 95.57958453 -0.10492356 111.87594076 -0.10342209 C112.75342648 -0.10334218 113.63091221 -0.10326227 114.5349884 -0.10317993 C115.413547 -0.10309817 116.2921056 -0.10301641 117.19728718 -0.10293217 C131.45139777 -0.10211839 145.70540292 -0.12128314 159.95948299 -0.14945666 C174.60250511 -0.17817042 189.24547575 -0.19199798 203.88852674 -0.19026911 C212.10689428 -0.18960497 220.32515109 -0.19510854 228.54349327 -0.21662521 C235.53626076 -0.23481657 242.52886725 -0.23920081 249.52164813 -0.22560637 C253.08906116 -0.21906795 256.65616509 -0.21899088 260.22354889 -0.23631287 C264.09001306 -0.25489438 267.95602374 -0.24251288 271.82250977 -0.22705078 C272.95061433 -0.23733791 274.0787189 -0.24762503 275.24100846 -0.25822389 C281.366829 -0.20391659 285.10431727 0.08668512 289.72077942 4.26742554 C292.41203708 8.30431204 292.38609286 11.52706729 291.72077942 16.26742554 C290.09577942 19.26742554 290.09577942 19.26742554 287.72077942 21.26742554 C285.74077942 21.59742554 283.76077942 21.92742554 281.72077942 22.26742554 C281.72077942 36.12742554 281.72077942 49.98742554 281.72077942 64.26742554 C283.70077942 64.92742554 285.68077942 65.58742554 287.72077942 66.26742554 C290.26023226 68.47273985 291.50919634 70.0778105 292.10359192 73.41976929 C292.37884675 78.93404114 291.29518851 80.98310402 287.72077942 85.26742554 C288.93660706 85.27153442 290.15243469 85.27564331 291.40510559 85.27987671 C295.92490272 85.30168224 300.44383105 85.35598667 304.96321106 85.42001343 C306.91755331 85.44318104 308.87202019 85.45758625 310.82649231 85.46298218 C313.63969985 85.47228086 316.45095054 85.51329028 319.26374817 85.56039429 C320.13476669 85.55646164 321.00578522 85.55252899 321.90319824 85.54847717 C326.30868892 85.65394982 328.16804482 85.83731292 331.74934387 88.62411499 C334.86475607 92.80127509 335.24250827 96.13709187 334.72077942 101.26742554 C333.32741962 103.91538732 332.00729243 105.18415813 329.72077942 107.26742554 C328.07077942 107.26742554 326.42077942 107.26742554 324.72077942 107.26742554 C324.72077942 121.45742554 324.72077942 135.64742554 324.72077942 150.26742554 C326.37077942 150.59742554 328.02077942 150.92742554 329.72077942 151.26742554 C332.72930328 153.52381843 333.60784811 154.684671 334.33015442 158.41195679 C334.45906067 159.35426147 334.58796692 160.29656616 334.72077942 161.26742554 C333.36710754 161.26824269 333.36710754 161.26824269 331.98608875 161.26907635 C310.03634987 161.28403796 288.08681426 161.32645969 266.13718891 161.39951611 C255.52253225 161.43418208 244.90800567 161.45952374 234.29328918 161.46298218 C225.04242644 161.46601983 215.79179528 161.48648356 206.541022 161.52795011 C201.64189123 161.54929983 196.74308985 161.56187059 191.84391212 161.55357933 C187.23333518 161.54605168 182.62342633 161.56180938 178.01297188 161.59548569 C176.32029438 161.60373451 174.62755064 161.60345059 172.9348793 161.59402275 C170.62369408 161.58242361 168.31470682 161.60147997 166.00369263 161.62818909 C164.71041707 161.63095447 163.41714151 161.63371984 162.08467579 161.63656902 C157.76605413 162.44647227 156.30296993 163.74948578 153.72077942 167.26742554 C152.95183598 170.24138749 152.95183598 170.24138749 153.01374817 173.44320679 C152.98474426 174.60014038 152.95574036 175.75707397 152.92585754 176.94906616 C152.91715637 178.74634155 152.91715637 178.74634155 152.90827942 180.57992554 C152.8831427 181.79744507 152.85800598 183.0149646 152.83210754 184.26937866 C152.77329041 187.2690524 152.73696903 190.26726851 152.72077942 193.26742554 C151.87778793 193.2688921 151.03479645 193.27035866 150.16625977 193.27186966 C129.64250391 193.30894159 109.11891314 193.3679615 88.59529114 193.45132828 C78.67015822 193.49111631 68.74510456 193.52351002 58.81990051 193.53842163 C50.16781778 193.55143935 41.51590948 193.57840713 32.86392498 193.6220386 C28.28388092 193.64465068 23.70405197 193.66033637 19.12394714 193.65930939 C14.80972494 193.65856263 10.4959782 193.67651975 6.18187904 193.70859337 C4.60173016 193.71708619 3.02152791 193.71884648 1.4413662 193.71322823 C-11.17230323 193.505453 -11.17230323 193.505453 -21.78242493 199.71451187 C-26.65130923 205.22623437 -27.68241211 209.32309186 -27.52922058 216.51351929 C-27.05967798 221.68582449 -25.34701785 224.96233998 -22.02922058 229.01742554 C-16.70575089 233.37299165 -11.96261728 234.64029912 -5.17340088 234.66615295 C-4.49363377 234.67279978 -3.81386665 234.67944661 -3.11350054 234.68629485 C-0.85486397 234.70482245 1.40323807 234.70232663 3.66194153 234.69979858 C5.28857668 234.70882204 6.91520504 234.71915069 8.54182434 234.73068237 C12.94418006 234.75821003 17.34640661 234.76753113 21.74883723 234.77353644 C26.35465387 234.78293114 30.96037445 234.80913543 35.56613159 234.83354187 C44.28174893 234.87718041 52.9973476 234.90574363 61.71304089 234.92886525 C71.63809998 234.9559311 81.5630623 234.99984177 91.48805225 235.04515398 C111.89892288 235.13796243 132.30978412 235.20743706 152.72077942 235.26742554 C152.72077942 249.45742554 152.72077942 263.64742554 152.72077942 278.26742554 C149.06693176 278.27677124 145.41308411 278.28611694 141.64851379 278.29574585 C129.57049983 278.32952674 117.49267499 278.38488159 105.41480255 278.45132828 C98.09263761 278.4910855 90.77057962 278.52349474 83.44831848 278.53842163 C77.06392549 278.55145546 70.67976816 278.57846391 64.29550791 278.6220386 C60.91711005 278.64461497 57.53900244 278.66033855 54.16052246 278.65930939 C50.38272332 278.66167671 46.60584209 278.68874068 42.82820129 278.7215271 C41.7161734 278.71649673 40.60414551 278.71146637 39.4584198 278.70628357 C32.41979461 278.80066891 26.50340939 279.6672348 21.23755646 284.67911148 C19.69228684 286.40342336 19.69228684 286.40342336 17.72077942 289.26742554 C17.12265442 290.00992554 16.52452942 290.75242554 15.90827942 291.51742554 C13.80862892 296.37977406 13.87657973 301.41825159 15.37702942 306.48226929 C17.96942464 312.30398442 22.21822385 316.64756095 28.01115704 319.32668114 C30.84334387 320.30997826 32.96691396 320.52744285 35.9536438 320.54589844 C37.50374397 320.56264366 37.50374397 320.56264366 39.0851593 320.57972717 C40.20797302 320.58188736 41.33078674 320.58404755 42.48762512 320.58627319 C43.67829086 320.59631882 44.8689566 320.60636444 46.09570312 320.61671448 C49.35150981 320.64227225 52.60722172 320.65914823 55.86309838 320.67214251 C59.26909333 320.68779602 62.67500048 320.71457913 66.08093262 320.74017334 C72.52643907 320.7869219 78.97196211 320.82368493 85.41755122 320.85684621 C92.75736416 320.89509538 100.09708883 320.94449819 107.4368273 320.99483037 C122.53141366 321.09809184 137.626053 321.18697537 152.72077942 321.26742554 C152.72077942 328.19742554 152.72077942 335.12742554 152.72077942 342.26742554 C136.35204358 342.36023213 119.98341717 342.43151136 103.61448193 342.47467422 C96.01318563 342.49525294 88.41205636 342.52328305 80.81086731 342.56918335 C74.18155639 342.60919563 67.5523665 342.63489241 60.92293817 342.64377952 C57.41637033 342.64897011 53.91014858 342.66107013 50.40369225 342.69034576 C46.47831877 342.72284965 42.55327625 342.72337577 38.62776184 342.7215271 C36.9057682 342.74309875 36.9057682 342.74309875 35.14898682 342.7651062 C23.98683857 342.70847082 15.11945068 339.64753454 6.72077942 332.26742554 C6.11492004 331.76598022 5.50906067 331.26453491 4.88484192 330.74789429 C-1.60289181 324.92593236 -6.68666425 316.04218338 -7.45622253 307.2437439 C-7.88438191 292.31616326 -6.43974624 280.98803191 3.72077942 269.26742554 C8.85848648 264.4438948 14.41818934 261.30110966 20.72077942 258.26742554 C19.69307434 258.25807983 18.66536926 258.24873413 17.60652161 258.23910522 C13.73696478 258.1987652 9.86816688 258.13289308 5.99909973 258.05990601 C4.33513757 258.03194836 2.67104882 258.01061055 1.00691223 257.99642944 C-14.20324344 257.85915367 -26.60126892 255.94082221 -38.27922058 245.26742554 C-47.0781792 235.64032963 -50.94445806 225.19117218 -50.74797058 212.20150757 C-50.17195912 199.67025827 -44.97387763 189.38619811 -35.73625183 180.94320679 C-23.62443008 171.48794623 -11.28544634 170.64317221 3.47077942 170.51742554 C5.1504968 170.48920317 6.8301863 170.45926724 8.50984192 170.42758179 C12.58010324 170.35446823 16.65003639 170.3044439 20.72077942 170.26742554 C19.97602356 169.87055542 19.2312677 169.4736853 18.46394348 169.06478882 C17.48135559 168.53611206 16.4987677 168.0074353 15.48640442 167.46273804 C14.51477356 166.94211792 13.5431427 166.4214978 12.54206848 165.88510132 C3.02069212 160.42571747 -2.79859944 152.28617298 -6.44718933 141.96273804 C-9.12146316 130.08544675 -8.50253497 116.89047847 -2.27922058 106.26742554 C4.22248166 97.39247837 11.67030603 91.51013299 21.72077942 87.26742554 C20.62725159 87.25807983 19.53372375 87.24873413 18.40705872 87.23910522 C14.30086909 87.1988521 10.19540124 87.1330005 6.0896759 87.05990601 C4.32186748 87.03189921 2.55393856 87.01058508 0.78596497 86.99642944 C-14.50222799 86.8667586 -26.71456575 84.96728337 -38.43937683 74.30258179 C-47.17732269 65.27064897 -50.54660122 54.43548897 -50.52580261 42.11825562 C-50.31882043 30.35004284 -45.5504111 20.6523449 -37.65422058 12.01742554 C-26.95289879 1.90948488 -14.08960371 -0.03891376 0 0 Z " fill="#FC6D01" transform="translate(71.27922058105469,41.732574462890625)"/>
<path d="M0 0 C1.81828189 -0.00679667 1.81828189 -0.00679667 3.67329675 -0.01373065 C7.01631653 -0.02415746 10.35912017 -0.02570801 13.70214069 -0.02334189 C17.31564345 -0.02293209 20.92911466 -0.03398796 24.54260254 -0.04345703 C31.61203123 -0.06002913 38.68142656 -0.06556475 45.75087305 -0.06668179 C51.49622601 -0.06763351 57.24156801 -0.07174996 62.9869175 -0.07808304 C79.28326416 -0.09568055 95.57958453 -0.10492356 111.87594076 -0.10342209 C112.75342648 -0.10334218 113.63091221 -0.10326227 114.5349884 -0.10317993 C115.413547 -0.10309817 116.2921056 -0.10301641 117.19728718 -0.10293217 C131.45139777 -0.10211839 145.70540292 -0.12128314 159.95948299 -0.14945666 C174.60250511 -0.17817042 189.24547575 -0.19199798 203.88852674 -0.19026911 C212.10689428 -0.18960497 220.32515109 -0.19510854 228.54349327 -0.21662521 C235.53626076 -0.23481657 242.52886725 -0.23920081 249.52164813 -0.22560637 C253.08906116 -0.21906795 256.65616509 -0.21899088 260.22354889 -0.23631287 C264.09001306 -0.25489438 267.95602374 -0.24251288 271.82250977 -0.22705078 C272.95061433 -0.23733791 274.0787189 -0.24762503 275.24100846 -0.25822389 C281.366829 -0.20391659 285.10431727 0.08668512 289.72077942 4.26742554 C292.41203708 8.30431204 292.38609286 11.52706729 291.72077942 16.26742554 C290.09577942 19.26742554 290.09577942 19.26742554 287.72077942 21.26742554 C285.74077942 21.59742554 283.76077942 21.92742554 281.72077942 22.26742554 C281.72077942 36.12742554 281.72077942 49.98742554 281.72077942 64.26742554 C283.70077942 64.92742554 285.68077942 65.58742554 287.72077942 66.26742554 C290.26023226 68.47273985 291.50919634 70.0778105 292.10359192 73.41976929 C292.30894047 77.53358531 292.06674159 79.71388606 289.84577942 83.26742554 C286.69770978 86.23031461 285.00900748 86.39335849 280.78896427 86.40164661 C279.21518846 86.40833338 279.21518846 86.40833338 277.6096192 86.41515523 C276.44788181 86.41497087 275.28614443 86.41478651 274.08920288 86.41459656 C272.86202244 86.41827325 271.634842 86.42194993 270.37047428 86.42573804 C266.95294098 86.43487762 263.53545576 86.43947738 260.1179148 86.44212735 C256.43603429 86.44602594 252.75416775 86.45560485 249.07229614 86.46434021 C240.17274131 86.48412129 231.27318531 86.4941747 222.37361398 86.503068 C218.1825361 86.50744981 213.99145949 86.51281704 209.80038261 86.51805687 C195.86649748 86.53507379 181.93261315 86.54956644 167.99871922 86.55680561 C164.38108888 86.55871552 160.76345856 86.56063585 157.14582825 86.56259155 C155.79710438 86.56331716 155.79710438 86.56331716 154.42113357 86.56405743 C139.86603494 86.57235192 125.31101864 86.59767692 110.75595594 86.63017223 C95.81142386 86.66326475 80.86693357 86.68125651 65.92236465 86.68444985 C57.53214062 86.68661335 49.14203652 86.69533799 40.75184822 86.72091103 C33.60352264 86.74264833 26.45534611 86.75065374 19.30699123 86.74094424 C15.66204344 86.73640774 12.01740295 86.73824726 8.37249756 86.75770569 C4.41327487 86.7786586 0.45447246 86.76832518 -3.50479126 86.75517273 C-4.64645215 86.76614198 -5.78811304 86.77711122 -6.96436971 86.78841287 C-19.21956756 86.69037513 -29.38010699 82.54274948 -38.43937683 74.30258179 C-47.17732269 65.27064897 -50.54660122 54.43548897 -50.52580261 42.11825562 C-50.31882043 30.35004284 -45.5504111 20.6523449 -37.65422058 12.01742554 C-26.95289879 1.90948488 -14.08960371 -0.03891376 0 0 Z " fill="#02D8F1" transform="translate(71.27922058105469,41.732574462890625)"/>
<path d="M0 0 C0.91007813 0.00902344 1.82015625 0.01804688 2.7578125 0.02734375 C3.80582031 0.04474609 3.80582031 0.04474609 4.875 0.0625 C4.87996522 1.92500869 4.87996522 1.92500869 4.88503075 3.82514381 C4.96404396 33.29820835 5.05326218 62.77122367 5.15505161 92.24421743 C5.16757052 95.87163298 5.18000329 99.49904882 5.19238281 103.12646484 C5.19484881 103.84861976 5.1973148 104.57077467 5.19985552 105.31481306 C5.23958201 117.00869344 5.27232984 128.70258347 5.30249982 140.39649196 C5.333611 152.39502165 5.37221898 164.39351031 5.41779006 176.39199388 C5.44317222 183.13156134 5.46508595 189.87110314 5.47834396 196.61070633 C5.49115813 202.95209057 5.51320581 209.29337517 5.54238319 215.63470459 C5.55146397 217.96393126 5.55715036 220.29317399 5.55921364 222.62241745 C5.56253257 225.79963088 5.57800046 228.97656119 5.5965271 232.15371704 C5.593625 233.5399157 5.593625 233.5399157 5.59066427 234.95411837 C5.63172265 239.65601343 5.80222554 243.73447292 7.875 248.0625 C10.62155815 248.97801938 12.24188931 249.19104789 15.07039928 249.2011652 C15.92980435 249.20663964 16.78920941 249.21211409 17.67465705 249.21775442 C18.61920085 249.21873253 19.56374466 249.21971064 20.53691101 249.22071838 C22.04146141 249.22812535 22.04146141 249.22812535 23.57640678 249.23568195 C26.95287298 249.25109636 30.32932012 249.25942825 33.70581055 249.26782227 C36.12001718 249.27739769 38.53422213 249.28740757 40.94842529 249.29782104 C46.15400672 249.31929358 51.3595896 249.33773082 56.56519127 249.35342598 C64.09164763 249.37612386 71.61807584 249.4042668 79.14450834 249.43374526 C91.35519692 249.48142217 103.56589699 249.52468609 115.77661133 249.56518555 C127.63925064 249.60453997 139.50187973 249.64596607 151.36450195 249.69018555 C152.0955277 249.69290982 152.82655345 249.69563409 153.57973149 249.69844092 C157.24701717 249.71212039 160.9143027 249.72584066 164.58158815 249.73958123 C195.01270427 249.85354756 225.44384201 249.96028323 255.875 250.0625 C255.92239423 251.66638082 255.95625898 253.27066544 255.984375 254.875 C256.00467773 255.76832031 256.02498047 256.66164063 256.04589844 257.58203125 C255.80074976 261.14018924 254.49935981 262.72973573 251.875 265.0625 C248.96566647 266.7918025 246.84977894 267.31312029 243.47960854 267.31697559 C242.60101225 267.32280779 241.72241596 267.32863998 240.81719553 267.33464891 C239.8563116 267.33086958 238.89542766 267.32709026 237.90542603 267.32319641 C236.3691921 267.32893473 236.3691921 267.32893473 234.80192316 267.33478898 C231.35959624 267.34513306 227.91743568 267.34112411 224.47509766 267.3371582 C222.01136622 267.34150391 219.54763614 267.34668658 217.08390808 267.35264587 C211.07992463 267.36466824 205.07600691 267.36718535 199.07201745 267.36484561 C194.19181938 267.36306323 189.31163489 267.36481038 184.43143845 267.36907005 C183.73709707 267.36966524 183.0427557 267.37026043 182.32737368 267.37087366 C180.9168472 267.3720854 179.50632072 267.37329953 178.09579425 267.37451603 C164.86419036 267.38539543 151.63261195 267.38322729 138.40100662 267.37713119 C126.29671139 267.37196264 114.19249665 267.38321508 102.08821733 267.40222941 C89.66017772 267.42160266 77.23217619 267.42986465 64.80412138 267.42610615 C57.82648596 267.4241932 50.84891904 267.42669071 43.87129593 267.44082069 C37.30990034 267.45397324 30.74863937 267.45148139 24.18723488 267.43840981 C21.77736546 267.43603832 19.36748477 267.43879908 16.95762825 267.44703293 C13.67107723 267.45745349 10.38507236 267.44943699 7.09854126 267.4367218 C6.14211877 267.44409609 5.18569627 267.45147037 4.20029128 267.45906812 C-0.97517318 267.41686772 -4.68610945 267.03382825 -9.125 264.0625 C-11.1842938 260.9735593 -11.3741689 260.35298197 -11.36550903 256.86738586 C-11.36963303 255.58645554 -11.36963303 255.58645554 -11.37384033 254.27964783 C-11.36664978 253.34600906 -11.35945923 252.4123703 -11.35205078 251.45043945 C-11.35234283 250.46489075 -11.35263489 249.47934204 -11.35293579 248.46392822 C-11.35154066 245.2011235 -11.33597073 241.93854616 -11.3203125 238.67578125 C-11.31658302 236.41562525 -11.31373574 234.15546764 -11.31173706 231.89530945 C-11.30409547 225.94240873 -11.28444241 219.98960538 -11.2623291 214.03674316 C-11.24188203 207.96396197 -11.23273778 201.89116506 -11.22265625 195.81835938 C-11.20119707 183.89969677 -11.16705473 171.98110648 -11.125 160.0625 C-11.746381 160.06618717 -12.36776199 160.06987434 -13.00797272 160.07367325 C-28.14893663 160.16212853 -43.28982091 160.22826012 -58.43097687 160.26974869 C-65.7532328 160.29034714 -73.07531594 160.31841537 -80.39746094 160.36425781 C-86.78173235 160.40420926 -93.16587856 160.42995256 -99.55027151 160.43885398 C-102.92875771 160.44405479 -106.30688586 160.45622085 -109.68525696 160.48542023 C-113.46291253 160.514494 -117.23982851 160.51845414 -121.01757812 160.51660156 C-122.12960602 160.53098267 -123.24163391 160.54536377 -124.38735962 160.56018066 C-132.0864567 160.51937709 -137.41776449 159.31117502 -143.3671875 154.09765625 C-148.3694284 148.05427909 -150.73709178 143.68489882 -150.5703125 135.69140625 C-149.55760261 129.71286455 -145.49669882 125.06395064 -141.0625 121.125 C-136.69489963 118.05838697 -133.22425014 116.81100824 -127.89213562 116.82199097 C-126.34203545 116.81786697 -126.34203545 116.81786697 -124.76062012 116.81365967 C-123.6378064 116.82085022 -122.51499268 116.82804077 -121.3581543 116.83544922 C-120.16748856 116.83515717 -118.97682281 116.83486511 -117.75007629 116.83456421 C-114.49420876 116.83571702 -111.23851418 116.84573261 -107.98268104 116.85971212 C-104.57674397 116.87223297 -101.17080333 116.87339105 -97.7648468 116.87576294 C-91.31927462 116.88197374 -84.87377046 116.89837911 -78.4282282 116.91846192 C-71.08847914 116.9408334 -63.7487268 116.95181749 -56.40895212 116.96185279 C-41.31425731 116.98274572 -26.21965083 117.01941693 -11.125 117.0625 C-11.125 102.8725 -11.125 88.6825 -11.125 74.0625 C-16.08668213 74.07821045 -21.04836426 74.0939209 -26.16040039 74.11010742 C-42.54101423 74.15978334 -58.92163101 74.19309382 -75.30230045 74.21793652 C-85.23534549 74.23340143 -95.16831914 74.25448381 -105.10131836 74.28881836 C-113.75952704 74.31873217 -122.41768401 74.33807774 -131.07594293 74.34476548 C-135.65988118 74.34867437 -140.24367152 74.35785305 -144.82756233 74.37969017 C-149.14409922 74.40008661 -153.46042756 74.40632742 -157.77700806 74.40182304 C-159.35922314 74.40264683 -160.94144536 74.40859371 -162.5236187 74.42011642 C-164.68905968 74.43511042 -166.85372009 74.43142909 -169.0191803 74.42326355 C-170.83465158 74.42741162 -170.83465158 74.42741162 -172.68679905 74.43164349 C-180.43936086 73.59928734 -184.91486454 69.84587393 -189.875 64 C-193.05407869 59.07242802 -192.81229249 52.70142251 -192.125 47.0625 C-189.66203827 40.75646867 -184.90971801 35.93570706 -178.86658192 32.94471931 C-175.53993001 31.87422912 -172.75562855 31.81667395 -169.25968933 31.82199097 C-168.24260194 31.81942769 -168.24260194 31.81942769 -167.20496732 31.81681263 C-164.94016583 31.81352674 -162.67566272 31.82450636 -160.41088867 31.83544922 C-158.78455614 31.83601353 -157.1582231 31.83569639 -155.53189087 31.83456421 C-151.1211259 31.83399047 -146.71046975 31.84574831 -142.29973006 31.85971212 C-137.68862062 31.87221585 -133.07750867 31.8733897 -128.46638489 31.87576294 C-119.73649141 31.88197876 -111.00664803 31.89839097 -102.27677661 31.91846192 C-92.33731629 31.94081774 -82.39785358 31.95181355 -72.45837438 31.96185279 C-52.01388829 31.98275709 -31.5694473 32.01793507 -11.125 32.0625 C-11.14594727 31.30106689 -11.16689453 30.53963379 -11.18847656 29.75512695 C-11.27177795 26.29521968 -11.32370584 22.83552362 -11.375 19.375 C-11.40851563 18.17681641 -11.44203125 16.97863281 -11.4765625 15.74414062 C-11.48945313 14.58720703 -11.50234375 13.43027344 -11.515625 12.23828125 C-11.53657227 11.17520752 -11.55751953 10.11213379 -11.57910156 9.0168457 C-11.01419206 5.34159306 -9.67993697 3.70978766 -7.125 1.0625 C-4.60024538 -0.19987731 -2.81299534 -0.03606404 0 0 Z " fill="#005C67" transform="translate(235.125,202.9375)"/>
<path d="M0 0 C1.69573959 0.00084706 3.39148028 0.00036958 5.08721924 -0.00132751 C9.67347336 -0.0021858 14.25949055 0.01541294 18.84568977 0.03639436 C23.64495762 0.05518897 28.44423131 0.05691379 33.24353027 0.06047058 C42.32397006 0.06978287 51.40430109 0.09438561 60.48469305 0.12451905 C70.82565801 0.15808847 81.16662825 0.17455546 91.50763416 0.18960536 C112.77272984 0.22093589 134.03772141 0.2742871 155.30273438 0.34057617 C155.30273438 7.27057617 155.30273438 14.20057617 155.30273438 21.34057617 C152.22868286 21.34604462 152.22868286 21.34604462 149.0925293 21.35162354 C129.78734156 21.38785814 110.48230926 21.44606191 91.17724609 21.52447891 C81.25211317 21.56426695 71.32705951 21.59666065 61.40185547 21.61157227 C52.74977274 21.62458998 44.09786443 21.65155776 35.44587994 21.69518924 C30.86583588 21.71780131 26.28600693 21.733487 21.7059021 21.73246002 C17.3916799 21.73171326 13.07793316 21.74967039 8.763834 21.781744 C7.18368512 21.79023682 5.60348287 21.79199711 4.02332115 21.78637886 C-8.59034828 21.57860363 -8.59034828 21.57860363 -19.20046997 27.78766251 C-24.06935427 33.299385 -25.10045715 37.3962425 -24.94726562 44.58666992 C-24.47772303 49.75897512 -22.7650629 53.03549062 -19.44726562 57.09057617 C-14.12379593 61.44614228 -9.38066233 62.71344976 -2.59144592 62.73930359 C-1.91167881 62.74595042 -1.2319117 62.75259724 -0.53154558 62.75944549 C1.72709098 62.77797308 3.98519302 62.77547726 6.24389648 62.77294922 C7.87053164 62.78197267 9.49715999 62.79230133 11.1237793 62.80383301 C15.52613502 62.83136067 19.92836157 62.84068176 24.33079219 62.84668708 C28.93660883 62.85608177 33.5423294 62.88228606 38.14808655 62.9066925 C46.86370389 62.95033105 55.57930256 62.97889427 64.29499584 63.00201589 C74.22005493 63.02908173 84.14501726 63.0729924 94.07000721 63.11830461 C114.48087783 63.21111307 134.89173908 63.2805877 155.30273438 63.34057617 C155.30273438 77.53057617 155.30273438 91.72057617 155.30273438 106.34057617 C151.64888672 106.34992188 147.99503906 106.35926758 144.23046875 106.36889648 C132.15245479 106.40267738 120.07462994 106.45803222 107.99675751 106.52447891 C100.67459256 106.56423614 93.35253458 106.59664537 86.03027344 106.61157227 C79.64588044 106.6246061 73.26172311 106.65161455 66.87746286 106.69518924 C63.49906501 106.7177656 60.1209574 106.73348919 56.74247742 106.73246002 C52.96467827 106.73482735 49.18779705 106.76189131 45.41015625 106.79467773 C44.29812836 106.78964737 43.18610046 106.784617 42.04037476 106.7794342 C35.00174957 106.87381954 29.08536435 107.74038544 23.81951141 112.75226212 C22.2742418 114.47657399 22.2742418 114.47657399 20.30273438 117.34057617 C19.70460938 118.08307617 19.10648437 118.82557617 18.49023438 119.59057617 C16.39058388 124.4529247 16.45853469 129.49140223 17.95898438 134.55541992 C20.5513796 140.37713506 24.80017881 144.72071158 30.59311199 147.39983177 C33.42529883 148.3831289 35.54886892 148.60059348 38.53559875 148.61904907 C40.08569893 148.6357943 40.08569893 148.6357943 41.66711426 148.65287781 C42.78992798 148.65503799 43.9127417 148.65719818 45.06958008 148.65942383 C46.26024582 148.66946945 47.45091156 148.67951508 48.67765808 148.68986511 C51.93346477 148.71542289 55.18917667 148.73229886 58.44505334 148.74529314 C61.85104829 148.76094666 65.25695543 148.78772977 68.66288757 148.81332397 C75.10839402 148.86007253 81.55391706 148.89683557 87.99950618 148.92999685 C95.33931911 148.96824601 102.67904378 149.01764883 110.01878226 149.067981 C125.11336862 149.17124247 140.20800796 149.260126 155.30273438 149.34057617 C155.30273438 156.27057617 155.30273438 163.20057617 155.30273438 170.34057617 C138.93399854 170.43338276 122.56537213 170.504662 106.19643688 170.54782486 C98.59514059 170.56840357 90.99401132 170.59643369 83.39282227 170.64233398 C76.76351134 170.68234626 70.13432145 170.70804304 63.50489312 170.71693015 C59.99832529 170.72212074 56.49210353 170.73422077 52.9856472 170.7634964 C49.06027373 170.79600028 45.13523121 170.7965264 41.2097168 170.79467773 C39.48772316 170.81624939 39.48772316 170.81624939 37.73094177 170.83825684 C26.56879352 170.78162146 17.70140564 167.72068517 9.30273438 160.34057617 C8.696875 159.83913086 8.09101562 159.33768555 7.46679688 158.82104492 C0.97906315 152.999083 -4.10470929 144.11533401 -4.87426758 135.31689453 C-5.30242696 120.38931389 -3.85779128 109.06118254 6.30273438 97.34057617 C11.44044144 92.51704544 17.00014429 89.37426029 23.30273438 86.34057617 C22.2750293 86.33123047 21.24732422 86.32188477 20.18847656 86.31225586 C16.31891974 86.27191584 12.45012184 86.20604371 8.58105469 86.13305664 C6.91709253 86.10509899 5.25300378 86.08376119 3.58886719 86.06958008 C-11.62128848 85.9323043 -24.01931397 84.01397285 -35.69726562 73.34057617 C-44.49622425 63.71348027 -48.36250311 53.26432282 -48.16601562 40.2746582 C-47.64221927 28.87935941 -43.38371224 19.70712574 -35.69726562 11.34057617 C-24.27151522 1.29522938 -14.56748326 -0.10194185 0 0 Z " fill="#FE2300" transform="translate(68.697265625,213.659423828125)"/>
<path d="M0 0 C1.03407354 -0.0039821 2.06814708 -0.00796419 3.13355619 -0.01206696 C4.26293078 -0.00624128 5.39230537 -0.00041559 6.55590343 0.00558662 C7.76073995 0.00387777 8.96557647 0.00216892 10.20692319 0.00040829 C13.54777667 -0.00231635 16.88839583 0.00393395 20.22922099 0.01396441 C23.83312036 0.0226012 27.43701249 0.01967859 31.0409193 0.01815987 C37.28379881 0.01711116 43.52663651 0.02338627 49.7695055 0.03463554 C58.79564032 0.05088951 67.82175493 0.05609844 76.8479028 0.05861153 C91.49221423 0.06298879 106.13650339 0.07629875 120.78080273 0.09521675 C135.00638753 0.11357473 149.23196628 0.12773164 163.45756054 0.13623238 C164.77285516 0.13702055 164.77285516 0.13702055 166.1147214 0.13782464 C170.51368513 0.14043471 174.91264892 0.14296213 179.31161273 0.14544845 C215.80550948 0.16618192 252.2993785 0.20195874 288.7932539 0.24609566 C288.7932539 14.43609566 288.7932539 28.62609566 288.7932539 43.24609566 C251.76441709 43.33655423 214.73560937 43.40815197 177.70668427 43.45035698 C173.33335964 43.4553597 168.96003523 43.460537 164.58671093 43.46582222 C163.71607452 43.46687146 162.84543811 43.4679207 161.94841878 43.46900174 C147.85811204 43.48639873 133.76787069 43.51793253 119.67760272 43.55470684 C105.21565981 43.59213591 90.75375111 43.61433567 76.29176176 43.62244964 C67.37061053 43.62793333 58.44964415 43.64524226 49.52854984 43.67776152 C43.40790898 43.69893369 37.28736344 43.7052896 31.16668864 43.70010117 C27.63730865 43.69754357 24.10825131 43.70141599 20.57892895 43.72291756 C16.74625063 43.74609582 12.91398889 43.73802113 9.08124828 43.72711372 C7.9742198 43.73876509 6.86719131 43.75041646 5.7266165 43.76242089 C-1.83014957 43.70438815 -9.36126718 42.76557805 -15.15093362 37.46672463 C-20.55786053 31.4870097 -21.77352284 26.63023414 -21.65596485 18.58203316 C-20.790019 12.15144398 -17.21477986 8.15617655 -12.6442461 3.80859566 C-8.46007144 1.12643241 -4.96857386 -0.00423398 0 0 Z " fill="#A1F4FE" transform="translate(64.2067461013794,63.75390434265137)"/>
<path d="M0 0 C1.03904928 -0.0039821 2.07809857 -0.00796419 3.1486342 -0.01206696 C4.85873819 -0.00332844 4.85873819 -0.00332844 6.60338974 0.00558662 C8.42161354 0.00302335 8.42161354 0.00302335 10.27656913 0.00040829 C13.64248418 -0.00231938 17.00816738 0.00394244 20.37405443 0.01396441 C24.0031932 0.0225923 27.63232466 0.01967922 31.26147079 0.01815987 C37.54965796 0.0171106 43.83780365 0.02339159 50.12598038 0.03463554 C59.21764936 0.05088188 68.30929828 0.05609766 77.4009802 0.05861153 C92.15122102 0.06298999 106.90143973 0.0763032 121.65166855 0.09521675 C135.98109451 0.11357163 150.31051446 0.12773005 164.6399498 0.13623238 C165.5230496 0.13675782 166.40614939 0.13728327 167.31600979 0.13782464 C171.74621231 0.14043469 176.17641486 0.14296211 180.60661745 0.14544845 C217.36611687 0.16618566 254.12558876 0.20196531 290.88506699 0.24609566 C290.88506699 14.10609566 290.88506699 27.96609566 290.88506699 42.24609566 C253.47407212 42.38178134 216.06314204 42.48917885 178.65195055 42.55248763 C174.23356186 42.55999172 169.81517368 42.56775767 165.39678574 42.5756855 C164.51717748 42.57725936 163.63756923 42.57883323 162.73130618 42.58045478 C148.49546 42.60655087 134.25975943 42.65385181 120.02399959 42.70901243 C105.41290005 42.76515455 90.80187668 42.79845532 76.19067371 42.81062663 C67.17729522 42.81885257 58.16432836 42.84481736 49.1510766 42.89359446 C42.96733628 42.92535102 36.78380826 42.93488706 30.59999235 42.92710392 C27.03400208 42.92326708 23.46873024 42.92907862 19.90286827 42.96132851 C16.03063346 42.99609217 12.15932648 42.98398613 8.28695297 42.96762276 C7.16825164 42.98509981 6.04955031 43.00257685 4.89694893 43.02058351 C-2.78979236 42.93292052 -8.06519761 41.05464948 -14.11493301 36.24609566 C-16.61493301 33.18359566 -16.61493301 33.18359566 -18.11493301 30.24609566 C-18.52743301 29.48297066 -18.93993301 28.71984566 -19.36493301 27.93359566 C-21.0282651 21.97332234 -20.86372311 17.04038522 -17.98993301 11.49609566 C-13.81457095 4.71852495 -8.18178272 -0.00692198 0 0 Z " fill="#A3F4FE" transform="translate(105.11493301391602,149.75390434265137)"/>
<path d="M0 0 C1.0170874 -0.00256327 1.0170874 -0.00256327 2.05472201 -0.00517833 C4.3195235 -0.00846422 6.58402661 0.00251539 8.84880066 0.01345825 C10.47513319 0.01402256 12.10146623 0.01370542 13.72779846 0.01257324 C18.13856343 0.0119995 22.54921958 0.02375734 26.95995927 0.03772116 C31.57106871 0.05022488 36.18218066 0.05139873 40.79330444 0.05377197 C49.52319792 0.05998779 58.2530413 0.0764 66.98291272 0.09647095 C76.92237304 0.11882677 86.86183575 0.12982259 96.80131495 0.13986182 C117.24580725 0.16076613 137.69023087 0.19744366 158.13468933 0.24050903 C158.13468933 14.10050903 158.13468933 27.96050903 158.13468933 42.24050903 C136.74225355 42.30824509 115.34990468 42.36350195 93.95738888 42.39594555 C84.02434384 42.41141046 74.09137019 42.43249284 64.15837097 42.46682739 C55.50016229 42.49674121 46.84200532 42.51608677 38.1837464 42.52277452 C33.59980815 42.52668341 29.01601782 42.53586208 24.432127 42.5576992 C20.11559011 42.57809564 15.79926177 42.58433645 11.48268127 42.57983208 C9.90046619 42.58065587 8.31824397 42.58660274 6.73607063 42.59812546 C4.57062965 42.61311946 2.40596924 42.60943813 0.24050903 42.60127258 C-1.57496225 42.60542065 -1.57496225 42.60542065 -3.42710972 42.60965252 C-11.17967153 41.77729637 -15.65517521 38.02388296 -20.61531067 32.17800903 C-23.79438936 27.25043706 -23.55260316 20.87943154 -22.86531067 15.24050903 C-20.40234894 8.93447771 -15.65002868 4.11371609 -9.60689259 1.12272835 C-6.28024068 0.05223815 -3.49593922 -0.00531702 0 0 Z " fill="#A3F4FE" transform="translate(65.86531066894531,234.75949096679688)"/>
<path d="M0 0 C1.08251038 -0.00137466 2.16502075 -0.00274933 3.28033447 -0.00416565 C4.4628479 -0.00057037 5.64536133 0.0030249 6.8637085 0.00672913 C8.11274963 0.0065831 9.36179077 0.00643707 10.64868164 0.00628662 C14.06984696 0.00686378 17.49095188 0.01187798 20.91210651 0.01886058 C24.48888788 0.0251132 28.06567006 0.02569943 31.64245605 0.02688599 C38.41386355 0.02999367 45.18525488 0.03819948 51.95665526 0.04823548 C59.66639354 0.05941408 67.37613258 0.06491147 75.08587694 0.06993091 C90.94379655 0.08038255 106.80169902 0.09817262 122.65960693 0.12025452 C122.65960693 7.05025452 122.65960693 13.98025452 122.65960693 21.12025452 C120.39361633 21.12572296 120.39361633 21.12572296 118.08184814 21.13130188 C103.83896748 21.16825765 89.59633484 21.22580069 75.35363007 21.30415726 C68.03146512 21.34391448 60.70940714 21.37632372 53.387146 21.39125061 C47.002753 21.40428444 40.61859567 21.43129289 34.23433542 21.47486758 C30.85593757 21.49744395 27.47782995 21.51316753 24.09934998 21.51213837 C20.32155083 21.51450569 16.54466961 21.54156966 12.76702881 21.57435608 C11.65500092 21.56932571 10.54297302 21.56429535 9.39724731 21.55911255 C2.35862213 21.65349789 -3.55776309 22.52006378 -8.82361603 27.53194046 C-10.36888564 29.25625233 -10.36888564 29.25625233 -12.34039307 32.12025452 C-12.93851807 32.86275452 -13.53664307 33.60525452 -14.15289307 34.37025452 C-16.25254357 39.23260304 -16.18459275 44.27108057 -14.68414307 49.33509827 C-12.09174784 55.1568134 -7.84294863 59.50038993 -2.05001545 62.17951012 C0.78217139 63.16280724 2.90574148 63.38027183 5.89247131 63.39872742 C7.44257149 63.41547264 7.44257149 63.41547264 9.02398682 63.43255615 C10.14680054 63.43471634 11.26961426 63.43687653 12.42645264 63.43910217 C13.61711838 63.4491478 14.80778412 63.45919342 16.03453064 63.46954346 C19.29033733 63.49510123 22.54604923 63.51197721 25.8019259 63.52497149 C29.20792085 63.540625 32.61382799 63.56740811 36.01976013 63.59300232 C42.46526658 63.63975087 48.91078962 63.67651391 55.35637873 63.70967519 C62.69619167 63.74792436 70.03591634 63.79732717 77.37565482 63.84765935 C92.47024117 63.95092082 107.56488052 64.03980435 122.65960693 64.12025452 C122.65960693 71.05025452 122.65960693 77.98025452 122.65960693 85.12025452 C106.2908711 85.21306111 89.92224469 85.28434034 73.55330944 85.3275032 C65.95201315 85.34808192 58.35088388 85.37611203 50.74969482 85.42201233 C44.1203839 85.46202461 37.49119401 85.48772139 30.86176568 85.4966085 C27.35519784 85.50179909 23.84897609 85.51389911 20.34251976 85.54317474 C16.41714629 85.57567863 12.49210377 85.57620474 8.56658936 85.57435608 C6.84459572 85.59592773 6.84459572 85.59592773 5.08781433 85.61793518 C-6.07433392 85.5612998 -14.9417218 82.50036352 -23.34039307 75.12025452 C-23.94625244 74.6188092 -24.55211182 74.11736389 -25.17633057 73.60072327 C-31.66406429 67.77876134 -36.74783673 58.89501236 -37.51739502 50.09657288 C-37.9455544 35.16899224 -36.50091873 23.84086089 -26.34039307 12.12025452 C-18.84073985 5.07921319 -10.43699795 -0.01023235 0 0 Z " fill="#8B1300" transform="translate(101.34039306640625,298.87974548339844)"/>
<path d="M0 0 C1.55010017 -0.00412399 1.55010017 -0.00412399 3.1315155 -0.0083313 C4.25432922 -0.00114075 5.37714294 0.0060498 6.53398132 0.01345825 C7.72464706 0.0131662 8.91531281 0.01287415 10.14205933 0.01257324 C13.39792686 0.01372605 16.65362144 0.02374164 19.90945458 0.03772116 C23.31539165 0.050242 26.72133229 0.05140008 30.12728882 0.05377197 C36.572861 0.05998277 43.01836516 0.07638815 49.46390742 0.09647095 C56.80365648 0.11884243 64.14340882 0.12982652 71.4831835 0.13986182 C86.57787831 0.16075475 101.67248479 0.19742596 116.76713562 0.24050903 C116.76713562 14.43050903 116.76713562 28.62050903 116.76713562 43.24050903 C100.99846921 43.33090975 85.23000913 43.4045492 69.46115875 43.44775772 C62.13890282 43.46835617 54.81681968 43.4964244 47.49467468 43.54226685 C41.11040327 43.5822183 34.72625706 43.6079616 28.34186411 43.61686301 C24.96337791 43.62206383 21.58524976 43.63422988 18.20687866 43.66342926 C14.42922309 43.69250303 10.65230711 43.69646317 6.8745575 43.6946106 C5.20651566 43.71618225 5.20651566 43.71618225 3.504776 43.7381897 C-4.19432108 43.69738612 -9.52562887 42.48918405 -15.47505188 37.27566528 C-20.47729278 31.23228812 -22.84495616 26.86290785 -22.67817688 18.86941528 C-21.66546699 12.89087358 -17.6045632 8.24195967 -13.17036438 4.30300903 C-8.80276401 1.23639601 -5.33211452 -0.01098273 0 0 Z " fill="#A2F4FE" transform="translate(107.23286437988281,319.7594909667969)"/>
<path d="M0 0 C0.66 0.33 1.32 0.66 2 1 C1.65066406 1.67546875 1.30132812 2.3509375 0.94140625 3.046875 C0.48636719 3.93890625 0.03132813 4.8309375 -0.4375 5.75 C-0.88996094 6.63171875 -1.34242187 7.5134375 -1.80859375 8.421875 C-6.10363681 17.71606653 -4.48722136 28.83830232 -1.22265625 38.23828125 C3.62522542 50.28516316 11.76370774 57.20639299 23.40714264 62.56931782 C28.99263288 64.61711218 34.54178569 64.4234978 40.42712402 64.39872742 C41.66719223 64.40537424 42.90726045 64.41202107 44.18490648 64.41886932 C47.61026179 64.43425027 51.03515152 64.43634531 54.46050787 64.43273985 C58.16050535 64.43211452 61.8604308 64.44874988 65.56039429 64.46325684 C71.96527138 64.48602193 78.37009416 64.49792433 84.77500916 64.50238609 C94.0353522 64.50885279 103.29559716 64.5317993 112.55590063 64.55872939 C127.58119859 64.60197897 142.60649242 64.63195617 157.63183594 64.65356445 C172.22495557 64.67457962 186.81804137 64.70185942 201.41113281 64.73754883 C202.31110369 64.73974765 203.21107457 64.74194648 204.13831729 64.74421193 C208.65334199 64.75528172 213.16836637 64.7664745 217.68339062 64.77772844 C255.12223122 64.87088765 292.5610885 64.94249762 330 65 C328.74065775 68.88297195 327.62367531 71.00363428 324 73 C321.57943052 73.37719816 321.57943052 73.37719816 318.8220892 73.38031673 C317.76892322 73.38875668 316.71575725 73.39719662 315.63067716 73.40589231 C314.47476546 73.39988227 313.31885376 73.39387222 312.12791443 73.38768005 C310.2845805 73.39575836 310.2845805 73.39575836 308.40400749 73.40399987 C304.9908377 73.41584853 301.57815495 73.41419985 298.16500413 73.40683305 C294.48450651 73.40211132 290.80406173 73.41460275 287.12358093 73.42485046 C279.91073162 73.44206646 272.69796932 73.44287227 265.48510479 73.43763756 C259.62001044 73.43359794 253.75494183 73.43503696 247.88984871 73.44038582 C246.63818694 73.44150845 246.63818694 73.44150845 245.36123906 73.44265376 C243.66605424 73.44418525 241.97086942 73.44572359 240.2756846 73.44726873 C224.36807383 73.46100521 208.46051219 73.45554922 192.55290253 73.44408352 C178.01085449 73.43416154 163.46893388 73.44707182 148.92690551 73.47101771 C133.9913386 73.4954259 119.055831 73.50501164 104.12024456 73.49836498 C95.73677148 73.49487508 87.35339626 73.49708904 78.96993828 73.51461601 C71.82896403 73.52935999 64.68815647 73.52994543 57.54718541 73.5125451 C53.90628643 73.50404852 50.2656849 73.501852 46.62480164 73.51719666 C42.67004024 73.53365695 38.71573478 73.51885915 34.76097107 73.50120544 C33.05052609 73.51561295 33.05052609 73.51561295 31.30552667 73.53031152 C19.05642429 73.41810882 8.89532434 69.27187729 -0.16015625 61.03515625 C-8.89810211 52.00322343 -12.26738064 41.16806344 -12.24658203 28.85083008 C-12.06530653 18.54420011 -8.48867283 8.80630436 -1.3125 1.21484375 C-0.6628125 0.61349609 -0.6628125 0.61349609 0 0 Z " fill="#01ADC1" transform="translate(33,55)"/>
<path d="M0 0 C0.98128372 -0.00852997 1.96256744 -0.01705994 2.97358704 -0.02584839 C4.04381607 -0.02494202 5.1140451 -0.02403564 6.21670532 -0.02310181 C7.34881943 -0.02981903 8.48093353 -0.03653625 9.64735413 -0.04345703 C13.39528779 -0.06247765 17.14304278 -0.06636328 20.89102173 -0.06851196 C23.49410069 -0.07493692 26.09717892 -0.08166505 28.70025635 -0.08868408 C34.15936447 -0.10147035 39.61842409 -0.10444944 45.07754517 -0.10317993 C51.38059344 -0.10197872 57.68329917 -0.12307763 63.98626077 -0.15466726 C70.05713279 -0.18400573 76.12784085 -0.19115511 82.19878006 -0.18996048 C84.77838159 -0.19232183 87.35798562 -0.2011752 89.93754196 -0.21662521 C93.54520886 -0.23620991 97.15199311 -0.2304758 100.75967407 -0.21841431 C102.35894493 -0.23527283 102.35894493 -0.23527283 103.99052429 -0.25247192 C110.00981441 -0.20130717 113.56357719 0.19989894 118.11758423 4.26742554 C120.57899669 7.95954424 120.8040863 10.98097358 120.11758423 15.26742554 C117.94336259 18.83936109 115.95163429 20.70176036 112.11758423 22.26742554 C109.81492043 22.52469444 109.81492043 22.52469444 107.23516846 22.53485107 C105.76324287 22.54764603 105.76324287 22.54764603 104.26158142 22.56069946 C102.65623787 22.5593399 102.65623787 22.5593399 101.01846313 22.55795288 C99.32029198 22.56802872 99.32029198 22.56802872 97.58781433 22.57830811 C93.83988066 22.59732872 90.09212568 22.60121435 86.34414673 22.60336304 C83.74106777 22.60978799 81.13798954 22.61651612 78.53491211 22.62353516 C73.07580399 22.63632142 67.61674437 22.63930052 62.15762329 22.63803101 C55.85457502 22.6368298 49.55186929 22.6579287 43.24890769 22.68951833 C37.17803567 22.7188568 31.10732761 22.72600619 25.0363884 22.72481155 C22.45678686 22.7271729 19.87718284 22.73602627 17.2976265 22.75147629 C13.6899596 22.77106098 10.08317535 22.76532687 6.47549438 22.75326538 C4.87622353 22.7701239 4.87622353 22.7701239 3.24464417 22.787323 C-2.77464595 22.73615825 -6.32840873 22.33495214 -10.88241577 18.26742554 C-13.34382824 14.57530684 -13.56891784 11.55387749 -12.88241577 7.26742554 C-9.62475095 1.91554762 -6.16589257 0.02427547 0 0 Z " fill="#F7FBFB" transform="translate(332.8824157714844,340.7325744628906)"/>
<path d="M0 0 C1.05447521 -0.00199105 2.10895043 -0.0039821 3.19537944 -0.00603348 C4.35781635 -0.00312064 5.52025326 -0.0002078 6.71791553 0.00279331 C7.94962807 0.00193889 9.18134061 0.00108446 10.45037776 0.00020415 C13.87549463 -0.0011612 17.30055472 0.00197558 20.72566473 0.00698221 C24.41685304 0.01129165 28.10803951 0.00983993 31.79922962 0.00907993 C38.1965543 0.00855501 44.59386879 0.0116985 50.99119091 0.01731777 C60.24069955 0.02543707 69.49020326 0.02804843 78.73971508 0.02930576 C93.74561969 0.0314956 108.75151888 0.03815386 123.75742054 0.04760838 C138.3361963 0.05678424 152.9149706 0.06386422 167.49374866 0.06811619 C168.39204616 0.06837891 169.29034366 0.06864164 170.2158623 0.06891232 C174.72225583 0.07021734 179.22864938 0.07148105 183.73504293 0.07272422 C221.13337511 0.08309472 258.53170111 0.1007112 295.93002796 0.12304783 C293.62454758 6.12710737 293.62454758 6.12710737 290.93002796 8.12304783 C287.48037553 8.9861547 284.26211757 9.24795434 280.71439362 9.24774647 C279.67828687 9.25013742 278.64218013 9.25252837 277.57467622 9.25499177 C276.44297669 9.25255928 275.31127715 9.25012679 274.1452837 9.24762058 C272.9379246 9.24903073 271.73056551 9.25044088 270.48661977 9.25189376 C267.83723494 9.25428273 265.18792246 9.2548476 262.53854465 9.25233746 C258.22753965 9.24827332 253.91655426 9.25104914 249.60554981 9.2546854 C244.15754028 9.25877433 238.70953514 9.261015 233.26152406 9.26110139 C222.55524633 9.26130422 211.84901385 9.27376927 201.14275074 9.2907114 C199.45679974 9.29331716 197.77084872 9.29591597 196.0848977 9.29850793 C193.52986929 9.30244631 190.9748409 9.30639285 188.41981256 9.31036915 C178.7890235 9.32531257 169.15823308 9.33893867 159.52744007 9.35107517 C158.64714409 9.35218873 157.76684811 9.35330229 156.85987649 9.3544496 C142.59396855 9.37202556 128.32808898 9.37489357 114.06217202 9.37322477 C99.41244564 9.37194553 84.7628248 9.38968543 70.11313897 9.42424273 C61.07879343 9.4448888 52.04470069 9.45023317 43.01034174 9.43591443 C36.81822009 9.42745224 30.62629495 9.43719492 24.43421479 9.46122393 C20.86248576 9.47452449 17.29122813 9.4797319 13.71950245 9.46310329 C9.84465196 9.44526309 5.97054964 9.46608349 2.09572315 9.4905405 C0.97071579 9.47918513 -0.15429158 9.46782975 -1.31339008 9.45613027 C-9.72282383 9.55941808 -14.46255807 11.78618991 -20.56997204 17.43554783 C-21.06497204 17.99242283 -21.55997204 18.54929783 -22.06997204 19.12304783 C-21.58824715 14.06493647 -20.32939318 11.0343532 -17.06997204 7.12304783 C-11.57943167 2.86365937 -7.07008891 -0.00293975 0 0 Z " fill="#CB5D09" transform="translate(110.06997203826904,140.87695217132568)"/>
<path d="M0 0 C0.98694855 -0.00571014 1.97389709 -0.01142029 2.99075317 -0.01730347 C4.0775235 -0.01842133 5.16429382 -0.01953918 6.28399658 -0.02069092 C7.4255722 -0.02565582 8.56714783 -0.03062073 9.74331665 -0.03573608 C13.53455195 -0.05038731 17.32574539 -0.05716505 21.11700439 -0.06268311 C23.74536135 -0.06843262 26.37371828 -0.07419037 29.0020752 -0.07995605 C33.81422345 -0.08953154 38.62636263 -0.0954256 43.43851924 -0.09845281 C50.51674676 -0.10293005 57.59478084 -0.12046074 64.67294955 -0.1494534 C70.80573312 -0.17369993 76.93843702 -0.18139842 83.07126617 -0.18312836 C85.67877505 -0.18615752 88.28628305 -0.19419485 90.89376068 -0.20731354 C94.54221761 -0.22435738 98.19020355 -0.22249737 101.83868408 -0.21600342 C102.91735748 -0.2252182 103.99603088 -0.23443298 105.10739136 -0.243927 C110.56190882 -0.21349603 114.67635776 -0.07168755 119.32012939 3.14044189 C121.99918669 7.15902784 122.01623633 10.41685911 121.32012939 15.14044189 C119.52619272 18.01074058 118.33749663 19.63175828 115.32012939 21.14044189 C113.72247097 21.24360855 112.12059214 21.28424994 110.51963806 21.29434204 C109.50600189 21.3029425 108.49236572 21.31154297 107.44801331 21.32040405 C106.33161972 21.324664 105.21522614 21.32892395 104.06500244 21.33331299 C102.89255981 21.34149048 101.72011719 21.34966797 100.512146 21.35809326 C96.61872725 21.38297723 92.72531608 21.39962062 88.83184814 21.41387939 C87.49158026 21.41923918 86.15131244 21.42461668 84.81104469 21.43001175 C79.2359075 21.45164012 73.6607732 21.47037684 68.08560467 21.48163414 C60.09549254 21.49787376 52.10586669 21.53105136 44.11593789 21.58803499 C38.49803143 21.62673554 32.88025503 21.64626691 27.26221877 21.6515547 C23.90671014 21.65520813 20.55172015 21.66722664 17.19635582 21.69965744 C13.45167157 21.73116113 9.70822109 21.73136722 5.96343994 21.72393799 C4.85311905 21.74034332 3.74279816 21.75674866 2.59883118 21.77365112 C-4.92252198 21.71243744 -4.92252198 21.71243744 -8.85240173 18.74435425 C-11.53313028 14.92465462 -12.25774948 11.77161203 -11.67987061 7.14044189 C-8.93193849 1.95708758 -5.69275317 0.01967846 0 0 Z " fill="#FEFEFE" transform="translate(331.67987060546875,287.85955810546875)"/>
<path d="M0 0 C1.01501083 -0.00852997 2.03002167 -0.01705994 3.07579041 -0.02584839 C4.18858871 -0.02494202 5.30138702 -0.02403564 6.44790649 -0.02310181 C7.62049515 -0.02981903 8.7930838 -0.03653625 10.00120544 -0.04345703 C13.21824334 -0.05921543 16.43512641 -0.06581299 19.65219831 -0.0670886 C21.66254883 -0.06851009 23.6728723 -0.07277965 25.68321609 -0.07808304 C32.69805875 -0.09658837 39.71282539 -0.1047531 46.72769165 -0.10317993 C53.26419713 -0.10197864 59.80037235 -0.1230769 66.33679426 -0.15466726 C71.95049033 -0.1808302 77.56407854 -0.19154722 83.17783511 -0.19026911 C86.52987247 -0.18975944 89.8816164 -0.19544481 93.23359299 -0.21662521 C96.97327968 -0.2361816 100.71211283 -0.23048689 104.45181274 -0.21841431 C105.56056259 -0.22965332 106.66931244 -0.24089233 107.81166077 -0.25247192 C115.31833014 -0.19077276 115.31833014 -0.19077276 119.24346924 2.17279053 C122.19287001 5.53806391 122.31268487 7.83336315 122.2237854 12.30258179 C122.03609236 14.85419257 121.71010958 16.26592115 120.07925415 18.26742554 C114.48326505 21.99261392 109.14139018 21.70505611 102.6612854 21.68734741 C101.51912567 21.69581696 100.37696594 21.7042865 99.20019531 21.7130127 C95.4306012 21.73638233 91.66141518 21.73740493 87.89175415 21.73617554 C85.26911251 21.74327627 82.64647243 21.75097514 80.02383423 21.75924683 C74.52957853 21.77383524 69.03543636 21.77444163 63.54116821 21.7684021 C57.19822573 21.76175788 50.85586425 21.78464663 44.51303959 21.82171583 C38.39941953 21.85614327 32.28607353 21.86274748 26.17236328 21.85862732 C23.57601184 21.86032131 20.97965293 21.86999047 18.38336182 21.88777161 C14.75417887 21.90989453 11.12640085 21.90029173 7.4972229 21.88265991 C6.42483368 21.89592316 5.35244446 21.9091864 4.24755859 21.92285156 C-3.87818635 21.83107856 -3.87818635 21.83107856 -7.57748413 18.87155151 C-10.57385097 15.5416133 -10.88827968 13.73551746 -11.0965271 9.41976929 C-10.84685126 6.36262731 -9.89129466 4.58985807 -7.92074585 2.26742554 C-4.6681221 0.09900971 -3.75985554 0.01427106 0 0 Z " fill="#FEFEFE" transform="translate(330.9207458496094,394.7325744628906)"/>
<path d="M0 0 C1.01501083 -0.00852997 2.03002167 -0.01705994 3.07579041 -0.02584839 C4.18858871 -0.02494202 5.30138702 -0.02403564 6.44790649 -0.02310181 C7.62049515 -0.02981903 8.7930838 -0.03653625 10.00120544 -0.04345703 C13.21824334 -0.05921543 16.43512641 -0.06581299 19.65219831 -0.0670886 C21.66254883 -0.06851009 23.6728723 -0.07277965 25.68321609 -0.07808304 C32.69805875 -0.09658837 39.71282539 -0.1047531 46.72769165 -0.10317993 C53.26419713 -0.10197864 59.80037235 -0.1230769 66.33679426 -0.15466726 C71.95049033 -0.1808302 77.56407854 -0.19154722 83.17783511 -0.19026911 C86.52987247 -0.18975944 89.8816164 -0.19544481 93.23359299 -0.21662521 C96.97327968 -0.2361816 100.71211283 -0.23048689 104.45181274 -0.21841431 C105.56056259 -0.22965332 106.66931244 -0.24089233 107.81166077 -0.25247192 C115.31833014 -0.19077276 115.31833014 -0.19077276 119.24346924 2.17279053 C122.19287001 5.53806391 122.31268487 7.83336315 122.2237854 12.30258179 C122.03609236 14.85419257 121.71010958 16.26592115 120.07925415 18.26742554 C114.48326505 21.99261392 109.14139018 21.70505611 102.6612854 21.68734741 C101.51912567 21.69581696 100.37696594 21.7042865 99.20019531 21.7130127 C95.4306012 21.73638233 91.66141518 21.73740493 87.89175415 21.73617554 C85.26911251 21.74327627 82.64647243 21.75097514 80.02383423 21.75924683 C74.52957853 21.77383524 69.03543636 21.77444163 63.54116821 21.7684021 C57.19822573 21.76175788 50.85586425 21.78464663 44.51303959 21.82171583 C38.39941953 21.85614327 32.28607353 21.86274748 26.17236328 21.85862732 C23.57601184 21.86032131 20.97965293 21.86999047 18.38336182 21.88777161 C14.75417887 21.90989453 11.12640085 21.90029173 7.4972229 21.88265991 C6.42483368 21.89592316 5.35244446 21.9091864 4.24755859 21.92285156 C-3.87818635 21.83107856 -3.87818635 21.83107856 -7.57748413 18.87155151 C-10.57385097 15.5416133 -10.88827968 13.73551746 -11.0965271 9.41976929 C-10.84685126 6.36262731 -9.89129466 4.58985807 -7.92074585 2.26742554 C-4.6681221 0.09900971 -3.75985554 0.01427106 0 0 Z " fill="#FEFEFE" transform="translate(330.9207458496094,234.73257446289063)"/>
<path d="M0 0 C1.05596756 -0.00199105 2.11193512 -0.0039821 3.1999017 -0.00603348 C4.3691424 -0.00312064 5.5383831 -0.0002078 6.74305534 0.00279331 C7.97799701 0.00193889 9.21293867 0.00108446 10.48530281 0.00020415 C13.92408045 -0.00116266 17.36280171 0.00197962 20.80157256 0.00698221 C24.50573017 0.01128741 28.20988593 0.00984023 31.91404533 0.00907993 C38.33539686 0.00855474 44.75673826 0.01170103 51.17808723 0.01731777 C60.46236096 0.02543343 69.74662977 0.02804806 79.03090666 0.02930576 C94.09282644 0.03149618 109.1547408 0.03815598 124.21665764 0.04760838 C138.85077195 0.05678276 153.48488479 0.06386347 168.11900139 0.06811619 C169.02054861 0.06837891 169.92209582 0.06864164 170.85096265 0.06891232 C175.37361089 0.07021733 179.89625915 0.07148104 184.4189074 0.07272422 C221.95842823 0.08309651 259.4979429 0.10071455 297.03745842 0.12304783 C295.77815458 4.00590134 294.6598296 6.12502133 291.03745842 8.12304783 C288.63908505 8.49745268 288.63908505 8.49745268 285.91363716 8.49663544 C284.35201343 8.50712006 284.35201343 8.50712006 282.75884175 8.51781648 C281.61644748 8.51024043 280.47405322 8.50266437 279.29704094 8.49485874 C278.08236916 8.49868331 276.86769739 8.50250787 275.61621737 8.50644833 C272.24285089 8.51413778 268.86998241 8.50841068 265.49665737 8.49715149 C261.85917276 8.48830805 258.22172549 8.49679827 254.58424187 8.50335789 C248.27969557 8.5125207 241.97522203 8.51118072 235.67067528 8.50317287 C226.54662053 8.49194846 217.4226696 8.50097622 208.29862389 8.51573468 C193.48435698 8.53951706 178.67010287 8.55287354 163.85581779 8.55688572 C162.96897508 8.55713059 162.08213237 8.55737546 161.16841564 8.55762774 C151.27731018 8.56017287 141.38620572 8.56074091 131.49510002 8.55969334 C127.91026116 8.55936032 124.32542229 8.55907492 120.74058342 8.55883884 C119.85603286 8.55877606 118.97148229 8.55871327 118.06012717 8.55864858 C103.30649211 8.55804359 88.55291612 8.57293244 73.79930568 8.5996719 C64.69978584 8.61547572 55.60045667 8.61773635 46.50093481 8.60253788 C40.26352004 8.59306978 34.02622015 8.59783296 27.78881887 8.6137517 C24.19081962 8.62244415 20.59312565 8.62459128 16.99514198 8.60922527 C13.09188121 8.59268878 9.18907596 8.60703881 5.28581047 8.62425327 C3.5856034 8.60954311 3.5856034 8.60954311 1.85104871 8.59453577 C-4.88141578 8.65598508 -9.22159297 9.53618568 -14.96254158 13.12304783 C-17.07491001 15.15049235 -17.07491001 15.15049235 -18.46254158 17.37304783 C-18.94722908 18.07945408 -19.43191658 18.78586033 -19.93129158 19.51367283 C-20.27160408 20.04476658 -20.61191658 20.57586033 -20.96254158 21.12304783 C-21.95905629 18.51770215 -22.06961661 17.40516725 -21.06410408 14.75586033 C-16.34528271 6.74135419 -9.75724522 -0.00404194 0 0 Z " fill="#00ABBF" transform="translate(65.9625415802002,55.876952171325684)"/>
<path d="M0 0 C1 2 1 2 0.22265625 4.6171875 C-0.16019531 5.69226563 -0.54304688 6.76734375 -0.9375 7.875 C-4.75879148 19.85455046 -3.57687745 30.76820629 1.625 42.0625 C7.57025971 53.27031018 16.75963039 59.75464403 28.8122673 63.57433987 C31.62910112 64.12240219 34.30501155 64.14141729 37.17559814 64.15821838 C38.44321991 64.1680072 39.71084167 64.17779602 41.01687622 64.18788147 C42.41912804 64.19378527 43.82138026 64.19959574 45.22363281 64.20532227 C46.70203931 64.21490372 48.18044308 64.22491396 49.65884399 64.23532104 C53.67085843 64.2623472 57.6828846 64.28336915 61.69493961 64.30332303 C65.88834329 64.3251967 70.08171089 64.35257864 74.27508545 64.37937927 C82.21519236 64.42928747 90.15531932 64.47423325 98.09546542 64.51740164 C107.13531325 64.56679001 116.17512488 64.62170221 125.21493769 64.67708123 C143.80992504 64.79087253 162.40494709 64.89752185 181 65 C181 60.71 181 56.42 181 52 C130.84 52 80.68 52 29 52 C29 51.67 29 51.34 29 51 C82.79 51 136.58 51 192 51 C192 58.26 192 65.52 192 73 C170.30280556 73.09274193 148.60565914 73.16405312 126.90830612 73.20724869 C116.83300767 73.22784153 106.75783493 73.25589927 96.68261719 73.30175781 C87.8972767 73.34172614 79.11202729 73.36745662 70.32659841 73.37635398 C65.67817609 73.38155184 61.03001425 73.39369988 56.38167572 73.42292023 C51.99859921 73.45024756 47.6158883 73.45841033 43.23273468 73.45243073 C41.63164782 73.45352327 40.03054761 73.46137348 38.42953491 73.4768219 C23.90424787 73.61000008 12.02774429 71.07912113 1 61 C-7.80302809 51.36845162 -11.65384725 40.92832617 -11.47094727 27.9362793 C-10.96857891 16.81355065 -6.7878429 8.61827244 0 0 Z " fill="#CC1F03" transform="translate(32,226)"/>
<path d="M0 0 C1.21385805 -0.00256327 2.4277161 -0.00512655 3.67835772 -0.0077675 C7.03986384 -0.01185034 10.40084441 -0.00249126 13.7622869 0.01256669 C17.39002696 0.02553436 21.01775109 0.02113707 24.64550781 0.01885986 C30.9282248 0.01728759 37.21084825 0.02669197 43.49354172 0.04357338 C52.57722166 0.06796506 61.66085642 0.07576882 70.74456556 0.07953735 C85.4826189 0.08610157 100.2206224 0.10606194 114.95864868 0.13444519 C129.27440135 0.16198652 143.59014049 0.18321974 157.90591431 0.19596863 C158.78848866 0.1967568 159.67106301 0.19754497 160.58038203 0.19835702 C165.00804323 0.20227216 169.43570453 0.20606328 173.86336589 0.20979273 C210.58933519 0.24088772 247.31524782 0.29372273 284.04116821 0.36076355 C284.04116821 2.34076355 284.04116821 4.32076355 284.04116821 6.36076355 C283.41153105 6.36212008 282.78189388 6.36347661 282.1331768 6.36487424 C244.81448297 6.44552703 207.49582745 6.53648276 170.17719203 6.64081516 C165.69614133 6.65333401 161.21509039 6.66576679 156.73403931 6.67814636 C155.39589631 6.68184535 155.39589631 6.68184535 154.03072011 6.68561907 C139.58668146 6.72534107 125.14263499 6.75809089 110.69857359 6.78826337 C95.87726882 6.81937909 81.05599723 6.85798903 66.23472977 6.90355361 C57.08947649 6.93143245 47.94424748 6.95346812 38.79896313 6.96802606 C32.5274185 6.97856943 26.25592087 6.99639326 19.98441166 7.01993059 C16.36628122 7.033295 12.74821664 7.04346044 9.1300602 7.04497719 C5.20477628 7.04670671 1.27964314 7.06377277 -2.64559937 7.08229065 C-3.78569017 7.08035591 -4.92578098 7.07842118 -6.10042 7.07642782 C-12.07167725 7.11858376 -17.23796366 7.62065119 -22.95883179 9.36076355 C-16.45426588 0.75177926 -10.47423812 -0.0806964 0 0 Z " fill="#84C7CF" transform="translate(111.95883178710938,149.6392364501953)"/>
<path d="M0 0 C1.20739979 -0.0034177 2.41479959 -0.0068354 3.65878725 -0.01035666 C6.99312943 -0.01578867 10.32652373 -0.0033563 13.66075087 0.01675558 C17.26255178 0.03408137 20.86432512 0.02818027 24.46615601 0.02514648 C30.70085026 0.02305235 36.93537665 0.035568 43.17002869 0.05809784 C52.18418263 0.09065056 61.19825566 0.10102819 70.21246201 0.10604981 C84.83850535 0.11479733 99.46445928 0.14139818 114.0904541 0.17926025 C128.29552769 0.21599439 142.50057696 0.24429928 156.70568848 0.2612915 C158.01980084 0.26286784 158.01980084 0.26286784 159.36046094 0.26447603 C163.75561266 0.2696963 168.15076455 0.27475111 172.54591656 0.27972364 C208.98953645 0.32116879 245.43305471 0.39160244 281.87658691 0.48101807 C281.87658691 2.46101807 281.87658691 4.44101807 281.87658691 6.48101807 C281.2540571 6.4823746 280.63152728 6.48373112 279.99013293 6.48512876 C243.0804855 6.56580765 206.17087672 6.65677407 169.2612882 6.76106968 C164.82787887 6.7735883 160.3944693 6.78602111 155.96105957 6.79840088 C155.0784607 6.80086687 154.19586183 6.80333287 153.28651755 6.80587359 C139.00226001 6.84557945 124.71799458 6.8783364 110.43371411 6.90851788 C95.77286125 6.93964998 81.11204184 6.97826691 66.45122659 7.02380812 C57.4073204 7.05166622 48.36343861 7.07371086 39.31950109 7.08828057 C33.11475389 7.09883607 26.910054 7.11667269 20.70534249 7.1401851 C17.12746953 7.15352979 13.54966279 7.1637119 9.97176361 7.1652317 C6.08659034 7.16696627 2.20156828 7.18405778 -1.68356323 7.20254517 C-2.80615551 7.20061043 -3.92874779 7.1986757 -5.08535802 7.19668233 C-11.65842031 7.24337249 -17.73425955 7.91961678 -24.12341309 9.48101807 C-18.12058623 0.47677779 -10.09933792 -0.10500383 0 0 Z " fill="#81C4CC" transform="translate(71.1234130859375,63.51898193359375)"/>
<path d="M0 0 C1.11587442 3.34762327 0.82632761 3.76123943 0 7 C-0.95153812 20.85189921 0.83446569 32.96308049 10 44 C15.91379782 50.43369213 25.10607723 56.53851011 34.07143688 57.1386652 C35.27299404 57.14834403 35.27299404 57.14834403 36.49882507 57.15821838 C37.88072525 57.17290161 37.88072525 57.17290161 39.2905426 57.18788147 C40.29898727 57.19363693 41.30743195 57.1993924 42.34643555 57.20532227 C43.41001282 57.21522186 44.47359009 57.22512146 45.56939697 57.23532104 C49.09181477 57.26695825 52.61424606 57.29170235 56.13671875 57.31640625 C58.5762416 57.33697385 61.01576088 57.35797027 63.45527649 57.37937927 C69.88157251 57.43461992 76.3079008 57.48402046 82.73425293 57.53222656 C89.28966143 57.582427 95.84502298 57.63812068 102.40039062 57.69335938 C115.26688698 57.80096534 128.13342409 57.90240494 141 58 C141 53.71 141 49.42 141 45 C144.63 45 148.26 45 152 45 C152 51.93 152 58.86 152 66 C135.63126416 66.09280659 119.26263775 66.16408582 102.89370251 66.20724869 C95.29240621 66.2278274 87.69127694 66.25585752 80.09008789 66.30175781 C73.46077697 66.34177009 66.83158708 66.36746687 60.20215875 66.37635398 C56.69559091 66.38154457 53.18936916 66.3936446 49.68291283 66.42292023 C45.75753935 66.45542411 41.83249684 66.45595023 37.90698242 66.45410156 C36.18498878 66.47567322 36.18498878 66.47567322 34.4282074 66.49768066 C23.26605915 66.44104529 14.39867126 63.380109 6 56 C5.39414063 55.49855469 4.78828125 54.99710937 4.1640625 54.48046875 C-2.32367123 48.65850682 -7.40744367 39.77475784 -8.17700195 30.97631836 C-8.76029757 10.63998376 -8.76029757 10.63998376 -4 3 C-1.859375 1.21875 -1.859375 1.21875 0 0 Z " fill="#5C0F03" transform="translate(72,318)"/>
<path d="M0 0 C0.85712696 2.39995548 1.22584094 3.51605512 0.125 5.875 C-0.24625 6.57625 -0.6175 7.2775 -1 8 C-3.05140951 17.89588389 -3.39270346 28.7363552 1 38 C1.3403125 38.74636719 1.680625 39.49273437 2.03125 40.26171875 C7.835852 51.81209232 16.98996362 57.77990133 28.95680237 62.05673218 C34.13196231 63.49547421 39.3844758 63.30825294 44.71850586 63.31884766 C45.88020294 63.32889328 47.04190002 63.3389389 48.23880005 63.34928894 C52.06414309 63.38008641 55.88941625 63.39714683 59.71484375 63.4140625 C62.37285879 63.4327769 65.03085726 63.45225493 67.68885803 63.4727478 C73.96075894 63.51943296 80.23267686 63.55622652 86.5046621 63.58942068 C93.64863748 63.62771485 100.79252286 63.67710576 107.93642223 63.72740483 C122.62421183 63.83057189 137.31206614 63.91988155 152 64 C151.34 66.64 150.68 69.28 150 72 C94.56 72 39.12 72 -18 72 C-18 71.67 -18 71.34 -18 71 C-6.12 70.67 5.76 70.34 18 70 C14.37 68.02 10.74 66.04 7 64 C-1.84978958 57.49280178 -7.57118154 48.78714678 -10 38 C-11.33198382 25.86724362 -10.59706837 14.22920322 -3.5546875 3.875 C-2.1875 2.1875 -2.1875 2.1875 0 0 Z " fill="#CE5909" transform="translate(74,142)"/>
<path d="M0 0 C0 6.93 0 13.86 0 21 C-3.07405151 21.00546844 -3.07405151 21.00546844 -6.21020508 21.01104736 C-25.51539281 21.04728197 -44.82042511 21.10548574 -64.12548828 21.18390274 C-74.0506212 21.22369077 -83.97567486 21.25608448 -93.90087891 21.27099609 C-102.55296163 21.28401381 -111.20486994 21.31098159 -119.85685444 21.35461307 C-124.4368985 21.37722514 -129.01672745 21.39291083 -133.59683228 21.39188385 C-137.91105448 21.39113709 -142.22480122 21.40909422 -146.53890038 21.44116783 C-148.11904926 21.44966065 -149.69925151 21.45142094 -151.27941322 21.44580269 C-162.73775649 21.37082006 -162.73775649 21.37082006 -173 26 C-174.88937667 27.90783143 -176.39401087 29.82719118 -178 32 C-178.66 32.66 -179.32 33.32 -180 34 C-179.6815224 26.35653764 -175.99977453 21.84593994 -170.5625 16.6875 C-162.63135638 11.46455176 -155.74919245 11.584686 -146.43579102 11.65942383 C-144.95694496 11.6602709 -143.47809764 11.6597934 -141.99925232 11.65809631 C-137.99968285 11.65723804 -134.00038508 11.67483636 -130.00087857 11.69581819 C-125.81553617 11.71461315 -121.63018706 11.71633765 -117.44480896 11.71989441 C-109.52597193 11.72920661 -101.60725964 11.75380917 -93.68847746 11.78394288 C-84.67036648 11.81751262 -75.65224944 11.83397936 -66.6340915 11.84902918 C-48.0893237 11.88035949 -29.54467189 11.93310389 -11 12 C-10.82210937 10.35837891 -10.82210937 10.35837891 -10.640625 8.68359375 C-9.47939478 2.00651998 -6.61662589 0 0 0 Z " fill="#CF1E02" transform="translate(224,214)"/>
<path d="M0 0 C0.67976711 -0.00256327 1.35953423 -0.00512655 2.05990034 -0.0077675 C4.31862885 -0.012676 6.57667636 0.00373787 8.83534241 0.02018738 C10.46196985 0.02103429 12.08859844 0.02055726 13.71522522 0.01885986 C18.11766404 0.01800099 22.51985643 0.0356093 26.92223811 0.05658174 C31.52799011 0.07536647 36.13374808 0.07710039 40.73953247 0.08065796 C49.45522324 0.08997315 58.1708008 0.11457981 66.88644177 0.14470643 C76.81142952 0.17826681 86.73642274 0.19474057 96.66145313 0.20979273 C117.07243937 0.24112985 137.48327045 0.29613535 157.8941803 0.36076355 C157.8941803 14.22076355 157.8941803 28.08076355 157.8941803 42.36076355 C154.2641803 42.36076355 150.6341803 42.36076355 146.8941803 42.36076355 C146.8941803 30.48076355 146.8941803 18.60076355 146.8941803 6.36076355 C126.44887344 6.42367433 106.00373226 6.49888299 85.55856419 6.59647846 C76.06506016 6.64140271 66.57159337 6.68082516 57.07801819 6.7071991 C48.80133604 6.73020647 40.52477205 6.7636351 32.24818367 6.80946511 C27.86767361 6.8333604 23.48728031 6.85211336 19.10670662 6.85837746 C14.97886047 6.86444506 10.85131291 6.8845051 6.7235775 6.91503906 C5.21318768 6.92379252 3.7027588 6.92754748 2.19234467 6.92577171 C-5.76627895 6.91937238 -12.6704208 7.25785647 -20.1058197 10.36076355 C-14.43289765 3.02747406 -9.48336202 -0.021668 0 0 Z " fill="#82C5CD" transform="translate(66.10581970214844,234.6392364501953)"/>
<path d="M0 0 C1.19095779 -0.00043808 2.38191559 -0.00087616 3.60896301 -0.00132751 C6.85653597 0.0003979 10.10371539 0.01538859 13.35121036 0.03639436 C16.75178726 0.05521525 20.15237282 0.05691584 23.55299377 0.06047058 C29.98437417 0.06977523 36.41560063 0.0943674 42.8469134 0.12451905 C50.17218664 0.15811248 57.49746744 0.17456145 64.82279861 0.18960536 C79.88399997 0.22091855 94.94500151 0.27591063 110.00610352 0.34057617 C110.00610352 14.53057617 110.00610352 28.72057617 110.00610352 43.34057617 C69.74610352 43.34057617 29.48610352 43.34057617 -11.99389648 43.34057617 C-11.99389648 43.01057617 -11.99389648 42.68057617 -11.99389648 42.34057617 C24.63610352 42.34057617 61.26610352 42.34057617 99.00610352 42.34057617 C99.00610352 30.46057617 99.00610352 18.58057617 99.00610352 6.34057617 C84.61023215 6.40361819 70.21457197 6.47913426 55.81888962 6.57629108 C49.13358497 6.62111266 42.44834336 6.66019149 35.76293945 6.68701172 C29.30483965 6.71312066 22.84697119 6.75357701 16.3890152 6.80376244 C13.93164204 6.82037983 11.47422891 6.83192589 9.01680756 6.83819008 C5.56084743 6.84788689 2.10547239 6.87601341 -1.3503418 6.90820312 C-2.3544812 6.90676804 -3.35862061 6.90533295 -4.39318848 6.90385437 C-11.5982325 6.99806614 -18.08121668 8.34055064 -24.99389648 10.34057617 C-17.75919493 0.98840099 -11.53149637 -0.11148633 0 0 Z " fill="#84C1C8" transform="translate(113.993896484375,319.659423828125)"/>
<path d="M0 0 C3.63 0 7.26 0 11 0 C11 6.93 11 13.86 11 21 C8.7340094 21.00546844 8.7340094 21.00546844 6.42224121 21.01104736 C-7.82063945 21.04800313 -22.06327209 21.10554618 -36.30597687 21.18390274 C-43.62814181 21.22365997 -50.9501998 21.2560692 -58.27246094 21.27099609 C-64.65685393 21.28402993 -71.04101126 21.31103837 -77.42527151 21.35461307 C-80.80366937 21.37718943 -84.18177698 21.39291301 -87.56025696 21.39188385 C-91.3380561 21.39425118 -95.11493732 21.42131514 -98.89257812 21.45410156 C-100.00460602 21.4490712 -101.11663391 21.44404083 -102.26235962 21.43885803 C-112.02411134 21.56975948 -117.85205436 24.56684892 -125 31 C-124.86524086 25.60963438 -122.62409833 22.8512964 -119.27734375 18.9296875 C-112.68062059 13.34001127 -106.54638675 12.42305695 -98.0859375 12.54589844 C-97.0216301 12.54531433 -95.95732269 12.54473022 -94.86076355 12.54412842 C-91.3651699 12.54690096 -87.87044353 12.57795493 -84.375 12.609375 C-81.94263169 12.61684031 -79.51025735 12.62253187 -77.07788086 12.62652588 C-70.69255818 12.6417592 -64.30760252 12.68102177 -57.92242432 12.7253418 C-51.40015629 12.76634384 -44.87782866 12.78454746 -38.35546875 12.8046875 C-25.57015172 12.84751777 -12.78510645 12.91574165 0 13 C0 8.71 0 4.42 0 0 Z " fill="#590C00" transform="translate(213,299)"/>
<path d="M0 0 C53.79 0 107.58 0 163 0 C163 7.26 163 14.52 163 22 C122.74 22 82.48 22 41 22 C41 21.67 41 21.34 41 21 C77.63 21 114.26 21 152 21 C152 14.4 152 7.8 152 1 C101.84 1 51.68 1 0 1 C0 0.67 0 0.34 0 0 Z " fill="#C84D38" transform="translate(61,277)"/>
<path d="M0 0 C3.24544251 0.04071344 4.2295947 0.30007938 7.125 2.0625 C10.47891566 5.61370482 10.47891566 5.61370482 11.25 8.3125 C11.05743088 13.60815084 9.94046589 16.51020181 6.25 20.3125 C3.04386153 21.91556924 -0.27139997 21.79990461 -3.75 21.3125 C-7.14890142 19.24360348 -9.63937011 17.19970463 -10.75 13.3125 C-10.66804478 8.80496294 -10.23833209 6.8740819 -7.25 3.4375 C-6.0125 2.385625 -6.0125 2.385625 -4.75 1.3125 C-3.75 0.3125 -3.75 0.3125 0 0 Z " fill="#F7FBFB" transform="translate(287.75,287.6875)"/>
<path d="M0 0 C3.2561101 1.89446406 5.3487671 3.30400843 6.73046875 6.90234375 C7.50486623 10.89700797 7.16508779 12.6816164 5.25 16.375 C2.2306869 19.89753195 0.79380622 20.92318004 -3.875 21.375 C-8.01539255 21.28349961 -10.08332292 20.00506123 -13 17 C-14.87449615 13.2510077 -14.65855233 9.07279453 -14 5 C-10.93340724 -0.12607571 -5.49761044 -1.33341645 0 0 Z " fill="#F7FBFC" transform="translate(292,395)"/>
<path d="M0 0 C3.2561101 1.89446406 5.3487671 3.30400843 6.73046875 6.90234375 C7.50486623 10.89700797 7.16508779 12.6816164 5.25 16.375 C2.2306869 19.89753195 0.79380622 20.92318004 -3.875 21.375 C-8.01539255 21.28349961 -10.08332292 20.00506123 -13 17 C-14.87449615 13.2510077 -14.65855233 9.07279453 -14 5 C-10.93340724 -0.12607571 -5.49761044 -1.33341645 0 0 Z " fill="#F7FBFC" transform="translate(292,235)"/>
<path d="M0 0 C3.125 1.875 3.125 1.875 5 5 C5.98876625 10.02622846 5.7769173 13.70513784 3.125 18.125 C-1.29486216 20.7769173 -4.97377154 20.98876625 -10 20 C-13.125 18.125 -13.125 18.125 -15 15 C-15.98876625 9.97377154 -15.7769173 6.29486216 -13.125 1.875 C-8.70513784 -0.7769173 -5.02622846 -0.98876625 0 0 Z " fill="#FBFDFD" transform="translate(293,342)"/>
<path d="M0 0 C3.63 0 7.26 0 11 0 C11 6.93 11 13.86 11 21 C7.37 21 3.74 21 0 21 C0 14.07 0 7.14 0 0 Z " fill="#5A0C00" transform="translate(213,363)"/>
<path d="M0 0 C0 6.93 0 13.86 0 21 C-3.63 21 -7.26 21 -11 21 C-10.96683318 18.43409443 -10.89953481 15.87667934 -10.8125 13.3125 C-10.80669922 12.59126953 -10.80089844 11.87003906 -10.79492188 11.12695312 C-10.628245 7.07114927 -10.2559589 5.34529883 -7.76171875 1.98046875 C-5 0 -5 0 0 0 Z " fill="#CC1C00" transform="translate(224,214)"/>
<path d="M0 0 C3.63 0 7.26 0 11 0 C11 2.64 11 5.28 11 8 C7.37 8 3.74 8 0 8 C0 5.36 0 2.72 0 0 Z " fill="#2A0500" transform="translate(213,376)"/>
<path d="M0 0 C3.63 0 7.26 0 11 0 C11 2.64 11 5.28 11 8 C7.37 8 3.74 8 0 8 C0 5.36 0 2.72 0 0 Z " fill="#270500" transform="translate(213,312)"/>
<path d="M0 0 C3.63 0 7.26 0 11 0 C11 2.64 11 5.28 11 8 C7.37 8 3.74 8 0 8 C0 5.36 0 2.72 0 0 Z " fill="#991702" transform="translate(213,291)"/>
<path d="M0 0 C3.63 0 7.26 0 11 0 C11 2.64 11 5.28 11 8 C7.37 8 3.74 8 0 8 C0 5.36 0 2.72 0 0 Z " fill="#9B1702" transform="translate(213,227)"/>
<path d="M0 0 C3.63 0 7.26 0 11 0 C11 1.98 11 3.96 11 6 C7.37 6 3.74 6 0 6 C0 4.02 0 2.04 0 0 Z " fill="#62949A" transform="translate(213,320)"/>
<path d="M0 0 C3.63 0 7.26 0 11 0 C11 1.98 11 3.96 11 6 C7.37 6 3.74 6 0 6 C0 4.02 0 2.04 0 0 Z " fill="#62949A" transform="translate(213,235)"/>
<path d="M0 0 C0.66 0.33 1.32 0.66 2 1 C-0.43969017 5.78902145 -1.97529326 8.62722182 -7 11 C-5.5140084 6.40693504 -3.14985318 3.56430755 0 0 Z " fill="#15BED2" transform="translate(33,55)"/>
<path d="M0 0 C1 3 1 3 0.375 5 C-1.36380086 7.52916489 -3.31063318 8.58454378 -6 10 C-4.6302836 6.00499382 -2.74277578 3.19990508 0 0 Z " fill="#793A31" transform="translate(75,311)"/>
<path d="M0 0 C1 2 1 2 0.375 5 C-1 8 -1 8 -3.625 9.375 C-4.40875 9.58125 -5.1925 9.7875 -6 10 C-4.6302836 6.00499382 -2.74277578 3.19990508 0 0 Z " fill="#D1452F" transform="translate(32,226)"/>
<path d="M0 0 C0.625 1.875 0.625 1.875 1 4 C-0.95216435 5.95216435 -2.53199953 6.84826645 -5 8 C-3.8141763 4.62496331 -2.72426311 2.35277269 0 0 Z " fill="#D17028" transform="translate(74,142)"/>
</svg>
