<?xml version="1.0" standalone="no"?>
<!DOCTYPE svg PUBLIC "-//W3C//DTD SVG 20010904//EN"
 "http://www.w3.org/TR/2001/REC-SVG-20010904/DTD/svg10.dtd">
<svg version="1.0" xmlns="http://www.w3.org/2000/svg"
 width="1122.000000pt" height="1280.000000pt" viewBox="0 0 1122.000000 1280.000000"
 preserveAspectRatio="xMidYMid meet">
<metadata>
Created by potrace 1.15, written by Peter Selinger 2001-2017
</metadata>
<g transform="translate(0.000000,1280.000000) scale(0.100000,-0.100000)"
fill="#000000" stroke="none">
<path d="M2772 11198 l-2772 -1602 2 -3198 3 -3199 2769 -1600 c1523 -879
2777 -1599 2785 -1599 9 0 1285 733 2836 1629 l2820 1629 3 3188 2 3189 -2816
1580 c-1549 869 -2826 1581 -2838 1583 -13 1 -1086 -613 -2794 -1600z m5563
-79 l2765 -1551 0 -3122 -1 -3121 -2761 -1594 c-1519 -877 -2769 -1595 -2777
-1595 -9 -1 -1237 703 -2728 1564 l-2712 1565 2 3134 2 3134 2715 1569 c1493
862 2718 1568 2722 1568 4 0 1252 -698 2773 -1551z"/>
<path d="M5596 11958 l-54 -93 36 -21 c26 -15 4673 -2698 4764 -2750 3 -2 30
37 58 87 44 76 50 93 39 104 -13 11 -4777 2765 -4785 2765 -2 0 -28 -42 -58
-92z"/>
<path d="M677 6478 l3 -2773 105 -3 105 -3 0 2776 0 2775 -107 0 -108 0 2
-2772z"/>
<path d="M10345 3721 c-6 -5 -1072 -622 -2370 -1371 -1298 -749 -2372 -1370
-2386 -1379 l-27 -16 53 -90 c31 -53 58 -89 66 -87 15 4 4770 2749 4782 2761
9 9 -89 191 -102 191 -4 0 -11 -4 -16 -9z"/>
</g>
</svg>
