<?xml version="1.0" encoding="UTF-8"?>
<svg version="1.1" xmlns="http://www.w3.org/2000/svg" width="512" height="512">
<path d="M0 0 C1.55895595 -0.00417581 3.11790886 -0.00965469 4.67685616 -0.01631981 C8.94933096 -0.0307608 13.22161263 -0.02653392 17.49409795 -0.019153 C22.10634368 -0.01442028 26.71854769 -0.02693212 31.33078003 -0.03717041 C40.36220625 -0.05436186 49.39356291 -0.05519768 58.42500125 -0.04995751 C65.76645622 -0.04591512 73.10789064 -0.04736018 80.44934464 -0.05270576 C81.49446004 -0.05345419 82.53957544 -0.05420261 83.616361 -0.05497371 C85.73955742 -0.0565052 87.86275384 -0.05804355 89.98595025 -0.05958868 C109.89467734 -0.07331504 129.80336514 -0.06787513 149.71209134 -0.05640347 C167.92107121 -0.04647155 186.12994947 -0.05941081 204.33891366 -0.08333766 C223.04093103 -0.10772702 241.74290106 -0.11733689 260.44493401 -0.11068493 C270.94267807 -0.10719228 281.44034399 -0.10942784 291.93807602 -0.12693596 C300.87482468 -0.1416559 309.81144017 -0.14229609 318.74818622 -0.12486505 C323.30641387 -0.11635088 327.8644036 -0.11421568 332.42261887 -0.1295166 C336.59876644 -0.14336128 340.7744722 -0.13860349 344.9505942 -0.11927737 C346.45792416 -0.11551636 347.96528948 -0.11844228 349.47258793 -0.12888902 C361.04391663 -0.20335776 370.32134439 1.21070693 379.00100708 9.3993988 C385.35273074 16.59990514 388.24710075 25.23465023 388.00100708 34.7743988 C387.14403194 43.8746586 383.65198287 51.141666 376.72756958 57.14549255 C373.48629406 59.64435301 370.43685791 61.54670776 366.75491333 63.38768005 C366.75491333 141.59768005 366.75491333 219.80768005 366.75491333 300.38768005 C372.36491333 302.03768005 377.97491333 303.68768005 383.75491333 305.38768005 C410.57198952 316.34615305 432.28208233 336.79517899 443.67337036 363.54441833 C454.19978337 390.15400435 455.18143158 420.86787452 443.75491333 447.38768005 C431.1021653 475.29296636 409.58887321 496.08702425 380.79006958 506.92674255 C355.55700244 515.86803871 327.8143163 514.91053308 303.00491333 505.20018005 C302.38004028 504.95775574 301.75516724 504.71533142 301.11135864 504.46556091 C297.75459779 503.03992787 295.04882232 501.64134332 292.26042652 499.23476982 C280.87563649 490.04507075 268.34559216 491.13439101 254.32174408 491.30252361 C250.73005291 491.33553081 247.13857967 491.31588258 243.54681396 491.30282593 C237.33657366 491.28718333 231.12711195 491.30381183 224.91698265 491.34260941 C215.92873715 491.39844792 206.94106338 491.40126639 197.95267836 491.39103018 C183.35349993 491.3755469 168.75464566 491.39783045 154.1555481 491.4462738 C140.00450734 491.4931083 125.8535335 491.52957836 111.7024231 491.54685974 C110.83002616 491.54793347 109.95762922 491.54900719 109.05879601 491.55011345 C99.5295232 491.5614333 90.00025421 491.56854754 80.47097492 491.5706768 C79.63299578 491.57087215 78.79501663 491.57106749 77.93164418 491.57126876 C74.58139104 491.57199308 71.23113802 491.57267191 67.8808848 491.57281373 C58.08784458 491.57333315 48.29503037 491.58686443 38.50205759 491.62415259 C32.36242522 491.64721983 26.22282542 491.66058252 20.08315255 491.66639562 C16.54371263 491.67024472 13.00446905 491.6792117 9.46509361 491.70154762 C5.62413941 491.72576802 1.78337168 491.7267932 -2.05766296 491.72584534 C-3.16972746 491.73683199 -4.28179196 491.74781864 -5.42755538 491.75913823 C-16.22960228 491.71844383 -24.506382 489.1554776 -32.24508667 481.38768005 C-38.43696954 473.26414142 -41.3134933 464.61385777 -40.24508667 454.38768005 C-38.43062536 444.58348996 -33.52201822 438.0816543 -26.15133667 431.61424255 C-23.66205952 430.01253554 -21.05381013 429.28789973 -18.24508667 428.38768005 C-18.14378974 381.99093822 -18.09493576 335.59439948 -18.11661565 289.19754338 C-18.11912892 283.72251093 -18.1212071 278.2474784 -18.12301636 272.77244568 C-18.12338387 271.68244515 -18.12375138 270.59244462 -18.12413003 269.46941377 C-18.12904604 251.81005442 -18.09869808 234.15092224 -18.05536412 216.49162291 C-18.01169707 198.37741417 -18.00581868 180.26347876 -18.03516877 162.14923966 C-18.05209053 150.96763034 -18.03938325 139.78685496 -17.98901744 128.60534294 C-17.95732095 120.94227124 -17.96226326 113.27977438 -17.99624269 105.61671452 C-18.01477255 101.19223056 -18.01693225 96.76930279 -17.97565651 92.34493828 C-17.93822927 88.2949291 -17.946752 84.24772541 -17.99202992 80.19782044 C-18.0002709 78.73203773 -17.99155847 77.26604265 -17.96430002 75.80049025 C-17.88934644 71.48307871 -17.93830513 67.52120288 -19.24508667 63.38768005 C-22.26251952 60.47640545 -25.43524824 59.03019893 -29.24508667 57.38768005 C-36.19749752 50.7065828 -39.63678607 42.77139834 -40.23727417 33.21580505 C-40.26152221 24.43801351 -37.68382732 17.29917137 -32.24508667 10.38768005 C-22.57398826 0.87746868 -12.94399554 -0.05636874 0 0 Z M45.75491333 64.38768005 C45.75491333 183.84768005 45.75491333 303.30768005 45.75491333 426.38768005 C52.68491333 426.38768005 59.61491333 426.38768005 66.75491333 426.38768005 C66.75322144 421.45218201 66.75322144 421.45218201 66.75149536 416.41697693 C66.75212336 405.53635894 66.78560782 394.65601985 66.83519173 383.77552032 C66.86424328 377.17967306 66.88228416 370.58418118 66.87503052 363.98826599 C66.86843538 357.6208011 66.89093463 351.25403836 66.93346786 344.88671875 C66.94459551 342.4595286 66.94530242 340.03226722 66.93533707 337.60507202 C66.92315219 334.20045247 66.94827124 330.79797196 66.98196411 327.39353943 C66.96974319 326.3937204 66.95752228 325.39390137 66.94493103 324.36378479 C67.07072097 317.29331805 69.00197465 313.53998613 73.75491333 308.38768005 C74.75998102 307.19965565 75.76292852 306.00983071 76.76272583 304.81736755 C77.79919934 303.63020637 78.83834277 302.4453718 79.87991333 301.26268005 C81.027394 299.9491795 82.17452145 298.63537031 83.32131958 297.3212738 C83.89511353 296.66497986 84.46890747 296.00868591 85.06008911 295.33250427 C87.66346831 292.34510602 90.24162154 289.33636485 92.81741333 286.32518005 C93.30806274 285.75203064 93.79871216 285.17888123 94.30422974 284.58836365 C95.29329732 283.43288048 96.28223004 282.27728186 97.27102661 281.12156677 C99.26435589 278.79240841 101.25953427 276.46483828 103.25491333 274.13743591 C104.24861687 272.97827685 105.24210922 271.8189367 106.23538208 270.65940857 C108.84353089 267.61499539 111.45503598 264.57354409 114.07131958 261.53611755 C114.61465942 260.90447693 115.15799927 260.2728363 115.71780396 259.62205505 C116.75584345 258.41544504 117.79484928 257.20966544 118.83499146 256.00486755 C121.24494018 253.20152528 123.58568308 250.38224034 125.75491333 247.38768005 C124.1668143 243.46257621 121.46547275 240.84221072 118.49490356 237.93235779 C117.95977142 237.40014618 117.42463928 236.86793457 116.87329102 236.31959534 C115.71382297 235.16772322 114.55205057 234.01816702 113.38824272 232.87067986 C111.54739602 231.05538638 109.71289295 229.23389455 107.87992859 227.41064453 C103.98964559 223.54320235 100.0915936 219.68364907 96.19241333 215.82518005 C91.67065148 211.35058347 87.1521141 206.87283071 82.6419239 202.38656807 C80.83282348 200.59045157 79.01781313 198.80045401 77.20252991 197.0105896 C76.09656858 195.91189174 74.99088619 194.81291301 73.88552856 193.71360779 C73.37797531 193.21638718 72.87042206 192.71916656 72.3474884 192.20687866 C68.50822396 188.36878774 67.63539472 185.76832853 67.59669495 180.43328857 C67.58690613 179.41105194 67.57711731 178.38881531 67.56703186 177.33560181 C67.5612764 176.21494827 67.55552094 175.09429474 67.54959106 173.93968201 C67.53969147 172.75906189 67.52979187 171.57844177 67.51959229 170.36204529 C67.49340099 167.12473561 67.47154036 163.88743114 67.4515903 160.65007806 C67.4297218 157.26678328 67.40233734 153.88353329 67.37553406 150.50027466 C67.32561885 144.09365059 67.28067568 137.68700165 67.23751169 131.28032893 C67.1881293 123.98653548 67.13321489 116.69278698 67.0778321 109.399037 C66.96403005 94.39529302 66.85738337 79.39150602 66.75491333 64.38768005 C59.82491333 64.38768005 52.89491333 64.38768005 45.75491333 64.38768005 Z M280.75491333 64.38768005 C280.74904709 65.89247421 280.74318085 67.39726837 280.73713684 68.94766235 C280.67996362 83.11786751 280.60740783 97.28790074 280.51919842 111.45794201 C280.47424239 118.74318177 280.43482734 126.02837267 280.40847778 133.31370544 C280.38549606 139.6639794 280.35209625 146.01409871 280.30621177 152.36425 C280.28228167 155.72629768 280.2635516 159.08819221 280.25729942 162.4503231 C280.24769874 166.20465843 280.21968631 169.95843318 280.18728638 173.71263123 C280.18872147 174.82609421 280.19015656 175.93955719 280.19163513 177.08676147 C280.17909698 178.11174744 280.16655884 179.1367334 280.15364075 180.19277954 C280.1467273 181.52430951 280.1467273 181.52430951 280.13967419 182.88273907 C279.27592862 188.50605452 275.26268329 192.16261642 271.36550903 196.00413513 C270.82862457 196.54131165 270.29174011 197.07848816 269.73858643 197.63194275 C267.97399121 199.39515166 266.20243235 201.15118213 264.43069458 202.9072113 C263.20143221 204.13274106 261.97261251 205.35871497 260.74421692 206.58511353 C257.51821939 209.80349416 254.28625984 213.01582187 251.05300903 216.22691345 C247.75144433 219.50797784 244.45557121 222.79474858 241.15921021 226.08103943 C234.69665957 232.52217445 228.22779416 238.95692738 221.75491333 245.38768005 C225.85227775 253.94430693 233.16776382 260.90385745 239.50881958 267.8603363 C241.81678931 270.45730398 244.01047196 273.12172018 246.19241333 275.82518005 C249.26827921 279.62855508 252.44244499 283.28850657 255.75491333 286.88768005 C259.84427107 291.33730578 263.72310806 295.90756426 267.51272583 300.61424255 C269.07109464 302.54184161 270.65091816 304.45221244 272.24710083 306.34861755 C273.45753052 307.79107849 273.45753052 307.79107849 274.69241333 309.26268005 C275.42331177 310.12635193 276.15421021 310.9900238 276.90725708 311.87986755 C278.71217966 314.3296779 279.77373913 316.52121303 280.75491333 319.38768005 C282.14903442 318.59103943 282.14903442 318.59103943 283.57131958 317.77830505 C289.6325175 314.31476339 295.69371541 310.85122172 301.75491333 307.38768005 C301.75491333 227.19768005 301.75491333 147.00768005 301.75491333 64.38768005 C294.82491333 64.38768005 287.89491333 64.38768005 280.75491333 64.38768005 Z " fill="#000000" transform="translate(50.245086669921875,-0.3876800537109375)"/>
<path d="M0 0 C56.1 0 112.2 0 170 0 C177.9496353 108.98693557 177.9496353 108.98693557 158.22162247 132.7158165 C146.36206994 146.22182147 132.2592419 158.14638194 117.45193481 168.32528687 C111.00054638 172.47870665 111.00054638 172.47870665 107.11433411 178.77095032 C107.0062114 183.95718834 108.09375356 187.33567482 111.6875 191.1875 C112.50992188 192.10273438 113.33234375 193.01796875 114.1796875 193.9609375 C114.8598291 194.68941895 114.8598291 194.68941895 115.55371094 195.43261719 C117.65230065 197.70691596 119.65742612 200.05826303 121.67333984 202.40576172 C123.33164654 204.33477204 125.00035859 206.25430518 126.671875 208.171875 C129.81941579 211.78734287 132.9453653 215.42080557 136.0625 219.0625 C136.55339111 219.63589111 137.04428223 220.20928223 137.55004883 220.80004883 C138.53885203 221.95530518 139.52754049 223.11065976 140.51611328 224.26611328 C142.50936793 226.59518445 144.50447814 228.92266193 146.49975586 231.25 C147.49421955 232.41001884 148.48852481 233.57017353 149.48266602 234.73046875 C152.07963025 237.76132695 154.67882193 240.79023767 157.28125 243.81640625 C157.82007813 244.44353516 158.35890625 245.07066406 158.9140625 245.71679688 C159.93941633 246.91009659 160.96541414 248.10284338 161.9921875 249.29492188 C162.91506596 250.36948893 163.83180687 251.44936661 164.74145508 252.53515625 C165.87328855 253.8525182 167.07941948 255.10516372 168.29296875 256.34765625 C172.1655166 262.36472716 171.30036892 271.18639504 170 278 C168.15698871 282.86881732 165.09574776 287.01246298 162.14550781 291.26318359 C148.21527974 312.38416451 148.8133086 338.94639461 151 363 C100.84 363 50.68 363 -1 363 C-1.185625 346.21125 -1.37125 329.4225 -1.5625 312.125 C-1.64443604 306.83871582 -1.72637207 301.55243164 -1.81079102 296.10595703 C-1.85144043 289.61303711 -1.85144043 289.61303711 -1.85899353 286.56613159 C-1.87274629 284.45389711 -1.90426153 282.34173004 -1.95018005 280.22994995 C-2.3643354 260.16697972 -2.3643354 260.16697972 3.39672852 253.72021484 C4.89759467 252.43973256 6.42803924 251.1921298 8 250 C9.51829791 248.18179139 11.02309652 246.35199007 12.5 244.5 C16.11032442 240.03723787 19.88427929 235.77280467 23.75 231.53125 C26.07862053 228.9115519 28.29562947 226.2248469 30.5 223.5 C33.4081338 219.9052235 36.38541332 216.41739372 39.5 213 C43.39747736 208.71683477 47.10120049 204.31408316 50.71484375 199.7890625 C52.27661351 197.88290248 53.89779877 196.02431001 55.56640625 194.2109375 C56.39011719 193.29570312 57.21382812 192.38046875 58.0625 191.4375 C58.81660156 190.63183594 59.57070312 189.82617188 60.34765625 188.99609375 C62.34561958 185.37330918 62.98261952 182.89215521 62.89060974 178.76600647 C61.07490448 173.12688949 55.2093561 170.15472331 50.51891708 166.93040085 C28.64760092 151.5715244 2.54707789 131.27933719 -2.41968727 103.62183952 C-7.20936111 69.3060221 -2.4930697 34.17918143 0 0 Z " fill="#FEBD1D" transform="translate(139,64)"/>
<path d="M0 0 C4.26002984 3.3967059 8.14784157 7.15344879 12 11 C12.66902344 11.65742188 13.33804688 12.31484375 14.02734375 12.9921875 C19.57014972 18.8492115 23.24754337 25.93027317 27 33 C27.41378906 33.74894531 27.82757813 34.49789062 28.25390625 35.26953125 C37.04582937 52.74994309 37.5295834 74.71434012 31.64160156 93.078125 C31.42987305 93.71234375 31.21814453 94.3465625 31 95 C30.78569336 95.64453125 30.57138672 96.2890625 30.35058594 96.953125 C23.08288339 118.11091989 8.38190265 135.54482444 -11.51171875 145.8125 C-14.96697438 147.36020689 -18.44211599 148.70769253 -22 150 C-22.98097656 150.4125 -23.96195312 150.825 -24.97265625 151.25 C-45.77276218 158.82323705 -70.35265142 154.73876745 -89.890625 145.65625 C-97.02298341 141.98817996 -103.01419004 137.30955051 -109 132 C-109.71027344 131.38511719 -110.42054688 130.77023437 -111.15234375 130.13671875 C-125.16053347 117.18261064 -135.01499861 95.8245218 -136.12402344 76.8815918 C-136.92180526 53.17712993 -131.50605228 31.82134935 -115.5 13.75 C-114.00604962 12.1609573 -112.50653759 10.57711412 -111 9 C-110.45988281 8.38511719 -109.91976563 7.77023437 -109.36328125 7.13671875 C-81.52510084 -23.36607339 -32.1099493 -22.14049544 0 0 Z " fill="#FEBD1D" transform="translate(445,336)"/>
<path d="M0 0 C0.33 0 0.66 0 1 0 C1.10609085 0.85697983 1.2121817 1.71395966 1.32148743 2.59690857 C2.32676598 10.70387348 3.34094046 18.80966633 4.36492634 26.91429043 C4.89095978 31.08021214 5.41363829 35.24649589 5.9284668 39.41381836 C6.42615755 43.4413773 6.93289948 47.46770619 7.44573021 51.49336433 C7.63906587 53.02340981 7.82922941 54.55385983 8.01604652 56.08471489 C9.14971907 69.3204099 9.14971907 69.3204099 14.625 81.0625 C19.35917893 82.93125484 24.08967469 82.62293217 28.875 81.0625 C35.23027436 74.89414548 35.04088875 63.57653769 36.0078125 55.296875 C36.17962211 53.88671432 36.35231669 52.47666122 36.52584839 51.06671143 C36.97739872 47.38058272 37.41815134 43.69324751 37.85620117 40.00549316 C38.47664435 34.79934939 39.11194606 29.59499406 39.74557495 24.39044189 C40.08219228 21.62522112 40.41472866 18.85955816 40.743927 16.09344482 C40.89433441 14.84154358 41.04474182 13.58964233 41.19970703 12.29980469 C41.33055695 11.20110046 41.46140686 10.10239624 41.59622192 8.97039795 C41.96163214 6.28225358 42.43339546 3.65214733 43 1 C43.57363281 1.72960937 44.14726562 2.45921875 44.73828125 3.2109375 C46.81251609 5.76880222 48.96103006 8.19981052 51.1875 10.625 C54.40151374 14.1704096 57.49078517 17.77932457 60.5 21.5 C63.4081338 25.0947765 66.38541332 28.58260628 69.5 32 C73.41891252 36.29991791 77.09170869 40.75919547 80.75 45.28125 C82.93501569 47.92147729 85.19171391 50.4672972 87.5 53 C91.41492112 57.29753121 95.11465828 61.73551753 98.76171875 66.26171875 C100.81790627 68.86983283 100.81790627 68.86983283 102.57104492 70.57275391 C106.29125415 74.42201014 107.79001964 77.22358706 107.98583984 82.60864258 C107.9698877 83.39779053 107.95393555 84.18693848 107.9375 85 C107.92928223 85.83233154 107.92106445 86.66466309 107.91259766 87.5222168 C107.48996914 95.98531228 103.8524493 101.48139852 99.14550781 108.26318359 C85.21527974 129.38416451 85.8133086 155.94639461 88 180 C37.84 180 -12.32 180 -64 180 C-64.185625 163.21125 -64.37125 146.4225 -64.5625 129.125 C-64.64443604 123.83871582 -64.72637207 118.55243164 -64.81079102 113.10595703 C-64.85144043 106.61303711 -64.85144043 106.61303711 -64.85899353 103.56613159 C-64.87274629 101.45389711 -64.90426153 99.34173004 -64.95018005 97.22994995 C-65.3643354 77.16697972 -65.3643354 77.16697972 -59.60327148 70.72021484 C-58.10240533 69.43973256 -56.57196076 68.1921298 -55 67 C-53.48170209 65.18179139 -51.97690348 63.35199007 -50.5 61.5 C-46.88967558 57.03723787 -43.11572071 52.77280467 -39.25 48.53125 C-36.92137947 45.9115519 -34.70437053 43.2248469 -32.5 40.5 C-29.5918662 36.9052235 -26.61458668 33.41739372 -23.5 30 C-19.60716548 25.72193706 -15.91600344 21.31505356 -12.28125 16.81640625 C-10.69169523 14.85395935 -9.08623817 12.90433188 -7.46875 10.96484375 C-6.6540625 9.98644531 -5.839375 9.00804687 -5 8 C-4.2575 7.113125 -3.515 6.22625 -2.75 5.3125 C-0.83480263 3.03826445 -0.83480263 3.03826445 0 0 Z " fill="#FEFEFD" transform="translate(202,247)"/>
<path d="M0 0 C56.1 0 112.2 0 170 0 C170 26.4 170 52.8 170 80 C165.15651501 79.1927525 161.27896697 78.05312717 156.8125 76.25 C141.6835186 70.39824086 126.06940532 67.0220129 110 65 C109.25274658 64.90428711 108.50549316 64.80857422 107.7355957 64.70996094 C73.00864772 60.72811835 39.83462128 66.80376088 7.17797852 78.32324219 C4.83157004 79.05233582 2.40935881 79.51812824 0 80 C0 53.6 0 27.2 0 0 Z " fill="#FFFEFE" transform="translate(139,64)"/>
<path d="M0 0 C1.28615357 -0.00644889 2.57230715 -0.01289778 3.89743507 -0.0195421 C5.32786464 -0.01659971 6.75829383 -0.01346426 8.18872261 -0.01015663 C9.70582751 -0.01389201 11.22293049 -0.01849308 12.74003041 -0.02388728 C16.91521049 -0.03614653 21.09031062 -0.03585338 25.2655046 -0.03349853 C29.76594455 -0.0330911 34.26635862 -0.04412238 38.76678658 -0.05361366 C47.58618 -0.07024045 56.40554669 -0.07572396 65.22495447 -0.07683842 C72.39205103 -0.07778806 79.55913876 -0.08189414 86.72623253 -0.08823967 C107.03642089 -0.10585634 127.3465881 -0.11507783 147.65678416 -0.11357872 C148.75216058 -0.11349881 149.847537 -0.1134189 150.97610664 -0.11333656 C152.07281701 -0.1132548 153.16952738 -0.11317304 154.29947139 -0.1130888 C172.07814785 -0.11227569 189.85673962 -0.13141865 207.63539158 -0.1596133 C225.88073345 -0.18832027 244.126034 -0.20215481 262.37139904 -0.20042574 C272.61868815 -0.19976111 282.86588848 -0.20528573 293.11315727 -0.22678185 C301.83711224 -0.24496485 310.56093819 -0.24936471 319.28490387 -0.235763 C323.73730118 -0.22921887 328.18945076 -0.22916805 332.64182472 -0.2464695 C336.71676252 -0.26214165 340.79125496 -0.25939703 344.86618151 -0.24190123 C346.34126183 -0.23881836 347.81637492 -0.242512 349.29141663 -0.25362138 C351.29525631 -0.26771534 353.29923165 -0.25478109 355.30307007 -0.24050903 C356.41652011 -0.24094377 357.52997015 -0.24137851 358.6771611 -0.24182642 C362.5555944 0.38255217 364.71889821 1.83285527 367.77737617 4.25726891 C370.23878864 7.9493876 370.46387825 10.97081695 369.77737617 15.25726891 C367.61046744 18.81719039 365.62700932 20.74489519 361.77737617 22.25726891 C358.92785943 22.51026857 358.92785943 22.51026857 355.55475235 22.51453781 C354.26859878 22.5209867 352.9824452 22.5274356 351.65731728 22.53407991 C350.22688771 22.53113752 348.79645852 22.52800208 347.36602974 22.52469444 C345.84892483 22.52842982 344.33182186 22.53303089 342.81472194 22.53842509 C338.63954186 22.55068434 334.46444173 22.55039119 330.28924775 22.54803634 C325.7888078 22.54762891 321.28839373 22.55866019 316.78796577 22.56815147 C307.96857235 22.58477827 299.14920566 22.59026177 290.32979788 22.59137623 C283.16270132 22.59232587 275.99561359 22.59643195 268.82851982 22.60277748 C248.51833146 22.62039415 228.20816425 22.62961564 207.89796819 22.62811653 C206.80259177 22.62803662 205.70721535 22.62795671 204.57864571 22.62787437 C203.48193534 22.62779261 202.38522497 22.62771085 201.25528096 22.62762661 C183.4766045 22.6268135 165.69801273 22.64595646 147.91936077 22.67415111 C129.6740189 22.70285808 111.42871835 22.71669262 93.1833533 22.71496356 C82.9360642 22.71429892 72.68886387 22.71982354 62.44159508 22.74131966 C53.71764011 22.75950266 44.99381416 22.76390252 36.26984848 22.75030081 C31.81745117 22.74375668 27.36530159 22.74370587 22.91292763 22.76100731 C18.83798983 22.77667946 14.76349739 22.77393484 10.68857084 22.75643905 C9.21349052 22.75335617 7.73837743 22.75704981 6.26333572 22.7681592 C4.25949604 22.78225315 2.2555207 22.7693189 0.25168228 22.75504684 C-0.86176776 22.75548158 -1.9752178 22.75591632 -3.12240875 22.75636423 C-7.53598862 22.04583383 -10.88231426 20.0240406 -13.59762383 16.44476891 C-14.52440615 13.20103076 -14.57603278 10.61465398 -14.22262383 7.25726891 C-10.48429031 1.24923289 -6.86584302 0.0086899 0 0 Z " fill="#786B62" transform="translate(46.22262382507324,20.74273109436035)"/>
<path d="M0 0 C7.26 0 14.52 0 22 0 C22 119.79 22 239.58 22 363 C14.74 363 7.48 363 0 363 C0 243.21 0 123.42 0 0 Z " fill="#F7B81C" transform="translate(53,64)"/>
<path d="M0 0 C0.33 0 0.66 0 1 0 C1.33 21.45 1.66 42.9 2 65 C7.61 62.69 13.22 60.38 19 58 C22.40651458 56.83808805 25.73787103 55.73235683 29.1875 54.75 C30.02643799 54.50604492 30.86537598 54.26208984 31.72973633 54.01074219 C38.75883772 52.00108235 45.79108403 50.24263278 53 49 C54.17046875 48.79503906 55.3409375 48.59007812 56.546875 48.37890625 C85.03476202 44.2315733 115.55078366 46.28083716 143 55 C143.95519531 55.30292969 144.91039062 55.60585938 145.89453125 55.91796875 C147.93815922 56.58662122 149.9710381 57.28808354 152 58 C151.9292627 58.58338135 151.85852539 59.1667627 151.78564453 59.76782227 C151.03222302 66.50955444 150.84907357 73.15773777 150.875 79.9375 C150.87113281 80.94490234 150.86726562 81.95230469 150.86328125 82.99023438 C150.86457031 83.99248047 150.86585938 84.99472656 150.8671875 86.02734375 C150.86887939 87.35366821 150.86887939 87.35366821 150.87060547 88.70678711 C151.05824369 93.48235681 151.56730662 98.24037286 152 103 C101.84 103 51.68 103 0 103 C0 69.01 0 35.02 0 0 Z " fill="#FBBB1D" transform="translate(138,324)"/>
<path d="M0 0 C0.90269816 -0.00199105 1.80539631 -0.0039821 2.73544896 -0.00603348 C4.23250742 -0.00166422 4.23250742 -0.00166422 5.75980949 0.00279331 C7.34270753 0.00151167 7.34270753 0.00151167 8.95758331 0.00020415 C12.51682821 -0.00145158 16.07602665 0.00407225 19.63526726 0.00952244 C22.17740185 0.00980432 24.71953652 0.00964657 27.26167107 0.00907993 C32.74666377 0.00885173 38.23164134 0.01170018 43.71663094 0.01731777 C51.64706481 0.02543466 59.57749293 0.02804819 67.5079305 0.02930576 C80.37362153 0.03149598 93.23930623 0.03815527 106.10499382 0.04760838 C118.6049935 0.05678326 131.10499146 0.06386372 143.60499382 0.06811619 C144.37511323 0.06837891 145.14523264 0.06864164 145.93868901 0.06891232 C149.80203811 0.07021733 153.66538723 0.07148104 157.52873635 0.07272422 C189.59403641 0.08309591 221.65932869 0.10071342 253.72462273 0.12304783 C254.33950554 1.22004002 254.95438835 2.3170322 255.58790398 3.44726658 C256.4042719 4.90171518 257.22068029 6.35614106 258.03712273 7.81054783 C258.64330437 8.89239353 258.64330437 8.89239353 259.2617321 9.9960947 C261.36367073 13.73857079 263.49040497 17.4571954 265.72462273 21.12304783 C231.28596839 21.23745194 196.84735739 21.32557567 162.40855413 21.37837448 C158.34423228 21.38462813 154.27991081 21.39109973 150.21558952 21.39770603 C149.40644447 21.39901758 148.59729942 21.40032914 147.76363482 21.40168043 C134.65607212 21.42344657 121.54861887 21.46287471 108.44112114 21.50881181 C94.99508627 21.5555429 81.5491088 21.58333612 68.10299605 21.5934903 C59.80364269 21.60035644 51.50459872 21.62205467 43.20534059 21.66263016 C37.51689796 21.68902727 31.82861565 21.69705575 26.14011619 21.69055472 C22.85629729 21.68734697 19.57313498 21.69503802 16.28938675 21.7190752 C12.73052301 21.74385506 9.17299628 21.73800646 5.61410332 21.72432041 C4.57422054 21.73888462 3.53433776 21.75344883 2.46294338 21.76845437 C-4.52904226 21.69548775 -4.52904226 21.69548775 -8.40079403 18.72584915 C-11.14075575 14.92149636 -11.85548894 11.77211172 -11.27537727 7.12304783 C-8.65096722 2.17269004 -5.49548793 -0.00266513 0 0 Z " fill="#7B6E65" transform="translate(43.27537727355957,447.8769521713257)"/>
<path d="M0 0 C7.26 0 14.52 0 22 0 C22 77.55 22 155.1 22 235 C11.11 235.99 11.11 235.99 0 237 C0 158.79 0 80.58 0 0 Z " fill="#F7B81C" transform="translate(373,64)"/>
<path d="M0 0 C6.93 0 13.86 0 21 0 C21 3.63 21 7.26 21 11 C28.26 11 35.52 11 43 11 C43 17.93 43 24.86 43 32 C40.53144531 32.03738281 38.06289063 32.07476562 35.51953125 32.11328125 C33.11994739 32.15953688 30.72051703 32.21075571 28.32104492 32.26245117 C26.65772892 32.29563655 24.99430204 32.32368834 23.33081055 32.34643555 C20.93490501 32.38009999 18.54000965 32.4324194 16.14453125 32.48828125 C15.4047554 32.49467117 14.66497955 32.5010611 13.90278625 32.50764465 C9.44706376 32.63357804 6.53331661 33.23555787 3 36 C0.51613941 39.72579089 0.6195788 41.58711402 1 46 C2.70822023 49.84349552 4.14487008 51.44870628 8 53 C10.07502849 53.34583808 12.1603884 53.63236737 14.25 53.875 C22.35250461 55.04546259 29.39970723 57.7488624 35 64 C40.85025228 72.35550385 43.98097933 79.7230737 43 90 C41.12139304 99.4088214 35.79003891 107.48205578 28 113 C26.906875 113.350625 25.81375 113.70125 24.6875 114.0625 C21.71937361 115.74353282 21.71937361 115.74353282 21.40234375 118.8515625 C21.14944307 121.89349464 21.06562841 124.94827871 21 128 C14.07 128 7.14 128 0 128 C0 124.7 0 121.4 0 118 C-6.93 118 -13.86 118 -21 118 C-21 110.74 -21 103.48 -21 96 C-18.45925781 95.98582031 -15.91851562 95.97164063 -13.30078125 95.95703125 C-10.83165325 95.92638997 -8.36279261 95.88730693 -5.89379883 95.84741211 C-4.18198141 95.82425975 -2.4700221 95.80984285 -0.75805664 95.80444336 C1.70776498 95.79513297 4.17136374 95.75410221 6.63671875 95.70703125 C7.39836838 95.7109639 8.16001801 95.71489655 8.94474792 95.71894836 C12.97458397 95.60906244 14.80654666 95.1551007 17.98999023 92.6027832 C20.13561735 89.82438764 20.59896823 88.80525025 20.375 85.375 C20.34148437 84.61960937 20.30796875 83.86421875 20.2734375 83.0859375 C20.04237669 80.81006177 20.04237669 80.81006177 19 78 C15.19212437 76.25043552 11.35884595 75.75861372 7.25 75.1875 C-2.37785057 73.61463332 -9.13718875 69.99150339 -15.3046875 62.36328125 C-21.3185845 53.9798534 -22.59873107 45.13034805 -21 35 C-18.43242642 26.52216272 -13.4439498 19.83856737 -6 15 C-4.02 14.34 -2.04 13.68 0 13 C0 8.71 0 4.42 0 0 Z " fill="#FFFEFB" transform="translate(384,341)"/>
</svg>
