<?xml version="1.0" encoding="UTF-8"?>
<svg version="1.1" xmlns="http://www.w3.org/2000/svg" width="512" height="512">
<path d="M0 0 C1.01201477 0.00054382 2.02402954 0.00108765 3.06671143 0.00164795 C19.59530572 0.04238044 35.52913999 0.94575778 51.75 4.375 C52.79188477 4.59462402 53.83376953 4.81424805 54.90722656 5.04052734 C99.16655602 14.69449964 148.13472798 36.6055839 178.54272461 71.42797852 C181.18927757 73.76248353 182.7907121 74.08810992 186.2578125 74.5703125 C187.32773437 74.72886719 188.39765625 74.88742188 189.5 75.05078125 C190.61375 75.19902344 191.7275 75.34726563 192.875 75.5 C206.6201073 77.46590778 206.6201073 77.46590778 211.4296875 78.3046875 C212.21843262 78.43858887 213.00717773 78.57249023 213.81982422 78.71044922 C215.75 79.375 215.75 79.375 217.75 82.375 C217.71244515 86.12422613 216.78000866 87.34245215 214.2109375 90.12890625 C212.66812854 91.56180007 211.09893253 92.96061104 209.5234375 94.35742188 C207.8239972 95.889913 207.8239972 95.889913 205.75 98.375 C206.07320987 101.72781559 207.66614569 104.00556091 209.55859375 106.7265625 C210.4244812 107.98932007 210.4244812 107.98932007 211.30786133 109.27758789 C211.92814209 110.17598389 212.54842285 111.07437988 213.1875 112 C231.41514341 138.93020203 244.586574 168.34000789 251.625 200.1875 C251.80385742 200.99550049 251.98271484 201.80350098 252.16699219 202.63598633 C252.76071221 205.54097358 253.26674193 208.44935189 253.75 211.375 C253.93582138 212.49992859 253.93582138 212.49992859 254.12539673 213.64758301 C256.40682072 227.81125972 257.27983312 241.66441709 257.1875 256 C257.18479095 256.99570007 257.18208191 257.99140015 257.17929077 259.01727295 C257.11182319 275.44751697 256.11363428 291.2505609 252.75 307.375 C252.56808105 308.26606445 252.38616211 309.15712891 252.19873047 310.07519531 C240.20769639 366.89062219 207.59933154 420.48474457 161.75 456.375 C160.76515625 457.16519531 159.7803125 457.95539063 158.765625 458.76953125 C150.16742004 465.60368944 141.10241775 471.62497902 131.75 477.375 C130.78586182 477.96861328 130.78586182 477.96861328 129.80224609 478.57421875 C111.75514209 489.53623269 91.9527986 497.38869502 71.75 503.375 C70.95625977 503.61057617 70.16251953 503.84615234 69.34472656 504.08886719 C63.52945779 505.76989952 57.67757641 507.15136458 51.75 508.375 C50.80560059 508.57254883 49.86120117 508.77009766 48.88818359 508.97363281 C17.02860639 515.30719444 -18.50116238 515.08700258 -50.25 508.375 C-51.29188477 508.15537598 -52.33376953 507.93575195 -53.40722656 507.70947266 C-97.66655602 498.05550036 -146.63472798 476.1444161 -177.04272461 441.32202148 C-179.68927757 438.98751647 -181.2907121 438.66189008 -184.7578125 438.1796875 C-185.82773438 438.02113281 -186.89765625 437.86257813 -188 437.69921875 C-189.670625 437.47685547 -189.670625 437.47685547 -191.375 437.25 C-205.1201073 435.28409222 -205.1201073 435.28409222 -209.9296875 434.4453125 C-210.71843262 434.31141113 -211.50717773 434.17750977 -212.31982422 434.03955078 C-214.25 433.375 -214.25 433.375 -216.25 430.375 C-216.25627484 426.69166931 -214.96944242 424.83355638 -212.52734375 422.26171875 C-211.42411577 421.1849154 -210.31045266 420.11871719 -209.1875 419.0625 C-208.61966797 418.51271484 -208.05183594 417.96292969 -207.46679688 417.39648438 C-206.07009075 416.04672635 -204.66121163 414.70958475 -203.25 413.375 C-203.56710938 412.89933594 -203.88421875 412.42367188 -204.2109375 411.93359375 C-205.23878275 410.39182587 -206.26454959 408.84867175 -207.2890625 407.3046875 C-208.68717518 405.21587373 -210.09734852 403.13974989 -211.5234375 401.0703125 C-229.91541739 374.21440764 -243.0890136 344.39895343 -250.125 312.5625 C-250.30385742 311.75449951 -250.48271484 310.94649902 -250.66699219 310.11401367 C-251.26071221 307.20902642 -251.76674193 304.30064811 -252.25 301.375 C-252.37388092 300.62504761 -252.49776184 299.87509521 -252.62539673 299.10241699 C-254.90677628 284.9390162 -255.78115219 271.08540969 -255.6875 256.75 C-255.68445862 255.75297058 -255.68141724 254.75594116 -255.67828369 253.72869873 C-255.60464151 237.32351292 -254.6400833 221.47402572 -251.25 205.375 C-251.03569336 204.34375 -250.82138672 203.3125 -250.60058594 202.25 C-240.1621972 153.62868418 -215.59398887 110.92439356 -181.25 75.375 C-180.74936035 74.85244629 -180.2487207 74.32989258 -179.73291016 73.79150391 C-173.30998493 67.10579279 -166.59836941 61.02197138 -159.25 55.375 C-158.5796875 54.85534668 -157.909375 54.33569336 -157.21875 53.80029297 C-145.75590535 44.96350934 -133.98998777 37.23976438 -121.25 30.375 C-120.59531738 30.01744629 -119.94063477 29.65989258 -119.26611328 29.29150391 C-94.04621062 15.63425778 -66.5476946 6.74148143 -38.25 2.375 C-37.12319824 2.19694824 -35.99639648 2.01889648 -34.83544922 1.83544922 C-23.22748463 0.18012714 -11.71280861 -0.02372421 0 0 Z M-38.25 55.375 C-39.50006836 55.64038574 -39.50006836 55.64038574 -40.77539062 55.91113281 C-57.41667625 59.55259327 -72.74613389 65.00824561 -88.125 72.3125 C-89.67610474 73.04738647 -89.67610474 73.04738647 -91.25854492 73.79711914 C-98.25379539 77.19635001 -104.78474773 81.05686279 -111.25 85.375 C-111.88728027 85.7980542 -112.52456055 86.2211084 -113.18115234 86.65698242 C-159.61707999 117.98130545 -190.12752357 166.20080016 -200.79223633 220.91503906 C-201.31379569 223.73048298 -201.79740206 226.54770512 -202.25 229.375 C-202.3619873 230.07222168 -202.47397461 230.76944336 -202.58935547 231.48779297 C-203.66540032 239.46893849 -203.4939322 247.58588035 -203.5 255.625 C-203.50067474 256.42768311 -203.50134949 257.23036621 -203.50204468 258.05737305 C-203.48516389 270.71512398 -202.90525721 282.95875824 -200.25 295.375 C-200.07839355 296.19242676 -199.90678711 297.00985352 -199.72998047 297.85205078 C-195.66964959 316.6297204 -189.46111112 334.50876491 -180.25 351.375 C-179.86489258 352.08237305 -179.47978516 352.78974609 -179.08300781 353.51855469 C-173.41575641 365.95392611 -173.41575641 365.95392611 -164.25 374.375 C-162.17776981 373.01351968 -162.17776981 373.01351968 -160.1875 371.0625 C-159.49527344 370.42699219 -158.80304688 369.79148437 -158.08984375 369.13671875 C-156.7956706 367.89749988 -155.51699399 366.64199399 -154.25 365.375 C-151.125 365.25 -151.125 365.25 -148.25 365.375 C-146.37203634 369.46051509 -145.7129309 373.41221536 -145.20703125 377.8359375 C-145.01898387 379.29184892 -144.82948497 380.74757347 -144.63867188 382.203125 C-144.3463567 384.47499951 -144.0629009 386.74646961 -143.80444336 389.02246094 C-142.75139082 400.32604774 -142.75139082 400.32604774 -136.11206055 409.0703125 C-135.49758057 409.50085938 -134.88310059 409.93140625 -134.25 410.375 C-133.17377741 411.28386011 -132.10074998 412.1965198 -131.03125 413.11328125 C-129.94278502 413.97804837 -128.84885564 414.83597521 -127.75 415.6875 C-127.15106934 416.15333496 -126.55213867 416.61916992 -125.93505859 417.09912109 C-89.37107299 445.17486906 -46.19539865 460.59013243 0 460.625 C0.80268311 460.62567474 1.60536621 460.62634949 2.43237305 460.62704468 C15.0880661 460.61016663 27.33679784 460.03791515 39.75 457.375 C40.58337891 457.19807617 41.41675781 457.02115234 42.27539062 456.83886719 C75.91035314 449.47883571 107.95614603 434.4180411 133.75 411.375 C134.24870605 410.93510742 134.74741211 410.49521484 135.26123047 410.04199219 C172.87106465 376.75552081 195.81868084 332.92047113 203.75 283.375 C203.91798096 282.32916748 203.91798096 282.32916748 204.08935547 281.26220703 C205.16540032 273.28106151 204.9939322 265.16411965 205 257.125 C205.00067474 256.32231689 205.00134949 255.51963379 205.00204468 254.69262695 C204.98516389 242.03487602 204.40525721 229.79124176 201.75 217.375 C201.57839355 216.55757324 201.40678711 215.74014648 201.22998047 214.89794922 C195.90194178 190.25755583 186.3151895 155.7916757 166.75 138.375 C163.5286123 140.08044055 161.22104667 141.87433314 158.8125 144.5625 C156.42522125 147.07379323 156.03376477 147.34347058 152.375 147.75 C151.50875 147.62625 150.6425 147.5025 149.75 147.375 C147.87203634 143.28948491 147.2129309 139.33778464 146.70703125 134.9140625 C146.51898387 133.45815108 146.32948497 132.00242653 146.13867188 130.546875 C145.8463567 128.27500049 145.5629009 126.00353039 145.30444336 123.72753906 C144.25139082 112.42395226 144.25139082 112.42395226 137.61206055 103.6796875 C136.99758057 103.24914062 136.38310059 102.81859375 135.75 102.375 C134.67377741 101.46613989 133.60074998 100.5534802 132.53125 99.63671875 C131.44283235 98.77189205 130.34889839 97.91396963 129.25 97.0625 C128.64961914 96.59593994 128.04923828 96.12937988 127.43066406 95.64868164 C97.89185717 72.98159045 64.52639014 59.07514711 27.75 53.375 C27.08822754 53.2704248 26.42645508 53.16584961 25.74462891 53.05810547 C17.72199379 51.97928588 9.58033528 52.13109891 1.5 52.125 C0.69731689 52.12432526 -0.10536621 52.12365051 -0.93237305 52.12295532 C-13.5880661 52.13983337 -25.83679784 52.71208485 -38.25 55.375 Z " fill="#D73030" transform="translate(255.25,-0.375)"/>
<path d="M0 0 C1.01201477 0.00054382 2.02402954 0.00108765 3.06671143 0.00164795 C19.59530572 0.04238044 35.52913999 0.94575778 51.75 4.375 C52.79188477 4.59462402 53.83376953 4.81424805 54.90722656 5.04052734 C99.13459122 14.68752738 152.33864666 37.35610681 180.75 74.375 C174.68899388 73.93879123 168.66101614 73.38948405 162.63769531 72.58789062 C151.57201162 70.43926836 151.57201162 70.43926836 141.1875 72.9375 C137.91541657 78.48581538 140.16588159 84.95985599 141.23828125 90.953125 C142.15171279 97.06126262 142.4299855 103.21051008 142.75 109.375 C141.88375 108.611875 141.0175 107.84875 140.125 107.0625 C107.32403546 79.06970898 70.55067845 61.00888013 27.75 54.375 C27.08822754 54.2704248 26.42645508 54.16584961 25.74462891 54.05810547 C17.72199379 52.97928588 9.58033528 53.13109891 1.5 53.125 C0.69731689 53.12432526 -0.10536621 53.12365051 -0.93237305 53.12295532 C-13.5880661 53.13983337 -25.83679784 53.71208485 -38.25 56.375 C-39.50006836 56.64038574 -39.50006836 56.64038574 -40.77539062 56.91113281 C-57.41667625 60.55259327 -72.74613389 66.00824561 -88.125 73.3125 C-89.15906982 73.80242432 -90.19313965 74.29234863 -91.25854492 74.79711914 C-98.25379539 78.19635001 -104.78474773 82.05686279 -111.25 86.375 C-111.88728027 86.7980542 -112.52456055 87.2211084 -113.18115234 87.65698242 C-159.24995494 118.7336536 -189.22046178 166.67761032 -199.79223633 220.91503906 C-200.31379569 223.73048298 -200.79740206 226.54770512 -201.25 229.375 C-201.3619873 230.07222168 -201.47397461 230.76944336 -201.58935547 231.48779297 C-202.66540032 239.46893849 -202.4939322 247.58588035 -202.5 255.625 C-202.50067474 256.42768311 -202.50134949 257.23036621 -202.50204468 258.05737305 C-202.48516389 270.71512398 -201.90525721 282.95875824 -199.25 295.375 C-199.07839355 296.19242676 -198.90678711 297.00985352 -198.72998047 297.85205078 C-194.66939735 316.63088691 -188.45882066 334.50666094 -179.25 351.375 C-178.8595752 352.09300781 -178.46915039 352.81101562 -178.06689453 353.55078125 C-173.66566576 361.87343912 -173.66566576 361.87343912 -168.48828125 369.703125 C-167.25 371.375 -167.25 371.375 -167.25 373.375 C-162.8450026 372.89403841 -161.17337459 371.62971041 -158.3125 368.3125 C-154.65777635 364.45051414 -154.65777635 364.45051414 -150.875 363.75 C-148.25 364.375 -148.25 364.375 -146.25 366.375 C-145.70336914 368.45263672 -145.70336914 368.45263672 -145.28515625 371.0546875 C-145.12644043 372.03252197 -144.96772461 373.01035645 -144.80419922 374.01782227 C-144.64193848 375.08444092 -144.47967773 376.15105957 -144.3125 377.25 C-144.13992676 378.354646 -143.96735352 379.45929199 -143.78955078 380.59741211 C-142.15997388 391.35548384 -141.00049308 402.15150568 -139.921875 412.9765625 C-139.53277308 416.841414 -139.09010768 420.68177659 -138.515625 424.5234375 C-138.35247803 425.63416626 -138.35247803 425.63416626 -138.18603516 426.76733398 C-137.90161039 428.63752727 -137.59640027 430.50452902 -137.2890625 432.37109375 C-137.24184436 436.00216835 -138.03722999 437.53644661 -140.25 440.375 C-148.0976038 445.60673586 -164.95882931 440.43015254 -174.06640625 439.19921875 C-178.27936423 438.63099058 -182.49462896 438.09359169 -186.71484375 437.58203125 C-187.77654785 437.45296387 -188.83825195 437.32389648 -189.93212891 437.19091797 C-191.95620402 436.94623567 -193.98060068 436.70419245 -196.00537109 436.46533203 C-200.62845916 435.90231992 -205.23520192 435.26942337 -209.82421875 434.47265625 C-210.62819092 434.33480713 -211.43216309 434.19695801 -212.26049805 434.05493164 C-214.25 433.375 -214.25 433.375 -216.25 430.375 C-216.25627484 426.69166931 -214.96944242 424.83355638 -212.52734375 422.26171875 C-211.42411577 421.1849154 -210.31045266 420.11871719 -209.1875 419.0625 C-208.61966797 418.51271484 -208.05183594 417.96292969 -207.46679688 417.39648438 C-206.07009075 416.04672635 -204.66121163 414.70958475 -203.25 413.375 C-203.56710938 412.89933594 -203.88421875 412.42367188 -204.2109375 411.93359375 C-205.23878275 410.39182587 -206.26454959 408.84867175 -207.2890625 407.3046875 C-208.68717518 405.21587373 -210.09734852 403.13974989 -211.5234375 401.0703125 C-229.91541739 374.21440764 -243.0890136 344.39895343 -250.125 312.5625 C-250.30385742 311.75449951 -250.48271484 310.94649902 -250.66699219 310.11401367 C-251.26071221 307.20902642 -251.76674193 304.30064811 -252.25 301.375 C-252.37388092 300.62504761 -252.49776184 299.87509521 -252.62539673 299.10241699 C-254.90677628 284.9390162 -255.78115219 271.08540969 -255.6875 256.75 C-255.68445862 255.75297058 -255.68141724 254.75594116 -255.67828369 253.72869873 C-255.60464151 237.32351292 -254.6400833 221.47402572 -251.25 205.375 C-251.03569336 204.34375 -250.82138672 203.3125 -250.60058594 202.25 C-240.1621972 153.62868418 -215.59398887 110.92439356 -181.25 75.375 C-180.74936035 74.85244629 -180.2487207 74.32989258 -179.73291016 73.79150391 C-173.30998493 67.10579279 -166.59836941 61.02197138 -159.25 55.375 C-158.5796875 54.85534668 -157.909375 54.33569336 -157.21875 53.80029297 C-145.75590535 44.96350934 -133.98998777 37.23976438 -121.25 30.375 C-120.59531738 30.01744629 -119.94063477 29.65989258 -119.26611328 29.29150391 C-94.04621062 15.63425778 -66.5476946 6.74148143 -38.25 2.375 C-37.12319824 2.19694824 -35.99639648 2.01889648 -34.83544922 1.83544922 C-23.22748463 0.18012714 -11.71280861 -0.02372421 0 0 Z " fill="#FE950C" transform="translate(255.25,-0.375)"/>
<path d="M0 0 C6.70156481 -0.25665567 13.61197316 -0.29723273 20 2 C22 5 22 5 21.9765625 7.33984375 C20.42234973 11.57351933 17.06593182 14.0633446 13.7734375 16.98242188 C12.0739972 18.514913 12.0739972 18.514913 10 21 C10.32320987 24.35281559 11.91614569 26.63056091 13.80859375 29.3515625 C14.38585205 30.19340088 14.96311035 31.03523926 15.55786133 31.90258789 C16.17814209 32.80098389 16.79842285 33.69937988 17.4375 34.625 C35.66514341 61.55520203 48.836574 90.96500789 55.875 122.8125 C56.05385742 123.62050049 56.23271484 124.42850098 56.41699219 125.26098633 C57.01071221 128.16597358 57.51674193 131.07435189 58 134 C58.18582138 135.12492859 58.18582138 135.12492859 58.37539673 136.27258301 C60.65682072 150.43625972 61.52983312 164.28941709 61.4375 178.625 C61.43479095 179.62070007 61.43208191 180.61640015 61.42929077 181.64227295 C61.36182319 198.07251697 60.36363428 213.8755609 57 230 C56.81808105 230.89106445 56.63616211 231.78212891 56.44873047 232.70019531 C44.45769639 289.51562219 11.84933154 343.10974457 -34 379 C-34.98484375 379.79019531 -35.9696875 380.58039063 -36.984375 381.39453125 C-45.58257996 388.22868944 -54.64758225 394.24997902 -64 400 C-64.96413818 400.59361328 -64.96413818 400.59361328 -65.94775391 401.19921875 C-83.99485791 412.16123269 -103.7972014 420.01369502 -124 426 C-124.79374023 426.23557617 -125.58748047 426.47115234 -126.40527344 426.71386719 C-150.57645437 433.70108279 -174.94227411 435.74816361 -200 435 C-200 434.67 -200 434.34 -200 434 C-197.8125 433.70833333 -195.625 433.41666667 -193.4375 433.125 C-192.41257446 432.98529785 -192.41257446 432.98529785 -191.36694336 432.84277344 C-188.08249311 432.39744984 -184.80462501 431.97945722 -181.5078125 431.6328125 C-120.27132289 424.8287581 -59.68409881 388.90052208 -21.12719727 341.25366211 C-19.02229877 338.54602388 -17.00331125 335.78316278 -15 333 C-14.14823199 331.85335128 -13.29534537 330.70753275 -12.44140625 329.5625 C-6.39335442 321.36932634 -1.03266412 312.84832238 4 304 C4.36448242 303.36819824 4.72896484 302.73639648 5.10449219 302.08544922 C23.85329212 269.3288301 35.91092904 229.86590392 36.23828125 191.97265625 C36.2480751 191.0345108 36.25786896 190.09636536 36.26795959 189.12979126 C36.43432334 169.06655175 36.3978338 149.67054971 32 130 C31.76974121 128.93040039 31.53948242 127.86080078 31.30224609 126.75878906 C24.01302145 93.27039954 11.13662354 62.06285601 -8.37109375 33.78515625 C-8.81565918 33.13820801 -9.26022461 32.49125977 -9.71826172 31.82470703 C-10.91159802 30.12585075 -12.15899135 28.46532263 -13.41015625 26.80859375 C-15 24 -15 24 -15.15625 21.52734375 C-13.10830064 17.05091391 -9.26815792 14.15609455 -5.66015625 10.90429688 C-1.98600298 7.4469923 -0.19189917 5.30121453 0 0 Z " fill="#C41926" transform="translate(451,77)"/>
<path d="M0 0 C0.9590625 -0.01546875 0.9590625 -0.01546875 1.9375 -0.03125 C5.00013048 0.75760937 6.68030408 2.37458136 9 4.5 C10.40956116 7.10890198 10.40956116 7.10890198 11.52368164 10.10375977 C11.95084976 11.22915665 12.37801788 12.35455353 12.81813049 13.51405334 C13.26099899 14.7275798 13.70386749 15.94110626 14.16015625 17.19140625 C14.63535386 18.46020653 15.11189426 19.72850464 15.58970642 20.99632263 C16.84291481 24.3326306 18.07759329 27.6755037 19.30853271 31.02008057 C20.55183165 34.38804885 21.81287871 37.74935053 23.07226562 41.11132812 C25.33873871 47.17117587 27.59334841 53.2352606 29.82473755 59.30813599 C30.60444696 61.42572803 31.39074642 63.54090591 32.18380737 65.65353394 C32.5465274 66.62759186 32.90924744 67.60164978 33.28295898 68.60522461 C33.60304428 69.45757187 33.92312958 70.30991913 34.25291443 71.18809509 C35.314096 74.4719905 35.55572606 77.09617788 35 80.5 C33.5 82.9375 33.5 82.9375 31 84.5 C28.22200688 85.05218306 25.74659576 85.2295645 23 84.5 C19 80.5 19 80.5 15 69.5 C5.1 69.5 -4.8 69.5 -15 69.5 C-17.475 75.44 -17.475 75.44 -20 81.5 C-23 84.5 -23 84.5 -26.9375 84.9375 C-29.82949983 84.80435084 -30.94821914 84.53106851 -33.5 83 C-35.57467357 79.54221072 -35.40608263 76.39985027 -35 72.5 C-34.27226254 69.63207231 -33.22056132 66.94457978 -32.10546875 64.20703125 C-31.80215134 63.43041138 -31.49883392 62.6537915 -31.18632507 61.8536377 C-30.19943606 59.33469892 -29.19399368 56.82366204 -28.1875 54.3125 C-27.15249944 51.69358278 -26.1213598 49.07316589 -25.09033203 46.4526825 C-24.39670072 44.69104346 -23.7013847 42.93006684 -23.00439453 41.16975403 C-20.83598149 35.68143888 -18.74682219 30.17086636 -16.73046875 24.625 C-16.23874487 23.28277544 -15.74696604 21.94057102 -15.25512695 20.59838867 C-14.35229199 18.131812 -13.46730657 15.66102373 -12.59057617 13.18481445 C-12.18685791 12.0887085 -11.78313965 10.99260254 -11.3671875 9.86328125 C-11.02800293 8.91751221 -10.68881836 7.97174316 -10.33935547 6.99731445 C-8.11565669 2.851085 -4.84717611 -0.07818026 0 0 Z M-1 30.5 C-2.17495143 33.43425371 -3.33850852 36.37289513 -4.5 39.3125 C-4.83386719 40.14587891 -5.16773438 40.97925781 -5.51171875 41.83789062 C-5.82753906 42.64033203 -6.14335937 43.44277344 -6.46875 44.26953125 C-6.90864258 45.37711792 -6.90864258 45.37711792 -7.35742188 46.50708008 C-8.15343666 48.62688312 -8.15343666 48.62688312 -8 51.5 C-2.72 51.5 2.56 51.5 8 51.5 C7.33577702 48.17888508 6.76292144 45.58168801 5.58984375 42.51171875 C5.32236328 41.80595703 5.05488281 41.10019531 4.77929688 40.37304688 C4.50150391 39.65181641 4.22371094 38.93058594 3.9375 38.1875 C3.65583984 37.44693359 3.37417969 36.70636719 3.08398438 35.94335938 C2.39281425 34.12757345 1.69688311 32.31360101 1 30.5 C0.34 30.5 -0.32 30.5 -1 30.5 Z " fill="#D83030" transform="translate(198,213.5)"/>
<path d="M0 0 C68.14964576 -1.87303466 129.95535636 21.61926266 180.80859375 66.859375 C183.09896494 69.09667163 185.05222832 71.46212893 187 74 C180.93899388 73.56379123 174.91101614 73.01448405 168.88769531 72.21289062 C157.82201162 70.06426836 157.82201162 70.06426836 147.4375 72.5625 C144.16541657 78.11081538 146.41588159 84.58485599 147.48828125 90.578125 C148.40171279 96.68626262 148.6799855 102.83551008 149 109 C148.13375 108.236875 147.2675 107.47375 146.375 106.6875 C142.63852093 103.48589523 138.80003113 100.42204015 134.9375 97.375 C134.05360596 96.67443481 134.05360596 96.67443481 133.15185547 95.9597168 C130.37437864 93.77874246 127.59464767 91.70402044 124.62109375 89.796875 C122 88 122 88 121.125 85.875 C121.08375 84.92625 121.0425 83.9775 121 83 C120.95101562 82.26523438 120.90203125 81.53046875 120.8515625 80.7734375 C120.45133461 70.82931365 123.313675 63.36138665 130 56 C131.93771953 54.23272803 133.9405158 52.62842936 136 51 C136.33 50.34 136.66 49.68 137 49 C136.31035156 48.76152344 135.62070312 48.52304687 134.91015625 48.27734375 C131.45155979 46.75927524 128.51597201 44.71709778 125.4375 42.5625 C111.22006946 32.89336703 96.14812767 25.13282493 80.15527344 18.85693359 C78.22782808 18.09058411 76.31937722 17.27685621 74.4140625 16.45703125 C50.88033062 6.76819903 25.23159341 2.75143382 0 1 C0 0.67 0 0.34 0 0 Z " fill="#FA700C" transform="translate(249,0)"/>
<path d="M0 0 C0.86625 0.763125 1.7325 1.52625 2.625 2.3125 C6.36147907 5.51410477 10.19996887 8.57795985 14.0625 11.625 C14.6517627 12.09204346 15.24102539 12.55908691 15.84814453 13.0402832 C16.4254834 13.49363037 17.00282227 13.94697754 17.59765625 14.4140625 C18.16194336 14.86056152 18.72623047 15.30706055 19.30761719 15.76708984 C21.21212394 17.21289758 21.21212394 17.21289758 24.39453125 18.828125 C27 21 27 21 27.7265625 24.7578125 C27.73039922 26.21393021 27.69471338 27.67054699 27.625 29.125 C27.6031665 29.88546631 27.58133301 30.64593262 27.55883789 31.42944336 C27.07222652 41.60926648 23.54503676 49.08628265 16 56 C9.89264137 60.8983509 3.53361807 63.11845558 -4.2890625 62.9140625 C-9.21527168 61.7006594 -12.03230737 59.27635016 -15.8125 56 C-16.51028564 55.41275146 -17.20807129 54.82550293 -17.92700195 54.22045898 C-19.965387 52.49592539 -21.98495113 50.75170105 -24 49 C-24.5372168 48.53867676 -25.07443359 48.07735352 -25.62792969 47.60205078 C-30.56363036 43.35562913 -34.90063119 39.04703375 -39 34 C-38.37657715 34.08564209 -37.7531543 34.17128418 -37.11083984 34.25952148 C-22.48576193 36.27001619 -22.48576193 36.27001619 -7.8125 37.875 C-6.76707031 37.97554688 -5.72164062 38.07609375 -4.64453125 38.1796875 C-1.35316481 37.9560496 -0.17545868 37.49052511 2 35 C3.54217046 29.30472862 2.62676325 24.29503227 1.5625 18.625 C0.39559665 12.30639668 -0.16120078 6.43513517 0 0 Z " fill="#C41A26" transform="translate(114,403)"/>
<path d="M0 0 C0.66 -0.0103125 1.32 -0.020625 2 -0.03125 C4.94825495 0.75188022 6.09774011 2.13902616 8 4.5 C8.48101807 7.41070557 8.48101807 7.41070557 8.45410156 10.82910156 C8.45364838 12.75064056 8.45364838 12.75064056 8.45318604 14.71099854 C8.43276095 16.10421371 8.41189699 17.4974225 8.390625 18.890625 C8.38316131 20.31979582 8.37746898 21.7489769 8.37347412 23.17816162 C8.3582275 26.93327262 8.31895516 30.68776125 8.2746582 34.44262695 C8.23368387 38.27676983 8.21545856 42.11101362 8.1953125 45.9453125 C8.15245903 53.4638249 8.08422067 60.98182512 8 68.5 C9.31355469 68.45359375 10.62710937 68.4071875 11.98046875 68.359375 C13.71612304 68.32184734 15.45180199 68.28544825 17.1875 68.25 C18.05181641 68.21648437 18.91613281 68.18296875 19.80664062 68.1484375 C24.06876644 68.08311756 26.3660218 68.11007647 30.07397461 70.390625 C32.14641224 72.66035007 32.66279809 73.47925753 32.5625 76.5 C32.56443359 77.49 32.56443359 77.49 32.56640625 78.5 C31.72764043 81.46171104 30.41105487 82.59706101 28 84.5 C24.671875 85.01757812 24.671875 85.01757812 20.75 85.03125 C19.70730957 85.03699036 19.70730957 85.03699036 18.64355469 85.04284668 C17.17771959 85.0455618 15.71183572 85.03822835 14.24609375 85.02148438 C12.00671025 85.00006419 9.77053413 85.02129443 7.53125 85.046875 C6.10415961 85.04423165 4.67707121 85.0391065 3.25 85.03125 C1.95578125 85.02673828 0.6615625 85.02222656 -0.671875 85.01757812 C-4.67284516 84.39536152 -5.59448247 83.70161587 -8 80.5 C-8.39508122 77.90258544 -8.54802788 75.72763178 -8.51757812 73.1328125 C-8.5245874 72.3973822 -8.53159668 71.6619519 -8.53881836 70.90423584 C-8.55639881 68.47743783 -8.54477639 66.05180951 -8.53125 63.625 C-8.53394492 61.9363584 -8.53782735 60.24771832 -8.54284668 58.55908203 C-8.54874176 55.02165946 -8.54017873 51.48464117 -8.52148438 47.94726562 C-8.49869448 43.41411155 -8.51181756 38.88190473 -8.53577423 34.3487854 C-8.55023214 30.86231353 -8.54562633 27.37606605 -8.53526306 23.8895874 C-8.53259574 22.21824023 -8.53586576 20.54687265 -8.54518127 18.87554932 C-8.55534719 16.53888025 -8.53984749 14.20374256 -8.51757812 11.8671875 C-8.52567505 11.17719666 -8.53377197 10.48720581 -8.54211426 9.77630615 C-8.48275733 6.41257044 -8.19790835 4.75185342 -6.09265137 2.07275391 C-3.82076382 0.36529318 -2.80433943 -0.0438178 0 0 Z " fill="#D83131" transform="translate(317,213.5)"/>
<path d="M0 0 C0.66 -0.0103125 1.32 -0.020625 2 -0.03125 C4.94825495 0.75188022 6.09774011 2.13902616 8 4.5 C8.48101807 7.41070557 8.48101807 7.41070557 8.45410156 10.82910156 C8.45364838 12.75064056 8.45364838 12.75064056 8.45318604 14.71099854 C8.43276095 16.10421371 8.41189699 17.4974225 8.390625 18.890625 C8.38316131 20.31979582 8.37746898 21.7489769 8.37347412 23.17816162 C8.3582275 26.93327262 8.31895516 30.68776125 8.2746582 34.44262695 C8.23368387 38.27676983 8.21545856 42.11101362 8.1953125 45.9453125 C8.15245903 53.4638249 8.08422067 60.98182512 8 68.5 C9.31355469 68.44199219 10.62710937 68.38398438 11.98046875 68.32421875 C13.71611023 68.27730952 15.45179023 68.23181061 17.1875 68.1875 C18.05181641 68.14560547 18.91613281 68.10371094 19.80664062 68.06054688 C24.33185536 67.97385694 26.34730185 68.01296128 30.078125 70.796875 C32.58758157 74.32643587 32.69433219 76.25685881 32 80.5 C30.41796875 82.68164062 30.41796875 82.68164062 28 84.5 C24.671875 85.01757812 24.671875 85.01757812 20.75 85.03125 C19.70730957 85.03699036 19.70730957 85.03699036 18.64355469 85.04284668 C17.17771959 85.0455618 15.71183572 85.03822835 14.24609375 85.02148438 C12.00671025 85.00006419 9.77053413 85.02129443 7.53125 85.046875 C6.10415961 85.04423165 4.67707121 85.0391065 3.25 85.03125 C1.95578125 85.02673828 0.6615625 85.02222656 -0.671875 85.01757812 C-4.67284516 84.39536152 -5.59448247 83.70161587 -8 80.5 C-8.39508122 77.90258544 -8.54802788 75.72763178 -8.51757812 73.1328125 C-8.5245874 72.3973822 -8.53159668 71.6619519 -8.53881836 70.90423584 C-8.55639881 68.47743783 -8.54477639 66.05180951 -8.53125 63.625 C-8.53394492 61.9363584 -8.53782735 60.24771832 -8.54284668 58.55908203 C-8.54874176 55.02165946 -8.54017873 51.48464117 -8.52148438 47.94726562 C-8.49869448 43.41411155 -8.51181756 38.88190473 -8.53577423 34.3487854 C-8.55023214 30.86231353 -8.54562633 27.37606605 -8.53526306 23.8895874 C-8.53259574 22.21824023 -8.53586576 20.54687265 -8.54518127 18.87554932 C-8.55534719 16.53888025 -8.53984749 14.20374256 -8.51757812 11.8671875 C-8.52567505 11.17719666 -8.53377197 10.48720581 -8.54211426 9.77630615 C-8.48275733 6.41257044 -8.19790835 4.75185342 -6.09265137 2.07275391 C-3.82076382 0.36529318 -2.80433943 -0.0438178 0 0 Z " fill="#D83030" transform="translate(259,213.5)"/>
</svg>
