<?xml version="1.0" encoding="UTF-8"?>
<svg version="1.1" xmlns="http://www.w3.org/2000/svg" width="512" height="512">
<path d="M0 0 C1.01790619 0.00215515 2.03581238 0.0043103 3.08456421 0.00653076 C17.69363523 0.05620146 32.02575853 0.30709809 46.375 3.3125 C47.34985352 3.51117676 48.32470703 3.70985352 49.32910156 3.91455078 C97.7109774 14.03517194 141.69928269 35.9516877 177.375 70.3125 C178.3640332 71.26068604 178.3640332 71.26068604 179.37304688 72.22802734 C188.86130305 81.37247479 197.6012044 90.66984009 205.375 101.3125 C206.23306152 102.46355017 207.09113451 103.61459177 207.94921875 104.765625 C213.98736829 112.95680614 219.34595521 121.47054105 224.375 130.3125 C224.73948242 130.94430176 225.10396484 131.57610352 225.47949219 132.22705078 C247.08534998 169.97532572 256.85198095 212.74189997 256.6875 255.9375 C256.68534485 256.95540619 256.6831897 257.97331238 256.68096924 259.02206421 C256.63129854 273.63113523 256.38040191 287.96325853 253.375 302.3125 C253.07698486 303.77478027 253.07698486 303.77478027 252.77294922 305.26660156 C240.31286762 364.83232498 208.4226363 421.18616419 159.375 458.3125 C158.83617187 458.72773926 158.29734375 459.14297852 157.7421875 459.57080078 C125.87232453 484.07165115 89.31918759 500.56392134 49.9375 508.625 C49.21860596 508.77235596 48.49971191 508.91971191 47.7590332 509.0715332 C33.08339502 511.86090125 18.55831162 512.66142619 3.64770508 512.62817383 C0.70811513 512.6250221 -2.2304558 512.64854926 -5.16992188 512.67382812 C-18.54306192 512.71848737 -31.43916711 511.51301542 -44.625 509.3125 C-46.33055054 509.03031616 -46.33055054 509.03031616 -48.07055664 508.74243164 C-91.33802759 500.97044532 -132.38793216 480.98345309 -165.625 452.3125 C-166.37007813 451.67828125 -167.11515625 451.0440625 -167.8828125 450.390625 C-181.38779833 438.57948485 -194.05918743 425.82889772 -204.625 411.3125 C-205.48149066 410.16255169 -206.33826433 409.01281411 -207.1953125 407.86328125 C-213.23534209 399.67315742 -218.61867614 391.16870382 -223.625 382.3125 C-224.0271875 381.60528809 -224.429375 380.89807617 -224.84375 380.16943359 C-237.8691741 357.03404164 -246.61801461 331.86287591 -251.9375 305.875 C-252.08485596 305.15610596 -252.23221191 304.43721191 -252.3840332 303.6965332 C-255.35789088 288.05024391 -255.99800362 272.57681954 -255.9375 256.6875 C-255.93534485 255.66959381 -255.9331897 254.65168762 -255.93096924 253.60293579 C-255.88129854 238.99386477 -255.63040191 224.66174147 -252.625 210.3125 C-252.42632324 209.33764648 -252.22764648 208.36279297 -252.02294922 207.35839844 C-241.90232806 158.9765226 -219.9858123 114.98821731 -185.625 79.3125 C-184.99287598 78.65314453 -184.36075195 77.99378906 -183.70947266 77.31445312 C-174.56502521 67.82619695 -165.26765991 59.0862956 -154.625 51.3125 C-153.47394983 50.45443848 -152.32290823 49.59636549 -151.171875 48.73828125 C-142.98224019 42.70072604 -134.47961724 37.31792698 -125.625 32.3125 C-124.91778809 31.9103125 -124.21057617 31.508125 -123.48193359 31.09375 C-100.34654164 18.0683259 -75.17537591 9.31948539 -49.1875 4 C-48.46860596 3.85264404 -47.74971191 3.70528809 -47.0090332 3.5534668 C-31.36274391 0.57960912 -15.88931954 -0.06050362 0 0 Z M-99.625 72.3125 C-100.75679688 72.90289062 -101.88859375 73.49328125 -103.0546875 74.1015625 C-119.02441474 82.76873548 -133.15966623 94.09165957 -146.08105469 106.79931641 C-147.42521286 108.11669344 -148.79272339 109.41015999 -150.1640625 110.69921875 C-178.64889032 137.9258828 -196.61257793 176.03507302 -204.875 214.0625 C-205.10195557 215.10519043 -205.10195557 215.10519043 -205.33349609 216.16894531 C-207.98847149 229.24282414 -209.03969574 242.30890021 -209 255.625 C-208.99912384 256.354841 -208.99824768 257.08468201 -208.99734497 257.8366394 C-208.84950821 295.60151318 -198.68427031 333.17085054 -178.625 365.3125 C-178.25568359 365.90579102 -177.88636719 366.49908203 -177.50585938 367.11035156 C-173.407425 373.99574343 -173.407425 373.99574343 -167.625 379.3125 C-149.475 361.1625 -131.325 343.0125 -112.625 324.3125 C-113.615 326.6225 -114.605 328.9325 -115.625 331.3125 C-117.50085006 339.63510056 -116.63006586 347.13761318 -112.33203125 354.5390625 C-107.17175447 361.92669735 -100.76057447 366.26797638 -91.9375 368.0625 C-82.73315908 369.01184099 -73.55053911 365.12772183 -65 362.1875 C-63.90042969 361.81496094 -62.80085937 361.44242187 -61.66796875 361.05859375 C-58.98505 360.14873435 -56.30418301 359.23328919 -53.625 358.3125 C-53.295 358.6425 -52.965 358.9725 -52.625 359.3125 C-53.4643811 360.14743988 -54.30376221 360.98237976 -55.1685791 361.84262085 C-63.06163574 369.69521003 -70.9494638 377.5530173 -78.83214569 385.41602135 C-82.88529783 389.45871701 -86.94029739 393.49952342 -90.99951172 397.53613281 C-94.91363015 401.42858928 -98.82290427 405.32584971 -102.72880554 409.22655106 C-104.22306758 410.71710536 -105.71909449 412.20589248 -107.21687317 413.69291306 C-109.3074247 415.76903809 -111.39172614 417.85124449 -113.47460938 419.93505859 C-114.10110886 420.55436752 -114.72760834 421.17367645 -115.37309265 421.81175232 C-118.54696261 424.5481265 -118.54696261 424.5481265 -119.625 428.3125 C-118.17773643 429.50710514 -118.17773643 429.50710514 -116.25 430.6328125 C-115.52055176 431.08164795 -114.79110352 431.5304834 -114.03955078 431.99291992 C-113.24274902 432.46963135 -112.44594727 432.94634277 -111.625 433.4375 C-110.80628418 433.93032471 -109.98756836 434.42314941 -109.14404297 434.9309082 C-59.66123407 464.35764142 -1.95903837 473.22637906 53.92382812 459.03588867 C73.4283553 453.76377978 92.2112923 446.0013948 109.375 435.3125 C110.41398437 434.66796875 111.45296875 434.0234375 112.5234375 433.359375 C125.1248523 425.22302844 136.53985734 415.64895409 147.375 405.3125 C148.22707031 404.51328125 149.07914062 403.7140625 149.95703125 402.890625 C182.97146315 371.07199142 201.84220668 327.11409968 208.375 282.3125 C208.478125 281.62736328 208.58125 280.94222656 208.6875 280.23632812 C215.31330638 229.92752683 200.62113669 177.93180761 172.375 136.3125 C169.26388515 137.69535431 167.15217722 139.28911541 164.75643921 141.69728088 C164.05545609 142.39695984 163.35447296 143.09663879 162.63224792 143.81752014 C161.87365982 144.58486984 161.11507172 145.35221954 160.33349609 146.14282227 C159.52657822 146.95105438 158.71966034 147.7592865 157.88829041 148.5920105 C155.22038334 151.2664124 152.55951652 153.94771174 149.8984375 156.62890625 C148.04857338 158.48503929 146.19819416 160.3406591 144.34732056 162.19578552 C139.97215419 166.58232403 135.60168866 170.97351187 131.23325217 175.36675161 C122.94162747 183.70536851 114.64287956 192.03687741 106.34010696 200.36439323 C103.60890764 203.10584984 100.88112758 205.85067571 98.15365601 208.59584045 C96.48845659 210.2678649 94.82314883 211.93978146 93.15771484 213.61157227 C92.39507828 214.3809462 91.63244171 215.15032013 90.84669495 215.94300842 C90.15135147 216.63986755 89.456008 217.33672668 88.73959351 218.05470276 C88.13456182 218.66325387 87.52953014 219.27180498 86.90616417 219.89879704 C85.375 221.3125 85.375 221.3125 83.375 222.3125 C83.24222656 221.70921875 83.10945313 221.1059375 82.97265625 220.484375 C82.79605469 219.68515625 82.61945313 218.8859375 82.4375 218.0625 C82.26347656 217.27359375 82.08945312 216.4846875 81.91015625 215.671875 C81.427444 213.54371297 80.91336822 211.42717158 80.375 209.3125 C81.303125 209.27125 82.23125 209.23 83.1875 209.1875 C92.33280749 207.83606792 100.93791803 201.59246659 106.375 194.3125 C113.51101479 182.46901177 116.46660822 170.91708692 113.76171875 157.203125 C110.32026013 146.71198242 103.62922014 138.20154918 94.375 132.3125 C89.425 129.8375 89.425 129.8375 84.375 127.3125 C97.245 114.4425 110.115 101.5725 123.375 88.3125 C119.34289044 84.16472818 119.34289044 84.16472818 114.94921875 80.91796875 C114.01480957 80.32701416 114.01480957 80.32701416 113.06152344 79.72412109 C112.4018457 79.32016113 111.74216797 78.91620117 111.0625 78.5 C110.3602832 78.06768066 109.65806641 77.63536133 108.93457031 77.18994141 C45.30985553 38.62047463 -34.27060613 37.18671526 -99.625 72.3125 Z " fill="#E20019" transform="translate(255.625,-0.3125)"/>
<path d="M0 0 C1.56686303 1.34621743 3.10576479 2.7252552 4.625 4.125 C5.654667 5.06020522 6.68463224 5.99508214 7.71484375 6.9296875 C9.30653644 8.3791704 10.89266766 9.83303509 12.46435547 11.30419922 C14.46354433 13.17514075 16.37565544 14.96230161 18.67352295 16.46166992 C21.11939126 18.5463915 21.61990272 20.13123175 22.54785156 23.19140625 C22.86788147 24.22257568 23.18791138 25.25374512 23.51763916 26.31616211 C23.84697449 27.42870361 24.17630981 28.54124512 24.515625 29.6875 C24.86510193 30.83033447 25.21457886 31.97316895 25.574646 33.15063477 C26.31055705 35.56620743 27.03974238 37.98383784 27.76269531 40.40332031 C28.87185804 44.11448725 30.00041895 47.81930049 31.1328125 51.5234375 C31.84488799 53.86944656 32.55586309 56.21578996 33.265625 58.5625 C33.60305725 59.6750415 33.9404895 60.78758301 34.28814697 61.93383789 C34.59556824 62.96500732 34.9029895 63.99617676 35.21972656 65.05859375 C35.49190002 65.96665771 35.76407349 66.87472168 36.04449463 67.81030273 C36.625 70.125 36.625 70.125 36.625 73.125 C37.68074219 73.34414063 38.73648438 73.56328125 39.82421875 73.7890625 C48.6062583 75.65307524 57.29407467 77.75698732 65.9375 80.1875 C66.82590576 80.43258301 67.71431152 80.67766602 68.62963867 80.93017578 C78.8206727 83.85195081 78.8206727 83.85195081 82.0234375 87.88671875 C84.56895336 92.90647603 85.37051894 96.68573776 83.625 102.125 C81.14718735 106.98885446 78.78574033 109.30356224 73.625 111.125 C64.22039195 111.81684024 54.93549756 108.56420736 45.91870117 106.22998047 C43.68459699 105.66085027 41.44516299 105.11224038 39.20092773 104.58447266 C20.64470024 100.21461789 20.64470024 100.21461789 15.94506836 95.35229492 C14.38560253 92.2833351 13.45989118 89.45764939 12.625 86.125 C11.88550535 84.34900446 11.11970329 82.58366387 10.32421875 80.83203125 C9.64935418 79.20229137 8.9786979 77.57080176 8.3125 75.9375 C7.6310768 74.27645165 6.9475982 72.61624449 6.26171875 70.95703125 C5.96998779 70.24264893 5.67825684 69.5282666 5.37768555 68.79223633 C4.74359691 67.12575634 4.74359691 67.12575634 3.625 66.125 C1.80440996 69.82455189 0.02407519 73.54065031 -1.72167969 77.27612305 C-2.32038053 78.54294166 -2.92967452 79.80481176 -3.54980469 81.0612793 C-7.24729058 87.85133289 -7.24729058 87.85133289 -8.05273438 95.26367188 C-7.0144711 97.14458361 -5.83064266 98.54675902 -4.375 100.125 C-3.42639983 101.45831771 -2.48952185 102.80002774 -1.5625 104.1484375 C-0.50316807 105.60127362 0.55947433 107.05170031 1.625 108.5 C2.77679976 110.08017687 3.92782125 111.66092127 5.078125 113.2421875 C5.95500977 114.44633301 5.95500977 114.44633301 6.84960938 115.67480469 C9.72086965 119.63739656 12.55154473 123.62826133 15.375 127.625 C15.88804687 128.34864746 16.40109375 129.07229492 16.9296875 129.81787109 C22.64695357 137.91928398 22.68273988 144.8767241 21.02059937 154.6953125 C20.17011638 158.36430937 19.22553944 161.99257635 18.23046875 165.625 C17.8776127 166.95790348 17.5261035 168.29116415 17.17585754 169.62475586 C16.44570955 172.39063298 15.70448166 175.15318511 14.95385742 177.91357422 C13.99591619 181.43722101 13.05923636 184.96608029 12.12981701 188.49734497 C11.40710678 191.23902252 10.67711232 193.97871505 9.94454384 196.71777344 C9.42908073 198.64593412 8.91667775 200.57491206 8.40434265 202.50390625 C8.08423721 203.67953125 7.76413177 204.85515625 7.43432617 206.06640625 C7.15674973 207.09451416 6.87917328 208.12262207 6.59318542 209.18188477 C4.68105032 214.9944428 2.24773472 219.08010712 -2.375 223.125 C-8.18885476 225.06295159 -14.29608776 225.14555692 -19.8125 222.4375 C-24.440479 218.26103115 -27.1544467 215.06283727 -27.63110352 208.71362305 C-27.54697168 202.83884837 -25.82640512 197.33611036 -24.27734375 191.70703125 C-23.96422745 190.53162277 -23.65111115 189.35621429 -23.32850647 188.14518738 C-21.99440455 183.13737143 -20.63748432 178.13582679 -19.28100586 173.1340332 C-18.29178254 169.47317099 -17.31543111 165.80904654 -16.33984375 162.14453125 C-16.02844955 161.01425003 -15.71705536 159.88396881 -15.39622498 158.71943665 C-14.97567589 157.13705452 -14.97567589 157.13705452 -14.54663086 155.52270508 C-14.29570175 154.59863358 -14.04477264 153.67456207 -13.78623962 152.7224884 C-13.22202664 149.15878347 -13.58845533 146.38520125 -15.50732422 143.31079102 C-15.9767041 142.75576904 -16.44608398 142.20074707 -16.9296875 141.62890625 C-17.4570752 140.99428467 -17.98446289 140.35966309 -18.52783203 139.70581055 C-19.09614746 139.03976807 -19.66446289 138.37372559 -20.25 137.6875 C-21.43340469 136.26915709 -22.61567499 134.849867 -23.796875 133.4296875 C-24.39435547 132.71522461 -24.99183594 132.00076172 -25.60742188 131.26464844 C-28.77650235 127.42848528 -31.81559065 123.49109557 -34.85888672 119.55493164 C-36.90428222 116.92664939 -38.93451559 114.39800019 -41.375 112.125 C-41.89707031 112.77984375 -42.41914063 113.4346875 -42.95703125 114.109375 C-47.60274319 119.86973237 -52.3691022 125.4390875 -57.42919922 130.8371582 C-60.05536115 133.64394345 -62.4644738 136.52320575 -64.8125 139.5625 C-71.28262403 146.94794084 -83.33491033 149.27724538 -92.38671875 152.33203125 C-93.48039261 152.70228928 -94.57406647 153.0725473 -95.70088196 153.45402527 C-97.99156705 154.22695344 -100.28309744 154.99738071 -102.57543945 155.76538086 C-106.06844724 156.93949907 -109.55458775 158.13267957 -113.04101562 159.32617188 C-115.28085229 160.07930883 -117.52107396 160.83130194 -119.76171875 161.58203125 C-120.79318527 161.93820023 -121.82465179 162.2943692 -122.88737488 162.66133118 C-129.19021182 164.74300773 -135.83176832 166.79499802 -142.33280945 164.40534973 C-147.32801957 161.79865463 -150.59779794 158.45660619 -152.375 153.125 C-152.89666057 148.15639685 -152.9474051 144.26981021 -150.6875 139.75 C-146.18729073 134.64165434 -141.84553601 132.28479355 -135.375 130.375 C-134.57481445 130.1275 -133.77462891 129.88 -132.95019531 129.625 C-127.63962004 128.01105981 -122.29371125 126.56740541 -116.921875 125.171875 C-115.62102578 124.82935961 -114.32024471 124.48658527 -113.01953125 124.14355469 C-110.4640662 123.46989631 -107.90638963 122.82474899 -105.33984375 122.19238281 C-95.46235133 119.61064387 -90.38094301 116.06081862 -84.1875 108.0625 C-80.74426029 103.73938643 -77.15406052 99.65054694 -73.375 95.625 C-68.82012688 90.76651675 -64.54422706 85.78783806 -60.41015625 80.5625 C-58.375 78.125 -58.375 78.125 -55.95605469 75.9543457 C-52.9131668 72.6187396 -51.59503182 69.59614901 -50.04296875 65.41796875 C-49.62075798 64.32987663 -49.62075798 64.32987663 -49.1900177 63.21980286 C-48.3016485 60.92195784 -47.43187664 58.61758869 -46.5625 56.3125 C-45.96020329 54.74497382 -45.35669953 53.17791085 -44.75195312 51.61132812 C-43.27895397 47.78776818 -41.82258136 43.95825128 -40.375 40.125 C-40.705 39.795 -41.035 39.465 -41.375 39.125 C-54.14532112 45.97820272 -66.78086674 53.01714148 -79.25195312 60.40283203 C-95.51459863 70.00023172 -95.51459863 70.00023172 -103.375 70.125 C-108.60492948 68.55602116 -111.35166921 66.65999619 -114.375 62.125 C-115.58767134 59.69965731 -115.57631212 58.01873446 -115.625 55.3125 C-115.65078125 54.46042969 -115.6765625 53.60835937 -115.703125 52.73046875 C-115.20879658 48.80526574 -113.57110449 46.06606733 -110.45483398 43.61425781 C-109.70532471 43.18983398 -108.95581543 42.76541016 -108.18359375 42.328125 C-107.29140137 41.82216797 -106.39920898 41.31621094 -105.47998047 40.79492188 C-99.17450673 37.40370939 -92.81698913 34.12391204 -86.4375 30.875 C-84.90468345 30.09117826 -83.37205346 29.30699156 -81.83959961 28.52246094 C-78.64505516 26.88732455 -75.44970983 25.25376768 -72.25390625 23.62109375 C-67.40418839 21.14185272 -62.56065443 18.6507095 -57.71875 16.15625 C-56.93592148 15.75303528 -56.15309296 15.34982056 -55.34654236 14.93438721 C-52.31129459 13.37089153 -49.27613103 11.80723286 -46.24124146 10.24304199 C-42.22692244 8.17458273 -38.20929657 6.11280604 -34.18829346 4.05737305 C-32.4279246 3.15221317 -30.67452841 2.23353264 -28.92138672 1.31445312 C-27.87354004 0.77240234 -26.82569336 0.23035156 -25.74609375 -0.328125 C-24.39729126 -1.03437012 -24.39729126 -1.03437012 -23.02124023 -1.75488281 C-15.41379994 -4.97500792 -6.70474086 -5.08635514 0 0 Z " fill="#000000" transform="translate(303.375,190.875)"/>
<path d="M0 0 C8.64707271 4.94617214 13.44515937 11.40145966 16.1875 20.875 C17.27790255 30.0343814 16.21978296 37.95328566 10.95703125 45.80078125 C5.1236765 52.88890796 -1.48403345 56.92578362 -10.5 58.5 C-19.30467161 59.31524737 -27.33721269 56.37046991 -34.45703125 51.3046875 C-40.41985486 46.03733662 -44.038866 39.07380589 -44.8359375 31.16796875 C-44.96020925 20.09535598 -42.85983789 13.33808307 -35.29296875 5.22265625 C-25.80872785 -3.88965364 -11.83142912 -5.48358428 0 0 Z " fill="#000000" transform="translate(342.5,140.5)"/>
<path d="M0 0 C41.91 0 83.82 0 127 0 C120.43813693 13.12372614 120.43813693 13.12372614 115.47696114 14.90678787 C112.40067254 15.23190547 109.46522447 15.23835301 106.37329102 15.13525391 C104.64537575 15.13744431 104.64537575 15.13744431 102.8825531 15.13967896 C99.08773146 15.13273029 95.29786593 15.05504767 91.50390625 14.9765625 C88.86834903 14.95790453 86.23275705 14.9436731 83.59715271 14.9336853 C77.37749315 14.90267052 71.1596028 14.82070785 64.9407205 14.72019041 C57.85750969 14.60820156 50.77421188 14.55338148 43.69033539 14.50323606 C29.12595729 14.39886315 14.56306268 14.2210801 0 14 C0 9.38 0 4.76 0 0 Z " fill="#000000" transform="translate(98,171)"/>
<path d="M0 0 C31.02 0 62.04 0 94 0 C88.39251429 9.81309999 88.39251429 9.81309999 85 13 C81.93852074 13.57701779 79.67926334 13.76583614 76.62963867 13.68115234 C75.79985504 13.6820285 74.97007141 13.68290466 74.11514282 13.68380737 C71.38178226 13.67963852 68.65089863 13.63302275 65.91796875 13.5859375 C64.01940756 13.57474279 62.120829 13.5662039 60.22224426 13.56021118 C55.23230894 13.53733443 50.24342643 13.47842114 45.25390625 13.4119873 C40.15965009 13.35053987 35.0652233 13.32319091 29.97070312 13.29296875 C19.98000692 13.2286768 9.99009111 13.12631122 0 13 C0 8.71 0 4.42 0 0 Z " fill="#000000" transform="translate(98,209)"/>
<path d="M0 0 C22.11 0 44.22 0 67 0 C66.34 1.65 65.68 3.3 65 5 C64.59881706 6.09435364 64.59881706 6.09435364 64.18952942 7.21081543 C63.04105985 9.65726638 62.03748097 11.20429662 60 13 C55.46567061 14.13931843 51.03625208 13.93046305 46.38671875 13.78125 C45.04868458 13.76631683 43.71060648 13.75493486 42.37251282 13.74694824 C38.86141814 13.71649453 35.35299864 13.63800377 31.84295654 13.54931641 C28.25700067 13.46727047 24.67060958 13.43089764 21.08398438 13.390625 C14.0547946 13.30499144 7.02785407 13.16435728 0 13 C0 8.71 0 4.42 0 0 Z " fill="#000000" transform="translate(98,244)"/>
</svg>
