<?xml version="1.0" encoding="UTF-8"?>
<svg version="1.1" xmlns="http://www.w3.org/2000/svg" width="512" height="512">
<path d="M0 0 C1.48270828 -0.00627543 2.96541503 -0.01292316 4.44812012 -0.01991272 C9.29857309 -0.04084519 14.14902594 -0.05131201 18.99951172 -0.0612793 C20.68054088 -0.06533232 22.36156988 -0.0694494 24.04259872 -0.07362938 C31.9523412 -0.09266541 39.8620745 -0.10689401 47.77183545 -0.11524135 C56.8432673 -0.1249771 65.91445276 -0.15120688 74.985798 -0.19174224 C82.03338048 -0.22213115 89.08089331 -0.23673195 96.12853992 -0.24002236 C100.3199676 -0.24234901 104.51113174 -0.25099045 108.70248795 -0.27648354 C153.94214619 -0.53709891 191.92011559 9.58168979 225.49951172 41.34106445 C249.49343973 65.60233428 264.83141238 98.03051588 267.30419922 132.17700195 C267.35511719 132.87720459 267.40603516 133.57740723 267.45849609 134.29882812 C267.97622361 143.00365237 268.09565724 151.11086896 262.30419922 158.17700195 C256.9276172 162.67492077 252.03272675 164.30081834 245.05124283 164.30842972 C243.73286305 164.31227086 242.41448327 164.31611201 241.05615258 164.32006955 C239.58416759 164.31928925 238.11218264 164.31841046 236.64019775 164.31744385 C235.08342215 164.32002663 233.52664721 164.32303954 231.96987319 164.32644725 C227.68036731 164.33453077 223.39087816 164.33630757 219.10136557 164.33704472 C214.47955976 164.33889293 209.85776269 164.34643909 205.23596191 164.35317993 C195.12442297 164.36677345 185.012888 164.37278958 174.90134144 164.37719059 C168.59000629 164.37995133 162.27867267 164.38418838 155.96733856 164.38869476 C138.49997682 164.40088883 121.03261631 164.41118783 103.5652504 164.41456985 C102.44685964 164.41478942 101.32846889 164.41500899 100.1761875 164.41523521 C99.05508968 164.41545348 97.93399185 164.41567176 96.77892137 164.41589665 C94.50707388 164.41634012 92.23522639 164.41678669 89.96337891 164.41723633 C88.8364592 164.41745776 87.70953949 164.41767919 86.54847071 164.41790733 C68.28543472 164.42185593 50.02243862 164.43931124 31.75941804 164.46259585 C13.01803201 164.48629788 -5.723334 164.49877118 -24.46473527 164.49993777 C-34.99095471 164.50085519 -45.51712219 164.5066242 -56.04332733 164.52475739 C-65.00624127 164.54014288 -73.96908719 164.54528802 -82.93201181 164.53701928 C-87.50600298 164.53310726 -92.0798571 164.53406927 -96.65383148 164.54807663 C-100.84104862 164.56078244 -105.02802529 164.55964734 -109.21524194 164.54748592 C-110.73007392 164.54552315 -112.24492274 164.54863408 -113.75973102 164.55733028 C-124.49368549 164.61505049 -131.65381625 164.03621411 -139.69580078 156.17700195 C-143.34312866 150.68435142 -143.19716765 145.485476 -143.13330078 139.11450195 C-143.12572754 138.05610107 -143.1181543 136.9977002 -143.11035156 135.90722656 C-142.32600121 97.57424986 -123.58339606 62.86810076 -96.43017578 36.6027832 C-70.23820007 12.06323318 -35.50562248 0.0663041 0 0 Z M-66.69580078 66.17700195 C-67.57365234 66.84022461 -67.57365234 66.84022461 -68.46923828 67.5168457 C-84.83828775 80.15867029 -96.8114157 102.98630636 -99.69580078 123.17700195 C6.89419922 123.17700195 113.48419922 123.17700195 223.30419922 123.17700195 C222.58080163 117.38982128 221.78271174 112.84905791 219.74169922 107.55200195 C219.47703857 106.86323975 219.21237793 106.17447754 218.93969727 105.46484375 C213.84046432 92.6468988 206.53311949 82.30084782 197.30419922 72.17700195 C196.72154297 71.5118457 196.13888672 70.84668945 195.53857422 70.16137695 C179.59616584 52.93069315 154.08069201 42.29271664 130.93697166 40.98703575 C127.24652226 40.91202067 123.56059223 40.89525018 119.86938477 40.90234375 C118.46339653 40.89798464 117.05741066 40.89279754 115.65142822 40.88685608 C111.8681672 40.87358272 108.08500679 40.87287432 104.30172706 40.87541938 C101.12628132 40.87649721 97.95085528 40.87158506 94.77541381 40.86681396 C87.27433284 40.85575878 79.77330195 40.85525859 72.2722168 40.86132812 C64.57301684 40.86736287 56.87399986 40.85506042 49.17483109 40.83375806 C42.52896273 40.81605646 35.88315215 40.81015415 29.23726112 40.8133958 C25.28371526 40.81519545 21.33029992 40.81270619 17.37677574 40.79868126 C13.65425634 40.78596732 9.93201899 40.7881728 6.20950317 40.80109215 C4.21935772 40.80452837 2.22920308 40.79338047 0.23908997 40.78152466 C-24.7877466 40.92502314 -47.83927478 49.82761705 -66.69580078 66.17700195 Z " fill="#FE4A08" transform="translate(142.69580078125,296.822998046875)"/>
<path d="M0 0 C1.40185547 1.15435547 1.40185547 1.15435547 2.83203125 2.33203125 C3.75628906 3.09128906 4.68054688 3.85054687 5.6328125 4.6328125 C27.96873002 23.9358473 41.51939996 51.98183355 43.83203125 81.33203125 C45.73517406 115.11656245 34.75831811 144.83775636 12.4375 170.03515625 C-7.18966765 190.73644751 -35.02995352 203.48486377 -63.515625 204.65234375 C-94.09050629 205.40114293 -123.26112362 197.42610446 -146.16796875 176.33203125 C-146.68987793 175.8525 -147.21178711 175.37296875 -147.74951172 174.87890625 C-162.78020006 160.91081571 -172.93760917 144.47434666 -179.54296875 125.08203125 C-179.78168701 124.38634033 -180.02040527 123.69064941 -180.26635742 122.97387695 C-189.12263263 95.48899539 -185.37490604 63.25055828 -172.35546875 37.6875 C-157.75680889 10.3598857 -134.04779636 -9.24817218 -104.66796875 -18.98046875 C-68.4407498 -29.06849383 -29.90533139 -23.49990566 0 0 Z M-125.6640625 42.38671875 C-139.04158586 58.12252626 -144.36882138 76.75247856 -143.35449219 97.0390625 C-141.77438856 116.46358248 -131.56019363 134.29591115 -117.10546875 147.01953125 C-100.93499024 159.58656051 -81.54045624 165.39364037 -61.16796875 163.33203125 C-46.64448673 161.30154444 -33.10464184 155.14015458 -22.16796875 145.33203125 C-21.40871094 144.65398437 -20.64945312 143.9759375 -19.8671875 143.27734375 C-14.18158568 137.90707783 -10.04110087 132.10494292 -6.16796875 125.33203125 C-5.77867187 124.6771875 -5.389375 124.02234375 -4.98828125 123.34765625 C-0.36180643 114.95544612 2.19678349 104.86074764 2.83203125 95.33203125 C2.88359375 94.625625 2.93515625 93.91921875 2.98828125 93.19140625 C3.75910157 73.79242816 -3.91065759 55.78973945 -16.35546875 41.20703125 C-30.53481973 26.09198706 -49.05705088 17.87080182 -69.66796875 17.08203125 C-91.60802465 17.38535 -110.6339093 26.67834903 -125.6640625 42.38671875 Z " fill="#FE4A08" transform="translate(275.16796875,74.66796875)"/>
<path d="M0 0 C0.90105469 -0.03738281 1.80210937 -0.07476562 2.73046875 -0.11328125 C11.19872284 1.0566043 16.54796906 6.49481398 22.25 12.359375 C23.01554199 13.13057678 23.78108398 13.90177856 24.56982422 14.6963501 C26.99366832 17.1424421 29.40316822 19.60212101 31.8125 22.0625 C33.46130894 23.73138871 35.11103949 25.39936743 36.76171875 27.06640625 C40.78936858 31.13796966 44.80535809 35.2207569 48.8125 39.3125 C51.82465393 37.96570335 53.87520941 36.48180027 56.16894531 34.11962891 C56.80350647 33.47200592 57.43806763 32.82438293 58.09185791 32.15713501 C58.76795105 31.45817108 59.44404419 30.75920715 60.140625 30.0390625 C61.59476818 28.55961674 63.0492046 27.08045914 64.50390625 25.6015625 C66.78318344 23.27276778 69.05916028 20.94093827 71.32958984 18.60351562 C73.5284721 16.34388548 75.73990319 14.09713732 77.953125 11.8515625 C78.62112122 11.15664703 79.28911743 10.46173157 79.97735596 9.74575806 C84.94278083 4.72848606 89.88028831 1.02521337 96.9375 -0.25390625 C104.86985499 -0.24312859 109.73767312 1.23767312 115.375 6.875 C119.2930202 11.32729568 119.99700711 14.76913773 120.125 20.5625 C120.18107422 22.20992187 120.18107422 22.20992187 120.23828125 23.890625 C119.22559116 32.02930867 113.35999209 37.17425812 107.765625 42.65234375 C106.99442322 43.41930069 106.22322144 44.18625763 105.4286499 44.97645569 C102.98025848 47.40814549 100.52161033 49.82915533 98.0625 52.25 C96.3938413 53.90360094 94.72586499 55.55789077 93.05859375 57.21289062 C88.98442707 61.25410107 84.90180315 65.2866099 80.8125 69.3125 C82.17714837 72.3788859 83.71180015 74.44249344 86.11303711 76.77661133 C86.78390854 77.43442093 87.45477997 78.09223053 88.14598083 78.76997375 C88.8699556 79.47107773 89.59393036 80.1721817 90.33984375 80.89453125 C91.86941699 82.39880758 93.39870499 83.90337399 94.92773438 85.40820312 C97.33785635 87.76874321 99.75101841 90.12599025 102.16967773 92.4777832 C104.50613831 94.75364325 106.82984635 97.04193561 109.15234375 99.33203125 C109.87429428 100.02706253 110.59624481 100.72209381 111.34007263 101.43818665 C116.16700518 106.21672618 119.18461192 110.24536909 120.24609375 117.12109375 C120.25531762 123.32876054 119.73551131 128.32155784 115.8125 133.3125 C110.09098856 138.68227918 105.17307124 140.76366362 97.35142517 140.56817627 C88.75193959 139.70218604 83.02430279 134.21881704 77.27734375 128.265625 C76.51321671 127.49442322 75.74908966 126.72322144 74.96180725 125.9286499 C72.54578228 123.48484101 70.14781903 121.02416129 67.75 118.5625 C66.10598444 116.89338126 64.46081298 115.2254002 62.81445312 113.55859375 C58.80034045 109.48962408 54.80087632 105.40669107 50.8125 101.3125 C47.74572566 102.67808065 45.67349417 104.21733473 43.33251953 106.61303711 C42.67148224 107.28390854 42.01044495 107.95477997 41.32937622 108.64598083 C40.27301468 109.73194298 40.27301468 109.73194298 39.1953125 110.83984375 C37.68631941 112.3692605 36.17720092 113.89855354 34.66796875 115.42773438 C32.29997793 117.83919484 29.93450659 120.25306168 27.57177734 122.66967773 C25.28611543 125.00372227 22.99124062 127.3284035 20.6953125 129.65234375 C19.99511993 130.37429428 19.29492737 131.09624481 18.57351685 131.84007263 C14.17516755 136.28246184 10.28895218 139.79798508 3.8828125 140.74609375 C-3.53210421 140.75592786 -9.10594787 140.02869581 -14.71484375 134.921875 C-19.36574052 129.79914813 -20.70205941 124.33729399 -20.48828125 117.59765625 C-18.72133771 104.17347481 -2.75091552 92.74689462 6.375 83.6875 C7.58682426 82.4807054 8.79841434 81.27367561 10.00976562 80.06640625 C12.94132471 77.14572593 15.87601021 74.22822253 18.8125 71.3125 C17.46661905 68.30072641 15.98748533 66.25864456 13.61962891 63.97192383 C12.97200592 63.34059036 12.32438293 62.7092569 11.65713501 62.05879211 C10.60868912 61.04935799 10.60868912 61.04935799 9.5390625 60.01953125 C8.05945973 58.57010651 6.58030728 57.12022195 5.1015625 55.66992188 C2.77409611 53.39806968 0.4430077 51.13031931 -1.89648438 48.87084961 C-4.15856611 46.68179232 -6.40428891 44.47694978 -8.6484375 42.26953125 C-9.34335297 41.60669632 -10.03826843 40.94386139 -10.75424194 40.26094055 C-16.34571535 34.72789375 -20.07747346 28.8556755 -20.75 20.875 C-20.42725802 14.73214437 -17.86131198 8.86929614 -13.40234375 4.60546875 C-9.01458175 1.37287127 -5.3621262 0.14369591 0 0 Z " fill="#FE4A08" transform="translate(392.1875,153.6875)"/>
</svg>
