<?xml version="1.0" encoding="UTF-8"?>
<svg version="1.1" xmlns="http://www.w3.org/2000/svg" width="512" height="512">
<path d="M0 0 C1.190035 -0.00507454 2.38007 -0.01014909 3.60616666 -0.0153774 C5.56939839 -0.01612404 5.56939839 -0.01612404 7.57229137 -0.01688576 C8.97573616 -0.0209015 10.3791798 -0.02533991 11.78262204 -0.03016531 C15.64396286 -0.04212487 19.50529118 -0.04777787 23.36664689 -0.05234647 C27.52982821 -0.05830514 31.69299462 -0.06991457 35.85616589 -0.08063698 C45.91472138 -0.10515857 55.97328181 -0.11978968 66.031858 -0.13269705 C68.87412988 -0.13640976 71.71640127 -0.14038295 74.55867267 -0.14444971 C92.21700984 -0.16969178 109.8753478 -0.19174027 127.53369904 -0.20417786 C131.62397101 -0.20710746 135.71424297 -0.21006913 139.80451488 -0.21308327 C140.82110847 -0.21382932 141.83770206 -0.21457537 142.88510152 -0.21534403 C159.33854307 -0.22798674 175.79187629 -0.26119493 192.24526725 -0.3028851 C209.1470625 -0.34535933 226.0488024 -0.3688794 242.95065087 -0.37409842 C252.43646524 -0.37750678 261.92211047 -0.38919366 271.4078722 -0.42220116 C279.49002387 -0.4502786 287.57197171 -0.46116747 295.65416835 -0.4500057 C299.77358441 -0.44483824 303.89257418 -0.44757999 308.0119276 -0.47247124 C311.79320506 -0.49512746 315.57375407 -0.49409905 319.3550457 -0.47526737 C321.34999643 -0.47118778 323.34495275 -0.49149162 325.33979112 -0.51305425 C338.95410889 -0.39495515 350.56837309 3.48943811 361.20856762 12.13701439 C362.03098949 12.75576439 362.85341137 13.37451439 363.70075512 14.01201439 C373.0286605 21.9160339 378.76579163 33.26568073 381.20856762 45.13701439 C381.29861378 47.14753622 381.33232509 49.1608351 381.33161545 51.17337227 C381.3336065 52.41794189 381.33559754 53.66251152 381.33764893 54.94479537 C381.33479588 56.32826554 381.33185029 57.71173551 381.32882214 59.09520531 C381.32925809 60.56296185 381.33013344 62.03071831 381.3314113 63.49847436 C381.33365151 67.53700558 381.32964143 71.57551038 381.32463324 75.61403823 C381.32032215 79.96711016 381.32177563 84.32018055 381.32253551 88.67325401 C381.32306033 96.21700202 381.31991794 103.76074139 381.31429768 111.30448723 C381.30617696 122.21153064 381.30356687 133.11856986 381.30230968 144.02561596 C381.30012007 161.7207915 381.29346242 179.41596244 381.28400707 197.11113548 C381.27483063 214.30221598 381.26775093 231.49329522 381.26349926 248.68437767 C381.26310517 250.27337647 381.26310517 250.27337647 381.26270313 251.89447626 C381.26139811 257.20873901 381.2601344 262.52300177 381.25889122 267.83726454 C381.24852142 311.93718451 381.23063068 356.03709885 381.20856762 400.13701439 C399.68856762 400.13701439 418.16856762 400.13701439 437.20856762 400.13701439 C437.20856762 418.89335203 431.3676511 434.08460573 418.09919262 447.47685814 C405.16263209 459.3819902 389.91485537 464.45548944 372.6530714 464.40443993 C371.51862081 464.40897104 370.38417022 464.41350215 369.21534234 464.41817057 C365.42943219 464.43078967 361.64366635 464.42919579 357.85773754 464.42754173 C355.13699333 464.43244423 352.41625913 464.44027821 349.69552135 464.44789696 C343.08128477 464.46446622 336.46708384 464.47000463 329.85282823 464.47112171 C324.47365928 464.47207403 319.09450204 464.47619345 313.7153368 464.48252296 C298.44545925 464.50012346 283.17560975 464.50936358 267.90572198 464.50786202 C267.08357852 464.5077821 266.26143506 464.50770219 265.41437817 464.50761986 C264.5912245 464.5075381 263.76807083 464.50745634 262.91997311 464.5073721 C249.58169293 464.50655931 236.24352569 464.52569833 222.90527817 464.55389659 C209.19109677 464.58265959 195.47697039 464.59643504 181.76275808 464.59470904 C174.07069264 464.59404637 166.37874567 464.59948482 158.6867075 464.62106514 C152.13767358 464.63932188 145.58881183 464.6435875 139.03976341 464.63004629 C135.70240468 464.62353929 132.36564387 464.6255118 129.02827358 464.64075279 C125.4002289 464.65624424 121.77304168 464.64687009 118.14501476 464.63149071 C117.10442431 464.64177783 116.06383386 464.65206496 114.99171036 464.66266382 C101.71016675 464.5388623 87.78292509 459.10036205 77.95856762 450.00810814 C68.45164096 439.84333611 61.08026174 427.58934556 61.08551979 413.35053444 C61.08253322 411.5672815 61.08253322 411.5672815 61.07948631 409.74800324 C61.08239915 408.44062314 61.08531199 407.13324303 61.0883131 405.78624535 C61.08787712 404.3844856 61.08700173 402.98272594 61.08572394 401.58096671 C61.0834842 397.7248602 61.08749317 393.86878137 61.092502 390.01267838 C61.09681376 385.85592731 61.09535956 381.69917784 61.09459972 377.54242516 C61.09407495 370.33917177 61.09721689 363.13592743 61.10283756 355.93267632 C61.11095886 345.51793832 61.11356843 335.10320471 61.11482555 324.6884639 C61.11701508 307.79191705 61.12367248 290.89537502 61.13312817 273.9988308 C61.14230485 257.58379198 61.14938443 241.16875447 61.15363598 224.75371361 C61.1538987 223.742173 61.15416143 222.73063239 61.15443211 221.68843904 C61.15573713 216.61392143 61.15700084 211.53940381 61.15824401 206.46488619 C61.16861353 164.35559131 61.18705018 122.24630534 61.20856762 80.13701439 C24.24856762 80.13701439 -12.71143238 80.13701439 -50.79143238 80.13701439 C-50.79143238 34.90211506 -50.79143238 34.90211506 -38.79143238 20.13701439 C-38.17268238 19.31459251 -37.55393238 18.49217064 -36.91643238 17.64482689 C-27.96706417 7.08325632 -13.87598349 0.03142045 0 0 Z " fill="#E8EDF1" transform="translate(58.79143238067627,23.862985610961914)"/>
<path d="M0 0 C87.12 0 174.24 0 264 0 C264 18.75633764 258.15908348 33.94759134 244.890625 47.33984375 C232.1828366 59.03444362 217.01510691 64.34064971 200.00914001 64.24050903 C198.93564303 64.24221788 197.86214604 64.24392673 196.75611883 64.24568737 C193.17710593 64.24896841 189.5982826 64.2380013 186.01928711 64.22705078 C183.44656377 64.22648637 180.8738401 64.22680381 178.30111694 64.22793579 C172.7714894 64.22898168 167.24190925 64.22273617 161.71229362 64.21146011 C153.71752248 64.19516775 145.72277413 64.18999329 137.72798819 64.18748413 C124.75525064 64.18311288 111.78253832 64.16981927 98.80981445 64.15087891 C86.21215948 64.13250534 73.61451138 64.11835607 61.0168457 64.10986328 C59.8509837 64.10907511 59.8509837 64.10907511 58.66156893 64.10827102 C54.76216209 64.10566084 50.86275519 64.10313345 46.96334827 64.10064721 C14.64221385 64.07993246 -17.67888957 64.04472249 -50 64 C-50 63.67 -50 63.34 -50 63 C-48.83597656 62.79697266 -48.83597656 62.79697266 -47.6484375 62.58984375 C-32.93409066 59.65750971 -20.34070473 53.46122563 -11.3125 41.25 C-2.3944956 27.79155044 -1.15739619 16.20354663 0 0 Z " fill="#D0D2D4" transform="translate(232,424)"/>
<path d="M0 0 C11.62489649 8.76965876 20.0314296 19.00310656 25.2265625 32.6796875 C25.54625 33.48277344 25.8659375 34.28585937 26.1953125 35.11328125 C31.86521759 51.93924959 28.07455831 69.00055456 20.87890625 84.6015625 C11.56796808 101.64899448 -3.66659939 111.12841409 -21.7734375 116.6796875 C-38.90290036 119.8255239 -55.02041646 117.39832938 -70.1171875 108.53125 C-83.04262748 99.52145801 -91.36290672 88.44468909 -96.7734375 73.6796875 C-97.09441406 72.91527344 -97.41539062 72.15085937 -97.74609375 71.36328125 C-103.04671277 57.18720712 -100.25430166 40.16347012 -94.26123047 26.76269531 C-85.84899759 9.02340442 -71.89338732 -1.80638369 -53.61328125 -8.4453125 C-35.74802917 -13.94987435 -15.47730368 -10.26501584 0 0 Z " fill="#FED23B" transform="translate(371.7734375,242.3203125)"/>
<path d="M0 0 C12.66742947 8.63877157 19.38933723 22.55734892 23 37 C23 47.89 23 58.78 23 70 C-13.96 70 -50.92 70 -89 70 C-89 24.76510067 -89 24.76510067 -77 10 C-76.38125 9.17757812 -75.7625 8.35515625 -75.125 7.5078125 C-55.74107411 -15.36807063 -23.86671503 -14.00491835 0 0 Z " fill="#D0D2D4" transform="translate(97,34)"/>
<path d="M0 0 C73.92 0 147.84 0 224 0 C224 10.56 224 21.12 224 32 C150.08 32 76.16 32 0 32 C0 21.44 0 10.88 0 0 Z " fill="#D0D2D4" transform="translate(168,144)"/>
<path d="M0 0 C11.62489649 8.76965876 20.0314296 19.00310656 25.2265625 32.6796875 C25.54625 33.48277344 25.8659375 34.28585937 26.1953125 35.11328125 C31.86521759 51.93924959 28.07455831 69.00055456 20.87890625 84.6015625 C11.56796808 101.64899448 -3.66659939 111.12841409 -21.7734375 116.6796875 C-38.90290036 119.8255239 -55.02041646 117.39832938 -70.1171875 108.53125 C-83.04262748 99.52145801 -91.36290672 88.44468909 -96.7734375 73.6796875 C-97.09441406 72.91527344 -97.41539062 72.15085937 -97.74609375 71.36328125 C-103.04671277 57.18720712 -100.25430166 40.16347012 -94.26123047 26.76269531 C-85.84899759 9.02340442 -71.89338732 -1.80638369 -53.61328125 -8.4453125 C-35.74802917 -13.94987435 -15.47730368 -10.26501584 0 0 Z M-72.0859375 20.8671875 C-82.37238507 33.22359783 -85.14296836 47.08594994 -83.7734375 62.6796875 C-81.40824251 75.19964179 -74.15885498 86.3440835 -63.7734375 93.6796875 C-50.87914376 101.22797679 -37.962935 103.86300408 -23.25 100.9921875 C-16.67272857 98.96320917 -11.22658672 95.83498721 -5.7734375 91.6796875 C-4.7421875 90.9371875 -3.7109375 90.1946875 -2.6484375 89.4296875 C6.47856775 80.69950857 12.2108386 69.20587335 12.51928711 56.53735352 C12.64056904 42.07785189 9.08057255 30.39461788 -0.8046875 19.42578125 C-12.00603054 8.73174541 -25.1856286 5.02613989 -40.2578125 5.37109375 C-52.52845247 5.98769597 -63.6709848 12.05304349 -72.0859375 20.8671875 Z " fill="#FEB634" transform="translate(371.7734375,242.3203125)"/>
<path d="M0 0 C0.8746245 -0.00779995 1.749249 -0.01559991 2.65037727 -0.02363622 C5.58098604 -0.04357935 8.51029958 -0.02778259 11.44091797 -0.01205444 C13.54189818 -0.01882952 15.64287245 -0.02773203 17.74383545 -0.03860474 C23.4504525 -0.06141746 29.15661806 -0.05255336 34.8632431 -0.03670931 C40.8320183 -0.02406067 46.80075455 -0.03578755 52.76953125 -0.04364014 C62.79352772 -0.05273969 72.81734007 -0.04074064 82.84130859 -0.01693726 C94.4345354 0.01027444 106.02732256 0.00146051 117.62053871 -0.02606928 C127.56971821 -0.04875051 137.51876527 -0.05196521 147.46796227 -0.03887594 C153.41216616 -0.03107606 159.35616334 -0.03005475 165.300354 -0.04655838 C170.8884873 -0.06098936 176.47605314 -0.05100596 182.06412506 -0.0220871 C184.11641751 -0.01546902 186.16875762 -0.01738621 188.22103119 -0.02840042 C191.02007168 -0.04203877 193.81728717 -0.02496097 196.61621094 0 C197.43089907 -0.01115361 198.2455872 -0.02230722 199.08496284 -0.03379881 C203.15124329 0.03667555 205.07095564 0.4492371 208.31228638 2.9871006 C210.30810547 5.63491821 210.30810547 5.63491821 210.93310547 8.63491821 C210.07517023 12.75300738 208.60832648 14.05094542 205.30810547 16.63491821 C202.22446713 17.12694231 199.69587191 17.31199898 196.61621094 17.26983643 C195.30427419 17.28153636 195.30427419 17.28153636 193.96583366 17.29347265 C191.0352249 17.31341578 188.10591136 17.29761902 185.17529297 17.28189087 C183.07431276 17.28866595 180.97333849 17.29756846 178.87237549 17.30844116 C173.16575844 17.33125388 167.45959288 17.32238978 161.75296783 17.30654573 C155.78419263 17.29389709 149.81545639 17.30562397 143.84667969 17.31347656 C133.82268322 17.32257611 123.79887087 17.31057707 113.77490234 17.28677368 C102.18167554 17.25956198 90.58888837 17.26837592 78.99567223 17.29590571 C69.04649273 17.31858694 59.09744567 17.32180164 49.14824867 17.30871236 C43.20404477 17.30091249 37.2600476 17.29989117 31.31585693 17.31639481 C25.72772364 17.33082579 20.14015779 17.32084238 14.55208588 17.29192352 C12.49979343 17.28530545 10.44745331 17.28722263 8.39517975 17.29823685 C5.59613926 17.3118752 2.79892377 17.29479739 0 17.26983643 C-0.81468813 17.28099003 -1.62937626 17.29214364 -2.46875191 17.30363524 C-6.53503235 17.23316088 -8.4547447 16.82059932 -11.69607544 14.28273582 C-13.69189453 11.63491821 -13.69189453 11.63491821 -14.31689453 8.63491821 C-12.69906113 0.86931787 -6.97582775 -0.0955036 0 0 Z " fill="#D0D2D4" transform="translate(181.69189453125,199.36508178710938)"/>
<path d="M0 0 C1.12510986 0.02102783 1.12510986 0.02102783 2.27294922 0.04248047 C11.44562343 0.43635091 19.75574325 3.58044908 26.4765625 9.95703125 C33.06061832 17.47412171 35.48658468 25.23345469 35.31640625 35.171875 C34.47832221 42.80967186 31.17092976 50.44570853 25.8828125 56.09375 C18.29423598 62.06708734 9.99711065 64.81120749 0.5 64.875 C-0.26376953 64.895625 -1.02753906 64.91625 -1.81445312 64.9375 C-5.24534578 64.96138785 -7.47223695 64.94204492 -10.53515625 63.296875 C-13.25625405 60.31828201 -13.20158122 57.34566956 -13.25537109 53.49853516 C-13.27946548 51.93143295 -13.27946548 51.93143295 -13.30404663 50.33267212 C-13.34852343 45.56488736 -13.38954304 40.79724045 -13.41259766 36.02929688 C-13.42917624 33.51325239 -13.45649082 30.99725536 -13.49462891 28.48144531 C-13.54932216 24.85456909 -13.57125922 21.22879524 -13.5859375 17.6015625 C-13.60860687 16.47746979 -13.63127625 15.35337708 -13.65463257 14.19522095 C-13.63355603 6.42259617 -13.63355603 6.42259617 -10.76635742 2.41796875 C-7.19719151 0.05120086 -4.15103809 -0.13252924 0 0 Z " fill="#3EC286" transform="translate(349.0625,55.375)"/>
<path d="M0 0 C0.98548828 0.00257812 1.97097656 0.00515625 2.98632812 0.0078125 C4.00533203 0.03617188 5.02433594 0.06453125 6.07421875 0.09375 C7.58532227 0.08988281 7.58532227 0.08988281 9.12695312 0.0859375 C18.40133343 0.20677633 25.13552974 2.18342611 31.99609375 8.65234375 C37.00330022 14.15805529 38.47054115 19.44981306 38.1328125 26.859375 C37.03756335 34.92963186 33.28114691 39.90225672 27.04296875 44.99609375 C20.56000154 49.53639099 13.35004194 48.81803541 5.76171875 48.59375 C5.81392578 49.58955078 5.81392578 49.58955078 5.8671875 50.60546875 C6.14181734 59.56363245 6.14181734 59.56363245 2.76171875 63.59375 C-0.04743599 64.99832737 -2.12638659 64.84270157 -5.23828125 64.59375 C-8.37419695 62.81390595 -9.07930861 62.07066793 -10.23828125 58.59375 C-10.35054437 56.88740843 -10.40724537 55.17714861 -10.43115234 53.46728516 C-10.45524673 51.90018295 -10.45524673 51.90018295 -10.47982788 50.30142212 C-10.52430468 45.53363736 -10.56532429 40.76599045 -10.58837891 35.99804688 C-10.60495749 33.48200239 -10.63227207 30.96600536 -10.67041016 28.45019531 C-10.72510341 24.82331909 -10.74704047 21.19754524 -10.76171875 17.5703125 C-10.78438812 16.44621979 -10.8070575 15.32212708 -10.83041382 14.16397095 C-10.8094298 6.42546571 -10.8094298 6.42546571 -8.03295898 2.38232422 C-5.01611803 0.45156709 -3.54180011 -0.02832668 0 0 Z " fill="#3EC285" transform="translate(194.23828125,55.40625)"/>
<path d="M0 0 C1.22164856 -0.0087616 2.44329712 -0.01752319 3.70196533 -0.02655029 C7.0454193 -0.04476939 10.38732336 -0.04052531 13.73069 -0.02465487 C17.23307849 -0.01197523 20.73540181 -0.02374167 24.23779297 -0.03158569 C30.11893574 -0.04067634 35.99976433 -0.02871005 41.88085938 -0.00488281 C48.67541367 0.02232782 55.46921777 0.01351321 62.26375389 -0.01401484 C68.10259092 -0.03672193 73.94120242 -0.03989833 79.78006935 -0.02682149 C83.26510537 -0.01903558 86.74978902 -0.01796112 90.23480225 -0.03450394 C94.12037198 -0.05166055 98.00510483 -0.02786674 101.890625 0 C103.04298645 -0.01012115 104.1953479 -0.02024231 105.38262939 -0.03067017 C113.16094117 0.07280611 113.16094117 0.07280611 117.15966797 2.99990845 C118.9453125 5.64697266 118.9453125 5.64697266 119.5703125 8.64697266 C118.68614187 12.89099168 117.46096086 14.07348788 113.9453125 16.64697266 C109.93341341 17.40408621 105.96323884 17.32971495 101.890625 17.29394531 C100.66897644 17.30270691 99.44732788 17.31146851 98.18865967 17.32049561 C94.8452057 17.33871471 91.50330164 17.33447062 88.159935 17.31860018 C84.65754651 17.30592055 81.15522319 17.31768699 77.65283203 17.32553101 C71.77168926 17.33462166 65.89086067 17.32265537 60.00976562 17.29882812 C53.21521133 17.2716175 46.42140723 17.28043211 39.62687111 17.30796015 C33.78803408 17.33066724 27.94942258 17.33384364 22.11055565 17.32076681 C18.62551963 17.3129809 15.14083598 17.31190643 11.65582275 17.32844925 C7.77025302 17.34560587 3.88552017 17.32181205 0 17.29394531 C-1.72854218 17.30912704 -1.72854218 17.30912704 -3.49200439 17.32461548 C-11.27031617 17.2211392 -11.27031617 17.2211392 -15.26904297 14.29403687 C-17.0546875 11.64697266 -17.0546875 11.64697266 -17.6796875 8.64697266 C-15.71551611 -0.78105 -7.87271697 -0.06914583 0 0 Z " fill="#D0D2D4" transform="translate(281.0546875,375.35302734375)"/>
<path d="M0 0 C0.97259766 0.14501953 0.97259766 0.14501953 1.96484375 0.29296875 C2.61582031 0.36128906 3.26679688 0.42960937 3.9375 0.5 C9.23209425 3.14203411 11.47405999 10.73431776 13.57421875 15.921875 C13.90149963 16.72600327 14.22878052 17.53013153 14.565979 18.35862732 C15.25221417 20.05560257 15.93441739 21.75421328 16.61279297 23.4543457 C17.64296332 26.01961019 18.70372303 28.57078642 19.765625 31.12304688 C26.91841085 48.73344913 26.91841085 48.73344913 24.90234375 58.48046875 C22.52107834 63.17110145 22.52107834 63.17110145 19.90234375 64.48046875 C16.62755565 64.76523293 14.5392282 64.80751752 11.58984375 63.29296875 C9.90234375 61.48046875 9.90234375 61.48046875 8.90234375 56.48046875 C3.62234375 56.48046875 -1.65765625 56.48046875 -7.09765625 56.48046875 C-7.75765625 58.46046875 -8.41765625 60.44046875 -9.09765625 62.48046875 C-12.58634276 64.80625976 -13.99484144 64.89912332 -18.09765625 64.48046875 C-21.23357195 62.7006247 -21.93868361 61.95738668 -23.09765625 58.48046875 C-24.82231581 47.15516615 -20.81849463 37.94519383 -16.53637695 27.68457031 C-15.40497517 24.96802876 -14.31264821 22.23806543 -13.22460938 19.50390625 C-12.51395259 17.75560073 -11.80113727 16.00817073 -11.0859375 14.26171875 C-10.76176346 13.45335571 -10.43758942 12.64499268 -10.10359192 11.81213379 C-8.05095063 6.94608725 -5.63023007 1.28960577 0 0 Z " fill="#3FC286" transform="translate(263.09765625,55.51953125)"/>
<path d="M0 0 C3.98964728 0.83117652 5.50348869 2.46764746 8 5.625 C8 6.615 8 7.605 8 8.625 C8.763125 8.7075 9.52625 8.79 10.3125 8.875 C13 9.625 13 9.625 14.8125 11.3125 C16.40188959 14.40762709 16.56159999 16.18520007 16 19.625 C13.75407292 22.43240885 12.10532787 24.23664156 8.6875 25.4375 C7.8521875 25.5303125 7.8521875 25.5303125 7 25.625 C7.928125 26.305625 8.85625 26.98625 9.8125 27.6875 C13.25408086 30.60713495 14.76893133 33.20763594 16 37.625 C16.29373915 41.96814313 16.18357352 45.90813027 13.65625 49.57421875 C12.60006929 50.72618056 11.52045634 51.85711869 10.41796875 52.96484375 C8.25977954 55.4916493 7.85139271 58.46268422 7 61.625 C4.72933488 64.13895067 3.40360178 64.55630182 0.0625 65.125 C-4.03416074 64.45615743 -5.46400923 62.83228245 -8 59.625 C-8 58.635 -8 57.645 -8 56.625 C-8.763125 56.5425 -9.52625 56.46 -10.3125 56.375 C-13 55.625 -13 55.625 -14.8125 53.9375 C-16.40188959 50.84237291 -16.56159999 49.06479993 -16 45.625 C-13.24486941 42.18108676 -11.28823264 40.47714879 -7 39.625 C-7.48210937 39.23828125 -7.96421875 38.8515625 -8.4609375 38.453125 C-9.09257812 37.93234375 -9.72421875 37.4115625 -10.375 36.875 C-11.31472656 36.10929687 -11.31472656 36.10929687 -12.2734375 35.328125 C-15.33806628 32.30509752 -15.96058212 30.10589817 -16.3125 25.8125 C-16.17997797 20.73879941 -14.65763845 16.68047168 -11.4375 12.6875 C-10 11.625 -10 11.625 -8 11.625 C-8.103125 10.738125 -8.20625 9.85125 -8.3125 8.9375 C-8 5.625 -8 5.625 -5.875 2.75 C-3 0.625 -3 0.625 0 0 Z " fill="#FFB632" transform="translate(336,263.375)"/>
<path d="M0 0 C1.13021576 -0.0131424 1.13021576 -0.0131424 2.28326416 -0.02655029 C4.76495569 -0.04849233 7.24485402 -0.03401173 9.7265625 -0.01708984 C11.45622091 -0.02045951 13.18587702 -0.02531339 14.91552734 -0.03158569 C18.53701364 -0.03894992 22.15788247 -0.02826648 25.77929688 -0.00488281 C30.41674955 0.02360527 35.05275542 0.0071988 39.69015503 -0.02274513 C43.2607713 -0.0408306 46.83104568 -0.03505448 50.40167236 -0.02210617 C52.11126884 -0.01877558 53.82089656 -0.02284706 55.53045654 -0.03450394 C57.92217977 -0.04723405 60.31157482 -0.02780947 62.703125 0 C63.406651 -0.01012115 64.110177 -0.02024231 64.83502197 -0.03067017 C68.66324221 0.05161418 70.26362294 0.57656822 73.29052734 2.99990845 C75.3515625 5.64697266 75.3515625 5.64697266 75.9765625 8.64697266 C75.12579193 12.73067141 73.58905524 14.05503538 70.3515625 16.64697266 C67.59446761 17.14304087 65.45296939 17.33350547 62.703125 17.29394531 C61.57290924 17.30708771 61.57290924 17.30708771 60.41986084 17.32049561 C57.93816931 17.34243764 55.45827098 17.32795704 52.9765625 17.31103516 C51.24690409 17.31440483 49.51724798 17.31925871 47.78759766 17.32553101 C44.16611136 17.33289523 40.54524253 17.32221179 36.92382812 17.29882812 C32.28637545 17.27034004 27.65036958 17.28674651 23.01296997 17.31669044 C19.4423537 17.33477592 15.87207932 17.32899979 12.30145264 17.31605148 C10.59185616 17.3127209 8.88222844 17.31679237 7.17266846 17.32844925 C4.78094523 17.34117937 2.39155018 17.32175478 0 17.29394531 C-0.703526 17.30406647 -1.407052 17.31418762 -2.13189697 17.32461548 C-5.96011721 17.24233114 -7.56049794 16.71737709 -10.58740234 14.29403687 C-12.6484375 11.64697266 -12.6484375 11.64697266 -13.2734375 8.64697266 C-11.77380613 1.4487421 -6.63111506 -0.09539739 0 0 Z " fill="#D0D2D4" transform="translate(180.6484375,295.35302734375)"/>
<path d="M0 0 C1.13021576 -0.0131424 1.13021576 -0.0131424 2.28326416 -0.02655029 C4.76495569 -0.04849233 7.24485402 -0.03401173 9.7265625 -0.01708984 C11.45622091 -0.02045951 13.18587702 -0.02531339 14.91552734 -0.03158569 C18.53701364 -0.03894992 22.15788247 -0.02826648 25.77929688 -0.00488281 C30.41674955 0.02360527 35.05275542 0.0071988 39.69015503 -0.02274513 C43.2607713 -0.0408306 46.83104568 -0.03505448 50.40167236 -0.02210617 C52.11126884 -0.01877558 53.82089656 -0.02284706 55.53045654 -0.03450394 C57.92217977 -0.04723405 60.31157482 -0.02780947 62.703125 0 C63.406651 -0.01012115 64.110177 -0.02024231 64.83502197 -0.03067017 C68.66324221 0.05161418 70.26362294 0.57656822 73.29052734 2.99990845 C75.3515625 5.64697266 75.3515625 5.64697266 75.9765625 8.64697266 C75.12579193 12.73067141 73.58905524 14.05503538 70.3515625 16.64697266 C67.59446761 17.14304087 65.45296939 17.33350547 62.703125 17.29394531 C61.57290924 17.30708771 61.57290924 17.30708771 60.41986084 17.32049561 C57.93816931 17.34243764 55.45827098 17.32795704 52.9765625 17.31103516 C51.24690409 17.31440483 49.51724798 17.31925871 47.78759766 17.32553101 C44.16611136 17.33289523 40.54524253 17.32221179 36.92382812 17.29882812 C32.28637545 17.27034004 27.65036958 17.28674651 23.01296997 17.31669044 C19.4423537 17.33477592 15.87207932 17.32899979 12.30145264 17.31605148 C10.59185616 17.3127209 8.88222844 17.31679237 7.17266846 17.32844925 C4.78094523 17.34117937 2.39155018 17.32175478 0 17.29394531 C-0.703526 17.30406647 -1.407052 17.31418762 -2.13189697 17.32461548 C-5.96011721 17.24233114 -7.56049794 16.71737709 -10.58740234 14.29403687 C-12.6484375 11.64697266 -12.6484375 11.64697266 -13.2734375 8.64697266 C-11.77380613 1.4487421 -6.63111506 -0.09539739 0 0 Z " fill="#D0D2D4" transform="translate(180.6484375,263.35302734375)"/>
<path d="M0 0 C1.13021576 -0.0131424 1.13021576 -0.0131424 2.28326416 -0.02655029 C4.76495569 -0.04849233 7.24485402 -0.03401173 9.7265625 -0.01708984 C11.45622091 -0.02045951 13.18587702 -0.02531339 14.91552734 -0.03158569 C18.53701364 -0.03894992 22.15788247 -0.02826648 25.77929688 -0.00488281 C30.41674955 0.02360527 35.05275542 0.0071988 39.69015503 -0.02274513 C43.2607713 -0.0408306 46.83104568 -0.03505448 50.40167236 -0.02210617 C52.11126884 -0.01877558 53.82089656 -0.02284706 55.53045654 -0.03450394 C57.92217977 -0.04723405 60.31157482 -0.02780947 62.703125 0 C63.406651 -0.01012115 64.110177 -0.02024231 64.83502197 -0.03067017 C68.66324221 0.05161418 70.26362294 0.57656822 73.29052734 2.99990845 C75.3515625 5.64697266 75.3515625 5.64697266 75.9765625 8.64697266 C75.12579193 12.73067141 73.58905524 14.05503538 70.3515625 16.64697266 C67.59446761 17.14304087 65.45296939 17.33350547 62.703125 17.29394531 C61.57290924 17.30708771 61.57290924 17.30708771 60.41986084 17.32049561 C57.93816931 17.34243764 55.45827098 17.32795704 52.9765625 17.31103516 C51.24690409 17.31440483 49.51724798 17.31925871 47.78759766 17.32553101 C44.16611136 17.33289523 40.54524253 17.32221179 36.92382812 17.29882812 C32.28637545 17.27034004 27.65036958 17.28674651 23.01296997 17.31669044 C19.4423537 17.33477592 15.87207932 17.32899979 12.30145264 17.31605148 C10.59185616 17.3127209 8.88222844 17.31679237 7.17266846 17.32844925 C4.78094523 17.34117937 2.39155018 17.32175478 0 17.29394531 C-0.703526 17.30406647 -1.407052 17.31418762 -2.13189697 17.32461548 C-5.96011721 17.24233114 -7.56049794 16.71737709 -10.58740234 14.29403687 C-12.6484375 11.64697266 -12.6484375 11.64697266 -13.2734375 8.64697266 C-11.77380613 1.4487421 -6.63111506 -0.09539739 0 0 Z " fill="#D0D2D4" transform="translate(180.6484375,231.35302734375)"/>
<path d="M0 0 C4.23848364 0.88301743 5.42854262 2.11730128 8 5.625 C8.73290616 9.59258571 8.652778 13.50675896 8.59375 17.53125 C8.59379028 18.68870728 8.59383057 19.84616455 8.59387207 21.03869629 C8.58851653 23.48304684 8.57093268 25.92739694 8.54199219 28.37158203 C8.50015061 32.11153833 8.50092365 35.84969293 8.5078125 39.58984375 C8.49731945 41.96615834 8.48438074 44.34246365 8.46875 46.71875 C8.46854858 47.8365686 8.46834717 48.95438721 8.46813965 50.1060791 C8.44427185 51.67295471 8.44427185 51.67295471 8.41992188 53.27148438 C8.41150269 54.1868396 8.4030835 55.10219482 8.39440918 56.04528809 C7.917351 59.16558226 6.83073373 61.07382635 5 63.625 C2.19084526 65.02957737 0.11189466 64.87395157 -3 64.625 C-6.1359157 62.84515595 -6.84102736 62.10191793 -8 58.625 C-8.11226312 56.91865843 -8.16896412 55.20839861 -8.19287109 53.49853516 C-8.21696548 51.93143295 -8.21696548 51.93143295 -8.24154663 50.33267212 C-8.28602343 45.56488736 -8.32704304 40.79724045 -8.35009766 36.02929688 C-8.36667624 33.51325239 -8.39399082 30.99725536 -8.43212891 28.48144531 C-8.48682216 24.85456909 -8.50875922 21.22879524 -8.5234375 17.6015625 C-8.54610687 16.47746979 -8.56877625 15.35337708 -8.59213257 14.19522095 C-8.57101223 6.40644147 -8.57101223 6.40644147 -5.65478516 2.41552734 C-3 0.625 -3 0.625 0 0 Z " fill="#3EC285" transform="translate(312,55.375)"/>
<path d="M0 0 C7.91317365 1.13045338 7.91317365 1.13045338 10.8125 3.8125 C11.37582031 4.31394531 11.93914062 4.81539063 12.51953125 5.33203125 C15.99609121 9.24889432 16.38763979 12.67880758 16.24609375 17.7578125 C15.70977147 22.64430443 13.61685615 25.36912439 10.25 28.8125 C7 31 7 31 0 32 C0 21.44 0 10.88 0 0 Z " fill="#E5EDEF" transform="translate(352,72)"/>
<path d="M0 0 C10.9030837 -0.43612335 10.9030837 -0.43612335 15 3 C16.40457737 5.80915474 16.24895157 7.88810534 16 11 C14.22015595 14.1359157 13.47691793 14.84102736 10 16 C8.27204648 16.06802967 6.54164635 16.08495645 4.8125 16.0625 C3.224375 16.041875 1.63625 16.02125 0 16 C0 10.72 0 5.44 0 0 Z " fill="#E5EDF0" transform="translate(200,72)"/>
<path d="M0 0 C0.66 0 1.32 0 2 0 C2.99 2.97 3.98 5.94 5 9 C2.36 9 -0.28 9 -3 9 C-2.01 6.03 -1.02 3.06 0 0 Z " fill="#DEEBEB" transform="translate(263,87)"/>
</svg>
