<?xml version="1.0" encoding="UTF-8"?>
<svg version="1.1" xmlns="http://www.w3.org/2000/svg" width="512" height="512">
<path d="M0 0 C10.56 0 21.12 0 32 0 C32 10.56 32 21.12 32 32 C105.92 32 179.84 32 256 32 C256 21.44 256 10.88 256 0 C266.56 0 277.12 0 288 0 C288 10.56 288 21.12 288 32 C292.04765625 31.95359375 296.0953125 31.9071875 300.265625 31.859375 C303.52540601 31.83358925 306.78515758 31.81192015 310.04498291 31.79299927 C313.46835332 31.77201521 316.89131727 31.74405183 320.31445312 31.69824219 C324.25645777 31.64582853 328.19830569 31.62693864 332.140625 31.609375 C333.95074066 31.57840729 333.95074066 31.57840729 335.79742432 31.54681396 C350.34178036 31.54302683 361.16923358 36.49577141 371.75 46.3125 C382.50723149 57.67863139 384.45496849 70.12228137 384.38768005 85.24435425 C384.39185836 86.77886218 384.39733859 88.31336702 384.40399987 89.84786618 C384.4184081 94.04355294 384.41422428 98.23904249 384.40683305 102.43473983 C384.4020922 106.96791519 384.41461935 111.50104845 384.42485046 116.03421021 C384.4420259 124.90694754 384.44288107 133.77961401 384.43763756 142.65236364 C384.43359225 149.86598863 384.43504371 157.07959271 384.44038582 164.29321671 C384.44113424 165.32083151 384.44188266 166.34844632 384.44265376 167.40720097 C384.44418528 169.49496086 384.44572363 171.58272074 384.44726873 173.67048062 C384.46098926 193.2387758 384.45555925 212.80703096 384.44408352 232.37532522 C384.43415189 250.26596771 384.44709141 268.15650677 384.47101771 286.04713331 C384.49541727 304.43056034 384.50501445 322.8139392 384.49836498 341.19738209 C384.49487464 351.51295487 384.49709266 361.82844812 384.51461601 372.14400864 C384.52934869 380.92547774 384.52995948 389.7068113 384.5125451 398.48827778 C384.50404149 402.96575795 384.5018699 407.4429961 384.51719666 411.92046356 C384.53107282 416.02508868 384.52624327 420.12926509 384.50695742 424.23386444 C384.50320605 425.71290659 384.50609436 427.19198493 384.51656907 428.67099474 C384.6211073 444.5714461 380.52435574 456.06970973 369.6875 467.75 C357.96014598 478.84910291 345.03963999 480.4510466 329.540802 480.38768005 C327.87430077 480.39185743 326.20780239 480.39733715 324.54130924 480.40399987 C319.98077717 480.41842026 315.42042635 480.41422041 310.8598845 480.40683305 C305.93406887 480.40209524 301.00829211 480.41461666 296.08248901 480.42485046 C286.43972228 480.44203181 276.79702072 480.44287984 267.15424265 480.43763756 C259.31514141 480.43359337 251.4760594 480.43504238 243.63695908 480.44038582 C242.52053271 480.44113424 241.40410634 480.44188266 240.25384887 480.44265376 C237.98570498 480.44418527 235.7175611 480.44572362 233.44941722 480.44726873 C212.18719919 480.46099139 190.92501796 480.45555774 169.66280077 480.44408352 C150.22019511 480.43415156 130.77768462 480.44709161 111.33509363 480.47101771 C91.36061001 480.49541274 71.3861707 480.50501557 51.41167247 480.49836498 C40.20184046 480.49487365 28.99208163 480.49709922 17.78226089 480.51461601 C8.23956118 480.52934302 -1.30301381 480.52996685 -10.8457111 480.5125451 C-15.71203567 480.50403687 -20.57813747 480.50188131 -25.44445038 480.51719666 C-29.90434424 480.53105886 -34.3638248 480.52626091 -38.82369484 480.50695742 C-40.43194215 480.50320181 -42.04022268 480.50610667 -43.64844035 480.51656907 C-59.79014022 480.61406383 -71.74414106 476.82641508 -83.75 465.6875 C-94.50723149 454.32136861 -96.45496849 441.87771863 -96.38768005 426.75564575 C-96.39185836 425.22113782 -96.39733859 423.68663298 -96.40399987 422.15213382 C-96.4184081 417.95644706 -96.41422428 413.76095751 -96.40683305 409.56526017 C-96.4020922 405.03208481 -96.41461935 400.49895155 -96.42485046 395.96578979 C-96.4420259 387.09305246 -96.44288107 378.22038599 -96.43763756 369.34763636 C-96.43359225 362.13401137 -96.43504371 354.92040729 -96.44038582 347.70678329 C-96.44113424 346.67916849 -96.44188266 345.65155368 -96.44265376 344.59279903 C-96.44418528 342.50503914 -96.44572363 340.41727926 -96.44726873 338.32951938 C-96.46098926 318.7612242 -96.45555925 299.19296904 -96.44408352 279.62467478 C-96.43415189 261.73403229 -96.44709141 243.84349323 -96.47101771 225.95286669 C-96.49541727 207.56943966 -96.50501445 189.1860608 -96.49836498 170.80261791 C-96.49487464 160.48704513 -96.49709266 150.17155188 -96.51461601 139.85599136 C-96.52934869 131.07452226 -96.52995948 122.2931887 -96.5125451 113.51172222 C-96.50404149 109.03424205 -96.5018699 104.5570039 -96.51719666 100.07953644 C-96.53107282 95.97491132 -96.52624327 91.87073491 -96.50695742 87.76613556 C-96.50320605 86.28709341 -96.50609436 84.80801507 -96.51656907 83.32900526 C-96.6211073 67.4285539 -92.52435574 55.93029027 -81.6875 44.25 C-70.8300315 33.9741816 -58.85415155 31.5223265 -44.3359375 31.70703125 C-43.06271637 31.71127609 -41.78949524 31.71552094 -40.47769165 31.71989441 C-37.12710905 31.73375085 -33.77716479 31.76060259 -30.42675781 31.79400635 C-26.99419708 31.82494596 -23.5615679 31.83861582 -20.12890625 31.85351562 C-13.41891712 31.88388673 -6.71002885 31.94263117 0 32 C0 21.44 0 10.88 0 0 Z " fill="#8FC9F8" transform="translate(112,16)"/>
<path d="M0 0 C10.56 0 21.12 0 32 0 C32 10.56 32 21.12 32 32 C105.92 32 179.84 32 256 32 C256 21.44 256 10.88 256 0 C266.56 0 277.12 0 288 0 C288 10.56 288 21.12 288 32 C292.04765625 31.95359375 296.0953125 31.9071875 300.265625 31.859375 C303.52540601 31.83358925 306.78515758 31.81192015 310.04498291 31.79299927 C313.46835332 31.77201521 316.89131727 31.74405183 320.31445312 31.69824219 C324.25645777 31.64582853 328.19830569 31.62693864 332.140625 31.609375 C333.95074066 31.57840729 333.95074066 31.57840729 335.79742432 31.54681396 C350.34178036 31.54302683 361.16923358 36.49577141 371.75 46.3125 C398.56143275 74.64156102 384 132.85219018 384 160 C225.6 160 67.2 160 -96 160 C-96 59.67644458 -96 59.67644458 -81.6875 44.25 C-70.8300315 33.9741816 -58.85415155 31.5223265 -44.3359375 31.70703125 C-43.06271637 31.71127609 -41.78949524 31.71552094 -40.47769165 31.71989441 C-37.12710905 31.73375085 -33.77716479 31.76060259 -30.42675781 31.79400635 C-26.99419708 31.82494596 -23.5615679 31.83861582 -20.12890625 31.85351562 C-13.41891712 31.88388673 -6.71002885 31.94263117 0 32 C0 21.44 0 10.88 0 0 Z " fill="#3096ED" transform="translate(112,16)"/>
<path d="M0 0 C13.55019413 10.34190807 24.01229978 24.94545018 27 42 C28.86184414 60.57977386 25.39527115 78.26332058 13.5234375 93.09375 C2.71180256 105.66853101 -10.07142153 112.75007559 -26 117 C-25.28457031 117.15855469 -24.56914062 117.31710937 -23.83203125 117.48046875 C-1.26961706 122.76351787 18.39350334 133.85588571 31.14599609 153.79150391 C42.90622162 173.32325703 43 189.39337321 43 213 C-9.8 213 -62.6 213 -117 213 C-117 183.16843152 -114.54849202 162.89837603 -94.5625 141.375 C-93.2940625 140.199375 -93.2940625 140.199375 -92 139 C-91.401875 138.40832031 -90.80375 137.81664062 -90.1875 137.20703125 C-77.08554371 124.75535588 -61.68389274 119.4215781 -44 117 C-44.84820312 116.86464844 -45.69640625 116.72929687 -46.5703125 116.58984375 C-63.94267261 113.40172931 -78.49451563 104.86048751 -89.21875 90.6640625 C-96.28315189 80.09844389 -100.23951888 68.6674426 -101 56 C-101.07605469 55.21753906 -101.15210938 54.43507813 -101.23046875 53.62890625 C-102.18470397 36.68478361 -94.37020361 21.46909433 -83.875 8.75 C-61.9061853 -14.54680868 -26.30496634 -17.68951659 0 0 Z " fill="#3096ED" transform="translate(293,235)"/>
<path d="M0 0 C10.56 0 21.12 0 32 0 C32 21.12 32 42.24 32 64 C21.44 64 10.88 64 0 64 C0 42.88 0 21.76 0 0 Z " fill="#8FC9F8" transform="translate(368,16)"/>
<path d="M0 0 C10.56 0 21.12 0 32 0 C32 21.12 32 42.24 32 64 C21.44 64 10.88 64 0 64 C0 42.88 0 21.76 0 0 Z " fill="#8FC9F8" transform="translate(112,16)"/>
</svg>
