<?xml version="1.0" encoding="UTF-8"?>
<svg version="1.1" xmlns="http://www.w3.org/2000/svg" width="512" height="512">
<path d="M0 0 C0.98079025 0.00022659 1.96158051 0.00045319 2.97209167 0.00068665 C4.028423 0.0161705 5.08475433 0.03165436 6.1730957 0.04760742 C7.25645706 0.05185226 8.33981842 0.05609711 9.45600891 0.06047058 C12.92054972 0.07728048 16.38451157 0.11493769 19.84887695 0.15307617 C22.19587377 0.16811999 24.54287969 0.18180892 26.88989258 0.1940918 C32.64726425 0.22464028 38.40424751 0.28092672 44.16137695 0.34057617 C43.98269042 0.92277955 43.80400389 1.50498293 43.61990261 2.10482883 C39.22527623 16.44055083 34.94256785 30.80395732 30.7902832 45.21166992 C30.36964253 46.67099788 30.36964253 46.67099788 29.94050407 48.15980721 C28.46614308 53.2776989 26.99456835 58.39638327 25.52490234 63.515625 C24.31747564 67.71914304 23.10392411 71.92082187 21.88525391 76.12109375 C20.39595717 81.25425259 18.91704241 86.39029465 17.44553947 91.52858162 C16.88817456 93.46840759 16.32722301 95.40720698 15.76251411 97.34490776 C14.97736884 100.04180357 14.20566539 102.74221264 13.43701172 105.44384766 C13.20488983 106.22986862 12.97276794 107.01588959 12.73361206 107.82572937 C11.33166885 112.82098732 10.94707448 117.15135713 11.16137695 122.34057617 C18.61611533 122.72603317 24.60885122 121.33779475 31.72387695 119.21557617 C52.33895763 113.37191948 73.79307057 109.12706867 95.16137695 107.34057617 C96.42079102 107.23100586 97.68020508 107.12143555 98.9777832 107.00854492 C124.10352366 105.07579566 150.7442002 105.60354393 173.16137695 118.34057617 C173.63575195 117.37120117 174.11012695 116.40182617 174.59887695 115.40307617 C176.16137695 112.34057617 176.16137695 112.34057617 177.16137695 111.34057617 C184.43410423 110.87136796 184.43410423 110.87136796 187.09887695 112.59057617 C188.25595406 114.49635023 188.66594452 116.18031223 189.16137695 118.34057617 C189.92579102 117.95385742 190.69020508 117.56713867 191.4777832 117.16870117 C236.02901593 95.50961811 296.88973999 107.25003052 342.16137695 122.34057617 C346.81617395 122.64595797 346.81617395 122.64595797 351.16137695 121.34057617 C351.53775793 114.52968208 350.19830119 108.99053316 348.22387695 102.49682617 C347.91180801 101.43807785 347.59973907 100.37932953 347.2782135 99.28849792 C346.24888605 95.80292737 345.20501376 92.32188616 344.16137695 88.84057617 C343.07271817 85.16630238 341.98800934 81.49087737 340.90357971 77.81535339 C340.15024334 75.26259375 339.39588387 72.7101611 338.63999939 70.15815735 C335.89843613 60.89379814 333.21723088 51.61321082 330.5715332 42.32104492 C330.2948839 41.34968031 330.2948839 41.34968031 330.01264572 40.35869217 C328.39288763 34.6694907 326.77729363 28.97910878 325.16308594 23.28833008 C324.17580401 19.80920354 323.18627895 16.33072118 322.1965332 12.85229492 C321.90247086 11.81219772 321.60840851 10.77210052 321.30543518 9.70048523 C321.03625778 8.75502335 320.76708038 7.80956146 320.48974609 6.83544922 C320.13910851 5.59869698 320.13910851 5.59869698 319.78138733 4.33695984 C319.20665602 2.2962923 319.20665602 2.2962923 318.16137695 0.34057617 C324.79989302 0.26460931 331.4382973 0.21201161 338.07714844 0.17578125 C340.33630563 0.16068015 342.59543345 0.14019775 344.85449219 0.11425781 C348.09878788 0.0779331 351.34269651 0.06086309 354.5871582 0.04760742 C355.59974197 0.03212357 356.61232574 0.01663971 357.65559387 0.00068665 C359.066717 0.00034676 359.066717 0.00034676 360.50634766 0 C361.33463577 -0.00666183 362.16292389 -0.01332367 363.01631165 -0.02018738 C365.72383605 0.43517224 366.41045917 1.26581082 368.16137695 3.34057617 C369.13162739 6.2101604 369.9576712 9.00889598 370.71411133 11.93481445 C371.06865387 13.25582909 371.06865387 13.25582909 371.43035889 14.60353088 C372.21501182 17.53681929 372.9850152 20.47375209 373.75512695 23.41088867 C374.30650837 25.48338521 374.85881213 27.55563655 375.4119873 29.62765503 C376.87663035 35.1234875 378.32901801 40.62248702 379.77880859 46.12225342 C381.2118959 51.55103789 382.65557365 56.97700048 384.09887695 62.40307617 C385.80088405 68.80246216 387.5007635 75.20237071 389.18945312 81.60528564 C391.90718539 91.90347488 394.65762902 102.19042109 397.4934082 112.45678711 C398.27086062 115.2880512 399.04757957 118.11951566 399.82417297 120.95101547 C400.31455726 122.728149 400.80932645 124.50407915 401.3087616 126.27869034 C401.99238604 128.70778823 402.66130258 131.14050892 403.32739258 133.57446289 C403.53026382 134.27864727 403.73313507 134.98283165 403.94215393 135.70835495 C405.07175885 139.90269541 405.58670934 143.18642194 404.16137695 147.34057617 C400.17667261 150.47315309 396.61334472 150.76804667 391.71969604 150.71809959 C390.97591713 150.72245992 390.23213822 150.72682024 389.46582055 150.73131269 C386.9655548 150.74228886 384.4658382 150.73183612 381.96557617 150.7215271 C380.15815892 150.72498273 378.35074377 150.72974666 376.54333305 150.73570883 C371.57033642 150.74826147 366.59751193 150.74202908 361.62451458 150.73275018 C356.26384487 150.72597746 350.90320528 150.73643208 345.5425415 150.74468994 C335.0384931 150.75804848 324.53450892 150.75514009 314.03045797 150.74645202 C305.49562139 150.73968422 296.96080285 150.73875483 288.42596436 150.74202347 C287.2124772 150.74248317 285.99899004 150.74294287 284.74873054 150.7434165 C282.28376086 150.74437565 279.81879119 150.74534828 277.35382152 150.74633427 C254.22527719 150.75489438 231.09676849 150.74504429 207.96823001 150.72893317 C188.11137051 150.71552943 168.25456362 150.71785735 148.39770508 150.73168945 C125.35342861 150.7477343 102.30918339 150.75407035 79.26490211 150.74485266 C76.8088646 150.74389699 74.35282708 150.74295388 71.89678955 150.74202347 C70.68828775 150.74156064 69.47978595 150.74109781 68.23466289 150.74062096 C59.70743936 150.73802779 51.18023561 150.74240912 42.65301514 150.74946213 C32.26496791 150.75786516 21.87698871 150.75562221 11.4889493 150.7396199 C6.18610927 150.73172106 0.88338278 150.72867301 -4.41945648 150.73856735 C-9.27017357 150.74748139 -14.12067146 150.74263588 -18.97136855 150.7266347 C-20.72970606 150.7232729 -22.48806194 150.72501217 -24.24638772 150.73226206 C-26.63017188 150.74133978 -29.01319802 150.73207403 -31.39694214 150.71809959 C-32.08508114 150.72512309 -32.77322013 150.73214659 -33.48221183 150.73938292 C-37.74353998 150.68920208 -40.47459095 149.99463484 -43.83862305 147.34057617 C-45.32183796 142.78051338 -44.6208108 139.3268268 -43.38598633 134.77441406 C-43.13405313 133.82578239 -43.13405313 133.82578239 -42.87703037 132.85798645 C-42.31580478 130.75646175 -41.73741251 128.660068 -41.15893555 126.56323242 C-40.754209 125.06127608 -40.35057358 123.55902535 -39.94795227 122.0565033 C-38.85992981 118.00829567 -37.75704707 113.96427758 -36.65101242 109.92095947 C-35.5026758 105.7146425 -34.36660655 101.50501613 -33.22949219 97.2956543 C-31.83158759 92.12432013 -30.43199132 86.9534622 -29.0259552 81.78433228 C-26.12218707 71.10724396 -23.25530259 60.42116623 -20.42584991 49.7241497 C-19.26514356 45.3396537 -18.09860626 40.95670553 -16.93206787 36.57375813 C-16.01371606 33.12180143 -15.09855202 29.66906516 -14.19049072 26.21438599 C-13.18730707 22.39925532 -12.16798771 18.58854095 -11.1472168 14.77807617 C-10.85430252 13.65352524 -10.56138824 12.5289743 -10.25959778 11.37034607 C-9.98331039 10.34860794 -9.70702301 9.32686981 -9.42236328 8.27416992 C-9.18734604 7.38785889 -8.9523288 6.50154785 -8.71018982 5.58837891 C-6.91322812 0.95394866 -4.86036125 -0.03748351 0 0 Z " fill="#E1C64C" transform="translate(75.838623046875,326.659423828125)"/>
<path d="M0 0 C0.8069632 -0.01286545 1.61392639 -0.0257309 2.44534302 -0.03898621 C3.32219757 -0.04279297 4.19905212 -0.04659973 5.10247803 -0.05052185 C6.03321136 -0.06205795 6.9639447 -0.07359406 7.92288208 -0.08547974 C11.00587658 -0.11981378 14.08867007 -0.13830345 17.17181396 -0.15379333 C18.22936638 -0.16069624 19.28691879 -0.16759914 20.37651825 -0.17471123 C25.98406626 -0.21057329 31.59151349 -0.23409096 37.19915771 -0.24778748 C42.95549127 -0.26425261 48.7105783 -0.3225475 54.46649551 -0.39093113 C58.92104737 -0.43602598 63.37531006 -0.4493054 67.8300705 -0.45440483 C69.94931403 -0.46223717 72.0685513 -0.48169205 74.18756866 -0.51362801 C87.74794367 -0.70435372 98.0006805 0.61136315 109.90618896 7.28761292 C110.54359953 7.61639246 111.18101009 7.945172 111.83773613 8.28391457 C115.5230775 10.23587081 116.76942415 10.98395491 118.53753662 14.90968323 C118.95128723 16.47125467 119.33458656 18.04105834 119.69525146 19.61573792 C120.18511551 21.51744217 120.6750286 23.41913379 121.16497803 25.32081604 C121.43427124 26.40789856 121.70356445 27.49498108 121.98101807 28.61500549 C123.02586751 32.76269519 124.13097346 36.89158444 125.2489624 41.02003479 C127.02656221 47.59150833 128.7929503 54.16575107 130.54290771 60.74464417 C130.76678539 61.58622322 130.99066307 62.42780228 131.22132492 63.29488373 C131.67738665 65.00939111 132.13341703 66.72390684 132.5894165 68.43843079 C133.52271679 71.94510035 134.458375 75.45113906 135.39403343 78.95718002 C136.29570787 82.3367962 137.19614839 85.7167401 138.09617996 89.09679413 C138.52566986 90.70930572 138.95549545 92.32172795 139.38566208 93.93405914 C139.98015919 96.16323921 140.57304788 98.3928406 141.16546631 100.62257385 C141.50266693 101.88937988 141.83986755 103.15618591 142.18728638 104.46138 C142.90618896 107.28761292 142.90618896 107.28761292 142.90618896 108.28761292 C135.55237617 107.64647167 128.58478969 106.16126745 121.40618896 104.47511292 C82.83466243 95.70419048 33.15814444 86.45456067 -4.08990479 105.33448792 C-6.09381104 106.28761292 -6.09381104 106.28761292 -8.09381104 106.28761292 C-8.09381104 71.96761292 -8.09381104 37.64761292 -8.09381104 2.28761292 C-3.59318642 0.03730061 -3.59318642 0.03730061 0 0 Z " fill="#E1C64C" transform="translate(271.09381103515625,326.71238708496094)"/>
<path d="M0 0 C0.95059296 -0.00365067 1.90118591 -0.00730133 2.88058472 -0.01106262 C5.99967721 -0.01912075 9.1182426 -0.0056014 12.23730469 0.0090332 C14.41347249 0.00955221 16.58964077 0.00903295 18.76580811 0.00752258 C23.31497238 0.00761208 27.86395861 0.01799946 32.41308594 0.03613281 C38.24623664 0.05887315 44.07912866 0.0593519 49.91231155 0.05261517 C54.40067854 0.04927642 58.88898644 0.05590264 63.37734222 0.0657444 C65.52875204 0.06959424 67.68016844 0.07074551 69.83158112 0.06915855 C72.83316121 0.06878819 75.8344075 0.08139843 78.8359375 0.09765625 C80.17007187 0.09394012 80.17007187 0.09394012 81.53115845 0.09014893 C82.75894516 0.10077614 82.75894516 0.10077614 84.01153564 0.11161804 C85.07444761 0.11469735 85.07444761 0.11469735 86.15883255 0.11783886 C88.15917969 0.37231445 88.15917969 0.37231445 92.15917969 2.37231445 C92.15917969 36.69231445 92.15917969 71.01231445 92.15917969 106.37231445 C86.87917969 104.39231445 81.59917969 102.41231445 76.15917969 100.37231445 C72.69259955 99.4762084 69.40862098 98.6767195 65.90917969 98.05981445 C65.05984863 97.90158203 64.21051758 97.74334961 63.33544922 97.58032227 C56.95337767 96.42835896 50.64897193 95.56221932 44.15917969 95.37231445 C42.87785156 95.33235352 41.59652344 95.29239258 40.27636719 95.2512207 C11.27218842 94.66370186 -17.60477777 99.57658074 -45.68212891 106.49243164 C-46.68453613 106.73767578 -47.68694336 106.98291992 -48.71972656 107.2355957 C-50.02792358 107.56491089 -50.02792358 107.56491089 -51.36254883 107.90087891 C-53.91398911 108.38623318 -56.25008366 108.45674769 -58.84082031 108.37231445 C-58.21515718 105.95417891 -57.58879619 103.53622786 -56.96191406 101.1184082 C-56.75895218 100.33501572 -56.5559903 99.55162323 -56.34687805 98.74449158 C-55.177541 94.2404867 -53.99619155 89.74001657 -52.796875 85.24389648 C-50.15309425 75.31352172 -47.58025533 65.37757459 -45.20057678 55.38008118 C-44.00233353 50.386979 -42.75453931 45.40692954 -41.49978638 40.42776489 C-40.89702094 37.98713659 -40.31574892 35.54109284 -39.75680542 33.09005737 C-35.05575619 12.5606679 -35.05575619 12.5606679 -29.29589844 8.12719727 C-25.67158821 5.92716291 -21.89631802 4.60380223 -17.84082031 3.37231445 C-16.64561768 2.86125656 -15.45041504 2.35019867 -14.21899414 1.82365417 C-9.45229868 0.03077365 -5.04799984 -0.04378129 0 0 Z " fill="#E1C64C" transform="translate(158.8408203125,326.627685546875)"/>
<path d="M0 0 C2.06216656 -0.01422691 4.11846886 -0.08194345 6.17944336 -0.15087891 C12.07680486 -0.25173447 17.17625852 -0.33542438 21.89233398 3.58349609 C23.69335938 5.51123047 23.69335938 5.51123047 25.36499023 7.61083984 C25.9430542 8.31402344 26.52111816 9.01720703 27.11669922 9.74169922 C28.89585441 12.00775745 30.57641944 14.32129602 32.23999023 16.67333984 C33.44401267 18.36112858 34.64844314 20.04862631 35.85327148 21.73583984 C36.44060059 22.56212891 37.02792969 23.38841797 37.63305664 24.23974609 C39.22707579 26.42202886 40.88227077 28.52161187 42.59545898 30.61083984 C43.31789795 31.52144165 43.31789795 31.52144165 44.05493164 32.45043945 C45.33877222 34.0619768 46.64978083 35.65176529 47.96264648 37.23974609 C50.11345778 42.41008077 48.40122518 45.57864422 46.36499023 50.61083984 C46.12700714 51.20917633 45.88902405 51.80751282 45.64382935 52.42398071 C43.37593369 58.1233507 41.06059228 63.80470301 38.67895508 69.45751953 C37.77110906 71.61933085 36.88680387 73.78961318 36.00561523 75.96240234 C35.58545135 76.93616318 35.58545135 76.93616318 35.15679932 77.92959595 C32.3203028 85.03382881 33.92081262 90.84015636 36.21264648 97.93896484 C36.74921875 99.63279297 36.74921875 99.63279297 37.29663086 101.36083984 C37.85640625 103.09333984 37.85640625 103.09333984 38.42749023 104.86083984 C39.1735717 107.17688077 39.91468353 109.49453014 40.65014648 111.81396484 C40.97893799 112.83135742 41.30772949 113.84875 41.64648438 114.89697266 C42.36499023 117.61083984 42.36499023 117.61083984 42.36499023 121.61083984 C25.20499023 121.61083984 8.04499023 121.61083984 -9.63500977 121.61083984 C-9.88500977 101.36083984 -9.88500977 101.36083984 -9.93286133 94.98486328 C-9.96223157 93.31328577 -9.99305746 91.64173293 -10.02563477 89.97021484 C-10.02732666 88.67301514 -10.02732666 88.67301514 -10.02905273 87.34960938 C-10.1366134 82.34276778 -10.1366134 82.34276778 -12.50512695 78.01806641 C-14.58412396 76.3438901 -14.58412396 76.3438901 -17.32250977 76.73583984 C-19.79928073 77.37414835 -19.79928073 77.37414835 -20.63500977 79.61083984 C-20.75205941 80.96836281 -20.81178166 82.33109872 -20.84033203 83.69335938 C-20.86027725 84.5340799 -20.88022247 85.37480042 -20.90077209 86.24099731 C-20.92584084 87.60356155 -20.92584084 87.60356155 -20.95141602 88.99365234 C-20.97219711 89.92305634 -20.99297821 90.85246033 -21.01438904 91.81002808 C-21.07988623 94.78522194 -21.13877029 97.76050562 -21.19750977 100.73583984 C-21.24069482 102.75017213 -21.28430911 104.76449526 -21.32836914 106.77880859 C-21.4355678 111.72272648 -21.53683478 116.66673487 -21.63500977 121.61083984 C-26.81273723 121.73469069 -31.98959765 121.82529555 -37.16845703 121.88549805 C-38.92902653 121.91060045 -40.68949223 121.94469012 -42.44970703 121.98803711 C-44.98439155 122.04888099 -47.51769551 122.07709097 -50.05297852 122.09912109 C-51.22826363 122.13783073 -51.22826363 122.13783073 -52.42729187 122.17732239 C-56.20391469 122.17924875 -58.2865218 121.80640159 -61.63427734 119.92773438 C-64.8660129 114.57003343 -64.30695077 109.18747857 -64.22875977 103.05224609 C-64.22704561 101.70287686 -64.22711744 100.3535043 -64.22888184 99.00413513 C-64.22722961 96.17357546 -64.20857254 93.34380859 -64.17700195 90.51342773 C-64.1376664 86.92632776 -64.13291731 83.3402812 -64.14046478 79.75300694 C-64.14357337 76.96181488 -64.13127276 74.17084923 -64.11433411 71.37971306 C-64.10408667 69.42703927 -64.10345954 67.47432236 -64.10314941 65.5216217 C-63.87037018 47.6140482 -59.59522755 31.86863541 -46.87719727 18.78662109 C-46.13727539 18.06861328 -45.39735352 17.35060547 -44.63500977 16.61083984 C-43.99821289 15.96501953 -43.36141602 15.31919922 -42.70532227 14.65380859 C-30.93275041 3.44299847 -15.77743723 0.04155437 0 0 Z " fill="#463533" transform="translate(336.635009765625,160.38916015625)"/>
<path d="M0 0 C1.40798095 -0.01138313 2.81592363 -0.03161086 4.22363281 -0.06152344 C21.47049217 -0.42791174 36.45095602 4.01609022 49.13110352 16.01098633 C63.30747148 29.87150417 68.49356966 45.31388449 68.74888611 64.86605835 C68.75424881 66.14977325 68.75961151 67.43348816 68.76513672 68.75610352 C68.77412796 70.11845992 68.78325015 71.48081546 68.79249573 72.84317017 C68.80884752 75.67533754 68.81666243 78.5073885 68.81958008 81.33959961 C68.8250032 84.96121979 68.86290013 88.58174544 68.90832424 92.20305443 C68.93808263 95.00668356 68.94530306 97.81004579 68.94630623 100.61381912 C68.95252439 102.59530765 68.98196211 104.57667965 69.01182556 106.55795288 C68.96753851 115.3414652 68.96753851 115.3414652 66.39550781 119.61865234 C62.37357283 121.86516508 59.344598 121.93273426 54.81201172 121.78344727 C53.59074333 121.77283516 53.59074333 121.77283516 52.34480286 121.76200867 C49.75609654 121.734122 47.16959024 121.67139917 44.58154297 121.60766602 C42.82180869 121.58257552 41.06204034 121.55976366 39.30224609 121.53930664 C34.99867 121.48431473 30.69672887 121.39808593 26.39404297 121.29516602 C26.37946045 120.03857178 26.36487793 118.78197754 26.34985352 117.48730469 C26.29192693 112.8297871 26.21469386 108.17275586 26.1315918 103.515625 C26.09831587 101.49910367 26.07029229 99.4824886 26.04760742 97.46582031 C26.01411041 94.56868501 25.96179752 91.67241084 25.90576172 88.77563477 C25.8993718 87.87241989 25.89298187 86.96920502 25.88639832 86.03862 C25.86660416 85.19797501 25.84681 84.35733002 25.82641602 83.49121094 C25.81531296 82.75174728 25.8042099 82.01228363 25.79277039 81.25041199 C25.28206644 78.74606492 24.41749892 77.81905829 22.39404297 76.29516602 C19.80286984 76.29672826 19.80286984 76.29672826 17.39404297 77.29516602 C15.37148957 80.32899611 15.1382721 80.98275465 15.07519531 84.39941406 C15.05513428 85.23146362 15.03507324 86.06351318 15.0144043 86.92077637 C15.00304443 87.79069214 14.99168457 88.66060791 14.97998047 89.55688477 C14.96233643 90.35984985 14.94469238 91.16281494 14.92651367 91.9901123 C14.86348371 94.98742711 14.81727137 97.98507651 14.76904297 100.98266602 C14.64529297 107.68579102 14.52154297 114.38891602 14.39404297 121.29516602 C-2.76595703 121.29516602 -19.92595703 121.29516602 -37.60595703 121.29516602 C-36.92929783 115.8818924 -36.44740829 112.22078042 -34.72314453 107.32641602 C-34.17980469 105.72733398 -34.17980469 105.72733398 -33.62548828 104.09594727 C-32.86162512 101.89299719 -32.09076866 99.69245975 -31.31298828 97.49438477 C-30.95333984 96.42833008 -30.59369141 95.36227539 -30.22314453 94.26391602 C-29.88911621 93.30936523 -29.55508789 92.35481445 -29.2109375 91.37133789 C-27.77393885 84.0645651 -30.24118167 77.99488883 -33.05517578 71.37719727 C-33.74502831 69.69441824 -34.43446947 68.01147052 -35.12353516 66.32836914 C-36.21044293 63.70564023 -37.30281091 61.08541633 -38.40307617 58.46826172 C-39.46874207 55.92296611 -40.51304918 53.36970252 -41.55517578 50.81469727 C-42.05811409 49.64424614 -42.05811409 49.64424614 -42.57121277 48.45014954 C-44.7690121 43.0184811 -44.7690121 43.0184811 -43.97827148 39.51074219 C-42.63787149 37.34669132 -41.28309478 35.3200904 -39.69970703 33.32641602 C-39.12534912 32.59640381 -38.55099121 31.8663916 -37.95922852 31.11425781 C-37.34764893 30.34895752 -36.73606934 29.58365723 -36.10595703 28.79516602 C-34.83600215 27.18742764 -33.5664738 25.57935225 -32.29736328 23.97094727 C-31.67104004 23.18026855 -31.0447168 22.38958984 -30.39941406 21.57495117 C-28.79126383 19.53072208 -27.20516971 17.47281609 -25.63330078 15.40063477 C-25.19115234 14.81797852 -24.74900391 14.23532227 -24.29345703 13.63500977 C-23.12406056 12.0892138 -21.9567288 10.54185649 -20.78955078 8.99438477 C-18.55321274 6.2299669 -16.16200487 3.76382761 -13.60595703 1.29516602 C-10.99255789 -1.31823312 -3.73580871 0.02094926 0 0 Z " fill="#BE423E" transform="translate(170.60595703125,160.704833984375)"/>
<path d="M0 0 C1.43532157 -0.01152804 2.87059999 -0.03199336 4.30566406 -0.06152344 C6.38961635 -0.10436077 8.47230185 -0.1203876 10.55664062 -0.13061523 C11.79849121 -0.14519775 13.0403418 -0.15978027 14.31982422 -0.17480469 C19.25051836 0.49427654 22.23548981 2.6006391 25.55908203 6.23950195 C26.27717041 7.24932129 26.27717041 7.24932129 27.00976562 8.27954102 C27.56140381 9.04242432 28.11304199 9.80530762 28.68139648 10.59130859 C29.25124268 11.40108154 29.82108887 12.21085449 30.40820312 13.04516602 C31.62951358 14.75316039 32.8521957 16.46017468 34.07617188 18.16625977 C34.68895996 19.0233252 35.30174805 19.88039062 35.93310547 20.76342773 C37.70304559 23.18547565 39.52946064 25.54510767 41.39648438 27.89282227 C42.23735596 28.96161621 42.23735596 28.96161621 43.09521484 30.05200195 C44.15527936 31.39260623 45.22803477 32.72330093 46.31494141 34.04223633 C49.8391234 38.55463017 49.8391234 38.55463017 49.57397461 42.06591797 C48.69701682 45.64712226 47.51570421 48.94937596 46.16601562 52.38110352 C45.77928177 53.37202499 45.77928177 53.37202499 45.38473511 54.38296509 C44.56465589 56.48087599 43.73667504 58.57555714 42.90820312 60.67016602 C42.35947989 62.06838931 41.81129796 63.46682515 41.26367188 64.86547852 C40.99746033 65.5441095 40.73124878 66.22274048 40.45697021 66.92193604 C39.93301814 68.26114928 39.41137988 69.60127027 38.89215088 70.94232178 C37.87179461 73.57069462 36.83841111 76.17499615 35.66113281 78.73754883 C33.19053394 84.23715095 34.04748816 87.7938499 35.78320312 93.29516602 C36.0890332 94.32367676 36.39486328 95.3521875 36.70996094 96.41186523 C37.74951814 99.8609426 38.82379879 103.2974417 39.90820312 106.73266602 C40.64251005 109.06389995 41.37441143 111.39589342 42.10351562 113.72875977 C42.42594238 114.75026123 42.74836914 115.7717627 43.08056641 116.82421875 C43.78320312 119.29516602 43.78320312 119.29516602 43.78320312 121.29516602 C26.29320312 121.29516602 8.80320312 121.29516602 -9.21679688 121.29516602 C-9.52929687 100.48266602 -9.52929687 100.48266602 -9.60473633 93.92089844 C-9.63701946 92.20578824 -9.67039221 90.49069805 -9.70507812 88.77563477 C-9.71132202 87.8841272 -9.71756592 86.99261963 -9.72399902 86.07409668 C-9.74393921 85.22174438 -9.76387939 84.36939209 -9.78442383 83.49121094 C-9.80107841 82.38201546 -9.80107841 82.38201546 -9.81806946 81.25041199 C-10.32876099 78.7461258 -11.19080441 77.81612266 -13.21679688 76.29516602 C-16.5587238 76.53969725 -17.82223245 76.90060159 -20.21679688 79.29516602 C-20.54592573 81.19128127 -20.54592573 81.19128127 -20.53564453 83.37768555 C-20.55551422 84.21840607 -20.57538391 85.05912659 -20.59585571 85.92532349 C-20.61318253 87.28788773 -20.61318253 87.28788773 -20.63085938 88.67797852 C-20.65022552 89.60738251 -20.66959167 90.5367865 -20.68954468 91.49435425 C-20.74943372 94.46953082 -20.79576298 97.44474589 -20.84179688 100.42016602 C-20.87996808 102.43450602 -20.9190193 104.44882955 -20.95898438 106.46313477 C-21.05514288 111.40701177 -21.13913927 116.35096518 -21.21679688 121.29516602 C-26.41289145 121.36938506 -31.6086767 121.42380048 -36.80517578 121.45996094 C-38.57248307 121.47503703 -40.33975301 121.49550123 -42.10693359 121.52148438 C-44.64885683 121.55792004 -47.19028494 121.57490395 -49.73242188 121.58813477 C-50.52110657 121.60361862 -51.30979126 121.61910248 -52.12237549 121.63505554 C-55.18888538 121.63599394 -57.65928187 121.57717097 -60.42510986 120.17814636 C-63.01323384 117.45814752 -62.7243581 115.54079585 -62.734375 111.8269043 C-62.74138428 111.17435165 -62.74839355 110.52179901 -62.75561523 109.84947205 C-62.77324248 107.68770957 -62.76154391 105.52725489 -62.74804688 103.36547852 C-62.75074372 101.85390982 -62.75462774 100.34234281 -62.75964355 98.83078003 C-62.76554763 95.65467902 -62.75695907 92.4790273 -62.73828125 89.30297852 C-62.71568508 85.2672422 -62.72848372 81.23258138 -62.75257111 77.19688606 C-62.76717248 74.06861595 -62.76235508 70.94059147 -62.75205994 67.81231308 C-62.74942176 66.32703393 -62.75255795 64.84173126 -62.76197815 63.35647964 C-62.85424189 44.69235542 -57.28843539 29.41053429 -44.13476562 16.02563477 C-31.59374307 4.29046105 -16.71217074 0.09348132 0 0 Z " fill="#BD423E" transform="translate(62.216796875,160.704833984375)"/>
<path d="M0 0 C2.06802891 0.00839395 4.13317999 -0.02006093 6.20092773 -0.05200195 C23.95727588 -0.14621458 38.76872203 6.11067042 51.43334961 18.51245117 C64.29350882 31.81926653 67.48603933 47.42956997 67.50366211 65.21557617 C67.5100971 66.74395368 67.51682598 68.27232997 67.52383423 69.80070496 C67.53575458 72.98874778 67.53951986 76.17668258 67.53833008 79.36474609 C67.53812574 83.45168053 67.56556803 87.53792854 67.5998745 91.62469959 C67.62207821 94.77395326 67.62616985 97.92303896 67.62511063 101.0723629 C67.62747105 102.57988568 67.63631946 104.08741278 67.65177536 105.59485817 C67.67132992 107.69654966 67.66564401 109.79672261 67.65356445 111.8984375 C67.65641449 113.09342361 67.65926453 114.28840973 67.66220093 115.51960754 C67.16772461 118.44604492 67.16772461 118.44604492 65.37802124 120.33398438 C61.92927965 122.06914037 58.4533598 121.81302842 54.68334961 121.73901367 C53.86775574 121.73476883 53.05216187 121.73052399 52.21185303 121.72615051 C49.61347077 121.70939208 47.01587142 121.6717459 44.41772461 121.63354492 C42.65341291 121.61849438 40.88908903 121.60480662 39.12475586 121.5925293 C34.80544496 121.55949793 30.48671741 121.50773578 26.16772461 121.44604492 C26.15314209 120.18945068 26.13855957 118.93285645 26.12353516 117.63818359 C26.06560857 112.98066601 25.9883755 108.32363476 25.90527344 103.66650391 C25.87199751 101.64998257 25.84397393 99.6333675 25.82128906 97.61669922 C25.78779205 94.71956392 25.73547916 91.82328975 25.67944336 88.92651367 C25.67305344 88.0232988 25.66666351 87.12008392 25.66007996 86.1894989 C25.6402858 85.34885391 25.62049164 84.50820892 25.60009766 83.64208984 C25.5889946 82.90262619 25.57789154 82.16316254 25.56645203 81.40129089 C25.05278113 78.88239478 24.22421997 77.95736672 22.16772461 76.44604492 C19.04778855 76.52146833 19.04778855 76.52146833 16.16772461 77.44604492 C15.03753034 79.70643347 15.01503504 81.01723318 14.96240234 83.52856445 C14.94222046 84.3810376 14.92203857 85.23351074 14.90124512 86.11181641 C14.88476929 87.00843994 14.86829346 87.90506348 14.85131836 88.82885742 C14.83266724 89.65248779 14.81401611 90.47611816 14.7947998 91.32470703 C14.72640842 94.40670867 14.66631957 97.48889002 14.60522461 100.57104492 C14.46084961 107.45979492 14.31647461 114.34854492 14.16772461 121.44604492 C-3.32227539 121.44604492 -20.81227539 121.44604492 -38.83227539 121.44604492 C-36.59392612 112.49264784 -34.10709932 103.89142117 -31.08618164 95.20776367 C-30.78067383 94.28866211 -30.47516602 93.36956055 -30.16040039 92.42260742 C-29.88099609 91.60872559 -29.6015918 90.79484375 -29.3137207 89.95629883 C-28.13233546 83.79656096 -30.92920497 78.29838373 -33.24633789 72.72338867 C-33.93161464 71.03409002 -34.61649876 69.34463205 -35.30102539 67.6550293 C-36.38024992 65.01087997 -37.46347718 62.36853333 -38.55395508 59.72900391 C-39.60863176 57.16910675 -40.64718176 54.60312598 -41.68383789 52.03588867 C-42.01396881 51.24931381 -42.34409973 50.46273895 -42.68423462 49.65232849 C-45.48843703 42.65930893 -45.48843703 42.65930893 -43.83227539 38.44604492 C-42.63989258 36.49584961 -42.63989258 36.49584961 -41.12915039 34.61791992 C-40.56695801 33.90837158 -40.00476563 33.19882324 -39.42553711 32.46777344 C-38.81726074 31.71810303 -38.20898438 30.96843262 -37.58227539 30.19604492 C-36.30788586 28.59654256 -35.03447285 26.99626175 -33.76196289 25.39526367 C-33.11066406 24.57977051 -32.45936523 23.76427734 -31.78833008 22.92407227 C-29.8770062 20.50271214 -28.00736761 18.05544129 -26.15258789 15.59057617 C-25.57283203 14.82068359 -24.99307617 14.05079102 -24.39575195 13.25756836 C-23.29261361 11.78820595 -22.19285048 10.31630182 -21.09692383 8.84155273 C-20.59451172 8.17607422 -20.09209961 7.5105957 -19.57446289 6.82495117 C-19.1398877 6.24302002 -18.7053125 5.66108887 -18.25756836 5.06152344 C-13.06524396 -0.82364453 -7.32919332 -0.0452472 0 0 Z " fill="#473533" transform="translate(444.832275390625,160.553955078125)"/>
<path d="M0 0 C3.56265075 1.53133554 7.12687408 3.05898725 10.69140625 4.5859375 C11.5941478 4.97314972 12.49688934 5.36036194 13.42698669 5.75930786 C19.64905911 8.42226412 25.89226848 11.02932323 32.15234375 13.6015625 C32.98437317 13.94421143 33.81640259 14.28686035 34.67364502 14.63989258 C37.87897685 15.95935791 41.08434455 17.27847391 44.2958374 18.58288574 C46.48766986 19.47333773 48.6757118 20.37257452 50.86328125 21.2734375 C51.83079567 21.66144028 51.83079567 21.66144028 52.81785583 22.05728149 C58.60735815 24.45785122 58.60735815 24.45785122 60.625 27.25 C61.0625 30.6875 61.0625 30.6875 60.625 34.25 C57.93026762 37.55568619 55.41378181 38.99931172 51.42700195 40.3972168 C50.38683426 40.76828049 49.34666656 41.13934418 48.27497864 41.52165222 C47.1491185 41.91024918 46.02325836 42.29884613 44.86328125 42.69921875 C43.68525436 43.1161348 42.50722748 43.53305084 41.29350281 43.96260071 C38.14778281 45.07372117 34.99895138 46.17493408 31.8480835 47.27130127 C27.51112599 48.78354901 23.18135425 50.31632344 18.849823 51.84402466 C16.40197584 52.70528802 13.95285503 53.56294004 11.50247192 54.41696167 C5.46275355 56.52460455 -0.5529766 58.6762299 -6.53759766 60.93603516 C-7.67268265 61.36028275 -8.80776764 61.78453033 -9.97724915 62.22163391 C-12.11047714 63.02210729 -14.23910694 63.83498814 -16.36198425 64.66252136 C-25.3274319 68.00824584 -31.22235416 66.56177263 -39.89453125 63.22265625 C-40.70319138 62.91779297 -41.5118515 62.61292969 -42.34501648 62.29882812 C-44.96184725 61.31027437 -47.57467225 60.31158037 -50.1875 59.3125 C-51.98546145 58.63085998 -53.78363983 57.9497919 -55.58203125 57.26928711 C-60.85024965 55.27300997 -66.11323666 53.26321907 -71.375 51.25 C-72.84683954 50.6874924 -74.31868182 50.12499194 -75.79052734 49.5625 C-82.99186817 46.80849206 -90.18733979 44.03952532 -97.375 41.25 C-97.34881592 42.04696289 -97.32263184 42.84392578 -97.2956543 43.66503906 C-97.19171055 47.27649213 -97.12667915 50.88763072 -97.0625 54.5 C-96.9996582 56.38138672 -96.9996582 56.38138672 -96.93554688 58.30078125 C-96.91943359 59.50605469 -96.90332031 60.71132812 -96.88671875 61.953125 C-96.86053467 63.06333008 -96.83435059 64.17353516 -96.80737305 65.31738281 C-97.375 68.25 -97.375 68.25 -99.71020508 70.64746094 C-102.375 72.25 -102.375 72.25 -105.5 72.1875 C-108.4660754 71.2203015 -109.47491803 70.63570064 -111.375 68.25 C-111.67355443 65.21281891 -111.79521713 62.38512007 -111.7734375 59.34765625 C-111.77630768 58.47354599 -111.77917786 57.59943573 -111.78213501 56.69883728 C-111.78417619 54.85040642 -111.77864256 53.00195398 -111.76611328 51.15356445 C-111.75007936 48.32649277 -111.7659499 45.5008549 -111.78515625 42.67382812 C-111.78317345 40.87760101 -111.77932901 39.08137479 -111.7734375 37.28515625 C-111.77951019 36.44026138 -111.78558289 35.59536652 -111.7918396 34.72486877 C-111.75116308 31.32309417 -111.70406278 28.90049284 -110.15405273 25.83642578 C-108.04368099 23.95455456 -106.11422519 22.94499098 -103.51171875 21.83203125 C-102.49787109 21.39060791 -101.48402344 20.94918457 -100.43945312 20.49438477 C-99.32505859 20.02186279 -98.21066406 19.54934082 -97.0625 19.0625 C-95.26771687 18.28367636 -93.47296024 17.50478996 -91.6789856 16.72410583 C-90.38032737 16.15954867 -89.08105207 15.59640922 -87.78121948 15.03456116 C-79.78480646 11.5758353 -71.83859413 8.00516365 -63.88931274 4.43978882 C-61.42254181 3.33381531 -58.95494751 2.22970135 -56.48706055 1.1262207 C-54.9288733 0.42920012 -53.37068644 -0.26782134 -51.8125 -0.96484375 C-51.07002518 -1.29671188 -50.32755035 -1.62858002 -49.56257629 -1.97050476 C-44.53575243 -4.22050242 -39.5281586 -6.50934162 -34.5390625 -8.84204102 C-23.59056076 -13.43561931 -10.13413128 -4.37880487 0 0 Z " fill="#BD423E" transform="translate(144.375,45.75)"/>
<path d="M0 0 C0.89913116 0.38129562 1.79826233 0.76259125 2.72463989 1.15544128 C5.64315687 2.39469374 8.55800947 3.64230032 11.47265625 4.890625 C13.48801149 5.74987232 15.5035567 6.60867418 17.51928711 7.46704102 C20.5728424 8.76753344 23.62615573 10.06856805 26.67842102 11.37208557 C33.0049577 14.07222051 39.3451798 16.73640469 45.69921875 19.37109375 C47.95706889 20.31164669 50.21458054 21.25300663 52.47195435 22.19470215 C53.87934953 22.7796031 55.28809085 23.36127631 56.69821167 23.9395752 C58.6385779 24.73599613 60.57357283 25.54430534 62.5078125 26.35546875 C64.12055054 27.02243774 64.12055054 27.02243774 65.76586914 27.70288086 C68.66660149 29.20886806 70.50736487 30.58156386 72.53515625 33.140625 C72.53515625 36.703125 72.53515625 36.703125 71.53515625 40.140625 C68.68897363 42.75199063 65.71450218 43.98885161 62.10595703 45.28198242 C61.01606476 45.67637009 59.92617249 46.07075775 58.80325317 46.47709656 C57.62423431 46.89586563 56.44521545 47.3146347 55.23046875 47.74609375 C53.38616776 48.41044182 53.38616776 48.41044182 51.50460815 49.08821106 C48.22397402 50.26991042 44.9404645 51.44340661 41.65625 52.6151123 C37.75704505 54.00792396 33.86128571 55.41033752 29.96514511 56.81169319 C26.78905492 57.95358894 23.61192178 59.092371 20.43218994 60.22409058 C14.59565874 62.30514688 8.77608029 64.41420817 2.99121094 66.63525391 C1.98806854 67.01587479 0.98492615 67.39649567 -0.0486145 67.78865051 C-1.89102807 68.49061544 -3.72881045 69.20492286 -5.56051636 69.93437195 C-6.37473053 70.24260391 -7.1889447 70.55083588 -8.02783203 70.8684082 C-8.72111603 71.13998245 -9.41440002 71.4115567 -10.12869263 71.69136047 C-15.70033994 72.76284231 -20.93587611 70.79065693 -26.1027832 68.83984375 C-27.03584038 68.49090561 -27.03584038 68.49090561 -27.98774719 68.13491821 C-30.02050193 67.37277641 -32.0492807 66.60060947 -34.078125 65.828125 C-35.4980019 65.29327159 -36.91810561 64.75901991 -38.33842468 64.2253418 C-42.06034372 62.82485688 -45.77890599 61.41566029 -49.49688721 60.00476074 C-52.53952913 58.85180931 -55.58448073 57.70503484 -58.62957478 56.55857849 C-64.91343139 54.19261621 -71.19583775 51.82276524 -77.47387695 49.44140625 C-78.58527542 49.02028564 -79.69667389 48.59916504 -80.8417511 48.1652832 C-83.46484375 47.140625 -83.46484375 47.140625 -85.46484375 46.140625 C-85.43865967 46.90205811 -85.41247559 47.66349121 -85.38549805 48.44799805 C-85.2813736 51.90782935 -85.21646646 55.36733085 -85.15234375 58.828125 C-85.08950195 60.62540039 -85.08950195 60.62540039 -85.02539062 62.45898438 C-84.8872046 72.38074102 -84.8872046 72.38074102 -87.75390625 75.47265625 C-90.46484375 77.140625 -90.46484375 77.140625 -94.15234375 77.140625 C-97.46484375 76.140625 -97.46484375 76.140625 -99.46484375 73.140625 C-99.73899841 71.2502594 -99.73899841 71.2502594 -99.77124023 69.09985352 C-99.78722763 68.29214005 -99.80321503 67.48442657 -99.81968689 66.65223694 C-99.82504959 65.78344406 -99.83041229 64.91465118 -99.8359375 64.01953125 C-99.84496597 63.12322495 -99.85399445 62.22691864 -99.86329651 61.30345154 C-99.87780209 59.40798282 -99.88668651 57.51246399 -99.89038086 55.61694336 C-99.90228646 52.71707941 -99.95147498 49.8193372 -100.00195312 46.91992188 C-100.01141636 45.07813539 -100.01865187 43.23633583 -100.0234375 41.39453125 C-100.04296982 40.5277626 -100.06250214 39.66099396 -100.08262634 38.76795959 C-100.03781406 32.78928827 -100.03781406 32.78928827 -97.36914062 29.76806641 C-94.12270781 27.94890693 -90.85355283 26.31513635 -87.4375 24.84765625 C-86.74792206 24.54398132 -86.05834412 24.2403064 -85.34786987 23.9274292 C-83.07729385 22.92915137 -80.80236528 21.94122433 -78.52734375 20.953125 C-76.93851493 20.25661807 -75.35006056 19.55925639 -73.76196289 18.86108398 C-71.26804534 17.76472905 -68.77391819 16.6688861 -66.27861023 15.57569885 C-60.08521231 12.86106981 -53.90783846 10.11210449 -47.73828125 7.34375 C-46.86846115 6.95350143 -45.99864105 6.56325287 -45.10246277 6.16117859 C-41.69418911 4.63133086 -38.28634975 3.10051984 -34.87893677 1.5687561 C-32.52142078 0.50941205 -30.16312553 -0.54817943 -27.8046875 -1.60546875 C-26.75243484 -2.07935028 -26.75243484 -2.07935028 -25.67892456 -2.56280518 C-15.75009774 -7.01034224 -9.54110552 -4.10685059 0 0 Z " fill="#473533" transform="translate(406.46484375,40.859375)"/>
<path d="M0 0 C-0.4798557 16.21912256 -4.4985605 29.36950475 -15.875 41.3125 C-27.66016812 52.31199024 -40.77302169 56.77513516 -56.71582031 56.52124023 C-70.99763801 55.91815078 -82.25208454 50.24940802 -93 41 C-103.00205523 29.31199228 -108.57122013 16.4229435 -108 1 C-101.7914675 2.21493415 -96.01939624 3.9415202 -90.125 6.22265625 C-88.46362736 6.84983641 -86.80216633 7.47678248 -85.140625 8.10351562 C-82.56559128 9.0829025 -79.99190512 10.06560758 -77.41992188 11.05297852 C-74.90829863 12.01447426 -72.39203425 12.96293295 -69.875 13.91015625 C-69.11848145 14.20495377 -68.36196289 14.49975128 -67.58251953 14.80348206 C-60.45644773 17.47197959 -53.63683729 19.13470438 -46.27734375 16.4453125 C-45.25511719 16.08171631 -44.23289062 15.71812012 -43.1796875 15.34350586 C-42.10976563 14.94139893 -41.03984375 14.53929199 -39.9375 14.125 C-38.81730469 13.72095947 -37.69710937 13.31691895 -36.54296875 12.90063477 C-33.01996538 11.62270676 -29.50893364 10.31603189 -26 9 C-24.84000488 8.5663916 -23.68000977 8.1327832 -22.48486328 7.68603516 C-15.93096239 5.23293285 -15.93096239 5.23293285 -9.39038086 2.74462891 C-8.44686768 2.3841748 -7.50335449 2.0237207 -6.53125 1.65234375 C-5.70173828 1.33257568 -4.87222656 1.01280762 -4.01757812 0.68334961 C-2 0 -2 0 0 0 Z " fill="#463533" transform="translate(447,106)"/>
<path d="M0 0 C0.74165217 14.58582611 -4.13161569 26.2812576 -12.1875 38.25 C-25.24150876 51.01391968 -38.42275112 56.41574528 -56.41333008 56.36791992 C-63.52196129 56.2298946 -69.52516569 55.04227146 -76 52 C-76.78246094 51.649375 -77.56492187 51.29875 -78.37109375 50.9375 C-90.75936381 44.75410004 -100.44403316 33.66390591 -105.22265625 20.72265625 C-107.05795024 14.294516 -108 7.67798862 -108 1 C-102.34313516 1.64772377 -97.40976644 3.59591186 -92.140625 5.6328125 C-90.20086646 6.36419856 -88.26075072 7.09463784 -86.3203125 7.82421875 C-83.28426642 8.97144198 -80.25104343 10.1245968 -77.22363281 11.29443359 C-74.28612627 12.42626855 -71.33962454 13.53133026 -68.390625 14.6328125 C-67.49861389 14.9848172 -66.60660278 15.3368219 -65.68756104 15.69949341 C-55.17274259 19.57393718 -46.9496135 17.01594947 -36.77734375 13.18359375 C-35.75065079 12.80767593 -34.72395782 12.43175812 -33.66615295 12.04444885 C-30.41911192 10.85307779 -27.17826464 9.64582675 -23.9375 8.4375 C-20.66337399 7.22917159 -17.38807405 6.02407845 -14.11244202 4.81983948 C-12.08136474 4.07179106 -10.05141262 3.32067938 -8.02268982 2.56626892 C-7.11406693 2.22914383 -6.20544403 1.89201874 -5.26928711 1.54467773 C-4.46671982 1.24569077 -3.66415253 0.9467038 -2.83726501 0.63865662 C-1 0 -1 0 0 0 Z " fill="#BE413E" transform="translate(173,106)"/>
<path d="M0 0 C0.66 0 1.32 0 2 0 C3.68672711 4.01270586 5.34571326 8.03632377 7 12.0625 C7.47695312 13.19623047 7.95390625 14.32996094 8.4453125 15.49804688 C8.89648438 16.60341797 9.34765625 17.70878906 9.8125 18.84765625 C10.23144531 19.85836182 10.65039062 20.86906738 11.08203125 21.91040039 C12.88513455 27.97908981 11.89019303 33.36210375 10.50390625 39.4296875 C10.35090561 40.10548859 10.19790497 40.78128967 10.04026794 41.47756958 C9.71848793 42.89178858 9.39308949 44.30518879 9.06420898 45.71777344 C8.5594604 47.88806953 8.0669677 50.06088556 7.57617188 52.234375 C5.14838005 62.85161995 5.14838005 62.85161995 4 64 C2.00041636 64.04080783 -0.00045254 64.04254356 -2 64 C-3.17584037 59.45122345 -4.33271942 54.89817788 -5.47290039 50.34033203 C-5.86268273 48.79314633 -6.25745768 47.24720897 -6.6574707 45.70263672 C-7.23431669 43.47158943 -7.79256445 41.23654601 -8.34765625 39 C-8.52780777 38.31945557 -8.70795929 37.63891113 -8.89356995 36.93774414 C-10.62039969 29.82444062 -9.66092726 23.94821405 -6.93359375 17.1875 C-6.53076172 16.17558594 -6.12792969 15.16367188 -5.71289062 14.12109375 C-5.29201172 13.09113281 -4.87113281 12.06117188 -4.4375 11 C-4.01275391 9.93910156 -3.58800781 8.87820312 -3.15039062 7.78515625 C-2.10862582 5.18659686 -1.05835452 2.59183655 0 0 Z " fill="#BE413E" transform="translate(118,218)"/>
<path d="M0 0 C0.66 0 1.32 0 2 0 C3.72004613 4.13305724 5.39490848 8.28303171 7.0625 12.4375 C7.54783203 13.60216797 8.03316406 14.76683594 8.53320312 15.96679688 C11.28078645 22.88447121 12.81495141 27.75378683 11 35 C10.74984131 36.1247876 10.49968262 37.2495752 10.24194336 38.40844727 C9.35230219 42.30496087 8.40311413 46.18436949 7.4375 50.0625 C7.10429849 51.41849231 6.77161218 52.77461133 6.43945312 54.13085938 C5.63134486 57.42185101 4.81806854 60.7114728 4 64 C2.02 64 0.04 64 -2 64 C-4.14874083 57.77676005 -5.63471405 51.46930347 -7.125 45.0625 C-7.40214844 43.90814453 -7.67929687 42.75378906 -7.96484375 41.56445312 C-10.70762005 29.78943075 -9.67577477 23.176943 -5 12.0625 C-4.52304687 10.90169922 -4.04609375 9.74089844 -3.5546875 8.54492188 C-2.38061516 5.69192609 -1.19549499 2.84406987 0 0 Z " fill="#463533" transform="translate(392,218)"/>
<path d="M0 0 C8.25 0 16.5 0 25 0 C23.58973916 2.82052168 22.49157565 4.83131327 20.6171875 7.234375 C20.17246094 7.80800781 19.72773437 8.38164062 19.26953125 8.97265625 C18.80933594 9.55917969 18.34914063 10.14570313 17.875 10.75 C17.40707031 11.35199219 16.93914062 11.95398438 16.45703125 12.57421875 C15.30774993 14.05186616 14.15428765 15.52626005 13 17 C8.79995746 15.59998582 7.2404045 12.55715855 4.8125 9.0625 C4.34908203 8.41603516 3.88566406 7.76957031 3.40820312 7.10351562 C0 2.26979013 0 2.26979013 0 0 Z " fill="#BC433D" transform="translate(107,173)"/>
<path d="M0 0 C8.25 0 16.5 0 25 0 C22.31591679 4.69714562 20.09211736 8.37125721 16.75 12.4375 C16.04359375 13.30246094 15.3371875 14.16742188 14.609375 15.05859375 C14.07828125 15.69925781 13.5471875 16.33992188 13 17 C8.86437228 15.47285307 6.76266743 12.50411777 4.25 9.0625 C3.83878906 8.52431641 3.42757813 7.98613281 3.00390625 7.43164062 C0 3.38484998 0 3.38484998 0 0 Z " fill="#463634" transform="translate(381,173)"/>
</svg>
